<?xml version="1.0" encoding="UTF-8"?>
<!DOCTYPE svg PUBLIC "-//W3C//DTD SVG 1.1//EN" "http://www.w3.org/Graphics/SVG/1.1/DTD/svg11.dtd">
<svg version="1.2" xmlns="http://www.w3.org/2000/svg" xmlns:xlink="http://www.w3.org/1999/xlink" x="0" y="0" width="785" height="325" viewBox="0 0 785 325">
<style type="text/css"><![CDATA[
text { font:12px Dialog; }
]]></style>
<rect x="-485" y="-370" width="1755" height="1067" style="fill:rgb(255,255,255);stroke:none" />
<clipPath id="clip1"><path d="M701,129 L771,129 L771,198 L701,198 L701,129 Z" /></clipPath>
<path d="M768,163 C768,145.3268738 753.4492188,131 735.5,131 C717.5507202,131 703,145.3269043 703,163 C703,180.6731262 717.5507813,195 735.500061,195 C753.4492798,194.9999695 768,180.6730652 768,162.9999542 Z" style="fill:none;stroke:rgb(128,128,128)" clip-path="url(#clip1)" />
<clipPath id="clip2"><path d="M730,150 L742,150 L742,177 L730,177 L730,150 Z" /></clipPath>
<path d="M733.8369141,159.0305176 L733.8369141,157.767334 L738.1630859,157.767334 L738.1630859,159.0290527 L736.9145508,159.2434082 L736.9145508,167.7668457 L738.1630859,167.9812012 L738.1630859,169.232666 L733.8369141,169.232666 L733.8369141,167.9797363 L735.0854492,167.7653809 L735.0854492,159.244873 Z" style="fill:rgb(76,76,76);stroke:none" clip-path="url(#clip2)" />
<clipPath id="clip3"><path d="M15,149 L184,149 L184,192 L15,192 Z M56.999939,170 C56.999939,158.9542999 47.8217773,150 36.499939,150 C25.1781006,150 15.999939,158.9543152 16,170 C16,181.0457001 25.1781616,190 36.5,190 C47.8218384,189.9999847 57,181.0456696 56.999939,169.9999695 Z M124.999939,169 C124.999939,158.5065918 116.4933472,150 105.999939,150 C95.5065308,150 86.999939,158.5065918 87,169 C87,179.4934082 95.5065918,188 106,188 C116.4934082,187.9999847 125,179.4933777 124.999939,168.9999695 Z M181.999939,170 C181.999939,159.5065918 173.4933472,151 162.999939,151 C152.5065308,151 143.999939,159.5065918 144,170 C144,180.4934082 152.5065918,189 163,189 C173.4934082,188.9999847 182,180.4933777 181.999939,169.9999695 Z" /></clipPath>
<path d="M37,170 L163,170" style="fill:none;stroke:rgb(128,128,128)" clip-path="url(#clip3)" />
<clipPath id="clip4"><path d="M15,149 L184,149 L184,192 L15,192 Z M56.999939,170 C56.999939,158.9542999 47.8217773,150 36.499939,150 C25.1781006,150 15.999939,158.9543152 16,170 C16,181.0457001 25.1781616,190 36.5,190 C47.8218384,189.9999847 57,181.0456696 56.999939,169.9999695 Z M124.999939,169 C124.999939,158.5065918 116.4933472,150 105.999939,150 C95.5065308,150 86.999939,158.5065918 87,169 C87,179.4934082 95.5065918,188 106,188 C116.4934082,187.9999847 125,179.4933777 124.999939,168.9999695 Z M181.999939,170 C181.999939,159.5065918 173.4933472,151 162.999939,151 C152.5065308,151 143.999939,159.5065918 144,170 C144,180.4934082 152.5065918,189 163,189 C173.4934082,188.9999847 182,180.4933777 181.999939,169.9999695 Z" /></clipPath>
<path d="M37,170 L163,170" style="fill:none;stroke:rgb(128,128,128)" clip-path="url(#clip4)" />
<clipPath id="clip5"><path d="M14,148 L185,148 L185,193 L14,193 L14,148 Z" /></clipPath>
<path d="M58.9996948,170.3899994 L71.9995728,170.3249969" style="fill:none;stroke:rgb(128,128,128)" clip-path="url(#clip5)" />
<clipPath id="clip6"><path d="M14,148 L60,148 L60,193 L14,193 L14,148 Z" /></clipPath>
<path d="M56.999939,170 C56.999939,158.9542999 47.8217773,150 36.499939,150 C25.1781006,150 15.999939,158.9543152 16,170 C16,181.0457001 25.1781616,190 36.5,190 C47.8218384,189.9999847 57,181.0456696 56.999939,169.9999695 Z" style="fill:none;stroke:rgb(128,128,128)" clip-path="url(#clip6)" />
<clipPath id="clip7"><path d="M28,157 L46,157 L46,184 L28,184 L28,157 Z" /></clipPath>
<path d="M31.0585938,175.203125 L31.9023438,175.0859375 L35.8789063,164.8125 L37.1992188,164.8125 L41.1054688,175.0859375 L41.9414063,175.203125 L41.9414063,176.1875 L38.6757813,176.1875 L38.6757813,175.203125 L39.5351563,175.0546875 L38.7851563,172.9609375 L34.2304688,172.9609375 L33.4570313,175.0546875 L34.3164063,175.203125 L34.3164063,176.1875 L31.0585938,176.1875 Z M34.7070313,171.671875 L38.3164063,171.671875 L36.5507813,166.7890625 L36.5039063,166.7890625 Z" style="fill:rgb(89,89,89);stroke:none" clip-path="url(#clip7)" />
<clipPath id="clip8"><path d="M58,164 L71,164 L71,177 L58,177 L58,164 Z" /></clipPath>
<path d="M68.499939,170 C68.499939,167.5147247 66.4852295,165.5 63.999939,165.5 C61.5147095,165.5 59.499939,167.5147247 59.5,170 C59.5,172.4852905 61.5147095,174.5 64,174.5 C66.4852295,174.5 68.5,172.4852753 68.499939,170 Z" style="fill:rgb(250,250,250);stroke:none" clip-path="url(#clip8)" />
<clipPath id="clip9"><path d="M58,164 L71,164 L71,177 L58,177 L58,164 Z" /></clipPath>
<path d="M68.499939,170 C68.499939,167.5147247 66.4852295,165.5 63.999939,165.5 C61.5147095,165.5 59.499939,167.5147247 59.5,170 C59.5,172.4852905 61.5147095,174.5 64,174.5 C66.4852295,174.5 68.5,172.4852753 68.499939,170 Z" style="fill:none;stroke:rgb(128,128,128)" clip-path="url(#clip9)" />
<clipPath id="clip10"><path d="M58,164 L71,164 L71,177 L58,177 L58,164 Z" /></clipPath>
<path d="M62,170 L66,170" style="fill:none;stroke:rgb(150,160,200)" clip-path="url(#clip10)" />
<clipPath id="clip11"><path d="M85,148 L128,148 L128,191 L85,191 L85,148 Z" /></clipPath>
<path d="M124.999939,169 C124.999939,158.5065918 116.4933472,150 105.999939,150 C95.5065308,150 86.999939,158.5065918 87,169 C87,179.4934082 95.5065918,188 106,188 C116.4934082,187.9999847 125,179.4933777 124.999939,168.9999695 Z" style="fill:none;stroke:rgb(128,128,128)" clip-path="url(#clip11)" />
<clipPath id="clip12"><path d="M98,156 L115,156 L115,183 L98,183 L98,156 Z" /></clipPath>
<path d="M106.3671875,163.8125 C107.5546875,163.8129883 108.4833984,164.0698242 109.1523438,164.5825195 C109.8217773,165.0957031 110.15625,165.8652344 110.15625,166.890625 C110.15625,167.3964844 109.9960938,167.8481445 109.6757813,168.246582 C109.3554688,168.6450195 108.9326172,168.9404297 108.40625,169.1328125 C109.0888672,169.2792969 109.6279297,169.6152344 110.0234375,170.1411133 C110.4194336,170.6674805 110.6171875,171.2792969 110.6171875,171.9765625 C110.6171875,173.0185547 110.2788086,173.8144531 109.6015625,174.3637695 C108.9248047,174.9135742 108.0078125,175.1875 106.8515625,175.1875 L101.3828125,175.1875 L101.3828125,174.203125 L102.65625,173.984375 L102.65625,165.0234375 L101.3828125,164.8046875 L101.3828125,163.8125 L102.65625,163.8125 Z M104.1953125,169.8515625 L104.1953125,173.984375 L106.8515625,173.984375 C107.5546875,173.9848633 108.1005859,173.8120117 108.4882813,173.465332 C108.8764648,173.1191406 109.0703125,172.6279297 109.0703125,171.9921875 C109.0703125,171.3261719 108.9077148,170.8027344 108.5820313,170.4223633 C108.2568359,170.0424805 107.7578125,169.8520508 107.0859375,169.8515625 Z M104.1953125,168.6484375 L106.765625,168.6484375 C107.3178711,168.6333008 107.7646484,168.4692383 108.1054688,168.1567383 C108.4467773,167.8442383 108.6171875,167.4121094 108.6171875,166.859375 C108.6171875,166.2451172 108.4248047,165.7856445 108.0390625,165.480957 C107.6538086,165.1762695 107.0966797,165.0239258 106.3671875,165.0234375 L104.1953125,165.0234375 Z" style="fill:rgb(0,0,0);stroke:none" clip-path="url(#clip12)" />
<clipPath id="clip13"><path d="M142,149 L185,149 L185,192 L142,192 L142,149 Z" /></clipPath>
<path d="M181.999939,170 C181.999939,159.5065918 173.4933472,151 162.999939,151 C152.5065308,151 143.999939,159.5065918 144,170 C144,180.4934082 152.5065918,189 163,189 C173.4934082,188.9999847 182,180.4933777 181.999939,169.9999695 Z" style="fill:none;stroke:rgb(128,128,128)" clip-path="url(#clip13)" />
<clipPath id="clip14"><path d="M155,157 L172,157 L172,184 L155,184 L155,157 Z" /></clipPath>
<path d="M167.4101563,168.3046875 L166.3242188,168.3046875 L166.0351563,166.6953125 C165.7851563,166.4511719 165.4780273,166.2504883 165.1132813,166.0942383 C164.7490234,165.9379883 164.3139648,165.8598633 163.8085938,165.859375 C162.6264648,165.8598633 161.7177734,166.2885742 161.0820313,167.1450195 C160.4467773,168.0019531 160.1289063,169.0888672 160.1289063,170.40625 L160.1289063,170.5859375 C160.1289063,171.9042969 160.4404297,172.9941406 161.0625,173.855957 C161.6850586,174.7182617 162.5483398,175.1489258 163.6523438,175.1484375 C164.1679688,175.1489258 164.6367188,175.0683594 165.0585938,174.9067383 C165.4804688,174.7456055 165.8061523,174.5473633 166.0351563,174.3125 L166.3242188,172.703125 L167.4101563,172.703125 L167.4101563,174.7265625 C167.0820313,175.1489258 166.5898438,175.5253906 165.9335938,175.855957 C165.2773438,176.1870117 164.5170898,176.3515625 163.6523438,176.3515625 C162.1733398,176.3515625 160.9599609,175.8051758 160.0117188,174.7114258 C159.0639648,173.6176758 158.5898438,172.2426758 158.5898438,170.5859375 L158.5898438,170.421875 C158.5898438,168.7558594 159.0561523,167.3769531 159.9882813,166.2856445 C160.9208984,165.1948242 162.1420898,164.6489258 163.6523438,164.6484375 C164.5170898,164.6489258 165.2773438,164.8168945 165.9335938,165.152832 C166.5898438,165.4887695 167.0820313,165.8652344 167.4101563,166.28125 Z" style="fill:rgb(0,0,0);stroke:none" clip-path="url(#clip14)" />
<clipPath id="clip15"><path d="M375,146 L657,146 L657,189 L375,189 Z M416.9999695,167 C416.9999695,155.9542999 407.8218079,147 396.4999695,147 C385.1781311,147 375.9999695,155.9543152 376,167 C376,178.0457001 385.1781616,187 396.5,187 C407.8218384,186.9999847 417,178.0456696 416.9999695,166.9999695 Z M485,166 C485,155.5065918 476.4933777,147 465.9999695,147 C455.5065613,147 446.9999695,155.5065918 447,166 C447,176.4934235 455.5065918,185 466,185 C476.4934082,184.9999847 485,176.4933777 485,165.9999695 Z M541,167 C541,157.0588684 532.7172852,149 522.5,149 C512.2827148,149 504,157.0588837 504,167 C504,176.9411316 512.2827148,185 522.5,185 C532.7172852,184.9999847 541,176.9411011 541,166.9999847 Z M598,166 C598,155.5065918 589.4934082,147 579,147 C568.5065918,147 560,155.5065918 560,166 C560,176.4934235 568.5065918,185 579,185 C589.4934082,184.9999847 598,176.4933777 598,165.9999695 Z M655,167 C655,156.5065918 646.4934082,148 636,148 C625.5065918,148 617,156.5065918 617,167 C617,177.4934235 625.5065918,186 636,186 C646.4934082,185.9999847 655,177.4933777 655,166.9999695 Z" /></clipPath>
<path d="M397,167 L636,167" style="fill:none;stroke:rgb(128,128,128)" clip-path="url(#clip15)" />
<clipPath id="clip16"><path d="M375,146 L657,146 L657,189 L375,189 Z M416.9999695,167 C416.9999695,155.9542999 407.8218079,147 396.4999695,147 C385.1781311,147 375.9999695,155.9543152 376,167 C376,178.0457001 385.1781616,187 396.5,187 C407.8218384,186.9999847 417,178.0456696 416.9999695,166.9999695 Z M485,166 C485,155.5065918 476.4933777,147 465.9999695,147 C455.5065613,147 446.9999695,155.5065918 447,166 C447,176.4934235 455.5065918,185 466,185 C476.4934082,184.9999847 485,176.4933777 485,165.9999695 Z M541,167 C541,157.0588684 532.7172852,149 522.5,149 C512.2827148,149 504,157.0588837 504,167 C504,176.9411316 512.2827148,185 522.5,185 C532.7172852,184.9999847 541,176.9411011 541,166.9999847 Z M598,166 C598,155.5065918 589.4934082,147 579,147 C568.5065918,147 560,155.5065918 560,166 C560,176.4934235 568.5065918,185 579,185 C589.4934082,184.9999847 598,176.4933777 598,165.9999695 Z M655,167 C655,156.5065918 646.4934082,148 636,148 C625.5065918,148 617,156.5065918 617,167 C617,177.4934235 625.5065918,186 636,186 C646.4934082,185.9999847 655,177.4933777 655,166.9999695 Z" /></clipPath>
<path d="M397,167 L636,167" style="fill:none;stroke:rgb(128,128,128)" clip-path="url(#clip16)" />
<clipPath id="clip17"><path d="M375,146 L657,146 L657,189 L375,189 Z M416.9999695,167 C416.9999695,155.9542999 407.8218079,147 396.4999695,147 C385.1781311,147 375.9999695,155.9543152 376,167 C376,178.0457001 385.1781616,187 396.5,187 C407.8218384,186.9999847 417,178.0456696 416.9999695,166.9999695 Z M485,166 C485,155.5065918 476.4933777,147 465.9999695,147 C455.5065613,147 446.9999695,155.5065918 447,166 C447,176.4934235 455.5065918,185 466,185 C476.4934082,184.9999847 485,176.4933777 485,165.9999695 Z M541,167 C541,157.0588684 532.7172852,149 522.5,149 C512.2827148,149 504,157.0588837 504,167 C504,176.9411316 512.2827148,185 522.5,185 C532.7172852,184.9999847 541,176.9411011 541,166.9999847 Z M598,166 C598,155.5065918 589.4934082,147 579,147 C568.5065918,147 560,155.5065918 560,166 C560,176.4934235 568.5065918,185 579,185 C589.4934082,184.9999847 598,176.4933777 598,165.9999695 Z M655,167 C655,156.5065918 646.4934082,148 636,148 C625.5065918,148 617,156.5065918 617,167 C617,177.4934235 625.5065918,186 636,186 C646.4934082,185.9999847 655,177.4933777 655,166.9999695 Z" /></clipPath>
<path d="M397,167 L636,167" style="fill:none;stroke:rgb(128,128,128)" clip-path="url(#clip17)" />
<clipPath id="clip18"><path d="M375,146 L657,146 L657,189 L375,189 Z M416.9999695,167 C416.9999695,155.9542999 407.8218079,147 396.4999695,147 C385.1781311,147 375.9999695,155.9543152 376,167 C376,178.0457001 385.1781616,187 396.5,187 C407.8218384,186.9999847 417,178.0456696 416.9999695,166.9999695 Z M485,166 C485,155.5065918 476.4933777,147 465.9999695,147 C455.5065613,147 446.9999695,155.5065918 447,166 C447,176.4934235 455.5065918,185 466,185 C476.4934082,184.9999847 485,176.4933777 485,165.9999695 Z M541,167 C541,157.0588684 532.7172852,149 522.5,149 C512.2827148,149 504,157.0588837 504,167 C504,176.9411316 512.2827148,185 522.5,185 C532.7172852,184.9999847 541,176.9411011 541,166.9999847 Z M598,166 C598,155.5065918 589.4934082,147 579,147 C568.5065918,147 560,155.5065918 560,166 C560,176.4934235 568.5065918,185 579,185 C589.4934082,184.9999847 598,176.4933777 598,165.9999695 Z M655,167 C655,156.5065918 646.4934082,148 636,148 C625.5065918,148 617,156.5065918 617,167 C617,177.4934235 625.5065918,186 636,186 C646.4934082,185.9999847 655,177.4933777 655,166.9999695 Z" /></clipPath>
<path d="M397,167 L636,167" style="fill:none;stroke:rgb(128,128,128)" clip-path="url(#clip18)" />
<clipPath id="clip19"><path d="M374,145 L658,145 L658,190 L374,190 L374,145 Z" /></clipPath>
<path d="M418.9997253,167.3899994 L431.9995422,167.3249969" style="fill:none;stroke:rgb(128,128,128)" clip-path="url(#clip19)" />
<clipPath id="clip20"><path d="M374,145 L420,145 L420,190 L374,190 L374,145 Z" /></clipPath>
<path d="M416.9999695,167 C416.9999695,155.9542999 407.8218079,147 396.4999695,147 C385.1781311,147 375.9999695,155.9543152 376,167 C376,178.0457001 385.1781616,187 396.5,187 C407.8218384,186.9999847 417,178.0456696 416.9999695,166.9999695 Z" style="fill:rgb(195,214,155);stroke:none" clip-path="url(#clip20)" />
<clipPath id="clip21"><path d="M374,145 L420,145 L420,190 L374,190 L374,145 Z" /></clipPath>
<path d="M416.9999695,167 C416.9999695,155.9542999 407.8218079,147 396.4999695,147 C385.1781311,147 375.9999695,155.9543152 376,167 C376,178.0457001 385.1781616,187 396.5,187 C407.8218384,186.9999847 417,178.0456696 416.9999695,166.9999695 Z" style="fill:none;stroke:rgb(128,128,128)" clip-path="url(#clip21)" />
<clipPath id="clip22"><path d="M388,154 L406,154 L406,181 L388,181 L388,154 Z" /></clipPath>
<path d="M396.4140625,161.8125 C397.8984375,161.8129883 399.0927734,162.2700195 399.9960938,163.184082 C400.8999023,164.0981445 401.3515625,165.2792969 401.3515625,166.7265625 L401.3515625,168.28125 C401.3515625,169.7348633 400.8999023,170.9160156 399.9960938,171.824707 C399.0927734,172.7338867 397.8984375,173.1875 396.4140625,173.1875 L391.6484375,173.1875 L391.6484375,172.203125 L392.921875,171.984375 L392.921875,163.0234375 L391.6484375,162.8046875 L391.6484375,161.8125 L392.921875,161.8125 Z M394.4609375,163.0234375 L394.4609375,171.984375 L396.4140625,171.984375 C397.4663086,171.9848633 398.2958984,171.6386719 398.9023438,170.9458008 C399.5092773,170.253418 399.8125,169.3652344 399.8125,168.28125 L399.8125,166.7109375 C399.8125,165.6386719 399.5092773,164.7558594 398.9023438,164.0629883 C398.2958984,163.3706055 397.4663086,163.0239258 396.4140625,163.0234375 Z" style="fill:rgb(89,89,89);stroke:none" clip-path="url(#clip22)" />
<clipPath id="clip23"><path d="M418,161 L431,161 L431,174 L418,174 L418,161 Z" /></clipPath>
<path d="M428.4999695,167 C428.4999695,164.5147247 426.48526,162.5 423.9999695,162.5 C421.5147095,162.5 419.4999695,164.5147247 419.5,167 C419.5,169.4852905 421.5147095,171.5 424,171.5 C426.48526,171.5 428.5,169.4852753 428.4999695,167 Z" style="fill:rgb(250,250,250);stroke:none" clip-path="url(#clip23)" />
<clipPath id="clip24"><path d="M418,161 L431,161 L431,174 L418,174 L418,161 Z" /></clipPath>
<path d="M428.4999695,167 C428.4999695,164.5147247 426.48526,162.5 423.9999695,162.5 C421.5147095,162.5 419.4999695,164.5147247 419.5,167 C419.5,169.4852905 421.5147095,171.5 424,171.5 C426.48526,171.5 428.5,169.4852753 428.4999695,167 Z" style="fill:none;stroke:rgb(128,128,128)" clip-path="url(#clip24)" />
<clipPath id="clip25"><path d="M418,161 L431,161 L431,174 L418,174 L418,161 Z" /></clipPath>
<path d="M422,167 L426,167" style="fill:none;stroke:rgb(150,160,200)" clip-path="url(#clip25)" />
<clipPath id="clip26"><path d="M445,145 L488,145 L488,188 L445,188 L445,145 Z" /></clipPath>
<path d="M485,166 C485,155.5065918 476.4933777,147 465.9999695,147 C455.5065613,147 446.9999695,155.5065918 447,166 C447,176.4934235 455.5065918,185 466,185 C476.4934082,184.9999847 485,176.4933777 485,165.9999695 Z" style="fill:none;stroke:rgb(128,128,128)" clip-path="url(#clip26)" />
<clipPath id="clip27"><path d="M458,153 L475,153 L475,180 L458,180 L458,153 Z" /></clipPath>
<path d="M461.5898438,172.1875 L461.5898438,171.203125 L462.8632813,170.984375 L462.8632813,162.0234375 L461.5898438,161.8046875 L461.5898438,160.8125 L470.3242188,160.8125 L470.3242188,163.546875 L469.0039063,163.546875 L468.8789063,162.0234375 L464.4023438,162.0234375 L464.4023438,165.703125 L468.7539063,165.703125 L468.7539063,166.9140625 L464.4023438,166.9140625 L464.4023438,170.984375 L468.9726563,170.984375 L469.0976563,169.4609375 L470.4101563,169.4609375 L470.4101563,172.1875 Z" style="fill:rgb(0,0,0);stroke:none" clip-path="url(#clip27)" />
<clipPath id="clip28"><path d="M502,147 L544,147 L544,188 L502,188 L502,147 Z" /></clipPath>
<path d="M541,167 C541,157.0588684 532.7172852,149 522.5,149 C512.2827148,149 504,157.0588837 504,167 C504,176.9411316 512.2827148,185 522.5,185 C532.7172852,184.9999847 541,176.9411011 541,166.9999847 Z" style="fill:none;stroke:rgb(128,128,128)" clip-path="url(#clip28)" />
<clipPath id="clip29"><path d="M515,154 L531,154 L531,181 L515,181 L515,154 Z" /></clipPath>
<path d="M518.1054688,172.203125 L519.3789063,171.984375 L519.3789063,163.0234375 L518.1054688,162.8046875 L518.1054688,161.8125 L526.8945313,161.8125 L526.8945313,164.546875 L525.5820313,164.546875 L525.4570313,163.0234375 L520.9179688,163.0234375 L520.9179688,166.9453125 L525.3164063,166.9453125 L525.3164063,168.15625 L520.9179688,168.15625 L520.9179688,171.984375 L522.1914063,172.203125 L522.1914063,173.1875 L518.1054688,173.1875 Z" style="fill:rgb(0,0,0);stroke:none" clip-path="url(#clip29)" />
<clipPath id="clip30"><path d="M558,145 L601,145 L601,188 L558,188 L558,145 Z" /></clipPath>
<path d="M598,166 C598,155.5065918 589.4934082,147 579,147 C568.5065918,147 560,155.5065918 560,166 C560,176.4934235 568.5065918,185 579,185 C589.4934082,184.9999847 598,176.4933777 598,165.9999695 Z" style="fill:none;stroke:rgb(128,128,128)" clip-path="url(#clip30)" />
<clipPath id="clip31"><path d="M571,153 L588,153 L588,180 L571,180 L571,153 Z" /></clipPath>
<path d="M583.5898438,170.8984375 C583.2568359,171.2480469 582.7646484,171.5776367 582.1132813,171.887207 C581.4624023,172.1967773 580.6162109,172.3515625 579.5742188,172.3515625 C578.0537109,172.3515625 576.8125,171.8183594 575.8515625,170.7504883 C574.890625,169.6831055 574.4101563,168.2973633 574.4101563,166.59375 L574.4101563,166.40625 C574.4101563,164.6933594 574.8857422,163.3051758 575.8359375,162.2426758 C576.7866211,161.1801758 578.0507813,160.6489258 579.6289063,160.6484375 C580.4726563,160.6489258 581.2138672,160.7807617 581.8515625,161.043457 C582.4897461,161.3066406 583.0273438,161.6542969 583.4648438,162.0859375 L583.4648438,164.1484375 L582.3867188,164.1484375 L582.0117188,162.578125 C581.7568359,162.3701172 581.4482422,162.1987305 581.0859375,162.0629883 C580.7241211,161.9277344 580.2905273,161.8598633 579.7851563,161.859375 C578.5561523,161.8598633 577.609375,162.2807617 576.9453125,163.121582 C576.28125,163.9628906 575.9492188,165.0527344 575.9492188,166.390625 L575.9492188,166.59375 C575.9492188,167.9536133 576.2709961,169.0527344 576.9140625,169.8911133 C577.5576172,170.7299805 578.4443359,171.1489258 579.5742188,171.1484375 C580.1943359,171.1489258 580.7021484,171.0839844 581.0976563,170.9536133 C581.4936523,170.8237305 581.8115234,170.6801758 582.0507813,170.5234375 L582.0507813,168.03125 L580.1835938,167.953125 L580.1835938,166.8203125 L583.5898438,166.8203125 Z" style="fill:rgb(0,0,0);stroke:none" clip-path="url(#clip31)" />
<clipPath id="clip32"><path d="M615,146 L658,146 L658,189 L615,189 L615,146 Z" /></clipPath>
<path d="M655,167 C655,156.5065918 646.4934082,148 636,148 C625.5065918,148 617,156.5065918 617,167 C617,177.4934235 625.5065918,186 636,186 C646.4934082,185.9999847 655,177.4933777 655,166.9999695 Z" style="fill:none;stroke:rgb(128,128,128)" clip-path="url(#clip32)" />
<clipPath id="clip33"><path d="M627,154 L646,154 L646,181 L627,181 L627,154 Z" /></clipPath>
<path d="M630.4296875,162.8046875 L630.4296875,161.8125 L634.515625,161.8125 L634.515625,162.8046875 L633.2421875,163.0234375 L633.2421875,166.953125 L638.7578125,166.953125 L638.7578125,163.0234375 L637.484375,162.8046875 L637.484375,161.8125 L638.7578125,161.8125 L640.296875,161.8125 L641.5703125,161.8125 L641.5703125,162.8046875 L640.296875,163.0234375 L640.296875,171.984375 L641.5703125,172.203125 L641.5703125,173.1875 L637.484375,173.1875 L637.484375,172.203125 L638.7578125,171.984375 L638.7578125,168.1640625 L633.2421875,168.1640625 L633.2421875,171.984375 L634.515625,172.203125 L634.515625,173.1875 L630.4296875,173.1875 L630.4296875,172.203125 L631.703125,171.984375 L631.703125,163.0234375 Z" style="fill:rgb(0,0,0);stroke:none" clip-path="url(#clip33)" />
<clipPath id="clip34"><path d="M45,182 L390,182 L390,272 L45,272 L45,182 Z" /></clipPath>
<path d="M49.8862915,187.9257355 C81,230 338,269 386.1334229,186.1942139" style="fill:none;stroke:rgb(161,161,161);stroke-width:3" clip-path="url(#clip34)" />
<clipPath id="clip35"><path d="M45,182 L390,182 L390,272 L45,272 L45,182 Z" /></clipPath>
<path d="M386.1039734,196.1941681 L386.1334229,186.1942139 L377.4584961,191.1687012 Z" style="fill:rgb(161,161,161);stroke:none" clip-path="url(#clip35)" />
<clipPath id="clip36"><path d="M45,182 L390,182 L390,272 L45,272 L45,182 Z" /></clipPath>
<path d="M386.1039734,196.1941681 L386.1334229,186.1942139 L377.4584961,191.1687012 Z" style="fill:none;stroke:rgb(161,161,161);stroke-width:3" clip-path="url(#clip36)" />
<clipPath id="clip37"><path d="M110,14 L587,14 L587,154 L110,154 L110,14 Z" /></clipPath>
<path d="M114.1019287,150.4615936 C163,28 576,18 579.0169678,146.0056915" style="fill:none;stroke:rgb(161,161,161);stroke-width:3" clip-path="url(#clip37)" />
<clipPath id="clip38"><path d="M110,14 L587,14 L587,154 L110,154 L110,14 Z" /></clipPath>
<path d="M573.8143311,137.4656525 L579.0169678,146.0056915 L583.8115234,137.2300262 Z" style="fill:rgb(161,161,161);stroke:none" clip-path="url(#clip38)" />
<clipPath id="clip39"><path d="M110,14 L587,14 L587,154 L110,154 L110,14 Z" /></clipPath>
<path d="M573.8143311,137.4656525 L579.0169678,146.0056915 L583.8115234,137.2300262 Z" style="fill:none;stroke:rgb(161,161,161);stroke-width:3" clip-path="url(#clip39)" />
<clipPath id="clip40"><path d="M403,112 L529,112 L529,118 L403,118 L403,112 Z" /></clipPath>
<path d="M406.584137,148.1474304 C423,115 522,120 522.5895386,148.0041046" style="fill:none;stroke:rgb(161,161,161);stroke-width:2;stroke-dasharray:12,6;stroke-dashoffset:0" clip-path="url(#clip40)" />
<clipPath id="clip41"><path d="M403,134 L529,134 L529,151 L403,151 L403,134 Z" /></clipPath>
<path d="M406.584137,148.1474304 C423,115 522,120 522.5895386,148.0041046" style="fill:none;stroke:rgb(161,161,161);stroke-width:2;stroke-dasharray:12,6;stroke-dashoffset:0" clip-path="url(#clip41)" />
<clipPath id="clip42"><path d="M403,116 L456,116 L456,136 L403,136 L403,116 Z" /></clipPath>
<path d="M406.584137,148.1474304 C423,115 522,120 522.5895386,148.0041046" style="fill:none;stroke:rgb(161,161,161);stroke-width:2;stroke-dasharray:12,6;stroke-dashoffset:0" clip-path="url(#clip42)" />
<clipPath id="clip43"><path d="M487,116 L529,116 L529,136 L487,136 L487,116 Z" /></clipPath>
<path d="M406.584137,148.1474304 C423,115 522,120 522.5895386,148.0041046" style="fill:none;stroke:rgb(161,161,161);stroke-width:2;stroke-dasharray:12,6;stroke-dashoffset:0" clip-path="url(#clip43)" />
<clipPath id="clip44"><path d="M454,116 L489,116 L489,136 L454,136 L454,116 Z" /></clipPath>
<path d="M406.584137,148.1474304 C423,115 522,120 522.5895386,148.0041046" style="fill:none;stroke:rgb(161,161,161);opacity:0.09803921568627451;stroke-width:2;stroke-dasharray:12,6;stroke-dashoffset:0" clip-path="url(#clip44)" />
<clipPath id="clip45"><path d="M403,112 L529,112 L529,151 L403,151 L403,112 Z" /></clipPath>
<path d="M518.4446411,141.1616364 L522.5895386,148.0041046 L526.4428711,140.9932404 Z" style="fill:rgb(161,161,161);stroke:none" clip-path="url(#clip45)" />
<clipPath id="clip46"><path d="M403,112 L529,112 L529,151 L403,151 L403,112 Z" /></clipPath>
<path d="M518.4446411,141.1616364 L522.5895386,148.0041046 L526.4428711,140.9932404 Z" style="fill:none;stroke:rgb(161,161,161);stroke-width:2" clip-path="url(#clip46)" />
<clipPath id="clip47"><path d="M454,116 L489,116 L489,136 L454,136 L454,116 Z" /></clipPath>
<path d="M459.7409668,130.5766602 L457.1765137,123.8354492 L458.3825684,123.8354492 L459.829834,127.8725586 C459.9865417,128.30896 460.1305542,128.7616272 460.2614746,129.230957 C460.3630371,128.875885 460.5050659,128.4486084 460.6867676,127.9487305 L462.1848145,123.8354492 L463.3591309,123.8354492 L460.807373,130.5766602 Z M464.5715332,122.5849609 L464.5715332,121.2709961 L465.7141113,121.2709961 L465.7141113,122.5849609 Z M464.5715332,130.5766602 L464.5715332,123.8354492 L465.7141113,123.8354492 L465.7141113,130.5766602 Z M471.9411621,129.7451172 C471.5182495,130.1053467 471.1108093,130.3592529 470.7192383,130.5072327 C470.328064,130.6552124 469.9079285,130.7290039 469.4592285,130.7290039 C468.7189331,130.7290039 468.1496277,130.5484924 467.751709,130.186676 C467.354187,129.8248596 467.1550293,129.3626709 467.1550293,128.7993164 C467.1550293,128.469635 467.2304077,128.1681213 467.3803711,127.8951721 C467.5307312,127.6222229 467.7275085,127.4032288 467.9707031,127.2381897 C468.2142944,127.0731506 468.4880371,126.9481812 468.7927246,126.8632813 C469.0172729,126.8045654 469.3556824,126.7474365 469.8083496,126.6918945 C470.7311401,126.5823975 471.4103394,126.4510803 471.8459473,126.2983398 C471.8503113,126.1420288 471.8522949,126.0428467 471.8522949,126 C471.8522949,125.5350342 471.7443848,125.2069397 471.5285645,125.0161133 C471.2365723,124.7582397 470.802948,124.629303 470.2272949,124.6289063 C469.6901245,124.629303 469.293396,124.7237244 469.0371094,124.9117737 C468.7812195,125.1002197 468.59198,125.4334717 468.4689941,125.9111328 L467.3518066,125.7587891 C467.4533691,125.2811279 467.6207886,124.8951111 467.8532715,124.6007385 C468.0861511,124.3067627 468.4225769,124.0802307 468.8625488,123.9215393 C469.3029175,123.7628479 469.8127136,123.6835022 470.392334,123.6831055 C470.9679871,123.6835022 471.43573,123.7513428 471.795166,123.8866272 C472.1549988,124.0223083 472.4196167,124.1925049 472.588623,124.3976135 C472.7580261,124.6031189 472.8766479,124.8621826 472.9440918,125.1748047 C472.9821777,125.3699951 473.0012207,125.7210999 473.0012207,126.2285156 L473.0012207,127.7519531 C473.0012207,128.8143921 473.0258179,129.4864502 473.0742188,129.7677307 C473.1230164,130.049408 473.2194214,130.3187866 473.3630371,130.5766602 L472.1696777,130.5766602 C472.0514526,130.34021 471.9752808,130.0628967 471.9411621,129.7451172 Z M471.8459473,127.1933594 C471.431366,127.3631592 470.8092957,127.5067749 469.9797363,127.625 C469.5100098,127.6932373 469.177948,127.7694092 468.9831543,127.8539124 C468.7887573,127.9388123 468.6383972,128.0625916 468.5324707,128.2252502 C468.4269409,128.3883057 468.3737793,128.5692139 468.3737793,128.7675781 C468.3737793,129.0726624 468.4892273,129.3265686 468.7197266,129.5296936 C468.9506226,129.7328186 469.2878418,129.8343811 469.7321777,129.8339844 C470.1725464,129.8343811 470.5637207,129.7383728 470.9064941,129.5455627 C471.2492676,129.3531494 471.5011902,129.0897217 471.6618652,128.7548828 C471.7848511,128.4970093 471.8459473,128.1161499 471.8459473,127.6123047 Z M478.8791504,130.5766602 L478.8791504,121.2709961 L485.607666,121.2709961 L485.607666,122.3691406 L480.1105957,122.3691406 L480.1105957,125.2192383 L485.2585449,125.2192383 L485.2585449,126.3110352 L480.1105957,126.3110352 L480.1105957,129.4785156 L485.8234863,129.4785156 L485.8234863,130.5766602 Z" style="fill:rgb(112,112,112);stroke:none" clip-path="url(#clip47)" />
<clipPath id="clip48"><path d="M377,65 L571,65 L571,90 L377,90 L377,65 Z" /></clipPath>
<path d="M392.2115784,146.5154419 C380,93 519,68 568.770874,149.0318756" style="fill:none;stroke:rgb(161,161,161);stroke-width:2;stroke-dasharray:12,6;stroke-dashoffset:0" clip-path="url(#clip48)" />
<clipPath id="clip49"><path d="M377,106 L571,106 L571,152 L377,152 L377,106 Z" /></clipPath>
<path d="M392.2115784,146.5154419 C380,93 519,68 568.770874,149.0318756" style="fill:none;stroke:rgb(161,161,161);stroke-width:2;stroke-dasharray:12,6;stroke-dashoffset:0" clip-path="url(#clip49)" />
<clipPath id="clip50"><path d="M377,88 L442,88 L442,108 L377,108 L377,88 Z" /></clipPath>
<path d="M392.2115784,146.5154419 C380,93 519,68 568.770874,149.0318756" style="fill:none;stroke:rgb(161,161,161);stroke-width:2;stroke-dasharray:12,6;stroke-dashoffset:0" clip-path="url(#clip50)" />
<clipPath id="clip51"><path d="M473,88 L571,88 L571,108 L473,108 L473,88 Z" /></clipPath>
<path d="M392.2115784,146.5154419 C380,93 519,68 568.770874,149.0318756" style="fill:none;stroke:rgb(161,161,161);stroke-width:2;stroke-dasharray:12,6;stroke-dashoffset:0" clip-path="url(#clip51)" />
<clipPath id="clip52"><path d="M440,88 L475,88 L475,108 L440,108 L440,88 Z" /></clipPath>
<path d="M392.2115784,146.5154419 C380,93 519,68 568.770874,149.0318756" style="fill:none;stroke:rgb(161,161,161);opacity:0.09803921568627451;stroke-width:2;stroke-dasharray:12,6;stroke-dashoffset:0" clip-path="url(#clip52)" />
<clipPath id="clip53"><path d="M377,65 L571,65 L571,152 L377,152 L377,65 Z" /></clipPath>
<path d="M561.7363892,145.2218323 L568.770874,149.0318756 L568.5532227,141.0348358 Z" style="fill:rgb(161,161,161);stroke:none" clip-path="url(#clip53)" />
<clipPath id="clip54"><path d="M377,65 L571,65 L571,152 L377,152 L377,65 Z" /></clipPath>
<path d="M561.7363892,145.2218323 L568.770874,149.0318756 L568.5532227,141.0348358 Z" style="fill:none;stroke:rgb(161,161,161);stroke-width:2" clip-path="url(#clip54)" />
<clipPath id="clip55"><path d="M440,88 L475,88 L475,108 L440,108 L440,88 Z" /></clipPath>
<path d="M445.7409668,102.5766602 L443.1765137,95.8354492 L444.3825684,95.8354492 L445.829834,99.8725586 C445.9865417,100.30896 446.1305542,100.7616272 446.2614746,101.230957 C446.3630371,100.875885 446.5050659,100.4486084 446.6867676,99.9487305 L448.1848145,95.8354492 L449.3591309,95.8354492 L446.807373,102.5766602 Z M450.5715332,94.5849609 L450.5715332,93.2709961 L451.7141113,93.2709961 L451.7141113,94.5849609 Z M450.5715332,102.5766602 L450.5715332,95.8354492 L451.7141113,95.8354492 L451.7141113,102.5766602 Z M457.9411621,101.7451172 C457.5182495,102.1053467 457.1108093,102.3592529 456.7192383,102.5072327 C456.328064,102.6552124 455.9079285,102.7290039 455.4592285,102.7290039 C454.7189331,102.7290039 454.1496277,102.5484924 453.751709,102.186676 C453.354187,101.8248596 453.1550293,101.3626709 453.1550293,100.7993164 C453.1550293,100.469635 453.2304077,100.1681213 453.3803711,99.8951721 C453.5307312,99.6222229 453.7275085,99.4032288 453.9707031,99.2381897 C454.2142944,99.0731506 454.4880371,98.9481812 454.7927246,98.8632813 C455.0172729,98.8045654 455.3556824,98.7474365 455.8083496,98.6918945 C456.7311401,98.5823975 457.4103394,98.4510803 457.8459473,98.2983398 C457.8503113,98.1420288 457.8522949,98.0428467 457.8522949,98 C457.8522949,97.5350342 457.7443848,97.2069397 457.5285645,97.0161133 C457.2365723,96.7582397 456.802948,96.629303 456.2272949,96.6289063 C455.6901245,96.629303 455.293396,96.7237244 455.0371094,96.9117737 C454.7812195,97.1002197 454.59198,97.4334717 454.4689941,97.9111328 L453.3518066,97.7587891 C453.4533691,97.2811279 453.6207886,96.8951111 453.8532715,96.6007385 C454.0861511,96.3067627 454.4225769,96.0802307 454.8625488,95.9215393 C455.3029175,95.7628479 455.8127136,95.6835022 456.392334,95.6831055 C456.9679871,95.6835022 457.43573,95.7513428 457.795166,95.8866272 C458.1549988,96.0223083 458.4196167,96.1925049 458.588623,96.3976135 C458.7580261,96.6031189 458.8766479,96.8621826 458.9440918,97.1748047 C458.9821777,97.3699951 459.0012207,97.7210999 459.0012207,98.2285156 L459.0012207,99.7519531 C459.0012207,100.8143921 459.0258179,101.4864502 459.0742188,101.7677307 C459.1230164,102.049408 459.2194214,102.3187866 459.3630371,102.5766602 L458.1696777,102.5766602 C458.0514526,102.34021 457.9752808,102.0628967 457.9411621,101.7451172 Z M457.8459473,99.1933594 C457.431366,99.3631592 456.8092957,99.5067749 455.9797363,99.625 C455.5100098,99.6932373 455.177948,99.7694092 454.9831543,99.8539124 C454.7887573,99.9388123 454.6383972,100.0625916 454.5324707,100.2252502 C454.4269409,100.3883057 454.3737793,100.5692139 454.3737793,100.7675781 C454.3737793,101.0726624 454.4892273,101.3265686 454.7197266,101.5296936 C454.9506226,101.7328186 455.2878418,101.8343811 455.7321777,101.8339844 C456.1725464,101.8343811 456.5637207,101.7383728 456.9064941,101.5455627 C457.2492676,101.3531494 457.5011902,101.0897217 457.6618652,100.7548828 C457.7848511,100.4970093 457.8459473,100.1161499 457.8459473,99.6123047 Z M464.8791504,102.5766602 L464.8791504,93.2709961 L471.607666,93.2709961 L471.607666,94.3691406 L466.1105957,94.3691406 L466.1105957,97.2192383 L471.2585449,97.2192383 L471.2585449,98.3110352 L466.1105957,98.3110352 L466.1105957,101.4785156 L471.8234863,101.4785156 L471.8234863,102.5766602 Z" style="fill:rgb(112,112,112);stroke:none" clip-path="url(#clip55)" />
<clipPath id="clip56"><path d="M398,184 L658,184 L658,226 L398,226 L398,184 Z" /></clipPath>
<path d="M401.7755737,188.4873505 C416,251 655,249 641.0379639,187.4914246" style="fill:none;stroke:rgb(161,161,161);stroke-width:2;stroke-dasharray:12,6;stroke-dashoffset:0" clip-path="url(#clip56)" />
<clipPath id="clip57"><path d="M398,242 L658,242 L658,254 L398,254 L398,242 Z" /></clipPath>
<path d="M401.7755737,188.4873505 C416,251 655,249 641.0379639,187.4914246" style="fill:none;stroke:rgb(161,161,161);stroke-width:2;stroke-dasharray:12,6;stroke-dashoffset:0" clip-path="url(#clip57)" />
<clipPath id="clip58"><path d="M398,224 L517,224 L517,244 L398,244 L398,224 Z" /></clipPath>
<path d="M401.7755737,188.4873505 C416,251 655,249 641.0379639,187.4914246" style="fill:none;stroke:rgb(161,161,161);stroke-width:2;stroke-dasharray:12,6;stroke-dashoffset:0" clip-path="url(#clip58)" />
<clipPath id="clip59"><path d="M548,224 L658,224 L658,244 L548,244 L548,224 Z" /></clipPath>
<path d="M401.7755737,188.4873505 C416,251 655,249 641.0379639,187.4914246" style="fill:none;stroke:rgb(161,161,161);stroke-width:2;stroke-dasharray:12,6;stroke-dashoffset:0" clip-path="url(#clip59)" />
<clipPath id="clip60"><path d="M515,224 L550,224 L550,244 L515,244 L515,224 Z" /></clipPath>
<path d="M401.7755737,188.4873505 C416,251 655,249 641.0379639,187.4914246" style="fill:none;stroke:rgb(161,161,161);opacity:0.09803921568627451;stroke-width:2;stroke-dasharray:12,6;stroke-dashoffset:0" clip-path="url(#clip60)" />
<clipPath id="clip61"><path d="M398,184 L658,184 L658,254 L398,254 L398,184 Z" /></clipPath>
<path d="M646.4723511,193.3623047 L641.0379639,187.4914246 L638.6707764,195.1332092 Z" style="fill:rgb(161,161,161);stroke:none" clip-path="url(#clip61)" />
<clipPath id="clip62"><path d="M398,184 L658,184 L658,254 L398,254 L398,184 Z" /></clipPath>
<path d="M646.4723511,193.3623047 L641.0379639,187.4914246 L638.6707764,195.1332092 Z" style="fill:none;stroke:rgb(161,161,161);stroke-width:2" clip-path="url(#clip62)" />
<clipPath id="clip63"><path d="M515,224 L550,224 L550,244 L515,244 L515,224 Z" /></clipPath>
<path d="M520.7409668,238.5766602 L518.1765137,231.8354492 L519.3825684,231.8354492 L520.829834,235.8725586 C520.9865723,236.30896 521.1305542,236.7616272 521.2614746,237.230957 C521.3630371,236.875885 521.5050659,236.4486084 521.6867676,235.9487305 L523.1848145,231.8354492 L524.3591309,231.8354492 L521.807373,238.5766602 Z M525.5715332,230.5849609 L525.5715332,229.2709961 L526.7141113,229.2709961 L526.7141113,230.5849609 Z M525.5715332,238.5766602 L525.5715332,231.8354492 L526.7141113,231.8354492 L526.7141113,238.5766602 Z M532.9411621,237.7451172 C532.5182495,238.1053467 532.1108398,238.3592529 531.7192383,238.5072327 C531.328064,238.6552124 530.907959,238.7290039 530.4592285,238.7290039 C529.7189331,238.7290039 529.1496582,238.5484924 528.751709,238.186676 C528.354187,237.8248596 528.1550293,237.3626709 528.1550293,236.7993164 C528.1550293,236.469635 528.2304077,236.1681213 528.3803711,235.8951721 C528.5307617,235.6222229 528.7275391,235.4032288 528.9707031,235.2381897 C529.2142944,235.0731506 529.4880371,234.9481812 529.7927246,234.8632813 C530.0172729,234.8045654 530.3557129,234.7474365 530.8083496,234.6918945 C531.7311401,234.5823975 532.4103394,234.4510803 532.8459473,234.2983398 C532.8503418,234.1420288 532.8522949,234.0428467 532.8522949,234 C532.8522949,233.5350342 532.7443848,233.2069397 532.5285645,233.0161133 C532.2365723,232.7582397 531.8029785,232.629303 531.2272949,232.6289063 C530.6901245,232.629303 530.293396,232.7237244 530.0371094,232.9117737 C529.78125,233.1002197 529.59198,233.4334717 529.4689941,233.9111328 L528.3518066,233.7587891 C528.4533691,233.2811279 528.6207886,232.8951111 528.8532715,232.6007385 C529.0861816,232.3067627 529.4226074,232.0802307 529.8625488,231.9215393 C530.3029175,231.7628479 530.8127441,231.6835022 531.392334,231.6831055 C531.9680176,231.6835022 532.43573,231.7513428 532.795166,231.8866272 C533.1550293,232.0223083 533.4196167,232.1925049 533.588623,232.3976135 C533.7580566,232.6031189 533.8766479,232.8621826 533.9440918,233.1748047 C533.9821777,233.3699951 534.0012207,233.7210999 534.0012207,234.2285156 L534.0012207,235.7519531 C534.0012207,236.8143921 534.0258179,237.4864502 534.0742188,237.7677307 C534.1230469,238.049408 534.2194214,238.3187866 534.3630371,238.5766602 L533.1696777,238.5766602 C533.0514526,238.34021 532.9752808,238.0628967 532.9411621,237.7451172 Z M532.8459473,235.1933594 C532.4313965,235.3631592 531.8093262,235.5067749 530.9797363,235.625 C530.5100098,235.6932373 530.1779785,235.7694092 529.9831543,235.8539124 C529.7887573,235.9388123 529.6384277,236.0625916 529.5324707,236.2252502 C529.4269409,236.3883057 529.3737793,236.5692139 529.3737793,236.7675781 C529.3737793,237.0726624 529.4892578,237.3265686 529.7197266,237.5296936 C529.9506226,237.7328186 530.2878418,237.8343811 530.7321777,237.8339844 C531.1725464,237.8343811 531.5637207,237.7383728 531.9064941,237.5455627 C532.2492676,237.3531494 532.5012207,237.0897217 532.6618652,236.7548828 C532.7848511,236.4970093 532.8459473,236.1161499 532.8459473,235.6123047 Z M539.8791504,238.5766602 L539.8791504,229.2709961 L546.607666,229.2709961 L546.607666,230.3691406 L541.1105957,230.3691406 L541.1105957,233.2192383 L546.2585449,233.2192383 L546.2585449,234.3110352 L541.1105957,234.3110352 L541.1105957,237.4785156 L546.8234863,237.4785156 L546.8234863,238.5766602 Z" style="fill:rgb(112,112,112);stroke:none" clip-path="url(#clip63)" />
<clipPath id="clip64"><path d="M357,184 L741,184 L741,311 L357,311 L357,184 Z" /></clipPath>
<path d="M391.6560974,188.3560791 C361,308 724,299 733.0444336,196.8731842" style="fill:none;stroke:rgb(161,161,161);stroke-width:3" clip-path="url(#clip64)" />
<clipPath id="clip65"><path d="M357,184 L741,184 L741,311 L357,311 L357,184 Z" /></clipPath>
<path d="M737.2609863,205.9407654 L733.0444336,196.8731842 L727.2999878,205.0585938 Z" style="fill:rgb(161,161,161);stroke:none" clip-path="url(#clip65)" />
<clipPath id="clip66"><path d="M357,184 L741,184 L741,311 L357,311 L357,184 Z" /></clipPath>
<path d="M737.2609863,205.9407654 L733.0444336,196.8731842 L727.2999878,205.0585938 Z" style="fill:none;stroke:rgb(161,161,161);stroke-width:3" clip-path="url(#clip66)" />
<clipPath id="clip67"><path d="M472,178 L626,178 L626,218 L472,218 L472,178 Z" /></clipPath>
<path d="M476.6113892,184.3328247 C494,215 606,201 622.6989746,182.6585236" style="fill:none;stroke:rgb(161,161,161);stroke-width:3" clip-path="url(#clip67)" />
<clipPath id="clip68"><path d="M472,178 L626,178 L626,218 L472,218 L472,178 Z" /></clipPath>
<path d="M620.5658569,192.4283752 L622.6989746,182.6585236 L613.1715088,185.696167 Z" style="fill:rgb(161,161,161);stroke:none" clip-path="url(#clip68)" />
<clipPath id="clip69"><path d="M472,178 L626,178 L626,218 L472,218 L472,178 Z" /></clipPath>
<path d="M620.5658569,192.4283752 L622.6989746,182.6585236 L613.1715088,185.696167 Z" style="fill:none;stroke:rgb(161,161,161);stroke-width:3" clip-path="url(#clip69)" />
</svg>
