<svg xmlns="http://www.w3.org/2000/svg" xmlns:xlink="http://www.w3.org/1999/xlink" viewBox="0 0 337.44 337.44"><defs><style>.cls-1,.cls-11,.cls-12,.cls-2{fill:none;}.cls-1{clip-rule:evenodd;}.cls-3{clip-path:url(#clip-path);}.cls-4{clip-path:url(#clip-path-2);}.cls-5{fill:#fff;}.cls-6{clip-path:url(#clip-path-3);}.cls-7{clip-path:url(#clip-path-5);}.cls-8{clip-path:url(#clip-path-7);}.cls-9{clip-path:url(#clip-path-9);}.cls-10{fill:#e6e6e6;}.cls-11,.cls-12{stroke:#000;stroke-linecap:round;stroke-linejoin:round;}.cls-11{stroke-width:0.48px;}.cls-12{stroke-width:0.24px;}.cls-13{font-size:5.51px;}.cls-13,.cls-14,.cls-19{font-family:ArialNarrow, Arial;}.cls-14{font-size:5.36px;}.cls-15{letter-spacing:-0.01em;}.cls-16{letter-spacing:0.03em;}.cls-17{letter-spacing:0.04em;}.cls-18{letter-spacing:0em;}.cls-19{font-size:5.36px;}.cls-20{letter-spacing:-0.01em;}</style><clipPath id="clip-path" transform="translate(-163.41 -234.24)"><path class="cls-1" d="M343.17,406.8l.24.24v-.24m-22.56,0,.24.24v-.24Zm10.8-1.68-1,.48-.24.24-1,.48-.24.24-1,.48-.24.24-1.44.72-.24.24-1,.48-.24.24-1,.48-.24.24-1.44.72,19,.24v-.24l-.24-.24-1-.48-.24-.24-1.44-.72-.24-.24-1.44-.72-.24-.24-1.44-.72-.24-.24-1.44-.72-.24-.24-1-.48ZM330,391.2l-.24.48c-2.87,4.84-5.88,9.74-8.64,14.64v.48l1-.48.24-.24,1.44-.72.24-.24,1.44-.72.24-.24,1.44-.72.24-.24,1.44-.72.24-.24,1-.48.24-10.56Zm3.84-.24v10.8h.48l1,.48.24.24,1,.48.24.24,1.44.72.24.24,1,.48.24.24,1.92,1,.24.24,1.44.72v-.48h-.24v-.48l-.24-.24h-.24v-.48h-.24v-.48l-.24-.24h-.24v-.48h-.24v-.48l-.24-.24H341v-.48h-.24v-.48h-.24v-.48l-.24-.24H340V401h-.24v-.48l-.24-.24h-.24v-.48h-.24v-.48l-.24-.24h-.24v-.48h-.24v-.48h-.24v-.48l-.24-.24h-.24V397h-.24v-.48l-.24-.24h-.24v-.48h-.24v-.48l-.24-.24h-.24v-.48H336v-.48h-.24v-.48l-.24-.24h-.24v-.48H335v-.48l-.24-.24h-.24v-.48h-.24v-.48L334,391Z"/></clipPath><clipPath id="clip-path-2" transform="translate(-163.41 -234.24)"><rect class="cls-2" width="1191.12" height="841.92"/></clipPath><clipPath id="clip-path-3" transform="translate(-163.41 -234.24)"><path class="cls-1" d="M406.53,447.84l.48.24.24.24,1,.48.24.24,1,.48.24.24,1,.48.24.24,2.88,1.44.24.24,2.88,1.44v-.24l.24-.48.24-.24.48-1,.24-.24.48-1-.24-.24c-1-.54-2.74-1.53-3.6-2.16l-.48-.24m-25.44-10.32,1.44.72.24.24,1.44.72.24.24,1.44.72.24.24,1.44.72.24.24,7.44.24v-.24c-1.59-1.15-4-2.24-5.52-3.36l-1-.48Zm0-4.08v3.12l5.28-.24-.24-.24c-1-.54-2.75-1.53-3.6-2.16l-1-.48ZM330.21,304.08,330,401.76l-1,.48-.24.24c-13.42,7.58-26.66,15.47-40.08,23l-.24.24-1,.48-.24.24-1.44.72-.24.24-1.44.72-.24.24-1,.48-.24.24-1.44.72-.24.24-1.44.72-.24.24-1.44.72-.24.24-1,.48-.24.24-1.44.72-.24.24-1.44.72-.24.24-1,.48-.24.24-1.44.72-.24.24-1.44.72-.24.24-1.44.72-.24.24-1,.48-.24.24-1.44.72-.24.24-1.44.72-.24.24-1,.48-.24.24-1.44.72-.24.24-1.44.72-.24.24-1.44.72-.24.24-1,.48-.24.24-1.44.72-.24.24-1.44.72-.24.24-1,.48-.24.24-1.44.72-.24.24-1.44.72-.24.24-1.44.72.48.48v.48h.24v.48h.24v.48l3.36-.24,1.44-.72.24-.24,1.44-.72.24-.24c4.67-2.54,9.26-5.36,13.92-7.92l.24-.24,1.44-.72.24-.24c2.05-1,4-2.35,6-3.36l.24-.24,1.44-.72.24-.24,1.44-.72.24-.24,1-.48.24-.24,1.44-.72.24-.24,1.44-.72.24-.24,1.44-.72.24-.24c10.53-5.91,20.9-12.11,31.44-18l.24-.24,1-.48.24-.24,1.44-.72.24-.24,1.44-.72.24-.24,1.44-.72.24-.24,1.44-.72.24-.24,1-.48.24-.24,1.44-.72.24-.24,1.44-.72.24-.24,1.44-.72.24-.24,1-.48h.72l1,.48.24.24,1.44.72.24.24c2.22,1.12,4.27,2.48,6.48,3.6l.24.24,1,.48c1.49,1.06,3.79,2.06,5.28,3.12l1.44.72.24.24,1.44.72.24.24c10.68,6,21.22,12.26,31.92,18.24l.24.24,1,.48.24.24v-2.64l2.4-.24-.24-.24c-17.64-10.1-35.17-20.37-52.8-30.48h-.48V304.08Z"/></clipPath><clipPath id="clip-path-5" transform="translate(-163.41 -234.24)"><polyline class="cls-1" points="348.45 441.6 345.57 444.48 345.57 447.84 433.65 447.84 433.65 444.24 431.01 441.6 408.69 441.6 408.69 444.72 360.45 444.72 360.45 441.6"/></clipPath><clipPath id="clip-path-7" transform="translate(-163.41 -234.24)"><path class="cls-1" d="M275,451.92l.24.24v-.24m5.52-4.08.24.24v-.24Zm2.64-1.92.24.24v-.24Zm1.68-1.2.24.24v-.24Zm1-.72.24.24V444Zm1.68-1.2.24.24v-.24Zm1-.72.24.24v-.24Zm1.68-1.2.24.24v-.24Zm1-.72.24.24v-.24Zm.72-.48.24.24v-.24Zm1-.72.24.24V439Zm1-.72.24.24v-.24Zm.72-.48.24.24v-.24Zm1-.72.24.24V437Zm1-.72.24.24v-.24Zm.72-.48.24.24v-.24Zm1-.72.24.24v-.24Zm.72-.48.24.24v-.24Zm.24-.24.24.24v-.24Zm.72-.48.24.24v-.24Zm1-.72.24.24v-.24Zm.72-.48.24.24v-.24Zm.24-.24.24.24v-.24Zm.72-.48.24.24V432Zm1-.72.24.24v-.24Zm.72-.48.24.24v-.24Zm.24-.24.24.24v-.24Zm.72-.48.24.24v-.24Zm1-.72.24.24v-.24Zm.72-.48.24.24v-.24Zm.24-.24.24.24v-.24Zm.72-.48.24.24v-.24Zm1-.72.24.24v-.24Zm1-.72.24.24v-.24Zm.72-.48.24.24v-.24Zm1-.72.24.24v-.24Zm1-.72.24.24v-.24Zm.72-.48.24.24v-.24Zm1-.72.24.24v-.24Zm1-.72.24.24v-.24Zm1.68-1.2.24.24v-.24Zm1-.72.24.24V421Zm2.64-1.92.24.24V419Zm2.64-1.92.24.24v-.24Z"/></clipPath><clipPath id="clip-path-9" transform="translate(-163.41 -234.24)"><path class="cls-1" d="M328.77,412.32l-.24.24Q301.6,432,274.77,451.68l-1,.48.72.24v-.24l.48-.24q26.85-19.59,53.76-39.12l.48-.48"/></clipPath></defs><title>Octopussy_TRI_SINGLE</title><g id="Layer_2" data-name="Layer 2"><g id="Layer_1-2" data-name="Layer 1"><g class="cls-3"><g class="cls-4"><rect class="cls-5" x="157.44" y="156.72" width="22.56" height="19.68"/></g></g><rect class="cls-5" x="221.52" y="198.48" width="3.84" height="3.84"/><g class="cls-6"><g class="cls-4"><rect class="cls-5" x="82.08" y="69.84" width="173.04" height="149.52"/></g></g><rect class="cls-5" x="248.16" y="204" width="0.96" height="2.64"/><rect class="cls-5" x="200.16" y="204" width="1.2" height="2.64"/><rect class="cls-5" x="247.2" y="203.28" width="0.96" height="1.92"/><rect class="cls-5" x="201.36" y="203.28" width="0.96" height="1.92"/><rect class="cls-5" x="198.96" y="206.64" width="3.36" height="0.96"/><rect class="cls-5" x="246.96" y="206.64" width="3.36" height="0.96"/><rect class="cls-5" x="192.96" y="202.32" width="63.36" height="0.96"/><g class="cls-7"><g class="cls-4"><rect class="cls-5" x="182.16" y="207.36" width="88.08" height="6.24"/></g></g><rect class="cls-5" x="197.04" y="207.36" width="48.24" height="3.12"/><g class="cls-8"><g class="cls-4"><rect class="cls-5" x="111.6" y="182.88" width="48.24" height="35.04"/></g></g><g class="cls-9"><g class="cls-4"><rect class="cls-5" x="110.4" y="178.08" width="55.44" height="40.08"/></g></g><rect class="cls-10" x="34.08" y="218.16" width="107.28" height="53.76"/><line class="cls-11" x1="170.4" y1="156.72" x2="180" y2="173.04"/><line class="cls-11" x1="178.08" y1="176.4" x2="159.12" y2="176.4"/><line class="cls-11" x1="157.2" y1="173.04" x2="166.8" y2="156.72"/><line class="cls-11" x1="170.4" y1="156.72" x2="180" y2="173.04"/><line class="cls-11" x1="178.08" y1="176.4" x2="159.12" y2="176.4"/><line class="cls-11" x1="157.2" y1="173.04" x2="166.8" y2="156.72"/><line class="cls-11" x1="170.4" y1="156.72" x2="180" y2="173.04"/><line class="cls-11" x1="178.08" y1="176.4" x2="159.12" y2="176.4"/><line class="cls-11" x1="157.2" y1="173.04" x2="166.8" y2="156.72"/><line class="cls-11" x1="170.4" y1="156.72" x2="180" y2="173.04"/><line class="cls-11" x1="178.08" y1="176.4" x2="159.12" y2="176.4"/><line class="cls-11" x1="157.2" y1="173.04" x2="166.8" y2="156.72"/><polyline class="cls-11" points="123.36 197.04 136.08 195.6 157.68 194.16 179.52 194.16 201.12 195.6 213.84 197.04"/><polyline class="cls-11" points="170.4 108 180.48 128.4 193.44 152.16 207.6 175.44 222 197.28"/><polyline class="cls-11" points="166.8 108 156.72 128.4 143.76 152.16 129.6 175.44 115.2 197.28"/><polyline class="cls-11" points="84 219.6 107.76 214.56 117.12 213.36"/><polyline class="cls-11" points="118.32 213.12 132 211.2 156.48 209.52 180.72 209.52 182.88 209.76"/><polyline class="cls-11" points="221.52 213.6 229.44 214.56 253.2 219.6"/><polyline class="cls-11" points="170.4 69.84 184.08 101.04 199.44 131.28 216.48 160.56 234.96 189.12 244.56 202.32"/><line class="cls-11" x1="245.52" y1="203.28" x2="247.92" y2="206.64"/><line class="cls-11" x1="252.96" y1="213.6" x2="255.12" y2="216.48"/><polyline class="cls-11" points="166.8 69.84 153.12 101.04 137.76 131.28 120.72 160.56 102.24 189.12 82.08 216.48"/><polyline class="cls-11" points="225.36 202.32 221.52 202.32 221.52 198.48 225.36 198.48 225.36 202.32"/><line class="cls-11" x1="170.4" y1="69.84" x2="170.4" y2="73.68"/><polyline class="cls-11" points="166.8 73.68 166.8 69.84 170.4 69.84"/><line class="cls-11" x1="253.2" y1="219.6" x2="249.84" y2="217.68"/><polyline class="cls-11" points="251.76 214.56 255.12 216.48 253.2 219.6"/><line class="cls-11" x1="82.08" y1="216.48" x2="85.44" y2="214.56"/><polyline class="cls-11" points="87.36 217.68 84 219.6 82.08 216.48"/><polyline class="cls-11" points="170.4 69.84 170.4 167.52 223.92 198.48"/><line class="cls-11" x1="225.36" y1="199.2" x2="230.64" y2="202.32"/><line class="cls-11" x1="232.56" y1="203.28" x2="239.52" y2="207.36"/><polyline class="cls-11" points="250.32 213.6 255.12 216.48 253.2 219.6 242.64 213.6"/><line class="cls-11" x1="232.08" y1="207.36" x2="224.88" y2="203.28"/><polyline class="cls-11" points="221.52 201.36 168.48 170.88 84 219.6 82.08 216.48 166.8 167.52 166.8 69.84 170.4 69.84"/><polyline class="cls-11" points="249.12 206.64 249.12 205.68 249.12 204"/><polyline class="cls-11" points="248.16 204.72 248.16 205.68 248.16 206.64 249.12 206.64"/><line class="cls-11" x1="248.16" y1="205.68" x2="249.12" y2="205.68"/><line class="cls-11" x1="248.16" y1="204" x2="249.12" y2="204"/><polyline class="cls-11" points="200.16 204 200.16 205.68 200.16 206.64"/><polyline class="cls-11" points="201.36 206.64 201.36 205.68 201.36 204.72"/><line class="cls-11" x1="200.16" y1="206.64" x2="201.36" y2="206.64"/><line class="cls-11" x1="200.16" y1="205.68" x2="201.36" y2="205.68"/><line class="cls-11" x1="200.16" y1="204" x2="201.36" y2="204"/><polyline class="cls-11" points="248.16 205.2 248.16 204.24 248.16 203.28"/><polyline class="cls-11" points="247.2 203.28 247.2 204.24 247.2 205.2 248.16 205.2"/><line class="cls-11" x1="247.2" y1="204.24" x2="248.16" y2="204.24"/><line class="cls-11" x1="247.2" y1="203.28" x2="248.16" y2="203.28"/><polyline class="cls-11" points="201.36 203.28 201.36 204.24 201.36 205.2"/><polyline class="cls-11" points="202.32 205.2 202.32 204.24 202.32 203.28"/><line class="cls-11" x1="201.36" y1="205.2" x2="202.32" y2="205.2"/><line class="cls-11" x1="201.36" y1="204.24" x2="202.32" y2="204.24"/><line class="cls-11" x1="201.36" y1="203.28" x2="202.32" y2="203.28"/><line class="cls-11" x1="198.96" y1="207.6" x2="202.32" y2="207.6"/><line class="cls-11" x1="246.96" y1="207.6" x2="250.32" y2="207.6"/><line class="cls-11" x1="202.32" y1="206.64" x2="198.96" y2="206.64"/><line class="cls-11" x1="250.32" y1="206.64" x2="246.96" y2="206.64"/><line class="cls-11" x1="198.96" y1="206.64" x2="198.96" y2="207.6"/><line class="cls-11" x1="202.32" y1="206.64" x2="202.32" y2="207.6"/><line class="cls-11" x1="246.96" y1="206.64" x2="246.96" y2="207.6"/><line class="cls-11" x1="250.32" y1="206.64" x2="250.32" y2="207.6"/><line class="cls-11" x1="192.96" y1="203.28" x2="201.36" y2="203.28"/><line class="cls-11" x1="202.32" y1="203.28" x2="247.2" y2="203.28"/><line class="cls-11" x1="248.16" y1="203.28" x2="256.32" y2="203.28"/><line class="cls-11" x1="192.96" y1="203.28" x2="256.32" y2="203.28"/><line class="cls-11" x1="256.32" y1="202.32" x2="225.36" y2="202.32"/><line class="cls-11" x1="221.52" y1="202.32" x2="192.96" y2="202.32"/><polyline class="cls-11" points="256.32 202.32 192.96 202.32 192.96 203.28"/><line class="cls-11" x1="256.32" y1="202.32" x2="256.32" y2="203.28"/><line class="cls-11" x1="192.96" y1="202.32" x2="192.96" y2="203.28"/><line class="cls-11" x1="256.32" y1="202.32" x2="256.32" y2="203.28"/><polyline class="cls-11" points="182.16 210.48 185.04 207.36 197.04 207.36 197.04 210.48 245.28 210.48 245.28 207.36 246.96 207.36"/><polyline class="cls-11" points="250.32 207.36 267.36 207.36 270.24 210.48 270.24 213.6 182.16 213.6 182.16 210.48"/><line class="cls-11" x1="185.04" y1="213.6" x2="267.36" y2="213.6"/><line class="cls-11" x1="245.28" y1="207.36" x2="202.32" y2="207.36"/><line class="cls-11" x1="198.96" y1="207.36" x2="197.04" y2="207.36"/><line class="cls-11" x1="245.28" y1="207.36" x2="202.32" y2="207.36"/><line class="cls-11" x1="198.96" y1="207.36" x2="197.04" y2="207.36"/><line class="cls-11" x1="245.28" y1="207.36" x2="245.28" y2="210.48"/><line class="cls-11" x1="197.04" y1="210.48" x2="197.04" y2="207.36"/><polyline class="cls-12" points="102.72 224.4 102.72 224.4 102.72 224.64 102.48 224.64 102.48 224.4 102.24 224.4 102.24 224.16"/><polyline class="cls-12" points="114.24 216 114.24 216 114.24 216.24 114 216.24"/><polyline class="cls-12" points="109.68 219.36 112.08 217.68 113.28 216.96 113.76 216.48 114 216.24 113.76 216.48 113.28 216.72 112.56 217.44 111.6 218.16 110.16 219.12 108 220.8 104.88 222.96 103.92 223.68 103.44 224.16 102.96 224.4 102.72 224.4 102.96 224.4 103.2 224.16 103.68 223.92 104.16 223.44 104.64 223.2 105.12 222.72 105.84 222.24 106.32 222 106.8 221.52 107.52 221.04 108.48 220.32 109.68 219.36 112.56 217.44 114 216.48 115.44 215.28 116.88 214.32 118.32 213.12 120 211.92 121.68 210.72 123.6 209.28 125.76 207.84 127.68 206.4 130.08 204.72 132.48 203.04 134.88 201.12 137.52 199.2 140.4 197.28 143.28 195.12 146.16 192.96 149.52 190.56 152.88 188.16 156.24 185.76 159.84 183.12 163.44 180.24 165.84 178.56"/><polyline class="cls-12" points="102.24 224.16 102.24 224.16 102.48 223.92"/><polyline class="cls-12" points="113.76 215.76 113.76 215.76 114 215.76 114.24 215.76 114.24 216"/><polyline class="cls-12" points="109.44 218.88 111.84 217.2 112.8 216.48 113.52 216 113.76 215.76 113.52 216 113.04 216.24 112.32 216.96 111.12 217.68 109.68 218.64 107.52 220.32 104.64 222.48 103.68 223.2 102.96 223.44 102.72 223.92 102.48 223.92 102.72 223.92 102.96 223.68 103.2 223.44 103.68 222.96 104.16 222.72 104.88 222.24 105.36 221.76 105.84 221.52 106.56 221.04 107.28 220.56 108 219.84 109.44 218.88 112.32 216.96 113.52 215.76 114.96 214.8 116.4 213.84 118.08 212.64 119.76 211.44 121.44 210.24 123.36 208.8 125.28 207.36 127.44 205.92 129.6 204.24 132 202.56 134.64 200.64 137.28 198.72 139.92 196.8 142.8 194.64 145.92 192.48 149.04 190.08 152.4 187.68 155.76 185.04 159.36 182.64 163.2 179.76 165.6 178.08"/><polyline class="cls-12" points="165.84 178.56 165.84 178.56 165.84 178.32 165.6 178.32 165.6 178.08"/><polyline class="cls-12" points="109.2 219.12 109.2 219.12 109.44 218.88 109.68 218.88 109.68 219.12 109.92 219.12 109.92 219.36 109.68 219.36 109.44 219.36"/><line class="cls-12" x1="109.2" y1="219.12" x2="109.2" y2="219.12"/><polyline class="cls-12" points="141.36 218.16 34.08 218.16 34.08 271.92 141.36 271.92 141.36 218.16"/><line class="cls-11" x1="337.2" y1="168.72" x2="336.48" y2="156.24"/><polyline class="cls-11" points="335.28 144 333.36 132.96 333.12 132"/><polyline class="cls-11" points="329.76 120 328.56 115.68 325.92 108.48"/><line class="cls-11" x1="321.12" y1="97.2" x2="315.6" y2="86.16"/><polyline class="cls-11" points="309.12 75.84 303.84 68.16 301.92 65.76"/><polyline class="cls-11" points="294 56.16 292.56 54.24 285.36 47.52"/><line class="cls-11" x1="276.24" y1="39.12" x2="266.64" y2="31.68"/><polyline class="cls-11" points="256.32 24.96 250.32 21.12 245.52 18.96"/><polyline class="cls-11" points="234.48 13.44 234.24 13.2 222.96 9.36"/><polyline class="cls-11" points="211.2 5.76 199.92 2.88 199.2 2.88"/><polyline class="cls-11" points="186.96 1.2 182.16 0.48 174.72 0.48"/><line class="cls-11" x1="162.48" y1="0.24" x2="150.24" y2="1.2"/><polyline class="cls-11" points="138 3.12 128.64 4.8 126 5.52"/><polyline class="cls-11" points="114.24 9.12 111.36 10.08 102.72 13.68"/><line class="cls-11" x1="91.68" y1="18.72" x2="80.88" y2="24.72"/><polyline class="cls-11" points="70.56 31.68 64.56 36 60.96 39.12"/><polyline class="cls-11" points="51.6 47.28 50.88 47.76 43.2 56.16"/><polyline class="cls-11" points="35.28 65.76 28.08 75.36 28.08 75.6"/><polyline class="cls-11" points="21.84 86.16 18.96 90.96 16.08 97.2"/><line class="cls-11" x1="11.28" y1="108.48" x2="7.44" y2="120"/><polyline class="cls-11" points="4.32 132 2.16 141.84 1.92 144"/><polyline class="cls-11" points="0.72 156.24 0.24 159.6 0.24 168.72"/><line class="cls-11" x1="0.72" y1="180.96" x2="1.92" y2="193.2"/><polyline class="cls-11" points="4.32 205.2 6 212.88 7.44 217.2"/><polyline class="cls-11" points="11.28 228.72 11.52 229.92 16.08 240"/><line class="cls-11" x1="21.84" y1="251.04" x2="28.08" y2="261.6"/><polyline class="cls-11" points="35.28 271.44 38.88 276.24 43.2 281.04"/><line class="cls-11" x1="51.6" y1="289.92" x2="60.96" y2="298.08"/><polyline class="cls-11" points="70.56 305.52 79.2 311.52 80.88 312.48"/><polyline class="cls-11" points="91.68 318.48 94.8 320.16 102.72 323.52"/><line class="cls-11" x1="114.24" y1="328.08" x2="126" y2="331.68"/><polyline class="cls-11" points="138 334.08 146.16 335.76 150.24 336"/><polyline class="cls-11" points="162.48 336.96 164.16 337.2 174.72 336.96"/><line class="cls-11" x1="186.96" y1="336" x2="199.2" y2="334.32"/><polyline class="cls-11" points="211.2 331.44 217.2 330 222.96 328.08"/><line class="cls-11" x1="234.48" y1="323.76" x2="245.52" y2="318.48"/><polyline class="cls-11" points="256.32 312.24 265.44 306.48 266.64 305.76"/><polyline class="cls-11" points="276.24 298.08 279.6 295.44 285.36 289.92"/><line class="cls-11" x1="294" y1="281.04" x2="301.92" y2="271.68"/><polyline class="cls-11" points="309.12 261.6 313.92 254.16 315.6 251.04"/><polyline class="cls-11" points="321.12 240.24 322.08 238.32 325.92 228.72"/><line class="cls-11" x1="329.76" y1="217.2" x2="333.12" y2="205.2"/><polyline class="cls-11" points="335.28 193.2 336.24 186.48 336.48 180.96"/><line class="cls-12" x1="168.48" y1="168.72" x2="300.72" y2="63.84"/><line class="cls-12" x1="171.84" y1="168.96" x2="165.36" y2="168.24"/><line class="cls-12" x1="168.96" y1="165.36" x2="168.24" y2="171.84"/><path class="cls-12" d="M461.73,295.2c1.68,1.92,3.12,3.84,4.56,5.76" transform="translate(-163.41 -234.24)"/><line class="cls-12" x1="300.72" y1="63.84" x2="298.32" y2="68.4"/><line class="cls-12" x1="300.72" y1="63.84" x2="295.92" y2="65.28"/><polyline class="cls-5" points="232.56 105.36 242.64 97.2 247.68 103.68 237.6 111.6"/><text class="cls-13" transform="matrix(0.78, -0.62, 0.62, 0.78, 236.4, 110.16)">R</text><text class="cls-13" transform="matrix(0.78, -0.62, 0.62, 0.78, 239.04, 108.24)">a</text><text class="cls-13" transform="matrix(0.78, -0.62, 0.62, 0.78, 240.96, 106.8)">n</text><text class="cls-13" transform="matrix(0.78, -0.62, 0.62, 0.78, 242.88, 105.12)">g</text><text class="cls-13" transform="matrix(0.78, -0.62, 0.62, 0.78, 244.8, 103.68)">e</text><text class="cls-14" transform="translate(103.68 267.12) scale(1 1.02)"><tspan class="cls-15">W</tspan><tspan class="cls-16" x="4.1" y="0">O</tspan><tspan class="cls-15" x="7.69" y="0">RKS</tspan><tspan class="cls-17" x="16.57" y="0">T</tspan><tspan class="cls-15" x="19.45" y="0">AT</tspan><tspan class="cls-18" x="24.96" y="0">I</tspan><tspan class="cls-16" x="26.16" y="0">O</tspan><tspan x="29.75" y="0">N</tspan></text><text class="cls-19" transform="translate(185.52 221.76) scale(1 1.02)"><tspan class="cls-20">T</tspan><tspan x="2.65" y="0">V</tspan></text></g></g></svg>