<svg xmlns="http://www.w3.org/2000/svg" viewBox="0 0 178.98 331.26"><defs><style>.cls-1{fill:none;stroke:#000;stroke-linecap:round;stroke-linejoin:round;stroke-width:0.24px;}</style></defs><title>Octopussy_CentralSpineStack</title><g id="Layer_2" data-name="Layer 2"><g id="Layer_1-2" data-name="Layer 1"><polyline class="cls-1" points="178.68 0.12 0.12 11.88 114.84 67.32 178.68 0.12"/><polyline class="cls-1" points="178.68 48.12 114.84 115.08 0.12 59.88"/><line class="cls-1" x1="0.12" y1="59.88" x2="0.12" y2="11.88"/><line class="cls-1" x1="114.84" y1="115.08" x2="114.84" y2="67.32"/><polyline class="cls-1" points="92.76 97.8 57.96 81 58.44 81.96"/><polyline class="cls-1" points="57.96 81 57.96 49.8 58.44 45.96"/><polyline class="cls-1" points="57.96 49.8 92.76 66.6 96.36 64.2"/><line class="cls-1" x1="96.36" y1="100.2" x2="92.76" y2="97.8"/><line class="cls-1" x1="96.36" y1="64.2" x2="58.44" y2="45.96"/><line class="cls-1" x1="96.36" y1="100.2" x2="96.36" y2="64.2"/><line class="cls-1" x1="58.44" y1="81.96" x2="96.36" y2="100.2"/><polyline class="cls-1" points="92.76 97.8 92.76 66.6 57.96 49.8 57.96 81 92.76 97.8"/><polyline class="cls-1" points="76.92 76.92 73.8 75.24 73.8 70.44 76.92 72.12 76.92 76.92"/><polyline class="cls-1" points="75.72 71.4 75.72 74.76 76.92 75.24"/><line class="cls-1" x1="73.8" y1="75.24" x2="75.72" y2="74.76"/><polyline class="cls-1" points="169.8 51.72 150.6 72.12 147.24 75.24"/><polyline class="cls-1" points="150.6 72.12 150.6 40.92 147.24 39.24"/><polyline class="cls-1" points="150.6 40.92 169.8 20.52 168.36 16.92"/><line class="cls-1" x1="147.24" y1="39.24" x2="147.24" y2="75.24"/><line class="cls-1" x1="168.36" y1="16.92" x2="147.24" y2="39.24"/><polyline class="cls-1" points="169.8 51.72 169.8 20.52 150.6 40.92 150.6 72.12 169.8 51.72"/><polyline class="cls-1" points="161.16 47.88 159.24 49.8 159.24 45 161.16 43.08 161.16 47.88"/><line class="cls-1" x1="159.24" y1="47.64" x2="161.16" y2="47.88"/><polyline class="cls-1" points="18.6 62.76 56.76 81 52.92 78.6 18.12 61.8"/><polyline class="cls-1" points="56.76 81 56.76 45 52.92 47.4 52.92 78.6"/><polyline class="cls-1" points="56.76 45 18.6 26.76 18.12 30.6 52.92 47.4"/><line class="cls-1" x1="18.12" y1="61.8" x2="18.6" y2="62.76"/><line class="cls-1" x1="18.12" y1="61.8" x2="18.12" y2="30.6"/><polyline class="cls-1" points="18.12 61.8 52.92 78.6 52.92 47.4 18.12 30.6 18.12 61.8"/><polyline class="cls-1" points="35.16 59.88 35.88 60.36 35.88 65.16 35.16 64.68 35.16 59.88"/><polyline class="cls-1" points="37.56 53.88 38.04 53.64 39.72 58.68 39.24 58.92 37.56 53.88"/><polyline class="cls-1" points="33.72 52.2 32.04 55.32 31.56 54.6 33.24 51.24 33.72 52.2"/><line class="cls-1" x1="35.16" y1="64.68" x2="35.88" y2="64.44"/><line class="cls-1" x1="38.04" y1="53.64" x2="37.56" y2="53.88"/><line class="cls-1" x1="39.24" y1="58.92" x2="39.72" y2="58.68"/><line class="cls-1" x1="31.56" y1="54.6" x2="32.52" y2="54.36"/><line class="cls-1" x1="56.76" y1="81" x2="18.6" y2="62.76"/><line class="cls-1" x1="56.76" y1="45" x2="56.76" y2="81"/><line class="cls-1" x1="18.6" y1="26.76" x2="56.76" y2="45"/><polyline class="cls-1" points="144.36 42.12 146.04 45.72 146.04 50.76"/><polyline class="cls-1" points="144.36 42.12 123.24 64.44 126.6 66.12 146.04 45.72"/><line class="cls-1" x1="123.24" y1="64.44" x2="123.24" y2="100.2"/><line class="cls-1" x1="126.6" y1="97.32" x2="123.24" y2="100.2"/><line class="cls-1" x1="126.6" y1="97.32" x2="126.6" y2="66.12"/><polyline class="cls-1" points="126.6 97.32 146.04 75.21 146.04 50.76"/><polyline class="cls-1" points="146.04 50.76 146.04 45.72 126.6 66.12 126.6 97.32"/><polyline class="cls-1" points="136.2 77.4 136.44 76.92 136.44 81.72 136.2 82.2 136.2 77.4"/><polyline class="cls-1" points="137.4 69 137.64 68.04 138.6 71.16 138.36 72.12 137.4 69"/><line class="cls-1" x1="135.24" y1="71.16" x2="134.28" y2="76.2"/><polyline class="cls-1" points="134.28 76.2 134.04 75.96 135 70.92 135.24 71.16"/><line class="cls-1" x1="136.44" y1="81.72" x2="136.2" y2="81.72"/><line class="cls-1" x1="138.6" y1="71.16" x2="138.12" y2="71.16"/><line class="cls-1" x1="135" y1="71.16" x2="135.24" y2="71.16"/><polyline class="cls-1" points="123.24 100.2 123.24 64.44 144.36 42.12"/><line class="cls-1" x1="178.68" y1="48.12" x2="178.68" y2="0.12"/><polyline class="cls-1" points="41.97 82.46 0.12 85.22 114.84 140.66 178.68 73.46"/><path class="cls-1" d="M42,82.46"/><line class="cls-1" x1="178.68" y1="73.46" x2="155.3" y2="75"/><polyline class="cls-1" points="178.68 121.46 114.84 188.42 0.12 133.22"/><line class="cls-1" x1="0.12" y1="133.22" x2="0.12" y2="85.22"/><line class="cls-1" x1="114.84" y1="188.42" x2="114.84" y2="140.66"/><polyline class="cls-1" points="92.76 171.14 57.96 154.34 58.44 155.3"/><polyline class="cls-1" points="57.96 154.34 57.96 123.14 58.44 119.3"/><polyline class="cls-1" points="57.96 123.14 92.76 139.94 96.36 137.54"/><line class="cls-1" x1="96.36" y1="173.54" x2="92.76" y2="171.14"/><line class="cls-1" x1="96.36" y1="137.54" x2="58.44" y2="119.3"/><line class="cls-1" x1="96.36" y1="173.54" x2="96.36" y2="137.54"/><line class="cls-1" x1="58.44" y1="155.3" x2="96.36" y2="173.54"/><polyline class="cls-1" points="92.76 171.14 92.76 139.94 57.96 123.14 57.96 154.34 92.76 171.14"/><polyline class="cls-1" points="76.92 150.26 73.8 148.58 73.8 143.78 76.92 145.46 76.92 150.26"/><polyline class="cls-1" points="75.72 144.74 75.72 148.1 76.92 148.58"/><line class="cls-1" x1="73.8" y1="148.58" x2="75.72" y2="148.1"/><polyline class="cls-1" points="169.8 125.06 150.6 145.46 147.24 148.58"/><polyline class="cls-1" points="150.6 145.46 150.6 114.26 147.24 112.58"/><polyline class="cls-1" points="150.6 114.26 169.8 93.86 168.36 90.26"/><line class="cls-1" x1="147.24" y1="112.58" x2="147.24" y2="148.58"/><line class="cls-1" x1="168.36" y1="90.26" x2="147.24" y2="112.58"/><polyline class="cls-1" points="169.8 125.06 169.8 93.86 150.6 114.26 150.6 145.46 169.8 125.06"/><polyline class="cls-1" points="161.16 121.22 159.24 123.14 159.24 118.34 161.16 116.42 161.16 121.22"/><line class="cls-1" x1="159.24" y1="120.98" x2="161.16" y2="121.22"/><polyline class="cls-1" points="18.6 136.1 56.76 154.34 52.92 151.94 18.12 135.14"/><polyline class="cls-1" points="56.76 154.34 56.76 118.34 52.92 120.74 52.92 151.94"/><polyline class="cls-1" points="56.76 118.34 18.6 100.1 18.12 103.94 52.92 120.74"/><line class="cls-1" x1="18.12" y1="135.14" x2="18.6" y2="136.1"/><line class="cls-1" x1="18.12" y1="135.14" x2="18.12" y2="103.94"/><polyline class="cls-1" points="18.12 135.14 52.92 151.94 52.92 120.74 18.12 103.94 18.12 135.14"/><polyline class="cls-1" points="35.16 133.22 35.88 133.7 35.88 138.5 35.16 138.02 35.16 133.22"/><polyline class="cls-1" points="37.56 127.22 38.04 126.98 39.72 132.02 39.24 132.26 37.56 127.22"/><polyline class="cls-1" points="33.72 125.54 32.04 128.66 31.56 127.94 33.24 124.58 33.72 125.54"/><line class="cls-1" x1="35.16" y1="138.02" x2="35.88" y2="137.78"/><line class="cls-1" x1="38.04" y1="126.98" x2="37.56" y2="127.22"/><line class="cls-1" x1="39.24" y1="132.26" x2="39.72" y2="132.02"/><line class="cls-1" x1="31.56" y1="127.94" x2="32.52" y2="127.7"/><line class="cls-1" x1="56.76" y1="154.34" x2="18.6" y2="136.1"/><line class="cls-1" x1="56.76" y1="118.34" x2="56.76" y2="154.34"/><line class="cls-1" x1="18.6" y1="100.1" x2="56.76" y2="118.34"/><polyline class="cls-1" points="144.36 115.46 146.04 119.06 146.04 124.1"/><polyline class="cls-1" points="144.36 115.46 123.24 137.78 126.6 139.46 146.04 119.06"/><line class="cls-1" x1="123.24" y1="137.78" x2="123.24" y2="173.54"/><line class="cls-1" x1="126.6" y1="170.66" x2="123.24" y2="173.54"/><line class="cls-1" x1="126.6" y1="170.66" x2="126.6" y2="139.46"/><polyline class="cls-1" points="126.6 170.66 146.04 148.55 146.04 124.1"/><polyline class="cls-1" points="146.04 124.1 146.04 119.06 126.6 139.46 126.6 170.66"/><polyline class="cls-1" points="136.2 150.74 136.44 150.26 136.44 155.06 136.2 155.54 136.2 150.74"/><polyline class="cls-1" points="137.4 142.34 137.64 141.38 138.6 144.5 138.36 145.46 137.4 142.34"/><line class="cls-1" x1="135.24" y1="144.5" x2="134.28" y2="149.54"/><polyline class="cls-1" points="134.28 149.54 134.04 149.3 135 144.26 135.24 144.5"/><line class="cls-1" x1="136.44" y1="155.06" x2="136.2" y2="155.06"/><line class="cls-1" x1="138.6" y1="144.5" x2="138.12" y2="144.5"/><line class="cls-1" x1="135" y1="144.5" x2="135.24" y2="144.5"/><polyline class="cls-1" points="123.24 173.54 123.24 137.78 144.36 115.46"/><line class="cls-1" x1="178.68" y1="121.46" x2="178.68" y2="73.46"/><polyline class="cls-1" points="39.95 152.39 0.12 155.01 114.84 210.45 178.68 143.25"/><path class="cls-1" d="M40,152.39"/><line class="cls-1" x1="178.68" y1="143.25" x2="156.48" y2="144.71"/><polyline class="cls-1" points="178.68 191.25 114.84 258.21 0.12 203.01"/><line class="cls-1" x1="0.12" y1="203.01" x2="0.12" y2="155.01"/><line class="cls-1" x1="114.84" y1="258.21" x2="114.84" y2="210.45"/><polyline class="cls-1" points="92.76 240.93 57.96 224.13 58.44 225.09"/><polyline class="cls-1" points="57.96 224.13 57.96 192.93 58.44 189.09"/><polyline class="cls-1" points="57.96 192.93 92.76 209.73 96.36 207.33"/><line class="cls-1" x1="96.36" y1="243.33" x2="92.76" y2="240.93"/><line class="cls-1" x1="96.36" y1="207.33" x2="58.44" y2="189.09"/><line class="cls-1" x1="96.36" y1="243.33" x2="96.36" y2="207.33"/><line class="cls-1" x1="58.44" y1="225.09" x2="96.36" y2="243.33"/><polyline class="cls-1" points="92.76 240.93 92.76 209.73 57.96 192.93 57.96 224.13 92.76 240.93"/><polyline class="cls-1" points="76.92 220.05 73.8 218.37 73.8 213.57 76.92 215.25 76.92 220.05"/><polyline class="cls-1" points="75.72 214.53 75.72 217.89 76.92 218.37"/><line class="cls-1" x1="73.8" y1="218.37" x2="75.72" y2="217.89"/><polyline class="cls-1" points="169.8 194.85 150.6 215.25 147.24 218.37"/><polyline class="cls-1" points="150.6 215.25 150.6 184.05 147.24 182.37"/><polyline class="cls-1" points="150.6 184.05 169.8 163.65 168.36 160.05"/><line class="cls-1" x1="147.24" y1="182.37" x2="147.24" y2="218.37"/><line class="cls-1" x1="168.36" y1="160.05" x2="147.24" y2="182.37"/><polyline class="cls-1" points="169.8 194.85 169.8 163.65 150.6 184.05 150.6 215.25 169.8 194.85"/><polyline class="cls-1" points="161.16 191.01 159.24 192.93 159.24 188.13 161.16 186.21 161.16 191.01"/><line class="cls-1" x1="159.24" y1="190.77" x2="161.16" y2="191.01"/><polyline class="cls-1" points="18.6 205.89 56.76 224.13 52.92 221.73 18.12 204.93"/><polyline class="cls-1" points="56.76 224.13 56.76 188.13 52.92 190.53 52.92 221.73"/><polyline class="cls-1" points="56.76 188.13 18.6 169.89 18.12 173.73 52.92 190.53"/><line class="cls-1" x1="18.12" y1="204.93" x2="18.6" y2="205.89"/><line class="cls-1" x1="18.12" y1="204.93" x2="18.12" y2="173.73"/><polyline class="cls-1" points="18.12 204.93 52.92 221.73 52.92 190.53 18.12 173.73 18.12 204.93"/><polyline class="cls-1" points="35.16 203.01 35.88 203.49 35.88 208.29 35.16 207.81 35.16 203.01"/><polyline class="cls-1" points="37.56 197.01 38.04 196.77 39.72 201.81 39.24 202.05 37.56 197.01"/><polyline class="cls-1" points="33.72 195.33 32.04 198.45 31.56 197.73 33.24 194.37 33.72 195.33"/><line class="cls-1" x1="35.16" y1="207.81" x2="35.88" y2="207.57"/><line class="cls-1" x1="38.04" y1="196.77" x2="37.56" y2="197.01"/><line class="cls-1" x1="39.24" y1="202.05" x2="39.72" y2="201.81"/><line class="cls-1" x1="31.56" y1="197.73" x2="32.52" y2="197.49"/><line class="cls-1" x1="56.76" y1="224.13" x2="18.6" y2="205.89"/><line class="cls-1" x1="56.76" y1="188.13" x2="56.76" y2="224.13"/><line class="cls-1" x1="18.6" y1="169.89" x2="56.76" y2="188.13"/><polyline class="cls-1" points="144.36 185.25 146.04 188.85 146.04 193.89"/><polyline class="cls-1" points="144.36 185.25 123.24 207.57 126.6 209.25 146.04 188.85"/><line class="cls-1" x1="123.24" y1="207.57" x2="123.24" y2="243.33"/><line class="cls-1" x1="126.6" y1="240.45" x2="123.24" y2="243.33"/><line class="cls-1" x1="126.6" y1="240.45" x2="126.6" y2="209.25"/><polyline class="cls-1" points="126.6 240.45 146.04 218.34 146.04 193.89"/><polyline class="cls-1" points="146.04 193.89 146.04 188.85 126.6 209.25 126.6 240.45"/><polyline class="cls-1" points="136.2 220.53 136.44 220.05 136.44 224.85 136.2 225.33 136.2 220.53"/><polyline class="cls-1" points="137.4 212.13 137.64 211.17 138.6 214.29 138.36 215.25 137.4 212.13"/><line class="cls-1" x1="135.24" y1="214.29" x2="134.28" y2="219.33"/><polyline class="cls-1" points="134.28 219.33 134.04 219.09 135 214.05 135.24 214.29"/><line class="cls-1" x1="136.44" y1="224.85" x2="136.2" y2="224.85"/><line class="cls-1" x1="138.6" y1="214.29" x2="138.12" y2="214.29"/><line class="cls-1" x1="135" y1="214.29" x2="135.24" y2="214.29"/><polyline class="cls-1" points="123.24 243.33 123.24 207.57 144.36 185.25"/><line class="cls-1" x1="178.68" y1="191.25" x2="178.68" y2="143.25"/><polyline class="cls-1" points="45.71 224.95 0.3 227.94 115.02 283.38 178.86 216.18"/><path class="cls-1" d="M45.71,224.95"/><line class="cls-1" x1="178.86" y1="216.18" x2="153.31" y2="217.86"/><polyline class="cls-1" points="178.86 264.18 115.02 331.14 0.3 275.94"/><line class="cls-1" x1="0.3" y1="275.94" x2="0.3" y2="227.94"/><line class="cls-1" x1="115.02" y1="331.14" x2="115.02" y2="283.38"/><polyline class="cls-1" points="92.94 313.86 58.14 297.06 58.62 298.02"/><polyline class="cls-1" points="58.14 297.06 58.14 265.86 58.62 262.02"/><polyline class="cls-1" points="58.14 265.86 92.94 282.66 96.54 280.26"/><line class="cls-1" x1="96.54" y1="316.26" x2="92.94" y2="313.86"/><line class="cls-1" x1="96.54" y1="280.26" x2="58.62" y2="262.02"/><line class="cls-1" x1="96.54" y1="316.26" x2="96.54" y2="280.26"/><line class="cls-1" x1="58.62" y1="298.02" x2="96.54" y2="316.26"/><polyline class="cls-1" points="92.94 313.86 92.94 282.66 58.14 265.86 58.14 297.06 92.94 313.86"/><polyline class="cls-1" points="77.1 292.98 73.98 291.3 73.98 286.5 77.1 288.18 77.1 292.98"/><polyline class="cls-1" points="75.9 287.46 75.9 290.82 77.1 291.3"/><line class="cls-1" x1="73.98" y1="291.3" x2="75.9" y2="290.82"/><polyline class="cls-1" points="169.98 267.78 150.78 288.18 147.42 291.3"/><polyline class="cls-1" points="150.78 288.18 150.78 256.98 147.42 255.3"/><polyline class="cls-1" points="150.78 256.98 169.98 236.58 168.54 232.98"/><line class="cls-1" x1="147.42" y1="255.3" x2="147.42" y2="291.3"/><line class="cls-1" x1="168.54" y1="232.98" x2="147.42" y2="255.3"/><polyline class="cls-1" points="169.98 267.78 169.98 236.58 150.78 256.98 150.78 288.18 169.98 267.78"/><polyline class="cls-1" points="161.34 263.94 159.42 265.86 159.42 261.06 161.34 259.14 161.34 263.94"/><line class="cls-1" x1="159.42" y1="263.7" x2="161.34" y2="263.94"/><polyline class="cls-1" points="18.78 278.82 56.94 297.06 53.1 294.66 18.3 277.86"/><polyline class="cls-1" points="56.94 297.06 56.94 261.06 53.1 263.46 53.1 294.66"/><polyline class="cls-1" points="56.94 261.06 18.78 242.82 18.3 246.66 53.1 263.46"/><line class="cls-1" x1="18.3" y1="277.86" x2="18.78" y2="278.82"/><line class="cls-1" x1="18.3" y1="277.86" x2="18.3" y2="246.66"/><polyline class="cls-1" points="18.3 277.86 53.1 294.66 53.1 263.46 18.3 246.66 18.3 277.86"/><polyline class="cls-1" points="35.34 275.94 36.06 276.42 36.06 281.22 35.34 280.74 35.34 275.94"/><polyline class="cls-1" points="37.74 269.94 38.22 269.7 39.9 274.74 39.42 274.98 37.74 269.94"/><polyline class="cls-1" points="33.9 268.26 32.22 271.38 31.74 270.66 33.42 267.3 33.9 268.26"/><line class="cls-1" x1="35.34" y1="280.74" x2="36.06" y2="280.5"/><line class="cls-1" x1="38.22" y1="269.7" x2="37.74" y2="269.94"/><line class="cls-1" x1="39.42" y1="274.98" x2="39.9" y2="274.74"/><line class="cls-1" x1="31.74" y1="270.66" x2="32.7" y2="270.42"/><line class="cls-1" x1="56.94" y1="297.06" x2="18.78" y2="278.82"/><line class="cls-1" x1="56.94" y1="261.06" x2="56.94" y2="297.06"/><line class="cls-1" x1="18.78" y1="242.82" x2="56.94" y2="261.06"/><polyline class="cls-1" points="144.54 258.18 146.22 261.78 146.22 266.82"/><polyline class="cls-1" points="144.54 258.18 123.42 280.5 126.78 282.18 146.22 261.78"/><line class="cls-1" x1="123.42" y1="280.5" x2="123.42" y2="316.26"/><line class="cls-1" x1="126.78" y1="313.38" x2="123.42" y2="316.26"/><line class="cls-1" x1="126.78" y1="313.38" x2="126.78" y2="282.18"/><polyline class="cls-1" points="126.78 313.38 146.22 291.27 146.22 266.82"/><polyline class="cls-1" points="146.22 266.82 146.22 261.78 126.78 282.18 126.78 313.38"/><polyline class="cls-1" points="136.38 293.46 136.62 292.98 136.62 297.78 136.38 298.26 136.38 293.46"/><polyline class="cls-1" points="137.58 285.06 137.82 284.1 138.78 287.22 138.54 288.18 137.58 285.06"/><line class="cls-1" x1="135.42" y1="287.22" x2="134.46" y2="292.26"/><polyline class="cls-1" points="134.46 292.26 134.22 292.02 135.18 286.98 135.42 287.22"/><line class="cls-1" x1="136.62" y1="297.78" x2="136.38" y2="297.78"/><line class="cls-1" x1="138.78" y1="287.22" x2="138.3" y2="287.22"/><line class="cls-1" x1="135.18" y1="287.22" x2="135.42" y2="287.22"/><polyline class="cls-1" points="123.42 316.26 123.42 280.5 144.54 258.18"/><line class="cls-1" x1="178.86" y1="264.18" x2="178.86" y2="216.18"/></g></g></svg>