<svg xmlns="http://www.w3.org/2000/svg" viewBox="0 0 368.16 391.08"><defs><style>.cls-1{fill:#e6e6e6;}.cls-2,.cls-3{fill:none;stroke:#000;stroke-linecap:round;stroke-linejoin:round;}.cls-2{stroke-width:0.24px;}.cls-3{stroke-width:0.48px;}.cls-4{fill:#fff;}.cls-5{font-size:5.51px;}.cls-5,.cls-6{font-family:ArialNarrow, Arial;}.cls-6{font-size:5.36px;}.cls-7{letter-spacing:-0.01em;}.cls-8{letter-spacing:0.03em;}.cls-9{letter-spacing:0.04em;}.cls-10{letter-spacing:0em;}</style></defs><title>OCTOPUSSY_QUAD_SINGLE</title><g id="Layer_2" data-name="Layer 2"><g id="Layer_1-2" data-name="Layer 1"><rect class="cls-1" x="126.72" y="337.2" width="107.28" height="53.76"/><polyline class="cls-2" points="234 390.96 234 337.2 126.72 337.2 126.72 390.96 234 390.96"/><line class="cls-3" x1="367.92" y1="184.08" x2="367.44" y2="171.6"/><line class="cls-3" x1="366.24" y1="159.6" x2="364.32" y2="147.36"/><polyline class="cls-3" points="361.2 135.36 359.52 128.88 357.6 123.6"/><polyline class="cls-3" points="353.28 112.08 353.04 111.36 348 101.04"/><line class="cls-3" x1="342.24" y1="90.24" x2="335.76" y2="79.92"/><polyline class="cls-3" points="328.32 70.08 323.52 64.08 320.4 60.72"/><polyline class="cls-3" points="312 51.84 310.8 50.64 302.64 43.68"/><line class="cls-3" x1="293.04" y1="36" x2="282.96" y2="29.04"/><polyline class="cls-3" points="272.4 22.8 265.2 18.96 261.36 17.28"/><polyline class="cls-3" points="250.08 12.48 247.92 11.52 238.56 8.64"/><line class="cls-3" x1="226.8" y1="5.28" x2="214.56" y2="2.64"/><polyline class="cls-3" points="202.56 1.2 193.44 0.24 190.32 0.24"/><polyline class="cls-3" points="177.84 0.24 174.72 0.24 165.6 1.2"/><line class="cls-3" x1="153.6" y1="2.64" x2="141.6" y2="5.28"/><polyline class="cls-3" points="129.6 8.64 120.24 11.52 118.08 12.48"/><polyline class="cls-3" points="106.8 17.28 103.2 18.96 95.76 22.8"/><line class="cls-3" x1="85.2" y1="29.04" x2="75.12" y2="36"/><polyline class="cls-3" points="65.52 43.68 57.36 50.64 56.4 51.84"/><polyline class="cls-3" points="47.76 60.72 44.64 64.08 39.84 70.08"/><line class="cls-3" x1="32.4" y1="79.92" x2="25.92" y2="90.24"/><polyline class="cls-3" points="20.16 101.04 15.12 111.36 14.88 112.08"/><polyline class="cls-3" points="10.56 123.6 8.64 128.88 6.96 135.36"/><line class="cls-3" x1="3.84" y1="147.36" x2="1.92" y2="159.6"/><line class="cls-3" x1="0.72" y1="171.6" x2="0.24" y2="184.08"/><polyline class="cls-3" points="0.72 196.32 1.2 202.56 1.92 208.56"/><polyline class="cls-3" points="3.84 220.56 3.84 221.04 6.96 232.56"/><line class="cls-3" x1="10.56" y1="244.32" x2="14.88" y2="255.84"/><polyline class="cls-3" points="20.16 266.88 23.28 273.12 25.92 277.68"/><polyline class="cls-3" points="32.4 288 33.12 288.96 39.84 297.84"/><line class="cls-3" x1="47.76" y1="307.2" x2="56.4" y2="316.08"/><polyline class="cls-3" points="65.52 324.24 71.52 329.52 75.12 331.92"/><polyline class="cls-3" points="85.2 338.88 86.88 340.08 95.76 345.12"/><line class="cls-3" x1="106.8" y1="350.64" x2="118.08" y2="355.44"/><polyline class="cls-3" points="129.6 359.52 138 361.92 141.6 362.64"/><polyline class="cls-3" points="153.6 365.28 156.24 365.76 165.6 366.72"/><line class="cls-3" x1="177.84" y1="367.68" x2="190.32" y2="367.68"/><polyline class="cls-3" points="202.56 366.72 211.92 365.76 214.56 365.28"/><polyline class="cls-3" points="226.8 362.64 230.16 361.92 238.56 359.52"/><line class="cls-3" x1="250.08" y1="355.44" x2="261.36" y2="350.64"/><polyline class="cls-3" points="272.4 345.12 281.28 340.08 282.96 338.88"/><polyline class="cls-3" points="293.04 331.92 296.64 329.52 302.64 324.24"/><line class="cls-3" x1="312" y1="316.08" x2="320.4" y2="307.2"/><polyline class="cls-3" points="328.32 297.84 335.04 288.96 335.76 288"/><polyline class="cls-3" points="342.24 277.68 344.88 273.12 348 266.88"/><line class="cls-3" x1="353.28" y1="255.84" x2="357.6" y2="244.32"/><polyline class="cls-3" points="361.2 232.56 364.32 221.04 364.32 220.56"/><polyline class="cls-3" points="366.24 208.56 366.96 202.56 367.44 196.32"/><line class="cls-3" x1="195.6" y1="172.56" x2="172.56" y2="172.56"/><line class="cls-3" x1="195.6" y1="195.36" x2="195.6" y2="172.56"/><line class="cls-3" x1="172.56" y1="195.36" x2="195.6" y2="195.36"/><line class="cls-3" x1="172.56" y1="172.56" x2="172.56" y2="195.36"/><line class="cls-3" x1="172.56" y1="172.56" x2="195.6" y2="195.36"/><polyline class="cls-3" points="195.6 172.56 195.6 37.68 191.76 37.68 191.76 172.56"/><polyline class="cls-3" points="172.56 172.56 37.68 172.56 37.68 176.4 172.56 176.4"/><polyline class="cls-3" points="172.56 195.36 172.56 330.24 176.4 330.24 176.4 195.36"/><polyline class="cls-3" points="195.6 195.36 330.48 195.36 330.48 191.76 195.6 191.76"/><polyline class="cls-3" points="193.68 37.68 209.28 62.88 226.32 87.36 244.8 110.88 264.48 133.2 285.36 154.56 307.44 174.72 330.48 193.44"/><polyline class="cls-3" points="37.68 174.48 63.12 158.64 87.6 141.6 111.12 123.36 133.44 103.68 154.8 82.8 174.72 60.72 193.68 37.68"/><polyline class="cls-3" points="174.48 330.24 158.88 305.04 141.84 280.56 123.36 257.04 103.68 234.72 82.8 213.36 60.72 193.2 37.68 174.48"/><polyline class="cls-3" points="330.48 193.44 305.04 209.28 280.56 226.32 257.28 244.8 234.72 264.24 213.36 285.12 193.44 307.2 174.48 330.24"/><polyline class="cls-3" points="192 64.32 207.84 87.84 224.88 110.64 242.88 132.24 262.32 153.12 282.48 173.04 303.84 191.76"/><polyline class="cls-3" points="64.32 176.16 87.84 160.32 110.64 143.28 132.48 125.04 153.36 105.84 173.04 85.44 192 64.32"/><polyline class="cls-3" points="176.16 303.6 160.32 280.08 143.28 257.52 125.28 235.68 105.84 214.8 85.68 194.88 64.32 176.16"/><polyline class="cls-3" points="303.84 191.76 280.32 207.6 257.52 224.64 235.68 242.88 214.8 262.08 195.12 282.48 176.16 303.6"/><polyline class="cls-3" points="190.32 89.52 205.92 111.36 222.72 132.24 240.48 152.4 258.96 171.84 278.64 190.08"/><polyline class="cls-3" points="89.52 177.84 111.36 162 132.48 145.44 152.64 127.68 171.84 108.96 190.32 89.52"/><polyline class="cls-3" points="177.84 278.4 162.24 256.8 145.44 235.68 127.68 215.52 109.2 196.32 89.52 177.84"/><polyline class="cls-3" points="278.64 190.08 256.8 205.92 235.92 222.48 215.52 240.24 196.32 258.96 177.84 278.4"/><polyline class="cls-3" points="188.64 113.76 209.04 139.92 231.12 164.88 254.4 188.64"/><polyline class="cls-3" points="113.76 179.28 139.92 158.88 164.88 137.04 188.64 113.76"/><polyline class="cls-3" points="179.52 254.16 159.12 228 137.04 203.04 113.76 179.28"/><polyline class="cls-3" points="254.4 188.64 228.24 209.04 203.28 230.88 179.52 254.16"/><line class="cls-2" x1="184.08" y1="184.08" x2="328.32" y2="69.84"/><line class="cls-2" x1="187.2" y1="184.32" x2="180.96" y2="183.6"/><line class="cls-2" x1="184.56" y1="180.72" x2="183.6" y2="187.2"/><path class="cls-2" d="M325.92,66.72c1.68,1.92,3.12,3.84,4.56,5.76"/><line class="cls-2" x1="328.32" y1="69.84" x2="325.92" y2="74.16"/><line class="cls-2" x1="328.32" y1="69.84" x2="323.52" y2="71.04"/><polyline class="cls-4" points="253.92 116.16 264 108 269.04 114.48 258.96 122.4"/><text class="cls-5" transform="matrix(0.78, -0.62, 0.62, 0.78, 257.76, 120.96)">R</text><text class="cls-5" transform="matrix(0.78, -0.62, 0.62, 0.78, 260.4, 119.04)">a</text><text class="cls-5" transform="matrix(0.78, -0.62, 0.62, 0.78, 262.32, 117.6)">n</text><text class="cls-5" transform="matrix(0.78, -0.62, 0.62, 0.78, 264.24, 115.92)">g</text><text class="cls-5" transform="matrix(0.78, -0.62, 0.62, 0.78, 266.16, 114.48)">e</text><text class="cls-6" transform="translate(193.2 381.84) scale(1 1.02)"><tspan class="cls-7">W</tspan><tspan class="cls-8" x="4.1" y="0">O</tspan><tspan class="cls-7" x="7.69" y="0">RKS</tspan><tspan class="cls-9" x="16.57" y="0">T</tspan><tspan class="cls-7" x="19.45" y="0">AT</tspan><tspan class="cls-10" x="24.96" y="0">I</tspan><tspan class="cls-8" x="26.16" y="0">O</tspan><tspan x="29.75" y="0">N</tspan></text></g></g></svg>