<svg xmlns="http://www.w3.org/2000/svg" viewBox="0 0 164.45 162.58"><defs><style>.cls-1{fill:#010101;}.cls-2{fill:#c6c6c6;}.cls-3{fill:none;stroke:#36a9e1;stroke-miterlimit:10;}</style></defs><title>Octupussy_Quad_SensorPods</title><g id="Layer_2" data-name="Layer 2"><g id="Layer_1-2" data-name="Layer 1"><path class="cls-1" d="M88.26,76.06H76.13a.24.24,0,1,1,0-.48H88.26a.24.24,0,0,1,0,.48Z"/><path class="cls-1" d="M88.26,88.07a.24.24,0,0,1-.24-.24v-12a.24.24,0,0,1,.48,0v12A.24.24,0,0,1,88.26,88.07Z"/><path class="cls-1" d="M88.26,88.07H76.13a.24.24,0,1,1,0-.48H88.26a.24.24,0,0,1,0,.48Z"/><path class="cls-1" d="M76.13,88.07a.24.24,0,0,1-.24-.24v-12a.24.24,0,0,1,.48,0v12A.24.24,0,0,1,76.13,88.07Z"/><path class="cls-1" d="M88.26,88.07a.24.24,0,0,1-.17-.07L76,76a.24.24,0,1,1,.34-.34l12.14,12a.24.24,0,0,1-.17.41Z"/><path class="cls-1" d="M88.26,76.06a.24.24,0,0,1-.24-.24V5H86.48V75.82a.24.24,0,1,1-.48,0v-71a.24.24,0,0,1,.24-.24h2a.24.24,0,0,1,.24.24v71A.24.24,0,0,1,88.26,76.06Z"/><path class="cls-1" d="M76.13,78.08h-71a.24.24,0,0,1-.24-.24v-2a.24.24,0,0,1,.24-.24h71a.24.24,0,0,1,0,.48H5.32V77.6H76.13a.24.24,0,0,1,0,.48Z"/><path class="cls-1" d="M78.15,159.12h-2a.24.24,0,0,1-.24-.24v-71a.24.24,0,0,1,.48,0v70.81h1.54V87.83a.24.24,0,0,1,.48,0v71A.24.24,0,0,1,78.15,159.12Z"/><path class="cls-1" d="M159.31,88.07h-71a.24.24,0,1,1,0-.48h70.81V86.17H88.26a.24.24,0,1,1,0-.48h71a.24.24,0,0,1,.24.24v1.9A.24.24,0,0,1,159.31,88.07Z"/><path class="cls-2" d="M159.31,87.06a.24.24,0,0,1-.15-.05L147,77.14,135.38,66.51l-11-11.26L114,43.49l-9.74-12.4-9-12.91L87,4.89a.24.24,0,0,1,.41-.25l8.22,13.27,9,12.88,9.73,12.38,10.36,11.75,11,11.24,11.62,10.61,12.13,9.85a.24.24,0,0,1-.15.43Z"/><path class="cls-2" d="M5.08,77.07a.24.24,0,0,1-.13-.44l13.4-8.34,12.89-9,12.38-9.6L55.36,39.35l11.24-11L77.09,16.74l10-12.13a.24.24,0,1,1,.37.3l-10,12.14L66.95,28.7l-11.26,11L43.92,50.08,31.52,59.7l-12.91,9L5.2,77A.24.24,0,0,1,5.08,77.07Z"/><path class="cls-2" d="M77.14,159.12a.24.24,0,0,1-.2-.11l-8.22-13.27-9-12.88L50,120.47,39.66,108.72l-11-11.24L17.05,86.87,4.93,77a.24.24,0,0,1,.3-.37L17.36,86.5,29,97.13l11,11.26,10.38,11.77,9.74,12.4,9,12.91,8.23,13.29a.24.24,0,0,1-.2.37Z"/><path class="cls-2" d="M77.14,159.12a.24.24,0,0,1-.19-.39l10-12.14,10.5-11.64,11.26-11,11.9-10.25,12.27-9.74,12.91-9,13.41-8.35a.24.24,0,1,1,.25.41L146,95.36l-12.88,9-12.25,9.73L109,124.29l-11.24,11L87.3,146.9,77.32,159A.24.24,0,0,1,77.14,159.12Z"/><path class="cls-2" d="M145.28,86.17a.24.24,0,0,1-.16-.06l-11.25-9.86-10.63-10.5L113,54.74,103.5,43.35l-9-12-8.35-12.4a.24.24,0,0,1,.4-.27l8.34,12.39,9,12,9.47,11.37,10.23,11L134.2,75.9l11.24,9.85a.24.24,0,0,1-.16.42Z"/><path class="cls-2" d="M19.11,78a.24.24,0,0,1-.13-.44l12.39-8.34,12-9,11.49-9.6,11-10.11L76.21,29.76l10-11.12a.24.24,0,1,1,.36.32l-10,11.13L66.19,40.84,55.18,51,43.66,60.58l-12,9-12.4,8.35A.24.24,0,0,1,19.11,78Z"/><path class="cls-2" d="M78,145.08a.24.24,0,0,1-.2-.11l-8.34-12.39-9-11.87L51,109.22l-10.23-11L30.19,87.75,19,77.89a.24.24,0,1,1,.32-.36l11.25,9.86L41.15,97.9l10.25,11,9.49,11.52,9,11.89,8.35,12.4a.24.24,0,0,1-.06.33A.24.24,0,0,1,78,145.08Z"/><path class="cls-2" d="M78,145.08a.24.24,0,0,1-.18-.4l10-11.13L98.2,122.81l11-10.12,11.51-9.62,12-9,12.4-8.35a.24.24,0,1,1,.27.4L133,94.47l-12,9L109.53,113l-11,10.11L88.18,133.89,78.2,145A.24.24,0,0,1,78,145.08Z"/><path class="cls-2" d="M132,85.29a.24.24,0,0,1-.16-.06l-10.37-9.61-9.75-10.25-9.36-10.63-8.86-11L85.29,32.21a.24.24,0,1,1,.39-.28l8.22,11.5,8.84,11L112.08,65l9.73,10.23,10.36,9.6a.24.24,0,0,1-.16.42Z"/><path class="cls-2" d="M32.38,78.84a.24.24,0,0,1-.14-.43l11.5-8.34,11.12-8.72L65.47,52l10.11-9.85,9.73-10.23a.24.24,0,1,1,.35.33L75.92,42.48,65.8,52.35,55.17,61.71,44,70.44,32.53,78.79A.24.24,0,0,1,32.38,78.84Z"/><path class="cls-2" d="M78.91,131.81a.24.24,0,0,1-.19-.1L70.5,120.33l-8.84-11.12L52.31,98.61,42.58,88.5,32.22,78.77a.24.24,0,1,1,.33-.35l10.37,9.73,9.74,10.12L62,108.91,70.88,120l8.22,11.39a.24.24,0,0,1-.19.38Z"/><path class="cls-2" d="M78.91,131.81a.24.24,0,0,1-.17-.41l9.73-10.24,10.12-9.87,10.76-9.36,11-8.73,11.51-8.35a.24.24,0,0,1,.28.39l-11.5,8.34-11,8.72-10.74,9.35-10.1,9.85-9.73,10.23A.24.24,0,0,1,78.91,131.81Z"/><path class="cls-2" d="M119.24,84.53a.24.24,0,0,1-.17-.07L106.8,71.94,95.16,58.78,84.41,45a.24.24,0,0,1,.38-.29L95.53,58.48l11.62,13.14,12.25,12.51a.24.24,0,0,1-.17.41Z"/><path class="cls-2" d="M45.15,79.6a.24.24,0,0,1-.15-.43L58.79,68.42l13.14-11.5L84.43,44.67a.24.24,0,1,1,.34.34L72.25,57.28,59.09,68.79,45.3,79.55A.24.24,0,0,1,45.15,79.6Z"/><path class="cls-2" d="M79.79,119a.24.24,0,0,1-.19-.09L68.86,105.17,57.24,92,45,79.53a.24.24,0,0,1,.34-.34L57.59,91.71l11.64,13.16L80,118.65a.24.24,0,0,1-.19.39Z"/><path class="cls-2" d="M79.79,119a.24.24,0,0,1-.17-.41l12.52-12.26L105.3,94.85,119.09,84.1a.24.24,0,1,1,.29.38L105.6,95.22l-13.14,11.5L80,119A.24.24,0,0,1,79.79,119Z"/><path class="cls-1" d="M83.84,82.13h0l-3.29-.38a.12.12,0,0,1,0-.24l3.29.38a.12.12,0,0,1,0,.24Z"/><path class="cls-1" d="M81.94,83.65h0a.12.12,0,0,1-.1-.14l.51-3.41a.12.12,0,0,1,.14-.1.12.12,0,0,1,.1.14l-.51,3.41A.12.12,0,0,1,81.94,83.65Z"/><circle class="cls-3" cx="87.01" cy="4.84" r="4.34"/><circle class="cls-3" cx="4.84" cy="76.83" r="4.34"/><circle class="cls-3" cx="77.38" cy="157.74" r="4.34"/><circle class="cls-3" cx="159.62" cy="86.74" r="4.34"/><circle class="cls-3" cx="82.57" cy="81.81" r="4.34"/></g></g></svg>