<svg xmlns="http://www.w3.org/2000/svg" viewBox="0 0 708.8 370.5"><defs><style>.cls-1,.cls-2,.cls-3{fill:none;}.cls-1{stroke:#939393;}.cls-1,.cls-2,.cls-4{stroke-width:1.5px;}.cls-2,.cls-3{stroke:#69b42d;}.cls-3{stroke-miterlimit:10;}.cls-4{stroke:#000;}</style></defs><title>Wiring_NodeBased</title><g id="Layer_2" data-name="Layer 2"><g id="Layer_1-2" data-name="Layer 1"><path class="cls-1" d="M508.75,185.25c0,90,61.8,90,61.8,180"/><path class="cls-1" d="M508.75,185.25c0,90,42.8,90,42.8,180"/><path class="cls-1" d="M508.75,185.25c0,90,9.5,90,9.5,180"/><path class="cls-1" d="M508.75,185.25c0,90-23.8,90-23.8,180"/><path class="cls-1" d="M508.75,185.25c0,90-42.8,90-42.8,180"/><path class="cls-1" d="M508.75,185.25c0,90-61.8,90-61.8,180"/><path class="cls-2" d="M431.65,5.25c0,90,224.4,90,224.4,180"/><path class="cls-2" d="M431.65,5.25c0,90,77.2,90,77.2,180"/><path class="cls-3" d="M431.65,5.25c0,90-224.4,90-224.4,180"/><path class="cls-1" d="M207.15,185.25c0,90,201.9,90,201.9,180"/><path class="cls-1" d="M207.15,185.25c0,90,182.9,90,182.9,180"/><path class="cls-1" d="M207.15,185.25c0,90,163.9,90,163.9,180"/><path class="cls-1" d="M207.15,185.25c0,90,144.9,90,144.9,180"/><path class="cls-1" d="M207.15,185.25c0,90,116.4,90,116.4,180"/><path class="cls-1" d="M207.15,185.25c0,90,87.9,90,87.9,180"/><path class="cls-1" d="M207.15,185.25c0,90,59.4,90,59.4,180"/><path class="cls-1" d="M207.15,185.25c0,90,11.9,90,11.9,180"/><path class="cls-1" d="M207.15,185.25c0,90-125.9,90-125.9,180"/><path class="cls-1" d="M207.15,185.25c0,90-144.9,90-144.9,180"/><path class="cls-1" d="M207.15,185.25c0,90-163.9,90-163.9,180"/><path class="cls-1" d="M207.15,185.25c0,90-182.9,90-182.9,180"/><path class="cls-1" d="M207.15,185.25c0,90-201.9,90-201.9,180"/><path class="cls-1" d="M656,185.25c0,90,47.5,90,47.5,180"/><path class="cls-1" d="M656,185.25c0,90,28.5,90,28.5,180"/><path class="cls-1" d="M656,185.25c0,90,9.5,90,9.5,180"/><path class="cls-1" d="M656,185.25c0,90-9.5,90-9.5,180"/><path class="cls-1" d="M656,185.25c0,90-28.5,90-28.5,180"/><path class="cls-1" d="M656,185.25c0,90-47.5,90-47.5,180"/><circle class="cls-4" cx="207.15" cy="185.25" r="4.5"/><circle class="cls-4" cx="447.05" cy="365.25" r="4.5"/><circle class="cls-4" cx="466.05" cy="365.25" r="4.5"/><circle class="cls-4" cx="485.05" cy="365.25" r="4.5"/><circle class="cls-4" cx="518.25" cy="365.25" r="4.5"/><circle class="cls-4" cx="551.55" cy="365.25" r="4.5"/><circle class="cls-4" cx="570.55" cy="365.25" r="4.5"/><circle class="cls-4" cx="656.05" cy="185.25" r="4.5"/><circle class="cls-4" cx="431.65" cy="5.25" r="4.5"/><circle class="cls-4" cx="5.25" cy="365.25" r="4.5"/><circle class="cls-4" cx="24.25" cy="365.25" r="4.5"/><circle class="cls-4" cx="43.25" cy="365.25" r="4.5"/><circle class="cls-4" cx="62.25" cy="365.25" r="4.5"/><circle class="cls-4" cx="81.25" cy="365.25" r="4.5"/><circle class="cls-4" cx="219.05" cy="365.25" r="4.5"/><circle class="cls-4" cx="266.55" cy="365.25" r="4.5"/><circle class="cls-4" cx="295.05" cy="365.25" r="4.5"/><circle class="cls-4" cx="323.55" cy="365.25" r="4.5"/><circle class="cls-4" cx="352.05" cy="365.25" r="4.5"/><circle class="cls-4" cx="371.05" cy="365.25" r="4.5"/><circle class="cls-4" cx="390.05" cy="365.25" r="4.5"/><circle class="cls-4" cx="409.05" cy="365.25" r="4.5"/><circle class="cls-4" cx="608.55" cy="365.25" r="4.5"/><circle class="cls-4" cx="627.55" cy="365.25" r="4.5"/><circle class="cls-4" cx="646.55" cy="365.25" r="4.5"/><circle class="cls-4" cx="665.55" cy="365.25" r="4.5"/><circle class="cls-4" cx="684.55" cy="365.25" r="4.5"/><circle class="cls-4" cx="703.55" cy="365.25" r="4.5"/><circle class="cls-4" cx="508.75" cy="183.92" r="4.5"/></g></g></svg>