<?xml version="1.0" encoding="utf-8"?>
<!-- Generator: Adobe Illustrator 20.1.0, SVG Export Plug-In . SVG Version: 6.00 Build 0)  -->
<svg version="1.1" id="Layer_1" xmlns="http://www.w3.org/2000/svg" xmlns:xlink="http://www.w3.org/1999/xlink" x="0px" y="0px"
	 viewBox="0 0 910.5 732.5" style="enable-background:new 0 0 910.5 732.5;" xml:space="preserve">
<style type="text/css">
	.st0{fill:none;stroke:#939393;stroke-width:1.5;}
	.st1{stroke:#000000;stroke-width:1.5;}
</style>
<title>Tree_BW</title>
<path class="st0" d="M520.1,354.4c0,90,61.8,90,61.8,180"/>
<path class="st0" d="M520.1,354.4c0,90,42.8,90,42.8,180"/>
<path class="st0" d="M520.1,354.4c0,90,9.5,90,9.5,180"/>
<path class="st0" d="M520.1,354.4c0,90-23.8,90-23.8,180"/>
<path class="st0" d="M520.1,354.4c0,90-42.8,90-42.8,180"/>
<path class="st0" d="M520.1,354.4c0,90-61.8,90-61.8,180"/>
<path class="st0" d="M443,174.4c0,90,224.4,90,224.4,180"/>
<path class="st0" d="M443,174.4c0,90,77.2,90,77.2,180"/>
<path class="st0" d="M218.5,354.4c0,90,201.9,90,201.9,180"/>
<path class="st0" d="M218.5,354.4c0,90,182.9,90,182.9,180"/>
<path class="st0" d="M218.5,354.4c0,90,163.9,90,163.9,180"/>
<path class="st0" d="M218.5,354.4c0,90,144.9,90,144.9,180"/>
<path class="st0" d="M218.5,354.4c0,90,116.4,90,116.4,180"/>
<path class="st0" d="M218.5,354.4c0,90,87.9,90,87.9,180"/>
<path class="st0" d="M218.5,354.4c0,90,59.4,90,59.4,180"/>
<path class="st0" d="M218.5,354.4c0,90,11.9,90,11.9,180"/>
<path class="st0" d="M218.5,354.4c0,90-125.9,90-125.9,180"/>
<path class="st0" d="M218.5,354.4c0,90-144.9,90-144.9,180"/>
<path class="st0" d="M218.5,354.4c0,90-163.9,90-163.9,180"/>
<path class="st0" d="M218.5,354.4c0,90-182.9,90-182.9,180"/>
<path class="st0" d="M218.5,354.4c0,90-201.9,90-201.9,180"/>
<path class="st0" d="M667.4,354.4c0,90,47.5,90,47.5,180"/>
<path class="st0" d="M667.4,354.4c0,90,28.5,90,28.5,180"/>
<path class="st0" d="M667.4,354.4c0,90,9.5,90,9.5,180"/>
<path class="st0" d="M667.4,354.4c0,90-9.5,90-9.5,180"/>
<path class="st0" d="M667.4,354.4c0,90-28.5,90-28.5,180"/>
<path class="st0" d="M667.4,354.4c0,90-47.5,90-47.5,180"/>
<circle class="st1" cx="218.5" cy="354.4" r="4.5"/>
<circle class="st1" cx="458.4" cy="534.4" r="4.5"/>
<circle class="st1" cx="477.4" cy="534.4" r="4.5"/>
<circle class="st1" cx="496.4" cy="534.4" r="4.5"/>
<circle class="st1" cx="529.6" cy="534.4" r="4.5"/>
<circle class="st1" cx="562.9" cy="534.4" r="4.5"/>
<circle class="st1" cx="581.9" cy="534.4" r="4.5"/>
<circle class="st1" cx="667.4" cy="354.4" r="4.5"/>
<circle class="st1" cx="443" cy="174.4" r="4.5"/>
<circle class="st1" cx="16.6" cy="534.4" r="4.5"/>
<circle class="st1" cx="35.6" cy="534.4" r="4.5"/>
<circle class="st1" cx="54.6" cy="534.4" r="4.5"/>
<circle class="st1" cx="73.6" cy="534.4" r="4.5"/>
<circle class="st1" cx="92.6" cy="534.4" r="4.5"/>
<circle class="st1" cx="230.4" cy="534.4" r="4.5"/>
<circle class="st1" cx="277.9" cy="534.4" r="4.5"/>
<circle class="st1" cx="306.4" cy="534.4" r="4.5"/>
<circle class="st1" cx="334.9" cy="534.4" r="4.5"/>
<circle class="st1" cx="363.4" cy="534.4" r="4.5"/>
<circle class="st1" cx="382.4" cy="534.4" r="4.5"/>
<circle class="st1" cx="401.4" cy="534.4" r="4.5"/>
<circle class="st1" cx="420.4" cy="534.4" r="4.5"/>
<circle class="st1" cx="619.9" cy="534.4" r="4.5"/>
<circle class="st1" cx="638.9" cy="534.4" r="4.5"/>
<circle class="st1" cx="657.9" cy="534.4" r="4.5"/>
<circle class="st1" cx="676.9" cy="534.4" r="4.5"/>
<circle class="st1" cx="695.9" cy="534.4" r="4.5"/>
<circle class="st1" cx="714.9" cy="534.4" r="4.5"/>
<circle class="st1" cx="519.6" cy="354" r="4.5"/>
<path class="st0" d="M218.6,354.4c12.5-14.7,33.2-35.8,63.6-53.3c39.1-22.5,62-20.6,92.8-38.8c21.5-12.7,49.6-37,71.7-87.9"/>
<path class="st0" d="M218.5,354.4c-4.8-26.2,0.9-41.8,5.8-50.5c24.5-43.7,92-27.4,160.1-71.7c30-19.5,48.7-43.2,58.7-57.8"/>
<path class="st0" d="M218.6,354.4c13.4-9.5,33.7-22.9,59.7-36.8c45.1-24,65.1-26.6,89.3-41.3c23.7-14.4,53.2-41.5,75.4-97.4"/>
<path class="st0" d="M218.5,354.4c3.8-16.8,11.7-39.9,30.8-58.5c32.7-32,70.3-23.4,116.9-47.2c22.1-11.3,50.8-32.1,76.8-74.3"/>
<path class="st0" d="M218.5,354.4c10.5-21,29.2-50.3,62.2-69.4c33.9-19.7,57.4-13.8,91.3-32c20.5-11,47.9-32.3,71-78.6"/>
<path class="st0" d="M218.5,354.4c-4.7-13.8-9.9-36.2-0.1-55.8c18.3-36.5,72.1-30.3,139.7-62.9c40.7-19.6,68.8-44.9,84.9-61.3"/>
<path class="st0" d="M218.5,354.4c12.9-7.1,33-17.9,58-30.1c66.5-32.5,87.4-35.7,111.8-56.1c18.1-15.1,40.5-41.7,53.7-91.4"/>
<path class="st0" d="M218.5,354.4c-13.4-26.2-12.1-43.4-8-54.6c13-35.5,64.9-37.7,138.1-70.4c41.6-18.6,73.4-39.5,94.4-55"/>
<path class="st0" d="M218.5,354.4c-11.8-18.5-24.2-44.5-15.2-66.3c12-29,54-31.8,114.6-52.3c31-10.5,74.4-28.1,124-59"/>
<path class="st0" d="M218.5,354.4c18.6-7.6,43.6-18,73-30.6c82.7-35.5,97.3-44.4,110.8-58.3c13.6-14.1,33.7-41.4,40.7-91.1"/>
<path class="st0" d="M219,352.3c-15.3-19.9-33.8-50.3-24-75c10.6-26.9,48.4-30.9,114-51c32.5-10,79-26,134-51.9"/>
<path class="st0" d="M218.5,354.4c15.9-3.6,39.3-9.7,66.8-19.5c53.9-19.3,90.1-32.3,118.1-64.1c11.5-13.1,33.8-43.1,39.5-96.4"/>
<path class="st0" d="M218.5,354.4c-7.8-5.8-25.6-20.7-31.1-45.2c0,0-3.7-16.4,1-34.4c9-34.8,112.1-74.6,254.5-100.4"/>
<path class="st0" d="M520.1,354.4c2.4-5.3,5.3-13.5,5.4-23.6c0.1-6-0.7-20.4-17.6-44.6c-12-17.1-22.3-25.1-30-32.9
	c-13.3-13.5-28.7-36.8-35-78.9"/>
<path class="st0" d="M520.1,354.4c4.4-10.9,9.1-27.4,5.4-45.7c-6-29.4-28.9-40.1-53.5-75.7c-8.8-12.7-20.1-31.9-29-58.5"/>
<path class="st0" d="M520.1,354.4c-3.8-10.4-10.4-27-21.6-45.6c-20.9-35-37.5-43.8-48.5-70.4c-5.4-13.1-11-33.9-7-64"/>
<path class="st0" d="M520.1,354.4c-21.5-34.6-40.7-60.2-54.9-77.6c-7.3-9-13.2-15.8-18.3-27c-12.4-27.2-9-55.5-4-75.4"/>
<path class="st0" d="M520.1,354.4c9.5-12.4,17.8-28.3,15.9-45.6c-2.9-26.6-27.9-37.9-57.5-74c-18.7-22.8-30.1-44.3-36.5-58"/>
<path class="st0" d="M667.4,354.4c14.4-14.6,17.3-26.6,17.1-35.1c-0.7-22.3-24-43-138.5-96.5c-42.3-19.8-78.2-35.2-104-46"/>
<path class="st0" d="M667.4,354.4c1.2-25.4-5.6-41.1-10.9-50.1c-27.2-45.6-88.2-34.9-157.5-80c-27.5-17.9-45.8-37.7-56-49.9"/>
<path class="st0" d="M667.4,354.4c-0.5-21.4-5-50.9-25.4-73.1c-26.1-28.4-59.4-24.2-111-46c-23.2-9.8-55-26.8-89-58.5"/>
<path class="st0" d="M667.3,352.2c11.7-9.3,26-24,25.7-41.5c-0.4-19.7-19.5-38.5-96-75c-36.1-17.2-88.1-39.9-154-61.4"/>
<path class="st0" d="M667.4,354.4c6.3-4.8,34.1-26.8,31.1-53.1c-2.2-19.5-20.3-32.2-36.1-41.7c-67.7-40.7-175.3-70.9-220.5-82.8"/>
</svg>
