<?xml version="1.0" encoding="utf-8"?>
<svg viewBox="0 0 590.88 1193.76" xmlns="http://www.w3.org/2000/svg">
  <defs>
    <style>.cls-1,.cls-10,.cls-14,.cls-15,.cls-3,.cls-8{fill:none;}.cls-2{clip-path:url(#clip-path);}.cls-14,.cls-15,.cls-3{stroke:#000;}.cls-10,.cls-14,.cls-15,.cls-3,.cls-8{stroke-linecap:round;stroke-linejoin:round;}.cls-3{stroke-width:0.72px;}.cls-4{clip-path:url(#clip-path-2);}.cls-5{clip-path:url(#clip-path-3);}.cls-6{clip-path:url(#clip-path-4);}.cls-7{clip-path:url(#clip-path-5);}.cls-8{stroke:lime;stroke-width:6px;}.cls-9{clip-path:url(#clip-path-6);}.cls-10{stroke:red;stroke-width:3.36px;}.cls-11{clip-path:url(#clip-path-7);}.cls-12{clip-path:url(#clip-path-8);}.cls-13{clip-path:url(#clip-path-9);}.cls-14{stroke-width:0.24px;}.cls-15{stroke-width:1.2px;}.cls-16{fill:#fff;}.cls-17{font-size:17.8px;}.cls-17,.cls-18,.cls-25,.cls-26{font-family:ArialNarrow, Arial;}.cls-18{font-size:17.8px;}.cls-19{font-size:17.62px;font-family:ArialMT, Arial;}.cls-20{letter-spacing:0em;}.cls-21{letter-spacing:-0.01em;}.cls-22{letter-spacing:-0.01em;}.cls-23{letter-spacing:-0.01em;}.cls-24{letter-spacing:-0.02em;}.cls-25{font-size:17.8px;}.cls-26{font-size:17.8px;}</style>
  </defs>
  <title>Building50_Setout</title>
  <g id="Layer_2" data-name="Layer 2">
    <g id="Layer_1-2" data-name="Layer 1">
      <g class="cls-2">
        <line class="cls-3" x1="330.24" y1="1193.4" x2="338.88" y2="1142.76"/>
      </g>
      <line class="cls-3" x1="341.28" y1="1127.88" x2="341.76" y2="1125.48"/>
      <line class="cls-3" x1="344.4" y1="1110.6" x2="352.56" y2="1061.4"/>
      <line class="cls-3" x1="355.2" y1="1046.76" x2="355.68" y2="1044.12"/>
      <line class="cls-3" x1="358.08" y1="1029.24" x2="366.48" y2="980.04"/>
      <line class="cls-3" x1="368.88" y1="965.4" x2="369.36" y2="962.76"/>
      <line class="cls-3" x1="371.76" y1="948.12" x2="380.16" y2="898.92"/>
      <line class="cls-3" x1="382.8" y1="884.04" x2="383.04" y2="881.4"/>
      <line class="cls-3" x1="385.68" y1="866.76" x2="394.08" y2="817.56"/>
      <line class="cls-3" x1="396.48" y1="802.68" x2="396.96" y2="800.04"/>
      <line class="cls-3" x1="399.36" y1="785.4" x2="407.76" y2="736.2"/>
      <line class="cls-3" x1="410.16" y1="721.56" x2="410.64" y2="718.92"/>
      <line class="cls-3" x1="413.28" y1="704.04" x2="421.44" y2="654.84"/>
      <line class="cls-3" x1="424.08" y1="640.2" x2="424.56" y2="637.56"/>
      <line class="cls-3" x1="426.96" y1="622.68" x2="435.36" y2="573.72"/>
      <line class="cls-3" x1="437.76" y1="558.84" x2="438.24" y2="556.2"/>
      <line class="cls-3" x1="440.64" y1="541.56" x2="449.04" y2="492.36"/>
      <line class="cls-3" x1="451.44" y1="477.48" x2="451.92" y2="474.84"/>
      <line class="cls-3" x1="454.56" y1="460.2" x2="462.72" y2="411"/>
      <line class="cls-3" x1="465.36" y1="396.36" x2="465.84" y2="393.72"/>
      <line class="cls-3" x1="468.24" y1="378.84" x2="476.64" y2="329.64"/>
      <line class="cls-3" x1="479.04" y1="315" x2="479.52" y2="312.36"/>
      <line class="cls-3" x1="481.92" y1="297.48" x2="490.32" y2="248.28"/>
      <line class="cls-3" x1="492.96" y1="233.64" x2="493.2" y2="231"/>
      <line class="cls-3" x1="495.84" y1="216.36" x2="504.24" y2="167.16"/>
      <line class="cls-3" x1="506.64" y1="152.28" x2="507.12" y2="149.64"/>
      <line class="cls-3" x1="509.52" y1="135" x2="517.92" y2="85.8"/>
      <line class="cls-3" x1="520.32" y1="70.92" x2="520.8" y2="68.52"/>
      <g class="cls-4">
        <line class="cls-3" x1="523.44" y1="53.64" x2="531.84" y2="3"/>
      </g>
      <line class="cls-3" x1="392.64" y1="825" x2="397.68" y2="795.96"/>
      <line class="cls-3" x1="400.08" y1="781.08" x2="400.56" y2="778.44"/>
      <line class="cls-3" x1="402.96" y1="763.8" x2="411.36" y2="714.6"/>
      <line class="cls-3" x1="414" y1="699.72" x2="414.24" y2="697.32"/>
      <line class="cls-3" x1="416.88" y1="682.44" x2="425.28" y2="633.24"/>
      <line class="cls-3" x1="427.68" y1="618.6" x2="428.16" y2="615.96"/>
      <line class="cls-3" x1="430.56" y1="601.08" x2="438.96" y2="551.88"/>
      <line class="cls-3" x1="441.36" y1="537.24" x2="441.84" y2="534.6"/>
      <line class="cls-3" x1="444.48" y1="519.96" x2="452.64" y2="470.76"/>
      <line class="cls-3" x1="455.28" y1="455.88" x2="455.76" y2="453.24"/>
      <line class="cls-3" x1="458.16" y1="438.6" x2="466.56" y2="389.4"/>
      <line class="cls-3" x1="468.96" y1="374.52" x2="469.44" y2="372.12"/>
      <line class="cls-3" x1="471.84" y1="357.24" x2="480.24" y2="308.04"/>
      <line class="cls-3" x1="482.64" y1="293.4" x2="483.12" y2="290.76"/>
      <line class="cls-3" x1="485.76" y1="275.88" x2="493.92" y2="226.68"/>
      <line class="cls-3" x1="496.56" y1="212.04" x2="497.04" y2="209.4"/>
      <line class="cls-3" x1="499.44" y1="194.76" x2="507.84" y2="145.56"/>
      <line class="cls-3" x1="510.24" y1="130.68" x2="510.72" y2="128.04"/>
      <line class="cls-3" x1="513.12" y1="113.4" x2="521.52" y2="64.2"/>
      <line class="cls-3" x1="524.16" y1="49.32" x2="524.4" y2="46.68"/>
      <g class="cls-5">
        <line class="cls-3" x1="527.04" y1="32.04" x2="531.84" y2="3"/>
      </g>
      <line class="cls-3" x1="392.64" y1="825" x2="334.8" y2="814.44"/>
      <line class="cls-3" x1="320.16" y1="811.8" x2="317.52" y2="811.32"/>
      <line class="cls-3" x1="302.88" y1="808.68" x2="253.68" y2="799.56"/>
      <line class="cls-3" x1="239.04" y1="796.92" x2="236.4" y2="796.44"/>
      <line class="cls-3" x1="221.76" y1="793.8" x2="172.56" y2="784.92"/>
      <line class="cls-3" x1="157.92" y1="782.04" x2="155.28" y2="781.56"/>
      <line class="cls-3" x1="140.64" y1="778.92" x2="91.44" y2="770.04"/>
      <line class="cls-3" x1="76.8" y1="767.4" x2="74.16" y2="766.92"/>
      <g class="cls-6">
        <line class="cls-3" x1="59.52" y1="764.04" x2="1.68" y2="753.48"/>
      </g>
      <g class="cls-7">
        <line class="cls-8" x1="392.64" y1="825" x2="392.64" y2="3" style="stroke-dasharray: 30px; stroke-linecap: square;"/>
      </g>
      <g class="cls-9">
        <line class="cls-10" x1="392.64" y1="825" x2="522.96" y2="3"/>
      </g>
      <g class="cls-11">
        <line class="cls-10" x1="318.72" y1="813.24" x2="447.12" y2="3"/>
      </g>
      <g class="cls-12">
        <line class="cls-10" x1="449.28" y1="834.12" x2="1.68" y2="763.08"/>
      </g>
      <g class="cls-13">
        <line class="cls-10" x1="484.56" y1="612.36" x2="1.68" y2="535.8"/>
      </g>
      <polyline class="cls-10" points="388.8 591.72 387.84 583.56 385.2 575.88 380.64 569.16 374.64 563.64 367.68 559.56 360 557.16 351.84 556.68 343.92 558.12 336.48 561.48 330 566.28 324.72 572.52 321.12 579.72 319.2 587.64 319.2 595.56 321.12 603.48 324.72 610.68 330 616.92 336.48 621.96 343.92 625.08 351.84 626.52 360 626.04 367.68 623.64 374.64 619.56 380.64 614.04 385.2 607.32 387.84 599.64 388.8 591.72"/>
      <line class="cls-14" x1="481.44" y1="611.88" x2="446.16" y2="833.64"/>
      <line class="cls-15" x1="446.16" y1="833.64" x2="440.16" y2="825"/>
      <line class="cls-15" x1="446.16" y1="833.64" x2="452.4" y2="842.04"/>
      <line class="cls-14" x1="446.16" y1="833.64" x2="433.92" y2="831.48"/>
      <line class="cls-14" x1="446.16" y1="833.64" x2="470.88" y2="837.48"/>
      <line class="cls-15" x1="481.44" y1="611.88" x2="475.2" y2="603.24"/>
      <line class="cls-15" x1="481.44" y1="611.88" x2="487.68" y2="620.28"/>
      <line class="cls-14" x1="481.44" y1="611.88" x2="468.96" y2="609.96"/>
      <line class="cls-14" x1="481.44" y1="611.88" x2="505.92" y2="615.72"/>
      <polyline class="cls-16" points="433.92 734.04 438.72 702.84 463.92 706.92 458.88 737.88"/>
      <text class="cls-17" transform="translate(453.36 737.16) rotate(-80.9)" style="white-space: pre;">9</text>
      <text class="cls-17" transform="translate(454.56 729.24) rotate(-80.9)" style="white-space: pre;">0</text>
      <text class="cls-17" transform="translate(455.76 721.56) rotate(-80.9)" style="white-space: pre;">0</text>
      <text class="cls-17" transform="translate(456.96 713.88) rotate(-80.9)" style="white-space: pre;">0</text>
      <line class="cls-14" x1="413.52" y1="693" x2="339.6" y2="681.24"/>
      <line class="cls-15" x1="339.6" y1="681.24" x2="348.24" y2="675"/>
      <line class="cls-15" x1="339.6" y1="681.24" x2="331.2" y2="687.48"/>
      <line class="cls-14" x1="339.6" y1="681.24" x2="341.76" y2="669"/>
      <line class="cls-14" x1="339.6" y1="681.24" x2="335.76" y2="705.96"/>
      <line class="cls-15" x1="413.52" y1="693" x2="422.16" y2="686.76"/>
      <line class="cls-15" x1="413.52" y1="693" x2="405.12" y2="699.24"/>
      <line class="cls-14" x1="413.52" y1="693" x2="415.68" y2="680.52"/>
      <line class="cls-14" x1="413.52" y1="693" x2="409.68" y2="717.48"/>
      <polyline class="cls-16" points="365.28 657.24 396.24 662.04 392.16 687.24 361.2 682.2"/>
      <text class="cls-18" transform="matrix(0.99, 0.16, -0.16, 0.99, 362.16, 676.68)" style="white-space: pre;">3</text>
      <text class="cls-18" transform="matrix(0.99, 0.16, -0.16, 0.99, 370.08, 677.88)" style="white-space: pre;">0</text>
      <text class="cls-18" transform="matrix(0.99, 0.16, -0.16, 0.99, 377.76, 679.08)" style="white-space: pre;">0</text>
      <text class="cls-18" transform="matrix(0.99, 0.16, -0.16, 0.99, 385.44, 680.28)" style="white-space: pre;">0</text>
      <line class="cls-15" x1="392.64" y1="825" x2="401.52" y2="811.32"/>
      <line class="cls-15" x1="392.64" y1="825" x2="408.48" y2="821.64"/>
      <line class="cls-14" x1="457.68" y1="779.64" x2="563.76" y2="779.64"/>
      <line class="cls-14" x1="392.64" y1="825" x2="457.68" y2="779.64"/>
      <rect class="cls-16" x="471.84" y="711.72" width="16.56" height="19.68"/>
      <text class="cls-19" transform="translate(471.84 727.56)" style="white-space: pre;">E</text>
      <polyline class="cls-16" points="488.16 711.72 580.08 711.72 580.08 731.4 488.16 731.4"/>
      <text class="cls-19" transform="translate(488.16 727.56)" style="white-space: pre;"><tspan class="cls-20">3</tspan><tspan class="cls-21" x="9.83" y="0">37</tspan><tspan class="cls-20" x="29.04" y="0">0</tspan><tspan class="cls-21" x="38.87" y="0">66</tspan><tspan class="cls-22" x="58.08" y="0">.</tspan><tspan class="cls-21" x="62.88" y="0">41</tspan><tspan x="82.09" y="0">6</tspan></text>
      <rect class="cls-16" x="471.84" y="731.16" width="17.52" height="19.68"/>
      <text class="cls-19" transform="translate(471.84 747)" style="white-space: pre;">N</text>
      <rect class="cls-16" x="489.12" y="731.16" width="101.76" height="19.68"/>
      <text class="cls-19" transform="translate(489.12 747)" style="white-space: pre;"><tspan class="cls-20">6</tspan><tspan class="cls-21" x="9.83" y="0">2</tspan><tspan class="cls-20" x="19.44" y="0">4</tspan><tspan class="cls-23" x="29.27" y="0">54</tspan><tspan class="cls-20" x="48.47" y="0">0</tspan><tspan class="cls-21" x="58.31" y="0">9</tspan><tspan class="cls-24" x="67.91" y="0">.</tspan><tspan class="cls-20" x="72.49" y="0">5</tspan><tspan class="cls-23" x="82.32" y="0">2</tspan><tspan x="91.92" y="0">0</tspan></text>
      <rect class="cls-16" x="471.84" y="750.84" width="28.8" height="19.68"/>
      <text class="cls-19" transform="translate(471.84 766.68)" style="white-space: pre;"><tspan class="cls-21">0.000</tspan></text>
      <line class="cls-14" x1="422.16" y1="639.24" x2="422.16" y2="639.24"/>
      <path class="cls-14" d="M206.88,795.48A188,188,0,0,1,392.64,636.84,198.76,198.76,0,0,1,422.16,639"/>
      <path class="cls-14" d="M206.88,795.48A188,188,0,0,1,392.64,636.84,198.76,198.76,0,0,1,422.16,639"/>
      <line class="cls-15" x1="206.88" y1="795.72" x2="203.76" y2="779.64"/>
      <line class="cls-15" x1="206.88" y1="795.72" x2="216" y2="782.28"/>
      <line class="cls-14" x1="206.88" y1="795.72" x2="219.36" y2="797.64"/>
      <line class="cls-14" x1="206.88" y1="795.72" x2="189.6" y2="792.84"/>
      <line class="cls-15" x1="422.16" y1="639.24" x2="406.56" y2="643.8"/>
      <line class="cls-15" x1="422.16" y1="639.24" x2="408" y2="631.32"/>
      <line class="cls-14" x1="422.16" y1="639.24" x2="420.24" y2="651.72"/>
      <line class="cls-14" x1="422.16" y1="639.24" x2="424.8" y2="621.96"/>
      <polyline class="cls-16" points="248.64 663 282.96 638.04 297.84 658.68 263.52 683.4"/>
      <text class="cls-25" transform="translate(260.16 678.84) rotate(-35.9)" style="white-space: pre;">9</text>
      <text class="cls-25" transform="translate(266.88 674.28) rotate(-35.9)" style="white-space: pre;">0</text>
      <text class="cls-25" transform="translate(273.12 669.48) rotate(-35.9)" style="white-space: pre;">.</text>
      <text class="cls-25" transform="translate(276.24 667.32) rotate(-35.9)" style="white-space: pre;">0</text>
      <text class="cls-25" transform="translate(282.48 662.76) rotate(-35.9)" style="white-space: pre;">0</text>
      <text class="cls-25" transform="translate(288.96 658.2) rotate(-35.9)" style="white-space: pre;">°</text>
      <polyline class="cls-14" points="449.04 469.56 449.04 469.56 430.32 467.16 411.6 465.72 392.64 465.24"/>
      <polyline class="cls-14" points="449.04 469.56 430.32 467.16 411.6 465.72 392.64 465.24"/>
      <line class="cls-15" x1="392.64" y1="465.24" x2="407.76" y2="459.24"/>
      <line class="cls-15" x1="392.64" y1="465.24" x2="407.52" y2="471.72"/>
      <line class="cls-14" x1="392.64" y1="465.24" x2="392.64" y2="477.72"/>
      <line class="cls-14" x1="392.64" y1="465.24" x2="392.64" y2="447.72"/>
      <line class="cls-15" x1="449.04" y1="469.56" x2="433.44" y2="473.64"/>
      <line class="cls-15" x1="449.04" y1="469.56" x2="434.88" y2="461.4"/>
      <line class="cls-14" x1="449.04" y1="469.56" x2="447.12" y2="482.04"/>
      <line class="cls-14" x1="449.04" y1="469.56" x2="451.68" y2="452.28"/>
      <polyline class="cls-16" points="405.84 437.16 440.16 439.8 438.24 465 403.68 462.36"/>
      <text class="cls-26" transform="translate(404.4 456.84) rotate(4.4)" style="white-space: pre;">9</text>
      <text class="cls-26" transform="translate(412.56 457.32) rotate(4.4)" style="white-space: pre;">.</text>
      <text class="cls-26" transform="translate(416.4 457.8) rotate(4.4)" style="white-space: pre;">0</text>
      <text class="cls-26" transform="translate(424.08 458.28) rotate(4.4)" style="white-space: pre;">0</text>
      <text class="cls-26" transform="translate(431.76 459) rotate(4.4)" style="white-space: pre;">°</text>
      <text x="288.59" y="43.558" style="font-size: 24px; font-family: sans-serif; white-space: pre; fill: #333333;" transform="matrix(0, -1, 1, 0, 338.382675, 443.193756)">MGA NORTH</text>
    </g>
  </g>
</svg>