<svg xmlns="http://www.w3.org/2000/svg" viewBox="0 0 677.76 1127.76"><defs><style>.cls-1,.cls-2{fill:none;stroke:#4c4c4c;stroke-linecap:round;stroke-width:0.72px;}.cls-1{stroke-linejoin:round;}.cls-2{stroke-linejoin:bevel;}</style></defs><title>Key_map</title><g id="Layer_2" data-name="Layer 2"><g id="Layer_1-2" data-name="Layer 1"><polygon class="cls-1" points="6.6 1027.8 42.36 1027.8 42.36 1047.48 11.88 1047.48 11.88 1038.36 6.6 1038.36 6.6 1027.8"/><polygon class="cls-1" points="16.92 1109.88 16.92 1067.64 30.36 1067.64 30.36 1050.36 47.64 1050.36 47.64 1045.08 62.76 1045.08 62.52 1109.88 16.92 1109.88"/><polyline class="cls-1" points="151.08 987.24 151.08 980.52 143.16 980.52"/><polyline class="cls-1" points="13.32 897.48 13.56 928.92 3.24 928.92"/><polyline class="cls-1" points="3.48 964.2 3.72 998.76 48.84 998.52"/><line class="cls-1" x1="99.72" y1="1011.24" x2="99.72" y2="1057.8"/><polyline class="cls-1" points="93.48 1064.76 93.24 1093.32 88.44 1093.32"/><line class="cls-1" x1="29.64" y1="807.96" x2="34.44" y2="807.96"/><polyline class="cls-1" points="95.64 1119.96 107.16 1119.96 107.16 1115.4 126.36 1115.4"/><line class="cls-1" x1="212.28" y1="987.48" x2="151.08" y2="987.24"/><path class="cls-1" d="M290.76,757.32l-40.08.48-5.28-.24-89.28,1,.72,39.12c.37,35.44.26,70.89,1.2,106.32l.24,25.44,25.44-.24-.24-25.68-.24-5.28,34.32-.24,67.44-.72-1.2-102.72"/><polyline class="cls-1" points="141.96 766.2 142.2 798.36 138.12 798.36 138.36 824.52 138.36 827.4 138.6 859.08 29.88 859.56 29.64 807.96"/><polyline class="cls-1" points="34.44 807.96 34.2 766.68 141.96 766.2"/><polyline class="cls-1" points="570.84 783.24 571.08 811.56 609.48 811.08 610.44 866.76"/><line class="cls-1" x1="440.04" y1="1120.44" x2="449.4" y2="1120.44"/><polyline class="cls-1" points="558.36 749.88 558.84 751.56 554.76 752.76"/><line class="cls-1" x1="485.88" y1="1122.84" x2="493.32" y2="1122.84"/><line class="cls-1" x1="482.52" y1="1108.68" x2="493.32" y2="1108.68"/><polyline class="cls-1" points="500.28 1083.24 499.56 1111.8 502.68 1111.8"/><line class="cls-1" x1="499.56" y1="1101.24" x2="496.92" y2="1101.24"/><line class="cls-1" x1="451.08" y1="952.92" x2="450.84" y2="946.92"/><polyline class="cls-1" points="437.88 999.48 450.84 999.24 457.8 1005.72 458.04 1018.92"/><line class="cls-1" x1="532.44" y1="1115.88" x2="516.6" y2="1115.4"/><line class="cls-1" x1="493.32" y1="1110.12" x2="493.32" y2="1107"/><polyline class="cls-1" points="532.44 1115.88 532.68 1112.52 549.72 1112.76"/><polyline class="cls-1" points="475.08 1094.52 482.52 1094.52 482.52 1108.68"/><polyline class="cls-1" points="513.48 1019.64 529.56 1019.88 529.32 1025.16 539.88 1025.4 539.16 1074.6"/><polyline class="cls-1" points="496.44 891.48 572.04 890.76 571.8 867.24 610.2 866.76"/><line class="cls-1" x1="677.16" y1="1000.2" x2="619.8" y2="1000.44"/><line class="cls-1" x1="549.72" y1="1112.76" x2="550.44" y2="1084.2"/><polyline class="cls-1" points="536.76 1076.04 536.76 1074.36 539.16 1074.6"/><polyline class="cls-1" points="586.44 1094.04 601.32 1094.04 601.32 1083.72"/><line class="cls-1" x1="614.28" y1="1098.36" x2="664.2" y2="1098.12"/><polyline class="cls-1" points="450.84 946.2 450.6 939.96 445.32 940.2 445.08 923.64 404.04 924.12 404.04 921.72 378.36 921.96"/><polyline class="cls-1" points="344.76 892.92 472.2 891.24 472.2 876.84"/><line class="cls-1" x1="614.28" y1="1096.68" x2="614.04" y2="1075.8"/><polyline class="cls-1" points="620.04 1074.6 620.04 1058.04 619.8 1000.44"/><line class="cls-1" x1="601.32" y1="1083.72" x2="595.32" y2="1083.96"/><line class="cls-1" x1="592.44" y1="1089.24" x2="586.44" y2="1089.24"/><polyline class="cls-1" points="458.04 1018.92 438.36 1039.8 438.36 1043.64 433.8 1043.64 431.88 1041.96 427.56 1046.28"/><polyline class="cls-1" points="428.76 1049.4 428.76 1053.72 424.92 1053.72 405.24 1074.36"/><line class="cls-1" x1="450.36" y1="1094.28" x2="482.52" y2="1094.52"/><line class="cls-1" x1="449.4" y1="1100.04" x2="450.84" y2="1100.04"/><line class="cls-1" x1="500.28" y1="1083.24" x2="515.88" y2="1083.48"/><line class="cls-1" x1="512.04" y1="1073.16" x2="513.48" y2="1019.64"/><polyline class="cls-1" points="664.2 1098.12 664.2 1058.04 677.4 1057.8 677.16 1000.44"/><polyline class="cls-1" points="449.4 1120.44 450.36 1120.44 450.36 1121.4"/><polyline class="cls-1" points="452.04 1122.84 452.04 1121.4 451.56 1121.4"/><line class="cls-1" x1="440.04" y1="1120.44" x2="440.04" y2="1117.8"/><polyline class="cls-1" points="443.16 1094.28 440.04 1094.28 440.04 1096.92"/><polyline class="cls-1" points="493.32 1107 493.32 1101.24 496.92 1101.24"/><line class="cls-1" x1="499.8" y1="1101.24" x2="499.56" y2="1101.24"/><polyline class="cls-1" points="502.68 1111.8 516.6 1112.04 516.6 1115.4"/><polyline class="cls-1" points="550.44 1084.2 536.52 1083.96 536.76 1076.04"/><line class="cls-1" x1="586.44" y1="1094.04" x2="586.44" y2="1089.24"/><polyline class="cls-1" points="592.44 1089.24 595.32 1089.24 595.32 1083.96"/><line class="cls-1" x1="443.16" y1="1094.28" x2="450.36" y2="1094.28"/><polyline class="cls-1" points="428.76 1049.4 426.6 1047.24 427.56 1046.28"/><line class="cls-1" x1="448.68" y1="953.16" x2="451.08" y2="952.92"/><line class="cls-1" x1="450.84" y1="946.92" x2="450.84" y2="946.2"/><polyline class="cls-1" points="614.04 1075.8 620.04 1075.8 620.04 1074.6"/><line class="cls-1" x1="614.28" y1="1098.36" x2="614.28" y2="1096.68"/><line class="cls-1" x1="450.36" y1="1121.4" x2="451.56" y2="1121.4"/><line class="cls-1" x1="452.04" y1="1122.84" x2="485.88" y2="1122.84"/><line class="cls-1" x1="493.32" y1="1122.84" x2="493.32" y2="1110.12"/><line class="cls-1" x1="440.04" y1="1117.8" x2="440.04" y2="1096.92"/><line class="cls-1" x1="449.4" y1="1120.44" x2="449.4" y2="1100.04"/><line class="cls-1" x1="450.84" y1="1100.04" x2="450.84" y2="1094.28"/><polyline class="cls-1" points="274.44 1010.76 261 1120.2 191.64 1101.72 191.64 1095.96 167.16 1100.04 136.68 1117.32"/><polyline class="cls-1" points="95.64 1119.96 93.24 1119.96 93.24 1107.24 88.44 1107.24 88.44 1093.32"/><polyline class="cls-1" points="507.48 803.16 507.72 827.88 495.72 828.12 496.2 854.28 523.56 854.04 523.56 866.76 496.2 867 496.44 891.48"/><polyline class="cls-1" points="472.2 876.84 471.48 823.08 472.2 823.08 471.96 816.6 471.48 816.6 470.76 755.16 343.32 756.6"/><polyline class="cls-1" points="516.84 719.64 501.72 723.72 506.28 740.52"/><polyline class="cls-1" points="344.76 892.92 343.08 756.6 343.32 756.6"/><polyline class="cls-1" points="550.92 724.68 573 718.92 574.44 724.2 582.36 722.04"/><line class="cls-1" x1="497.4" y1="800.28" x2="491.88" y2="779.64"/><polyline class="cls-1" points="340.44 1077.72 350.28 1077.72 350.52 1083.96 360.12 1083.72 360.12 1077.48 369.72 1077.48 369.48 1064.52"/><polyline class="cls-1" points="340.44 1077.72 340.44 1065 348.36 1064.76 348.36 1061.16 361.32 1060.92 361.32 1064.76 369.48 1064.52"/><polyline class="cls-1" points="349.8 1048.68 348.84 999 350.52 999 349.32 925.32 378.6 924.84 378.36 921.96"/><polyline class="cls-1" points="405.24 1074.36 384.84 1054.68 397.8 1041 382.68 1026.36 389.16 1019.64 382.68 1013.4"/><polyline class="cls-1" points="349.8 1048.68 378.6 1048.2 377.88 998.52"/><line class="cls-1" x1="121.32" y1="897" x2="13.32" y2="897.48"/><polyline class="cls-1" points="48.84 998.52 48.84 1011.24 99.72 1011.24"/><polyline class="cls-1" points="99.72 1057.8 93.72 1057.8 93.72 1054.68 89.16 1054.92 89.16 1029.72 74.28 1029.72"/><polyline class="cls-1" points="93.72 1064.76 89.16 1064.76 89.16 1090.92 74.04 1090.92 74.28 1029.72"/><polyline class="cls-1" points="126.36 1115.4 126.36 1101.96 136.2 1101.96 136.2 1117.8 136.68 1117.32"/><polyline class="cls-1" points="121.32 897 121.32 913.8 142.92 913.8 143.16 980.52"/><polyline class="cls-1" points="226.2 1051.56 232.68 1052.52 231.72 1059"/><line class="cls-1" x1="126.12" y1="1064.52" x2="126.12" y2="1051.8"/><polyline class="cls-1" points="375.48 963.24 363 963.48 360.6 955.08"/><line class="cls-1" x1="382.68" y1="1013.4" x2="382.44" y2="1001.88"/><polyline class="cls-1" points="570.84 783.24 538.2 783.72 538.44 813.24 533.64 813.24 533.4 802.92 507.48 803.16"/><polyline class="cls-1" points="582.36 722.04 585.72 735.24 556.44 743.16 558.84 751.56 530.28 759.24 533.88 772.44 513.72 777.72"/><polyline class="cls-1" points="513.24 776.28 518.28 794.52 497.4 800.28"/><line class="cls-1" x1="592.2" y1="1127.4" x2="592.2" y2="1120.2"/><polyline class="cls-1" points="587.64 1121.16 573 1121.16 572.76 1115.16"/><polyline class="cls-1" points="576.12 1112.28 572.76 1112.28 572.76 1106.04"/><polyline class="cls-1" points="574.92 1102.44 572.76 1102.44 572.76 1096.44"/><line class="cls-1" x1="598.2" y1="1119.96" x2="598.44" y2="1127.4"/><line class="cls-1" x1="587.88" y1="1112.04" x2="587.88" y2="1106.04"/><polyline class="cls-1" points="587.88 1102.44 587.88 1096.44 572.76 1096.44"/><line class="cls-1" x1="587.88" y1="1102.44" x2="574.92" y2="1102.44"/><line class="cls-1" x1="587.88" y1="1106.04" x2="572.76" y2="1106.04"/><line class="cls-1" x1="576.12" y1="1112.28" x2="587.88" y2="1112.04"/><polyline class="cls-1" points="572.76 1115.16 587.64 1115.16 587.64 1121.16"/><line class="cls-1" x1="592.2" y1="1120.2" x2="598.2" y2="1119.96"/><line class="cls-1" x1="592.2" y1="1127.4" x2="598.44" y2="1127.4"/><polyline class="cls-1" points="515.88 1083.48 516.12 1073.4 512.04 1073.16"/><polyline class="cls-1" points="290.76 757.32 291 794.52 283.8 794.52"/><polyline class="cls-1" points="274.44 1010.76 230.28 1018.44 226.2 1051.56"/><polyline class="cls-1" points="231.72 1059 158.04 1058.76 158.04 1064.76 126.12 1064.52"/><polyline class="cls-1" points="437.88 999.48 419.64 1018.2 404.76 1003.8 404.52 994.44 390.12 994.68 385.32 998.76 382.44 1001.88"/><polyline class="cls-1" points="386.04 987.48 386.04 972.36 378.36 972.6"/><polyline class="cls-1" points="377.88 998.52 375.96 998.52 375.48 963.24"/><line class="cls-1" x1="360.6" y1="955.08" x2="451.08" y2="953.16"/><polyline class="cls-1" points="126.12 1051.8 212.28 1052.04 212.28 987.48"/><polyline class="cls-1" points="378.36 972.6 378.6 987.48 386.04 987.48"/><line class="cls-1" x1="3.24" y1="928.92" x2="3.48" y2="964.2"/><line class="cls-1" x1="513.72" y1="777.72" x2="507.48" y2="757.56"/><line class="cls-1" x1="491.88" y1="779.64" x2="512.52" y2="773.4"/><line class="cls-1" x1="528.36" y1="752.04" x2="507.48" y2="757.56"/><line class="cls-1" x1="524.04" y1="735.24" x2="530.28" y2="759.24"/><polyline class="cls-1" points="542.52 735 541.32 730.68 524.04 735.24"/><line class="cls-1" x1="542.52" y1="735" x2="548.28" y2="733.56"/><line class="cls-1" x1="93.72" y1="1057.8" x2="93.72" y2="1064.76"/><polyline class="cls-1" points="516.84 719.64 521.4 736.44 506.28 740.52"/><line class="cls-1" x1="548.28" y1="733.56" x2="546.12" y2="725.88"/><polyline class="cls-1" points="564.36 374.28 579.48 374.04 579.48 381.48 587.16 381.48 587.16 388.92 594.6 388.92 594.84 396.36 602.28 396.36 602.52 403.8 625.08 403.56"/><polyline class="cls-1" points="345.96 319.08 346.92 390.84 367.56 390.6 366.84 345"/><polyline class="cls-1" points="332.76 333.96 332.52 319.32 222.6 320.52"/><polygon class="cls-1" points="574.44 509.64 574.2 503.64 578.52 499.32 584.52 499.32 588.84 503.4 588.84 509.4 584.76 513.72 578.76 513.96 574.44 509.64"/><polyline class="cls-1" points="478.44 373.8 479.16 416.28 501.24 415.8"/><polyline class="cls-1" points="523.8 581.16 553.56 550.2 547.8 544.44 569.88 521.88 565.08 517.32 564.6 487.56 580.92 470.76 580.68 459.48 586.92 459.48 587.16 473.16 596.04 472.68"/><polyline class="cls-1" points="601.32 427.8 601.56 435.24 609 435 609.24 442.68 625.56 442.44 625.08 403.56"/><polyline class="cls-1" points="640.68 561.96 605.4 562.44 605.16 551.88 618.12 551.64 617.64 510.84 600.84 511.32"/><polyline class="cls-1" points="600.6 501.24 617.4 501 616.92 460.44 603.96 460.44 603.72 448.68 639.24 448.2 640.68 561.96"/><polyline class="cls-1" points="501.96 683.16 519.72 682.92 519.72 692.28 607.8 691.8 607.56 677.64 666.6 677.16 666.36 653.16 641.88 653.4 641.4 612.12 609.96 612.36 610.44 667.32 528.12 668.04"/><polyline class="cls-1" points="548.28 599.16 548.28 606.12 548.04 579.96 567.24 579.96 566.76 537.48 592.92 537.24 593.16 579.72 657.72 579.24 657.72 586.68 668.04 586.44 668.28 605.4 548.28 606.12"/><polyline class="cls-1" points="442.68 420.36 447.96 420.36 457.08 416.52"/><line class="cls-1" x1="516.84" y1="719.64" x2="501.72" y2="723.72"/><polyline class="cls-1" points="546.36 405.96 546.36 414.36 535.32 414.36 535.32 421.32 527.64 421.32 527.88 428.76 520.44 429 520.44 436.44 513 436.68 513 444.12 508.68 444.12 509.16 472.68 513.48 472.68 513.72 480.12 534.6 479.88 534.36 464.76 549.24 464.52 549.24 457.08 556.68 456.84 556.68 449.4 564.12 449.4 564.12 441.72 580.44 441.72 580.68 453.96 586.92 453.96"/><polyline class="cls-1" points="546.36 405.96 578.52 405.48 578.76 413.16 586.2 412.92 586.92 453.96"/><polyline class="cls-1" points="596.04 472.68 595.8 453.72 595.56 453.72 595.32 427.8 601.32 427.8"/><line class="cls-1" x1="134.04" y1="600.36" x2="134.76" y2="651.48"/><polyline class="cls-1" points="129.96 725.4 129.72 693.72 132.12 693.72 128.04 673.56 113.88 676.68 113.4 651.96 134.76 651.48"/><polyline class="cls-1" points="348.12 599.88 348.6 632.76 413.4 631.8 412.92 587.64 459.24 587.16"/><line class="cls-1" x1="343.08" y1="756.6" x2="343.32" y2="756.6"/><polyline class="cls-1" points="484.2 445.08 483.96 433.32 494.28 433.08 494.04 420.36 503.64 420.12"/><polyline class="cls-1" points="484.2 445.08 489.24 445.08 489.72 477 494.76 477 496.44 581.64 523.8 581.16"/><polyline class="cls-1" points="501.96 683.16 501.48 594.12 527.64 593.88 528.12 668.04"/><polyline class="cls-1" points="450.12 389.16 435.24 389.4 435.48 396.84 346.92 398.04 347.16 416.04 363 415.8 363 403.08 426.36 402.12 426.6 409.8 442.44 409.56 442.68 420.36"/><line class="cls-1" x1="457.56" y1="459" x2="457.08" y2="416.52"/><polyline class="cls-1" points="446.28 534.36 446.04 484.92 394.68 485.4 394.44 459.72 457.56 459"/><polyline class="cls-1" points="446.28 534.36 458.52 534.6 459.24 587.16"/><polyline class="cls-1" points="546.12 725.88 573 718.92 574.44 724.2 582.36 722.04"/><line class="cls-1" x1="20.28" y1="499.56" x2="19.8" y2="461.88"/><polyline class="cls-1" points="19.8 462.36 22.2 652.92 100.44 651.96 100.44 660.12 69.24 668.28 70.2 671.4 22.44 672.12 23.16 726.12 129.96 725.4"/><polyline class="cls-1" points="19.8 462.36 156.36 460.68 156.12 420.12 111.72 420.6 155.88 375.96"/><line class="cls-1" x1="634.68" y1="8.28" x2="634.92" y2="23.16"/><polyline class="cls-1" points="591.96 113.88 618.12 113.4 621 276.6 636.36 276.36"/><polyline class="cls-1" points="225.96 15.48 226.44 49.32 419.64 46.92 419.88 68.28 441.48 68.04 440.76 10.2"/><line class="cls-1" x1="482.04" y1="77.4" x2="481.8" y2="61.8"/><polyline class="cls-1" points="225.96 15.48 167.16 15.48 167.64 44.28 156.6 44.52 144.6 44.52 144.84 64.2 167.88 63.72 168.84 136.44"/><polyline class="cls-1" points="636.36 276.36 636.84 309.96 486.12 311.88 485.4 278.28 594.84 277.08"/><polyline class="cls-1" points="591.96 113.88 592.2 119.64 497.88 120.84"/><line class="cls-1" x1="563.16" y1="104.76" x2="497.4" y2="105.72"/><polyline class="cls-1" points="497.88 120.84 498.36 147 592.44 145.56 594.84 277.08"/><polyline class="cls-1" points="630.6 37.56 630.36 23.4 634.92 23.16"/><polygon class="cls-1" points="474.36 154.92 499.56 154.44 501 238.44 494.28 245.88 475.8 246.12 474.36 154.92"/><polyline class="cls-1" points="478.44 373.8 506.28 373.08 506.76 387 500.76 387 501.24 415.8"/><polyline class="cls-1" points="503.64 420.12 503.64 412.68 511.08 412.68 510.84 405.24 518.52 405 518.52 397.56 548.52 397.08 548.04 369.48 564.36 369.24 564.36 374.28 579.48 374.04 579.48 381.48 587.16 381.48 587.16 388.92 594.6 388.92 594.84 396.36 602.28 396.36 602.52 403.8 625.08 403.56 625.08 415.32"/><polyline class="cls-1" points="456.12 170.52 456.36 188.76 434.28 189 434.52 213 419.4 213.24 419.88 253.08 449.64 252.6"/><polyline class="cls-1" points="456.12 170.52 441 170.76 440.52 145.08 387 145.8 387 133.8 418.68 133.32 417.96 77.4 443.4 76.92 444.12 133.08 482.76 132.36"/><line class="cls-1" x1="440.76" y1="10.2" x2="483.24" y2="9.72"/><line class="cls-1" x1="481.8" y1="62.04" x2="496.92" y2="61.8"/><line class="cls-1" x1="483.24" y1="9.72" x2="483.96" y2="62.04"/><line class="cls-1" x1="496.2" y1="1.32" x2="496.92" y2="61.8"/><line class="cls-1" x1="561.72" y1="0.36" x2="563.16" y2="104.76"/><line class="cls-1" x1="497.16" y1="77.16" x2="497.4" y2="105.72"/><polyline class="cls-1" points="449.64 252.6 450.6 317.88 450.36 305.16"/><line class="cls-1" x1="450.6" y1="317.88" x2="345.96" y2="319.08"/><polyline class="cls-1" points="366.84 345 449.16 344.04 450.12 389.16"/><line class="cls-1" x1="496.2" y1="1.32" x2="561.72" y2="0.36"/><line class="cls-1" x1="155.88" y1="375.96" x2="333.48" y2="373.8"/><line class="cls-1" x1="269.4" y1="163.56" x2="269.16" y2="144.36"/><line class="cls-1" x1="252.6" y1="135.48" x2="252.6" y2="135.24"/><polyline class="cls-1" points="333.48 373.8 332.52 319.32 221.64 320.76"/><line class="cls-1" x1="482.76" y1="132.36" x2="482.04" y2="77.4"/><polygon class="cls-1" points="340.2 149.16 339.96 134.28 381.48 133.8 381.72 148.92 340.2 149.16"/><polygon class="cls-1" points="307.32 134.76 330.84 134.52 331.56 171.24 307.8 171.48 307.32 134.76"/><line class="cls-1" x1="482.04" y1="77.4" x2="497.16" y2="77.16"/><polyline class="cls-1" points="269.4 173.16 269.16 135.24 168.84 136.44"/><line class="cls-1" x1="252.6" y1="135.48" x2="252.6" y2="135.24"/><line class="cls-1" x1="168.84" y1="136.44" x2="168.6" y2="111.48"/><line class="cls-1" x1="219.96" y1="173.16" x2="221.64" y2="320.76"/><line class="cls-1" x1="597.96" y1="8.76" x2="634.68" y2="8.28"/><polyline class="cls-1" points="630.6 37.56 598.44 38.04 597.96 8.76"/><line class="cls-1" x1="457.08" y1="416.52" x2="457.32" y2="416.52"/><line class="cls-1" x1="600.6" y1="501.24" x2="600.84" y2="511.32"/><path class="cls-2" d="M347.64,599.88l-7-6.48-7.44-6A150.81,150.81,0,0,0,255,556.68l-9.6-.72H236l-9.6.72-9.36,1.2-9.36,1.68L198.6,562l-8.88,3.12-8.88,3.36-8.64,4.08L164,577.08l-8.16,5.28-7.68,5.52-7.2,6-7,6.48"/><line class="cls-1" x1="219.96" y1="173.16" x2="269.4" y2="173.16"/><path class="cls-1" d="M154,108.6l.48-.24Z"/><polyline class="cls-2" points="146.04 87 147 92.76 148.68 98.28 151.08 103.56 153.96 108.36"/><polyline class="cls-1" points="145.8 87 146.52 86.76 136.68 61.08 136.92 16.44 128.76 16.44"/><line class="cls-2" x1="129" y1="16.68" x2="120.84" y2="18.36"/><polyline class="cls-1" points="120.6 18.36 119.64 15.96 117.96 16.44 119.16 19.8"/><polyline class="cls-2" points="119.4 19.8 114.84 22.2 110.76 25.56 107.16 29.4"/><polyline class="cls-1" points="106.92 29.4 98.04 25.08 92.28 37.08 102.6 38.28 101.64 41.16 100.92 41.16"/><line class="cls-2" x1="101.16" y1="41.16" x2="100.44" y2="47.88"/><polyline class="cls-1" points="100.2 47.88 93.24 47.88 93.24 47.16 92.04 47.16 92.04 47.88 75.72 47.88 75.72 46.92 74.52 46.92 74.52 47.88 58.2 47.64 58.2 46.92 57 46.92 57 47.64 40.68 47.64 40.68 46.92 39.48 46.92 39.48 47.64 28.2 47.64 28.2 46.92 27 46.68 27 47.64 9.72 47.4 9.72 73.56 3 73.56 3 87.48 9.72 87.48 9.72 92.28 9.48 101.16 10.2 103.32 11.16 104.28 12.36 105 14.52 105.24 15.96 104.76 17.4 103.32 18.12 102.36 18.12 100.2 18.36 93.24 26.76 93.24 26.76 94.44 27 94.44 27 107.16 26.52 107.16 26.52 109.32 27.72 109.32 27.72 108.6 39.24 108.6 39.24 109.32 40.44 109.32 40.44 108.6 56.28 108.84 81 108.84 81.24 112.92 85.8 112.92 86.04 108.84 91.8 108.84 91.8 109.8 93 109.8 93 108.84 99.96 108.84 99.96 109.32 100.44 109.32 100.44 118.44 99.48 118.44 99.48 120.6 71.16 120.6 69 145.56 75.72 145.56 75.72 153.48 19.8 153.24 2.52 153.24 2.28 201.96 12.12 201.96 12.12 206.76 11.88 215.4 18.84 215.4 77.88 215.64 77.64 224.76 67.8 224.76 69.72 247.08 90.36 247.08 90.84 255.48 1.56 256.2 1.56 255 0.36 255 0.36 277.56 8.76 277.56 8.76 282.12 2.28 282.12 2.04 296.04 8.76 296.04 8.52 301.32 8.52 309.96"/><polyline class="cls-2" points="8.76 309.96 9.48 311.4 10.68 312.6 12.36 313.32"/><polyline class="cls-2" points="12.36 313.56 14.04 313.56 15.48 312.84 16.68 311.4 17.4 309.72"/><polyline class="cls-1" points="17.4 309.72 17.4 301.8 25.56 301.8 25.56 303 26.04 303 26.04 315.72 25.56 315.72 25.56 317.88 27 317.88 27 317.16 38.28 317.16 38.28 317.88 39.48 317.88 39.48 317.16 55.8 317.16 55.8 318.12 57 318.12 57 317.16 73.32 317.4 73.32 318.12 74.52 318.12 74.52 317.4 90.84 317.4 90.84 319.56 89.64 319.56 89.64 326.76 89.4 326.76 89.16 329.16 90.6 329.16 90.6 341.88 89.16 341.88 89.16 342.36 1.56 341.88 1.32 364.68 3.72 364.68 3.72 369.48 1.32 369.48 1.08 425.16 8.76 425.16 8.76 420.6 17.64 420.6 17.64 424.68 18.12 424.68 18.12 420.6 23.16 420.6 23.16 423.48 22.68 423.48 22.44 425.16 47.16 425.16 82.68 425.4 82.92 371.16 119.64 371.16 119.64 352.92 100.44 352.92 100.44 343.08 101.4 343.08 101.64 341.64 100.44 341.64 100.44 329.16 101.64 329.16 101.64 327.96 99.72 327.96 99.72 327.24 106.44 327.24 106.44 331.56 109.8 331.56 109.8 343.32 117 343.32 117 346.2 135.48 346.2 135.48 345.72 132.84 345.72 132.84 342.84 135.48 342.84 135.48 342.36 123.72 342.12 123.72 339.24 140.04 339.24 140.04 339.72 141.24 339.72 141.24 338.04 140.76 338.04 140.76 326.04 141.24 326.04 141.24 324.36 140.76 324.36 141 312.6 141.24 312.6 141.24 310.92 138.84 310.92 138.84 306.84 141 306.84 141 301.56 141.48 301.56 141.48 299.88 141 299.88 141 297 141.48 297 141.48 294.84 141 294.84 141 283.32 141.48 283.32 141.48 281.4 141 281.4 141.24 266.52 141.48 266.52 141.48 264.84 139.32 264.84 139.32 257.88 141.72 257.88 141.72 256.2 141.24 256.2 141.24 250.2 141.72 250.2 141.72 248.76 140.52 248.76 140.52 249 123.72 249 123.72 232.2 131.88 232.2 131.88 214.44 142.68 214.44 142.68 215.16 154.2 215.16 155.4 218.28"/><polyline class="cls-2" points="155.4 218.04 160.68 219.72 166.2 220.68 171.72 220.92 177.24 220.2 182.52 219 187.8 216.84 192.36 213.96"/><polyline class="cls-1" points="192.36 214.2 170.52 156.36 166.92 146.76 153 152.04 142.44 155.88 141.24 153 144.84 151.56 140.52 140.76 140.76 138.36 163.8 138.36 165.48 137.64 163.56 132.12 160.44 133.32 159.24 130.2 162.36 129 154.44 108.36 153.96 108.6"/></g></g></svg>