<svg xmlns="http://www.w3.org/2000/svg" viewBox="0 0 182.81 207.44"><defs><style>.cls-1{fill:none;stroke:#000;stroke-linecap:round;stroke-linejoin:round;stroke-width:0.48px;}</style></defs><title>KeyPlan</title><g id="Layer_2" data-name="Layer 2"><g id="Layer_1-2" data-name="Layer 1"><line class="cls-1" x1="0.24" y1="85.36" x2="0.24" y2="70.23"/><line class="cls-1" x1="29.62" y1="85.36" x2="0.24" y2="85.36"/><line class="cls-1" x1="29.62" y1="106.1" x2="29.62" y2="85.36"/><line class="cls-1" x1="0.24" y1="106.1" x2="29.62" y2="106.1"/><line class="cls-1" x1="0.24" y1="121.65" x2="0.24" y2="106.1"/><line class="cls-1" x1="39.99" y1="121.65" x2="0.24" y2="121.65"/><line class="cls-1" x1="39.99" y1="70.23" x2="39.99" y2="121.65"/><line class="cls-1" x1="0.24" y1="70.23" x2="39.99" y2="70.23"/><line class="cls-1" x1="87.95" y1="24" x2="86.65" y2="20.12"/><line class="cls-1" x1="88.38" y1="25.3" x2="88.38" y2="24.44"/><line class="cls-1" x1="84.06" y1="25.73" x2="88.38" y2="25.73"/><line class="cls-1" x1="84.93" y1="27.89" x2="84.06" y2="26.16"/><line class="cls-1" x1="86.22" y1="27.89" x2="84.49" y2="28.76"/><line class="cls-1" x1="88.81" y1="27.03" x2="86.22" y2="27.89"/><line class="cls-1" x1="89.68" y1="28.76" x2="88.81" y2="27.03"/><line class="cls-1" x1="93.57" y1="39.56" x2="89.68" y2="28.76"/><line class="cls-1" x1="84.49" y1="39.56" x2="86.65" y2="39.56"/><line class="cls-1" x1="82.33" y1="39.56" x2="83.63" y2="39.56"/><line class="cls-1" x1="82.33" y1="43.01" x2="82.33" y2="39.56"/><line class="cls-1" x1="81.04" y1="43.01" x2="82.33" y2="43.01"/><line class="cls-1" x1="81.04" y1="46.04" x2="81.04" y2="43.01"/><line class="cls-1" x1="84.06" y1="46.04" x2="81.04" y2="46.04"/><line class="cls-1" x1="84.06" y1="47.34" x2="84.06" y2="46.04"/><line class="cls-1" x1="83.63" y1="48.63" x2="83.63" y2="47.34"/><line class="cls-1" x1="84.06" y1="51.66" x2="84.06" y2="49.06"/><line class="cls-1" x1="84.06" y1="54.25" x2="84.06" y2="52.09"/><line class="cls-1" x1="84.06" y1="56.41" x2="84.06" y2="55.54"/><line class="cls-1" x1="84.06" y1="59.87" x2="84.06" y2="57.71"/><line class="cls-1" x1="84.06" y1="62.03" x2="84.06" y2="59.87"/><line class="cls-1" x1="81.04" y1="62.46" x2="84.06" y2="62.46"/><line class="cls-1" x1="83.2" y1="62.89" x2="81.04" y2="62.89"/><line class="cls-1" x1="79.74" y1="63.75" x2="83.2" y2="63.75"/><line class="cls-1" x1="78.44" y1="61.16" x2="78.44" y2="63.32"/><line class="cls-1" x1="76.28" y1="60.3" x2="77.58" y2="60.3"/><line class="cls-1" x1="76.72" y1="62.89" x2="76.72" y2="60.73"/><line class="cls-1" x1="76.72" y1="65.05" x2="76.72" y2="63.32"/><line class="cls-1" x1="80.17" y1="65.05" x2="76.72" y2="65.05"/><line class="cls-1" x1="80.17" y1="68.51" x2="80.17" y2="65.05"/><line class="cls-1" x1="73.26" y1="68.51" x2="80.17" y2="68.51"/><line class="cls-1" x1="73.26" y1="78.44" x2="73.26" y2="68.51"/><line class="cls-1" x1="66.78" y1="78.44" x2="73.26" y2="78.44"/><line class="cls-1" x1="62.46" y1="78.44" x2="66.78" y2="78.44"/><line class="cls-1" x1="61.59" y1="77.58" x2="62.46" y2="77.58"/><line class="cls-1" x1="59.87" y1="77.58" x2="61.59" y2="77.58"/><line class="cls-1" x1="59.87" y1="78.01" x2="59.87" y2="77.58"/><line class="cls-1" x1="58.57" y1="78.01" x2="59.87" y2="78.01"/><line class="cls-1" x1="58.57" y1="68.07" x2="58.57" y2="78.01"/><line class="cls-1" x1="59" y1="67.21" x2="59" y2="68.07"/><line class="cls-1" x1="58.57" y1="62.89" x2="58.57" y2="67.21"/><line class="cls-1" x1="74.56" y1="62.89" x2="58.57" y2="62.89"/><line class="cls-1" x1="74.99" y1="60.73" x2="74.99" y2="62.89"/><line class="cls-1" x1="74.56" y1="59" x2="74.56" y2="60.3"/><line class="cls-1" x1="71.96" y1="58.57" x2="74.99" y2="58.57"/><line class="cls-1" x1="68.51" y1="58.57" x2="71.53" y2="58.57"/><line class="cls-1" x1="65.48" y1="58.57" x2="68.51" y2="58.57"/><line class="cls-1" x1="63.32" y1="58.57" x2="65.05" y2="58.57"/><line class="cls-1" x1="62.89" y1="55.98" x2="62.89" y2="58.14"/><line class="cls-1" x1="61.59" y1="55.54" x2="62.89" y2="55.54"/><line class="cls-1" x1="61.16" y1="56.84" x2="61.59" y2="55.54"/><line class="cls-1" x1="59.87" y1="54.68" x2="59.87" y2="55.54"/><line class="cls-1" x1="58.57" y1="54.68" x2="59.87" y2="54.68"/><line class="cls-1" x1="58.57" y1="52.09" x2="58.57" y2="54.68"/><line class="cls-1" x1="59.87" y1="52.09" x2="58.57" y2="52.09"/><line class="cls-1" x1="58.14" y1="51.22" x2="59.87" y2="51.22"/><line class="cls-1" x1="58.14" y1="46.9" x2="58.14" y2="51.22"/><line class="cls-1" x1="74.99" y1="46.9" x2="58.57" y2="47.34"/><line class="cls-1" x1="74.56" y1="45.61" x2="74.99" y2="46.9"/><line class="cls-1" x1="71.1" y1="45.61" x2="74.56" y2="45.61"/><line class="cls-1" x1="70.67" y1="41.29" x2="71.1" y2="45.61"/><line class="cls-1" x1="72.4" y1="41.29" x2="70.67" y2="41.29"/><line class="cls-1" x1="72.4" y1="39.56" x2="72.4" y2="41.29"/><line class="cls-1" x1="61.59" y1="39.56" x2="72.4" y2="39.56"/><line class="cls-1" x1="60.3" y1="39.56" x2="61.59" y2="39.56"/><line class="cls-1" x1="60.3" y1="38.26" x2="60.3" y2="39.56"/><line class="cls-1" x1="60.3" y1="37.4" x2="60.3" y2="38.26"/><line class="cls-1" x1="58.57" y1="37.4" x2="60.3" y2="37.4"/><line class="cls-1" x1="58.57" y1="28.32" x2="58.57" y2="37.4"/><line class="cls-1" x1="61.59" y1="28.32" x2="58.57" y2="28.32"/><line class="cls-1" x1="71.96" y1="28.32" x2="61.59" y2="28.32"/><line class="cls-1" x1="71.96" y1="27.03" x2="71.96" y2="28.32"/><line class="cls-1" x1="70.67" y1="27.03" x2="71.96" y2="27.03"/><line class="cls-1" x1="71.1" y1="22.28" x2="70.67" y2="27.03"/><line class="cls-1" x1="76.28" y1="22.28" x2="71.1" y2="22.28"/><line class="cls-1" x1="76.72" y1="20.12" x2="76.72" y2="21.84"/><line class="cls-1" x1="75.42" y1="20.12" x2="76.72" y2="20.12"/><line class="cls-1" x1="74.12" y1="20.12" x2="74.99" y2="20.12"/><line class="cls-1" x1="73.26" y1="20.98" x2="74.12" y2="20.98"/><line class="cls-1" x1="69.37" y1="20.12" x2="73.26" y2="20.12"/><line class="cls-1" x1="68.51" y1="20.12" x2="69.37" y2="20.12"/><line class="cls-1" x1="65.48" y1="20.12" x2="68.51" y2="20.12"/><line class="cls-1" x1="63.32" y1="20.12" x2="65.48" y2="20.12"/><line class="cls-1" x1="63.32" y1="17.52" x2="63.32" y2="19.68"/><line class="cls-1" x1="61.59" y1="17.09" x2="62.89" y2="17.09"/><line class="cls-1" x1="61.59" y1="18.39" x2="61.59" y2="17.09"/><line class="cls-1" x1="59.87" y1="17.09" x2="59.87" y2="18.82"/><line class="cls-1" x1="59.87" y1="16.23" x2="59.87" y2="17.09"/><line class="cls-1" x1="58.57" y1="16.23" x2="59.87" y2="16.23"/><line class="cls-1" x1="58.57" y1="13.63" x2="58.57" y2="16.23"/><line class="cls-1" x1="59.87" y1="13.63" x2="58.57" y2="13.63"/><line class="cls-1" x1="59.87" y1="8.88" x2="59.87" y2="13.63"/><line class="cls-1" x1="63.32" y1="8.88" x2="59.87" y2="8.88"/><line class="cls-1" x1="65.48" y1="8.88" x2="63.32" y2="8.88"/><line class="cls-1" x1="68.51" y1="8.88" x2="65.48" y2="8.88"/><line class="cls-1" x1="71.96" y1="8.88" x2="68.94" y2="8.88"/><line class="cls-1" x1="74.99" y1="8.88" x2="71.96" y2="8.88"/><line class="cls-1" x1="76.72" y1="8.88" x2="75.42" y2="8.88"/><line class="cls-1" x1="74.99" y1="7.15" x2="77.15" y2="7.15"/><line class="cls-1" x1="76.28" y1="4.99" x2="74.99" y2="7.15"/><line class="cls-1" x1="78.01" y1="5.42" x2="76.28" y2="4.99"/><line class="cls-1" x1="83.2" y1="3.26" x2="81.9" y2="3.26"/><line class="cls-1" x1="83.2" y1="11.47" x2="83.2" y2="3.26"/><line class="cls-1" x1="84.93" y1="16.23" x2="83.2" y2="11.47"/><line class="cls-1" x1="89.25" y1="25.3" x2="89.25" y2="20.55"/><line class="cls-1" x1="107.39" y1="24.87" x2="89.25" y2="25.3"/><line class="cls-1" x1="107.82" y1="31.78" x2="107.39" y2="24.87"/><line class="cls-1" x1="98.75" y1="31.78" x2="107.82" y2="31.78"/><line class="cls-1" x1="98.75" y1="59" x2="98.75" y2="31.78"/><line class="cls-1" x1="119.06" y1="59" x2="98.75" y2="59"/><line class="cls-1" x1="119.49" y1="68.94" x2="119.06" y2="59"/><line class="cls-1" x1="86.65" y1="69.37" x2="119.49" y2="68.94"/><line class="cls-1" x1="78.88" y1="77.58" x2="86.65" y2="69.37"/><line class="cls-1" x1="86.65" y1="77.15" x2="78.88" y2="77.58"/><line class="cls-1" x1="87.09" y1="84.93" x2="86.65" y2="77.15"/><line class="cls-1" x1="61.59" y1="84.93" x2="87.09" y2="84.93"/><line class="cls-1" x1="62.03" y1="119.92" x2="61.59" y2="84.93"/><line class="cls-1" x1="76.72" y1="119.92" x2="62.03" y2="119.92"/><line class="cls-1" x1="76.72" y1="121.22" x2="76.72" y2="119.92"/><line class="cls-1" x1="71.1" y1="122.95" x2="76.72" y2="121.22"/><line class="cls-1" x1="62.46" y1="123.38" x2="71.1" y2="123.38"/><line class="cls-1" x1="62.46" y1="133.32" x2="62.46" y2="123.38"/><line class="cls-1" x1="81.9" y1="133.32" x2="62.46" y2="133.32"/><line class="cls-1" x1="81.9" y1="127.7" x2="81.9" y2="133.32"/><line class="cls-1" x1="81.9" y1="123.81" x2="82.33" y2="127.7"/><line class="cls-1" x1="78.88" y1="124.24" x2="81.9" y2="123.81"/><line class="cls-1" x1="78.88" y1="119.92" x2="78.88" y2="124.24"/><line class="cls-1" x1="82.76" y1="119.92" x2="78.88" y2="119.92"/><line class="cls-1" x1="82.76" y1="110.42" x2="82.76" y2="119.92"/><line class="cls-1" x1="114.74" y1="31.78" x2="114.74" y2="24.87"/><line class="cls-1" x1="119.06" y1="31.78" x2="114.74" y2="31.78"/><line class="cls-1" x1="119.06" y1="24.87" x2="119.06" y2="31.78"/><line class="cls-1" x1="114.74" y1="24.87" x2="119.06" y2="24.87"/><line class="cls-1" x1="128.13" y1="27.46" x2="120.79" y2="27.46"/><line class="cls-1" x1="128.13" y1="24.87" x2="128.13" y2="27.46"/><line class="cls-1" x1="120.79" y1="24.87" x2="128.13" y2="24.87"/><line class="cls-1" x1="120.79" y1="27.46" x2="120.79" y2="24.87"/><line class="cls-1" x1="107.82" y1="30.05" x2="107.82" y2="26.6"/><line class="cls-1" x1="141.09" y1="58.57" x2="141.09" y2="56.41"/><line class="cls-1" x1="140.66" y1="46.47" x2="141.09" y2="58.57"/><line class="cls-1" x1="135.04" y1="46.47" x2="140.66" y2="46.47"/><line class="cls-1" x1="135.04" y1="39.13" x2="135.04" y2="46.47"/><line class="cls-1" x1="138.07" y1="39.13" x2="135.04" y2="39.13"/><line class="cls-1" x1="138.07" y1="34.81" x2="138.07" y2="39.13"/><line class="cls-1" x1="141.96" y1="34.81" x2="138.07" y2="34.81"/><line class="cls-1" x1="141.96" y1="31.35" x2="141.96" y2="34.81"/><line class="cls-1" x1="139.37" y1="31.35" x2="141.96" y2="31.35"/><line class="cls-1" x1="138.93" y1="26.6" x2="139.37" y2="31.35"/><line class="cls-1" x1="129.43" y1="27.03" x2="138.93" y2="26.6"/><line class="cls-1" x1="129.43" y1="24.87" x2="129.43" y2="27.03"/><line class="cls-1" x1="135.04" y1="24.87" x2="129.43" y2="24.87"/><line class="cls-1" x1="135.04" y1="14.5" x2="135.04" y2="24.87"/><line class="cls-1" x1="139.8" y1="14.5" x2="135.04" y2="14.5"/><line class="cls-1" x1="139.8" y1="24.44" x2="139.8" y2="14.5"/><line class="cls-1" x1="146.71" y1="24.44" x2="139.8" y2="24.44"/><line class="cls-1" x1="146.71" y1="14.5" x2="146.71" y2="24.44"/><line class="cls-1" x1="149.3" y1="14.5" x2="146.71" y2="14.5"/><line class="cls-1" x1="149.3" y1="19.68" x2="149.3" y2="14.5"/><line class="cls-1" x1="161.4" y1="19.25" x2="149.3" y2="19.68"/><line class="cls-1" x1="161.4" y1="0.24" x2="161.4" y2="19.25"/><line class="cls-1" x1="149.3" y1="0.24" x2="161.4" y2="0.24"/><line class="cls-1" x1="149.3" y1="11.47" x2="149.3" y2="0.24"/><line class="cls-1" x1="146.71" y1="11.47" x2="149.3" y2="11.47"/><line class="cls-1" x1="173.07" y1="74.12" x2="173.07" y2="76.28"/><line class="cls-1" x1="168.75" y1="74.12" x2="173.07" y2="74.12"/><line class="cls-1" x1="168.75" y1="72.83" x2="168.75" y2="74.12"/><line class="cls-1" x1="167.45" y1="72.83" x2="168.75" y2="72.83"/><line class="cls-1" x1="167.45" y1="71.53" x2="167.45" y2="72.83"/><line class="cls-1" x1="166.15" y1="71.53" x2="167.45" y2="71.53"/><line class="cls-1" x1="166.15" y1="70.23" x2="166.15" y2="71.53"/><line class="cls-1" x1="164.43" y1="70.23" x2="166.15" y2="70.23"/><line class="cls-1" x1="164.43" y1="68.94" x2="164.43" y2="70.23"/><line class="cls-1" x1="161.83" y1="68.94" x2="164.43" y2="68.94"/><line class="cls-1" x1="161.83" y1="68.07" x2="161.83" y2="68.94"/><line class="cls-1" x1="158.81" y1="68.07" x2="161.83" y2="68.07"/><line class="cls-1" x1="158.81" y1="73.26" x2="158.81" y2="68.07"/><line class="cls-1" x1="153.19" y1="73.26" x2="158.81" y2="73.26"/><line class="cls-1" x1="153.19" y1="74.56" x2="153.19" y2="73.26"/><line class="cls-1" x1="151.9" y1="74.56" x2="153.19" y2="74.56"/><line class="cls-1" x1="151.9" y1="75.85" x2="151.9" y2="74.56"/><line class="cls-1" x1="150.6" y1="75.85" x2="151.9" y2="75.85"/><line class="cls-1" x1="150.6" y1="77.15" x2="150.6" y2="75.85"/><line class="cls-1" x1="145.41" y1="45.17" x2="145.41" y2="28.76"/><line class="cls-1" x1="148.87" y1="45.17" x2="145.41" y2="45.17"/><line class="cls-1" x1="150.17" y1="43.88" x2="148.87" y2="45.17"/><line class="cls-1" x1="149.74" y1="28.32" x2="150.17" y2="43.88"/><line class="cls-1" x1="145.41" y1="28.76" x2="149.74" y2="28.32"/><line class="cls-1" x1="173.93" y1="4.56" x2="174.8" y2="4.56"/><line class="cls-1" x1="173.93" y1="7.15" x2="173.93" y2="4.56"/><line class="cls-1" x1="167.88" y1="7.15" x2="173.93" y2="7.15"/><line class="cls-1" x1="167.88" y1="1.97" x2="167.88" y2="7.15"/><line class="cls-1" x1="174.8" y1="1.54" x2="167.88" y2="1.97"/><line class="cls-1" x1="174.79" y1="4.56" x2="174.79" y2="1.54"/><line class="cls-1" x1="146.71" y1="14.5" x2="146.71" y2="11.47"/><line class="cls-1" x1="146.71" y1="1.97" x2="147.14" y2="11.47"/><line class="cls-1" x1="138.93" y1="1.97" x2="146.71" y2="1.97"/><line class="cls-1" x1="139.37" y1="12.77" x2="138.93" y2="1.97"/><line class="cls-1" x1="135.48" y1="12.77" x2="139.37" y2="12.77"/><line class="cls-1" x1="135.04" y1="8.88" x2="135.48" y2="12.77"/><line class="cls-1" x1="99.62" y1="9.31" x2="135.04" y2="8.88"/><line class="cls-1" x1="99.62" y1="2.83" x2="99.62" y2="9.31"/><line class="cls-1" x1="88.81" y1="2.83" x2="99.62" y2="2.83"/><line class="cls-1" x1="88.81" y1="8.45" x2="88.81" y2="2.83"/><line class="cls-1" x1="87.09" y1="8.45" x2="88.81" y2="8.45"/><line class="cls-1" x1="84.93" y1="8.45" x2="87.09" y2="8.45"/><line class="cls-1" x1="84.93" y1="11.91" x2="84.93" y2="8.45"/><line class="cls-1" x1="88.81" y1="11.91" x2="84.93" y2="11.91"/><line class="cls-1" x1="89.25" y1="25.3" x2="88.81" y2="11.91"/><line class="cls-1" x1="147.14" y1="51.22" x2="167.45" y2="51.22"/><line class="cls-1" x1="147.57" y1="57.27" x2="147.14" y2="51.22"/><line class="cls-1" x1="175.23" y1="57.27" x2="147.57" y2="57.27"/><line class="cls-1" x1="175.23" y1="50.79" x2="175.23" y2="57.27"/><line class="cls-1" x1="172.2" y1="50.79" x2="175.23" y2="50.79"/><line class="cls-1" x1="171.77" y1="20.98" x2="172.2" y2="50.79"/><line class="cls-1" x1="167.02" y1="20.98" x2="171.77" y2="20.98"/><line class="cls-1" x1="167.02" y1="22.28" x2="167.02" y2="20.98"/><line class="cls-1" x1="149.74" y1="22.28" x2="167.02" y2="22.28"/><line class="cls-1" x1="149.74" y1="27.03" x2="149.74" y2="22.28"/><line class="cls-1" x1="167.02" y1="27.03" x2="149.74" y2="27.03"/><line class="cls-1" x1="167.45" y1="51.22" x2="167.02" y2="27.03"/><line class="cls-1" x1="62.03" y1="91.84" x2="61.59" y2="84.93"/><line class="cls-1" x1="142.39" y1="84.49" x2="141.96" y2="76.72"/><line class="cls-1" x1="130.72" y1="84.49" x2="142.39" y2="84.49"/><line class="cls-1" x1="130.72" y1="89.25" x2="130.72" y2="84.49"/><line class="cls-1" x1="140.23" y1="89.25" x2="130.72" y2="89.25"/><line class="cls-1" x1="140.23" y1="98.32" x2="140.23" y2="89.25"/><line class="cls-1" x1="142.39" y1="98.32" x2="140.23" y2="98.32"/><line class="cls-1" x1="142.39" y1="107.82" x2="142.39" y2="98.32"/><line class="cls-1" x1="134.18" y1="108.26" x2="142.39" y2="107.82"/><line class="cls-1" x1="134.18" y1="116.03" x2="134.18" y2="108.26"/><line class="cls-1" x1="122.08" y1="116.47" x2="134.18" y2="116.03"/><line class="cls-1" x1="122.08" y1="110.42" x2="122.08" y2="116.47"/><line class="cls-1" x1="140.23" y1="77.15" x2="141.96" y2="76.72"/><line class="cls-1" x1="139.37" y1="77.15" x2="140.23" y2="77.15"/><line class="cls-1" x1="139.37" y1="75.42" x2="139.37" y2="77.15"/><line class="cls-1" x1="136.34" y1="75.42" x2="139.37" y2="75.42"/><line class="cls-1" x1="136.34" y1="74.12" x2="136.34" y2="75.42"/><line class="cls-1" x1="124.68" y1="74.12" x2="136.34" y2="74.12"/><line class="cls-1" x1="124.68" y1="76.72" x2="124.68" y2="74.12"/><line class="cls-1" x1="122.08" y1="76.72" x2="124.68" y2="76.72"/><line class="cls-1" x1="122.08" y1="73.26" x2="122.08" y2="76.72"/><line class="cls-1" x1="138.07" y1="72.83" x2="122.08" y2="73.26"/><line class="cls-1" x1="138.07" y1="71.53" x2="138.07" y2="72.83"/><line class="cls-1" x1="140.66" y1="71.53" x2="138.07" y2="71.53"/><line class="cls-1" x1="148.87" y1="77.58" x2="150.6" y2="77.15"/><line class="cls-1" x1="148.87" y1="79.74" x2="148.87" y2="77.58"/><line class="cls-1" x1="147.14" y1="79.74" x2="148.87" y2="79.74"/><line class="cls-1" x1="147.14" y1="81.9" x2="147.14" y2="79.74"/><line class="cls-1" x1="148.01" y1="81.9" x2="147.14" y2="81.9"/><line class="cls-1" x1="148.01" y1="87.95" x2="148.01" y2="81.9"/><line class="cls-1" x1="148.87" y1="87.95" x2="148.01" y2="87.95"/><line class="cls-1" x1="149.3" y1="106.96" x2="148.87" y2="87.95"/><line class="cls-1" x1="154.49" y1="106.96" x2="149.3" y2="106.96"/><line class="cls-1" x1="159.67" y1="101.34" x2="154.49" y2="106.96"/><line class="cls-1" x1="158.81" y1="100.05" x2="159.67" y2="101.34"/><line class="cls-1" x1="162.7" y1="96.16" x2="158.81" y2="100.05"/><line class="cls-1" x1="161.83" y1="95.29" x2="162.7" y2="96.16"/><line class="cls-1" x1="161.83" y1="89.68" x2="161.83" y2="95.29"/><line class="cls-1" x1="164.86" y1="86.65" x2="161.83" y2="89.68"/><line class="cls-1" x1="164.86" y1="84.49" x2="164.86" y2="86.65"/><line class="cls-1" x1="166.15" y1="84.49" x2="164.86" y2="84.49"/><line class="cls-1" x1="166.15" y1="87.09" x2="166.15" y2="84.49"/><line class="cls-1" x1="167.45" y1="87.09" x2="166.15" y2="87.09"/><line class="cls-1" x1="167.45" y1="83.63" x2="167.45" y2="87.09"/><line class="cls-1" x1="167.45" y1="78.88" x2="167.45" y2="83.63"/><line class="cls-1" x1="168.75" y1="78.88" x2="167.45" y2="78.88"/><line class="cls-1" x1="168.75" y1="80.17" x2="168.75" y2="78.88"/><line class="cls-1" x1="170.04" y1="80.17" x2="168.75" y2="80.17"/><line class="cls-1" x1="170.04" y1="81.47" x2="170.04" y2="80.17"/><line class="cls-1" x1="173.07" y1="81.47" x2="170.04" y2="81.47"/><line class="cls-1" x1="173.07" y1="74.12" x2="173.07" y2="81.47"/><line class="cls-1" x1="168.75" y1="74.12" x2="173.07" y2="74.12"/><line class="cls-1" x1="168.75" y1="72.83" x2="168.75" y2="74.12"/><line class="cls-1" x1="167.45" y1="72.83" x2="168.75" y2="72.83"/><line class="cls-1" x1="167.45" y1="71.53" x2="167.45" y2="72.83"/><line class="cls-1" x1="166.15" y1="71.53" x2="167.45" y2="71.53"/><line class="cls-1" x1="166.15" y1="70.23" x2="166.15" y2="71.53"/><line class="cls-1" x1="164.43" y1="70.23" x2="166.15" y2="70.23"/><line class="cls-1" x1="164.43" y1="68.94" x2="164.43" y2="70.23"/><line class="cls-1" x1="161.83" y1="68.94" x2="164.43" y2="68.94"/><line class="cls-1" x1="164.86" y1="83.63" x2="166.15" y2="83.63"/><line class="cls-1" x1="164.86" y1="81.47" x2="164.86" y2="83.63"/><line class="cls-1" x1="161.83" y1="81.47" x2="164.86" y2="81.47"/><line class="cls-1" x1="161.83" y1="82.76" x2="161.83" y2="81.47"/><line class="cls-1" x1="160.54" y1="82.76" x2="161.83" y2="82.76"/><line class="cls-1" x1="160.54" y1="84.06" x2="160.54" y2="82.76"/><line class="cls-1" x1="159.24" y1="84.06" x2="160.54" y2="84.06"/><line class="cls-1" x1="159.24" y1="85.36" x2="159.24" y2="84.06"/><line class="cls-1" x1="156.22" y1="85.36" x2="159.24" y2="85.36"/><line class="cls-1" x1="156.22" y1="88.38" x2="156.22" y2="85.36"/><line class="cls-1" x1="152.33" y1="88.38" x2="156.22" y2="88.38"/><line class="cls-1" x1="152.33" y1="87.09" x2="152.33" y2="88.38"/><line class="cls-1" x1="151.46" y1="81.9" x2="151.9" y2="87.09"/><line class="cls-1" x1="152.33" y1="80.17" x2="152.33" y2="81.9"/><line class="cls-1" x1="153.62" y1="80.17" x2="152.33" y2="80.17"/><line class="cls-1" x1="153.62" y1="78.88" x2="153.62" y2="80.17"/><line class="cls-1" x1="154.92" y1="78.88" x2="153.62" y2="78.88"/><line class="cls-1" x1="154.92" y1="77.58" x2="154.92" y2="78.88"/><line class="cls-1" x1="156.65" y1="77.58" x2="154.92" y2="77.58"/><line class="cls-1" x1="156.65" y1="76.28" x2="156.65" y2="77.58"/><line class="cls-1" x1="158.38" y1="76.28" x2="156.65" y2="76.28"/><line class="cls-1" x1="158.38" y1="74.56" x2="158.38" y2="76.28"/><line class="cls-1" x1="164.43" y1="74.56" x2="158.38" y2="74.56"/><line class="cls-1" x1="164.43" y1="75.85" x2="164.43" y2="74.56"/><line class="cls-1" x1="165.72" y1="75.85" x2="164.43" y2="75.85"/><line class="cls-1" x1="166.15" y1="83.63" x2="165.72" y2="75.85"/><line class="cls-1" x1="153.19" y1="132.45" x2="150.17" y2="132.88"/><line class="cls-1" x1="180.84" y1="111.28" x2="158.81" y2="111.28"/><line class="cls-1" x1="180.84" y1="107.82" x2="180.84" y2="111.28"/><line class="cls-1" x1="179.12" y1="107.82" x2="180.84" y2="107.82"/><line class="cls-1" x1="179.12" y1="106.53" x2="179.12" y2="107.82"/><line class="cls-1" x1="167.02" y1="106.53" x2="179.12" y2="106.53"/><line class="cls-1" x1="167.02" y1="98.75" x2="167.02" y2="106.53"/><line class="cls-1" x1="162.26" y1="98.75" x2="167.02" y2="98.75"/><line class="cls-1" x1="162.26" y1="106.53" x2="162.26" y2="98.75"/><line class="cls-1" x1="158.81" y1="106.53" x2="162.26" y2="106.53"/><line class="cls-1" x1="158.81" y1="111.28" x2="158.81" y2="106.53"/><line class="cls-1" x1="158.81" y1="111.28" x2="158.81" y2="109.99"/><line class="cls-1" x1="170.47" y1="122.51" x2="155.35" y2="122.95"/><line class="cls-1" x1="170.04" y1="112.58" x2="170.47" y2="122.52"/><line class="cls-1" x1="176.09" y1="112.58" x2="170.04" y2="112.58"/><line class="cls-1" x1="176.09" y1="120.35" x2="176.09" y2="112.58"/><line class="cls-1" x1="180.41" y1="119.92" x2="176.09" y2="120.35"/><line class="cls-1" x1="180.41" y1="124.68" x2="180.41" y2="119.92"/><line class="cls-1" x1="169.61" y1="124.68" x2="180.41" y2="124.68"/><line class="cls-1" x1="169.61" y1="127.27" x2="169.61" y2="124.68"/><line class="cls-1" x1="153.62" y1="127.27" x2="169.61" y2="127.27"/><line class="cls-1" x1="153.62" y1="125.54" x2="153.62" y2="127.27"/><line class="cls-1" x1="150.17" y1="125.54" x2="153.62" y2="125.54"/><line class="cls-1" x1="150.17" y1="109.12" x2="150.17" y2="125.54"/><line class="cls-1" x1="154.92" y1="109.12" x2="150.17" y2="109.12"/><line class="cls-1" x1="155.35" y1="122.95" x2="154.92" y2="109.12"/><line class="cls-1" x1="171.77" y1="94" x2="168.31" y2="94"/><line class="cls-1" x1="171.77" y1="101.34" x2="171.77" y2="94"/><line class="cls-1" x1="169.18" y1="101.34" x2="171.77" y2="101.34"/><line class="cls-1" x1="169.18" y1="103.5" x2="169.18" y2="101.34"/><line class="cls-1" x1="175.66" y1="103.5" x2="169.18" y2="103.5"/><line class="cls-1" x1="175.66" y1="82.33" x2="175.66" y2="103.5"/><line class="cls-1" x1="169.18" y1="82.76" x2="175.66" y2="82.33"/><line class="cls-1" x1="169.18" y1="84.93" x2="169.18" y2="82.76"/><line class="cls-1" x1="171.34" y1="84.49" x2="169.18" y2="84.93"/><line class="cls-1" x1="171.77" y1="92.27" x2="171.34" y2="84.49"/><line class="cls-1" x1="168.31" y1="92.27" x2="171.77" y2="92.27"/><line class="cls-1" x1="168.31" y1="94" x2="168.31" y2="92.27"/><line class="cls-1" x1="146.28" y1="76.72" x2="150.17" y2="76.72"/><line class="cls-1" x1="145.85" y1="68.94" x2="146.28" y2="76.72"/><line class="cls-1" x1="151.03" y1="68.51" x2="145.85" y2="68.94"/><line class="cls-1" x1="151.03" y1="71.1" x2="151.03" y2="68.51"/><line class="cls-1" x1="150.17" y1="71.1" x2="151.03" y2="71.1"/><line class="cls-1" x1="150.17" y1="76.72" x2="150.17" y2="71.1"/><line class="cls-1" x1="164.43" y1="94.43" x2="163.56" y2="93.57"/><line class="cls-1" x1="165.72" y1="94.43" x2="164.43" y2="94.43"/><line class="cls-1" x1="166.15" y1="93.57" x2="165.72" y2="94.43"/><line class="cls-1" x1="166.15" y1="92.7" x2="166.15" y2="93.57"/><line class="cls-1" x1="165.29" y1="91.84" x2="166.15" y2="92.7"/><line class="cls-1" x1="164.43" y1="91.84" x2="165.29" y2="91.84"/><line class="cls-1" x1="163.56" y1="92.7" x2="164.42" y2="91.84"/><line class="cls-1" x1="163.56" y1="93.57" x2="163.56" y2="92.7"/><line class="cls-1" x1="119.06" y1="59" x2="99.18" y2="59"/><line class="cls-1" x1="119.06" y1="61.59" x2="119.06" y2="59"/><line class="cls-1" x1="140.66" y1="63.32" x2="140.66" y2="71.53"/><line class="cls-1" x1="125.54" y1="63.32" x2="140.66" y2="63.32"/><line class="cls-1" x1="125.54" y1="71.96" x2="125.54" y2="63.32"/><line class="cls-1" x1="122.08" y1="71.96" x2="125.54" y2="71.96"/><line class="cls-1" x1="121.65" y1="58.57" x2="122.08" y2="71.96"/><line class="cls-1" x1="141.09" y1="58.57" x2="121.65" y2="58.57"/><line class="cls-1" x1="163.56" y1="133.32" x2="165.29" y2="132.88"/><line class="cls-1" x1="163.56" y1="132.02" x2="163.56" y2="133.32"/><line class="cls-1" x1="158.38" y1="133.32" x2="163.56" y2="132.02"/><line class="cls-1" x1="158.81" y1="135.04" x2="158.38" y2="133.32"/><line class="cls-1" x1="157.94" y1="135.04" x2="158.81" y2="135.04"/><line class="cls-1" x1="157.51" y1="134.18" x2="157.94" y2="135.04"/><line class="cls-1" x1="154.49" y1="135.04" x2="155.35" y2="139.37"/><line class="cls-1" x1="157.51" y1="134.18" x2="154.49" y2="135.04"/><line class="cls-1" x1="127.7" y1="178.68" x2="127.7" y2="181.71"/><line class="cls-1" x1="129" y1="178.68" x2="127.7" y2="178.68"/><line class="cls-1" x1="129" y1="181.28" x2="129" y2="178.68"/><line class="cls-1" x1="127.7" y1="181.71" x2="129" y2="181.28"/><line class="cls-1" x1="166.15" y1="201.58" x2="163.13" y2="201.58"/><line class="cls-1" x1="166.15" y1="202.45" x2="166.15" y2="201.58"/><line class="cls-1" x1="163.56" y1="202.45" x2="166.15" y2="202.45"/><line class="cls-1" x1="163.13" y1="201.58" x2="163.56" y2="202.45"/><line class="cls-1" x1="166.15" y1="203.31" x2="163.56" y2="203.31"/><line class="cls-1" x1="166.15" y1="204.18" x2="166.15" y2="203.31"/><line class="cls-1" x1="163.99" y1="204.18" x2="166.15" y2="204.18"/><line class="cls-1" x1="163.56" y1="203.31" x2="163.56" y2="204.18"/><line class="cls-1" x1="167.02" y1="205.9" x2="167.88" y2="205.9"/><line class="cls-1" x1="167.02" y1="207.2" x2="167.02" y2="205.9"/><line class="cls-1" x1="167.88" y1="207.2" x2="167.02" y2="207.2"/><line class="cls-1" x1="167.88" y1="205.9" x2="167.88" y2="207.2"/><line class="cls-1" x1="166.15" y1="205.04" x2="166.15" y2="205.9"/><line class="cls-1" x1="163.56" y1="205.04" x2="166.15" y2="205.04"/><line class="cls-1" x1="163.56" y1="205.9" x2="163.56" y2="205.04"/><line class="cls-1" x1="166.15" y1="205.9" x2="163.56" y2="205.9"/><line class="cls-1" x1="148.44" y1="143.25" x2="152.33" y2="142.39"/><line class="cls-1" x1="149.3" y1="147.14" x2="148.44" y2="143.25"/><line class="cls-1" x1="153.19" y1="146.28" x2="149.3" y2="147.14"/><line class="cls-1" x1="152.33" y1="142.82" x2="153.19" y2="146.28"/><line class="cls-1" x1="124.24" y1="175.66" x2="141.09" y2="175.23"/><line class="cls-1" x1="124.68" y1="176.96" x2="124.24" y2="175.66"/><line class="cls-1" x1="127.27" y1="176.96" x2="124.68" y2="176.96"/><line class="cls-1" x1="127.27" y1="183.44" x2="127.27" y2="176.96"/><line class="cls-1" x1="127.7" y1="192.51" x2="127.7" y2="183.44"/><line class="cls-1" x1="122.51" y1="192.51" x2="127.7" y2="192.51"/><line class="cls-1" x1="122.08" y1="183.44" x2="122.51" y2="192.51"/><line class="cls-1" x1="122.51" y1="170.04" x2="122.51" y2="183.44"/><line class="cls-1" x1="127.7" y1="170.04" x2="122.51" y2="170.04"/><line class="cls-1" x1="75.42" y1="195.53" x2="75.42" y2="194.24"/><line class="cls-1" x1="74.56" y1="200.29" x2="74.56" y2="195.53"/><line class="cls-1" x1="71.96" y1="200.29" x2="74.56" y2="200.29"/><line class="cls-1" x1="71.96" y1="189.05" x2="71.96" y2="200.29"/><line class="cls-1" x1="74.56" y1="189.05" x2="71.96" y2="189.05"/><line class="cls-1" x1="74.56" y1="193.81" x2="74.56" y2="189.05"/><line class="cls-1" x1="75.42" y1="193.81" x2="74.56" y2="193.81"/><line class="cls-1" x1="76.28" y1="194.24" x2="75.42" y2="194.24"/><line class="cls-1" x1="76.28" y1="186.03" x2="76.28" y2="194.24"/><line class="cls-1" x1="67.21" y1="186.03" x2="76.28" y2="186.03"/><line class="cls-1" x1="67.21" y1="183.44" x2="67.21" y2="186.03"/><line class="cls-1" x1="59" y1="183.44" x2="67.21" y2="183.44"/><line class="cls-1" x1="59" y1="177.39" x2="59" y2="183.44"/><line class="cls-1" x1="59" y1="170.91" x2="59" y2="177.39"/><line class="cls-1" x1="60.73" y1="170.91" x2="59" y2="170.91"/><line class="cls-1" x1="60.73" y1="164.86" x2="60.73" y2="170.91"/><line class="cls-1" x1="80.6" y1="164.86" x2="60.73" y2="164.86"/><line class="cls-1" x1="80.6" y1="167.88" x2="80.6" y2="164.86"/><line class="cls-1" x1="84.49" y1="167.88" x2="80.6" y2="167.88"/><line class="cls-1" x1="84.49" y1="180.41" x2="84.49" y2="167.88"/><line class="cls-1" x1="85.79" y1="180.41" x2="84.49" y2="180.41"/><line class="cls-1" x1="85.79" y1="181.28" x2="85.79" y2="180.41"/><line class="cls-1" x1="97.02" y1="181.28" x2="85.79" y2="181.28"/><line class="cls-1" x1="97.02" y1="193.37" x2="97.02" y2="181.28"/><line class="cls-1" x1="81.47" y1="193.37" x2="97.02" y2="193.37"/><line class="cls-1" x1="81.47" y1="195.53" x2="81.47" y2="193.37"/><line class="cls-1" x1="87.09" y1="195.53" x2="81.47" y2="195.53"/><line class="cls-1" x1="87.09" y1="194.67" x2="87.09" y2="195.53"/><line class="cls-1" x1="100.91" y1="194.67" x2="87.09" y2="194.67"/><line class="cls-1" x1="100.91" y1="193.37" x2="100.91" y2="194.67"/><line class="cls-1" x1="99.62" y1="193.37" x2="100.91" y2="193.37"/><line class="cls-1" x1="100.48" y1="187.33" x2="99.62" y2="193.37"/><line class="cls-1" x1="108.69" y1="185.6" x2="100.48" y2="187.33"/><line class="cls-1" x1="106.1" y1="205.9" x2="108.69" y2="185.6"/><line class="cls-1" x1="93.57" y1="202.45" x2="106.1" y2="205.9"/><line class="cls-1" x1="93.57" y1="201.58" x2="93.57" y2="202.45"/><line class="cls-1" x1="88.81" y1="202.02" x2="93.57" y2="201.58"/><line class="cls-1" x1="83.2" y1="205.47" x2="88.81" y2="202.02"/><line class="cls-1" x1="125.97" y1="198.13" x2="125.97" y2="195.53"/><line class="cls-1" x1="124.24" y1="198.13" x2="125.97" y2="198.13"/><line class="cls-1" x1="124.24" y1="198.99" x2="124.24" y2="198.13"/><line class="cls-1" x1="122.51" y1="198.99" x2="124.24" y2="198.99"/><line class="cls-1" x1="122.51" y1="198.13" x2="122.51" y2="198.99"/><line class="cls-1" x1="120.79" y1="198.13" x2="122.51" y2="198.13"/><line class="cls-1" x1="120.79" y1="195.53" x2="120.79" y2="198.13"/><line class="cls-1" x1="122.08" y1="195.53" x2="120.79" y2="195.53"/><line class="cls-1" x1="124.68" y1="195.1" x2="122.08" y2="195.1"/><line class="cls-1" x1="125.97" y1="195.53" x2="124.68" y2="195.53"/><line class="cls-1" x1="151.46" y1="139.37" x2="155.35" y2="138.07"/><line class="cls-1" x1="152.33" y1="142.82" x2="151.46" y2="139.37"/><line class="cls-1" x1="156.22" y1="141.96" x2="152.33" y2="142.82"/><line class="cls-1" x1="155.35" y1="139.37" x2="156.22" y2="141.96"/><line class="cls-1" x1="160.97" y1="138.07" x2="155.35" y2="139.37"/><line class="cls-1" x1="160.54" y1="136.77" x2="160.97" y2="138.07"/><line class="cls-1" x1="165.72" y1="135.05" x2="160.54" y2="136.77"/><line class="cls-1" x1="165.29" y1="132.88" x2="165.72" y2="135.05"/><line class="cls-1" x1="163.56" y1="133.32" x2="165.29" y2="132.88"/><line class="cls-1" x1="163.56" y1="132.02" x2="163.56" y2="133.32"/><line class="cls-1" x1="159.24" y1="133.32" x2="163.56" y2="132.02"/><line class="cls-1" x1="150.17" y1="132.88" x2="151.03" y2="136.34"/><line class="cls-1" x1="153.19" y1="132.45" x2="150.17" y2="132.88"/><line class="cls-1" x1="154.06" y1="135.48" x2="153.19" y2="132.45"/><line class="cls-1" x1="151.03" y1="136.34" x2="154.06" y2="135.48"/><line class="cls-1" x1="163.13" y1="159.24" x2="170.04" y2="159.24"/><line class="cls-1" x1="163.13" y1="163.56" x2="163.13" y2="159.24"/><line class="cls-1" x1="149.3" y1="163.99" x2="163.13" y2="163.56"/><line class="cls-1" x1="149.3" y1="159.24" x2="149.3" y2="163.99"/><line class="cls-1" x1="154.49" y1="159.24" x2="149.3" y2="159.24"/><line class="cls-1" x1="154.49" y1="157.08" x2="154.49" y2="159.24"/><line class="cls-1" x1="149.3" y1="157.08" x2="154.49" y2="157.08"/><line class="cls-1" x1="149.3" y1="152.33" x2="149.3" y2="157.08"/><line class="cls-1" x1="151.46" y1="152.33" x2="149.3" y2="152.33"/><line class="cls-1" x1="151.46" y1="147.57" x2="151.46" y2="152.33"/><line class="cls-1" x1="156.22" y1="147.57" x2="151.46" y2="147.57"/><line class="cls-1" x1="156.22" y1="149.3" x2="156.22" y2="147.57"/><line class="cls-1" x1="157.08" y1="149.3" x2="156.22" y2="149.3"/><line class="cls-1" x1="157.08" y1="144.12" x2="157.08" y2="149.3"/><line class="cls-1" x1="163.13" y1="144.12" x2="157.08" y2="144.12"/><line class="cls-1" x1="163.13" y1="149.3" x2="163.13" y2="144.12"/><line class="cls-1" x1="170.04" y1="149.3" x2="163.13" y2="149.3"/><line class="cls-1" x1="170.04" y1="159.24" x2="170.04" y2="149.3"/><line class="cls-1" x1="138.93" y1="205.9" x2="140.66" y2="205.9"/><line class="cls-1" x1="138.93" y1="201.58" x2="138.93" y2="205.47"/><line class="cls-1" x1="141.09" y1="201.15" x2="139.37" y2="201.15"/><line class="cls-1" x1="146.71" y1="201.15" x2="141.09" y2="201.15"/><line class="cls-1" x1="147.57" y1="206.34" x2="141.09" y2="206.34"/><line class="cls-1" x1="148.87" y1="206.34" x2="147.57" y2="206.34"/><line class="cls-1" x1="148.87" y1="204.18" x2="148.87" y2="206.34"/><line class="cls-1" x1="148.87" y1="202.45" x2="148.87" y2="203.31"/><line class="cls-1" x1="182.57" y1="194.24" x2="182.57" y2="183.87"/><line class="cls-1" x1="179.98" y1="194.24" x2="182.57" y2="194.24"/><line class="cls-1" x1="179.98" y1="202.02" x2="179.98" y2="194.24"/><line class="cls-1" x1="141.09" y1="202.02" x2="141.09" y2="201.15"/><line class="cls-1" x1="140.66" y1="205.9" x2="140.66" y2="202.02"/><line class="cls-1" x1="137.64" y1="191.65" x2="136.77" y2="192.51"/><line class="cls-1" x1="138.5" y1="191.65" x2="137.64" y2="191.65"/><line class="cls-1" x1="142.39" y1="187.33" x2="138.5" y2="191.21"/><line class="cls-1" x1="142.39" y1="184.73" x2="142.39" y2="187.33"/><line class="cls-1" x1="141.09" y1="183.44" x2="142.39" y2="184.73"/><line class="cls-1" x1="138.5" y1="183.87" x2="141.09" y2="183.44"/><line class="cls-1" x1="135.05" y1="187.33" x2="138.5" y2="183.87"/><line class="cls-1" x1="132.45" y1="184.3" x2="135.04" y2="187.33"/><line class="cls-1" x1="132.45" y1="182.57" x2="132.45" y2="184.3"/><line class="cls-1" x1="129.86" y1="183" x2="132.45" y2="182.57"/><line class="cls-1" x1="129" y1="183.44" x2="129.86" y2="183"/><line class="cls-1" x1="128.56" y1="186.46" x2="128.56" y2="184.3"/><line class="cls-1" x1="129.43" y1="187.33" x2="128.56" y2="186.46"/><line class="cls-1" x1="128.56" y1="188.62" x2="129.43" y2="187.33"/><line class="cls-1" x1="131.16" y1="191.21" x2="128.56" y2="188.62"/><line class="cls-1" x1="129" y1="193.81" x2="131.16" y2="191.21"/><line class="cls-1" x1="132.45" y1="197.26" x2="129" y2="193.81"/><line class="cls-1" x1="136.34" y1="193.81" x2="132.45" y2="197.26"/><line class="cls-1" x1="136.77" y1="192.94" x2="136.77" y2="193.81"/><line class="cls-1" x1="168.75" y1="201.15" x2="168.75" y2="198.99"/><line class="cls-1" x1="165.72" y1="201.15" x2="168.75" y2="201.15"/><line class="cls-1" x1="165.72" y1="200.29" x2="165.72" y2="201.15"/><line class="cls-1" x1="167.02" y1="200.29" x2="165.72" y2="200.29"/><line class="cls-1" x1="167.45" y1="198.99" x2="167.45" y2="200.29"/><line class="cls-1" x1="168.75" y1="198.99" x2="167.45" y2="198.99"/><line class="cls-1" x1="172.2" y1="183.87" x2="182.57" y2="183.87"/><line class="cls-1" x1="172.2" y1="194.24" x2="172.2" y2="183.87"/><line class="cls-1" x1="172.2" y1="197.26" x2="172.2" y2="194.24"/><line class="cls-1" x1="170.91" y1="197.69" x2="172.2" y2="197.69"/><line class="cls-1" x1="170.91" y1="201.58" x2="170.91" y2="197.69"/><line class="cls-1" x1="179.98" y1="202.02" x2="170.91" y2="202.02"/><line class="cls-1" x1="144.55" y1="138.93" x2="121.22" y2="138.93"/><line class="cls-1" x1="144.55" y1="150.17" x2="144.55" y2="138.93"/><line class="cls-1" x1="144.98" y1="151.46" x2="144.98" y2="150.17"/><line class="cls-1" x1="144.98" y1="161.4" x2="144.98" y2="151.46"/><line class="cls-1" x1="144.98" y1="163.99" x2="144.98" y2="161.4"/><line class="cls-1" x1="121.65" y1="163.99" x2="144.98" y2="163.99"/><line class="cls-1" x1="121.22" y1="138.93" x2="121.65" y2="163.99"/><line class="cls-1" x1="132.45" y1="169.61" x2="127.7" y2="169.61"/><line class="cls-1" x1="139.8" y1="169.61" x2="132.45" y2="170.04"/><line class="cls-1" x1="139.8" y1="172.63" x2="139.8" y2="169.61"/><line class="cls-1" x1="141.09" y1="172.63" x2="139.8" y2="172.63"/><line class="cls-1" x1="141.09" y1="173.93" x2="141.09" y2="172.63"/><line class="cls-1" x1="141.09" y1="175.23" x2="141.09" y2="173.93"/><line class="cls-1" x1="152.33" y1="187.32" x2="152.33" y2="197.26"/><line class="cls-1" x1="155.35" y1="187.32" x2="152.33" y2="187.32"/><line class="cls-1" x1="155.35" y1="188.62" x2="155.35" y2="187.32"/><line class="cls-1" x1="157.51" y1="188.62" x2="155.35" y2="188.62"/><line class="cls-1" x1="157.08" y1="197.26" x2="157.51" y2="188.62"/><line class="cls-1" x1="156.65" y1="198.99" x2="156.65" y2="197.69"/><line class="cls-1" x1="159.24" y1="199.42" x2="156.65" y2="198.99"/><line class="cls-1" x1="159.24" y1="204.61" x2="159.24" y2="199.42"/><line class="cls-1" x1="155.78" y1="204.61" x2="159.24" y2="204.61"/><line class="cls-1" x1="146.71" y1="203.74" x2="148.87" y2="203.74"/><line class="cls-1" x1="146.71" y1="201.15" x2="146.71" y2="203.74"/><line class="cls-1" x1="145.41" y1="201.15" x2="146.71" y2="201.15"/><line class="cls-1" x1="152.76" y1="198.99" x2="152.76" y2="197.26"/><line class="cls-1" x1="150.17" y1="198.99" x2="152.76" y2="198.99"/><line class="cls-1" x1="149.74" y1="204.18" x2="150.17" y2="198.99"/><line class="cls-1" x1="153.19" y1="204.18" x2="150.6" y2="204.18"/><line class="cls-1" x1="155.78" y1="205.04" x2="153.19" y2="205.04"/><line class="cls-1" x1="64.62" y1="141.09" x2="84.06" y2="140.66"/><line class="cls-1" x1="64.62" y1="148.44" x2="64.62" y2="141.09"/><line class="cls-1" x1="63.75" y1="148.44" x2="64.62" y2="148.44"/><line class="cls-1" x1="63.75" y1="157.94" x2="63.75" y2="148.44"/><line class="cls-1" x1="83.63" y1="157.94" x2="63.75" y2="157.94"/><line class="cls-1" x1="83.63" y1="151.9" x2="83.63" y2="157.94"/><line class="cls-1" x1="83.63" y1="146.71" x2="83.63" y2="151.46"/><line class="cls-1" x1="84.06" y1="140.66" x2="84.49" y2="146.71"/><line class="cls-1" x1="110.42" y1="145.85" x2="111.71" y2="145.85"/><line class="cls-1" x1="110.42" y1="164.86" x2="110.42" y2="145.85"/><line class="cls-1" x1="98.32" y1="164.86" x2="110.42" y2="164.86"/><line class="cls-1" x1="91.84" y1="165.29" x2="98.32" y2="164.86"/><line class="cls-1" x1="91.84" y1="166.15" x2="91.84" y2="165.29"/><line class="cls-1" x1="91.84" y1="170.91" x2="91.84" y2="166.15"/><line class="cls-1" x1="87.09" y1="170.91" x2="91.84" y2="170.91"/><line class="cls-1" x1="87.09" y1="166.15" x2="87.09" y2="170.91"/><line class="cls-1" x1="87.09" y1="165.29" x2="87.09" y2="166.15"/><line class="cls-1" x1="87.09" y1="160.54" x2="87.09" y2="165.29"/><line class="cls-1" x1="87.09" y1="159.67" x2="87.09" y2="160.54"/><line class="cls-1" x1="87.09" y1="152.33" x2="87.09" y2="159.67"/><line class="cls-1" x1="87.09" y1="146.71" x2="87.09" y2="152.33"/><line class="cls-1" x1="86.65" y1="139.37" x2="87.09" y2="146.71"/><line class="cls-1" x1="103.07" y1="139.37" x2="86.65" y2="139.37"/><line class="cls-1" x1="104.37" y1="139.37" x2="103.07" y2="139.37"/><line class="cls-1" x1="111.71" y1="139.37" x2="104.37" y2="139.37"/><line class="cls-1" x1="111.71" y1="145.85" x2="111.71" y2="139.37"/><line class="cls-1" x1="83.2" y1="202.45" x2="83.2" y2="205.47"/><line class="cls-1" x1="81.47" y1="202.45" x2="83.2" y2="202.45"/><line class="cls-1" x1="81.47" y1="205.04" x2="81.47" y2="202.45"/><line class="cls-1" x1="78.01" y1="205.04" x2="81.47" y2="205.04"/><line class="cls-1" x1="78.01" y1="205.9" x2="78.01" y2="205.04"/><line class="cls-1" x1="75.85" y1="205.9" x2="78.01" y2="205.9"/><line class="cls-1" x1="75.42" y1="203.31" x2="75.42" y2="205.9"/><line class="cls-1" x1="74.56" y1="203.31" x2="75.42" y2="203.31"/><line class="cls-1" x1="74.56" y1="200.72" x2="74.56" y2="203.31"/><line class="cls-1" x1="75.42" y1="200.72" x2="74.56" y2="200.72"/><line class="cls-1" x1="75.42" y1="195.53" x2="75.42" y2="200.72"/><line class="cls-1" x1="69.8" y1="204.18" x2="61.16" y2="204.18"/><line class="cls-1" x1="69.8" y1="192.08" x2="69.8" y2="204.18"/><line class="cls-1" x1="66.78" y1="192.08" x2="69.8" y2="192.08"/><line class="cls-1" x1="66.78" y1="192.94" x2="66.78" y2="192.08"/><line class="cls-1" x1="63.75" y1="192.94" x2="66.78" y2="192.94"/><line class="cls-1" x1="63.75" y1="196.4" x2="63.75" y2="192.94"/><line class="cls-1" x1="61.16" y1="196.4" x2="63.75" y2="196.4"/><line class="cls-1" x1="61.16" y1="204.18" x2="61.16" y2="196.4"/><line class="cls-1" x1="59.43" y1="190.78" x2="59.43" y2="189.05"/><line class="cls-1" x1="60.3" y1="190.78" x2="59.43" y2="190.78"/><line class="cls-1" x1="60.3" y1="192.51" x2="60.3" y2="190.78"/><line class="cls-1" x1="65.91" y1="192.51" x2="60.3" y2="192.51"/><line class="cls-1" x1="65.91" y1="189.05" x2="65.91" y2="192.51"/><line class="cls-1" x1="59.43" y1="189.05" x2="65.91" y2="189.05"/><path class="cls-1" d="M93.57,39.13a7,7,0,0,1-3.89,1.3,3.65,3.65,0,0,1-2.59-.86"/><polyline class="cls-1" points="60.3 57.7 61.16 57.7 61.16 56.84"/><polyline class="cls-1" points="59.87 57.27 59.87 57.7 60.3 57.7"/><path class="cls-1" d="M76.72,8.88V7.59"/><path class="cls-1" d="M77.58,5c.86-.43,1.73-1.3,2.59-1.3"/><path class="cls-1" d="M80.17,2.83H81.9"/><path class="cls-1" d="M86.22,19.68a7,7,0,0,1-1.3-3.89"/><path class="cls-1" d="M83.2,110a28.19,28.19,0,0,1,38.89,0"/></g></g></svg>