<svg xmlns="http://www.w3.org/2000/svg" viewBox="0 0 747.92 226.68"><defs><style>.cls-1{fill:none;stroke:#000;stroke-linecap:round;stroke-linejoin:round;stroke-width:0.24px;}.cls-2,.cls-71,.cls-76,.cls-8{font-size:15.14px;}.cls-2,.cls-23,.cls-42,.cls-56,.cls-71,.cls-76,.cls-8{font-family:ArialNarrow, Arial;}.cls-2{letter-spacing:0em;}.cls-3{letter-spacing:-0.01em;}.cls-4{letter-spacing:0em;}.cls-5{letter-spacing:0em;}.cls-6{letter-spacing:-0.01em;}.cls-7{letter-spacing:0em;}.cls-8{letter-spacing:0em;}.cls-9{letter-spacing:-0.01em;}.cls-10{letter-spacing:0em;}.cls-11{letter-spacing:-0.02em;}.cls-12{letter-spacing:0.01em;}.cls-13{letter-spacing:-0.01em;}.cls-14{letter-spacing:0.01em;}.cls-15{letter-spacing:0em;}.cls-16{letter-spacing:0.01em;}.cls-17{letter-spacing:-0.01em;}.cls-18{letter-spacing:0em;}.cls-19{letter-spacing:0em;}.cls-20{letter-spacing:0.01em;}.cls-21{letter-spacing:-0.02em;}.cls-22{letter-spacing:0em;}.cls-23,.cls-42,.cls-56{font-size:15.14px;}.cls-23{letter-spacing:0em;}.cls-24{letter-spacing:0em;}.cls-25{letter-spacing:-0.01em;}.cls-26{letter-spacing:-0.01em;}.cls-27{letter-spacing:0em;}.cls-28{letter-spacing:0em;}.cls-29{letter-spacing:0.01em;}.cls-30{letter-spacing:-0.02em;}.cls-31{letter-spacing:0em;}.cls-32{letter-spacing:-0.02em;}.cls-33{letter-spacing:0.01em;}.cls-34{letter-spacing:0em;}.cls-35{letter-spacing:0.01em;}.cls-36{letter-spacing:-0.01em;}.cls-37{letter-spacing:-0.01em;}.cls-38{letter-spacing:-0.01em;}.cls-39{letter-spacing:0.01em;}.cls-40{letter-spacing:0.02em;}.cls-41{letter-spacing:0em;}.cls-42{letter-spacing:0em;}.cls-43{letter-spacing:0em;}.cls-44{letter-spacing:-0.01em;}.cls-45{letter-spacing:-0.01em;}.cls-46{letter-spacing:-0.01em;}.cls-47{letter-spacing:-0.02em;}.cls-48{letter-spacing:0.01em;}.cls-49{letter-spacing:-0.01em;}.cls-50{letter-spacing:-0.02em;}.cls-51{letter-spacing:0.01em;}.cls-52{letter-spacing:0.01em;}.cls-53{letter-spacing:-0.01em;}.cls-54{letter-spacing:0.01em;}.cls-55{letter-spacing:0em;}.cls-57{letter-spacing:0em;}.cls-58{letter-spacing:0em;}.cls-59{letter-spacing:-0.01em;}.cls-60{letter-spacing:-0.01em;}.cls-61{letter-spacing:0em;}.cls-62{letter-spacing:-0.01em;}.cls-63{letter-spacing:0em;}.cls-64{letter-spacing:-0.02em;}.cls-65{letter-spacing:0.01em;}.cls-66{letter-spacing:-0.01em;}.cls-67{letter-spacing:-0.01em;}.cls-68{letter-spacing:0.01em;}.cls-69{letter-spacing:0.01em;}.cls-70{letter-spacing:0.02em;}.cls-71{letter-spacing:0em;}.cls-72{letter-spacing:-0.01em;}.cls-73{letter-spacing:0.01em;}.cls-74{letter-spacing:-0.01em;}.cls-75{letter-spacing:0em;}.cls-77{letter-spacing:0em;}.cls-78{letter-spacing:-0.01em;}.cls-79{letter-spacing:0em;}.cls-80{letter-spacing:-0.01em;}.cls-81{letter-spacing:0.01em;}.cls-82{letter-spacing:-0.01em;}.cls-83{letter-spacing:0em;}.cls-84{letter-spacing:-0.01em;}.cls-85{letter-spacing:0em;}.cls-86{letter-spacing:-0.01em;}.cls-87{letter-spacing:-0.01em;}.cls-88{letter-spacing:0em;}</style></defs><title>ModelLinking</title><g id="Layer_2" data-name="Layer 2"><g id="Layer_1-2" data-name="Layer 1"><line class="cls-1" x1="349.94" y1="90.99" x2="355.22" y2="103.95"/><line class="cls-1" x1="349.94" y1="90.99" x2="344.42" y2="103.95"/><line class="cls-1" x1="349.94" y1="90.99" x2="349.94" y2="181.23"/><text class="cls-2" transform="translate(319.22 204.03)">This<tspan class="cls-3" x="23.7" y="0"> </tspan><tspan class="cls-4" x="27.06" y="0">M</tspan><tspan class="cls-5" x="37.39" y="0">o</tspan><tspan class="cls-6" x="44.35" y="0">d</tspan><tspan class="cls-5" x="51.07" y="0">e</tspan><tspan class="cls-7" x="58.02" y="0">l</tspan></text><text class="cls-8" transform="translate(221.3 222.03)">s<tspan class="cls-5" x="6.23" y="0">1</tspan><tspan class="cls-9" x="13.18" y="0">6</tspan><tspan class="cls-5" x="19.9" y="0">0</tspan><tspan class="cls-6" x="26.85" y="0">6</tspan><tspan class="cls-5" x="33.58" y="0">00</tspan><tspan class="cls-6" x="47.48" y="0">8</tspan><tspan class="cls-10" x="54.2" y="0">-AR-RCR</tspan><tspan class="cls-11" x="106.07" y="0">-</tspan><tspan class="cls-12" x="109.91" y="0">E</tspan><tspan class="cls-13" x="118.3" y="0">D</tspan><tspan class="cls-3" x="127.18" y="0"> </tspan><tspan class="cls-14" x="130.55" y="0">T</tspan><tspan class="cls-15" x="138.22" y="0">r</tspan><tspan class="cls-6" x="142.31" y="0">a</tspan><tspan class="cls-5" x="149.04" y="0">n</tspan><tspan x="155.99" y="0">s</tspan><tspan class="cls-16" x="162.21" y="0">i</tspan><tspan class="cls-10" x="165.08" y="0">t</tspan><tspan class="cls-16" x="168.45" y="0">i</tspan><tspan class="cls-5" x="171.32" y="0">o</tspan><tspan class="cls-6" x="178.27" y="0">n</tspan><tspan class="cls-5" x="184.99" y="0">a</tspan><tspan class="cls-16" x="191.94" y="0">l</tspan><tspan class="cls-17" x="194.81" y="0"> </tspan><tspan class="cls-18" x="198.17" y="0">W</tspan><tspan class="cls-6" x="209.92" y="0">o</tspan><tspan class="cls-13" x="216.64" y="0">r</tspan><tspan class="cls-19" x="220.7" y="0">ks</tspan><tspan class="cls-20" x="233.15" y="0">.</tspan><tspan class="cls-21" x="236.74" y="0">r</tspan><tspan x="240.59" y="0">v</tspan><tspan class="cls-20" x="246.81" y="0">t</tspan><tspan class="cls-22" x="250.4" y="0">s</tspan></text><line class="cls-1" x1="387.14" y1="192.99" x2="395.06" y2="181.23"/><line class="cls-1" x1="387.14" y1="192.99" x2="401.06" y2="190.35"/><line class="cls-1" x1="387.14" y1="192.99" x2="496.82" y2="120.27"/><text class="cls-23" transform="translate(505.46 125.31)">s<tspan class="cls-24" x="6.22" y="0">1</tspan><tspan class="cls-25" x="13.17" y="0">6</tspan><tspan class="cls-24" x="19.9" y="0">06</tspan><tspan class="cls-26" x="33.8" y="0">0</tspan><tspan class="cls-27" x="40.52" y="0">0</tspan><tspan class="cls-26" x="47.47" y="0">8</tspan><tspan class="cls-28" x="54.19" y="0">-</tspan><tspan class="cls-29" x="58.25" y="0">A</tspan><tspan class="cls-30" x="66.63" y="0">R</tspan><tspan class="cls-31" x="75.27" y="0">-</tspan><tspan class="cls-28" x="79.36" y="0">RCR</tspan><tspan class="cls-32" x="106.01" y="0">-</tspan><tspan class="cls-33" x="109.85" y="0">E</tspan><tspan class="cls-34" x="118.24" y="0">x</tspan><tspan class="cls-33" x="124.46" y="0">i</tspan><tspan x="127.33" y="0">s</tspan><tspan class="cls-35" x="133.55" y="0">t</tspan><tspan class="cls-29" x="137.14" y="0">i</tspan><tspan class="cls-25" x="140" y="0">n</tspan><tspan class="cls-24" x="146.72" y="0">g</tspan><tspan class="cls-36" x="153.67" y="0"> </tspan><tspan class="cls-37" x="157.03" y="0">B</tspan><tspan class="cls-24" x="165.24" y="0">u</tspan><tspan class="cls-29" x="172.19" y="0">il</tspan><tspan class="cls-25" x="177.91" y="0">d</tspan><tspan class="cls-33" x="184.64" y="0">i</tspan><tspan class="cls-27" x="187.5" y="0">ng</tspan><tspan class="cls-38" x="201.4" y="0"> </tspan><tspan class="cls-39" x="204.76" y="0">F</tspan><tspan class="cls-29" x="212.42" y="0">il</tspan><tspan class="cls-26" x="218.15" y="0">e</tspan><tspan class="cls-35" x="224.87" y="0">.</tspan><tspan class="cls-32" x="228.46" y="0">r</tspan><tspan class="cls-40" x="232.3" y="0">v</tspan><tspan class="cls-41" x="238.77" y="0">t</tspan></text><line class="cls-1" x1="215.54" y1="116.19" x2="215.3" y2="116.19"/><line class="cls-1" x1="295.22" y1="197.79" x2="282.26" y2="192.27"/><line class="cls-1" x1="295.22" y1="197.79" x2="289.94" y2="184.83"/><line class="cls-1" x1="295.22" y1="197.79" x2="215.54" y2="116.19"/><text class="cls-42" transform="translate(0.02 120.99)">s<tspan class="cls-43" x="6.22" y="0">1</tspan><tspan class="cls-44" x="13.17" y="0">6</tspan><tspan class="cls-43" x="19.9" y="0">06</tspan><tspan class="cls-45" x="33.79" y="0">0</tspan><tspan class="cls-43" x="40.52" y="0">0</tspan><tspan class="cls-44" x="47.47" y="0">8</tspan><tspan class="cls-46" x="54.19" y="0">-AR-RCR</tspan><tspan class="cls-47" x="106.04" y="0">-</tspan><tspan class="cls-48" x="109.88" y="0">E</tspan><tspan class="cls-46" x="118.27" y="0">D</tspan><tspan class="cls-49" x="127.15" y="0"> </tspan><tspan class="cls-46" x="130.51" y="0">C</tspan><tspan class="cls-48" x="139.4" y="0">A</tspan><tspan class="cls-50" x="147.78" y="0">D</tspan><tspan class="cls-51" x="156.42" y="0"> </tspan><tspan class="cls-44" x="160.01" y="0">L</tspan><tspan class="cls-52" x="166.73" y="0">i</tspan><tspan class="cls-43" x="169.6" y="0">n</tspan><tspan x="176.55" y="0">k</tspan><tspan class="cls-53" x="182.77" y="0"> </tspan><tspan class="cls-54" x="186.13" y="0">F</tspan><tspan class="cls-48" x="193.79" y="0">il</tspan><tspan class="cls-55" x="199.52" y="0">e</tspan></text><line class="cls-1" x1="367.7" y1="180.27" x2="362.18" y2="167.31"/><line class="cls-1" x1="367.7" y1="180.27" x2="372.98" y2="167.31"/><line class="cls-1" x1="367.7" y1="180.27" x2="367.7" y2="88.83"/><text class="cls-56" transform="translate(281.3 76.35)"><tspan class="cls-57">s</tspan><tspan class="cls-58" x="6.22" y="0">1</tspan><tspan class="cls-59" x="13.17" y="0">6</tspan><tspan class="cls-58" x="19.9" y="0">06</tspan><tspan class="cls-60" x="33.8" y="0">0</tspan><tspan class="cls-61" x="40.52" y="0">0</tspan><tspan class="cls-62" x="47.47" y="0">8</tspan><tspan class="cls-63" x="54.19" y="0">-AR-RCR</tspan><tspan class="cls-64" x="106.04" y="0">-</tspan><tspan class="cls-65" x="109.88" y="0">Si</tspan><tspan class="cls-66" x="121.13" y="0">t</tspan><tspan class="cls-61" x="124.51" y="0">e</tspan><tspan class="cls-67" x="131.46" y="0"> </tspan><tspan class="cls-68" x="134.82" y="0">F</tspan><tspan class="cls-65" x="142.49" y="0">il</tspan><tspan class="cls-62" x="148.22" y="0">e</tspan><tspan class="cls-69" x="154.94" y="0">.</tspan><tspan class="cls-64" x="158.53" y="0">r</tspan><tspan class="cls-70" x="162.38" y="0">v</tspan><tspan x="168.84" y="0">t</tspan></text><text class="cls-71" transform="translate(0.02 12.99)">N<tspan class="cls-72" x="8.89" y="0">o</tspan><tspan class="cls-73" x="15.61" y="0">t</tspan><tspan class="cls-74" x="19.2" y="0">e</tspan><tspan class="cls-75" x="25.92" y="0">:</tspan></text><text class="cls-76" transform="translate(0.02 30.99)"><tspan class="cls-77">A</tspan><tspan class="cls-78" x="8.34" y="0">l</tspan><tspan class="cls-77" x="10.99" y="0">l</tspan><tspan class="cls-73" x="13.81" y="0"> </tspan><tspan class="cls-77" x="17.4" y="0">l</tspan><tspan class="cls-78" x="20.22" y="0">i</tspan><tspan class="cls-77" x="22.87" y="0">nks</tspan><tspan class="cls-73" x="42.38" y="0"> </tspan><tspan class="cls-72" x="45.97" y="0">a</tspan><tspan class="cls-79" x="52.69" y="0">r</tspan><tspan class="cls-74" x="56.78" y="0">e</tspan><tspan class="cls-73" x="63.51" y="0"> </tspan><tspan class="cls-77" x="67.1" y="0">vi</tspan><tspan class="cls-80" x="76.19" y="0">a</tspan><tspan class="cls-81" x="82.91" y="0"> </tspan><tspan class="cls-82" x="86.5" y="0">S</tspan><tspan class="cls-83" x="94.67" y="0">h</tspan><tspan class="cls-84" x="101.63" y="0">a</tspan><tspan class="cls-85" x="108.35" y="0">r</tspan><tspan class="cls-77" x="112.44" y="0">e</tspan><tspan class="cls-84" x="119.4" y="0">d</tspan><tspan class="cls-86" x="126.13" y="0"> </tspan><tspan class="cls-87" x="129.49" y="0">C</tspan><tspan class="cls-83" x="138.37" y="0">o</tspan><tspan class="cls-84" x="145.33" y="0">o</tspan><tspan class="cls-85" x="152.05" y="0">r</tspan><tspan class="cls-77" x="156.14" y="0">d</tspan><tspan class="cls-82" x="163.1" y="0">i</tspan><tspan class="cls-88" x="165.76" y="0">na</tspan><tspan class="cls-86" x="179.69" y="0">t</tspan><tspan class="cls-84" x="183.05" y="0">e</tspan><tspan x="189.78" y="0">s</tspan></text></g></g></svg>