<svg xmlns="http://www.w3.org/2000/svg" viewBox="0 0 1083.84 466.32"><defs><style>.cls-1,.cls-2,.cls-5{fill:none;stroke:#000;stroke-linecap:round;stroke-linejoin:round;}.cls-1{stroke-width:0.96px;}.cls-2{stroke-width:1.44px;}.cls-3{fill:#fff;}.cls-4{font-size:45.78px;font-family:ArialNarrow, Arial;}.cls-5{stroke-width:0.24px;}.cls-6{letter-spacing:-0.01em;}.cls-7{font-size:22.56px;font-family:ArialMT, Arial;}.cls-8{letter-spacing:0em;}.cls-9{letter-spacing:0em;}.cls-10{letter-spacing:-0.01em;}.cls-11{letter-spacing:0em;}.cls-12{letter-spacing:0em;}</style></defs><title>RhinoLinking_01_justLinked</title><g id="Layer_2" data-name="Layer 2"><g id="Layer_1-2" data-name="Layer 1"><polyline class="cls-1" points="917.04 147.84 916.08 147.84 915.12 147.6 913.92 147.36 912.96 147.36 912 147.36 910.8 147.36 909.84 147.36 908.88 147.6 907.68 147.6 906.72 147.84 905.76 148.08 904.8 148.32 903.6 148.56 902.64 148.8 901.68 149.28 900.72 149.76 899.76 150 898.8 150.48 898.08 151.2 897.12 151.68 896.16 152.16 895.44 152.88 894.48 153.6 893.76 154.08 893.04 154.8 892.32 155.52 891.6 156.48 890.88 157.2 890.16 157.92 889.68 158.88 888.96 159.6 888.48 160.56 888 161.52 887.52 162.48 887.04 163.44 886.56 164.4 886.32 165.36 885.84 166.32 885.6 167.28 885.36 168.24 885.12 169.44 884.88 170.4 884.88 171.36 884.88 172.56 884.64 173.52 884.64 174.48 884.64 175.68 884.88 176.64 884.88 177.6 885.12 178.8 885.36 179.76 885.6 180.72 885.84 181.68 886.08 182.64 886.32 183.84 886.8 184.8 887.28 185.76 887.76 186.72 888.24 187.44 888.72 188.4 889.2 189.36 889.92 190.08 890.4 191.04 891.12 191.76 891.84 192.48 892.56 193.44 893.28 194.16 894 194.64 894.96 195.36 895.68 196.08 896.64 196.56 897.36 197.28 898.32 197.76 899.28 198.24 900.24 198.72 901.2 199.2 902.16 199.44 903.12 199.92 904.08 200.16 905.04 200.4 906.24 200.64 907.2 200.88 908.16 201.12 909.36 201.12 910.32 201.12 911.28 201.36 912.48 201.12 913.44 201.12 914.4 201.12 915.6 200.88 916.56 200.88 917.52 200.64 918.48 200.4 919.68 200.16 920.64 199.68 921.6 199.44 922.56 198.96 923.52 198.48 924.48 198 925.2 197.52 926.16 197.04 927.12 196.32 927.84 195.84 928.8 195.12 929.52 194.4 930.24 193.68 930.96 192.96 931.68 192.24 932.4 191.52 933.12 190.56 933.6 189.84 934.32 188.88 934.8 187.92 935.28 187.2 935.76 186.24 936.24 185.28 936.72 184.32 936.96 183.36 937.44 182.4 937.68 181.2 937.92 180.24 938.16 179.28 938.4 178.32 938.4 177.12 938.4 176.16 938.64 175.2 938.64 174 938.64 173.04 938.4 172.08 938.4 170.88 938.16 169.92 937.92 168.96 937.68 167.76 937.44 166.8 937.2 165.84 936.96 164.88 936.48 163.92 936 162.96 935.52 162 935.04 161.04 934.56 160.08 934.08 159.36 933.36 158.4 932.88 157.68 932.16 156.72 931.44 156 930.72 155.28 930 154.56 929.28 153.84 928.32 153.12 927.6 152.64 926.64 151.92 925.92 151.44 924.96 150.96 924 150.48 923.04 150 922.08 149.52 921.12 149.04 920.16 148.8 919.2 148.32 918.24 148.08 917.04 147.84"/><line class="cls-1" x1="18.24" y1="319.44" x2="18" y2="320.64"/><line class="cls-1" x1="18.24" y1="319.44" x2="18" y2="320.64"/><line class="cls-1" x1="105.36" y1="333.36" x2="18.24" y2="319.44"/><line class="cls-1" x1="105.36" y1="333.36" x2="18.24" y2="319.44"/><line class="cls-1" x1="124.32" y1="336.24" x2="105.36" y2="333.36"/><line class="cls-1" x1="124.32" y1="336.24" x2="105.36" y2="333.36"/><line class="cls-1" x1="265.92" y1="168.48" x2="48" y2="133.68"/><polyline class="cls-1" points="265.92 168.48 48 133.68 30 245.52"/><polyline class="cls-1" points="48 133.68 30 245.52 136.32 262.32"/><polyline class="cls-1" points="30 245.52 136.32 262.32 124.32 336.24"/><line class="cls-1" x1="136.32" y1="262.32" x2="124.32" y2="336.24"/><line class="cls-1" x1="18.24" y1="319.44" x2="18.24" y2="319.44"/><line class="cls-1" x1="18" y1="320.64" x2="0.48" y2="431.04"/><polyline class="cls-1" points="18 320.64 0.48 431.04 218.4 465.84"/><polyline class="cls-1" points="0.48 431.04 218.4 465.84 227.04 412.56"/><line class="cls-1" x1="257.52" y1="221.76" x2="265.92" y2="168.48"/><line class="cls-1" x1="218.4" y1="465.84" x2="227.04" y2="412.56"/><line class="cls-1" x1="257.52" y1="221.76" x2="265.92" y2="168.48"/><polyline class="cls-1" points="100.32 334.32 44.88 325.44 44.64 326.64"/><polyline class="cls-1" points="57.36 247.2 57.12 247.92 87.12 252.72 112.8 256.8"/><line class="cls-1" x1="138.48" y1="260.88" x2="112.8" y2="256.8"/><line class="cls-1" x1="126" y1="338.4" x2="138.48" y2="260.88"/><line class="cls-1" x1="100.32" y1="334.32" x2="126" y2="338.4"/><line class="cls-1" x1="266.4" y1="223.2" x2="235.92" y2="414"/><line class="cls-1" x1="225.36" y1="216.72" x2="266.4" y2="223.2"/><line class="cls-1" x1="194.88" y1="407.52" x2="225.36" y2="216.72"/><line class="cls-1" x1="235.92" y1="414" x2="194.88" y2="407.52"/><line class="cls-1" x1="260.88" y1="258.96" x2="258.24" y2="274.8"/><line class="cls-1" x1="55.92" y1="219.84" x2="68.64" y2="139.68"/><line class="cls-1" x1="196.32" y1="242.16" x2="55.92" y2="219.84"/><line class="cls-1" x1="175.44" y1="374.16" x2="196.32" y2="242.16"/><line class="cls-1" x1="34.8" y1="351.84" x2="175.44" y2="374.16"/><line class="cls-1" x1="22.08" y1="432" x2="34.8" y2="351.84"/><line class="cls-1" x1="216.48" y1="462.96" x2="22.08" y2="432"/><line class="cls-1" x1="263.04" y1="170.64" x2="254.88" y2="221.52"/><line class="cls-1" x1="224.4" y1="412.08" x2="216.48" y2="462.96"/><line class="cls-1" x1="68.64" y1="139.68" x2="263.04" y2="170.64"/><polyline class="cls-1" points="68.4 139.2 55.44 220.56 144.24 234.48 123.6 365.52 34.56 351.6 21.6 432.72 216.96 463.68 225.12 412.32"/><polyline class="cls-1" points="255.36 221.52 263.52 170.16 68.4 139.2"/><polyline class="cls-1" points="68.16 140.16 50.16 137.28 33.36 243.36 139.68 260.16 126.96 339.84 20.88 323.04 4.08 429.12 21.6 432"/><path class="cls-2" d="M953.28,42.24A41.52,41.52,0,1,1,911.76.72,41.74,41.74,0,0,1,953.28,42.24Z"/><rect class="cls-3" x="899.28" y="16.08" width="24.96" height="51.6"/><text class="cls-4" transform="translate(899.28 58.08)">A</text><path class="cls-2" d="M953.28,230.64a41.52,41.52,0,1,1-41.52-41.52A41.69,41.69,0,0,1,953.28,230.64Z"/><rect class="cls-3" x="899.28" y="204.48" width="24.96" height="51.6"/><text class="cls-4" transform="translate(899.28 246.48)">A</text><line class="cls-5" x1="911.76" y1="84" x2="911.76" y2="189.12"/><path class="cls-2" d="M896.64,174.24a41.64,41.64,0,1,1-41.76-41.52A41.74,41.74,0,0,1,896.64,174.24Z"/><rect class="cls-3" x="834.24" y="148.08" width="40.8" height="51.6"/><text class="cls-4" transform="translate(834.24 190.08)"><tspan class="cls-6">0</tspan><tspan x="20.42" y="0">1</tspan></text><path class="cls-2" d="M1083.12,174.24a41.64,41.64,0,1,1-41.76-41.52A41.74,41.74,0,0,1,1083.12,174.24Z"/><rect class="cls-3" x="1020.72" y="148.08" width="40.8" height="51.6"/><text class="cls-4" transform="translate(1020.72 190.08)"><tspan class="cls-6">0</tspan><tspan x="20.42" y="0">1</tspan></text><line class="cls-5" x1="896.4" y1="174.24" x2="999.84" y2="174.24"/><line class="cls-2" x1="911.76" y1="174.24" x2="892.56" y2="166.32"/><line class="cls-2" x1="911.76" y1="174.24" x2="903.6" y2="155.04"/><line class="cls-5" x1="827.28" y1="89.76" x2="720.72" y2="89.76"/><line class="cls-5" x1="911.76" y1="174.24" x2="827.28" y2="89.76"/><rect class="cls-3" x="723.36" y="2.64" width="20.88" height="24.96"/><text class="cls-7" transform="translate(723.36 22.8)">E</text><rect class="cls-3" x="744.48" y="2.64" width="55.68" height="24.96"/><text class="cls-7" transform="translate(744.48 22.8)"><tspan class="cls-8">0</tspan><tspan class="cls-9" x="12.5" y="0">.</tspan><tspan class="cls-10" x="18.74" y="0">0</tspan><tspan class="cls-11" x="31" y="0">0</tspan><tspan x="43.47" y="0">0</tspan></text><rect class="cls-3" x="723.36" y="27.6" width="22.08" height="24.96"/><text class="cls-7" transform="translate(723.36 47.76)">N</text><rect class="cls-3" x="745.44" y="27.6" width="55.68" height="24.96"/><text class="cls-7" transform="translate(745.44 47.76)"><tspan class="cls-8">0</tspan><tspan class="cls-9" x="12.5" y="0">.</tspan><tspan class="cls-10" x="18.74" y="0">0</tspan><tspan class="cls-11" x="31" y="0">0</tspan><tspan x="43.47" y="0">0</tspan></text><rect class="cls-3" x="723.36" y="52.8" width="55.68" height="24.96"/><text class="cls-7" transform="translate(723.36 72.96)"><tspan class="cls-12">0</tspan><tspan class="cls-9" x="12.5" y="0">.</tspan><tspan class="cls-10" x="18.74" y="0">0</tspan><tspan class="cls-11" x="31" y="0">0</tspan><tspan x="43.47" y="0">0</tspan></text></g></g></svg>