<svg xmlns="http://www.w3.org/2000/svg" viewBox="0 0 1083.6 654.48"><defs><style>.cls-1{fill:#00bf00;}.cls-2,.cls-3,.cls-4,.cls-7{fill:none;stroke:#000;stroke-linecap:round;stroke-linejoin:round;}.cls-2{stroke-width:0.72px;}.cls-3{stroke-width:0.48px;}.cls-4{stroke-width:1.2px;}.cls-5{fill:#fff;}.cls-6{font-size:35.61px;font-family:ArialNarrow, Arial;}.cls-7{stroke-width:0.24px;}.cls-8{letter-spacing:-0.01em;}.cls-10,.cls-9{font-size:17.4px;font-family:ArialMT, Arial;}.cls-10{letter-spacing:0em;}.cls-11{letter-spacing:0em;}.cls-12{letter-spacing:0em;}.cls-13{letter-spacing:0em;}.cls-14{letter-spacing:0em;}.cls-15{letter-spacing:0em;}</style></defs><title>RhinoLinking_02_BaseBuildKinked_NotMoved</title><g id="Layer_2" data-name="Layer 2"><g id="Layer_1-2" data-name="Layer 1"><rect class="cls-1" x="970.2" y="294.36" width="6.96" height="7.92"/><rect class="cls-1" x="971.64" y="268.44" width="6.48" height="6.96"/><rect class="cls-1" x="985.32" y="294.36" width="6.96" height="7.92"/><rect class="cls-1" x="976.92" y="260.04" width="15.36" height="7.92"/><rect class="cls-1" x="978.6" y="268.44" width="6.48" height="6.96"/><rect class="cls-1" x="985.8" y="268.44" width="6.48" height="6.96"/><rect class="cls-1" x="978.6" y="286.68" width="6.48" height="6.96"/><rect class="cls-1" x="985.8" y="286.68" width="6.48" height="6.96"/><rect class="cls-1" x="977.64" y="294.36" width="6.96" height="7.92"/><rect class="cls-1" x="977.64" y="315.96" width="6.96" height="7.92"/><rect class="cls-1" x="985.32" y="315.96" width="6.96" height="7.92"/><rect class="cls-1" x="970.2" y="286.68" width="7.92" height="6.96"/><rect class="cls-1" x="970.2" y="260.04" width="6" height="7.92"/><rect class="cls-1" x="970.2" y="315.96" width="6.96" height="7.92"/><rect class="cls-1" x="970.2" y="324.6" width="6" height="7.92"/><rect class="cls-1" x="970.2" y="268.44" width="0.72" height="6.96"/><rect class="cls-1" x="976.92" y="324.6" width="15.36" height="7.92"/><rect class="cls-1" x="970.2" y="333" width="22.08" height="22.08"/><rect class="cls-1" x="845.4" y="251.88" width="15.36" height="8.16"/><rect class="cls-1" x="845.4" y="364.44" width="15.36" height="7.92"/><rect class="cls-1" x="845.4" y="373.08" width="11.28" height="12.24"/><rect class="cls-1" x="845.4" y="238.44" width="11.28" height="12.96"/><polyline class="cls-2" points="713.64 406.68 712.92 406.44 711.96 406.44 711.24 406.2 710.52 406.2 709.56 406.2 708.84 406.2 708.12 406.2 707.16 406.44 706.44 406.44 705.48 406.68 704.76 406.68 704.04 406.92 703.32 407.16 702.36 407.4 701.64 407.64 700.92 408.12 700.2 408.36 699.48 408.84 698.76 409.08 698.04 409.56 697.32 410.04 696.84 410.52 696.12 411 695.4 411.48 694.92 411.96 694.44 412.68 693.72 413.16 693.24 413.88 692.76 414.6 692.28 415.08 691.8 415.8 691.32 416.52 691.08 417.24 690.6 417.96 690.36 418.68 689.88 419.4 689.64 420.12 689.4 421.08 689.16 421.8 688.92 422.52 688.92 423.24 688.68 424.2 688.68 424.92 688.44 425.64 688.44 426.6 688.44 427.32 688.44 428.28 688.44 429 688.68 429.72 688.68 430.68 688.92 431.4 689.16 432.12 689.16 433.08 689.4 433.8 689.88 434.52 690.12 435.24 690.36 435.96 690.84 436.68 691.08 437.4 691.56 438.12 692.04 438.84 692.52 439.56 693 440.28 693.48 440.76 693.96 441.48 694.68 441.96 695.16 442.68 695.88 443.16 696.36 443.64 697.08 444.12 697.8 444.6 698.28 445.08 699 445.32 699.72 445.8 700.44 446.28 701.4 446.52 702.12 446.76 702.84 447 703.56 447.24 704.28 447.48 705.24 447.72 705.96 447.96 706.68 447.96 707.64 447.96 708.36 448.2 709.08 448.2 710.04 448.2 710.76 448.2 711.72 447.96 712.44 447.96 713.16 447.72 714.12 447.72 714.84 447.48 715.56 447.24 716.28 447 717.24 446.76 717.96 446.28 718.68 446.04 719.4 445.56 720.12 445.32 720.84 444.84 721.32 444.36 722.04 443.88 722.76 443.4 723.24 442.92 723.96 442.2 724.44 441.72 725.16 441.24 725.64 440.52 726.12 439.8 726.6 439.32 727.08 438.6 727.56 437.88 727.8 437.16 728.28 436.44 728.52 435.72 729 435 729.24 434.28 729.48 433.32 729.72 432.6 729.96 431.88 729.96 431.16 730.2 430.2 730.2 429.48 730.44 428.52 730.44 427.8 730.44 427.08 730.44 426.12 730.2 425.4 730.2 424.68 730.2 423.72 729.96 423 729.72 422.28 729.48 421.32 729.24 420.6 729 419.88 728.76 419.16 728.52 418.44 728.04 417.72 727.56 417 727.32 416.28 726.84 415.56 726.36 414.84 725.88 414.12 725.4 413.64 724.92 412.92 724.2 412.44 723.72 411.72 723 411.24 722.52 410.76 721.8 410.28 721.08 409.8 720.36 409.32 719.64 408.84 718.92 408.6 718.2 408.12 717.48 407.88 716.76 407.64 716.04 407.4 715.32 407.16 714.36 406.92 713.64 406.68"/><line class="cls-2" x1="14.28" y1="540.12" x2="14.04" y2="541.08"/><line class="cls-2" x1="14.28" y1="540.12" x2="14.04" y2="541.08"/><line class="cls-2" x1="81.96" y1="550.92" x2="14.28" y2="540.12"/><line class="cls-2" x1="81.96" y1="550.92" x2="14.28" y2="540.12"/><line class="cls-2" x1="96.84" y1="553.32" x2="81.96" y2="550.92"/><line class="cls-2" x1="96.84" y1="553.32" x2="81.96" y2="550.92"/><line class="cls-2" x1="207" y1="422.76" x2="37.32" y2="395.64"/><polyline class="cls-2" points="207 422.76 37.32 395.64 23.4 482.52"/><polyline class="cls-2" points="37.32 395.64 23.4 482.52 105.96 495.72"/><polyline class="cls-2" points="23.4 482.52 105.96 495.72 96.84 553.32"/><line class="cls-2" x1="105.96" y1="495.72" x2="96.84" y2="553.32"/><line class="cls-2" x1="14.28" y1="540.12" x2="14.28" y2="540.12"/><line class="cls-2" x1="14.04" y1="541.08" x2="0.36" y2="627"/><polyline class="cls-2" points="14.04 541.08 0.36 627 170.04 654.12"/><polyline class="cls-2" points="0.36 627 170.04 654.12 176.52 612.6"/><line class="cls-2" x1="200.28" y1="464.04" x2="207" y2="422.76"/><line class="cls-2" x1="170.04" y1="654.12" x2="176.52" y2="612.6"/><line class="cls-2" x1="200.28" y1="464.04" x2="207" y2="422.76"/><polyline class="cls-2" points="78.12 551.88 34.92 544.92 34.68 545.88"/><polyline class="cls-2" points="44.52 483.96 44.52 484.44 67.8 488.04 87.72 491.4"/><line class="cls-2" x1="107.64" y1="494.52" x2="87.72" y2="491.4"/><line class="cls-2" x1="98.04" y1="555" x2="107.64" y2="494.52"/><line class="cls-2" x1="78.12" y1="551.88" x2="98.04" y2="555"/><line class="cls-2" x1="207.24" y1="465.24" x2="183.72" y2="613.8"/><line class="cls-2" x1="175.32" y1="460.2" x2="207.24" y2="465.24"/><line class="cls-2" x1="151.8" y1="608.52" x2="175.32" y2="460.2"/><line class="cls-2" x1="183.72" y1="613.8" x2="151.8" y2="608.52"/><line class="cls-2" x1="202.92" y1="493.08" x2="201" y2="505.32"/><line class="cls-2" x1="43.56" y1="462.6" x2="53.4" y2="400.2"/><line class="cls-2" x1="152.76" y1="480.12" x2="43.56" y2="462.6"/><line class="cls-2" x1="136.44" y1="582.84" x2="152.76" y2="480.12"/><line class="cls-2" x1="27" y1="565.32" x2="136.44" y2="582.84"/><line class="cls-2" x1="17.16" y1="627.72" x2="27" y2="565.32"/><line class="cls-2" x1="168.36" y1="651.96" x2="17.16" y2="627.72"/><line class="cls-2" x1="204.6" y1="424.2" x2="198.36" y2="463.8"/><line class="cls-2" x1="174.6" y1="612.36" x2="168.36" y2="651.96"/><line class="cls-2" x1="53.4" y1="400.2" x2="204.6" y2="424.2"/><polyline class="cls-2" points="53.16 399.96 43.08 463.08 112.2 474.12 96.12 576.12 26.76 565.08 16.68 628.2 168.84 652.44 175.08 612.36"/><polyline class="cls-2" points="198.6 463.8 205.08 423.96 53.16 399.96"/><polyline class="cls-2" points="53.16 400.44 39 398.28 26.04 480.84 108.6 494.04 98.76 555.96 16.2 543 3.24 625.56 16.92 627.72"/><line class="cls-3" x1="970.2" y1="302.28" x2="972.12" y2="302.28"/><polyline class="cls-3" points="975 302.28 977.16 302.28 977.16 299.64"/><polyline class="cls-3" points="977.16 296.76 977.16 294.36 975 294.36"/><polyline class="cls-3" points="972.12 294.36 970.2 294.36 970.2 296.76"/><line class="cls-3" x1="970.2" y1="299.64" x2="970.2" y2="302.28"/><polyline class="cls-3" points="971.64 275.4 978.12 275.4 978.12 273.48"/><polyline class="cls-3" points="978.12 270.6 978.12 268.44 971.64 268.44 971.64 270.6"/><line class="cls-3" x1="971.64" y1="273.48" x2="971.64" y2="275.4"/><line class="cls-3" x1="985.32" y1="302.28" x2="987.24" y2="302.28"/><polyline class="cls-3" points="990.36 302.28 992.28 302.28 992.28 299.64"/><polyline class="cls-3" points="992.28 296.76 992.28 294.36 990.36 294.36"/><polyline class="cls-3" points="987.24 294.36 985.32 294.36 985.32 296.76"/><line class="cls-3" x1="985.32" y1="299.64" x2="985.32" y2="302.28"/><line class="cls-3" x1="976.92" y1="267.96" x2="979.8" y2="267.96"/><line class="cls-3" x1="982.68" y1="267.96" x2="986.52" y2="267.96"/><polyline class="cls-3" points="989.4 267.96 992.28 267.96 992.28 265.32"/><polyline class="cls-3" points="992.28 262.44 992.28 260.04 989.4 260.04"/><line class="cls-3" x1="986.52" y1="260.04" x2="982.68" y2="260.04"/><polyline class="cls-3" points="979.8 260.04 976.92 260.04 976.92 262.44"/><line class="cls-3" x1="976.92" y1="265.32" x2="976.92" y2="267.96"/><polyline class="cls-3" points="978.6 275.4 985.08 275.4 985.08 273.48"/><polyline class="cls-3" points="985.08 270.6 985.08 268.44 978.6 268.44 978.6 270.6"/><line class="cls-3" x1="978.6" y1="273.48" x2="978.6" y2="275.4"/><polyline class="cls-3" points="985.8 275.4 992.28 275.4 992.28 273.48"/><polyline class="cls-3" points="992.28 270.6 992.28 268.44 985.8 268.44 985.8 270.6"/><line class="cls-3" x1="985.8" y1="273.48" x2="985.8" y2="275.4"/><line class="cls-3" x1="978.6" y1="286.68" x2="978.6" y2="288.6"/><polyline class="cls-3" points="978.6 291.72 978.6 293.64 985.08 293.64 985.08 291.72"/><polyline class="cls-3" points="985.08 288.6 985.08 286.68 978.6 286.68"/><line class="cls-3" x1="985.8" y1="286.68" x2="985.8" y2="288.6"/><polyline class="cls-3" points="985.8 291.72 985.8 293.64 992.28 293.64 992.28 291.72"/><polyline class="cls-3" points="992.28 288.6 992.28 286.68 985.8 286.68"/><line class="cls-3" x1="977.64" y1="302.28" x2="979.8" y2="302.28"/><polyline class="cls-3" points="982.68 302.28 984.6 302.28 984.6 299.64"/><polyline class="cls-3" points="984.6 296.76 984.6 294.36 982.68 294.36"/><polyline class="cls-3" points="979.8 294.36 977.64 294.36 977.64 296.76"/><line class="cls-3" x1="977.64" y1="299.64" x2="977.64" y2="302.28"/><line class="cls-3" x1="977.64" y1="315.96" x2="977.64" y2="318.36"/><polyline class="cls-3" points="977.64 321.48 977.64 323.88 979.8 323.88"/><polyline class="cls-3" points="982.68 323.88 984.6 323.88 984.6 321.48"/><polyline class="cls-3" points="984.6 318.36 984.6 315.96 982.68 315.96"/><line class="cls-3" x1="979.8" y1="315.96" x2="977.64" y2="315.96"/><line class="cls-3" x1="985.32" y1="315.96" x2="985.32" y2="318.36"/><polyline class="cls-3" points="985.32 321.48 985.32 323.88 987.24 323.88"/><polyline class="cls-3" points="990.36 323.88 992.28 323.88 992.28 321.48"/><polyline class="cls-3" points="992.28 318.36 992.28 315.96 990.36 315.96"/><line class="cls-3" x1="987.24" y1="315.96" x2="985.32" y2="315.96"/><line class="cls-3" x1="970.2" y1="293.64" x2="972.6" y2="293.64"/><polyline class="cls-3" points="975.48 293.64 978.12 293.64 978.12 291.72"/><polyline class="cls-3" points="978.12 288.6 978.12 286.68 975.48 286.68"/><polyline class="cls-3" points="972.6 286.68 970.2 286.68 970.2 288.6"/><line class="cls-3" x1="970.2" y1="291.72" x2="970.2" y2="293.64"/><polyline class="cls-3" points="970.2 267.96 976.2 267.96 976.2 265.32"/><polyline class="cls-3" points="976.2 262.44 976.2 260.04 970.2 260.04 970.2 262.44"/><line class="cls-3" x1="970.2" y1="265.32" x2="970.2" y2="267.96"/><line class="cls-3" x1="970.2" y1="323.88" x2="972.12" y2="323.88"/><polyline class="cls-3" points="975 323.88 977.16 323.88 977.16 321.48"/><polyline class="cls-3" points="977.16 318.36 977.16 315.96 975 315.96"/><polyline class="cls-3" points="972.12 315.96 970.2 315.96 970.2 318.36"/><line class="cls-3" x1="970.2" y1="321.48" x2="970.2" y2="323.88"/><polyline class="cls-3" points="970.2 332.52 976.2 332.52 976.2 329.88"/><polyline class="cls-3" points="976.2 327 976.2 324.6 970.2 324.6 970.2 327"/><line class="cls-3" x1="970.2" y1="329.88" x2="970.2" y2="332.52"/><polyline class="cls-3" points="970.2 275.4 970.92 275.4 970.92 273.48"/><polyline class="cls-3" points="970.92 270.6 970.92 268.44 970.2 268.44 970.2 270.6"/><line class="cls-3" x1="970.2" y1="273.48" x2="970.2" y2="275.4"/><line class="cls-3" x1="976.92" y1="332.52" x2="979.8" y2="332.52"/><line class="cls-3" x1="982.68" y1="332.52" x2="986.52" y2="332.52"/><polyline class="cls-3" points="989.4 332.52 992.28 332.52 992.28 329.88"/><polyline class="cls-3" points="992.28 327 992.28 324.6 989.4 324.6"/><line class="cls-3" x1="986.52" y1="324.6" x2="982.68" y2="324.6"/><polyline class="cls-3" points="979.8 324.6 976.92 324.6 976.92 327"/><line class="cls-3" x1="976.92" y1="329.88" x2="976.92" y2="332.52"/><line class="cls-3" x1="970.2" y1="355.08" x2="973.08" y2="355.08"/><line class="cls-3" x1="975.96" y1="355.08" x2="979.8" y2="355.08"/><line class="cls-3" x1="982.68" y1="355.08" x2="986.52" y2="355.08"/><polyline class="cls-3" points="989.4 355.08 992.28 355.08 992.28 352.44"/><line class="cls-3" x1="992.28" y1="349.32" x2="992.28" y2="345.72"/><line class="cls-3" x1="992.28" y1="342.6" x2="992.28" y2="339"/><polyline class="cls-3" points="992.28 335.88 992.28 333 989.4 333"/><line class="cls-3" x1="986.52" y1="333" x2="982.68" y2="333"/><line class="cls-3" x1="979.8" y1="333" x2="975.96" y2="333"/><polyline class="cls-3" points="973.08 333 970.2 333 970.2 335.88"/><line class="cls-3" x1="970.2" y1="339" x2="970.2" y2="342.6"/><line class="cls-3" x1="970.2" y1="345.72" x2="970.2" y2="349.32"/><line class="cls-3" x1="970.2" y1="352.44" x2="970.2" y2="355.08"/><line class="cls-3" x1="860.76" y1="251.88" x2="857.88" y2="251.88"/><line class="cls-3" x1="855" y1="251.88" x2="851.16" y2="251.88"/><polyline class="cls-3" points="848.28 251.88 845.4 251.88 845.4 254.52"/><polyline class="cls-3" points="845.4 257.4 845.4 260.04 848.28 260.04"/><line class="cls-3" x1="851.16" y1="260.04" x2="855" y2="260.04"/><polyline class="cls-3" points="857.88 260.04 860.76 260.04 860.76 257.4"/><line class="cls-3" x1="860.76" y1="254.52" x2="860.76" y2="251.88"/><line class="cls-3" x1="860.76" y1="364.44" x2="857.88" y2="364.44"/><line class="cls-3" x1="855" y1="364.44" x2="851.16" y2="364.44"/><polyline class="cls-3" points="848.28 364.44 845.4 364.44 845.4 366.84"/><polyline class="cls-3" points="845.4 369.96 845.4 372.36 848.28 372.36"/><line class="cls-3" x1="851.16" y1="372.36" x2="855" y2="372.36"/><polyline class="cls-3" points="857.88 372.36 860.76 372.36 860.76 369.96"/><line class="cls-3" x1="860.76" y1="366.84" x2="860.76" y2="364.44"/><line class="cls-3" x1="845.4" y1="385.32" x2="849.48" y2="385.32"/><polyline class="cls-3" points="852.6 385.32 856.68 385.32 856.68 380.76"/><polyline class="cls-3" points="856.68 377.64 856.68 373.08 852.6 373.08"/><polyline class="cls-3" points="849.48 373.08 845.4 373.08 845.4 377.64"/><line class="cls-3" x1="845.4" y1="380.76" x2="845.4" y2="385.32"/><line class="cls-3" x1="845.4" y1="251.4" x2="849.48" y2="251.4"/><polyline class="cls-3" points="852.6 251.4 856.68 251.4 856.68 246.36"/><polyline class="cls-3" points="856.68 243.48 856.68 238.44 852.6 238.44"/><polyline class="cls-3" points="849.48 238.44 845.4 238.44 845.4 243.48"/><line class="cls-3" x1="845.4" y1="246.36" x2="845.4" y2="251.4"/><path class="cls-4" d="M742,324.36a32.4,32.4,0,0,1-64.8,0,32.4,32.4,0,0,1,64.8,0Z"/><rect class="cls-5" x="699.72" y="303.96" width="18.96" height="39.84"/><text class="cls-6" transform="translate(699.72 336.12)">A</text><path class="cls-4" d="M742,471a32.4,32.4,0,1,1-32.4-32.4A32.57,32.57,0,0,1,742,471Z"/><rect class="cls-5" x="699.72" y="450.6" width="18.96" height="39.84"/><text class="cls-6" transform="translate(699.72 482.76)">A</text><line class="cls-7" x1="709.32" y1="357" x2="709.32" y2="438.84"/><path class="cls-4" d="M697.8,427.08a32.4,32.4,0,1,1-32.4-32.4A32.57,32.57,0,0,1,697.8,427.08Z"/><rect class="cls-5" x="649.08" y="406.68" width="31.68" height="39.84"/><text class="cls-6" transform="translate(649.08 438.84)"><tspan class="cls-8">0</tspan><tspan x="15.85" y="0">1</tspan></text><path class="cls-4" d="M842.76,427.08a32.4,32.4,0,1,1-32.4-32.4A32.57,32.57,0,0,1,842.76,427.08Z"/><rect class="cls-5" x="794.04" y="406.68" width="31.68" height="39.84"/><text class="cls-6" transform="translate(794.04 438.84)"><tspan class="cls-8">0</tspan><tspan x="15.85" y="0">1</tspan></text><line class="cls-7" x1="697.56" y1="427.08" x2="777.96" y2="427.08"/><line class="cls-4" x1="709.32" y1="427.08" x2="694.44" y2="421.08"/><line class="cls-4" x1="709.32" y1="427.08" x2="703.32" y2="412.2"/><line class="cls-7" x1="643.56" y1="361.56" x2="561" y2="361.56"/><line class="cls-7" x1="709.32" y1="427.08" x2="643.56" y2="361.56"/><rect class="cls-5" x="562.92" y="293.64" width="16.32" height="19.44"/><text class="cls-9" transform="translate(562.92 309.24)">E</text><rect class="cls-5" x="579.24" y="293.64" width="43.2" height="19.44"/><text class="cls-10" transform="translate(579.24 309.24)">0<tspan class="cls-11" x="9.61" y="0">.</tspan><tspan class="cls-12" x="14.39" y="0">00</tspan><tspan class="cls-13" x="33.6" y="0">0</tspan></text><rect class="cls-5" x="562.92" y="313.08" width="17.28" height="19.44"/><text class="cls-9" transform="translate(562.92 328.68)">N</text><rect class="cls-5" x="580.2" y="313.08" width="43.2" height="19.44"/><text class="cls-9" transform="translate(580.2 328.68)"><tspan class="cls-14">0</tspan><tspan class="cls-15" x="9.61" y="0">.</tspan><tspan class="cls-14" x="14.39" y="0">00</tspan><tspan x="33.6" y="0">0</tspan></text><rect class="cls-5" x="562.92" y="332.52" width="43.2" height="19.44"/><text class="cls-9" transform="translate(562.92 348.12)"><tspan class="cls-14">0</tspan><tspan class="cls-15" x="9.61" y="0">.</tspan><tspan class="cls-14" x="14.39" y="0">00</tspan><tspan x="33.6" y="0">0</tspan></text><path class="cls-4" d="M742,32.76a32.4,32.4,0,0,1-64.8,0,32.4,32.4,0,0,1,64.8,0Z"/><rect class="cls-5" x="699.72" y="12.36" width="18.96" height="39.84"/><text class="cls-6" transform="translate(699.72 44.52)">A</text><path class="cls-4" d="M742,471a32.4,32.4,0,1,1-32.4-32.4A32.57,32.57,0,0,1,742,471Z"/><rect class="cls-5" x="699.72" y="450.6" width="18.96" height="39.84"/><text class="cls-6" transform="translate(699.72 482.76)">A</text><line class="cls-7" x1="709.32" y1="65.4" x2="709.32" y2="125.16"/><line class="cls-7" x1="709.32" y1="140.04" x2="709.32" y2="154.92"/><line class="cls-7" x1="709.32" y1="170.04" x2="709.32" y2="229.56"/><line class="cls-7" x1="709.32" y1="244.68" x2="709.32" y2="259.56"/><line class="cls-7" x1="709.32" y1="274.44" x2="709.32" y2="334.2"/><line class="cls-7" x1="709.32" y1="349.08" x2="709.32" y2="363.96"/><line class="cls-7" x1="709.32" y1="379.08" x2="709.32" y2="438.84"/><path class="cls-4" d="M692.52,427.08a32.4,32.4,0,1,1-32.4-32.4A32.57,32.57,0,0,1,692.52,427.08Z"/><rect class="cls-5" x="643.8" y="406.68" width="31.68" height="39.84"/><text class="cls-6" transform="translate(643.8 438.84)"><tspan class="cls-8">0</tspan><tspan x="15.85" y="0">1</tspan></text><path class="cls-4" d="M1082.76,427.08a32.28,32.28,0,1,1-64.56,0,32.28,32.28,0,1,1,64.56,0Z"/><rect class="cls-5" x="1034.28" y="406.68" width="31.68" height="39.84"/><text class="cls-6" transform="translate(1034.28 438.84)"><tspan class="cls-8">0</tspan><tspan x="15.85" y="0">1</tspan></text><line class="cls-7" x1="692.28" y1="427.08" x2="728.28" y2="427.08"/><line class="cls-7" x1="743.16" y1="427.08" x2="758.04" y2="427.08"/><line class="cls-7" x1="773.16" y1="427.08" x2="832.68" y2="427.08"/><line class="cls-7" x1="847.8" y1="427.08" x2="862.68" y2="427.08"/><line class="cls-7" x1="877.56" y1="427.08" x2="937.32" y2="427.08"/><line class="cls-7" x1="952.2" y1="427.08" x2="967.08" y2="427.08"/><line class="cls-7" x1="982.2" y1="427.08" x2="1017.96" y2="427.08"/><path class="cls-4" d="M762.84,32.76a32.4,32.4,0,0,1-64.8,0,32.4,32.4,0,0,1,64.8,0Z"/><rect class="cls-5" x="720.6" y="12.36" width="18.96" height="39.84"/><text class="cls-6" transform="translate(720.6 44.52)">B</text><path class="cls-4" d="M762.84,471a32.4,32.4,0,1,1-32.4-32.4A32.57,32.57,0,0,1,762.84,471Z"/><rect class="cls-5" x="720.6" y="450.6" width="18.96" height="39.84"/><text class="cls-6" transform="translate(720.6 482.76)">B</text><line class="cls-7" x1="730.44" y1="65.4" x2="730.44" y2="125.16"/><line class="cls-7" x1="730.44" y1="140.04" x2="730.44" y2="154.92"/><line class="cls-7" x1="730.44" y1="170.04" x2="730.44" y2="229.56"/><line class="cls-7" x1="730.44" y1="244.68" x2="730.44" y2="259.56"/><line class="cls-7" x1="730.44" y1="274.44" x2="730.44" y2="334.2"/><line class="cls-7" x1="730.44" y1="349.08" x2="730.44" y2="363.96"/><line class="cls-7" x1="730.44" y1="379.08" x2="730.44" y2="438.84"/><path class="cls-4" d="M783.72,32.76a32.4,32.4,0,0,1-64.8,0,32.4,32.4,0,0,1,64.8,0Z"/><rect class="cls-5" x="740.76" y="12.36" width="20.4" height="39.84"/><text class="cls-6" transform="translate(740.76 44.52)">C</text><path class="cls-4" d="M783.72,471a32.4,32.4,0,1,1-32.4-32.4A32.57,32.57,0,0,1,783.72,471Z"/><rect class="cls-5" x="740.76" y="450.6" width="20.4" height="39.84"/><text class="cls-6" transform="translate(740.76 482.76)">C</text><line class="cls-7" x1="751.32" y1="65.4" x2="751.32" y2="125.16"/><line class="cls-7" x1="751.32" y1="140.04" x2="751.32" y2="154.92"/><line class="cls-7" x1="751.32" y1="170.04" x2="751.32" y2="229.56"/><line class="cls-7" x1="751.32" y1="244.68" x2="751.32" y2="259.56"/><line class="cls-7" x1="751.32" y1="274.44" x2="751.32" y2="334.2"/><line class="cls-7" x1="751.32" y1="349.08" x2="751.32" y2="363.96"/><line class="cls-7" x1="751.32" y1="379.08" x2="751.32" y2="438.84"/><path class="cls-4" d="M794,32.76a32.28,32.28,0,1,1-64.56,0,32.28,32.28,0,0,1,64.56,0Z"/><rect class="cls-5" x="751.08" y="12.36" width="20.4" height="39.84"/><text class="cls-6" transform="translate(751.08 44.52)">D</text><path class="cls-4" d="M794,471a32.28,32.28,0,1,1-64.56,0A32.28,32.28,0,1,1,794,471Z"/><rect class="cls-5" x="751.08" y="450.6" width="20.4" height="39.84"/><text class="cls-6" transform="translate(751.08 482.76)">D</text><line class="cls-7" x1="761.64" y1="65.4" x2="761.64" y2="125.16"/><line class="cls-7" x1="761.64" y1="140.04" x2="761.64" y2="154.92"/><line class="cls-7" x1="761.64" y1="170.04" x2="761.64" y2="229.56"/><line class="cls-7" x1="761.64" y1="244.68" x2="761.64" y2="259.56"/><line class="cls-7" x1="761.64" y1="274.44" x2="761.64" y2="334.2"/><line class="cls-7" x1="761.64" y1="349.08" x2="761.64" y2="363.96"/><line class="cls-7" x1="761.64" y1="379.08" x2="761.64" y2="438.84"/><path class="cls-4" d="M815.16,32.76a32.4,32.4,0,0,1-64.8,0,32.4,32.4,0,0,1,64.8,0Z"/><rect class="cls-5" x="772.92" y="12.36" width="18.96" height="39.84"/><text class="cls-6" transform="translate(772.92 44.52)">E</text><path class="cls-4" d="M815.16,471a32.4,32.4,0,1,1-32.4-32.4A32.57,32.57,0,0,1,815.16,471Z"/><rect class="cls-5" x="772.92" y="450.6" width="18.96" height="39.84"/><text class="cls-6" transform="translate(772.92 482.76)">E</text><line class="cls-7" x1="782.52" y1="65.4" x2="782.52" y2="125.16"/><line class="cls-7" x1="782.52" y1="140.04" x2="782.52" y2="154.92"/><line class="cls-7" x1="782.52" y1="170.04" x2="782.52" y2="229.56"/><line class="cls-7" x1="782.52" y1="244.68" x2="782.52" y2="259.56"/><line class="cls-7" x1="782.52" y1="274.44" x2="782.52" y2="334.2"/><line class="cls-7" x1="782.52" y1="349.08" x2="782.52" y2="363.96"/><line class="cls-7" x1="782.52" y1="379.08" x2="782.52" y2="438.84"/><path class="cls-4" d="M836,32.76a32.4,32.4,0,0,1-64.8,0,32.4,32.4,0,0,1,64.8,0Z"/><rect class="cls-5" x="794.52" y="12.36" width="17.52" height="39.84"/><text class="cls-6" transform="translate(794.52 44.52)">F</text><path class="cls-4" d="M836,471a32.4,32.4,0,1,1-32.4-32.4A32.57,32.57,0,0,1,836,471Z"/><rect class="cls-5" x="794.52" y="450.6" width="17.52" height="39.84"/><text class="cls-6" transform="translate(794.52 482.76)">F</text><line class="cls-7" x1="803.4" y1="65.4" x2="803.4" y2="125.16"/><line class="cls-7" x1="803.4" y1="140.04" x2="803.4" y2="154.92"/><line class="cls-7" x1="803.4" y1="170.04" x2="803.4" y2="229.56"/><line class="cls-7" x1="803.4" y1="244.68" x2="803.4" y2="259.56"/><line class="cls-7" x1="803.4" y1="274.44" x2="803.4" y2="334.2"/><line class="cls-7" x1="803.4" y1="349.08" x2="803.4" y2="363.96"/><line class="cls-7" x1="803.4" y1="379.08" x2="803.4" y2="438.84"/><path class="cls-4" d="M856.92,32.76a32.4,32.4,0,0,1-64.8,0,32.4,32.4,0,0,1,64.8,0Z"/><rect class="cls-5" x="813.24" y="12.36" width="22.08" height="39.84"/><text class="cls-6" transform="translate(813.24 44.52)">G</text><path class="cls-4" d="M856.92,471a32.4,32.4,0,1,1-32.4-32.4A32.57,32.57,0,0,1,856.92,471Z"/><rect class="cls-5" x="813.24" y="450.6" width="22.08" height="39.84"/><text class="cls-6" transform="translate(813.24 482.76)">G</text><line class="cls-7" x1="824.52" y1="65.4" x2="824.52" y2="125.16"/><line class="cls-7" x1="824.52" y1="140.04" x2="824.52" y2="154.92"/><line class="cls-7" x1="824.52" y1="170.04" x2="824.52" y2="229.56"/><line class="cls-7" x1="824.52" y1="244.68" x2="824.52" y2="259.56"/><line class="cls-7" x1="824.52" y1="274.44" x2="824.52" y2="334.2"/><line class="cls-7" x1="824.52" y1="349.08" x2="824.52" y2="363.96"/><line class="cls-7" x1="824.52" y1="379.08" x2="824.52" y2="438.84"/><path class="cls-4" d="M877.8,32.76a32.4,32.4,0,0,1-64.8,0,32.4,32.4,0,0,1,64.8,0Z"/><rect class="cls-5" x="834.84" y="12.36" width="20.4" height="39.84"/><text class="cls-6" transform="translate(834.84 44.52)">H</text><path class="cls-4" d="M877.8,471a32.4,32.4,0,1,1-32.4-32.4A32.57,32.57,0,0,1,877.8,471Z"/><rect class="cls-5" x="834.84" y="450.6" width="20.4" height="39.84"/><text class="cls-6" transform="translate(834.84 482.76)">H</text><line class="cls-7" x1="845.4" y1="65.4" x2="845.4" y2="125.16"/><line class="cls-7" x1="845.4" y1="140.04" x2="845.4" y2="154.92"/><line class="cls-7" x1="845.4" y1="170.04" x2="845.4" y2="229.56"/><line class="cls-7" x1="845.4" y1="244.68" x2="845.4" y2="259.56"/><line class="cls-7" x1="845.4" y1="274.44" x2="845.4" y2="334.2"/><line class="cls-7" x1="845.4" y1="349.08" x2="845.4" y2="363.96"/><line class="cls-7" x1="845.4" y1="379.08" x2="845.4" y2="438.84"/><path class="cls-4" d="M898.68,32.76a32.4,32.4,0,0,1-64.8,0,32.4,32.4,0,0,1,64.8,0Z"/><rect class="cls-5" x="858.84" y="12.36" width="14.16" height="39.84"/><text class="cls-6" transform="translate(858.84 44.52)">J</text><path class="cls-4" d="M898.68,471a32.4,32.4,0,1,1-32.4-32.4A32.57,32.57,0,0,1,898.68,471Z"/><rect class="cls-5" x="858.84" y="450.6" width="14.16" height="39.84"/><text class="cls-6" transform="translate(858.84 482.76)">J</text><line class="cls-7" x1="866.28" y1="65.4" x2="866.28" y2="125.16"/><line class="cls-7" x1="866.28" y1="140.04" x2="866.28" y2="154.92"/><line class="cls-7" x1="866.28" y1="170.04" x2="866.28" y2="229.56"/><line class="cls-7" x1="866.28" y1="244.68" x2="866.28" y2="259.56"/><line class="cls-7" x1="866.28" y1="274.44" x2="866.28" y2="334.2"/><line class="cls-7" x1="866.28" y1="349.08" x2="866.28" y2="363.96"/><line class="cls-7" x1="866.28" y1="379.08" x2="866.28" y2="438.84"/><path class="cls-4" d="M919.56,32.76a32.28,32.28,0,1,1-64.56,0,32.28,32.28,0,0,1,64.56,0Z"/><rect class="cls-5" x="877.32" y="12.36" width="19.2" height="39.84"/><text class="cls-6" transform="translate(877.32 44.52)">K</text><path class="cls-4" d="M919.56,471A32.28,32.28,0,1,1,855,471a32.28,32.28,0,1,1,64.56,0Z"/><rect class="cls-5" x="877.32" y="450.6" width="19.2" height="39.84"/><text class="cls-6" transform="translate(877.32 482.76)">K</text><line class="cls-7" x1="887.16" y1="65.4" x2="887.16" y2="125.16"/><line class="cls-7" x1="887.16" y1="140.04" x2="887.16" y2="154.92"/><line class="cls-7" x1="887.16" y1="170.04" x2="887.16" y2="229.56"/><line class="cls-7" x1="887.16" y1="244.68" x2="887.16" y2="259.56"/><line class="cls-7" x1="887.16" y1="274.44" x2="887.16" y2="334.2"/><line class="cls-7" x1="887.16" y1="349.08" x2="887.16" y2="363.96"/><line class="cls-7" x1="887.16" y1="379.08" x2="887.16" y2="438.84"/><path class="cls-4" d="M940.44,32.76a32.28,32.28,0,1,1-64.56,0,32.28,32.28,0,0,1,64.56,0Z"/><rect class="cls-5" x="899.88" y="12.36" width="15.6" height="39.84"/><text class="cls-6" transform="translate(899.88 44.52)">L</text><path class="cls-4" d="M940.44,471a32.28,32.28,0,1,1-64.56,0,32.28,32.28,0,1,1,64.56,0Z"/><rect class="cls-5" x="899.88" y="450.6" width="15.6" height="39.84"/><text class="cls-6" transform="translate(899.88 482.76)">L</text><line class="cls-7" x1="908.04" y1="65.4" x2="908.04" y2="125.16"/><line class="cls-7" x1="908.04" y1="140.04" x2="908.04" y2="154.92"/><line class="cls-7" x1="908.04" y1="170.04" x2="908.04" y2="229.56"/><line class="cls-7" x1="908.04" y1="244.68" x2="908.04" y2="259.56"/><line class="cls-7" x1="908.04" y1="274.44" x2="908.04" y2="334.2"/><line class="cls-7" x1="908.04" y1="349.08" x2="908.04" y2="363.96"/><line class="cls-7" x1="908.04" y1="379.08" x2="908.04" y2="438.84"/><path class="cls-4" d="M961.32,32.76a32.28,32.28,0,1,1-64.56,0,32.28,32.28,0,0,1,64.56,0Z"/><rect class="cls-5" x="916.68" y="12.36" width="23.76" height="39.84"/><text class="cls-6" transform="translate(916.68 44.52)">M</text><path class="cls-4" d="M961.32,471a32.28,32.28,0,1,1-64.56,0,32.28,32.28,0,1,1,64.56,0Z"/><rect class="cls-5" x="916.68" y="450.6" width="23.76" height="39.84"/><text class="cls-6" transform="translate(916.68 482.76)">M</text><line class="cls-7" x1="928.92" y1="65.4" x2="928.92" y2="125.16"/><line class="cls-7" x1="928.92" y1="140.04" x2="928.92" y2="154.92"/><line class="cls-7" x1="928.92" y1="170.04" x2="928.92" y2="229.56"/><line class="cls-7" x1="928.92" y1="244.68" x2="928.92" y2="259.56"/><line class="cls-7" x1="928.92" y1="274.44" x2="928.92" y2="334.2"/><line class="cls-7" x1="928.92" y1="349.08" x2="928.92" y2="363.96"/><line class="cls-7" x1="928.92" y1="379.08" x2="928.92" y2="438.84"/><path class="cls-4" d="M982.2,32.76a32.28,32.28,0,1,1-64.56,0,32.28,32.28,0,0,1,64.56,0Z"/><rect class="cls-5" x="939.24" y="12.36" width="20.4" height="39.84"/><text class="cls-6" transform="translate(939.24 44.52)">N</text><path class="cls-4" d="M982.2,471a32.28,32.28,0,1,1-64.56,0,32.28,32.28,0,1,1,64.56,0Z"/><rect class="cls-5" x="939.24" y="450.6" width="20.4" height="39.84"/><text class="cls-6" transform="translate(939.24 482.76)">N</text><line class="cls-7" x1="949.8" y1="65.4" x2="949.8" y2="125.16"/><line class="cls-7" x1="949.8" y1="140.04" x2="949.8" y2="154.92"/><line class="cls-7" x1="949.8" y1="170.04" x2="949.8" y2="229.56"/><line class="cls-7" x1="949.8" y1="244.68" x2="949.8" y2="259.56"/><line class="cls-7" x1="949.8" y1="274.44" x2="949.8" y2="334.2"/><line class="cls-7" x1="949.8" y1="349.08" x2="949.8" y2="363.96"/><line class="cls-7" x1="949.8" y1="379.08" x2="949.8" y2="438.84"/><path class="cls-4" d="M1003.32,32.76a32.4,32.4,0,0,1-64.8,0,32.4,32.4,0,0,1,64.8,0Z"/><rect class="cls-5" x="959.64" y="12.36" width="22.08" height="39.84"/><text class="cls-6" transform="translate(959.64 44.52)">O</text><path class="cls-4" d="M1003.32,471a32.4,32.4,0,1,1-32.4-32.4A32.57,32.57,0,0,1,1003.32,471Z"/><rect class="cls-5" x="959.64" y="450.6" width="22.08" height="39.84"/><text class="cls-6" transform="translate(959.64 482.76)">O</text><line class="cls-7" x1="970.68" y1="65.4" x2="970.68" y2="125.16"/><line class="cls-7" x1="970.68" y1="140.04" x2="970.68" y2="154.92"/><line class="cls-7" x1="970.68" y1="170.04" x2="970.68" y2="229.56"/><line class="cls-7" x1="970.68" y1="244.68" x2="970.68" y2="259.56"/><line class="cls-7" x1="970.68" y1="274.44" x2="970.68" y2="334.2"/><line class="cls-7" x1="970.68" y1="349.08" x2="970.68" y2="363.96"/><line class="cls-7" x1="970.68" y1="379.08" x2="970.68" y2="438.84"/><path class="cls-4" d="M1024.2,32.76a32.4,32.4,0,0,1-64.8,0,32.4,32.4,0,0,1,64.8,0Z"/><rect class="cls-5" x="981.96" y="12.36" width="18.96" height="39.84"/><text class="cls-6" transform="translate(981.96 44.52)">P</text><path class="cls-4" d="M1024.2,471a32.4,32.4,0,1,1-32.4-32.4A32.57,32.57,0,0,1,1024.2,471Z"/><rect class="cls-5" x="981.96" y="450.6" width="18.96" height="39.84"/><text class="cls-6" transform="translate(981.96 482.76)">P</text><line class="cls-7" x1="991.56" y1="65.4" x2="991.56" y2="125.16"/><line class="cls-7" x1="991.56" y1="140.04" x2="991.56" y2="154.92"/><line class="cls-7" x1="991.56" y1="170.04" x2="991.56" y2="229.56"/><line class="cls-7" x1="991.56" y1="244.68" x2="991.56" y2="259.56"/><line class="cls-7" x1="991.56" y1="274.44" x2="991.56" y2="334.2"/><line class="cls-7" x1="991.56" y1="349.08" x2="991.56" y2="363.96"/><line class="cls-7" x1="991.56" y1="379.08" x2="991.56" y2="438.84"/><path class="cls-4" d="M692.52,406.2a32.4,32.4,0,1,1-32.4-32.4A32.57,32.57,0,0,1,692.52,406.2Z"/><rect class="cls-5" x="643.8" y="385.8" width="31.68" height="39.84"/><text class="cls-6" transform="translate(643.8 417.96)"><tspan class="cls-8">0</tspan><tspan x="15.85" y="0">2</tspan></text><path class="cls-4" d="M1082.76,406.2a32.28,32.28,0,1,1-64.56,0,32.28,32.28,0,1,1,64.56,0Z"/><rect class="cls-5" x="1034.28" y="385.8" width="31.68" height="39.84"/><text class="cls-6" transform="translate(1034.28 417.96)"><tspan class="cls-8">0</tspan><tspan x="15.85" y="0">2</tspan></text><line class="cls-7" x1="692.28" y1="406.2" x2="728.28" y2="406.2"/><line class="cls-7" x1="743.16" y1="406.2" x2="758.04" y2="406.2"/><line class="cls-7" x1="773.16" y1="406.2" x2="832.68" y2="406.2"/><line class="cls-7" x1="847.8" y1="406.2" x2="862.68" y2="406.2"/><line class="cls-7" x1="877.56" y1="406.2" x2="937.32" y2="406.2"/><line class="cls-7" x1="952.2" y1="406.2" x2="967.08" y2="406.2"/><line class="cls-7" x1="982.2" y1="406.2" x2="1017.96" y2="406.2"/><path class="cls-4" d="M692.52,385.32a32.4,32.4,0,1,1-32.4-32.4A32.57,32.57,0,0,1,692.52,385.32Z"/><rect class="cls-5" x="643.8" y="364.92" width="31.68" height="39.84"/><text class="cls-6" transform="translate(643.8 397.08)"><tspan class="cls-8">0</tspan><tspan x="15.85" y="0">3</tspan></text><path class="cls-4" d="M1082.76,385.32a32.28,32.28,0,1,1-64.56,0,32.28,32.28,0,1,1,64.56,0Z"/><rect class="cls-5" x="1034.28" y="364.92" width="31.68" height="39.84"/><text class="cls-6" transform="translate(1034.28 397.08)"><tspan class="cls-8">0</tspan><tspan x="15.85" y="0">3</tspan></text><line class="cls-7" x1="692.28" y1="385.32" x2="728.28" y2="385.32"/><line class="cls-7" x1="743.16" y1="385.32" x2="758.04" y2="385.32"/><line class="cls-7" x1="773.16" y1="385.32" x2="832.68" y2="385.32"/><line class="cls-7" x1="847.8" y1="385.32" x2="862.68" y2="385.32"/><line class="cls-7" x1="877.56" y1="385.32" x2="937.32" y2="385.32"/><line class="cls-7" x1="952.2" y1="385.32" x2="967.08" y2="385.32"/><line class="cls-7" x1="982.2" y1="385.32" x2="1017.96" y2="385.32"/><path class="cls-4" d="M692.52,364.2a32.4,32.4,0,0,1-64.8,0,32.4,32.4,0,0,1,64.8,0Z"/><rect class="cls-5" x="643.8" y="344.04" width="31.68" height="39.84"/><text class="cls-6" transform="translate(643.8 376.2)"><tspan class="cls-8">0</tspan><tspan x="15.85" y="0">4</tspan></text><path class="cls-4" d="M1082.76,364.2a32.28,32.28,0,1,1-64.56,0,32.28,32.28,0,0,1,64.56,0Z"/><rect class="cls-5" x="1034.28" y="344.04" width="31.68" height="39.84"/><text class="cls-6" transform="translate(1034.28 376.2)"><tspan class="cls-8">0</tspan><tspan x="15.85" y="0">4</tspan></text><line class="cls-7" x1="692.28" y1="364.44" x2="728.28" y2="364.44"/><line class="cls-7" x1="743.16" y1="364.44" x2="758.04" y2="364.44"/><line class="cls-7" x1="773.16" y1="364.44" x2="832.68" y2="364.44"/><line class="cls-7" x1="847.8" y1="364.44" x2="862.68" y2="364.44"/><line class="cls-7" x1="877.56" y1="364.44" x2="937.32" y2="364.44"/><line class="cls-7" x1="952.2" y1="364.44" x2="967.08" y2="364.44"/><line class="cls-7" x1="982.2" y1="364.44" x2="1017.96" y2="364.44"/><path class="cls-4" d="M692.52,343.32a32.4,32.4,0,0,1-64.8,0,32.4,32.4,0,0,1,64.8,0Z"/><rect class="cls-5" x="643.8" y="323.16" width="31.68" height="39.84"/><text class="cls-6" transform="translate(643.8 355.32)"><tspan class="cls-8">0</tspan><tspan x="15.85" y="0">5</tspan></text><path class="cls-4" d="M1082.76,343.32a32.28,32.28,0,1,1-64.56,0,32.28,32.28,0,0,1,64.56,0Z"/><rect class="cls-5" x="1034.28" y="323.16" width="31.68" height="39.84"/><text class="cls-6" transform="translate(1034.28 355.32)"><tspan class="cls-8">0</tspan><tspan x="15.85" y="0">5</tspan></text><line class="cls-7" x1="692.28" y1="343.56" x2="728.28" y2="343.56"/><line class="cls-7" x1="743.16" y1="343.56" x2="758.04" y2="343.56"/><line class="cls-7" x1="773.16" y1="343.56" x2="832.68" y2="343.56"/><line class="cls-7" x1="847.8" y1="343.56" x2="862.68" y2="343.56"/><line class="cls-7" x1="877.56" y1="343.56" x2="937.32" y2="343.56"/><line class="cls-7" x1="952.2" y1="343.56" x2="967.08" y2="343.56"/><line class="cls-7" x1="982.2" y1="343.56" x2="1017.96" y2="343.56"/><path class="cls-4" d="M692.52,322.44a32.4,32.4,0,0,1-64.8,0,32.4,32.4,0,0,1,64.8,0Z"/><rect class="cls-5" x="643.8" y="302.28" width="31.68" height="39.84"/><text class="cls-6" transform="translate(643.8 334.44)"><tspan class="cls-8">0</tspan><tspan x="15.85" y="0">6</tspan></text><path class="cls-4" d="M1082.76,322.44a32.28,32.28,0,1,1-64.56,0,32.28,32.28,0,0,1,64.56,0Z"/><rect class="cls-5" x="1034.28" y="302.28" width="31.68" height="39.84"/><text class="cls-6" transform="translate(1034.28 334.44)"><tspan class="cls-8">0</tspan><tspan x="15.85" y="0">6</tspan></text><line class="cls-7" x1="692.28" y1="322.68" x2="728.28" y2="322.68"/><line class="cls-7" x1="743.16" y1="322.68" x2="758.04" y2="322.68"/><line class="cls-7" x1="773.16" y1="322.68" x2="832.68" y2="322.68"/><line class="cls-7" x1="847.8" y1="322.68" x2="862.68" y2="322.68"/><line class="cls-7" x1="877.56" y1="322.68" x2="937.32" y2="322.68"/><line class="cls-7" x1="952.2" y1="322.68" x2="967.08" y2="322.68"/><line class="cls-7" x1="982.2" y1="322.68" x2="1017.96" y2="322.68"/><path class="cls-4" d="M692.52,301.56a32.4,32.4,0,1,1-32.4-32.4A32.57,32.57,0,0,1,692.52,301.56Z"/><rect class="cls-5" x="643.8" y="281.4" width="31.68" height="39.84"/><text class="cls-6" transform="translate(643.8 313.56)"><tspan class="cls-8">0</tspan><tspan x="15.85" y="0">7</tspan></text><path class="cls-4" d="M1082.76,301.56a32.28,32.28,0,1,1-64.56,0,32.28,32.28,0,1,1,64.56,0Z"/><rect class="cls-5" x="1034.28" y="281.4" width="31.68" height="39.84"/><text class="cls-6" transform="translate(1034.28 313.56)"><tspan class="cls-8">0</tspan><tspan x="15.85" y="0">7</tspan></text><line class="cls-7" x1="692.28" y1="301.8" x2="728.28" y2="301.8"/><line class="cls-7" x1="743.16" y1="301.8" x2="758.04" y2="301.8"/><line class="cls-7" x1="773.16" y1="301.8" x2="832.68" y2="301.8"/><line class="cls-7" x1="847.8" y1="301.8" x2="862.68" y2="301.8"/><line class="cls-7" x1="877.56" y1="301.8" x2="937.32" y2="301.8"/><line class="cls-7" x1="952.2" y1="301.8" x2="967.08" y2="301.8"/><line class="cls-7" x1="982.2" y1="301.8" x2="1017.96" y2="301.8"/><path class="cls-4" d="M692.52,280.68a32.4,32.4,0,1,1-32.4-32.4A32.57,32.57,0,0,1,692.52,280.68Z"/><rect class="cls-5" x="643.8" y="260.52" width="31.68" height="39.84"/><text class="cls-6" transform="translate(643.8 292.68)"><tspan class="cls-8">0</tspan><tspan x="15.85" y="0">8</tspan></text><path class="cls-4" d="M1082.76,280.68a32.28,32.28,0,1,1-64.56,0,32.28,32.28,0,1,1,64.56,0Z"/><rect class="cls-5" x="1034.28" y="260.52" width="31.68" height="39.84"/><text class="cls-6" transform="translate(1034.28 292.68)"><tspan class="cls-8">0</tspan><tspan x="15.85" y="0">8</tspan></text><line class="cls-7" x1="692.28" y1="280.92" x2="728.28" y2="280.92"/><line class="cls-7" x1="743.16" y1="280.92" x2="758.04" y2="280.92"/><line class="cls-7" x1="773.16" y1="280.92" x2="832.68" y2="280.92"/><line class="cls-7" x1="847.8" y1="280.92" x2="862.68" y2="280.92"/><line class="cls-7" x1="877.56" y1="280.92" x2="937.32" y2="280.92"/><line class="cls-7" x1="952.2" y1="280.92" x2="967.08" y2="280.92"/><line class="cls-7" x1="982.2" y1="280.92" x2="1017.96" y2="280.92"/><path class="cls-4" d="M692.52,259.8a32.4,32.4,0,1,1-32.4-32.4A32.57,32.57,0,0,1,692.52,259.8Z"/><rect class="cls-5" x="643.8" y="239.4" width="31.68" height="39.84"/><text class="cls-6" transform="translate(643.8 271.56)"><tspan class="cls-8">0</tspan><tspan x="15.85" y="0">9</tspan></text><path class="cls-4" d="M1082.76,259.8a32.28,32.28,0,1,1-64.56,0,32.28,32.28,0,1,1,64.56,0Z"/><rect class="cls-5" x="1034.28" y="239.4" width="31.68" height="39.84"/><text class="cls-6" transform="translate(1034.28 271.56)"><tspan class="cls-8">0</tspan><tspan x="15.85" y="0">9</tspan></text><line class="cls-7" x1="692.28" y1="260.04" x2="728.28" y2="260.04"/><line class="cls-7" x1="743.16" y1="260.04" x2="758.04" y2="260.04"/><line class="cls-7" x1="773.16" y1="260.04" x2="832.68" y2="260.04"/><line class="cls-7" x1="847.8" y1="260.04" x2="862.68" y2="260.04"/><line class="cls-7" x1="877.56" y1="260.04" x2="937.32" y2="260.04"/><line class="cls-7" x1="952.2" y1="260.04" x2="967.08" y2="260.04"/><line class="cls-7" x1="982.2" y1="260.04" x2="1017.96" y2="260.04"/><path class="cls-4" d="M692.52,238.92a32.4,32.4,0,1,1-32.4-32.4A32.57,32.57,0,0,1,692.52,238.92Z"/><rect class="cls-5" x="643.8" y="218.52" width="31.68" height="39.84"/><text class="cls-6" transform="translate(643.8 250.68)"><tspan class="cls-8">1</tspan><tspan x="15.85" y="0">0</tspan></text><path class="cls-4" d="M1082.76,238.92a32.28,32.28,0,1,1-64.56,0,32.28,32.28,0,1,1,64.56,0Z"/><rect class="cls-5" x="1034.28" y="218.52" width="31.68" height="39.84"/><text class="cls-6" transform="translate(1034.28 250.68)"><tspan class="cls-8">1</tspan><tspan x="15.85" y="0">0</tspan></text><line class="cls-7" x1="692.28" y1="238.92" x2="728.28" y2="238.92"/><line class="cls-7" x1="743.16" y1="238.92" x2="758.04" y2="238.92"/><line class="cls-7" x1="773.16" y1="238.92" x2="832.68" y2="238.92"/><line class="cls-7" x1="847.8" y1="238.92" x2="862.68" y2="238.92"/><line class="cls-7" x1="877.56" y1="238.92" x2="937.32" y2="238.92"/><line class="cls-7" x1="952.2" y1="238.92" x2="967.08" y2="238.92"/><line class="cls-7" x1="982.2" y1="238.92" x2="1017.96" y2="238.92"/><path class="cls-4" d="M692.52,218a32.4,32.4,0,1,1-32.4-32.4A32.57,32.57,0,0,1,692.52,218Z"/><rect class="cls-5" x="643.8" y="197.64" width="31.68" height="39.84"/><text class="cls-6" transform="translate(643.8 229.8)"><tspan class="cls-8">1</tspan><tspan x="15.85" y="0">1</tspan></text><path class="cls-4" d="M1082.76,218a32.28,32.28,0,1,1-64.56,0,32.28,32.28,0,1,1,64.56,0Z"/><rect class="cls-5" x="1034.28" y="197.64" width="31.68" height="39.84"/><text class="cls-6" transform="translate(1034.28 229.8)"><tspan class="cls-8">1</tspan><tspan x="15.85" y="0">1</tspan></text><line class="cls-7" x1="692.28" y1="218.04" x2="728.28" y2="218.04"/><line class="cls-7" x1="743.16" y1="218.04" x2="758.04" y2="218.04"/><line class="cls-7" x1="773.16" y1="218.04" x2="832.68" y2="218.04"/><line class="cls-7" x1="847.8" y1="218.04" x2="862.68" y2="218.04"/><line class="cls-7" x1="877.56" y1="218.04" x2="937.32" y2="218.04"/><line class="cls-7" x1="952.2" y1="218.04" x2="967.08" y2="218.04"/><line class="cls-7" x1="982.2" y1="218.04" x2="1017.96" y2="218.04"/><path class="cls-4" d="M692.52,197.16a32.4,32.4,0,1,1-32.4-32.4A32.57,32.57,0,0,1,692.52,197.16Z"/><rect class="cls-5" x="643.8" y="176.76" width="31.68" height="39.84"/><text class="cls-6" transform="translate(643.8 208.92)"><tspan class="cls-8">1</tspan><tspan x="15.85" y="0">2</tspan></text><path class="cls-4" d="M1082.76,197.16a32.28,32.28,0,1,1-64.56,0,32.28,32.28,0,1,1,64.56,0Z"/><rect class="cls-5" x="1034.28" y="176.76" width="31.68" height="39.84"/><text class="cls-6" transform="translate(1034.28 208.92)"><tspan class="cls-8">1</tspan><tspan x="15.85" y="0">2</tspan></text><line class="cls-7" x1="692.28" y1="197.16" x2="728.28" y2="197.16"/><line class="cls-7" x1="743.16" y1="197.16" x2="758.04" y2="197.16"/><line class="cls-7" x1="773.16" y1="197.16" x2="832.68" y2="197.16"/><line class="cls-7" x1="847.8" y1="197.16" x2="862.68" y2="197.16"/><line class="cls-7" x1="877.56" y1="197.16" x2="937.32" y2="197.16"/><line class="cls-7" x1="952.2" y1="197.16" x2="967.08" y2="197.16"/><line class="cls-7" x1="982.2" y1="197.16" x2="1017.96" y2="197.16"/><path class="cls-4" d="M692.52,176a32.4,32.4,0,0,1-64.8,0,32.4,32.4,0,0,1,64.8,0Z"/><rect class="cls-5" x="643.8" y="155.88" width="31.68" height="39.84"/><text class="cls-6" transform="translate(643.8 188.04)"><tspan class="cls-8">1</tspan><tspan x="15.85" y="0">3</tspan></text><path class="cls-4" d="M1082.76,176a32.28,32.28,0,1,1-64.56,0,32.28,32.28,0,0,1,64.56,0Z"/><rect class="cls-5" x="1034.28" y="155.88" width="31.68" height="39.84"/><text class="cls-6" transform="translate(1034.28 188.04)"><tspan class="cls-8">1</tspan><tspan x="15.85" y="0">3</tspan></text><line class="cls-7" x1="692.28" y1="176.28" x2="728.28" y2="176.28"/><line class="cls-7" x1="743.16" y1="176.28" x2="758.04" y2="176.28"/><line class="cls-7" x1="773.16" y1="176.28" x2="832.68" y2="176.28"/><line class="cls-7" x1="847.8" y1="176.28" x2="862.68" y2="176.28"/><line class="cls-7" x1="877.56" y1="176.28" x2="937.32" y2="176.28"/><line class="cls-7" x1="952.2" y1="176.28" x2="967.08" y2="176.28"/><line class="cls-7" x1="982.2" y1="176.28" x2="1017.96" y2="176.28"/><path class="cls-4" d="M692.52,155.16a32.4,32.4,0,0,1-64.8,0,32.4,32.4,0,0,1,64.8,0Z"/><rect class="cls-5" x="643.8" y="135" width="31.68" height="39.84"/><text class="cls-6" transform="translate(643.8 167.16)"><tspan class="cls-8">1</tspan><tspan x="15.85" y="0">4</tspan></text><path class="cls-4" d="M1082.76,155.16a32.28,32.28,0,1,1-64.56,0,32.28,32.28,0,0,1,64.56,0Z"/><rect class="cls-5" x="1034.28" y="135" width="31.68" height="39.84"/><text class="cls-6" transform="translate(1034.28 167.16)"><tspan class="cls-8">1</tspan><tspan x="15.85" y="0">4</tspan></text><line class="cls-7" x1="692.28" y1="155.4" x2="728.28" y2="155.4"/><line class="cls-7" x1="743.16" y1="155.4" x2="758.04" y2="155.4"/><line class="cls-7" x1="773.16" y1="155.4" x2="832.68" y2="155.4"/><line class="cls-7" x1="847.8" y1="155.4" x2="862.68" y2="155.4"/><line class="cls-7" x1="877.56" y1="155.4" x2="937.32" y2="155.4"/><line class="cls-7" x1="952.2" y1="155.4" x2="967.08" y2="155.4"/><line class="cls-7" x1="982.2" y1="155.4" x2="1017.96" y2="155.4"/><path class="cls-4" d="M692.52,134.28a32.4,32.4,0,0,1-64.8,0,32.4,32.4,0,0,1,64.8,0Z"/><rect class="cls-5" x="643.8" y="114.12" width="31.68" height="39.84"/><text class="cls-6" transform="translate(643.8 146.28)"><tspan class="cls-8">1</tspan><tspan x="15.85" y="0">5</tspan></text><path class="cls-4" d="M1082.76,134.28a32.28,32.28,0,1,1-64.56,0,32.28,32.28,0,0,1,64.56,0Z"/><rect class="cls-5" x="1034.28" y="114.12" width="31.68" height="39.84"/><text class="cls-6" transform="translate(1034.28 146.28)"><tspan class="cls-8">1</tspan><tspan x="15.85" y="0">5</tspan></text><line class="cls-7" x1="692.28" y1="134.52" x2="728.28" y2="134.52"/><line class="cls-7" x1="743.16" y1="134.52" x2="758.04" y2="134.52"/><line class="cls-7" x1="773.16" y1="134.52" x2="832.68" y2="134.52"/><line class="cls-7" x1="847.8" y1="134.52" x2="862.68" y2="134.52"/><line class="cls-7" x1="877.56" y1="134.52" x2="937.32" y2="134.52"/><line class="cls-7" x1="952.2" y1="134.52" x2="967.08" y2="134.52"/><line class="cls-7" x1="982.2" y1="134.52" x2="1017.96" y2="134.52"/><path class="cls-4" d="M692.52,113.4A32.4,32.4,0,1,1,660.12,81,32.57,32.57,0,0,1,692.52,113.4Z"/><rect class="cls-5" x="643.8" y="93.24" width="31.68" height="39.84"/><text class="cls-6" transform="translate(643.8 125.4)"><tspan class="cls-8">1</tspan><tspan x="15.85" y="0">6</tspan></text><path class="cls-4" d="M1082.76,113.4a32.28,32.28,0,1,1-64.56,0,32.28,32.28,0,1,1,64.56,0Z"/><rect class="cls-5" x="1034.28" y="93.24" width="31.68" height="39.84"/><text class="cls-6" transform="translate(1034.28 125.4)"><tspan class="cls-8">1</tspan><tspan x="15.85" y="0">6</tspan></text><line class="cls-7" x1="692.28" y1="113.64" x2="728.28" y2="113.64"/><line class="cls-7" x1="743.16" y1="113.64" x2="758.04" y2="113.64"/><line class="cls-7" x1="773.16" y1="113.64" x2="832.68" y2="113.64"/><line class="cls-7" x1="847.8" y1="113.64" x2="862.68" y2="113.64"/><line class="cls-7" x1="877.56" y1="113.64" x2="937.32" y2="113.64"/><line class="cls-7" x1="952.2" y1="113.64" x2="967.08" y2="113.64"/><line class="cls-7" x1="982.2" y1="113.64" x2="1017.96" y2="113.64"/><path class="cls-4" d="M692.52,92.52a32.4,32.4,0,1,1-32.4-32.4A32.57,32.57,0,0,1,692.52,92.52Z"/><rect class="cls-5" x="643.8" y="72.36" width="31.68" height="39.84"/><text class="cls-6" transform="translate(643.8 104.52)"><tspan class="cls-8">1</tspan><tspan x="15.85" y="0">7</tspan></text><path class="cls-4" d="M1083,92.52a32.4,32.4,0,1,1-32.4-32.4A32.57,32.57,0,0,1,1083,92.52Z"/><rect class="cls-5" x="1034.28" y="72.36" width="31.68" height="39.84"/><text class="cls-6" transform="translate(1034.28 104.52)"><tspan class="cls-8">1</tspan><tspan x="15.85" y="0">7</tspan></text><line class="cls-7" x1="692.28" y1="92.76" x2="728.28" y2="92.76"/><line class="cls-7" x1="743.16" y1="92.76" x2="758.04" y2="92.76"/><line class="cls-7" x1="773.16" y1="92.76" x2="832.68" y2="92.76"/><line class="cls-7" x1="847.8" y1="92.76" x2="862.68" y2="92.76"/><line class="cls-7" x1="877.56" y1="92.76" x2="937.32" y2="92.76"/><line class="cls-7" x1="952.2" y1="92.76" x2="967.08" y2="92.76"/><line class="cls-7" x1="982.2" y1="92.76" x2="1017.96" y2="92.76"/><path class="cls-4" d="M692.52,71.64a32.4,32.4,0,1,1-32.4-32.4A32.57,32.57,0,0,1,692.52,71.64Z"/><rect class="cls-5" x="643.8" y="51.24" width="31.68" height="39.84"/><text class="cls-6" transform="translate(643.8 83.4)"><tspan class="cls-8">1</tspan><tspan x="15.85" y="0">8</tspan></text><path class="cls-4" d="M1083,71.64a32.4,32.4,0,1,1-32.4-32.4A32.57,32.57,0,0,1,1083,71.64Z"/><rect class="cls-5" x="1034.28" y="51.24" width="31.68" height="39.84"/><text class="cls-6" transform="translate(1034.28 83.4)"><tspan class="cls-8">1</tspan><tspan x="15.85" y="0">8</tspan></text><line class="cls-7" x1="692.28" y1="71.88" x2="728.28" y2="71.88"/><line class="cls-7" x1="743.16" y1="71.88" x2="758.04" y2="71.88"/><line class="cls-7" x1="773.16" y1="71.88" x2="832.68" y2="71.88"/><line class="cls-7" x1="847.8" y1="71.88" x2="862.68" y2="71.88"/><line class="cls-7" x1="877.56" y1="71.88" x2="937.32" y2="71.88"/><line class="cls-7" x1="952.2" y1="71.88" x2="967.08" y2="71.88"/><line class="cls-7" x1="982.2" y1="71.88" x2="1017.96" y2="71.88"/><path class="cls-4" d="M1031.64,32.76a32.4,32.4,0,0,1-64.8,0,32.4,32.4,0,0,1,64.8,0Z"/><rect class="cls-5" x="987.96" y="12.36" width="22.08" height="39.84"/><text class="cls-6" transform="translate(987.96 44.52)">Q</text><path class="cls-4" d="M1031.64,471a32.4,32.4,0,1,1-32.4-32.4A32.57,32.57,0,0,1,1031.64,471Z"/><rect class="cls-5" x="987.96" y="450.6" width="22.08" height="39.84"/><text class="cls-6" transform="translate(987.96 482.76)">Q</text><line class="cls-7" x1="999.24" y1="65.4" x2="999.24" y2="125.16"/><line class="cls-7" x1="999.24" y1="140.04" x2="999.24" y2="154.92"/><line class="cls-7" x1="999.24" y1="170.04" x2="999.24" y2="229.56"/><line class="cls-7" x1="999.24" y1="244.68" x2="999.24" y2="259.56"/><line class="cls-7" x1="999.24" y1="274.44" x2="999.24" y2="334.2"/><line class="cls-7" x1="999.24" y1="349.08" x2="999.24" y2="363.96"/><line class="cls-7" x1="999.24" y1="379.08" x2="999.24" y2="438.84"/></g></g></svg>