<svg xmlns="http://www.w3.org/2000/svg" xmlns:xlink="http://www.w3.org/1999/xlink" viewBox="0 0 285 337.32"><defs><style>.cls-1,.cls-14,.cls-15,.cls-16,.cls-17,.cls-2{fill:none;}.cls-1{clip-rule:evenodd;}.cls-3{clip-path:url(#clip-path);}.cls-4{clip-path:url(#clip-path-2);}.cls-5{fill:#c6d3b4;}.cls-11,.cls-6{font-size:4.08px;font-family:ArialMT, Arial;}.cls-11,.cls-7{letter-spacing:-0.03em;}.cls-8{letter-spacing:0.02em;}.cls-9{letter-spacing:-0.09em;}.cls-10{letter-spacing:0.02em;}.cls-12{letter-spacing:-0.04em;}.cls-13{letter-spacing:0em;}.cls-14,.cls-15{stroke:#000;}.cls-14,.cls-15,.cls-16,.cls-17{stroke-linecap:round;stroke-linejoin:round;}.cls-14,.cls-17{stroke-width:0.24px;}.cls-15,.cls-16{stroke-width:0.48px;}.cls-16,.cls-17{stroke:red;}.cls-18{fill:#fff;}.cls-19,.cls-29{font-size:8.05px;fill:red;font-family:ArialNarrow, Arial;}.cls-20{letter-spacing:-0.01em;}.cls-21{letter-spacing:-0.03em;}.cls-22{letter-spacing:0em;}.cls-23{letter-spacing:-0.02em;}.cls-24,.cls-29{letter-spacing:-0.01em;}.cls-25{letter-spacing:0em;}.cls-26{letter-spacing:0.01em;}.cls-27{letter-spacing:0em;}.cls-28{letter-spacing:0.01em;}.cls-30{letter-spacing:0em;}</style><clipPath id="clip-path" transform="translate(-176.85 -155.28)"><path class="cls-1" d="M271.41,219.6l-.24.24-.48.24-.48.48-.24.72V273.6h.24v.72h.24l.24.24.48.24.24.24.48.24,110.16.24,10.08.24v-.24l1-.24.72-.24,1-1,.24-.72.24-51.84H395v-.72l-1.2-1.2m-209-56.4v251h94.08V385.92l53.76-53.76h8.64V331h11v-1.44H352v-1.44h-.24v-1.44h-.24V325.2h-.24v-5.76l-.24-.24a10.67,10.67,0,0,1,2.16-6.24l.48-1,1.68-1.68.24-.48.48-.24.24-.24.48-.24.24-.24.48-.24.48-.48.72-.24,1.92-1,2.88-.72h6.24l2.88.72c2.58,1.23,5.18,2.46,7,4.8v.48h.24l.24.24V313h.24v.48h.24l.24.24v.48h.24v.48h.24v.48h.24v.72h.24v.72H382v.72h.24L382,325l-1,5.76,11,.24v1.2h7v-169Z"/></clipPath><clipPath id="clip-path-2" transform="translate(-176.85 -155.28)"><rect class="cls-2" width="1191.12" height="841.92"/></clipPath></defs><title>SP-Room_Bed_Size</title><g id="Layer_2" data-name="Layer 2"><g id="Layer_1-2" data-name="Layer 1"><g class="cls-3"><g class="cls-4"><rect class="cls-5" x="7.92" y="7.92" width="214.32" height="251.04"/></g></g><text class="cls-6" transform="translate(124.08 127.68)">?</text><text class="cls-6" transform="translate(114.48 140.4)"><tspan class="cls-7">3900</tspan><tspan class="cls-8" x="8.64" y="0"> </tspan><tspan class="cls-9" x="9.84" y="0">x</tspan><tspan class="cls-10" x="11.52" y="0"> </tspan><tspan class="cls-7" x="12.72" y="0">455</tspan><tspan x="19.2" y="0">0</tspan></text><text class="cls-6" transform="translate(121.92 132)"><tspan class="cls-7">5</tspan><tspan class="cls-10" x="2.16" y="0">.</tspan><tspan class="cls-7" x="3.36" y="0">5</tspan><tspan x="5.52" y="0">0</tspan></text><text class="cls-11" transform="translate(113.28 136.08)">15<tspan class="cls-8" x="4.32" y="0">.</tspan><tspan x="5.52" y="0">09</tspan><tspan class="cls-8" x="9.84" y="0"> </tspan><tspan class="cls-12" x="11.04" y="0">(</tspan><tspan x="12.24" y="0">14</tspan><tspan class="cls-8" x="16.55" y="0">.</tspan><tspan x="17.75" y="0">09</tspan><tspan class="cls-13" x="22.07" y="0">)</tspan></text><text class="cls-6" transform="translate(124.08 123.36)">?</text><polyline class="cls-14" points="68.16 262.32 69.12 254.88 71.52 247.68 75.6 241.2 81.12 235.68 87.36 231.84 94.56 229.2 102.24 228.48"/><polyline class="cls-14" points="99.36 262.32 99.36 228.48 102.24 228.48 102.24 262.32 99.36 262.32"/><polyline class="cls-14" points="68.16 262.32 67.44 252.48 64.8 242.88 60.48 234 54.96 225.84 47.76 218.64 39.6 213.12 30.72 208.8 21.12 206.16 11.28 205.44"/><polyline class="cls-14" points="14.16 262.32 14.16 205.44 11.28 205.44 11.28 262.32 14.16 262.32"/><polyline class="cls-14" points="102.24 258.96 11.28 258.96 11.28 265.68 102.24 265.68 102.24 258.96 11.28 258.96 11.28 265.68 102.24 265.68 102.24 258.96"/><polyline class="cls-14" points="102 258.96 7.92 258.96 7.92 7.92 222.24 7.92 222.24 176.88 156 176.88 102 230.88 102 258.96"/><polyline class="cls-14" points="228.96 0.96 0.96 0.96 0.96 265.68 108.72 265.68 108.72 233.76 158.88 183.6 228.96 183.6 228.96 0.96"/><line class="cls-14" x1="7.92" y1="7.92" x2="7.92" y2="10.08"/><line class="cls-14" x1="7.92" y1="11.76" x2="7.92" y2="13.92"/><line class="cls-14" x1="7.92" y1="15.6" x2="7.92" y2="17.76"/><line class="cls-14" x1="7.92" y1="19.44" x2="7.92" y2="21.6"/><line class="cls-14" x1="7.92" y1="23.28" x2="7.92" y2="25.44"/><line class="cls-14" x1="7.92" y1="27.12" x2="7.92" y2="29.28"/><line class="cls-14" x1="7.92" y1="30.96" x2="7.92" y2="33.12"/><line class="cls-14" x1="7.92" y1="34.8" x2="7.92" y2="36.96"/><line class="cls-14" x1="7.92" y1="38.64" x2="7.92" y2="40.8"/><line class="cls-14" x1="7.92" y1="42.48" x2="7.92" y2="44.64"/><line class="cls-14" x1="7.92" y1="46.32" x2="7.92" y2="48.24"/><line class="cls-14" x1="7.92" y1="50.16" x2="7.92" y2="52.08"/><line class="cls-14" x1="7.92" y1="54" x2="7.92" y2="55.92"/><line class="cls-14" x1="7.92" y1="57.6" x2="7.92" y2="59.76"/><line class="cls-14" x1="7.92" y1="61.44" x2="7.92" y2="63.6"/><line class="cls-14" x1="7.92" y1="65.28" x2="7.92" y2="67.44"/><line class="cls-14" x1="7.92" y1="69.12" x2="7.92" y2="71.28"/><line class="cls-14" x1="7.92" y1="72.96" x2="7.92" y2="75.12"/><line class="cls-14" x1="7.92" y1="76.8" x2="7.92" y2="78.96"/><line class="cls-14" x1="7.92" y1="80.64" x2="7.92" y2="82.8"/><line class="cls-14" x1="7.92" y1="84.48" x2="7.92" y2="86.64"/><line class="cls-14" x1="7.92" y1="88.32" x2="7.92" y2="90.48"/><line class="cls-14" x1="7.92" y1="92.16" x2="7.92" y2="94.32"/><line class="cls-14" x1="7.92" y1="96" x2="7.92" y2="98.16"/><line class="cls-14" x1="7.92" y1="99.84" x2="7.92" y2="102"/><line class="cls-14" x1="7.92" y1="103.68" x2="7.92" y2="105.84"/><line class="cls-14" x1="7.92" y1="107.52" x2="7.92" y2="109.68"/><line class="cls-14" x1="7.92" y1="111.36" x2="7.92" y2="113.52"/><line class="cls-14" x1="7.92" y1="115.2" x2="7.92" y2="117.36"/><line class="cls-14" x1="7.92" y1="119.04" x2="7.92" y2="120.96"/><line class="cls-14" x1="7.92" y1="122.88" x2="7.92" y2="124.8"/><line class="cls-14" x1="7.92" y1="126.48" x2="7.92" y2="128.64"/><line class="cls-14" x1="7.92" y1="130.32" x2="7.92" y2="132.48"/><line class="cls-14" x1="7.92" y1="134.16" x2="7.92" y2="136.32"/><line class="cls-14" x1="7.92" y1="138" x2="7.92" y2="140.16"/><line class="cls-14" x1="7.92" y1="141.84" x2="7.92" y2="144"/><line class="cls-14" x1="7.92" y1="145.68" x2="7.92" y2="147.84"/><line class="cls-14" x1="7.92" y1="149.52" x2="7.92" y2="151.68"/><line class="cls-14" x1="7.92" y1="153.36" x2="7.92" y2="155.52"/><line class="cls-14" x1="7.92" y1="157.2" x2="7.92" y2="159.36"/><line class="cls-14" x1="7.92" y1="161.04" x2="7.92" y2="163.2"/><line class="cls-14" x1="7.92" y1="164.88" x2="7.92" y2="167.04"/><line class="cls-14" x1="7.92" y1="168.72" x2="7.92" y2="170.88"/><line class="cls-14" x1="7.92" y1="172.56" x2="7.92" y2="174.72"/><line class="cls-14" x1="7.92" y1="176.4" x2="7.92" y2="178.56"/><line class="cls-14" x1="7.92" y1="180.24" x2="7.92" y2="182.4"/><line class="cls-14" x1="7.92" y1="184.08" x2="7.92" y2="186.24"/><line class="cls-14" x1="7.92" y1="187.92" x2="7.92" y2="189.84"/><line class="cls-14" x1="7.92" y1="191.76" x2="7.92" y2="193.68"/><line class="cls-14" x1="7.92" y1="195.6" x2="7.92" y2="197.52"/><line class="cls-14" x1="7.92" y1="199.2" x2="7.92" y2="201.36"/><line class="cls-14" x1="7.92" y1="203.04" x2="7.92" y2="205.2"/><line class="cls-14" x1="7.92" y1="206.88" x2="7.92" y2="209.04"/><line class="cls-14" x1="7.92" y1="210.72" x2="7.92" y2="212.88"/><line class="cls-14" x1="7.92" y1="214.56" x2="7.92" y2="216.72"/><line class="cls-14" x1="7.92" y1="218.4" x2="7.92" y2="220.56"/><line class="cls-14" x1="7.92" y1="222.24" x2="7.92" y2="224.4"/><line class="cls-14" x1="7.92" y1="226.08" x2="7.92" y2="228.24"/><line class="cls-14" x1="7.92" y1="229.92" x2="7.92" y2="232.08"/><line class="cls-14" x1="7.92" y1="233.76" x2="7.92" y2="235.92"/><line class="cls-14" x1="7.92" y1="237.6" x2="7.92" y2="239.76"/><line class="cls-14" x1="7.92" y1="241.44" x2="7.92" y2="243.6"/><line class="cls-14" x1="7.92" y1="245.28" x2="7.92" y2="247.44"/><line class="cls-14" x1="7.92" y1="249.12" x2="7.92" y2="251.28"/><line class="cls-14" x1="7.92" y1="252.96" x2="7.92" y2="255.12"/><polyline class="cls-14" points="7.92 256.8 7.92 258.96 10.08 258.96"/><line class="cls-14" x1="11.76" y1="258.96" x2="13.92" y2="258.96"/><line class="cls-14" x1="15.6" y1="258.96" x2="17.76" y2="258.96"/><line class="cls-14" x1="19.44" y1="258.96" x2="21.6" y2="258.96"/><line class="cls-14" x1="23.28" y1="258.96" x2="25.44" y2="258.96"/><line class="cls-14" x1="27.12" y1="258.96" x2="29.04" y2="258.96"/><line class="cls-14" x1="30.96" y1="258.96" x2="32.88" y2="258.96"/><line class="cls-14" x1="34.8" y1="258.96" x2="36.72" y2="258.96"/><line class="cls-14" x1="38.4" y1="258.96" x2="40.56" y2="258.96"/><line class="cls-14" x1="42.24" y1="258.96" x2="44.4" y2="258.96"/><line class="cls-14" x1="46.08" y1="258.96" x2="48.24" y2="258.96"/><line class="cls-14" x1="49.92" y1="258.96" x2="52.08" y2="258.96"/><line class="cls-14" x1="53.76" y1="258.96" x2="55.92" y2="258.96"/><line class="cls-14" x1="57.6" y1="258.96" x2="59.76" y2="258.96"/><line class="cls-14" x1="61.44" y1="258.96" x2="63.6" y2="258.96"/><line class="cls-14" x1="65.28" y1="258.96" x2="67.44" y2="258.96"/><line class="cls-14" x1="69.12" y1="258.96" x2="71.28" y2="258.96"/><line class="cls-14" x1="72.96" y1="258.96" x2="75.12" y2="258.96"/><line class="cls-14" x1="76.8" y1="258.96" x2="78.96" y2="258.96"/><line class="cls-14" x1="80.64" y1="258.96" x2="82.8" y2="258.96"/><line class="cls-14" x1="84.48" y1="258.96" x2="86.64" y2="258.96"/><line class="cls-14" x1="88.32" y1="258.96" x2="90.48" y2="258.96"/><line class="cls-14" x1="92.16" y1="258.96" x2="94.32" y2="258.96"/><line class="cls-14" x1="96" y1="258.96" x2="97.92" y2="258.96"/><polyline class="cls-14" points="99.84 258.96 102 258.96 102 257.28"/><line class="cls-14" x1="102" y1="255.6" x2="102" y2="253.44"/><line class="cls-14" x1="102" y1="251.76" x2="102" y2="249.6"/><line class="cls-14" x1="102" y1="247.92" x2="102" y2="245.76"/><line class="cls-14" x1="102" y1="244.08" x2="102" y2="241.92"/><line class="cls-14" x1="102" y1="240.24" x2="102" y2="238.08"/><line class="cls-14" x1="102" y1="236.4" x2="102" y2="234.24"/><polyline class="cls-14" points="102 232.56 102 230.88 102.72 230.16"/><line class="cls-14" x1="103.92" y1="228.96" x2="105.36" y2="227.52"/><line class="cls-14" x1="106.56" y1="226.32" x2="108" y2="224.64"/><line class="cls-14" x1="109.2" y1="223.44" x2="110.88" y2="222"/><line class="cls-14" x1="112.08" y1="220.8" x2="113.52" y2="219.36"/><line class="cls-14" x1="114.72" y1="218.16" x2="116.16" y2="216.72"/><line class="cls-14" x1="117.36" y1="215.52" x2="119.04" y2="213.84"/><line class="cls-14" x1="120.24" y1="212.64" x2="121.68" y2="211.2"/><line class="cls-14" x1="122.88" y1="210" x2="124.32" y2="208.56"/><line class="cls-14" x1="125.52" y1="207.36" x2="126.96" y2="205.92"/><line class="cls-14" x1="128.16" y1="204.48" x2="129.84" y2="203.04"/><line class="cls-14" x1="131.04" y1="201.84" x2="132.48" y2="200.4"/><line class="cls-14" x1="133.68" y1="199.2" x2="135.12" y2="197.76"/><line class="cls-14" x1="136.32" y1="196.56" x2="138" y2="194.88"/><line class="cls-14" x1="139.2" y1="193.68" x2="140.64" y2="192.24"/><line class="cls-14" x1="141.84" y1="191.04" x2="143.28" y2="189.6"/><line class="cls-14" x1="144.48" y1="188.4" x2="145.92" y2="186.96"/><line class="cls-14" x1="147.12" y1="185.76" x2="148.8" y2="184.08"/><line class="cls-14" x1="150" y1="182.88" x2="151.44" y2="181.44"/><line class="cls-14" x1="152.64" y1="180.24" x2="154.08" y2="178.8"/><polyline class="cls-14" points="155.28 177.6 156 176.88 157.44 176.88"/><line class="cls-14" x1="159.12" y1="176.88" x2="161.28" y2="176.88"/><line class="cls-14" x1="162.96" y1="176.88" x2="164.4" y2="176.88"/><line class="cls-14" x1="215.28" y1="176.88" x2="217.92" y2="176.88"/><polyline class="cls-14" points="219.6 176.88 222.24 176.88 222.24 175.44"/><line class="cls-14" x1="222.24" y1="173.76" x2="222.24" y2="171.6"/><line class="cls-14" x1="222.24" y1="169.92" x2="222.24" y2="167.76"/><line class="cls-14" x1="222.24" y1="166.08" x2="222.24" y2="163.92"/><line class="cls-14" x1="222.24" y1="162.24" x2="222.24" y2="160.08"/><line class="cls-14" x1="222.24" y1="158.4" x2="222.24" y2="156.24"/><line class="cls-14" x1="222.24" y1="154.56" x2="222.24" y2="152.4"/><line class="cls-14" x1="222.24" y1="150.72" x2="222.24" y2="148.56"/><line class="cls-14" x1="222.24" y1="146.88" x2="222.24" y2="144.72"/><line class="cls-14" x1="222.24" y1="143.04" x2="222.24" y2="140.88"/><line class="cls-14" x1="222.24" y1="139.2" x2="222.24" y2="137.04"/><line class="cls-14" x1="222.24" y1="135.36" x2="222.24" y2="133.44"/><line class="cls-14" x1="222.24" y1="131.52" x2="222.24" y2="129.6"/><line class="cls-14" x1="222.24" y1="127.92" x2="222.24" y2="125.76"/><line class="cls-14" x1="222.24" y1="124.08" x2="222.24" y2="121.92"/><line class="cls-14" x1="222.24" y1="120.24" x2="222.24" y2="118.08"/><line class="cls-14" x1="222.24" y1="116.4" x2="222.24" y2="114.24"/><line class="cls-14" x1="222.24" y1="112.56" x2="222.24" y2="110.4"/><line class="cls-14" x1="222.24" y1="108.72" x2="222.24" y2="106.56"/><line class="cls-14" x1="222.24" y1="104.88" x2="222.24" y2="102.72"/><line class="cls-14" x1="222.24" y1="101.04" x2="222.24" y2="98.88"/><line class="cls-14" x1="222.24" y1="97.2" x2="222.24" y2="95.04"/><line class="cls-14" x1="222.24" y1="93.36" x2="222.24" y2="91.2"/><line class="cls-14" x1="222.24" y1="89.52" x2="222.24" y2="87.36"/><line class="cls-14" x1="222.24" y1="85.68" x2="222.24" y2="83.52"/><line class="cls-14" x1="222.24" y1="81.84" x2="222.24" y2="79.68"/><line class="cls-14" x1="222.24" y1="78" x2="222.24" y2="75.84"/><line class="cls-14" x1="222.24" y1="74.16" x2="222.24" y2="72"/><line class="cls-14" x1="222.24" y1="70.32" x2="222.24" y2="68.16"/><line class="cls-14" x1="222.24" y1="66.48" x2="222.24" y2="64.56"/><line class="cls-14" x1="222.24" y1="62.64" x2="222.24" y2="60.72"/><line class="cls-14" x1="222.24" y1="58.8" x2="222.24" y2="56.88"/><line class="cls-14" x1="222.24" y1="55.2" x2="222.24" y2="53.04"/><line class="cls-14" x1="222.24" y1="51.36" x2="222.24" y2="49.2"/><line class="cls-14" x1="222.24" y1="47.52" x2="222.24" y2="45.36"/><line class="cls-14" x1="222.24" y1="43.68" x2="222.24" y2="41.52"/><line class="cls-14" x1="222.24" y1="39.84" x2="222.24" y2="37.68"/><line class="cls-14" x1="222.24" y1="36" x2="222.24" y2="33.84"/><line class="cls-14" x1="222.24" y1="32.16" x2="222.24" y2="30"/><line class="cls-14" x1="222.24" y1="28.32" x2="222.24" y2="26.16"/><line class="cls-14" x1="222.24" y1="24.48" x2="222.24" y2="22.32"/><line class="cls-14" x1="222.24" y1="20.64" x2="222.24" y2="18.48"/><line class="cls-14" x1="222.24" y1="16.8" x2="222.24" y2="14.64"/><line class="cls-14" x1="222.24" y1="12.96" x2="222.24" y2="10.8"/><polyline class="cls-14" points="222.24 9.12 222.24 7.92 221.04 7.92"/><line class="cls-14" x1="219.36" y1="7.92" x2="217.2" y2="7.92"/><line class="cls-14" x1="215.52" y1="7.92" x2="213.36" y2="7.92"/><line class="cls-14" x1="211.68" y1="7.92" x2="209.52" y2="7.92"/><line class="cls-14" x1="207.84" y1="7.92" x2="205.68" y2="7.92"/><line class="cls-14" x1="204" y1="7.92" x2="201.84" y2="7.92"/><line class="cls-14" x1="200.16" y1="7.92" x2="198" y2="7.92"/><line class="cls-14" x1="196.32" y1="7.92" x2="194.16" y2="7.92"/><line class="cls-14" x1="192.48" y1="7.92" x2="190.56" y2="7.92"/><line class="cls-14" x1="188.64" y1="7.92" x2="186.72" y2="7.92"/><line class="cls-14" x1="185.04" y1="7.92" x2="182.88" y2="7.92"/><line class="cls-14" x1="181.2" y1="7.92" x2="179.04" y2="7.92"/><line class="cls-14" x1="177.36" y1="7.92" x2="175.2" y2="7.92"/><line class="cls-14" x1="173.52" y1="7.92" x2="171.36" y2="7.92"/><line class="cls-14" x1="169.68" y1="7.92" x2="167.52" y2="7.92"/><line class="cls-14" x1="165.84" y1="7.92" x2="163.68" y2="7.92"/><line class="cls-14" x1="162" y1="7.92" x2="159.84" y2="7.92"/><line class="cls-14" x1="158.16" y1="7.92" x2="156" y2="7.92"/><line class="cls-14" x1="154.32" y1="7.92" x2="152.16" y2="7.92"/><line class="cls-14" x1="150.48" y1="7.92" x2="148.32" y2="7.92"/><line class="cls-14" x1="146.64" y1="7.92" x2="144.48" y2="7.92"/><line class="cls-14" x1="142.8" y1="7.92" x2="140.64" y2="7.92"/><line class="cls-14" x1="138.96" y1="7.92" x2="136.8" y2="7.92"/><line class="cls-14" x1="135.12" y1="7.92" x2="132.96" y2="7.92"/><line class="cls-14" x1="131.28" y1="7.92" x2="129.12" y2="7.92"/><line class="cls-14" x1="127.44" y1="7.92" x2="125.28" y2="7.92"/><line class="cls-14" x1="123.6" y1="7.92" x2="121.68" y2="7.92"/><line class="cls-14" x1="119.76" y1="7.92" x2="117.84" y2="7.92"/><line class="cls-14" x1="115.92" y1="7.92" x2="114" y2="7.92"/><line class="cls-14" x1="112.32" y1="7.92" x2="110.16" y2="7.92"/><line class="cls-14" x1="108.48" y1="7.92" x2="106.32" y2="7.92"/><line class="cls-14" x1="104.64" y1="7.92" x2="102.48" y2="7.92"/><line class="cls-14" x1="100.8" y1="7.92" x2="98.64" y2="7.92"/><line class="cls-14" x1="96.96" y1="7.92" x2="94.8" y2="7.92"/><line class="cls-14" x1="93.12" y1="7.92" x2="90.96" y2="7.92"/><line class="cls-14" x1="89.28" y1="7.92" x2="87.12" y2="7.92"/><line class="cls-14" x1="85.44" y1="7.92" x2="83.28" y2="7.92"/><line class="cls-14" x1="81.6" y1="7.92" x2="79.44" y2="7.92"/><line class="cls-14" x1="77.76" y1="7.92" x2="75.6" y2="7.92"/><line class="cls-14" x1="73.92" y1="7.92" x2="71.76" y2="7.92"/><line class="cls-14" x1="70.08" y1="7.92" x2="67.92" y2="7.92"/><line class="cls-14" x1="66.24" y1="7.92" x2="64.08" y2="7.92"/><line class="cls-14" x1="62.4" y1="7.92" x2="60.24" y2="7.92"/><line class="cls-14" x1="58.56" y1="7.92" x2="56.4" y2="7.92"/><line class="cls-14" x1="54.72" y1="7.92" x2="52.8" y2="7.92"/><line class="cls-14" x1="50.88" y1="7.92" x2="48.96" y2="7.92"/><line class="cls-14" x1="47.04" y1="7.92" x2="45.12" y2="7.92"/><line class="cls-14" x1="43.44" y1="7.92" x2="41.28" y2="7.92"/><line class="cls-14" x1="39.6" y1="7.92" x2="37.44" y2="7.92"/><line class="cls-14" x1="35.76" y1="7.92" x2="33.6" y2="7.92"/><line class="cls-14" x1="31.92" y1="7.92" x2="29.76" y2="7.92"/><line class="cls-14" x1="28.08" y1="7.92" x2="25.92" y2="7.92"/><line class="cls-14" x1="24.24" y1="7.92" x2="22.08" y2="7.92"/><line class="cls-14" x1="20.4" y1="7.92" x2="18.24" y2="7.92"/><line class="cls-14" x1="16.56" y1="7.92" x2="14.4" y2="7.92"/><line class="cls-14" x1="12.72" y1="7.92" x2="10.56" y2="7.92"/><line class="cls-14" x1="8.88" y1="7.92" x2="7.92" y2="7.92"/><line class="cls-14" x1="95.76" y1="120.48" x2="215.52" y2="120.48"/><polyline class="cls-14" points="93.12 117.6 93.84 119.52 95.76 120.48"/><line class="cls-14" x1="93.12" y1="66.96" x2="93.12" y2="117.6"/><polyline class="cls-14" points="95.76 64.32 93.84 65.04 93.12 66.96"/><line class="cls-14" x1="215.52" y1="64.32" x2="95.76" y2="64.32"/><polyline class="cls-14" points="218.4 66.96 217.44 65.04 215.52 64.32"/><line class="cls-14" x1="218.4" y1="117.6" x2="218.4" y2="66.96"/><polyline class="cls-14" points="215.52 120.48 217.44 119.52 218.4 117.6"/><polyline class="cls-15" points="186.72 64.32 186.72 65.52 214.32 65.52 214.32 64.32 186.72 64.32"/><polyline class="cls-15" points="100.56 119.04 100.56 120.48 140.88 120.48 140.88 119.04 100.56 119.04"/><polyline class="cls-15" points="186.96 119.04 186.96 120.48 214.32 120.48 214.32 119.04 186.96 119.04"/><line class="cls-15" x1="94.8" y1="114.96" x2="93.36" y2="114.96"/><line class="cls-15" x1="94.8" y1="69.6" x2="94.8" y2="114.96"/><line class="cls-15" x1="93.36" y1="69.6" x2="94.8" y2="69.6"/><line class="cls-15" x1="93.36" y1="114.96" x2="93.36" y2="69.6"/><line class="cls-15" x1="216.48" y1="114.72" x2="217.92" y2="114.72"/><line class="cls-15" x1="216.48" y1="69.6" x2="216.48" y2="114.72"/><line class="cls-15" x1="217.92" y1="69.6" x2="216.48" y2="69.6"/><line class="cls-15" x1="217.92" y1="114.72" x2="217.92" y2="69.6"/><line class="cls-15" x1="189.84" y1="69.12" x2="213.6" y2="69.12"/><line class="cls-15" x1="189.84" y1="115.68" x2="189.84" y2="69.12"/><line class="cls-15" x1="213.6" y1="115.68" x2="189.84" y2="115.68"/><line class="cls-15" x1="213.6" y1="69.12" x2="213.6" y2="115.68"/><line class="cls-15" x1="97.92" y1="118.32" x2="213.36" y2="118.32"/><polyline class="cls-15" points="95.28 115.44 96 117.36 97.92 118.32"/><line class="cls-15" x1="95.28" y1="69.12" x2="95.28" y2="115.44"/><polyline class="cls-15" points="97.92 66.48 96 67.2 95.28 69.12"/><line class="cls-15" x1="213.36" y1="66.48" x2="97.92" y2="66.48"/><polyline class="cls-15" points="216.24 69.12 215.28 67.2 213.36 66.48"/><line class="cls-15" x1="216.24" y1="115.44" x2="216.24" y2="69.12"/><polyline class="cls-15" points="213.36 118.32 215.28 117.36 216.24 115.44"/><polyline class="cls-15" points="218.4 117.6 218.4 66.96 218.16 66.24 217.92 65.52 217.44 65.04 216.96 64.56 216.24 64.32 215.52 64.32 95.76 64.32 95.04 64.32 94.56 64.56 93.84 65.04 93.36 65.52 93.12 66.24 93.12 66.96 93.12 117.6 93.12 118.32 93.36 119.04 93.84 119.52 94.56 120 95.04 120.24 95.76 120.48 215.52 120.48 216.24 120.24 216.96 120 217.44 119.52 217.92 119.04 218.16 118.32 218.4 117.6"/><polyline class="cls-15" points="179.28 168.48 180.48 168.72 182.16 168.72"/><polyline class="cls-15" points="200.4 168.48 198.96 168.72 197.52 168.72"/><line class="cls-15" x1="176.4" y1="165.12" x2="176.4" y2="165.84"/><polyline class="cls-15" points="176.4 165.12 176.16 163.68 176.4 162"/><polyline class="cls-15" points="179.28 168.48 177.36 167.52 176.4 165.84"/><line class="cls-15" x1="203.28" y1="165.12" x2="203.04" y2="165.84"/><polyline class="cls-15" points="203.28 165.12 203.28 163.68 203.04 162"/><polyline class="cls-15" points="200.4 168.48 202.08 167.52 203.04 165.84"/><line class="cls-14" x1="204" y1="176.88" x2="175.68" y2="176.88"/><polyline class="cls-14" points="204.24 159.36 202.8 156.96 200.88 154.8"/><polyline class="cls-14" points="205.44 164.4 205.2 161.76 204.24 159.36"/><polyline class="cls-14" points="204 176.88 204.96 170.64 205.44 164.16"/><polyline class="cls-14" points="174.24 164.16 174.48 170.64 175.68 176.88"/><polyline class="cls-14" points="195.84 151.92 192.96 151.2 189.84 150.96"/><polyline class="cls-14" points="200.88 154.8 198.48 153.12 195.84 151.92"/><polyline class="cls-14" points="175.44 159.36 174.48 161.76 174.24 164.4"/><polyline class="cls-14" points="178.8 154.8 176.88 156.96 175.44 159.36"/><polyline class="cls-14" points="183.84 151.92 181.2 153.12 178.8 154.8"/><polyline class="cls-14" points="189.84 150.96 186.72 151.2 183.84 151.92"/><polyline class="cls-15" points="175.44 175.68 204.24 175.68 205.2 169.92 205.44 164.16 205.2 161.76 204.24 159.36 202.8 156.96 200.88 154.8 198.48 153.12 195.84 151.92 192.96 151.2 189.84 150.96 186.72 151.2 183.84 151.92 181.2 153.12 178.8 154.8 176.88 156.96 175.44 159.36 174.48 161.76 174.24 164.16 174.48 169.92 175.44 175.68"/><polyline class="cls-15" points="164.4 176.88 215.28 176.88 215.28 175.68 164.4 175.68 164.4 176.88"/><line class="cls-16" x1="157.44" y1="180.24" x2="157.44" y2="186.48"/><line class="cls-16" x1="157.44" y1="197.76" x2="157.44" y2="209.04"/><line class="cls-16" x1="157.44" y1="220.32" x2="157.44" y2="231.84"/><line class="cls-16" x1="157.44" y1="243.12" x2="157.44" y2="254.4"/><line class="cls-16" x1="157.44" y1="265.68" x2="157.44" y2="271.92"/><line class="cls-16" x1="225.6" y1="180.24" x2="225.6" y2="186.48"/><line class="cls-16" x1="225.6" y1="197.76" x2="225.6" y2="209.04"/><line class="cls-16" x1="225.6" y1="220.32" x2="225.6" y2="231.84"/><line class="cls-16" x1="225.6" y1="243.12" x2="225.6" y2="254.4"/><line class="cls-16" x1="225.6" y1="265.68" x2="225.6" y2="271.92"/><line class="cls-16" x1="105.36" y1="262.56" x2="105.36" y2="270.96"/><line class="cls-16" x1="105.36" y1="282.24" x2="105.36" y2="290.88"/><line class="cls-16" x1="4.32" y1="262.32" x2="4.32" y2="272.88"/><line class="cls-16" x1="4.32" y1="284.16" x2="4.32" y2="295.44"/><line class="cls-16" x1="4.32" y1="306.96" x2="4.32" y2="317.28"/><line class="cls-16" x1="105.36" y1="262.56" x2="120" y2="262.56"/><line class="cls-16" x1="131.52" y1="262.56" x2="142.8" y2="262.56"/><line class="cls-16" x1="154.08" y1="262.56" x2="165.36" y2="262.56"/><line class="cls-16" x1="176.88" y1="262.56" x2="188.16" y2="262.56"/><line class="cls-16" x1="199.44" y1="262.56" x2="210.72" y2="262.56"/><line class="cls-16" x1="222.24" y1="262.56" x2="236.88" y2="262.56"/><line class="cls-16" x1="105.12" y1="232.32" x2="120" y2="232.32"/><line class="cls-16" x1="131.28" y1="232.32" x2="142.56" y2="232.32"/><line class="cls-16" x1="153.84" y1="232.32" x2="165.36" y2="232.32"/><line class="cls-16" x1="176.64" y1="232.32" x2="187.92" y2="232.32"/><line class="cls-16" x1="199.2" y1="232.32" x2="210.72" y2="232.32"/><line class="cls-16" x1="222" y1="232.32" x2="236.88" y2="232.32"/><line class="cls-16" x1="225.6" y1="180.24" x2="236.88" y2="180.24"/><line class="cls-16" x1="223.2" y1="4.32" x2="236.88" y2="4.32"/><line class="cls-17" x1="4.32" y1="330.24" x2="225.6" y2="330.24"/><line class="cls-16" x1="225.6" y1="330.24" x2="221.28" y2="334.56"/><line class="cls-16" x1="225.6" y1="330.24" x2="229.68" y2="325.92"/><line class="cls-17" x1="225.6" y1="330.24" x2="225.6" y2="337.2"/><line class="cls-17" x1="225.6" y1="330.24" x2="225.6" y2="316.08"/><line class="cls-16" x1="4.32" y1="330.24" x2="0.24" y2="334.56"/><line class="cls-16" x1="4.32" y1="330.24" x2="8.64" y2="325.92"/><line class="cls-17" x1="4.32" y1="330.24" x2="4.32" y2="337.2"/><line class="cls-17" x1="4.32" y1="330.24" x2="4.32" y2="316.08"/><rect class="cls-18" x="100.56" y="316.8" width="28.56" height="8.88"/><text class="cls-19" transform="translate(100.56 324)"><tspan class="cls-20">SP_</tspan><tspan class="cls-21" x="12.26" y="0">W</tspan><tspan class="cls-22" x="18.27" y="0">i</tspan><tspan class="cls-20" x="19.72" y="0">d</tspan><tspan class="cls-23" x="23.32" y="0">t</tspan><tspan x="25" y="0">h</tspan></text><line class="cls-17" x1="254.64" y1="4.32" x2="254.64" y2="180.24"/><line class="cls-16" x1="254.64" y1="180.24" x2="250.56" y2="175.92"/><line class="cls-16" x1="254.64" y1="180.24" x2="258.96" y2="184.32"/><line class="cls-17" x1="254.64" y1="180.24" x2="261.84" y2="180.24"/><line class="cls-17" x1="254.64" y1="180.24" x2="240.48" y2="180.24"/><line class="cls-16" x1="254.64" y1="4.32" x2="250.56" y2="0.24"/><line class="cls-16" x1="254.64" y1="4.32" x2="258.96" y2="8.64"/><line class="cls-17" x1="254.64" y1="4.32" x2="261.84" y2="4.32"/><line class="cls-17" x1="254.64" y1="4.32" x2="240.48" y2="4.32"/><rect class="cls-18" x="241.2" y="73.68" width="9.6" height="37.2"/><text class="cls-19" transform="translate(248.88 110.64) rotate(-90)"><tspan class="cls-24">SP_</tspan><tspan class="cls-25" x="12.27" y="0">D</tspan><tspan class="cls-24" x="17.06" y="0">ep</tspan><tspan class="cls-26" x="24.27" y="0">t</tspan><tspan class="cls-24" x="26.18" y="0">h_</tspan><tspan x="33.38" y="0">1</tspan></text><line class="cls-17" x1="254.64" y1="232.32" x2="254.64" y2="262.32"/><line class="cls-16" x1="254.64" y1="262.32" x2="250.56" y2="258.24"/><line class="cls-16" x1="254.64" y1="262.32" x2="258.96" y2="266.64"/><line class="cls-17" x1="254.64" y1="262.32" x2="261.84" y2="262.32"/><line class="cls-17" x1="254.64" y1="262.32" x2="240.48" y2="262.32"/><line class="cls-16" x1="254.64" y1="232.32" x2="250.56" y2="228"/><line class="cls-16" x1="254.64" y1="232.32" x2="258.96" y2="236.64"/><line class="cls-17" x1="254.64" y1="232.32" x2="261.84" y2="232.32"/><line class="cls-17" x1="254.64" y1="232.32" x2="240.48" y2="232.32"/><rect class="cls-18" x="230.16" y="228.72" width="9.6" height="37.2"/><text class="cls-19" transform="translate(237.84 265.68) rotate(-90)"><tspan class="cls-20">SP_</tspan><tspan class="cls-27" x="12.26" y="0">D</tspan><tspan class="cls-20" x="17.06" y="0">ep</tspan><tspan class="cls-28" x="24.26" y="0">t</tspan><tspan class="cls-20" x="26.18" y="0">h_</tspan><tspan x="33.38" y="0">2</tspan></text><line class="cls-17" x1="277.68" y1="4.32" x2="277.68" y2="262.32"/><line class="cls-16" x1="277.68" y1="262.32" x2="273.36" y2="258.24"/><line class="cls-16" x1="277.68" y1="262.32" x2="282" y2="266.64"/><line class="cls-17" x1="277.68" y1="262.32" x2="284.88" y2="262.32"/><line class="cls-17" x1="277.68" y1="262.32" x2="263.52" y2="262.32"/><line class="cls-16" x1="277.68" y1="4.32" x2="273.36" y2="0.24"/><line class="cls-16" x1="277.68" y1="4.32" x2="282" y2="8.64"/><line class="cls-17" x1="277.68" y1="4.32" x2="284.88" y2="4.32"/><line class="cls-17" x1="277.68" y1="4.32" x2="263.52" y2="4.32"/><rect class="cls-18" x="264.24" y="118.32" width="9.6" height="30"/><text class="cls-29" transform="translate(271.92 148.08) rotate(-90)">SP_<tspan class="cls-25" x="12.27" y="0">D</tspan><tspan x="17.06" y="0">ep</tspan><tspan class="cls-26" x="24.27" y="0">t</tspan><tspan class="cls-30" x="26.18" y="0">h</tspan></text><line class="cls-17" x1="157.44" y1="286.08" x2="225.6" y2="286.08"/><line class="cls-16" x1="225.6" y1="286.08" x2="221.28" y2="290.4"/><line class="cls-16" x1="225.6" y1="286.08" x2="229.68" y2="281.76"/><line class="cls-17" x1="225.6" y1="286.08" x2="225.6" y2="293.04"/><line class="cls-17" x1="225.6" y1="286.08" x2="225.6" y2="271.92"/><line class="cls-16" x1="157.44" y1="286.08" x2="153.36" y2="290.4"/><line class="cls-16" x1="157.44" y1="286.08" x2="161.76" y2="281.76"/><line class="cls-17" x1="157.44" y1="286.08" x2="157.44" y2="293.04"/><line class="cls-17" x1="157.44" y1="286.08" x2="157.44" y2="271.92"/><rect class="cls-18" x="173.52" y="272.64" width="35.76" height="8.88"/><text class="cls-19" transform="translate(173.52 279.84)"><tspan class="cls-20">SP_</tspan><tspan class="cls-21" x="12.26" y="0">W</tspan><tspan class="cls-22" x="18.27" y="0">i</tspan><tspan class="cls-20" x="19.72" y="0">d</tspan><tspan class="cls-23" x="23.32" y="0">t</tspan><tspan class="cls-20" x="25" y="0">h_</tspan><tspan x="32.2" y="0">2</tspan></text><line class="cls-17" x1="105.12" y1="308.88" x2="225.6" y2="308.88"/><line class="cls-16" x1="225.6" y1="308.88" x2="221.28" y2="313.2"/><line class="cls-16" x1="225.6" y1="308.88" x2="229.68" y2="304.8"/><line class="cls-17" x1="225.6" y1="308.88" x2="225.6" y2="316.08"/><line class="cls-17" x1="225.6" y1="308.88" x2="225.6" y2="294.72"/><line class="cls-16" x1="105.12" y1="308.88" x2="100.8" y2="313.2"/><line class="cls-16" x1="105.12" y1="308.88" x2="109.2" y2="304.8"/><line class="cls-17" x1="105.12" y1="308.88" x2="105.12" y2="316.08"/><line class="cls-17" x1="105.12" y1="308.88" x2="105.12" y2="294.72"/><rect class="cls-18" x="147.36" y="295.44" width="35.76" height="8.88"/><text class="cls-19" transform="translate(147.36 302.64)"><tspan class="cls-20">SP_</tspan><tspan class="cls-21" x="12.26" y="0">W</tspan><tspan class="cls-22" x="18.27" y="0">i</tspan><tspan class="cls-20" x="19.72" y="0">d</tspan><tspan class="cls-23" x="23.32" y="0">t</tspan><tspan class="cls-20" x="25" y="0">h_</tspan><tspan x="32.2" y="0">1</tspan></text></g></g></svg>