<svg xmlns="http://www.w3.org/2000/svg" xmlns:xlink="http://www.w3.org/1999/xlink" viewBox="0 0 187.68 167.76"><defs><style>.cls-1,.cls-2,.cls-6,.cls-7,.cls-8{fill:none;}.cls-1{clip-rule:evenodd;}.cls-3{clip-path:url(#clip-path);}.cls-4{clip-path:url(#clip-path-2);}.cls-5{fill:#c6d3b4;}.cls-6{stroke:red;}.cls-6,.cls-7,.cls-8{stroke-linecap:round;stroke-linejoin:round;}.cls-6,.cls-7{stroke-width:0.24px;}.cls-7,.cls-8{stroke:#000;}.cls-8{stroke-width:0.48px;}</style><clipPath id="clip-path" transform="translate(0 -427.08)"><path class="cls-1" d="M119.64,464.4l-.48.24-.48.48V491h.24v.72h.24l.24.24.48.24,60,.24v-.24l.72-.24.48-.48.24-26.4-.72-.72m-173.52,0-.48.24-.24.48L6.12,490.8l.24.24v.72H6.6l.24.24.72.24,59.76.24v-.24L68,492l.48-.24.24-26.88-.48-.48Zm-3.6-33.84v105.6H36.6L63.48,563v28.32H124.2V563l26.88-26.88H184.2V430.56Z"/></clipPath><clipPath id="clip-path-2" transform="translate(0 -427.08)"><rect class="cls-2" x="0.13" width="841.92" height="595.2"/></clipPath></defs><title>ROOM-BED-TWO ENS</title><g id="Layer_2" data-name="Layer 2"><g id="Layer_1-2" data-name="Layer 1"><g class="cls-3"><g class="cls-4"><rect class="cls-5" x="3.48" y="3.48" width="180.72" height="160.8"/></g></g><line class="cls-6" x1="35.64" y1="110.76" x2="37.32" y2="112.44"/><line class="cls-6" x1="38.52" y1="113.64" x2="39.96" y2="115.08"/><line class="cls-6" x1="41.16" y1="116.28" x2="42.84" y2="117.72"/><line class="cls-6" x1="44.04" y1="118.92" x2="45.48" y2="120.6"/><line class="cls-6" x1="46.68" y1="121.8" x2="48.12" y2="123.24"/><line class="cls-6" x1="49.32" y1="124.44" x2="50.76" y2="125.88"/><line class="cls-6" x1="51.96" y1="127.08" x2="53.64" y2="128.76"/><line class="cls-6" x1="54.84" y1="129.96" x2="56.28" y2="131.4"/><line class="cls-6" x1="57.48" y1="132.6" x2="58.92" y2="134.04"/><line class="cls-6" x1="60.12" y1="135.24" x2="61.8" y2="136.92"/><line class="cls-6" x1="61.8" y1="165.96" x2="61.8" y2="163.8"/><line class="cls-6" x1="61.8" y1="162.12" x2="61.8" y2="159.96"/><line class="cls-6" x1="61.8" y1="158.28" x2="61.8" y2="156.12"/><line class="cls-6" x1="61.8" y1="154.44" x2="61.8" y2="152.28"/><line class="cls-6" x1="61.8" y1="150.6" x2="61.8" y2="148.44"/><line class="cls-6" x1="61.8" y1="146.76" x2="61.8" y2="144.6"/><line class="cls-6" x1="61.8" y1="142.92" x2="61.8" y2="140.76"/><line class="cls-6" x1="61.8" y1="139.08" x2="61.8" y2="136.92"/><line class="cls-6" x1="1.8" y1="110.76" x2="4.44" y2="110.76"/><line class="cls-6" x1="6.12" y1="110.76" x2="8.28" y2="110.76"/><line class="cls-6" x1="9.96" y1="110.76" x2="12.12" y2="110.76"/><line class="cls-6" x1="13.8" y1="110.76" x2="15.96" y2="110.76"/><line class="cls-6" x1="17.64" y1="110.76" x2="19.8" y2="110.76"/><line class="cls-6" x1="21.48" y1="110.76" x2="23.64" y2="110.76"/><line class="cls-6" x1="25.32" y1="110.76" x2="27.48" y2="110.76"/><line class="cls-6" x1="29.16" y1="110.76" x2="31.32" y2="110.76"/><line class="cls-6" x1="33" y1="110.76" x2="35.64" y2="110.76"/><line class="cls-6" x1="125.88" y1="165.96" x2="123.96" y2="165.96"/><line class="cls-6" x1="122.28" y1="165.96" x2="120.12" y2="165.96"/><line class="cls-6" x1="118.44" y1="165.96" x2="116.28" y2="165.96"/><line class="cls-6" x1="114.6" y1="165.96" x2="112.92" y2="165.96"/><line class="cls-6" x1="1.8" y1="110.76" x2="1.8" y2="108.84"/><line class="cls-6" x1="1.8" y1="107.16" x2="1.8" y2="105"/><line class="cls-6" x1="1.8" y1="103.32" x2="1.8" y2="101.16"/><line class="cls-6" x1="1.8" y1="99.48" x2="1.8" y2="97.32"/><line class="cls-6" x1="1.8" y1="95.64" x2="1.8" y2="93.48"/><line class="cls-6" x1="1.8" y1="91.8" x2="1.8" y2="89.64"/><line class="cls-6" x1="1.8" y1="87.96" x2="1.8" y2="85.8"/><line class="cls-6" x1="1.8" y1="84.12" x2="1.8" y2="81.96"/><line class="cls-6" x1="1.8" y1="80.28" x2="1.8" y2="78.12"/><line class="cls-6" x1="1.8" y1="76.44" x2="1.8" y2="74.28"/><line class="cls-6" x1="1.8" y1="72.6" x2="1.8" y2="70.44"/><line class="cls-6" x1="1.8" y1="68.76" x2="1.8" y2="66.6"/><line class="cls-6" x1="1.8" y1="64.92" x2="1.8" y2="62.76"/><line class="cls-6" x1="1.8" y1="61.08" x2="1.8" y2="58.92"/><line class="cls-6" x1="1.8" y1="57.24" x2="1.8" y2="55.32"/><line class="cls-6" x1="1.8" y1="53.4" x2="1.8" y2="51.48"/><line class="cls-6" x1="1.8" y1="49.8" x2="1.8" y2="47.64"/><line class="cls-6" x1="1.8" y1="45.96" x2="1.8" y2="43.8"/><line class="cls-6" x1="1.8" y1="42.12" x2="1.8" y2="39.96"/><line class="cls-6" x1="1.8" y1="38.28" x2="1.8" y2="36.12"/><line class="cls-6" x1="1.8" y1="34.44" x2="1.8" y2="32.28"/><line class="cls-6" x1="1.8" y1="30.6" x2="1.8" y2="28.44"/><line class="cls-6" x1="1.8" y1="26.76" x2="1.8" y2="24.6"/><line class="cls-6" x1="1.8" y1="22.92" x2="1.8" y2="20.76"/><line class="cls-6" x1="1.8" y1="19.08" x2="1.8" y2="16.92"/><line class="cls-6" x1="1.8" y1="15.24" x2="1.8" y2="13.08"/><line class="cls-6" x1="1.8" y1="11.4" x2="1.8" y2="9.24"/><line class="cls-6" x1="1.8" y1="7.56" x2="1.8" y2="5.4"/><line class="cls-6" x1="1.8" y1="3.72" x2="1.8" y2="1.8"/><line class="cls-6" x1="67.32" y1="165.96" x2="65.4" y2="165.96"/><line class="cls-6" x1="63.72" y1="165.96" x2="61.8" y2="165.96"/><line class="cls-6" x1="125.88" y1="136.92" x2="125.88" y2="139.08"/><line class="cls-6" x1="125.88" y1="140.76" x2="125.88" y2="142.92"/><line class="cls-6" x1="125.88" y1="144.6" x2="125.88" y2="146.76"/><line class="cls-6" x1="125.88" y1="148.44" x2="125.88" y2="150.6"/><line class="cls-6" x1="125.88" y1="152.28" x2="125.88" y2="154.44"/><line class="cls-6" x1="125.88" y1="156.12" x2="125.88" y2="158.28"/><line class="cls-6" x1="125.88" y1="159.96" x2="125.88" y2="162.12"/><line class="cls-6" x1="125.88" y1="163.8" x2="125.88" y2="165.96"/><line class="cls-6" x1="151.8" y1="110.76" x2="150.36" y2="112.44"/><line class="cls-6" x1="149.16" y1="113.64" x2="147.48" y2="115.08"/><line class="cls-6" x1="146.28" y1="116.28" x2="144.84" y2="117.72"/><line class="cls-6" x1="143.64" y1="118.92" x2="142.2" y2="120.6"/><line class="cls-6" x1="141" y1="121.8" x2="139.32" y2="123.24"/><line class="cls-6" x1="138.12" y1="124.44" x2="136.68" y2="125.88"/><line class="cls-6" x1="135.48" y1="127.08" x2="134.04" y2="128.76"/><line class="cls-6" x1="132.84" y1="129.96" x2="131.4" y2="131.4"/><line class="cls-6" x1="130.2" y1="132.6" x2="128.52" y2="134.04"/><line class="cls-6" x1="127.32" y1="135.24" x2="125.88" y2="136.92"/><line class="cls-6" x1="185.88" y1="110.76" x2="183" y2="110.76"/><line class="cls-6" x1="181.32" y1="110.76" x2="179.16" y2="110.76"/><line class="cls-6" x1="177.48" y1="110.76" x2="175.56" y2="110.76"/><line class="cls-6" x1="173.64" y1="110.76" x2="171.72" y2="110.76"/><line class="cls-6" x1="169.8" y1="110.76" x2="167.88" y2="110.76"/><line class="cls-6" x1="166.2" y1="110.76" x2="164.04" y2="110.76"/><line class="cls-6" x1="162.36" y1="110.76" x2="160.2" y2="110.76"/><line class="cls-6" x1="158.52" y1="110.76" x2="156.36" y2="110.76"/><line class="cls-6" x1="154.68" y1="110.76" x2="151.8" y2="110.76"/><line class="cls-6" x1="185.88" y1="1.8" x2="185.88" y2="3.72"/><line class="cls-6" x1="185.88" y1="5.4" x2="185.88" y2="7.56"/><line class="cls-6" x1="185.88" y1="9.24" x2="185.88" y2="11.4"/><line class="cls-6" x1="185.88" y1="13.08" x2="185.88" y2="15.24"/><line class="cls-6" x1="185.88" y1="16.92" x2="185.88" y2="19.08"/><line class="cls-6" x1="185.88" y1="20.76" x2="185.88" y2="22.92"/><line class="cls-6" x1="185.88" y1="24.6" x2="185.88" y2="26.76"/><line class="cls-6" x1="185.88" y1="28.44" x2="185.88" y2="30.6"/><line class="cls-6" x1="185.88" y1="32.28" x2="185.88" y2="34.44"/><line class="cls-6" x1="185.88" y1="36.12" x2="185.88" y2="38.28"/><line class="cls-6" x1="185.88" y1="39.96" x2="185.88" y2="42.12"/><line class="cls-6" x1="185.88" y1="43.8" x2="185.88" y2="45.96"/><line class="cls-6" x1="185.88" y1="47.64" x2="185.88" y2="49.8"/><line class="cls-6" x1="185.88" y1="51.48" x2="185.88" y2="53.4"/><line class="cls-6" x1="185.88" y1="55.32" x2="185.88" y2="57.24"/><line class="cls-6" x1="185.88" y1="58.92" x2="185.88" y2="61.08"/><line class="cls-6" x1="185.88" y1="62.76" x2="185.88" y2="64.92"/><line class="cls-6" x1="185.88" y1="66.6" x2="185.88" y2="68.76"/><line class="cls-6" x1="185.88" y1="70.44" x2="185.88" y2="72.6"/><line class="cls-6" x1="185.88" y1="74.28" x2="185.88" y2="76.44"/><line class="cls-6" x1="185.88" y1="78.12" x2="185.88" y2="80.28"/><line class="cls-6" x1="185.88" y1="81.96" x2="185.88" y2="84.12"/><line class="cls-6" x1="185.88" y1="85.8" x2="185.88" y2="87.96"/><line class="cls-6" x1="185.88" y1="89.64" x2="185.88" y2="91.8"/><line class="cls-6" x1="185.88" y1="93.48" x2="185.88" y2="95.64"/><line class="cls-6" x1="185.88" y1="97.32" x2="185.88" y2="99.48"/><line class="cls-6" x1="185.88" y1="101.16" x2="185.88" y2="103.32"/><line class="cls-6" x1="185.88" y1="105" x2="185.88" y2="107.16"/><line class="cls-6" x1="185.88" y1="108.84" x2="185.88" y2="110.76"/><line class="cls-6" x1="1.8" y1="1.8" x2="3" y2="1.8"/><line class="cls-6" x1="4.68" y1="1.8" x2="6.84" y2="1.8"/><line class="cls-6" x1="8.52" y1="1.8" x2="10.68" y2="1.8"/><line class="cls-6" x1="12.36" y1="1.8" x2="14.52" y2="1.8"/><line class="cls-6" x1="16.2" y1="1.8" x2="18.36" y2="1.8"/><line class="cls-6" x1="20.04" y1="1.8" x2="22.2" y2="1.8"/><line class="cls-6" x1="23.88" y1="1.8" x2="26.04" y2="1.8"/><line class="cls-6" x1="27.72" y1="1.8" x2="29.88" y2="1.8"/><line class="cls-6" x1="31.56" y1="1.8" x2="33.72" y2="1.8"/><line class="cls-6" x1="35.4" y1="1.8" x2="37.56" y2="1.8"/><line class="cls-6" x1="39.24" y1="1.8" x2="41.4" y2="1.8"/><line class="cls-6" x1="43.08" y1="1.8" x2="45" y2="1.8"/><line class="cls-6" x1="46.92" y1="1.8" x2="48.84" y2="1.8"/><line class="cls-6" x1="50.76" y1="1.8" x2="52.68" y2="1.8"/><line class="cls-6" x1="54.36" y1="1.8" x2="56.52" y2="1.8"/><line class="cls-6" x1="58.2" y1="1.8" x2="60.36" y2="1.8"/><line class="cls-6" x1="62.04" y1="1.8" x2="64.2" y2="1.8"/><line class="cls-6" x1="65.88" y1="1.8" x2="68.04" y2="1.8"/><line class="cls-6" x1="69.72" y1="1.8" x2="71.88" y2="1.8"/><line class="cls-6" x1="73.56" y1="1.8" x2="75.72" y2="1.8"/><line class="cls-6" x1="77.4" y1="1.8" x2="79.56" y2="1.8"/><line class="cls-6" x1="81.24" y1="1.8" x2="83.4" y2="1.8"/><line class="cls-6" x1="85.08" y1="1.8" x2="87.24" y2="1.8"/><line class="cls-6" x1="88.92" y1="1.8" x2="91.08" y2="1.8"/><line class="cls-6" x1="92.76" y1="1.8" x2="94.92" y2="1.8"/><line class="cls-6" x1="96.6" y1="1.8" x2="98.76" y2="1.8"/><line class="cls-6" x1="100.44" y1="1.8" x2="102.6" y2="1.8"/><line class="cls-6" x1="104.28" y1="1.8" x2="106.2" y2="1.8"/><line class="cls-6" x1="108.12" y1="1.8" x2="110.04" y2="1.8"/><line class="cls-6" x1="111.72" y1="1.8" x2="113.88" y2="1.8"/><line class="cls-6" x1="115.56" y1="1.8" x2="117.72" y2="1.8"/><line class="cls-6" x1="119.4" y1="1.8" x2="121.56" y2="1.8"/><line class="cls-6" x1="123.24" y1="1.8" x2="125.4" y2="1.8"/><line class="cls-6" x1="127.08" y1="1.8" x2="129.24" y2="1.8"/><line class="cls-6" x1="130.92" y1="1.8" x2="133.08" y2="1.8"/><line class="cls-6" x1="134.76" y1="1.8" x2="136.92" y2="1.8"/><line class="cls-6" x1="138.6" y1="1.8" x2="140.76" y2="1.8"/><line class="cls-6" x1="142.44" y1="1.8" x2="144.6" y2="1.8"/><line class="cls-6" x1="146.28" y1="1.8" x2="148.44" y2="1.8"/><line class="cls-6" x1="150.12" y1="1.8" x2="152.28" y2="1.8"/><line class="cls-6" x1="153.96" y1="1.8" x2="156.12" y2="1.8"/><line class="cls-6" x1="157.8" y1="1.8" x2="159.96" y2="1.8"/><line class="cls-6" x1="161.64" y1="1.8" x2="163.8" y2="1.8"/><line class="cls-6" x1="165.48" y1="1.8" x2="167.4" y2="1.8"/><line class="cls-6" x1="169.32" y1="1.8" x2="171.24" y2="1.8"/><line class="cls-6" x1="172.92" y1="1.8" x2="175.08" y2="1.8"/><line class="cls-6" x1="176.76" y1="1.8" x2="178.92" y2="1.8"/><line class="cls-6" x1="180.6" y1="1.8" x2="182.76" y2="1.8"/><line class="cls-6" x1="184.44" y1="1.8" x2="185.88" y2="1.8"/><polyline class="cls-7" points="95.88 165.96 96.84 160.92 99.24 156.12 102.84 152.28 107.64 149.88 112.92 149.16"/><polyline class="cls-7" points="95.88 165.96 96.84 160.92 99.24 156.12 102.84 152.28 107.64 149.88 112.92 149.16"/><line class="cls-7" x1="112.92" y1="165.96" x2="112.92" y2="149.16"/><polyline class="cls-7" points="111.48 165.96 111.48 149.16 112.92 149.16 112.92 165.96 111.48 165.96"/><polyline class="cls-7" points="95.88 165.96 95.16 159.72 93 153.72 89.64 148.2 85.08 143.88 79.8 140.52 73.8 138.36 67.32 137.64"/><polyline class="cls-7" points="95.88 165.96 95.16 159.72 93 153.72 89.64 148.2 85.08 143.88 79.8 140.52 73.8 138.36 67.32 137.64"/><line class="cls-7" x1="67.32" y1="165.96" x2="67.32" y2="137.64"/><polyline class="cls-7" points="68.76 165.96 68.76 137.64 67.32 137.64 67.32 165.96 68.76 165.96"/><polyline class="cls-7" points="124.2 164.28 63.48 164.28 63.48 136.2 36.36 109.08 3.48 109.08 3.48 3.48 184.2 3.48 184.2 109.08 151.08 109.08 124.2 136.2 124.2 164.28"/><polyline class="cls-7" points="187.56 0.12 0.12 0.12 0.12 112.44 34.92 112.44"/><polyline class="cls-7" points="34.92 112.44 60.12 137.64 60.12 167.64 127.56 167.64 127.56 137.64 152.52 112.44 187.56 112.44 187.56 0.12"/><line class="cls-7" x1="67.32" y1="37.32" x2="7.56" y2="37.32"/><polyline class="cls-7" points="68.76 38.76 68.52 37.8 67.32 37.32"/><line class="cls-7" x1="68.76" y1="63.96" x2="68.76" y2="38.76"/><polyline class="cls-7" points="67.32 65.4 68.52 64.92 68.76 63.96"/><line class="cls-7" x1="7.56" y1="65.4" x2="67.32" y2="65.4"/><polyline class="cls-7" points="6.12 63.96 6.6 64.92 7.56 65.4"/><line class="cls-7" x1="6.12" y1="38.76" x2="6.12" y2="63.96"/><polyline class="cls-7" points="7.56 37.32 6.6 37.8 6.12 38.76"/><polyline class="cls-8" points="21.96 65.4 21.96 64.68 8.28 64.68 8.28 65.4 21.96 65.4"/><polyline class="cls-8" points="65.16 38.04 65.16 37.32 45 37.32 45 38.04 65.16 38.04"/><polyline class="cls-8" points="21.96 38.04 21.96 37.32 8.28 37.32 8.28 38.04 21.96 38.04"/><line class="cls-8" x1="67.8" y1="39.96" x2="68.52" y2="39.96"/><line class="cls-8" x1="67.8" y1="62.76" x2="67.8" y2="39.96"/><line class="cls-8" x1="68.52" y1="62.76" x2="67.8" y2="62.76"/><line class="cls-8" x1="68.52" y1="39.96" x2="68.52" y2="62.76"/><line class="cls-8" x1="7.08" y1="39.96" x2="6.36" y2="39.96"/><line class="cls-8" x1="7.08" y1="62.76" x2="7.08" y2="39.96"/><line class="cls-8" x1="6.36" y1="62.76" x2="7.08" y2="62.76"/><line class="cls-8" x1="6.36" y1="39.96" x2="6.36" y2="62.76"/><line class="cls-8" x1="20.52" y1="62.76" x2="8.52" y2="62.76"/><line class="cls-8" x1="20.52" y1="39.72" x2="20.52" y2="62.76"/><line class="cls-8" x1="8.52" y1="39.72" x2="20.52" y2="39.72"/><line class="cls-8" x1="8.52" y1="62.76" x2="8.52" y2="39.72"/><line class="cls-8" x1="66.36" y1="38.28" x2="8.76" y2="38.28"/><polyline class="cls-8" points="67.8 39.72 67.32 38.76 66.36 38.28"/><line class="cls-8" x1="67.8" y1="62.76" x2="67.8" y2="39.72"/><polyline class="cls-8" points="66.36 64.2 67.32 63.96 67.8 62.76"/><line class="cls-8" x1="8.76" y1="64.2" x2="66.36" y2="64.2"/><polyline class="cls-8" points="7.32 62.76 7.8 63.96 8.76 64.2"/><line class="cls-8" x1="7.32" y1="39.72" x2="7.32" y2="62.76"/><polyline class="cls-8" points="8.76 38.28 7.8 38.76 7.32 39.72"/><polyline class="cls-8" points="6.12 38.76 6.12 63.96 6.36 64.2 6.36 64.68 6.6 64.92 6.84 65.16 7.32 65.4 7.56 65.4 67.32 65.4 67.8 65.4 68.04 65.16 68.52 64.92 68.76 64.68 68.76 64.2 68.76 63.96 68.76 38.76 68.76 38.28 68.76 38.04 68.52 37.8 68.04 37.56 67.8 37.32 67.32 37.32 7.56 37.32 7.32 37.32 6.84 37.56 6.6 37.8 6.36 38.04 6.36 38.28 6.12 38.76"/><line class="cls-7" x1="120.12" y1="37.32" x2="179.88" y2="37.32"/><polyline class="cls-7" points="118.68 38.76 119.16 37.8 120.12 37.32"/><line class="cls-7" x1="118.68" y1="63.96" x2="118.68" y2="38.76"/><polyline class="cls-7" points="120.12 65.4 119.16 64.92 118.68 63.96"/><line class="cls-7" x1="179.88" y1="65.4" x2="120.12" y2="65.4"/><polyline class="cls-7" points="181.32 63.96 180.84 64.92 179.88 65.4"/><line class="cls-7" x1="181.32" y1="38.76" x2="181.32" y2="63.96"/><polyline class="cls-7" points="179.88 37.32 180.84 37.8 181.32 38.76"/><polyline class="cls-8" points="165.48 65.4 165.48 64.68 179.16 64.68 179.16 65.4 165.48 65.4"/><polyline class="cls-8" points="122.52 38.04 122.52 37.32 142.68 37.32 142.68 38.04 122.52 38.04"/><polyline class="cls-8" points="165.72 38.04 165.72 37.32 179.4 37.32 179.4 38.04 165.72 38.04"/><line class="cls-8" x1="119.64" y1="39.96" x2="118.92" y2="39.96"/><line class="cls-8" x1="119.64" y1="62.76" x2="119.64" y2="39.96"/><line class="cls-8" x1="118.92" y1="62.76" x2="119.64" y2="62.76"/><line class="cls-8" x1="118.92" y1="39.96" x2="118.92" y2="62.76"/><line class="cls-8" x1="180.36" y1="39.96" x2="181.08" y2="39.96"/><line class="cls-8" x1="180.36" y1="62.76" x2="180.36" y2="39.96"/><line class="cls-8" x1="181.08" y1="62.76" x2="180.36" y2="62.76"/><line class="cls-8" x1="181.08" y1="39.96" x2="181.08" y2="62.76"/><line class="cls-8" x1="167.16" y1="62.76" x2="178.92" y2="62.76"/><line class="cls-8" x1="167.16" y1="39.72" x2="167.16" y2="62.76"/><line class="cls-8" x1="178.92" y1="39.72" x2="167.16" y2="39.72"/><line class="cls-8" x1="178.92" y1="62.76" x2="178.92" y2="39.72"/><line class="cls-8" x1="121.32" y1="38.28" x2="178.92" y2="38.28"/><polyline class="cls-8" points="119.88 39.72 120.12 38.76 121.32 38.28"/><line class="cls-8" x1="119.88" y1="62.76" x2="119.88" y2="39.72"/><polyline class="cls-8" points="121.32 64.2 120.12 63.96 119.88 62.76"/><line class="cls-8" x1="178.92" y1="64.2" x2="121.32" y2="64.2"/><polyline class="cls-8" points="180.36 62.76 179.88 63.96 178.92 64.2"/><line class="cls-8" x1="180.36" y1="39.72" x2="180.36" y2="62.76"/><polyline class="cls-8" points="178.92 38.28 179.88 38.76 180.36 39.72"/><polyline class="cls-8" points="181.32 38.76 181.32 38.28 181.08 38.04 180.84 37.8 180.6 37.56 180.36 37.32 179.88 37.32 120.12 37.32 119.88 37.32 119.4 37.56 119.16 37.8 118.92 38.04 118.68 38.28 118.68 38.76 118.68 63.96 118.68 64.2 118.92 64.68 119.16 64.92 119.4 65.16 119.88 65.4 120.12 65.4 179.88 65.4 180.36 65.4 180.6 65.16 180.84 64.92 181.08 64.68 181.32 64.2 181.32 63.96 181.32 38.76"/><line class="cls-7" x1="3.48" y1="3.48" x2="3.48" y2="5.64"/><line class="cls-7" x1="3.48" y1="7.32" x2="3.48" y2="9.48"/><line class="cls-7" x1="3.48" y1="11.16" x2="3.48" y2="13.32"/><line class="cls-7" x1="3.48" y1="15" x2="3.48" y2="17.16"/><line class="cls-7" x1="3.48" y1="18.84" x2="3.48" y2="21"/><line class="cls-7" x1="3.48" y1="22.68" x2="3.48" y2="24.84"/><line class="cls-7" x1="3.48" y1="26.52" x2="3.48" y2="28.68"/><line class="cls-7" x1="3.48" y1="30.36" x2="3.48" y2="32.52"/><line class="cls-7" x1="3.48" y1="34.2" x2="3.48" y2="36.36"/><line class="cls-7" x1="3.48" y1="38.04" x2="3.48" y2="40.2"/><line class="cls-7" x1="3.48" y1="41.88" x2="3.48" y2="44.04"/><line class="cls-7" x1="3.48" y1="45.72" x2="3.48" y2="47.88"/><line class="cls-7" x1="3.48" y1="49.56" x2="3.48" y2="51.72"/><line class="cls-7" x1="3.48" y1="53.4" x2="3.48" y2="55.32"/><line class="cls-7" x1="3.48" y1="57.24" x2="3.48" y2="59.16"/><line class="cls-7" x1="3.48" y1="60.84" x2="3.48" y2="63"/><line class="cls-7" x1="3.48" y1="64.68" x2="3.48" y2="66.84"/><line class="cls-7" x1="3.48" y1="68.52" x2="3.48" y2="70.68"/><line class="cls-7" x1="3.48" y1="72.36" x2="3.48" y2="74.52"/><line class="cls-7" x1="3.48" y1="76.2" x2="3.48" y2="78.36"/><line class="cls-7" x1="3.48" y1="80.04" x2="3.48" y2="82.2"/><line class="cls-7" x1="3.48" y1="83.88" x2="3.48" y2="86.04"/><line class="cls-7" x1="3.48" y1="87.72" x2="3.48" y2="89.88"/><line class="cls-7" x1="3.48" y1="91.56" x2="3.48" y2="93.72"/><line class="cls-7" x1="3.48" y1="95.4" x2="3.48" y2="97.56"/><line class="cls-7" x1="3.48" y1="99.24" x2="3.48" y2="101.4"/><line class="cls-7" x1="3.48" y1="103.08" x2="3.48" y2="105.24"/><polyline class="cls-7" points="3.48 106.92 3.48 109.08 5.64 109.08"/><line class="cls-7" x1="7.32" y1="109.08" x2="9.48" y2="109.08"/><line class="cls-7" x1="11.16" y1="109.08" x2="13.32" y2="109.08"/><line class="cls-7" x1="15" y1="109.08" x2="17.16" y2="109.08"/><line class="cls-7" x1="18.84" y1="109.08" x2="21" y2="109.08"/><line class="cls-7" x1="22.68" y1="109.08" x2="24.84" y2="109.08"/><line class="cls-7" x1="26.52" y1="109.08" x2="28.68" y2="109.08"/><line class="cls-7" x1="30.36" y1="109.08" x2="32.52" y2="109.08"/><polyline class="cls-7" points="34.2 109.08 36.36 109.08 37.08 109.8"/><line class="cls-7" x1="38.28" y1="111" x2="39.96" y2="112.68"/><line class="cls-7" x1="41.16" y1="113.88" x2="42.6" y2="115.32"/><line class="cls-7" x1="43.8" y1="116.52" x2="45.24" y2="117.96"/><line class="cls-7" x1="46.44" y1="119.16" x2="47.88" y2="120.6"/><line class="cls-7" x1="49.08" y1="121.8" x2="50.76" y2="123.48"/><line class="cls-7" x1="51.96" y1="124.68" x2="53.4" y2="126.12"/><line class="cls-7" x1="54.6" y1="127.32" x2="56.04" y2="128.76"/><line class="cls-7" x1="57.24" y1="129.96" x2="58.68" y2="131.4"/><line class="cls-7" x1="59.88" y1="132.6" x2="61.56" y2="134.28"/><polyline class="cls-7" points="62.76 135.48 63.48 136.2 63.48 137.88"/><line class="cls-7" x1="63.48" y1="139.56" x2="63.48" y2="141.72"/><line class="cls-7" x1="63.48" y1="143.4" x2="63.48" y2="145.56"/><line class="cls-7" x1="63.48" y1="147.24" x2="63.48" y2="149.4"/><line class="cls-7" x1="63.48" y1="151.08" x2="63.48" y2="153.24"/><line class="cls-7" x1="63.48" y1="154.92" x2="63.48" y2="157.08"/><line class="cls-7" x1="63.48" y1="158.76" x2="63.48" y2="160.92"/><polyline class="cls-7" points="63.48 162.6 63.48 164.28 66.12 164.28"/><line class="cls-7" x1="67.8" y1="164.28" x2="69.96" y2="164.28"/><line class="cls-7" x1="71.64" y1="164.28" x2="73.8" y2="164.28"/><line class="cls-7" x1="75.48" y1="164.28" x2="77.64" y2="164.28"/><line class="cls-7" x1="79.32" y1="164.28" x2="81.48" y2="164.28"/><line class="cls-7" x1="83.16" y1="164.28" x2="85.32" y2="164.28"/><line class="cls-7" x1="87" y1="164.28" x2="89.16" y2="164.28"/><line class="cls-7" x1="90.84" y1="164.28" x2="93" y2="164.28"/><line class="cls-7" x1="94.68" y1="164.28" x2="96.84" y2="164.28"/><line class="cls-7" x1="98.52" y1="164.28" x2="100.68" y2="164.28"/><line class="cls-7" x1="102.36" y1="164.28" x2="104.52" y2="164.28"/><line class="cls-7" x1="106.2" y1="164.28" x2="108.12" y2="164.28"/><line class="cls-7" x1="110.04" y1="164.28" x2="111.96" y2="164.28"/><line class="cls-7" x1="113.64" y1="164.28" x2="115.8" y2="164.28"/><line class="cls-7" x1="117.48" y1="164.28" x2="119.64" y2="164.28"/><polyline class="cls-7" points="121.32 164.28 124.2 164.28 124.2 162.6"/><line class="cls-7" x1="124.2" y1="160.92" x2="124.2" y2="158.76"/><line class="cls-7" x1="124.2" y1="157.08" x2="124.2" y2="154.92"/><line class="cls-7" x1="124.2" y1="153.24" x2="124.2" y2="151.08"/><line class="cls-7" x1="124.2" y1="149.4" x2="124.2" y2="147.24"/><line class="cls-7" x1="124.2" y1="145.56" x2="124.2" y2="143.4"/><line class="cls-7" x1="124.2" y1="141.72" x2="124.2" y2="139.56"/><polyline class="cls-7" points="124.2 137.88 124.2 136.2 124.92 135.48"/><line class="cls-7" x1="126.12" y1="134.28" x2="127.56" y2="132.6"/><line class="cls-7" x1="128.76" y1="131.4" x2="130.2" y2="129.96"/><line class="cls-7" x1="131.4" y1="128.76" x2="133.08" y2="127.32"/><line class="cls-7" x1="134.28" y1="126.12" x2="135.72" y2="124.68"/><line class="cls-7" x1="136.92" y1="123.48" x2="138.36" y2="121.8"/><line class="cls-7" x1="139.56" y1="120.6" x2="141" y2="119.16"/><line class="cls-7" x1="142.2" y1="117.96" x2="143.88" y2="116.52"/><line class="cls-7" x1="145.08" y1="115.32" x2="146.52" y2="113.88"/><line class="cls-7" x1="147.72" y1="112.68" x2="149.16" y2="111"/><polyline class="cls-7" points="150.36 109.8 151.08 109.08 153.48 109.08"/><line class="cls-7" x1="155.16" y1="109.08" x2="157.32" y2="109.08"/><line class="cls-7" x1="159" y1="109.08" x2="161.16" y2="109.08"/><line class="cls-7" x1="162.84" y1="109.08" x2="165" y2="109.08"/><line class="cls-7" x1="166.68" y1="109.08" x2="168.6" y2="109.08"/><line class="cls-7" x1="170.52" y1="109.08" x2="172.44" y2="109.08"/><line class="cls-7" x1="174.36" y1="109.08" x2="176.28" y2="109.08"/><line class="cls-7" x1="177.96" y1="109.08" x2="180.12" y2="109.08"/><polyline class="cls-7" points="181.8 109.08 184.2 109.08 184.2 106.92"/><line class="cls-7" x1="184.2" y1="105.24" x2="184.2" y2="103.08"/><line class="cls-7" x1="184.2" y1="101.4" x2="184.2" y2="99.24"/><line class="cls-7" x1="184.2" y1="97.56" x2="184.2" y2="95.4"/><line class="cls-7" x1="184.2" y1="93.72" x2="184.2" y2="91.56"/><line class="cls-7" x1="184.2" y1="89.88" x2="184.2" y2="87.72"/><line class="cls-7" x1="184.2" y1="86.04" x2="184.2" y2="83.88"/><line class="cls-7" x1="184.2" y1="82.2" x2="184.2" y2="80.04"/><line class="cls-7" x1="184.2" y1="78.36" x2="184.2" y2="76.2"/><line class="cls-7" x1="184.2" y1="74.52" x2="184.2" y2="72.36"/><line class="cls-7" x1="184.2" y1="70.68" x2="184.2" y2="68.52"/><line class="cls-7" x1="184.2" y1="66.84" x2="184.2" y2="64.68"/><line class="cls-7" x1="184.2" y1="63" x2="184.2" y2="60.84"/><line class="cls-7" x1="184.2" y1="59.16" x2="184.2" y2="57.24"/><line class="cls-7" x1="184.2" y1="55.32" x2="184.2" y2="53.4"/><line class="cls-7" x1="184.2" y1="51.72" x2="184.2" y2="49.56"/><line class="cls-7" x1="184.2" y1="47.88" x2="184.2" y2="45.72"/><line class="cls-7" x1="184.2" y1="44.04" x2="184.2" y2="41.88"/><line class="cls-7" x1="184.2" y1="40.2" x2="184.2" y2="38.04"/><line class="cls-7" x1="184.2" y1="36.36" x2="184.2" y2="34.2"/><line class="cls-7" x1="184.2" y1="32.52" x2="184.2" y2="30.36"/><line class="cls-7" x1="184.2" y1="28.68" x2="184.2" y2="26.52"/><line class="cls-7" x1="184.2" y1="24.84" x2="184.2" y2="22.68"/><line class="cls-7" x1="184.2" y1="21" x2="184.2" y2="18.84"/><line class="cls-7" x1="184.2" y1="17.16" x2="184.2" y2="15"/><line class="cls-7" x1="184.2" y1="13.32" x2="184.2" y2="11.16"/><line class="cls-7" x1="184.2" y1="9.48" x2="184.2" y2="7.32"/><polyline class="cls-7" points="184.2 5.64 184.2 3.48 182.52 3.48"/><line class="cls-7" x1="180.84" y1="3.48" x2="178.68" y2="3.48"/><line class="cls-7" x1="177" y1="3.48" x2="174.84" y2="3.48"/><line class="cls-7" x1="173.16" y1="3.48" x2="171.24" y2="3.48"/><line class="cls-7" x1="169.32" y1="3.48" x2="167.4" y2="3.48"/><line class="cls-7" x1="165.48" y1="3.48" x2="163.56" y2="3.48"/><line class="cls-7" x1="161.88" y1="3.48" x2="159.72" y2="3.48"/><line class="cls-7" x1="158.04" y1="3.48" x2="155.88" y2="3.48"/><line class="cls-7" x1="154.2" y1="3.48" x2="152.04" y2="3.48"/><line class="cls-7" x1="150.36" y1="3.48" x2="148.2" y2="3.48"/><line class="cls-7" x1="146.52" y1="3.48" x2="144.36" y2="3.48"/><line class="cls-7" x1="142.68" y1="3.48" x2="140.52" y2="3.48"/><line class="cls-7" x1="138.84" y1="3.48" x2="136.68" y2="3.48"/><line class="cls-7" x1="135" y1="3.48" x2="132.84" y2="3.48"/><line class="cls-7" x1="131.16" y1="3.48" x2="129" y2="3.48"/><line class="cls-7" x1="127.32" y1="3.48" x2="125.16" y2="3.48"/><line class="cls-7" x1="123.48" y1="3.48" x2="121.32" y2="3.48"/><line class="cls-7" x1="119.64" y1="3.48" x2="117.48" y2="3.48"/><line class="cls-7" x1="115.8" y1="3.48" x2="113.64" y2="3.48"/><line class="cls-7" x1="111.96" y1="3.48" x2="110.04" y2="3.48"/><line class="cls-7" x1="108.12" y1="3.48" x2="106.2" y2="3.48"/><line class="cls-7" x1="104.52" y1="3.48" x2="102.36" y2="3.48"/><line class="cls-7" x1="100.68" y1="3.48" x2="98.52" y2="3.48"/><line class="cls-7" x1="96.84" y1="3.48" x2="94.68" y2="3.48"/><line class="cls-7" x1="93" y1="3.48" x2="90.84" y2="3.48"/><line class="cls-7" x1="89.16" y1="3.48" x2="87" y2="3.48"/><line class="cls-7" x1="85.32" y1="3.48" x2="83.16" y2="3.48"/><line class="cls-7" x1="81.48" y1="3.48" x2="79.32" y2="3.48"/><line class="cls-7" x1="77.64" y1="3.48" x2="75.48" y2="3.48"/><line class="cls-7" x1="73.8" y1="3.48" x2="71.64" y2="3.48"/><line class="cls-7" x1="69.96" y1="3.48" x2="67.8" y2="3.48"/><line class="cls-7" x1="66.12" y1="3.48" x2="63.96" y2="3.48"/><line class="cls-7" x1="62.28" y1="3.48" x2="60.12" y2="3.48"/><line class="cls-7" x1="58.44" y1="3.48" x2="56.28" y2="3.48"/><line class="cls-7" x1="54.6" y1="3.48" x2="52.44" y2="3.48"/><line class="cls-7" x1="50.76" y1="3.48" x2="48.84" y2="3.48"/><line class="cls-7" x1="46.92" y1="3.48" x2="45" y2="3.48"/><line class="cls-7" x1="43.32" y1="3.48" x2="41.16" y2="3.48"/><line class="cls-7" x1="39.48" y1="3.48" x2="37.32" y2="3.48"/><line class="cls-7" x1="35.64" y1="3.48" x2="33.48" y2="3.48"/><line class="cls-7" x1="31.8" y1="3.48" x2="29.64" y2="3.48"/><line class="cls-7" x1="27.96" y1="3.48" x2="25.8" y2="3.48"/><line class="cls-7" x1="24.12" y1="3.48" x2="21.96" y2="3.48"/><line class="cls-7" x1="20.28" y1="3.48" x2="18.12" y2="3.48"/><line class="cls-7" x1="16.44" y1="3.48" x2="14.28" y2="3.48"/><line class="cls-7" x1="12.6" y1="3.48" x2="10.44" y2="3.48"/><line class="cls-7" x1="8.76" y1="3.48" x2="6.6" y2="3.48"/><line class="cls-7" x1="4.92" y1="3.48" x2="3.48" y2="3.48"/></g></g></svg>