<svg xmlns="http://www.w3.org/2000/svg" viewBox="0 0 177.36 106.56"><defs><style>.cls-1{fill:#c6d3b4;}.cls-2{fill:none;stroke:#000;stroke-linecap:round;stroke-linejoin:round;stroke-width:0.24px;}</style></defs><title>ROOM-RECTANGLE-BAY</title><g id="Layer_2" data-name="Layer 2"><g id="Layer_1-2" data-name="Layer 1"><rect class="cls-1" x="0.12" y="0.12" width="177.12" height="106.31"/><line class="cls-2" x1="0.12" y1="0.12" x2="1.8" y2="0.12"/><line class="cls-2" x1="3.48" y1="0.12" x2="5.64" y2="0.12"/><line class="cls-2" x1="7.32" y1="0.12" x2="9.48" y2="0.12"/><line class="cls-2" x1="11.16" y1="0.12" x2="13.32" y2="0.12"/><line class="cls-2" x1="15" y1="0.12" x2="17.16" y2="0.12"/><line class="cls-2" x1="18.84" y1="0.12" x2="21" y2="0.12"/><line class="cls-2" x1="22.68" y1="0.12" x2="24.84" y2="0.12"/><line class="cls-2" x1="26.52" y1="0.12" x2="28.44" y2="0.12"/><line class="cls-2" x1="30.36" y1="0.12" x2="32.28" y2="0.12"/><line class="cls-2" x1="33.96" y1="0.12" x2="36.12" y2="0.12"/><line class="cls-2" x1="37.8" y1="0.12" x2="39.96" y2="0.12"/><line class="cls-2" x1="41.64" y1="0.12" x2="43.8" y2="0.12"/><line class="cls-2" x1="45.48" y1="0.12" x2="47.64" y2="0.12"/><line class="cls-2" x1="49.32" y1="0.12" x2="51.48" y2="0.12"/><line class="cls-2" x1="53.16" y1="0.12" x2="55.32" y2="0.12"/><line class="cls-2" x1="57" y1="0.12" x2="59.16" y2="0.12"/><line class="cls-2" x1="60.84" y1="0.12" x2="63" y2="0.12"/><line class="cls-2" x1="64.68" y1="0.12" x2="66.84" y2="0.12"/><line class="cls-2" x1="68.52" y1="0.12" x2="70.68" y2="0.12"/><line class="cls-2" x1="72.36" y1="0.12" x2="74.52" y2="0.12"/><line class="cls-2" x1="76.2" y1="0.12" x2="78.36" y2="0.12"/><line class="cls-2" x1="80.04" y1="0.12" x2="82.2" y2="0.12"/><line class="cls-2" x1="83.88" y1="0.12" x2="86.04" y2="0.12"/><line class="cls-2" x1="87.72" y1="0.12" x2="89.64" y2="0.12"/><line class="cls-2" x1="91.56" y1="0.12" x2="93.48" y2="0.12"/><line class="cls-2" x1="95.16" y1="0.12" x2="97.32" y2="0.12"/><line class="cls-2" x1="99" y1="0.12" x2="101.16" y2="0.12"/><line class="cls-2" x1="102.84" y1="0.12" x2="105" y2="0.12"/><line class="cls-2" x1="106.68" y1="0.12" x2="108.84" y2="0.12"/><line class="cls-2" x1="110.52" y1="0.12" x2="112.68" y2="0.12"/><line class="cls-2" x1="114.36" y1="0.12" x2="116.52" y2="0.12"/><line class="cls-2" x1="118.2" y1="0.12" x2="120.36" y2="0.12"/><line class="cls-2" x1="122.04" y1="0.12" x2="124.2" y2="0.12"/><line class="cls-2" x1="125.88" y1="0.12" x2="128.04" y2="0.12"/><line class="cls-2" x1="129.72" y1="0.12" x2="131.88" y2="0.12"/><line class="cls-2" x1="133.56" y1="0.12" x2="135.72" y2="0.12"/><line class="cls-2" x1="137.4" y1="0.12" x2="139.56" y2="0.12"/><line class="cls-2" x1="141.24" y1="0.12" x2="143.4" y2="0.12"/><line class="cls-2" x1="145.08" y1="0.12" x2="147" y2="0.12"/><line class="cls-2" x1="148.92" y1="0.12" x2="150.84" y2="0.12"/><line class="cls-2" x1="152.76" y1="0.12" x2="154.68" y2="0.12"/><line class="cls-2" x1="156.36" y1="0.12" x2="158.52" y2="0.12"/><line class="cls-2" x1="160.2" y1="0.12" x2="162.36" y2="0.12"/><line class="cls-2" x1="164.04" y1="0.12" x2="166.2" y2="0.12"/><line class="cls-2" x1="167.88" y1="0.12" x2="170.04" y2="0.12"/><line class="cls-2" x1="171.72" y1="0.12" x2="173.88" y2="0.12"/><polyline class="cls-2" points="175.56 0.12 177.24 0.12 177.24 2.76"/><line class="cls-2" x1="177.24" y1="4.44" x2="177.24" y2="6.6"/><line class="cls-2" x1="177.24" y1="8.28" x2="177.24" y2="10.44"/><line class="cls-2" x1="177.24" y1="12.12" x2="177.24" y2="14.28"/><line class="cls-2" x1="177.24" y1="15.96" x2="177.24" y2="18.12"/><line class="cls-2" x1="177.24" y1="19.8" x2="177.24" y2="21.96"/><line class="cls-2" x1="177.24" y1="23.64" x2="177.24" y2="25.56"/><line class="cls-2" x1="177.24" y1="27.48" x2="177.24" y2="29.4"/><line class="cls-2" x1="177.24" y1="31.08" x2="177.24" y2="33.24"/><line class="cls-2" x1="177.24" y1="34.92" x2="177.24" y2="37.08"/><line class="cls-2" x1="177.24" y1="38.76" x2="177.24" y2="40.92"/><line class="cls-2" x1="177.24" y1="42.6" x2="177.24" y2="44.76"/><line class="cls-2" x1="177.24" y1="46.44" x2="177.24" y2="48.6"/><line class="cls-2" x1="177.24" y1="50.28" x2="177.24" y2="52.44"/><line class="cls-2" x1="177.24" y1="54.12" x2="177.24" y2="56.28"/><line class="cls-2" x1="177.24" y1="57.96" x2="177.24" y2="60.12"/><line class="cls-2" x1="177.24" y1="61.8" x2="177.24" y2="63.96"/><line class="cls-2" x1="177.24" y1="65.64" x2="177.24" y2="67.8"/><line class="cls-2" x1="177.24" y1="69.48" x2="177.24" y2="71.64"/><line class="cls-2" x1="177.24" y1="73.32" x2="177.24" y2="75.48"/><line class="cls-2" x1="177.24" y1="77.16" x2="177.24" y2="79.32"/><line class="cls-2" x1="177.24" y1="81" x2="177.24" y2="83.16"/><line class="cls-2" x1="177.24" y1="84.84" x2="177.24" y2="86.76"/><line class="cls-2" x1="177.24" y1="88.68" x2="177.24" y2="90.6"/><line class="cls-2" x1="177.24" y1="92.28" x2="177.24" y2="94.44"/><line class="cls-2" x1="177.24" y1="96.12" x2="177.24" y2="98.28"/><line class="cls-2" x1="177.24" y1="99.96" x2="177.24" y2="102.12"/><polyline class="cls-2" points="177.24 103.8 177.24 106.44 175.56 106.44"/><line class="cls-2" x1="173.88" y1="106.44" x2="171.72" y2="106.44"/><line class="cls-2" x1="170.04" y1="106.44" x2="167.88" y2="106.44"/><line class="cls-2" x1="166.2" y1="106.44" x2="164.04" y2="106.44"/><line class="cls-2" x1="162.36" y1="106.44" x2="160.2" y2="106.44"/><line class="cls-2" x1="158.52" y1="106.44" x2="156.36" y2="106.44"/><line class="cls-2" x1="154.68" y1="106.44" x2="152.76" y2="106.44"/><line class="cls-2" x1="150.84" y1="106.44" x2="148.92" y2="106.44"/><line class="cls-2" x1="147" y1="106.44" x2="145.08" y2="106.44"/><line class="cls-2" x1="143.4" y1="106.44" x2="141.24" y2="106.44"/><line class="cls-2" x1="139.56" y1="106.44" x2="137.4" y2="106.44"/><line class="cls-2" x1="135.72" y1="106.44" x2="133.56" y2="106.44"/><line class="cls-2" x1="131.88" y1="106.44" x2="129.72" y2="106.44"/><line class="cls-2" x1="128.04" y1="106.44" x2="125.88" y2="106.44"/><line class="cls-2" x1="124.2" y1="106.44" x2="122.04" y2="106.44"/><line class="cls-2" x1="120.36" y1="106.44" x2="118.2" y2="106.44"/><line class="cls-2" x1="116.52" y1="106.44" x2="114.36" y2="106.44"/><line class="cls-2" x1="112.68" y1="106.44" x2="110.52" y2="106.44"/><line class="cls-2" x1="108.84" y1="106.44" x2="106.68" y2="106.44"/><line class="cls-2" x1="105" y1="106.44" x2="102.84" y2="106.44"/><line class="cls-2" x1="101.16" y1="106.44" x2="99" y2="106.44"/><line class="cls-2" x1="97.32" y1="106.44" x2="95.16" y2="106.44"/><line class="cls-2" x1="93.48" y1="106.44" x2="91.56" y2="106.44"/><line class="cls-2" x1="89.64" y1="106.44" x2="87.72" y2="106.44"/><line class="cls-2" x1="86.04" y1="106.44" x2="83.88" y2="106.44"/><line class="cls-2" x1="82.2" y1="106.44" x2="80.04" y2="106.44"/><line class="cls-2" x1="78.36" y1="106.44" x2="76.2" y2="106.44"/><line class="cls-2" x1="74.52" y1="106.44" x2="72.36" y2="106.44"/><line class="cls-2" x1="70.68" y1="106.44" x2="68.52" y2="106.44"/><line class="cls-2" x1="66.84" y1="106.44" x2="64.68" y2="106.44"/><line class="cls-2" x1="63" y1="106.44" x2="60.84" y2="106.44"/><line class="cls-2" x1="59.16" y1="106.44" x2="57" y2="106.44"/><line class="cls-2" x1="55.32" y1="106.44" x2="53.16" y2="106.44"/><line class="cls-2" x1="51.48" y1="106.44" x2="49.32" y2="106.44"/><line class="cls-2" x1="47.64" y1="106.44" x2="45.48" y2="106.44"/><line class="cls-2" x1="43.8" y1="106.44" x2="41.64" y2="106.44"/><line class="cls-2" x1="39.96" y1="106.44" x2="37.8" y2="106.44"/><line class="cls-2" x1="36.12" y1="106.44" x2="33.96" y2="106.44"/><line class="cls-2" x1="32.28" y1="106.44" x2="30.36" y2="106.44"/><line class="cls-2" x1="28.44" y1="106.44" x2="26.52" y2="106.44"/><line class="cls-2" x1="24.84" y1="106.44" x2="22.68" y2="106.44"/><line class="cls-2" x1="21" y1="106.44" x2="18.84" y2="106.44"/><line class="cls-2" x1="17.16" y1="106.44" x2="15" y2="106.44"/><line class="cls-2" x1="13.32" y1="106.44" x2="11.16" y2="106.44"/><line class="cls-2" x1="9.48" y1="106.44" x2="7.32" y2="106.44"/><line class="cls-2" x1="5.64" y1="106.44" x2="3.48" y2="106.44"/><polyline class="cls-2" points="1.8 106.44 0.12 106.44 0.12 103.8"/><line class="cls-2" x1="0.12" y1="102.12" x2="0.12" y2="99.96"/><line class="cls-2" x1="0.12" y1="98.28" x2="0.12" y2="96.12"/><line class="cls-2" x1="0.12" y1="94.44" x2="0.12" y2="92.28"/><line class="cls-2" x1="0.12" y1="90.6" x2="0.12" y2="88.68"/><line class="cls-2" x1="0.12" y1="86.76" x2="0.12" y2="84.84"/><line class="cls-2" x1="0.12" y1="83.16" x2="0.12" y2="81"/><line class="cls-2" x1="0.12" y1="79.32" x2="0.12" y2="77.16"/><line class="cls-2" x1="0.12" y1="75.48" x2="0.12" y2="73.32"/><line class="cls-2" x1="0.12" y1="71.64" x2="0.12" y2="69.48"/><line class="cls-2" x1="0.12" y1="67.8" x2="0.12" y2="65.64"/><line class="cls-2" x1="0.12" y1="63.96" x2="0.12" y2="61.8"/><line class="cls-2" x1="0.12" y1="60.12" x2="0.12" y2="57.96"/><line class="cls-2" x1="0.12" y1="56.28" x2="0.12" y2="54.12"/><line class="cls-2" x1="0.12" y1="52.44" x2="0.12" y2="50.28"/><line class="cls-2" x1="0.12" y1="48.6" x2="0.12" y2="46.44"/><line class="cls-2" x1="0.12" y1="44.76" x2="0.12" y2="42.6"/><line class="cls-2" x1="0.12" y1="40.92" x2="0.12" y2="38.76"/><line class="cls-2" x1="0.12" y1="37.08" x2="0.12" y2="34.92"/><line class="cls-2" x1="0.12" y1="33.24" x2="0.12" y2="31.08"/><line class="cls-2" x1="0.12" y1="29.4" x2="0.12" y2="27.48"/><line class="cls-2" x1="0.12" y1="25.56" x2="0.12" y2="23.64"/><line class="cls-2" x1="0.12" y1="21.96" x2="0.12" y2="19.8"/><line class="cls-2" x1="0.12" y1="18.12" x2="0.12" y2="15.96"/><line class="cls-2" x1="0.12" y1="14.28" x2="0.12" y2="12.12"/><line class="cls-2" x1="0.12" y1="10.44" x2="0.12" y2="8.28"/><line class="cls-2" x1="0.12" y1="6.6" x2="0.12" y2="4.44"/><line class="cls-2" x1="0.12" y1="2.76" x2="0.12" y2="0.12"/><line class="cls-2" x1="177.24" y1="106.44" x2="177.24" y2="103.8"/><line class="cls-2" x1="177.24" y1="102.12" x2="177.24" y2="99.96"/><line class="cls-2" x1="177.24" y1="98.28" x2="177.24" y2="96.12"/><line class="cls-2" x1="177.24" y1="94.44" x2="177.24" y2="92.28"/><line class="cls-2" x1="177.24" y1="90.6" x2="177.24" y2="88.68"/><line class="cls-2" x1="177.24" y1="86.76" x2="177.24" y2="84.84"/><line class="cls-2" x1="177.24" y1="83.16" x2="177.24" y2="81"/><line class="cls-2" x1="177.24" y1="79.32" x2="177.24" y2="77.16"/><line class="cls-2" x1="177.24" y1="75.48" x2="177.24" y2="73.32"/><line class="cls-2" x1="177.24" y1="71.64" x2="177.24" y2="69.48"/><line class="cls-2" x1="177.24" y1="67.8" x2="177.24" y2="65.64"/><line class="cls-2" x1="177.24" y1="63.96" x2="177.24" y2="61.8"/><line class="cls-2" x1="177.24" y1="60.12" x2="177.24" y2="57.96"/><line class="cls-2" x1="177.24" y1="56.28" x2="177.24" y2="54.12"/><line class="cls-2" x1="177.24" y1="52.44" x2="177.24" y2="50.28"/><line class="cls-2" x1="177.24" y1="48.6" x2="177.24" y2="46.44"/><line class="cls-2" x1="177.24" y1="44.76" x2="177.24" y2="42.6"/><line class="cls-2" x1="177.24" y1="40.92" x2="177.24" y2="38.76"/><line class="cls-2" x1="177.24" y1="37.08" x2="177.24" y2="34.92"/><line class="cls-2" x1="177.24" y1="33.24" x2="177.24" y2="31.08"/><line class="cls-2" x1="177.24" y1="29.4" x2="177.24" y2="27.48"/><line class="cls-2" x1="177.24" y1="25.56" x2="177.24" y2="23.64"/><line class="cls-2" x1="177.24" y1="21.96" x2="177.24" y2="19.8"/><line class="cls-2" x1="177.24" y1="18.12" x2="177.24" y2="15.96"/><line class="cls-2" x1="177.24" y1="14.28" x2="177.24" y2="12.12"/><line class="cls-2" x1="177.24" y1="10.44" x2="177.24" y2="8.28"/><line class="cls-2" x1="177.24" y1="6.6" x2="177.24" y2="4.44"/><polyline class="cls-2" points="177.24 2.76 177.24 0.12 175.56 0.12"/><line class="cls-2" x1="173.88" y1="0.12" x2="171.72" y2="0.12"/><line class="cls-2" x1="170.04" y1="0.12" x2="167.88" y2="0.12"/><line class="cls-2" x1="166.2" y1="0.12" x2="164.04" y2="0.12"/><line class="cls-2" x1="162.36" y1="0.12" x2="160.2" y2="0.12"/><line class="cls-2" x1="158.52" y1="0.12" x2="156.36" y2="0.12"/><line class="cls-2" x1="154.68" y1="0.12" x2="152.76" y2="0.12"/><line class="cls-2" x1="150.84" y1="0.12" x2="148.92" y2="0.12"/><line class="cls-2" x1="147" y1="0.12" x2="145.08" y2="0.12"/><line class="cls-2" x1="143.4" y1="0.12" x2="141.24" y2="0.12"/><line class="cls-2" x1="139.56" y1="0.12" x2="137.4" y2="0.12"/><line class="cls-2" x1="135.72" y1="0.12" x2="133.56" y2="0.12"/><line class="cls-2" x1="131.88" y1="0.12" x2="129.72" y2="0.12"/><line class="cls-2" x1="128.04" y1="0.12" x2="125.88" y2="0.12"/><line class="cls-2" x1="124.2" y1="0.12" x2="122.04" y2="0.12"/><line class="cls-2" x1="120.36" y1="0.12" x2="118.2" y2="0.12"/><line class="cls-2" x1="116.52" y1="0.12" x2="114.36" y2="0.12"/><line class="cls-2" x1="112.68" y1="0.12" x2="110.52" y2="0.12"/><line class="cls-2" x1="108.84" y1="0.12" x2="106.68" y2="0.12"/><line class="cls-2" x1="105" y1="0.12" x2="102.84" y2="0.12"/><line class="cls-2" x1="101.16" y1="0.12" x2="99" y2="0.12"/><line class="cls-2" x1="97.32" y1="0.12" x2="95.16" y2="0.12"/><line class="cls-2" x1="93.48" y1="0.12" x2="91.56" y2="0.12"/><line class="cls-2" x1="89.64" y1="0.12" x2="87.72" y2="0.12"/><line class="cls-2" x1="86.04" y1="0.12" x2="83.88" y2="0.12"/><line class="cls-2" x1="82.2" y1="0.12" x2="80.04" y2="0.12"/><line class="cls-2" x1="78.36" y1="0.12" x2="76.2" y2="0.12"/><line class="cls-2" x1="74.52" y1="0.12" x2="72.36" y2="0.12"/><line class="cls-2" x1="70.68" y1="0.12" x2="68.52" y2="0.12"/><line class="cls-2" x1="66.84" y1="0.12" x2="64.68" y2="0.12"/><line class="cls-2" x1="63" y1="0.12" x2="60.84" y2="0.12"/><line class="cls-2" x1="59.16" y1="0.12" x2="57" y2="0.12"/><line class="cls-2" x1="55.32" y1="0.12" x2="53.16" y2="0.12"/><line class="cls-2" x1="51.48" y1="0.12" x2="49.32" y2="0.12"/><line class="cls-2" x1="47.64" y1="0.12" x2="45.48" y2="0.12"/><line class="cls-2" x1="43.8" y1="0.12" x2="41.64" y2="0.12"/><line class="cls-2" x1="39.96" y1="0.12" x2="37.8" y2="0.12"/><line class="cls-2" x1="36.12" y1="0.12" x2="33.96" y2="0.12"/><line class="cls-2" x1="32.28" y1="0.12" x2="30.36" y2="0.12"/><line class="cls-2" x1="28.44" y1="0.12" x2="26.52" y2="0.12"/><line class="cls-2" x1="24.84" y1="0.12" x2="22.68" y2="0.12"/><line class="cls-2" x1="21" y1="0.12" x2="18.84" y2="0.12"/><line class="cls-2" x1="17.16" y1="0.12" x2="15" y2="0.12"/><line class="cls-2" x1="13.32" y1="0.12" x2="11.16" y2="0.12"/><line class="cls-2" x1="9.48" y1="0.12" x2="7.32" y2="0.12"/><line class="cls-2" x1="5.64" y1="0.12" x2="3.48" y2="0.12"/><polyline class="cls-2" points="1.8 0.12 0.12 0.12 0.12 2.76"/><line class="cls-2" x1="0.12" y1="4.44" x2="0.12" y2="6.6"/><line class="cls-2" x1="0.12" y1="8.28" x2="0.12" y2="10.44"/><line class="cls-2" x1="0.12" y1="12.12" x2="0.12" y2="14.28"/><line class="cls-2" x1="0.12" y1="15.96" x2="0.12" y2="18.12"/><line class="cls-2" x1="0.12" y1="19.8" x2="0.12" y2="21.96"/><line class="cls-2" x1="0.12" y1="23.64" x2="0.12" y2="25.56"/><line class="cls-2" x1="0.12" y1="27.48" x2="0.12" y2="29.4"/><line class="cls-2" x1="0.12" y1="31.08" x2="0.12" y2="33.24"/><line class="cls-2" x1="0.12" y1="34.92" x2="0.12" y2="37.08"/><line class="cls-2" x1="0.12" y1="38.76" x2="0.12" y2="40.92"/><line class="cls-2" x1="0.12" y1="42.6" x2="0.12" y2="44.76"/><line class="cls-2" x1="0.12" y1="46.44" x2="0.12" y2="48.6"/><line class="cls-2" x1="0.12" y1="50.28" x2="0.12" y2="52.44"/><line class="cls-2" x1="0.12" y1="54.12" x2="0.12" y2="56.28"/><line class="cls-2" x1="0.12" y1="57.96" x2="0.12" y2="60.12"/><line class="cls-2" x1="0.12" y1="61.8" x2="0.12" y2="63.96"/><line class="cls-2" x1="0.12" y1="65.64" x2="0.12" y2="67.8"/><line class="cls-2" x1="0.12" y1="69.48" x2="0.12" y2="71.64"/><line class="cls-2" x1="0.12" y1="73.32" x2="0.12" y2="75.48"/><line class="cls-2" x1="0.12" y1="77.16" x2="0.12" y2="79.32"/><line class="cls-2" x1="0.12" y1="81" x2="0.12" y2="83.16"/><line class="cls-2" x1="0.12" y1="84.84" x2="0.12" y2="86.76"/><line class="cls-2" x1="0.12" y1="88.68" x2="0.12" y2="90.6"/><line class="cls-2" x1="0.12" y1="92.28" x2="0.12" y2="94.44"/><line class="cls-2" x1="0.12" y1="96.12" x2="0.12" y2="98.28"/><line class="cls-2" x1="0.12" y1="99.96" x2="0.12" y2="102.12"/><polyline class="cls-2" points="0.12 103.8 0.12 106.44 1.8 106.44"/><line class="cls-2" x1="3.48" y1="106.44" x2="5.64" y2="106.44"/><line class="cls-2" x1="7.32" y1="106.44" x2="9.48" y2="106.44"/><line class="cls-2" x1="11.16" y1="106.44" x2="13.32" y2="106.44"/><line class="cls-2" x1="15" y1="106.44" x2="17.16" y2="106.44"/><line class="cls-2" x1="18.84" y1="106.44" x2="21" y2="106.44"/><line class="cls-2" x1="22.68" y1="106.44" x2="24.84" y2="106.44"/><line class="cls-2" x1="26.52" y1="106.44" x2="28.44" y2="106.44"/><line class="cls-2" x1="30.36" y1="106.44" x2="32.28" y2="106.44"/><line class="cls-2" x1="33.96" y1="106.44" x2="36.12" y2="106.44"/><line class="cls-2" x1="37.8" y1="106.44" x2="39.96" y2="106.44"/><line class="cls-2" x1="41.64" y1="106.44" x2="43.8" y2="106.44"/><line class="cls-2" x1="45.48" y1="106.44" x2="47.64" y2="106.44"/><line class="cls-2" x1="49.32" y1="106.44" x2="51.48" y2="106.44"/><line class="cls-2" x1="53.16" y1="106.44" x2="55.32" y2="106.44"/><line class="cls-2" x1="57" y1="106.44" x2="59.16" y2="106.44"/><line class="cls-2" x1="60.84" y1="106.44" x2="63" y2="106.44"/><line class="cls-2" x1="64.68" y1="106.44" x2="66.84" y2="106.44"/><line class="cls-2" x1="68.52" y1="106.44" x2="70.68" y2="106.44"/><line class="cls-2" x1="72.36" y1="106.44" x2="74.52" y2="106.44"/><line class="cls-2" x1="76.2" y1="106.44" x2="78.36" y2="106.44"/><line class="cls-2" x1="80.04" y1="106.44" x2="82.2" y2="106.44"/><line class="cls-2" x1="83.88" y1="106.44" x2="86.04" y2="106.44"/><line class="cls-2" x1="87.72" y1="106.44" x2="89.64" y2="106.44"/><line class="cls-2" x1="91.56" y1="106.44" x2="93.48" y2="106.44"/><line class="cls-2" x1="95.16" y1="106.44" x2="97.32" y2="106.44"/><line class="cls-2" x1="99" y1="106.44" x2="101.16" y2="106.44"/><line class="cls-2" x1="102.84" y1="106.44" x2="105" y2="106.44"/><line class="cls-2" x1="106.68" y1="106.44" x2="108.84" y2="106.44"/><line class="cls-2" x1="110.52" y1="106.44" x2="112.68" y2="106.44"/><line class="cls-2" x1="114.36" y1="106.44" x2="116.52" y2="106.44"/><line class="cls-2" x1="118.2" y1="106.44" x2="120.36" y2="106.44"/><line class="cls-2" x1="122.04" y1="106.44" x2="124.2" y2="106.44"/><line class="cls-2" x1="125.88" y1="106.44" x2="128.04" y2="106.44"/><line class="cls-2" x1="129.72" y1="106.44" x2="131.88" y2="106.44"/><line class="cls-2" x1="133.56" y1="106.44" x2="135.72" y2="106.44"/><line class="cls-2" x1="137.4" y1="106.44" x2="139.56" y2="106.44"/><line class="cls-2" x1="141.24" y1="106.44" x2="143.4" y2="106.44"/><line class="cls-2" x1="145.08" y1="106.44" x2="147" y2="106.44"/><line class="cls-2" x1="148.92" y1="106.44" x2="150.84" y2="106.44"/><line class="cls-2" x1="152.76" y1="106.44" x2="154.68" y2="106.44"/><line class="cls-2" x1="156.36" y1="106.44" x2="158.52" y2="106.44"/><line class="cls-2" x1="160.2" y1="106.44" x2="162.36" y2="106.44"/><line class="cls-2" x1="164.04" y1="106.44" x2="166.2" y2="106.44"/><line class="cls-2" x1="167.88" y1="106.44" x2="170.04" y2="106.44"/><line class="cls-2" x1="171.72" y1="106.44" x2="173.88" y2="106.44"/><line class="cls-2" x1="175.56" y1="106.44" x2="177.24" y2="106.44"/></g></g></svg>