<svg xmlns="http://www.w3.org/2000/svg" xmlns:xlink="http://www.w3.org/1999/xlink" viewBox="0 0 114 153.84"><defs><style>.cls-1,.cls-2,.cls-6,.cls-7,.cls-8,.cls-9{fill:none;}.cls-1{clip-rule:evenodd;}.cls-3{clip-path:url(#clip-path);}.cls-4{clip-path:url(#clip-path-2);}.cls-5{fill:#c6d3b4;}.cls-6{stroke:red;}.cls-6,.cls-7,.cls-8,.cls-9{stroke-linecap:round;stroke-linejoin:round;}.cls-6,.cls-7{stroke-width:0.24px;}.cls-7,.cls-8,.cls-9{stroke:#000;}.cls-8{stroke-width:0.48px;}.cls-9{stroke-width:0.96px;}</style><clipPath id="clip-path" transform="translate(-728.05 -415.08)"><path class="cls-1" d="M734.17,452.4l-.72.72.24,26.4.72.72v.24l60.72-.24.24-.24h.24v-.48l.24-.24h.24V453.36l-.24-.48-.48-.48m-63.84-33.84v105.6h3.36v-.48l5.52-.24-.24-2.88-.24-3.6h.24v-1.44h.24V515h.24v-.48l1.68-1.68,2.4-1.2.72-.24H750l.72.24.48.24.72.24.72.72.48.24,1,1,.48,1,.24.24.24.72.24.48.24,1.2-.24.24v2.88H755v2.88h5.52v.48h4.08L791.53,551v14.4h47V418.56Z"/></clipPath><clipPath id="clip-path-2" transform="translate(-728.05 -415.08)"><rect class="cls-2" width="841.92" height="595.2"/></clipPath></defs><title>ROOM-BED-STANDARD</title><g id="Layer_2" data-name="Layer 2"><g id="Layer_1-2" data-name="Layer 1"><g class="cls-3"><g class="cls-4"><rect class="cls-5" x="3.48" y="3.48" width="107.04" height="146.88"/></g></g><line class="cls-6" x1="61.8" y1="152.04" x2="63.48" y2="152.04"/><line class="cls-6" x1="112.2" y1="152.04" x2="112.2" y2="150.36"/><line class="cls-6" x1="112.2" y1="148.68" x2="112.2" y2="146.52"/><line class="cls-6" x1="112.2" y1="144.84" x2="112.2" y2="142.68"/><line class="cls-6" x1="112.2" y1="141" x2="112.2" y2="138.84"/><line class="cls-6" x1="112.2" y1="137.16" x2="112.2" y2="135"/><line class="cls-6" x1="112.2" y1="133.32" x2="112.2" y2="131.4"/><line class="cls-6" x1="112.2" y1="129.48" x2="112.2" y2="127.56"/><line class="cls-6" x1="112.2" y1="125.88" x2="112.2" y2="123.72"/><line class="cls-6" x1="112.2" y1="122.04" x2="112.2" y2="119.88"/><line class="cls-6" x1="112.2" y1="118.2" x2="112.2" y2="116.04"/><line class="cls-6" x1="112.2" y1="114.36" x2="112.2" y2="112.2"/><line class="cls-6" x1="112.2" y1="110.52" x2="112.2" y2="108.36"/><line class="cls-6" x1="112.2" y1="106.68" x2="112.2" y2="104.52"/><line class="cls-6" x1="112.2" y1="102.84" x2="112.2" y2="100.68"/><line class="cls-6" x1="112.2" y1="99" x2="112.2" y2="96.84"/><line class="cls-6" x1="112.2" y1="95.16" x2="112.2" y2="93"/><line class="cls-6" x1="112.2" y1="91.32" x2="112.2" y2="89.16"/><line class="cls-6" x1="112.2" y1="87.48" x2="112.2" y2="85.32"/><line class="cls-6" x1="112.2" y1="83.64" x2="112.2" y2="81.48"/><line class="cls-6" x1="112.2" y1="79.8" x2="112.2" y2="77.64"/><line class="cls-6" x1="112.2" y1="75.96" x2="112.2" y2="74.04"/><line class="cls-6" x1="112.2" y1="72.12" x2="112.2" y2="70.2"/><line class="cls-6" x1="112.2" y1="68.28" x2="112.2" y2="66.36"/><line class="cls-6" x1="112.2" y1="64.68" x2="112.2" y2="62.52"/><line class="cls-6" x1="112.2" y1="60.84" x2="112.2" y2="58.68"/><line class="cls-6" x1="112.2" y1="57" x2="112.2" y2="54.84"/><line class="cls-6" x1="112.2" y1="53.16" x2="112.2" y2="51"/><line class="cls-6" x1="112.2" y1="49.32" x2="112.2" y2="47.16"/><line class="cls-6" x1="112.2" y1="45.48" x2="112.2" y2="43.32"/><line class="cls-6" x1="112.2" y1="41.64" x2="112.2" y2="39.48"/><line class="cls-6" x1="112.2" y1="37.8" x2="112.2" y2="35.64"/><line class="cls-6" x1="112.2" y1="33.96" x2="112.2" y2="31.8"/><line class="cls-6" x1="112.2" y1="30.12" x2="112.2" y2="27.96"/><line class="cls-6" x1="112.2" y1="26.28" x2="112.2" y2="24.12"/><line class="cls-6" x1="112.2" y1="22.44" x2="112.2" y2="20.28"/><line class="cls-6" x1="112.2" y1="18.6" x2="112.2" y2="16.44"/><line class="cls-6" x1="112.2" y1="14.76" x2="112.2" y2="12.84"/><line class="cls-6" x1="112.2" y1="10.92" x2="112.2" y2="9"/><line class="cls-6" x1="112.2" y1="7.32" x2="112.2" y2="5.16"/><line class="cls-6" x1="112.2" y1="3.48" x2="112.2" y2="1.8"/><line class="cls-6" x1="108.84" y1="152.04" x2="112.2" y2="152.04"/><line class="cls-6" x1="61.8" y1="136.92" x2="61.8" y2="139.8"/><line class="cls-6" x1="61.8" y1="141.48" x2="61.8" y2="143.64"/><line class="cls-6" x1="61.8" y1="145.32" x2="61.8" y2="147.48"/><line class="cls-6" x1="61.8" y1="149.16" x2="61.8" y2="152.04"/><line class="cls-6" x1="35.88" y1="111" x2="37.32" y2="112.44"/><line class="cls-6" x1="38.52" y1="113.64" x2="40.2" y2="115.32"/><line class="cls-6" x1="41.4" y1="116.52" x2="42.84" y2="117.96"/><line class="cls-6" x1="44.04" y1="119.16" x2="45.48" y2="120.6"/><line class="cls-6" x1="46.68" y1="121.8" x2="48.12" y2="123.24"/><line class="cls-6" x1="49.32" y1="124.44" x2="51" y2="126.12"/><line class="cls-6" x1="52.2" y1="127.32" x2="53.64" y2="128.76"/><line class="cls-6" x1="54.84" y1="129.96" x2="56.28" y2="131.4"/><line class="cls-6" x1="57.48" y1="132.6" x2="59.16" y2="134.04"/><line class="cls-6" x1="60.36" y1="135.24" x2="61.8" y2="136.92"/><line class="cls-6" x1="1.8" y1="111" x2="4.68" y2="111"/><line class="cls-6" x1="6.36" y1="111" x2="8.28" y2="111"/><line class="cls-6" x1="10.2" y1="111" x2="12.12" y2="111"/><line class="cls-6" x1="13.8" y1="111" x2="15.96" y2="111"/><line class="cls-6" x1="17.64" y1="111" x2="19.8" y2="111"/><line class="cls-6" x1="21.48" y1="111" x2="23.64" y2="111"/><line class="cls-6" x1="25.32" y1="111" x2="27.48" y2="111"/><line class="cls-6" x1="29.16" y1="111" x2="31.32" y2="111"/><line class="cls-6" x1="33" y1="111" x2="35.88" y2="111"/><line class="cls-6" x1="1.8" y1="1.8" x2="1.8" y2="3.96"/><line class="cls-6" x1="1.8" y1="5.64" x2="1.8" y2="7.8"/><line class="cls-6" x1="1.8" y1="9.48" x2="1.8" y2="11.64"/><line class="cls-6" x1="1.8" y1="13.32" x2="1.8" y2="15.24"/><line class="cls-6" x1="1.8" y1="17.16" x2="1.8" y2="19.08"/><line class="cls-6" x1="1.8" y1="20.76" x2="1.8" y2="22.92"/><line class="cls-6" x1="1.8" y1="24.6" x2="1.8" y2="26.76"/><line class="cls-6" x1="1.8" y1="28.44" x2="1.8" y2="30.6"/><line class="cls-6" x1="1.8" y1="32.28" x2="1.8" y2="34.44"/><line class="cls-6" x1="1.8" y1="36.12" x2="1.8" y2="38.28"/><line class="cls-6" x1="1.8" y1="39.96" x2="1.8" y2="42.12"/><line class="cls-6" x1="1.8" y1="43.8" x2="1.8" y2="45.96"/><line class="cls-6" x1="1.8" y1="47.64" x2="1.8" y2="49.8"/><line class="cls-6" x1="1.8" y1="51.48" x2="1.8" y2="53.64"/><line class="cls-6" x1="1.8" y1="55.32" x2="1.8" y2="57.48"/><line class="cls-6" x1="1.8" y1="59.16" x2="1.8" y2="61.32"/><line class="cls-6" x1="1.8" y1="63" x2="1.8" y2="65.16"/><line class="cls-6" x1="1.8" y1="66.84" x2="1.8" y2="69"/><line class="cls-6" x1="1.8" y1="70.68" x2="1.8" y2="72.6"/><line class="cls-6" x1="1.8" y1="74.52" x2="1.8" y2="76.44"/><line class="cls-6" x1="1.8" y1="78.36" x2="1.8" y2="80.28"/><line class="cls-6" x1="1.8" y1="81.96" x2="1.8" y2="84.12"/><line class="cls-6" x1="1.8" y1="85.8" x2="1.8" y2="87.96"/><line class="cls-6" x1="1.8" y1="89.64" x2="1.8" y2="91.8"/><line class="cls-6" x1="1.8" y1="93.48" x2="1.8" y2="95.64"/><line class="cls-6" x1="1.8" y1="97.32" x2="1.8" y2="99.48"/><line class="cls-6" x1="1.8" y1="101.16" x2="1.8" y2="103.32"/><line class="cls-6" x1="1.8" y1="105" x2="1.8" y2="107.16"/><line class="cls-6" x1="1.8" y1="108.84" x2="1.8" y2="111"/><line class="cls-6" x1="112.2" y1="1.8" x2="109.56" y2="1.8"/><line class="cls-6" x1="107.88" y1="1.8" x2="105.72" y2="1.8"/><line class="cls-6" x1="104.04" y1="1.8" x2="101.88" y2="1.8"/><line class="cls-6" x1="100.2" y1="1.8" x2="98.04" y2="1.8"/><line class="cls-6" x1="96.36" y1="1.8" x2="94.2" y2="1.8"/><line class="cls-6" x1="92.52" y1="1.8" x2="90.36" y2="1.8"/><line class="cls-6" x1="88.68" y1="1.8" x2="86.52" y2="1.8"/><line class="cls-6" x1="84.84" y1="1.8" x2="82.68" y2="1.8"/><line class="cls-6" x1="81" y1="1.8" x2="78.84" y2="1.8"/><line class="cls-6" x1="77.16" y1="1.8" x2="75" y2="1.8"/><line class="cls-6" x1="73.32" y1="1.8" x2="71.4" y2="1.8"/><line class="cls-6" x1="69.48" y1="1.8" x2="67.56" y2="1.8"/><line class="cls-6" x1="65.88" y1="1.8" x2="63.72" y2="1.8"/><line class="cls-6" x1="62.04" y1="1.8" x2="59.88" y2="1.8"/><line class="cls-6" x1="58.2" y1="1.8" x2="56.04" y2="1.8"/><line class="cls-6" x1="54.36" y1="1.8" x2="52.2" y2="1.8"/><line class="cls-6" x1="50.52" y1="1.8" x2="48.36" y2="1.8"/><line class="cls-6" x1="46.68" y1="1.8" x2="44.52" y2="1.8"/><line class="cls-6" x1="42.84" y1="1.8" x2="40.68" y2="1.8"/><line class="cls-6" x1="39" y1="1.8" x2="36.84" y2="1.8"/><line class="cls-6" x1="35.16" y1="1.8" x2="33" y2="1.8"/><line class="cls-6" x1="31.32" y1="1.8" x2="29.16" y2="1.8"/><line class="cls-6" x1="27.48" y1="1.8" x2="25.32" y2="1.8"/><line class="cls-6" x1="23.64" y1="1.8" x2="21.48" y2="1.8"/><line class="cls-6" x1="19.8" y1="1.8" x2="17.64" y2="1.8"/><line class="cls-6" x1="15.96" y1="1.8" x2="13.8" y2="1.8"/><line class="cls-6" x1="12.12" y1="1.8" x2="10.2" y2="1.8"/><line class="cls-6" x1="8.28" y1="1.8" x2="6.36" y2="1.8"/><line class="cls-6" x1="4.68" y1="1.8" x2="1.8" y2="1.8"/><polyline class="cls-7" points="80.52 152.04 79.56 146.76 77.16 141.96 73.32 138.12 68.76 135.72 63.48 135"/><polyline class="cls-7" points="80.52 152.04 79.56 146.76 77.16 141.96 73.32 138.12 68.76 135.72 63.48 135"/><line class="cls-7" x1="63.48" y1="152.04" x2="63.48" y2="135"/><polyline class="cls-7" points="64.92 152.04 64.92 135 63.48 135 63.48 152.04 64.92 152.04"/><polyline class="cls-7" points="80.52 152.04 81.24 145.56 83.16 139.56 86.52 134.28 91.08 129.72 96.6 126.36 102.6 124.2 108.84 123.48"/><polyline class="cls-7" points="80.52 152.04 81.24 145.56 83.16 139.56 86.52 134.28 91.08 129.72 96.6 126.36 102.6 124.2 108.84 123.48"/><line class="cls-7" x1="108.84" y1="152.04" x2="108.84" y2="123.48"/><polyline class="cls-7" points="107.4 152.04 107.4 123.48 108.84 123.48 108.84 152.04 107.4 152.04"/><polyline class="cls-7" points="0.12 0.12 113.88 0.12 113.88 153.72 60.12 153.72"/><polyline class="cls-7" points="60.12 153.72 60.12 137.64 35.16 112.68 0.12 112.68 0.12 0.12"/><polyline class="cls-7" points="63.48 150.36 110.52 150.36 110.52 3.48 3.48 3.48 3.48 109.08 36.6 109.08 63.48 136.2 63.48 150.36"/><line class="cls-7" x1="110.52" y1="3.48" x2="110.52" y2="5.4"/><line class="cls-7" x1="110.52" y1="7.08" x2="110.52" y2="9"/><line class="cls-7" x1="110.52" y1="10.92" x2="110.52" y2="12.84"/><line class="cls-7" x1="110.52" y1="14.52" x2="110.52" y2="16.68"/><line class="cls-7" x1="110.52" y1="18.36" x2="110.52" y2="20.52"/><line class="cls-7" x1="110.52" y1="22.2" x2="110.52" y2="24.36"/><line class="cls-7" x1="110.52" y1="26.04" x2="110.52" y2="28.2"/><line class="cls-7" x1="110.52" y1="29.88" x2="110.52" y2="32.04"/><line class="cls-7" x1="110.52" y1="33.72" x2="110.52" y2="35.88"/><line class="cls-7" x1="110.52" y1="37.56" x2="110.52" y2="39.72"/><line class="cls-7" x1="110.52" y1="41.4" x2="110.52" y2="43.56"/><line class="cls-7" x1="110.52" y1="45.24" x2="110.52" y2="47.4"/><line class="cls-7" x1="110.52" y1="49.08" x2="110.52" y2="51.24"/><line class="cls-7" x1="110.52" y1="52.92" x2="110.52" y2="55.08"/><line class="cls-7" x1="110.52" y1="56.76" x2="110.52" y2="58.92"/><line class="cls-7" x1="110.52" y1="60.6" x2="110.52" y2="62.76"/><line class="cls-7" x1="110.52" y1="64.44" x2="110.52" y2="66.6"/><line class="cls-7" x1="110.52" y1="68.28" x2="110.52" y2="70.2"/><line class="cls-7" x1="110.52" y1="72.12" x2="110.52" y2="74.04"/><line class="cls-7" x1="110.52" y1="75.72" x2="110.52" y2="77.88"/><line class="cls-7" x1="110.52" y1="79.56" x2="110.52" y2="81.72"/><line class="cls-7" x1="110.52" y1="83.4" x2="110.52" y2="85.56"/><line class="cls-7" x1="110.52" y1="87.24" x2="110.52" y2="89.4"/><line class="cls-7" x1="110.52" y1="91.08" x2="110.52" y2="93.24"/><line class="cls-7" x1="110.52" y1="94.92" x2="110.52" y2="97.08"/><line class="cls-7" x1="110.52" y1="98.76" x2="110.52" y2="100.92"/><line class="cls-7" x1="110.52" y1="102.6" x2="110.52" y2="104.76"/><line class="cls-7" x1="110.52" y1="106.44" x2="110.52" y2="108.6"/><line class="cls-7" x1="110.52" y1="110.28" x2="110.52" y2="112.44"/><line class="cls-7" x1="110.52" y1="114.12" x2="110.52" y2="116.28"/><line class="cls-7" x1="110.52" y1="117.96" x2="110.52" y2="120.12"/><line class="cls-7" x1="110.52" y1="121.8" x2="110.52" y2="123.96"/><line class="cls-7" x1="110.52" y1="125.64" x2="110.52" y2="127.8"/><line class="cls-7" x1="110.52" y1="129.48" x2="110.52" y2="131.4"/><line class="cls-7" x1="110.52" y1="133.32" x2="110.52" y2="135.24"/><line class="cls-7" x1="110.52" y1="136.92" x2="110.52" y2="139.08"/><line class="cls-7" x1="110.52" y1="140.76" x2="110.52" y2="142.92"/><line class="cls-7" x1="110.52" y1="144.6" x2="110.52" y2="146.76"/><polyline class="cls-7" points="110.52 148.44 110.52 150.36 109.08 150.36"/><line class="cls-7" x1="107.16" y1="150.36" x2="105.24" y2="150.36"/><line class="cls-7" x1="103.56" y1="150.36" x2="101.4" y2="150.36"/><line class="cls-7" x1="99.72" y1="150.36" x2="97.56" y2="150.36"/><line class="cls-7" x1="95.88" y1="150.36" x2="93.72" y2="150.36"/><line class="cls-7" x1="92.04" y1="150.36" x2="89.88" y2="150.36"/><line class="cls-7" x1="88.2" y1="150.36" x2="86.04" y2="150.36"/><line class="cls-7" x1="84.36" y1="150.36" x2="82.2" y2="150.36"/><line class="cls-7" x1="80.52" y1="150.36" x2="78.36" y2="150.36"/><line class="cls-7" x1="76.68" y1="150.36" x2="74.52" y2="150.36"/><line class="cls-7" x1="72.84" y1="150.36" x2="70.68" y2="150.36"/><line class="cls-7" x1="69" y1="150.36" x2="66.84" y2="150.36"/><polyline class="cls-7" points="65.16 150.36 63.48 150.36 63.48 147.96"/><line class="cls-7" x1="63.48" y1="146.28" x2="63.48" y2="144.12"/><line class="cls-7" x1="63.48" y1="142.44" x2="63.48" y2="140.28"/><polyline class="cls-7" points="63.48 138.6 63.48 136.2 62.76 135.48"/><line class="cls-7" x1="61.56" y1="134.28" x2="60.12" y2="132.84"/><line class="cls-7" x1="58.92" y1="131.64" x2="57.48" y2="130.2"/><line class="cls-7" x1="56.28" y1="129" x2="54.6" y2="127.32"/><line class="cls-7" x1="53.4" y1="126.12" x2="51.96" y2="124.68"/><line class="cls-7" x1="50.76" y1="123.48" x2="49.32" y2="122.04"/><line class="cls-7" x1="48.12" y1="120.84" x2="46.68" y2="119.16"/><line class="cls-7" x1="45.48" y1="117.96" x2="43.8" y2="116.52"/><line class="cls-7" x1="42.6" y1="115.32" x2="41.16" y2="113.88"/><line class="cls-7" x1="39.96" y1="112.68" x2="38.52" y2="111.24"/><polyline class="cls-7" points="37.32 110.04 36.6 109.08 35.4 109.08"/><line class="cls-7" x1="33.72" y1="109.08" x2="32.52" y2="109.08"/><polyline class="cls-7" points="6.84 109.08 3.48 109.08 3.48 106.92"/><line class="cls-7" x1="3.48" y1="105.24" x2="3.48" y2="103.08"/><line class="cls-7" x1="3.48" y1="101.4" x2="3.48" y2="99.24"/><line class="cls-7" x1="3.48" y1="97.56" x2="3.48" y2="95.4"/><line class="cls-7" x1="3.48" y1="93.72" x2="3.48" y2="91.56"/><line class="cls-7" x1="3.48" y1="89.88" x2="3.48" y2="87.72"/><line class="cls-7" x1="3.48" y1="86.04" x2="3.48" y2="83.88"/><line class="cls-7" x1="3.48" y1="82.2" x2="3.48" y2="80.04"/><line class="cls-7" x1="3.48" y1="78.36" x2="3.48" y2="76.44"/><line class="cls-7" x1="3.48" y1="74.52" x2="3.48" y2="72.6"/><line class="cls-7" x1="3.48" y1="70.92" x2="3.48" y2="68.76"/><line class="cls-7" x1="3.48" y1="67.08" x2="3.48" y2="64.92"/><line class="cls-7" x1="3.48" y1="63.24" x2="3.48" y2="61.08"/><line class="cls-7" x1="3.48" y1="59.4" x2="3.48" y2="57.24"/><line class="cls-7" x1="3.48" y1="55.56" x2="3.48" y2="53.4"/><line class="cls-7" x1="3.48" y1="51.72" x2="3.48" y2="49.56"/><line class="cls-7" x1="3.48" y1="47.88" x2="3.48" y2="45.72"/><line class="cls-7" x1="3.48" y1="44.04" x2="3.48" y2="41.88"/><line class="cls-7" x1="3.48" y1="40.2" x2="3.48" y2="38.04"/><line class="cls-7" x1="3.48" y1="36.36" x2="3.48" y2="34.2"/><line class="cls-7" x1="3.48" y1="32.52" x2="3.48" y2="30.36"/><line class="cls-7" x1="3.48" y1="28.68" x2="3.48" y2="26.52"/><line class="cls-7" x1="3.48" y1="24.84" x2="3.48" y2="22.68"/><line class="cls-7" x1="3.48" y1="21" x2="3.48" y2="18.84"/><line class="cls-7" x1="3.48" y1="17.16" x2="3.48" y2="15.24"/><line class="cls-7" x1="3.48" y1="13.32" x2="3.48" y2="11.4"/><line class="cls-7" x1="3.48" y1="9.72" x2="3.48" y2="7.56"/><polyline class="cls-7" points="3.48 5.88 3.48 3.48 4.68 3.48"/><line class="cls-7" x1="6.36" y1="3.48" x2="8.28" y2="3.48"/><line class="cls-7" x1="10.2" y1="3.48" x2="12.12" y2="3.48"/><line class="cls-7" x1="13.8" y1="3.48" x2="15.96" y2="3.48"/><line class="cls-7" x1="17.64" y1="3.48" x2="19.8" y2="3.48"/><line class="cls-7" x1="21.48" y1="3.48" x2="23.64" y2="3.48"/><line class="cls-7" x1="25.32" y1="3.48" x2="27.48" y2="3.48"/><line class="cls-7" x1="29.16" y1="3.48" x2="31.32" y2="3.48"/><line class="cls-7" x1="33" y1="3.48" x2="35.16" y2="3.48"/><line class="cls-7" x1="36.84" y1="3.48" x2="39" y2="3.48"/><line class="cls-7" x1="40.68" y1="3.48" x2="42.84" y2="3.48"/><line class="cls-7" x1="44.52" y1="3.48" x2="46.68" y2="3.48"/><line class="cls-7" x1="48.36" y1="3.48" x2="50.52" y2="3.48"/><line class="cls-7" x1="52.2" y1="3.48" x2="54.36" y2="3.48"/><line class="cls-7" x1="56.04" y1="3.48" x2="58.2" y2="3.48"/><line class="cls-7" x1="59.88" y1="3.48" x2="62.04" y2="3.48"/><line class="cls-7" x1="63.72" y1="3.48" x2="65.88" y2="3.48"/><line class="cls-7" x1="67.56" y1="3.48" x2="69.48" y2="3.48"/><line class="cls-7" x1="71.4" y1="3.48" x2="73.32" y2="3.48"/><line class="cls-7" x1="75" y1="3.48" x2="77.16" y2="3.48"/><line class="cls-7" x1="78.84" y1="3.48" x2="81" y2="3.48"/><line class="cls-7" x1="82.68" y1="3.48" x2="84.84" y2="3.48"/><line class="cls-7" x1="86.52" y1="3.48" x2="88.68" y2="3.48"/><line class="cls-7" x1="90.36" y1="3.48" x2="92.52" y2="3.48"/><line class="cls-7" x1="94.2" y1="3.48" x2="96.36" y2="3.48"/><line class="cls-7" x1="98.04" y1="3.48" x2="100.2" y2="3.48"/><line class="cls-7" x1="101.88" y1="3.48" x2="104.04" y2="3.48"/><line class="cls-7" x1="105.72" y1="3.48" x2="107.88" y2="3.48"/><line class="cls-7" x1="109.56" y1="3.48" x2="110.52" y2="3.48"/><line class="cls-7" x1="66.6" y1="65.4" x2="6.84" y2="65.4"/><polyline class="cls-7" points="68.04 63.96 67.56 64.92 66.6 65.4"/><line class="cls-7" x1="68.04" y1="38.76" x2="68.04" y2="63.96"/><polyline class="cls-7" points="66.6 37.32 67.56 37.8 68.04 38.76"/><line class="cls-7" x1="6.84" y1="37.32" x2="66.6" y2="37.32"/><polyline class="cls-7" points="5.4 38.76 5.88 37.8 6.84 37.32"/><line class="cls-7" x1="5.4" y1="63.96" x2="5.4" y2="38.76"/><polyline class="cls-7" points="6.84 65.4 5.88 64.92 5.4 63.96"/><polyline class="cls-8" points="21.24 37.32 21.24 38.04 7.56 38.04 7.56 37.32 21.24 37.32"/><polyline class="cls-8" points="64.2 64.68 64.2 65.4 44.04 65.4 44.04 64.68 64.2 64.68"/><polyline class="cls-8" points="21 64.68 21 65.4 7.32 65.4 7.32 64.68 21 64.68"/><line class="cls-8" x1="67.08" y1="62.76" x2="67.8" y2="62.76"/><line class="cls-8" x1="67.08" y1="39.96" x2="67.08" y2="62.76"/><line class="cls-8" x1="67.8" y1="39.96" x2="67.08" y2="39.96"/><line class="cls-8" x1="67.8" y1="62.76" x2="67.8" y2="39.96"/><line class="cls-8" x1="6.36" y1="62.52" x2="5.64" y2="62.52"/><line class="cls-8" x1="6.36" y1="39.96" x2="6.36" y2="62.52"/><line class="cls-8" x1="5.64" y1="39.96" x2="6.36" y2="39.96"/><line class="cls-8" x1="5.64" y1="62.52" x2="5.64" y2="39.96"/><line class="cls-8" x1="19.56" y1="39.96" x2="7.8" y2="39.96"/><line class="cls-8" x1="19.56" y1="63" x2="19.56" y2="39.96"/><line class="cls-8" x1="7.8" y1="63" x2="19.56" y2="63"/><line class="cls-8" x1="7.8" y1="39.96" x2="7.8" y2="63"/><line class="cls-8" x1="65.64" y1="64.44" x2="7.8" y2="64.44"/><polyline class="cls-8" points="66.84 63 66.6 63.96 65.64 64.44"/><line class="cls-8" x1="66.84" y1="39.96" x2="66.84" y2="63"/><polyline class="cls-8" points="65.64 38.52 66.6 38.76 66.84 39.96"/><line class="cls-8" x1="7.8" y1="38.52" x2="65.64" y2="38.52"/><polyline class="cls-8" points="6.6 39.96 6.84 38.76 7.8 38.52"/><line class="cls-8" x1="6.6" y1="63" x2="6.6" y2="39.96"/><polyline class="cls-8" points="7.8 64.44 6.84 63.96 6.6 63"/><polyline class="cls-8" points="5.4 63.96 5.4 38.76 5.4 38.52 5.64 38.04 5.88 37.8 6.12 37.56 6.36 37.32 6.84 37.32 66.6 37.32 67.08 37.32 67.32 37.56 67.56 37.8 67.8 38.04 68.04 38.52 68.04 38.76 68.04 63.96 68.04 64.44 67.8 64.68 67.56 64.92 67.32 65.16 67.08 65.4 66.6 65.4 6.84 65.4 6.36 65.4 6.12 65.16 5.88 64.92 5.64 64.68 5.4 64.44 5.4 63.96"/><polyline class="cls-8" points="25.08 105 24.36 105.24 23.64 105.24"/><polyline class="cls-8" points="14.28 105 15 105.24 15.72 105.24"/><line class="cls-8" x1="26.28" y1="103.32" x2="26.28" y2="103.8"/><polyline class="cls-8" points="26.28 103.32 26.52 102.6 26.28 101.88"/><polyline class="cls-8" points="25.08 105 25.8 104.52 26.28 103.8"/><line class="cls-8" x1="12.84" y1="103.32" x2="13.08" y2="103.8"/><polyline class="cls-8" points="12.84 103.32 12.84 102.6 13.08 101.88"/><polyline class="cls-8" points="14.28 105 13.56 104.52 13.08 103.8"/><line class="cls-7" x1="12.6" y1="109.08" x2="26.76" y2="109.08"/><polyline class="cls-7" points="12.36 100.44 13.08 99.24 14.04 98.28"/><polyline class="cls-7" points="11.88 103.08 12.12 101.64 12.36 100.44"/><polyline class="cls-7" points="12.6 109.08 12.12 105.96 11.88 102.84"/><polyline class="cls-7" points="27.48 102.84 27.24 105.96 26.76 109.08"/><polyline class="cls-7" points="16.68 96.84 18.12 96.36 19.56 96.36"/><polyline class="cls-7" points="14.04 98.28 15.24 97.32 16.68 96.84"/><polyline class="cls-7" points="26.76 100.44 27.24 101.64 27.48 103.08"/><polyline class="cls-7" points="25.08 98.28 26.04 99.24 26.76 100.44"/><polyline class="cls-7" points="22.68 96.84 23.88 97.32 25.08 98.28"/><polyline class="cls-7" points="19.56 96.36 21.24 96.36 22.68 96.84"/><polyline class="cls-8" points="27 108.6 12.36 108.6 12.12 105.72 11.88 102.84 12.12 101.64 12.36 100.44 13.08 99.24 14.04 98.28 15.24 97.32 16.68 96.84 18.12 96.36 19.56 96.36 21.24 96.36 22.68 96.84 23.88 97.32 25.08 98.28 26.04 99.24 26.76 100.44 27.24 101.64 27.48 102.84 27.24 105.72 27 108.6"/><polyline class="cls-9" points="32.52 109.08 6.84 109.08 6.84 108.6 32.52 108.6 32.52 109.08"/></g></g></svg>