<svg xmlns="http://www.w3.org/2000/svg" xmlns:xlink="http://www.w3.org/1999/xlink" viewBox="0 0 362.4 180.96"><defs><style>.cls-1,.cls-2,.cls-7,.cls-8{fill:none;}.cls-1{clip-rule:evenodd;}.cls-3{clip-path:url(#clip-path);}.cls-4{clip-path:url(#clip-path-2);}.cls-5{fill:#c6d3b4;}.cls-6{clip-path:url(#clip-path-3);}.cls-7{stroke:red;}.cls-7,.cls-8{stroke-linecap:round;stroke-linejoin:round;stroke-width:0.24px;}.cls-8{stroke:#000;}</style><clipPath id="clip-path" transform="translate(0 -361.56)"><polyline class="cls-1" points="3.48 365.04 3.48 539.04 186.6 539.04 186.6 537.84 186.36 537.84 186.36 536.88 186.12 536.88 186.12 535.92 185.88 535.92 185.88 534.96 185.64 534.96 185.64 534 185.4 534 185.4 533.04 185.16 533.04 185.16 531.84 184.92 531.84 184.92 530.88 184.68 530.88 184.68 529.92 184.44 529.92 184.44 528.96 184.2 528.96 184.2 528 183.96 528 183.96 527.04 183.72 527.04 183.72 525.84 183.48 525.84 183.48 524.88 183.24 524.88 183.24 523.92 183 523.92 183 522.96 182.76 522.96 182.76 522 182.52 522 182.52 521.04 182.28 521.04 182.28 519.84 182.04 519.84 182.04 518.88 181.8 518.88 181.8 517.92 181.56 517.92 181.56 516.96 181.32 516.96 181.32 516 181.08 516 181.08 515.04 180.84 515.04 180.84 513.84 180.6 513.84 180.6 512.88 180.36 512.88 180.36 511.92 180.12 511.92 180.12 510.96 179.88 510.96 179.88 510 179.64 510 179.64 509.04 179.4 509.04 179.4 507.84 179.16 507.84 179.16 506.88 178.92 506.88 178.92 505.92 178.68 505.92 178.68 504.96 178.44 504.96 178.44 504 178.2 504 178.2 503.04 177.96 503.04 177.96 501.84 177.72 501.84 177.72 500.88 177.48 500.88 177.48 499.92 177.24 499.92 177.24 498.96 177 498.96 177 498 176.76 498 176.76 497.04 176.52 497.04 176.52 495.84 176.28 495.84 176.28 494.88 176.04 494.88 176.04 493.92 175.8 493.92 175.8 492.96 175.56 492.96 175.56 492 175.32 492 175.32 491.04 175.08 491.04 175.08 489.84 174.84 489.84 174.84 488.88 174.6 488.88 174.6 487.92 174.36 487.92 174.36 486.96 174.12 486.96 174.12 486 173.88 486 173.88 485.04 173.64 485.04 173.64 483.84 173.4 483.84 173.4 482.88 173.16 482.88 173.16 481.92 172.92 481.92 172.92 480.96 172.68 480.96 172.68 480 172.44 480 172.44 479.04 172.2 479.04 172.2 477.84 171.96 477.84 171.96 476.88 171.72 476.88 171.72 475.92 171.48 475.92 171.48 474.96 171.24 474.96 171.24 474 171 474 171 473.04 170.76 473.04 170.76 471.84 170.52 471.84 170.52 470.88 170.28 470.88 170.28 469.92 170.04 469.92 170.04 468.96 169.8 468.96 169.8 468 169.56 468 169.56 467.04 169.32 467.04 169.32 465.84 169.08 465.84 169.08 464.88 168.84 464.88 168.84 463.92 168.6 463.92 168.6 462.96 168.36 462.96 168.36 462 168.12 462 168.12 461.04 167.88 461.04 167.88 459.84 167.64 459.84 167.64 458.88 167.4 458.88 167.4 457.92 167.16 457.92 167.16 456.96 166.92 456.96 166.92 456 166.68 456 166.68 455.04 166.44 455.04 166.44 453.84 166.2 453.84 166.2 452.88 165.96 452.88 165.96 451.92 165.72 451.92 165.72 450.96 165.48 450.96 165.48 450 165.24 450 165.24 449.04 165 449.04 165 447.84 164.76 447.84 164.76 446.88 164.52 446.88 164.52 445.92 164.28 445.92 164.28 444.96 164.04 444.96 164.04 444 163.8 444 163.8 443.04 163.56 443.04 163.56 441.84 163.32 441.84 163.32 440.88 163.08 440.88 163.08 439.92 162.84 439.92 162.84 438.96 162.6 438.96 162.6 438 162.36 438 162.36 437.04 162.12 437.04 162.12 435.84 161.88 435.84 161.88 434.88 161.64 434.88 161.64 433.92 161.4 433.92 161.4 432.96 161.16 432.96 161.16 432 160.92 432 160.92 431.04 160.68 431.04 160.68 429.84 160.44 429.84 160.44 428.88 160.2 428.88 160.2 427.92 159.96 427.92 159.96 426.96 159.72 426.96 159.72 426 159.48 426 159.48 425.04 159.24 425.04 159.24 423.84 159 423.84 159 422.88 158.76 422.88 158.76 421.92 158.52 421.92 158.52 420.96 158.28 420.96 158.28 420 158.04 420 158.04 419.04 157.8 419.04 157.8 417.84 157.56 417.84 157.56 416.88 157.32 416.88 157.32 415.92 157.08 415.92 157.08 414.96 156.84 414.96 156.84 414 156.6 414 156.6 413.04 156.36 413.04 156.36 411.84 156.12 411.84 156.12 410.88 155.88 410.88 155.88 409.92 155.64 409.92 155.64 408.96 155.4 408.96 155.4 408 155.16 408 155.16 407.04 154.92 407.04 154.92 405.84 154.68 405.84 154.68 404.88 154.44 404.88 154.44 403.92 154.2 403.92 154.2 402.96 153.96 402.96 153.96 402 153.72 402 153.72 401.04 153.48 401.04 153.48 399.84 153.24 399.84 153.24 398.88 153 398.88 153 397.92 152.76 397.92 152.76 396.96 152.52 396.96 152.52 396 152.28 396 152.28 395.04 152.04 395.04 152.04 393.84 151.8 393.84 151.8 392.88 151.56 392.88 151.56 391.92 151.32 391.92 151.32 390.96 151.08 390.96 151.08 390 150.84 390 150.84 389.04 150.6 389.04 150.6 387.84 150.36 387.84 150.36 386.88 150.12 386.88 150.12 385.92 149.88 385.92 149.88 384.96 149.64 384.96 149.64 384 149.4 384 149.4 383.04 149.16 383.04 149.16 381.84 148.92 381.84 148.92 380.88 148.68 380.88 148.68 379.92 148.44 379.92 148.44 378.96 148.2 378.96 148.2 378 147.96 378 147.96 377.04 147.72 377.04 147.72 375.84 147.48 375.84 147.48 374.88 147.24 374.88 147.24 373.92 147 373.92 147 372.96 146.76 372.96 146.76 372 146.52 372 146.52 371.04 146.28 371.04 146.28 369.84 146.04 369.84 146.04 368.88 145.8 368.88 145.8 367.92 145.56 367.92 145.56 366.96 145.32 366.96 145.32 366 145.08 366 145.08 365.04"/></clipPath><clipPath id="clip-path-2" transform="translate(0 -361.56)"><rect class="cls-2" x="0.13" width="841.92" height="595.2"/></clipPath><clipPath id="clip-path-3" transform="translate(0 -361.56)"><polyline class="cls-1" points="177.72 365.04 177.72 366 177.96 366 177.96 366.96 178.2 366.96 178.2 367.92 178.44 367.92 178.44 368.88 178.68 368.88 178.68 369.84 178.92 369.84 178.92 370.8 179.16 370.8 179.16 372 179.4 372 179.4 372.96 179.64 372.96 179.64 373.92 179.88 373.92 179.88 374.88 180.12 374.88 180.12 375.84 180.36 375.84 180.36 376.8 180.6 376.8 180.6 377.76 180.84 377.76 180.84 378.96 181.08 378.96 181.08 379.92 181.32 379.92 181.32 380.88 181.56 380.88 181.56 381.84 181.8 381.84 181.8 382.8 182.04 382.8 182.04 383.76 182.28 383.76 182.28 384.72 182.52 384.72 182.52 385.92 182.76 385.92 182.76 386.88 183 386.88 183 387.84 183.24 387.84 183.24 388.8 183.48 388.8 183.48 389.76 183.72 389.76 183.72 390.72 183.96 390.72 183.96 391.68 184.2 391.68 184.2 392.88 184.44 392.88 184.44 393.84 184.68 393.84 184.68 394.8 184.92 394.8 184.92 395.76 185.16 395.76 185.16 396.72 185.4 396.72 185.4 397.68 185.64 397.68 185.64 398.64 185.88 398.64 185.88 399.84 186.12 399.84 186.12 400.8 186.36 400.8 186.36 401.76 186.6 401.76 186.6 402.72 186.84 402.72 186.84 403.68 187.08 403.68 187.08 404.64 187.32 404.64 187.32 405.6 187.56 405.6 187.56 406.8 187.8 406.8 187.8 407.76 188.04 407.76 188.04 408.72 188.28 408.72 188.28 409.68 188.52 409.68 188.52 410.64 188.76 410.64 188.76 411.6 189 411.6 189 412.56 189.24 412.56 189.24 413.76 189.48 413.76 189.48 414.72 189.72 414.72 189.72 415.68 189.96 415.68 189.96 416.64 190.2 416.64 190.2 417.6 190.44 417.6 190.44 418.56 190.68 418.56 190.68 419.52 190.92 419.52 190.92 420.72 191.16 420.72 191.16 421.68 191.4 421.68 191.4 422.64 191.64 422.64 191.64 423.6 191.88 423.6 191.88 424.56 192.12 424.56 192.12 425.52 192.36 425.52 192.36 426.72 192.6 426.72 192.6 427.68 192.84 427.68 192.84 428.64 193.08 428.64 193.08 429.6 193.32 429.6 193.32 430.56 193.56 430.56 193.56 431.52 193.8 431.52 193.8 432.72 194.04 432.72 194.04 433.68 194.28 433.68 194.28 434.64 194.52 434.64 194.52 435.6 194.76 435.6 194.76 436.56 195 436.56 195 437.76 195.24 437.76 195.24 438.72 195.48 438.72 195.48 439.68 195.72 439.68 195.72 440.64 195.96 440.64 195.96 441.6 196.2 441.6 196.2 442.56 196.44 442.56 196.44 443.76 196.68 443.76 196.68 444.72 196.92 444.72 196.92 445.68 197.16 445.68 197.16 446.64 197.4 446.64 197.4 447.6 197.64 447.6 197.64 448.56 197.88 448.56 197.88 449.76 198.12 449.76 198.12 450.72 198.36 450.72 198.36 451.68 198.6 451.68 198.6 452.64 198.84 452.64 198.84 453.6 199.08 453.6 199.08 454.8 199.32 454.8 199.32 455.76 199.56 455.76 199.56 456.72 199.8 456.72 199.8 457.68 200.04 457.68 200.04 458.64 200.28 458.64 200.28 459.6 200.52 459.6 200.52 460.8 200.76 460.8 200.76 461.76 201 461.76 201 462.72 201.24 462.72 201.24 463.68 201.48 463.68 201.48 464.64 201.72 464.64 201.72 465.84 201.96 465.84 201.96 466.8 202.2 466.8 202.2 467.76 202.44 467.76 202.44 468.72 202.68 468.72 202.68 469.68 202.92 469.68 202.92 470.64 203.16 470.64 203.16 471.84 203.4 471.84 203.4 472.8 203.64 472.8 203.64 473.76 203.88 473.76 203.88 474.72 204.12 474.72 204.12 475.68 204.36 475.68 204.36 476.64 204.6 476.64 204.6 477.84 204.84 477.84 204.84 478.8 205.08 478.8 205.08 479.76 205.32 479.76 205.32 480.72 205.56 480.72 205.56 481.68 205.8 481.68 205.8 482.88 206.04 482.88 206.04 483.84 206.28 483.84 206.28 484.8 206.52 484.8 206.52 485.76 206.76 485.76 206.76 486.72 207 486.72 207 487.68 207.24 487.68 207.24 488.88 207.48 488.88 207.48 489.84 207.72 489.84 207.72 490.8 207.96 490.8 207.96 491.76 208.2 491.76 208.2 492.72 208.44 492.72 208.44 493.68 208.68 493.68 208.68 494.88 208.92 494.88 208.92 495.84 209.16 495.84 209.16 496.8 209.4 496.8 209.4 497.76 209.64 497.76 209.64 498.72 209.88 498.72 209.88 499.92 210.12 499.92 210.12 500.88 210.36 500.88 210.36 501.84 210.6 501.84 210.6 502.8 210.84 502.8 210.84 503.76 211.08 503.76 211.08 504.72 211.32 504.72 211.32 505.92 211.56 505.92 211.56 506.88 211.8 506.88 211.8 507.84 212.04 507.84 212.04 508.8 212.28 508.8 212.28 509.76 212.52 509.76 212.52 510.96 212.76 510.96 212.76 511.92 213 511.92 213 512.88 213.24 512.88 213.24 513.84 213.48 513.84 213.48 514.8 213.72 514.8 213.72 515.76 213.96 515.76 213.96 516.96 214.2 516.96 214.2 517.92 214.44 517.92 214.44 518.88 214.68 518.88 214.68 519.84 214.92 519.84 214.92 520.8 215.16 520.8 215.16 521.76 215.4 521.76 215.4 522.96 215.64 522.96 215.64 523.92 215.88 523.92 215.88 524.88 216.12 524.88 216.12 525.84 216.36 525.84 216.36 526.8 216.6 526.8 216.6 528 216.84 528 216.84 528.96 217.08 528.96 217.08 529.92 217.32 529.92 217.32 530.88 217.56 530.88 217.56 531.84 217.8 531.84 217.8 532.8 218.04 532.8 218.04 534 218.28 534 218.28 534.96 218.52 534.96 218.52 535.92 218.76 535.92 218.76 536.88 219 536.88 219 537.84 219.24 537.84 219.24 539.04 360.6 539.04 360.6 365.04"/></clipPath></defs><title>ROOM-ANGLED</title><g id="Layer_2" data-name="Layer 2"><g id="Layer_1-2" data-name="Layer 1"><g class="cls-3"><g class="cls-4"><rect class="cls-5" x="3.48" y="3.48" width="183.12" height="174"/></g></g><g class="cls-6"><g class="cls-4"><rect class="cls-5" x="177.72" y="3.48" width="182.88" height="174"/></g></g><line class="cls-7" x1="6.12" y1="179.16" x2="4.92" y2="179.16"/><line class="cls-7" x1="3" y1="179.16" x2="1.8" y2="179.16"/><line class="cls-7" x1="1.8" y1="87" x2="1.8" y2="85.56"/><line class="cls-7" x1="1.8" y1="83.64" x2="1.8" y2="81.72"/><line class="cls-7" x1="1.8" y1="80.04" x2="1.8" y2="77.88"/><line class="cls-7" x1="1.8" y1="76.2" x2="1.8" y2="74.04"/><line class="cls-7" x1="1.8" y1="72.36" x2="1.8" y2="70.2"/><line class="cls-7" x1="1.8" y1="68.52" x2="1.8" y2="66.36"/><line class="cls-7" x1="1.8" y1="64.68" x2="1.8" y2="62.52"/><line class="cls-7" x1="1.8" y1="60.84" x2="1.8" y2="58.68"/><line class="cls-7" x1="1.8" y1="57" x2="1.8" y2="54.84"/><line class="cls-7" x1="1.8" y1="53.16" x2="1.8" y2="51"/><line class="cls-7" x1="1.8" y1="49.32" x2="1.8" y2="47.16"/><line class="cls-7" x1="1.8" y1="45.48" x2="1.8" y2="43.32"/><line class="cls-7" x1="1.8" y1="41.64" x2="1.8" y2="39.48"/><line class="cls-7" x1="1.8" y1="37.8" x2="1.8" y2="35.64"/><line class="cls-7" x1="1.8" y1="33.96" x2="1.8" y2="31.8"/><line class="cls-7" x1="1.8" y1="30.12" x2="1.8" y2="28.2"/><line class="cls-7" x1="1.8" y1="26.28" x2="1.8" y2="24.36"/><line class="cls-7" x1="1.8" y1="22.44" x2="1.8" y2="20.52"/><line class="cls-7" x1="1.8" y1="18.84" x2="1.8" y2="16.68"/><line class="cls-7" x1="1.8" y1="15" x2="1.8" y2="12.84"/><line class="cls-7" x1="1.8" y1="11.16" x2="1.8" y2="9"/><line class="cls-7" x1="1.8" y1="7.32" x2="1.8" y2="5.16"/><line class="cls-7" x1="1.8" y1="3.48" x2="1.8" y2="1.8"/><line class="cls-7" x1="1.8" y1="179.16" x2="1.8" y2="177.72"/><line class="cls-7" x1="1.8" y1="176.04" x2="1.8" y2="173.88"/><line class="cls-7" x1="1.8" y1="172.2" x2="1.8" y2="170.04"/><line class="cls-7" x1="1.8" y1="168.36" x2="1.8" y2="166.2"/><line class="cls-7" x1="1.8" y1="164.52" x2="1.8" y2="162.36"/><line class="cls-7" x1="1.8" y1="160.68" x2="1.8" y2="158.52"/><line class="cls-7" x1="1.8" y1="156.84" x2="1.8" y2="154.68"/><line class="cls-7" x1="1.8" y1="153" x2="1.8" y2="151.08"/><line class="cls-7" x1="1.8" y1="149.16" x2="1.8" y2="147.24"/><line class="cls-7" x1="1.8" y1="145.56" x2="1.8" y2="143.4"/><line class="cls-7" x1="1.8" y1="141.72" x2="1.8" y2="139.56"/><line class="cls-7" x1="1.8" y1="137.88" x2="1.8" y2="135.72"/><line class="cls-7" x1="1.8" y1="134.04" x2="1.8" y2="131.88"/><line class="cls-7" x1="1.8" y1="130.2" x2="1.8" y2="128.04"/><line class="cls-7" x1="1.8" y1="126.36" x2="1.8" y2="124.2"/><line class="cls-7" x1="1.8" y1="122.52" x2="1.8" y2="121.08"/><line class="cls-7" x1="188.76" y1="179.16" x2="186.12" y2="179.16"/><line class="cls-7" x1="184.44" y1="179.16" x2="182.28" y2="179.16"/><line class="cls-7" x1="180.6" y1="179.16" x2="178.44" y2="179.16"/><line class="cls-7" x1="176.76" y1="179.16" x2="174.6" y2="179.16"/><line class="cls-7" x1="172.92" y1="179.16" x2="170.76" y2="179.16"/><line class="cls-7" x1="169.08" y1="179.16" x2="166.92" y2="179.16"/><line class="cls-7" x1="165.24" y1="179.16" x2="163.08" y2="179.16"/><line class="cls-7" x1="161.4" y1="179.16" x2="159.24" y2="179.16"/><line class="cls-7" x1="157.56" y1="179.16" x2="155.4" y2="179.16"/><line class="cls-7" x1="153.72" y1="179.16" x2="151.56" y2="179.16"/><line class="cls-7" x1="149.88" y1="179.16" x2="147.72" y2="179.16"/><line class="cls-7" x1="146.04" y1="179.16" x2="143.88" y2="179.16"/><line class="cls-7" x1="142.2" y1="179.16" x2="140.28" y2="179.16"/><line class="cls-7" x1="138.36" y1="179.16" x2="136.44" y2="179.16"/><line class="cls-7" x1="134.76" y1="179.16" x2="132.6" y2="179.16"/><line class="cls-7" x1="130.92" y1="179.16" x2="128.76" y2="179.16"/><line class="cls-7" x1="127.08" y1="179.16" x2="124.92" y2="179.16"/><line class="cls-7" x1="123.24" y1="179.16" x2="121.08" y2="179.16"/><line class="cls-7" x1="119.4" y1="179.16" x2="117.24" y2="179.16"/><line class="cls-7" x1="115.56" y1="179.16" x2="113.4" y2="179.16"/><line class="cls-7" x1="111.72" y1="179.16" x2="109.56" y2="179.16"/><line class="cls-7" x1="107.88" y1="179.16" x2="105.72" y2="179.16"/><line class="cls-7" x1="104.04" y1="179.16" x2="101.88" y2="179.16"/><line class="cls-7" x1="100.2" y1="179.16" x2="98.04" y2="179.16"/><line class="cls-7" x1="96.36" y1="179.16" x2="94.2" y2="179.16"/><line class="cls-7" x1="92.52" y1="179.16" x2="90.36" y2="179.16"/><line class="cls-7" x1="88.68" y1="179.16" x2="86.52" y2="179.16"/><line class="cls-7" x1="84.84" y1="179.16" x2="82.68" y2="179.16"/><line class="cls-7" x1="81" y1="179.16" x2="79.08" y2="179.16"/><line class="cls-7" x1="77.16" y1="179.16" x2="75.24" y2="179.16"/><line class="cls-7" x1="73.56" y1="179.16" x2="71.4" y2="179.16"/><line class="cls-7" x1="69.72" y1="179.16" x2="67.56" y2="179.16"/><line class="cls-7" x1="65.88" y1="179.16" x2="63.72" y2="179.16"/><line class="cls-7" x1="62.04" y1="179.16" x2="59.88" y2="179.16"/><line class="cls-7" x1="58.2" y1="179.16" x2="56.04" y2="179.16"/><line class="cls-7" x1="54.36" y1="179.16" x2="52.2" y2="179.16"/><line class="cls-7" x1="50.52" y1="179.16" x2="48.36" y2="179.16"/><line class="cls-7" x1="46.68" y1="179.16" x2="44.52" y2="179.16"/><line class="cls-7" x1="42.84" y1="179.16" x2="40.2" y2="179.16"/><line class="cls-7" x1="146.28" y1="1.8" x2="146.76" y2="4.2"/><line class="cls-7" x1="147.24" y1="5.88" x2="147.72" y2="7.8"/><line class="cls-7" x1="147.96" y1="9.48" x2="148.44" y2="11.64"/><line class="cls-7" x1="148.92" y1="13.32" x2="149.4" y2="15.24"/><line class="cls-7" x1="149.88" y1="16.92" x2="150.36" y2="19.08"/><line class="cls-7" x1="150.6" y1="20.76" x2="151.08" y2="22.68"/><line class="cls-7" x1="151.56" y1="24.36" x2="152.04" y2="26.52"/><line class="cls-7" x1="152.52" y1="27.96" x2="153" y2="30.12"/><line class="cls-7" x1="153.48" y1="31.8" x2="153.96" y2="33.96"/><line class="cls-7" x1="154.2" y1="35.4" x2="154.68" y2="37.56"/><line class="cls-7" x1="155.16" y1="39.24" x2="155.64" y2="41.4"/><line class="cls-7" x1="156.12" y1="42.84" x2="156.6" y2="45"/><line class="cls-7" x1="156.84" y1="46.68" x2="157.32" y2="48.84"/><line class="cls-7" x1="157.8" y1="50.28" x2="158.28" y2="52.44"/><line class="cls-7" x1="158.76" y1="54.12" x2="159.24" y2="56.28"/><line class="cls-7" x1="159.72" y1="57.72" x2="160.2" y2="59.88"/><line class="cls-7" x1="160.44" y1="61.56" x2="160.92" y2="63.72"/><line class="cls-7" x1="161.4" y1="65.16" x2="161.88" y2="67.32"/><line class="cls-7" x1="162.36" y1="69" x2="162.84" y2="71.16"/><line class="cls-7" x1="163.08" y1="72.6" x2="163.56" y2="74.76"/><line class="cls-7" x1="164.04" y1="76.44" x2="164.52" y2="78.6"/><line class="cls-7" x1="165" y1="80.04" x2="165.48" y2="82.2"/><line class="cls-7" x1="165.96" y1="83.88" x2="166.44" y2="86.04"/><line class="cls-7" x1="166.68" y1="87.48" x2="167.16" y2="89.64"/><line class="cls-7" x1="167.64" y1="91.32" x2="168.12" y2="93.48"/><line class="cls-7" x1="168.6" y1="94.92" x2="169.08" y2="97.08"/><line class="cls-7" x1="169.32" y1="98.76" x2="169.8" y2="100.92"/><line class="cls-7" x1="170.28" y1="102.36" x2="170.76" y2="104.52"/><line class="cls-7" x1="171.24" y1="106.2" x2="171.72" y2="108.36"/><line class="cls-7" x1="172.2" y1="109.8" x2="172.68" y2="111.96"/><line class="cls-7" x1="172.92" y1="113.64" x2="173.4" y2="115.8"/><line class="cls-7" x1="173.88" y1="117.24" x2="174.36" y2="119.4"/><line class="cls-7" x1="174.84" y1="121.08" x2="175.32" y2="123.24"/><line class="cls-7" x1="175.56" y1="124.68" x2="176.04" y2="126.84"/><line class="cls-7" x1="176.52" y1="128.52" x2="177" y2="130.68"/><line class="cls-7" x1="177.48" y1="132.12" x2="177.96" y2="134.28"/><line class="cls-7" x1="178.44" y1="135.96" x2="178.92" y2="138.12"/><line class="cls-7" x1="179.16" y1="139.56" x2="179.64" y2="141.72"/><line class="cls-7" x1="180.12" y1="143.4" x2="180.6" y2="145.56"/><line class="cls-7" x1="181.08" y1="147" x2="181.56" y2="149.16"/><line class="cls-7" x1="181.8" y1="150.84" x2="182.28" y2="153"/><line class="cls-7" x1="182.76" y1="154.44" x2="183.24" y2="156.6"/><line class="cls-7" x1="183.72" y1="158.28" x2="184.2" y2="160.44"/><line class="cls-7" x1="184.68" y1="161.88" x2="185.16" y2="164.04"/><line class="cls-7" x1="185.4" y1="165.72" x2="185.88" y2="167.88"/><line class="cls-7" x1="186.36" y1="169.32" x2="186.84" y2="171.48"/><line class="cls-7" x1="187.32" y1="173.16" x2="187.8" y2="175.32"/><line class="cls-7" x1="188.04" y1="176.76" x2="188.76" y2="179.16"/><line class="cls-7" x1="1.8" y1="1.8" x2="4.2" y2="1.8"/><line class="cls-7" x1="5.88" y1="1.8" x2="8.04" y2="1.8"/><line class="cls-7" x1="9.72" y1="1.8" x2="11.88" y2="1.8"/><line class="cls-7" x1="13.56" y1="1.8" x2="15.72" y2="1.8"/><line class="cls-7" x1="17.4" y1="1.8" x2="19.56" y2="1.8"/><line class="cls-7" x1="21.24" y1="1.8" x2="23.4" y2="1.8"/><line class="cls-7" x1="25.08" y1="1.8" x2="27.24" y2="1.8"/><line class="cls-7" x1="28.92" y1="1.8" x2="31.08" y2="1.8"/><line class="cls-7" x1="32.76" y1="1.8" x2="34.92" y2="1.8"/><line class="cls-7" x1="36.6" y1="1.8" x2="38.76" y2="1.8"/><line class="cls-7" x1="40.44" y1="1.8" x2="42.6" y2="1.8"/><line class="cls-7" x1="44.28" y1="1.8" x2="46.44" y2="1.8"/><line class="cls-7" x1="48.12" y1="1.8" x2="50.04" y2="1.8"/><line class="cls-7" x1="51.96" y1="1.8" x2="53.88" y2="1.8"/><line class="cls-7" x1="55.56" y1="1.8" x2="57.72" y2="1.8"/><line class="cls-7" x1="59.4" y1="1.8" x2="61.56" y2="1.8"/><line class="cls-7" x1="63.24" y1="1.8" x2="65.4" y2="1.8"/><line class="cls-7" x1="67.08" y1="1.8" x2="69.24" y2="1.8"/><line class="cls-7" x1="70.92" y1="1.8" x2="73.08" y2="1.8"/><line class="cls-7" x1="74.76" y1="1.8" x2="76.92" y2="1.8"/><line class="cls-7" x1="78.6" y1="1.8" x2="80.76" y2="1.8"/><line class="cls-7" x1="82.44" y1="1.8" x2="84.6" y2="1.8"/><line class="cls-7" x1="86.28" y1="1.8" x2="88.44" y2="1.8"/><line class="cls-7" x1="90.12" y1="1.8" x2="92.28" y2="1.8"/><line class="cls-7" x1="93.96" y1="1.8" x2="96.12" y2="1.8"/><line class="cls-7" x1="97.8" y1="1.8" x2="99.96" y2="1.8"/><line class="cls-7" x1="101.64" y1="1.8" x2="103.8" y2="1.8"/><line class="cls-7" x1="105.48" y1="1.8" x2="107.4" y2="1.8"/><line class="cls-7" x1="109.32" y1="1.8" x2="111.24" y2="1.8"/><line class="cls-7" x1="113.16" y1="1.8" x2="115.08" y2="1.8"/><line class="cls-7" x1="116.76" y1="1.8" x2="118.92" y2="1.8"/><line class="cls-7" x1="120.6" y1="1.8" x2="122.76" y2="1.8"/><line class="cls-7" x1="124.44" y1="1.8" x2="126.6" y2="1.8"/><line class="cls-7" x1="128.28" y1="1.8" x2="130.44" y2="1.8"/><line class="cls-7" x1="132.12" y1="1.8" x2="134.28" y2="1.8"/><line class="cls-7" x1="135.96" y1="1.8" x2="138.12" y2="1.8"/><line class="cls-7" x1="139.8" y1="1.8" x2="141.96" y2="1.8"/><line class="cls-7" x1="143.64" y1="1.8" x2="146.28" y2="1.8"/><polyline class="cls-8" points="1.8 87 9.24 87.96 16.44 90.36 22.92 94.44 28.2 99.96 32.28 106.44 34.92 113.4 35.64 121.08"/><polyline class="cls-8" points="1.8 87 9.24 87.96 16.44 90.36 22.92 94.44 28.2 99.96 32.28 106.44 34.92 113.4 35.64 121.08"/><line class="cls-8" x1="1.8" y1="121.08" x2="35.64" y2="121.08"/><polyline class="cls-8" points="1.8 119.64 35.64 119.64 35.64 121.08 1.8 121.08 1.8 119.64"/><polyline class="cls-8" points="40.2 179.16 39.48 171.48 36.84 164.52 32.76 158.04 27.48 152.52 21 148.44 13.8 146.04 6.12 145.08"/><polyline class="cls-8" points="40.2 179.16 39.48 171.48 36.84 164.52 32.76 158.04 27.48 152.52 21 148.44 13.8 146.04 6.12 145.08"/><line class="cls-8" x1="6.12" y1="179.16" x2="6.12" y2="145.08"/><polyline class="cls-8" points="7.56 179.16 7.56 145.08 6.12 145.08 6.12 179.16 7.56 179.16"/><polyline class="cls-8" points="186.6 177.48 3.48 177.48 3.48 3.48 144.84 3.48 186.6 177.48"/><line class="cls-8" x1="190.92" y1="180.84" x2="147.48" y2="0.12"/><polyline class="cls-8" points="147.48 0.12 0.12 0.12 0.12 180.84 190.92 180.84"/><line class="cls-8" x1="3.48" y1="3.48" x2="3.48" y2="5.4"/><line class="cls-8" x1="3.48" y1="7.08" x2="3.48" y2="9.24"/><line class="cls-8" x1="3.48" y1="10.92" x2="3.48" y2="13.08"/><line class="cls-8" x1="3.48" y1="14.76" x2="3.48" y2="16.92"/><line class="cls-8" x1="3.48" y1="18.6" x2="3.48" y2="20.76"/><line class="cls-8" x1="3.48" y1="22.44" x2="3.48" y2="24.6"/><line class="cls-8" x1="3.48" y1="26.28" x2="3.48" y2="28.44"/><line class="cls-8" x1="3.48" y1="30.12" x2="3.48" y2="32.28"/><line class="cls-8" x1="3.48" y1="33.96" x2="3.48" y2="36.12"/><line class="cls-8" x1="3.48" y1="37.8" x2="3.48" y2="39.96"/><line class="cls-8" x1="3.48" y1="41.64" x2="3.48" y2="43.8"/><line class="cls-8" x1="3.48" y1="45.48" x2="3.48" y2="47.64"/><line class="cls-8" x1="3.48" y1="49.32" x2="3.48" y2="51.48"/><line class="cls-8" x1="3.48" y1="53.16" x2="3.48" y2="55.32"/><line class="cls-8" x1="3.48" y1="57" x2="3.48" y2="58.92"/><line class="cls-8" x1="3.48" y1="60.84" x2="3.48" y2="62.76"/><line class="cls-8" x1="3.48" y1="64.68" x2="3.48" y2="66.6"/><line class="cls-8" x1="3.48" y1="68.28" x2="3.48" y2="70.44"/><line class="cls-8" x1="3.48" y1="72.12" x2="3.48" y2="74.28"/><line class="cls-8" x1="3.48" y1="75.96" x2="3.48" y2="78.12"/><line class="cls-8" x1="3.48" y1="79.8" x2="3.48" y2="81.96"/><line class="cls-8" x1="3.48" y1="83.64" x2="3.48" y2="85.8"/><line class="cls-8" x1="3.48" y1="87.48" x2="3.48" y2="89.64"/><line class="cls-8" x1="3.48" y1="91.32" x2="3.48" y2="93.48"/><line class="cls-8" x1="3.48" y1="95.16" x2="3.48" y2="97.32"/><line class="cls-8" x1="3.48" y1="99" x2="3.48" y2="101.16"/><line class="cls-8" x1="3.48" y1="102.84" x2="3.48" y2="105"/><line class="cls-8" x1="3.48" y1="106.68" x2="3.48" y2="108.84"/><line class="cls-8" x1="3.48" y1="110.52" x2="3.48" y2="112.68"/><line class="cls-8" x1="3.48" y1="114.36" x2="3.48" y2="116.52"/><line class="cls-8" x1="3.48" y1="118.2" x2="3.48" y2="120.12"/><line class="cls-8" x1="3.48" y1="122.04" x2="3.48" y2="123.96"/><line class="cls-8" x1="3.48" y1="125.64" x2="3.48" y2="127.8"/><line class="cls-8" x1="3.48" y1="129.48" x2="3.48" y2="131.64"/><line class="cls-8" x1="3.48" y1="133.32" x2="3.48" y2="135.48"/><line class="cls-8" x1="3.48" y1="137.16" x2="3.48" y2="139.32"/><line class="cls-8" x1="3.48" y1="141" x2="3.48" y2="143.16"/><line class="cls-8" x1="3.48" y1="144.84" x2="3.48" y2="147"/><line class="cls-8" x1="3.48" y1="148.68" x2="3.48" y2="150.84"/><line class="cls-8" x1="3.48" y1="152.52" x2="3.48" y2="154.68"/><line class="cls-8" x1="3.48" y1="156.36" x2="3.48" y2="158.52"/><line class="cls-8" x1="3.48" y1="160.2" x2="3.48" y2="162.36"/><line class="cls-8" x1="3.48" y1="164.04" x2="3.48" y2="166.2"/><line class="cls-8" x1="3.48" y1="167.88" x2="3.48" y2="170.04"/><line class="cls-8" x1="3.48" y1="171.72" x2="3.48" y2="173.88"/><polyline class="cls-8" points="3.48 175.56 3.48 177.48 6.12 177.48"/><line class="cls-8" x1="7.8" y1="177.48" x2="9.96" y2="177.48"/><line class="cls-8" x1="11.64" y1="177.48" x2="13.8" y2="177.48"/><line class="cls-8" x1="15.48" y1="177.48" x2="17.64" y2="177.48"/><line class="cls-8" x1="19.32" y1="177.48" x2="21.48" y2="177.48"/><line class="cls-8" x1="23.16" y1="177.48" x2="25.32" y2="177.48"/><line class="cls-8" x1="27" y1="177.48" x2="29.16" y2="177.48"/><line class="cls-8" x1="30.84" y1="177.48" x2="33" y2="177.48"/><line class="cls-8" x1="34.68" y1="177.48" x2="36.84" y2="177.48"/><line class="cls-8" x1="38.52" y1="177.48" x2="40.68" y2="177.48"/><line class="cls-8" x1="42.36" y1="177.48" x2="44.28" y2="177.48"/><line class="cls-8" x1="46.2" y1="177.48" x2="48.12" y2="177.48"/><line class="cls-8" x1="49.8" y1="177.48" x2="51.96" y2="177.48"/><line class="cls-8" x1="53.64" y1="177.48" x2="55.8" y2="177.48"/><line class="cls-8" x1="57.48" y1="177.48" x2="59.64" y2="177.48"/><line class="cls-8" x1="61.32" y1="177.48" x2="63.48" y2="177.48"/><line class="cls-8" x1="65.16" y1="177.48" x2="67.32" y2="177.48"/><line class="cls-8" x1="69" y1="177.48" x2="71.16" y2="177.48"/><line class="cls-8" x1="72.84" y1="177.48" x2="75" y2="177.48"/><line class="cls-8" x1="76.68" y1="177.48" x2="78.84" y2="177.48"/><line class="cls-8" x1="80.52" y1="177.48" x2="82.68" y2="177.48"/><line class="cls-8" x1="84.36" y1="177.48" x2="86.52" y2="177.48"/><line class="cls-8" x1="88.2" y1="177.48" x2="90.36" y2="177.48"/><line class="cls-8" x1="92.04" y1="177.48" x2="94.2" y2="177.48"/><line class="cls-8" x1="95.88" y1="177.48" x2="98.04" y2="177.48"/><line class="cls-8" x1="99.72" y1="177.48" x2="101.88" y2="177.48"/><line class="cls-8" x1="103.56" y1="177.48" x2="105.48" y2="177.48"/><line class="cls-8" x1="107.4" y1="177.48" x2="109.32" y2="177.48"/><line class="cls-8" x1="111" y1="177.48" x2="113.16" y2="177.48"/><line class="cls-8" x1="114.84" y1="177.48" x2="117" y2="177.48"/><line class="cls-8" x1="118.68" y1="177.48" x2="120.84" y2="177.48"/><line class="cls-8" x1="122.52" y1="177.48" x2="124.68" y2="177.48"/><line class="cls-8" x1="126.36" y1="177.48" x2="128.52" y2="177.48"/><line class="cls-8" x1="130.2" y1="177.48" x2="132.36" y2="177.48"/><line class="cls-8" x1="134.04" y1="177.48" x2="136.2" y2="177.48"/><line class="cls-8" x1="137.88" y1="177.48" x2="140.04" y2="177.48"/><line class="cls-8" x1="141.72" y1="177.48" x2="143.88" y2="177.48"/><line class="cls-8" x1="145.56" y1="177.48" x2="147.72" y2="177.48"/><line class="cls-8" x1="149.4" y1="177.48" x2="151.56" y2="177.48"/><line class="cls-8" x1="153.24" y1="177.48" x2="155.4" y2="177.48"/><line class="cls-8" x1="157.08" y1="177.48" x2="159.24" y2="177.48"/><line class="cls-8" x1="160.92" y1="177.48" x2="163.08" y2="177.48"/><line class="cls-8" x1="164.76" y1="177.48" x2="166.68" y2="177.48"/><line class="cls-8" x1="168.6" y1="177.48" x2="170.52" y2="177.48"/><line class="cls-8" x1="172.2" y1="177.48" x2="174.36" y2="177.48"/><line class="cls-8" x1="176.04" y1="177.48" x2="178.2" y2="177.48"/><line class="cls-8" x1="179.88" y1="177.48" x2="182.04" y2="177.48"/><polyline class="cls-8" points="183.72 177.48 186.6 177.48 185.88 175.08"/><line class="cls-8" x1="185.64" y1="173.4" x2="185.16" y2="171.24"/><line class="cls-8" x1="184.68" y1="169.56" x2="184.2" y2="167.64"/><line class="cls-8" x1="183.72" y1="165.96" x2="183.24" y2="163.8"/><line class="cls-8" x1="182.76" y1="162.12" x2="182.28" y2="160.2"/><line class="cls-8" x1="182.04" y1="158.52" x2="181.56" y2="156.36"/><line class="cls-8" x1="181.08" y1="154.68" x2="180.6" y2="152.76"/><line class="cls-8" x1="180.12" y1="151.08" x2="179.64" y2="148.92"/><line class="cls-8" x1="179.4" y1="147.24" x2="178.92" y2="145.32"/><line class="cls-8" x1="178.44" y1="143.64" x2="177.96" y2="141.48"/><line class="cls-8" x1="177.48" y1="139.8" x2="177" y2="137.88"/><line class="cls-8" x1="176.52" y1="136.2" x2="176.04" y2="134.04"/><line class="cls-8" x1="175.8" y1="132.36" x2="175.32" y2="130.44"/><line class="cls-8" x1="174.84" y1="128.76" x2="174.36" y2="126.6"/><line class="cls-8" x1="173.88" y1="124.92" x2="173.4" y2="123"/><line class="cls-8" x1="173.16" y1="121.32" x2="172.68" y2="119.16"/><line class="cls-8" x1="172.2" y1="117.48" x2="171.72" y2="115.56"/><line class="cls-8" x1="171.24" y1="113.88" x2="170.76" y2="111.72"/><line class="cls-8" x1="170.28" y1="110.04" x2="169.8" y2="108.12"/><line class="cls-8" x1="169.56" y1="106.44" x2="169.08" y2="104.28"/><line class="cls-8" x1="168.6" y1="102.6" x2="168.12" y2="100.68"/><line class="cls-8" x1="167.64" y1="99" x2="167.16" y2="96.84"/><line class="cls-8" x1="166.92" y1="95.16" x2="166.44" y2="93.24"/><line class="cls-8" x1="165.96" y1="91.56" x2="165.48" y2="89.4"/><line class="cls-8" x1="165" y1="87.72" x2="164.52" y2="85.8"/><line class="cls-8" x1="164.04" y1="84.12" x2="163.56" y2="81.96"/><line class="cls-8" x1="163.32" y1="80.28" x2="162.84" y2="78.36"/><line class="cls-8" x1="162.36" y1="76.68" x2="161.88" y2="74.52"/><line class="cls-8" x1="161.4" y1="72.84" x2="160.92" y2="70.92"/><line class="cls-8" x1="160.68" y1="69.24" x2="160.2" y2="67.08"/><line class="cls-8" x1="159.72" y1="65.4" x2="159.24" y2="63.48"/><line class="cls-8" x1="158.76" y1="61.8" x2="158.28" y2="59.64"/><line class="cls-8" x1="157.8" y1="57.96" x2="157.32" y2="56.04"/><line class="cls-8" x1="157.08" y1="54.36" x2="156.6" y2="52.2"/><line class="cls-8" x1="156.12" y1="50.52" x2="155.64" y2="48.6"/><line class="cls-8" x1="155.16" y1="46.92" x2="154.68" y2="44.76"/><line class="cls-8" x1="154.44" y1="43.08" x2="153.96" y2="41.16"/><line class="cls-8" x1="153.48" y1="39.48" x2="153" y2="37.32"/><line class="cls-8" x1="152.52" y1="35.64" x2="152.04" y2="33.72"/><line class="cls-8" x1="151.56" y1="32.04" x2="151.08" y2="29.88"/><line class="cls-8" x1="150.84" y1="28.2" x2="150.36" y2="26.28"/><line class="cls-8" x1="149.88" y1="24.6" x2="149.4" y2="22.44"/><line class="cls-8" x1="148.92" y1="20.76" x2="148.44" y2="18.84"/><line class="cls-8" x1="148.2" y1="17.16" x2="147.72" y2="15"/><line class="cls-8" x1="147.24" y1="13.32" x2="146.76" y2="11.4"/><line class="cls-8" x1="146.28" y1="9.72" x2="145.8" y2="7.56"/><polyline class="cls-8" points="145.32 5.88 144.84 3.48 141.96 3.48"/><line class="cls-8" x1="140.28" y1="3.48" x2="138.12" y2="3.48"/><line class="cls-8" x1="136.44" y1="3.48" x2="134.28" y2="3.48"/><line class="cls-8" x1="132.6" y1="3.48" x2="130.44" y2="3.48"/><line class="cls-8" x1="128.76" y1="3.48" x2="126.6" y2="3.48"/><line class="cls-8" x1="124.92" y1="3.48" x2="122.76" y2="3.48"/><line class="cls-8" x1="121.08" y1="3.48" x2="118.92" y2="3.48"/><line class="cls-8" x1="117.24" y1="3.48" x2="115.08" y2="3.48"/><line class="cls-8" x1="113.4" y1="3.48" x2="111.24" y2="3.48"/><line class="cls-8" x1="109.56" y1="3.48" x2="107.4" y2="3.48"/><line class="cls-8" x1="105.72" y1="3.48" x2="103.56" y2="3.48"/><line class="cls-8" x1="101.88" y1="3.48" x2="99.72" y2="3.48"/><line class="cls-8" x1="98.04" y1="3.48" x2="96.12" y2="3.48"/><line class="cls-8" x1="94.2" y1="3.48" x2="92.28" y2="3.48"/><line class="cls-8" x1="90.6" y1="3.48" x2="88.44" y2="3.48"/><line class="cls-8" x1="86.76" y1="3.48" x2="84.6" y2="3.48"/><line class="cls-8" x1="82.92" y1="3.48" x2="80.76" y2="3.48"/><line class="cls-8" x1="79.08" y1="3.48" x2="76.92" y2="3.48"/><line class="cls-8" x1="75.24" y1="3.48" x2="73.08" y2="3.48"/><line class="cls-8" x1="71.4" y1="3.48" x2="69.24" y2="3.48"/><line class="cls-8" x1="67.56" y1="3.48" x2="65.4" y2="3.48"/><line class="cls-8" x1="63.72" y1="3.48" x2="61.56" y2="3.48"/><line class="cls-8" x1="59.88" y1="3.48" x2="57.72" y2="3.48"/><line class="cls-8" x1="56.04" y1="3.48" x2="53.88" y2="3.48"/><line class="cls-8" x1="52.2" y1="3.48" x2="50.04" y2="3.48"/><line class="cls-8" x1="48.36" y1="3.48" x2="46.2" y2="3.48"/><line class="cls-8" x1="44.52" y1="3.48" x2="42.36" y2="3.48"/><line class="cls-8" x1="40.68" y1="3.48" x2="38.52" y2="3.48"/><line class="cls-8" x1="36.84" y1="3.48" x2="34.92" y2="3.48"/><line class="cls-8" x1="33" y1="3.48" x2="31.08" y2="3.48"/><line class="cls-8" x1="29.4" y1="3.48" x2="27.24" y2="3.48"/><line class="cls-8" x1="25.56" y1="3.48" x2="23.4" y2="3.48"/><line class="cls-8" x1="21.72" y1="3.48" x2="19.56" y2="3.48"/><line class="cls-8" x1="17.88" y1="3.48" x2="15.72" y2="3.48"/><line class="cls-8" x1="14.04" y1="3.48" x2="11.88" y2="3.48"/><line class="cls-8" x1="10.2" y1="3.48" x2="8.04" y2="3.48"/><line class="cls-8" x1="6.36" y1="3.48" x2="3.48" y2="3.48"/><line class="cls-8" x1="362.28" y1="1.8" x2="359.64" y2="1.8"/><line class="cls-8" x1="357.96" y1="1.8" x2="355.8" y2="1.8"/><line class="cls-8" x1="354.12" y1="1.8" x2="351.96" y2="1.8"/><line class="cls-8" x1="350.28" y1="1.8" x2="348.12" y2="1.8"/><line class="cls-8" x1="346.44" y1="1.8" x2="344.28" y2="1.8"/><line class="cls-8" x1="342.6" y1="1.8" x2="340.44" y2="1.8"/><line class="cls-8" x1="338.76" y1="1.8" x2="336.6" y2="1.8"/><line class="cls-8" x1="334.92" y1="1.8" x2="332.76" y2="1.8"/><line class="cls-8" x1="331.08" y1="1.8" x2="328.92" y2="1.8"/><line class="cls-8" x1="327.24" y1="1.8" x2="325.08" y2="1.8"/><line class="cls-8" x1="323.4" y1="1.8" x2="321.24" y2="1.8"/><line class="cls-8" x1="319.56" y1="1.8" x2="317.64" y2="1.8"/><line class="cls-8" x1="315.72" y1="1.8" x2="313.8" y2="1.8"/><line class="cls-8" x1="311.88" y1="1.8" x2="309.96" y2="1.8"/><line class="cls-8" x1="308.28" y1="1.8" x2="306.12" y2="1.8"/><line class="cls-8" x1="304.44" y1="1.8" x2="302.28" y2="1.8"/><line class="cls-8" x1="300.6" y1="1.8" x2="298.44" y2="1.8"/><line class="cls-8" x1="296.76" y1="1.8" x2="294.6" y2="1.8"/><line class="cls-8" x1="292.92" y1="1.8" x2="290.76" y2="1.8"/><line class="cls-8" x1="289.08" y1="1.8" x2="286.92" y2="1.8"/><line class="cls-8" x1="285.24" y1="1.8" x2="283.08" y2="1.8"/><line class="cls-8" x1="281.4" y1="1.8" x2="279.24" y2="1.8"/><line class="cls-8" x1="277.56" y1="1.8" x2="275.4" y2="1.8"/><line class="cls-8" x1="273.72" y1="1.8" x2="271.56" y2="1.8"/><line class="cls-8" x1="269.88" y1="1.8" x2="267.72" y2="1.8"/><line class="cls-8" x1="266.04" y1="1.8" x2="263.88" y2="1.8"/><line class="cls-8" x1="262.2" y1="1.8" x2="260.04" y2="1.8"/><line class="cls-8" x1="258.36" y1="1.8" x2="256.44" y2="1.8"/><line class="cls-8" x1="254.52" y1="1.8" x2="252.6" y2="1.8"/><line class="cls-8" x1="250.92" y1="1.8" x2="248.76" y2="1.8"/><line class="cls-8" x1="247.08" y1="1.8" x2="244.92" y2="1.8"/><line class="cls-8" x1="243.24" y1="1.8" x2="241.08" y2="1.8"/><line class="cls-8" x1="239.4" y1="1.8" x2="237.24" y2="1.8"/><line class="cls-8" x1="235.56" y1="1.8" x2="233.4" y2="1.8"/><line class="cls-8" x1="231.72" y1="1.8" x2="229.56" y2="1.8"/><line class="cls-8" x1="227.88" y1="1.8" x2="225.72" y2="1.8"/><line class="cls-8" x1="224.04" y1="1.8" x2="221.88" y2="1.8"/><line class="cls-8" x1="220.2" y1="1.8" x2="218.04" y2="1.8"/><line class="cls-8" x1="216.36" y1="1.8" x2="214.2" y2="1.8"/><line class="cls-8" x1="212.52" y1="1.8" x2="210.36" y2="1.8"/><line class="cls-8" x1="208.68" y1="1.8" x2="206.52" y2="1.8"/><line class="cls-8" x1="204.84" y1="1.8" x2="202.68" y2="1.8"/><line class="cls-8" x1="201" y1="1.8" x2="198.84" y2="1.8"/><line class="cls-8" x1="197.16" y1="1.8" x2="195.24" y2="1.8"/><line class="cls-8" x1="193.32" y1="1.8" x2="191.4" y2="1.8"/><line class="cls-8" x1="189.72" y1="1.8" x2="187.56" y2="1.8"/><line class="cls-8" x1="185.88" y1="1.8" x2="183.72" y2="1.8"/><line class="cls-8" x1="182.04" y1="1.8" x2="179.88" y2="1.8"/><line class="cls-8" x1="178.2" y1="1.8" x2="175.32" y2="1.8"/><line class="cls-8" x1="362.28" y1="179.16" x2="362.28" y2="177.48"/><line class="cls-8" x1="362.28" y1="175.8" x2="362.28" y2="173.64"/><line class="cls-8" x1="362.28" y1="171.96" x2="362.28" y2="169.8"/><line class="cls-8" x1="362.28" y1="168.12" x2="362.28" y2="165.96"/><line class="cls-8" x1="362.28" y1="164.28" x2="362.28" y2="162.12"/><line class="cls-8" x1="362.28" y1="160.44" x2="362.28" y2="158.28"/><line class="cls-8" x1="362.28" y1="156.6" x2="362.28" y2="154.44"/><line class="cls-8" x1="362.28" y1="152.76" x2="362.28" y2="150.6"/><line class="cls-8" x1="362.28" y1="148.92" x2="362.28" y2="146.76"/><line class="cls-8" x1="362.28" y1="145.08" x2="362.28" y2="142.92"/><line class="cls-8" x1="362.28" y1="141.24" x2="362.28" y2="139.08"/><line class="cls-8" x1="362.28" y1="137.4" x2="362.28" y2="135.24"/><line class="cls-8" x1="362.28" y1="133.56" x2="362.28" y2="131.4"/><line class="cls-8" x1="362.28" y1="129.72" x2="362.28" y2="127.56"/><line class="cls-8" x1="362.28" y1="125.88" x2="362.28" y2="123.96"/><line class="cls-8" x1="362.28" y1="122.04" x2="362.28" y2="120.12"/><line class="cls-8" x1="362.28" y1="118.2" x2="362.28" y2="116.28"/><line class="cls-8" x1="362.28" y1="114.6" x2="362.28" y2="112.44"/><line class="cls-8" x1="362.28" y1="110.76" x2="362.28" y2="108.6"/><line class="cls-8" x1="362.28" y1="106.92" x2="362.28" y2="104.76"/><line class="cls-8" x1="362.28" y1="103.08" x2="362.28" y2="100.92"/><line class="cls-8" x1="362.28" y1="99.24" x2="362.28" y2="97.08"/><line class="cls-8" x1="362.28" y1="95.4" x2="362.28" y2="93.24"/><line class="cls-8" x1="362.28" y1="91.56" x2="362.28" y2="89.4"/><line class="cls-8" x1="362.28" y1="87.72" x2="362.28" y2="85.56"/><line class="cls-8" x1="362.28" y1="83.88" x2="362.28" y2="81.72"/><line class="cls-8" x1="362.28" y1="80.04" x2="362.28" y2="77.88"/><line class="cls-8" x1="362.28" y1="76.2" x2="362.28" y2="74.04"/><line class="cls-8" x1="362.28" y1="72.36" x2="362.28" y2="70.2"/><line class="cls-8" x1="362.28" y1="68.52" x2="362.28" y2="66.36"/><line class="cls-8" x1="362.28" y1="64.68" x2="362.28" y2="62.76"/><line class="cls-8" x1="362.28" y1="60.84" x2="362.28" y2="58.92"/><line class="cls-8" x1="362.28" y1="57.24" x2="362.28" y2="55.08"/><line class="cls-8" x1="362.28" y1="53.4" x2="362.28" y2="51.24"/><line class="cls-8" x1="362.28" y1="49.56" x2="362.28" y2="47.4"/><line class="cls-8" x1="362.28" y1="45.72" x2="362.28" y2="43.56"/><line class="cls-8" x1="362.28" y1="41.88" x2="362.28" y2="39.72"/><line class="cls-8" x1="362.28" y1="38.04" x2="362.28" y2="35.88"/><line class="cls-8" x1="362.28" y1="34.2" x2="362.28" y2="32.04"/><line class="cls-8" x1="362.28" y1="30.36" x2="362.28" y2="28.2"/><line class="cls-8" x1="362.28" y1="26.52" x2="362.28" y2="24.36"/><line class="cls-8" x1="362.28" y1="22.68" x2="362.28" y2="20.52"/><line class="cls-8" x1="362.28" y1="18.84" x2="362.28" y2="16.68"/><line class="cls-8" x1="362.28" y1="15" x2="362.28" y2="12.84"/><line class="cls-8" x1="362.28" y1="11.16" x2="362.28" y2="9"/><line class="cls-8" x1="362.28" y1="7.32" x2="362.28" y2="5.16"/><line class="cls-8" x1="362.28" y1="3.48" x2="362.28" y2="1.8"/><line class="cls-8" x1="217.8" y1="179.16" x2="217.32" y2="176.76"/><line class="cls-8" x1="216.84" y1="175.32" x2="216.36" y2="173.16"/><line class="cls-8" x1="216.12" y1="171.48" x2="215.64" y2="169.32"/><line class="cls-8" x1="215.16" y1="167.88" x2="214.68" y2="165.72"/><line class="cls-8" x1="214.2" y1="164.04" x2="213.72" y2="161.88"/><line class="cls-8" x1="213.24" y1="160.44" x2="212.76" y2="158.28"/><line class="cls-8" x1="212.52" y1="156.6" x2="212.04" y2="154.44"/><line class="cls-8" x1="211.56" y1="153" x2="211.08" y2="150.84"/><line class="cls-8" x1="210.6" y1="149.16" x2="210.12" y2="147"/><line class="cls-8" x1="209.88" y1="145.56" x2="209.4" y2="143.4"/><line class="cls-8" x1="208.92" y1="141.72" x2="208.44" y2="139.56"/><line class="cls-8" x1="207.96" y1="138.12" x2="207.48" y2="135.96"/><line class="cls-8" x1="207" y1="134.28" x2="206.52" y2="132.12"/><line class="cls-8" x1="206.28" y1="130.68" x2="205.8" y2="128.52"/><line class="cls-8" x1="205.32" y1="126.84" x2="204.84" y2="124.68"/><line class="cls-8" x1="204.36" y1="123.24" x2="203.88" y2="121.08"/><line class="cls-8" x1="203.64" y1="119.4" x2="203.16" y2="117.24"/><line class="cls-8" x1="202.68" y1="115.8" x2="202.2" y2="113.64"/><line class="cls-8" x1="201.72" y1="111.96" x2="201.24" y2="109.8"/><line class="cls-8" x1="200.76" y1="108.36" x2="200.28" y2="106.2"/><line class="cls-8" x1="200.04" y1="104.52" x2="199.56" y2="102.36"/><line class="cls-8" x1="199.08" y1="100.92" x2="198.6" y2="98.76"/><line class="cls-8" x1="198.12" y1="97.08" x2="197.64" y2="94.92"/><line class="cls-8" x1="197.4" y1="93.48" x2="196.92" y2="91.32"/><line class="cls-8" x1="196.44" y1="89.64" x2="195.96" y2="87.48"/><line class="cls-8" x1="195.48" y1="86.04" x2="195" y2="83.88"/><line class="cls-8" x1="194.52" y1="82.2" x2="194.04" y2="80.04"/><line class="cls-8" x1="193.8" y1="78.6" x2="193.32" y2="76.44"/><line class="cls-8" x1="192.84" y1="74.76" x2="192.36" y2="72.6"/><line class="cls-8" x1="191.88" y1="71.16" x2="191.4" y2="69"/><line class="cls-8" x1="191.16" y1="67.32" x2="190.68" y2="65.16"/><line class="cls-8" x1="190.2" y1="63.72" x2="189.72" y2="61.56"/><line class="cls-8" x1="189.24" y1="59.88" x2="188.76" y2="57.72"/><line class="cls-8" x1="188.52" y1="56.28" x2="187.8" y2="54.12"/><line class="cls-8" x1="187.56" y1="52.44" x2="187.08" y2="50.28"/><line class="cls-8" x1="186.6" y1="48.84" x2="186.12" y2="46.68"/><line class="cls-8" x1="185.64" y1="45" x2="185.16" y2="42.84"/><line class="cls-8" x1="184.92" y1="41.4" x2="184.44" y2="39.24"/><line class="cls-8" x1="183.96" y1="37.56" x2="183.48" y2="35.4"/><line class="cls-8" x1="183" y1="33.96" x2="182.52" y2="31.8"/><line class="cls-8" x1="182.28" y1="30.12" x2="181.56" y2="27.96"/><line class="cls-8" x1="181.32" y1="26.52" x2="180.84" y2="24.36"/><line class="cls-8" x1="180.36" y1="22.68" x2="179.88" y2="20.76"/><line class="cls-8" x1="179.4" y1="19.08" x2="178.92" y2="16.92"/><line class="cls-8" x1="178.68" y1="15.24" x2="178.2" y2="13.32"/><line class="cls-8" x1="177.72" y1="11.64" x2="177.24" y2="9.48"/><line class="cls-8" x1="176.76" y1="7.8" x2="176.28" y2="5.88"/><line class="cls-8" x1="176.04" y1="4.2" x2="175.32" y2="1.8"/><line class="cls-8" x1="362.28" y1="179.16" x2="359.88" y2="179.16"/><line class="cls-8" x1="358.2" y1="179.16" x2="356.04" y2="179.16"/><line class="cls-8" x1="354.36" y1="179.16" x2="352.2" y2="179.16"/><line class="cls-8" x1="350.52" y1="179.16" x2="348.36" y2="179.16"/><line class="cls-8" x1="346.68" y1="179.16" x2="344.52" y2="179.16"/><line class="cls-8" x1="342.84" y1="179.16" x2="340.68" y2="179.16"/><line class="cls-8" x1="339" y1="179.16" x2="336.84" y2="179.16"/><line class="cls-8" x1="335.16" y1="179.16" x2="333" y2="179.16"/><line class="cls-8" x1="331.32" y1="179.16" x2="329.16" y2="179.16"/><line class="cls-8" x1="327.48" y1="179.16" x2="325.32" y2="179.16"/><line class="cls-8" x1="323.64" y1="179.16" x2="321.48" y2="179.16"/><line class="cls-8" x1="319.8" y1="179.16" x2="317.64" y2="179.16"/><line class="cls-8" x1="315.96" y1="179.16" x2="313.8" y2="179.16"/><line class="cls-8" x1="312.12" y1="179.16" x2="310.2" y2="179.16"/><line class="cls-8" x1="308.28" y1="179.16" x2="306.36" y2="179.16"/><line class="cls-8" x1="304.68" y1="179.16" x2="302.52" y2="179.16"/><line class="cls-8" x1="300.84" y1="179.16" x2="298.68" y2="179.16"/><line class="cls-8" x1="297" y1="179.16" x2="294.84" y2="179.16"/><line class="cls-8" x1="293.16" y1="179.16" x2="291" y2="179.16"/><line class="cls-8" x1="289.32" y1="179.16" x2="287.16" y2="179.16"/><line class="cls-8" x1="285.48" y1="179.16" x2="283.32" y2="179.16"/><line class="cls-8" x1="281.64" y1="179.16" x2="279.48" y2="179.16"/><line class="cls-8" x1="277.8" y1="179.16" x2="275.64" y2="179.16"/><line class="cls-8" x1="273.96" y1="179.16" x2="271.8" y2="179.16"/><line class="cls-8" x1="270.12" y1="179.16" x2="267.96" y2="179.16"/><line class="cls-8" x1="266.28" y1="179.16" x2="264.12" y2="179.16"/><line class="cls-8" x1="262.44" y1="179.16" x2="260.28" y2="179.16"/><line class="cls-8" x1="258.6" y1="179.16" x2="256.44" y2="179.16"/><line class="cls-8" x1="254.76" y1="179.16" x2="252.6" y2="179.16"/><line class="cls-8" x1="250.92" y1="179.16" x2="249" y2="179.16"/><line class="cls-8" x1="247.08" y1="179.16" x2="245.16" y2="179.16"/><line class="cls-8" x1="243.48" y1="179.16" x2="241.32" y2="179.16"/><line class="cls-8" x1="239.64" y1="179.16" x2="237.48" y2="179.16"/><line class="cls-8" x1="235.8" y1="179.16" x2="233.64" y2="179.16"/><line class="cls-8" x1="231.96" y1="179.16" x2="229.8" y2="179.16"/><line class="cls-8" x1="228.12" y1="179.16" x2="225.96" y2="179.16"/><line class="cls-8" x1="224.28" y1="179.16" x2="222.12" y2="179.16"/><line class="cls-8" x1="220.44" y1="179.16" x2="217.8" y2="179.16"/><line class="cls-8" x1="360.6" y1="177.48" x2="360.6" y2="175.56"/><line class="cls-8" x1="360.6" y1="173.88" x2="360.6" y2="171.72"/><line class="cls-8" x1="360.6" y1="170.04" x2="360.6" y2="167.88"/><line class="cls-8" x1="360.6" y1="166.2" x2="360.6" y2="164.04"/><line class="cls-8" x1="360.6" y1="162.36" x2="360.6" y2="160.2"/><line class="cls-8" x1="360.6" y1="158.52" x2="360.6" y2="156.36"/><line class="cls-8" x1="360.6" y1="154.68" x2="360.6" y2="152.52"/><line class="cls-8" x1="360.6" y1="150.84" x2="360.6" y2="148.68"/><line class="cls-8" x1="360.6" y1="147" x2="360.6" y2="144.84"/><line class="cls-8" x1="360.6" y1="143.16" x2="360.6" y2="141"/><line class="cls-8" x1="360.6" y1="139.32" x2="360.6" y2="137.16"/><line class="cls-8" x1="360.6" y1="135.48" x2="360.6" y2="133.32"/><line class="cls-8" x1="360.6" y1="131.64" x2="360.6" y2="129.48"/><line class="cls-8" x1="360.6" y1="127.8" x2="360.6" y2="125.64"/><line class="cls-8" x1="360.6" y1="123.96" x2="360.6" y2="122.04"/><line class="cls-8" x1="360.6" y1="120.12" x2="360.6" y2="118.2"/><line class="cls-8" x1="360.6" y1="116.52" x2="360.6" y2="114.36"/><line class="cls-8" x1="360.6" y1="112.68" x2="360.6" y2="110.52"/><line class="cls-8" x1="360.6" y1="108.84" x2="360.6" y2="106.68"/><line class="cls-8" x1="360.6" y1="105" x2="360.6" y2="102.84"/><line class="cls-8" x1="360.6" y1="101.16" x2="360.6" y2="99"/><line class="cls-8" x1="360.6" y1="97.32" x2="360.6" y2="95.16"/><line class="cls-8" x1="360.6" y1="93.48" x2="360.6" y2="91.32"/><line class="cls-8" x1="360.6" y1="89.64" x2="360.6" y2="87.48"/><line class="cls-8" x1="360.6" y1="85.8" x2="360.6" y2="83.64"/><line class="cls-8" x1="360.6" y1="81.96" x2="360.6" y2="79.8"/><line class="cls-8" x1="360.6" y1="78.12" x2="360.6" y2="75.96"/><line class="cls-8" x1="360.6" y1="74.28" x2="360.6" y2="72.12"/><line class="cls-8" x1="360.6" y1="70.44" x2="360.6" y2="68.28"/><line class="cls-8" x1="360.6" y1="66.6" x2="360.6" y2="64.68"/><line class="cls-8" x1="360.6" y1="62.76" x2="360.6" y2="60.84"/><line class="cls-8" x1="360.6" y1="58.92" x2="360.6" y2="57"/><line class="cls-8" x1="360.6" y1="55.32" x2="360.6" y2="53.16"/><line class="cls-8" x1="360.6" y1="51.48" x2="360.6" y2="49.32"/><line class="cls-8" x1="360.6" y1="47.64" x2="360.6" y2="45.48"/><line class="cls-8" x1="360.6" y1="43.8" x2="360.6" y2="41.64"/><line class="cls-8" x1="360.6" y1="39.96" x2="360.6" y2="37.8"/><line class="cls-8" x1="360.6" y1="36.12" x2="360.6" y2="33.96"/><line class="cls-8" x1="360.6" y1="32.28" x2="360.6" y2="30.12"/><line class="cls-8" x1="360.6" y1="28.44" x2="360.6" y2="26.28"/><line class="cls-8" x1="360.6" y1="24.6" x2="360.6" y2="22.44"/><line class="cls-8" x1="360.6" y1="20.76" x2="360.6" y2="18.6"/><line class="cls-8" x1="360.6" y1="16.92" x2="360.6" y2="14.76"/><line class="cls-8" x1="360.6" y1="13.08" x2="360.6" y2="10.92"/><line class="cls-8" x1="360.6" y1="9.24" x2="360.6" y2="7.08"/><polyline class="cls-8" points="360.6 5.4 360.6 3.48 357.96 3.48"/><line class="cls-8" x1="356.28" y1="3.48" x2="354.12" y2="3.48"/><line class="cls-8" x1="352.44" y1="3.48" x2="350.28" y2="3.48"/><line class="cls-8" x1="348.6" y1="3.48" x2="346.44" y2="3.48"/><line class="cls-8" x1="344.76" y1="3.48" x2="342.6" y2="3.48"/><line class="cls-8" x1="340.92" y1="3.48" x2="338.76" y2="3.48"/><line class="cls-8" x1="337.08" y1="3.48" x2="334.92" y2="3.48"/><line class="cls-8" x1="333.24" y1="3.48" x2="331.08" y2="3.48"/><line class="cls-8" x1="329.4" y1="3.48" x2="327.24" y2="3.48"/><line class="cls-8" x1="325.56" y1="3.48" x2="323.4" y2="3.48"/><line class="cls-8" x1="321.72" y1="3.48" x2="319.56" y2="3.48"/><line class="cls-8" x1="317.88" y1="3.48" x2="315.72" y2="3.48"/><line class="cls-8" x1="314.04" y1="3.48" x2="312.12" y2="3.48"/><line class="cls-8" x1="310.2" y1="3.48" x2="308.28" y2="3.48"/><line class="cls-8" x1="306.6" y1="3.48" x2="304.44" y2="3.48"/><line class="cls-8" x1="302.76" y1="3.48" x2="300.6" y2="3.48"/><line class="cls-8" x1="298.92" y1="3.48" x2="296.76" y2="3.48"/><line class="cls-8" x1="295.08" y1="3.48" x2="292.92" y2="3.48"/><line class="cls-8" x1="291.24" y1="3.48" x2="289.08" y2="3.48"/><line class="cls-8" x1="287.4" y1="3.48" x2="285.24" y2="3.48"/><line class="cls-8" x1="283.56" y1="3.48" x2="281.4" y2="3.48"/><line class="cls-8" x1="279.72" y1="3.48" x2="277.56" y2="3.48"/><line class="cls-8" x1="275.88" y1="3.48" x2="273.72" y2="3.48"/><line class="cls-8" x1="272.04" y1="3.48" x2="269.88" y2="3.48"/><line class="cls-8" x1="268.2" y1="3.48" x2="266.04" y2="3.48"/><line class="cls-8" x1="264.36" y1="3.48" x2="262.2" y2="3.48"/><line class="cls-8" x1="260.52" y1="3.48" x2="258.36" y2="3.48"/><line class="cls-8" x1="256.68" y1="3.48" x2="254.76" y2="3.48"/><line class="cls-8" x1="252.84" y1="3.48" x2="250.92" y2="3.48"/><line class="cls-8" x1="249" y1="3.48" x2="247.08" y2="3.48"/><line class="cls-8" x1="245.4" y1="3.48" x2="243.24" y2="3.48"/><line class="cls-8" x1="241.56" y1="3.48" x2="239.4" y2="3.48"/><line class="cls-8" x1="237.72" y1="3.48" x2="235.56" y2="3.48"/><line class="cls-8" x1="233.88" y1="3.48" x2="231.72" y2="3.48"/><line class="cls-8" x1="230.04" y1="3.48" x2="227.88" y2="3.48"/><line class="cls-8" x1="226.2" y1="3.48" x2="224.04" y2="3.48"/><line class="cls-8" x1="222.36" y1="3.48" x2="220.2" y2="3.48"/><line class="cls-8" x1="218.52" y1="3.48" x2="216.36" y2="3.48"/><line class="cls-8" x1="214.68" y1="3.48" x2="212.52" y2="3.48"/><line class="cls-8" x1="210.84" y1="3.48" x2="208.68" y2="3.48"/><line class="cls-8" x1="207" y1="3.48" x2="204.84" y2="3.48"/><line class="cls-8" x1="203.16" y1="3.48" x2="201" y2="3.48"/><line class="cls-8" x1="199.32" y1="3.48" x2="197.16" y2="3.48"/><line class="cls-8" x1="195.48" y1="3.48" x2="193.56" y2="3.48"/><line class="cls-8" x1="191.64" y1="3.48" x2="189.72" y2="3.48"/><line class="cls-8" x1="188.04" y1="3.48" x2="185.88" y2="3.48"/><line class="cls-8" x1="184.2" y1="3.48" x2="182.04" y2="3.48"/><polyline class="cls-8" points="180.36 3.48 177.48 3.48 178.2 5.88"/><line class="cls-8" x1="178.44" y1="7.56" x2="178.92" y2="9.72"/><line class="cls-8" x1="179.4" y1="11.4" x2="179.88" y2="13.32"/><line class="cls-8" x1="180.36" y1="15" x2="180.84" y2="17.16"/><line class="cls-8" x1="181.08" y1="18.84" x2="181.8" y2="20.76"/><line class="cls-8" x1="182.04" y1="22.44" x2="182.52" y2="24.6"/><line class="cls-8" x1="183" y1="26.28" x2="183.48" y2="28.2"/><line class="cls-8" x1="183.96" y1="29.88" x2="184.44" y2="32.04"/><line class="cls-8" x1="184.68" y1="33.72" x2="185.16" y2="35.64"/><line class="cls-8" x1="185.64" y1="37.32" x2="186.12" y2="39.48"/><line class="cls-8" x1="186.6" y1="41.16" x2="187.08" y2="43.08"/><line class="cls-8" x1="187.32" y1="44.76" x2="188.04" y2="46.92"/><line class="cls-8" x1="188.28" y1="48.6" x2="188.76" y2="50.52"/><line class="cls-8" x1="189.24" y1="52.2" x2="189.72" y2="54.36"/><line class="cls-8" x1="190.2" y1="56.04" x2="190.68" y2="57.96"/><line class="cls-8" x1="190.92" y1="59.64" x2="191.4" y2="61.8"/><line class="cls-8" x1="191.88" y1="63.48" x2="192.36" y2="65.4"/><line class="cls-8" x1="192.84" y1="67.08" x2="193.32" y2="69.24"/><line class="cls-8" x1="193.56" y1="70.92" x2="194.04" y2="72.84"/><line class="cls-8" x1="194.52" y1="74.52" x2="195" y2="76.68"/><line class="cls-8" x1="195.48" y1="78.36" x2="195.96" y2="80.28"/><line class="cls-8" x1="196.44" y1="81.96" x2="196.92" y2="84.12"/><line class="cls-8" x1="197.16" y1="85.8" x2="197.64" y2="87.72"/><line class="cls-8" x1="198.12" y1="89.4" x2="198.6" y2="91.56"/><line class="cls-8" x1="199.08" y1="93.24" x2="199.56" y2="95.16"/><line class="cls-8" x1="199.8" y1="96.84" x2="200.28" y2="99"/><line class="cls-8" x1="200.76" y1="100.68" x2="201.24" y2="102.6"/><line class="cls-8" x1="201.72" y1="104.28" x2="202.2" y2="106.44"/><line class="cls-8" x1="202.68" y1="108.12" x2="203.16" y2="110.04"/><line class="cls-8" x1="203.4" y1="111.72" x2="203.88" y2="113.88"/><line class="cls-8" x1="204.36" y1="115.56" x2="204.84" y2="117.48"/><line class="cls-8" x1="205.32" y1="119.16" x2="205.8" y2="121.32"/><line class="cls-8" x1="206.04" y1="123" x2="206.52" y2="124.92"/><line class="cls-8" x1="207" y1="126.6" x2="207.48" y2="128.76"/><line class="cls-8" x1="207.96" y1="130.44" x2="208.44" y2="132.36"/><line class="cls-8" x1="208.92" y1="134.04" x2="209.4" y2="136.2"/><line class="cls-8" x1="209.64" y1="137.88" x2="210.12" y2="139.8"/><line class="cls-8" x1="210.6" y1="141.48" x2="211.08" y2="143.64"/><line class="cls-8" x1="211.56" y1="145.32" x2="212.04" y2="147.24"/><line class="cls-8" x1="212.28" y1="148.92" x2="212.76" y2="151.08"/><line class="cls-8" x1="213.24" y1="152.76" x2="213.72" y2="154.68"/><line class="cls-8" x1="214.2" y1="156.36" x2="214.68" y2="158.52"/><line class="cls-8" x1="215.16" y1="160.2" x2="215.64" y2="162.12"/><line class="cls-8" x1="215.88" y1="163.8" x2="216.36" y2="165.96"/><line class="cls-8" x1="216.84" y1="167.64" x2="217.32" y2="169.56"/><line class="cls-8" x1="217.8" y1="171.24" x2="218.28" y2="173.4"/><polyline class="cls-8" points="218.52 175.08 219.24 177.48 222.12 177.48"/><line class="cls-8" x1="223.8" y1="177.48" x2="225.96" y2="177.48"/><line class="cls-8" x1="227.64" y1="177.48" x2="229.8" y2="177.48"/><line class="cls-8" x1="231.48" y1="177.48" x2="233.64" y2="177.48"/><line class="cls-8" x1="235.32" y1="177.48" x2="237.48" y2="177.48"/><line class="cls-8" x1="239.16" y1="177.48" x2="241.32" y2="177.48"/><line class="cls-8" x1="243" y1="177.48" x2="245.16" y2="177.48"/><line class="cls-8" x1="246.84" y1="177.48" x2="249" y2="177.48"/><line class="cls-8" x1="250.68" y1="177.48" x2="252.84" y2="177.48"/><line class="cls-8" x1="254.52" y1="177.48" x2="256.68" y2="177.48"/><line class="cls-8" x1="258.36" y1="177.48" x2="260.28" y2="177.48"/><line class="cls-8" x1="262.2" y1="177.48" x2="264.12" y2="177.48"/><line class="cls-8" x1="266.04" y1="177.48" x2="267.96" y2="177.48"/><line class="cls-8" x1="269.64" y1="177.48" x2="271.8" y2="177.48"/><line class="cls-8" x1="273.48" y1="177.48" x2="275.64" y2="177.48"/><line class="cls-8" x1="277.32" y1="177.48" x2="279.48" y2="177.48"/><line class="cls-8" x1="281.16" y1="177.48" x2="283.32" y2="177.48"/><line class="cls-8" x1="285" y1="177.48" x2="287.16" y2="177.48"/><line class="cls-8" x1="288.84" y1="177.48" x2="291" y2="177.48"/><line class="cls-8" x1="292.68" y1="177.48" x2="294.84" y2="177.48"/><line class="cls-8" x1="296.52" y1="177.48" x2="298.68" y2="177.48"/><line class="cls-8" x1="300.36" y1="177.48" x2="302.52" y2="177.48"/><line class="cls-8" x1="304.2" y1="177.48" x2="306.36" y2="177.48"/><line class="cls-8" x1="308.04" y1="177.48" x2="310.2" y2="177.48"/><line class="cls-8" x1="311.88" y1="177.48" x2="314.04" y2="177.48"/><line class="cls-8" x1="315.72" y1="177.48" x2="317.88" y2="177.48"/><line class="cls-8" x1="319.56" y1="177.48" x2="321.48" y2="177.48"/><line class="cls-8" x1="323.4" y1="177.48" x2="325.32" y2="177.48"/><line class="cls-8" x1="327" y1="177.48" x2="329.16" y2="177.48"/><line class="cls-8" x1="330.84" y1="177.48" x2="333" y2="177.48"/><line class="cls-8" x1="334.68" y1="177.48" x2="336.84" y2="177.48"/><line class="cls-8" x1="338.52" y1="177.48" x2="340.68" y2="177.48"/><line class="cls-8" x1="342.36" y1="177.48" x2="344.52" y2="177.48"/><line class="cls-8" x1="346.2" y1="177.48" x2="348.36" y2="177.48"/><line class="cls-8" x1="350.04" y1="177.48" x2="352.2" y2="177.48"/><line class="cls-8" x1="353.88" y1="177.48" x2="356.04" y2="177.48"/><line class="cls-8" x1="357.72" y1="177.48" x2="360.6" y2="177.48"/></g></g></svg>