<svg xmlns="http://www.w3.org/2000/svg" viewBox="0 0 204.72 110.16"><defs><style>.cls-1{fill:#c6d3b4;}.cls-2,.cls-3{fill:none;stroke-linecap:round;stroke-linejoin:round;stroke-width:0.24px;}.cls-2{stroke:red;}.cls-3{stroke:#000;}</style></defs><title>ROOM-RECTANGLE-DOUBLE_DOOR</title><g id="Layer_2" data-name="Layer 2"><g id="Layer_1-2" data-name="Layer 1"><rect class="cls-1" x="27.48" y="3.72" width="173.76" height="102.96"/><line class="cls-2" x1="25.56" y1="108.36" x2="25.56" y2="105.72"/><line class="cls-2" x1="25.56" y1="104.04" x2="25.56" y2="101.88"/><line class="cls-2" x1="25.56" y1="100.2" x2="25.56" y2="98.04"/><line class="cls-2" x1="25.56" y1="96.36" x2="25.56" y2="94.2"/><line class="cls-2" x1="25.56" y1="92.52" x2="25.56" y2="90.36"/><line class="cls-2" x1="25.56" y1="88.68" x2="25.56" y2="86.76"/><line class="cls-2" x1="25.56" y1="84.84" x2="25.56" y2="82.92"/><line class="cls-2" x1="25.56" y1="81.24" x2="25.56" y2="79.08"/><line class="cls-2" x1="25.56" y1="77.4" x2="25.56" y2="75.24"/><line class="cls-2" x1="25.56" y1="73.56" x2="25.56" y2="71.4"/><line class="cls-2" x1="25.56" y1="69.72" x2="25.56" y2="67.56"/><line class="cls-2" x1="25.56" y1="65.88" x2="25.56" y2="63.72"/><line class="cls-2" x1="25.56" y1="62.04" x2="25.56" y2="59.88"/><line class="cls-2" x1="25.56" y1="58.2" x2="25.56" y2="56.04"/><line class="cls-2" x1="25.56" y1="54.36" x2="25.56" y2="52.2"/><line class="cls-2" x1="25.56" y1="50.52" x2="25.56" y2="48.36"/><line class="cls-2" x1="25.56" y1="46.68" x2="25.56" y2="44.52"/><line class="cls-2" x1="25.56" y1="42.84" x2="25.56" y2="40.68"/><line class="cls-2" x1="25.56" y1="39" x2="25.56" y2="36.84"/><line class="cls-2" x1="25.56" y1="35.16" x2="25.56" y2="33"/><line class="cls-2" x1="25.56" y1="31.32" x2="25.56" y2="29.16"/><line class="cls-2" x1="25.56" y1="27.48" x2="25.56" y2="25.56"/><line class="cls-2" x1="25.56" y1="23.64" x2="25.56" y2="21.72"/><line class="cls-2" x1="25.56" y1="20.04" x2="25.56" y2="17.88"/><line class="cls-2" x1="25.56" y1="16.2" x2="25.56" y2="14.04"/><line class="cls-2" x1="25.56" y1="12.36" x2="25.56" y2="10.2"/><line class="cls-2" x1="25.56" y1="8.52" x2="25.56" y2="6.36"/><polyline class="cls-2" points="25.56 4.68 25.56 2.04 27.48 2.04"/><line class="cls-2" x1="29.16" y1="2.04" x2="31.32" y2="2.04"/><line class="cls-2" x1="33" y1="2.04" x2="35.16" y2="2.04"/><line class="cls-2" x1="36.84" y1="2.04" x2="39" y2="2.04"/><line class="cls-2" x1="40.68" y1="2.04" x2="42.84" y2="2.04"/><line class="cls-2" x1="44.52" y1="2.04" x2="46.44" y2="2.04"/><line class="cls-2" x1="48.36" y1="2.04" x2="50.28" y2="2.04"/><line class="cls-2" x1="52.2" y1="2.04" x2="54.12" y2="2.04"/><line class="cls-2" x1="55.8" y1="2.04" x2="57.96" y2="2.04"/><line class="cls-2" x1="59.64" y1="2.04" x2="61.8" y2="2.04"/><line class="cls-2" x1="63.48" y1="2.04" x2="65.64" y2="2.04"/><line class="cls-2" x1="67.32" y1="2.04" x2="69.48" y2="2.04"/><line class="cls-2" x1="71.16" y1="2.04" x2="73.32" y2="2.04"/><line class="cls-2" x1="75" y1="2.04" x2="77.16" y2="2.04"/><line class="cls-2" x1="78.84" y1="2.04" x2="81" y2="2.04"/><line class="cls-2" x1="82.68" y1="2.04" x2="84.84" y2="2.04"/><line class="cls-2" x1="86.52" y1="2.04" x2="88.68" y2="2.04"/><line class="cls-2" x1="90.36" y1="2.04" x2="92.52" y2="2.04"/><line class="cls-2" x1="94.2" y1="2.04" x2="96.36" y2="2.04"/><line class="cls-2" x1="98.04" y1="2.04" x2="100.2" y2="2.04"/><line class="cls-2" x1="101.88" y1="2.04" x2="104.04" y2="2.04"/><line class="cls-2" x1="105.72" y1="2.04" x2="107.64" y2="2.04"/><line class="cls-2" x1="109.56" y1="2.04" x2="111.48" y2="2.04"/><line class="cls-2" x1="113.4" y1="2.04" x2="115.32" y2="2.04"/><line class="cls-2" x1="117" y1="2.04" x2="119.16" y2="2.04"/><line class="cls-2" x1="120.84" y1="2.04" x2="123" y2="2.04"/><line class="cls-2" x1="124.68" y1="2.04" x2="126.84" y2="2.04"/><line class="cls-2" x1="128.52" y1="2.04" x2="130.68" y2="2.04"/><line class="cls-2" x1="132.36" y1="2.04" x2="134.52" y2="2.04"/><line class="cls-2" x1="136.2" y1="2.04" x2="138.36" y2="2.04"/><line class="cls-2" x1="140.04" y1="2.04" x2="142.2" y2="2.04"/><line class="cls-2" x1="143.88" y1="2.04" x2="146.04" y2="2.04"/><line class="cls-2" x1="147.72" y1="2.04" x2="149.88" y2="2.04"/><line class="cls-2" x1="151.56" y1="2.04" x2="153.72" y2="2.04"/><line class="cls-2" x1="155.4" y1="2.04" x2="157.56" y2="2.04"/><line class="cls-2" x1="159.24" y1="2.04" x2="161.4" y2="2.04"/><line class="cls-2" x1="163.08" y1="2.04" x2="165.24" y2="2.04"/><line class="cls-2" x1="166.92" y1="2.04" x2="168.84" y2="2.04"/><line class="cls-2" x1="170.76" y1="2.04" x2="172.68" y2="2.04"/><line class="cls-2" x1="174.36" y1="2.04" x2="176.52" y2="2.04"/><line class="cls-2" x1="178.2" y1="2.04" x2="180.36" y2="2.04"/><line class="cls-2" x1="182.04" y1="2.04" x2="184.2" y2="2.04"/><line class="cls-2" x1="185.88" y1="2.04" x2="188.04" y2="2.04"/><line class="cls-2" x1="189.72" y1="2.04" x2="191.88" y2="2.04"/><line class="cls-2" x1="193.56" y1="2.04" x2="195.72" y2="2.04"/><line class="cls-2" x1="197.4" y1="2.04" x2="199.56" y2="2.04"/><polyline class="cls-2" points="201.24 2.04 202.92 2.04 202.92 4.68"/><line class="cls-2" x1="202.92" y1="6.36" x2="202.92" y2="8.52"/><line class="cls-2" x1="202.92" y1="10.2" x2="202.92" y2="12.36"/><line class="cls-2" x1="202.92" y1="14.04" x2="202.92" y2="16.2"/><line class="cls-2" x1="202.92" y1="17.88" x2="202.92" y2="20.04"/><line class="cls-2" x1="202.92" y1="21.72" x2="202.92" y2="23.64"/><line class="cls-2" x1="202.92" y1="25.56" x2="202.92" y2="27.48"/><line class="cls-2" x1="202.92" y1="29.16" x2="202.92" y2="31.32"/><line class="cls-2" x1="202.92" y1="33" x2="202.92" y2="35.16"/><line class="cls-2" x1="202.92" y1="36.84" x2="202.92" y2="39"/><line class="cls-2" x1="202.92" y1="40.68" x2="202.92" y2="42.84"/><line class="cls-2" x1="202.92" y1="44.52" x2="202.92" y2="46.68"/><line class="cls-2" x1="202.92" y1="48.36" x2="202.92" y2="50.52"/><line class="cls-2" x1="202.92" y1="52.2" x2="202.92" y2="54.36"/><line class="cls-2" x1="202.92" y1="56.04" x2="202.92" y2="58.2"/><line class="cls-2" x1="202.92" y1="59.88" x2="202.92" y2="62.04"/><line class="cls-2" x1="202.92" y1="63.72" x2="202.92" y2="65.88"/><line class="cls-2" x1="202.92" y1="67.56" x2="202.92" y2="69.72"/><line class="cls-2" x1="202.92" y1="71.4" x2="202.92" y2="73.56"/><line class="cls-2" x1="202.92" y1="75.24" x2="202.92" y2="77.4"/><line class="cls-2" x1="202.92" y1="79.08" x2="202.92" y2="81.24"/><line class="cls-2" x1="202.92" y1="82.92" x2="202.92" y2="84.84"/><line class="cls-2" x1="202.92" y1="86.76" x2="202.92" y2="88.68"/><line class="cls-2" x1="202.92" y1="90.36" x2="202.92" y2="92.52"/><line class="cls-2" x1="202.92" y1="94.2" x2="202.92" y2="96.36"/><line class="cls-2" x1="202.92" y1="98.04" x2="202.92" y2="100.2"/><line class="cls-2" x1="202.92" y1="101.88" x2="202.92" y2="104.04"/><polyline class="cls-2" points="202.92 105.72 202.92 108.36 201.24 108.36"/><line class="cls-2" x1="199.56" y1="108.36" x2="197.4" y2="108.36"/><line class="cls-2" x1="195.72" y1="108.36" x2="193.56" y2="108.36"/><line class="cls-2" x1="191.88" y1="108.36" x2="189.72" y2="108.36"/><line class="cls-2" x1="188.04" y1="108.36" x2="185.88" y2="108.36"/><line class="cls-2" x1="184.2" y1="108.36" x2="182.04" y2="108.36"/><line class="cls-2" x1="180.36" y1="108.36" x2="178.2" y2="108.36"/><line class="cls-2" x1="176.52" y1="108.36" x2="174.36" y2="108.36"/><line class="cls-2" x1="172.68" y1="108.36" x2="170.76" y2="108.36"/><line class="cls-2" x1="168.84" y1="108.36" x2="166.92" y2="108.36"/><line class="cls-2" x1="165.24" y1="108.36" x2="163.08" y2="108.36"/><line class="cls-2" x1="161.4" y1="108.36" x2="159.24" y2="108.36"/><line class="cls-2" x1="157.56" y1="108.36" x2="155.4" y2="108.36"/><line class="cls-2" x1="153.72" y1="108.36" x2="151.56" y2="108.36"/><line class="cls-2" x1="149.88" y1="108.36" x2="147.72" y2="108.36"/><line class="cls-2" x1="146.04" y1="108.36" x2="143.88" y2="108.36"/><line class="cls-2" x1="142.2" y1="108.36" x2="140.04" y2="108.36"/><line class="cls-2" x1="138.36" y1="108.36" x2="136.2" y2="108.36"/><line class="cls-2" x1="134.52" y1="108.36" x2="132.36" y2="108.36"/><line class="cls-2" x1="130.68" y1="108.36" x2="128.52" y2="108.36"/><line class="cls-2" x1="126.84" y1="108.36" x2="124.68" y2="108.36"/><line class="cls-2" x1="123" y1="108.36" x2="120.84" y2="108.36"/><line class="cls-2" x1="119.16" y1="108.36" x2="117" y2="108.36"/><line class="cls-2" x1="115.32" y1="108.36" x2="113.4" y2="108.36"/><line class="cls-2" x1="111.48" y1="108.36" x2="109.56" y2="108.36"/><line class="cls-2" x1="107.64" y1="108.36" x2="105.72" y2="108.36"/><line class="cls-2" x1="104.04" y1="108.36" x2="101.88" y2="108.36"/><line class="cls-2" x1="100.2" y1="108.36" x2="98.04" y2="108.36"/><line class="cls-2" x1="96.36" y1="108.36" x2="94.2" y2="108.36"/><line class="cls-2" x1="92.52" y1="108.36" x2="90.36" y2="108.36"/><line class="cls-2" x1="88.68" y1="108.36" x2="86.52" y2="108.36"/><line class="cls-2" x1="84.84" y1="108.36" x2="82.68" y2="108.36"/><line class="cls-2" x1="81" y1="108.36" x2="78.84" y2="108.36"/><line class="cls-2" x1="77.16" y1="108.36" x2="75" y2="108.36"/><line class="cls-2" x1="73.32" y1="108.36" x2="71.16" y2="108.36"/><line class="cls-2" x1="69.48" y1="108.36" x2="67.32" y2="108.36"/><line class="cls-2" x1="65.64" y1="108.36" x2="63.48" y2="108.36"/><line class="cls-2" x1="61.8" y1="108.36" x2="59.64" y2="108.36"/><line class="cls-2" x1="57.96" y1="108.36" x2="55.8" y2="108.36"/><line class="cls-2" x1="54.12" y1="108.36" x2="52.2" y2="108.36"/><line class="cls-2" x1="50.28" y1="108.36" x2="48.36" y2="108.36"/><line class="cls-2" x1="46.44" y1="108.36" x2="44.52" y2="108.36"/><line class="cls-2" x1="42.84" y1="108.36" x2="40.68" y2="108.36"/><line class="cls-2" x1="39" y1="108.36" x2="36.84" y2="108.36"/><line class="cls-2" x1="35.16" y1="108.36" x2="33" y2="108.36"/><line class="cls-2" x1="31.32" y1="108.36" x2="29.16" y2="108.36"/><line class="cls-2" x1="27.48" y1="108.36" x2="25.56" y2="108.36"/><polyline class="cls-3" points="25.56 80.04 22.44 79.56 19.56 77.64 17.88 75 17.16 71.64"/><polyline class="cls-3" points="25.56 80.04 22.44 79.56 19.56 77.64 17.88 75 17.16 71.64"/><line class="cls-3" x1="25.56" y1="71.64" x2="17.16" y2="71.64"/><polyline class="cls-3" points="25.56 73.08 17.16 73.08 17.16 71.64 25.56 71.64 25.56 73.08"/><polyline class="cls-3" points="25.56 80.04 19.08 81 12.84 83.64 7.56 87.48 3.48 92.76 1.08 99 0.12 105.72"/><polyline class="cls-3" points="25.56 80.04 19.08 81 12.84 83.64 7.56 87.48 3.48 92.76 1.08 99 0.12 105.72"/><line class="cls-3" x1="25.56" y1="105.72" x2="0.12" y2="105.72"/><polyline class="cls-3" points="25.56 104.28 0.12 104.28 0.12 105.72 25.56 105.72 25.56 104.28"/><polyline class="cls-3" points="202.92 80.04 199.8 79.56 196.92 77.64 195.24 75 194.52 71.64"/><polyline class="cls-3" points="202.92 80.04 199.8 79.56 196.92 77.64 195.24 75 194.52 71.64"/><line class="cls-3" x1="202.92" y1="71.64" x2="194.52" y2="71.64"/><polyline class="cls-3" points="202.92 73.08 194.52 73.08 194.52 71.64 202.92 71.64 202.92 73.08"/><polyline class="cls-3" points="202.92 80.04 196.44 81 190.2 83.64 184.92 87.48 180.84 92.76 178.44 99 177.48 105.72"/><polyline class="cls-3" points="202.92 80.04 196.44 81 190.2 83.64 184.92 87.48 180.84 92.76 178.44 99 177.48 105.72"/><line class="cls-3" x1="202.92" y1="105.72" x2="177.48" y2="105.72"/><polyline class="cls-3" points="202.92 104.28 177.48 104.28 177.48 105.72 202.92 105.72 202.92 104.28"/><polyline class="cls-3" points="23.88 0.12 23.88 110.04 204.6 110.04 204.6 0.12"/><line class="cls-3" x1="204.6" y1="0.12" x2="23.88" y2="0.12"/><polyline class="cls-3" points="201.24 3.72 201.24 106.68 27.48 106.68 27.48 3.72 201.24 3.72"/><line class="cls-3" x1="201.24" y1="106.68" x2="201.24" y2="103.8"/><line class="cls-3" x1="201.24" y1="102.12" x2="201.24" y2="99.96"/><line class="cls-3" x1="201.24" y1="98.28" x2="201.24" y2="96.12"/><line class="cls-3" x1="201.24" y1="94.44" x2="201.24" y2="92.28"/><line class="cls-3" x1="201.24" y1="90.6" x2="201.24" y2="88.44"/><line class="cls-3" x1="201.24" y1="86.76" x2="201.24" y2="84.84"/><line class="cls-3" x1="201.24" y1="82.92" x2="201.24" y2="81"/><line class="cls-3" x1="201.24" y1="79.32" x2="201.24" y2="77.16"/><line class="cls-3" x1="201.24" y1="75.48" x2="201.24" y2="73.32"/><line class="cls-3" x1="201.24" y1="71.64" x2="201.24" y2="69.48"/><line class="cls-3" x1="201.24" y1="67.8" x2="201.24" y2="65.64"/><line class="cls-3" x1="201.24" y1="63.96" x2="201.24" y2="61.8"/><line class="cls-3" x1="201.24" y1="60.12" x2="201.24" y2="57.96"/><line class="cls-3" x1="201.24" y1="56.28" x2="201.24" y2="54.12"/><line class="cls-3" x1="201.24" y1="52.44" x2="201.24" y2="50.28"/><line class="cls-3" x1="201.24" y1="48.6" x2="201.24" y2="46.44"/><line class="cls-3" x1="201.24" y1="44.76" x2="201.24" y2="42.6"/><line class="cls-3" x1="201.24" y1="40.92" x2="201.24" y2="38.76"/><line class="cls-3" x1="201.24" y1="37.08" x2="201.24" y2="34.92"/><line class="cls-3" x1="201.24" y1="33.24" x2="201.24" y2="31.08"/><line class="cls-3" x1="201.24" y1="29.4" x2="201.24" y2="27.48"/><line class="cls-3" x1="201.24" y1="25.56" x2="201.24" y2="23.64"/><line class="cls-3" x1="201.24" y1="21.72" x2="201.24" y2="19.8"/><line class="cls-3" x1="201.24" y1="18.12" x2="201.24" y2="15.96"/><line class="cls-3" x1="201.24" y1="14.28" x2="201.24" y2="12.12"/><line class="cls-3" x1="201.24" y1="10.44" x2="201.24" y2="8.28"/><polyline class="cls-3" points="201.24 6.6 201.24 3.72 199.32 3.72"/><line class="cls-3" x1="197.64" y1="3.72" x2="195.48" y2="3.72"/><line class="cls-3" x1="193.8" y1="3.72" x2="191.64" y2="3.72"/><line class="cls-3" x1="189.96" y1="3.72" x2="187.8" y2="3.72"/><line class="cls-3" x1="186.12" y1="3.72" x2="183.96" y2="3.72"/><line class="cls-3" x1="182.28" y1="3.72" x2="180.12" y2="3.72"/><line class="cls-3" x1="178.44" y1="3.72" x2="176.28" y2="3.72"/><line class="cls-3" x1="174.6" y1="3.72" x2="172.68" y2="3.72"/><line class="cls-3" x1="170.76" y1="3.72" x2="168.84" y2="3.72"/><line class="cls-3" x1="166.92" y1="3.72" x2="165" y2="3.72"/><line class="cls-3" x1="163.32" y1="3.72" x2="161.16" y2="3.72"/><line class="cls-3" x1="159.48" y1="3.72" x2="157.32" y2="3.72"/><line class="cls-3" x1="155.64" y1="3.72" x2="153.48" y2="3.72"/><line class="cls-3" x1="151.8" y1="3.72" x2="149.64" y2="3.72"/><line class="cls-3" x1="147.96" y1="3.72" x2="145.8" y2="3.72"/><line class="cls-3" x1="144.12" y1="3.72" x2="141.96" y2="3.72"/><line class="cls-3" x1="140.28" y1="3.72" x2="138.12" y2="3.72"/><line class="cls-3" x1="136.44" y1="3.72" x2="134.28" y2="3.72"/><line class="cls-3" x1="132.6" y1="3.72" x2="130.44" y2="3.72"/><line class="cls-3" x1="128.76" y1="3.72" x2="126.6" y2="3.72"/><line class="cls-3" x1="124.92" y1="3.72" x2="122.76" y2="3.72"/><line class="cls-3" x1="121.08" y1="3.72" x2="118.92" y2="3.72"/><line class="cls-3" x1="117.24" y1="3.72" x2="115.08" y2="3.72"/><line class="cls-3" x1="113.4" y1="3.72" x2="111.48" y2="3.72"/><line class="cls-3" x1="109.56" y1="3.72" x2="107.64" y2="3.72"/><line class="cls-3" x1="105.96" y1="3.72" x2="103.8" y2="3.72"/><line class="cls-3" x1="102.12" y1="3.72" x2="99.96" y2="3.72"/><line class="cls-3" x1="98.28" y1="3.72" x2="96.12" y2="3.72"/><line class="cls-3" x1="94.44" y1="3.72" x2="92.28" y2="3.72"/><line class="cls-3" x1="90.6" y1="3.72" x2="88.44" y2="3.72"/><line class="cls-3" x1="86.76" y1="3.72" x2="84.6" y2="3.72"/><line class="cls-3" x1="82.92" y1="3.72" x2="80.76" y2="3.72"/><line class="cls-3" x1="79.08" y1="3.72" x2="76.92" y2="3.72"/><line class="cls-3" x1="75.24" y1="3.72" x2="73.08" y2="3.72"/><line class="cls-3" x1="71.4" y1="3.72" x2="69.24" y2="3.72"/><line class="cls-3" x1="67.56" y1="3.72" x2="65.4" y2="3.72"/><line class="cls-3" x1="63.72" y1="3.72" x2="61.56" y2="3.72"/><line class="cls-3" x1="59.88" y1="3.72" x2="57.72" y2="3.72"/><line class="cls-3" x1="56.04" y1="3.72" x2="53.88" y2="3.72"/><line class="cls-3" x1="52.2" y1="3.72" x2="50.28" y2="3.72"/><line class="cls-3" x1="48.36" y1="3.72" x2="46.44" y2="3.72"/><line class="cls-3" x1="44.76" y1="3.72" x2="42.6" y2="3.72"/><line class="cls-3" x1="40.92" y1="3.72" x2="38.76" y2="3.72"/><line class="cls-3" x1="37.08" y1="3.72" x2="34.92" y2="3.72"/><line class="cls-3" x1="33.24" y1="3.72" x2="31.08" y2="3.72"/><polyline class="cls-3" points="29.4 3.72 27.48 3.72 27.48 6.6"/><line class="cls-3" x1="27.48" y1="8.28" x2="27.48" y2="10.44"/><line class="cls-3" x1="27.48" y1="12.12" x2="27.48" y2="14.28"/><line class="cls-3" x1="27.48" y1="15.96" x2="27.48" y2="18.12"/><line class="cls-3" x1="27.48" y1="19.8" x2="27.48" y2="21.72"/><line class="cls-3" x1="27.48" y1="23.64" x2="27.48" y2="25.56"/><line class="cls-3" x1="27.48" y1="27.48" x2="27.48" y2="29.4"/><line class="cls-3" x1="27.48" y1="31.08" x2="27.48" y2="33.24"/><line class="cls-3" x1="27.48" y1="34.92" x2="27.48" y2="37.08"/><line class="cls-3" x1="27.48" y1="38.76" x2="27.48" y2="40.92"/><line class="cls-3" x1="27.48" y1="42.6" x2="27.48" y2="44.76"/><line class="cls-3" x1="27.48" y1="46.44" x2="27.48" y2="48.6"/><line class="cls-3" x1="27.48" y1="50.28" x2="27.48" y2="52.44"/><line class="cls-3" x1="27.48" y1="54.12" x2="27.48" y2="56.28"/><line class="cls-3" x1="27.48" y1="57.96" x2="27.48" y2="60.12"/><line class="cls-3" x1="27.48" y1="61.8" x2="27.48" y2="63.96"/><line class="cls-3" x1="27.48" y1="65.64" x2="27.48" y2="67.8"/><line class="cls-3" x1="27.48" y1="69.48" x2="27.48" y2="71.64"/><line class="cls-3" x1="27.48" y1="73.32" x2="27.48" y2="75.48"/><line class="cls-3" x1="27.48" y1="77.16" x2="27.48" y2="79.32"/><line class="cls-3" x1="27.48" y1="81" x2="27.48" y2="82.92"/><line class="cls-3" x1="27.48" y1="84.84" x2="27.48" y2="86.76"/><line class="cls-3" x1="27.48" y1="88.44" x2="27.48" y2="90.6"/><line class="cls-3" x1="27.48" y1="92.28" x2="27.48" y2="94.44"/><line class="cls-3" x1="27.48" y1="96.12" x2="27.48" y2="98.28"/><line class="cls-3" x1="27.48" y1="99.96" x2="27.48" y2="102.12"/><polyline class="cls-3" points="27.48 103.8 27.48 106.68 29.4 106.68"/><line class="cls-3" x1="31.08" y1="106.68" x2="33.24" y2="106.68"/><line class="cls-3" x1="34.92" y1="106.68" x2="37.08" y2="106.68"/><line class="cls-3" x1="38.76" y1="106.68" x2="40.92" y2="106.68"/><line class="cls-3" x1="42.6" y1="106.68" x2="44.76" y2="106.68"/><line class="cls-3" x1="46.44" y1="106.68" x2="48.36" y2="106.68"/><line class="cls-3" x1="50.28" y1="106.68" x2="52.2" y2="106.68"/><line class="cls-3" x1="53.88" y1="106.68" x2="56.04" y2="106.68"/><line class="cls-3" x1="57.72" y1="106.68" x2="59.88" y2="106.68"/><line class="cls-3" x1="61.56" y1="106.68" x2="63.72" y2="106.68"/><line class="cls-3" x1="65.4" y1="106.68" x2="67.56" y2="106.68"/><line class="cls-3" x1="69.24" y1="106.68" x2="71.4" y2="106.68"/><line class="cls-3" x1="73.08" y1="106.68" x2="75.24" y2="106.68"/><line class="cls-3" x1="76.92" y1="106.68" x2="79.08" y2="106.68"/><line class="cls-3" x1="80.76" y1="106.68" x2="82.92" y2="106.68"/><line class="cls-3" x1="84.6" y1="106.68" x2="86.76" y2="106.68"/><line class="cls-3" x1="88.44" y1="106.68" x2="90.6" y2="106.68"/><line class="cls-3" x1="92.28" y1="106.68" x2="94.44" y2="106.68"/><line class="cls-3" x1="96.12" y1="106.68" x2="98.28" y2="106.68"/><line class="cls-3" x1="99.96" y1="106.68" x2="102.12" y2="106.68"/><line class="cls-3" x1="103.8" y1="106.68" x2="105.96" y2="106.68"/><line class="cls-3" x1="107.64" y1="106.68" x2="109.56" y2="106.68"/><line class="cls-3" x1="111.48" y1="106.68" x2="113.4" y2="106.68"/><line class="cls-3" x1="115.08" y1="106.68" x2="117.24" y2="106.68"/><line class="cls-3" x1="118.92" y1="106.68" x2="121.08" y2="106.68"/><line class="cls-3" x1="122.76" y1="106.68" x2="124.92" y2="106.68"/><line class="cls-3" x1="126.6" y1="106.68" x2="128.76" y2="106.68"/><line class="cls-3" x1="130.44" y1="106.68" x2="132.6" y2="106.68"/><line class="cls-3" x1="134.28" y1="106.68" x2="136.44" y2="106.68"/><line class="cls-3" x1="138.12" y1="106.68" x2="140.28" y2="106.68"/><line class="cls-3" x1="141.96" y1="106.68" x2="144.12" y2="106.68"/><line class="cls-3" x1="145.8" y1="106.68" x2="147.96" y2="106.68"/><line class="cls-3" x1="149.64" y1="106.68" x2="151.8" y2="106.68"/><line class="cls-3" x1="153.48" y1="106.68" x2="155.64" y2="106.68"/><line class="cls-3" x1="157.32" y1="106.68" x2="159.48" y2="106.68"/><line class="cls-3" x1="161.16" y1="106.68" x2="163.32" y2="106.68"/><line class="cls-3" x1="165" y1="106.68" x2="166.92" y2="106.68"/><line class="cls-3" x1="168.84" y1="106.68" x2="170.76" y2="106.68"/><line class="cls-3" x1="172.68" y1="106.68" x2="174.6" y2="106.68"/><line class="cls-3" x1="176.28" y1="106.68" x2="178.44" y2="106.68"/><line class="cls-3" x1="180.12" y1="106.68" x2="182.28" y2="106.68"/><line class="cls-3" x1="183.96" y1="106.68" x2="186.12" y2="106.68"/><line class="cls-3" x1="187.8" y1="106.68" x2="189.96" y2="106.68"/><line class="cls-3" x1="191.64" y1="106.68" x2="193.8" y2="106.68"/><line class="cls-3" x1="195.48" y1="106.68" x2="197.64" y2="106.68"/><line class="cls-3" x1="199.32" y1="106.68" x2="201.24" y2="106.68"/></g></g></svg>