<svg xmlns="http://www.w3.org/2000/svg" xmlns:xlink="http://www.w3.org/1999/xlink" viewBox="0 0 269.76 165.12"><defs><style>.cls-1,.cls-10,.cls-2,.cls-7,.cls-8,.cls-9{fill:none;}.cls-1{clip-rule:evenodd;}.cls-3{clip-path:url(#clip-path);}.cls-4{clip-path:url(#clip-path-2);}.cls-5{fill:#c6d3b4;}.cls-6{clip-path:url(#clip-path-3);}.cls-7{stroke:red;}.cls-10,.cls-7,.cls-8,.cls-9{stroke-linecap:round;stroke-linejoin:round;}.cls-7,.cls-8{stroke-width:0.24px;}.cls-10,.cls-8,.cls-9{stroke:#000;}.cls-9{stroke-width:0.48px;}.cls-10{stroke-width:0.96px;}</style><clipPath id="clip-path" transform="translate(0 -429.72)"><path class="cls-1" d="M57,493l-.48,1-.24,25.44.24.24v.48h.24v.72h.72L118,521v-.24l.72-.24.24-26.88-.72-.72M57,442.8l-.48.48-.24,25.92.48.48v.72h.48l.24.24,60.48.24v-.24l.48-.24.24-.24.24-26.64-.72-.72ZM3.48,433.44V591.36H53.16V559H76.44v-.72H82V556.8h-.24v-1.44h-.24v-3.12l.48-2.4.24-.24.48-1,1-1,1-.48.24-.24,1.44-.72L87,546h4.56l.72.24,1,.48.24.24,1,.48,1.68,1.68v.48h.24v.48h.24v.72h.24v.72h.24l-.24,3.6L96.36,558l5.52.24V559H121.8V433.44Z"/></clipPath><clipPath id="clip-path-2" transform="translate(0 -429.72)"><rect class="cls-2" x="0.13" width="841.92" height="595.2"/></clipPath><clipPath id="clip-path-3" transform="translate(0 -429.72)"><path class="cls-1" d="M201.48,475.92l-.48,1-.24,25.44.24.24V503h.24v.48h.48l.24.24,60.48.24v-.24l.48-.24.24-.24.24-26.88-.24-.24-.48-.24M148,433.44V591.36h49.68V559h23.28v-.72h5.52V556.8h-.24v-1.44H226v-3.12l.48-2.4.24-.24.48-1,1-1,1-.48.24-.24,1.44-.72.72-.24H236l.72.24,1,.48.24.24,1,.48,1.68,1.68v.48h.24v.48h.24v.72h.24v.72h.24l-.24,3.6-.48,2.88,5.76.24V559h19.68V433.44Z"/></clipPath></defs><title>ROOM-BED-WITH RECTANGLE ENS</title><g id="Layer_2" data-name="Layer 2"><g id="Layer_1-2" data-name="Layer 1"><g class="cls-3"><g class="cls-4"><rect class="cls-5" x="3.48" y="3.72" width="118.32" height="157.92"/></g></g><g class="cls-6"><g class="cls-4"><rect class="cls-5" x="147.96" y="3.72" width="118.32" height="157.92"/></g></g><line class="cls-7" x1="55.08" y1="163.32" x2="51.96" y2="163.32"/><line class="cls-7" x1="1.8" y1="163.32" x2="1.8" y2="161.88"/><line class="cls-7" x1="1.8" y1="160.2" x2="1.8" y2="158.04"/><line class="cls-7" x1="1.8" y1="156.36" x2="1.8" y2="154.2"/><line class="cls-7" x1="1.8" y1="152.52" x2="1.8" y2="150.36"/><line class="cls-7" x1="1.8" y1="148.68" x2="1.8" y2="146.52"/><line class="cls-7" x1="1.8" y1="144.84" x2="1.8" y2="142.92"/><line class="cls-7" x1="1.8" y1="141" x2="1.8" y2="139.08"/><line class="cls-7" x1="1.8" y1="137.4" x2="1.8" y2="135.24"/><line class="cls-7" x1="1.8" y1="133.56" x2="1.8" y2="131.4"/><line class="cls-7" x1="1.8" y1="129.72" x2="1.8" y2="127.56"/><line class="cls-7" x1="1.8" y1="125.88" x2="1.8" y2="123.72"/><line class="cls-7" x1="1.8" y1="122.04" x2="1.8" y2="119.88"/><line class="cls-7" x1="1.8" y1="118.2" x2="1.8" y2="116.04"/><line class="cls-7" x1="1.8" y1="114.36" x2="1.8" y2="112.2"/><line class="cls-7" x1="1.8" y1="110.52" x2="1.8" y2="108.36"/><line class="cls-7" x1="1.8" y1="106.68" x2="1.8" y2="104.52"/><line class="cls-7" x1="1.8" y1="102.84" x2="1.8" y2="100.68"/><line class="cls-7" x1="1.8" y1="99" x2="1.8" y2="96.84"/><line class="cls-7" x1="1.8" y1="95.16" x2="1.8" y2="93"/><line class="cls-7" x1="1.8" y1="91.32" x2="1.8" y2="89.16"/><line class="cls-7" x1="1.8" y1="87.48" x2="1.8" y2="85.32"/><line class="cls-7" x1="1.8" y1="83.64" x2="1.8" y2="81.72"/><line class="cls-7" x1="1.8" y1="79.8" x2="1.8" y2="77.88"/><line class="cls-7" x1="1.8" y1="76.2" x2="1.8" y2="74.04"/><line class="cls-7" x1="1.8" y1="72.36" x2="1.8" y2="70.2"/><line class="cls-7" x1="1.8" y1="68.52" x2="1.8" y2="66.36"/><line class="cls-7" x1="1.8" y1="64.68" x2="1.8" y2="62.52"/><line class="cls-7" x1="1.8" y1="60.84" x2="1.8" y2="58.68"/><line class="cls-7" x1="1.8" y1="57" x2="1.8" y2="54.84"/><line class="cls-7" x1="1.8" y1="53.16" x2="1.8" y2="51"/><line class="cls-7" x1="1.8" y1="49.32" x2="1.8" y2="47.16"/><line class="cls-7" x1="1.8" y1="45.48" x2="1.8" y2="43.32"/><line class="cls-7" x1="1.8" y1="41.64" x2="1.8" y2="39.48"/><line class="cls-7" x1="1.8" y1="37.8" x2="1.8" y2="35.64"/><line class="cls-7" x1="1.8" y1="33.96" x2="1.8" y2="31.8"/><line class="cls-7" x1="1.8" y1="30.12" x2="1.8" y2="27.96"/><line class="cls-7" x1="1.8" y1="26.28" x2="1.8" y2="24.36"/><line class="cls-7" x1="1.8" y1="22.44" x2="1.8" y2="20.52"/><line class="cls-7" x1="1.8" y1="18.6" x2="1.8" y2="16.68"/><line class="cls-7" x1="1.8" y1="15" x2="1.8" y2="12.84"/><line class="cls-7" x1="1.8" y1="11.16" x2="1.8" y2="9"/><line class="cls-7" x1="1.8" y1="7.32" x2="1.8" y2="5.16"/><line class="cls-7" x1="1.8" y1="3.48" x2="1.8" y2="2.04"/><line class="cls-7" x1="6.6" y1="163.32" x2="4.92" y2="163.32"/><line class="cls-7" x1="3.24" y1="163.32" x2="1.8" y2="163.32"/><line class="cls-7" x1="55.08" y1="130.92" x2="55.08" y2="132.84"/><line class="cls-7" x1="55.08" y1="134.52" x2="55.08" y2="136.68"/><line class="cls-7" x1="55.08" y1="138.36" x2="55.08" y2="140.52"/><line class="cls-7" x1="55.08" y1="142.2" x2="55.08" y2="144.36"/><line class="cls-7" x1="55.08" y1="146.04" x2="55.08" y2="148.2"/><line class="cls-7" x1="55.08" y1="149.88" x2="55.08" y2="152.04"/><line class="cls-7" x1="55.08" y1="153.72" x2="55.08" y2="155.88"/><line class="cls-7" x1="55.08" y1="157.56" x2="55.08" y2="159.72"/><line class="cls-7" x1="55.08" y1="161.4" x2="55.08" y2="163.32"/><line class="cls-7" x1="123.48" y1="130.92" x2="120.6" y2="130.92"/><line class="cls-7" x1="118.92" y1="130.92" x2="116.76" y2="130.92"/><line class="cls-7" x1="115.08" y1="130.92" x2="113.16" y2="130.92"/><line class="cls-7" x1="111.24" y1="130.92" x2="109.32" y2="130.92"/><line class="cls-7" x1="107.4" y1="130.92" x2="105.48" y2="130.92"/><line class="cls-7" x1="103.8" y1="130.92" x2="101.64" y2="130.92"/><line class="cls-7" x1="99.96" y1="130.92" x2="97.8" y2="130.92"/><line class="cls-7" x1="96.12" y1="130.92" x2="93.96" y2="130.92"/><line class="cls-7" x1="92.28" y1="130.92" x2="90.12" y2="130.92"/><line class="cls-7" x1="88.44" y1="130.92" x2="86.28" y2="130.92"/><line class="cls-7" x1="84.6" y1="130.92" x2="82.44" y2="130.92"/><line class="cls-7" x1="80.76" y1="130.92" x2="78.6" y2="130.92"/><line class="cls-7" x1="76.92" y1="130.92" x2="74.76" y2="130.92"/><line class="cls-7" x1="73.08" y1="130.92" x2="70.92" y2="130.92"/><line class="cls-7" x1="69.24" y1="130.92" x2="67.08" y2="130.92"/><line class="cls-7" x1="65.4" y1="130.92" x2="63.24" y2="130.92"/><line class="cls-7" x1="61.56" y1="130.92" x2="59.4" y2="130.92"/><line class="cls-7" x1="57.72" y1="130.92" x2="55.08" y2="130.92"/><line class="cls-7" x1="123.48" y1="2.04" x2="123.48" y2="4.44"/><line class="cls-7" x1="123.48" y1="6.12" x2="123.48" y2="8.28"/><line class="cls-7" x1="123.48" y1="9.96" x2="123.48" y2="11.88"/><line class="cls-7" x1="123.48" y1="13.8" x2="123.48" y2="15.72"/><line class="cls-7" x1="123.48" y1="17.4" x2="123.48" y2="19.56"/><line class="cls-7" x1="123.48" y1="21.24" x2="123.48" y2="23.4"/><line class="cls-7" x1="123.48" y1="25.08" x2="123.48" y2="27.24"/><line class="cls-7" x1="123.48" y1="28.92" x2="123.48" y2="31.08"/><line class="cls-7" x1="123.48" y1="32.76" x2="123.48" y2="34.92"/><line class="cls-7" x1="123.48" y1="36.6" x2="123.48" y2="38.76"/><line class="cls-7" x1="123.48" y1="40.44" x2="123.48" y2="42.6"/><line class="cls-7" x1="123.48" y1="44.28" x2="123.48" y2="46.44"/><line class="cls-7" x1="123.48" y1="48.12" x2="123.48" y2="50.28"/><line class="cls-7" x1="123.48" y1="51.96" x2="123.48" y2="54.12"/><line class="cls-7" x1="123.48" y1="55.8" x2="123.48" y2="57.96"/><line class="cls-7" x1="123.48" y1="59.64" x2="123.48" y2="61.8"/><line class="cls-7" x1="123.48" y1="63.48" x2="123.48" y2="65.64"/><line class="cls-7" x1="123.48" y1="67.32" x2="123.48" y2="69.24"/><line class="cls-7" x1="123.48" y1="71.16" x2="123.48" y2="73.08"/><line class="cls-7" x1="123.48" y1="75" x2="123.48" y2="76.92"/><line class="cls-7" x1="123.48" y1="78.6" x2="123.48" y2="80.76"/><line class="cls-7" x1="123.48" y1="82.44" x2="123.48" y2="84.6"/><line class="cls-7" x1="123.48" y1="86.28" x2="123.48" y2="88.44"/><line class="cls-7" x1="123.48" y1="90.12" x2="123.48" y2="92.28"/><line class="cls-7" x1="123.48" y1="93.96" x2="123.48" y2="96.12"/><line class="cls-7" x1="123.48" y1="97.8" x2="123.48" y2="99.96"/><line class="cls-7" x1="123.48" y1="101.64" x2="123.48" y2="103.8"/><line class="cls-7" x1="123.48" y1="105.48" x2="123.48" y2="107.64"/><line class="cls-7" x1="123.48" y1="109.32" x2="123.48" y2="111.48"/><line class="cls-7" x1="123.48" y1="113.16" x2="123.48" y2="115.32"/><line class="cls-7" x1="123.48" y1="117" x2="123.48" y2="119.16"/><line class="cls-7" x1="123.48" y1="120.84" x2="123.48" y2="123"/><line class="cls-7" x1="123.48" y1="124.68" x2="123.48" y2="126.84"/><line class="cls-7" x1="123.48" y1="128.52" x2="123.48" y2="130.92"/><line class="cls-7" x1="1.8" y1="2.04" x2="4.44" y2="2.04"/><line class="cls-7" x1="6.12" y1="2.04" x2="8.28" y2="2.04"/><line class="cls-7" x1="9.96" y1="2.04" x2="12.12" y2="2.04"/><line class="cls-7" x1="13.8" y1="2.04" x2="15.96" y2="2.04"/><line class="cls-7" x1="17.64" y1="2.04" x2="19.8" y2="2.04"/><line class="cls-7" x1="21.48" y1="2.04" x2="23.4" y2="2.04"/><line class="cls-7" x1="25.32" y1="2.04" x2="27.24" y2="2.04"/><line class="cls-7" x1="28.92" y1="2.04" x2="31.08" y2="2.04"/><line class="cls-7" x1="32.76" y1="2.04" x2="34.92" y2="2.04"/><line class="cls-7" x1="36.6" y1="2.04" x2="38.76" y2="2.04"/><line class="cls-7" x1="40.44" y1="2.04" x2="42.6" y2="2.04"/><line class="cls-7" x1="44.28" y1="2.04" x2="46.44" y2="2.04"/><line class="cls-7" x1="48.12" y1="2.04" x2="50.28" y2="2.04"/><line class="cls-7" x1="51.96" y1="2.04" x2="54.12" y2="2.04"/><line class="cls-7" x1="55.8" y1="2.04" x2="57.96" y2="2.04"/><line class="cls-7" x1="59.64" y1="2.04" x2="61.8" y2="2.04"/><line class="cls-7" x1="63.48" y1="2.04" x2="65.64" y2="2.04"/><line class="cls-7" x1="67.32" y1="2.04" x2="69.48" y2="2.04"/><line class="cls-7" x1="71.16" y1="2.04" x2="73.32" y2="2.04"/><line class="cls-7" x1="75" y1="2.04" x2="77.16" y2="2.04"/><line class="cls-7" x1="78.84" y1="2.04" x2="81" y2="2.04"/><line class="cls-7" x1="82.68" y1="2.04" x2="84.6" y2="2.04"/><line class="cls-7" x1="86.52" y1="2.04" x2="88.44" y2="2.04"/><line class="cls-7" x1="90.12" y1="2.04" x2="92.28" y2="2.04"/><line class="cls-7" x1="93.96" y1="2.04" x2="96.12" y2="2.04"/><line class="cls-7" x1="97.8" y1="2.04" x2="99.96" y2="2.04"/><line class="cls-7" x1="101.64" y1="2.04" x2="103.8" y2="2.04"/><line class="cls-7" x1="105.48" y1="2.04" x2="107.64" y2="2.04"/><line class="cls-7" x1="109.32" y1="2.04" x2="111.48" y2="2.04"/><line class="cls-7" x1="113.16" y1="2.04" x2="115.32" y2="2.04"/><line class="cls-7" x1="117" y1="2.04" x2="119.16" y2="2.04"/><line class="cls-7" x1="120.84" y1="2.04" x2="123.48" y2="2.04"/><polyline class="cls-8" points="34.92 163.32 35.88 158.28 38.28 153.48 41.88 149.64 46.68 147.24 51.96 146.52"/><polyline class="cls-8" points="34.92 163.32 35.88 158.28 38.28 153.48 41.88 149.64 46.68 147.24 51.96 146.52"/><line class="cls-8" x1="51.96" y1="163.32" x2="51.96" y2="146.52"/><polyline class="cls-8" points="50.52 163.32 50.52 146.52 51.96 146.52 51.96 163.32 50.52 163.32"/><polyline class="cls-8" points="34.92 163.32 34.2 157.08 32.28 151.08 28.68 145.56 24.36 141.24 18.84 137.88 12.84 135.72 6.6 135"/><polyline class="cls-8" points="34.92 163.32 34.2 157.08 32.28 151.08 28.68 145.56 24.36 141.24 18.84 137.88 12.84 135.72 6.6 135"/><line class="cls-8" x1="6.6" y1="163.32" x2="6.6" y2="135"/><polyline class="cls-8" points="8.04 163.32 8.04 135 6.6 135 6.6 163.32 8.04 163.32"/><polyline class="cls-8" points="125.16 0.12 0.12 0.12 0.12 165 56.76 165"/><polyline class="cls-8" points="56.76 165 56.76 132.6 125.16 132.6 125.16 0.12"/><polyline class="cls-8" points="53.16 161.64 3.48 161.64 3.48 3.72 121.8 3.72 121.8 129.24 53.16 129.24 53.16 161.64"/><polyline class="cls-9" points="83.88 124.92 84.6 125.16 85.32 125.16"/><polyline class="cls-9" points="94.68 124.92 93.96 125.16 93.24 125.16"/><line class="cls-9" x1="82.44" y1="123.48" x2="82.68" y2="123.72"/><polyline class="cls-9" points="82.44 123.48 82.44 122.52 82.68 121.8"/><polyline class="cls-9" points="83.88 124.92 83.16 124.44 82.68 123.72"/><line class="cls-9" x1="95.88" y1="123.48" x2="95.88" y2="123.72"/><polyline class="cls-9" points="95.88 123.48 96.12 122.52 95.88 121.8"/><polyline class="cls-9" points="94.68 124.92 95.4 124.44 95.88 123.72"/><line class="cls-8" x1="96.36" y1="129.24" x2="82.2" y2="129.24"/><polyline class="cls-8" points="96.36 120.36 95.64 119.16 94.68 118.2"/><polyline class="cls-8" points="97.08 123 96.84 121.56 96.36 120.36"/><polyline class="cls-8" points="96.36 129.24 96.84 126.12 97.08 122.76"/><polyline class="cls-8" points="81.48 122.76 81.72 126.12 82.2 129.24"/><polyline class="cls-8" points="92.28 116.76 90.84 116.28 89.16 116.28"/><polyline class="cls-8" points="94.68 118.2 93.48 117.48 92.28 116.76"/><polyline class="cls-8" points="81.96 120.36 81.48 121.56 81.48 123"/><polyline class="cls-8" points="83.64 118.2 82.68 119.16 81.96 120.36"/><polyline class="cls-8" points="86.28 116.76 84.84 117.48 83.64 118.2"/><polyline class="cls-8" points="89.16 116.28 87.72 116.28 86.28 116.76"/><polyline class="cls-9" points="81.96 128.52 96.36 128.52 96.84 125.64 97.08 122.76 96.84 121.56 96.36 120.36 95.64 119.16 94.68 118.2 93.48 117.48 92.28 116.76 90.84 116.28 89.16 116.28 87.72 116.28 86.28 116.76 84.84 117.48 83.64 118.2 82.68 119.16 81.96 120.36 81.72 121.56 81.48 122.76 81.48 125.64 81.96 128.52"/><polyline class="cls-10" points="76.44 129.24 101.88 129.24 101.88 128.52 76.44 128.52 76.44 129.24"/><line class="cls-8" x1="57.72" y1="41.16" x2="117.48" y2="41.16"/><polyline class="cls-8" points="56.28 39.72 56.76 40.68 57.72 41.16"/><line class="cls-8" x1="56.28" y1="14.52" x2="56.28" y2="39.72"/><polyline class="cls-8" points="57.72 13.08 56.76 13.56 56.28 14.52"/><line class="cls-8" x1="117.48" y1="13.08" x2="57.72" y2="13.08"/><polyline class="cls-8" points="118.92 14.52 118.68 13.56 117.48 13.08"/><line class="cls-8" x1="118.92" y1="39.72" x2="118.92" y2="14.52"/><polyline class="cls-8" points="117.48 41.16 118.68 40.68 118.92 39.72"/><polyline class="cls-9" points="103.08 13.08 103.08 13.8 117 13.8 117 13.08 103.08 13.08"/><polyline class="cls-9" points="60.12 40.44 60.12 41.16 80.28 41.16 80.28 40.44 60.12 40.44"/><polyline class="cls-9" points="103.32 40.44 103.32 41.16 117 41.16 117 40.44 103.32 40.44"/><line class="cls-9" x1="57.24" y1="38.52" x2="56.52" y2="38.52"/><line class="cls-9" x1="57.24" y1="15.72" x2="57.24" y2="38.52"/><line class="cls-9" x1="56.52" y1="15.72" x2="57.24" y2="15.72"/><line class="cls-9" x1="56.52" y1="38.52" x2="56.52" y2="15.72"/><line class="cls-9" x1="117.96" y1="38.28" x2="118.92" y2="38.28"/><line class="cls-9" x1="117.96" y1="15.72" x2="117.96" y2="38.28"/><line class="cls-9" x1="118.92" y1="15.72" x2="117.96" y2="15.72"/><line class="cls-9" x1="118.92" y1="38.28" x2="118.92" y2="15.72"/><line class="cls-9" x1="104.76" y1="15.48" x2="116.76" y2="15.48"/><line class="cls-9" x1="104.76" y1="38.76" x2="104.76" y2="15.48"/><line class="cls-9" x1="116.76" y1="38.76" x2="104.76" y2="38.76"/><line class="cls-9" x1="116.76" y1="15.48" x2="116.76" y2="38.76"/><line class="cls-9" x1="58.92" y1="39.96" x2="116.52" y2="39.96"/><polyline class="cls-9" points="57.48 38.52 57.96 39.72 58.92 39.96"/><line class="cls-9" x1="57.48" y1="15.48" x2="57.48" y2="38.52"/><polyline class="cls-9" points="58.92 14.04 57.96 14.52 57.48 15.48"/><line class="cls-9" x1="116.52" y1="14.04" x2="58.92" y2="14.04"/><polyline class="cls-9" points="117.96 15.48 117.48 14.52 116.52 14.04"/><line class="cls-9" x1="117.96" y1="38.52" x2="117.96" y2="15.48"/><polyline class="cls-9" points="116.52 39.96 117.48 39.72 117.96 38.52"/><polyline class="cls-9" points="118.92 39.72 118.92 14.52 118.92 14.04 118.68 13.8 118.68 13.56 118.2 13.32 117.96 13.08 117.48 13.08 57.72 13.08 57.48 13.08 57 13.32 56.76 13.56 56.52 13.8 56.52 14.04 56.28 14.52 56.28 39.72 56.52 39.96 56.52 40.44 56.76 40.68 57 40.92 57.48 41.16 57.72 41.16 117.48 41.16 117.96 41.16 118.2 40.92 118.68 40.68 118.68 40.44 118.92 39.96 118.92 39.72"/><line class="cls-8" x1="57.72" y1="91.32" x2="117.48" y2="91.32"/><polyline class="cls-8" points="56.28 89.88 56.76 91.08 57.72 91.32"/><line class="cls-8" x1="56.28" y1="64.68" x2="56.28" y2="89.88"/><polyline class="cls-8" points="57.72 63.24 56.76 63.72 56.28 64.68"/><line class="cls-8" x1="117.48" y1="63.24" x2="57.72" y2="63.24"/><polyline class="cls-8" points="118.92 64.68 118.68 63.72 117.48 63.24"/><line class="cls-8" x1="118.92" y1="89.88" x2="118.92" y2="64.68"/><polyline class="cls-8" points="117.48 91.32 118.68 91.08 118.92 89.88"/><polyline class="cls-9" points="103.08 63.24 103.08 63.96 117 63.96 117 63.24 103.08 63.24"/><polyline class="cls-9" points="60.12 90.6 60.12 91.32 80.28 91.32 80.28 90.6 60.12 90.6"/><polyline class="cls-9" points="103.32 90.6 103.32 91.32 117 91.32 117 90.6 103.32 90.6"/><line class="cls-9" x1="57.24" y1="88.68" x2="56.52" y2="88.68"/><line class="cls-9" x1="57.24" y1="66.12" x2="57.24" y2="88.68"/><line class="cls-9" x1="56.52" y1="66.12" x2="57.24" y2="66.12"/><line class="cls-9" x1="56.52" y1="88.68" x2="56.52" y2="66.12"/><line class="cls-9" x1="117.96" y1="88.68" x2="118.92" y2="88.68"/><line class="cls-9" x1="117.96" y1="66.12" x2="117.96" y2="88.68"/><line class="cls-9" x1="118.92" y1="66.12" x2="117.96" y2="66.12"/><line class="cls-9" x1="118.92" y1="88.68" x2="118.92" y2="66.12"/><line class="cls-9" x1="104.76" y1="65.88" x2="116.76" y2="65.88"/><line class="cls-9" x1="104.76" y1="89.16" x2="104.76" y2="65.88"/><line class="cls-9" x1="116.76" y1="89.16" x2="104.76" y2="89.16"/><line class="cls-9" x1="116.76" y1="65.88" x2="116.76" y2="89.16"/><line class="cls-9" x1="58.92" y1="90.36" x2="116.52" y2="90.36"/><polyline class="cls-9" points="57.48 88.92 57.96 89.88 58.92 90.36"/><line class="cls-9" x1="57.48" y1="65.88" x2="57.48" y2="88.92"/><polyline class="cls-9" points="58.92 64.44 57.96 64.92 57.48 65.88"/><line class="cls-9" x1="116.52" y1="64.44" x2="58.92" y2="64.44"/><polyline class="cls-9" points="117.96 65.88 117.48 64.92 116.52 64.44"/><line class="cls-9" x1="117.96" y1="88.92" x2="117.96" y2="65.88"/><polyline class="cls-9" points="116.52 90.36 117.48 89.88 117.96 88.92"/><polyline class="cls-9" points="118.92 89.88 118.92 64.68 118.92 64.44 118.68 63.96 118.68 63.72 118.2 63.48 117.96 63.48 117.48 63.24 57.72 63.24 57.48 63.48 57 63.48 56.76 63.72 56.52 63.96 56.52 64.44 56.28 64.68 56.28 89.88 56.52 90.36 56.52 90.6 56.76 91.08 57 91.32 57.48 91.32 57.72 91.32 117.48 91.32 117.96 91.32 118.2 91.32 118.68 91.08 118.68 90.6 118.92 90.36 118.92 89.88"/><line class="cls-8" x1="3.48" y1="3.72" x2="3.48" y2="5.4"/><line class="cls-8" x1="3.48" y1="7.08" x2="3.48" y2="9.24"/><line class="cls-8" x1="3.48" y1="10.92" x2="3.48" y2="13.08"/><line class="cls-8" x1="3.48" y1="14.76" x2="3.48" y2="16.92"/><line class="cls-8" x1="3.48" y1="18.6" x2="3.48" y2="20.52"/><line class="cls-8" x1="3.48" y1="22.44" x2="3.48" y2="24.36"/><line class="cls-8" x1="3.48" y1="26.04" x2="3.48" y2="28.2"/><line class="cls-8" x1="3.48" y1="29.88" x2="3.48" y2="32.04"/><line class="cls-8" x1="3.48" y1="33.72" x2="3.48" y2="35.88"/><line class="cls-8" x1="3.48" y1="37.56" x2="3.48" y2="39.72"/><line class="cls-8" x1="3.48" y1="41.4" x2="3.48" y2="43.56"/><line class="cls-8" x1="3.48" y1="45.24" x2="3.48" y2="47.4"/><line class="cls-8" x1="3.48" y1="49.08" x2="3.48" y2="51.24"/><line class="cls-8" x1="3.48" y1="52.92" x2="3.48" y2="55.08"/><line class="cls-8" x1="3.48" y1="56.76" x2="3.48" y2="58.92"/><line class="cls-8" x1="3.48" y1="60.6" x2="3.48" y2="62.76"/><line class="cls-8" x1="3.48" y1="64.44" x2="3.48" y2="66.6"/><line class="cls-8" x1="3.48" y1="68.28" x2="3.48" y2="70.44"/><line class="cls-8" x1="3.48" y1="72.12" x2="3.48" y2="74.28"/><line class="cls-8" x1="3.48" y1="75.96" x2="3.48" y2="78.12"/><line class="cls-8" x1="3.48" y1="79.8" x2="3.48" y2="81.72"/><line class="cls-8" x1="3.48" y1="83.64" x2="3.48" y2="85.56"/><line class="cls-8" x1="3.48" y1="87.24" x2="3.48" y2="89.4"/><line class="cls-8" x1="3.48" y1="91.08" x2="3.48" y2="93.24"/><line class="cls-8" x1="3.48" y1="94.92" x2="3.48" y2="97.08"/><line class="cls-8" x1="3.48" y1="98.76" x2="3.48" y2="100.92"/><line class="cls-8" x1="3.48" y1="102.6" x2="3.48" y2="104.76"/><line class="cls-8" x1="3.48" y1="106.44" x2="3.48" y2="108.6"/><line class="cls-8" x1="3.48" y1="110.28" x2="3.48" y2="112.44"/><line class="cls-8" x1="3.48" y1="114.12" x2="3.48" y2="116.28"/><line class="cls-8" x1="3.48" y1="117.96" x2="3.48" y2="120.12"/><line class="cls-8" x1="3.48" y1="121.8" x2="3.48" y2="123.96"/><line class="cls-8" x1="3.48" y1="125.64" x2="3.48" y2="127.8"/><line class="cls-8" x1="3.48" y1="129.48" x2="3.48" y2="131.64"/><line class="cls-8" x1="3.48" y1="133.32" x2="3.48" y2="135.48"/><line class="cls-8" x1="3.48" y1="137.16" x2="3.48" y2="139.08"/><line class="cls-8" x1="3.48" y1="141" x2="3.48" y2="142.92"/><line class="cls-8" x1="3.48" y1="144.84" x2="3.48" y2="146.76"/><line class="cls-8" x1="3.48" y1="148.44" x2="3.48" y2="150.6"/><line class="cls-8" x1="3.48" y1="152.28" x2="3.48" y2="154.44"/><line class="cls-8" x1="3.48" y1="156.12" x2="3.48" y2="158.28"/><polyline class="cls-8" points="3.48 159.96 3.48 161.64 4.44 161.64"/><line class="cls-8" x1="6.12" y1="161.64" x2="8.28" y2="161.64"/><line class="cls-8" x1="9.96" y1="161.64" x2="12.12" y2="161.64"/><line class="cls-8" x1="13.8" y1="161.64" x2="15.96" y2="161.64"/><line class="cls-8" x1="17.64" y1="161.64" x2="19.8" y2="161.64"/><line class="cls-8" x1="21.48" y1="161.64" x2="23.64" y2="161.64"/><line class="cls-8" x1="25.32" y1="161.64" x2="27.48" y2="161.64"/><line class="cls-8" x1="29.16" y1="161.64" x2="31.32" y2="161.64"/><line class="cls-8" x1="33" y1="161.64" x2="35.16" y2="161.64"/><line class="cls-8" x1="36.84" y1="161.64" x2="39" y2="161.64"/><line class="cls-8" x1="40.68" y1="161.64" x2="42.84" y2="161.64"/><line class="cls-8" x1="44.52" y1="161.64" x2="46.68" y2="161.64"/><line class="cls-8" x1="48.36" y1="161.64" x2="50.52" y2="161.64"/><polyline class="cls-8" points="52.2 161.64 53.16 161.64 53.16 159.72"/><line class="cls-8" x1="53.16" y1="158.04" x2="53.16" y2="155.88"/><line class="cls-8" x1="53.16" y1="154.2" x2="53.16" y2="152.04"/><line class="cls-8" x1="53.16" y1="150.36" x2="53.16" y2="148.2"/><line class="cls-8" x1="53.16" y1="146.52" x2="53.16" y2="144.36"/><line class="cls-8" x1="53.16" y1="142.68" x2="53.16" y2="140.52"/><line class="cls-8" x1="53.16" y1="138.84" x2="53.16" y2="136.68"/><line class="cls-8" x1="53.16" y1="135" x2="53.16" y2="132.84"/><polyline class="cls-8" points="53.16 131.16 53.16 129.24 54.36 129.24"/><line class="cls-8" x1="56.28" y1="129.24" x2="58.2" y2="129.24"/><line class="cls-8" x1="59.88" y1="129.24" x2="62.04" y2="129.24"/><line class="cls-8" x1="63.72" y1="129.24" x2="65.88" y2="129.24"/><line class="cls-8" x1="67.56" y1="129.24" x2="69.72" y2="129.24"/><line class="cls-8" x1="71.4" y1="129.24" x2="73.56" y2="129.24"/><line class="cls-8" x1="75.24" y1="129.24" x2="76.44" y2="129.24"/><line class="cls-8" x1="101.88" y1="129.24" x2="103.32" y2="129.24"/><line class="cls-8" x1="105" y1="129.24" x2="107.16" y2="129.24"/><line class="cls-8" x1="108.84" y1="129.24" x2="111" y2="129.24"/><line class="cls-8" x1="112.68" y1="129.24" x2="114.84" y2="129.24"/><line class="cls-8" x1="116.52" y1="129.24" x2="118.68" y2="129.24"/><polyline class="cls-8" points="120.36 129.24 121.8 129.24 121.8 126.6"/><line class="cls-8" x1="121.8" y1="124.92" x2="121.8" y2="122.76"/><line class="cls-8" x1="121.8" y1="121.08" x2="121.8" y2="118.92"/><line class="cls-8" x1="121.8" y1="117.24" x2="121.8" y2="115.08"/><line class="cls-8" x1="121.8" y1="113.4" x2="121.8" y2="111.24"/><line class="cls-8" x1="121.8" y1="109.56" x2="121.8" y2="107.4"/><line class="cls-8" x1="121.8" y1="105.72" x2="121.8" y2="103.56"/><line class="cls-8" x1="121.8" y1="101.88" x2="121.8" y2="99.72"/><line class="cls-8" x1="121.8" y1="98.04" x2="121.8" y2="95.88"/><line class="cls-8" x1="121.8" y1="94.2" x2="121.8" y2="92.04"/><line class="cls-8" x1="121.8" y1="90.36" x2="121.8" y2="88.2"/><line class="cls-8" x1="121.8" y1="86.52" x2="121.8" y2="84.36"/><line class="cls-8" x1="121.8" y1="82.68" x2="121.8" y2="80.52"/><line class="cls-8" x1="121.8" y1="78.84" x2="121.8" y2="76.68"/><line class="cls-8" x1="121.8" y1="75" x2="121.8" y2="73.08"/><line class="cls-8" x1="121.8" y1="71.16" x2="121.8" y2="69.24"/><line class="cls-8" x1="121.8" y1="67.56" x2="121.8" y2="65.4"/><line class="cls-8" x1="121.8" y1="63.72" x2="121.8" y2="61.56"/><line class="cls-8" x1="121.8" y1="59.88" x2="121.8" y2="57.72"/><line class="cls-8" x1="121.8" y1="56.04" x2="121.8" y2="53.88"/><line class="cls-8" x1="121.8" y1="52.2" x2="121.8" y2="50.04"/><line class="cls-8" x1="121.8" y1="48.36" x2="121.8" y2="46.2"/><line class="cls-8" x1="121.8" y1="44.52" x2="121.8" y2="42.36"/><line class="cls-8" x1="121.8" y1="40.68" x2="121.8" y2="38.52"/><line class="cls-8" x1="121.8" y1="36.84" x2="121.8" y2="34.68"/><line class="cls-8" x1="121.8" y1="33" x2="121.8" y2="30.84"/><line class="cls-8" x1="121.8" y1="29.16" x2="121.8" y2="27"/><line class="cls-8" x1="121.8" y1="25.32" x2="121.8" y2="23.16"/><line class="cls-8" x1="121.8" y1="21.48" x2="121.8" y2="19.32"/><line class="cls-8" x1="121.8" y1="17.64" x2="121.8" y2="15.72"/><line class="cls-8" x1="121.8" y1="13.8" x2="121.8" y2="11.88"/><line class="cls-8" x1="121.8" y1="9.96" x2="121.8" y2="8.04"/><polyline class="cls-8" points="121.8 6.36 121.8 3.72 118.92 3.72"/><line class="cls-8" x1="117.24" y1="3.72" x2="115.08" y2="3.72"/><line class="cls-8" x1="113.4" y1="3.72" x2="111.24" y2="3.72"/><line class="cls-8" x1="109.56" y1="3.72" x2="107.4" y2="3.72"/><line class="cls-8" x1="105.72" y1="3.72" x2="103.56" y2="3.72"/><line class="cls-8" x1="101.88" y1="3.72" x2="99.72" y2="3.72"/><line class="cls-8" x1="98.04" y1="3.72" x2="95.88" y2="3.72"/><line class="cls-8" x1="94.2" y1="3.72" x2="92.04" y2="3.72"/><line class="cls-8" x1="90.36" y1="3.72" x2="88.44" y2="3.72"/><line class="cls-8" x1="86.52" y1="3.72" x2="84.6" y2="3.72"/><line class="cls-8" x1="82.68" y1="3.72" x2="80.76" y2="3.72"/><line class="cls-8" x1="79.08" y1="3.72" x2="76.92" y2="3.72"/><line class="cls-8" x1="75.24" y1="3.72" x2="73.08" y2="3.72"/><line class="cls-8" x1="71.4" y1="3.72" x2="69.24" y2="3.72"/><line class="cls-8" x1="67.56" y1="3.72" x2="65.4" y2="3.72"/><line class="cls-8" x1="63.72" y1="3.72" x2="61.56" y2="3.72"/><line class="cls-8" x1="59.88" y1="3.72" x2="57.72" y2="3.72"/><line class="cls-8" x1="56.04" y1="3.72" x2="53.88" y2="3.72"/><line class="cls-8" x1="52.2" y1="3.72" x2="50.04" y2="3.72"/><line class="cls-8" x1="48.36" y1="3.72" x2="46.2" y2="3.72"/><line class="cls-8" x1="44.52" y1="3.72" x2="42.36" y2="3.72"/><line class="cls-8" x1="40.68" y1="3.72" x2="38.52" y2="3.72"/><line class="cls-8" x1="36.84" y1="3.72" x2="34.68" y2="3.72"/><line class="cls-8" x1="33" y1="3.72" x2="30.84" y2="3.72"/><line class="cls-8" x1="29.16" y1="3.72" x2="27.24" y2="3.72"/><line class="cls-8" x1="25.32" y1="3.72" x2="23.4" y2="3.72"/><line class="cls-8" x1="21.72" y1="3.72" x2="19.56" y2="3.72"/><line class="cls-8" x1="17.88" y1="3.72" x2="15.72" y2="3.72"/><line class="cls-8" x1="14.04" y1="3.72" x2="11.88" y2="3.72"/><line class="cls-8" x1="10.2" y1="3.72" x2="8.04" y2="3.72"/><line class="cls-8" x1="6.36" y1="3.72" x2="3.48" y2="3.72"/><line class="cls-7" x1="199.56" y1="163.32" x2="196.44" y2="163.32"/><line class="cls-7" x1="146.28" y1="163.32" x2="146.28" y2="161.88"/><line class="cls-7" x1="146.28" y1="160.2" x2="146.28" y2="158.04"/><line class="cls-7" x1="146.28" y1="156.36" x2="146.28" y2="154.2"/><line class="cls-7" x1="146.28" y1="152.52" x2="146.28" y2="150.36"/><line class="cls-7" x1="146.28" y1="148.68" x2="146.28" y2="146.52"/><line class="cls-7" x1="146.28" y1="144.84" x2="146.28" y2="142.92"/><line class="cls-7" x1="146.28" y1="141" x2="146.28" y2="139.08"/><line class="cls-7" x1="146.28" y1="137.4" x2="146.28" y2="135.24"/><line class="cls-7" x1="146.28" y1="133.56" x2="146.28" y2="131.4"/><line class="cls-7" x1="146.28" y1="129.72" x2="146.28" y2="127.56"/><line class="cls-7" x1="146.28" y1="125.88" x2="146.28" y2="123.72"/><line class="cls-7" x1="146.28" y1="122.04" x2="146.28" y2="119.88"/><line class="cls-7" x1="146.28" y1="118.2" x2="146.28" y2="116.04"/><line class="cls-7" x1="146.28" y1="114.36" x2="146.28" y2="112.2"/><line class="cls-7" x1="146.28" y1="110.52" x2="146.28" y2="108.36"/><line class="cls-7" x1="146.28" y1="106.68" x2="146.28" y2="104.52"/><line class="cls-7" x1="146.28" y1="102.84" x2="146.28" y2="100.68"/><line class="cls-7" x1="146.28" y1="99" x2="146.28" y2="96.84"/><line class="cls-7" x1="146.28" y1="95.16" x2="146.28" y2="93"/><line class="cls-7" x1="146.28" y1="91.32" x2="146.28" y2="89.16"/><line class="cls-7" x1="146.28" y1="87.48" x2="146.28" y2="85.32"/><line class="cls-7" x1="146.28" y1="83.64" x2="146.28" y2="81.72"/><line class="cls-7" x1="146.28" y1="79.8" x2="146.28" y2="77.88"/><line class="cls-7" x1="146.28" y1="76.2" x2="146.28" y2="74.04"/><line class="cls-7" x1="146.28" y1="72.36" x2="146.28" y2="70.2"/><line class="cls-7" x1="146.28" y1="68.52" x2="146.28" y2="66.36"/><line class="cls-7" x1="146.28" y1="64.68" x2="146.28" y2="62.52"/><line class="cls-7" x1="146.28" y1="60.84" x2="146.28" y2="58.68"/><line class="cls-7" x1="146.28" y1="57" x2="146.28" y2="54.84"/><line class="cls-7" x1="146.28" y1="53.16" x2="146.28" y2="51"/><line class="cls-7" x1="146.28" y1="49.32" x2="146.28" y2="47.16"/><line class="cls-7" x1="146.28" y1="45.48" x2="146.28" y2="43.32"/><line class="cls-7" x1="146.28" y1="41.64" x2="146.28" y2="39.48"/><line class="cls-7" x1="146.28" y1="37.8" x2="146.28" y2="35.64"/><line class="cls-7" x1="146.28" y1="33.96" x2="146.28" y2="31.8"/><line class="cls-7" x1="146.28" y1="30.12" x2="146.28" y2="27.96"/><line class="cls-7" x1="146.28" y1="26.28" x2="146.28" y2="24.36"/><line class="cls-7" x1="146.28" y1="22.44" x2="146.28" y2="20.52"/><line class="cls-7" x1="146.28" y1="18.6" x2="146.28" y2="16.68"/><line class="cls-7" x1="146.28" y1="15" x2="146.28" y2="12.84"/><line class="cls-7" x1="146.28" y1="11.16" x2="146.28" y2="9"/><line class="cls-7" x1="146.28" y1="7.32" x2="146.28" y2="5.16"/><line class="cls-7" x1="146.28" y1="3.48" x2="146.28" y2="2.04"/><line class="cls-7" x1="151.08" y1="163.32" x2="149.4" y2="163.32"/><line class="cls-7" x1="147.72" y1="163.32" x2="146.28" y2="163.32"/><line class="cls-7" x1="199.56" y1="130.92" x2="199.56" y2="132.84"/><line class="cls-7" x1="199.56" y1="134.52" x2="199.56" y2="136.68"/><line class="cls-7" x1="199.56" y1="138.36" x2="199.56" y2="140.52"/><line class="cls-7" x1="199.56" y1="142.2" x2="199.56" y2="144.36"/><line class="cls-7" x1="199.56" y1="146.04" x2="199.56" y2="148.2"/><line class="cls-7" x1="199.56" y1="149.88" x2="199.56" y2="152.04"/><line class="cls-7" x1="199.56" y1="153.72" x2="199.56" y2="155.88"/><line class="cls-7" x1="199.56" y1="157.56" x2="199.56" y2="159.72"/><line class="cls-7" x1="199.56" y1="161.4" x2="199.56" y2="163.32"/><line class="cls-7" x1="267.96" y1="130.92" x2="265.08" y2="130.92"/><line class="cls-7" x1="263.4" y1="130.92" x2="261.24" y2="130.92"/><line class="cls-7" x1="259.56" y1="130.92" x2="257.64" y2="130.92"/><line class="cls-7" x1="255.72" y1="130.92" x2="253.8" y2="130.92"/><line class="cls-7" x1="252.12" y1="130.92" x2="249.96" y2="130.92"/><line class="cls-7" x1="248.28" y1="130.92" x2="246.12" y2="130.92"/><line class="cls-7" x1="244.44" y1="130.92" x2="242.28" y2="130.92"/><line class="cls-7" x1="240.6" y1="130.92" x2="238.44" y2="130.92"/><line class="cls-7" x1="236.76" y1="130.92" x2="234.6" y2="130.92"/><line class="cls-7" x1="232.92" y1="130.92" x2="230.76" y2="130.92"/><line class="cls-7" x1="229.08" y1="130.92" x2="226.92" y2="130.92"/><line class="cls-7" x1="225.24" y1="130.92" x2="223.08" y2="130.92"/><line class="cls-7" x1="221.4" y1="130.92" x2="219.24" y2="130.92"/><line class="cls-7" x1="217.56" y1="130.92" x2="215.4" y2="130.92"/><line class="cls-7" x1="213.72" y1="130.92" x2="211.56" y2="130.92"/><line class="cls-7" x1="209.88" y1="130.92" x2="207.72" y2="130.92"/><line class="cls-7" x1="206.04" y1="130.92" x2="203.88" y2="130.92"/><line class="cls-7" x1="202.2" y1="130.92" x2="199.56" y2="130.92"/><line class="cls-7" x1="267.96" y1="2.04" x2="267.96" y2="4.44"/><line class="cls-7" x1="267.96" y1="6.12" x2="267.96" y2="8.28"/><line class="cls-7" x1="267.96" y1="9.96" x2="267.96" y2="11.88"/><line class="cls-7" x1="267.96" y1="13.8" x2="267.96" y2="15.72"/><line class="cls-7" x1="267.96" y1="17.4" x2="267.96" y2="19.56"/><line class="cls-7" x1="267.96" y1="21.24" x2="267.96" y2="23.4"/><line class="cls-7" x1="267.96" y1="25.08" x2="267.96" y2="27.24"/><line class="cls-7" x1="267.96" y1="28.92" x2="267.96" y2="31.08"/><line class="cls-7" x1="267.96" y1="32.76" x2="267.96" y2="34.92"/><line class="cls-7" x1="267.96" y1="36.6" x2="267.96" y2="38.76"/><line class="cls-7" x1="267.96" y1="40.44" x2="267.96" y2="42.6"/><line class="cls-7" x1="267.96" y1="44.28" x2="267.96" y2="46.44"/><line class="cls-7" x1="267.96" y1="48.12" x2="267.96" y2="50.28"/><line class="cls-7" x1="267.96" y1="51.96" x2="267.96" y2="54.12"/><line class="cls-7" x1="267.96" y1="55.8" x2="267.96" y2="57.96"/><line class="cls-7" x1="267.96" y1="59.64" x2="267.96" y2="61.8"/><line class="cls-7" x1="267.96" y1="63.48" x2="267.96" y2="65.64"/><line class="cls-7" x1="267.96" y1="67.32" x2="267.96" y2="69.24"/><line class="cls-7" x1="267.96" y1="71.16" x2="267.96" y2="73.08"/><line class="cls-7" x1="267.96" y1="75" x2="267.96" y2="76.92"/><line class="cls-7" x1="267.96" y1="78.6" x2="267.96" y2="80.76"/><line class="cls-7" x1="267.96" y1="82.44" x2="267.96" y2="84.6"/><line class="cls-7" x1="267.96" y1="86.28" x2="267.96" y2="88.44"/><line class="cls-7" x1="267.96" y1="90.12" x2="267.96" y2="92.28"/><line class="cls-7" x1="267.96" y1="93.96" x2="267.96" y2="96.12"/><line class="cls-7" x1="267.96" y1="97.8" x2="267.96" y2="99.96"/><line class="cls-7" x1="267.96" y1="101.64" x2="267.96" y2="103.8"/><line class="cls-7" x1="267.96" y1="105.48" x2="267.96" y2="107.64"/><line class="cls-7" x1="267.96" y1="109.32" x2="267.96" y2="111.48"/><line class="cls-7" x1="267.96" y1="113.16" x2="267.96" y2="115.32"/><line class="cls-7" x1="267.96" y1="117" x2="267.96" y2="119.16"/><line class="cls-7" x1="267.96" y1="120.84" x2="267.96" y2="123"/><line class="cls-7" x1="267.96" y1="124.68" x2="267.96" y2="126.84"/><line class="cls-7" x1="267.96" y1="128.52" x2="267.96" y2="130.92"/><line class="cls-7" x1="146.28" y1="2.04" x2="148.92" y2="2.04"/><line class="cls-7" x1="150.6" y1="2.04" x2="152.76" y2="2.04"/><line class="cls-7" x1="154.44" y1="2.04" x2="156.6" y2="2.04"/><line class="cls-7" x1="158.28" y1="2.04" x2="160.44" y2="2.04"/><line class="cls-7" x1="162.12" y1="2.04" x2="164.28" y2="2.04"/><line class="cls-7" x1="165.96" y1="2.04" x2="168.12" y2="2.04"/><line class="cls-7" x1="169.8" y1="2.04" x2="171.72" y2="2.04"/><line class="cls-7" x1="173.64" y1="2.04" x2="175.56" y2="2.04"/><line class="cls-7" x1="177.24" y1="2.04" x2="179.4" y2="2.04"/><line class="cls-7" x1="181.08" y1="2.04" x2="183.24" y2="2.04"/><line class="cls-7" x1="184.92" y1="2.04" x2="187.08" y2="2.04"/><line class="cls-7" x1="188.76" y1="2.04" x2="190.92" y2="2.04"/><line class="cls-7" x1="192.6" y1="2.04" x2="194.76" y2="2.04"/><line class="cls-7" x1="196.44" y1="2.04" x2="198.6" y2="2.04"/><line class="cls-7" x1="200.28" y1="2.04" x2="202.44" y2="2.04"/><line class="cls-7" x1="204.12" y1="2.04" x2="206.28" y2="2.04"/><line class="cls-7" x1="207.96" y1="2.04" x2="210.12" y2="2.04"/><line class="cls-7" x1="211.8" y1="2.04" x2="213.96" y2="2.04"/><line class="cls-7" x1="215.64" y1="2.04" x2="217.8" y2="2.04"/><line class="cls-7" x1="219.48" y1="2.04" x2="221.64" y2="2.04"/><line class="cls-7" x1="223.32" y1="2.04" x2="225.48" y2="2.04"/><line class="cls-7" x1="227.16" y1="2.04" x2="229.32" y2="2.04"/><line class="cls-7" x1="231" y1="2.04" x2="232.92" y2="2.04"/><line class="cls-7" x1="234.84" y1="2.04" x2="236.76" y2="2.04"/><line class="cls-7" x1="238.44" y1="2.04" x2="240.6" y2="2.04"/><line class="cls-7" x1="242.28" y1="2.04" x2="244.44" y2="2.04"/><line class="cls-7" x1="246.12" y1="2.04" x2="248.28" y2="2.04"/><line class="cls-7" x1="249.96" y1="2.04" x2="252.12" y2="2.04"/><line class="cls-7" x1="253.8" y1="2.04" x2="255.96" y2="2.04"/><line class="cls-7" x1="257.64" y1="2.04" x2="259.8" y2="2.04"/><line class="cls-7" x1="261.48" y1="2.04" x2="263.64" y2="2.04"/><line class="cls-7" x1="265.32" y1="2.04" x2="267.96" y2="2.04"/><polyline class="cls-8" points="179.4 163.32 180.36 158.28 182.76 153.48 186.6 149.64 191.16 147.24 196.44 146.52"/><polyline class="cls-8" points="179.4 163.32 180.36 158.28 182.76 153.48 186.6 149.64 191.16 147.24 196.44 146.52"/><line class="cls-8" x1="196.44" y1="163.32" x2="196.44" y2="146.52"/><polyline class="cls-8" points="195 163.32 195 146.52 196.44 146.52 196.44 163.32 195 163.32"/><polyline class="cls-8" points="179.4 163.32 178.68 157.08 176.76 151.08 173.16 145.56 168.84 141.24 163.32 137.88 157.32 135.72 151.08 135"/><polyline class="cls-8" points="179.4 163.32 178.68 157.08 176.76 151.08 173.16 145.56 168.84 141.24 163.32 137.88 157.32 135.72 151.08 135"/><line class="cls-8" x1="151.08" y1="163.32" x2="151.08" y2="135"/><polyline class="cls-8" points="152.52 163.32 152.52 135 151.08 135 151.08 163.32 152.52 163.32"/><polyline class="cls-8" points="269.64 0.12 144.6 0.12 144.6 165"/><polyline class="cls-8" points="201.24 165 201.24 132.6 269.64 132.6 269.64 0.12"/><polyline class="cls-8" points="197.64 161.64 147.96 161.64 147.96 3.72 266.28 3.72 266.28 129.24 197.64 129.24 197.64 161.64"/><polyline class="cls-9" points="228.36 124.92 229.08 125.16 229.8 125.16"/><polyline class="cls-9" points="239.16 124.92 238.44 125.16 237.72 125.16"/><line class="cls-9" x1="226.92" y1="123.48" x2="227.16" y2="123.72"/><polyline class="cls-9" points="226.92 123.48 226.92 122.52 227.16 121.8"/><polyline class="cls-9" points="228.36 124.92 227.64 124.44 227.16 123.72"/><line class="cls-9" x1="240.36" y1="123.48" x2="240.36" y2="123.72"/><polyline class="cls-9" points="240.36 123.48 240.6 122.52 240.36 121.8"/><polyline class="cls-9" points="239.16 124.92 239.88 124.44 240.36 123.72"/><line class="cls-8" x1="240.84" y1="129.24" x2="226.68" y2="129.24"/><polyline class="cls-8" points="240.84 120.36 240.12 119.16 239.16 118.2"/><polyline class="cls-8" points="241.56 123 241.32 121.56 240.84 120.36"/><polyline class="cls-8" points="240.84 129.24 241.32 126.12 241.56 122.76"/><polyline class="cls-8" points="225.96 122.76 226.2 126.12 226.68 129.24"/><polyline class="cls-8" points="236.76 116.76 235.32 116.28 233.64 116.28"/><polyline class="cls-8" points="239.16 118.2 237.96 117.48 236.76 116.76"/><polyline class="cls-8" points="226.44 120.36 226.2 121.56 225.96 123"/><polyline class="cls-8" points="228.12 118.2 227.16 119.16 226.44 120.36"/><polyline class="cls-8" points="230.76 116.76 229.32 117.48 228.12 118.2"/><polyline class="cls-8" points="233.64 116.28 232.2 116.28 230.76 116.76"/><polyline class="cls-9" points="226.44 128.52 240.84 128.52 241.32 125.64 241.56 122.76 241.32 121.56 240.84 120.36 240.12 119.16 239.16 118.2 237.96 117.48 236.76 116.76 235.32 116.28 233.64 116.28 232.2 116.28 230.76 116.76 229.32 117.48 228.12 118.2 227.16 119.16 226.44 120.36 226.2 121.56 225.96 122.76 225.96 125.64 226.44 128.52"/><polyline class="cls-10" points="220.92 129.24 246.6 129.24 246.6 128.52 220.92 128.52 220.92 129.24"/><line class="cls-8" x1="147.96" y1="3.72" x2="147.96" y2="5.4"/><line class="cls-8" x1="147.96" y1="7.08" x2="147.96" y2="9.24"/><line class="cls-8" x1="147.96" y1="10.92" x2="147.96" y2="13.08"/><line class="cls-8" x1="147.96" y1="14.76" x2="147.96" y2="16.92"/><line class="cls-8" x1="147.96" y1="18.6" x2="147.96" y2="20.52"/><line class="cls-8" x1="147.96" y1="22.44" x2="147.96" y2="24.36"/><line class="cls-8" x1="147.96" y1="26.04" x2="147.96" y2="28.2"/><line class="cls-8" x1="147.96" y1="29.88" x2="147.96" y2="32.04"/><line class="cls-8" x1="147.96" y1="33.72" x2="147.96" y2="35.88"/><line class="cls-8" x1="147.96" y1="37.56" x2="147.96" y2="39.72"/><line class="cls-8" x1="147.96" y1="41.4" x2="147.96" y2="43.56"/><line class="cls-8" x1="147.96" y1="45.24" x2="147.96" y2="47.4"/><line class="cls-8" x1="147.96" y1="49.08" x2="147.96" y2="51.24"/><line class="cls-8" x1="147.96" y1="52.92" x2="147.96" y2="55.08"/><line class="cls-8" x1="147.96" y1="56.76" x2="147.96" y2="58.92"/><line class="cls-8" x1="147.96" y1="60.6" x2="147.96" y2="62.76"/><line class="cls-8" x1="147.96" y1="64.44" x2="147.96" y2="66.6"/><line class="cls-8" x1="147.96" y1="68.28" x2="147.96" y2="70.44"/><line class="cls-8" x1="147.96" y1="72.12" x2="147.96" y2="74.28"/><line class="cls-8" x1="147.96" y1="75.96" x2="147.96" y2="78.12"/><line class="cls-8" x1="147.96" y1="79.8" x2="147.96" y2="81.72"/><line class="cls-8" x1="147.96" y1="83.64" x2="147.96" y2="85.56"/><line class="cls-8" x1="147.96" y1="87.24" x2="147.96" y2="89.4"/><line class="cls-8" x1="147.96" y1="91.08" x2="147.96" y2="93.24"/><line class="cls-8" x1="147.96" y1="94.92" x2="147.96" y2="97.08"/><line class="cls-8" x1="147.96" y1="98.76" x2="147.96" y2="100.92"/><line class="cls-8" x1="147.96" y1="102.6" x2="147.96" y2="104.76"/><line class="cls-8" x1="147.96" y1="106.44" x2="147.96" y2="108.6"/><line class="cls-8" x1="147.96" y1="110.28" x2="147.96" y2="112.44"/><line class="cls-8" x1="147.96" y1="114.12" x2="147.96" y2="116.28"/><line class="cls-8" x1="147.96" y1="117.96" x2="147.96" y2="120.12"/><line class="cls-8" x1="147.96" y1="121.8" x2="147.96" y2="123.96"/><line class="cls-8" x1="147.96" y1="125.64" x2="147.96" y2="127.8"/><line class="cls-8" x1="147.96" y1="129.48" x2="147.96" y2="131.64"/><line class="cls-8" x1="147.96" y1="133.32" x2="147.96" y2="135.48"/><line class="cls-8" x1="147.96" y1="137.16" x2="147.96" y2="139.08"/><line class="cls-8" x1="147.96" y1="141" x2="147.96" y2="142.92"/><line class="cls-8" x1="147.96" y1="144.84" x2="147.96" y2="146.76"/><line class="cls-8" x1="147.96" y1="148.44" x2="147.96" y2="150.6"/><line class="cls-8" x1="147.96" y1="152.28" x2="147.96" y2="154.44"/><line class="cls-8" x1="147.96" y1="156.12" x2="147.96" y2="158.28"/><polyline class="cls-8" points="147.96 159.96 147.96 161.64 148.92 161.64"/><line class="cls-8" x1="150.84" y1="161.64" x2="152.76" y2="161.64"/><line class="cls-8" x1="154.44" y1="161.64" x2="156.6" y2="161.64"/><line class="cls-8" x1="158.28" y1="161.64" x2="160.44" y2="161.64"/><line class="cls-8" x1="162.12" y1="161.64" x2="164.28" y2="161.64"/><line class="cls-8" x1="165.96" y1="161.64" x2="168.12" y2="161.64"/><line class="cls-8" x1="169.8" y1="161.64" x2="171.96" y2="161.64"/><line class="cls-8" x1="173.64" y1="161.64" x2="175.8" y2="161.64"/><line class="cls-8" x1="177.48" y1="161.64" x2="179.64" y2="161.64"/><line class="cls-8" x1="181.32" y1="161.64" x2="183.48" y2="161.64"/><line class="cls-8" x1="185.16" y1="161.64" x2="187.32" y2="161.64"/><line class="cls-8" x1="189" y1="161.64" x2="191.16" y2="161.64"/><line class="cls-8" x1="192.84" y1="161.64" x2="195" y2="161.64"/><polyline class="cls-8" points="196.68 161.64 197.64 161.64 197.64 159.72"/><line class="cls-8" x1="197.64" y1="158.04" x2="197.64" y2="155.88"/><line class="cls-8" x1="197.64" y1="154.2" x2="197.64" y2="152.04"/><line class="cls-8" x1="197.64" y1="150.36" x2="197.64" y2="148.2"/><line class="cls-8" x1="197.64" y1="146.52" x2="197.64" y2="144.36"/><line class="cls-8" x1="197.64" y1="142.68" x2="197.64" y2="140.52"/><line class="cls-8" x1="197.64" y1="138.84" x2="197.64" y2="136.68"/><line class="cls-8" x1="197.64" y1="135" x2="197.64" y2="132.84"/><polyline class="cls-8" points="197.64 131.16 197.64 129.24 198.84 129.24"/><line class="cls-8" x1="200.76" y1="129.24" x2="202.68" y2="129.24"/><line class="cls-8" x1="204.6" y1="129.24" x2="206.52" y2="129.24"/><line class="cls-8" x1="208.2" y1="129.24" x2="210.36" y2="129.24"/><line class="cls-8" x1="212.04" y1="129.24" x2="214.2" y2="129.24"/><line class="cls-8" x1="215.88" y1="129.24" x2="218.04" y2="129.24"/><line class="cls-8" x1="219.72" y1="129.24" x2="220.92" y2="129.24"/><line class="cls-8" x1="246.6" y1="129.24" x2="247.8" y2="129.24"/><line class="cls-8" x1="249.48" y1="129.24" x2="251.64" y2="129.24"/><line class="cls-8" x1="253.32" y1="129.24" x2="255.48" y2="129.24"/><line class="cls-8" x1="257.16" y1="129.24" x2="259.32" y2="129.24"/><line class="cls-8" x1="261" y1="129.24" x2="263.16" y2="129.24"/><polyline class="cls-8" points="264.84 129.24 266.28 129.24 266.28 126.6"/><line class="cls-8" x1="266.28" y1="124.92" x2="266.28" y2="122.76"/><line class="cls-8" x1="266.28" y1="121.08" x2="266.28" y2="118.92"/><line class="cls-8" x1="266.28" y1="117.24" x2="266.28" y2="115.08"/><line class="cls-8" x1="266.28" y1="113.4" x2="266.28" y2="111.24"/><line class="cls-8" x1="266.28" y1="109.56" x2="266.28" y2="107.4"/><line class="cls-8" x1="266.28" y1="105.72" x2="266.28" y2="103.56"/><line class="cls-8" x1="266.28" y1="101.88" x2="266.28" y2="99.72"/><line class="cls-8" x1="266.28" y1="98.04" x2="266.28" y2="95.88"/><line class="cls-8" x1="266.28" y1="94.2" x2="266.28" y2="92.04"/><line class="cls-8" x1="266.28" y1="90.36" x2="266.28" y2="88.2"/><line class="cls-8" x1="266.28" y1="86.52" x2="266.28" y2="84.36"/><line class="cls-8" x1="266.28" y1="82.68" x2="266.28" y2="80.52"/><line class="cls-8" x1="266.28" y1="78.84" x2="266.28" y2="76.68"/><line class="cls-8" x1="266.28" y1="75" x2="266.28" y2="73.08"/><line class="cls-8" x1="266.28" y1="71.16" x2="266.28" y2="69.24"/><line class="cls-8" x1="266.28" y1="67.56" x2="266.28" y2="65.4"/><line class="cls-8" x1="266.28" y1="63.72" x2="266.28" y2="61.56"/><line class="cls-8" x1="266.28" y1="59.88" x2="266.28" y2="57.72"/><line class="cls-8" x1="266.28" y1="56.04" x2="266.28" y2="53.88"/><line class="cls-8" x1="266.28" y1="52.2" x2="266.28" y2="50.04"/><line class="cls-8" x1="266.28" y1="48.36" x2="266.28" y2="46.2"/><line class="cls-8" x1="266.28" y1="44.52" x2="266.28" y2="42.36"/><line class="cls-8" x1="266.28" y1="40.68" x2="266.28" y2="38.52"/><line class="cls-8" x1="266.28" y1="36.84" x2="266.28" y2="34.68"/><line class="cls-8" x1="266.28" y1="33" x2="266.28" y2="30.84"/><line class="cls-8" x1="266.28" y1="29.16" x2="266.28" y2="27"/><line class="cls-8" x1="266.28" y1="25.32" x2="266.28" y2="23.16"/><line class="cls-8" x1="266.28" y1="21.48" x2="266.28" y2="19.32"/><line class="cls-8" x1="266.28" y1="17.64" x2="266.28" y2="15.72"/><line class="cls-8" x1="266.28" y1="13.8" x2="266.28" y2="11.88"/><line class="cls-8" x1="266.28" y1="9.96" x2="266.28" y2="8.04"/><polyline class="cls-8" points="266.28 6.36 266.28 3.72 263.4 3.72"/><line class="cls-8" x1="261.72" y1="3.72" x2="259.56" y2="3.72"/><line class="cls-8" x1="257.88" y1="3.72" x2="255.72" y2="3.72"/><line class="cls-8" x1="254.04" y1="3.72" x2="251.88" y2="3.72"/><line class="cls-8" x1="250.2" y1="3.72" x2="248.04" y2="3.72"/><line class="cls-8" x1="246.36" y1="3.72" x2="244.2" y2="3.72"/><line class="cls-8" x1="242.52" y1="3.72" x2="240.36" y2="3.72"/><line class="cls-8" x1="238.68" y1="3.72" x2="236.52" y2="3.72"/><line class="cls-8" x1="234.84" y1="3.72" x2="232.92" y2="3.72"/><line class="cls-8" x1="231" y1="3.72" x2="229.08" y2="3.72"/><line class="cls-8" x1="227.4" y1="3.72" x2="225.24" y2="3.72"/><line class="cls-8" x1="223.56" y1="3.72" x2="221.4" y2="3.72"/><line class="cls-8" x1="219.72" y1="3.72" x2="217.56" y2="3.72"/><line class="cls-8" x1="215.88" y1="3.72" x2="213.72" y2="3.72"/><line class="cls-8" x1="212.04" y1="3.72" x2="209.88" y2="3.72"/><line class="cls-8" x1="208.2" y1="3.72" x2="206.04" y2="3.72"/><line class="cls-8" x1="204.36" y1="3.72" x2="202.2" y2="3.72"/><line class="cls-8" x1="200.52" y1="3.72" x2="198.36" y2="3.72"/><line class="cls-8" x1="196.68" y1="3.72" x2="194.52" y2="3.72"/><line class="cls-8" x1="192.84" y1="3.72" x2="190.68" y2="3.72"/><line class="cls-8" x1="189" y1="3.72" x2="186.84" y2="3.72"/><line class="cls-8" x1="185.16" y1="3.72" x2="183" y2="3.72"/><line class="cls-8" x1="181.32" y1="3.72" x2="179.16" y2="3.72"/><line class="cls-8" x1="177.48" y1="3.72" x2="175.56" y2="3.72"/><line class="cls-8" x1="173.64" y1="3.72" x2="171.72" y2="3.72"/><line class="cls-8" x1="169.8" y1="3.72" x2="167.88" y2="3.72"/><line class="cls-8" x1="166.2" y1="3.72" x2="164.04" y2="3.72"/><line class="cls-8" x1="162.36" y1="3.72" x2="160.2" y2="3.72"/><line class="cls-8" x1="158.52" y1="3.72" x2="156.36" y2="3.72"/><line class="cls-8" x1="154.68" y1="3.72" x2="152.52" y2="3.72"/><line class="cls-8" x1="150.84" y1="3.72" x2="147.96" y2="3.72"/><line class="cls-8" x1="202.2" y1="74.28" x2="261.96" y2="74.28"/><polyline class="cls-8" points="200.76 72.84 201.24 73.8 202.2 74.28"/><line class="cls-8" x1="200.76" y1="47.64" x2="200.76" y2="72.84"/><polyline class="cls-8" points="202.2 46.2 201.24 46.68 200.76 47.64"/><line class="cls-8" x1="261.96" y1="46.2" x2="202.2" y2="46.2"/><polyline class="cls-8" points="263.4 47.64 263.16 46.68 261.96 46.2"/><line class="cls-8" x1="263.4" y1="72.84" x2="263.4" y2="47.64"/><polyline class="cls-8" points="261.96 74.28 263.16 73.8 263.4 72.84"/><polyline class="cls-9" points="247.8 46.2 247.8 46.92 261.48 46.92 261.48 46.2 247.8 46.2"/><polyline class="cls-9" points="204.6 73.56 204.6 74.28 224.76 74.28 224.76 73.56 204.6 73.56"/><polyline class="cls-9" points="247.8 73.56 247.8 74.28 261.48 74.28 261.48 73.56 247.8 73.56"/><line class="cls-9" x1="201.72" y1="71.64" x2="201" y2="71.64"/><line class="cls-9" x1="201.72" y1="49.08" x2="201.72" y2="71.64"/><line class="cls-9" x1="201" y1="49.08" x2="201.72" y2="49.08"/><line class="cls-9" x1="201" y1="71.64" x2="201" y2="49.08"/><line class="cls-9" x1="262.44" y1="71.64" x2="263.4" y2="71.64"/><line class="cls-9" x1="262.44" y1="48.84" x2="262.44" y2="71.64"/><line class="cls-9" x1="263.4" y1="48.84" x2="262.44" y2="48.84"/><line class="cls-9" x1="263.4" y1="71.64" x2="263.4" y2="48.84"/><line class="cls-9" x1="249.24" y1="48.84" x2="261.24" y2="48.84"/><line class="cls-9" x1="249.24" y1="71.88" x2="249.24" y2="48.84"/><line class="cls-9" x1="261.24" y1="71.88" x2="249.24" y2="71.88"/><line class="cls-9" x1="261.24" y1="48.84" x2="261.24" y2="71.88"/><line class="cls-9" x1="203.4" y1="73.32" x2="261" y2="73.32"/><polyline class="cls-9" points="201.96 71.88 202.44 72.84 203.4 73.32"/><line class="cls-9" x1="201.96" y1="48.84" x2="201.96" y2="71.88"/><polyline class="cls-9" points="203.4 47.4 202.44 47.64 201.96 48.84"/><line class="cls-9" x1="261" y1="47.4" x2="203.4" y2="47.4"/><polyline class="cls-9" points="262.44 48.84 261.96 47.64 261 47.4"/><line class="cls-9" x1="262.44" y1="71.88" x2="262.44" y2="48.84"/><polyline class="cls-9" points="261 73.32 261.96 72.84 262.44 71.88"/><polyline class="cls-9" points="263.4 72.84 263.4 47.64 263.4 47.4 263.4 46.92 263.16 46.68 262.68 46.44 262.44 46.2 261.96 46.2 202.2 46.2 201.96 46.2 201.48 46.44 201.24 46.68 201 46.92 201 47.4 200.76 47.64 200.76 72.84 201 73.32 201 73.56 201.24 73.8 201.48 74.04 201.96 74.28 202.2 74.28 261.96 74.28 262.44 74.28 262.68 74.04 263.16 73.8 263.4 73.56 263.4 73.32 263.4 72.84"/></g></g></svg>