<svg xmlns="http://www.w3.org/2000/svg" xmlns:xlink="http://www.w3.org/1999/xlink" viewBox="0 0 187.68 165.12"><defs><style>.cls-1,.cls-2,.cls-6,.cls-7,.cls-8,.cls-9{fill:none;}.cls-1{clip-rule:evenodd;}.cls-3{clip-path:url(#clip-path);}.cls-4{clip-path:url(#clip-path-2);}.cls-5{fill:#c6d3b4;}.cls-6{stroke:red;}.cls-6,.cls-7,.cls-8,.cls-9{stroke-linecap:round;stroke-linejoin:round;}.cls-6,.cls-7{stroke-width:0.24px;}.cls-7,.cls-8,.cls-9{stroke:#000;}.cls-8{stroke-width:0.48px;}.cls-9{stroke-width:0.96px;}</style><clipPath id="clip-path" transform="translate(0 -429.72)"><path class="cls-1" d="M119.64,461.52l-.48.24-.48.48v25.92h.24v.72h.24l.24.24.48.24,60,.24v-.24l.72-.24.48-.48.24-26.4-.72-.72m-173.52,0-.48.24-.24.48-.24,25.68.24.24v.72H6.6l.24.24.72.24,59.76.24v-.24l.72-.24.48-.24L68.76,462l-.48-.48Zm-3.6-28.08V522h60v69.36h55.2V559h9.84v-.72H134v-2.88h-.24v-2.88l-.24-.24.48-2.4.72-.72.24-.48,1-1,.48-.24.48-.48,1.44-.72.72-.24h4.56l.72.24,2.4,1.2,1.68,1.68v.48h.24v.48h.24v1.44h.24l-.24,3.6-.24,2.88,5.52.24V559h30V433.44Z"/></clipPath><clipPath id="clip-path-2" transform="translate(0 -429.72)"><rect class="cls-2" x="0.13" width="841.92" height="595.2"/></clipPath></defs><title>ROOM-BED-WITH RECTANGLE ENS AND CUTOUT</title><g id="Layer_2" data-name="Layer 2"><g id="Layer_1-2" data-name="Layer 1"><g class="cls-3"><g class="cls-4"><rect class="cls-5" x="3.48" y="3.72" width="180.72" height="157.92"/></g></g><line class="cls-6" x1="120.36" y1="163.32" x2="120.36" y2="161.4"/><line class="cls-6" x1="120.36" y1="159.72" x2="120.36" y2="157.56"/><line class="cls-6" x1="120.36" y1="155.88" x2="120.36" y2="153.72"/><line class="cls-6" x1="120.36" y1="152.04" x2="120.36" y2="149.88"/><line class="cls-6" x1="120.36" y1="148.2" x2="120.36" y2="146.04"/><line class="cls-6" x1="120.36" y1="144.36" x2="120.36" y2="142.2"/><line class="cls-6" x1="120.36" y1="140.52" x2="120.36" y2="138.36"/><line class="cls-6" x1="120.36" y1="136.68" x2="120.36" y2="134.52"/><line class="cls-6" x1="120.36" y1="132.84" x2="120.36" y2="130.92"/><line class="cls-6" x1="185.88" y1="130.92" x2="184.68" y2="130.92"/><line class="cls-6" x1="182.76" y1="130.92" x2="180.84" y2="130.92"/><line class="cls-6" x1="179.16" y1="130.92" x2="177" y2="130.92"/><line class="cls-6" x1="175.32" y1="130.92" x2="173.16" y2="130.92"/><line class="cls-6" x1="171.48" y1="130.92" x2="169.32" y2="130.92"/><line class="cls-6" x1="167.64" y1="130.92" x2="165.48" y2="130.92"/><line class="cls-6" x1="163.8" y1="130.92" x2="161.64" y2="130.92"/><line class="cls-6" x1="159.96" y1="130.92" x2="157.8" y2="130.92"/><line class="cls-6" x1="156.12" y1="130.92" x2="153.96" y2="130.92"/><line class="cls-6" x1="152.28" y1="130.92" x2="150.12" y2="130.92"/><line class="cls-6" x1="148.44" y1="130.92" x2="146.28" y2="130.92"/><line class="cls-6" x1="144.6" y1="130.92" x2="142.44" y2="130.92"/><line class="cls-6" x1="140.76" y1="130.92" x2="138.6" y2="130.92"/><line class="cls-6" x1="136.92" y1="130.92" x2="134.76" y2="130.92"/><line class="cls-6" x1="133.08" y1="130.92" x2="130.92" y2="130.92"/><line class="cls-6" x1="129.24" y1="130.92" x2="127.32" y2="130.92"/><line class="cls-6" x1="125.4" y1="130.92" x2="123.48" y2="130.92"/><line class="cls-6" x1="121.8" y1="130.92" x2="120.36" y2="130.92"/><line class="cls-6" x1="61.8" y1="163.32" x2="64.68" y2="163.32"/><line class="cls-6" x1="66.36" y1="163.32" x2="69.24" y2="163.32"/><line class="cls-6" x1="185.88" y1="130.92" x2="185.88" y2="128.52"/><line class="cls-6" x1="185.88" y1="126.84" x2="185.88" y2="124.68"/><line class="cls-6" x1="185.88" y1="123" x2="185.88" y2="120.84"/><line class="cls-6" x1="185.88" y1="119.16" x2="185.88" y2="117"/><line class="cls-6" x1="185.88" y1="115.32" x2="185.88" y2="113.16"/><line class="cls-6" x1="185.88" y1="111.48" x2="185.88" y2="109.32"/><line class="cls-6" x1="185.88" y1="107.64" x2="185.88" y2="105.48"/><line class="cls-6" x1="185.88" y1="103.8" x2="185.88" y2="101.64"/><line class="cls-6" x1="185.88" y1="99.96" x2="185.88" y2="97.8"/><line class="cls-6" x1="185.88" y1="96.12" x2="185.88" y2="93.96"/><line class="cls-6" x1="185.88" y1="92.28" x2="185.88" y2="90.12"/><line class="cls-6" x1="185.88" y1="88.44" x2="185.88" y2="86.28"/><line class="cls-6" x1="185.88" y1="84.6" x2="185.88" y2="82.44"/><line class="cls-6" x1="185.88" y1="80.76" x2="185.88" y2="78.6"/><line class="cls-6" x1="185.88" y1="76.92" x2="185.88" y2="75"/><line class="cls-6" x1="185.88" y1="73.08" x2="185.88" y2="71.16"/><line class="cls-6" x1="185.88" y1="69.24" x2="185.88" y2="67.32"/><line class="cls-6" x1="185.88" y1="65.64" x2="185.88" y2="63.48"/><line class="cls-6" x1="185.88" y1="61.8" x2="185.88" y2="59.64"/><line class="cls-6" x1="185.88" y1="57.96" x2="185.88" y2="55.8"/><line class="cls-6" x1="185.88" y1="54.12" x2="185.88" y2="51.96"/><line class="cls-6" x1="185.88" y1="50.28" x2="185.88" y2="48.12"/><line class="cls-6" x1="185.88" y1="46.44" x2="185.88" y2="44.28"/><line class="cls-6" x1="185.88" y1="42.6" x2="185.88" y2="40.44"/><line class="cls-6" x1="185.88" y1="38.76" x2="185.88" y2="36.6"/><line class="cls-6" x1="185.88" y1="34.92" x2="185.88" y2="32.76"/><line class="cls-6" x1="185.88" y1="31.08" x2="185.88" y2="28.92"/><line class="cls-6" x1="185.88" y1="27.24" x2="185.88" y2="25.08"/><line class="cls-6" x1="185.88" y1="23.4" x2="185.88" y2="21.24"/><line class="cls-6" x1="185.88" y1="19.56" x2="185.88" y2="17.4"/><line class="cls-6" x1="185.88" y1="15.72" x2="185.88" y2="13.8"/><line class="cls-6" x1="185.88" y1="11.88" x2="185.88" y2="9.96"/><line class="cls-6" x1="185.88" y1="8.28" x2="185.88" y2="6.12"/><line class="cls-6" x1="185.88" y1="4.44" x2="185.88" y2="2.04"/><line class="cls-6" x1="114.84" y1="163.32" x2="116.76" y2="163.32"/><line class="cls-6" x1="118.44" y1="163.32" x2="120.36" y2="163.32"/><line class="cls-6" x1="61.8" y1="93.96" x2="61.8" y2="95.4"/><line class="cls-6" x1="61.8" y1="97.08" x2="61.8" y2="99.24"/><line class="cls-6" x1="61.8" y1="100.92" x2="61.8" y2="103.08"/><line class="cls-6" x1="61.8" y1="104.76" x2="61.8" y2="106.92"/><line class="cls-6" x1="61.8" y1="108.6" x2="61.8" y2="110.76"/><line class="cls-6" x1="61.8" y1="112.44" x2="61.8" y2="114.36"/><line class="cls-6" x1="61.8" y1="116.28" x2="61.8" y2="118.2"/><line class="cls-6" x1="61.8" y1="120.12" x2="61.8" y2="122.04"/><line class="cls-6" x1="61.8" y1="123.72" x2="61.8" y2="125.88"/><line class="cls-6" x1="61.8" y1="127.56" x2="61.8" y2="129.72"/><line class="cls-6" x1="61.8" y1="131.4" x2="61.8" y2="133.56"/><line class="cls-6" x1="61.8" y1="135.24" x2="61.8" y2="137.4"/><line class="cls-6" x1="61.8" y1="139.08" x2="61.8" y2="141.24"/><line class="cls-6" x1="61.8" y1="142.92" x2="61.8" y2="145.08"/><line class="cls-6" x1="61.8" y1="146.76" x2="61.8" y2="148.92"/><line class="cls-6" x1="61.8" y1="150.6" x2="61.8" y2="152.76"/><line class="cls-6" x1="61.8" y1="154.44" x2="61.8" y2="156.6"/><line class="cls-6" x1="61.8" y1="158.28" x2="61.8" y2="160.44"/><line class="cls-6" x1="61.8" y1="162.12" x2="61.8" y2="163.32"/><line class="cls-6" x1="1.8" y1="93.96" x2="4.2" y2="93.96"/><line class="cls-6" x1="5.88" y1="93.96" x2="8.04" y2="93.96"/><line class="cls-6" x1="9.72" y1="93.96" x2="11.64" y2="93.96"/><line class="cls-6" x1="13.56" y1="93.96" x2="15.48" y2="93.96"/><line class="cls-6" x1="17.4" y1="93.96" x2="19.32" y2="93.96"/><line class="cls-6" x1="21" y1="93.96" x2="23.16" y2="93.96"/><line class="cls-6" x1="24.84" y1="93.96" x2="27" y2="93.96"/><line class="cls-6" x1="28.68" y1="93.96" x2="30.84" y2="93.96"/><line class="cls-6" x1="32.52" y1="93.96" x2="34.68" y2="93.96"/><line class="cls-6" x1="36.36" y1="93.96" x2="38.52" y2="93.96"/><line class="cls-6" x1="40.2" y1="93.96" x2="42.36" y2="93.96"/><line class="cls-6" x1="44.04" y1="93.96" x2="46.2" y2="93.96"/><line class="cls-6" x1="47.88" y1="93.96" x2="50.04" y2="93.96"/><line class="cls-6" x1="51.72" y1="93.96" x2="53.88" y2="93.96"/><line class="cls-6" x1="55.56" y1="93.96" x2="57.72" y2="93.96"/><line class="cls-6" x1="59.4" y1="93.96" x2="61.8" y2="93.96"/><line class="cls-6" x1="1.8" y1="2.04" x2="1.8" y2="3.24"/><line class="cls-6" x1="1.8" y1="4.92" x2="1.8" y2="6.84"/><line class="cls-6" x1="1.8" y1="8.76" x2="1.8" y2="10.68"/><line class="cls-6" x1="1.8" y1="12.6" x2="1.8" y2="14.52"/><line class="cls-6" x1="1.8" y1="16.2" x2="1.8" y2="18.36"/><line class="cls-6" x1="1.8" y1="20.04" x2="1.8" y2="22.2"/><line class="cls-6" x1="1.8" y1="23.88" x2="1.8" y2="26.04"/><line class="cls-6" x1="1.8" y1="27.72" x2="1.8" y2="29.88"/><line class="cls-6" x1="1.8" y1="31.56" x2="1.8" y2="33.72"/><line class="cls-6" x1="1.8" y1="35.4" x2="1.8" y2="37.56"/><line class="cls-6" x1="1.8" y1="39.24" x2="1.8" y2="41.4"/><line class="cls-6" x1="1.8" y1="43.08" x2="1.8" y2="45.24"/><line class="cls-6" x1="1.8" y1="46.92" x2="1.8" y2="49.08"/><line class="cls-6" x1="1.8" y1="50.76" x2="1.8" y2="52.92"/><line class="cls-6" x1="1.8" y1="54.6" x2="1.8" y2="56.76"/><line class="cls-6" x1="1.8" y1="58.44" x2="1.8" y2="60.6"/><line class="cls-6" x1="1.8" y1="62.28" x2="1.8" y2="64.44"/><line class="cls-6" x1="1.8" y1="66.12" x2="1.8" y2="68.04"/><line class="cls-6" x1="1.8" y1="69.96" x2="1.8" y2="71.88"/><line class="cls-6" x1="1.8" y1="73.8" x2="1.8" y2="75.72"/><line class="cls-6" x1="1.8" y1="77.4" x2="1.8" y2="79.56"/><line class="cls-6" x1="1.8" y1="81.24" x2="1.8" y2="83.4"/><line class="cls-6" x1="1.8" y1="85.08" x2="1.8" y2="87.24"/><line class="cls-6" x1="1.8" y1="88.92" x2="1.8" y2="91.08"/><line class="cls-6" x1="1.8" y1="92.76" x2="1.8" y2="93.96"/><line class="cls-6" x1="185.88" y1="2.04" x2="184.44" y2="2.04"/><line class="cls-6" x1="182.76" y1="2.04" x2="180.6" y2="2.04"/><line class="cls-6" x1="178.92" y1="2.04" x2="176.76" y2="2.04"/><line class="cls-6" x1="175.08" y1="2.04" x2="172.92" y2="2.04"/><line class="cls-6" x1="171.24" y1="2.04" x2="169.32" y2="2.04"/><line class="cls-6" x1="167.4" y1="2.04" x2="165.48" y2="2.04"/><line class="cls-6" x1="163.8" y1="2.04" x2="161.64" y2="2.04"/><line class="cls-6" x1="159.96" y1="2.04" x2="157.8" y2="2.04"/><line class="cls-6" x1="156.12" y1="2.04" x2="153.96" y2="2.04"/><line class="cls-6" x1="152.28" y1="2.04" x2="150.12" y2="2.04"/><line class="cls-6" x1="148.44" y1="2.04" x2="146.28" y2="2.04"/><line class="cls-6" x1="144.6" y1="2.04" x2="142.44" y2="2.04"/><line class="cls-6" x1="140.76" y1="2.04" x2="138.6" y2="2.04"/><line class="cls-6" x1="136.92" y1="2.04" x2="134.76" y2="2.04"/><line class="cls-6" x1="133.08" y1="2.04" x2="130.92" y2="2.04"/><line class="cls-6" x1="129.24" y1="2.04" x2="127.08" y2="2.04"/><line class="cls-6" x1="125.4" y1="2.04" x2="123.24" y2="2.04"/><line class="cls-6" x1="121.56" y1="2.04" x2="119.4" y2="2.04"/><line class="cls-6" x1="117.72" y1="2.04" x2="115.56" y2="2.04"/><line class="cls-6" x1="113.88" y1="2.04" x2="111.72" y2="2.04"/><line class="cls-6" x1="110.04" y1="2.04" x2="108.12" y2="2.04"/><line class="cls-6" x1="106.2" y1="2.04" x2="104.28" y2="2.04"/><line class="cls-6" x1="102.6" y1="2.04" x2="100.44" y2="2.04"/><line class="cls-6" x1="98.76" y1="2.04" x2="96.6" y2="2.04"/><line class="cls-6" x1="94.92" y1="2.04" x2="92.76" y2="2.04"/><line class="cls-6" x1="91.08" y1="2.04" x2="88.92" y2="2.04"/><line class="cls-6" x1="87.24" y1="2.04" x2="85.08" y2="2.04"/><line class="cls-6" x1="83.4" y1="2.04" x2="81.24" y2="2.04"/><line class="cls-6" x1="79.56" y1="2.04" x2="77.4" y2="2.04"/><line class="cls-6" x1="75.72" y1="2.04" x2="73.56" y2="2.04"/><line class="cls-6" x1="71.88" y1="2.04" x2="69.72" y2="2.04"/><line class="cls-6" x1="68.04" y1="2.04" x2="65.88" y2="2.04"/><line class="cls-6" x1="64.2" y1="2.04" x2="62.04" y2="2.04"/><line class="cls-6" x1="60.36" y1="2.04" x2="58.2" y2="2.04"/><line class="cls-6" x1="56.52" y1="2.04" x2="54.36" y2="2.04"/><line class="cls-6" x1="52.68" y1="2.04" x2="50.76" y2="2.04"/><line class="cls-6" x1="48.84" y1="2.04" x2="46.92" y2="2.04"/><line class="cls-6" x1="45" y1="2.04" x2="43.08" y2="2.04"/><line class="cls-6" x1="41.4" y1="2.04" x2="39.24" y2="2.04"/><line class="cls-6" x1="37.56" y1="2.04" x2="35.4" y2="2.04"/><line class="cls-6" x1="33.72" y1="2.04" x2="31.56" y2="2.04"/><line class="cls-6" x1="29.88" y1="2.04" x2="27.72" y2="2.04"/><line class="cls-6" x1="26.04" y1="2.04" x2="23.88" y2="2.04"/><line class="cls-6" x1="22.2" y1="2.04" x2="20.04" y2="2.04"/><line class="cls-6" x1="18.36" y1="2.04" x2="16.2" y2="2.04"/><line class="cls-6" x1="14.52" y1="2.04" x2="12.36" y2="2.04"/><line class="cls-6" x1="10.68" y1="2.04" x2="8.52" y2="2.04"/><line class="cls-6" x1="6.84" y1="2.04" x2="4.68" y2="2.04"/><line class="cls-6" x1="3" y1="2.04" x2="1.8" y2="2.04"/><polyline class="cls-7" points="86.28 163.32 85.32 158.28 82.92 153.48 79.32 149.64 74.52 147.24 69.24 146.52"/><polyline class="cls-7" points="86.28 163.32 85.32 158.28 82.92 153.48 79.32 149.64 74.52 147.24 69.24 146.52"/><line class="cls-7" x1="69.24" y1="163.32" x2="69.24" y2="146.52"/><polyline class="cls-7" points="70.68 163.32 70.68 146.52 69.24 146.52 69.24 163.32 70.68 163.32"/><polyline class="cls-7" points="86.28 163.32 87 157.08 89.16 151.08 92.52 145.56 97.08 141.24 102.36 137.88 108.36 135.72 114.84 135"/><polyline class="cls-7" points="86.28 163.32 87 157.08 89.16 151.08 92.52 145.56 97.08 141.24 102.36 137.88 108.36 135.72 114.84 135"/><line class="cls-7" x1="114.84" y1="163.32" x2="114.84" y2="135"/><polyline class="cls-7" points="113.4 163.32 113.4 135 114.84 135 114.84 163.32 113.4 163.32"/><line class="cls-7" x1="63.48" y1="92.28" x2="63.48" y2="161.64"/><line class="cls-7" x1="3.48" y1="92.28" x2="63.48" y2="92.28"/><line class="cls-7" x1="3.48" y1="3.72" x2="3.48" y2="92.28"/><line class="cls-7" x1="184.2" y1="3.72" x2="3.48" y2="3.72"/><line class="cls-7" x1="184.2" y1="129.24" x2="184.2" y2="3.72"/><line class="cls-7" x1="118.68" y1="129.24" x2="184.2" y2="129.24"/><line class="cls-7" x1="118.68" y1="161.64" x2="118.68" y2="129.24"/><line class="cls-7" x1="63.48" y1="161.64" x2="118.68" y2="161.64"/><line class="cls-7" x1="0.12" y1="95.64" x2="0.12" y2="0.12"/><line class="cls-7" x1="60.12" y1="95.64" x2="0.12" y2="95.64"/><line class="cls-7" x1="60.12" y1="165" x2="60.12" y2="95.64"/><line class="cls-7" x1="122.04" y1="132.6" x2="122.04" y2="165"/><line class="cls-7" x1="187.56" y1="132.6" x2="122.04" y2="132.6"/><line class="cls-7" x1="187.56" y1="0.12" x2="187.56" y2="132.6"/><line class="cls-7" x1="0.12" y1="0.12" x2="187.56" y2="0.12"/><line class="cls-7" x1="184.2" y1="3.72" x2="182.52" y2="3.72"/><line class="cls-7" x1="180.84" y1="3.72" x2="178.68" y2="3.72"/><line class="cls-7" x1="177" y1="3.72" x2="174.84" y2="3.72"/><line class="cls-7" x1="173.16" y1="3.72" x2="171.24" y2="3.72"/><line class="cls-7" x1="169.32" y1="3.72" x2="167.4" y2="3.72"/><line class="cls-7" x1="165.48" y1="3.72" x2="163.56" y2="3.72"/><line class="cls-7" x1="161.88" y1="3.72" x2="159.72" y2="3.72"/><line class="cls-7" x1="158.04" y1="3.72" x2="155.88" y2="3.72"/><line class="cls-7" x1="154.2" y1="3.72" x2="152.04" y2="3.72"/><line class="cls-7" x1="150.36" y1="3.72" x2="148.2" y2="3.72"/><line class="cls-7" x1="146.52" y1="3.72" x2="144.36" y2="3.72"/><line class="cls-7" x1="142.68" y1="3.72" x2="140.52" y2="3.72"/><line class="cls-7" x1="138.84" y1="3.72" x2="136.68" y2="3.72"/><line class="cls-7" x1="135" y1="3.72" x2="132.84" y2="3.72"/><line class="cls-7" x1="131.16" y1="3.72" x2="129" y2="3.72"/><line class="cls-7" x1="127.32" y1="3.72" x2="125.16" y2="3.72"/><line class="cls-7" x1="123.48" y1="3.72" x2="121.32" y2="3.72"/><line class="cls-7" x1="119.64" y1="3.72" x2="117.48" y2="3.72"/><line class="cls-7" x1="115.8" y1="3.72" x2="113.64" y2="3.72"/><line class="cls-7" x1="111.96" y1="3.72" x2="110.04" y2="3.72"/><line class="cls-7" x1="108.12" y1="3.72" x2="106.2" y2="3.72"/><line class="cls-7" x1="104.52" y1="3.72" x2="102.36" y2="3.72"/><line class="cls-7" x1="100.68" y1="3.72" x2="98.52" y2="3.72"/><line class="cls-7" x1="96.84" y1="3.72" x2="94.68" y2="3.72"/><line class="cls-7" x1="93" y1="3.72" x2="90.84" y2="3.72"/><line class="cls-7" x1="89.16" y1="3.72" x2="87" y2="3.72"/><line class="cls-7" x1="85.32" y1="3.72" x2="83.16" y2="3.72"/><line class="cls-7" x1="81.48" y1="3.72" x2="79.32" y2="3.72"/><line class="cls-7" x1="77.64" y1="3.72" x2="75.48" y2="3.72"/><line class="cls-7" x1="73.8" y1="3.72" x2="71.64" y2="3.72"/><line class="cls-7" x1="69.96" y1="3.72" x2="67.8" y2="3.72"/><line class="cls-7" x1="66.12" y1="3.72" x2="63.96" y2="3.72"/><line class="cls-7" x1="62.28" y1="3.72" x2="60.12" y2="3.72"/><line class="cls-7" x1="58.44" y1="3.72" x2="56.28" y2="3.72"/><line class="cls-7" x1="54.6" y1="3.72" x2="52.44" y2="3.72"/><line class="cls-7" x1="50.76" y1="3.72" x2="48.84" y2="3.72"/><line class="cls-7" x1="46.92" y1="3.72" x2="45" y2="3.72"/><line class="cls-7" x1="43.32" y1="3.72" x2="41.16" y2="3.72"/><line class="cls-7" x1="39.48" y1="3.72" x2="37.32" y2="3.72"/><line class="cls-7" x1="35.64" y1="3.72" x2="33.48" y2="3.72"/><line class="cls-7" x1="31.8" y1="3.72" x2="29.64" y2="3.72"/><line class="cls-7" x1="27.96" y1="3.72" x2="25.8" y2="3.72"/><line class="cls-7" x1="24.12" y1="3.72" x2="21.96" y2="3.72"/><line class="cls-7" x1="20.28" y1="3.72" x2="18.12" y2="3.72"/><line class="cls-7" x1="16.44" y1="3.72" x2="14.28" y2="3.72"/><line class="cls-7" x1="12.6" y1="3.72" x2="10.44" y2="3.72"/><line class="cls-7" x1="8.76" y1="3.72" x2="6.6" y2="3.72"/><polyline class="cls-7" points="4.92 3.72 3.48 3.72 3.48 5.16"/><line class="cls-7" x1="3.48" y1="6.84" x2="3.48" y2="8.76"/><line class="cls-7" x1="3.48" y1="10.68" x2="3.48" y2="12.6"/><line class="cls-7" x1="3.48" y1="14.28" x2="3.48" y2="16.44"/><line class="cls-7" x1="3.48" y1="18.12" x2="3.48" y2="20.28"/><line class="cls-7" x1="3.48" y1="21.96" x2="3.48" y2="24.12"/><line class="cls-7" x1="3.48" y1="25.8" x2="3.48" y2="27.96"/><line class="cls-7" x1="3.48" y1="29.64" x2="3.48" y2="31.8"/><line class="cls-7" x1="3.48" y1="33.48" x2="3.48" y2="35.64"/><line class="cls-7" x1="3.48" y1="37.32" x2="3.48" y2="39.48"/><line class="cls-7" x1="3.48" y1="41.16" x2="3.48" y2="43.32"/><line class="cls-7" x1="3.48" y1="45" x2="3.48" y2="47.16"/><line class="cls-7" x1="3.48" y1="48.84" x2="3.48" y2="51"/><line class="cls-7" x1="3.48" y1="52.68" x2="3.48" y2="54.84"/><line class="cls-7" x1="3.48" y1="56.52" x2="3.48" y2="58.68"/><line class="cls-7" x1="3.48" y1="60.36" x2="3.48" y2="62.52"/><line class="cls-7" x1="3.48" y1="64.2" x2="3.48" y2="66.36"/><line class="cls-7" x1="3.48" y1="68.04" x2="3.48" y2="69.96"/><line class="cls-7" x1="3.48" y1="71.88" x2="3.48" y2="73.8"/><line class="cls-7" x1="3.48" y1="75.48" x2="3.48" y2="77.64"/><line class="cls-7" x1="3.48" y1="79.32" x2="3.48" y2="81.48"/><line class="cls-7" x1="3.48" y1="83.16" x2="3.48" y2="85.32"/><line class="cls-7" x1="3.48" y1="87" x2="3.48" y2="89.16"/><polyline class="cls-7" points="3.48 90.84 3.48 92.28 5.88 92.28"/><line class="cls-7" x1="7.56" y1="92.28" x2="9.72" y2="92.28"/><line class="cls-7" x1="11.4" y1="92.28" x2="13.56" y2="92.28"/><line class="cls-7" x1="15.24" y1="92.28" x2="17.4" y2="92.28"/><line class="cls-7" x1="19.08" y1="92.28" x2="21" y2="92.28"/><line class="cls-7" x1="22.92" y1="92.28" x2="24.84" y2="92.28"/><line class="cls-7" x1="26.52" y1="92.28" x2="28.68" y2="92.28"/><line class="cls-7" x1="30.36" y1="92.28" x2="32.52" y2="92.28"/><line class="cls-7" x1="34.2" y1="92.28" x2="36.36" y2="92.28"/><line class="cls-7" x1="38.04" y1="92.28" x2="40.2" y2="92.28"/><line class="cls-7" x1="41.88" y1="92.28" x2="44.04" y2="92.28"/><line class="cls-7" x1="45.72" y1="92.28" x2="47.88" y2="92.28"/><line class="cls-7" x1="49.56" y1="92.28" x2="51.72" y2="92.28"/><line class="cls-7" x1="53.4" y1="92.28" x2="55.56" y2="92.28"/><line class="cls-7" x1="57.24" y1="92.28" x2="59.4" y2="92.28"/><polyline class="cls-7" points="61.08 92.28 63.48 92.28 63.48 93.72"/><line class="cls-7" x1="63.48" y1="95.4" x2="63.48" y2="97.56"/><line class="cls-7" x1="63.48" y1="99.24" x2="63.48" y2="101.4"/><line class="cls-7" x1="63.48" y1="103.08" x2="63.48" y2="105.24"/><line class="cls-7" x1="63.48" y1="106.92" x2="63.48" y2="108.84"/><line class="cls-7" x1="63.48" y1="110.76" x2="63.48" y2="112.68"/><line class="cls-7" x1="63.48" y1="114.36" x2="63.48" y2="116.52"/><line class="cls-7" x1="63.48" y1="118.2" x2="63.48" y2="120.36"/><line class="cls-7" x1="63.48" y1="122.04" x2="63.48" y2="124.2"/><line class="cls-7" x1="63.48" y1="125.88" x2="63.48" y2="128.04"/><line class="cls-7" x1="63.48" y1="129.72" x2="63.48" y2="131.88"/><line class="cls-7" x1="63.48" y1="133.56" x2="63.48" y2="135.72"/><line class="cls-7" x1="63.48" y1="137.4" x2="63.48" y2="139.56"/><line class="cls-7" x1="63.48" y1="141.24" x2="63.48" y2="143.4"/><line class="cls-7" x1="63.48" y1="145.08" x2="63.48" y2="147.24"/><line class="cls-7" x1="63.48" y1="148.92" x2="63.48" y2="151.08"/><line class="cls-7" x1="63.48" y1="152.76" x2="63.48" y2="154.92"/><line class="cls-7" x1="63.48" y1="156.6" x2="63.48" y2="158.76"/><polyline class="cls-7" points="63.48 160.44 63.48 161.64 65.4 161.64"/><line class="cls-7" x1="67.08" y1="161.64" x2="69.24" y2="161.64"/><line class="cls-7" x1="70.92" y1="161.64" x2="73.08" y2="161.64"/><line class="cls-7" x1="74.76" y1="161.64" x2="76.92" y2="161.64"/><line class="cls-7" x1="78.6" y1="161.64" x2="80.76" y2="161.64"/><line class="cls-7" x1="82.44" y1="161.64" x2="84.6" y2="161.64"/><line class="cls-7" x1="86.28" y1="161.64" x2="88.44" y2="161.64"/><line class="cls-7" x1="90.12" y1="161.64" x2="92.04" y2="161.64"/><line class="cls-7" x1="93.96" y1="161.64" x2="95.88" y2="161.64"/><line class="cls-7" x1="97.56" y1="161.64" x2="99.72" y2="161.64"/><line class="cls-7" x1="101.4" y1="161.64" x2="103.56" y2="161.64"/><line class="cls-7" x1="105.24" y1="161.64" x2="107.4" y2="161.64"/><line class="cls-7" x1="109.08" y1="161.64" x2="111.24" y2="161.64"/><line class="cls-7" x1="112.92" y1="161.64" x2="115.08" y2="161.64"/><polyline class="cls-7" points="116.76 161.64 118.68 161.64 118.68 159.48"/><line class="cls-7" x1="118.68" y1="157.8" x2="118.68" y2="155.64"/><line class="cls-7" x1="118.68" y1="153.96" x2="118.68" y2="151.8"/><line class="cls-7" x1="118.68" y1="150.12" x2="118.68" y2="147.96"/><line class="cls-7" x1="118.68" y1="146.28" x2="118.68" y2="144.12"/><line class="cls-7" x1="118.68" y1="142.44" x2="118.68" y2="140.28"/><line class="cls-7" x1="118.68" y1="138.6" x2="118.68" y2="136.44"/><line class="cls-7" x1="118.68" y1="134.76" x2="118.68" y2="132.6"/><line class="cls-7" x1="122.04" y1="132.6" x2="123.48" y2="132.6"/><line class="cls-7" x1="125.4" y1="132.6" x2="127.32" y2="132.6"/><line class="cls-7" x1="129.24" y1="132.6" x2="131.16" y2="132.6"/><line class="cls-7" x1="132.84" y1="132.6" x2="135" y2="132.6"/><line class="cls-7" x1="136.68" y1="132.6" x2="138.84" y2="132.6"/><line class="cls-7" x1="140.52" y1="132.6" x2="142.68" y2="132.6"/><line class="cls-7" x1="144.36" y1="132.6" x2="146.52" y2="132.6"/><line class="cls-7" x1="148.2" y1="132.6" x2="150.36" y2="132.6"/><line class="cls-7" x1="152.04" y1="132.6" x2="154.2" y2="132.6"/><line class="cls-7" x1="155.88" y1="132.6" x2="158.04" y2="132.6"/><line class="cls-7" x1="159.72" y1="132.6" x2="161.88" y2="132.6"/><line class="cls-7" x1="163.56" y1="132.6" x2="165.72" y2="132.6"/><line class="cls-7" x1="167.4" y1="132.6" x2="169.56" y2="132.6"/><line class="cls-7" x1="171.24" y1="132.6" x2="173.4" y2="132.6"/><line class="cls-7" x1="175.08" y1="132.6" x2="177.24" y2="132.6"/><line class="cls-7" x1="178.92" y1="132.6" x2="181.08" y2="132.6"/><line class="cls-7" x1="182.76" y1="132.6" x2="184.2" y2="132.6"/><line class="cls-7" x1="184.2" y1="129.24" x2="184.2" y2="126.6"/><line class="cls-7" x1="184.2" y1="124.92" x2="184.2" y2="122.76"/><line class="cls-7" x1="184.2" y1="121.08" x2="184.2" y2="118.92"/><line class="cls-7" x1="184.2" y1="117.24" x2="184.2" y2="115.08"/><line class="cls-7" x1="184.2" y1="113.4" x2="184.2" y2="111.24"/><line class="cls-7" x1="184.2" y1="109.56" x2="184.2" y2="107.4"/><line class="cls-7" x1="184.2" y1="105.72" x2="184.2" y2="103.56"/><line class="cls-7" x1="184.2" y1="101.88" x2="184.2" y2="99.72"/><line class="cls-7" x1="184.2" y1="98.04" x2="184.2" y2="95.88"/><line class="cls-7" x1="184.2" y1="94.2" x2="184.2" y2="92.04"/><line class="cls-7" x1="184.2" y1="90.36" x2="184.2" y2="88.2"/><line class="cls-7" x1="184.2" y1="86.52" x2="184.2" y2="84.36"/><line class="cls-7" x1="184.2" y1="82.68" x2="184.2" y2="80.52"/><line class="cls-7" x1="184.2" y1="78.84" x2="184.2" y2="76.68"/><line class="cls-7" x1="184.2" y1="75" x2="184.2" y2="73.08"/><line class="cls-7" x1="184.2" y1="71.16" x2="184.2" y2="69.24"/><line class="cls-7" x1="184.2" y1="67.56" x2="184.2" y2="65.4"/><line class="cls-7" x1="184.2" y1="63.72" x2="184.2" y2="61.56"/><line class="cls-7" x1="184.2" y1="59.88" x2="184.2" y2="57.72"/><line class="cls-7" x1="184.2" y1="56.04" x2="184.2" y2="53.88"/><line class="cls-7" x1="184.2" y1="52.2" x2="184.2" y2="50.04"/><line class="cls-7" x1="184.2" y1="48.36" x2="184.2" y2="46.2"/><line class="cls-7" x1="184.2" y1="44.52" x2="184.2" y2="42.36"/><line class="cls-7" x1="184.2" y1="40.68" x2="184.2" y2="38.52"/><line class="cls-7" x1="184.2" y1="36.84" x2="184.2" y2="34.68"/><line class="cls-7" x1="184.2" y1="33" x2="184.2" y2="30.84"/><line class="cls-7" x1="184.2" y1="29.16" x2="184.2" y2="27"/><line class="cls-7" x1="184.2" y1="25.32" x2="184.2" y2="23.16"/><line class="cls-7" x1="184.2" y1="21.48" x2="184.2" y2="19.32"/><line class="cls-7" x1="184.2" y1="17.64" x2="184.2" y2="15.72"/><line class="cls-7" x1="184.2" y1="13.8" x2="184.2" y2="11.88"/><line class="cls-7" x1="184.2" y1="9.96" x2="184.2" y2="8.04"/><line class="cls-7" x1="184.2" y1="6.36" x2="184.2" y2="3.72"/><polyline class="cls-8" points="146.76 124.92 146.04 125.16 145.32 125.16"/><polyline class="cls-8" points="135.96 124.92 136.68 125.16 137.4 125.16"/><line class="cls-8" x1="147.96" y1="123.48" x2="147.96" y2="123.72"/><polyline class="cls-8" points="147.96 123.48 148.2 122.52 147.96 121.8"/><polyline class="cls-8" points="146.76 124.92 147.48 124.44 147.96 123.72"/><line class="cls-8" x1="134.76" y1="123.48" x2="134.76" y2="123.72"/><polyline class="cls-8" points="134.76 123.48 134.52 122.52 134.76 121.8"/><polyline class="cls-8" points="135.96 124.92 135.24 124.44 134.76 123.72"/><line class="cls-7" x1="134.28" y1="129.24" x2="148.44" y2="129.24"/><polyline class="cls-7" points="134.04 120.36 135 119.16 135.96 118.2"/><polyline class="cls-7" points="133.56 123 133.8 121.56 134.04 120.36"/><polyline class="cls-7" points="134.28 129.24 133.8 126.12 133.56 122.76"/><polyline class="cls-7" points="149.16 122.76 148.92 126.12 148.44 129.24"/><polyline class="cls-7" points="138.36 116.76 139.8 116.28 141.48 116.28"/><polyline class="cls-7" points="135.96 118.2 136.92 117.48 138.36 116.76"/><polyline class="cls-7" points="148.68 120.36 148.92 121.56 149.16 123"/><polyline class="cls-7" points="147 118.2 147.96 119.16 148.68 120.36"/><polyline class="cls-7" points="144.36 116.76 145.8 117.48 147 118.2"/><polyline class="cls-7" points="141.48 116.28 142.92 116.28 144.36 116.76"/><polyline class="cls-8" points="148.68 128.52 148.92 125.64 149.16 122.76 148.92 121.56 148.68 120.36 147.96 119.16 147 118.2 145.8 117.48 144.36 116.76 142.92 116.28 141.48 116.28 139.8 116.28 138.36 116.76 136.92 117.48 135.96 118.2 135 119.16 134.04 120.36 133.8 121.56 133.56 122.76 133.8 125.64 134.04 128.52 148.68 128.52"/><polyline class="cls-9" points="128.52 129.24 154.2 129.24 154.2 128.52 128.52 128.52 128.52 129.24"/><line class="cls-7" x1="120.12" y1="31.8" x2="179.88" y2="31.8"/><polyline class="cls-7" points="118.68 33.24 119.16 32.28 120.12 31.8"/><line class="cls-7" x1="118.68" y1="58.44" x2="118.68" y2="33.24"/><polyline class="cls-7" points="120.12 59.88 119.16 59.4 118.68 58.44"/><line class="cls-7" x1="179.88" y1="59.88" x2="120.12" y2="59.88"/><polyline class="cls-7" points="181.32 58.44 180.84 59.4 179.88 59.88"/><line class="cls-7" x1="181.32" y1="33.24" x2="181.32" y2="58.44"/><polyline class="cls-7" points="179.88 31.8 180.84 32.28 181.32 33.24"/><polyline class="cls-8" points="165.48 59.88 165.48 59.16 179.16 59.16 179.16 59.88 165.48 59.88"/><polyline class="cls-8" points="122.52 32.52 122.52 31.8 142.68 31.8 142.68 32.52 122.52 32.52"/><polyline class="cls-8" points="165.72 32.52 165.72 31.8 179.4 31.8 179.4 32.52 165.72 32.52"/><line class="cls-8" x1="119.64" y1="34.44" x2="118.92" y2="34.44"/><line class="cls-8" x1="119.64" y1="57.24" x2="119.64" y2="34.44"/><line class="cls-8" x1="118.92" y1="57.24" x2="119.64" y2="57.24"/><line class="cls-8" x1="118.92" y1="34.44" x2="118.92" y2="57.24"/><line class="cls-8" x1="180.36" y1="34.68" x2="181.08" y2="34.68"/><line class="cls-8" x1="180.36" y1="57.24" x2="180.36" y2="34.68"/><line class="cls-8" x1="181.08" y1="57.24" x2="180.36" y2="57.24"/><line class="cls-8" x1="181.08" y1="34.68" x2="181.08" y2="57.24"/><line class="cls-8" x1="167.16" y1="57.48" x2="178.92" y2="57.48"/><line class="cls-8" x1="167.16" y1="34.2" x2="167.16" y2="57.48"/><line class="cls-8" x1="178.92" y1="34.2" x2="167.16" y2="34.2"/><line class="cls-8" x1="178.92" y1="57.48" x2="178.92" y2="34.2"/><line class="cls-8" x1="121.32" y1="33" x2="178.92" y2="33"/><polyline class="cls-8" points="119.88 34.2 120.12 33.24 121.32 33"/><line class="cls-8" x1="119.88" y1="57.48" x2="119.88" y2="34.2"/><polyline class="cls-8" points="121.32 58.68 120.12 58.44 119.88 57.48"/><line class="cls-8" x1="178.92" y1="58.68" x2="121.32" y2="58.68"/><polyline class="cls-8" points="180.36 57.48 179.88 58.44 178.92 58.68"/><line class="cls-8" x1="180.36" y1="34.2" x2="180.36" y2="57.48"/><polyline class="cls-8" points="178.92 33 179.88 33.24 180.36 34.2"/><polyline class="cls-8" points="181.32 33.24 181.32 32.76 181.08 32.52 180.84 32.28 180.6 32.04 180.36 31.8 179.88 31.8 120.12 31.8 119.88 31.8 119.4 32.04 119.16 32.28 118.92 32.52 118.68 32.76 118.68 33.24 118.68 58.44 118.68 58.92 118.92 59.16 119.16 59.4 119.4 59.64 119.88 59.88 120.12 59.88 179.88 59.88 180.36 59.88 180.6 59.64 180.84 59.4 181.08 59.16 181.32 58.92 181.32 58.44 181.32 33.24"/><line class="cls-7" x1="67.32" y1="31.8" x2="7.56" y2="31.8"/><polyline class="cls-7" points="68.76 33.24 68.52 32.28 67.32 31.8"/><line class="cls-7" x1="68.76" y1="58.44" x2="68.76" y2="33.24"/><polyline class="cls-7" points="67.32 59.88 68.52 59.4 68.76 58.44"/><line class="cls-7" x1="7.56" y1="59.88" x2="67.32" y2="59.88"/><polyline class="cls-7" points="6.12 58.44 6.6 59.4 7.56 59.88"/><line class="cls-7" x1="6.12" y1="33.24" x2="6.12" y2="58.44"/><polyline class="cls-7" points="7.56 31.8 6.6 32.28 6.12 33.24"/><polyline class="cls-8" points="21.96 59.88 21.96 59.16 8.28 59.16 8.28 59.88 21.96 59.88"/><polyline class="cls-8" points="65.16 32.52 65.16 31.8 45 31.8 45 32.52 65.16 32.52"/><polyline class="cls-8" points="21.96 32.52 21.96 31.8 8.28 31.8 8.28 32.52 21.96 32.52"/><line class="cls-8" x1="67.8" y1="34.44" x2="68.52" y2="34.44"/><line class="cls-8" x1="67.8" y1="57.24" x2="67.8" y2="34.44"/><line class="cls-8" x1="68.52" y1="57.24" x2="67.8" y2="57.24"/><line class="cls-8" x1="68.52" y1="34.44" x2="68.52" y2="57.24"/><line class="cls-8" x1="7.08" y1="34.68" x2="6.36" y2="34.68"/><line class="cls-8" x1="7.08" y1="57.24" x2="7.08" y2="34.68"/><line class="cls-8" x1="6.36" y1="57.24" x2="7.08" y2="57.24"/><line class="cls-8" x1="6.36" y1="34.68" x2="6.36" y2="57.24"/><line class="cls-8" x1="20.52" y1="57.48" x2="8.52" y2="57.48"/><line class="cls-8" x1="20.52" y1="34.2" x2="20.52" y2="57.48"/><line class="cls-8" x1="8.52" y1="34.2" x2="20.52" y2="34.2"/><line class="cls-8" x1="8.52" y1="57.48" x2="8.52" y2="34.2"/><line class="cls-8" x1="66.36" y1="33" x2="8.76" y2="33"/><polyline class="cls-8" points="67.8 34.2 67.32 33.24 66.36 33"/><line class="cls-8" x1="67.8" y1="57.48" x2="67.8" y2="34.2"/><polyline class="cls-8" points="66.36 58.68 67.32 58.44 67.8 57.48"/><line class="cls-8" x1="8.76" y1="58.68" x2="66.36" y2="58.68"/><polyline class="cls-8" points="7.32 57.48 7.8 58.44 8.76 58.68"/><line class="cls-8" x1="7.32" y1="34.2" x2="7.32" y2="57.48"/><polyline class="cls-8" points="8.76 33 7.8 33.24 7.32 34.2"/><polyline class="cls-8" points="6.12 33.24 6.12 58.44 6.36 58.92 6.36 59.16 6.6 59.4 6.84 59.64 7.32 59.88 7.56 59.88 67.32 59.88 67.8 59.88 68.04 59.64 68.52 59.4 68.76 59.16 68.76 58.92 68.76 58.44 68.76 33.24 68.76 32.76 68.76 32.52 68.52 32.28 68.04 32.04 67.8 31.8 67.32 31.8 7.56 31.8 7.32 31.8 6.84 32.04 6.6 32.28 6.36 32.52 6.36 32.76 6.12 33.24"/></g></g></svg>