<svg xmlns="http://www.w3.org/2000/svg" xmlns:xlink="http://www.w3.org/1999/xlink" viewBox="0 0 154.32 77.28"><defs><style>.cls-1,.cls-10,.cls-2,.cls-7,.cls-8,.cls-9{fill:none;}.cls-1{clip-rule:evenodd;}.cls-3{clip-path:url(#clip-path);}.cls-4{clip-path:url(#clip-path-2);}.cls-5{fill:#c6d3b4;}.cls-6{clip-path:url(#clip-path-3);}.cls-7{stroke:red;}.cls-10,.cls-7,.cls-8,.cls-9{stroke-linecap:round;stroke-linejoin:round;}.cls-7,.cls-8{stroke-width:0.24px;}.cls-10,.cls-8,.cls-9{stroke:#000;}.cls-9{stroke-width:0.48px;}.cls-10{stroke-width:0.96px;}</style><clipPath id="clip-path" transform="translate(0 -517.56)"><path class="cls-1" d="M28.92,521.28v.48H23.64v1.44h.24l-.24,6-.72,1.44L21,532.56l-.48.24-2.88,1-3.12.24v-.24l-1.44-.48A8.57,8.57,0,0,1,10,531.12H9.72v-.48H9.48v-.48l-.24-.24H9v-.72H8.76v-.72H8.52v-1l-.24-.24.24-2.88L8.76,523l.24-1.2H3.48v38.4h31.2v31.2l8.4-.24h-.24V585.6H42.6v-5.28h-.24v-1.44l.24-1.2.24-.48.24-.72,1.68-1.68,1.44-.72h2.16l1.92,1,1.2,1.2v.48h.24v.48H52v.72h.24v1.2h.24l-.24,6.48L52,590.88l-.48.24,8.64.24V521.28"/></clipPath><clipPath id="clip-path-2" transform="translate(0 -517.56)"><rect class="cls-2" x="0.13" width="841.92" height="595.2"/></clipPath><clipPath id="clip-path-3" transform="translate(0 -517.56)"><path class="cls-1" d="M119.64,521.28v.48h-5.28v2.88h.24l-.24,3.84-.24,1.2-.48,1-1,1-.48.24-1,1-2.88,1-3.12.24v-.24l-2.88-1-1.68-1.68h-.24v-.48l-.72-.72h-.24v-1.44h-.24v-1l-.24-.24.24-2.88.24-2.64H94v38.4h31.2v31.2l8.64-.24h-.24v-3.6h-.24v-3.6h-.24v-3.6l-.24-.24.48-2.4a5.58,5.58,0,0,1,2.16-2.88l1.44-.72h2.16l1.44.72,1.92,1.92v.48h.24v.72h.24l-.24,7.68-.24,5.28-.24.24,8.64.24V521.28"/></clipPath></defs><title>ROOMS-ENS-RECTANGLE</title><g id="Layer_2" data-name="Layer 2"><g id="Layer_1-2" data-name="Layer 1"><g class="cls-3"><g class="cls-4"><rect class="cls-5" x="3.48" y="3.72" width="56.64" height="70.08"/></g></g><g class="cls-6"><g class="cls-4"><rect class="cls-5" x="93.96" y="3.72" width="56.88" height="70.08"/></g></g><line class="cls-7" x1="1.8" y1="1.8" x2="4.2" y2="1.8"/><line class="cls-7" x1="5.88" y1="1.8" x2="8.04" y2="1.8"/><line class="cls-7" x1="9.72" y1="1.8" x2="11.64" y2="1.8"/><line class="cls-7" x1="13.56" y1="1.8" x2="15.48" y2="1.8"/><line class="cls-7" x1="17.4" y1="1.8" x2="19.32" y2="1.8"/><line class="cls-7" x1="21" y1="1.8" x2="23.16" y2="1.8"/><line class="cls-7" x1="24.84" y1="1.8" x2="27" y2="1.8"/><line class="cls-7" x1="28.68" y1="1.8" x2="30.84" y2="1.8"/><line class="cls-7" x1="32.52" y1="1.8" x2="34.68" y2="1.8"/><line class="cls-7" x1="36.36" y1="1.8" x2="38.52" y2="1.8"/><line class="cls-7" x1="40.2" y1="1.8" x2="42.36" y2="1.8"/><line class="cls-7" x1="44.04" y1="1.8" x2="46.2" y2="1.8"/><line class="cls-7" x1="47.88" y1="1.8" x2="50.04" y2="1.8"/><line class="cls-7" x1="51.72" y1="1.8" x2="53.88" y2="1.8"/><line class="cls-7" x1="55.56" y1="1.8" x2="57.72" y2="1.8"/><line class="cls-7" x1="59.4" y1="1.8" x2="61.8" y2="1.8"/><line class="cls-7" x1="61.8" y1="75.48" x2="61.8" y2="74.04"/><line class="cls-7" x1="61.8" y1="72.36" x2="61.8" y2="70.2"/><line class="cls-7" x1="61.8" y1="68.52" x2="61.8" y2="66.36"/><line class="cls-7" x1="61.8" y1="64.68" x2="61.8" y2="62.52"/><line class="cls-7" x1="61.8" y1="60.84" x2="61.8" y2="58.68"/><line class="cls-7" x1="61.8" y1="57" x2="61.8" y2="54.84"/><line class="cls-7" x1="61.8" y1="53.16" x2="61.8" y2="51"/><line class="cls-7" x1="61.8" y1="49.32" x2="61.8" y2="47.16"/><line class="cls-7" x1="61.8" y1="45.48" x2="61.8" y2="43.32"/><line class="cls-7" x1="61.8" y1="41.64" x2="61.8" y2="39.48"/><line class="cls-7" x1="61.8" y1="37.8" x2="61.8" y2="35.88"/><line class="cls-7" x1="61.8" y1="33.96" x2="61.8" y2="32.04"/><line class="cls-7" x1="61.8" y1="30.36" x2="61.8" y2="28.2"/><line class="cls-7" x1="61.8" y1="26.52" x2="61.8" y2="24.36"/><line class="cls-7" x1="61.8" y1="22.68" x2="61.8" y2="20.52"/><line class="cls-7" x1="61.8" y1="18.84" x2="61.8" y2="16.68"/><line class="cls-7" x1="61.8" y1="15" x2="61.8" y2="12.84"/><line class="cls-7" x1="61.8" y1="11.16" x2="61.8" y2="9"/><line class="cls-7" x1="61.8" y1="7.32" x2="61.8" y2="5.16"/><line class="cls-7" x1="61.8" y1="3.48" x2="61.8" y2="1.8"/><line class="cls-7" x1="61.8" y1="75.48" x2="59.4" y2="75.48"/><line class="cls-7" x1="57.72" y1="75.48" x2="55.56" y2="75.48"/><line class="cls-7" x1="53.88" y1="75.48" x2="51.72" y2="75.48"/><line class="cls-7" x1="50.04" y1="75.48" x2="47.88" y2="75.48"/><line class="cls-7" x1="46.2" y1="75.48" x2="44.04" y2="75.48"/><line class="cls-7" x1="42.36" y1="75.48" x2="40.2" y2="75.48"/><line class="cls-7" x1="38.52" y1="75.48" x2="36.36" y2="75.48"/><line class="cls-7" x1="34.68" y1="75.48" x2="32.52" y2="75.48"/><line class="cls-7" x1="30.84" y1="75.48" x2="28.68" y2="75.48"/><line class="cls-7" x1="27" y1="75.48" x2="24.84" y2="75.48"/><line class="cls-7" x1="23.16" y1="75.48" x2="21" y2="75.48"/><line class="cls-7" x1="19.32" y1="75.48" x2="17.4" y2="75.48"/><line class="cls-7" x1="15.48" y1="75.48" x2="13.56" y2="75.48"/><line class="cls-7" x1="11.64" y1="75.48" x2="9.72" y2="75.48"/><line class="cls-7" x1="8.04" y1="75.48" x2="5.88" y2="75.48"/><line class="cls-7" x1="4.2" y1="75.48" x2="1.8" y2="75.48"/><line class="cls-7" x1="1.8" y1="1.8" x2="1.8" y2="3.48"/><line class="cls-7" x1="1.8" y1="5.16" x2="1.8" y2="7.32"/><line class="cls-7" x1="1.8" y1="9" x2="1.8" y2="11.16"/><line class="cls-7" x1="1.8" y1="12.84" x2="1.8" y2="15"/><line class="cls-7" x1="1.8" y1="16.68" x2="1.8" y2="18.84"/><line class="cls-7" x1="1.8" y1="20.52" x2="1.8" y2="22.68"/><line class="cls-7" x1="1.8" y1="24.36" x2="1.8" y2="26.52"/><line class="cls-7" x1="1.8" y1="28.2" x2="1.8" y2="30.36"/><line class="cls-7" x1="1.8" y1="32.04" x2="1.8" y2="33.96"/><line class="cls-7" x1="1.8" y1="35.88" x2="1.8" y2="37.8"/><line class="cls-7" x1="1.8" y1="39.48" x2="1.8" y2="41.64"/><line class="cls-7" x1="1.8" y1="43.32" x2="1.8" y2="45.48"/><line class="cls-7" x1="1.8" y1="47.16" x2="1.8" y2="49.32"/><line class="cls-7" x1="1.8" y1="51" x2="1.8" y2="53.16"/><line class="cls-7" x1="1.8" y1="54.84" x2="1.8" y2="57"/><line class="cls-7" x1="1.8" y1="58.68" x2="1.8" y2="60.84"/><line class="cls-7" x1="1.8" y1="62.52" x2="1.8" y2="64.68"/><line class="cls-7" x1="1.8" y1="66.36" x2="1.8" y2="68.52"/><line class="cls-7" x1="1.8" y1="70.2" x2="1.8" y2="72.36"/><line class="cls-7" x1="1.8" y1="74.04" x2="1.8" y2="75.48"/><polyline class="cls-8" points="30.36 1.8 31.08 8.28 33.24 14.28 36.6 19.8 41.16 24.36 46.44 27.72 52.68 29.88 58.92 30.6"/><polyline class="cls-8" points="30.36 1.8 31.08 8.28 33.24 14.28 36.6 19.8 41.16 24.36 46.44 27.72 52.68 29.88 58.92 30.6"/><line class="cls-8" x1="58.92" y1="1.8" x2="58.92" y2="30.6"/><polyline class="cls-8" points="57.48 1.8 57.48 30.6 58.92 30.6 58.92 1.8 57.48 1.8"/><polyline class="cls-8" points="60.12 73.8 3.48 73.8 3.48 3.72 60.12 3.72 60.12 73.8"/><polyline class="cls-8" points="63.48 0.12 0.12 0.12 0.12 77.16 63.48 77.16"/><line class="cls-8" x1="63.48" y1="77.16" x2="63.48" y2="0.12"/><polyline class="cls-9" points="42.84 73.56 42.84 73.8 43.08 73.8 47.4 73.8 51.48 73.8 51.72 73.8 51.96 73.56 52.44 62.76 52.2 61.56 51.96 60.36 51.48 59.16 50.76 58.2 49.8 57.48 48.84 57 47.88 56.52 46.68 56.52 45.72 57 44.76 57.48 44.04 58.2 43.08 59.16 42.6 60.36 42.36 61.56 42.36 62.76 42.84 73.56"/><polyline class="cls-8" points="51.72 72.6 51.24 71.64 50.28 71.16 48.84 70.92 47.4 70.68 45.72 70.92 44.28 71.16 43.56 71.64 42.84 72.6"/><polyline class="cls-8" points="51.96 64.44 51.72 65.4 51.48 66.36 51 67.08 50.52 67.56 50.04 67.8 49.56 68.04"/><polyline class="cls-8" points="47.4 68.28 48.6 68.28 49.56 68.04"/><polyline class="cls-8" points="47.4 68.28 46.2 68.28 45 68.04"/><polyline class="cls-8" points="44.04 67.56 44.52 67.8 45 68.04"/><polyline class="cls-8" points="43.08 66.36 43.56 67.08 44.04 67.56"/><polyline class="cls-8" points="42.6 64.44 42.84 65.4 43.08 66.36"/><line class="cls-8" x1="45.72" y1="69.48" x2="45.72" y2="68.28"/><line class="cls-8" x1="45.96" y1="69.48" x2="45.72" y2="69.48"/><line class="cls-8" x1="48.6" y1="69.48" x2="45.96" y2="69.48"/><line class="cls-8" x1="48.84" y1="69.48" x2="48.6" y2="69.48"/><line class="cls-8" x1="48.84" y1="68.28" x2="48.84" y2="69.48"/><line class="cls-8" x1="51.96" y1="64.44" x2="51.96" y2="62.76"/><line class="cls-8" x1="42.6" y1="62.76" x2="42.6" y2="64.44"/><polyline class="cls-8" points="44.04 58.2 42.84 60.36 42.6 62.76"/><polyline class="cls-8" points="50.52 58.2 48.6 57 46.2 57 44.04 58.2"/><polyline class="cls-8" points="51.96 63 51.72 60.6 50.52 58.2"/><line class="cls-8" x1="51.48" y1="67.08" x2="43.32" y2="67.08"/><polyline class="cls-8" points="42.36 64.44 42.6 65.64 42.84 66.6 43.32 67.32 44.04 67.8 44.52 68.04 45 68.28"/><polyline class="cls-8" points="47.4 68.52 46.2 68.52 45 68.28"/><polyline class="cls-8" points="47.4 68.52 48.6 68.52 49.8 68.28"/><polyline class="cls-8" points="50.76 67.8 50.28 68.04 49.8 68.28"/><polyline class="cls-8" points="51.72 66.6 51.24 67.32 50.76 67.8"/><polyline class="cls-8" points="52.2 64.44 52.2 65.64 51.72 66.6"/><line class="cls-8" x1="43.08" y1="73.8" x2="51.48" y2="73.8"/><polyline class="cls-8" points="42.84 73.56 42.84 73.8 43.08 73.8"/><line class="cls-8" x1="42.36" y1="62.76" x2="42.84" y2="73.56"/><polyline class="cls-8" points="44.04 58.2 42.6 60.36 42.36 62.76"/><polyline class="cls-8" points="50.76 58.2 48.6 56.76 45.96 56.76 44.04 58.2"/><polyline class="cls-8" points="52.44 62.76 51.96 60.36 50.76 58.2"/><line class="cls-8" x1="51.96" y1="73.56" x2="52.44" y2="62.76"/><polyline class="cls-8" points="51.48 73.8 51.72 73.8 51.96 73.56"/><line class="cls-8" x1="51.72" y1="73.8" x2="42.84" y2="73.8"/><line class="cls-9" x1="51.72" y1="73.8" x2="51.72" y2="73.8"/><polyline class="cls-9" points="51.96 73.56 52.44 62.76 52.2 61.56 51.96 60.36 51.48 59.16 50.76 58.2 49.8 57.48 48.84 57 47.88 56.52 46.68 56.52 45.72 57 44.76 57.48 44.04 58.2 43.08 59.16 42.6 60.36 42.36 61.56 42.36 62.76 42.84 73.56"/><polyline class="cls-9" points="42.84 73.8 42.84 73.8 43.08 73.8"/><polyline class="cls-9" points="21.48 7.8 20.76 7.56 20.04 7.56"/><polyline class="cls-9" points="10.92 7.8 11.64 7.56 12.36 7.56"/><line class="cls-9" x1="22.92" y1="9.48" x2="22.68" y2="9"/><polyline class="cls-9" points="22.92 9.48 22.92 10.2 22.92 10.92"/><polyline class="cls-9" points="21.48 7.8 22.2 8.28 22.68 9"/><line class="cls-9" x1="9.48" y1="9.48" x2="9.48" y2="9"/><polyline class="cls-9" points="9.48 9.48 9.48 10.2 9.48 10.92"/><polyline class="cls-9" points="10.92 7.8 9.96 8.28 9.48 9"/><line class="cls-8" x1="9" y1="3.72" x2="23.16" y2="3.72"/><polyline class="cls-8" points="9 12.36 9.72 13.56 10.68 14.52"/><polyline class="cls-8" points="8.28 9.96 8.52 11.16 9 12.36"/><polyline class="cls-8" points="9 3.72 8.52 6.84 8.28 9.96"/><polyline class="cls-8" points="23.88 9.96 23.88 6.84 23.16 3.72"/><polyline class="cls-8" points="13.08 15.96 14.52 16.44 16.2 16.44"/><polyline class="cls-8" points="10.68 14.52 11.88 15.48 13.08 15.96"/><polyline class="cls-8" points="23.4 12.36 23.88 11.16 23.88 9.96"/><polyline class="cls-8" points="21.72 14.52 22.68 13.56 23.4 12.36"/><polyline class="cls-8" points="19.08 15.96 20.52 15.48 21.72 14.52"/><polyline class="cls-8" points="16.2 16.44 17.64 16.44 19.08 15.96"/><polyline class="cls-9" points="23.4 4.2 9 4.2 8.52 7.08 8.28 9.96 8.52 11.16 9 12.36 9.72 13.56 10.68 14.52 11.88 15.48 13.08 15.96 14.52 16.44 16.2 16.44 17.64 16.44 19.08 15.96 20.52 15.48 21.72 14.52 22.68 13.56 23.4 12.36 23.88 11.16 23.88 9.96 23.88 7.08 23.4 4.2"/><polyline class="cls-10" points="28.92 3.72 3.48 3.72 3.48 4.2 28.92 4.2 28.92 3.72"/><polyline class="cls-8" points="34.68 42.6 34.68 73.8 3.48 73.8 3.48 42.6 34.68 42.6"/><polyline class="cls-9" points="34.68 42.6 3.48 42.6 3.48 73.8 34.68 73.8 34.68 42.6"/><line class="cls-9" x1="34.68" y1="73.8" x2="43.08" y2="73.8"/><polyline class="cls-9" points="51.48 73.8 60.12 73.8 60.12 3.72 28.92 3.72"/><line class="cls-9" x1="3.48" y1="4.2" x2="3.48" y2="42.6"/><line class="cls-7" x1="92.28" y1="1.8" x2="94.68" y2="1.8"/><line class="cls-7" x1="96.36" y1="1.8" x2="98.52" y2="1.8"/><line class="cls-7" x1="100.2" y1="1.8" x2="102.36" y2="1.8"/><line class="cls-7" x1="104.04" y1="1.8" x2="106.2" y2="1.8"/><line class="cls-7" x1="107.88" y1="1.8" x2="110.04" y2="1.8"/><line class="cls-7" x1="111.72" y1="1.8" x2="113.88" y2="1.8"/><line class="cls-7" x1="115.56" y1="1.8" x2="117.72" y2="1.8"/><line class="cls-7" x1="119.4" y1="1.8" x2="121.56" y2="1.8"/><line class="cls-7" x1="123.24" y1="1.8" x2="125.4" y2="1.8"/><line class="cls-7" x1="127.08" y1="1.8" x2="129.24" y2="1.8"/><line class="cls-7" x1="130.92" y1="1.8" x2="133.08" y2="1.8"/><line class="cls-7" x1="134.76" y1="1.8" x2="136.92" y2="1.8"/><line class="cls-7" x1="138.6" y1="1.8" x2="140.76" y2="1.8"/><line class="cls-7" x1="142.44" y1="1.8" x2="144.6" y2="1.8"/><line class="cls-7" x1="146.28" y1="1.8" x2="148.2" y2="1.8"/><line class="cls-7" x1="150.12" y1="1.8" x2="152.52" y2="1.8"/><line class="cls-7" x1="152.52" y1="75.48" x2="152.52" y2="74.04"/><line class="cls-7" x1="152.52" y1="72.36" x2="152.52" y2="70.2"/><line class="cls-7" x1="152.52" y1="68.52" x2="152.52" y2="66.36"/><line class="cls-7" x1="152.52" y1="64.68" x2="152.52" y2="62.52"/><line class="cls-7" x1="152.52" y1="60.84" x2="152.52" y2="58.68"/><line class="cls-7" x1="152.52" y1="57" x2="152.52" y2="54.84"/><line class="cls-7" x1="152.52" y1="53.16" x2="152.52" y2="51"/><line class="cls-7" x1="152.52" y1="49.32" x2="152.52" y2="47.16"/><line class="cls-7" x1="152.52" y1="45.48" x2="152.52" y2="43.32"/><line class="cls-7" x1="152.52" y1="41.64" x2="152.52" y2="39.48"/><line class="cls-7" x1="152.52" y1="37.8" x2="152.52" y2="35.88"/><line class="cls-7" x1="152.52" y1="33.96" x2="152.52" y2="32.04"/><line class="cls-7" x1="152.52" y1="30.36" x2="152.52" y2="28.2"/><line class="cls-7" x1="152.52" y1="26.52" x2="152.52" y2="24.36"/><line class="cls-7" x1="152.52" y1="22.68" x2="152.52" y2="20.52"/><line class="cls-7" x1="152.52" y1="18.84" x2="152.52" y2="16.68"/><line class="cls-7" x1="152.52" y1="15" x2="152.52" y2="12.84"/><line class="cls-7" x1="152.52" y1="11.16" x2="152.52" y2="9"/><line class="cls-7" x1="152.52" y1="7.32" x2="152.52" y2="5.16"/><line class="cls-7" x1="152.52" y1="3.48" x2="152.52" y2="1.8"/><line class="cls-7" x1="152.52" y1="75.48" x2="150.12" y2="75.48"/><line class="cls-7" x1="148.2" y1="75.48" x2="146.28" y2="75.48"/><line class="cls-7" x1="144.6" y1="75.48" x2="142.44" y2="75.48"/><line class="cls-7" x1="140.76" y1="75.48" x2="138.6" y2="75.48"/><line class="cls-7" x1="136.92" y1="75.48" x2="134.76" y2="75.48"/><line class="cls-7" x1="133.08" y1="75.48" x2="130.92" y2="75.48"/><line class="cls-7" x1="129.24" y1="75.48" x2="127.08" y2="75.48"/><line class="cls-7" x1="125.4" y1="75.48" x2="123.24" y2="75.48"/><line class="cls-7" x1="121.56" y1="75.48" x2="119.4" y2="75.48"/><line class="cls-7" x1="117.72" y1="75.48" x2="115.56" y2="75.48"/><line class="cls-7" x1="113.88" y1="75.48" x2="111.72" y2="75.48"/><line class="cls-7" x1="110.04" y1="75.48" x2="107.88" y2="75.48"/><line class="cls-7" x1="106.2" y1="75.48" x2="104.04" y2="75.48"/><line class="cls-7" x1="102.36" y1="75.48" x2="100.2" y2="75.48"/><line class="cls-7" x1="98.52" y1="75.48" x2="96.36" y2="75.48"/><line class="cls-7" x1="94.68" y1="75.48" x2="92.28" y2="75.48"/><line class="cls-7" x1="92.28" y1="1.8" x2="92.28" y2="3.48"/><line class="cls-7" x1="92.28" y1="5.16" x2="92.28" y2="7.32"/><line class="cls-7" x1="92.28" y1="9" x2="92.28" y2="11.16"/><line class="cls-7" x1="92.28" y1="12.84" x2="92.28" y2="15"/><line class="cls-7" x1="92.28" y1="16.68" x2="92.28" y2="18.84"/><line class="cls-7" x1="92.28" y1="20.52" x2="92.28" y2="22.68"/><line class="cls-7" x1="92.28" y1="24.36" x2="92.28" y2="26.52"/><line class="cls-7" x1="92.28" y1="28.2" x2="92.28" y2="30.36"/><line class="cls-7" x1="92.28" y1="32.04" x2="92.28" y2="33.96"/><line class="cls-7" x1="92.28" y1="35.88" x2="92.28" y2="37.8"/><line class="cls-7" x1="92.28" y1="39.48" x2="92.28" y2="41.64"/><line class="cls-7" x1="92.28" y1="43.32" x2="92.28" y2="45.48"/><line class="cls-7" x1="92.28" y1="47.16" x2="92.28" y2="49.32"/><line class="cls-7" x1="92.28" y1="51" x2="92.28" y2="53.16"/><line class="cls-7" x1="92.28" y1="54.84" x2="92.28" y2="57"/><line class="cls-7" x1="92.28" y1="58.68" x2="92.28" y2="60.84"/><line class="cls-7" x1="92.28" y1="62.52" x2="92.28" y2="64.68"/><line class="cls-7" x1="92.28" y1="66.36" x2="92.28" y2="68.52"/><line class="cls-7" x1="92.28" y1="70.2" x2="92.28" y2="72.36"/><line class="cls-7" x1="92.28" y1="74.04" x2="92.28" y2="75.48"/><polyline class="cls-8" points="152.52 33.96 146.04 33.24 140.04 31.08 134.52 27.72 129.96 23.16 126.6 17.64 124.44 11.64 123.72 5.4"/><polyline class="cls-8" points="152.52 33.96 146.04 33.24 140.04 31.08 134.52 27.72 129.96 23.16 126.6 17.64 124.44 11.64 123.72 5.4"/><line class="cls-8" x1="152.52" y1="5.4" x2="123.72" y2="5.4"/><polyline class="cls-8" points="152.52 6.84 123.72 6.84 123.72 5.4 152.52 5.4 152.52 6.84"/><polyline class="cls-8" points="154.2 0.12 90.6 0.12 90.6 77.16 154.2 77.16 154.2 0.12"/><polyline class="cls-8" points="150.84 73.8 93.96 73.8 93.96 3.72 150.84 3.72 150.84 73.8"/><polyline class="cls-9" points="133.56 73.56 133.56 73.8 133.8 73.8 137.88 73.8 142.2 73.8 142.44 73.8 142.44 73.56 142.92 62.76 142.92 61.56 142.68 60.36 142.2 59.16 141.24 58.2 140.52 57.48 139.56 57 138.6 56.52 137.4 56.52 136.44 57 135.48 57.48 134.52 58.2 133.8 59.16 133.32 60.36 133.08 61.56 132.84 62.76 133.56 73.56"/><polyline class="cls-8" points="142.44 72.6 141.96 71.64 141 71.16 139.56 70.92 137.88 70.68 136.44 70.92 135 71.16 134.04 71.64 133.56 72.6"/><polyline class="cls-8" points="142.68 64.44 142.44 65.4 142.2 66.36 141.72 67.08 141.24 67.56 140.76 67.8 140.28 68.04"/><polyline class="cls-8" points="137.88 68.28 139.08 68.28 140.28 68.04"/><polyline class="cls-8" points="137.88 68.28 136.92 68.28 135.72 68.04"/><polyline class="cls-8" points="134.76 67.56 135.24 67.8 135.72 68.04"/><polyline class="cls-8" points="133.8 66.36 134.28 67.08 134.76 67.56"/><polyline class="cls-8" points="133.32 64.44 133.56 65.4 133.8 66.36"/><line class="cls-8" x1="136.44" y1="69.48" x2="136.44" y2="68.28"/><line class="cls-8" x1="136.68" y1="69.48" x2="136.44" y2="69.48"/><line class="cls-8" x1="139.32" y1="69.48" x2="136.68" y2="69.48"/><line class="cls-8" x1="139.56" y1="69.48" x2="139.32" y2="69.48"/><line class="cls-8" x1="139.56" y1="68.28" x2="139.56" y2="69.48"/><line class="cls-8" x1="142.68" y1="64.44" x2="142.68" y2="62.76"/><line class="cls-8" x1="133.32" y1="62.76" x2="133.32" y2="64.44"/><polyline class="cls-8" points="134.76 58.2 133.56 60.36 133.32 62.76"/><polyline class="cls-8" points="141.24 58.2 139.08 57 136.92 57 134.76 58.2"/><polyline class="cls-8" points="142.68 63 142.44 60.6 141.24 58.2"/><line class="cls-8" x1="141.96" y1="67.08" x2="134.04" y2="67.08"/><polyline class="cls-8" points="133.08 64.44 133.08 65.64 133.56 66.6 134.04 67.32 134.52 67.8 135 68.04 135.48 68.28"/><polyline class="cls-8" points="137.88 68.52 136.68 68.52 135.48 68.28"/><polyline class="cls-8" points="137.88 68.52 139.08 68.52 140.28 68.28"/><polyline class="cls-8" points="141.24 67.8 140.76 68.04 140.28 68.28"/><polyline class="cls-8" points="142.44 66.6 141.96 67.32 141.24 67.8"/><polyline class="cls-8" points="142.92 64.44 142.68 65.64 142.44 66.6"/><line class="cls-8" x1="133.8" y1="73.8" x2="142.2" y2="73.8"/><polyline class="cls-8" points="133.56 73.56 133.56 73.8 133.8 73.8"/><line class="cls-8" x1="132.84" y1="62.76" x2="133.56" y2="73.56"/><polyline class="cls-8" points="134.52 58.2 133.32 60.36 132.84 62.76"/><polyline class="cls-8" points="141.24 58.2 139.32 56.76 136.68 56.76 134.52 58.2"/><polyline class="cls-8" points="142.92 62.76 142.68 60.36 141.24 58.2"/><line class="cls-8" x1="142.44" y1="73.56" x2="142.92" y2="62.76"/><polyline class="cls-8" points="142.2 73.8 142.44 73.8 142.44 73.56"/><line class="cls-8" x1="142.44" y1="73.8" x2="133.56" y2="73.8"/><line class="cls-9" x1="142.2" y1="73.8" x2="142.44" y2="73.8"/><polyline class="cls-9" points="142.44 73.56 142.92 62.76 142.92 61.56 142.68 60.36 142.2 59.16 141.24 58.2 140.52 57.48 139.56 57 138.6 56.52 137.4 56.52 136.44 57 135.48 57.48 134.52 58.2 133.8 59.16 133.32 60.36 133.08 61.56 132.84 62.76 133.56 73.56"/><line class="cls-9" x1="133.56" y1="73.8" x2="133.56" y2="73.8"/><polyline class="cls-9" points="112.2 7.8 111.48 7.56 110.76 7.56"/><polyline class="cls-9" points="101.4 7.8 102.12 7.56 102.84 7.56"/><line class="cls-9" x1="113.4" y1="9.48" x2="113.4" y2="9"/><polyline class="cls-9" points="113.4 9.48 113.64 10.2 113.4 10.92"/><polyline class="cls-9" points="112.2 7.8 112.92 8.28 113.4 9"/><line class="cls-9" x1="100.2" y1="9.48" x2="100.2" y2="9"/><polyline class="cls-9" points="100.2 9.48 99.96 10.2 100.2 10.92"/><polyline class="cls-9" points="101.4 7.8 100.68 8.28 100.2 9"/><line class="cls-8" x1="99.72" y1="3.72" x2="113.88" y2="3.72"/><polyline class="cls-8" points="99.48 12.36 100.44 13.56 101.4 14.52"/><polyline class="cls-8" points="99 9.96 99.24 11.16 99.48 12.36"/><polyline class="cls-8" points="99.72 3.72 99.24 6.84 99 9.96"/><polyline class="cls-8" points="114.6 9.96 114.36 6.84 113.88 3.72"/><polyline class="cls-8" points="103.8 15.96 105.24 16.44 106.92 16.44"/><polyline class="cls-8" points="101.4 14.52 102.36 15.48 103.8 15.96"/><polyline class="cls-8" points="114.12 12.36 114.36 11.16 114.6 9.96"/><polyline class="cls-8" points="112.2 14.52 113.4 13.56 114.12 12.36"/><polyline class="cls-8" points="109.8 15.96 111.24 15.48 112.2 14.52"/><polyline class="cls-8" points="106.92 16.44 108.36 16.44 109.8 15.96"/><polyline class="cls-9" points="114.12 4.2 99.48 4.2 99.24 7.08 99 9.96 99.24 11.16 99.48 12.36 100.44 13.56 101.4 14.52 102.36 15.48 103.8 15.96 105.24 16.44 106.92 16.44 108.36 16.44 109.8 15.96 111.24 15.48 112.2 14.52 113.4 13.56 114.12 12.36 114.36 11.16 114.6 9.96 114.36 7.08 114.12 4.2"/><polyline class="cls-10" points="119.64 3.72 93.96 3.72 93.96 4.2 119.64 4.2 119.64 3.72"/><polyline class="cls-8" points="125.16 42.6 125.16 73.8 93.96 73.8 93.96 42.6 125.16 42.6"/><polyline class="cls-9" points="125.16 42.6 93.96 42.6 93.96 73.8 125.16 73.8 125.16 42.6"/><line class="cls-9" x1="125.16" y1="73.8" x2="133.8" y2="73.8"/><polyline class="cls-9" points="142.2 73.8 150.84 73.8 150.84 3.72 119.64 3.72"/><line class="cls-9" x1="93.96" y1="4.2" x2="93.96" y2="42.6"/></g></g></svg>