<svg xmlns="http://www.w3.org/2000/svg" viewBox="0 0 213.12 110.16"><defs><style>.cls-1{fill:#c6d3b4;}.cls-2,.cls-3{fill:none;stroke-linecap:round;stroke-linejoin:round;stroke-width:0.24px;}.cls-2{stroke:red;}.cls-3{stroke:#000;}</style></defs><title>ROOM-RECTANGLE-SINGLE_DOOR</title><g id="Layer_2" data-name="Layer 2"><g id="Layer_1-2" data-name="Layer 1"><rect class="cls-1" x="35.88" y="3.72" width="173.76" height="102.96"/><line class="cls-2" x1="33.96" y1="108.36" x2="33.96" y2="105.72"/><line class="cls-2" x1="33.96" y1="104.04" x2="33.96" y2="101.88"/><line class="cls-2" x1="33.96" y1="100.2" x2="33.96" y2="98.04"/><line class="cls-2" x1="33.96" y1="96.36" x2="33.96" y2="94.2"/><line class="cls-2" x1="33.96" y1="92.52" x2="33.96" y2="90.36"/><line class="cls-2" x1="33.96" y1="88.68" x2="33.96" y2="86.76"/><line class="cls-2" x1="33.96" y1="84.84" x2="33.96" y2="82.92"/><line class="cls-2" x1="33.96" y1="81.24" x2="33.96" y2="79.08"/><line class="cls-2" x1="33.96" y1="77.4" x2="33.96" y2="75.24"/><line class="cls-2" x1="33.96" y1="73.56" x2="33.96" y2="71.4"/><line class="cls-2" x1="33.96" y1="69.72" x2="33.96" y2="67.56"/><line class="cls-2" x1="33.96" y1="65.88" x2="33.96" y2="63.72"/><line class="cls-2" x1="33.96" y1="62.04" x2="33.96" y2="59.88"/><line class="cls-2" x1="33.96" y1="58.2" x2="33.96" y2="56.04"/><line class="cls-2" x1="33.96" y1="54.36" x2="33.96" y2="52.2"/><line class="cls-2" x1="33.96" y1="50.52" x2="33.96" y2="48.36"/><line class="cls-2" x1="33.96" y1="46.68" x2="33.96" y2="44.52"/><line class="cls-2" x1="33.96" y1="42.84" x2="33.96" y2="40.68"/><line class="cls-2" x1="33.96" y1="39" x2="33.96" y2="36.84"/><line class="cls-2" x1="33.96" y1="35.16" x2="33.96" y2="33"/><line class="cls-2" x1="33.96" y1="31.32" x2="33.96" y2="29.16"/><line class="cls-2" x1="33.96" y1="27.48" x2="33.96" y2="25.56"/><line class="cls-2" x1="33.96" y1="23.64" x2="33.96" y2="21.72"/><line class="cls-2" x1="33.96" y1="20.04" x2="33.96" y2="17.88"/><line class="cls-2" x1="33.96" y1="16.2" x2="33.96" y2="14.04"/><line class="cls-2" x1="33.96" y1="12.36" x2="33.96" y2="10.2"/><line class="cls-2" x1="33.96" y1="8.52" x2="33.96" y2="6.36"/><polyline class="cls-2" points="33.96 4.68 33.96 2.04 35.88 2.04"/><line class="cls-2" x1="37.56" y1="2.04" x2="39.72" y2="2.04"/><line class="cls-2" x1="41.4" y1="2.04" x2="43.56" y2="2.04"/><line class="cls-2" x1="45.24" y1="2.04" x2="47.4" y2="2.04"/><line class="cls-2" x1="49.08" y1="2.04" x2="51.24" y2="2.04"/><line class="cls-2" x1="52.92" y1="2.04" x2="54.84" y2="2.04"/><line class="cls-2" x1="56.76" y1="2.04" x2="58.68" y2="2.04"/><line class="cls-2" x1="60.6" y1="2.04" x2="62.52" y2="2.04"/><line class="cls-2" x1="64.2" y1="2.04" x2="66.36" y2="2.04"/><line class="cls-2" x1="68.04" y1="2.04" x2="70.2" y2="2.04"/><line class="cls-2" x1="71.88" y1="2.04" x2="74.04" y2="2.04"/><line class="cls-2" x1="75.72" y1="2.04" x2="77.88" y2="2.04"/><line class="cls-2" x1="79.56" y1="2.04" x2="81.72" y2="2.04"/><line class="cls-2" x1="83.4" y1="2.04" x2="85.56" y2="2.04"/><line class="cls-2" x1="87.24" y1="2.04" x2="89.4" y2="2.04"/><line class="cls-2" x1="91.08" y1="2.04" x2="93.24" y2="2.04"/><line class="cls-2" x1="94.92" y1="2.04" x2="97.08" y2="2.04"/><line class="cls-2" x1="98.76" y1="2.04" x2="100.92" y2="2.04"/><line class="cls-2" x1="102.6" y1="2.04" x2="104.76" y2="2.04"/><line class="cls-2" x1="106.44" y1="2.04" x2="108.6" y2="2.04"/><line class="cls-2" x1="110.28" y1="2.04" x2="112.44" y2="2.04"/><line class="cls-2" x1="114.12" y1="2.04" x2="116.04" y2="2.04"/><line class="cls-2" x1="117.96" y1="2.04" x2="119.88" y2="2.04"/><line class="cls-2" x1="121.8" y1="2.04" x2="123.72" y2="2.04"/><line class="cls-2" x1="125.4" y1="2.04" x2="127.56" y2="2.04"/><line class="cls-2" x1="129.24" y1="2.04" x2="131.4" y2="2.04"/><line class="cls-2" x1="133.08" y1="2.04" x2="135.24" y2="2.04"/><line class="cls-2" x1="136.92" y1="2.04" x2="139.08" y2="2.04"/><line class="cls-2" x1="140.76" y1="2.04" x2="142.92" y2="2.04"/><line class="cls-2" x1="144.6" y1="2.04" x2="146.76" y2="2.04"/><line class="cls-2" x1="148.44" y1="2.04" x2="150.6" y2="2.04"/><line class="cls-2" x1="152.28" y1="2.04" x2="154.44" y2="2.04"/><line class="cls-2" x1="156.12" y1="2.04" x2="158.28" y2="2.04"/><line class="cls-2" x1="159.96" y1="2.04" x2="162.12" y2="2.04"/><line class="cls-2" x1="163.8" y1="2.04" x2="165.96" y2="2.04"/><line class="cls-2" x1="167.64" y1="2.04" x2="169.8" y2="2.04"/><line class="cls-2" x1="171.48" y1="2.04" x2="173.64" y2="2.04"/><line class="cls-2" x1="175.32" y1="2.04" x2="177.24" y2="2.04"/><line class="cls-2" x1="179.16" y1="2.04" x2="181.08" y2="2.04"/><line class="cls-2" x1="182.76" y1="2.04" x2="184.92" y2="2.04"/><line class="cls-2" x1="186.6" y1="2.04" x2="188.76" y2="2.04"/><line class="cls-2" x1="190.44" y1="2.04" x2="192.6" y2="2.04"/><line class="cls-2" x1="194.28" y1="2.04" x2="196.44" y2="2.04"/><line class="cls-2" x1="198.12" y1="2.04" x2="200.28" y2="2.04"/><line class="cls-2" x1="201.96" y1="2.04" x2="204.12" y2="2.04"/><line class="cls-2" x1="205.8" y1="2.04" x2="207.96" y2="2.04"/><polyline class="cls-2" points="209.64 2.04 211.32 2.04 211.32 4.68"/><line class="cls-2" x1="211.32" y1="6.36" x2="211.32" y2="8.52"/><line class="cls-2" x1="211.32" y1="10.2" x2="211.32" y2="12.36"/><line class="cls-2" x1="211.32" y1="14.04" x2="211.32" y2="16.2"/><line class="cls-2" x1="211.32" y1="17.88" x2="211.32" y2="20.04"/><line class="cls-2" x1="211.32" y1="21.72" x2="211.32" y2="23.64"/><line class="cls-2" x1="211.32" y1="25.56" x2="211.32" y2="27.48"/><line class="cls-2" x1="211.32" y1="29.16" x2="211.32" y2="31.32"/><line class="cls-2" x1="211.32" y1="33" x2="211.32" y2="35.16"/><line class="cls-2" x1="211.32" y1="36.84" x2="211.32" y2="39"/><line class="cls-2" x1="211.32" y1="40.68" x2="211.32" y2="42.84"/><line class="cls-2" x1="211.32" y1="44.52" x2="211.32" y2="46.68"/><line class="cls-2" x1="211.32" y1="48.36" x2="211.32" y2="50.52"/><line class="cls-2" x1="211.32" y1="52.2" x2="211.32" y2="54.36"/><line class="cls-2" x1="211.32" y1="56.04" x2="211.32" y2="58.2"/><line class="cls-2" x1="211.32" y1="59.88" x2="211.32" y2="62.04"/><line class="cls-2" x1="211.32" y1="63.72" x2="211.32" y2="65.88"/><line class="cls-2" x1="211.32" y1="67.56" x2="211.32" y2="69.72"/><line class="cls-2" x1="211.32" y1="71.4" x2="211.32" y2="73.56"/><line class="cls-2" x1="211.32" y1="75.24" x2="211.32" y2="77.4"/><line class="cls-2" x1="211.32" y1="79.08" x2="211.32" y2="81.24"/><line class="cls-2" x1="211.32" y1="82.92" x2="211.32" y2="84.84"/><line class="cls-2" x1="211.32" y1="86.76" x2="211.32" y2="88.68"/><line class="cls-2" x1="211.32" y1="90.36" x2="211.32" y2="92.52"/><line class="cls-2" x1="211.32" y1="94.2" x2="211.32" y2="96.36"/><line class="cls-2" x1="211.32" y1="98.04" x2="211.32" y2="100.2"/><line class="cls-2" x1="211.32" y1="101.88" x2="211.32" y2="104.04"/><polyline class="cls-2" points="211.32 105.72 211.32 108.36 209.64 108.36"/><line class="cls-2" x1="207.96" y1="108.36" x2="205.8" y2="108.36"/><line class="cls-2" x1="204.12" y1="108.36" x2="201.96" y2="108.36"/><line class="cls-2" x1="200.28" y1="108.36" x2="198.12" y2="108.36"/><line class="cls-2" x1="196.44" y1="108.36" x2="194.28" y2="108.36"/><line class="cls-2" x1="192.6" y1="108.36" x2="190.44" y2="108.36"/><line class="cls-2" x1="188.76" y1="108.36" x2="186.6" y2="108.36"/><line class="cls-2" x1="184.92" y1="108.36" x2="182.76" y2="108.36"/><line class="cls-2" x1="181.08" y1="108.36" x2="179.16" y2="108.36"/><line class="cls-2" x1="177.24" y1="108.36" x2="175.32" y2="108.36"/><line class="cls-2" x1="173.64" y1="108.36" x2="171.48" y2="108.36"/><line class="cls-2" x1="169.8" y1="108.36" x2="167.64" y2="108.36"/><line class="cls-2" x1="165.96" y1="108.36" x2="163.8" y2="108.36"/><line class="cls-2" x1="162.12" y1="108.36" x2="159.96" y2="108.36"/><line class="cls-2" x1="158.28" y1="108.36" x2="156.12" y2="108.36"/><line class="cls-2" x1="154.44" y1="108.36" x2="152.28" y2="108.36"/><line class="cls-2" x1="150.6" y1="108.36" x2="148.44" y2="108.36"/><line class="cls-2" x1="146.76" y1="108.36" x2="144.6" y2="108.36"/><line class="cls-2" x1="142.92" y1="108.36" x2="140.76" y2="108.36"/><line class="cls-2" x1="139.08" y1="108.36" x2="136.92" y2="108.36"/><line class="cls-2" x1="135.24" y1="108.36" x2="133.08" y2="108.36"/><line class="cls-2" x1="131.4" y1="108.36" x2="129.24" y2="108.36"/><line class="cls-2" x1="127.56" y1="108.36" x2="125.4" y2="108.36"/><line class="cls-2" x1="123.72" y1="108.36" x2="121.8" y2="108.36"/><line class="cls-2" x1="119.88" y1="108.36" x2="117.96" y2="108.36"/><line class="cls-2" x1="116.04" y1="108.36" x2="114.12" y2="108.36"/><line class="cls-2" x1="112.44" y1="108.36" x2="110.28" y2="108.36"/><line class="cls-2" x1="108.6" y1="108.36" x2="106.44" y2="108.36"/><line class="cls-2" x1="104.76" y1="108.36" x2="102.6" y2="108.36"/><line class="cls-2" x1="100.92" y1="108.36" x2="98.76" y2="108.36"/><line class="cls-2" x1="97.08" y1="108.36" x2="94.92" y2="108.36"/><line class="cls-2" x1="93.24" y1="108.36" x2="91.08" y2="108.36"/><line class="cls-2" x1="89.4" y1="108.36" x2="87.24" y2="108.36"/><line class="cls-2" x1="85.56" y1="108.36" x2="83.4" y2="108.36"/><line class="cls-2" x1="81.72" y1="108.36" x2="79.56" y2="108.36"/><line class="cls-2" x1="77.88" y1="108.36" x2="75.72" y2="108.36"/><line class="cls-2" x1="74.04" y1="108.36" x2="71.88" y2="108.36"/><line class="cls-2" x1="70.2" y1="108.36" x2="68.04" y2="108.36"/><line class="cls-2" x1="66.36" y1="108.36" x2="64.2" y2="108.36"/><line class="cls-2" x1="62.52" y1="108.36" x2="60.6" y2="108.36"/><line class="cls-2" x1="58.68" y1="108.36" x2="56.76" y2="108.36"/><line class="cls-2" x1="54.84" y1="108.36" x2="52.92" y2="108.36"/><line class="cls-2" x1="51.24" y1="108.36" x2="49.08" y2="108.36"/><line class="cls-2" x1="47.4" y1="108.36" x2="45.24" y2="108.36"/><line class="cls-2" x1="43.56" y1="108.36" x2="41.4" y2="108.36"/><line class="cls-2" x1="39.72" y1="108.36" x2="37.56" y2="108.36"/><line class="cls-2" x1="35.88" y1="108.36" x2="33.96" y2="108.36"/><polyline class="cls-3" points="33.96 71.64 26.52 72.6 19.32 75 12.84 79.08 7.56 84.36 3.48 90.84 0.84 98.04 0.12 105.72"/><polyline class="cls-3" points="33.96 71.64 26.52 72.6 19.32 75 12.84 79.08 7.56 84.36 3.48 90.84 0.84 98.04 0.12 105.72"/><line class="cls-3" x1="33.96" y1="105.72" x2="0.12" y2="105.72"/><polyline class="cls-3" points="33.96 104.28 0.12 104.28 0.12 105.72 33.96 105.72 33.96 104.28"/><polyline class="cls-3" points="211.32 76.92 205.08 77.64 199.08 79.8 193.56 83.16 189 87.72 185.64 93.24 183.48 99.24 182.76 105.72"/><polyline class="cls-3" points="211.32 76.92 205.08 77.64 199.08 79.8 193.56 83.16 189 87.72 185.64 93.24 183.48 99.24 182.76 105.72"/><line class="cls-3" x1="211.32" y1="105.72" x2="182.76" y2="105.72"/><polyline class="cls-3" points="211.32 104.28 182.76 104.28 182.76 105.72 211.32 105.72 211.32 104.28"/><polyline class="cls-3" points="209.64 3.72 209.64 106.68 35.88 106.68 35.88 3.72 209.64 3.72"/><polyline class="cls-3" points="32.28 0.12 32.28 110.04 213 110.04 213 0.12"/><line class="cls-3" x1="213" y1="0.12" x2="32.28" y2="0.12"/><line class="cls-3" x1="209.64" y1="106.68" x2="209.64" y2="103.8"/><line class="cls-3" x1="209.64" y1="102.12" x2="209.64" y2="99.96"/><line class="cls-3" x1="209.64" y1="98.28" x2="209.64" y2="96.12"/><line class="cls-3" x1="209.64" y1="94.44" x2="209.64" y2="92.28"/><line class="cls-3" x1="209.64" y1="90.6" x2="209.64" y2="88.44"/><line class="cls-3" x1="209.64" y1="86.76" x2="209.64" y2="84.84"/><line class="cls-3" x1="209.64" y1="82.92" x2="209.64" y2="81"/><line class="cls-3" x1="209.64" y1="79.32" x2="209.64" y2="77.16"/><line class="cls-3" x1="209.64" y1="75.48" x2="209.64" y2="73.32"/><line class="cls-3" x1="209.64" y1="71.64" x2="209.64" y2="69.48"/><line class="cls-3" x1="209.64" y1="67.8" x2="209.64" y2="65.64"/><line class="cls-3" x1="209.64" y1="63.96" x2="209.64" y2="61.8"/><line class="cls-3" x1="209.64" y1="60.12" x2="209.64" y2="57.96"/><line class="cls-3" x1="209.64" y1="56.28" x2="209.64" y2="54.12"/><line class="cls-3" x1="209.64" y1="52.44" x2="209.64" y2="50.28"/><line class="cls-3" x1="209.64" y1="48.6" x2="209.64" y2="46.44"/><line class="cls-3" x1="209.64" y1="44.76" x2="209.64" y2="42.6"/><line class="cls-3" x1="209.64" y1="40.92" x2="209.64" y2="38.76"/><line class="cls-3" x1="209.64" y1="37.08" x2="209.64" y2="34.92"/><line class="cls-3" x1="209.64" y1="33.24" x2="209.64" y2="31.08"/><line class="cls-3" x1="209.64" y1="29.4" x2="209.64" y2="27.48"/><line class="cls-3" x1="209.64" y1="25.56" x2="209.64" y2="23.64"/><line class="cls-3" x1="209.64" y1="21.72" x2="209.64" y2="19.8"/><line class="cls-3" x1="209.64" y1="18.12" x2="209.64" y2="15.96"/><line class="cls-3" x1="209.64" y1="14.28" x2="209.64" y2="12.12"/><line class="cls-3" x1="209.64" y1="10.44" x2="209.64" y2="8.28"/><polyline class="cls-3" points="209.64 6.6 209.64 3.72 207.72 3.72"/><line class="cls-3" x1="206.04" y1="3.72" x2="203.88" y2="3.72"/><line class="cls-3" x1="202.2" y1="3.72" x2="200.04" y2="3.72"/><line class="cls-3" x1="198.36" y1="3.72" x2="196.2" y2="3.72"/><line class="cls-3" x1="194.52" y1="3.72" x2="192.36" y2="3.72"/><line class="cls-3" x1="190.68" y1="3.72" x2="188.52" y2="3.72"/><line class="cls-3" x1="186.84" y1="3.72" x2="184.68" y2="3.72"/><line class="cls-3" x1="183" y1="3.72" x2="181.08" y2="3.72"/><line class="cls-3" x1="179.16" y1="3.72" x2="177.24" y2="3.72"/><line class="cls-3" x1="175.32" y1="3.72" x2="173.4" y2="3.72"/><line class="cls-3" x1="171.72" y1="3.72" x2="169.56" y2="3.72"/><line class="cls-3" x1="167.88" y1="3.72" x2="165.72" y2="3.72"/><line class="cls-3" x1="164.04" y1="3.72" x2="161.88" y2="3.72"/><line class="cls-3" x1="160.2" y1="3.72" x2="158.04" y2="3.72"/><line class="cls-3" x1="156.36" y1="3.72" x2="154.2" y2="3.72"/><line class="cls-3" x1="152.52" y1="3.72" x2="150.36" y2="3.72"/><line class="cls-3" x1="148.68" y1="3.72" x2="146.52" y2="3.72"/><line class="cls-3" x1="144.84" y1="3.72" x2="142.68" y2="3.72"/><line class="cls-3" x1="141" y1="3.72" x2="138.84" y2="3.72"/><line class="cls-3" x1="137.16" y1="3.72" x2="135" y2="3.72"/><line class="cls-3" x1="133.32" y1="3.72" x2="131.16" y2="3.72"/><line class="cls-3" x1="129.48" y1="3.72" x2="127.32" y2="3.72"/><line class="cls-3" x1="125.64" y1="3.72" x2="123.48" y2="3.72"/><line class="cls-3" x1="121.8" y1="3.72" x2="119.88" y2="3.72"/><line class="cls-3" x1="117.96" y1="3.72" x2="116.04" y2="3.72"/><line class="cls-3" x1="114.36" y1="3.72" x2="112.2" y2="3.72"/><line class="cls-3" x1="110.52" y1="3.72" x2="108.36" y2="3.72"/><line class="cls-3" x1="106.68" y1="3.72" x2="104.52" y2="3.72"/><line class="cls-3" x1="102.84" y1="3.72" x2="100.68" y2="3.72"/><line class="cls-3" x1="99" y1="3.72" x2="96.84" y2="3.72"/><line class="cls-3" x1="95.16" y1="3.72" x2="93" y2="3.72"/><line class="cls-3" x1="91.32" y1="3.72" x2="89.16" y2="3.72"/><line class="cls-3" x1="87.48" y1="3.72" x2="85.32" y2="3.72"/><line class="cls-3" x1="83.64" y1="3.72" x2="81.48" y2="3.72"/><line class="cls-3" x1="79.8" y1="3.72" x2="77.64" y2="3.72"/><line class="cls-3" x1="75.96" y1="3.72" x2="73.8" y2="3.72"/><line class="cls-3" x1="72.12" y1="3.72" x2="69.96" y2="3.72"/><line class="cls-3" x1="68.28" y1="3.72" x2="66.12" y2="3.72"/><line class="cls-3" x1="64.44" y1="3.72" x2="62.28" y2="3.72"/><line class="cls-3" x1="60.6" y1="3.72" x2="58.68" y2="3.72"/><line class="cls-3" x1="56.76" y1="3.72" x2="54.84" y2="3.72"/><line class="cls-3" x1="53.16" y1="3.72" x2="51" y2="3.72"/><line class="cls-3" x1="49.32" y1="3.72" x2="47.16" y2="3.72"/><line class="cls-3" x1="45.48" y1="3.72" x2="43.32" y2="3.72"/><line class="cls-3" x1="41.64" y1="3.72" x2="39.48" y2="3.72"/><polyline class="cls-3" points="37.8 3.72 35.88 3.72 35.88 6.6"/><line class="cls-3" x1="35.88" y1="8.28" x2="35.88" y2="10.44"/><line class="cls-3" x1="35.88" y1="12.12" x2="35.88" y2="14.28"/><line class="cls-3" x1="35.88" y1="15.96" x2="35.88" y2="18.12"/><line class="cls-3" x1="35.88" y1="19.8" x2="35.88" y2="21.72"/><line class="cls-3" x1="35.88" y1="23.64" x2="35.88" y2="25.56"/><line class="cls-3" x1="35.88" y1="27.48" x2="35.88" y2="29.4"/><line class="cls-3" x1="35.88" y1="31.08" x2="35.88" y2="33.24"/><line class="cls-3" x1="35.88" y1="34.92" x2="35.88" y2="37.08"/><line class="cls-3" x1="35.88" y1="38.76" x2="35.88" y2="40.92"/><line class="cls-3" x1="35.88" y1="42.6" x2="35.88" y2="44.76"/><line class="cls-3" x1="35.88" y1="46.44" x2="35.88" y2="48.6"/><line class="cls-3" x1="35.88" y1="50.28" x2="35.88" y2="52.44"/><line class="cls-3" x1="35.88" y1="54.12" x2="35.88" y2="56.28"/><line class="cls-3" x1="35.88" y1="57.96" x2="35.88" y2="60.12"/><line class="cls-3" x1="35.88" y1="61.8" x2="35.88" y2="63.96"/><line class="cls-3" x1="35.88" y1="65.64" x2="35.88" y2="67.8"/><line class="cls-3" x1="35.88" y1="69.48" x2="35.88" y2="71.64"/><line class="cls-3" x1="35.88" y1="73.32" x2="35.88" y2="75.48"/><line class="cls-3" x1="35.88" y1="77.16" x2="35.88" y2="79.32"/><line class="cls-3" x1="35.88" y1="81" x2="35.88" y2="82.92"/><line class="cls-3" x1="35.88" y1="84.84" x2="35.88" y2="86.76"/><line class="cls-3" x1="35.88" y1="88.44" x2="35.88" y2="90.6"/><line class="cls-3" x1="35.88" y1="92.28" x2="35.88" y2="94.44"/><line class="cls-3" x1="35.88" y1="96.12" x2="35.88" y2="98.28"/><line class="cls-3" x1="35.88" y1="99.96" x2="35.88" y2="102.12"/><polyline class="cls-3" points="35.88 103.8 35.88 106.68 37.8 106.68"/><line class="cls-3" x1="39.48" y1="106.68" x2="41.64" y2="106.68"/><line class="cls-3" x1="43.32" y1="106.68" x2="45.48" y2="106.68"/><line class="cls-3" x1="47.16" y1="106.68" x2="49.32" y2="106.68"/><line class="cls-3" x1="51" y1="106.68" x2="53.16" y2="106.68"/><line class="cls-3" x1="54.84" y1="106.68" x2="56.76" y2="106.68"/><line class="cls-3" x1="58.68" y1="106.68" x2="60.6" y2="106.68"/><line class="cls-3" x1="62.28" y1="106.68" x2="64.44" y2="106.68"/><line class="cls-3" x1="66.12" y1="106.68" x2="68.28" y2="106.68"/><line class="cls-3" x1="69.96" y1="106.68" x2="72.12" y2="106.68"/><line class="cls-3" x1="73.8" y1="106.68" x2="75.96" y2="106.68"/><line class="cls-3" x1="77.64" y1="106.68" x2="79.8" y2="106.68"/><line class="cls-3" x1="81.48" y1="106.68" x2="83.64" y2="106.68"/><line class="cls-3" x1="85.32" y1="106.68" x2="87.48" y2="106.68"/><line class="cls-3" x1="89.16" y1="106.68" x2="91.32" y2="106.68"/><line class="cls-3" x1="93" y1="106.68" x2="95.16" y2="106.68"/><line class="cls-3" x1="96.84" y1="106.68" x2="99" y2="106.68"/><line class="cls-3" x1="100.68" y1="106.68" x2="102.84" y2="106.68"/><line class="cls-3" x1="104.52" y1="106.68" x2="106.68" y2="106.68"/><line class="cls-3" x1="108.36" y1="106.68" x2="110.52" y2="106.68"/><line class="cls-3" x1="112.2" y1="106.68" x2="114.36" y2="106.68"/><line class="cls-3" x1="116.04" y1="106.68" x2="117.96" y2="106.68"/><line class="cls-3" x1="119.88" y1="106.68" x2="121.8" y2="106.68"/><line class="cls-3" x1="123.48" y1="106.68" x2="125.64" y2="106.68"/><line class="cls-3" x1="127.32" y1="106.68" x2="129.48" y2="106.68"/><line class="cls-3" x1="131.16" y1="106.68" x2="133.32" y2="106.68"/><line class="cls-3" x1="135" y1="106.68" x2="137.16" y2="106.68"/><line class="cls-3" x1="138.84" y1="106.68" x2="141" y2="106.68"/><line class="cls-3" x1="142.68" y1="106.68" x2="144.84" y2="106.68"/><line class="cls-3" x1="146.52" y1="106.68" x2="148.68" y2="106.68"/><line class="cls-3" x1="150.36" y1="106.68" x2="152.52" y2="106.68"/><line class="cls-3" x1="154.2" y1="106.68" x2="156.36" y2="106.68"/><line class="cls-3" x1="158.04" y1="106.68" x2="160.2" y2="106.68"/><line class="cls-3" x1="161.88" y1="106.68" x2="164.04" y2="106.68"/><line class="cls-3" x1="165.72" y1="106.68" x2="167.88" y2="106.68"/><line class="cls-3" x1="169.56" y1="106.68" x2="171.72" y2="106.68"/><line class="cls-3" x1="173.4" y1="106.68" x2="175.32" y2="106.68"/><line class="cls-3" x1="177.24" y1="106.68" x2="179.16" y2="106.68"/><line class="cls-3" x1="181.08" y1="106.68" x2="183" y2="106.68"/><line class="cls-3" x1="184.68" y1="106.68" x2="186.84" y2="106.68"/><line class="cls-3" x1="188.52" y1="106.68" x2="190.68" y2="106.68"/><line class="cls-3" x1="192.36" y1="106.68" x2="194.52" y2="106.68"/><line class="cls-3" x1="196.2" y1="106.68" x2="198.36" y2="106.68"/><line class="cls-3" x1="200.04" y1="106.68" x2="202.2" y2="106.68"/><line class="cls-3" x1="203.88" y1="106.68" x2="206.04" y2="106.68"/><line class="cls-3" x1="207.72" y1="106.68" x2="209.64" y2="106.68"/></g></g></svg>