<svg xmlns="http://www.w3.org/2000/svg" xmlns:xlink="http://www.w3.org/1999/xlink" viewBox="0 0 113.64 113.76"><defs><style>.cls-1,.cls-2,.cls-6,.cls-7{fill:none;}.cls-1{clip-rule:evenodd;}.cls-3{clip-path:url(#clip-path);}.cls-4{clip-path:url(#clip-path-2);}.cls-5{fill:#c6d3b4;}.cls-6,.cls-7{stroke:#000;stroke-linecap:round;stroke-linejoin:round;}.cls-6{stroke-width:0.24px;}.cls-7{stroke-width:0.48px;}.cls-8{clip-path:url(#clip-path-3);}.cls-9{clip-path:url(#clip-path-4);}.cls-10{clip-path:url(#clip-path-5);}.cls-11{clip-path:url(#clip-path-6);}.cls-12{clip-path:url(#clip-path-7);}</style><clipPath id="clip-path" transform="translate(-481.32 -728.41)"><path class="cls-1" d="M481.44,789.85l.48,4.32.24,1,.72,3.6c1,2.77,1.45,5.69,2.64,8.4l1.68,3.36.24.72c.94,1.29,1.72,3.18,2.64,4.56l.24.24.24.48.24.24.24.48.24.24.24.48.24.24.24.48.72.72.24.48.72.72.24.48.72.72.24.48,2.64,2.64.24.48.48.24,2.88,2.88.48.24.24.24.48.24.48.48.48.24c1.69,1.49,4.37,2.87,6.24,4.32l1,.48.24.24c5.36,3.49,12,5.08,18.24,6.48l2.4.24,2.16.24h9.12v-.24h2.16v-.24H547v-.24h1V841h1.2v-.24h1.2v-.24h1.2v-.24h.72V840H553v-.24h1v-.24h.72v-.24h1V839h.72v-.24H557v-.24h.72v-.24h.72v-.24h.72v-.24h.72v-.24h.48v-.24h.48v-.24h.48v-.24h.48v-.24h.48v-.24h.48v-.24h.48v-.24H564v-.24l.24-.24h.48v-.24h.48V835h.48v-.24l.24-.24h.48v-.24h.48V834h.48v-.24h.48v-.24l.48-.48h.48v-.24l.48-.48h.48v-.24l.48-.48h.48v-.24l.24-.24h.48v-.24l.48-.48h.48v-.24l.48-.48h.48v-.24l.48-.48h.48v-.24l.24-.24H575v-.24l6-6c1.22-2,2.84-3.76,4.08-5.76l.48-.48.24-.48.48-.48c.52-1.44,1.92-3.09,2.4-4.56l1.68-3.36,1.44-4.32c.59-2.58,1.72-5,1.92-7.68l.24-1,.48-4.32.24-8.88h-.24l-.24-2.4-.24-2.16-.24-1.2-.24-1-.24-1.2-.72-2.88-.24-.72-.24-1-1.44-4.32-.24-.48-.24-.72-2.64-5.28-.24-.24-.72-1.44-.24-.24c-.89-1.54-2.1-2.87-3.12-4.32L583,751l-.48-.48-.24-.48a54,54,0,0,0-16.32-13.92l-.24-.24-5.28-2.64L553.92,731a51.11,51.11,0,0,0-11.52-2.16l-8.64-.24v.24h-2.4v.24H529.2v.24H528v.24h-1v.24h-1.2v.24h-1v.24h-1v.24h-1v.24h-.72V731h-1v.24h-.72v.24h-.72v.24h-.72V732h-.72v.24h-.72v.24H517v.24h-.48V733h-.72v.24h-.48v.24h-.48v.24h-.48v.24h-.48v.24h-.48v.24h-.48v.24h-.48v.24h-.48v.24h-.48v.24H511v.24h-.48l-.24.24v.24h-.48v.24h-.48v.24h-.48l-.24.24V737h-.48l-.24.24v.24h-.48l-.24.24V738h-.48l-.24.24v.24h-.48l-.24.24V739h-.48l-.24.24v.24h-.48l-.72.72v.24h-.48l-.72.72v.24h-.48l-.72.72v.24h-.48l-1.2,1.2v.24h-.48c-9.46,9.21-16,21.41-17.52,34.8l-.24,2.4"/></clipPath><clipPath id="clip-path-2" transform="translate(-481.32 -728.41)"><rect class="cls-2" width="595.2" height="841.92"/></clipPath><clipPath id="clip-path-3" transform="translate(-481.32 -728.41)"><rect class="cls-2" x="522.72" y="839.29" width="11.04" height="2.63"/></clipPath><clipPath id="clip-path-4" transform="translate(-481.32 -728.41)"><rect class="cls-2" x="532.56" y="841.21" width="11.52" height="0.71"/></clipPath><clipPath id="clip-path-5" transform="translate(-481.32 -728.41)"><rect class="cls-2" x="542.88" y="839.29" width="11.04" height="2.63"/></clipPath><clipPath id="clip-path-6" transform="translate(-481.32 -728.41)"><rect class="cls-2" x="593.04" y="787.21" width="1.92" height="11.28"/></clipPath><clipPath id="clip-path-7" transform="translate(-481.32 -728.41)"><rect class="cls-2" x="593.76" y="777.13" width="1.2" height="11.28"/></clipPath></defs><title>ROOM-CIRCLE-BAY</title><g id="Layer_2" data-name="Layer 2"><g id="Layer_1-2" data-name="Layer 1"><g class="cls-3"><g class="cls-4"><rect class="cls-5" x="0.12" y="0.24" width="113.28" height="113.27"/></g></g><line class="cls-6" x1="56.76" y1="0.24" x2="54.84" y2="0.48"/><line class="cls-6" x1="53.16" y1="0.72" x2="51" y2="0.96"/><line class="cls-6" x1="49.32" y1="0.96" x2="47.16" y2="1.2"/><line class="cls-6" x1="45.48" y1="1.68" x2="43.32" y2="2.16"/><line class="cls-6" x1="41.88" y1="2.64" x2="39.72" y2="3.12"/><polyline class="cls-6" points="38.04 3.6 36.84 3.84 36.12 4.32"/><line class="cls-6" x1="34.68" y1="5.04" x2="32.76" y2="6"/><line class="cls-6" x1="31.08" y1="6.72" x2="29.16" y2="7.68"/><line class="cls-6" x1="27.72" y1="8.4" x2="26.04" y2="9.6"/><line class="cls-6" x1="24.6" y1="10.56" x2="22.92" y2="12"/><line class="cls-6" x1="21.48" y1="12.96" x2="19.8" y2="14.16"/><line class="cls-6" x1="18.6" y1="15.36" x2="17.16" y2="16.8"/><line class="cls-6" x1="15.96" y1="18" x2="14.52" y2="19.68"/><polyline class="cls-6" points="13.32 20.88 12.6 21.6 11.88 22.56"/><line class="cls-6" x1="11.16" y1="24" x2="9.96" y2="25.68"/><line class="cls-6" x1="9" y1="27.12" x2="7.8" y2="28.8"/><line class="cls-6" x1="6.84" y1="30.24" x2="6.12" y2="32.4"/><line class="cls-6" x1="5.4" y1="33.84" x2="4.44" y2="35.76"/><line class="cls-6" x1="3.96" y1="37.44" x2="3" y2="39.36"/><line class="cls-6" x1="2.52" y1="41.04" x2="2.04" y2="42.96"/><line class="cls-6" x1="1.8" y1="44.64" x2="1.32" y2="46.8"/><polyline class="cls-6" points="0.84 48.48 0.6 49.44 0.6 50.4"/><line class="cls-6" x1="0.6" y1="52.32" x2="0.6" y2="54.24"/><line class="cls-6" x1="0.36" y1="55.92" x2="0.36" y2="58.08"/><line class="cls-6" x1="0.36" y1="59.76" x2="0.6" y2="61.92"/><line class="cls-6" x1="0.84" y1="63.6" x2="1.08" y2="65.76"/><line class="cls-6" x1="1.32" y1="67.44" x2="1.56" y2="69.6"/><line class="cls-6" x1="2.04" y1="71.04" x2="2.76" y2="73.2"/><line class="cls-6" x1="3.24" y1="74.88" x2="3.96" y2="76.8"/><polyline class="cls-6" points="4.44 78.48 4.68 79.2 5.4 80.4"/><line class="cls-6" x1="6.12" y1="81.84" x2="7.08" y2="83.76"/><line class="cls-6" x1="8.04" y1="85.2" x2="9" y2="87.12"/><line class="cls-6" x1="9.96" y1="88.56" x2="11.16" y2="90.24"/><line class="cls-6" x1="12.12" y1="91.44" x2="13.56" y2="93.12"/><line class="cls-6" x1="14.52" y1="94.56" x2="15.96" y2="96.24"/><line class="cls-6" x1="17.16" y1="97.2" x2="18.84" y2="98.64"/><line class="cls-6" x1="20.04" y1="99.84" x2="21.72" y2="101.28"/><polyline class="cls-6" points="22.92 102.24 23.64 102.72 24.6 103.44"/><line class="cls-6" x1="26.28" y1="104.4" x2="27.96" y2="105.36"/><line class="cls-6" x1="29.4" y1="106.32" x2="31.32" y2="107.52"/><line class="cls-6" x1="32.76" y1="108.24" x2="34.68" y2="108.96"/><line class="cls-6" x1="36.36" y1="109.68" x2="38.28" y2="110.4"/><line class="cls-6" x1="39.96" y1="110.88" x2="41.88" y2="111.6"/><line class="cls-6" x1="43.56" y1="111.84" x2="45.72" y2="112.32"/><line class="cls-6" x1="47.4" y1="112.56" x2="49.56" y2="113.04"/><polyline class="cls-6" points="51.24 113.28 51.72 113.52 53.16 113.52"/><line class="cls-6" x1="54.84" y1="113.52" x2="57" y2="113.52"/><line class="cls-6" x1="58.68" y1="113.52" x2="60.84" y2="113.52"/><line class="cls-6" x1="62.52" y1="113.28" x2="64.68" y2="112.8"/><line class="cls-6" x1="66.36" y1="112.56" x2="68.52" y2="112.32"/><polyline class="cls-6" points="70.2 111.84 71.88 111.6 72.12 111.6"/><line class="cls-6" x1="73.8" y1="110.88" x2="75.72" y2="110.16"/><line class="cls-6" x1="77.4" y1="109.68" x2="79.32" y2="108.72"/><polyline class="cls-6" points="81 108.24 81.48 108 82.68 107.28"/><line class="cls-6" x1="84.36" y1="106.32" x2="86.04" y2="105.36"/><line class="cls-6" x1="87.48" y1="104.4" x2="89.4" y2="103.2"/><line class="cls-6" x1="90.84" y1="102.24" x2="92.28" y2="100.8"/><line class="cls-6" x1="93.72" y1="99.84" x2="95.16" y2="98.4"/><polyline class="cls-6" points="96.6 97.2 97.8 96.24 98.04 95.76"/><line class="cls-6" x1="99" y1="94.56" x2="100.44" y2="92.88"/><line class="cls-6" x1="101.4" y1="91.44" x2="102.84" y2="89.76"/><polyline class="cls-6" points="103.8 88.56 104.04 88.08 105 86.64"/><line class="cls-6" x1="105.72" y1="85.2" x2="106.68" y2="83.28"/><line class="cls-6" x1="107.64" y1="81.84" x2="108.6" y2="79.92"/><line class="cls-6" x1="109.32" y1="78.48" x2="109.8" y2="76.32"/><line class="cls-6" x1="110.52" y1="74.88" x2="111" y2="72.72"/><polyline class="cls-6" points="111.48 71.04 112.2 69.6 112.2 69.12"/><line class="cls-6" x1="112.44" y1="67.44" x2="112.68" y2="65.28"/><line class="cls-6" x1="112.92" y1="63.6" x2="113.16" y2="61.44"/><polyline class="cls-6" points="113.4 59.76 113.4 59.52 113.4 57.84"/><line class="cls-6" x1="113.4" y1="55.92" x2="113.16" y2="54"/><line class="cls-6" x1="113.16" y1="52.32" x2="112.92" y2="50.16"/><line class="cls-6" x1="112.68" y1="48.48" x2="112.2" y2="46.32"/><line class="cls-6" x1="111.96" y1="44.64" x2="111.48" y2="42.72"/><polyline class="cls-6" points="111 41.04 110.76 39.36 110.52 38.88"/><line class="cls-6" x1="109.8" y1="37.44" x2="109.08" y2="35.52"/><line class="cls-6" x1="108.36" y1="33.84" x2="107.4" y2="31.92"/><polyline class="cls-6" points="106.92 30.24 106.68 30.24 105.72 28.56"/><line class="cls-6" x1="104.76" y1="27.12" x2="103.56" y2="25.44"/><line class="cls-6" x1="102.6" y1="24" x2="101.4" y2="22.08"/><line class="cls-6" x1="100.44" y1="20.88" x2="99" y2="19.44"/><line class="cls-6" x1="97.8" y1="18" x2="96.36" y2="16.56"/><polyline class="cls-6" points="95.16 15.36 94.2 14.4 93.48 13.92"/><line class="cls-6" x1="92.28" y1="12.96" x2="90.36" y2="11.76"/><line class="cls-6" x1="89.16" y1="10.56" x2="87.48" y2="9.36"/><polyline class="cls-6" points="86.04 8.4 85.8 8.4 84.12 7.44"/><line class="cls-6" x1="82.68" y1="6.72" x2="80.76" y2="5.76"/><line class="cls-6" x1="79.08" y1="5.04" x2="77.16" y2="4.08"/><line class="cls-6" x1="75.72" y1="3.6" x2="73.56" y2="3.12"/><line class="cls-6" x1="71.88" y1="2.64" x2="69.96" y2="1.92"/><polyline class="cls-6" points="68.28 1.68 67.08 1.2 66.12 1.2"/><line class="cls-6" x1="64.44" y1="0.96" x2="62.28" y2="0.72"/><line class="cls-6" x1="60.6" y1="0.72" x2="58.44" y2="0.48"/><polyline class="cls-7" points="56.76 0.24 46.68 1.2 36.84 3.84 27.72 8.4 19.56 14.4 12.6 21.6 7.08 30.24 3 39.36 0.6 49.44 0.36 59.52 1.56 69.6 4.68 79.2 9.48 88.08 15.96 96.24 23.64 102.72 32.28 108 41.88 111.6"/><g class="cls-8"><line class="cls-7" x1="41.88" y1="111.6" x2="51.72" y2="113.52"/></g><g class="cls-9"><line class="cls-7" x1="51.72" y1="113.52" x2="62.04" y2="113.52"/></g><g class="cls-10"><line class="cls-7" x1="62.04" y1="113.52" x2="71.88" y2="111.6"/></g><polyline class="cls-7" points="71.88 111.6 81.48 108 90.12 102.72 97.8 96.24 104.04 88.08 109.08 79.2 112.2 69.6"/><g class="cls-11"><line class="cls-7" x1="112.2" y1="69.6" x2="113.4" y2="59.52"/></g><g class="cls-12"><line class="cls-7" x1="113.4" y1="59.52" x2="112.92" y2="49.44"/></g><polyline class="cls-7" points="112.92 49.44 110.76 39.36 106.68 30.24 101.16 21.6 94.2 14.4 85.8 8.4 76.68 3.84 67.08 1.2 56.76 0.24"/><line class="cls-6" x1="56.76" y1="113.52" x2="58.92" y2="113.52"/><polyline class="cls-6" points="60.6 113.52 61.32 113.52 62.76 113.28"/><polyline class="cls-6" points="64.44 113.04 65.64 113.04 66.6 112.8"/><line class="cls-6" x1="68.28" y1="112.56" x2="70.2" y2="112.08"/><line class="cls-6" x1="71.88" y1="111.6" x2="74.04" y2="110.88"/><line class="cls-6" x1="75.48" y1="110.4" x2="77.64" y2="109.68"/><line class="cls-6" x1="79.08" y1="108.96" x2="81" y2="108.24"/><line class="cls-6" x1="82.68" y1="107.52" x2="84.36" y2="106.32"/><polyline class="cls-6" points="86.04 105.6 86.52 105.36 87.72 104.4"/><polyline class="cls-6" points="89.16 103.44 90.12 102.72 90.84 102.24"/><polyline class="cls-6" points="92.28 101.28 93.72 100.08 93.96 99.84"/><line class="cls-6" x1="95.16" y1="98.64" x2="96.6" y2="97.2"/><line class="cls-6" x1="97.8" y1="96" x2="99.24" y2="94.56"/><line class="cls-6" x1="100.44" y1="93.12" x2="101.64" y2="91.44"/><line class="cls-6" x1="102.84" y1="90.24" x2="104.04" y2="88.32"/><polyline class="cls-6" points="105 87.12 105.24 86.64 105.96 85.2"/><polyline class="cls-6" points="106.68 83.76 107.4 82.8 107.64 81.84"/><polyline class="cls-6" points="108.36 80.16 109.32 78.72 109.32 78.24"/><line class="cls-6" x1="109.8" y1="76.8" x2="110.76" y2="74.64"/><line class="cls-6" x1="111.24" y1="73.2" x2="111.72" y2="71.04"/><line class="cls-6" x1="112.2" y1="69.36" x2="112.44" y2="67.44"/><line class="cls-6" x1="112.92" y1="65.76" x2="113.16" y2="63.6"/><polyline class="cls-6" points="113.4 61.92 113.4 61.44 113.4 59.76"/><polyline class="cls-6" points="113.4 58.08 113.4 56.88 113.4 55.92"/><polyline class="cls-6" points="113.4 54.24 113.4 52.56 113.4 52.08"/><line class="cls-6" x1="113.16" y1="50.4" x2="112.92" y2="48.24"/><line class="cls-6" x1="112.44" y1="46.56" x2="112.2" y2="44.64"/><line class="cls-6" x1="111.72" y1="42.96" x2="111.24" y2="40.8"/><line class="cls-6" x1="110.76" y1="39.12" x2="109.8" y2="37.2"/><polyline class="cls-6" points="109.32 35.52 109.32 35.28 108.36 33.6"/><polyline class="cls-6" points="107.64 32.16 107.4 31.2 106.68 30.24"/><polyline class="cls-6" points="105.96 28.8 105.24 27.36 105 26.88"/><line class="cls-6" x1="104.04" y1="25.44" x2="102.84" y2="23.76"/><line class="cls-6" x1="101.64" y1="22.32" x2="100.44" y2="20.64"/><line class="cls-6" x1="99.24" y1="19.44" x2="97.8" y2="18"/><line class="cls-6" x1="96.6" y1="16.56" x2="95.16" y2="15.12"/><polyline class="cls-6" points="93.96 14.16 93.72 13.92 92.28 12.72"/><polyline class="cls-6" points="90.84 11.76 90.12 11.04 89.16 10.56"/><polyline class="cls-6" points="87.72 9.6 86.52 8.64 86.04 8.4"/><line class="cls-6" x1="84.36" y1="7.44" x2="82.68" y2="6.48"/><line class="cls-6" x1="81" y1="5.76" x2="79.08" y2="4.8"/><line class="cls-6" x1="77.64" y1="4.32" x2="75.48" y2="3.6"/><line class="cls-6" x1="74.04" y1="2.88" x2="71.88" y2="2.4"/><polyline class="cls-6" points="70.2 1.92 70.2 1.92 68.28 1.44"/><polyline class="cls-6" points="66.6 1.2 65.64 0.96 64.44 0.96"/><polyline class="cls-6" points="62.76 0.72 61.32 0.48 60.6 0.48"/><polyline class="cls-6" points="58.92 0.48 56.76 0.24 54.84 0.48"/><polyline class="cls-6" points="53.16 0.48 52.44 0.48 51 0.72"/><polyline class="cls-6" points="49.32 0.96 47.88 0.96 47.16 1.2"/><polyline class="cls-6" points="45.48 1.44 43.56 1.92 43.32 1.92"/><line class="cls-6" x1="41.88" y1="2.4" x2="39.72" y2="2.88"/><line class="cls-6" x1="38.04" y1="3.6" x2="36.12" y2="4.32"/><line class="cls-6" x1="34.68" y1="4.8" x2="32.76" y2="5.76"/><line class="cls-6" x1="31.08" y1="6.48" x2="29.16" y2="7.44"/><polyline class="cls-6" points="27.72 8.4 27.24 8.64 26.04 9.6"/><polyline class="cls-6" points="24.6 10.56 23.64 11.04 22.92 11.76"/><polyline class="cls-6" points="21.48 12.72 20.04 13.92 19.8 14.16"/><line class="cls-6" x1="18.6" y1="15.12" x2="17.16" y2="16.56"/><line class="cls-6" x1="15.96" y1="18" x2="14.52" y2="19.44"/><line class="cls-6" x1="13.32" y1="20.64" x2="12.12" y2="22.32"/><line class="cls-6" x1="10.92" y1="23.76" x2="9.72" y2="25.44"/><polyline class="cls-6" points="8.76 26.88 8.52 27.36 7.8 28.8"/><polyline class="cls-6" points="6.84 30.24 6.36 31.2 5.88 32.16"/><polyline class="cls-6" points="5.16 33.6 4.44 35.28 4.44 35.52"/><line class="cls-6" x1="3.72" y1="37.2" x2="3" y2="39.12"/><line class="cls-6" x1="2.52" y1="40.8" x2="2.04" y2="42.96"/><line class="cls-6" x1="1.56" y1="44.64" x2="1.08" y2="46.56"/><line class="cls-6" x1="0.84" y1="48.24" x2="0.6" y2="50.4"/><polyline class="cls-6" points="0.36 52.08 0.36 52.56 0.36 54.24"/><polyline class="cls-6" points="0.12 55.92 0.12 56.88 0.12 58.08"/><polyline class="cls-6" points="0.36 59.76 0.36 61.44 0.36 61.92"/><line class="cls-6" x1="0.6" y1="63.6" x2="0.84" y2="65.76"/><line class="cls-6" x1="1.08" y1="67.44" x2="1.56" y2="69.36"/><line class="cls-6" x1="2.04" y1="71.04" x2="2.52" y2="73.2"/><line class="cls-6" x1="3" y1="74.64" x2="3.72" y2="76.8"/><polyline class="cls-6" points="4.44 78.24 4.44 78.72 5.16 80.16"/><polyline class="cls-6" points="5.88 81.84 6.36 82.8 6.84 83.76"/><polyline class="cls-6" points="7.8 85.2 8.52 86.64 8.76 87.12"/><line class="cls-6" x1="9.72" y1="88.32" x2="10.92" y2="90.24"/><line class="cls-6" x1="12.12" y1="91.44" x2="13.32" y2="93.12"/><line class="cls-6" x1="14.52" y1="94.56" x2="15.96" y2="96"/><line class="cls-6" x1="17.16" y1="97.2" x2="18.6" y2="98.64"/><polyline class="cls-6" points="19.8 99.84 20.04 100.08 21.48 101.28"/><polyline class="cls-6" points="22.92 102.24 23.64 102.72 24.6 103.44"/><polyline class="cls-6" points="26.04 104.4 27.24 105.36 27.72 105.6"/><line class="cls-6" x1="29.16" y1="106.32" x2="31.08" y2="107.52"/><line class="cls-6" x1="32.76" y1="108.24" x2="34.68" y2="108.96"/><line class="cls-6" x1="36.12" y1="109.68" x2="38.04" y2="110.4"/><line class="cls-6" x1="39.72" y1="110.88" x2="41.88" y2="111.6"/><polyline class="cls-6" points="43.32 112.08 43.56 112.08 45.48 112.56"/><polyline class="cls-6" points="47.16 112.8 47.88 113.04 49.32 113.04"/><polyline class="cls-6" points="51 113.28 52.44 113.52 53.16 113.52"/><line class="cls-6" x1="54.84" y1="113.52" x2="56.76" y2="113.52"/></g></g></svg>