<svg xmlns="http://www.w3.org/2000/svg" xmlns:xlink="http://www.w3.org/1999/xlink" viewBox="0 0 556.56 409.6"><defs><style>.cls-1,.cls-17,.cls-18,.cls-19,.cls-2,.cls-20{fill:none;}.cls-1{clip-rule:evenodd;}.cls-3{clip-path:url(#clip-path);}.cls-4{clip-path:url(#clip-path-2);}.cls-5{fill:#c6d3b4;}.cls-6{clip-path:url(#clip-path-3);}.cls-11,.cls-7{font-size:4.08px;font-family:ArialMT, Arial;}.cls-11,.cls-8{letter-spacing:-0.03em;}.cls-9{letter-spacing:0.02em;}.cls-10{letter-spacing:-0.09em;}.cls-12{letter-spacing:0em;}.cls-13{letter-spacing:0.02em;}.cls-14{letter-spacing:-0.03em;}.cls-15{letter-spacing:-0.04em;}.cls-16{letter-spacing:0em;}.cls-17,.cls-18{stroke:#000;}.cls-17,.cls-18,.cls-19,.cls-20{stroke-linecap:round;stroke-linejoin:round;}.cls-17,.cls-19{stroke-width:0.24px;}.cls-18,.cls-20{stroke-width:0.48px;}.cls-19,.cls-20{stroke:red;}.cls-21{fill:#fff;}.cls-22,.cls-33{font-size:8.05px;fill:red;font-family:ArialNarrow, Arial;}.cls-22,.cls-34{letter-spacing:-0.01em;}.cls-23{letter-spacing:0em;}.cls-24{letter-spacing:0.01em;}.cls-25{letter-spacing:-0.04em;}.cls-26{letter-spacing:0em;}.cls-27{letter-spacing:0.01em;}.cls-28{letter-spacing:0.01em;}.cls-29{letter-spacing:-0.04em;}.cls-30{letter-spacing:0.01em;}.cls-31{letter-spacing:0em;}.cls-32{letter-spacing:0em;}</style><clipPath id="clip-path" transform="translate(-177.69 -340.52)"><path class="cls-1" d="M271.41,548.4l-.24.24-.48.24-.24.48-.24.24-.24.48V602.4h.24v.72h.24l.24.24.48.24.24.24.48.24,121.2.24v-.24l.72-.24,1-1,.24-.72.24-51.84H395v-.48h-.24v-.48l-1-1m-209-56.4V743h94.08V714.72L332.61,661h8.64v-1.2h11v-1.44H352v-1.44h-.24v-1.44h-.24V654h-.24v-5.76l-.24-.24c-.15-2.2.92-4.16,1.92-6l.24-.24.48-1,1.68-1.68.24-.48,1-.48.24-.24,1-.48.24-.24.72-.24,1.92-1,2.88-1h6.24l3.6,1.2a14.12,14.12,0,0,1,6.24,4.32V641h.24l.24.24v.48h.24v.48h.24l.24.24V643h.24v.48h.24v.48h.24v.72h.24v.72H382v.72h.24l-.24,7.68-1,5.76,11,.24V661h7V492Z"/></clipPath><clipPath id="clip-path-2" transform="translate(-177.69 -340.52)"><rect class="cls-2" width="1191.12" height="841.92"/></clipPath><clipPath id="clip-path-3" transform="translate(-177.69 -340.52)"><path class="cls-1" d="M532.53,514.32l-.48.24-.48.24-.24.48-.24.24-.24.72-.24,51.12.24.24v.72h.24V569h.24l.24.24v.48H532l.48.24.24.24,121.2.24v-.24l.48-.48.72-.24.24-.24.24-.48.24-53h-.24v-.48l-.48-.48-.72-.24-.24-.24M532.77,406.56l-.72.24-1,1-.24.72-.24,51.12.24.24v.72h.24v.72h.24l.24.24V462h.24l.24.24.72.24,121.2.24v-.24l1-.48.48-.48.24-.48.24-53-1-1-1-.48ZM445.41,353V743h94.08V715.2l.24-.24c8.69-13.94,17.48-27.81,26.16-41.76l.24-.24.48-1,.24-.24c4.18-6.83,8.56-13.56,12.72-20.4l.24-.24.24-.48.24-.24c1.81-3.15,3.91-6.23,5.76-9.36l.24-.24.24-.48.24-.24a38.5,38.5,0,0,1,2.4-3.84l.48-1,.24-.24.24-.48.24-.24.48-1,.24-.24.24-.48.24-.24.48-1,.24-.24.24-.48.24-.24L593,630l.24-.24h8.64v-1.2h11v-1.92h-.24v-1.92h-.24V622.8h-.24V617l-.24-.24.24-2.4.48-1.44.24-1,.48-.48.24-.48.24-.24.24-.48.24-.24.24-.48,1.92-1.92.48-.24.48-.48.48-.24.72-.72.72-.24,1.92-1,1-.24,2.16-.72h6l1,.24,2.88,1,.48.24.72.24,1.44.72,1.44,1.44.48.24,2.16,2.16v.48h.24V611h.24l.24.24v.48H642v.48h.24V613h.24v1h.24v1h.24v1h.24l-.24,3.84-.24,2.88-.72,5.76,11,.24v1.2h6.72V353Z"/></clipPath></defs><title>ROOM-BED_SAMPLES</title><g id="Layer_2" data-name="Layer 2"><g id="Layer_1-2" data-name="Layer 1"><g class="cls-3"><g class="cls-4"><rect class="cls-5" x="7.08" y="151.48" width="214.32" height="251.04"/></g></g><g class="cls-6"><g class="cls-4"><rect class="cls-5" x="267.72" y="12.52" width="214.32" height="390"/></g></g><text class="cls-7" transform="translate(123.24 271.24)">?</text><text class="cls-7" transform="translate(113.64 283.96)"><tspan class="cls-8">3900</tspan><tspan class="cls-9" x="8.64" y="0"> </tspan><tspan class="cls-10" x="9.84" y="0">x</tspan><tspan class="cls-9" x="11.52" y="0"> </tspan><tspan class="cls-8" x="12.72" y="0">455</tspan><tspan x="19.2" y="0">0</tspan></text><text class="cls-11" transform="translate(121.08 275.56)">5<tspan class="cls-9" x="2.16" y="0">.</tspan><tspan x="3.36" y="0">5</tspan><tspan class="cls-12" x="5.52" y="0">0</tspan></text><text class="cls-11" transform="translate(112.44 279.64)">15<tspan class="cls-13" x="4.32" y="0">.</tspan><tspan class="cls-14" x="5.52" y="0">09</tspan><tspan class="cls-9" x="9.84" y="0"> </tspan><tspan class="cls-15" x="11.04" y="0">(</tspan><tspan x="12.24" y="0">14</tspan><tspan class="cls-9" x="16.55" y="0">.</tspan><tspan x="17.75" y="0">09</tspan><tspan class="cls-16" x="22.07" y="0">)</tspan></text><text class="cls-7" transform="translate(123.24 267.16)">?</text><text class="cls-7" transform="translate(383.88 132.52)">?</text><text class="cls-7" transform="translate(374.52 145)"><tspan class="cls-8">3900</tspan><tspan class="cls-9" x="8.64" y="0"> </tspan><tspan class="cls-10" x="9.84" y="0">x</tspan><tspan class="cls-9" x="11.52" y="0"> </tspan><tspan class="cls-8" x="12.72" y="0">700</tspan><tspan x="19.2" y="0">0</tspan></text><text class="cls-11" transform="translate(381.96 136.6)">5<tspan class="cls-9" x="2.16" y="0">.</tspan><tspan x="3.36" y="0">5</tspan><tspan class="cls-12" x="5.52" y="0">0</tspan></text><text class="cls-11" transform="translate(373.32 140.92)">23<tspan class="cls-13" x="4.32" y="0">.</tspan><tspan class="cls-14" x="5.52" y="0">74</tspan><tspan class="cls-9" x="9.84" y="0"> </tspan><tspan class="cls-15" x="11.04" y="0">(</tspan><tspan x="12.24" y="0">22</tspan><tspan class="cls-9" x="16.55" y="0">.</tspan><tspan x="17.75" y="0">44</tspan><tspan class="cls-16" x="22.07" y="0">)</tspan></text><text class="cls-7" transform="translate(383.88 128.2)">?</text><polyline class="cls-17" points="67.32 405.88 68.28 398.44 70.68 391.24 74.76 384.76 80.28 379.48 86.52 375.4 93.72 372.76 101.4 372.04"/><polyline class="cls-17" points="98.52 405.88 98.52 372.04 101.4 372.04 101.4 405.88 98.52 405.88"/><polyline class="cls-17" points="67.32 405.88 66.6 396.04 63.96 386.44 59.64 377.56 54.12 369.4 46.92 362.44 38.76 356.68 29.88 352.36 20.28 349.96 10.44 349"/><polyline class="cls-17" points="13.32 405.88 13.32 349 10.44 349 10.44 405.88 13.32 405.88"/><polyline class="cls-17" points="101.4 402.52 10.44 402.52 10.44 409.48 101.4 409.48 101.4 402.52 10.44 402.52 10.44 409.48 101.4 409.48 101.4 402.52"/><polyline class="cls-17" points="101.16 402.52 7.08 402.52 7.08 151.48 221.4 151.48 221.4 320.44 155.16 320.44 101.16 374.44 101.16 402.52"/><polyline class="cls-17" points="228.12 144.52 0.12 144.52 0.12 409.48 107.88 409.48 107.88 377.32 158.04 327.16 228.12 327.16 228.12 144.52"/><line class="cls-17" x1="7.08" y1="151.48" x2="7.08" y2="153.64"/><line class="cls-17" x1="7.08" y1="155.32" x2="7.08" y2="157.48"/><line class="cls-17" x1="7.08" y1="159.16" x2="7.08" y2="161.32"/><line class="cls-17" x1="7.08" y1="163" x2="7.08" y2="165.16"/><line class="cls-17" x1="7.08" y1="166.84" x2="7.08" y2="169"/><line class="cls-17" x1="7.08" y1="170.68" x2="7.08" y2="172.84"/><line class="cls-17" x1="7.08" y1="174.52" x2="7.08" y2="176.68"/><line class="cls-17" x1="7.08" y1="178.36" x2="7.08" y2="180.52"/><line class="cls-17" x1="7.08" y1="182.2" x2="7.08" y2="184.36"/><line class="cls-17" x1="7.08" y1="186.04" x2="7.08" y2="188.2"/><line class="cls-17" x1="7.08" y1="189.88" x2="7.08" y2="192.04"/><line class="cls-17" x1="7.08" y1="193.72" x2="7.08" y2="195.88"/><line class="cls-17" x1="7.08" y1="197.56" x2="7.08" y2="199.72"/><line class="cls-17" x1="7.08" y1="201.4" x2="7.08" y2="203.32"/><line class="cls-17" x1="7.08" y1="205.24" x2="7.08" y2="207.16"/><line class="cls-17" x1="7.08" y1="208.84" x2="7.08" y2="211"/><line class="cls-17" x1="7.08" y1="212.68" x2="7.08" y2="214.84"/><line class="cls-17" x1="7.08" y1="216.52" x2="7.08" y2="218.68"/><line class="cls-17" x1="7.08" y1="220.36" x2="7.08" y2="222.52"/><line class="cls-17" x1="7.08" y1="224.2" x2="7.08" y2="226.36"/><line class="cls-17" x1="7.08" y1="228.04" x2="7.08" y2="230.2"/><line class="cls-17" x1="7.08" y1="231.88" x2="7.08" y2="234.04"/><line class="cls-17" x1="7.08" y1="235.72" x2="7.08" y2="237.88"/><line class="cls-17" x1="7.08" y1="239.56" x2="7.08" y2="241.72"/><line class="cls-17" x1="7.08" y1="243.4" x2="7.08" y2="245.56"/><line class="cls-17" x1="7.08" y1="247.24" x2="7.08" y2="249.4"/><line class="cls-17" x1="7.08" y1="251.08" x2="7.08" y2="253.24"/><line class="cls-17" x1="7.08" y1="254.92" x2="7.08" y2="257.08"/><line class="cls-17" x1="7.08" y1="258.76" x2="7.08" y2="260.92"/><line class="cls-17" x1="7.08" y1="262.6" x2="7.08" y2="264.76"/><line class="cls-17" x1="7.08" y1="266.44" x2="7.08" y2="268.6"/><line class="cls-17" x1="7.08" y1="270.28" x2="7.08" y2="272.2"/><line class="cls-17" x1="7.08" y1="274.12" x2="7.08" y2="276.04"/><line class="cls-17" x1="7.08" y1="277.96" x2="7.08" y2="279.88"/><line class="cls-17" x1="7.08" y1="281.56" x2="7.08" y2="283.72"/><line class="cls-17" x1="7.08" y1="285.4" x2="7.08" y2="287.56"/><line class="cls-17" x1="7.08" y1="289.24" x2="7.08" y2="291.4"/><line class="cls-17" x1="7.08" y1="293.08" x2="7.08" y2="295.24"/><line class="cls-17" x1="7.08" y1="296.92" x2="7.08" y2="299.08"/><line class="cls-17" x1="7.08" y1="300.76" x2="7.08" y2="302.92"/><line class="cls-17" x1="7.08" y1="304.6" x2="7.08" y2="306.76"/><line class="cls-17" x1="7.08" y1="308.44" x2="7.08" y2="310.6"/><line class="cls-17" x1="7.08" y1="312.28" x2="7.08" y2="314.44"/><line class="cls-17" x1="7.08" y1="316.12" x2="7.08" y2="318.28"/><line class="cls-17" x1="7.08" y1="319.96" x2="7.08" y2="322.12"/><line class="cls-17" x1="7.08" y1="323.8" x2="7.08" y2="325.96"/><line class="cls-17" x1="7.08" y1="327.65" x2="7.08" y2="329.8"/><line class="cls-17" x1="7.08" y1="331.49" x2="7.08" y2="333.65"/><line class="cls-17" x1="7.08" y1="335.33" x2="7.08" y2="337.49"/><line class="cls-17" x1="7.08" y1="339.17" x2="7.08" y2="341.09"/><line class="cls-17" x1="7.08" y1="343.01" x2="7.08" y2="344.93"/><line class="cls-17" x1="7.08" y1="346.85" x2="7.08" y2="348.77"/><line class="cls-17" x1="7.08" y1="350.45" x2="7.08" y2="352.61"/><line class="cls-17" x1="7.08" y1="354.29" x2="7.08" y2="356.45"/><line class="cls-17" x1="7.08" y1="358.13" x2="7.08" y2="360.29"/><line class="cls-17" x1="7.08" y1="361.97" x2="7.08" y2="364.13"/><line class="cls-17" x1="7.08" y1="365.81" x2="7.08" y2="367.97"/><line class="cls-17" x1="7.08" y1="369.65" x2="7.08" y2="371.81"/><line class="cls-17" x1="7.08" y1="373.49" x2="7.08" y2="375.65"/><line class="cls-17" x1="7.08" y1="377.33" x2="7.08" y2="379.49"/><line class="cls-17" x1="7.08" y1="381.17" x2="7.08" y2="383.33"/><line class="cls-17" x1="7.08" y1="385.01" x2="7.08" y2="387.17"/><line class="cls-17" x1="7.08" y1="388.85" x2="7.08" y2="391.01"/><line class="cls-17" x1="7.08" y1="392.69" x2="7.08" y2="394.85"/><line class="cls-17" x1="7.08" y1="396.53" x2="7.08" y2="398.69"/><polyline class="cls-17" points="7.08 400.37 7.08 402.52 9.24 402.52"/><line class="cls-17" x1="10.92" y1="402.53" x2="13.08" y2="402.53"/><line class="cls-17" x1="14.76" y1="402.53" x2="16.92" y2="402.53"/><line class="cls-17" x1="18.6" y1="402.53" x2="20.76" y2="402.53"/><line class="cls-17" x1="22.44" y1="402.53" x2="24.6" y2="402.53"/><line class="cls-17" x1="26.28" y1="402.53" x2="28.2" y2="402.53"/><line class="cls-17" x1="30.12" y1="402.53" x2="32.04" y2="402.53"/><line class="cls-17" x1="33.96" y1="402.53" x2="35.88" y2="402.53"/><line class="cls-17" x1="37.56" y1="402.53" x2="39.72" y2="402.53"/><line class="cls-17" x1="41.4" y1="402.53" x2="43.56" y2="402.53"/><line class="cls-17" x1="45.24" y1="402.53" x2="47.4" y2="402.53"/><line class="cls-17" x1="49.08" y1="402.53" x2="51.24" y2="402.53"/><line class="cls-17" x1="52.92" y1="402.53" x2="55.08" y2="402.53"/><line class="cls-17" x1="56.76" y1="402.53" x2="58.92" y2="402.53"/><line class="cls-17" x1="60.6" y1="402.53" x2="62.76" y2="402.53"/><line class="cls-17" x1="64.44" y1="402.53" x2="66.6" y2="402.53"/><line class="cls-17" x1="68.28" y1="402.53" x2="70.44" y2="402.53"/><line class="cls-17" x1="72.12" y1="402.53" x2="74.28" y2="402.53"/><line class="cls-17" x1="75.96" y1="402.53" x2="78.12" y2="402.53"/><line class="cls-17" x1="79.8" y1="402.53" x2="81.96" y2="402.53"/><line class="cls-17" x1="83.64" y1="402.53" x2="85.8" y2="402.53"/><line class="cls-17" x1="87.48" y1="402.53" x2="89.64" y2="402.53"/><line class="cls-17" x1="91.32" y1="402.53" x2="93.48" y2="402.53"/><line class="cls-17" x1="95.16" y1="402.53" x2="97.08" y2="402.53"/><polyline class="cls-17" points="99 402.52 101.16 402.52 101.16 400.85"/><line class="cls-17" x1="101.16" y1="399.17" x2="101.16" y2="397.01"/><line class="cls-17" x1="101.16" y1="395.33" x2="101.16" y2="393.17"/><line class="cls-17" x1="101.16" y1="391.49" x2="101.16" y2="389.33"/><line class="cls-17" x1="101.16" y1="387.65" x2="101.16" y2="385.49"/><line class="cls-17" x1="101.16" y1="383.81" x2="101.16" y2="381.65"/><line class="cls-17" x1="101.16" y1="379.97" x2="101.16" y2="377.81"/><polyline class="cls-17" points="101.16 376.13 101.16 374.44 101.88 373.73"/><line class="cls-17" x1="103.08" y1="372.53" x2="104.52" y2="371.09"/><line class="cls-17" x1="105.72" y1="369.89" x2="107.16" y2="368.45"/><line class="cls-17" x1="108.36" y1="367.25" x2="110.04" y2="365.57"/><line class="cls-17" x1="111.24" y1="364.37" x2="112.68" y2="362.93"/><line class="cls-17" x1="113.88" y1="361.73" x2="115.32" y2="360.29"/><line class="cls-17" x1="116.52" y1="359.09" x2="118.2" y2="357.41"/><line class="cls-17" x1="119.4" y1="356.21" x2="120.84" y2="354.77"/><line class="cls-17" x1="122.04" y1="353.57" x2="123.48" y2="352.13"/><line class="cls-17" x1="124.68" y1="350.93" x2="126.12" y2="349.49"/><line class="cls-17" x1="127.32" y1="348.29" x2="129" y2="346.61"/><line class="cls-17" x1="130.2" y1="345.41" x2="131.64" y2="343.97"/><line class="cls-17" x1="132.84" y1="342.77" x2="134.28" y2="341.33"/><line class="cls-17" x1="135.48" y1="340.13" x2="137.16" y2="338.69"/><line class="cls-17" x1="138.36" y1="337.49" x2="139.8" y2="335.81"/><line class="cls-17" x1="141" y1="334.61" x2="142.44" y2="333.17"/><line class="cls-17" x1="143.64" y1="331.97" x2="145.08" y2="330.53"/><line class="cls-17" x1="146.28" y1="329.33" x2="147.96" y2="327.65"/><line class="cls-17" x1="149.16" y1="326.45" x2="150.6" y2="325.01"/><line class="cls-17" x1="151.8" y1="323.81" x2="153.24" y2="322.37"/><polyline class="cls-17" points="154.44 321.17 155.16 320.44 156.6 320.44"/><line class="cls-17" x1="158.28" y1="320.45" x2="160.44" y2="320.45"/><line class="cls-17" x1="162.12" y1="320.45" x2="163.56" y2="320.45"/><line class="cls-17" x1="214.44" y1="320.45" x2="217.08" y2="320.45"/><polyline class="cls-17" points="218.76 320.44 221.4 320.44 221.4 319"/><line class="cls-17" x1="221.4" y1="317.33" x2="221.4" y2="315.17"/><line class="cls-17" x1="221.4" y1="313.49" x2="221.4" y2="311.33"/><line class="cls-17" x1="221.4" y1="309.65" x2="221.4" y2="307.49"/><line class="cls-17" x1="221.4" y1="305.81" x2="221.4" y2="303.65"/><line class="cls-17" x1="221.4" y1="301.97" x2="221.4" y2="299.8"/><line class="cls-17" x1="221.4" y1="298.12" x2="221.4" y2="295.96"/><line class="cls-17" x1="221.4" y1="294.28" x2="221.4" y2="292.12"/><line class="cls-17" x1="221.4" y1="290.44" x2="221.4" y2="288.52"/><line class="cls-17" x1="221.4" y1="286.6" x2="221.4" y2="284.68"/><line class="cls-17" x1="221.4" y1="282.76" x2="221.4" y2="280.84"/><line class="cls-17" x1="221.4" y1="279.16" x2="221.4" y2="277"/><line class="cls-17" x1="221.4" y1="275.32" x2="221.4" y2="273.16"/><line class="cls-17" x1="221.4" y1="271.48" x2="221.4" y2="269.32"/><line class="cls-17" x1="221.4" y1="267.64" x2="221.4" y2="265.48"/><line class="cls-17" x1="221.4" y1="263.8" x2="221.4" y2="261.64"/><line class="cls-17" x1="221.4" y1="259.96" x2="221.4" y2="257.8"/><line class="cls-17" x1="221.4" y1="256.12" x2="221.4" y2="253.96"/><line class="cls-17" x1="221.4" y1="252.28" x2="221.4" y2="250.12"/><line class="cls-17" x1="221.4" y1="248.44" x2="221.4" y2="246.28"/><line class="cls-17" x1="221.4" y1="244.6" x2="221.4" y2="242.44"/><line class="cls-17" x1="221.4" y1="240.76" x2="221.4" y2="238.6"/><line class="cls-17" x1="221.4" y1="236.92" x2="221.4" y2="234.76"/><line class="cls-17" x1="221.4" y1="233.08" x2="221.4" y2="230.92"/><line class="cls-17" x1="221.4" y1="229.24" x2="221.4" y2="227.08"/><line class="cls-17" x1="221.4" y1="225.4" x2="221.4" y2="223.24"/><line class="cls-17" x1="221.4" y1="221.56" x2="221.4" y2="219.4"/><line class="cls-17" x1="221.4" y1="217.72" x2="221.4" y2="215.8"/><line class="cls-17" x1="221.4" y1="213.88" x2="221.4" y2="211.96"/><line class="cls-17" x1="221.4" y1="210.28" x2="221.4" y2="208.12"/><line class="cls-17" x1="221.4" y1="206.44" x2="221.4" y2="204.28"/><line class="cls-17" x1="221.4" y1="202.6" x2="221.4" y2="200.44"/><line class="cls-17" x1="221.4" y1="198.76" x2="221.4" y2="196.6"/><line class="cls-17" x1="221.4" y1="194.92" x2="221.4" y2="192.76"/><line class="cls-17" x1="221.4" y1="191.08" x2="221.4" y2="188.92"/><line class="cls-17" x1="221.4" y1="187.24" x2="221.4" y2="185.08"/><line class="cls-17" x1="221.4" y1="183.4" x2="221.4" y2="181.24"/><line class="cls-17" x1="221.4" y1="179.56" x2="221.4" y2="177.4"/><line class="cls-17" x1="221.4" y1="175.72" x2="221.4" y2="173.56"/><line class="cls-17" x1="221.4" y1="171.88" x2="221.4" y2="169.72"/><line class="cls-17" x1="221.4" y1="168.04" x2="221.4" y2="165.88"/><line class="cls-17" x1="221.4" y1="164.2" x2="221.4" y2="162.04"/><line class="cls-17" x1="221.4" y1="160.36" x2="221.4" y2="158.2"/><line class="cls-17" x1="221.4" y1="156.52" x2="221.4" y2="154.36"/><polyline class="cls-17" points="221.4 152.68 221.4 151.48 220.2 151.48"/><line class="cls-17" x1="218.52" y1="151.48" x2="216.36" y2="151.48"/><line class="cls-17" x1="214.68" y1="151.48" x2="212.52" y2="151.48"/><line class="cls-17" x1="210.84" y1="151.48" x2="208.68" y2="151.48"/><line class="cls-17" x1="207" y1="151.48" x2="204.84" y2="151.48"/><line class="cls-17" x1="203.16" y1="151.48" x2="201" y2="151.48"/><line class="cls-17" x1="199.32" y1="151.48" x2="197.16" y2="151.48"/><line class="cls-17" x1="195.48" y1="151.48" x2="193.32" y2="151.48"/><line class="cls-17" x1="191.64" y1="151.48" x2="189.72" y2="151.48"/><line class="cls-17" x1="187.8" y1="151.48" x2="185.88" y2="151.48"/><line class="cls-17" x1="184.2" y1="151.48" x2="182.04" y2="151.48"/><line class="cls-17" x1="180.36" y1="151.48" x2="178.2" y2="151.48"/><line class="cls-17" x1="176.52" y1="151.48" x2="174.36" y2="151.48"/><line class="cls-17" x1="172.68" y1="151.48" x2="170.52" y2="151.48"/><line class="cls-17" x1="168.84" y1="151.48" x2="166.68" y2="151.48"/><line class="cls-17" x1="165" y1="151.48" x2="162.84" y2="151.48"/><line class="cls-17" x1="161.16" y1="151.48" x2="159" y2="151.48"/><line class="cls-17" x1="157.32" y1="151.48" x2="155.16" y2="151.48"/><line class="cls-17" x1="153.48" y1="151.48" x2="151.32" y2="151.48"/><line class="cls-17" x1="149.64" y1="151.48" x2="147.48" y2="151.48"/><line class="cls-17" x1="145.8" y1="151.48" x2="143.64" y2="151.48"/><line class="cls-17" x1="141.96" y1="151.48" x2="139.8" y2="151.48"/><line class="cls-17" x1="138.12" y1="151.48" x2="135.96" y2="151.48"/><line class="cls-17" x1="134.28" y1="151.48" x2="132.12" y2="151.48"/><line class="cls-17" x1="130.44" y1="151.48" x2="128.28" y2="151.48"/><line class="cls-17" x1="126.6" y1="151.48" x2="124.44" y2="151.48"/><line class="cls-17" x1="122.76" y1="151.48" x2="120.84" y2="151.48"/><line class="cls-17" x1="118.92" y1="151.48" x2="117" y2="151.48"/><line class="cls-17" x1="115.08" y1="151.48" x2="113.16" y2="151.48"/><line class="cls-17" x1="111.48" y1="151.48" x2="109.32" y2="151.48"/><line class="cls-17" x1="107.64" y1="151.48" x2="105.48" y2="151.48"/><line class="cls-17" x1="103.8" y1="151.48" x2="101.64" y2="151.48"/><line class="cls-17" x1="99.96" y1="151.48" x2="97.8" y2="151.48"/><line class="cls-17" x1="96.12" y1="151.48" x2="93.96" y2="151.48"/><line class="cls-17" x1="92.28" y1="151.48" x2="90.12" y2="151.48"/><line class="cls-17" x1="88.44" y1="151.48" x2="86.28" y2="151.48"/><line class="cls-17" x1="84.6" y1="151.48" x2="82.44" y2="151.48"/><line class="cls-17" x1="80.76" y1="151.48" x2="78.6" y2="151.48"/><line class="cls-17" x1="76.92" y1="151.48" x2="74.76" y2="151.48"/><line class="cls-17" x1="73.08" y1="151.48" x2="70.92" y2="151.48"/><line class="cls-17" x1="69.24" y1="151.48" x2="67.08" y2="151.48"/><line class="cls-17" x1="65.4" y1="151.48" x2="63.24" y2="151.48"/><line class="cls-17" x1="61.56" y1="151.48" x2="59.4" y2="151.48"/><line class="cls-17" x1="57.72" y1="151.48" x2="55.56" y2="151.48"/><line class="cls-17" x1="53.88" y1="151.48" x2="51.96" y2="151.48"/><line class="cls-17" x1="50.04" y1="151.48" x2="48.12" y2="151.48"/><line class="cls-17" x1="46.2" y1="151.48" x2="44.28" y2="151.48"/><line class="cls-17" x1="42.6" y1="151.48" x2="40.44" y2="151.48"/><line class="cls-17" x1="38.76" y1="151.48" x2="36.6" y2="151.48"/><line class="cls-17" x1="34.92" y1="151.48" x2="32.76" y2="151.48"/><line class="cls-17" x1="31.08" y1="151.48" x2="28.92" y2="151.48"/><line class="cls-17" x1="27.24" y1="151.48" x2="25.08" y2="151.48"/><line class="cls-17" x1="23.4" y1="151.48" x2="21.24" y2="151.48"/><line class="cls-17" x1="19.56" y1="151.48" x2="17.4" y2="151.48"/><line class="cls-17" x1="15.72" y1="151.48" x2="13.56" y2="151.48"/><line class="cls-17" x1="11.88" y1="151.48" x2="9.72" y2="151.48"/><line class="cls-17" x1="8.04" y1="151.48" x2="7.08" y2="151.48"/><line class="cls-17" x1="94.92" y1="264.04" x2="214.68" y2="264.04"/><polyline class="cls-17" points="92.28 261.16 93 263.08 94.92 264.04"/><line class="cls-17" x1="92.28" y1="210.76" x2="92.28" y2="261.16"/><polyline class="cls-17" points="94.92 207.88 93 208.6 92.28 210.76"/><line class="cls-17" x1="214.68" y1="207.88" x2="94.92" y2="207.88"/><polyline class="cls-17" points="217.56 210.76 216.6 208.6 214.68 207.88"/><line class="cls-17" x1="217.56" y1="261.16" x2="217.56" y2="210.76"/><polyline class="cls-17" points="214.68 264.04 216.6 263.08 217.56 261.16"/><polyline class="cls-18" points="185.88 207.88 185.88 209.32 213.48 209.32 213.48 207.88 185.88 207.88"/><polyline class="cls-18" points="99.72 262.6 99.72 264.04 140.04 264.04 140.04 262.6 99.72 262.6"/><polyline class="cls-18" points="186.12 262.6 186.12 264.04 213.48 264.04 213.48 262.6 186.12 262.6"/><line class="cls-18" x1="93.96" y1="258.52" x2="92.52" y2="258.52"/><line class="cls-18" x1="93.96" y1="213.16" x2="93.96" y2="258.52"/><line class="cls-18" x1="92.52" y1="213.16" x2="93.96" y2="213.16"/><line class="cls-18" x1="92.52" y1="258.52" x2="92.52" y2="213.16"/><line class="cls-18" x1="215.64" y1="258.28" x2="217.08" y2="258.28"/><line class="cls-18" x1="215.64" y1="213.16" x2="215.64" y2="258.28"/><line class="cls-18" x1="217.08" y1="213.16" x2="215.64" y2="213.16"/><line class="cls-18" x1="217.08" y1="258.28" x2="217.08" y2="213.16"/><line class="cls-18" x1="189" y1="212.68" x2="212.76" y2="212.68"/><line class="cls-18" x1="189" y1="259.24" x2="189" y2="212.68"/><line class="cls-18" x1="212.76" y1="259.24" x2="189" y2="259.24"/><line class="cls-18" x1="212.76" y1="212.68" x2="212.76" y2="259.24"/><line class="cls-18" x1="97.08" y1="261.88" x2="212.52" y2="261.88"/><polyline class="cls-18" points="94.44 259 95.16 260.92 97.08 261.88"/><line class="cls-18" x1="94.44" y1="212.92" x2="94.44" y2="259"/><polyline class="cls-18" points="97.08 210.04 95.16 210.76 94.44 212.92"/><line class="cls-18" x1="212.52" y1="210.04" x2="97.08" y2="210.04"/><polyline class="cls-18" points="215.4 212.92 214.44 210.76 212.52 210.04"/><line class="cls-18" x1="215.4" y1="259" x2="215.4" y2="212.92"/><polyline class="cls-18" points="212.52 261.88 214.44 260.92 215.4 259"/><polyline class="cls-18" points="217.56 261.16 217.56 210.76 217.32 209.8 217.08 209.32 216.6 208.6 216.12 208.12 215.4 207.88 214.68 207.88 94.92 207.88 94.2 207.88 93.72 208.12 93 208.6 92.52 209.32 92.28 209.8 92.28 210.76 92.28 261.16 92.28 261.88 92.52 262.6 93 263.08 93.72 263.56 94.2 263.8 94.92 264.04 214.68 264.04 215.4 263.8 216.12 263.56 216.6 263.08 217.08 262.6 217.32 261.88 217.56 261.16"/><polyline class="cls-18" points="178.44 312.04 179.64 312.28 181.32 312.52"/><polyline class="cls-18" points="199.56 312.04 198.12 312.28 196.68 312.52"/><line class="cls-18" x1="175.56" y1="308.92" x2="175.56" y2="309.4"/><polyline class="cls-18" points="175.56 308.92 175.32 307.24 175.56 305.8"/><polyline class="cls-18" points="178.44 312.04 176.52 311.08 175.56 309.4"/><line class="cls-18" x1="202.44" y1="308.92" x2="202.2" y2="309.4"/><polyline class="cls-18" points="202.44 308.92 202.44 307.24 202.2 305.8"/><polyline class="cls-18" points="199.56 312.04 201.24 311.08 202.2 309.4"/><line class="cls-17" x1="203.16" y1="320.44" x2="174.84" y2="320.44"/><polyline class="cls-17" points="203.4 302.92 201.96 300.52 200.04 298.36"/><polyline class="cls-17" points="204.6 307.96 204.36 305.32 203.4 302.92"/><polyline class="cls-17" points="203.16 320.44 204.12 314.2 204.6 307.72"/><polyline class="cls-17" points="173.4 307.72 173.64 314.2 174.84 320.44"/><polyline class="cls-17" points="195 295.72 192.12 294.76 189 294.52"/><polyline class="cls-17" points="200.04 298.36 197.64 296.92 195 295.72"/><polyline class="cls-17" points="174.6 302.92 173.64 305.32 173.4 307.96"/><polyline class="cls-17" points="177.96 298.36 176.04 300.52 174.6 302.92"/><polyline class="cls-17" points="183 295.72 180.36 296.92 177.96 298.36"/><polyline class="cls-17" points="189 294.52 185.88 294.76 183 295.72"/><polyline class="cls-18" points="174.6 319.24 203.4 319.24 204.36 313.48 204.6 307.72 204.36 305.32 203.4 302.92 201.96 300.52 200.04 298.36 197.64 296.92 195 295.72 192.12 294.76 189 294.52 185.88 294.76 183 295.72 180.36 296.92 177.96 298.36 176.04 300.52 174.6 302.92 173.64 305.32 173.4 307.72 173.64 313.48 174.6 319.24"/><polyline class="cls-18" points="163.56 320.44 214.44 320.44 214.44 319.24 163.56 319.24 163.56 320.44"/><polyline class="cls-17" points="328.2 405.88 328.92 398.44 331.56 391.24 335.64 384.76 340.92 379.48 347.4 375.4 354.6 372.76 362.28 372.04"/><polyline class="cls-17" points="359.4 405.88 359.4 372.04 362.28 372.04 362.28 405.88 359.4 405.88"/><polyline class="cls-17" points="328.2 405.88 327.24 396.04 324.84 386.44 320.52 377.56 314.76 369.4 307.8 362.44 299.64 356.68 290.76 352.36 281.16 349.96 271.08 349"/><polyline class="cls-17" points="273.96 405.88 273.96 349 271.08 349 271.08 405.88 273.96 405.88"/><polyline class="cls-17" points="362.28 402.52 271.08 402.52 271.08 409.48 362.28 409.48 362.28 402.52 271.08 402.52 271.08 409.48 362.28 409.48 362.28 402.52"/><polyline class="cls-17" points="361.8 402.52 267.72 402.52 267.72 12.52 482.04 12.52 482.04 289.24 415.56 289.24 361.8 374.92 361.8 402.52"/><polyline class="cls-17" points="489 5.8 261 5.8 261 409.48 368.76 409.48 368.76 376.84 419.4 295.96 489 295.96 489 5.8"/><line class="cls-17" x1="267.72" y1="12.52" x2="267.72" y2="15.4"/><line class="cls-17" x1="267.72" y1="17.08" x2="267.72" y2="19.24"/><line class="cls-17" x1="267.72" y1="20.92" x2="267.72" y2="23.08"/><line class="cls-17" x1="267.72" y1="24.76" x2="267.72" y2="26.92"/><line class="cls-17" x1="267.72" y1="28.6" x2="267.72" y2="30.76"/><line class="cls-17" x1="267.72" y1="32.44" x2="267.72" y2="34.36"/><line class="cls-17" x1="267.72" y1="36.28" x2="267.72" y2="38.2"/><line class="cls-17" x1="267.72" y1="40.12" x2="267.72" y2="42.04"/><line class="cls-17" x1="267.72" y1="43.72" x2="267.72" y2="45.88"/><line class="cls-17" x1="267.72" y1="47.56" x2="267.72" y2="49.72"/><line class="cls-17" x1="267.72" y1="51.4" x2="267.72" y2="53.56"/><line class="cls-17" x1="267.72" y1="55.24" x2="267.72" y2="57.4"/><line class="cls-17" x1="267.72" y1="59.08" x2="267.72" y2="61.24"/><line class="cls-17" x1="267.72" y1="62.92" x2="267.72" y2="65.08"/><line class="cls-17" x1="267.72" y1="66.76" x2="267.72" y2="68.92"/><line class="cls-17" x1="267.72" y1="70.6" x2="267.72" y2="72.76"/><line class="cls-17" x1="267.72" y1="74.44" x2="267.72" y2="76.6"/><line class="cls-17" x1="267.72" y1="78.28" x2="267.72" y2="80.44"/><line class="cls-17" x1="267.72" y1="82.12" x2="267.72" y2="84.28"/><line class="cls-17" x1="267.72" y1="85.96" x2="267.72" y2="88.12"/><line class="cls-17" x1="267.72" y1="89.8" x2="267.72" y2="91.96"/><line class="cls-17" x1="267.72" y1="93.64" x2="267.72" y2="95.8"/><line class="cls-17" x1="267.72" y1="97.48" x2="267.72" y2="99.64"/><line class="cls-17" x1="267.72" y1="101.32" x2="267.72" y2="103.48"/><line class="cls-17" x1="267.72" y1="105.16" x2="267.72" y2="107.08"/><line class="cls-17" x1="267.72" y1="109" x2="267.72" y2="110.92"/><line class="cls-17" x1="267.72" y1="112.6" x2="267.72" y2="114.76"/><line class="cls-17" x1="267.72" y1="116.44" x2="267.72" y2="118.6"/><line class="cls-17" x1="267.72" y1="120.28" x2="267.72" y2="122.44"/><line class="cls-17" x1="267.72" y1="124.12" x2="267.72" y2="126.28"/><line class="cls-17" x1="267.72" y1="127.96" x2="267.72" y2="130.12"/><line class="cls-17" x1="267.72" y1="131.8" x2="267.72" y2="133.96"/><line class="cls-17" x1="267.72" y1="135.64" x2="267.72" y2="137.8"/><line class="cls-17" x1="267.72" y1="139.48" x2="267.72" y2="141.64"/><line class="cls-17" x1="267.72" y1="143.32" x2="267.72" y2="145.48"/><line class="cls-17" x1="267.72" y1="147.16" x2="267.72" y2="149.32"/><line class="cls-17" x1="267.72" y1="151" x2="267.72" y2="153.16"/><line class="cls-17" x1="267.72" y1="154.84" x2="267.72" y2="157"/><line class="cls-17" x1="267.72" y1="158.68" x2="267.72" y2="160.84"/><line class="cls-17" x1="267.72" y1="162.52" x2="267.72" y2="164.68"/><line class="cls-17" x1="267.72" y1="166.36" x2="267.72" y2="168.52"/><line class="cls-17" x1="267.72" y1="170.2" x2="267.72" y2="172.36"/><line class="cls-17" x1="267.72" y1="174.04" x2="267.72" y2="175.96"/><line class="cls-17" x1="267.72" y1="177.88" x2="267.72" y2="179.8"/><line class="cls-17" x1="267.72" y1="181.72" x2="267.72" y2="183.64"/><line class="cls-17" x1="267.72" y1="185.32" x2="267.72" y2="187.48"/><line class="cls-17" x1="267.72" y1="189.16" x2="267.72" y2="191.32"/><line class="cls-17" x1="267.72" y1="193" x2="267.72" y2="195.16"/><line class="cls-17" x1="267.72" y1="196.84" x2="267.72" y2="199"/><line class="cls-17" x1="267.72" y1="200.68" x2="267.72" y2="202.84"/><line class="cls-17" x1="267.72" y1="204.52" x2="267.72" y2="206.68"/><line class="cls-17" x1="267.72" y1="208.36" x2="267.72" y2="210.52"/><line class="cls-17" x1="267.72" y1="212.2" x2="267.72" y2="214.36"/><line class="cls-17" x1="267.72" y1="216.04" x2="267.72" y2="218.2"/><line class="cls-17" x1="267.72" y1="219.88" x2="267.72" y2="222.04"/><line class="cls-17" x1="267.72" y1="223.72" x2="267.72" y2="225.88"/><line class="cls-17" x1="267.72" y1="227.56" x2="267.72" y2="229.72"/><line class="cls-17" x1="267.72" y1="231.4" x2="267.72" y2="233.56"/><line class="cls-17" x1="267.72" y1="235.24" x2="267.72" y2="237.4"/><line class="cls-17" x1="267.72" y1="239.08" x2="267.72" y2="241.24"/><line class="cls-17" x1="267.72" y1="242.92" x2="267.72" y2="244.84"/><line class="cls-17" x1="267.72" y1="246.76" x2="267.72" y2="248.68"/><line class="cls-17" x1="267.72" y1="250.6" x2="267.72" y2="252.52"/><line class="cls-17" x1="267.72" y1="254.2" x2="267.72" y2="256.36"/><line class="cls-17" x1="267.72" y1="258.04" x2="267.72" y2="260.2"/><line class="cls-17" x1="267.72" y1="261.88" x2="267.72" y2="264.04"/><line class="cls-17" x1="267.72" y1="265.72" x2="267.72" y2="267.88"/><line class="cls-17" x1="267.72" y1="269.56" x2="267.72" y2="271.72"/><line class="cls-17" x1="267.72" y1="273.4" x2="267.72" y2="275.56"/><line class="cls-17" x1="267.72" y1="277.24" x2="267.72" y2="279.4"/><line class="cls-17" x1="267.72" y1="281.08" x2="267.72" y2="283.24"/><line class="cls-17" x1="267.72" y1="284.92" x2="267.72" y2="287.08"/><line class="cls-17" x1="267.72" y1="288.76" x2="267.72" y2="290.92"/><line class="cls-17" x1="267.72" y1="292.6" x2="267.72" y2="294.76"/><line class="cls-17" x1="267.72" y1="296.44" x2="267.72" y2="298.6"/><line class="cls-17" x1="267.72" y1="300.28" x2="267.72" y2="302.44"/><line class="cls-17" x1="267.72" y1="304.12" x2="267.72" y2="306.28"/><line class="cls-17" x1="267.72" y1="307.96" x2="267.72" y2="310.12"/><line class="cls-17" x1="267.72" y1="311.8" x2="267.72" y2="313.96"/><line class="cls-17" x1="267.72" y1="315.64" x2="267.72" y2="317.56"/><line class="cls-17" x1="267.72" y1="319.48" x2="267.72" y2="321.4"/><line class="cls-17" x1="267.72" y1="323.08" x2="267.72" y2="325.24"/><line class="cls-17" x1="267.72" y1="326.92" x2="267.72" y2="329.08"/><line class="cls-17" x1="267.72" y1="330.76" x2="267.72" y2="332.92"/><line class="cls-17" x1="267.72" y1="334.6" x2="267.72" y2="336.76"/><line class="cls-17" x1="267.72" y1="338.44" x2="267.72" y2="340.6"/><line class="cls-17" x1="267.72" y1="342.28" x2="267.72" y2="344.44"/><line class="cls-17" x1="267.72" y1="346.12" x2="267.72" y2="348.28"/><line class="cls-17" x1="267.72" y1="349.97" x2="267.72" y2="352.12"/><line class="cls-17" x1="267.72" y1="353.81" x2="267.72" y2="355.97"/><line class="cls-17" x1="267.72" y1="357.65" x2="267.72" y2="359.81"/><line class="cls-17" x1="267.72" y1="361.49" x2="267.72" y2="363.65"/><line class="cls-17" x1="267.72" y1="365.33" x2="267.72" y2="367.49"/><line class="cls-17" x1="267.72" y1="369.17" x2="267.72" y2="371.33"/><line class="cls-17" x1="267.72" y1="373.01" x2="267.72" y2="375.17"/><line class="cls-17" x1="267.72" y1="376.85" x2="267.72" y2="379.01"/><line class="cls-17" x1="267.72" y1="380.69" x2="267.72" y2="382.85"/><line class="cls-17" x1="267.72" y1="384.53" x2="267.72" y2="386.45"/><line class="cls-17" x1="267.72" y1="388.37" x2="267.72" y2="390.29"/><line class="cls-17" x1="267.72" y1="392.21" x2="267.72" y2="394.13"/><line class="cls-17" x1="267.72" y1="395.81" x2="267.72" y2="397.97"/><polyline class="cls-17" points="267.72 399.64 267.72 402.52 269.88 402.52"/><line class="cls-17" x1="271.56" y1="402.53" x2="273.72" y2="402.53"/><line class="cls-17" x1="275.4" y1="402.53" x2="277.56" y2="402.53"/><line class="cls-17" x1="279.24" y1="402.53" x2="281.4" y2="402.53"/><line class="cls-17" x1="283.08" y1="402.53" x2="285.24" y2="402.53"/><line class="cls-17" x1="286.92" y1="402.53" x2="289.08" y2="402.53"/><line class="cls-17" x1="290.76" y1="402.53" x2="292.92" y2="402.53"/><line class="cls-17" x1="294.6" y1="402.53" x2="296.76" y2="402.53"/><line class="cls-17" x1="298.44" y1="402.53" x2="300.6" y2="402.53"/><line class="cls-17" x1="302.28" y1="402.53" x2="304.44" y2="402.53"/><line class="cls-17" x1="306.12" y1="402.53" x2="308.28" y2="402.53"/><line class="cls-17" x1="309.96" y1="402.53" x2="312.12" y2="402.53"/><line class="cls-17" x1="313.8" y1="402.53" x2="315.96" y2="402.53"/><line class="cls-17" x1="317.64" y1="402.53" x2="319.8" y2="402.53"/><line class="cls-17" x1="321.48" y1="402.53" x2="323.64" y2="402.53"/><line class="cls-17" x1="325.32" y1="402.53" x2="327.48" y2="402.53"/><line class="cls-17" x1="329.16" y1="402.53" x2="331.32" y2="402.53"/><line class="cls-17" x1="333" y1="402.53" x2="334.92" y2="402.53"/><line class="cls-17" x1="336.84" y1="402.53" x2="338.76" y2="402.53"/><line class="cls-17" x1="340.68" y1="402.53" x2="342.6" y2="402.53"/><line class="cls-17" x1="344.28" y1="402.53" x2="346.44" y2="402.53"/><line class="cls-17" x1="348.12" y1="402.53" x2="350.28" y2="402.53"/><line class="cls-17" x1="351.96" y1="402.53" x2="354.12" y2="402.53"/><line class="cls-17" x1="355.8" y1="402.53" x2="357.96" y2="402.53"/><polyline class="cls-17" points="359.64 402.52 361.8 402.52 361.8 401.08"/><line class="cls-17" x1="361.8" y1="399.41" x2="361.8" y2="397.25"/><line class="cls-17" x1="361.8" y1="395.57" x2="361.8" y2="393.41"/><line class="cls-17" x1="361.8" y1="391.73" x2="361.8" y2="389.57"/><line class="cls-17" x1="361.8" y1="387.89" x2="361.8" y2="385.73"/><line class="cls-17" x1="361.8" y1="384.05" x2="361.8" y2="381.89"/><line class="cls-17" x1="361.8" y1="380.21" x2="361.8" y2="378.05"/><polyline class="cls-17" points="361.8 376.37 361.8 374.93 363 373.25"/><line class="cls-17" x1="363.72" y1="371.81" x2="364.92" y2="370.13"/><line class="cls-17" x1="365.88" y1="368.69" x2="367.08" y2="366.77"/><line class="cls-17" x1="367.8" y1="365.33" x2="369" y2="363.65"/><line class="cls-17" x1="369.96" y1="362.21" x2="370.92" y2="360.29"/><line class="cls-17" x1="371.88" y1="358.85" x2="373.08" y2="357.17"/><line class="cls-17" x1="374.04" y1="355.73" x2="375" y2="353.81"/><line class="cls-17" x1="375.96" y1="352.37" x2="377.16" y2="350.69"/><line class="cls-17" x1="378.12" y1="349.25" x2="379.08" y2="347.33"/><line class="cls-17" x1="380.04" y1="345.89" x2="381.24" y2="344.21"/><line class="cls-17" x1="381.96" y1="342.77" x2="383.16" y2="340.85"/><line class="cls-17" x1="384.12" y1="339.41" x2="385.32" y2="337.73"/><line class="cls-17" x1="386.04" y1="336.29" x2="387.24" y2="334.37"/><line class="cls-17" x1="388.2" y1="332.93" x2="389.4" y2="331.25"/><line class="cls-17" x1="390.12" y1="329.81" x2="391.32" y2="327.89"/><line class="cls-17" x1="392.28" y1="326.45" x2="393.24" y2="324.77"/><line class="cls-17" x1="394.2" y1="323.33" x2="395.4" y2="321.41"/><line class="cls-17" x1="396.36" y1="319.97" x2="397.32" y2="318.29"/><line class="cls-17" x1="398.28" y1="316.85" x2="399.48" y2="314.93"/><line class="cls-17" x1="400.44" y1="313.48" x2="401.4" y2="311.8"/><line class="cls-17" x1="402.36" y1="310.36" x2="403.56" y2="308.44"/><line class="cls-17" x1="404.52" y1="307" x2="405.48" y2="305.32"/><line class="cls-17" x1="406.44" y1="303.88" x2="407.64" y2="301.96"/><line class="cls-17" x1="408.36" y1="300.52" x2="409.56" y2="298.84"/><line class="cls-17" x1="410.52" y1="297.4" x2="411.72" y2="295.48"/><line class="cls-17" x1="412.44" y1="294.04" x2="413.64" y2="292.12"/><polyline class="cls-17" points="414.6 290.68 415.56 289.24 417.24 289.24"/><line class="cls-17" x1="418.92" y1="289.24" x2="421.08" y2="289.24"/><line class="cls-17" x1="422.76" y1="289.24" x2="424.2" y2="289.24"/><line class="cls-17" x1="475.32" y1="289.24" x2="477.72" y2="289.24"/><polyline class="cls-17" points="479.64 289.24 482.04 289.24 482.04 287.56"/><line class="cls-17" x1="482.04" y1="285.88" x2="482.04" y2="283.72"/><line class="cls-17" x1="482.04" y1="282.04" x2="482.04" y2="279.88"/><line class="cls-17" x1="482.04" y1="278.2" x2="482.04" y2="276.04"/><line class="cls-17" x1="482.04" y1="274.36" x2="482.04" y2="272.2"/><line class="cls-17" x1="482.04" y1="270.52" x2="482.04" y2="268.36"/><line class="cls-17" x1="482.04" y1="266.68" x2="482.04" y2="264.52"/><line class="cls-17" x1="482.04" y1="262.84" x2="482.04" y2="260.68"/><line class="cls-17" x1="482.04" y1="259" x2="482.04" y2="256.84"/><line class="cls-17" x1="482.04" y1="255.16" x2="482.04" y2="253"/><line class="cls-17" x1="482.04" y1="251.32" x2="482.04" y2="249.4"/><line class="cls-17" x1="482.04" y1="247.48" x2="482.04" y2="245.56"/><line class="cls-17" x1="482.04" y1="243.64" x2="482.04" y2="241.72"/><line class="cls-17" x1="482.04" y1="240.04" x2="482.04" y2="237.88"/><line class="cls-17" x1="482.04" y1="236.2" x2="482.04" y2="234.04"/><line class="cls-17" x1="482.04" y1="232.36" x2="482.04" y2="230.2"/><line class="cls-17" x1="482.04" y1="228.52" x2="482.04" y2="226.36"/><line class="cls-17" x1="482.04" y1="224.68" x2="482.04" y2="222.52"/><line class="cls-17" x1="482.04" y1="220.84" x2="482.04" y2="218.68"/><line class="cls-17" x1="482.04" y1="217" x2="482.04" y2="214.84"/><line class="cls-17" x1="482.04" y1="213.16" x2="482.04" y2="211"/><line class="cls-17" x1="482.04" y1="209.32" x2="482.04" y2="207.16"/><line class="cls-17" x1="482.04" y1="205.48" x2="482.04" y2="203.32"/><line class="cls-17" x1="482.04" y1="201.64" x2="482.04" y2="199.48"/><line class="cls-17" x1="482.04" y1="197.8" x2="482.04" y2="195.64"/><line class="cls-17" x1="482.04" y1="193.96" x2="482.04" y2="191.8"/><line class="cls-17" x1="482.04" y1="190.12" x2="482.04" y2="187.96"/><line class="cls-17" x1="482.04" y1="186.28" x2="482.04" y2="184.12"/><line class="cls-17" x1="482.04" y1="182.44" x2="482.04" y2="180.28"/><line class="cls-17" x1="482.04" y1="178.6" x2="482.04" y2="176.68"/><line class="cls-17" x1="482.04" y1="174.76" x2="482.04" y2="172.84"/><line class="cls-17" x1="482.04" y1="171.16" x2="482.04" y2="169"/><line class="cls-17" x1="482.04" y1="167.32" x2="482.04" y2="165.16"/><line class="cls-17" x1="482.04" y1="163.48" x2="482.04" y2="161.32"/><line class="cls-17" x1="482.04" y1="159.64" x2="482.04" y2="157.48"/><line class="cls-17" x1="482.04" y1="155.8" x2="482.04" y2="153.64"/><line class="cls-17" x1="482.04" y1="151.96" x2="482.04" y2="149.8"/><line class="cls-17" x1="482.04" y1="148.12" x2="482.04" y2="145.96"/><line class="cls-17" x1="482.04" y1="144.28" x2="482.04" y2="142.12"/><line class="cls-17" x1="482.04" y1="140.44" x2="482.04" y2="138.28"/><line class="cls-17" x1="482.04" y1="136.6" x2="482.04" y2="134.44"/><line class="cls-17" x1="482.04" y1="132.76" x2="482.04" y2="130.6"/><line class="cls-17" x1="482.04" y1="128.92" x2="482.04" y2="126.76"/><line class="cls-17" x1="482.04" y1="125.08" x2="482.04" y2="122.92"/><line class="cls-17" x1="482.04" y1="121.24" x2="482.04" y2="119.08"/><line class="cls-17" x1="482.04" y1="117.4" x2="482.04" y2="115.24"/><line class="cls-17" x1="482.04" y1="113.56" x2="482.04" y2="111.4"/><line class="cls-17" x1="482.04" y1="109.72" x2="482.04" y2="107.8"/><line class="cls-17" x1="482.04" y1="105.88" x2="482.04" y2="103.96"/><line class="cls-17" x1="482.04" y1="102.04" x2="482.04" y2="100.12"/><line class="cls-17" x1="482.04" y1="98.44" x2="482.04" y2="96.28"/><line class="cls-17" x1="482.04" y1="94.6" x2="482.04" y2="92.44"/><line class="cls-17" x1="482.04" y1="90.76" x2="482.04" y2="88.6"/><line class="cls-17" x1="482.04" y1="86.92" x2="482.04" y2="84.76"/><line class="cls-17" x1="482.04" y1="83.08" x2="482.04" y2="80.92"/><line class="cls-17" x1="482.04" y1="79.24" x2="482.04" y2="77.08"/><line class="cls-17" x1="482.04" y1="75.4" x2="482.04" y2="73.24"/><line class="cls-17" x1="482.04" y1="71.56" x2="482.04" y2="69.4"/><line class="cls-17" x1="482.04" y1="67.72" x2="482.04" y2="65.56"/><line class="cls-17" x1="482.04" y1="63.88" x2="482.04" y2="61.72"/><line class="cls-17" x1="482.04" y1="60.04" x2="482.04" y2="57.88"/><line class="cls-17" x1="482.04" y1="56.2" x2="482.04" y2="54.04"/><line class="cls-17" x1="482.04" y1="52.36" x2="482.04" y2="50.2"/><line class="cls-17" x1="482.04" y1="48.52" x2="482.04" y2="46.36"/><line class="cls-17" x1="482.04" y1="44.68" x2="482.04" y2="42.52"/><line class="cls-17" x1="482.04" y1="40.84" x2="482.04" y2="38.92"/><line class="cls-17" x1="482.04" y1="37" x2="482.04" y2="35.08"/><line class="cls-17" x1="482.04" y1="33.16" x2="482.04" y2="31.24"/><line class="cls-17" x1="482.04" y1="29.56" x2="482.04" y2="27.4"/><line class="cls-17" x1="482.04" y1="25.72" x2="482.04" y2="23.56"/><line class="cls-17" x1="482.04" y1="21.88" x2="482.04" y2="19.72"/><line class="cls-17" x1="482.04" y1="18.04" x2="482.04" y2="15.88"/><polyline class="cls-17" points="482.04 14.2 482.04 12.52 481.08 12.52"/><line class="cls-17" x1="479.4" y1="12.52" x2="477.24" y2="12.52"/><line class="cls-17" x1="475.56" y1="12.52" x2="473.4" y2="12.52"/><line class="cls-17" x1="471.72" y1="12.52" x2="469.56" y2="12.52"/><line class="cls-17" x1="467.88" y1="12.52" x2="465.72" y2="12.52"/><line class="cls-17" x1="464.04" y1="12.52" x2="461.88" y2="12.52"/><line class="cls-17" x1="460.2" y1="12.52" x2="458.04" y2="12.52"/><line class="cls-17" x1="456.36" y1="12.52" x2="454.2" y2="12.52"/><line class="cls-17" x1="452.52" y1="12.52" x2="450.36" y2="12.52"/><line class="cls-17" x1="448.68" y1="12.52" x2="446.52" y2="12.52"/><line class="cls-17" x1="444.84" y1="12.52" x2="442.68" y2="12.52"/><line class="cls-17" x1="441" y1="12.52" x2="438.84" y2="12.52"/><line class="cls-17" x1="437.16" y1="12.52" x2="435" y2="12.52"/><line class="cls-17" x1="433.32" y1="12.52" x2="431.16" y2="12.52"/><line class="cls-17" x1="429.48" y1="12.52" x2="427.56" y2="12.52"/><line class="cls-17" x1="425.64" y1="12.52" x2="423.72" y2="12.52"/><line class="cls-17" x1="421.8" y1="12.52" x2="419.88" y2="12.52"/><line class="cls-17" x1="418.2" y1="12.52" x2="416.04" y2="12.52"/><line class="cls-17" x1="414.36" y1="12.52" x2="412.2" y2="12.52"/><line class="cls-17" x1="410.52" y1="12.52" x2="408.36" y2="12.52"/><line class="cls-17" x1="406.68" y1="12.52" x2="404.52" y2="12.52"/><line class="cls-17" x1="402.84" y1="12.52" x2="400.68" y2="12.52"/><line class="cls-17" x1="399" y1="12.52" x2="396.84" y2="12.52"/><line class="cls-17" x1="395.16" y1="12.52" x2="393" y2="12.52"/><line class="cls-17" x1="391.32" y1="12.52" x2="389.16" y2="12.52"/><line class="cls-17" x1="387.48" y1="12.52" x2="385.32" y2="12.52"/><line class="cls-17" x1="383.64" y1="12.52" x2="381.48" y2="12.52"/><line class="cls-17" x1="379.8" y1="12.52" x2="377.64" y2="12.52"/><line class="cls-17" x1="375.96" y1="12.52" x2="373.8" y2="12.52"/><line class="cls-17" x1="372.12" y1="12.52" x2="369.96" y2="12.52"/><line class="cls-17" x1="368.28" y1="12.52" x2="366.12" y2="12.52"/><line class="cls-17" x1="364.44" y1="12.52" x2="362.28" y2="12.52"/><line class="cls-17" x1="360.6" y1="12.52" x2="358.68" y2="12.52"/><line class="cls-17" x1="356.76" y1="12.52" x2="354.84" y2="12.52"/><line class="cls-17" x1="352.92" y1="12.52" x2="351" y2="12.52"/><line class="cls-17" x1="349.32" y1="12.52" x2="347.16" y2="12.52"/><line class="cls-17" x1="345.48" y1="12.52" x2="343.32" y2="12.52"/><line class="cls-17" x1="341.64" y1="12.52" x2="339.48" y2="12.52"/><line class="cls-17" x1="337.8" y1="12.52" x2="335.64" y2="12.52"/><line class="cls-17" x1="333.96" y1="12.52" x2="331.8" y2="12.52"/><line class="cls-17" x1="330.12" y1="12.52" x2="327.96" y2="12.52"/><line class="cls-17" x1="326.28" y1="12.52" x2="324.12" y2="12.52"/><line class="cls-17" x1="322.44" y1="12.52" x2="320.28" y2="12.52"/><line class="cls-17" x1="318.6" y1="12.52" x2="316.44" y2="12.52"/><line class="cls-17" x1="314.76" y1="12.52" x2="312.6" y2="12.52"/><line class="cls-17" x1="310.92" y1="12.52" x2="308.76" y2="12.52"/><line class="cls-17" x1="307.08" y1="12.52" x2="304.92" y2="12.52"/><line class="cls-17" x1="303.24" y1="12.52" x2="301.08" y2="12.52"/><line class="cls-17" x1="299.4" y1="12.52" x2="297.24" y2="12.52"/><line class="cls-17" x1="295.56" y1="12.52" x2="293.4" y2="12.52"/><line class="cls-17" x1="291.72" y1="12.52" x2="289.56" y2="12.52"/><line class="cls-17" x1="287.88" y1="12.52" x2="285.96" y2="12.52"/><line class="cls-17" x1="284.04" y1="12.52" x2="282.12" y2="12.52"/><line class="cls-17" x1="280.44" y1="12.52" x2="278.28" y2="12.52"/><line class="cls-17" x1="276.6" y1="12.52" x2="274.44" y2="12.52"/><line class="cls-17" x1="272.76" y1="12.52" x2="270.6" y2="12.52"/><line class="cls-17" x1="268.92" y1="12.52" x2="267.72" y2="12.52"/><line class="cls-17" x1="355.8" y1="229.96" x2="475.32" y2="229.96"/><polyline class="cls-17" points="352.92 227.08 353.88 229.24 355.8 229.96"/><line class="cls-17" x1="352.92" y1="176.68" x2="352.92" y2="227.08"/><polyline class="cls-17" points="355.8 173.8 353.88 174.52 352.92 176.68"/><line class="cls-17" x1="475.32" y1="173.8" x2="355.8" y2="173.8"/><polyline class="cls-17" points="478.2 176.68 477.48 174.52 475.32 173.8"/><line class="cls-17" x1="478.2" y1="227.08" x2="478.2" y2="176.68"/><polyline class="cls-17" points="475.32 229.96 477.48 229.24 478.2 227.08"/><polyline class="cls-18" points="446.76 173.8 446.76 175.24 474.12 175.24 474.12 173.8 446.76 173.8"/><polyline class="cls-18" points="360.6 228.52 360.6 229.96 400.92 229.96 400.92 228.52 360.6 228.52"/><polyline class="cls-18" points="447 228.52 447 229.96 474.36 229.96 474.36 228.52 447 228.52"/><line class="cls-18" x1="354.84" y1="224.44" x2="353.4" y2="224.44"/><line class="cls-18" x1="354.84" y1="179.08" x2="354.84" y2="224.44"/><line class="cls-18" x1="353.4" y1="179.08" x2="354.84" y2="179.08"/><line class="cls-18" x1="353.4" y1="224.44" x2="353.4" y2="179.08"/><line class="cls-18" x1="476.28" y1="224.44" x2="477.96" y2="224.44"/><line class="cls-18" x1="476.28" y1="179.08" x2="476.28" y2="224.44"/><line class="cls-18" x1="477.96" y1="179.08" x2="476.28" y2="179.08"/><line class="cls-18" x1="477.96" y1="224.44" x2="477.96" y2="179.08"/><line class="cls-18" x1="449.88" y1="178.84" x2="473.64" y2="178.84"/><line class="cls-18" x1="449.88" y1="225.16" x2="449.88" y2="178.84"/><line class="cls-18" x1="473.64" y1="225.16" x2="449.88" y2="225.16"/><line class="cls-18" x1="473.64" y1="178.84" x2="473.64" y2="225.16"/><line class="cls-18" x1="357.96" y1="227.8" x2="473.16" y2="227.8"/><polyline class="cls-18" points="355.08 224.92 356.04 227.08 357.96 227.8"/><line class="cls-18" x1="355.08" y1="178.84" x2="355.08" y2="224.92"/><polyline class="cls-18" points="357.96 175.96 356.04 176.68 355.08 178.84"/><line class="cls-18" x1="473.16" y1="175.96" x2="357.96" y2="175.96"/><polyline class="cls-18" points="476.04 178.84 475.32 176.68 473.16 175.96"/><line class="cls-18" x1="476.04" y1="224.92" x2="476.04" y2="178.84"/><polyline class="cls-18" points="473.16 227.8 475.32 227.08 476.04 224.92"/><polyline class="cls-18" points="478.2 227.08 478.2 176.68 478.2 175.96 477.96 175.24 477.48 174.52 476.76 174.28 476.28 173.8 475.32 173.8 355.8 173.8 355.08 173.8 354.36 174.28 353.88 174.52 353.4 175.24 353.16 175.96 352.92 176.68 352.92 227.08 353.16 227.8 353.4 228.52 353.88 229.24 354.36 229.48 355.08 229.96 355.8 229.96 475.32 229.96 476.28 229.96 476.76 229.48 477.48 229.24 477.96 228.52 478.2 227.8 478.2 227.08"/><polyline class="cls-18" points="439.08 280.84 440.52 281.08 441.96 281.32"/><polyline class="cls-18" points="460.44 280.84 459 281.08 457.56 281.32"/><line class="cls-18" x1="436.44" y1="277.72" x2="436.44" y2="278.2"/><polyline class="cls-18" points="436.44 277.72 436.2 276.04 436.44 274.6"/><polyline class="cls-18" points="439.08 280.84 437.4 279.88 436.44 278.2"/><line class="cls-18" x1="463.08" y1="277.72" x2="463.08" y2="278.2"/><polyline class="cls-18" points="463.08 277.72 463.32 276.04 463.08 274.6"/><polyline class="cls-18" points="460.44 280.84 462.12 279.88 463.08 278.2"/><line class="cls-17" x1="464.04" y1="289.24" x2="435.48" y2="289.24"/><polyline class="cls-17" points="464.28 271.72 462.84 269.32 460.68 267.4"/><polyline class="cls-17" points="465.48 276.76 465 274.12 464.28 271.72"/><polyline class="cls-17" points="464.04 289.24 465 283 465.48 276.52"/><polyline class="cls-17" points="434.28 276.52 434.52 283 435.48 289.24"/><polyline class="cls-17" points="455.88 264.52 452.76 263.56 449.88 263.32"/><polyline class="cls-17" points="460.68 267.4 458.52 265.72 455.88 264.52"/><polyline class="cls-17" points="435.24 271.72 434.52 274.12 434.28 276.76"/><polyline class="cls-17" points="438.84 267.4 436.92 269.32 435.24 271.72"/><polyline class="cls-17" points="443.64 264.52 441 265.72 438.84 267.4"/><polyline class="cls-17" points="449.88 263.32 446.76 263.56 443.64 264.52"/><polyline class="cls-18" points="435.24 288.04 464.28 288.04 465 282.28 465.48 276.52 465 274.12 464.28 271.72 462.84 269.32 460.68 267.4 458.52 265.72 455.88 264.52 452.76 263.56 449.88 263.32 446.76 263.56 443.64 264.52 441 265.72 438.84 267.4 436.92 269.32 435.24 271.72 434.52 274.12 434.28 276.52 434.52 282.28 435.24 288.04"/><polyline class="cls-18" points="424.2 289.24 475.32 289.24 475.32 288.04 424.2 288.04 424.2 289.24"/><line class="cls-17" x1="355.8" y1="122.2" x2="475.32" y2="122.2"/><polyline class="cls-17" points="352.92 119.32 353.88 121.48 355.8 122.2"/><line class="cls-17" x1="352.92" y1="68.92" x2="352.92" y2="119.32"/><polyline class="cls-17" points="355.8 66.04 353.88 67 352.92 68.92"/><line class="cls-17" x1="475.32" y1="66.04" x2="355.8" y2="66.04"/><polyline class="cls-17" points="478.2 68.92 477.48 67 475.32 66.04"/><line class="cls-17" x1="478.2" y1="119.32" x2="478.2" y2="68.92"/><polyline class="cls-17" points="475.32 122.2 477.48 121.48 478.2 119.32"/><polyline class="cls-18" points="446.76 66.04 446.76 67.48 474.12 67.48 474.12 66.04 446.76 66.04"/><polyline class="cls-18" points="360.6 120.76 360.6 122.2 400.92 122.2 400.92 120.76 360.6 120.76"/><polyline class="cls-18" points="447 120.76 447 122.2 474.36 122.2 474.36 120.76 447 120.76"/><line class="cls-18" x1="354.84" y1="116.92" x2="353.4" y2="116.92"/><line class="cls-18" x1="354.84" y1="71.56" x2="354.84" y2="116.92"/><line class="cls-18" x1="353.4" y1="71.56" x2="354.84" y2="71.56"/><line class="cls-18" x1="353.4" y1="116.92" x2="353.4" y2="71.56"/><line class="cls-18" x1="476.28" y1="116.68" x2="477.96" y2="116.68"/><line class="cls-18" x1="476.28" y1="71.32" x2="476.28" y2="116.68"/><line class="cls-18" x1="477.96" y1="71.32" x2="476.28" y2="71.32"/><line class="cls-18" x1="477.96" y1="116.68" x2="477.96" y2="71.32"/><line class="cls-18" x1="449.88" y1="71.08" x2="473.64" y2="71.08"/><line class="cls-18" x1="449.88" y1="117.64" x2="449.88" y2="71.08"/><line class="cls-18" x1="473.64" y1="117.64" x2="449.88" y2="117.64"/><line class="cls-18" x1="473.64" y1="71.08" x2="473.64" y2="117.64"/><line class="cls-18" x1="357.96" y1="120.04" x2="473.16" y2="120.04"/><polyline class="cls-18" points="355.08 117.16 356.04 119.32 357.96 120.04"/><line class="cls-18" x1="355.08" y1="71.08" x2="355.08" y2="117.16"/><polyline class="cls-18" points="357.96 68.2 356.04 69.16 355.08 71.08"/><line class="cls-18" x1="473.16" y1="68.2" x2="357.96" y2="68.2"/><polyline class="cls-18" points="476.04 71.08 475.32 69.16 473.16 68.2"/><line class="cls-18" x1="476.04" y1="117.16" x2="476.04" y2="71.08"/><polyline class="cls-18" points="473.16 120.04 475.32 119.32 476.04 117.16"/><polyline class="cls-18" points="478.2 119.32 478.2 68.92 478.2 68.2 477.96 67.48 477.48 67 476.76 66.52 476.28 66.28 475.32 66.04 355.8 66.04 355.08 66.28 354.36 66.52 353.88 67 353.4 67.48 353.16 68.2 352.92 68.92 352.92 119.32 353.16 120.04 353.4 120.76 353.88 121.48 354.36 121.96 355.08 122.2 355.8 122.2 475.32 122.2 476.28 122.2 476.76 121.96 477.48 121.48 477.96 120.76 478.2 120.04 478.2 119.32"/><line class="cls-19" x1="525.24" y1="9.16" x2="525.24" y2="94.12"/><line class="cls-20" x1="525.24" y1="94.12" x2="520.92" y2="89.8"/><line class="cls-20" x1="525.24" y1="94.12" x2="529.56" y2="98.44"/><line class="cls-19" x1="525.24" y1="94.12" x2="532.2" y2="94.12"/><line class="cls-19" x1="525.24" y1="94.12" x2="511.08" y2="94.12"/><line class="cls-20" x1="525.24" y1="9.16" x2="520.92" y2="4.84"/><line class="cls-20" x1="525.24" y1="9.16" x2="529.56" y2="13.24"/><line class="cls-19" x1="525.24" y1="9.16" x2="532.2" y2="9.16"/><line class="cls-19" x1="525.24" y1="9.16" x2="511.08" y2="9.16"/><rect class="cls-21" x="511.8" y="0.04" width="9.6" height="103.44"/><text class="cls-22" transform="translate(519.48 103.24) rotate(-90)">Graph<tspan class="cls-23" x="18" y="0">i</tspan><tspan class="cls-24" x="19.44" y="0">c</tspan><tspan class="cls-25" x="22.79" y="0">_</tspan><tspan x="26.16" y="0">S</tspan><tspan class="cls-26" x="30.49" y="0">i</tspan><tspan x="31.93" y="0">ng</tspan><tspan class="cls-23" x="39.13" y="0">l</tspan><tspan x="40.58" y="0">eB</tspan><tspan class="cls-25" x="48.51" y="0">e</tspan><tspan x="51.88" y="0">d_O</tspan><tspan class="cls-27" x="64.14" y="0">ff</tspan><tspan class="cls-28" x="67.98" y="0">s</tspan><tspan class="cls-29" x="71.33" y="0">e</tspan><tspan class="cls-30" x="74.7" y="0">t</tspan><tspan x="76.62" y="0">_BV</tspan><tspan class="cls-31" x="88.88" y="0">ND</tspan><tspan class="cls-32" x="98.48" y="0">H</tspan></text><line class="cls-19" x1="549.24" y1="9.16" x2="549.24" y2="201.88"/><line class="cls-20" x1="549.24" y1="201.88" x2="544.92" y2="197.56"/><line class="cls-20" x1="549.24" y1="201.88" x2="553.56" y2="206.2"/><line class="cls-19" x1="549.24" y1="201.88" x2="556.44" y2="201.88"/><line class="cls-19" x1="549.24" y1="201.88" x2="535.08" y2="201.88"/><line class="cls-20" x1="549.24" y1="9.16" x2="544.92" y2="4.84"/><line class="cls-20" x1="549.24" y1="9.16" x2="553.56" y2="13.24"/><line class="cls-19" x1="549.24" y1="9.16" x2="556.44" y2="9.16"/><line class="cls-19" x1="549.24" y1="9.16" x2="535.08" y2="9.16"/><rect class="cls-21" x="535.8" y="52.36" width="9.6" height="106.08"/><text class="cls-33" transform="translate(543.48 158.2) rotate(-90)"><tspan class="cls-34">Graph</tspan><tspan class="cls-23" x="18" y="0">i</tspan><tspan class="cls-24" x="19.44" y="0">c</tspan><tspan class="cls-25" x="22.79" y="0">_</tspan><tspan class="cls-31" x="26.16" y="0">D</tspan><tspan class="cls-34" x="30.96" y="0">oub</tspan><tspan class="cls-26" x="41.76" y="0">l</tspan><tspan class="cls-34" x="43.2" y="0">eB</tspan><tspan class="cls-25" x="51.13" y="0">e</tspan><tspan class="cls-34" x="54.5" y="0">d_O</tspan><tspan class="cls-27" x="66.77" y="0">ff</tspan><tspan class="cls-24" x="70.6" y="0">s</tspan><tspan class="cls-25" x="73.96" y="0">e</tspan><tspan class="cls-27" x="77.32" y="0">t</tspan><tspan class="cls-34" x="79.24" y="0">_BV</tspan><tspan class="cls-31" x="91.5" y="0">ND</tspan><tspan x="101.1" y="0">H</tspan></text></g></g></svg>