<svg xmlns="http://www.w3.org/2000/svg" xmlns:xlink="http://www.w3.org/1999/xlink" viewBox="0 0 185.76 82.32"><defs><style>.cls-1,.cls-10,.cls-2,.cls-7,.cls-8,.cls-9{fill:none;}.cls-1{clip-rule:evenodd;}.cls-3{clip-path:url(#clip-path);}.cls-4{clip-path:url(#clip-path-2);}.cls-5{fill:#c6d3b4;}.cls-6{clip-path:url(#clip-path-3);}.cls-7{stroke:red;}.cls-10,.cls-7,.cls-8,.cls-9{stroke-linecap:round;stroke-linejoin:round;}.cls-7,.cls-8{stroke-width:0.24px;}.cls-10,.cls-8,.cls-9{stroke:#000;}.cls-9{stroke-width:0.48px;}.cls-10{stroke-width:0.96px;}</style><clipPath id="clip-path" transform="translate(0 -512.52)"><path class="cls-1" d="M28.92,521.28v.48H23.64v1.44h.24l-.24,6-.72,1.44L21,532.56l-.48.24-2.88,1-3.12.24v-.24l-1.44-.48A8.57,8.57,0,0,1,10,531.12H9.72v-.48H9.48v-.48l-.24-.24H9v-.72H8.76v-.72H8.52v-1l-.24-.24.24-2.88L8.76,523l.24-1.2H3.48v38.4h31.2v31.2l8.4-.24h-.24V585.6H42.6v-5.28h-.24v-1.44l.24-1.2.24-.48.24-.72,1.68-1.68,1.44-.72h2.16l1.92,1,1.2,1.2v.48h.24v.48H52v.72h.24v1.2h.24l-.24,6.48L52,590.88l-.48.24,8.64.24V546L35.4,521.28"/></clipPath><clipPath id="clip-path-2" transform="translate(0 -512.52)"><rect class="cls-2" x="0.13" width="841.92" height="595.2"/></clipPath><clipPath id="clip-path-3" transform="translate(0 -512.52)"><path class="cls-1" d="M132.84,521.28v.48h-5.28v2.88h.24l-.24,3.84-.24,1.2-.48,1-1.92,1.92-.48.24-2.88,1-3.12.24v-.24l-2.88-1-1.68-1.68h-.24v-.48l-.72-.72h-.24v-1.44h-.24v-1l-.24-.24.24-2.88.24-2.64h-5.52v69.6l39.84-.24h-.24v-3.6h-.24v-3.6h-.24v-3.6l-.24-.24.48-2.4a5.58,5.58,0,0,1,2.16-2.88l1.44-.72h2.16l1.44.72,1.92,1.92v.48h.24v.72h.24l-.24,7.68-.24,5.28-.24.24,8.64.24V546l-24.72-24.72"/></clipPath></defs><title>ROOM-ENS-STANDARD</title><g id="Layer_2" data-name="Layer 2"><g id="Layer_1-2" data-name="Layer 1"><g class="cls-3"><g class="cls-4"><rect class="cls-5" x="3.48" y="8.76" width="56.64" height="70.08"/></g></g><g class="cls-6"><g class="cls-4"><rect class="cls-5" x="107.16" y="8.76" width="56.88" height="70.08"/></g></g><line class="cls-7" x1="1.8" y1="6.84" x2="4.44" y2="6.84"/><line class="cls-7" x1="6.12" y1="6.84" x2="8.28" y2="6.84"/><line class="cls-7" x1="9.96" y1="6.84" x2="12.12" y2="6.84"/><line class="cls-7" x1="13.8" y1="6.84" x2="15.96" y2="6.84"/><line class="cls-7" x1="17.64" y1="6.84" x2="19.8" y2="6.84"/><line class="cls-7" x1="21.48" y1="6.84" x2="23.64" y2="6.84"/><line class="cls-7" x1="25.32" y1="6.84" x2="27.48" y2="6.84"/><line class="cls-7" x1="29.16" y1="6.84" x2="31.32" y2="6.84"/><line class="cls-7" x1="33" y1="6.84" x2="35.64" y2="6.84"/><line class="cls-7" x1="61.8" y1="80.52" x2="61.8" y2="78.6"/><line class="cls-7" x1="61.8" y1="76.92" x2="61.8" y2="75"/><line class="cls-7" x1="61.8" y1="73.08" x2="61.8" y2="71.16"/><line class="cls-7" x1="61.8" y1="69.24" x2="61.8" y2="67.32"/><line class="cls-7" x1="61.8" y1="65.64" x2="61.8" y2="63.48"/><line class="cls-7" x1="61.8" y1="61.8" x2="61.8" y2="59.64"/><line class="cls-7" x1="61.8" y1="57.96" x2="61.8" y2="55.8"/><line class="cls-7" x1="61.8" y1="54.12" x2="61.8" y2="51.96"/><line class="cls-7" x1="61.8" y1="50.28" x2="61.8" y2="48.12"/><line class="cls-7" x1="61.8" y1="46.44" x2="61.8" y2="44.28"/><line class="cls-7" x1="61.8" y1="42.6" x2="61.8" y2="40.44"/><line class="cls-7" x1="61.8" y1="38.76" x2="61.8" y2="36.6"/><line class="cls-7" x1="61.8" y1="34.92" x2="61.8" y2="33"/><line class="cls-7" x1="61.8" y1="80.52" x2="59.4" y2="80.52"/><line class="cls-7" x1="57.72" y1="80.52" x2="55.56" y2="80.52"/><line class="cls-7" x1="53.88" y1="80.52" x2="51.72" y2="80.52"/><line class="cls-7" x1="50.04" y1="80.52" x2="47.88" y2="80.52"/><line class="cls-7" x1="46.2" y1="80.52" x2="44.04" y2="80.52"/><line class="cls-7" x1="42.36" y1="80.52" x2="40.2" y2="80.52"/><line class="cls-7" x1="38.52" y1="80.52" x2="36.36" y2="80.52"/><line class="cls-7" x1="34.68" y1="80.52" x2="32.52" y2="80.52"/><line class="cls-7" x1="30.84" y1="80.52" x2="28.68" y2="80.52"/><line class="cls-7" x1="27" y1="80.52" x2="24.84" y2="80.52"/><line class="cls-7" x1="23.16" y1="80.52" x2="21" y2="80.52"/><line class="cls-7" x1="19.32" y1="80.52" x2="17.4" y2="80.52"/><line class="cls-7" x1="15.48" y1="80.52" x2="13.56" y2="80.52"/><line class="cls-7" x1="11.64" y1="80.52" x2="9.72" y2="80.52"/><line class="cls-7" x1="8.04" y1="80.52" x2="5.88" y2="80.52"/><line class="cls-7" x1="4.2" y1="80.52" x2="1.8" y2="80.52"/><line class="cls-7" x1="1.8" y1="6.84" x2="1.8" y2="8.52"/><line class="cls-7" x1="1.8" y1="10.2" x2="1.8" y2="12.36"/><line class="cls-7" x1="1.8" y1="14.04" x2="1.8" y2="16.2"/><line class="cls-7" x1="1.8" y1="17.88" x2="1.8" y2="20.04"/><line class="cls-7" x1="1.8" y1="21.72" x2="1.8" y2="23.88"/><line class="cls-7" x1="1.8" y1="25.56" x2="1.8" y2="27.72"/><line class="cls-7" x1="1.8" y1="29.4" x2="1.8" y2="31.56"/><line class="cls-7" x1="1.8" y1="33.24" x2="1.8" y2="35.4"/><line class="cls-7" x1="1.8" y1="37.08" x2="1.8" y2="39"/><line class="cls-7" x1="1.8" y1="40.92" x2="1.8" y2="42.84"/><line class="cls-7" x1="1.8" y1="44.52" x2="1.8" y2="46.68"/><line class="cls-7" x1="1.8" y1="48.36" x2="1.8" y2="50.52"/><line class="cls-7" x1="1.8" y1="52.2" x2="1.8" y2="54.36"/><line class="cls-7" x1="1.8" y1="56.04" x2="1.8" y2="58.2"/><line class="cls-7" x1="1.8" y1="59.88" x2="1.8" y2="62.04"/><line class="cls-7" x1="1.8" y1="63.72" x2="1.8" y2="65.88"/><line class="cls-7" x1="1.8" y1="67.56" x2="1.8" y2="69.72"/><line class="cls-7" x1="1.8" y1="71.4" x2="1.8" y2="73.56"/><line class="cls-7" x1="1.8" y1="75.24" x2="1.8" y2="77.4"/><line class="cls-7" x1="1.8" y1="79.08" x2="1.8" y2="80.52"/><polyline class="cls-8" points="37.8 9 43.08 4.68 49.56 1.56 56.28 0.12 63.24 0.12 69.96 1.56 76.44 4.68 81.72 9"/><polyline class="cls-8" points="37.8 9 43.08 4.68 49.56 1.56 56.28 0.12 63.24 0.12 69.96 1.56 76.44 4.68 81.72 9"/><line class="cls-8" x1="59.64" y1="31.08" x2="81.72" y2="9"/><polyline class="cls-8" points="58.68 30.12 80.76 8.04 81.72 9 59.64 31.08 58.68 30.12"/><polyline class="cls-8" points="36.36 5.16 0.12 5.16 0.12 82.2 63.48 82.2"/><polyline class="cls-8" points="63.48 82.2 63.48 32.28 36.36 5.16"/><polyline class="cls-8" points="60.12 78.84 3.48 78.84 3.48 8.76 34.92 8.76 60.12 33.72 60.12 78.84"/><polyline class="cls-9" points="42.84 78.6 42.84 78.84 43.08 78.84 47.4 78.84 51.48 78.84 51.72 78.84 51.96 78.6 52.44 67.8 52.2 66.6 51.96 65.4 51.48 64.2 50.76 63.24 49.8 62.52 48.84 62.04 47.88 61.56 46.68 61.56 45.72 62.04 44.76 62.52 44.04 63.24 43.08 64.2 42.6 65.4 42.36 66.6 42.36 67.8 42.84 78.6"/><polyline class="cls-8" points="51.72 77.64 51.24 76.68 50.28 76.2 48.84 75.96 47.4 75.72 45.72 75.96 44.28 76.2 43.56 76.68 42.84 77.64"/><polyline class="cls-8" points="51.96 69.48 51.72 70.44 51.48 71.4 51 72.12 50.52 72.6 50.04 72.84 49.56 73.08"/><polyline class="cls-8" points="47.4 73.32 48.6 73.32 49.56 73.08"/><polyline class="cls-8" points="47.4 73.32 46.2 73.32 45 73.08"/><polyline class="cls-8" points="44.04 72.6 44.52 72.84 45 73.08"/><polyline class="cls-8" points="43.08 71.4 43.56 72.12 44.04 72.6"/><polyline class="cls-8" points="42.6 69.48 42.84 70.44 43.08 71.4"/><line class="cls-8" x1="45.72" y1="74.52" x2="45.72" y2="73.32"/><line class="cls-8" x1="45.96" y1="74.52" x2="45.72" y2="74.52"/><line class="cls-8" x1="48.6" y1="74.52" x2="45.96" y2="74.52"/><line class="cls-8" x1="48.84" y1="74.52" x2="48.6" y2="74.52"/><line class="cls-8" x1="48.84" y1="73.32" x2="48.84" y2="74.52"/><line class="cls-8" x1="51.96" y1="69.48" x2="51.96" y2="67.8"/><line class="cls-8" x1="42.6" y1="67.8" x2="42.6" y2="69.48"/><polyline class="cls-8" points="44.04 63.24 42.84 65.4 42.6 67.8"/><polyline class="cls-8" points="50.52 63.24 48.6 62.04 46.2 62.04 44.04 63.24"/><polyline class="cls-8" points="51.96 68.04 51.72 65.64 50.52 63.24"/><line class="cls-8" x1="51.48" y1="72.12" x2="43.32" y2="72.12"/><polyline class="cls-8" points="42.36 69.48 42.6 70.68 42.84 71.64 43.32 72.36 44.04 72.84 44.52 73.08 45 73.32"/><polyline class="cls-8" points="47.4 73.56 46.2 73.56 45 73.32"/><polyline class="cls-8" points="47.4 73.56 48.6 73.56 49.8 73.32"/><polyline class="cls-8" points="50.76 72.84 50.28 73.08 49.8 73.32"/><polyline class="cls-8" points="51.72 71.64 51.24 72.36 50.76 72.84"/><polyline class="cls-8" points="52.2 69.48 52.2 70.68 51.72 71.64"/><line class="cls-8" x1="43.08" y1="78.84" x2="51.48" y2="78.84"/><polyline class="cls-8" points="42.84 78.6 42.84 78.84 43.08 78.84"/><line class="cls-8" x1="42.36" y1="67.8" x2="42.84" y2="78.6"/><polyline class="cls-8" points="44.04 63.24 42.6 65.4 42.36 67.8"/><polyline class="cls-8" points="50.76 63.24 48.6 61.8 45.96 61.8 44.04 63.24"/><polyline class="cls-8" points="52.44 67.8 51.96 65.4 50.76 63.24"/><line class="cls-8" x1="51.96" y1="78.6" x2="52.44" y2="67.8"/><polyline class="cls-8" points="51.48 78.84 51.72 78.84 51.96 78.6"/><line class="cls-8" x1="51.72" y1="78.84" x2="42.84" y2="78.84"/><line class="cls-9" x1="51.72" y1="78.84" x2="51.72" y2="78.84"/><polyline class="cls-9" points="51.96 78.6 52.44 67.8 52.2 66.6 51.96 65.4 51.48 64.2 50.76 63.24 49.8 62.52 48.84 62.04 47.88 61.56 46.68 61.56 45.72 62.04 44.76 62.52 44.04 63.24 43.08 64.2 42.6 65.4 42.36 66.6 42.36 67.8 42.84 78.6"/><polyline class="cls-9" points="42.84 78.84 42.84 78.84 43.08 78.84"/><polyline class="cls-9" points="21.48 12.84 20.76 12.6 20.04 12.6"/><polyline class="cls-9" points="10.92 12.84 11.64 12.6 12.36 12.6"/><line class="cls-9" x1="22.92" y1="14.52" x2="22.68" y2="14.04"/><polyline class="cls-9" points="22.92 14.52 22.92 15.24 22.92 15.96"/><polyline class="cls-9" points="21.48 12.84 22.2 13.32 22.68 14.04"/><line class="cls-9" x1="9.48" y1="14.52" x2="9.48" y2="14.04"/><polyline class="cls-9" points="9.48 14.52 9.48 15.24 9.48 15.96"/><polyline class="cls-9" points="10.92 12.84 9.96 13.32 9.48 14.04"/><line class="cls-8" x1="9" y1="8.76" x2="23.16" y2="8.76"/><polyline class="cls-8" points="9 17.4 9.72 18.6 10.68 19.56"/><polyline class="cls-8" points="8.28 15 8.52 16.2 9 17.4"/><polyline class="cls-8" points="9 8.76 8.52 11.88 8.28 15"/><polyline class="cls-8" points="23.88 15 23.88 11.88 23.16 8.76"/><polyline class="cls-8" points="13.08 21 14.52 21.48 16.2 21.48"/><polyline class="cls-8" points="10.68 19.56 11.88 20.52 13.08 21"/><polyline class="cls-8" points="23.4 17.4 23.88 16.2 23.88 15"/><polyline class="cls-8" points="21.72 19.56 22.68 18.6 23.4 17.4"/><polyline class="cls-8" points="19.08 21 20.52 20.52 21.72 19.56"/><polyline class="cls-8" points="16.2 21.48 17.64 21.48 19.08 21"/><polyline class="cls-9" points="23.4 9.24 9 9.24 8.52 12.12 8.28 15 8.52 16.2 9 17.4 9.72 18.6 10.68 19.56 11.88 20.52 13.08 21 14.52 21.48 16.2 21.48 17.64 21.48 19.08 21 20.52 20.52 21.72 19.56 22.68 18.6 23.4 17.4 23.88 16.2 23.88 15 23.88 12.12 23.4 9.24"/><polyline class="cls-10" points="28.92 8.76 3.48 8.76 3.48 9.24 28.92 9.24 28.92 8.76"/><polyline class="cls-8" points="34.68 47.64 34.68 78.84 3.48 78.84 3.48 47.64 34.68 47.64"/><polyline class="cls-9" points="34.68 47.64 3.48 47.64 3.48 78.84 34.68 78.84 34.68 47.64"/><line class="cls-9" x1="34.92" y1="8.76" x2="28.92" y2="8.76"/><line class="cls-9" x1="3.48" y1="9.24" x2="3.48" y2="47.64"/><line class="cls-9" x1="34.68" y1="78.84" x2="43.08" y2="78.84"/><polyline class="cls-9" points="51.48 78.84 60.12 78.84 60.12 33.72 34.92 8.76"/><line class="cls-7" x1="105.48" y1="6.84" x2="108.36" y2="6.84"/><line class="cls-7" x1="110.04" y1="6.84" x2="112.2" y2="6.84"/><line class="cls-7" x1="113.88" y1="6.84" x2="116.04" y2="6.84"/><line class="cls-7" x1="117.72" y1="6.84" x2="119.88" y2="6.84"/><line class="cls-7" x1="121.56" y1="6.84" x2="123.72" y2="6.84"/><line class="cls-7" x1="125.4" y1="6.84" x2="127.56" y2="6.84"/><line class="cls-7" x1="129.24" y1="6.84" x2="131.16" y2="6.84"/><line class="cls-7" x1="133.08" y1="6.84" x2="135" y2="6.84"/><line class="cls-7" x1="136.92" y1="6.84" x2="139.56" y2="6.84"/><line class="cls-7" x1="165.72" y1="80.52" x2="165.72" y2="78.6"/><line class="cls-7" x1="165.72" y1="76.92" x2="165.72" y2="75"/><line class="cls-7" x1="165.72" y1="73.08" x2="165.72" y2="71.16"/><line class="cls-7" x1="165.72" y1="69.24" x2="165.72" y2="67.32"/><line class="cls-7" x1="165.72" y1="65.64" x2="165.72" y2="63.48"/><line class="cls-7" x1="165.72" y1="61.8" x2="165.72" y2="59.64"/><line class="cls-7" x1="165.72" y1="57.96" x2="165.72" y2="55.8"/><line class="cls-7" x1="165.72" y1="54.12" x2="165.72" y2="51.96"/><line class="cls-7" x1="165.72" y1="50.28" x2="165.72" y2="48.12"/><line class="cls-7" x1="165.72" y1="46.44" x2="165.72" y2="44.28"/><line class="cls-7" x1="165.72" y1="42.6" x2="165.72" y2="40.44"/><line class="cls-7" x1="165.72" y1="38.76" x2="165.72" y2="36.6"/><line class="cls-7" x1="165.72" y1="34.92" x2="165.72" y2="33"/><line class="cls-7" x1="165.72" y1="80.52" x2="163.32" y2="80.52"/><line class="cls-7" x1="161.64" y1="80.52" x2="159.48" y2="80.52"/><line class="cls-7" x1="157.8" y1="80.52" x2="155.64" y2="80.52"/><line class="cls-7" x1="153.96" y1="80.52" x2="151.8" y2="80.52"/><line class="cls-7" x1="150.12" y1="80.52" x2="147.96" y2="80.52"/><line class="cls-7" x1="146.28" y1="80.52" x2="144.12" y2="80.52"/><line class="cls-7" x1="142.44" y1="80.52" x2="140.28" y2="80.52"/><line class="cls-7" x1="138.6" y1="80.52" x2="136.44" y2="80.52"/><line class="cls-7" x1="134.76" y1="80.52" x2="132.6" y2="80.52"/><line class="cls-7" x1="130.92" y1="80.52" x2="128.76" y2="80.52"/><line class="cls-7" x1="127.08" y1="80.52" x2="124.92" y2="80.52"/><line class="cls-7" x1="123.24" y1="80.52" x2="121.08" y2="80.52"/><line class="cls-7" x1="119.4" y1="80.52" x2="117.24" y2="80.52"/><line class="cls-7" x1="115.56" y1="80.52" x2="113.4" y2="80.52"/><line class="cls-7" x1="111.72" y1="80.52" x2="109.56" y2="80.52"/><line class="cls-7" x1="107.88" y1="80.52" x2="105.48" y2="80.52"/><line class="cls-7" x1="105.48" y1="6.84" x2="105.48" y2="8.52"/><line class="cls-7" x1="105.48" y1="10.2" x2="105.48" y2="12.36"/><line class="cls-7" x1="105.48" y1="14.04" x2="105.48" y2="16.2"/><line class="cls-7" x1="105.48" y1="17.88" x2="105.48" y2="20.04"/><line class="cls-7" x1="105.48" y1="21.72" x2="105.48" y2="23.88"/><line class="cls-7" x1="105.48" y1="25.56" x2="105.48" y2="27.72"/><line class="cls-7" x1="105.48" y1="29.4" x2="105.48" y2="31.56"/><line class="cls-7" x1="105.48" y1="33.24" x2="105.48" y2="35.4"/><line class="cls-7" x1="105.48" y1="37.08" x2="105.48" y2="39"/><line class="cls-7" x1="105.48" y1="40.92" x2="105.48" y2="42.84"/><line class="cls-7" x1="105.48" y1="44.52" x2="105.48" y2="46.68"/><line class="cls-7" x1="105.48" y1="48.36" x2="105.48" y2="50.52"/><line class="cls-7" x1="105.48" y1="52.2" x2="105.48" y2="54.36"/><line class="cls-7" x1="105.48" y1="56.04" x2="105.48" y2="58.2"/><line class="cls-7" x1="105.48" y1="59.88" x2="105.48" y2="62.04"/><line class="cls-7" x1="105.48" y1="63.72" x2="105.48" y2="65.88"/><line class="cls-7" x1="105.48" y1="67.56" x2="105.48" y2="69.72"/><line class="cls-7" x1="105.48" y1="71.4" x2="105.48" y2="73.56"/><line class="cls-7" x1="105.48" y1="75.24" x2="105.48" y2="77.4"/><line class="cls-7" x1="105.48" y1="79.08" x2="105.48" y2="80.52"/><polyline class="cls-8" points="141.48 9 147 4.68 153.24 1.56 160.2 0.12 167.16 0.12 173.88 1.56 180.12 4.68 185.64 9"/><polyline class="cls-8" points="141.48 9 147 4.68 153.24 1.56 160.2 0.12 167.16 0.12 173.88 1.56 180.12 4.68 185.64 9"/><line class="cls-8" x1="163.56" y1="31.08" x2="185.64" y2="9"/><polyline class="cls-8" points="162.6 30.12 184.68 8.04 185.64 9 163.56 31.08 162.6 30.12"/><polyline class="cls-8" points="140.28 5.16 103.8 5.16 103.8 82.2"/><polyline class="cls-8" points="167.4 82.2 167.4 32.28 140.28 5.16"/><polyline class="cls-8" points="164.04 78.84 107.16 78.84 107.16 8.76 138.84 8.76 164.04 33.72 164.04 78.84"/><polyline class="cls-9" points="146.76 78.6 146.76 78.84 147 78.84 151.08 78.84 155.4 78.84 155.64 78.84 155.64 78.6 156.12 67.8 156.12 66.6 155.88 65.4 155.4 64.2 154.44 63.24 153.72 62.52 152.76 62.04 151.8 61.56 150.6 61.56 149.64 62.04 148.68 62.52 147.72 63.24 147 64.2 146.52 65.4 146.28 66.6 146.04 67.8 146.76 78.6"/><polyline class="cls-8" points="155.64 77.64 155.16 76.68 154.2 76.2 152.76 75.96 151.08 75.72 149.64 75.96 148.2 76.2 147.24 76.68 146.76 77.64"/><polyline class="cls-8" points="155.88 69.48 155.64 70.44 155.4 71.4 154.92 72.12 154.44 72.6 153.96 72.84 153.48 73.08"/><polyline class="cls-8" points="151.08 73.32 152.28 73.32 153.48 73.08"/><polyline class="cls-8" points="151.08 73.32 150.12 73.32 148.92 73.08"/><polyline class="cls-8" points="147.96 72.6 148.44 72.84 148.92 73.08"/><polyline class="cls-8" points="147 71.4 147.48 72.12 147.96 72.6"/><polyline class="cls-8" points="146.52 69.48 146.76 70.44 147 71.4"/><line class="cls-8" x1="149.64" y1="74.52" x2="149.64" y2="73.32"/><line class="cls-8" x1="149.88" y1="74.52" x2="149.64" y2="74.52"/><line class="cls-8" x1="152.52" y1="74.52" x2="149.88" y2="74.52"/><line class="cls-8" x1="152.76" y1="74.52" x2="152.52" y2="74.52"/><line class="cls-8" x1="152.76" y1="73.32" x2="152.76" y2="74.52"/><line class="cls-8" x1="155.88" y1="69.48" x2="155.88" y2="67.8"/><line class="cls-8" x1="146.52" y1="67.8" x2="146.52" y2="69.48"/><polyline class="cls-8" points="147.96 63.24 146.76 65.4 146.52 67.8"/><polyline class="cls-8" points="154.44 63.24 152.28 62.04 150.12 62.04 147.96 63.24"/><polyline class="cls-8" points="155.88 68.04 155.64 65.64 154.44 63.24"/><line class="cls-8" x1="155.16" y1="72.12" x2="147.24" y2="72.12"/><polyline class="cls-8" points="146.28 69.48 146.28 70.68 146.76 71.64 147.24 72.36 147.72 72.84 148.2 73.08 148.68 73.32"/><polyline class="cls-8" points="151.08 73.56 149.88 73.56 148.68 73.32"/><polyline class="cls-8" points="151.08 73.56 152.28 73.56 153.48 73.32"/><polyline class="cls-8" points="154.44 72.84 154.2 73.08 153.48 73.32"/><polyline class="cls-8" points="155.64 71.64 155.16 72.36 154.44 72.84"/><polyline class="cls-8" points="156.12 69.48 155.88 70.68 155.64 71.64"/><line class="cls-8" x1="147" y1="78.84" x2="155.4" y2="78.84"/><polyline class="cls-8" points="146.76 78.6 146.76 78.84 147 78.84"/><line class="cls-8" x1="146.04" y1="67.8" x2="146.76" y2="78.6"/><polyline class="cls-8" points="147.72 63.24 146.52 65.4 146.04 67.8"/><polyline class="cls-8" points="154.44 63.24 152.52 61.8 149.88 61.8 147.72 63.24"/><polyline class="cls-8" points="156.12 67.8 155.88 65.4 154.44 63.24"/><line class="cls-8" x1="155.64" y1="78.6" x2="156.12" y2="67.8"/><polyline class="cls-8" points="155.4 78.84 155.64 78.84 155.64 78.6"/><line class="cls-8" x1="155.64" y1="78.84" x2="146.76" y2="78.84"/><line class="cls-9" x1="155.4" y1="78.84" x2="155.64" y2="78.84"/><polyline class="cls-9" points="155.64 78.6 156.12 67.8 156.12 66.6 155.88 65.4 155.4 64.2 154.44 63.24 153.72 62.52 152.76 62.04 151.8 61.56 150.6 61.56 149.64 62.04 148.68 62.52 147.72 63.24 147 64.2 146.52 65.4 146.28 66.6 146.04 67.8 146.76 78.6"/><line class="cls-9" x1="146.76" y1="78.84" x2="146.76" y2="78.84"/><polyline class="cls-9" points="125.4 12.84 124.68 12.6 123.96 12.6"/><polyline class="cls-9" points="114.6 12.84 115.32 12.6 116.04 12.6"/><line class="cls-9" x1="126.84" y1="14.52" x2="126.6" y2="14.04"/><polyline class="cls-9" points="126.84 14.52 126.84 15.24 126.6 15.96"/><polyline class="cls-9" points="125.4 12.84 126.12 13.32 126.6 14.04"/><line class="cls-9" x1="113.4" y1="14.52" x2="113.4" y2="14.04"/><polyline class="cls-9" points="113.4 14.52 113.16 15.24 113.4 15.96"/><polyline class="cls-9" points="114.6 12.84 113.88 13.32 113.4 14.04"/><line class="cls-8" x1="112.92" y1="8.76" x2="127.08" y2="8.76"/><polyline class="cls-8" points="112.68 17.4 113.64 18.6 114.6 19.56"/><polyline class="cls-8" points="112.2 15 112.44 16.2 112.68 17.4"/><polyline class="cls-8" points="112.92 8.76 112.44 11.88 112.2 15"/><polyline class="cls-8" points="127.8 15 127.56 11.88 127.08 8.76"/><polyline class="cls-8" points="117 21 118.44 21.48 120.12 21.48"/><polyline class="cls-8" points="114.6 19.56 115.56 20.52 117 21"/><polyline class="cls-8" points="127.32 17.4 127.56 16.2 127.8 15"/><polyline class="cls-8" points="125.64 19.56 126.6 18.6 127.32 17.4"/><polyline class="cls-8" points="123 21 124.44 20.52 125.64 19.56"/><polyline class="cls-8" points="120.12 21.48 121.56 21.48 123 21"/><polyline class="cls-9" points="127.32 9.24 112.68 9.24 112.44 12.12 112.2 15 112.44 16.2 112.68 17.4 113.64 18.6 114.6 19.56 115.56 20.52 117 21 118.44 21.48 120.12 21.48 121.56 21.48 123 21 124.44 20.52 125.64 19.56 126.6 18.6 127.32 17.4 127.56 16.2 127.8 15 127.56 12.12 127.32 9.24"/><polyline class="cls-10" points="132.84 8.76 107.16 8.76 107.16 9.24 132.84 9.24 132.84 8.76"/><line class="cls-9" x1="138.84" y1="8.76" x2="132.84" y2="8.76"/><polyline class="cls-9" points="107.16 9.24 107.16 78.84 147 78.84"/><polyline class="cls-9" points="155.4 78.84 164.04 78.84 164.04 33.72 138.84 8.76"/></g></g></svg>