<svg xmlns="http://www.w3.org/2000/svg" xmlns:xlink="http://www.w3.org/1999/xlink" viewBox="0 0 100.32 87.36"><defs><style>.cls-1,.cls-2,.cls-6,.cls-7,.cls-8,.cls-9{fill:none;}.cls-1{clip-rule:evenodd;}.cls-3{clip-path:url(#clip-path);}.cls-4{clip-path:url(#clip-path-2);}.cls-5{fill:#c6d3b4;}.cls-6,.cls-8,.cls-9{stroke:#000;}.cls-6,.cls-7,.cls-8,.cls-9{stroke-linecap:round;stroke-linejoin:round;}.cls-6{stroke-width:0.96px;}.cls-7{stroke:red;}.cls-7,.cls-8{stroke-width:0.24px;}.cls-9{stroke-width:0.48px;}</style><clipPath id="clip-path" transform="translate(0 -507.48)"><polyline class="cls-1" points="29.16 510.96 29.16 559.2 96.84 559.2 96.84 550.8 96.6 550.8 91.32 551.04 84.6 551.28 84.6 551.04 83.16 550.8 82.2 550.32 81.96 550.08 81.48 549.84 81 549.84 81 549.36 80.76 549.36 80.76 548.88 80.52 548.88 80.52 548.4 80.04 547.92 79.8 547.92 79.8 546.96 79.56 546.96 79.56 545.52 79.8 544.56 80.28 544.08 80.52 543.6 80.76 543.36 81 542.88 81.48 542.64 82.2 541.92 83.16 541.44 91.32 541.44 96.6 541.68 96.84 541.92 96.84 536.88 95.64 535.68 95.4 535.68 95.4 535.2 93.96 533.76 93.72 533.76 93.72 533.28 92.28 531.84 92.04 531.84 92.04 531.36 90.6 529.92 90.36 529.92 90.36 529.44 88.92 528 88.68 528 88.68 527.52 87.24 526.08 87 526.08 87 525.6 85.56 524.16 85.32 524.16 85.32 523.68 84.12 522.48 83.88 522.48 83.88 522 82.44 520.56 82.2 520.56 82.2 520.08 80.76 518.64 80.52 518.64 80.52 518.16 79.08 516.72 78.84 516.72 78.84 516.24 77.4 514.8 77.16 514.8 77.16 514.32 75.72 512.88 75.48 512.88 75.48 512.4 74.04 510.96 63 510.96 63 511.44 57.72 511.44 57.72 514.32 57.96 514.32 57.72 518.64 57.48 519.36 57.24 519.84 56.52 520.56 56.28 521.04 55.08 522.24 53.16 523.2 51.72 523.44 48.6 523.68 48.6 523.44 47.16 523.2 45.72 522.48 45.48 522.24 45 522 44.52 522 44.52 521.52 43.8 520.8 43.56 520.8 43.56 520.32 43.32 520.32 43.32 519.84 43.08 519.6 42.84 519.6 42.84 518.4 42.6 518.4 42.6 517.2 42.36 516.96 42.6 514.08 42.84 511.44 37.32 511.44 37.32 510.96"/></clipPath><clipPath id="clip-path-2" transform="translate(0 -507.48)"><rect class="cls-2" x="0.13" width="841.92" height="595.2"/></clipPath></defs><title>ROOM-ENS-DOUBLE</title><g id="Layer_2" data-name="Layer 2"><g id="Layer_1-2" data-name="Layer 1"><g class="cls-3"><g class="cls-4"><rect class="cls-5" x="29.16" y="3.48" width="67.68" height="48.24"/></g></g><polyline class="cls-6" points="29.16 51.72 29.16 3.48 26.52 3.48 3.48 29.88 3.48 51.72 29.16 51.72"/><line class="cls-7" x1="74.52" y1="1.8" x2="78.12" y2="5.88"/><line class="cls-7" x1="83.64" y1="12.36" x2="89.4" y2="18.84"/><line class="cls-7" x1="94.92" y1="25.08" x2="98.52" y2="29.4"/><line class="cls-7" x1="30.12" y1="53.4" x2="28.2" y2="53.4"/><line class="cls-7" x1="26.52" y1="53.4" x2="24.36" y2="53.4"/><line class="cls-7" x1="22.68" y1="53.4" x2="20.52" y2="53.4"/><line class="cls-7" x1="18.84" y1="53.4" x2="16.68" y2="53.4"/><line class="cls-7" x1="15" y1="53.4" x2="12.84" y2="53.4"/><line class="cls-7" x1="11.16" y1="53.4" x2="9" y2="53.4"/><line class="cls-7" x1="7.32" y1="53.4" x2="5.16" y2="53.4"/><line class="cls-7" x1="3.48" y1="53.4" x2="1.8" y2="53.4"/><line class="cls-7" x1="1.8" y1="29.4" x2="5.4" y2="25.08"/><line class="cls-7" x1="10.92" y1="18.84" x2="16.44" y2="12.36"/><polyline class="cls-7" points="22.2 5.88 25.8 1.8 28.2 1.8"/><line class="cls-7" x1="29.88" y1="1.8" x2="32.04" y2="1.8"/><line class="cls-7" x1="33.72" y1="1.8" x2="35.88" y2="1.8"/><line class="cls-7" x1="37.56" y1="1.8" x2="39.72" y2="1.8"/><line class="cls-7" x1="41.4" y1="1.8" x2="43.56" y2="1.8"/><line class="cls-7" x1="45.24" y1="1.8" x2="47.4" y2="1.8"/><line class="cls-7" x1="49.08" y1="1.8" x2="51.24" y2="1.8"/><line class="cls-7" x1="52.92" y1="1.8" x2="55.08" y2="1.8"/><line class="cls-7" x1="56.76" y1="1.8" x2="58.92" y2="1.8"/><line class="cls-7" x1="60.6" y1="1.8" x2="62.76" y2="1.8"/><line class="cls-7" x1="64.44" y1="1.8" x2="66.6" y2="1.8"/><line class="cls-7" x1="68.28" y1="1.8" x2="70.44" y2="1.8"/><line class="cls-7" x1="72.12" y1="1.8" x2="74.52" y2="1.8"/><line class="cls-7" x1="98.52" y1="53.4" x2="98.52" y2="51.72"/><line class="cls-7" x1="98.52" y1="50.04" x2="98.52" y2="47.88"/><line class="cls-7" x1="98.52" y1="46.2" x2="98.52" y2="44.04"/><line class="cls-7" x1="98.52" y1="42.36" x2="98.52" y2="40.2"/><line class="cls-7" x1="98.52" y1="38.52" x2="98.52" y2="36.36"/><line class="cls-7" x1="98.52" y1="34.68" x2="98.52" y2="32.52"/><line class="cls-7" x1="98.52" y1="30.84" x2="98.52" y2="29.4"/><line class="cls-7" x1="98.52" y1="53.4" x2="97.56" y2="53.4"/><line class="cls-7" x1="95.88" y1="53.4" x2="93.72" y2="53.4"/><line class="cls-7" x1="92.04" y1="53.4" x2="89.88" y2="53.4"/><line class="cls-7" x1="88.2" y1="53.4" x2="86.04" y2="53.4"/><line class="cls-7" x1="84.36" y1="53.4" x2="82.2" y2="53.4"/><line class="cls-7" x1="80.52" y1="53.4" x2="78.36" y2="53.4"/><line class="cls-7" x1="76.68" y1="53.4" x2="74.52" y2="53.4"/><line class="cls-7" x1="72.84" y1="53.4" x2="70.68" y2="53.4"/><line class="cls-7" x1="69" y1="53.4" x2="66.84" y2="53.4"/><line class="cls-7" x1="65.16" y1="53.4" x2="63.96" y2="53.4"/><line class="cls-7" x1="1.8" y1="29.4" x2="1.8" y2="30.84"/><line class="cls-7" x1="1.8" y1="32.52" x2="1.8" y2="34.68"/><line class="cls-7" x1="1.8" y1="36.36" x2="1.8" y2="38.52"/><line class="cls-7" x1="1.8" y1="40.2" x2="1.8" y2="42.36"/><line class="cls-7" x1="1.8" y1="44.04" x2="1.8" y2="46.2"/><line class="cls-7" x1="1.8" y1="47.88" x2="1.8" y2="50.04"/><line class="cls-7" x1="1.8" y1="51.72" x2="1.8" y2="53.4"/><polyline class="cls-8" points="63.96 53.4 63.24 60.84 60.6 68.04 56.52 74.52 51.24 80.04 44.76 83.88 37.56 86.52 30.12 87.24"/><polyline class="cls-8" points="63.96 53.4 63.24 60.84 60.6 68.04 56.52 74.52 51.24 80.04 44.76 83.88 37.56 86.52 30.12 87.24"/><line class="cls-8" x1="30.12" y1="53.4" x2="30.12" y2="87.24"/><line class="cls-8" x1="31.56" y1="53.4" x2="31.56" y2="87.24"/><polyline class="cls-8" points="30.12 87.24 30.12 53.4 31.56 53.4"/><line class="cls-8" x1="96.84" y1="51.72" x2="63.96" y2="51.72"/><polyline class="cls-8" points="30.12 51.72 3.48 51.72 3.48 29.88 26.52 3.48 73.8 3.48 96.84 29.88 96.84 51.72"/><line class="cls-8" x1="75.24" y1="0.12" x2="25.08" y2="0.12"/><polyline class="cls-8" points="25.08 0.12 0.12 28.68 0.12 55.08 100.2 55.08"/><polyline class="cls-8" points="100.2 55.08 100.2 28.68 75.24 0.12"/><polyline class="cls-9" points="96.6 43.56 96.6 43.32 96.84 43.32 96.84 43.08 96.84 39 96.84 34.68 96.84 34.44 96.6 34.44 85.8 33.96 84.6 33.96 83.16 34.2 82.2 34.68 81 35.64 80.52 36.36 79.8 37.32 79.56 38.28 79.56 39.48 79.8 40.44 80.52 41.4 81 42.36 82.2 43.08 83.16 43.56 84.6 43.8 85.8 44.04 96.6 43.56"/><polyline class="cls-8" points="95.64 34.44 94.68 35.16 94.2 35.88 93.96 37.32 93.72 39 93.96 40.44 94.2 41.88 94.68 42.84 95.64 43.32"/><polyline class="cls-8" points="87.48 34.2 88.44 34.44 89.4 34.68 90.12 35.16 90.6 35.64 90.84 36.12 91.08 36.6"/><polyline class="cls-8" points="91.32 39 91.32 37.8 91.08 36.6"/><polyline class="cls-8" points="91.32 39 91.32 40.2 91.08 41.16"/><polyline class="cls-8" points="90.6 42.12 90.84 41.64 91.08 41.16"/><polyline class="cls-8" points="89.4 43.08 90.12 42.6 90.6 42.12"/><polyline class="cls-8" points="87.48 43.56 88.44 43.32 89.4 43.08"/><line class="cls-8" x1="92.52" y1="40.44" x2="91.32" y2="40.44"/><line class="cls-8" x1="92.52" y1="40.2" x2="92.52" y2="40.44"/><line class="cls-8" x1="92.52" y1="37.56" x2="92.52" y2="40.2"/><line class="cls-8" x1="92.28" y1="37.32" x2="92.52" y2="37.56"/><line class="cls-8" x1="91.32" y1="37.32" x2="92.28" y2="37.32"/><line class="cls-8" x1="87.48" y1="34.2" x2="85.8" y2="34.2"/><line class="cls-8" x1="85.8" y1="43.56" x2="87.48" y2="43.56"/><polyline class="cls-8" points="81.24 42.12 83.4 43.32 85.8 43.56"/><polyline class="cls-8" points="81.24 35.64 80.04 37.8 80.04 40.2 81.24 42.12"/><polyline class="cls-8" points="86.04 34.2 83.4 34.44 81.24 35.64"/><line class="cls-8" x1="90.12" y1="34.92" x2="90.12" y2="43.08"/><polyline class="cls-8" points="87.48 43.8 88.68 43.8 89.64 43.32 90.36 42.84 90.84 42.36 91.08 41.88 91.32 41.4"/><polyline class="cls-8" points="91.56 39 91.56 40.2 91.32 41.4"/><polyline class="cls-8" points="91.56 39 91.56 37.8 91.32 36.6"/><polyline class="cls-8" points="90.84 35.64 91.08 36.12 91.32 36.6"/><polyline class="cls-8" points="89.64 34.44 90.36 34.92 90.84 35.64"/><polyline class="cls-8" points="87.48 33.96 88.68 34.2 89.64 34.44"/><line class="cls-8" x1="96.84" y1="43.08" x2="96.84" y2="34.68"/><polyline class="cls-8" points="96.6 43.56 96.84 43.32 96.84 43.08"/><line class="cls-8" x1="85.8" y1="44.04" x2="96.6" y2="43.56"/><polyline class="cls-8" points="81 42.36 83.16 43.56 85.8 44.04"/><polyline class="cls-8" points="81 35.64 79.8 37.56 79.8 40.2 81 42.36"/><polyline class="cls-8" points="85.8 33.96 83.16 34.2 81 35.64"/><line class="cls-8" x1="96.6" y1="34.44" x2="85.8" y2="33.96"/><polyline class="cls-8" points="96.84 34.68 96.84 34.44 96.6 34.44"/><line class="cls-8" x1="96.84" y1="34.44" x2="96.84" y2="43.32"/><polyline class="cls-9" points="96.84 34.68 96.84 34.44 96.6 34.44 85.8 33.96 84.6 33.96 83.16 34.2 82.2 34.68 81 35.64 80.52 36.36 79.8 37.32 79.56 38.28 79.56 39.48 79.8 40.44 80.52 41.4 81 42.36 82.2 43.08 83.16 43.56 84.6 43.8 85.8 44.04 96.6 43.56"/><line class="cls-9" x1="96.6" y1="43.32" x2="96.84" y2="43.32"/><polyline class="cls-9" points="55.56 7.56 54.84 7.56 54.12 7.56"/><polyline class="cls-9" points="44.76 7.56 45.48 7.56 46.2 7.56"/><line class="cls-9" x1="56.76" y1="9.24" x2="56.76" y2="9"/><polyline class="cls-9" points="56.76 9.24 57 9.96 56.76 10.92"/><polyline class="cls-9" points="55.56 7.56 56.28 8.04 56.76 9"/><line class="cls-9" x1="43.56" y1="9.24" x2="43.56" y2="9"/><polyline class="cls-9" points="43.56 9.24 43.32 9.96 43.56 10.92"/><polyline class="cls-9" points="44.76 7.56 44.04 8.04 43.56 9"/><line class="cls-8" x1="43.08" y1="3.48" x2="57.24" y2="3.48"/><polyline class="cls-8" points="42.84 12.12 43.56 13.32 44.52 14.52"/><polyline class="cls-8" points="42.36 9.72 42.6 10.92 42.84 12.12"/><polyline class="cls-8" points="43.08 3.48 42.6 6.6 42.36 9.72"/><polyline class="cls-8" points="57.96 9.72 57.72 6.6 57.24 3.48"/><polyline class="cls-8" points="47.16 15.96 48.6 16.2 50.04 16.44"/><polyline class="cls-8" points="44.52 14.52 45.72 15.24 47.16 15.96"/><polyline class="cls-8" points="57.48 12.12 57.72 10.92 57.96 9.72"/><polyline class="cls-8" points="55.56 14.52 56.52 13.32 57.48 12.12"/><polyline class="cls-8" points="53.16 15.96 54.6 15.24 55.56 14.52"/><polyline class="cls-8" points="50.04 16.44 51.72 16.2 53.16 15.96"/><polyline class="cls-9" points="57.48 3.96 42.84 3.96 42.6 6.84 42.36 9.72 42.6 10.92 42.84 12.12 43.56 13.32 44.52 14.52 45.72 15.24 47.16 15.96 48.6 16.2 50.04 16.44 51.72 16.2 53.16 15.96 54.6 15.24 55.56 14.52 56.52 13.32 57.48 12.12 57.72 10.92 57.96 9.72 57.72 6.84 57.48 3.96"/><polyline class="cls-6" points="63 3.48 37.32 3.48 37.32 3.96 63 3.96 63 3.48"/><polyline class="cls-9" points="75.24 51.72 96.84 51.72 96.84 43.08"/><polyline class="cls-9" points="96.84 34.68 96.84 29.88 73.8 3.48"/></g></g></svg>