<svg xmlns="http://www.w3.org/2000/svg" xmlns:xlink="http://www.w3.org/1999/xlink" viewBox="0 0 402.96 150.96"><defs><style>.cls-1,.cls-10,.cls-11,.cls-2,.cls-8,.cls-9{fill:none;}.cls-1{clip-rule:evenodd;}.cls-3{clip-path:url(#clip-path);}.cls-4{clip-path:url(#clip-path-2);}.cls-5{fill:#c6d3b4;}.cls-6{clip-path:url(#clip-path-3);}.cls-7{clip-path:url(#clip-path-5);}.cls-8{stroke:red;}.cls-10,.cls-11,.cls-8,.cls-9{stroke-linecap:round;stroke-linejoin:round;}.cls-8,.cls-9{stroke-width:0.24px;}.cls-10,.cls-11,.cls-9{stroke:#000;}.cls-10{stroke-width:0.48px;}.cls-11{stroke-width:0.96px;}</style><clipPath id="clip-path" transform="translate(0 -443.88)"><path class="cls-1" d="M202.92,502.56l-.48.48-.24.48v26.16h.24l.24.24.48.24.24.24,60.48.24v-.24l.72-.72.24-26.4-.72-.72m-104.88-55V591.36h66v-.48h5.52v-1.44h-.24V588h-.24v-4.32l.24-.48c.48-1.18,1.1-2.61,2.4-3.12l.72-.72.72-.24.48-.24,1-.24h4.56l1.44.48,1,.48,2.16,2.16v.48h.24v.48h.24v.48h.24v.72h.24l-.24,3.84-.48,2.88,5.52.24v.48h15.6V447.6Z"/></clipPath><clipPath id="clip-path-2" transform="translate(0 -443.88)"><rect class="cls-2" x="0.13" width="841.92" height="595.2"/></clipPath><clipPath id="clip-path-3" transform="translate(0 -443.88)"><path class="cls-1" d="M336.12,521l-.72.72v26.4h.24l.72.72,60.48.24v-.24l.48-.24.48-.48.24-26.4-.72-.72m-61.2-59.52-.72.72v26.4h.24l.72.72,60.48.24v-.24l.48-.24.48-.48.24-26.4-.72-.72ZM292.44,447.6V591.36h66v-.48H364v-1.44h-.24V588h-.24v-2.88l-.24-.24.24-1.2.24-.48c.48-1.18,1.1-2.61,2.4-3.12l.72-.72.72-.24.48-.24,1-.24h4.56l1.44.48,1,.48,1.68,1.68v.48h.24l.48.48v.48h.24v.48h.24l-.24,6-.24,1.44,5.52.24v.48h15.6V447.6Z"/></clipPath><clipPath id="clip-path-5" transform="translate(0 -443.88)"><path class="cls-1" d="M59.16,449l-.48.48-.24.72v60h.24V511h.24l.24.24,26.4.24v-.24L86,511l.24-.24.24-61L85.8,449M3.48,447.6V591.36h66v-.48H75v-1.44h-.24V588h-.24v-2.88l-.24-.24.24-1.2a7.73,7.73,0,0,1,5.28-5h4.56l2.16.72.48.24,2.16,2.16v.48h.24v.48h.24v.48h.24l-.24,6-.24,1.44,5.52.24v.48h15.6V447.6Z"/></clipPath></defs><title>ROOM-BED-RECTANGLE</title><g id="Layer_2" data-name="Layer 2"><g id="Layer_1-2" data-name="Layer 1"><g class="cls-3"><g class="cls-4"><rect class="cls-5" x="159.24" y="3.72" width="107.04" height="143.76"/></g></g><g class="cls-6"><g class="cls-4"><rect class="cls-5" x="292.44" y="3.72" width="107.04" height="143.76"/></g></g><g class="cls-7"><g class="cls-4"><rect class="cls-5" x="3.48" y="3.72" width="107.04" height="143.76"/></g></g><line class="cls-8" x1="157.56" y1="2.04" x2="160.2" y2="2.04"/><line class="cls-8" x1="161.88" y1="2.04" x2="164.04" y2="2.04"/><line class="cls-8" x1="165.72" y1="2.04" x2="167.88" y2="2.04"/><line class="cls-8" x1="169.56" y1="2.04" x2="171.72" y2="2.04"/><line class="cls-8" x1="173.4" y1="2.04" x2="175.56" y2="2.04"/><line class="cls-8" x1="177.24" y1="2.04" x2="179.4" y2="2.04"/><line class="cls-8" x1="181.08" y1="2.04" x2="183.24" y2="2.04"/><line class="cls-8" x1="184.92" y1="2.04" x2="187.08" y2="2.04"/><line class="cls-8" x1="188.76" y1="2.04" x2="190.92" y2="2.04"/><line class="cls-8" x1="192.6" y1="2.04" x2="194.76" y2="2.04"/><line class="cls-8" x1="196.44" y1="2.04" x2="198.6" y2="2.04"/><line class="cls-8" x1="200.28" y1="2.04" x2="202.44" y2="2.04"/><line class="cls-8" x1="204.12" y1="2.04" x2="206.28" y2="2.04"/><line class="cls-8" x1="207.96" y1="2.04" x2="210.12" y2="2.04"/><line class="cls-8" x1="211.8" y1="2.04" x2="213.72" y2="2.04"/><line class="cls-8" x1="215.64" y1="2.04" x2="217.56" y2="2.04"/><line class="cls-8" x1="219.24" y1="2.04" x2="221.4" y2="2.04"/><line class="cls-8" x1="223.08" y1="2.04" x2="225.24" y2="2.04"/><line class="cls-8" x1="226.92" y1="2.04" x2="229.08" y2="2.04"/><line class="cls-8" x1="230.76" y1="2.04" x2="232.92" y2="2.04"/><line class="cls-8" x1="234.6" y1="2.04" x2="236.76" y2="2.04"/><line class="cls-8" x1="238.44" y1="2.04" x2="240.6" y2="2.04"/><line class="cls-8" x1="242.28" y1="2.04" x2="244.44" y2="2.04"/><line class="cls-8" x1="246.12" y1="2.04" x2="248.28" y2="2.04"/><line class="cls-8" x1="249.96" y1="2.04" x2="252.12" y2="2.04"/><line class="cls-8" x1="253.8" y1="2.04" x2="255.96" y2="2.04"/><line class="cls-8" x1="257.64" y1="2.04" x2="259.8" y2="2.04"/><line class="cls-8" x1="261.48" y1="2.04" x2="263.64" y2="2.04"/><line class="cls-8" x1="265.32" y1="2.04" x2="267.96" y2="2.04"/><line class="cls-8" x1="157.56" y1="149.16" x2="159.48" y2="149.16"/><line class="cls-8" x1="161.16" y1="149.16" x2="163.08" y2="149.16"/><line class="cls-8" x1="267.96" y1="2.04" x2="267.96" y2="3.96"/><line class="cls-8" x1="267.96" y1="5.64" x2="267.96" y2="7.8"/><line class="cls-8" x1="267.96" y1="9.48" x2="267.96" y2="11.64"/><line class="cls-8" x1="267.96" y1="13.32" x2="267.96" y2="15.48"/><line class="cls-8" x1="267.96" y1="17.16" x2="267.96" y2="19.32"/><line class="cls-8" x1="267.96" y1="21" x2="267.96" y2="23.16"/><line class="cls-8" x1="267.96" y1="24.84" x2="267.96" y2="27"/><line class="cls-8" x1="267.96" y1="28.68" x2="267.96" y2="30.84"/><line class="cls-8" x1="267.96" y1="32.52" x2="267.96" y2="34.68"/><line class="cls-8" x1="267.96" y1="36.36" x2="267.96" y2="38.52"/><line class="cls-8" x1="267.96" y1="40.2" x2="267.96" y2="42.12"/><line class="cls-8" x1="267.96" y1="44.04" x2="267.96" y2="45.96"/><line class="cls-8" x1="267.96" y1="47.88" x2="267.96" y2="49.8"/><line class="cls-8" x1="267.96" y1="51.48" x2="267.96" y2="53.64"/><line class="cls-8" x1="267.96" y1="55.32" x2="267.96" y2="57.48"/><line class="cls-8" x1="267.96" y1="59.16" x2="267.96" y2="61.32"/><line class="cls-8" x1="267.96" y1="63" x2="267.96" y2="65.16"/><line class="cls-8" x1="267.96" y1="66.84" x2="267.96" y2="69"/><line class="cls-8" x1="267.96" y1="70.68" x2="267.96" y2="72.84"/><line class="cls-8" x1="267.96" y1="74.52" x2="267.96" y2="76.68"/><line class="cls-8" x1="267.96" y1="78.36" x2="267.96" y2="80.52"/><line class="cls-8" x1="267.96" y1="82.2" x2="267.96" y2="84.36"/><line class="cls-8" x1="267.96" y1="86.04" x2="267.96" y2="88.2"/><line class="cls-8" x1="267.96" y1="89.88" x2="267.96" y2="92.04"/><line class="cls-8" x1="267.96" y1="93.72" x2="267.96" y2="95.88"/><line class="cls-8" x1="267.96" y1="97.56" x2="267.96" y2="99.72"/><line class="cls-8" x1="267.96" y1="101.4" x2="267.96" y2="103.32"/><line class="cls-8" x1="267.96" y1="105.24" x2="267.96" y2="107.16"/><line class="cls-8" x1="267.96" y1="108.84" x2="267.96" y2="111"/><line class="cls-8" x1="267.96" y1="112.68" x2="267.96" y2="114.84"/><line class="cls-8" x1="267.96" y1="116.52" x2="267.96" y2="118.68"/><line class="cls-8" x1="267.96" y1="120.36" x2="267.96" y2="122.52"/><line class="cls-8" x1="267.96" y1="124.2" x2="267.96" y2="126.36"/><line class="cls-8" x1="267.96" y1="128.04" x2="267.96" y2="130.2"/><line class="cls-8" x1="267.96" y1="131.88" x2="267.96" y2="134.04"/><line class="cls-8" x1="267.96" y1="135.72" x2="267.96" y2="137.88"/><line class="cls-8" x1="267.96" y1="139.56" x2="267.96" y2="141.72"/><line class="cls-8" x1="267.96" y1="143.4" x2="267.96" y2="145.56"/><polyline class="cls-8" points="267.96 147.24 267.96 149.16 267 149.16"/><line class="cls-8" x1="265.32" y1="149.16" x2="263.16" y2="149.16"/><line class="cls-8" x1="261.48" y1="149.16" x2="259.32" y2="149.16"/><line class="cls-8" x1="257.64" y1="149.16" x2="255.48" y2="149.16"/><line class="cls-8" x1="253.8" y1="149.16" x2="251.64" y2="149.16"/><line class="cls-8" x1="249.96" y1="149.16" x2="247.8" y2="149.16"/><line class="cls-8" x1="246.12" y1="149.16" x2="243.96" y2="149.16"/><line class="cls-8" x1="242.28" y1="149.16" x2="240.12" y2="149.16"/><line class="cls-8" x1="238.44" y1="149.16" x2="236.28" y2="149.16"/><line class="cls-8" x1="234.6" y1="149.16" x2="232.44" y2="149.16"/><line class="cls-8" x1="230.76" y1="149.16" x2="228.6" y2="149.16"/><line class="cls-8" x1="226.92" y1="149.16" x2="225" y2="149.16"/><line class="cls-8" x1="223.08" y1="149.16" x2="221.16" y2="149.16"/><line class="cls-8" x1="219.24" y1="149.16" x2="217.32" y2="149.16"/><line class="cls-8" x1="215.64" y1="149.16" x2="213.48" y2="149.16"/><line class="cls-8" x1="211.8" y1="149.16" x2="209.64" y2="149.16"/><line class="cls-8" x1="207.96" y1="149.16" x2="206.76" y2="149.16"/><line class="cls-8" x1="157.56" y1="149.16" x2="157.56" y2="147.24"/><line class="cls-8" x1="157.56" y1="145.56" x2="157.56" y2="143.4"/><line class="cls-8" x1="157.56" y1="141.72" x2="157.56" y2="139.56"/><line class="cls-8" x1="157.56" y1="137.88" x2="157.56" y2="135.72"/><line class="cls-8" x1="157.56" y1="134.04" x2="157.56" y2="131.88"/><line class="cls-8" x1="157.56" y1="130.2" x2="157.56" y2="128.04"/><line class="cls-8" x1="157.56" y1="126.36" x2="157.56" y2="124.2"/><line class="cls-8" x1="157.56" y1="122.52" x2="157.56" y2="120.36"/><line class="cls-8" x1="157.56" y1="118.68" x2="157.56" y2="116.52"/><line class="cls-8" x1="157.56" y1="114.84" x2="157.56" y2="112.68"/><line class="cls-8" x1="157.56" y1="111" x2="157.56" y2="108.84"/><line class="cls-8" x1="157.56" y1="107.16" x2="157.56" y2="105.24"/><line class="cls-8" x1="157.56" y1="103.32" x2="157.56" y2="101.4"/><line class="cls-8" x1="157.56" y1="99.72" x2="157.56" y2="97.56"/><line class="cls-8" x1="157.56" y1="95.88" x2="157.56" y2="93.72"/><line class="cls-8" x1="157.56" y1="92.04" x2="157.56" y2="89.88"/><line class="cls-8" x1="157.56" y1="88.2" x2="157.56" y2="86.04"/><line class="cls-8" x1="157.56" y1="84.36" x2="157.56" y2="82.2"/><line class="cls-8" x1="157.56" y1="80.52" x2="157.56" y2="78.36"/><line class="cls-8" x1="157.56" y1="76.68" x2="157.56" y2="74.52"/><line class="cls-8" x1="157.56" y1="72.84" x2="157.56" y2="70.68"/><line class="cls-8" x1="157.56" y1="69" x2="157.56" y2="66.84"/><line class="cls-8" x1="157.56" y1="65.16" x2="157.56" y2="63"/><line class="cls-8" x1="157.56" y1="61.32" x2="157.56" y2="59.16"/><line class="cls-8" x1="157.56" y1="57.48" x2="157.56" y2="55.32"/><line class="cls-8" x1="157.56" y1="53.64" x2="157.56" y2="51.48"/><line class="cls-8" x1="157.56" y1="49.8" x2="157.56" y2="47.88"/><line class="cls-8" x1="157.56" y1="45.96" x2="157.56" y2="44.04"/><line class="cls-8" x1="157.56" y1="42.12" x2="157.56" y2="40.2"/><line class="cls-8" x1="157.56" y1="38.52" x2="157.56" y2="36.36"/><line class="cls-8" x1="157.56" y1="34.68" x2="157.56" y2="32.52"/><line class="cls-8" x1="157.56" y1="30.84" x2="157.56" y2="28.68"/><line class="cls-8" x1="157.56" y1="27" x2="157.56" y2="24.84"/><line class="cls-8" x1="157.56" y1="23.16" x2="157.56" y2="21"/><line class="cls-8" x1="157.56" y1="19.32" x2="157.56" y2="17.16"/><line class="cls-8" x1="157.56" y1="15.48" x2="157.56" y2="13.32"/><line class="cls-8" x1="157.56" y1="11.64" x2="157.56" y2="9.48"/><line class="cls-8" x1="157.56" y1="7.8" x2="157.56" y2="5.64"/><line class="cls-8" x1="157.56" y1="3.96" x2="157.56" y2="2.04"/><polyline class="cls-9" points="188.76 149.16 189.48 143.64 192.12 138.6 196.2 134.52 201.24 132.12 206.76 131.16"/><polyline class="cls-9" points="188.76 149.16 189.48 143.64 192.12 138.6 196.2 134.52 201.24 132.12 206.76 131.16"/><line class="cls-9" x1="206.76" y1="149.16" x2="206.76" y2="131.16"/><polyline class="cls-9" points="205.32 149.16 205.32 131.16 206.76 131.16 206.76 149.16 205.32 149.16"/><polyline class="cls-9" points="188.76 149.16 187.8 142.68 185.16 136.44 181.32 131.16 176.04 127.08 169.8 124.68 163.08 123.72"/><polyline class="cls-9" points="188.76 149.16 187.8 142.68 185.16 136.44 181.32 131.16 176.04 127.08 169.8 124.68 163.08 123.72"/><line class="cls-9" x1="163.08" y1="149.16" x2="163.08" y2="123.72"/><polyline class="cls-9" points="164.52 149.16 164.52 123.72 163.08 123.72 163.08 149.16 164.52 149.16"/><polyline class="cls-9" points="266.28 147.48 159.24 147.48 159.24 3.72 266.28 3.72 266.28 147.48"/><polyline class="cls-9" points="269.64 0.12 155.88 0.12 155.88 150.84 269.64 150.84 269.64 0.12"/><line class="cls-9" x1="159.24" y1="147.48" x2="160.68" y2="147.48"/><line class="cls-9" x1="162.6" y1="147.48" x2="164.52" y2="147.48"/><line class="cls-9" x1="166.2" y1="147.48" x2="168.36" y2="147.48"/><line class="cls-9" x1="170.04" y1="147.48" x2="172.2" y2="147.48"/><line class="cls-9" x1="173.88" y1="147.48" x2="176.04" y2="147.48"/><line class="cls-9" x1="177.72" y1="147.48" x2="179.88" y2="147.48"/><line class="cls-9" x1="181.56" y1="147.48" x2="183.72" y2="147.48"/><line class="cls-9" x1="185.4" y1="147.48" x2="187.56" y2="147.48"/><line class="cls-9" x1="189.24" y1="147.48" x2="191.4" y2="147.48"/><line class="cls-9" x1="193.08" y1="147.48" x2="195.24" y2="147.48"/><line class="cls-9" x1="196.92" y1="147.48" x2="199.08" y2="147.48"/><line class="cls-9" x1="200.76" y1="147.48" x2="202.92" y2="147.48"/><line class="cls-9" x1="204.6" y1="147.48" x2="206.76" y2="147.48"/><line class="cls-9" x1="208.44" y1="147.48" x2="210.6" y2="147.48"/><line class="cls-9" x1="212.28" y1="147.48" x2="214.44" y2="147.48"/><line class="cls-9" x1="216.12" y1="147.48" x2="218.04" y2="147.48"/><line class="cls-9" x1="219.96" y1="147.48" x2="221.88" y2="147.48"/><line class="cls-9" x1="223.56" y1="147.48" x2="225.24" y2="147.48"/><line class="cls-9" x1="250.68" y1="147.48" x2="251.88" y2="147.48"/><line class="cls-9" x1="253.56" y1="147.48" x2="255.72" y2="147.48"/><line class="cls-9" x1="257.4" y1="147.48" x2="259.56" y2="147.48"/><line class="cls-9" x1="261.24" y1="147.48" x2="263.4" y2="147.48"/><polyline class="cls-9" points="265.08 147.48 266.28 147.48 266.28 145.32"/><line class="cls-9" x1="266.28" y1="143.64" x2="266.28" y2="141.48"/><line class="cls-9" x1="266.28" y1="139.8" x2="266.28" y2="137.64"/><line class="cls-9" x1="266.28" y1="135.96" x2="266.28" y2="133.8"/><line class="cls-9" x1="266.28" y1="132.12" x2="266.28" y2="129.96"/><line class="cls-9" x1="266.28" y1="128.28" x2="266.28" y2="126.12"/><line class="cls-9" x1="266.28" y1="124.44" x2="266.28" y2="122.28"/><line class="cls-9" x1="266.28" y1="120.6" x2="266.28" y2="118.44"/><line class="cls-9" x1="266.28" y1="116.76" x2="266.28" y2="114.6"/><line class="cls-9" x1="266.28" y1="112.92" x2="266.28" y2="110.76"/><line class="cls-9" x1="266.28" y1="109.08" x2="266.28" y2="107.16"/><line class="cls-9" x1="266.28" y1="105.24" x2="266.28" y2="103.32"/><line class="cls-9" x1="266.28" y1="101.64" x2="266.28" y2="99.48"/><line class="cls-9" x1="266.28" y1="97.8" x2="266.28" y2="95.64"/><line class="cls-9" x1="266.28" y1="93.96" x2="266.28" y2="91.8"/><line class="cls-9" x1="266.28" y1="90.12" x2="266.28" y2="87.96"/><line class="cls-9" x1="266.28" y1="86.28" x2="266.28" y2="84.12"/><line class="cls-9" x1="266.28" y1="82.44" x2="266.28" y2="80.28"/><line class="cls-9" x1="266.28" y1="78.6" x2="266.28" y2="76.44"/><line class="cls-9" x1="266.28" y1="74.76" x2="266.28" y2="72.6"/><line class="cls-9" x1="266.28" y1="70.92" x2="266.28" y2="68.76"/><line class="cls-9" x1="266.28" y1="67.08" x2="266.28" y2="64.92"/><line class="cls-9" x1="266.28" y1="63.24" x2="266.28" y2="61.08"/><line class="cls-9" x1="266.28" y1="59.4" x2="266.28" y2="57.24"/><line class="cls-9" x1="266.28" y1="55.56" x2="266.28" y2="53.4"/><line class="cls-9" x1="266.28" y1="51.72" x2="266.28" y2="49.56"/><line class="cls-9" x1="266.28" y1="47.88" x2="266.28" y2="45.96"/><line class="cls-9" x1="266.28" y1="44.04" x2="266.28" y2="42.12"/><line class="cls-9" x1="266.28" y1="40.44" x2="266.28" y2="38.28"/><line class="cls-9" x1="266.28" y1="36.6" x2="266.28" y2="34.44"/><line class="cls-9" x1="266.28" y1="32.76" x2="266.28" y2="30.6"/><line class="cls-9" x1="266.28" y1="28.92" x2="266.28" y2="26.76"/><line class="cls-9" x1="266.28" y1="25.08" x2="266.28" y2="22.92"/><line class="cls-9" x1="266.28" y1="21.24" x2="266.28" y2="19.08"/><line class="cls-9" x1="266.28" y1="17.4" x2="266.28" y2="15.24"/><line class="cls-9" x1="266.28" y1="13.56" x2="266.28" y2="11.4"/><line class="cls-9" x1="266.28" y1="9.72" x2="266.28" y2="7.56"/><polyline class="cls-9" points="266.28 5.88 266.28 3.72 265.32 3.72"/><line class="cls-9" x1="263.64" y1="3.72" x2="261.48" y2="3.72"/><line class="cls-9" x1="259.8" y1="3.72" x2="257.64" y2="3.72"/><line class="cls-9" x1="255.96" y1="3.72" x2="253.8" y2="3.72"/><line class="cls-9" x1="252.12" y1="3.72" x2="249.96" y2="3.72"/><line class="cls-9" x1="248.28" y1="3.72" x2="246.12" y2="3.72"/><line class="cls-9" x1="244.44" y1="3.72" x2="242.28" y2="3.72"/><line class="cls-9" x1="240.6" y1="3.72" x2="238.44" y2="3.72"/><line class="cls-9" x1="236.76" y1="3.72" x2="234.6" y2="3.72"/><line class="cls-9" x1="232.92" y1="3.72" x2="230.76" y2="3.72"/><line class="cls-9" x1="229.08" y1="3.72" x2="226.92" y2="3.72"/><line class="cls-9" x1="225.24" y1="3.72" x2="223.08" y2="3.72"/><line class="cls-9" x1="221.4" y1="3.72" x2="219.24" y2="3.72"/><line class="cls-9" x1="217.56" y1="3.72" x2="215.64" y2="3.72"/><line class="cls-9" x1="213.72" y1="3.72" x2="211.8" y2="3.72"/><line class="cls-9" x1="210.12" y1="3.72" x2="207.96" y2="3.72"/><line class="cls-9" x1="206.28" y1="3.72" x2="204.12" y2="3.72"/><line class="cls-9" x1="202.44" y1="3.72" x2="200.28" y2="3.72"/><line class="cls-9" x1="198.6" y1="3.72" x2="196.44" y2="3.72"/><line class="cls-9" x1="194.76" y1="3.72" x2="192.6" y2="3.72"/><line class="cls-9" x1="190.92" y1="3.72" x2="188.76" y2="3.72"/><line class="cls-9" x1="187.08" y1="3.72" x2="184.92" y2="3.72"/><line class="cls-9" x1="183.24" y1="3.72" x2="181.08" y2="3.72"/><line class="cls-9" x1="179.4" y1="3.72" x2="177.24" y2="3.72"/><line class="cls-9" x1="175.56" y1="3.72" x2="173.4" y2="3.72"/><line class="cls-9" x1="171.72" y1="3.72" x2="169.56" y2="3.72"/><line class="cls-9" x1="167.88" y1="3.72" x2="165.72" y2="3.72"/><line class="cls-9" x1="164.04" y1="3.72" x2="161.88" y2="3.72"/><polyline class="cls-9" points="160.2 3.72 159.24 3.72 159.24 5.88"/><line class="cls-9" x1="159.24" y1="7.56" x2="159.24" y2="9.72"/><line class="cls-9" x1="159.24" y1="11.4" x2="159.24" y2="13.56"/><line class="cls-9" x1="159.24" y1="15.24" x2="159.24" y2="17.4"/><line class="cls-9" x1="159.24" y1="19.08" x2="159.24" y2="21.24"/><line class="cls-9" x1="159.24" y1="22.92" x2="159.24" y2="25.08"/><line class="cls-9" x1="159.24" y1="26.76" x2="159.24" y2="28.92"/><line class="cls-9" x1="159.24" y1="30.6" x2="159.24" y2="32.76"/><line class="cls-9" x1="159.24" y1="34.44" x2="159.24" y2="36.6"/><line class="cls-9" x1="159.24" y1="38.28" x2="159.24" y2="40.44"/><line class="cls-9" x1="159.24" y1="42.12" x2="159.24" y2="44.04"/><line class="cls-9" x1="159.24" y1="45.96" x2="159.24" y2="47.88"/><line class="cls-9" x1="159.24" y1="49.56" x2="159.24" y2="51.72"/><line class="cls-9" x1="159.24" y1="53.4" x2="159.24" y2="55.56"/><line class="cls-9" x1="159.24" y1="57.24" x2="159.24" y2="59.4"/><line class="cls-9" x1="159.24" y1="61.08" x2="159.24" y2="63.24"/><line class="cls-9" x1="159.24" y1="64.92" x2="159.24" y2="67.08"/><line class="cls-9" x1="159.24" y1="68.76" x2="159.24" y2="70.92"/><line class="cls-9" x1="159.24" y1="72.6" x2="159.24" y2="74.76"/><line class="cls-9" x1="159.24" y1="76.44" x2="159.24" y2="78.6"/><line class="cls-9" x1="159.24" y1="80.28" x2="159.24" y2="82.44"/><line class="cls-9" x1="159.24" y1="84.12" x2="159.24" y2="86.28"/><line class="cls-9" x1="159.24" y1="87.96" x2="159.24" y2="90.12"/><line class="cls-9" x1="159.24" y1="91.8" x2="159.24" y2="93.96"/><line class="cls-9" x1="159.24" y1="95.64" x2="159.24" y2="97.8"/><line class="cls-9" x1="159.24" y1="99.48" x2="159.24" y2="101.64"/><line class="cls-9" x1="159.24" y1="103.32" x2="159.24" y2="105.24"/><line class="cls-9" x1="159.24" y1="107.16" x2="159.24" y2="109.08"/><line class="cls-9" x1="159.24" y1="110.76" x2="159.24" y2="112.92"/><line class="cls-9" x1="159.24" y1="114.6" x2="159.24" y2="116.76"/><line class="cls-9" x1="159.24" y1="118.44" x2="159.24" y2="120.6"/><line class="cls-9" x1="159.24" y1="122.28" x2="159.24" y2="124.44"/><line class="cls-9" x1="159.24" y1="126.12" x2="159.24" y2="128.28"/><line class="cls-9" x1="159.24" y1="129.96" x2="159.24" y2="132.12"/><line class="cls-9" x1="159.24" y1="133.8" x2="159.24" y2="135.96"/><line class="cls-9" x1="159.24" y1="137.64" x2="159.24" y2="139.8"/><line class="cls-9" x1="159.24" y1="141.48" x2="159.24" y2="143.64"/><line class="cls-9" x1="159.24" y1="145.32" x2="159.24" y2="147.48"/><line class="cls-9" x1="203.64" y1="86.76" x2="263.4" y2="86.76"/><polyline class="cls-9" points="202.2 85.32 202.68 86.28 203.64 86.76"/><line class="cls-9" x1="202.2" y1="60.12" x2="202.2" y2="85.32"/><polyline class="cls-9" points="203.64 58.68 202.68 59.16 202.2 60.12"/><line class="cls-9" x1="263.4" y1="58.68" x2="203.64" y2="58.68"/><polyline class="cls-9" points="264.84 60.12 264.36 59.16 263.4 58.68"/><line class="cls-9" x1="264.84" y1="85.32" x2="264.84" y2="60.12"/><polyline class="cls-9" points="263.4 86.76 264.36 86.28 264.84 85.32"/><polyline class="cls-10" points="249 58.68 249 59.4 262.68 59.4 262.68 58.68 249 58.68"/><polyline class="cls-10" points="206.04 86.04 206.04 86.76 226.2 86.76 226.2 86.04 206.04 86.04"/><polyline class="cls-10" points="249.24 86.04 249.24 86.76 262.92 86.76 262.92 86.04 249.24 86.04"/><line class="cls-10" x1="203.16" y1="84.12" x2="202.44" y2="84.12"/><line class="cls-10" x1="203.16" y1="61.32" x2="203.16" y2="84.12"/><line class="cls-10" x1="202.44" y1="61.32" x2="203.16" y2="61.32"/><line class="cls-10" x1="202.44" y1="84.12" x2="202.44" y2="61.32"/><line class="cls-10" x1="263.88" y1="84.12" x2="264.6" y2="84.12"/><line class="cls-10" x1="263.88" y1="61.32" x2="263.88" y2="84.12"/><line class="cls-10" x1="264.6" y1="61.32" x2="263.88" y2="61.32"/><line class="cls-10" x1="264.6" y1="84.12" x2="264.6" y2="61.32"/><line class="cls-10" x1="250.68" y1="61.32" x2="262.44" y2="61.32"/><line class="cls-10" x1="250.68" y1="84.36" x2="250.68" y2="61.32"/><line class="cls-10" x1="262.44" y1="84.36" x2="250.68" y2="84.36"/><line class="cls-10" x1="262.44" y1="61.32" x2="262.44" y2="84.36"/><line class="cls-10" x1="204.84" y1="85.8" x2="262.44" y2="85.8"/><polyline class="cls-10" points="203.4 84.36 203.64 85.32 204.84 85.8"/><line class="cls-10" x1="203.4" y1="61.32" x2="203.4" y2="84.36"/><polyline class="cls-10" points="204.84 59.88 203.64 60.12 203.4 61.32"/><line class="cls-10" x1="262.44" y1="59.88" x2="204.84" y2="59.88"/><polyline class="cls-10" points="263.88 61.32 263.4 60.12 262.44 59.88"/><line class="cls-10" x1="263.88" y1="84.36" x2="263.88" y2="61.32"/><polyline class="cls-10" points="262.44 85.8 263.4 85.32 263.88 84.36"/><polyline class="cls-10" points="264.84 85.32 264.84 60.12 264.84 59.88 264.6 59.4 264.36 59.16 264.12 58.92 263.88 58.68 263.4 58.68 203.64 58.68 203.4 58.68 202.92 58.92 202.68 59.16 202.44 59.4 202.2 59.88 202.2 60.12 202.2 85.32 202.2 85.8 202.44 86.04 202.68 86.28 202.92 86.52 203.4 86.76 203.64 86.76 263.4 86.76 263.88 86.76 264.12 86.52 264.36 86.28 264.6 86.04 264.84 85.8 264.84 85.32"/><polyline class="cls-10" points="232.68 143.4 233.4 143.64 234.12 143.64"/><polyline class="cls-10" points="243.24 143.4 242.52 143.64 241.8 143.64"/><line class="cls-10" x1="231.24" y1="141.72" x2="231.24" y2="142.2"/><polyline class="cls-10" points="231.24 141.72 231.24 141 231.24 140.28"/><polyline class="cls-10" points="232.68 143.4 231.72 142.92 231.24 142.2"/><line class="cls-10" x1="244.68" y1="141.72" x2="244.68" y2="142.2"/><polyline class="cls-10" points="244.68 141.72 244.68 141 244.68 140.28"/><polyline class="cls-10" points="243.24 143.4 244.2 142.92 244.68 142.2"/><line class="cls-9" x1="245.16" y1="147.48" x2="231" y2="147.48"/><polyline class="cls-9" points="245.16 138.84 244.44 137.64 243.48 136.68"/><polyline class="cls-9" points="245.88 141.24 245.64 140.04 245.16 138.84"/><polyline class="cls-9" points="245.16 147.48 245.64 144.36 245.88 141.24"/><polyline class="cls-9" points="230.28 141.24 230.28 144.36 231 147.48"/><polyline class="cls-9" points="241.08 135.24 239.64 134.76 237.96 134.76"/><polyline class="cls-9" points="243.48 136.68 242.28 135.72 241.08 135.24"/><polyline class="cls-9" points="230.76 138.84 230.28 140.04 230.28 141.24"/><polyline class="cls-9" points="232.44 136.68 231.48 137.64 230.76 138.84"/><polyline class="cls-9" points="234.84 135.24 233.64 135.72 232.44 136.68"/><polyline class="cls-9" points="237.96 134.76 236.52 134.76 234.84 135.24"/><polyline class="cls-10" points="230.76 147 245.16 147 245.64 144.12 245.88 141.24 245.64 140.04 245.16 138.84 244.44 137.64 243.48 136.68 242.28 135.72 241.08 135.24 239.64 134.76 237.96 134.76 236.52 134.76 234.84 135.24 233.64 135.72 232.44 136.68 231.48 137.64 230.76 138.84 230.28 140.04 230.28 141.24 230.28 144.12 230.76 147"/><polyline class="cls-11" points="225.24 147.48 250.68 147.48 250.68 147 225.24 147 225.24 147.48"/><line class="cls-8" x1="290.76" y1="2.04" x2="293.4" y2="2.04"/><line class="cls-8" x1="295.08" y1="2.04" x2="297.24" y2="2.04"/><line class="cls-8" x1="298.92" y1="2.04" x2="301.08" y2="2.04"/><line class="cls-8" x1="302.76" y1="2.04" x2="304.92" y2="2.04"/><line class="cls-8" x1="306.6" y1="2.04" x2="308.76" y2="2.04"/><line class="cls-8" x1="310.44" y1="2.04" x2="312.6" y2="2.04"/><line class="cls-8" x1="314.28" y1="2.04" x2="316.44" y2="2.04"/><line class="cls-8" x1="318.12" y1="2.04" x2="320.28" y2="2.04"/><line class="cls-8" x1="321.96" y1="2.04" x2="324.12" y2="2.04"/><line class="cls-8" x1="325.8" y1="2.04" x2="327.96" y2="2.04"/><line class="cls-8" x1="329.64" y1="2.04" x2="331.8" y2="2.04"/><line class="cls-8" x1="333.48" y1="2.04" x2="335.4" y2="2.04"/><line class="cls-8" x1="337.32" y1="2.04" x2="339.24" y2="2.04"/><line class="cls-8" x1="340.92" y1="2.04" x2="343.08" y2="2.04"/><line class="cls-8" x1="344.76" y1="2.04" x2="346.92" y2="2.04"/><line class="cls-8" x1="348.6" y1="2.04" x2="350.76" y2="2.04"/><line class="cls-8" x1="352.44" y1="2.04" x2="354.6" y2="2.04"/><line class="cls-8" x1="356.28" y1="2.04" x2="358.44" y2="2.04"/><line class="cls-8" x1="360.12" y1="2.04" x2="362.28" y2="2.04"/><line class="cls-8" x1="363.96" y1="2.04" x2="366.12" y2="2.04"/><line class="cls-8" x1="367.8" y1="2.04" x2="369.96" y2="2.04"/><line class="cls-8" x1="371.64" y1="2.04" x2="373.8" y2="2.04"/><line class="cls-8" x1="375.48" y1="2.04" x2="377.64" y2="2.04"/><line class="cls-8" x1="379.32" y1="2.04" x2="381.48" y2="2.04"/><line class="cls-8" x1="383.16" y1="2.04" x2="385.32" y2="2.04"/><line class="cls-8" x1="387" y1="2.04" x2="389.16" y2="2.04"/><line class="cls-8" x1="390.84" y1="2.04" x2="393" y2="2.04"/><line class="cls-8" x1="394.68" y1="2.04" x2="396.6" y2="2.04"/><line class="cls-8" x1="398.52" y1="2.04" x2="401.16" y2="2.04"/><line class="cls-8" x1="290.76" y1="149.16" x2="292.68" y2="149.16"/><line class="cls-8" x1="294.36" y1="149.16" x2="296.28" y2="149.16"/><line class="cls-8" x1="401.16" y1="2.04" x2="401.16" y2="3.96"/><line class="cls-8" x1="401.16" y1="5.64" x2="401.16" y2="7.8"/><line class="cls-8" x1="401.16" y1="9.48" x2="401.16" y2="11.64"/><line class="cls-8" x1="401.16" y1="13.32" x2="401.16" y2="15.48"/><line class="cls-8" x1="401.16" y1="17.16" x2="401.16" y2="19.32"/><line class="cls-8" x1="401.16" y1="21" x2="401.16" y2="23.16"/><line class="cls-8" x1="401.16" y1="24.84" x2="401.16" y2="27"/><line class="cls-8" x1="401.16" y1="28.68" x2="401.16" y2="30.84"/><line class="cls-8" x1="401.16" y1="32.52" x2="401.16" y2="34.68"/><line class="cls-8" x1="401.16" y1="36.36" x2="401.16" y2="38.52"/><line class="cls-8" x1="401.16" y1="40.2" x2="401.16" y2="42.12"/><line class="cls-8" x1="401.16" y1="44.04" x2="401.16" y2="45.96"/><line class="cls-8" x1="401.16" y1="47.88" x2="401.16" y2="49.8"/><line class="cls-8" x1="401.16" y1="51.48" x2="401.16" y2="53.64"/><line class="cls-8" x1="401.16" y1="55.32" x2="401.16" y2="57.48"/><line class="cls-8" x1="401.16" y1="59.16" x2="401.16" y2="61.32"/><line class="cls-8" x1="401.16" y1="63" x2="401.16" y2="65.16"/><line class="cls-8" x1="401.16" y1="66.84" x2="401.16" y2="69"/><line class="cls-8" x1="401.16" y1="70.68" x2="401.16" y2="72.84"/><line class="cls-8" x1="401.16" y1="74.52" x2="401.16" y2="76.68"/><line class="cls-8" x1="401.16" y1="78.36" x2="401.16" y2="80.52"/><line class="cls-8" x1="401.16" y1="82.2" x2="401.16" y2="84.36"/><line class="cls-8" x1="401.16" y1="86.04" x2="401.16" y2="88.2"/><line class="cls-8" x1="401.16" y1="89.88" x2="401.16" y2="92.04"/><line class="cls-8" x1="401.16" y1="93.72" x2="401.16" y2="95.88"/><line class="cls-8" x1="401.16" y1="97.56" x2="401.16" y2="99.72"/><line class="cls-8" x1="401.16" y1="101.4" x2="401.16" y2="103.32"/><line class="cls-8" x1="401.16" y1="105.24" x2="401.16" y2="107.16"/><line class="cls-8" x1="401.16" y1="108.84" x2="401.16" y2="111"/><line class="cls-8" x1="401.16" y1="112.68" x2="401.16" y2="114.84"/><line class="cls-8" x1="401.16" y1="116.52" x2="401.16" y2="118.68"/><line class="cls-8" x1="401.16" y1="120.36" x2="401.16" y2="122.52"/><line class="cls-8" x1="401.16" y1="124.2" x2="401.16" y2="126.36"/><line class="cls-8" x1="401.16" y1="128.04" x2="401.16" y2="130.2"/><line class="cls-8" x1="401.16" y1="131.88" x2="401.16" y2="134.04"/><line class="cls-8" x1="401.16" y1="135.72" x2="401.16" y2="137.88"/><line class="cls-8" x1="401.16" y1="139.56" x2="401.16" y2="141.72"/><line class="cls-8" x1="401.16" y1="143.4" x2="401.16" y2="145.56"/><polyline class="cls-8" points="401.16 147.24 401.16 149.16 400.2 149.16"/><line class="cls-8" x1="398.52" y1="149.16" x2="396.36" y2="149.16"/><line class="cls-8" x1="394.68" y1="149.16" x2="392.52" y2="149.16"/><line class="cls-8" x1="390.84" y1="149.16" x2="388.68" y2="149.16"/><line class="cls-8" x1="387" y1="149.16" x2="384.84" y2="149.16"/><line class="cls-8" x1="383.16" y1="149.16" x2="381" y2="149.16"/><line class="cls-8" x1="379.32" y1="149.16" x2="377.16" y2="149.16"/><line class="cls-8" x1="375.48" y1="149.16" x2="373.32" y2="149.16"/><line class="cls-8" x1="371.64" y1="149.16" x2="369.48" y2="149.16"/><line class="cls-8" x1="367.8" y1="149.16" x2="365.64" y2="149.16"/><line class="cls-8" x1="363.96" y1="149.16" x2="361.8" y2="149.16"/><line class="cls-8" x1="360.12" y1="149.16" x2="357.96" y2="149.16"/><line class="cls-8" x1="356.28" y1="149.16" x2="354.12" y2="149.16"/><line class="cls-8" x1="352.44" y1="149.16" x2="350.28" y2="149.16"/><line class="cls-8" x1="348.6" y1="149.16" x2="346.68" y2="149.16"/><line class="cls-8" x1="344.76" y1="149.16" x2="342.84" y2="149.16"/><line class="cls-8" x1="340.92" y1="149.16" x2="339.96" y2="149.16"/><line class="cls-8" x1="290.76" y1="149.16" x2="290.76" y2="147.24"/><line class="cls-8" x1="290.76" y1="145.56" x2="290.76" y2="143.4"/><line class="cls-8" x1="290.76" y1="141.72" x2="290.76" y2="139.56"/><line class="cls-8" x1="290.76" y1="137.88" x2="290.76" y2="135.72"/><line class="cls-8" x1="290.76" y1="134.04" x2="290.76" y2="131.88"/><line class="cls-8" x1="290.76" y1="130.2" x2="290.76" y2="128.04"/><line class="cls-8" x1="290.76" y1="126.36" x2="290.76" y2="124.2"/><line class="cls-8" x1="290.76" y1="122.52" x2="290.76" y2="120.36"/><line class="cls-8" x1="290.76" y1="118.68" x2="290.76" y2="116.52"/><line class="cls-8" x1="290.76" y1="114.84" x2="290.76" y2="112.68"/><line class="cls-8" x1="290.76" y1="111" x2="290.76" y2="108.84"/><line class="cls-8" x1="290.76" y1="107.16" x2="290.76" y2="105.24"/><line class="cls-8" x1="290.76" y1="103.32" x2="290.76" y2="101.4"/><line class="cls-8" x1="290.76" y1="99.72" x2="290.76" y2="97.56"/><line class="cls-8" x1="290.76" y1="95.88" x2="290.76" y2="93.72"/><line class="cls-8" x1="290.76" y1="92.04" x2="290.76" y2="89.88"/><line class="cls-8" x1="290.76" y1="88.2" x2="290.76" y2="86.04"/><line class="cls-8" x1="290.76" y1="84.36" x2="290.76" y2="82.2"/><line class="cls-8" x1="290.76" y1="80.52" x2="290.76" y2="78.36"/><line class="cls-8" x1="290.76" y1="76.68" x2="290.76" y2="74.52"/><line class="cls-8" x1="290.76" y1="72.84" x2="290.76" y2="70.68"/><line class="cls-8" x1="290.76" y1="69" x2="290.76" y2="66.84"/><line class="cls-8" x1="290.76" y1="65.16" x2="290.76" y2="63"/><line class="cls-8" x1="290.76" y1="61.32" x2="290.76" y2="59.16"/><line class="cls-8" x1="290.76" y1="57.48" x2="290.76" y2="55.32"/><line class="cls-8" x1="290.76" y1="53.64" x2="290.76" y2="51.48"/><line class="cls-8" x1="290.76" y1="49.8" x2="290.76" y2="47.88"/><line class="cls-8" x1="290.76" y1="45.96" x2="290.76" y2="44.04"/><line class="cls-8" x1="290.76" y1="42.12" x2="290.76" y2="40.2"/><line class="cls-8" x1="290.76" y1="38.52" x2="290.76" y2="36.36"/><line class="cls-8" x1="290.76" y1="34.68" x2="290.76" y2="32.52"/><line class="cls-8" x1="290.76" y1="30.84" x2="290.76" y2="28.68"/><line class="cls-8" x1="290.76" y1="27" x2="290.76" y2="24.84"/><line class="cls-8" x1="290.76" y1="23.16" x2="290.76" y2="21"/><line class="cls-8" x1="290.76" y1="19.32" x2="290.76" y2="17.16"/><line class="cls-8" x1="290.76" y1="15.48" x2="290.76" y2="13.32"/><line class="cls-8" x1="290.76" y1="11.64" x2="290.76" y2="9.48"/><line class="cls-8" x1="290.76" y1="7.8" x2="290.76" y2="5.64"/><line class="cls-8" x1="290.76" y1="3.96" x2="290.76" y2="2.04"/><polyline class="cls-9" points="321.96 149.16 322.68 143.64 325.32 138.6 329.4 134.52 334.44 132.12 339.96 131.16"/><polyline class="cls-9" points="321.96 149.16 322.68 143.64 325.32 138.6 329.4 134.52 334.44 132.12 339.96 131.16"/><line class="cls-9" x1="339.96" y1="149.16" x2="339.96" y2="131.16"/><polyline class="cls-9" points="338.52 149.16 338.52 131.16 339.96 131.16 339.96 149.16 338.52 149.16"/><polyline class="cls-9" points="321.96 149.16 321 142.68 318.36 136.44 314.28 131.16 309 127.08 303 124.68 296.28 123.72"/><polyline class="cls-9" points="321.96 149.16 321 142.68 318.36 136.44 314.28 131.16 309 127.08 303 124.68 296.28 123.72"/><line class="cls-9" x1="296.28" y1="149.16" x2="296.28" y2="123.72"/><polyline class="cls-9" points="297.72 149.16 297.72 123.72 296.28 123.72 296.28 149.16 297.72 149.16"/><polyline class="cls-9" points="399.48 147.48 292.44 147.48 292.44 3.72 399.48 3.72 399.48 147.48"/><polyline class="cls-9" points="402.84 0.12 289.08 0.12 289.08 150.84"/><line class="cls-9" x1="402.84" y1="150.84" x2="402.84" y2="0.12"/><line class="cls-9" x1="292.44" y1="147.48" x2="293.88" y2="147.48"/><line class="cls-9" x1="295.56" y1="147.48" x2="297.72" y2="147.48"/><line class="cls-9" x1="299.4" y1="147.48" x2="301.56" y2="147.48"/><line class="cls-9" x1="303.24" y1="147.48" x2="305.4" y2="147.48"/><line class="cls-9" x1="307.08" y1="147.48" x2="309.24" y2="147.48"/><line class="cls-9" x1="310.92" y1="147.48" x2="313.08" y2="147.48"/><line class="cls-9" x1="314.76" y1="147.48" x2="316.92" y2="147.48"/><line class="cls-9" x1="318.6" y1="147.48" x2="320.76" y2="147.48"/><line class="cls-9" x1="322.44" y1="147.48" x2="324.6" y2="147.48"/><line class="cls-9" x1="326.28" y1="147.48" x2="328.44" y2="147.48"/><line class="cls-9" x1="330.12" y1="147.48" x2="332.28" y2="147.48"/><line class="cls-9" x1="333.96" y1="147.48" x2="336.12" y2="147.48"/><line class="cls-9" x1="337.8" y1="147.48" x2="339.72" y2="147.48"/><line class="cls-9" x1="341.64" y1="147.48" x2="343.56" y2="147.48"/><line class="cls-9" x1="345.48" y1="147.48" x2="347.4" y2="147.48"/><line class="cls-9" x1="349.08" y1="147.48" x2="351.24" y2="147.48"/><line class="cls-9" x1="352.92" y1="147.48" x2="355.08" y2="147.48"/><line class="cls-9" x1="356.76" y1="147.48" x2="358.44" y2="147.48"/><line class="cls-9" x1="383.88" y1="147.48" x2="385.08" y2="147.48"/><line class="cls-9" x1="386.76" y1="147.48" x2="388.92" y2="147.48"/><line class="cls-9" x1="390.6" y1="147.48" x2="392.76" y2="147.48"/><line class="cls-9" x1="394.44" y1="147.48" x2="396.6" y2="147.48"/><polyline class="cls-9" points="398.28 147.48 399.48 147.48 399.48 145.32"/><line class="cls-9" x1="399.48" y1="143.64" x2="399.48" y2="141.48"/><line class="cls-9" x1="399.48" y1="139.8" x2="399.48" y2="137.64"/><line class="cls-9" x1="399.48" y1="135.96" x2="399.48" y2="133.8"/><line class="cls-9" x1="399.48" y1="132.12" x2="399.48" y2="129.96"/><line class="cls-9" x1="399.48" y1="128.28" x2="399.48" y2="126.12"/><line class="cls-9" x1="399.48" y1="124.44" x2="399.48" y2="122.28"/><line class="cls-9" x1="399.48" y1="120.6" x2="399.48" y2="118.44"/><line class="cls-9" x1="399.48" y1="116.76" x2="399.48" y2="114.6"/><line class="cls-9" x1="399.48" y1="112.92" x2="399.48" y2="110.76"/><line class="cls-9" x1="399.48" y1="109.08" x2="399.48" y2="107.16"/><line class="cls-9" x1="399.48" y1="105.24" x2="399.48" y2="103.32"/><line class="cls-9" x1="399.48" y1="101.64" x2="399.48" y2="99.48"/><line class="cls-9" x1="399.48" y1="97.8" x2="399.48" y2="95.64"/><line class="cls-9" x1="399.48" y1="93.96" x2="399.48" y2="91.8"/><line class="cls-9" x1="399.48" y1="90.12" x2="399.48" y2="87.96"/><line class="cls-9" x1="399.48" y1="86.28" x2="399.48" y2="84.12"/><line class="cls-9" x1="399.48" y1="82.44" x2="399.48" y2="80.28"/><line class="cls-9" x1="399.48" y1="78.6" x2="399.48" y2="76.44"/><line class="cls-9" x1="399.48" y1="74.76" x2="399.48" y2="72.6"/><line class="cls-9" x1="399.48" y1="70.92" x2="399.48" y2="68.76"/><line class="cls-9" x1="399.48" y1="67.08" x2="399.48" y2="64.92"/><line class="cls-9" x1="399.48" y1="63.24" x2="399.48" y2="61.08"/><line class="cls-9" x1="399.48" y1="59.4" x2="399.48" y2="57.24"/><line class="cls-9" x1="399.48" y1="55.56" x2="399.48" y2="53.4"/><line class="cls-9" x1="399.48" y1="51.72" x2="399.48" y2="49.56"/><line class="cls-9" x1="399.48" y1="47.88" x2="399.48" y2="45.96"/><line class="cls-9" x1="399.48" y1="44.04" x2="399.48" y2="42.12"/><line class="cls-9" x1="399.48" y1="40.44" x2="399.48" y2="38.28"/><line class="cls-9" x1="399.48" y1="36.6" x2="399.48" y2="34.44"/><line class="cls-9" x1="399.48" y1="32.76" x2="399.48" y2="30.6"/><line class="cls-9" x1="399.48" y1="28.92" x2="399.48" y2="26.76"/><line class="cls-9" x1="399.48" y1="25.08" x2="399.48" y2="22.92"/><line class="cls-9" x1="399.48" y1="21.24" x2="399.48" y2="19.08"/><line class="cls-9" x1="399.48" y1="17.4" x2="399.48" y2="15.24"/><line class="cls-9" x1="399.48" y1="13.56" x2="399.48" y2="11.4"/><line class="cls-9" x1="399.48" y1="9.72" x2="399.48" y2="7.56"/><polyline class="cls-9" points="399.48 5.88 399.48 3.72 398.52 3.72"/><line class="cls-9" x1="396.6" y1="3.72" x2="394.68" y2="3.72"/><line class="cls-9" x1="393" y1="3.72" x2="390.84" y2="3.72"/><line class="cls-9" x1="389.16" y1="3.72" x2="387" y2="3.72"/><line class="cls-9" x1="385.32" y1="3.72" x2="383.16" y2="3.72"/><line class="cls-9" x1="381.48" y1="3.72" x2="379.32" y2="3.72"/><line class="cls-9" x1="377.64" y1="3.72" x2="375.48" y2="3.72"/><line class="cls-9" x1="373.8" y1="3.72" x2="371.64" y2="3.72"/><line class="cls-9" x1="369.96" y1="3.72" x2="367.8" y2="3.72"/><line class="cls-9" x1="366.12" y1="3.72" x2="363.96" y2="3.72"/><line class="cls-9" x1="362.28" y1="3.72" x2="360.12" y2="3.72"/><line class="cls-9" x1="358.44" y1="3.72" x2="356.28" y2="3.72"/><line class="cls-9" x1="354.6" y1="3.72" x2="352.44" y2="3.72"/><line class="cls-9" x1="350.76" y1="3.72" x2="348.6" y2="3.72"/><line class="cls-9" x1="346.92" y1="3.72" x2="344.76" y2="3.72"/><line class="cls-9" x1="343.08" y1="3.72" x2="340.92" y2="3.72"/><line class="cls-9" x1="339.24" y1="3.72" x2="337.32" y2="3.72"/><line class="cls-9" x1="335.4" y1="3.72" x2="333.48" y2="3.72"/><line class="cls-9" x1="331.8" y1="3.72" x2="329.64" y2="3.72"/><line class="cls-9" x1="327.96" y1="3.72" x2="325.8" y2="3.72"/><line class="cls-9" x1="324.12" y1="3.72" x2="321.96" y2="3.72"/><line class="cls-9" x1="320.28" y1="3.72" x2="318.12" y2="3.72"/><line class="cls-9" x1="316.44" y1="3.72" x2="314.28" y2="3.72"/><line class="cls-9" x1="312.6" y1="3.72" x2="310.44" y2="3.72"/><line class="cls-9" x1="308.76" y1="3.72" x2="306.6" y2="3.72"/><line class="cls-9" x1="304.92" y1="3.72" x2="302.76" y2="3.72"/><line class="cls-9" x1="301.08" y1="3.72" x2="298.92" y2="3.72"/><line class="cls-9" x1="297.24" y1="3.72" x2="295.08" y2="3.72"/><polyline class="cls-9" points="293.4 3.72 292.44 3.72 292.44 5.88"/><line class="cls-9" x1="292.44" y1="7.56" x2="292.44" y2="9.72"/><line class="cls-9" x1="292.44" y1="11.4" x2="292.44" y2="13.56"/><line class="cls-9" x1="292.44" y1="15.24" x2="292.44" y2="17.4"/><line class="cls-9" x1="292.44" y1="19.08" x2="292.44" y2="21.24"/><line class="cls-9" x1="292.44" y1="22.92" x2="292.44" y2="25.08"/><line class="cls-9" x1="292.44" y1="26.76" x2="292.44" y2="28.92"/><line class="cls-9" x1="292.44" y1="30.6" x2="292.44" y2="32.76"/><line class="cls-9" x1="292.44" y1="34.44" x2="292.44" y2="36.6"/><line class="cls-9" x1="292.44" y1="38.28" x2="292.44" y2="40.44"/><line class="cls-9" x1="292.44" y1="42.12" x2="292.44" y2="44.04"/><line class="cls-9" x1="292.44" y1="45.96" x2="292.44" y2="47.88"/><line class="cls-9" x1="292.44" y1="49.56" x2="292.44" y2="51.72"/><line class="cls-9" x1="292.44" y1="53.4" x2="292.44" y2="55.56"/><line class="cls-9" x1="292.44" y1="57.24" x2="292.44" y2="59.4"/><line class="cls-9" x1="292.44" y1="61.08" x2="292.44" y2="63.24"/><line class="cls-9" x1="292.44" y1="64.92" x2="292.44" y2="67.08"/><line class="cls-9" x1="292.44" y1="68.76" x2="292.44" y2="70.92"/><line class="cls-9" x1="292.44" y1="72.6" x2="292.44" y2="74.76"/><line class="cls-9" x1="292.44" y1="76.44" x2="292.44" y2="78.6"/><line class="cls-9" x1="292.44" y1="80.28" x2="292.44" y2="82.44"/><line class="cls-9" x1="292.44" y1="84.12" x2="292.44" y2="86.28"/><line class="cls-9" x1="292.44" y1="87.96" x2="292.44" y2="90.12"/><line class="cls-9" x1="292.44" y1="91.8" x2="292.44" y2="93.96"/><line class="cls-9" x1="292.44" y1="95.64" x2="292.44" y2="97.8"/><line class="cls-9" x1="292.44" y1="99.48" x2="292.44" y2="101.64"/><line class="cls-9" x1="292.44" y1="103.32" x2="292.44" y2="105.24"/><line class="cls-9" x1="292.44" y1="107.16" x2="292.44" y2="109.08"/><line class="cls-9" x1="292.44" y1="110.76" x2="292.44" y2="112.92"/><line class="cls-9" x1="292.44" y1="114.6" x2="292.44" y2="116.76"/><line class="cls-9" x1="292.44" y1="118.44" x2="292.44" y2="120.6"/><line class="cls-9" x1="292.44" y1="122.28" x2="292.44" y2="124.44"/><line class="cls-9" x1="292.44" y1="126.12" x2="292.44" y2="128.28"/><line class="cls-9" x1="292.44" y1="129.96" x2="292.44" y2="132.12"/><line class="cls-9" x1="292.44" y1="133.8" x2="292.44" y2="135.96"/><line class="cls-9" x1="292.44" y1="137.64" x2="292.44" y2="139.8"/><line class="cls-9" x1="292.44" y1="141.48" x2="292.44" y2="143.64"/><line class="cls-9" x1="292.44" y1="145.32" x2="292.44" y2="147.48"/><polyline class="cls-10" points="365.88 143.4 366.6 143.64 367.32 143.64"/><polyline class="cls-10" points="376.44 143.4 375.72 143.64 375 143.64"/><line class="cls-10" x1="364.44" y1="141.72" x2="364.44" y2="142.2"/><polyline class="cls-10" points="364.44 141.72 364.44 141 364.44 140.28"/><polyline class="cls-10" points="365.88 143.4 364.92 142.92 364.44 142.2"/><line class="cls-10" x1="377.88" y1="141.72" x2="377.88" y2="142.2"/><polyline class="cls-10" points="377.88 141.72 377.88 141 377.88 140.28"/><polyline class="cls-10" points="376.44 143.4 377.4 142.92 377.88 142.2"/><line class="cls-9" x1="378.36" y1="147.48" x2="363.96" y2="147.48"/><polyline class="cls-9" points="378.36 138.84 377.64 137.64 376.68 136.68"/><polyline class="cls-9" points="378.84 141.24 378.84 140.04 378.36 138.84"/><polyline class="cls-9" points="378.36 147.48 378.84 144.36 378.84 141.24"/><polyline class="cls-9" points="363.24 141.24 363.48 144.36 363.96 147.48"/><polyline class="cls-9" points="374.28 135.24 372.6 134.76 371.16 134.76"/><polyline class="cls-9" points="376.68 136.68 375.48 135.72 374.28 135.24"/><polyline class="cls-9" points="363.96 138.84 363.48 140.04 363.24 141.24"/><polyline class="cls-9" points="365.64 136.68 364.68 137.64 363.96 138.84"/><polyline class="cls-9" points="368.04 135.24 366.84 135.72 365.64 136.68"/><polyline class="cls-9" points="371.16 134.76 369.72 134.76 368.04 135.24"/><polyline class="cls-10" points="363.96 147 378.36 147 378.84 144.12 378.84 141.24 378.84 140.04 378.36 138.84 377.64 137.64 376.68 136.68 375.48 135.72 374.28 135.24 372.6 134.76 371.16 134.76 369.72 134.76 368.04 135.24 366.84 135.72 365.64 136.68 364.68 137.64 363.96 138.84 363.48 140.04 363.24 141.24 363.48 144.12 363.96 147"/><polyline class="cls-11" points="358.44 147.48 383.88 147.48 383.88 147 358.44 147 358.44 147.48"/><line class="cls-9" x1="336.84" y1="45.72" x2="396.6" y2="45.72"/><polyline class="cls-9" points="335.4 44.28 335.88 45.24 336.84 45.72"/><line class="cls-9" x1="335.4" y1="19.08" x2="335.4" y2="44.28"/><polyline class="cls-9" points="336.84 17.64 335.88 18.12 335.4 19.08"/><line class="cls-9" x1="396.6" y1="17.64" x2="336.84" y2="17.64"/><polyline class="cls-9" points="398.04 19.08 397.56 18.12 396.6 17.64"/><line class="cls-9" x1="398.04" y1="44.28" x2="398.04" y2="19.08"/><polyline class="cls-9" points="396.6 45.72 397.56 45.24 398.04 44.28"/><polyline class="cls-10" points="382.2 17.64 382.2 18.36 395.88 18.36 395.88 17.64 382.2 17.64"/><polyline class="cls-10" points="339.24 45 339.24 45.72 359.4 45.72 359.4 45 339.24 45"/><polyline class="cls-10" points="382.44 45 382.44 45.72 396.12 45.72 396.12 45 382.44 45"/><line class="cls-10" x1="336.36" y1="43.08" x2="335.64" y2="43.08"/><line class="cls-10" x1="336.36" y1="20.28" x2="336.36" y2="43.08"/><line class="cls-10" x1="335.64" y1="20.28" x2="336.36" y2="20.28"/><line class="cls-10" x1="335.64" y1="43.08" x2="335.64" y2="20.28"/><line class="cls-10" x1="397.08" y1="42.84" x2="397.8" y2="42.84"/><line class="cls-10" x1="397.08" y1="20.28" x2="397.08" y2="42.84"/><line class="cls-10" x1="397.8" y1="20.28" x2="397.08" y2="20.28"/><line class="cls-10" x1="397.8" y1="42.84" x2="397.8" y2="20.28"/><line class="cls-10" x1="383.64" y1="20.04" x2="395.64" y2="20.04"/><line class="cls-10" x1="383.64" y1="43.32" x2="383.64" y2="20.04"/><line class="cls-10" x1="395.64" y1="43.32" x2="383.64" y2="43.32"/><line class="cls-10" x1="395.64" y1="20.04" x2="395.64" y2="43.32"/><line class="cls-10" x1="337.8" y1="44.52" x2="395.4" y2="44.52"/><polyline class="cls-10" points="336.36 43.32 336.84 44.28 337.8 44.52"/><line class="cls-10" x1="336.36" y1="20.04" x2="336.36" y2="43.32"/><polyline class="cls-10" points="337.8 18.84 336.84 19.08 336.36 20.04"/><line class="cls-10" x1="395.4" y1="18.84" x2="337.8" y2="18.84"/><polyline class="cls-10" points="396.84 20.04 396.6 19.08 395.4 18.84"/><line class="cls-10" x1="396.84" y1="43.32" x2="396.84" y2="20.04"/><polyline class="cls-10" points="395.4 44.52 396.6 44.28 396.84 43.32"/><polyline class="cls-10" points="398.04 44.28 398.04 19.08 398.04 18.6 397.8 18.36 397.56 18.12 397.32 17.88 396.84 17.64 396.6 17.64 336.84 17.64 336.36 17.64 336.12 17.88 335.88 18.12 335.64 18.36 335.4 18.6 335.4 19.08 335.4 44.28 335.4 44.76 335.64 45 335.88 45.24 336.12 45.48 336.36 45.72 336.84 45.72 396.6 45.72 396.84 45.72 397.32 45.48 397.56 45.24 397.8 45 398.04 44.76 398.04 44.28"/><line class="cls-9" x1="336.84" y1="105.24" x2="396.6" y2="105.24"/><polyline class="cls-9" points="335.4 103.8 335.88 104.76 336.84 105.24"/><line class="cls-9" x1="335.4" y1="78.6" x2="335.4" y2="103.8"/><polyline class="cls-9" points="336.84 77.16 335.88 77.64 335.4 78.6"/><line class="cls-9" x1="396.6" y1="77.16" x2="336.84" y2="77.16"/><polyline class="cls-9" points="398.04 78.6 397.56 77.64 396.6 77.16"/><line class="cls-9" x1="398.04" y1="103.8" x2="398.04" y2="78.6"/><polyline class="cls-9" points="396.6 105.24 397.56 104.76 398.04 103.8"/><polyline class="cls-10" points="382.2 77.16 382.2 77.88 395.88 77.88 395.88 77.16 382.2 77.16"/><polyline class="cls-10" points="339.24 104.52 339.24 105.24 359.4 105.24 359.4 104.52 339.24 104.52"/><polyline class="cls-10" points="382.44 104.52 382.44 105.24 396.12 105.24 396.12 104.52 382.44 104.52"/><line class="cls-10" x1="336.36" y1="102.6" x2="335.64" y2="102.6"/><line class="cls-10" x1="336.36" y1="79.8" x2="336.36" y2="102.6"/><line class="cls-10" x1="335.64" y1="79.8" x2="336.36" y2="79.8"/><line class="cls-10" x1="335.64" y1="102.6" x2="335.64" y2="79.8"/><line class="cls-10" x1="397.08" y1="102.36" x2="397.8" y2="102.36"/><line class="cls-10" x1="397.08" y1="79.8" x2="397.08" y2="102.36"/><line class="cls-10" x1="397.8" y1="79.8" x2="397.08" y2="79.8"/><line class="cls-10" x1="397.8" y1="102.36" x2="397.8" y2="79.8"/><line class="cls-10" x1="383.64" y1="79.56" x2="395.64" y2="79.56"/><line class="cls-10" x1="383.64" y1="102.84" x2="383.64" y2="79.56"/><line class="cls-10" x1="395.64" y1="102.84" x2="383.64" y2="102.84"/><line class="cls-10" x1="395.64" y1="79.56" x2="395.64" y2="102.84"/><line class="cls-10" x1="337.8" y1="104.04" x2="395.4" y2="104.04"/><polyline class="cls-10" points="336.36 102.6 336.84 103.8 337.8 104.04"/><line class="cls-10" x1="336.36" y1="79.56" x2="336.36" y2="102.6"/><polyline class="cls-10" points="337.8 78.12 336.84 78.6 336.36 79.56"/><line class="cls-10" x1="395.4" y1="78.12" x2="337.8" y2="78.12"/><polyline class="cls-10" points="396.84 79.56 396.6 78.6 395.4 78.12"/><line class="cls-10" x1="396.84" y1="102.6" x2="396.84" y2="79.56"/><polyline class="cls-10" points="395.4 104.04 396.6 103.8 396.84 102.6"/><polyline class="cls-10" points="398.04 103.8 398.04 78.6 398.04 78.12 397.8 77.88 397.56 77.64 397.32 77.4 396.84 77.16 396.6 77.16 336.84 77.16 336.36 77.16 336.12 77.4 335.88 77.64 335.64 77.88 335.4 78.12 335.4 78.6 335.4 103.8 335.4 104.28 335.64 104.52 335.88 104.76 336.12 105 336.36 105.24 336.84 105.24 396.6 105.24 396.84 105.24 397.32 105 397.56 104.76 397.8 104.52 398.04 104.28 398.04 103.8"/><line class="cls-8" x1="1.8" y1="2.04" x2="4.44" y2="2.04"/><line class="cls-8" x1="6.12" y1="2.04" x2="8.28" y2="2.04"/><line class="cls-8" x1="9.96" y1="2.04" x2="12.12" y2="2.04"/><line class="cls-8" x1="13.8" y1="2.04" x2="15.96" y2="2.04"/><line class="cls-8" x1="17.64" y1="2.04" x2="19.8" y2="2.04"/><line class="cls-8" x1="21.48" y1="2.04" x2="23.64" y2="2.04"/><line class="cls-8" x1="25.32" y1="2.04" x2="27.48" y2="2.04"/><line class="cls-8" x1="29.16" y1="2.04" x2="31.32" y2="2.04"/><line class="cls-8" x1="33" y1="2.04" x2="35.16" y2="2.04"/><line class="cls-8" x1="36.84" y1="2.04" x2="39" y2="2.04"/><line class="cls-8" x1="40.68" y1="2.04" x2="42.6" y2="2.04"/><line class="cls-8" x1="44.52" y1="2.04" x2="46.44" y2="2.04"/><line class="cls-8" x1="48.12" y1="2.04" x2="50.28" y2="2.04"/><line class="cls-8" x1="51.96" y1="2.04" x2="54.12" y2="2.04"/><line class="cls-8" x1="55.8" y1="2.04" x2="57.96" y2="2.04"/><line class="cls-8" x1="59.64" y1="2.04" x2="61.8" y2="2.04"/><line class="cls-8" x1="63.48" y1="2.04" x2="65.64" y2="2.04"/><line class="cls-8" x1="67.32" y1="2.04" x2="69.48" y2="2.04"/><line class="cls-8" x1="71.16" y1="2.04" x2="73.32" y2="2.04"/><line class="cls-8" x1="75" y1="2.04" x2="77.16" y2="2.04"/><line class="cls-8" x1="78.84" y1="2.04" x2="81" y2="2.04"/><line class="cls-8" x1="82.68" y1="2.04" x2="84.84" y2="2.04"/><line class="cls-8" x1="86.52" y1="2.04" x2="88.68" y2="2.04"/><line class="cls-8" x1="90.36" y1="2.04" x2="92.52" y2="2.04"/><line class="cls-8" x1="94.2" y1="2.04" x2="96.36" y2="2.04"/><line class="cls-8" x1="98.04" y1="2.04" x2="100.2" y2="2.04"/><line class="cls-8" x1="101.88" y1="2.04" x2="103.8" y2="2.04"/><line class="cls-8" x1="105.72" y1="2.04" x2="107.64" y2="2.04"/><line class="cls-8" x1="109.32" y1="2.04" x2="112.2" y2="2.04"/><line class="cls-8" x1="1.8" y1="149.16" x2="3.72" y2="149.16"/><line class="cls-8" x1="5.4" y1="149.16" x2="7.32" y2="149.16"/><line class="cls-8" x1="112.2" y1="2.04" x2="112.2" y2="3.96"/><line class="cls-8" x1="112.2" y1="5.64" x2="112.2" y2="7.8"/><line class="cls-8" x1="112.2" y1="9.48" x2="112.2" y2="11.64"/><line class="cls-8" x1="112.2" y1="13.32" x2="112.2" y2="15.48"/><line class="cls-8" x1="112.2" y1="17.16" x2="112.2" y2="19.32"/><line class="cls-8" x1="112.2" y1="21" x2="112.2" y2="23.16"/><line class="cls-8" x1="112.2" y1="24.84" x2="112.2" y2="27"/><line class="cls-8" x1="112.2" y1="28.68" x2="112.2" y2="30.84"/><line class="cls-8" x1="112.2" y1="32.52" x2="112.2" y2="34.68"/><line class="cls-8" x1="112.2" y1="36.36" x2="112.2" y2="38.52"/><line class="cls-8" x1="112.2" y1="40.2" x2="112.2" y2="42.12"/><line class="cls-8" x1="112.2" y1="44.04" x2="112.2" y2="45.96"/><line class="cls-8" x1="112.2" y1="47.88" x2="112.2" y2="49.8"/><line class="cls-8" x1="112.2" y1="51.48" x2="112.2" y2="53.64"/><line class="cls-8" x1="112.2" y1="55.32" x2="112.2" y2="57.48"/><line class="cls-8" x1="112.2" y1="59.16" x2="112.2" y2="61.32"/><line class="cls-8" x1="112.2" y1="63" x2="112.2" y2="65.16"/><line class="cls-8" x1="112.2" y1="66.84" x2="112.2" y2="69"/><line class="cls-8" x1="112.2" y1="70.68" x2="112.2" y2="72.84"/><line class="cls-8" x1="112.2" y1="74.52" x2="112.2" y2="76.68"/><line class="cls-8" x1="112.2" y1="78.36" x2="112.2" y2="80.52"/><line class="cls-8" x1="112.2" y1="82.2" x2="112.2" y2="84.36"/><line class="cls-8" x1="112.2" y1="86.04" x2="112.2" y2="88.2"/><line class="cls-8" x1="112.2" y1="89.88" x2="112.2" y2="92.04"/><line class="cls-8" x1="112.2" y1="93.72" x2="112.2" y2="95.88"/><line class="cls-8" x1="112.2" y1="97.56" x2="112.2" y2="99.72"/><line class="cls-8" x1="112.2" y1="101.4" x2="112.2" y2="103.32"/><line class="cls-8" x1="112.2" y1="105.24" x2="112.2" y2="107.16"/><line class="cls-8" x1="112.2" y1="108.84" x2="112.2" y2="111"/><line class="cls-8" x1="112.2" y1="112.68" x2="112.2" y2="114.84"/><line class="cls-8" x1="112.2" y1="116.52" x2="112.2" y2="118.68"/><line class="cls-8" x1="112.2" y1="120.36" x2="112.2" y2="122.52"/><line class="cls-8" x1="112.2" y1="124.2" x2="112.2" y2="126.36"/><line class="cls-8" x1="112.2" y1="128.04" x2="112.2" y2="130.2"/><line class="cls-8" x1="112.2" y1="131.88" x2="112.2" y2="134.04"/><line class="cls-8" x1="112.2" y1="135.72" x2="112.2" y2="137.88"/><line class="cls-8" x1="112.2" y1="139.56" x2="112.2" y2="141.72"/><line class="cls-8" x1="112.2" y1="143.4" x2="112.2" y2="145.56"/><polyline class="cls-8" points="112.2 147.24 112.2 149.16 111.24 149.16"/><line class="cls-8" x1="109.32" y1="149.16" x2="107.4" y2="149.16"/><line class="cls-8" x1="105.72" y1="149.16" x2="103.56" y2="149.16"/><line class="cls-8" x1="101.88" y1="149.16" x2="99.72" y2="149.16"/><line class="cls-8" x1="98.04" y1="149.16" x2="95.88" y2="149.16"/><line class="cls-8" x1="94.2" y1="149.16" x2="92.04" y2="149.16"/><line class="cls-8" x1="90.36" y1="149.16" x2="88.2" y2="149.16"/><line class="cls-8" x1="86.52" y1="149.16" x2="84.36" y2="149.16"/><line class="cls-8" x1="82.68" y1="149.16" x2="80.52" y2="149.16"/><line class="cls-8" x1="78.84" y1="149.16" x2="76.68" y2="149.16"/><line class="cls-8" x1="75" y1="149.16" x2="72.84" y2="149.16"/><line class="cls-8" x1="71.16" y1="149.16" x2="69" y2="149.16"/><line class="cls-8" x1="67.32" y1="149.16" x2="65.16" y2="149.16"/><line class="cls-8" x1="63.48" y1="149.16" x2="61.32" y2="149.16"/><line class="cls-8" x1="59.64" y1="149.16" x2="57.48" y2="149.16"/><line class="cls-8" x1="55.8" y1="149.16" x2="53.64" y2="149.16"/><line class="cls-8" x1="51.96" y1="149.16" x2="51" y2="149.16"/><line class="cls-8" x1="1.8" y1="149.16" x2="1.8" y2="147.24"/><line class="cls-8" x1="1.8" y1="145.56" x2="1.8" y2="143.4"/><line class="cls-8" x1="1.8" y1="141.72" x2="1.8" y2="139.56"/><line class="cls-8" x1="1.8" y1="137.88" x2="1.8" y2="135.72"/><line class="cls-8" x1="1.8" y1="134.04" x2="1.8" y2="131.88"/><line class="cls-8" x1="1.8" y1="130.2" x2="1.8" y2="128.04"/><line class="cls-8" x1="1.8" y1="126.36" x2="1.8" y2="124.2"/><line class="cls-8" x1="1.8" y1="122.52" x2="1.8" y2="120.36"/><line class="cls-8" x1="1.8" y1="118.68" x2="1.8" y2="116.52"/><line class="cls-8" x1="1.8" y1="114.84" x2="1.8" y2="112.68"/><line class="cls-8" x1="1.8" y1="111" x2="1.8" y2="108.84"/><line class="cls-8" x1="1.8" y1="107.16" x2="1.8" y2="105.24"/><line class="cls-8" x1="1.8" y1="103.32" x2="1.8" y2="101.4"/><line class="cls-8" x1="1.8" y1="99.72" x2="1.8" y2="97.56"/><line class="cls-8" x1="1.8" y1="95.88" x2="1.8" y2="93.72"/><line class="cls-8" x1="1.8" y1="92.04" x2="1.8" y2="89.88"/><line class="cls-8" x1="1.8" y1="88.2" x2="1.8" y2="86.04"/><line class="cls-8" x1="1.8" y1="84.36" x2="1.8" y2="82.2"/><line class="cls-8" x1="1.8" y1="80.52" x2="1.8" y2="78.36"/><line class="cls-8" x1="1.8" y1="76.68" x2="1.8" y2="74.52"/><line class="cls-8" x1="1.8" y1="72.84" x2="1.8" y2="70.68"/><line class="cls-8" x1="1.8" y1="69" x2="1.8" y2="66.84"/><line class="cls-8" x1="1.8" y1="65.16" x2="1.8" y2="63"/><line class="cls-8" x1="1.8" y1="61.32" x2="1.8" y2="59.16"/><line class="cls-8" x1="1.8" y1="57.48" x2="1.8" y2="55.32"/><line class="cls-8" x1="1.8" y1="53.64" x2="1.8" y2="51.48"/><line class="cls-8" x1="1.8" y1="49.8" x2="1.8" y2="47.88"/><line class="cls-8" x1="1.8" y1="45.96" x2="1.8" y2="44.04"/><line class="cls-8" x1="1.8" y1="42.12" x2="1.8" y2="40.2"/><line class="cls-8" x1="1.8" y1="38.52" x2="1.8" y2="36.36"/><line class="cls-8" x1="1.8" y1="34.68" x2="1.8" y2="32.52"/><line class="cls-8" x1="1.8" y1="30.84" x2="1.8" y2="28.68"/><line class="cls-8" x1="1.8" y1="27" x2="1.8" y2="24.84"/><line class="cls-8" x1="1.8" y1="23.16" x2="1.8" y2="21"/><line class="cls-8" x1="1.8" y1="19.32" x2="1.8" y2="17.16"/><line class="cls-8" x1="1.8" y1="15.48" x2="1.8" y2="13.32"/><line class="cls-8" x1="1.8" y1="11.64" x2="1.8" y2="9.48"/><line class="cls-8" x1="1.8" y1="7.8" x2="1.8" y2="5.64"/><line class="cls-8" x1="1.8" y1="3.96" x2="1.8" y2="2.04"/><polyline class="cls-9" points="32.76 149.16 33.72 143.64 36.36 138.6 40.44 134.52 45.48 132.12 51 131.16"/><polyline class="cls-9" points="32.76 149.16 33.72 143.64 36.36 138.6 40.44 134.52 45.48 132.12 51 131.16"/><line class="cls-9" x1="51" y1="149.16" x2="51" y2="131.16"/><polyline class="cls-9" points="49.56 149.16 49.56 131.16 51 131.16 51 149.16 49.56 149.16"/><polyline class="cls-9" points="32.76 149.16 32.04 142.68 29.4 136.44 25.32 131.16 20.04 127.08 14.04 124.68 7.32 123.72"/><polyline class="cls-9" points="32.76 149.16 32.04 142.68 29.4 136.44 25.32 131.16 20.04 127.08 14.04 124.68 7.32 123.72"/><line class="cls-9" x1="7.32" y1="149.16" x2="7.32" y2="123.72"/><polyline class="cls-9" points="8.76 149.16 8.76 123.72 7.32 123.72 7.32 149.16 8.76 149.16"/><polyline class="cls-9" points="113.88 0.12 0.12 0.12 0.12 150.84 113.88 150.84"/><line class="cls-9" x1="113.88" y1="150.84" x2="113.88" y2="0.12"/><polyline class="cls-9" points="110.52 147.48 3.48 147.48 3.48 3.72 110.52 3.72 110.52 147.48"/><line class="cls-9" x1="3.48" y1="147.48" x2="4.92" y2="147.48"/><line class="cls-9" x1="6.6" y1="147.48" x2="8.76" y2="147.48"/><line class="cls-9" x1="10.44" y1="147.48" x2="12.6" y2="147.48"/><line class="cls-9" x1="14.28" y1="147.48" x2="16.44" y2="147.48"/><line class="cls-9" x1="18.12" y1="147.48" x2="20.28" y2="147.48"/><line class="cls-9" x1="21.96" y1="147.48" x2="24.12" y2="147.48"/><line class="cls-9" x1="25.8" y1="147.48" x2="27.96" y2="147.48"/><line class="cls-9" x1="29.64" y1="147.48" x2="31.8" y2="147.48"/><line class="cls-9" x1="33.48" y1="147.48" x2="35.64" y2="147.48"/><line class="cls-9" x1="37.32" y1="147.48" x2="39.48" y2="147.48"/><line class="cls-9" x1="41.16" y1="147.48" x2="43.32" y2="147.48"/><line class="cls-9" x1="45" y1="147.48" x2="46.92" y2="147.48"/><line class="cls-9" x1="48.84" y1="147.48" x2="50.76" y2="147.48"/><line class="cls-9" x1="52.44" y1="147.48" x2="54.6" y2="147.48"/><line class="cls-9" x1="56.28" y1="147.48" x2="58.44" y2="147.48"/><line class="cls-9" x1="60.12" y1="147.48" x2="62.28" y2="147.48"/><line class="cls-9" x1="63.96" y1="147.48" x2="66.12" y2="147.48"/><line class="cls-9" x1="67.8" y1="147.48" x2="69.48" y2="147.48"/><line class="cls-9" x1="94.92" y1="147.48" x2="96.12" y2="147.48"/><line class="cls-9" x1="97.8" y1="147.48" x2="99.96" y2="147.48"/><line class="cls-9" x1="101.64" y1="147.48" x2="103.8" y2="147.48"/><line class="cls-9" x1="105.48" y1="147.48" x2="107.64" y2="147.48"/><polyline class="cls-9" points="109.32 147.48 110.52 147.48 110.52 145.32"/><line class="cls-9" x1="110.52" y1="143.64" x2="110.52" y2="141.48"/><line class="cls-9" x1="110.52" y1="139.8" x2="110.52" y2="137.64"/><line class="cls-9" x1="110.52" y1="135.96" x2="110.52" y2="133.8"/><line class="cls-9" x1="110.52" y1="132.12" x2="110.52" y2="129.96"/><line class="cls-9" x1="110.52" y1="128.28" x2="110.52" y2="126.12"/><line class="cls-9" x1="110.52" y1="124.44" x2="110.52" y2="122.28"/><line class="cls-9" x1="110.52" y1="120.6" x2="110.52" y2="118.44"/><line class="cls-9" x1="110.52" y1="116.76" x2="110.52" y2="114.6"/><line class="cls-9" x1="110.52" y1="112.92" x2="110.52" y2="110.76"/><line class="cls-9" x1="110.52" y1="109.08" x2="110.52" y2="107.16"/><line class="cls-9" x1="110.52" y1="105.24" x2="110.52" y2="103.32"/><line class="cls-9" x1="110.52" y1="101.64" x2="110.52" y2="99.48"/><line class="cls-9" x1="110.52" y1="97.8" x2="110.52" y2="95.64"/><line class="cls-9" x1="110.52" y1="93.96" x2="110.52" y2="91.8"/><line class="cls-9" x1="110.52" y1="90.12" x2="110.52" y2="87.96"/><line class="cls-9" x1="110.52" y1="86.28" x2="110.52" y2="84.12"/><line class="cls-9" x1="110.52" y1="82.44" x2="110.52" y2="80.28"/><line class="cls-9" x1="110.52" y1="78.6" x2="110.52" y2="76.44"/><line class="cls-9" x1="110.52" y1="74.76" x2="110.52" y2="72.6"/><line class="cls-9" x1="110.52" y1="70.92" x2="110.52" y2="68.76"/><line class="cls-9" x1="110.52" y1="67.08" x2="110.52" y2="64.92"/><line class="cls-9" x1="110.52" y1="63.24" x2="110.52" y2="61.08"/><line class="cls-9" x1="110.52" y1="59.4" x2="110.52" y2="57.24"/><line class="cls-9" x1="110.52" y1="55.56" x2="110.52" y2="53.4"/><line class="cls-9" x1="110.52" y1="51.72" x2="110.52" y2="49.56"/><line class="cls-9" x1="110.52" y1="47.88" x2="110.52" y2="45.96"/><line class="cls-9" x1="110.52" y1="44.04" x2="110.52" y2="42.12"/><line class="cls-9" x1="110.52" y1="40.44" x2="110.52" y2="38.28"/><line class="cls-9" x1="110.52" y1="36.6" x2="110.52" y2="34.44"/><line class="cls-9" x1="110.52" y1="32.76" x2="110.52" y2="30.6"/><line class="cls-9" x1="110.52" y1="28.92" x2="110.52" y2="26.76"/><line class="cls-9" x1="110.52" y1="25.08" x2="110.52" y2="22.92"/><line class="cls-9" x1="110.52" y1="21.24" x2="110.52" y2="19.08"/><line class="cls-9" x1="110.52" y1="17.4" x2="110.52" y2="15.24"/><line class="cls-9" x1="110.52" y1="13.56" x2="110.52" y2="11.4"/><line class="cls-9" x1="110.52" y1="9.72" x2="110.52" y2="7.56"/><polyline class="cls-9" points="110.52 5.88 110.52 3.72 109.32 3.72"/><line class="cls-9" x1="107.64" y1="3.72" x2="105.72" y2="3.72"/><line class="cls-9" x1="103.8" y1="3.72" x2="101.88" y2="3.72"/><line class="cls-9" x1="100.2" y1="3.72" x2="98.04" y2="3.72"/><line class="cls-9" x1="96.36" y1="3.72" x2="94.2" y2="3.72"/><line class="cls-9" x1="92.52" y1="3.72" x2="90.36" y2="3.72"/><line class="cls-9" x1="88.68" y1="3.72" x2="86.52" y2="3.72"/><line class="cls-9" x1="84.84" y1="3.72" x2="82.68" y2="3.72"/><line class="cls-9" x1="81" y1="3.72" x2="78.84" y2="3.72"/><line class="cls-9" x1="77.16" y1="3.72" x2="75" y2="3.72"/><line class="cls-9" x1="73.32" y1="3.72" x2="71.16" y2="3.72"/><line class="cls-9" x1="69.48" y1="3.72" x2="67.32" y2="3.72"/><line class="cls-9" x1="65.64" y1="3.72" x2="63.48" y2="3.72"/><line class="cls-9" x1="61.8" y1="3.72" x2="59.64" y2="3.72"/><line class="cls-9" x1="57.96" y1="3.72" x2="55.8" y2="3.72"/><line class="cls-9" x1="54.12" y1="3.72" x2="51.96" y2="3.72"/><line class="cls-9" x1="50.28" y1="3.72" x2="48.12" y2="3.72"/><line class="cls-9" x1="46.44" y1="3.72" x2="44.52" y2="3.72"/><line class="cls-9" x1="42.6" y1="3.72" x2="40.68" y2="3.72"/><line class="cls-9" x1="39" y1="3.72" x2="36.84" y2="3.72"/><line class="cls-9" x1="35.16" y1="3.72" x2="33" y2="3.72"/><line class="cls-9" x1="31.32" y1="3.72" x2="29.16" y2="3.72"/><line class="cls-9" x1="27.48" y1="3.72" x2="25.32" y2="3.72"/><line class="cls-9" x1="23.64" y1="3.72" x2="21.48" y2="3.72"/><line class="cls-9" x1="19.8" y1="3.72" x2="17.64" y2="3.72"/><line class="cls-9" x1="15.96" y1="3.72" x2="13.8" y2="3.72"/><line class="cls-9" x1="12.12" y1="3.72" x2="9.96" y2="3.72"/><line class="cls-9" x1="8.28" y1="3.72" x2="6.12" y2="3.72"/><polyline class="cls-9" points="4.44 3.72 3.48 3.72 3.48 5.88"/><line class="cls-9" x1="3.48" y1="7.56" x2="3.48" y2="9.72"/><line class="cls-9" x1="3.48" y1="11.4" x2="3.48" y2="13.56"/><line class="cls-9" x1="3.48" y1="15.24" x2="3.48" y2="17.4"/><line class="cls-9" x1="3.48" y1="19.08" x2="3.48" y2="21.24"/><line class="cls-9" x1="3.48" y1="22.92" x2="3.48" y2="25.08"/><line class="cls-9" x1="3.48" y1="26.76" x2="3.48" y2="28.92"/><line class="cls-9" x1="3.48" y1="30.6" x2="3.48" y2="32.76"/><line class="cls-9" x1="3.48" y1="34.44" x2="3.48" y2="36.6"/><line class="cls-9" x1="3.48" y1="38.28" x2="3.48" y2="40.44"/><line class="cls-9" x1="3.48" y1="42.12" x2="3.48" y2="44.04"/><line class="cls-9" x1="3.48" y1="45.96" x2="3.48" y2="47.88"/><line class="cls-9" x1="3.48" y1="49.56" x2="3.48" y2="51.72"/><line class="cls-9" x1="3.48" y1="53.4" x2="3.48" y2="55.56"/><line class="cls-9" x1="3.48" y1="57.24" x2="3.48" y2="59.4"/><line class="cls-9" x1="3.48" y1="61.08" x2="3.48" y2="63.24"/><line class="cls-9" x1="3.48" y1="64.92" x2="3.48" y2="67.08"/><line class="cls-9" x1="3.48" y1="68.76" x2="3.48" y2="70.92"/><line class="cls-9" x1="3.48" y1="72.6" x2="3.48" y2="74.76"/><line class="cls-9" x1="3.48" y1="76.44" x2="3.48" y2="78.6"/><line class="cls-9" x1="3.48" y1="80.28" x2="3.48" y2="82.44"/><line class="cls-9" x1="3.48" y1="84.12" x2="3.48" y2="86.28"/><line class="cls-9" x1="3.48" y1="87.96" x2="3.48" y2="90.12"/><line class="cls-9" x1="3.48" y1="91.8" x2="3.48" y2="93.96"/><line class="cls-9" x1="3.48" y1="95.64" x2="3.48" y2="97.8"/><line class="cls-9" x1="3.48" y1="99.48" x2="3.48" y2="101.64"/><line class="cls-9" x1="3.48" y1="103.32" x2="3.48" y2="105.24"/><line class="cls-9" x1="3.48" y1="107.16" x2="3.48" y2="109.08"/><line class="cls-9" x1="3.48" y1="110.76" x2="3.48" y2="112.92"/><line class="cls-9" x1="3.48" y1="114.6" x2="3.48" y2="116.76"/><line class="cls-9" x1="3.48" y1="118.44" x2="3.48" y2="120.6"/><line class="cls-9" x1="3.48" y1="122.28" x2="3.48" y2="124.44"/><line class="cls-9" x1="3.48" y1="126.12" x2="3.48" y2="128.28"/><line class="cls-9" x1="3.48" y1="129.96" x2="3.48" y2="132.12"/><line class="cls-9" x1="3.48" y1="133.8" x2="3.48" y2="135.96"/><line class="cls-9" x1="3.48" y1="137.64" x2="3.48" y2="139.8"/><line class="cls-9" x1="3.48" y1="141.48" x2="3.48" y2="143.64"/><line class="cls-9" x1="3.48" y1="145.32" x2="3.48" y2="147.48"/><polyline class="cls-10" points="76.92 143.4 77.64 143.64 78.36 143.64"/><polyline class="cls-10" points="87.48 143.4 86.76 143.64 86.04 143.64"/><line class="cls-10" x1="75.48" y1="141.72" x2="75.48" y2="142.2"/><polyline class="cls-10" points="75.48 141.72 75.48 141 75.48 140.28"/><polyline class="cls-10" points="76.92 143.4 75.96 142.92 75.48 142.2"/><line class="cls-10" x1="88.92" y1="141.72" x2="88.92" y2="142.2"/><polyline class="cls-10" points="88.92 141.72 88.92 141 88.92 140.28"/><polyline class="cls-10" points="87.48 143.4 88.44 142.92 88.92 142.2"/><line class="cls-9" x1="89.16" y1="147.48" x2="75" y2="147.48"/><polyline class="cls-9" points="89.4 138.84 88.68 137.64 87.72 136.68"/><polyline class="cls-9" points="89.88 141.24 89.88 140.04 89.4 138.84"/><polyline class="cls-9" points="89.16 147.48 89.88 144.36 89.88 141.24"/><polyline class="cls-9" points="74.28 141.24 74.52 144.36 75 147.48"/><polyline class="cls-9" points="85.08 135.24 83.64 134.76 82.2 134.76"/><polyline class="cls-9" points="87.72 136.68 86.52 135.72 85.08 135.24"/><polyline class="cls-9" points="75 138.84 74.52 140.04 74.28 141.24"/><polyline class="cls-9" points="76.68 136.68 75.72 137.64 75 138.84"/><polyline class="cls-9" points="79.08 135.24 77.88 135.72 76.68 136.68"/><polyline class="cls-9" points="82.2 134.76 80.52 134.76 79.08 135.24"/><polyline class="cls-10" points="75 147 89.4 147 89.88 144.12 89.88 141.24 89.88 140.04 89.4 138.84 88.68 137.64 87.72 136.68 86.52 135.72 85.08 135.24 83.64 134.76 82.2 134.76 80.52 134.76 79.08 135.24 77.88 135.72 76.68 136.68 75.72 137.64 75 138.84 74.52 140.04 74.28 141.24 74.52 144.12 75 147"/><polyline class="cls-11" points="69.48 147.48 94.92 147.48 94.92 147 69.48 147 69.48 147.48"/><line class="cls-9" x1="86.52" y1="66.36" x2="86.52" y2="6.6"/><polyline class="cls-9" points="85.08 67.8 86.04 67.32 86.52 66.36"/><line class="cls-9" x1="59.88" y1="67.8" x2="85.08" y2="67.8"/><polyline class="cls-9" points="58.44 66.36 58.92 67.32 59.88 67.8"/><line class="cls-9" x1="58.44" y1="6.6" x2="58.44" y2="66.36"/><polyline class="cls-9" points="59.88 5.16 58.92 5.64 58.44 6.6"/><line class="cls-9" x1="85.08" y1="5.16" x2="59.88" y2="5.16"/><polyline class="cls-9" points="86.52 6.6 86.04 5.64 85.08 5.16"/><polyline class="cls-10" points="58.44 21 59.16 21 59.16 7.08 58.44 7.08 58.44 21"/><polyline class="cls-10" points="85.8 63.96 86.52 63.96 86.52 43.8 85.8 43.8 85.8 63.96"/><polyline class="cls-10" points="85.8 20.76 86.52 20.76 86.52 7.08 85.8 7.08 85.8 20.76"/><line class="cls-10" x1="83.88" y1="66.84" x2="83.88" y2="67.56"/><line class="cls-10" x1="61.08" y1="66.84" x2="83.88" y2="66.84"/><line class="cls-10" x1="61.08" y1="67.56" x2="61.08" y2="66.84"/><line class="cls-10" x1="83.88" y1="67.56" x2="61.08" y2="67.56"/><line class="cls-10" x1="83.88" y1="6.12" x2="83.88" y2="5.16"/><line class="cls-10" x1="61.08" y1="6.12" x2="83.88" y2="6.12"/><line class="cls-10" x1="61.08" y1="5.16" x2="61.08" y2="6.12"/><line class="cls-10" x1="83.88" y1="5.16" x2="61.08" y2="5.16"/><line class="cls-10" x1="61.08" y1="19.32" x2="61.08" y2="7.56"/><line class="cls-10" x1="84.12" y1="19.32" x2="61.08" y2="19.32"/><line class="cls-10" x1="84.12" y1="7.56" x2="84.12" y2="19.32"/><line class="cls-10" x1="61.08" y1="7.56" x2="84.12" y2="7.56"/><line class="cls-10" x1="85.56" y1="65.16" x2="85.56" y2="7.56"/><polyline class="cls-10" points="84.12 66.6 85.08 66.12 85.56 65.16"/><line class="cls-10" x1="61.08" y1="66.6" x2="84.12" y2="66.6"/><polyline class="cls-10" points="59.64 65.16 59.88 66.12 61.08 66.6"/><line class="cls-10" x1="59.64" y1="7.56" x2="59.64" y2="65.16"/><polyline class="cls-10" points="61.08 6.12 59.88 6.6 59.64 7.56"/><line class="cls-10" x1="84.12" y1="6.12" x2="61.08" y2="6.12"/><polyline class="cls-10" points="85.56 7.56 85.08 6.6 84.12 6.12"/><polyline class="cls-10" points="85.08 5.16 59.88 5.16 59.64 5.16 59.16 5.4 58.92 5.64 58.68 5.88 58.44 6.12 58.44 6.6 58.44 66.36 58.44 66.6 58.68 67.08 58.92 67.32 59.16 67.56 59.64 67.56 59.88 67.8 85.08 67.8 85.56 67.56 85.8 67.56 86.04 67.32 86.28 67.08 86.52 66.6 86.52 66.36 86.52 6.6 86.52 6.12 86.28 5.88 86.04 5.64 85.8 5.4 85.56 5.16 85.08 5.16"/></g></g></svg>