<svg xmlns="http://www.w3.org/2000/svg" xmlns:xlink="http://www.w3.org/1999/xlink" viewBox="0 0 187.68 168"><defs><style>.cls-1,.cls-2,.cls-6,.cls-7,.cls-8,.cls-9{fill:none;}.cls-1{clip-rule:evenodd;}.cls-3{clip-path:url(#clip-path);}.cls-4{clip-path:url(#clip-path-2);}.cls-5{fill:#c6d3b4;}.cls-6{stroke:red;}.cls-6,.cls-7,.cls-8,.cls-9{stroke-linecap:round;stroke-linejoin:round;}.cls-6,.cls-7{stroke-width:0.24px;}.cls-7,.cls-8,.cls-9{stroke:#000;}.cls-8{stroke-width:0.48px;}.cls-9{stroke-width:0.96px;}</style><clipPath id="clip-path" transform="translate(0 -424.92)"><path class="cls-1" d="M119.88,462.24l-.72.24-.24.48-.24.24v25.68h.24v.72h.24l.24.24v.48l61.2-.24.24-.24.24-.48.24-26.4-.48-.48-.48-.24m-173,0-.72.24-.24.72-.24,25.44.24.24v.72H6.6l.24.24v.48l61.2-.24.48-.48.24-26.88-.24-.24-.72-.24ZM3.48,428.4V560.16H42.84v-.48h5.52v-1.44h-.24V556.8h-.24v-2.88l-.24-.24.24-1.2.24-.48c.48-1.18,1.1-2.61,2.4-3.12l.72-.72.72-.24.48-.24.72-.24H58l1.44.48,1,.48,2.16,2.16V551h.24v.48H63v.72h.24L63,558l-.24,1.44,5.52.24v29.76H124.2V560.88l26.64-26.64H184.2V428.4Z"/></clipPath><clipPath id="clip-path-2" transform="translate(0 -424.92)"><rect class="cls-2" x="0.13" width="841.92" height="595.2"/></clipPath></defs><title>ROOM-BED-STANDARD WITH CUTOUT</title><g id="Layer_2" data-name="Layer 2"><g id="Layer_1-2" data-name="Layer 1"><g class="cls-3"><g class="cls-4"><rect class="cls-5" x="3.48" y="3.48" width="180.72" height="161.04"/></g></g><line class="cls-6" x1="66.6" y1="166.2" x2="66.6" y2="164.04"/><line class="cls-6" x1="66.6" y1="162.12" x2="66.6" y2="160.2"/><line class="cls-6" x1="66.6" y1="158.52" x2="66.6" y2="156.36"/><line class="cls-6" x1="66.6" y1="154.68" x2="66.6" y2="152.52"/><line class="cls-6" x1="66.6" y1="150.84" x2="66.6" y2="148.68"/><line class="cls-6" x1="66.6" y1="147" x2="66.6" y2="144.84"/><line class="cls-6" x1="66.6" y1="143.16" x2="66.6" y2="141"/><line class="cls-6" x1="66.6" y1="139.32" x2="66.6" y2="136.92"/><line class="cls-6" x1="1.8" y1="136.92" x2="4.68" y2="136.92"/><line class="cls-6" x1="6.36" y1="136.92" x2="8.52" y2="136.92"/><line class="cls-6" x1="10.2" y1="136.92" x2="12.36" y2="136.92"/><line class="cls-6" x1="14.04" y1="136.92" x2="15.96" y2="136.92"/><line class="cls-6" x1="17.88" y1="136.92" x2="19.8" y2="136.92"/><line class="cls-6" x1="21.72" y1="136.92" x2="23.64" y2="136.92"/><line class="cls-6" x1="25.32" y1="136.92" x2="27.48" y2="136.92"/><line class="cls-6" x1="29.16" y1="136.92" x2="31.32" y2="136.92"/><line class="cls-6" x1="33" y1="136.92" x2="35.16" y2="136.92"/><line class="cls-6" x1="36.84" y1="136.92" x2="39" y2="136.92"/><line class="cls-6" x1="40.68" y1="136.92" x2="42.84" y2="136.92"/><line class="cls-6" x1="44.52" y1="136.92" x2="46.68" y2="136.92"/><line class="cls-6" x1="48.36" y1="136.92" x2="50.52" y2="136.92"/><line class="cls-6" x1="52.2" y1="136.92" x2="54.36" y2="136.92"/><line class="cls-6" x1="56.04" y1="136.92" x2="58.2" y2="136.92"/><line class="cls-6" x1="59.88" y1="136.92" x2="62.04" y2="136.92"/><line class="cls-6" x1="63.72" y1="136.92" x2="66.6" y2="136.92"/><line class="cls-6" x1="125.88" y1="166.2" x2="124.44" y2="166.2"/><line class="cls-6" x1="122.76" y1="166.2" x2="120.6" y2="166.2"/><line class="cls-6" x1="118.92" y1="166.2" x2="117.72" y2="166.2"/><line class="cls-6" x1="1.8" y1="136.92" x2="1.8" y2="135.24"/><line class="cls-6" x1="1.8" y1="133.56" x2="1.8" y2="131.4"/><line class="cls-6" x1="1.8" y1="129.72" x2="1.8" y2="127.56"/><line class="cls-6" x1="1.8" y1="125.88" x2="1.8" y2="123.96"/><line class="cls-6" x1="1.8" y1="122.04" x2="1.8" y2="120.12"/><line class="cls-6" x1="1.8" y1="118.2" x2="1.8" y2="116.28"/><line class="cls-6" x1="1.8" y1="114.6" x2="1.8" y2="112.44"/><line class="cls-6" x1="1.8" y1="110.76" x2="1.8" y2="108.6"/><line class="cls-6" x1="1.8" y1="106.92" x2="1.8" y2="104.76"/><line class="cls-6" x1="1.8" y1="103.08" x2="1.8" y2="100.92"/><line class="cls-6" x1="1.8" y1="99.24" x2="1.8" y2="97.08"/><line class="cls-6" x1="1.8" y1="95.4" x2="1.8" y2="93.24"/><line class="cls-6" x1="1.8" y1="91.56" x2="1.8" y2="89.4"/><line class="cls-6" x1="1.8" y1="87.72" x2="1.8" y2="85.56"/><line class="cls-6" x1="1.8" y1="83.88" x2="1.8" y2="81.72"/><line class="cls-6" x1="1.8" y1="80.04" x2="1.8" y2="77.88"/><line class="cls-6" x1="1.8" y1="76.2" x2="1.8" y2="74.04"/><line class="cls-6" x1="1.8" y1="72.36" x2="1.8" y2="70.2"/><line class="cls-6" x1="1.8" y1="68.52" x2="1.8" y2="66.36"/><line class="cls-6" x1="1.8" y1="64.68" x2="1.8" y2="62.76"/><line class="cls-6" x1="1.8" y1="60.84" x2="1.8" y2="58.92"/><line class="cls-6" x1="1.8" y1="57.24" x2="1.8" y2="55.08"/><line class="cls-6" x1="1.8" y1="53.4" x2="1.8" y2="51.24"/><line class="cls-6" x1="1.8" y1="49.56" x2="1.8" y2="47.4"/><line class="cls-6" x1="1.8" y1="45.72" x2="1.8" y2="43.56"/><line class="cls-6" x1="1.8" y1="41.88" x2="1.8" y2="39.72"/><line class="cls-6" x1="1.8" y1="38.04" x2="1.8" y2="35.88"/><line class="cls-6" x1="1.8" y1="34.2" x2="1.8" y2="32.04"/><line class="cls-6" x1="1.8" y1="30.36" x2="1.8" y2="28.2"/><line class="cls-6" x1="1.8" y1="26.52" x2="1.8" y2="24.36"/><line class="cls-6" x1="1.8" y1="22.68" x2="1.8" y2="20.52"/><line class="cls-6" x1="1.8" y1="18.84" x2="1.8" y2="16.68"/><line class="cls-6" x1="1.8" y1="15" x2="1.8" y2="12.84"/><line class="cls-6" x1="1.8" y1="11.16" x2="1.8" y2="9"/><line class="cls-6" x1="1.8" y1="7.32" x2="1.8" y2="5.16"/><line class="cls-6" x1="1.8" y1="3.48" x2="1.8" y2="1.8"/><line class="cls-6" x1="72.36" y1="166.2" x2="70.2" y2="166.2"/><line class="cls-6" x1="68.52" y1="166.2" x2="66.6" y2="166.2"/><line class="cls-6" x1="125.88" y1="136.92" x2="125.88" y2="139.32"/><line class="cls-6" x1="125.88" y1="141" x2="125.88" y2="143.16"/><line class="cls-6" x1="125.88" y1="144.84" x2="125.88" y2="147"/><line class="cls-6" x1="125.88" y1="148.68" x2="125.88" y2="150.84"/><line class="cls-6" x1="125.88" y1="152.52" x2="125.88" y2="154.68"/><line class="cls-6" x1="125.88" y1="156.36" x2="125.88" y2="158.52"/><line class="cls-6" x1="125.88" y1="160.2" x2="125.88" y2="162.12"/><line class="cls-6" x1="125.88" y1="164.04" x2="125.88" y2="166.2"/><line class="cls-6" x1="151.8" y1="111" x2="150.36" y2="112.68"/><line class="cls-6" x1="149.16" y1="113.88" x2="147.48" y2="115.32"/><line class="cls-6" x1="146.28" y1="116.52" x2="144.84" y2="117.96"/><line class="cls-6" x1="143.64" y1="119.16" x2="142.2" y2="120.6"/><line class="cls-6" x1="141" y1="121.8" x2="139.32" y2="123.48"/><line class="cls-6" x1="138.12" y1="124.68" x2="136.68" y2="126.12"/><line class="cls-6" x1="135.48" y1="127.32" x2="134.04" y2="128.76"/><line class="cls-6" x1="132.84" y1="129.96" x2="131.4" y2="131.4"/><line class="cls-6" x1="130.2" y1="132.6" x2="128.52" y2="134.28"/><line class="cls-6" x1="127.32" y1="135.48" x2="125.88" y2="136.92"/><line class="cls-6" x1="185.88" y1="111" x2="183" y2="111"/><line class="cls-6" x1="181.32" y1="111" x2="179.16" y2="111"/><line class="cls-6" x1="177.48" y1="111" x2="175.56" y2="111"/><line class="cls-6" x1="173.64" y1="111" x2="171.72" y2="111"/><line class="cls-6" x1="169.8" y1="111" x2="167.88" y2="111"/><line class="cls-6" x1="166.2" y1="111" x2="164.04" y2="111"/><line class="cls-6" x1="162.36" y1="111" x2="160.2" y2="111"/><line class="cls-6" x1="158.52" y1="111" x2="156.36" y2="111"/><line class="cls-6" x1="154.68" y1="111" x2="151.8" y2="111"/><line class="cls-6" x1="185.88" y1="1.8" x2="185.88" y2="3.96"/><line class="cls-6" x1="185.88" y1="5.64" x2="185.88" y2="7.8"/><line class="cls-6" x1="185.88" y1="9.48" x2="185.88" y2="11.64"/><line class="cls-6" x1="185.88" y1="13.32" x2="185.88" y2="15.48"/><line class="cls-6" x1="185.88" y1="17.16" x2="185.88" y2="19.32"/><line class="cls-6" x1="185.88" y1="21" x2="185.88" y2="23.16"/><line class="cls-6" x1="185.88" y1="24.84" x2="185.88" y2="26.76"/><line class="cls-6" x1="185.88" y1="28.68" x2="185.88" y2="30.6"/><line class="cls-6" x1="185.88" y1="32.52" x2="185.88" y2="34.44"/><line class="cls-6" x1="185.88" y1="36.12" x2="185.88" y2="38.28"/><line class="cls-6" x1="185.88" y1="39.96" x2="185.88" y2="42.12"/><line class="cls-6" x1="185.88" y1="43.8" x2="185.88" y2="45.96"/><line class="cls-6" x1="185.88" y1="47.64" x2="185.88" y2="49.8"/><line class="cls-6" x1="185.88" y1="51.48" x2="185.88" y2="53.64"/><line class="cls-6" x1="185.88" y1="55.32" x2="185.88" y2="57.48"/><line class="cls-6" x1="185.88" y1="59.16" x2="185.88" y2="61.32"/><line class="cls-6" x1="185.88" y1="63" x2="185.88" y2="65.16"/><line class="cls-6" x1="185.88" y1="66.84" x2="185.88" y2="69"/><line class="cls-6" x1="185.88" y1="70.68" x2="185.88" y2="72.84"/><line class="cls-6" x1="185.88" y1="74.52" x2="185.88" y2="76.68"/><line class="cls-6" x1="185.88" y1="78.36" x2="185.88" y2="80.52"/><line class="cls-6" x1="185.88" y1="82.2" x2="185.88" y2="84.36"/><line class="cls-6" x1="185.88" y1="86.04" x2="185.88" y2="87.96"/><line class="cls-6" x1="185.88" y1="89.88" x2="185.88" y2="91.8"/><line class="cls-6" x1="185.88" y1="93.48" x2="185.88" y2="95.64"/><line class="cls-6" x1="185.88" y1="97.32" x2="185.88" y2="99.48"/><line class="cls-6" x1="185.88" y1="101.16" x2="185.88" y2="103.32"/><line class="cls-6" x1="185.88" y1="105" x2="185.88" y2="107.16"/><line class="cls-6" x1="185.88" y1="108.84" x2="185.88" y2="111"/><line class="cls-6" x1="1.8" y1="1.8" x2="3" y2="1.8"/><line class="cls-6" x1="4.68" y1="1.8" x2="6.84" y2="1.8"/><line class="cls-6" x1="8.52" y1="1.8" x2="10.68" y2="1.8"/><line class="cls-6" x1="12.36" y1="1.8" x2="14.52" y2="1.8"/><line class="cls-6" x1="16.2" y1="1.8" x2="18.36" y2="1.8"/><line class="cls-6" x1="20.04" y1="1.8" x2="22.2" y2="1.8"/><line class="cls-6" x1="23.88" y1="1.8" x2="26.04" y2="1.8"/><line class="cls-6" x1="27.72" y1="1.8" x2="29.88" y2="1.8"/><line class="cls-6" x1="31.56" y1="1.8" x2="33.72" y2="1.8"/><line class="cls-6" x1="35.4" y1="1.8" x2="37.56" y2="1.8"/><line class="cls-6" x1="39.24" y1="1.8" x2="41.4" y2="1.8"/><line class="cls-6" x1="43.08" y1="1.8" x2="45" y2="1.8"/><line class="cls-6" x1="46.92" y1="1.8" x2="48.84" y2="1.8"/><line class="cls-6" x1="50.76" y1="1.8" x2="52.68" y2="1.8"/><line class="cls-6" x1="54.36" y1="1.8" x2="56.52" y2="1.8"/><line class="cls-6" x1="58.2" y1="1.8" x2="60.36" y2="1.8"/><line class="cls-6" x1="62.04" y1="1.8" x2="64.2" y2="1.8"/><line class="cls-6" x1="65.88" y1="1.8" x2="68.04" y2="1.8"/><line class="cls-6" x1="69.72" y1="1.8" x2="71.88" y2="1.8"/><line class="cls-6" x1="73.56" y1="1.8" x2="75.72" y2="1.8"/><line class="cls-6" x1="77.4" y1="1.8" x2="79.56" y2="1.8"/><line class="cls-6" x1="81.24" y1="1.8" x2="83.4" y2="1.8"/><line class="cls-6" x1="85.08" y1="1.8" x2="87.24" y2="1.8"/><line class="cls-6" x1="88.92" y1="1.8" x2="91.08" y2="1.8"/><line class="cls-6" x1="92.76" y1="1.8" x2="94.92" y2="1.8"/><line class="cls-6" x1="96.6" y1="1.8" x2="98.76" y2="1.8"/><line class="cls-6" x1="100.44" y1="1.8" x2="102.6" y2="1.8"/><line class="cls-6" x1="104.28" y1="1.8" x2="106.2" y2="1.8"/><line class="cls-6" x1="108.12" y1="1.8" x2="110.04" y2="1.8"/><line class="cls-6" x1="111.72" y1="1.8" x2="113.88" y2="1.8"/><line class="cls-6" x1="115.56" y1="1.8" x2="117.72" y2="1.8"/><line class="cls-6" x1="119.4" y1="1.8" x2="121.56" y2="1.8"/><line class="cls-6" x1="123.24" y1="1.8" x2="125.4" y2="1.8"/><line class="cls-6" x1="127.08" y1="1.8" x2="129.24" y2="1.8"/><line class="cls-6" x1="130.92" y1="1.8" x2="133.08" y2="1.8"/><line class="cls-6" x1="134.76" y1="1.8" x2="136.92" y2="1.8"/><line class="cls-6" x1="138.6" y1="1.8" x2="140.76" y2="1.8"/><line class="cls-6" x1="142.44" y1="1.8" x2="144.6" y2="1.8"/><line class="cls-6" x1="146.28" y1="1.8" x2="148.44" y2="1.8"/><line class="cls-6" x1="150.12" y1="1.8" x2="152.28" y2="1.8"/><line class="cls-6" x1="153.96" y1="1.8" x2="156.12" y2="1.8"/><line class="cls-6" x1="157.8" y1="1.8" x2="159.96" y2="1.8"/><line class="cls-6" x1="161.64" y1="1.8" x2="163.8" y2="1.8"/><line class="cls-6" x1="165.48" y1="1.8" x2="167.4" y2="1.8"/><line class="cls-6" x1="169.32" y1="1.8" x2="171.24" y2="1.8"/><line class="cls-6" x1="172.92" y1="1.8" x2="175.08" y2="1.8"/><line class="cls-6" x1="176.76" y1="1.8" x2="178.92" y2="1.8"/><line class="cls-6" x1="180.6" y1="1.8" x2="182.76" y2="1.8"/><line class="cls-6" x1="184.44" y1="1.8" x2="185.88" y2="1.8"/><polyline class="cls-7" points="100.68 166.2 101.64 160.92 104.04 156.12 107.64 152.52 112.44 150.12 117.72 149.16"/><polyline class="cls-7" points="100.68 166.2 101.64 160.92 104.04 156.12 107.64 152.52 112.44 150.12 117.72 149.16"/><line class="cls-7" x1="117.72" y1="166.2" x2="117.72" y2="149.16"/><polyline class="cls-7" points="116.28 166.2 116.28 149.16 117.72 149.16 117.72 166.2 116.28 166.2"/><polyline class="cls-7" points="100.68 166.2 99.96 159.96 97.8 153.96 94.44 148.44 89.88 143.88 84.6 140.52 78.6 138.36 72.36 137.64"/><polyline class="cls-7" points="100.68 166.2 99.96 159.96 97.8 153.96 94.44 148.44 89.88 143.88 84.6 140.52 78.6 138.36 72.36 137.64"/><line class="cls-7" x1="72.36" y1="166.2" x2="72.36" y2="137.64"/><polyline class="cls-7" points="73.56 166.2 73.56 137.64 72.36 137.64 72.36 166.2 73.56 166.2"/><polyline class="cls-7" points="124.2 164.52 68.28 164.52 68.28 135.24 3.48 135.24 3.48 3.48 184.2 3.48 184.2 109.32 151.08 109.32 124.2 136.2 124.2 164.52"/><polyline class="cls-7" points="187.56 0.12 0.12 0.12 0.12 138.6 64.92 138.6"/><polyline class="cls-7" points="64.92 138.6 64.92 167.88 127.56 167.88 127.56 137.64 152.52 112.68 187.56 112.68 187.56 0.12"/><line class="cls-7" x1="3.48" y1="3.48" x2="3.48" y2="5.4"/><line class="cls-7" x1="3.48" y1="7.08" x2="3.48" y2="9.24"/><line class="cls-7" x1="3.48" y1="10.92" x2="3.48" y2="13.08"/><line class="cls-7" x1="3.48" y1="14.76" x2="3.48" y2="16.92"/><line class="cls-7" x1="3.48" y1="18.6" x2="3.48" y2="20.76"/><line class="cls-7" x1="3.48" y1="22.44" x2="3.48" y2="24.6"/><line class="cls-7" x1="3.48" y1="26.28" x2="3.48" y2="28.44"/><line class="cls-7" x1="3.48" y1="30.12" x2="3.48" y2="32.28"/><line class="cls-7" x1="3.48" y1="33.96" x2="3.48" y2="36.12"/><line class="cls-7" x1="3.48" y1="37.8" x2="3.48" y2="39.96"/><line class="cls-7" x1="3.48" y1="41.64" x2="3.48" y2="43.8"/><line class="cls-7" x1="3.48" y1="45.48" x2="3.48" y2="47.64"/><line class="cls-7" x1="3.48" y1="49.32" x2="3.48" y2="51.48"/><line class="cls-7" x1="3.48" y1="53.16" x2="3.48" y2="55.32"/><line class="cls-7" x1="3.48" y1="57" x2="3.48" y2="58.92"/><line class="cls-7" x1="3.48" y1="60.84" x2="3.48" y2="62.76"/><line class="cls-7" x1="3.48" y1="64.44" x2="3.48" y2="66.6"/><line class="cls-7" x1="3.48" y1="68.28" x2="3.48" y2="70.44"/><line class="cls-7" x1="3.48" y1="72.12" x2="3.48" y2="74.28"/><line class="cls-7" x1="3.48" y1="75.96" x2="3.48" y2="78.12"/><line class="cls-7" x1="3.48" y1="79.8" x2="3.48" y2="81.96"/><line class="cls-7" x1="3.48" y1="83.64" x2="3.48" y2="85.8"/><line class="cls-7" x1="3.48" y1="87.48" x2="3.48" y2="89.64"/><line class="cls-7" x1="3.48" y1="91.32" x2="3.48" y2="93.48"/><line class="cls-7" x1="3.48" y1="95.16" x2="3.48" y2="97.32"/><line class="cls-7" x1="3.48" y1="99" x2="3.48" y2="101.16"/><line class="cls-7" x1="3.48" y1="102.84" x2="3.48" y2="105"/><line class="cls-7" x1="3.48" y1="106.68" x2="3.48" y2="108.84"/><line class="cls-7" x1="3.48" y1="110.52" x2="3.48" y2="112.68"/><line class="cls-7" x1="3.48" y1="114.36" x2="3.48" y2="116.52"/><line class="cls-7" x1="3.48" y1="118.2" x2="3.48" y2="120.12"/><line class="cls-7" x1="3.48" y1="122.04" x2="3.48" y2="123.96"/><line class="cls-7" x1="3.48" y1="125.64" x2="3.48" y2="127.8"/><line class="cls-7" x1="3.48" y1="129.48" x2="3.48" y2="131.64"/><line class="cls-7" x1="3.48" y1="133.32" x2="3.48" y2="135.24"/><line class="cls-7" x1="3.48" y1="138.6" x2="4.68" y2="138.6"/><line class="cls-7" x1="6.36" y1="138.6" x2="8.52" y2="138.6"/><line class="cls-7" x1="10.2" y1="138.6" x2="12.36" y2="138.6"/><line class="cls-7" x1="14.04" y1="138.6" x2="15.96" y2="138.6"/><line class="cls-7" x1="17.88" y1="138.6" x2="19.8" y2="138.6"/><line class="cls-7" x1="21.72" y1="138.6" x2="23.64" y2="138.6"/><line class="cls-7" x1="25.32" y1="138.6" x2="27.48" y2="138.6"/><line class="cls-7" x1="29.16" y1="138.6" x2="31.32" y2="138.6"/><line class="cls-7" x1="33" y1="138.6" x2="35.16" y2="138.6"/><line class="cls-7" x1="36.84" y1="138.6" x2="39" y2="138.6"/><line class="cls-7" x1="40.68" y1="138.6" x2="42.84" y2="138.6"/><line class="cls-7" x1="44.52" y1="138.6" x2="46.68" y2="138.6"/><line class="cls-7" x1="48.36" y1="138.6" x2="50.52" y2="138.6"/><line class="cls-7" x1="52.2" y1="138.6" x2="54.36" y2="138.6"/><line class="cls-7" x1="56.04" y1="138.6" x2="58.2" y2="138.6"/><line class="cls-7" x1="59.88" y1="138.6" x2="62.04" y2="138.6"/><line class="cls-7" x1="63.72" y1="138.6" x2="64.92" y2="138.6"/><line class="cls-7" x1="68.28" y1="138.6" x2="68.28" y2="141.24"/><line class="cls-7" x1="68.28" y1="142.92" x2="68.28" y2="145.08"/><line class="cls-7" x1="68.28" y1="146.76" x2="68.28" y2="148.92"/><line class="cls-7" x1="68.28" y1="150.6" x2="68.28" y2="152.76"/><line class="cls-7" x1="68.28" y1="154.44" x2="68.28" y2="156.6"/><line class="cls-7" x1="68.28" y1="158.28" x2="68.28" y2="160.2"/><polyline class="cls-7" points="68.28 162.12 68.28 164.52 70.44 164.52"/><line class="cls-7" x1="72.12" y1="164.52" x2="74.28" y2="164.52"/><line class="cls-7" x1="75.96" y1="164.52" x2="78.12" y2="164.52"/><line class="cls-7" x1="79.8" y1="164.52" x2="81.96" y2="164.52"/><line class="cls-7" x1="83.64" y1="164.52" x2="85.8" y2="164.52"/><line class="cls-7" x1="87.48" y1="164.52" x2="89.64" y2="164.52"/><line class="cls-7" x1="91.32" y1="164.52" x2="93.48" y2="164.52"/><line class="cls-7" x1="95.16" y1="164.52" x2="97.32" y2="164.52"/><line class="cls-7" x1="99" y1="164.52" x2="101.16" y2="164.52"/><line class="cls-7" x1="102.84" y1="164.52" x2="105" y2="164.52"/><line class="cls-7" x1="106.68" y1="164.52" x2="108.84" y2="164.52"/><line class="cls-7" x1="110.52" y1="164.52" x2="112.44" y2="164.52"/><line class="cls-7" x1="114.36" y1="164.52" x2="116.28" y2="164.52"/><line class="cls-7" x1="117.96" y1="164.52" x2="120.12" y2="164.52"/><polyline class="cls-7" points="121.8 164.52 124.2 164.52 124.2 162.84"/><line class="cls-7" x1="124.2" y1="160.92" x2="124.2" y2="159"/><line class="cls-7" x1="124.2" y1="157.32" x2="124.2" y2="155.16"/><line class="cls-7" x1="124.2" y1="153.48" x2="124.2" y2="151.32"/><line class="cls-7" x1="124.2" y1="149.64" x2="124.2" y2="147.48"/><line class="cls-7" x1="124.2" y1="145.8" x2="124.2" y2="143.64"/><line class="cls-7" x1="124.2" y1="141.96" x2="124.2" y2="139.8"/><polyline class="cls-7" points="124.2 138.12 124.2 136.2 124.92 135.48"/><line class="cls-7" x1="126.12" y1="134.28" x2="127.56" y2="132.84"/><line class="cls-7" x1="128.76" y1="131.64" x2="130.2" y2="130.2"/><line class="cls-7" x1="131.4" y1="129" x2="133.08" y2="127.32"/><line class="cls-7" x1="134.28" y1="126.12" x2="135.72" y2="124.68"/><line class="cls-7" x1="136.92" y1="123.48" x2="138.36" y2="122.04"/><line class="cls-7" x1="139.56" y1="120.84" x2="141" y2="119.4"/><line class="cls-7" x1="142.2" y1="118.2" x2="143.88" y2="116.52"/><line class="cls-7" x1="145.08" y1="115.32" x2="146.52" y2="113.88"/><line class="cls-7" x1="147.72" y1="112.68" x2="149.16" y2="111.24"/><polyline class="cls-7" points="150.36 110.04 151.08 109.32 153.48 109.32"/><line class="cls-7" x1="155.16" y1="109.32" x2="157.32" y2="109.32"/><line class="cls-7" x1="159" y1="109.32" x2="161.16" y2="109.32"/><line class="cls-7" x1="162.84" y1="109.32" x2="165" y2="109.32"/><line class="cls-7" x1="166.68" y1="109.32" x2="168.6" y2="109.32"/><line class="cls-7" x1="170.52" y1="109.32" x2="172.44" y2="109.32"/><line class="cls-7" x1="174.36" y1="109.32" x2="176.28" y2="109.32"/><line class="cls-7" x1="177.96" y1="109.32" x2="180.12" y2="109.32"/><polyline class="cls-7" points="181.8 109.32 184.2 109.32 184.2 106.92"/><line class="cls-7" x1="184.2" y1="105.24" x2="184.2" y2="103.08"/><line class="cls-7" x1="184.2" y1="101.4" x2="184.2" y2="99.24"/><line class="cls-7" x1="184.2" y1="97.56" x2="184.2" y2="95.4"/><line class="cls-7" x1="184.2" y1="93.72" x2="184.2" y2="91.8"/><line class="cls-7" x1="184.2" y1="89.88" x2="184.2" y2="87.96"/><line class="cls-7" x1="184.2" y1="86.28" x2="184.2" y2="84.12"/><line class="cls-7" x1="184.2" y1="82.44" x2="184.2" y2="80.28"/><line class="cls-7" x1="184.2" y1="78.6" x2="184.2" y2="76.44"/><line class="cls-7" x1="184.2" y1="74.76" x2="184.2" y2="72.6"/><line class="cls-7" x1="184.2" y1="70.92" x2="184.2" y2="68.76"/><line class="cls-7" x1="184.2" y1="67.08" x2="184.2" y2="64.92"/><line class="cls-7" x1="184.2" y1="63.24" x2="184.2" y2="61.08"/><line class="cls-7" x1="184.2" y1="59.4" x2="184.2" y2="57.24"/><line class="cls-7" x1="184.2" y1="55.56" x2="184.2" y2="53.4"/><line class="cls-7" x1="184.2" y1="51.72" x2="184.2" y2="49.56"/><line class="cls-7" x1="184.2" y1="47.88" x2="184.2" y2="45.72"/><line class="cls-7" x1="184.2" y1="44.04" x2="184.2" y2="41.88"/><line class="cls-7" x1="184.2" y1="40.2" x2="184.2" y2="38.04"/><line class="cls-7" x1="184.2" y1="36.36" x2="184.2" y2="34.2"/><line class="cls-7" x1="184.2" y1="32.52" x2="184.2" y2="30.6"/><line class="cls-7" x1="184.2" y1="28.68" x2="184.2" y2="26.76"/><line class="cls-7" x1="184.2" y1="25.08" x2="184.2" y2="22.92"/><line class="cls-7" x1="184.2" y1="21.24" x2="184.2" y2="19.08"/><line class="cls-7" x1="184.2" y1="17.4" x2="184.2" y2="15.24"/><line class="cls-7" x1="184.2" y1="13.56" x2="184.2" y2="11.4"/><line class="cls-7" x1="184.2" y1="9.72" x2="184.2" y2="7.56"/><polyline class="cls-7" points="184.2 5.88 184.2 3.48 182.52 3.48"/><line class="cls-7" x1="180.84" y1="3.48" x2="178.68" y2="3.48"/><line class="cls-7" x1="177" y1="3.48" x2="174.84" y2="3.48"/><line class="cls-7" x1="173.16" y1="3.48" x2="171.24" y2="3.48"/><line class="cls-7" x1="169.32" y1="3.48" x2="167.4" y2="3.48"/><line class="cls-7" x1="165.48" y1="3.48" x2="163.56" y2="3.48"/><line class="cls-7" x1="161.88" y1="3.48" x2="159.72" y2="3.48"/><line class="cls-7" x1="158.04" y1="3.48" x2="155.88" y2="3.48"/><line class="cls-7" x1="154.2" y1="3.48" x2="152.04" y2="3.48"/><line class="cls-7" x1="150.36" y1="3.48" x2="148.2" y2="3.48"/><line class="cls-7" x1="146.52" y1="3.48" x2="144.36" y2="3.48"/><line class="cls-7" x1="142.68" y1="3.48" x2="140.52" y2="3.48"/><line class="cls-7" x1="138.84" y1="3.48" x2="136.68" y2="3.48"/><line class="cls-7" x1="135" y1="3.48" x2="132.84" y2="3.48"/><line class="cls-7" x1="131.16" y1="3.48" x2="129" y2="3.48"/><line class="cls-7" x1="127.32" y1="3.48" x2="125.16" y2="3.48"/><line class="cls-7" x1="123.48" y1="3.48" x2="121.32" y2="3.48"/><line class="cls-7" x1="119.64" y1="3.48" x2="117.48" y2="3.48"/><line class="cls-7" x1="115.8" y1="3.48" x2="113.64" y2="3.48"/><line class="cls-7" x1="111.96" y1="3.48" x2="110.04" y2="3.48"/><line class="cls-7" x1="108.12" y1="3.48" x2="106.2" y2="3.48"/><line class="cls-7" x1="104.52" y1="3.48" x2="102.36" y2="3.48"/><line class="cls-7" x1="100.68" y1="3.48" x2="98.52" y2="3.48"/><line class="cls-7" x1="96.84" y1="3.48" x2="94.68" y2="3.48"/><line class="cls-7" x1="93" y1="3.48" x2="90.84" y2="3.48"/><line class="cls-7" x1="89.16" y1="3.48" x2="87" y2="3.48"/><line class="cls-7" x1="85.32" y1="3.48" x2="83.16" y2="3.48"/><line class="cls-7" x1="81.48" y1="3.48" x2="79.32" y2="3.48"/><line class="cls-7" x1="77.64" y1="3.48" x2="75.48" y2="3.48"/><line class="cls-7" x1="73.8" y1="3.48" x2="71.64" y2="3.48"/><line class="cls-7" x1="69.96" y1="3.48" x2="67.8" y2="3.48"/><line class="cls-7" x1="66.12" y1="3.48" x2="63.96" y2="3.48"/><line class="cls-7" x1="62.28" y1="3.48" x2="60.12" y2="3.48"/><line class="cls-7" x1="58.44" y1="3.48" x2="56.28" y2="3.48"/><line class="cls-7" x1="54.6" y1="3.48" x2="52.44" y2="3.48"/><line class="cls-7" x1="50.76" y1="3.48" x2="48.84" y2="3.48"/><line class="cls-7" x1="46.92" y1="3.48" x2="45" y2="3.48"/><line class="cls-7" x1="43.32" y1="3.48" x2="41.16" y2="3.48"/><line class="cls-7" x1="39.48" y1="3.48" x2="37.32" y2="3.48"/><line class="cls-7" x1="35.64" y1="3.48" x2="33.48" y2="3.48"/><line class="cls-7" x1="31.8" y1="3.48" x2="29.64" y2="3.48"/><line class="cls-7" x1="27.96" y1="3.48" x2="25.8" y2="3.48"/><line class="cls-7" x1="24.12" y1="3.48" x2="21.96" y2="3.48"/><line class="cls-7" x1="20.28" y1="3.48" x2="18.12" y2="3.48"/><line class="cls-7" x1="16.44" y1="3.48" x2="14.28" y2="3.48"/><line class="cls-7" x1="12.6" y1="3.48" x2="10.44" y2="3.48"/><line class="cls-7" x1="8.76" y1="3.48" x2="6.6" y2="3.48"/><line class="cls-7" x1="4.92" y1="3.48" x2="3.48" y2="3.48"/><polyline class="cls-8" points="50.28 131.16 51 131.4 51.72 131.4"/><polyline class="cls-8" points="60.84 131.16 60.12 131.4 59.4 131.4"/><line class="cls-8" x1="48.84" y1="129.48" x2="48.84" y2="129.96"/><polyline class="cls-8" points="48.84 129.48 48.84 128.76 48.84 128.04"/><polyline class="cls-8" points="50.28 131.16 49.32 130.68 48.84 129.96"/><line class="cls-8" x1="62.28" y1="129.48" x2="62.28" y2="129.96"/><polyline class="cls-8" points="62.28 129.48 62.28 128.76 62.28 128.04"/><polyline class="cls-8" points="60.84 131.16 61.8 130.68 62.28 129.96"/><line class="cls-7" x1="62.52" y1="135.24" x2="48.36" y2="135.24"/><polyline class="cls-7" points="62.76 126.6 62.04 125.4 61.08 124.44"/><polyline class="cls-7" points="63.24 129 63.24 127.8 62.76 126.6"/><polyline class="cls-7" points="62.52 135.24 63.24 132.12 63.24 129"/><polyline class="cls-7" points="47.64 129 47.88 132.12 48.36 135.24"/><polyline class="cls-7" points="58.68 123 57 122.52 55.56 122.52"/><polyline class="cls-7" points="61.08 124.44 59.88 123.48 58.68 123"/><polyline class="cls-7" points="48.36 126.6 47.88 127.8 47.64 129"/><polyline class="cls-7" points="50.04 124.44 49.08 125.4 48.36 126.6"/><polyline class="cls-7" points="52.44 123 51.24 123.48 50.04 124.44"/><polyline class="cls-7" points="55.56 122.52 53.88 122.52 52.44 123"/><polyline class="cls-8" points="48.36 134.76 62.76 134.76 63.24 131.88 63.24 129 63.24 127.8 62.76 126.6 62.04 125.4 61.08 124.44 59.88 123.48 58.68 123 57 122.52 55.56 122.52 53.88 122.52 52.44 123 51.24 123.48 50.04 124.44 49.08 125.4 48.36 126.6 47.88 127.8 47.64 129 47.88 131.88 48.36 134.76"/><polyline class="cls-9" points="42.84 135.24 68.28 135.24 68.28 134.76 42.84 134.76 42.84 135.24"/><line class="cls-7" x1="67.32" y1="37.32" x2="7.56" y2="37.32"/><polyline class="cls-7" points="68.76 38.76 68.52 37.8 67.32 37.32"/><line class="cls-7" x1="68.76" y1="63.96" x2="68.76" y2="38.76"/><polyline class="cls-7" points="67.32 65.4 68.52 65.16 68.76 63.96"/><line class="cls-7" x1="7.56" y1="65.4" x2="67.32" y2="65.4"/><polyline class="cls-7" points="6.12 63.96 6.6 65.16 7.56 65.4"/><line class="cls-7" x1="6.12" y1="38.76" x2="6.12" y2="63.96"/><polyline class="cls-7" points="7.56 37.32 6.6 37.8 6.12 38.76"/><polyline class="cls-8" points="21.96 65.4 21.96 64.68 8.28 64.68 8.28 65.4 21.96 65.4"/><polyline class="cls-8" points="65.16 38.04 65.16 37.32 45 37.32 45 38.04 65.16 38.04"/><polyline class="cls-8" points="21.96 38.04 21.96 37.32 8.28 37.32 8.28 38.04 21.96 38.04"/><line class="cls-8" x1="67.8" y1="40.2" x2="68.52" y2="40.2"/><line class="cls-8" x1="67.8" y1="62.76" x2="67.8" y2="40.2"/><line class="cls-8" x1="68.52" y1="62.76" x2="67.8" y2="62.76"/><line class="cls-8" x1="68.52" y1="40.2" x2="68.52" y2="62.76"/><line class="cls-8" x1="7.08" y1="40.2" x2="6.36" y2="40.2"/><line class="cls-8" x1="7.08" y1="62.76" x2="7.08" y2="40.2"/><line class="cls-8" x1="6.36" y1="62.76" x2="7.08" y2="62.76"/><line class="cls-8" x1="6.36" y1="40.2" x2="6.36" y2="62.76"/><line class="cls-8" x1="20.52" y1="63" x2="8.52" y2="63"/><line class="cls-8" x1="20.52" y1="39.72" x2="20.52" y2="63"/><line class="cls-8" x1="8.52" y1="39.72" x2="20.52" y2="39.72"/><line class="cls-8" x1="8.52" y1="63" x2="8.52" y2="39.72"/><line class="cls-8" x1="66.36" y1="38.52" x2="8.76" y2="38.52"/><polyline class="cls-8" points="67.8 39.96 67.32 39 66.36 38.52"/><line class="cls-8" x1="67.8" y1="63" x2="67.8" y2="39.96"/><polyline class="cls-8" points="66.36 64.44 67.32 63.96 67.8 63"/><line class="cls-8" x1="8.76" y1="64.44" x2="66.36" y2="64.44"/><polyline class="cls-8" points="7.32 63 7.8 63.96 8.76 64.44"/><line class="cls-8" x1="7.32" y1="39.96" x2="7.32" y2="63"/><polyline class="cls-8" points="8.76 38.52 7.8 39 7.32 39.96"/><polyline class="cls-8" points="6.12 38.76 6.12 63.96 6.36 64.44 6.36 64.68 6.6 65.16 6.84 65.4 7.32 65.4 7.56 65.4 67.32 65.4 67.8 65.4 68.04 65.4 68.52 65.16 68.76 64.68 68.76 64.44 68.76 63.96 68.76 38.76 68.76 38.52 68.76 38.04 68.52 37.8 68.04 37.56 67.8 37.56 67.32 37.32 7.56 37.32 7.32 37.56 6.84 37.56 6.6 37.8 6.36 38.04 6.36 38.52 6.12 38.76"/><line class="cls-7" x1="120.12" y1="37.32" x2="179.88" y2="37.32"/><polyline class="cls-7" points="118.68 38.76 119.16 37.8 120.12 37.32"/><line class="cls-7" x1="118.68" y1="63.96" x2="118.68" y2="38.76"/><polyline class="cls-7" points="120.12 65.4 119.16 65.16 118.68 63.96"/><line class="cls-7" x1="179.88" y1="65.4" x2="120.12" y2="65.4"/><polyline class="cls-7" points="181.32 63.96 180.84 65.16 179.88 65.4"/><line class="cls-7" x1="181.32" y1="38.76" x2="181.32" y2="63.96"/><polyline class="cls-7" points="179.88 37.32 180.84 37.8 181.32 38.76"/><polyline class="cls-8" points="165.48 65.4 165.48 64.68 179.16 64.68 179.16 65.4 165.48 65.4"/><polyline class="cls-8" points="122.52 38.04 122.52 37.32 142.68 37.32 142.68 38.04 122.52 38.04"/><polyline class="cls-8" points="165.72 38.04 165.72 37.32 179.4 37.32 179.4 38.04 165.72 38.04"/><line class="cls-8" x1="119.64" y1="40.2" x2="118.92" y2="40.2"/><line class="cls-8" x1="119.64" y1="62.76" x2="119.64" y2="40.2"/><line class="cls-8" x1="118.92" y1="62.76" x2="119.64" y2="62.76"/><line class="cls-8" x1="118.92" y1="40.2" x2="118.92" y2="62.76"/><line class="cls-8" x1="180.36" y1="40.2" x2="181.08" y2="40.2"/><line class="cls-8" x1="180.36" y1="62.76" x2="180.36" y2="40.2"/><line class="cls-8" x1="181.08" y1="62.76" x2="180.36" y2="62.76"/><line class="cls-8" x1="181.08" y1="40.2" x2="181.08" y2="62.76"/><line class="cls-8" x1="167.16" y1="63" x2="178.92" y2="63"/><line class="cls-8" x1="167.16" y1="39.72" x2="167.16" y2="63"/><line class="cls-8" x1="178.92" y1="39.72" x2="167.16" y2="39.72"/><line class="cls-8" x1="178.92" y1="63" x2="178.92" y2="39.72"/><line class="cls-8" x1="121.32" y1="38.52" x2="178.92" y2="38.52"/><polyline class="cls-8" points="119.88 39.96 120.12 39 121.32 38.52"/><line class="cls-8" x1="119.88" y1="63" x2="119.88" y2="39.96"/><polyline class="cls-8" points="121.32 64.44 120.12 63.96 119.88 63"/><line class="cls-8" x1="178.92" y1="64.44" x2="121.32" y2="64.44"/><polyline class="cls-8" points="180.36 63 179.88 63.96 178.92 64.44"/><line class="cls-8" x1="180.36" y1="39.96" x2="180.36" y2="63"/><polyline class="cls-8" points="178.92 38.52 179.88 39 180.36 39.96"/><polyline class="cls-8" points="181.32 38.76 181.32 38.52 181.08 38.04 180.84 37.8 180.6 37.56 180.36 37.56 179.88 37.32 120.12 37.32 119.88 37.56 119.4 37.56 119.16 37.8 118.92 38.04 118.68 38.52 118.68 38.76 118.68 63.96 118.68 64.44 118.92 64.68 119.16 65.16 119.4 65.4 119.88 65.4 120.12 65.4 179.88 65.4 180.36 65.4 180.6 65.4 180.84 65.16 181.08 64.68 181.32 64.44 181.32 63.96 181.32 38.76"/></g></g></svg>