<svg xmlns="http://www.w3.org/2000/svg" xmlns:xlink="http://www.w3.org/1999/xlink" viewBox="0 0 267.12 302.76"><defs><style>.cls-1,.cls-15,.cls-16,.cls-17,.cls-18,.cls-2{fill:none;}.cls-1{clip-rule:evenodd;}.cls-3{clip-path:url(#clip-path);}.cls-4{clip-path:url(#clip-path-2);}.cls-5{fill:#c6d3b4;}.cls-12,.cls-6{font-size:4.08px;font-family:ArialMT, Arial;}.cls-12,.cls-7{letter-spacing:-0.03em;}.cls-8{letter-spacing:0.02em;}.cls-9{letter-spacing:-0.09em;}.cls-10{letter-spacing:0.02em;}.cls-11{letter-spacing:-0.03em;}.cls-13{letter-spacing:-0.04em;}.cls-14{letter-spacing:0em;}.cls-15,.cls-16{stroke:#000;}.cls-15,.cls-16,.cls-17,.cls-18{stroke-linecap:round;stroke-linejoin:round;}.cls-15,.cls-18{stroke-width:0.24px;}.cls-16,.cls-17{stroke-width:0.48px;}.cls-17,.cls-18{stroke:red;}.cls-19{fill:#fff;}.cls-20{font-size:8.05px;fill:red;font-family:ArialNarrow, Arial;}.cls-21{letter-spacing:-0.01em;}.cls-22{letter-spacing:0.01em;}.cls-23{letter-spacing:0.01em;}.cls-24{letter-spacing:-0.02em;}.cls-25{letter-spacing:-0.01em;}.cls-26{letter-spacing:0.01em;}.cls-27{letter-spacing:-0.02em;}.cls-28{letter-spacing:-0.04em;}.cls-29{letter-spacing:0em;}</style><clipPath id="clip-path" transform="translate(-1078.66 -601.56)"><path class="cls-1" d="M1173.82,719.64l-.72.24-1,1-.24.48-.24.24v52.08h.24l.24.24v.48h.24l.24.24v.48h.24l.24.24.72.24,121,.24v-.24l.72-.24.48-.24.48-.48.24-.48.24-53-1-1-.48-.24-.72-.24M1085.5,609.48v288h214.32v-31.2h-1v-11h-1.92l-3.84.48-2.88.24-4.08.24V856l-1.2-.24a12.12,12.12,0,0,1-6.48-3.84H1278v-.48l-.24-.24h-.24v-.48l-.24-.24H1277V850l-.48-.48h-.24v-.72h-.24v-.48h-.24v-.48h-.24v-.48h-.24v-.48h-.24v-1.2h-.24v-1h-.24v-1h-.24v-2.88l-.24-.24c.09-3.75.93-7.84,3.6-10.56l.24-.48.48-.24,1.68-1.68.48-.24.24-.24.48-.24.24-.24.48-.24.48-.48,1.92-.48.72-.24h7.92l5.76.72v-10.8h1V609.48Z"/></clipPath><clipPath id="clip-path-2" transform="translate(-1078.66 -601.56)"><rect class="cls-2" width="1684.08" height="1191.12"/></clipPath></defs><title>PushIt - Floor Plan - SP-Room-Bed-Rectangle_Sample_1</title><g id="Layer_2" data-name="Layer 2"><g id="Layer_1-2" data-name="Layer 1"><g class="cls-3"><g class="cls-4"><rect class="cls-5" x="6.84" y="7.92" width="214.32" height="288"/></g></g><text class="cls-6" transform="translate(112.93 148.8)">?</text><text class="cls-6" transform="translate(103.33 161.52)"><tspan class="cls-7">3900</tspan><tspan class="cls-8" x="8.64" y="0"> </tspan><tspan class="cls-9" x="9.84" y="0">x</tspan><tspan class="cls-8" x="11.52" y="0"> </tspan><tspan class="cls-7" x="12.72" y="0">520</tspan><tspan x="19.2" y="0">0</tspan></text><text class="cls-6" transform="translate(109.57 153.12)"><tspan class="cls-7">12</tspan><tspan class="cls-10" x="4.32" y="0">.</tspan><tspan class="cls-11" x="5.52" y="0">0</tspan><tspan x="7.68" y="0">0</tspan></text><text class="cls-12" transform="translate(102.37 157.2)">20<tspan class="cls-10" x="4.32" y="0">.</tspan><tspan class="cls-11" x="5.52" y="0">28</tspan><tspan class="cls-8" x="9.84" y="0"> </tspan><tspan class="cls-13" x="11.04" y="0">(</tspan><tspan x="12.24" y="0">19</tspan><tspan class="cls-8" x="16.55" y="0">.</tspan><tspan x="17.75" y="0">20</tspan><tspan class="cls-14" x="22.07" y="0">)</tspan></text><text class="cls-6" transform="translate(112.93 144.48)">?</text><polyline class="cls-15" points="221.16 295.92 6.84 295.92 6.84 7.92 221.16 7.92 221.16 295.92"/><polyline class="cls-15" points="228.12 0.96 0.12 0.96 0.12 302.64 228.12 302.64 228.12 0.96"/><line class="cls-15" x1="6.84" y1="295.92" x2="8.04" y2="295.92"/><line class="cls-15" x1="9.72" y1="295.92" x2="11.88" y2="295.92"/><line class="cls-15" x1="13.56" y1="295.92" x2="15.72" y2="295.92"/><line class="cls-15" x1="17.4" y1="295.92" x2="19.56" y2="295.92"/><line class="cls-15" x1="21.24" y1="295.92" x2="23.4" y2="295.92"/><line class="cls-15" x1="25.08" y1="295.92" x2="27.24" y2="295.92"/><line class="cls-15" x1="28.92" y1="295.92" x2="30.84" y2="295.92"/><line class="cls-15" x1="32.76" y1="295.92" x2="34.68" y2="295.92"/><line class="cls-15" x1="36.6" y1="295.92" x2="38.52" y2="295.92"/><line class="cls-15" x1="40.2" y1="295.92" x2="42.36" y2="295.92"/><line class="cls-15" x1="44.04" y1="295.92" x2="46.2" y2="295.92"/><line class="cls-15" x1="47.88" y1="295.92" x2="50.04" y2="295.92"/><line class="cls-15" x1="51.72" y1="295.92" x2="53.88" y2="295.92"/><line class="cls-15" x1="55.56" y1="295.92" x2="57.72" y2="295.92"/><line class="cls-15" x1="59.4" y1="295.92" x2="61.56" y2="295.92"/><line class="cls-15" x1="63.24" y1="295.92" x2="65.4" y2="295.92"/><line class="cls-15" x1="67.08" y1="295.92" x2="69.24" y2="295.92"/><line class="cls-15" x1="70.92" y1="295.92" x2="73.08" y2="295.92"/><line class="cls-15" x1="74.76" y1="295.92" x2="76.92" y2="295.92"/><line class="cls-15" x1="78.6" y1="295.92" x2="80.76" y2="295.92"/><line class="cls-15" x1="82.44" y1="295.92" x2="84.6" y2="295.92"/><line class="cls-15" x1="86.28" y1="295.92" x2="88.44" y2="295.92"/><line class="cls-15" x1="90.12" y1="295.92" x2="92.28" y2="295.92"/><line class="cls-15" x1="93.96" y1="295.92" x2="96.12" y2="295.92"/><line class="cls-15" x1="97.8" y1="295.92" x2="99.96" y2="295.92"/><line class="cls-15" x1="101.64" y1="295.92" x2="103.56" y2="295.92"/><line class="cls-15" x1="105.48" y1="295.92" x2="107.4" y2="295.92"/><line class="cls-15" x1="109.32" y1="295.92" x2="111.24" y2="295.92"/><line class="cls-15" x1="112.92" y1="295.92" x2="115.08" y2="295.92"/><line class="cls-15" x1="116.76" y1="295.92" x2="118.92" y2="295.92"/><line class="cls-15" x1="120.6" y1="295.92" x2="122.76" y2="295.92"/><line class="cls-15" x1="124.44" y1="295.92" x2="126.6" y2="295.92"/><line class="cls-15" x1="128.28" y1="295.92" x2="130.44" y2="295.92"/><line class="cls-15" x1="132.12" y1="295.92" x2="134.28" y2="295.92"/><line class="cls-15" x1="135.96" y1="295.92" x2="138.12" y2="295.92"/><line class="cls-15" x1="139.8" y1="295.92" x2="141.96" y2="295.92"/><line class="cls-15" x1="143.64" y1="295.92" x2="145.8" y2="295.92"/><line class="cls-15" x1="147.48" y1="295.92" x2="149.64" y2="295.92"/><line class="cls-15" x1="151.32" y1="295.92" x2="153.48" y2="295.92"/><line class="cls-15" x1="155.16" y1="295.92" x2="157.32" y2="295.92"/><line class="cls-15" x1="159" y1="295.92" x2="161.16" y2="295.92"/><line class="cls-15" x1="162.84" y1="295.92" x2="165" y2="295.92"/><line class="cls-15" x1="166.68" y1="295.92" x2="168.84" y2="295.92"/><line class="cls-15" x1="170.52" y1="295.92" x2="172.68" y2="295.92"/><line class="cls-15" x1="174.36" y1="295.92" x2="176.28" y2="295.92"/><line class="cls-15" x1="178.2" y1="295.92" x2="180.12" y2="295.92"/><line class="cls-15" x1="181.8" y1="295.92" x2="183.96" y2="295.92"/><line class="cls-15" x1="185.64" y1="295.92" x2="187.8" y2="295.92"/><line class="cls-15" x1="189.48" y1="295.92" x2="191.64" y2="295.92"/><line class="cls-15" x1="193.32" y1="295.92" x2="195.48" y2="295.92"/><line class="cls-15" x1="197.16" y1="295.92" x2="199.32" y2="295.92"/><line class="cls-15" x1="201" y1="295.92" x2="203.16" y2="295.92"/><line class="cls-15" x1="204.84" y1="295.92" x2="207" y2="295.92"/><line class="cls-15" x1="208.68" y1="295.92" x2="210.84" y2="295.92"/><line class="cls-15" x1="212.52" y1="295.92" x2="214.68" y2="295.92"/><line class="cls-15" x1="216.36" y1="295.92" x2="218.52" y2="295.92"/><polyline class="cls-15" points="220.2 295.92 221.16 295.92 221.16 294.48"/><line class="cls-15" x1="221.16" y1="292.8" x2="221.16" y2="290.64"/><line class="cls-15" x1="221.16" y1="288.96" x2="221.16" y2="286.8"/><line class="cls-15" x1="221.16" y1="285.12" x2="221.16" y2="282.96"/><line class="cls-15" x1="221.16" y1="281.28" x2="221.16" y2="279.12"/><line class="cls-15" x1="221.16" y1="277.44" x2="221.16" y2="275.28"/><line class="cls-15" x1="221.16" y1="273.6" x2="221.16" y2="271.68"/><line class="cls-15" x1="221.16" y1="269.76" x2="221.16" y2="267.84"/><line class="cls-15" x1="221.16" y1="265.92" x2="221.16" y2="264.72"/><line class="cls-15" x1="221.16" y1="213.6" x2="221.16" y2="211.2"/><line class="cls-15" x1="221.16" y1="209.52" x2="221.16" y2="207.36"/><line class="cls-15" x1="221.16" y1="205.68" x2="221.16" y2="203.52"/><line class="cls-15" x1="221.16" y1="201.84" x2="221.16" y2="199.68"/><line class="cls-15" x1="221.16" y1="198" x2="221.16" y2="195.84"/><line class="cls-15" x1="221.16" y1="194.16" x2="221.16" y2="192"/><line class="cls-15" x1="221.16" y1="190.32" x2="221.16" y2="188.16"/><line class="cls-15" x1="221.16" y1="186.48" x2="221.16" y2="184.32"/><line class="cls-15" x1="221.16" y1="182.64" x2="221.16" y2="180.48"/><line class="cls-15" x1="221.16" y1="178.8" x2="221.16" y2="176.64"/><line class="cls-15" x1="221.16" y1="174.96" x2="221.16" y2="172.8"/><line class="cls-15" x1="221.16" y1="171.12" x2="221.16" y2="168.96"/><line class="cls-15" x1="221.16" y1="167.28" x2="221.16" y2="165.12"/><line class="cls-15" x1="221.16" y1="163.44" x2="221.16" y2="161.28"/><line class="cls-15" x1="221.16" y1="159.6" x2="221.16" y2="157.44"/><line class="cls-15" x1="221.16" y1="155.76" x2="221.16" y2="153.6"/><line class="cls-15" x1="221.16" y1="151.92" x2="221.16" y2="150"/><line class="cls-15" x1="221.16" y1="148.08" x2="221.16" y2="146.16"/><line class="cls-15" x1="221.16" y1="144.24" x2="221.16" y2="142.32"/><line class="cls-15" x1="221.16" y1="140.64" x2="221.16" y2="138.48"/><line class="cls-15" x1="221.16" y1="136.8" x2="221.16" y2="134.64"/><line class="cls-15" x1="221.16" y1="132.96" x2="221.16" y2="130.8"/><line class="cls-15" x1="221.16" y1="129.12" x2="221.16" y2="126.96"/><line class="cls-15" x1="221.16" y1="125.28" x2="221.16" y2="123.12"/><line class="cls-15" x1="221.16" y1="121.44" x2="221.16" y2="119.28"/><line class="cls-15" x1="221.16" y1="117.6" x2="221.16" y2="115.44"/><line class="cls-15" x1="221.16" y1="113.76" x2="221.16" y2="111.6"/><line class="cls-15" x1="221.16" y1="109.92" x2="221.16" y2="107.76"/><line class="cls-15" x1="221.16" y1="106.08" x2="221.16" y2="103.92"/><line class="cls-15" x1="221.16" y1="102.24" x2="221.16" y2="100.08"/><line class="cls-15" x1="221.16" y1="98.4" x2="221.16" y2="96.24"/><line class="cls-15" x1="221.16" y1="94.56" x2="221.16" y2="92.4"/><line class="cls-15" x1="221.16" y1="90.72" x2="221.16" y2="88.56"/><line class="cls-15" x1="221.16" y1="86.88" x2="221.16" y2="84.72"/><line class="cls-15" x1="221.16" y1="83.04" x2="221.16" y2="80.88"/><line class="cls-15" x1="221.16" y1="79.2" x2="221.16" y2="77.28"/><line class="cls-15" x1="221.16" y1="75.36" x2="221.16" y2="73.44"/><line class="cls-15" x1="221.16" y1="71.52" x2="221.16" y2="69.6"/><line class="cls-15" x1="221.16" y1="67.92" x2="221.16" y2="65.76"/><line class="cls-15" x1="221.16" y1="64.08" x2="221.16" y2="61.92"/><line class="cls-15" x1="221.16" y1="60.24" x2="221.16" y2="58.08"/><line class="cls-15" x1="221.16" y1="56.4" x2="221.16" y2="54.24"/><line class="cls-15" x1="221.16" y1="52.56" x2="221.16" y2="50.4"/><line class="cls-15" x1="221.16" y1="48.72" x2="221.16" y2="46.56"/><line class="cls-15" x1="221.16" y1="44.88" x2="221.16" y2="42.72"/><line class="cls-15" x1="221.16" y1="41.04" x2="221.16" y2="38.88"/><line class="cls-15" x1="221.16" y1="37.2" x2="221.16" y2="35.04"/><line class="cls-15" x1="221.16" y1="33.36" x2="221.16" y2="31.2"/><line class="cls-15" x1="221.16" y1="29.52" x2="221.16" y2="27.36"/><line class="cls-15" x1="221.16" y1="25.68" x2="221.16" y2="23.52"/><line class="cls-15" x1="221.16" y1="21.84" x2="221.16" y2="19.68"/><line class="cls-15" x1="221.16" y1="18" x2="221.16" y2="15.84"/><line class="cls-15" x1="221.16" y1="14.16" x2="221.16" y2="12"/><polyline class="cls-15" points="221.16 10.32 221.16 7.92 220.2 7.92"/><line class="cls-15" x1="218.52" y1="7.92" x2="216.36" y2="7.92"/><line class="cls-15" x1="214.68" y1="7.92" x2="212.52" y2="7.92"/><line class="cls-15" x1="210.84" y1="7.92" x2="208.68" y2="7.92"/><line class="cls-15" x1="207" y1="7.92" x2="204.84" y2="7.92"/><line class="cls-15" x1="203.16" y1="7.92" x2="201" y2="7.92"/><line class="cls-15" x1="199.32" y1="7.92" x2="197.16" y2="7.92"/><line class="cls-15" x1="195.48" y1="7.92" x2="193.32" y2="7.92"/><line class="cls-15" x1="191.64" y1="7.92" x2="189.48" y2="7.92"/><line class="cls-15" x1="187.8" y1="7.92" x2="185.64" y2="7.92"/><line class="cls-15" x1="183.96" y1="7.92" x2="181.8" y2="7.92"/><line class="cls-15" x1="180.12" y1="7.92" x2="178.2" y2="7.92"/><line class="cls-15" x1="176.28" y1="7.92" x2="174.36" y2="7.92"/><line class="cls-15" x1="172.68" y1="7.92" x2="170.52" y2="7.92"/><line class="cls-15" x1="168.84" y1="7.92" x2="166.68" y2="7.92"/><line class="cls-15" x1="165" y1="7.92" x2="162.84" y2="7.92"/><line class="cls-15" x1="161.16" y1="7.92" x2="159" y2="7.92"/><line class="cls-15" x1="157.32" y1="7.92" x2="155.16" y2="7.92"/><line class="cls-15" x1="153.48" y1="7.92" x2="151.32" y2="7.92"/><line class="cls-15" x1="149.64" y1="7.92" x2="147.48" y2="7.92"/><line class="cls-15" x1="145.8" y1="7.92" x2="143.64" y2="7.92"/><line class="cls-15" x1="141.96" y1="7.92" x2="139.8" y2="7.92"/><line class="cls-15" x1="138.12" y1="7.92" x2="135.96" y2="7.92"/><line class="cls-15" x1="134.28" y1="7.92" x2="132.12" y2="7.92"/><line class="cls-15" x1="130.44" y1="7.92" x2="128.28" y2="7.92"/><line class="cls-15" x1="126.6" y1="7.92" x2="124.44" y2="7.92"/><line class="cls-15" x1="122.76" y1="7.92" x2="120.6" y2="7.92"/><line class="cls-15" x1="118.92" y1="7.92" x2="116.76" y2="7.92"/><line class="cls-15" x1="115.08" y1="7.92" x2="112.92" y2="7.92"/><line class="cls-15" x1="111.24" y1="7.92" x2="109.32" y2="7.92"/><line class="cls-15" x1="107.4" y1="7.92" x2="105.48" y2="7.92"/><line class="cls-15" x1="103.56" y1="7.92" x2="101.64" y2="7.92"/><line class="cls-15" x1="99.96" y1="7.92" x2="97.8" y2="7.92"/><line class="cls-15" x1="96.12" y1="7.92" x2="93.96" y2="7.92"/><line class="cls-15" x1="92.28" y1="7.92" x2="90.12" y2="7.92"/><line class="cls-15" x1="88.44" y1="7.92" x2="86.28" y2="7.92"/><line class="cls-15" x1="84.6" y1="7.92" x2="82.44" y2="7.92"/><line class="cls-15" x1="80.76" y1="7.92" x2="78.6" y2="7.92"/><line class="cls-15" x1="76.92" y1="7.92" x2="74.76" y2="7.92"/><line class="cls-15" x1="73.08" y1="7.92" x2="70.92" y2="7.92"/><line class="cls-15" x1="69.24" y1="7.92" x2="67.08" y2="7.92"/><line class="cls-15" x1="65.4" y1="7.92" x2="63.24" y2="7.92"/><line class="cls-15" x1="61.56" y1="7.92" x2="59.4" y2="7.92"/><line class="cls-15" x1="57.72" y1="7.92" x2="55.56" y2="7.92"/><line class="cls-15" x1="53.88" y1="7.92" x2="51.72" y2="7.92"/><line class="cls-15" x1="50.04" y1="7.92" x2="47.88" y2="7.92"/><line class="cls-15" x1="46.2" y1="7.92" x2="44.04" y2="7.92"/><line class="cls-15" x1="42.36" y1="7.92" x2="40.2" y2="7.92"/><line class="cls-15" x1="38.52" y1="7.92" x2="36.6" y2="7.92"/><line class="cls-15" x1="34.68" y1="7.92" x2="32.76" y2="7.92"/><line class="cls-15" x1="30.84" y1="7.92" x2="28.92" y2="7.92"/><line class="cls-15" x1="27.24" y1="7.92" x2="25.08" y2="7.92"/><line class="cls-15" x1="23.4" y1="7.92" x2="21.24" y2="7.92"/><line class="cls-15" x1="19.56" y1="7.92" x2="17.4" y2="7.92"/><line class="cls-15" x1="15.72" y1="7.92" x2="13.56" y2="7.92"/><line class="cls-15" x1="11.88" y1="7.92" x2="9.72" y2="7.92"/><polyline class="cls-15" points="8.04 7.92 6.84 7.92 6.84 9.36"/><line class="cls-15" x1="6.84" y1="11.04" x2="6.84" y2="13.2"/><line class="cls-15" x1="6.84" y1="14.88" x2="6.84" y2="17.04"/><line class="cls-15" x1="6.84" y1="18.72" x2="6.84" y2="20.88"/><line class="cls-15" x1="6.84" y1="22.56" x2="6.84" y2="24.72"/><line class="cls-15" x1="6.84" y1="26.4" x2="6.84" y2="28.56"/><line class="cls-15" x1="6.84" y1="30.24" x2="6.84" y2="32.4"/><line class="cls-15" x1="6.84" y1="34.08" x2="6.84" y2="36.24"/><line class="cls-15" x1="6.84" y1="37.92" x2="6.84" y2="40.08"/><line class="cls-15" x1="6.84" y1="41.76" x2="6.84" y2="43.92"/><line class="cls-15" x1="6.84" y1="45.6" x2="6.84" y2="47.76"/><line class="cls-15" x1="6.84" y1="49.44" x2="6.84" y2="51.6"/><line class="cls-15" x1="6.84" y1="53.28" x2="6.84" y2="55.44"/><line class="cls-15" x1="6.84" y1="57.12" x2="6.84" y2="59.28"/><line class="cls-15" x1="6.84" y1="60.96" x2="6.84" y2="62.88"/><line class="cls-15" x1="6.84" y1="64.8" x2="6.84" y2="66.72"/><line class="cls-15" x1="6.84" y1="68.64" x2="6.84" y2="70.56"/><line class="cls-15" x1="6.84" y1="72.24" x2="6.84" y2="74.4"/><line class="cls-15" x1="6.84" y1="76.08" x2="6.84" y2="78.24"/><line class="cls-15" x1="6.84" y1="79.92" x2="6.84" y2="82.08"/><line class="cls-15" x1="6.84" y1="83.76" x2="6.84" y2="85.92"/><line class="cls-15" x1="6.84" y1="87.6" x2="6.84" y2="89.76"/><line class="cls-15" x1="6.84" y1="91.44" x2="6.84" y2="93.6"/><line class="cls-15" x1="6.84" y1="95.28" x2="6.84" y2="97.44"/><line class="cls-15" x1="6.84" y1="99.12" x2="6.84" y2="101.28"/><line class="cls-15" x1="6.84" y1="102.96" x2="6.84" y2="105.12"/><line class="cls-15" x1="6.84" y1="106.8" x2="6.84" y2="108.96"/><line class="cls-15" x1="6.84" y1="110.64" x2="6.84" y2="112.8"/><line class="cls-15" x1="6.84" y1="114.48" x2="6.84" y2="116.64"/><line class="cls-15" x1="6.84" y1="118.32" x2="6.84" y2="120.48"/><line class="cls-15" x1="6.84" y1="122.16" x2="6.84" y2="124.32"/><line class="cls-15" x1="6.84" y1="126" x2="6.84" y2="128.16"/><line class="cls-15" x1="6.84" y1="129.84" x2="6.84" y2="131.76"/><line class="cls-15" x1="6.84" y1="133.68" x2="6.84" y2="135.6"/><line class="cls-15" x1="6.84" y1="137.52" x2="6.84" y2="139.44"/><line class="cls-15" x1="6.84" y1="141.12" x2="6.84" y2="143.28"/><line class="cls-15" x1="6.84" y1="144.96" x2="6.84" y2="147.12"/><line class="cls-15" x1="6.84" y1="148.8" x2="6.84" y2="150.96"/><line class="cls-15" x1="6.84" y1="152.64" x2="6.84" y2="154.8"/><line class="cls-15" x1="6.84" y1="156.48" x2="6.84" y2="158.64"/><line class="cls-15" x1="6.84" y1="160.32" x2="6.84" y2="162.48"/><line class="cls-15" x1="6.84" y1="164.16" x2="6.84" y2="166.32"/><line class="cls-15" x1="6.84" y1="168" x2="6.84" y2="170.16"/><line class="cls-15" x1="6.84" y1="171.84" x2="6.84" y2="174"/><line class="cls-15" x1="6.84" y1="175.68" x2="6.84" y2="177.84"/><line class="cls-15" x1="6.84" y1="179.52" x2="6.84" y2="181.68"/><line class="cls-15" x1="6.84" y1="183.36" x2="6.84" y2="185.52"/><line class="cls-15" x1="6.84" y1="187.2" x2="6.84" y2="189.36"/><line class="cls-15" x1="6.84" y1="191.04" x2="6.84" y2="193.2"/><line class="cls-15" x1="6.84" y1="194.88" x2="6.84" y2="197.04"/><line class="cls-15" x1="6.84" y1="198.72" x2="6.84" y2="200.88"/><line class="cls-15" x1="6.84" y1="202.56" x2="6.84" y2="204.48"/><line class="cls-15" x1="6.84" y1="206.4" x2="6.84" y2="208.32"/><line class="cls-15" x1="6.84" y1="210.24" x2="6.84" y2="212.16"/><line class="cls-15" x1="6.84" y1="213.84" x2="6.84" y2="216"/><line class="cls-15" x1="6.84" y1="217.68" x2="6.84" y2="219.84"/><line class="cls-15" x1="6.84" y1="221.52" x2="6.84" y2="223.68"/><line class="cls-15" x1="6.84" y1="225.36" x2="6.84" y2="227.52"/><line class="cls-15" x1="6.84" y1="229.2" x2="6.84" y2="231.36"/><line class="cls-15" x1="6.84" y1="233.04" x2="6.84" y2="235.2"/><line class="cls-15" x1="6.84" y1="236.88" x2="6.84" y2="239.04"/><line class="cls-15" x1="6.84" y1="240.72" x2="6.84" y2="242.88"/><line class="cls-15" x1="6.84" y1="244.56" x2="6.84" y2="246.72"/><line class="cls-15" x1="6.84" y1="248.4" x2="6.84" y2="250.56"/><line class="cls-15" x1="6.84" y1="252.24" x2="6.84" y2="254.4"/><line class="cls-15" x1="6.84" y1="256.08" x2="6.84" y2="258.24"/><line class="cls-15" x1="6.84" y1="259.92" x2="6.84" y2="262.08"/><line class="cls-15" x1="6.84" y1="263.76" x2="6.84" y2="265.92"/><line class="cls-15" x1="6.84" y1="267.6" x2="6.84" y2="269.76"/><line class="cls-15" x1="6.84" y1="271.44" x2="6.84" y2="273.6"/><line class="cls-15" x1="6.84" y1="275.28" x2="6.84" y2="277.2"/><line class="cls-15" x1="6.84" y1="279.12" x2="6.84" y2="281.04"/><line class="cls-15" x1="6.84" y1="282.72" x2="6.84" y2="284.88"/><line class="cls-15" x1="6.84" y1="286.56" x2="6.84" y2="288.72"/><line class="cls-15" x1="6.84" y1="290.4" x2="6.84" y2="292.56"/><line class="cls-15" x1="6.84" y1="294.24" x2="6.84" y2="295.92"/><line class="cls-15" x1="95.88" y1="174.24" x2="215.4" y2="174.24"/><polyline class="cls-15" points="93 171.36 93.96 173.52 95.88 174.24"/><line class="cls-15" x1="93" y1="120.96" x2="93" y2="171.36"/><polyline class="cls-15" points="95.88 118.08 93.96 119.04 93 120.96"/><line class="cls-15" x1="215.4" y1="118.08" x2="95.88" y2="118.08"/><polyline class="cls-15" points="218.28 120.96 217.56 119.04 215.4 118.08"/><line class="cls-15" x1="218.28" y1="171.36" x2="218.28" y2="120.96"/><polyline class="cls-15" points="215.4 174.24 217.56 173.52 218.28 171.36"/><polyline class="cls-16" points="186.6 118.08 186.6 119.52 214.2 119.52 214.2 118.08 186.6 118.08"/><polyline class="cls-16" points="100.68 172.8 100.68 174.24 141 174.24 141 172.8 100.68 172.8"/><polyline class="cls-16" points="187.08 172.8 187.08 174.24 214.2 174.24 214.2 172.8 187.08 172.8"/><line class="cls-16" x1="94.92" y1="168.96" x2="93.48" y2="168.96"/><line class="cls-16" x1="94.92" y1="123.6" x2="94.92" y2="168.96"/><line class="cls-16" x1="93.48" y1="123.6" x2="94.92" y2="123.6"/><line class="cls-16" x1="93.48" y1="168.96" x2="93.48" y2="123.6"/><line class="cls-16" x1="216.36" y1="168.72" x2="218.04" y2="168.72"/><line class="cls-16" x1="216.36" y1="123.6" x2="216.36" y2="168.72"/><line class="cls-16" x1="218.04" y1="123.6" x2="216.36" y2="123.6"/><line class="cls-16" x1="218.04" y1="168.72" x2="218.04" y2="123.6"/><line class="cls-16" x1="189.72" y1="123.12" x2="213.72" y2="123.12"/><line class="cls-16" x1="189.72" y1="169.68" x2="189.72" y2="123.12"/><line class="cls-16" x1="213.72" y1="169.68" x2="189.72" y2="169.68"/><line class="cls-16" x1="213.72" y1="123.12" x2="213.72" y2="169.68"/><line class="cls-16" x1="98.04" y1="172.08" x2="213.24" y2="172.08"/><polyline class="cls-16" points="95.16 169.2 96.12 171.36 98.04 172.08"/><line class="cls-16" x1="95.16" y1="123.12" x2="95.16" y2="169.2"/><polyline class="cls-16" points="98.04 120.24 96.12 121.2 95.16 123.12"/><line class="cls-16" x1="213.24" y1="120.24" x2="98.04" y2="120.24"/><polyline class="cls-16" points="216.12 123.12 215.4 121.2 213.24 120.24"/><line class="cls-16" x1="216.12" y1="169.2" x2="216.12" y2="123.12"/><polyline class="cls-16" points="213.24 172.08 215.4 171.36 216.12 169.2"/><polyline class="cls-16" points="218.28 171.36 218.28 120.96 218.28 120.24 218.04 119.52 217.56 119.04 216.84 118.56 216.12 118.32 215.4 118.08 95.88 118.08 95.16 118.32 94.44 118.56 93.96 119.04 93.48 119.52 93 120.24 93 120.96 93 171.36 93 172.08 93.48 172.8 93.96 173.52 94.44 174 95.16 174.24 95.88 174.24 215.4 174.24 216.12 174.24 216.84 174 217.56 173.52 218.04 172.8 218.28 172.08 218.28 171.36"/><polyline class="cls-16" points="213 249.84 213.24 248.4 213.24 246.96"/><polyline class="cls-16" points="213 228.48 213.24 229.92 213.24 231.36"/><line class="cls-16" x1="209.64" y1="252.48" x2="210.36" y2="252.48"/><polyline class="cls-16" points="209.64 252.48 208.2 252.72 206.52 252.48"/><polyline class="cls-16" points="213 249.84 212.04 251.52 210.36 252.48"/><line class="cls-16" x1="209.64" y1="225.84" x2="210.36" y2="225.84"/><polyline class="cls-16" points="209.64 225.84 208.2 225.6 206.52 225.84"/><polyline class="cls-16" points="213 228.48 212.04 226.8 210.36 225.84"/><line class="cls-15" x1="221.16" y1="224.88" x2="221.16" y2="253.44"/><polyline class="cls-15" points="203.88 224.64 201.48 226.32 199.32 228.24"/><polyline class="cls-15" points="208.68 223.68 206.28 223.92 203.88 224.64"/><polyline class="cls-15" points="221.16 224.88 214.92 223.92 208.68 223.68"/><polyline class="cls-15" points="208.68 254.88 214.92 254.4 221.16 253.44"/><polyline class="cls-15" points="196.44 233.04 195.72 236.16 195.48 239.28"/><polyline class="cls-15" points="199.32 228.24 197.64 230.4 196.44 233.04"/><polyline class="cls-15" points="203.88 253.68 206.28 254.4 208.68 254.88"/><polyline class="cls-15" points="199.32 250.32 201.48 252.24 203.88 253.68"/><polyline class="cls-15" points="196.44 245.28 197.64 247.92 199.32 250.32"/><polyline class="cls-15" points="195.48 239.28 195.72 242.16 196.44 245.28"/><polyline class="cls-16" points="220.2 253.68 220.2 224.64 214.44 223.92 208.68 223.68 206.28 223.92 203.88 224.64 201.48 226.32 199.32 228.24 197.64 230.4 196.44 233.04 195.72 236.16 195.48 239.28 195.72 242.16 196.44 245.28 197.64 247.92 199.32 250.32 201.48 252.24 203.88 253.68 206.28 254.4 208.68 254.88 214.44 254.4 220.2 253.68"/><polyline class="cls-16" points="221.16 264.72 221.16 213.6 220.2 213.6 220.2 264.72 221.16 264.72"/><polyline class="cls-15" points="69.24 299.28 70.2 291.6 72.6 284.4 76.68 278.16 82.2 272.64 88.44 268.56 95.64 266.16 103.32 265.2"/><polyline class="cls-15" points="100.44 299.28 100.44 265.2 103.32 265.2 103.32 299.28 100.44 299.28"/><polyline class="cls-15" points="69.24 299.28 68.52 290.4 66.12 281.76 62.52 273.84 57.48 266.4 51 260.16 43.8 255.12 35.64 251.28 27.24 249.12 18.36 248.16"/><polyline class="cls-15" points="21 299.28 21 248.16 18.36 248.16 18.36 299.28 21 299.28"/><polyline class="cls-15" points="103.32 295.92 18.36 295.92 18.36 302.64 103.32 302.64 103.32 295.92 18.36 295.92 18.36 302.64 103.32 302.64 103.32 295.92"/><line class="cls-17" x1="50.52" y1="146.16" x2="64.68" y2="146.16"/><line class="cls-17" x1="75.96" y1="146.16" x2="87.24" y2="146.16"/><line class="cls-17" x1="98.76" y1="146.16" x2="110.04" y2="146.16"/><line class="cls-17" x1="121.32" y1="146.16" x2="132.6" y2="146.16"/><line class="cls-17" x1="144.12" y1="146.16" x2="155.4" y2="146.16"/><line class="cls-17" x1="166.68" y1="146.16" x2="177.96" y2="146.16"/><line class="cls-17" x1="189.48" y1="146.16" x2="200.76" y2="146.16"/><line class="cls-17" x1="212.04" y1="146.16" x2="223.32" y2="146.16"/><line class="cls-17" x1="234.84" y1="146.16" x2="249" y2="146.16"/><line class="cls-17" x1="195.48" y1="239.28" x2="205.08" y2="239.28"/><line class="cls-17" x1="216.36" y1="239.28" x2="227.88" y2="239.28"/><line class="cls-17" x1="239.16" y1="239.28" x2="248.76" y2="239.28"/><line class="cls-18" x1="259.8" y1="4.56" x2="259.8" y2="146.16"/><line class="cls-17" x1="259.8" y1="146.16" x2="255.48" y2="141.84"/><line class="cls-17" x1="259.8" y1="146.16" x2="264.12" y2="150.48"/><line class="cls-18" x1="259.8" y1="146.16" x2="267" y2="146.16"/><line class="cls-18" x1="259.8" y1="146.16" x2="245.64" y2="146.16"/><line class="cls-17" x1="259.8" y1="4.56" x2="255.48" y2="0.24"/><line class="cls-17" x1="259.8" y1="4.56" x2="264.12" y2="8.64"/><line class="cls-18" x1="259.8" y1="4.56" x2="267" y2="4.56"/><line class="cls-18" x1="259.8" y1="4.56" x2="245.64" y2="4.56"/><rect class="cls-19" x="246.36" y="59.04" width="9.6" height="32.88"/><text class="cls-20" transform="translate(254.04 91.68) rotate(-90)"><tspan class="cls-21">O</tspan><tspan class="cls-22" x="5.07" y="0">ff</tspan><tspan class="cls-23" x="8.9" y="0">s</tspan><tspan class="cls-21" x="12.25" y="0">e</tspan><tspan class="cls-24" x="15.85" y="0">t</tspan><tspan class="cls-21" x="17.54" y="0">_Be</tspan><tspan x="29.07" y="0">d</tspan></text><line class="cls-18" x1="259.8" y1="239.28" x2="259.8" y2="295.92"/><line class="cls-17" x1="259.8" y1="295.92" x2="255.48" y2="291.6"/><line class="cls-17" x1="259.8" y1="295.92" x2="264.12" y2="300.24"/><line class="cls-18" x1="259.8" y1="295.92" x2="267" y2="295.92"/><line class="cls-18" x1="259.8" y1="295.92" x2="245.64" y2="295.92"/><line class="cls-17" x1="259.8" y1="239.28" x2="255.48" y2="234.96"/><line class="cls-17" x1="259.8" y1="239.28" x2="264.12" y2="243.36"/><line class="cls-18" x1="259.8" y1="239.28" x2="267" y2="239.28"/><line class="cls-18" x1="259.8" y1="239.28" x2="245.64" y2="239.28"/><rect class="cls-19" x="246.36" y="249.36" width="9.6" height="36.48"/><text class="cls-20" transform="translate(254.04 285.6) rotate(-90)"><tspan class="cls-25">O</tspan><tspan class="cls-26" x="5.04" y="0">ff</tspan><tspan class="cls-27" x="8.88" y="0">s</tspan><tspan class="cls-21" x="12" y="0">e</tspan><tspan class="cls-22" x="15.6" y="0">t</tspan><tspan class="cls-28" x="17.52" y="0">_</tspan><tspan x="20.89" y="0">W</tspan><tspan class="cls-29" x="27.12" y="0">H</tspan><tspan x="31.92" y="0">B</tspan></text></g></g></svg>