<svg xmlns="http://www.w3.org/2000/svg" xmlns:xlink="http://www.w3.org/1999/xlink" viewBox="0 0 290.64 307.32"><defs><style>.cls-1,.cls-16,.cls-17,.cls-18,.cls-19,.cls-2{fill:none;}.cls-1{clip-rule:evenodd;}.cls-3{clip-path:url(#clip-path);}.cls-4{clip-path:url(#clip-path-2);}.cls-5{fill:#c6d3b4;}.cls-10,.cls-6{font-size:4.08px;font-family:ArialMT, Arial;}.cls-10,.cls-7{letter-spacing:-0.03em;}.cls-8{letter-spacing:0.02em;}.cls-9{letter-spacing:-0.09em;}.cls-11{letter-spacing:0em;}.cls-12{letter-spacing:0.02em;}.cls-13{letter-spacing:-0.03em;}.cls-14{letter-spacing:-0.04em;}.cls-15{letter-spacing:0em;}.cls-16,.cls-17{stroke:#000;}.cls-16,.cls-17,.cls-18,.cls-19{stroke-linecap:round;stroke-linejoin:round;}.cls-16,.cls-19{stroke-width:0.24px;}.cls-17,.cls-18{stroke-width:0.48px;}.cls-18,.cls-19{stroke:red;}.cls-20{fill:#fff;}.cls-21{font-size:8.05px;}.cls-21,.cls-23,.cls-35{fill:red;font-family:ArialNarrow, Arial;}.cls-22{letter-spacing:0em;}.cls-23,.cls-35{font-size:8.05px;}.cls-23,.cls-39{letter-spacing:-0.01em;}.cls-24{letter-spacing:0em;}.cls-25{letter-spacing:0.01em;}.cls-26{letter-spacing:-0.04em;}.cls-27{letter-spacing:-0.01em;}.cls-28{letter-spacing:0em;}.cls-29{letter-spacing:0.01em;}.cls-30{letter-spacing:0.01em;}.cls-31{letter-spacing:-0.04em;}.cls-32{letter-spacing:0.01em;}.cls-33{letter-spacing:0em;}.cls-34{letter-spacing:0em;}.cls-36{letter-spacing:-0.01em;}.cls-37{letter-spacing:-0.04em;}.cls-38{letter-spacing:-0.02em;}.cls-40{letter-spacing:-0.02em;}.cls-41{letter-spacing:-0.03em;}.cls-42{letter-spacing:0.02em;}.cls-43{letter-spacing:0em;}.cls-44{letter-spacing:0.01em;}.cls-45{letter-spacing:-0.02em;}.cls-46{letter-spacing:-0.04em;}.cls-47{letter-spacing:0em;}</style><clipPath id="clip-path" transform="translate(-581.14 -434.04)"><path class="cls-1" d="M675.34,539.64l-.48.24-.24.24-.48.24-.48.48-.24.72v52.32h.24v.48h.24l.24.24v.48h.48l.24.24.48.24,121.2.24v-.24l.72-.24.72-.72.48-1,.24-51.84h-.24v-.72l-1.2-1.2-.72-.24m-39.36-39.36V520.2H791V500.28Zm-169-17V734.52H682.3V706.2l8.64-8.64.24-.48-.72-.72,7.92-7.92-.48-.48-.48-.24-.24-.24-.48-.24-.24-.24-.48-.24-.48-.48L695,686l-.24-.24-.48-.24-.24-.24-.48-.24L689.5,681H689v-.48l-1-1h-.24v-.72h-.24v-.48h-.24v-.72h-.24v-.48h-.24v-1h-.24v-1h-.24v-.72h-.24V671.4l.48-2.88.24-.48.72-2.16.24-.24.24-.48.24-.24.48-1,.24-.24.48-1c1.24-1,1.9-2.42,3.36-3.12l.72-.72,1-.48.24-.24.48-.24c1.18-1.12,2.38-1,3.6-1.68l1.44-.24h5a9.32,9.32,0,0,1,5,2.4l.48.24,4.56,4.56v.48h.24l.48.48v.48h.24l.48.48v.48h.24l.48.48v.48h.24l.48.48v.48h.24l.48.48v-.24l7.2-7.2h.72l.24.24.48.24v-.24l8.64-8.64h66.24v-169Z"/></clipPath><clipPath id="clip-path-2" transform="translate(-581.14 -434.04)"><rect class="cls-2" width="1684.08" height="1191.12"/></clipPath></defs><title>PushIt - Floor Plan - SP-Room-Bed_Sample_3_1</title><g id="Layer_2" data-name="Layer 2"><g id="Layer_1-2" data-name="Layer 1"><g class="cls-3"><g class="cls-4"><rect class="cls-5" x="7.08" y="49.2" width="214.32" height="251.28"/></g></g><text class="cls-6" transform="translate(123.24 169.2)">?</text><text class="cls-6" transform="translate(113.64 181.92)"><tspan class="cls-7">3900</tspan><tspan class="cls-8" x="8.64" y="0"> </tspan><tspan class="cls-9" x="9.84" y="0">x</tspan><tspan class="cls-8" x="11.52" y="0"> </tspan><tspan class="cls-7" x="12.72" y="0">455</tspan><tspan x="19.2" y="0">0</tspan></text><text class="cls-10" transform="translate(121.08 173.52)">5<tspan class="cls-8" x="2.16" y="0">.</tspan><tspan x="3.36" y="0">5</tspan><tspan class="cls-11" x="5.52" y="0">0</tspan></text><text class="cls-10" transform="translate(112.44 177.6)">15<tspan class="cls-12" x="4.32" y="0">.</tspan><tspan class="cls-13" x="5.52" y="0">09</tspan><tspan class="cls-8" x="9.84" y="0"> </tspan><tspan class="cls-14" x="11.04" y="0">(</tspan><tspan x="12.24" y="0">14</tspan><tspan class="cls-8" x="16.55" y="0">.</tspan><tspan x="17.75" y="0">09</tspan><tspan class="cls-15" x="22.07" y="0">)</tspan></text><text class="cls-6" transform="translate(123.24 164.88)">?</text><polyline class="cls-16" points="228.12 42.48 0.12 42.48 0.12 307.2 107.88 307.2 107.88 275.28 158.04 225.12 228.12 225.12 228.12 42.48"/><polyline class="cls-16" points="101.16 300.48 7.08 300.48 7.08 49.2 221.4 49.2 221.4 218.16 155.16 218.16 101.16 272.4 101.16 300.48"/><line class="cls-16" x1="7.08" y1="49.2" x2="7.08" y2="51.6"/><line class="cls-16" x1="7.08" y1="53.28" x2="7.08" y2="55.44"/><line class="cls-16" x1="7.08" y1="57.12" x2="7.08" y2="59.28"/><line class="cls-16" x1="7.08" y1="60.96" x2="7.08" y2="63.12"/><line class="cls-16" x1="7.08" y1="64.8" x2="7.08" y2="66.96"/><line class="cls-16" x1="7.08" y1="68.64" x2="7.08" y2="70.8"/><line class="cls-16" x1="7.08" y1="72.48" x2="7.08" y2="74.4"/><line class="cls-16" x1="7.08" y1="76.32" x2="7.08" y2="78.24"/><line class="cls-16" x1="7.08" y1="79.92" x2="7.08" y2="82.08"/><line class="cls-16" x1="7.08" y1="83.76" x2="7.08" y2="85.92"/><line class="cls-16" x1="7.08" y1="87.6" x2="7.08" y2="89.76"/><line class="cls-16" x1="7.08" y1="91.44" x2="7.08" y2="93.6"/><line class="cls-16" x1="7.08" y1="95.28" x2="7.08" y2="97.44"/><line class="cls-16" x1="7.08" y1="99.12" x2="7.08" y2="101.28"/><line class="cls-16" x1="7.08" y1="102.96" x2="7.08" y2="105.12"/><line class="cls-16" x1="7.08" y1="106.8" x2="7.08" y2="108.96"/><line class="cls-16" x1="7.08" y1="110.64" x2="7.08" y2="112.8"/><line class="cls-16" x1="7.08" y1="114.48" x2="7.08" y2="116.64"/><line class="cls-16" x1="7.08" y1="118.32" x2="7.08" y2="120.48"/><line class="cls-16" x1="7.08" y1="122.16" x2="7.08" y2="124.32"/><line class="cls-16" x1="7.08" y1="126" x2="7.08" y2="128.16"/><line class="cls-16" x1="7.08" y1="129.84" x2="7.08" y2="132"/><line class="cls-16" x1="7.08" y1="133.68" x2="7.08" y2="135.84"/><line class="cls-16" x1="7.08" y1="137.52" x2="7.08" y2="139.68"/><line class="cls-16" x1="7.08" y1="141.36" x2="7.08" y2="143.28"/><line class="cls-16" x1="7.08" y1="145.2" x2="7.08" y2="147.12"/><line class="cls-16" x1="7.08" y1="149.04" x2="7.08" y2="150.96"/><line class="cls-16" x1="7.08" y1="152.64" x2="7.08" y2="154.8"/><line class="cls-16" x1="7.08" y1="156.48" x2="7.08" y2="158.64"/><line class="cls-16" x1="7.08" y1="160.32" x2="7.08" y2="162.48"/><line class="cls-16" x1="7.08" y1="164.16" x2="7.08" y2="166.32"/><line class="cls-16" x1="7.08" y1="168" x2="7.08" y2="170.16"/><line class="cls-16" x1="7.08" y1="171.84" x2="7.08" y2="174"/><line class="cls-16" x1="7.08" y1="175.68" x2="7.08" y2="177.84"/><line class="cls-16" x1="7.08" y1="179.52" x2="7.08" y2="181.68"/><line class="cls-16" x1="7.08" y1="183.36" x2="7.08" y2="185.52"/><line class="cls-16" x1="7.08" y1="187.2" x2="7.08" y2="189.36"/><line class="cls-16" x1="7.08" y1="191.04" x2="7.08" y2="193.2"/><line class="cls-16" x1="7.08" y1="194.88" x2="7.08" y2="197.04"/><line class="cls-16" x1="7.08" y1="198.72" x2="7.08" y2="200.88"/><line class="cls-16" x1="7.08" y1="202.56" x2="7.08" y2="204.72"/><line class="cls-16" x1="7.08" y1="206.4" x2="7.08" y2="208.56"/><line class="cls-16" x1="7.08" y1="210.24" x2="7.08" y2="212.4"/><line class="cls-16" x1="7.08" y1="214.08" x2="7.08" y2="216"/><line class="cls-16" x1="7.08" y1="217.92" x2="7.08" y2="219.84"/><line class="cls-16" x1="7.08" y1="221.52" x2="7.08" y2="223.68"/><line class="cls-16" x1="7.08" y1="225.36" x2="7.08" y2="227.52"/><line class="cls-16" x1="7.08" y1="229.2" x2="7.08" y2="231.36"/><line class="cls-16" x1="7.08" y1="233.04" x2="7.08" y2="235.2"/><line class="cls-16" x1="7.08" y1="236.88" x2="7.08" y2="239.04"/><line class="cls-16" x1="7.08" y1="240.72" x2="7.08" y2="242.88"/><line class="cls-16" x1="7.08" y1="244.56" x2="7.08" y2="246.72"/><line class="cls-16" x1="7.08" y1="248.4" x2="7.08" y2="250.56"/><line class="cls-16" x1="7.08" y1="252.24" x2="7.08" y2="254.4"/><line class="cls-16" x1="7.08" y1="256.08" x2="7.08" y2="258.24"/><line class="cls-16" x1="7.08" y1="259.92" x2="7.08" y2="262.08"/><line class="cls-16" x1="7.08" y1="263.76" x2="7.08" y2="265.92"/><line class="cls-16" x1="7.08" y1="267.6" x2="7.08" y2="269.76"/><line class="cls-16" x1="7.08" y1="271.44" x2="7.08" y2="273.6"/><line class="cls-16" x1="7.08" y1="275.28" x2="7.08" y2="277.44"/><line class="cls-16" x1="7.08" y1="279.12" x2="7.08" y2="281.28"/><line class="cls-16" x1="7.08" y1="282.96" x2="7.08" y2="284.88"/><line class="cls-16" x1="7.08" y1="286.8" x2="7.08" y2="288.72"/><line class="cls-16" x1="7.08" y1="290.64" x2="7.08" y2="292.56"/><line class="cls-16" x1="7.08" y1="294.24" x2="7.08" y2="296.4"/><polyline class="cls-16" points="7.08 298.08 7.08 300.48 9.24 300.48"/><line class="cls-16" x1="10.92" y1="300.48" x2="13.08" y2="300.48"/><line class="cls-16" x1="14.76" y1="300.48" x2="16.92" y2="300.48"/><line class="cls-16" x1="18.6" y1="300.48" x2="20.76" y2="300.48"/><line class="cls-16" x1="22.44" y1="300.48" x2="24.6" y2="300.48"/><line class="cls-16" x1="26.28" y1="300.48" x2="28.2" y2="300.48"/><line class="cls-16" x1="30.12" y1="300.48" x2="32.04" y2="300.48"/><line class="cls-16" x1="33.72" y1="300.48" x2="35.88" y2="300.48"/><line class="cls-16" x1="37.56" y1="300.48" x2="39.72" y2="300.48"/><line class="cls-16" x1="41.4" y1="300.48" x2="43.56" y2="300.48"/><line class="cls-16" x1="45.24" y1="300.48" x2="47.4" y2="300.48"/><line class="cls-16" x1="49.08" y1="300.48" x2="51.24" y2="300.48"/><line class="cls-16" x1="52.92" y1="300.48" x2="55.08" y2="300.48"/><line class="cls-16" x1="56.76" y1="300.48" x2="58.92" y2="300.48"/><line class="cls-16" x1="60.6" y1="300.48" x2="62.76" y2="300.48"/><line class="cls-16" x1="64.44" y1="300.48" x2="66.6" y2="300.48"/><line class="cls-16" x1="68.28" y1="300.48" x2="70.44" y2="300.48"/><line class="cls-16" x1="72.12" y1="300.48" x2="74.28" y2="300.48"/><line class="cls-16" x1="75.96" y1="300.48" x2="78.12" y2="300.48"/><line class="cls-16" x1="79.8" y1="300.48" x2="81.96" y2="300.48"/><line class="cls-16" x1="83.64" y1="300.48" x2="85.8" y2="300.48"/><line class="cls-16" x1="87.48" y1="300.48" x2="89.64" y2="300.48"/><line class="cls-16" x1="91.32" y1="300.48" x2="93.48" y2="300.48"/><line class="cls-16" x1="95.16" y1="300.48" x2="97.08" y2="300.48"/><polyline class="cls-16" points="99 300.48 101.16 300.48 101.16 298.8"/><line class="cls-16" x1="101.16" y1="297.12" x2="101.16" y2="294.96"/><line class="cls-16" x1="101.16" y1="293.28" x2="101.16" y2="291.12"/><line class="cls-16" x1="101.16" y1="289.44" x2="101.16" y2="287.28"/><line class="cls-16" x1="101.16" y1="285.6" x2="101.16" y2="283.44"/><line class="cls-16" x1="101.16" y1="281.76" x2="101.16" y2="279.6"/><line class="cls-16" x1="101.16" y1="277.92" x2="101.16" y2="275.76"/><polyline class="cls-16" points="101.16 274.08 101.16 272.4 102.36 271.2"/><line class="cls-16" x1="103.56" y1="270" x2="105" y2="268.56"/><line class="cls-16" x1="106.2" y1="267.36" x2="107.64" y2="265.68"/><line class="cls-16" x1="108.84" y1="264.48" x2="110.04" y2="263.28"/><line class="cls-16" x1="146.28" y1="227.28" x2="147.48" y2="226.08"/><line class="cls-16" x1="148.68" y1="224.88" x2="150.12" y2="223.44"/><line class="cls-16" x1="151.32" y1="222.24" x2="152.76" y2="220.56"/><polyline class="cls-16" points="153.96 219.36 155.16 218.16 156.84 218.16"/><line class="cls-16" x1="158.52" y1="218.16" x2="160.68" y2="218.16"/><line class="cls-16" x1="162.36" y1="218.16" x2="164.52" y2="218.16"/><line class="cls-16" x1="166.2" y1="218.16" x2="168.36" y2="218.16"/><line class="cls-16" x1="170.04" y1="218.16" x2="172.2" y2="218.16"/><line class="cls-16" x1="173.88" y1="218.16" x2="176.04" y2="218.16"/><line class="cls-16" x1="177.72" y1="218.16" x2="179.88" y2="218.16"/><line class="cls-16" x1="181.56" y1="218.16" x2="183.48" y2="218.16"/><line class="cls-16" x1="185.4" y1="218.16" x2="187.32" y2="218.16"/><line class="cls-16" x1="189" y1="218.16" x2="191.16" y2="218.16"/><line class="cls-16" x1="192.84" y1="218.16" x2="195" y2="218.16"/><line class="cls-16" x1="196.68" y1="218.16" x2="198.84" y2="218.16"/><line class="cls-16" x1="200.52" y1="218.16" x2="202.68" y2="218.16"/><line class="cls-16" x1="204.36" y1="218.16" x2="206.52" y2="218.16"/><line class="cls-16" x1="208.2" y1="218.16" x2="210.36" y2="218.16"/><line class="cls-16" x1="212.04" y1="218.16" x2="214.2" y2="218.16"/><line class="cls-16" x1="215.88" y1="218.16" x2="218.04" y2="218.16"/><polyline class="cls-16" points="219.72 218.16 221.4 218.16 221.4 216.96"/><line class="cls-16" x1="221.4" y1="215.28" x2="221.4" y2="213.12"/><line class="cls-16" x1="221.4" y1="211.44" x2="221.4" y2="209.28"/><line class="cls-16" x1="221.4" y1="207.6" x2="221.4" y2="205.44"/><line class="cls-16" x1="221.4" y1="203.76" x2="221.4" y2="201.6"/><line class="cls-16" x1="221.4" y1="199.92" x2="221.4" y2="197.76"/><line class="cls-16" x1="221.4" y1="196.08" x2="221.4" y2="193.92"/><line class="cls-16" x1="221.4" y1="192.24" x2="221.4" y2="190.08"/><line class="cls-16" x1="221.4" y1="188.4" x2="221.4" y2="186.24"/><line class="cls-16" x1="221.4" y1="184.56" x2="221.4" y2="182.4"/><line class="cls-16" x1="221.4" y1="180.72" x2="221.4" y2="178.56"/><line class="cls-16" x1="221.4" y1="176.88" x2="221.4" y2="174.72"/><line class="cls-16" x1="221.4" y1="173.04" x2="221.4" y2="170.88"/><line class="cls-16" x1="221.4" y1="169.2" x2="221.4" y2="167.04"/><line class="cls-16" x1="221.4" y1="165.36" x2="221.4" y2="163.2"/><line class="cls-16" x1="221.4" y1="161.52" x2="221.4" y2="159.6"/><line class="cls-16" x1="221.4" y1="157.68" x2="221.4" y2="155.76"/><line class="cls-16" x1="221.4" y1="153.84" x2="221.4" y2="151.92"/><line class="cls-16" x1="221.4" y1="150.24" x2="221.4" y2="148.08"/><line class="cls-16" x1="221.4" y1="146.4" x2="221.4" y2="144.24"/><line class="cls-16" x1="221.4" y1="142.56" x2="221.4" y2="140.4"/><line class="cls-16" x1="221.4" y1="138.72" x2="221.4" y2="136.56"/><line class="cls-16" x1="221.4" y1="134.88" x2="221.4" y2="132.72"/><line class="cls-16" x1="221.4" y1="131.04" x2="221.4" y2="128.88"/><line class="cls-16" x1="221.4" y1="127.2" x2="221.4" y2="125.04"/><line class="cls-16" x1="221.4" y1="123.36" x2="221.4" y2="121.2"/><line class="cls-16" x1="221.4" y1="119.52" x2="221.4" y2="117.36"/><line class="cls-16" x1="221.4" y1="115.68" x2="221.4" y2="113.52"/><line class="cls-16" x1="221.4" y1="111.84" x2="221.4" y2="109.68"/><line class="cls-16" x1="221.4" y1="108" x2="221.4" y2="105.84"/><line class="cls-16" x1="221.4" y1="104.16" x2="221.4" y2="102"/><line class="cls-16" x1="221.4" y1="100.32" x2="221.4" y2="98.16"/><line class="cls-16" x1="221.4" y1="96.48" x2="221.4" y2="94.32"/><line class="cls-16" x1="221.4" y1="92.64" x2="221.4" y2="90.48"/><line class="cls-16" x1="221.4" y1="88.8" x2="221.4" y2="86.88"/><line class="cls-16" x1="221.4" y1="84.96" x2="221.4" y2="83.04"/><line class="cls-16" x1="221.4" y1="81.36" x2="221.4" y2="79.2"/><line class="cls-16" x1="221.4" y1="77.52" x2="221.4" y2="75.36"/><line class="cls-16" x1="221.4" y1="73.68" x2="221.4" y2="71.52"/><line class="cls-16" x1="221.4" y1="69.84" x2="221.4" y2="67.68"/><line class="cls-16" x1="221.4" y1="66" x2="221.4" y2="63.84"/><line class="cls-16" x1="221.4" y1="62.16" x2="221.4" y2="60"/><line class="cls-16" x1="221.4" y1="58.32" x2="221.4" y2="56.16"/><line class="cls-16" x1="221.4" y1="54.48" x2="221.4" y2="52.32"/><polyline class="cls-16" points="221.4 50.64 221.4 49.2 220.2 49.2"/><line class="cls-16" x1="218.52" y1="49.2" x2="216.36" y2="49.2"/><line class="cls-16" x1="214.68" y1="49.2" x2="212.52" y2="49.2"/><line class="cls-16" x1="210.84" y1="49.2" x2="208.68" y2="49.2"/><line class="cls-16" x1="207" y1="49.2" x2="204.84" y2="49.2"/><line class="cls-16" x1="203.16" y1="49.2" x2="201" y2="49.2"/><line class="cls-16" x1="199.32" y1="49.2" x2="197.16" y2="49.2"/><line class="cls-16" x1="195.48" y1="49.2" x2="193.32" y2="49.2"/><line class="cls-16" x1="191.64" y1="49.2" x2="189.72" y2="49.2"/><line class="cls-16" x1="187.8" y1="49.2" x2="185.88" y2="49.2"/><line class="cls-16" x1="184.2" y1="49.2" x2="182.04" y2="49.2"/><line class="cls-16" x1="180.36" y1="49.2" x2="178.2" y2="49.2"/><line class="cls-16" x1="176.52" y1="49.2" x2="174.36" y2="49.2"/><line class="cls-16" x1="172.68" y1="49.2" x2="170.52" y2="49.2"/><line class="cls-16" x1="168.84" y1="49.2" x2="166.68" y2="49.2"/><line class="cls-16" x1="165" y1="49.2" x2="162.84" y2="49.2"/><line class="cls-16" x1="161.16" y1="49.2" x2="159" y2="49.2"/><line class="cls-16" x1="157.32" y1="49.2" x2="155.16" y2="49.2"/><line class="cls-16" x1="153.48" y1="49.2" x2="151.32" y2="49.2"/><line class="cls-16" x1="149.64" y1="49.2" x2="147.48" y2="49.2"/><line class="cls-16" x1="145.8" y1="49.2" x2="143.64" y2="49.2"/><line class="cls-16" x1="141.96" y1="49.2" x2="139.8" y2="49.2"/><line class="cls-16" x1="138.12" y1="49.2" x2="135.96" y2="49.2"/><line class="cls-16" x1="134.28" y1="49.2" x2="132.12" y2="49.2"/><line class="cls-16" x1="130.44" y1="49.2" x2="128.28" y2="49.2"/><line class="cls-16" x1="126.6" y1="49.2" x2="124.44" y2="49.2"/><line class="cls-16" x1="122.76" y1="49.2" x2="120.84" y2="49.2"/><line class="cls-16" x1="118.92" y1="49.2" x2="117" y2="49.2"/><line class="cls-16" x1="115.08" y1="49.2" x2="113.16" y2="49.2"/><line class="cls-16" x1="111.48" y1="49.2" x2="109.32" y2="49.2"/><line class="cls-16" x1="107.64" y1="49.2" x2="105.48" y2="49.2"/><line class="cls-16" x1="103.8" y1="49.2" x2="101.64" y2="49.2"/><line class="cls-16" x1="99.96" y1="49.2" x2="97.8" y2="49.2"/><line class="cls-16" x1="96.12" y1="49.2" x2="93.96" y2="49.2"/><line class="cls-16" x1="92.28" y1="49.2" x2="90.12" y2="49.2"/><line class="cls-16" x1="88.44" y1="49.2" x2="86.28" y2="49.2"/><line class="cls-16" x1="84.6" y1="49.2" x2="82.44" y2="49.2"/><line class="cls-16" x1="80.76" y1="49.2" x2="78.6" y2="49.2"/><line class="cls-16" x1="76.92" y1="49.2" x2="74.76" y2="49.2"/><line class="cls-16" x1="73.08" y1="49.2" x2="70.92" y2="49.2"/><line class="cls-16" x1="69.24" y1="49.2" x2="67.08" y2="49.2"/><line class="cls-16" x1="65.4" y1="49.2" x2="63.24" y2="49.2"/><line class="cls-16" x1="61.56" y1="49.2" x2="59.4" y2="49.2"/><line class="cls-16" x1="57.72" y1="49.2" x2="55.56" y2="49.2"/><line class="cls-16" x1="53.88" y1="49.2" x2="51.72" y2="49.2"/><line class="cls-16" x1="50.04" y1="49.2" x2="48.12" y2="49.2"/><line class="cls-16" x1="46.2" y1="49.2" x2="44.28" y2="49.2"/><line class="cls-16" x1="42.6" y1="49.2" x2="40.44" y2="49.2"/><line class="cls-16" x1="38.76" y1="49.2" x2="36.6" y2="49.2"/><line class="cls-16" x1="34.92" y1="49.2" x2="32.76" y2="49.2"/><line class="cls-16" x1="31.08" y1="49.2" x2="28.92" y2="49.2"/><line class="cls-16" x1="27.24" y1="49.2" x2="25.08" y2="49.2"/><line class="cls-16" x1="23.4" y1="49.2" x2="21.24" y2="49.2"/><line class="cls-16" x1="19.56" y1="49.2" x2="17.4" y2="49.2"/><line class="cls-16" x1="15.72" y1="49.2" x2="13.56" y2="49.2"/><line class="cls-16" x1="11.88" y1="49.2" x2="9.72" y2="49.2"/><line class="cls-16" x1="8.04" y1="49.2" x2="7.08" y2="49.2"/><line class="cls-16" x1="94.92" y1="161.76" x2="214.68" y2="161.76"/><polyline class="cls-16" points="92.28 159.12 93 161.04 94.92 161.76"/><line class="cls-16" x1="92.28" y1="108.48" x2="92.28" y2="159.12"/><polyline class="cls-16" points="94.92 105.6 93 106.56 92.28 108.48"/><line class="cls-16" x1="214.68" y1="105.6" x2="94.92" y2="105.6"/><polyline class="cls-16" points="217.56 108.48 216.6 106.56 214.68 105.6"/><line class="cls-16" x1="217.56" y1="159.12" x2="217.56" y2="108.48"/><polyline class="cls-16" points="214.68 161.76 216.6 161.04 217.56 159.12"/><polyline class="cls-17" points="185.88 105.6 185.88 107.04 213.48 107.04 213.48 105.6 185.88 105.6"/><polyline class="cls-17" points="99.72 160.56 99.72 161.76 140.04 161.76 140.04 160.56 99.72 160.56"/><polyline class="cls-17" points="186.12 160.56 186.12 161.76 213.48 161.76 213.48 160.56 186.12 160.56"/><line class="cls-17" x1="93.96" y1="156.48" x2="92.52" y2="156.48"/><line class="cls-17" x1="93.96" y1="111.12" x2="93.96" y2="156.48"/><line class="cls-17" x1="92.52" y1="111.12" x2="93.96" y2="111.12"/><line class="cls-17" x1="92.52" y1="156.48" x2="92.52" y2="111.12"/><line class="cls-17" x1="215.64" y1="156.24" x2="217.08" y2="156.24"/><line class="cls-17" x1="215.64" y1="111.12" x2="215.64" y2="156.24"/><line class="cls-17" x1="217.08" y1="111.12" x2="215.64" y2="111.12"/><line class="cls-17" x1="217.08" y1="156.24" x2="217.08" y2="111.12"/><line class="cls-17" x1="189" y1="110.64" x2="212.76" y2="110.64"/><line class="cls-17" x1="189" y1="157.2" x2="189" y2="110.64"/><line class="cls-17" x1="212.76" y1="157.2" x2="189" y2="157.2"/><line class="cls-17" x1="212.76" y1="110.64" x2="212.76" y2="157.2"/><line class="cls-17" x1="97.08" y1="159.6" x2="212.52" y2="159.6"/><polyline class="cls-17" points="94.44 156.96 95.16 158.88 97.08 159.6"/><line class="cls-17" x1="94.44" y1="110.64" x2="94.44" y2="156.96"/><polyline class="cls-17" points="97.08 107.76 95.16 108.72 94.44 110.64"/><line class="cls-17" x1="212.52" y1="107.76" x2="97.08" y2="107.76"/><polyline class="cls-17" points="215.4 110.64 214.44 108.72 212.52 107.76"/><line class="cls-17" x1="215.4" y1="156.96" x2="215.4" y2="110.64"/><polyline class="cls-17" points="212.52 159.6 214.44 158.88 215.4 156.96"/><polyline class="cls-17" points="217.56 159.12 217.56 108.48 217.32 107.76 217.08 107.04 216.6 106.56 216.12 106.08 215.4 105.84 214.68 105.6 94.92 105.6 94.2 105.84 93.72 106.08 93 106.56 92.52 107.04 92.28 107.76 92.28 108.48 92.28 159.12 92.28 159.84 92.52 160.32 93 161.04 93.72 161.52 94.2 161.76 94.92 161.76 214.68 161.76 215.4 161.76 216.12 161.52 216.6 161.04 217.08 160.32 217.32 159.84 217.56 159.12"/><polyline class="cls-16" points="67.32 303.84 68.28 296.16 70.68 289.2 74.76 282.72 80.28 277.2 86.52 273.12 93.72 270.72 101.4 269.76"/><polyline class="cls-16" points="98.52 303.84 98.52 269.76 101.4 269.76 101.4 303.84 98.52 303.84"/><polyline class="cls-16" points="67.32 303.84 66.6 294 63.96 284.4 59.64 275.28 54.12 267.12 46.92 260.16 38.76 254.4 29.88 250.32 20.28 247.68 10.44 246.96"/><polyline class="cls-16" points="13.32 303.84 13.32 246.96 10.44 246.96 10.44 303.84 13.32 303.84"/><polyline class="cls-16" points="101.4 300.48 10.44 300.48 10.44 307.2 101.4 307.2 101.4 300.48 10.44 300.48 10.44 307.2 101.4 307.2 101.4 300.48"/><polyline class="cls-16" points="159 66.24 176.04 66.24 209.88 66.24"/><line class="cls-16" x1="176.04" y1="86.16" x2="209.88" y2="86.16"/><line class="cls-16" x1="176.04" y1="66.24" x2="209.88" y2="66.24"/><line class="cls-16" x1="176.04" y1="86.16" x2="176.04" y2="66.24"/><line class="cls-16" x1="209.88" y1="86.16" x2="209.88" y2="66.24"/><polyline class="cls-17" points="176.04 86.16 209.88 86.16 209.88 66.24 176.04 66.24 176.04 86.16"/><line class="cls-17" x1="176.04" y1="66.24" x2="209.88" y2="66.24"/><polyline class="cls-17" points="156.12 66.24 156.84 71.52 158.76 76.32 161.88 80.4 165.96 83.52 170.76 85.44 176.04 86.16 209.88 86.16"/><line class="cls-17" x1="176.04" y1="66.24" x2="176.04" y2="86.16"/><line class="cls-17" x1="209.88" y1="66.24" x2="209.88" y2="86.16"/><line class="cls-17" x1="156.12" y1="66.24" x2="176.04" y2="66.24"/><polyline class="cls-17" points="114.84 246.96 116.04 246.24 117 245.28"/><polyline class="cls-17" points="129.72 231.84 129 233.04 128.04 234.24"/><line class="cls-17" x1="110.52" y1="246.72" x2="111" y2="246.96"/><polyline class="cls-17" points="110.52 246.72 109.32 245.52 108.36 244.32"/><polyline class="cls-17" points="114.84 246.96 112.92 247.44 111 246.96"/><line class="cls-17" x1="129.48" y1="227.76" x2="129.96" y2="228.24"/><polyline class="cls-17" points="129.48 227.76 128.52 226.56 127.32 225.6"/><polyline class="cls-17" points="129.72 231.84 130.44 230.16 129.96 228.24"/><line class="cls-16" x1="138.12" y1="235.2" x2="118.2" y2="255.36"/><polyline class="cls-16" points="126.12 222.72 123.24 222 120.6 222"/><polyline class="cls-16" points="130.44 225.36 128.28 223.92 126.12 222.72"/><polyline class="cls-16" points="138.12 235.2 134.52 230.16 130.2 225.36"/><polyline class="cls-16" points="108.36 247.44 112.92 251.76 118.2 255.36"/><polyline class="cls-16" points="115.08 223.44 112.2 225.12 110.04 227.04"/><polyline class="cls-16" points="120.6 222 117.72 222.48 115.08 223.44"/><polyline class="cls-16" points="105.72 243.12 106.68 245.52 108.36 247.44"/><polyline class="cls-16" points="105 237.6 105 240.48 105.72 243.12"/><polyline class="cls-16" points="106.44 232.08 105.48 234.72 105 237.6"/><polyline class="cls-16" points="110.04 227.04 107.88 229.44 106.44 232.08"/><polyline class="cls-17" points="117.24 254.64 137.64 234.24 134.28 229.68 130.2 225.36 128.28 223.92 126.12 222.72 123.24 222 120.6 222 117.72 222.48 115.08 223.44 112.2 225.12 110.04 227.04 107.88 229.44 106.44 232.08 105.48 234.72 105 237.6 105 240.48 105.72 243.12 106.68 245.52 108.36 247.44 112.44 251.28 117.24 254.64"/><polyline class="cls-17" points="110.04 263.28 146.28 227.28 145.32 226.56 109.32 262.56 110.04 263.28"/><line class="cls-18" x1="209.88" y1="76.32" x2="209.88" y2="70.56"/><line class="cls-18" x1="209.88" y1="59.28" x2="209.88" y2="47.76"/><line class="cls-18" x1="209.88" y1="36.48" x2="209.88" y2="30.96"/><line class="cls-18" x1="221.4" y1="76.32" x2="221.4" y2="70.56"/><line class="cls-18" x1="221.4" y1="59.28" x2="221.4" y2="47.76"/><line class="cls-18" x1="221.4" y1="36.48" x2="221.4" y2="30.96"/><line class="cls-18" x1="192.84" y1="66.24" x2="207.72" y2="66.24"/><line class="cls-18" x1="219" y1="66.24" x2="233.88" y2="66.24"/><line class="cls-18" x1="192.84" y1="49.2" x2="206.52" y2="49.2"/><line class="cls-18" x1="217.8" y1="49.2" x2="231.48" y2="49.2"/><line class="cls-18" x1="153.24" y1="133.68" x2="167.4" y2="133.68"/><line class="cls-18" x1="178.68" y1="133.68" x2="190.2" y2="133.68"/><line class="cls-18" x1="201.48" y1="133.68" x2="212.76" y2="133.68"/><line class="cls-18" x1="224.04" y1="133.68" x2="235.56" y2="133.68"/><line class="cls-18" x1="246.84" y1="133.68" x2="261" y2="133.68"/><line class="cls-18" x1="111.72" y1="228.72" x2="119.64" y2="236.88"/><line class="cls-18" x1="127.8" y1="244.8" x2="135.72" y2="252.96"/><line class="cls-19" x1="148.44" y1="265.44" x2="175.56" y2="238.56"/><line class="cls-18" x1="175.56" y1="238.56" x2="175.56" y2="244.56"/><line class="cls-18" x1="175.56" y1="238.56" x2="175.56" y2="232.32"/><line class="cls-19" x1="175.56" y1="238.56" x2="180.36" y2="243.36"/><line class="cls-19" x1="175.56" y1="238.56" x2="165.48" y2="228.48"/><line class="cls-19" x1="121.32" y1="292.56" x2="148.44" y2="265.44"/><line class="cls-18" x1="148.44" y1="265.44" x2="148.44" y2="271.44"/><line class="cls-18" x1="148.44" y1="265.44" x2="148.44" y2="259.44"/><line class="cls-19" x1="148.44" y1="265.44" x2="153.48" y2="270.48"/><line class="cls-19" x1="148.44" y1="265.44" x2="138.36" y2="255.6"/><line class="cls-18" x1="121.32" y1="292.56" x2="121.32" y2="298.56"/><line class="cls-18" x1="121.32" y1="292.56" x2="121.32" y2="286.56"/><line class="cls-19" x1="121.32" y1="292.56" x2="126.36" y2="297.6"/><line class="cls-19" x1="121.32" y1="292.56" x2="111.24" y2="282.48"/><polyline class="cls-20" points="122.04 272.88 128.76 265.92 136.92 274.08 129.96 280.8"/><text class="cls-21" transform="translate(128.28 279.12) rotate(-45)"><tspan class="cls-22">E</tspan><tspan x="4.41" y="0">Q</tspan></text><polyline class="cls-20" points="149.16 245.76 155.88 238.8 164.04 246.96 157.08 253.68"/><text class="cls-21" transform="translate(155.4 252) rotate(-45)"><tspan class="cls-22">E</tspan><tspan x="4.41" y="0">Q</tspan></text><line class="cls-19" x1="283.56" y1="66.24" x2="283.56" y2="133.68"/><line class="cls-18" x1="283.56" y1="133.68" x2="279.24" y2="129.6"/><line class="cls-18" x1="283.56" y1="133.68" x2="287.64" y2="138"/><line class="cls-19" x1="283.56" y1="133.68" x2="290.52" y2="133.68"/><line class="cls-19" x1="283.56" y1="133.68" x2="269.4" y2="133.68"/><line class="cls-18" x1="283.56" y1="66.24" x2="279.24" y2="61.92"/><line class="cls-18" x1="283.56" y1="66.24" x2="287.64" y2="70.56"/><line class="cls-19" x1="283.56" y1="66.24" x2="290.52" y2="66.24"/><line class="cls-19" x1="283.56" y1="66.24" x2="269.4" y2="66.24"/><rect class="cls-20" x="270.12" y="48.48" width="9.6" height="103.44"/><text class="cls-23" transform="translate(277.8 151.68) rotate(-90)">Graph<tspan class="cls-24" x="18" y="0">i</tspan><tspan class="cls-25" x="19.44" y="0">c</tspan><tspan class="cls-26" x="22.79" y="0">_</tspan><tspan class="cls-27" x="26.16" y="0">S</tspan><tspan class="cls-28" x="30.49" y="0">i</tspan><tspan class="cls-27" x="31.93" y="0">ng</tspan><tspan class="cls-24" x="39.13" y="0">l</tspan><tspan class="cls-27" x="40.58" y="0">eB</tspan><tspan class="cls-26" x="48.51" y="0">e</tspan><tspan class="cls-27" x="51.88" y="0">d_O</tspan><tspan class="cls-29" x="64.14" y="0">ff</tspan><tspan class="cls-30" x="67.98" y="0">s</tspan><tspan class="cls-31" x="71.33" y="0">e</tspan><tspan class="cls-32" x="74.7" y="0">t</tspan><tspan class="cls-27" x="76.62" y="0">_BV</tspan><tspan class="cls-33" x="88.88" y="0">ND</tspan><tspan class="cls-34" x="98.48" y="0">H</tspan></text><line class="cls-19" x1="209.88" y1="16.8" x2="221.4" y2="16.8"/><line class="cls-18" x1="221.4" y1="16.8" x2="217.08" y2="21.12"/><line class="cls-18" x1="221.4" y1="16.8" x2="225.48" y2="12.72"/><line class="cls-19" x1="221.4" y1="16.8" x2="221.4" y2="9.84"/><line class="cls-19" x1="221.4" y1="16.8" x2="221.4" y2="30.96"/><line class="cls-18" x1="209.88" y1="16.8" x2="205.8" y2="21.12"/><line class="cls-18" x1="209.88" y1="16.8" x2="214.2" y2="12.72"/><line class="cls-19" x1="209.88" y1="16.8" x2="209.88" y2="9.84"/><line class="cls-19" x1="209.88" y1="16.8" x2="209.88" y2="30.96"/><rect class="cls-20" x="180.84" width="69.36" height="8.88"/><text class="cls-35" transform="translate(180.84 7.2)"><tspan class="cls-36">SP</tspan><tspan class="cls-27" x="8.68" y="0">_</tspan><tspan class="cls-37" x="12.28" y="0">O</tspan><tspan class="cls-38" x="17.08" y="0">ff</tspan><tspan class="cls-30" x="20.45" y="0">s</tspan><tspan class="cls-39" x="23.8" y="0">e</tspan><tspan class="cls-40" x="27.4" y="0">t</tspan><tspan class="cls-39" x="29.09" y="0">_</tspan><tspan class="cls-36" x="32.69" y="0">X</tspan><tspan class="cls-39" x="37.03" y="0">_</tspan><tspan class="cls-41" x="40.63" y="0">W</tspan><tspan class="cls-42" x="46.64" y="0">a</tspan><tspan class="cls-43" x="50.47" y="0">r</tspan><tspan class="cls-39" x="52.64" y="0">drob</tspan><tspan x="65.56" y="0">e</tspan></text><line class="cls-19" x1="255.24" y1="66.24" x2="255.24" y2="49.2"/><line class="cls-18" x1="255.24" y1="49.2" x2="259.32" y2="53.52"/><line class="cls-18" x1="255.24" y1="49.2" x2="250.92" y2="45.12"/><line class="cls-19" x1="255.24" y1="49.2" x2="262.2" y2="49.2"/><line class="cls-19" x1="255.24" y1="49.2" x2="241.08" y2="49.2"/><line class="cls-18" x1="255.24" y1="66.24" x2="259.32" y2="70.56"/><line class="cls-18" x1="255.24" y1="66.24" x2="250.92" y2="61.92"/><line class="cls-19" x1="255.24" y1="66.24" x2="262.2" y2="66.24"/><line class="cls-19" x1="255.24" y1="66.24" x2="241.08" y2="66.24"/><rect class="cls-20" x="235.08" y="23.04" width="9.6" height="69.84"/><text class="cls-35" transform="translate(242.76 92.64) rotate(-90)"><tspan class="cls-39">SP_O</tspan><tspan class="cls-44" x="17.33" y="0">ff</tspan><tspan class="cls-45" x="21.17" y="0">s</tspan><tspan class="cls-39" x="24.29" y="0">e</tspan><tspan class="cls-44" x="27.89" y="0">t</tspan><tspan class="cls-27" x="29.81" y="0">_Y_</tspan><tspan x="41.34" y="0">W</tspan><tspan class="cls-46" x="47.58" y="0">a</tspan><tspan class="cls-47" x="50.94" y="0">r</tspan><tspan class="cls-39" x="53.11" y="0">drob</tspan><tspan x="66.04" y="0">e</tspan></text></g></g></svg>