<svg xmlns="http://www.w3.org/2000/svg" xmlns:xlink="http://www.w3.org/1999/xlink" viewBox="0 0 284.76 340.68"><defs><style>.cls-1,.cls-14,.cls-15,.cls-16,.cls-17,.cls-2{fill:none;}.cls-1{clip-rule:evenodd;}.cls-3{clip-path:url(#clip-path);}.cls-4{clip-path:url(#clip-path-2);}.cls-5{fill:#c6d3b4;}.cls-11,.cls-6{font-size:4.08px;font-family:ArialMT, Arial;}.cls-11,.cls-7{letter-spacing:-0.03em;}.cls-8{letter-spacing:0.02em;}.cls-9{letter-spacing:-0.09em;}.cls-10{letter-spacing:0.02em;}.cls-12{letter-spacing:-0.04em;}.cls-13{letter-spacing:0em;}.cls-14,.cls-15{stroke:#000;}.cls-14,.cls-15,.cls-16,.cls-17{stroke-linecap:round;stroke-linejoin:round;}.cls-14,.cls-17{stroke-width:0.24px;}.cls-15,.cls-16{stroke-width:0.48px;}.cls-16,.cls-17{stroke:red;}.cls-18{fill:#fff;}.cls-19,.cls-29{font-size:8.05px;}.cls-19,.cls-29,.cls-31{fill:red;font-family:ArialNarrow, Arial;}.cls-20{letter-spacing:-0.01em;}.cls-21{letter-spacing:-0.03em;}.cls-22{letter-spacing:0em;}.cls-23{letter-spacing:-0.02em;}.cls-24,.cls-29{letter-spacing:-0.01em;}.cls-25{letter-spacing:0em;}.cls-26{letter-spacing:0.01em;}.cls-27{letter-spacing:0em;}.cls-28{letter-spacing:0.01em;}.cls-30{letter-spacing:0em;}.cls-31{font-size:8.04px;letter-spacing:-0.02em;}.cls-32{letter-spacing:0.02em;}.cls-33{letter-spacing:0em;}.cls-34{letter-spacing:0.01em;}.cls-35{letter-spacing:0em;}</style><clipPath id="clip-path" transform="translate(-2.15 -28.56)"><path class="cls-1" d="M96.71,96.24l-.24.24-.48.24-.48.48-.24.72v52.32h.24V151h.24l.24.24.48.24.24.24.72.24,121,.24v-.24l.72-.24,1-1,.24-.72.24-51.84h-.24v-.72l-1.2-1.2m-209-56.4v251h94.08V262.56l54-54h12.24v-1h11v-1.92h-.24v-1.92H181v-1.92h-.24v-5.76l-.24-.24c-.2-4.11,2.57-8.31,6-10.32l.72-.72.72-.24,1.92-1,1.2-.24,1.92-.48h6l1.2.24,1.92.48.72.24,2.4,1.2.48.48.48.24,2.64,2.64v.48H209l.48.48v.48h.24l.24.24v.48h.24l.24.24v.48h.24V192H211v.72h.24v1h.24l-.24,7.92-.72,5.76,11,.24v1h2.88v-149H190.31V39.84Z"/></clipPath><clipPath id="clip-path-2" transform="translate(-2.15 -28.56)"><rect class="cls-2" width="841.92" height="595.2"/></clipPath></defs><title>PushIt - Floor Plan - SP-Room-Bed</title><g id="Layer_2" data-name="Layer 2"><g id="Layer_1-2" data-name="Layer 1"><g class="cls-3"><g class="cls-4"><rect class="cls-5" x="7.92" y="11.28" width="214.32" height="251.04"/></g></g><text class="cls-6" transform="translate(124.08 131.04)">?</text><text class="cls-6" transform="translate(114.48 143.76)"><tspan class="cls-7">3900</tspan><tspan class="cls-8" x="8.64" y="0"> </tspan><tspan class="cls-9" x="9.84" y="0">x</tspan><tspan class="cls-10" x="11.52" y="0"> </tspan><tspan class="cls-7" x="12.72" y="0">455</tspan><tspan x="19.2" y="0">0</tspan></text><text class="cls-6" transform="translate(121.92 135.36)"><tspan class="cls-7">5</tspan><tspan class="cls-10" x="2.16" y="0">.</tspan><tspan class="cls-7" x="3.36" y="0">5</tspan><tspan x="5.52" y="0">0</tspan></text><text class="cls-11" transform="translate(113.52 139.44)">15<tspan class="cls-8" x="4.32" y="0">.</tspan><tspan x="5.52" y="0">09</tspan><tspan class="cls-8" x="9.84" y="0"> </tspan><tspan class="cls-12" x="11.04" y="0">(</tspan><tspan x="12.24" y="0">14</tspan><tspan class="cls-8" x="16.55" y="0">.</tspan><tspan x="17.75" y="0">09</tspan><tspan class="cls-13" x="22.07" y="0">)</tspan></text><text class="cls-6" transform="translate(124.08 126.72)">?</text><polyline class="cls-14" points="228.96 4.32 1.2 4.32 1.2 269.04 108.72 269.04 108.72 237.12 158.88 186.96 228.96 186.96 228.96 4.32"/><polyline class="cls-14" points="102 262.32 7.92 262.32 7.92 11.28 222.24 11.28 222.24 180 156 180 102 234.24 102 262.32"/><line class="cls-14" x1="7.92" y1="11.28" x2="7.92" y2="13.44"/><line class="cls-14" x1="7.92" y1="15.12" x2="7.92" y2="17.28"/><line class="cls-14" x1="7.92" y1="18.96" x2="7.92" y2="21.12"/><line class="cls-14" x1="7.92" y1="22.8" x2="7.92" y2="24.96"/><line class="cls-14" x1="7.92" y1="26.64" x2="7.92" y2="28.8"/><line class="cls-14" x1="7.92" y1="30.48" x2="7.92" y2="32.64"/><line class="cls-14" x1="7.92" y1="34.32" x2="7.92" y2="36.48"/><line class="cls-14" x1="7.92" y1="38.16" x2="7.92" y2="40.32"/><line class="cls-14" x1="7.92" y1="42" x2="7.92" y2="44.16"/><line class="cls-14" x1="7.92" y1="45.84" x2="7.92" y2="48"/><line class="cls-14" x1="7.92" y1="49.68" x2="7.92" y2="51.84"/><line class="cls-14" x1="7.92" y1="53.52" x2="7.92" y2="55.44"/><line class="cls-14" x1="7.92" y1="57.36" x2="7.92" y2="59.28"/><line class="cls-14" x1="7.92" y1="60.96" x2="7.92" y2="63.12"/><line class="cls-14" x1="7.92" y1="64.8" x2="7.92" y2="66.96"/><line class="cls-14" x1="7.92" y1="68.64" x2="7.92" y2="70.8"/><line class="cls-14" x1="7.92" y1="72.48" x2="7.92" y2="74.64"/><line class="cls-14" x1="7.92" y1="76.32" x2="7.92" y2="78.48"/><line class="cls-14" x1="7.92" y1="80.16" x2="7.92" y2="82.32"/><line class="cls-14" x1="7.92" y1="84" x2="7.92" y2="86.16"/><line class="cls-14" x1="7.92" y1="87.84" x2="7.92" y2="90"/><line class="cls-14" x1="7.92" y1="91.68" x2="7.92" y2="93.84"/><line class="cls-14" x1="7.92" y1="95.52" x2="7.92" y2="97.68"/><line class="cls-14" x1="7.92" y1="99.36" x2="7.92" y2="101.52"/><line class="cls-14" x1="7.92" y1="103.2" x2="7.92" y2="105.36"/><line class="cls-14" x1="7.92" y1="107.04" x2="7.92" y2="109.2"/><line class="cls-14" x1="7.92" y1="110.88" x2="7.92" y2="112.8"/><line class="cls-14" x1="7.92" y1="114.72" x2="7.92" y2="116.64"/><line class="cls-14" x1="7.92" y1="118.56" x2="7.92" y2="120.48"/><line class="cls-14" x1="7.92" y1="122.16" x2="7.92" y2="124.32"/><line class="cls-14" x1="7.92" y1="126" x2="7.92" y2="128.16"/><line class="cls-14" x1="7.92" y1="129.84" x2="7.92" y2="132"/><line class="cls-14" x1="7.92" y1="133.68" x2="7.92" y2="135.84"/><line class="cls-14" x1="7.92" y1="137.52" x2="7.92" y2="139.68"/><line class="cls-14" x1="7.92" y1="141.36" x2="7.92" y2="143.52"/><line class="cls-14" x1="7.92" y1="145.2" x2="7.92" y2="147.36"/><line class="cls-14" x1="7.92" y1="149.04" x2="7.92" y2="151.2"/><line class="cls-14" x1="7.92" y1="152.88" x2="7.92" y2="155.04"/><line class="cls-14" x1="7.92" y1="156.72" x2="7.92" y2="158.88"/><line class="cls-14" x1="7.92" y1="160.56" x2="7.92" y2="162.72"/><line class="cls-14" x1="7.92" y1="164.4" x2="7.92" y2="166.56"/><line class="cls-14" x1="7.92" y1="168.24" x2="7.92" y2="170.4"/><line class="cls-14" x1="7.92" y1="172.08" x2="7.92" y2="174"/><line class="cls-14" x1="7.92" y1="175.92" x2="7.92" y2="177.84"/><line class="cls-14" x1="7.92" y1="179.52" x2="7.92" y2="181.68"/><line class="cls-14" x1="7.92" y1="183.36" x2="7.92" y2="185.52"/><line class="cls-14" x1="7.92" y1="187.2" x2="7.92" y2="189.36"/><line class="cls-14" x1="7.92" y1="191.04" x2="7.92" y2="193.2"/><line class="cls-14" x1="7.92" y1="194.88" x2="7.92" y2="197.04"/><line class="cls-14" x1="7.92" y1="198.72" x2="7.92" y2="200.88"/><line class="cls-14" x1="7.92" y1="202.56" x2="7.92" y2="204.72"/><line class="cls-14" x1="7.92" y1="206.4" x2="7.92" y2="208.56"/><line class="cls-14" x1="7.92" y1="210.24" x2="7.92" y2="212.4"/><line class="cls-14" x1="7.92" y1="214.08" x2="7.92" y2="216.24"/><line class="cls-14" x1="7.92" y1="217.92" x2="7.92" y2="220.08"/><line class="cls-14" x1="7.92" y1="221.76" x2="7.92" y2="223.92"/><line class="cls-14" x1="7.92" y1="225.6" x2="7.92" y2="227.76"/><line class="cls-14" x1="7.92" y1="229.44" x2="7.92" y2="231.6"/><line class="cls-14" x1="7.92" y1="233.28" x2="7.92" y2="235.2"/><line class="cls-14" x1="7.92" y1="237.12" x2="7.92" y2="239.04"/><line class="cls-14" x1="7.92" y1="240.72" x2="7.92" y2="242.88"/><line class="cls-14" x1="7.92" y1="244.56" x2="7.92" y2="246.72"/><line class="cls-14" x1="7.92" y1="248.4" x2="7.92" y2="250.56"/><line class="cls-14" x1="7.92" y1="252.24" x2="7.92" y2="254.4"/><line class="cls-14" x1="7.92" y1="256.08" x2="7.92" y2="258.24"/><polyline class="cls-14" points="7.92 259.92 7.92 262.32 10.08 262.32"/><line class="cls-14" x1="11.76" y1="262.32" x2="13.92" y2="262.32"/><line class="cls-14" x1="15.6" y1="262.32" x2="17.76" y2="262.32"/><line class="cls-14" x1="19.44" y1="262.32" x2="21.6" y2="262.32"/><line class="cls-14" x1="23.28" y1="262.32" x2="25.44" y2="262.32"/><line class="cls-14" x1="27.12" y1="262.32" x2="29.28" y2="262.32"/><line class="cls-14" x1="30.96" y1="262.32" x2="33.12" y2="262.32"/><line class="cls-14" x1="34.8" y1="262.32" x2="36.96" y2="262.32"/><line class="cls-14" x1="38.64" y1="262.32" x2="40.8" y2="262.32"/><line class="cls-14" x1="42.48" y1="262.32" x2="44.64" y2="262.32"/><line class="cls-14" x1="46.32" y1="262.32" x2="48.48" y2="262.32"/><line class="cls-14" x1="50.16" y1="262.32" x2="52.32" y2="262.32"/><line class="cls-14" x1="54" y1="262.32" x2="55.92" y2="262.32"/><line class="cls-14" x1="57.84" y1="262.32" x2="59.76" y2="262.32"/><line class="cls-14" x1="61.44" y1="262.32" x2="63.6" y2="262.32"/><line class="cls-14" x1="65.28" y1="262.32" x2="67.44" y2="262.32"/><line class="cls-14" x1="69.12" y1="262.32" x2="71.28" y2="262.32"/><line class="cls-14" x1="72.96" y1="262.32" x2="75.12" y2="262.32"/><line class="cls-14" x1="76.8" y1="262.32" x2="78.96" y2="262.32"/><line class="cls-14" x1="80.64" y1="262.32" x2="82.8" y2="262.32"/><line class="cls-14" x1="84.48" y1="262.32" x2="86.64" y2="262.32"/><line class="cls-14" x1="88.32" y1="262.32" x2="90.48" y2="262.32"/><line class="cls-14" x1="92.16" y1="262.32" x2="94.32" y2="262.32"/><line class="cls-14" x1="96" y1="262.32" x2="98.16" y2="262.32"/><polyline class="cls-14" points="99.84 262.32 102 262.32 102 260.64"/><line class="cls-14" x1="102" y1="258.72" x2="102" y2="256.8"/><line class="cls-14" x1="102" y1="255.12" x2="102" y2="252.96"/><line class="cls-14" x1="102" y1="251.28" x2="102" y2="249.12"/><line class="cls-14" x1="102" y1="247.44" x2="102" y2="245.28"/><line class="cls-14" x1="102" y1="243.6" x2="102" y2="241.44"/><line class="cls-14" x1="102" y1="239.76" x2="102" y2="237.6"/><polyline class="cls-14" points="102 235.92 102 234.24 102.72 233.52"/><line class="cls-14" x1="103.92" y1="232.32" x2="105.36" y2="230.64"/><line class="cls-14" x1="106.56" y1="229.44" x2="108.24" y2="228"/><line class="cls-14" x1="109.44" y1="226.8" x2="110.88" y2="225.36"/><line class="cls-14" x1="112.08" y1="224.16" x2="113.52" y2="222.48"/><line class="cls-14" x1="114.72" y1="221.28" x2="116.4" y2="219.84"/><line class="cls-14" x1="117.6" y1="218.64" x2="119.04" y2="217.2"/><line class="cls-14" x1="120.24" y1="216" x2="121.68" y2="214.56"/><line class="cls-14" x1="122.88" y1="213.36" x2="124.32" y2="211.68"/><line class="cls-14" x1="125.52" y1="210.48" x2="127.2" y2="209.04"/><line class="cls-14" x1="128.4" y1="207.84" x2="129.84" y2="206.4"/><line class="cls-14" x1="131.04" y1="205.2" x2="132.48" y2="203.76"/><line class="cls-14" x1="133.68" y1="202.56" x2="135.12" y2="200.88"/><line class="cls-14" x1="136.32" y1="199.68" x2="138" y2="198.24"/><line class="cls-14" x1="139.2" y1="197.04" x2="140.64" y2="195.6"/><line class="cls-14" x1="141.84" y1="194.4" x2="143.28" y2="192.96"/><line class="cls-14" x1="144.48" y1="191.76" x2="145.92" y2="190.08"/><line class="cls-14" x1="147.12" y1="188.88" x2="148.8" y2="187.44"/><line class="cls-14" x1="150" y1="186.24" x2="151.44" y2="184.8"/><line class="cls-14" x1="152.64" y1="183.6" x2="154.08" y2="181.92"/><polyline class="cls-14" points="155.28 180.72 156 180 157.44 180"/><line class="cls-14" x1="159.12" y1="180" x2="161.28" y2="180"/><line class="cls-14" x1="162.96" y1="180" x2="165.12" y2="180"/><line class="cls-14" x1="166.8" y1="180" x2="168.24" y2="180"/><polyline class="cls-14" points="219.36 180 222.24 180 222.24 177.12"/><line class="cls-14" x1="222.24" y1="175.44" x2="222.24" y2="173.28"/><line class="cls-14" x1="222.24" y1="171.6" x2="222.24" y2="169.44"/><line class="cls-14" x1="222.24" y1="167.76" x2="222.24" y2="165.6"/><line class="cls-14" x1="222.24" y1="163.92" x2="222.24" y2="161.76"/><line class="cls-14" x1="222.24" y1="160.08" x2="222.24" y2="157.92"/><line class="cls-14" x1="222.24" y1="156.24" x2="222.24" y2="154.32"/><line class="cls-14" x1="222.24" y1="152.4" x2="222.24" y2="150.48"/><line class="cls-14" x1="222.24" y1="148.8" x2="222.24" y2="146.64"/><line class="cls-14" x1="222.24" y1="144.96" x2="222.24" y2="142.8"/><line class="cls-14" x1="222.24" y1="141.12" x2="222.24" y2="138.96"/><line class="cls-14" x1="222.24" y1="137.28" x2="222.24" y2="135.12"/><line class="cls-14" x1="222.24" y1="133.44" x2="222.24" y2="131.28"/><line class="cls-14" x1="222.24" y1="129.6" x2="222.24" y2="127.44"/><line class="cls-14" x1="222.24" y1="125.76" x2="222.24" y2="123.6"/><line class="cls-14" x1="222.24" y1="121.92" x2="222.24" y2="119.76"/><line class="cls-14" x1="222.24" y1="118.08" x2="222.24" y2="115.92"/><line class="cls-14" x1="222.24" y1="114.24" x2="222.24" y2="112.08"/><line class="cls-14" x1="222.24" y1="110.4" x2="222.24" y2="108.24"/><line class="cls-14" x1="222.24" y1="106.56" x2="222.24" y2="104.4"/><line class="cls-14" x1="222.24" y1="102.72" x2="222.24" y2="100.56"/><line class="cls-14" x1="222.24" y1="98.88" x2="222.24" y2="96.72"/><line class="cls-14" x1="222.24" y1="95.04" x2="222.24" y2="93.12"/><line class="cls-14" x1="222.24" y1="91.2" x2="222.24" y2="89.28"/><line class="cls-14" x1="222.24" y1="87.6" x2="222.24" y2="85.44"/><line class="cls-14" x1="222.24" y1="83.76" x2="222.24" y2="81.6"/><line class="cls-14" x1="222.24" y1="79.92" x2="222.24" y2="77.76"/><line class="cls-14" x1="222.24" y1="76.08" x2="222.24" y2="73.92"/><line class="cls-14" x1="222.24" y1="72.24" x2="222.24" y2="70.08"/><line class="cls-14" x1="222.24" y1="68.4" x2="222.24" y2="66.24"/><line class="cls-14" x1="222.24" y1="64.56" x2="222.24" y2="62.4"/><line class="cls-14" x1="222.24" y1="60.72" x2="222.24" y2="58.56"/><line class="cls-14" x1="222.24" y1="56.88" x2="222.24" y2="54.72"/><line class="cls-14" x1="222.24" y1="53.04" x2="222.24" y2="50.88"/><line class="cls-14" x1="222.24" y1="49.2" x2="222.24" y2="47.04"/><line class="cls-14" x1="222.24" y1="45.36" x2="222.24" y2="43.2"/><line class="cls-14" x1="222.24" y1="41.52" x2="222.24" y2="39.36"/><line class="cls-14" x1="222.24" y1="37.68" x2="222.24" y2="35.76"/><line class="cls-14" x1="222.24" y1="33.84" x2="222.24" y2="30.96"/><line class="cls-14" x1="188.16" y1="11.28" x2="186.96" y2="11.28"/><line class="cls-14" x1="185.04" y1="11.28" x2="183.12" y2="11.28"/><line class="cls-14" x1="181.44" y1="11.28" x2="179.28" y2="11.28"/><line class="cls-14" x1="177.6" y1="11.28" x2="175.44" y2="11.28"/><line class="cls-14" x1="173.76" y1="11.28" x2="171.6" y2="11.28"/><line class="cls-14" x1="169.92" y1="11.28" x2="167.76" y2="11.28"/><line class="cls-14" x1="166.08" y1="11.28" x2="163.92" y2="11.28"/><line class="cls-14" x1="162.24" y1="11.28" x2="160.08" y2="11.28"/><line class="cls-14" x1="158.4" y1="11.28" x2="156.24" y2="11.28"/><line class="cls-14" x1="154.56" y1="11.28" x2="152.4" y2="11.28"/><line class="cls-14" x1="150.72" y1="11.28" x2="148.56" y2="11.28"/><line class="cls-14" x1="146.88" y1="11.28" x2="144.72" y2="11.28"/><line class="cls-14" x1="143.04" y1="11.28" x2="140.88" y2="11.28"/><line class="cls-14" x1="139.2" y1="11.28" x2="137.04" y2="11.28"/><line class="cls-14" x1="135.36" y1="11.28" x2="133.2" y2="11.28"/><line class="cls-14" x1="131.52" y1="11.28" x2="129.36" y2="11.28"/><line class="cls-14" x1="127.68" y1="11.28" x2="125.76" y2="11.28"/><line class="cls-14" x1="123.84" y1="11.28" x2="121.92" y2="11.28"/><line class="cls-14" x1="120.24" y1="11.28" x2="118.08" y2="11.28"/><line class="cls-14" x1="116.4" y1="11.28" x2="114.24" y2="11.28"/><line class="cls-14" x1="112.56" y1="11.28" x2="110.4" y2="11.28"/><line class="cls-14" x1="108.72" y1="11.28" x2="106.56" y2="11.28"/><line class="cls-14" x1="104.88" y1="11.28" x2="102.72" y2="11.28"/><line class="cls-14" x1="101.04" y1="11.28" x2="98.88" y2="11.28"/><line class="cls-14" x1="97.2" y1="11.28" x2="95.04" y2="11.28"/><line class="cls-14" x1="93.36" y1="11.28" x2="91.2" y2="11.28"/><line class="cls-14" x1="89.52" y1="11.28" x2="87.36" y2="11.28"/><line class="cls-14" x1="85.68" y1="11.28" x2="83.52" y2="11.28"/><line class="cls-14" x1="81.84" y1="11.28" x2="79.68" y2="11.28"/><line class="cls-14" x1="78" y1="11.28" x2="75.84" y2="11.28"/><line class="cls-14" x1="74.16" y1="11.28" x2="72" y2="11.28"/><line class="cls-14" x1="70.32" y1="11.28" x2="68.4" y2="11.28"/><line class="cls-14" x1="66.48" y1="11.28" x2="64.56" y2="11.28"/><line class="cls-14" x1="62.64" y1="11.28" x2="60.72" y2="11.28"/><line class="cls-14" x1="59.04" y1="11.28" x2="56.88" y2="11.28"/><line class="cls-14" x1="55.2" y1="11.28" x2="53.04" y2="11.28"/><line class="cls-14" x1="51.36" y1="11.28" x2="49.2" y2="11.28"/><line class="cls-14" x1="47.52" y1="11.28" x2="45.36" y2="11.28"/><line class="cls-14" x1="43.68" y1="11.28" x2="41.52" y2="11.28"/><line class="cls-14" x1="39.84" y1="11.28" x2="37.68" y2="11.28"/><line class="cls-14" x1="36" y1="11.28" x2="33.84" y2="11.28"/><line class="cls-14" x1="32.16" y1="11.28" x2="30" y2="11.28"/><line class="cls-14" x1="28.32" y1="11.28" x2="26.16" y2="11.28"/><line class="cls-14" x1="24.48" y1="11.28" x2="22.32" y2="11.28"/><line class="cls-14" x1="20.64" y1="11.28" x2="18.48" y2="11.28"/><line class="cls-14" x1="16.8" y1="11.28" x2="14.64" y2="11.28"/><line class="cls-14" x1="12.96" y1="11.28" x2="10.8" y2="11.28"/><line class="cls-14" x1="9.12" y1="11.28" x2="7.92" y2="11.28"/><line class="cls-14" x1="96" y1="123.6" x2="215.52" y2="123.6"/><polyline class="cls-14" points="93.12 120.96 93.84 122.88 96 123.6"/><line class="cls-14" x1="93.12" y1="70.32" x2="93.12" y2="120.96"/><polyline class="cls-14" points="96 67.68 93.84 68.4 93.12 70.32"/><line class="cls-14" x1="215.52" y1="67.68" x2="96" y2="67.68"/><polyline class="cls-14" points="218.4 70.32 217.44 68.4 215.52 67.68"/><line class="cls-14" x1="218.4" y1="120.96" x2="218.4" y2="70.32"/><polyline class="cls-14" points="215.52 123.6 217.44 122.88 218.4 120.96"/><polyline class="cls-15" points="186.72 67.68 186.72 68.88 214.32 68.88 214.32 67.68 186.72 67.68"/><polyline class="cls-15" points="100.56 122.4 100.56 123.6 140.88 123.6 140.88 122.4 100.56 122.4"/><polyline class="cls-15" points="187.2 122.4 187.2 123.6 214.32 123.6 214.32 122.4 187.2 122.4"/><line class="cls-15" x1="95.04" y1="118.32" x2="93.6" y2="118.32"/><line class="cls-15" x1="95.04" y1="72.96" x2="95.04" y2="118.32"/><line class="cls-15" x1="93.6" y1="72.96" x2="95.04" y2="72.96"/><line class="cls-15" x1="93.6" y1="118.32" x2="93.6" y2="72.96"/><line class="cls-15" x1="216.48" y1="118.08" x2="217.92" y2="118.08"/><line class="cls-15" x1="216.48" y1="72.96" x2="216.48" y2="118.08"/><line class="cls-15" x1="217.92" y1="72.96" x2="216.48" y2="72.96"/><line class="cls-15" x1="217.92" y1="118.08" x2="217.92" y2="72.96"/><line class="cls-15" x1="189.84" y1="72.48" x2="213.6" y2="72.48"/><line class="cls-15" x1="189.84" y1="119.04" x2="189.84" y2="72.48"/><line class="cls-15" x1="213.6" y1="119.04" x2="189.84" y2="119.04"/><line class="cls-15" x1="213.6" y1="72.48" x2="213.6" y2="119.04"/><line class="cls-15" x1="98.16" y1="121.44" x2="213.36" y2="121.44"/><polyline class="cls-15" points="95.28 118.8 96 120.72 98.16 121.44"/><line class="cls-15" x1="95.28" y1="72.48" x2="95.28" y2="118.8"/><polyline class="cls-15" points="98.16 69.84 96 70.56 95.28 72.48"/><line class="cls-15" x1="213.36" y1="69.84" x2="98.16" y2="69.84"/><polyline class="cls-15" points="216.24 72.48 215.28 70.56 213.36 69.84"/><line class="cls-15" x1="216.24" y1="118.8" x2="216.24" y2="72.48"/><polyline class="cls-15" points="213.36 121.44 215.28 120.72 216.24 118.8"/><polyline class="cls-15" points="218.4 120.96 218.4 70.32 218.16 69.6 217.92 68.88 217.44 68.4 216.96 67.92 216.24 67.68 215.52 67.68 96 67.68 95.28 67.68 94.56 67.92 93.84 68.4 93.36 68.88 93.12 69.6 93.12 70.32 93.12 120.96 93.12 121.68 93.36 122.4 93.84 122.88 94.56 123.36 95.28 123.6 96 123.6 215.52 123.6 216.24 123.6 216.96 123.36 217.44 122.88 217.92 122.4 218.16 121.68 218.4 120.96"/><polyline class="cls-15" points="183.12 171.84 184.56 172.08 186 172.08"/><polyline class="cls-15" points="204.48 171.84 203.04 172.08 201.6 172.08"/><line class="cls-15" x1="180.48" y1="168.48" x2="180.48" y2="169.2"/><polyline class="cls-15" points="180.48 168.48 180.24 167.04 180.48 165.36"/><polyline class="cls-15" points="183.12 171.84 181.44 170.88 180.48 169.2"/><line class="cls-15" x1="207.12" y1="168.48" x2="207.12" y2="169.2"/><polyline class="cls-15" points="207.12 168.48 207.36 167.04 207.12 165.36"/><polyline class="cls-15" points="204.48 171.84 206.16 170.88 207.12 169.2"/><line class="cls-14" x1="208.08" y1="180" x2="179.52" y2="180"/><polyline class="cls-14" points="208.32 162.72 206.64 160.32 204.72 158.16"/><polyline class="cls-14" points="209.28 167.52 209.04 165.12 208.32 162.72"/><polyline class="cls-14" points="208.08 180 209.04 173.76 209.28 167.52"/><polyline class="cls-14" points="178.32 167.52 178.56 173.76 179.52 180"/><polyline class="cls-14" points="199.92 155.28 196.8 154.56 193.68 154.32"/><polyline class="cls-14" points="204.72 158.16 202.56 156.48 199.92 155.28"/><polyline class="cls-14" points="179.28 162.72 178.56 165.12 178.32 167.52"/><polyline class="cls-14" points="182.88 158.16 180.72 160.32 179.28 162.72"/><polyline class="cls-14" points="187.68 155.28 185.04 156.48 182.88 158.16"/><polyline class="cls-14" points="193.68 154.32 190.8 154.56 187.68 155.28"/><line class="cls-15" x1="179.28" y1="179.04" x2="208.08" y2="179.04"/><polyline class="cls-15" points="208.32 179.04 209.04 173.28 209.28 167.52 209.04 164.88 208.32 162.72 206.64 160.32 204.72 158.16 202.56 156.48 199.92 155.28 196.8 154.56 193.68 154.32 190.8 154.56 187.68 155.28 185.04 156.48 182.88 158.16 180.72 160.32 179.28 162.72 178.56 164.88 178.32 167.52 178.56 173.28 179.28 179.04"/><polyline class="cls-15" points="168.24 180 219.36 180 219.36 179.04 168.24 179.04 168.24 180"/><polyline class="cls-14" points="68.4 265.68 69.12 258 71.76 250.8 75.6 244.32 81.12 239.04 87.6 234.96 94.8 232.56 102.24 231.6"/><polyline class="cls-14" points="99.36 265.68 99.36 231.6 102.24 231.6 102.24 265.68 99.36 265.68"/><polyline class="cls-14" points="68.4 265.68 67.44 255.84 64.8 246.24 60.72 237.12 54.96 228.96 48 222 39.84 216.24 30.72 212.16 21.12 209.52 11.28 208.56"/><polyline class="cls-14" points="14.16 265.68 14.16 208.56 11.28 208.56 11.28 265.68 14.16 265.68"/><polyline class="cls-14" points="102.24 262.32 11.28 262.32 11.28 269.04 102.24 269.04 102.24 262.32 11.28 262.32 11.28 269.04 102.24 269.04 102.24 262.32"/><polyline class="cls-14" points="171.12 11.28 188.16 11.28 222.24 11.28"/><line class="cls-14" x1="188.16" y1="30.96" x2="222.24" y2="30.96"/><line class="cls-14" x1="188.16" y1="11.28" x2="222.24" y2="11.28"/><line class="cls-14" x1="188.16" y1="30.96" x2="188.16" y2="11.28"/><line class="cls-14" x1="222.24" y1="30.96" x2="222.24" y2="11.28"/><polyline class="cls-15" points="188.16 30.96 222.24 30.96 222.24 11.28 188.16 11.28 188.16 30.96"/><line class="cls-15" x1="188.16" y1="11.28" x2="222.24" y2="11.28"/><polyline class="cls-15" points="168.24 11.28 168.96 16.32 170.88 21.12 174 25.2 178.32 28.32 182.88 30.48 188.16 30.96 222.24 30.96"/><line class="cls-15" x1="188.16" y1="11.28" x2="188.16" y2="30.96"/><line class="cls-15" x1="222.24" y1="11.28" x2="222.24" y2="30.96"/><line class="cls-15" x1="168.24" y1="11.28" x2="188.16" y2="11.28"/><line class="cls-16" x1="157.44" y1="183.36" x2="157.44" y2="189.6"/><line class="cls-16" x1="157.44" y1="201.12" x2="157.44" y2="212.4"/><line class="cls-16" x1="157.44" y1="223.68" x2="157.44" y2="234.96"/><line class="cls-16" x1="157.44" y1="246.24" x2="157.44" y2="257.76"/><line class="cls-16" x1="157.44" y1="269.04" x2="157.44" y2="275.28"/><line class="cls-16" x1="225.6" y1="183.36" x2="225.6" y2="189.6"/><line class="cls-16" x1="225.6" y1="201.12" x2="225.6" y2="212.4"/><line class="cls-16" x1="225.6" y1="223.68" x2="225.6" y2="234.96"/><line class="cls-16" x1="225.6" y1="246.24" x2="225.6" y2="257.76"/><line class="cls-16" x1="225.6" y1="269.04" x2="225.6" y2="275.28"/><line class="cls-16" x1="105.36" y1="265.68" x2="105.36" y2="274.08"/><line class="cls-16" x1="105.36" y1="285.6" x2="105.36" y2="294"/><line class="cls-16" x1="4.56" y1="265.68" x2="4.56" y2="276"/><line class="cls-16" x1="4.56" y1="287.52" x2="4.56" y2="298.8"/><line class="cls-16" x1="4.56" y1="310.08" x2="4.56" y2="320.64"/><line class="cls-16" x1="105.36" y1="265.68" x2="120.24" y2="265.68"/><line class="cls-16" x1="131.52" y1="265.68" x2="142.8" y2="265.68"/><line class="cls-16" x1="154.08" y1="265.68" x2="165.36" y2="265.68"/><line class="cls-16" x1="176.88" y1="265.68" x2="188.16" y2="265.68"/><line class="cls-16" x1="199.44" y1="265.68" x2="210.72" y2="265.68"/><line class="cls-16" x1="222.24" y1="265.68" x2="236.88" y2="265.68"/><line class="cls-16" x1="105.12" y1="235.68" x2="120" y2="235.68"/><line class="cls-16" x1="131.28" y1="235.68" x2="142.56" y2="235.68"/><line class="cls-16" x1="154.08" y1="235.68" x2="165.36" y2="235.68"/><line class="cls-16" x1="176.64" y1="235.68" x2="187.92" y2="235.68"/><line class="cls-16" x1="199.2" y1="235.68" x2="210.72" y2="235.68"/><line class="cls-16" x1="222" y1="235.68" x2="236.88" y2="235.68"/><line class="cls-16" x1="225.6" y1="183.36" x2="236.88" y2="183.36"/><line class="cls-16" x1="223.2" y1="7.92" x2="236.88" y2="7.92"/><line class="cls-17" x1="4.56" y1="333.36" x2="225.6" y2="333.36"/><line class="cls-16" x1="225.6" y1="333.36" x2="221.28" y2="337.68"/><line class="cls-16" x1="225.6" y1="333.36" x2="229.68" y2="329.28"/><line class="cls-17" x1="225.6" y1="333.36" x2="225.6" y2="340.56"/><line class="cls-17" x1="225.6" y1="333.36" x2="225.6" y2="319.2"/><line class="cls-16" x1="4.56" y1="333.36" x2="0.24" y2="337.68"/><line class="cls-16" x1="4.56" y1="333.36" x2="8.88" y2="329.28"/><line class="cls-17" x1="4.56" y1="333.36" x2="4.56" y2="340.56"/><line class="cls-17" x1="4.56" y1="333.36" x2="4.56" y2="319.2"/><rect class="cls-18" x="100.56" y="319.92" width="28.56" height="8.88"/><text class="cls-19" transform="translate(100.56 327.12)"><tspan class="cls-20">SP_</tspan><tspan class="cls-21" x="12.26" y="0">W</tspan><tspan class="cls-22" x="18.27" y="0">i</tspan><tspan class="cls-20" x="19.72" y="0">d</tspan><tspan class="cls-23" x="23.32" y="0">t</tspan><tspan x="25" y="0">h</tspan></text><line class="cls-17" x1="254.64" y1="4.32" x2="254.64" y2="183.36"/><line class="cls-16" x1="254.64" y1="183.36" x2="250.32" y2="179.28"/><line class="cls-16" x1="254.64" y1="183.36" x2="258.96" y2="187.68"/><line class="cls-17" x1="254.64" y1="183.36" x2="261.84" y2="183.36"/><line class="cls-17" x1="254.64" y1="183.36" x2="240.48" y2="183.36"/><line class="cls-16" x1="254.64" y1="4.32" x2="250.32" y2="0.24"/><line class="cls-16" x1="254.64" y1="4.32" x2="258.96" y2="8.64"/><line class="cls-17" x1="254.64" y1="4.32" x2="261.84" y2="4.32"/><line class="cls-17" x1="254.64" y1="4.32" x2="240.48" y2="4.32"/><rect class="cls-18" x="241.2" y="75.36" width="9.6" height="37.2"/><text class="cls-19" transform="translate(248.88 112.32) rotate(-90)"><tspan class="cls-24">SP_</tspan><tspan class="cls-25" x="12.27" y="0">D</tspan><tspan class="cls-24" x="17.06" y="0">ep</tspan><tspan class="cls-26" x="24.27" y="0">t</tspan><tspan class="cls-24" x="26.18" y="0">h_</tspan><tspan x="33.38" y="0">1</tspan></text><line class="cls-17" x1="254.64" y1="235.68" x2="254.64" y2="265.68"/><line class="cls-16" x1="254.64" y1="265.68" x2="250.32" y2="261.36"/><line class="cls-16" x1="254.64" y1="265.68" x2="258.96" y2="269.76"/><line class="cls-17" x1="254.64" y1="265.68" x2="261.84" y2="265.68"/><line class="cls-17" x1="254.64" y1="265.68" x2="240.48" y2="265.68"/><line class="cls-16" x1="254.64" y1="235.68" x2="250.32" y2="231.36"/><line class="cls-16" x1="254.64" y1="235.68" x2="258.96" y2="239.76"/><line class="cls-17" x1="254.64" y1="235.68" x2="261.84" y2="235.68"/><line class="cls-17" x1="254.64" y1="235.68" x2="240.48" y2="235.68"/><rect class="cls-18" x="230.16" y="232.08" width="9.6" height="37.2"/><text class="cls-19" transform="translate(237.84 269.04) rotate(-90)"><tspan class="cls-20">SP_</tspan><tspan class="cls-27" x="12.26" y="0">D</tspan><tspan class="cls-20" x="17.06" y="0">ep</tspan><tspan class="cls-28" x="24.26" y="0">t</tspan><tspan class="cls-20" x="26.18" y="0">h_</tspan><tspan x="33.38" y="0">2</tspan></text><line class="cls-17" x1="277.68" y1="4.32" x2="277.68" y2="265.68"/><line class="cls-16" x1="277.68" y1="265.68" x2="273.36" y2="261.36"/><line class="cls-16" x1="277.68" y1="265.68" x2="282" y2="269.76"/><line class="cls-17" x1="277.68" y1="265.68" x2="284.64" y2="265.68"/><line class="cls-17" x1="277.68" y1="265.68" x2="263.52" y2="265.68"/><line class="cls-16" x1="277.68" y1="4.32" x2="273.36" y2="0.24"/><line class="cls-16" x1="277.68" y1="4.32" x2="282" y2="8.64"/><line class="cls-17" x1="277.68" y1="4.32" x2="284.64" y2="4.32"/><line class="cls-17" x1="277.68" y1="4.32" x2="263.52" y2="4.32"/><rect class="cls-18" x="264.24" y="120" width="9.6" height="30"/><text class="cls-29" transform="translate(271.92 149.76) rotate(-90)">SP_<tspan class="cls-25" x="12.27" y="0">D</tspan><tspan x="17.06" y="0">ep</tspan><tspan class="cls-26" x="24.27" y="0">t</tspan><tspan class="cls-30" x="26.18" y="0">h</tspan></text><line class="cls-17" x1="157.44" y1="289.2" x2="225.6" y2="289.2"/><line class="cls-16" x1="225.6" y1="289.2" x2="221.28" y2="293.52"/><line class="cls-16" x1="225.6" y1="289.2" x2="229.68" y2="285.12"/><line class="cls-17" x1="225.6" y1="289.2" x2="225.6" y2="296.4"/><line class="cls-17" x1="225.6" y1="289.2" x2="225.6" y2="275.04"/><line class="cls-16" x1="157.44" y1="289.2" x2="153.36" y2="293.52"/><line class="cls-16" x1="157.44" y1="289.2" x2="161.76" y2="285.12"/><line class="cls-17" x1="157.44" y1="289.2" x2="157.44" y2="296.4"/><line class="cls-17" x1="157.44" y1="289.2" x2="157.44" y2="275.04"/><rect class="cls-18" x="173.52" y="275.76" width="35.76" height="8.88"/><text class="cls-19" transform="translate(173.52 282.96)"><tspan class="cls-20">SP_</tspan><tspan class="cls-21" x="12.26" y="0">W</tspan><tspan class="cls-22" x="18.27" y="0">i</tspan><tspan class="cls-20" x="19.72" y="0">d</tspan><tspan class="cls-23" x="23.32" y="0">t</tspan><tspan class="cls-20" x="25" y="0">h_</tspan><tspan x="32.2" y="0">2</tspan></text><line class="cls-17" x1="105.12" y1="312.24" x2="225.6" y2="312.24"/><line class="cls-16" x1="225.6" y1="312.24" x2="221.28" y2="316.32"/><line class="cls-16" x1="225.6" y1="312.24" x2="229.68" y2="307.92"/><line class="cls-17" x1="225.6" y1="312.24" x2="225.6" y2="319.2"/><line class="cls-17" x1="225.6" y1="312.24" x2="225.6" y2="298.08"/><line class="cls-16" x1="105.12" y1="312.24" x2="100.8" y2="316.32"/><line class="cls-16" x1="105.12" y1="312.24" x2="109.44" y2="307.92"/><line class="cls-17" x1="105.12" y1="312.24" x2="105.12" y2="319.2"/><line class="cls-17" x1="105.12" y1="312.24" x2="105.12" y2="298.08"/><rect class="cls-18" x="147.36" y="298.8" width="35.76" height="8.88"/><text class="cls-19" transform="translate(147.36 306)"><tspan class="cls-20">SP_</tspan><tspan class="cls-21" x="12.26" y="0">W</tspan><tspan class="cls-22" x="18.27" y="0">i</tspan><tspan class="cls-20" x="19.72" y="0">d</tspan><tspan class="cls-23" x="23.32" y="0">t</tspan><tspan class="cls-20" x="25" y="0">h_</tspan><tspan x="32.2" y="0">1</tspan></text><text class="cls-31" transform="translate(32.16 280.32) scale(1 1.01)">D<tspan class="cls-32" x="4.57" y="0">oo</tspan><tspan class="cls-33" x="12.24" y="0">r</tspan><tspan class="cls-34" x="14.4" y="0"> </tspan><tspan class="cls-35" x="16.31" y="0">1</tspan></text></g></g></svg>