<svg xmlns="http://www.w3.org/2000/svg" xmlns:xlink="http://www.w3.org/1999/xlink" viewBox="0 0 228.24 326.88"><defs><style>.cls-1,.cls-15,.cls-16,.cls-17,.cls-18,.cls-2{fill:none;}.cls-1{clip-rule:evenodd;}.cls-3{clip-path:url(#clip-path);}.cls-4{clip-path:url(#clip-path-2);}.cls-5{fill:#c6d3b4;}.cls-12,.cls-6{font-size:4.08px;font-family:ArialMT, Arial;}.cls-12,.cls-7{letter-spacing:-0.03em;}.cls-8{letter-spacing:0.02em;}.cls-9{letter-spacing:-0.09em;}.cls-10{letter-spacing:0.02em;}.cls-11{letter-spacing:-0.03em;}.cls-13{letter-spacing:-0.04em;}.cls-14{letter-spacing:0em;}.cls-15,.cls-16{stroke:#000;}.cls-15,.cls-16,.cls-17,.cls-18{stroke-linecap:round;stroke-linejoin:round;}.cls-15,.cls-18{stroke-width:0.24px;}.cls-16,.cls-17{stroke-width:0.48px;}.cls-17,.cls-18{stroke:red;}.cls-19{fill:#fff;}.cls-20{font-size:8.05px;fill:red;font-family:ArialNarrow, Arial;}.cls-21{letter-spacing:-0.04em;}.cls-22{letter-spacing:-0.02em;}.cls-23{letter-spacing:0.01em;}.cls-24{letter-spacing:-0.02em;}.cls-25{letter-spacing:0.02em;}.cls-26{letter-spacing:-0.01em;}.cls-27{letter-spacing:-0.03em;}.cls-28{letter-spacing:0em;}</style><clipPath id="clip-path" transform="translate(-409.54 -602.4)"><path class="cls-1" d="M504.7,719.64l-.72.24-1,1-.24.72-.24,51.12.24.24v.72H503v.72h.24l.24.24v.48h.24l.24.24.72.24,121.2.24v-.24l.72-.24.72-.72.24-.48.24-53-1.2-1.2-.72-.24M416.62,609.48v288h132v-1.2h11v-1.92h-.24v-1.92h-.24v-1.92h-.24V885l-.24-.24.24-2.64.48-1.44.24-1,.48-.48.24-.48.24-.24.24-.48.24-.24.24-.48,1.92-1.92.48-.24.48-.48.48-.24.72-.72.72-.24,1.92-1,1-.24,2.16-.72h6l2.88.72c2.65.71,5.87,3.63,7.68,5.52v.48H588v.48h.24l.24.24v.48h.24V880h.24v.72h.24v1h.24v1h.24l-.24,7.68L588.7,896l11,.24v1.2h31.2v-288Z"/></clipPath><clipPath id="clip-path-2" transform="translate(-409.54 -602.4)"><rect class="cls-2" width="1684.08" height="1191.12"/></clipPath></defs><title>PushIt - Floor Plan - SP-Room-Bed-Rectangle_Sample_5</title><g id="Layer_2" data-name="Layer 2"><g id="Layer_1-2" data-name="Layer 1"><g class="cls-3"><g class="cls-4"><rect class="cls-5" x="7.08" y="7.08" width="214.32" height="288"/></g></g><text class="cls-6" transform="translate(112.92 147.96)">?</text><text class="cls-6" transform="translate(103.56 160.68)"><tspan class="cls-7">3900</tspan><tspan class="cls-8" x="8.64" y="0"> </tspan><tspan class="cls-9" x="9.84" y="0">x</tspan><tspan class="cls-8" x="11.52" y="0"> </tspan><tspan class="cls-7" x="12.72" y="0">520</tspan><tspan x="19.2" y="0">0</tspan></text><text class="cls-6" transform="translate(109.56 152.28)"><tspan class="cls-7">12</tspan><tspan class="cls-10" x="4.32" y="0">.</tspan><tspan class="cls-11" x="5.52" y="0">0</tspan><tspan x="7.68" y="0">0</tspan></text><text class="cls-12" transform="translate(102.36 156.36)">20<tspan class="cls-10" x="4.32" y="0">.</tspan><tspan class="cls-11" x="5.52" y="0">28</tspan><tspan class="cls-8" x="9.84" y="0"> </tspan><tspan class="cls-13" x="11.04" y="0">(</tspan><tspan x="12.24" y="0">19</tspan><tspan class="cls-8" x="16.55" y="0">.</tspan><tspan x="17.75" y="0">20</tspan><tspan class="cls-14" x="22.07" y="0">)</tspan></text><text class="cls-6" transform="translate(112.92 143.64)">?</text><polyline class="cls-15" points="228.12 0.12 0.12 0.12 0.12 301.8 228.12 301.8 228.12 0.12"/><polyline class="cls-15" points="221.4 295.08 7.08 295.08 7.08 7.08 221.4 7.08 221.4 295.08"/><line class="cls-15" x1="7.08" y1="295.08" x2="9" y2="295.08"/><line class="cls-15" x1="10.68" y1="295.08" x2="12.84" y2="295.08"/><line class="cls-15" x1="14.52" y1="295.08" x2="16.68" y2="295.08"/><line class="cls-15" x1="18.36" y1="295.08" x2="20.52" y2="295.08"/><line class="cls-15" x1="22.2" y1="295.08" x2="24.36" y2="295.08"/><line class="cls-15" x1="26.04" y1="295.08" x2="28.2" y2="295.08"/><line class="cls-15" x1="29.88" y1="295.08" x2="32.04" y2="295.08"/><line class="cls-15" x1="33.72" y1="295.08" x2="35.88" y2="295.08"/><line class="cls-15" x1="37.56" y1="295.08" x2="39.72" y2="295.08"/><line class="cls-15" x1="41.4" y1="295.08" x2="43.56" y2="295.08"/><line class="cls-15" x1="45.24" y1="295.08" x2="47.4" y2="295.08"/><line class="cls-15" x1="49.08" y1="295.08" x2="51.24" y2="295.08"/><line class="cls-15" x1="52.92" y1="295.08" x2="55.08" y2="295.08"/><line class="cls-15" x1="56.76" y1="295.08" x2="58.92" y2="295.08"/><line class="cls-15" x1="60.6" y1="295.08" x2="62.76" y2="295.08"/><line class="cls-15" x1="64.44" y1="295.08" x2="66.6" y2="295.08"/><line class="cls-15" x1="68.28" y1="295.08" x2="70.2" y2="295.08"/><line class="cls-15" x1="72.12" y1="295.08" x2="74.04" y2="295.08"/><line class="cls-15" x1="75.96" y1="295.08" x2="77.88" y2="295.08"/><line class="cls-15" x1="79.56" y1="295.08" x2="81.72" y2="295.08"/><line class="cls-15" x1="83.4" y1="295.08" x2="85.56" y2="295.08"/><line class="cls-15" x1="87.24" y1="295.08" x2="89.4" y2="295.08"/><line class="cls-15" x1="91.08" y1="295.08" x2="93.24" y2="295.08"/><line class="cls-15" x1="94.92" y1="295.08" x2="97.08" y2="295.08"/><line class="cls-15" x1="98.76" y1="295.08" x2="100.92" y2="295.08"/><line class="cls-15" x1="102.6" y1="295.08" x2="104.76" y2="295.08"/><line class="cls-15" x1="106.44" y1="295.08" x2="108.6" y2="295.08"/><line class="cls-15" x1="110.28" y1="295.08" x2="112.44" y2="295.08"/><line class="cls-15" x1="114.12" y1="295.08" x2="116.28" y2="295.08"/><line class="cls-15" x1="117.96" y1="295.08" x2="120.12" y2="295.08"/><line class="cls-15" x1="121.8" y1="295.08" x2="123.96" y2="295.08"/><line class="cls-15" x1="125.64" y1="295.08" x2="127.8" y2="295.08"/><line class="cls-15" x1="129.48" y1="295.08" x2="131.64" y2="295.08"/><line class="cls-15" x1="133.32" y1="295.08" x2="135.48" y2="295.08"/><line class="cls-15" x1="137.16" y1="295.08" x2="139.08" y2="295.08"/><line class="cls-15" x1="190.2" y1="295.08" x2="191.4" y2="295.08"/><line class="cls-15" x1="193.32" y1="295.08" x2="195.24" y2="295.08"/><line class="cls-15" x1="196.92" y1="295.08" x2="199.08" y2="295.08"/><line class="cls-15" x1="200.76" y1="295.08" x2="202.92" y2="295.08"/><line class="cls-15" x1="204.6" y1="295.08" x2="206.76" y2="295.08"/><line class="cls-15" x1="208.44" y1="295.08" x2="210.6" y2="295.08"/><line class="cls-15" x1="212.28" y1="295.08" x2="214.44" y2="295.08"/><line class="cls-15" x1="216.12" y1="295.08" x2="218.28" y2="295.08"/><polyline class="cls-15" points="219.96 295.08 221.4 295.08 221.4 293.4"/><line class="cls-15" x1="221.4" y1="291.72" x2="221.4" y2="289.56"/><line class="cls-15" x1="221.4" y1="287.88" x2="221.4" y2="285.72"/><line class="cls-15" x1="221.4" y1="284.04" x2="221.4" y2="281.88"/><line class="cls-15" x1="221.4" y1="280.2" x2="221.4" y2="278.28"/><line class="cls-15" x1="221.4" y1="276.36" x2="221.4" y2="274.44"/><line class="cls-15" x1="221.4" y1="272.76" x2="221.4" y2="270.6"/><line class="cls-15" x1="221.4" y1="268.92" x2="221.4" y2="266.76"/><line class="cls-15" x1="221.4" y1="265.08" x2="221.4" y2="262.92"/><line class="cls-15" x1="221.4" y1="261.24" x2="221.4" y2="259.08"/><line class="cls-15" x1="221.4" y1="257.4" x2="221.4" y2="255.24"/><line class="cls-15" x1="221.4" y1="253.56" x2="221.4" y2="251.4"/><line class="cls-15" x1="221.4" y1="249.72" x2="221.4" y2="247.56"/><line class="cls-15" x1="221.4" y1="245.88" x2="221.4" y2="243.72"/><line class="cls-15" x1="221.4" y1="242.04" x2="221.4" y2="239.88"/><line class="cls-15" x1="221.4" y1="238.2" x2="221.4" y2="236.04"/><line class="cls-15" x1="221.4" y1="234.36" x2="221.4" y2="232.2"/><line class="cls-15" x1="221.4" y1="230.52" x2="221.4" y2="228.36"/><line class="cls-15" x1="221.4" y1="226.68" x2="221.4" y2="224.52"/><line class="cls-15" x1="221.4" y1="222.84" x2="221.4" y2="220.68"/><line class="cls-15" x1="221.4" y1="219" x2="221.4" y2="216.84"/><line class="cls-15" x1="221.4" y1="215.16" x2="221.4" y2="213"/><line class="cls-15" x1="221.4" y1="211.32" x2="221.4" y2="209.4"/><line class="cls-15" x1="221.4" y1="207.48" x2="221.4" y2="205.56"/><line class="cls-15" x1="221.4" y1="203.64" x2="221.4" y2="201.72"/><line class="cls-15" x1="221.4" y1="200.04" x2="221.4" y2="197.88"/><line class="cls-15" x1="221.4" y1="196.2" x2="221.4" y2="194.04"/><line class="cls-15" x1="221.4" y1="192.36" x2="221.4" y2="190.2"/><line class="cls-15" x1="221.4" y1="188.52" x2="221.4" y2="186.36"/><line class="cls-15" x1="221.4" y1="184.68" x2="221.4" y2="182.52"/><line class="cls-15" x1="221.4" y1="180.84" x2="221.4" y2="178.68"/><line class="cls-15" x1="221.4" y1="177" x2="221.4" y2="174.84"/><line class="cls-15" x1="221.4" y1="173.16" x2="221.4" y2="171"/><line class="cls-15" x1="221.4" y1="169.32" x2="221.4" y2="167.16"/><line class="cls-15" x1="221.4" y1="165.48" x2="221.4" y2="163.32"/><line class="cls-15" x1="221.4" y1="161.64" x2="221.4" y2="159.48"/><line class="cls-15" x1="221.4" y1="157.8" x2="221.4" y2="155.64"/><line class="cls-15" x1="221.4" y1="153.96" x2="221.4" y2="151.8"/><line class="cls-15" x1="221.4" y1="150.12" x2="221.4" y2="147.96"/><line class="cls-15" x1="221.4" y1="146.28" x2="221.4" y2="144.12"/><line class="cls-15" x1="221.4" y1="142.44" x2="221.4" y2="140.28"/><line class="cls-15" x1="221.4" y1="138.6" x2="221.4" y2="136.68"/><line class="cls-15" x1="221.4" y1="134.76" x2="221.4" y2="132.84"/><line class="cls-15" x1="221.4" y1="130.92" x2="221.4" y2="129"/><line class="cls-15" x1="221.4" y1="127.32" x2="221.4" y2="125.16"/><line class="cls-15" x1="221.4" y1="123.48" x2="221.4" y2="121.32"/><line class="cls-15" x1="221.4" y1="119.64" x2="221.4" y2="117.48"/><line class="cls-15" x1="221.4" y1="115.8" x2="221.4" y2="113.64"/><line class="cls-15" x1="221.4" y1="111.96" x2="221.4" y2="109.8"/><line class="cls-15" x1="221.4" y1="108.12" x2="221.4" y2="105.96"/><line class="cls-15" x1="221.4" y1="104.28" x2="221.4" y2="102.12"/><line class="cls-15" x1="221.4" y1="100.44" x2="221.4" y2="98.28"/><line class="cls-15" x1="221.4" y1="96.6" x2="221.4" y2="94.44"/><line class="cls-15" x1="221.4" y1="92.76" x2="221.4" y2="90.6"/><line class="cls-15" x1="221.4" y1="88.92" x2="221.4" y2="86.76"/><line class="cls-15" x1="221.4" y1="85.08" x2="221.4" y2="82.92"/><line class="cls-15" x1="221.4" y1="81.24" x2="221.4" y2="79.08"/><line class="cls-15" x1="221.4" y1="77.4" x2="221.4" y2="75.24"/><line class="cls-15" x1="221.4" y1="73.56" x2="221.4" y2="71.4"/><line class="cls-15" x1="221.4" y1="69.72" x2="221.4" y2="67.8"/><line class="cls-15" x1="221.4" y1="65.88" x2="221.4" y2="63.96"/><line class="cls-15" x1="221.4" y1="62.04" x2="221.4" y2="60.12"/><line class="cls-15" x1="221.4" y1="58.44" x2="221.4" y2="56.28"/><line class="cls-15" x1="221.4" y1="54.6" x2="221.4" y2="52.44"/><line class="cls-15" x1="221.4" y1="50.76" x2="221.4" y2="48.6"/><line class="cls-15" x1="221.4" y1="46.92" x2="221.4" y2="44.76"/><line class="cls-15" x1="221.4" y1="43.08" x2="221.4" y2="40.92"/><line class="cls-15" x1="221.4" y1="39.24" x2="221.4" y2="37.08"/><line class="cls-15" x1="221.4" y1="35.4" x2="221.4" y2="33.24"/><line class="cls-15" x1="221.4" y1="31.56" x2="221.4" y2="29.4"/><line class="cls-15" x1="221.4" y1="27.72" x2="221.4" y2="25.56"/><line class="cls-15" x1="221.4" y1="23.88" x2="221.4" y2="21.72"/><line class="cls-15" x1="221.4" y1="20.04" x2="221.4" y2="17.88"/><line class="cls-15" x1="221.4" y1="16.2" x2="221.4" y2="14.04"/><line class="cls-15" x1="221.4" y1="12.36" x2="221.4" y2="10.2"/><polyline class="cls-15" points="221.4 8.52 221.4 7.08 220.2 7.08"/><line class="cls-15" x1="218.52" y1="7.08" x2="216.36" y2="7.08"/><line class="cls-15" x1="214.68" y1="7.08" x2="212.52" y2="7.08"/><line class="cls-15" x1="210.84" y1="7.08" x2="208.68" y2="7.08"/><line class="cls-15" x1="207" y1="7.08" x2="205.08" y2="7.08"/><line class="cls-15" x1="203.16" y1="7.08" x2="201.24" y2="7.08"/><line class="cls-15" x1="199.56" y1="7.08" x2="197.4" y2="7.08"/><line class="cls-15" x1="195.72" y1="7.08" x2="193.56" y2="7.08"/><line class="cls-15" x1="191.88" y1="7.08" x2="189.72" y2="7.08"/><line class="cls-15" x1="188.04" y1="7.08" x2="185.88" y2="7.08"/><line class="cls-15" x1="184.2" y1="7.08" x2="182.04" y2="7.08"/><line class="cls-15" x1="180.36" y1="7.08" x2="178.2" y2="7.08"/><line class="cls-15" x1="176.52" y1="7.08" x2="174.36" y2="7.08"/><line class="cls-15" x1="172.68" y1="7.08" x2="170.52" y2="7.08"/><line class="cls-15" x1="168.84" y1="7.08" x2="166.68" y2="7.08"/><line class="cls-15" x1="165" y1="7.08" x2="162.84" y2="7.08"/><line class="cls-15" x1="161.16" y1="7.08" x2="159" y2="7.08"/><line class="cls-15" x1="157.32" y1="7.08" x2="155.16" y2="7.08"/><line class="cls-15" x1="153.48" y1="7.08" x2="151.32" y2="7.08"/><line class="cls-15" x1="149.64" y1="7.08" x2="147.48" y2="7.08"/><line class="cls-15" x1="145.8" y1="7.08" x2="143.64" y2="7.08"/><line class="cls-15" x1="141.96" y1="7.08" x2="139.8" y2="7.08"/><line class="cls-15" x1="138.12" y1="7.08" x2="136.2" y2="7.08"/><line class="cls-15" x1="134.28" y1="7.08" x2="132.36" y2="7.08"/><line class="cls-15" x1="130.44" y1="7.08" x2="128.52" y2="7.08"/><line class="cls-15" x1="126.84" y1="7.08" x2="124.68" y2="7.08"/><line class="cls-15" x1="123" y1="7.08" x2="120.84" y2="7.08"/><line class="cls-15" x1="119.16" y1="7.08" x2="117" y2="7.08"/><line class="cls-15" x1="115.32" y1="7.08" x2="113.16" y2="7.08"/><line class="cls-15" x1="111.48" y1="7.08" x2="109.32" y2="7.08"/><line class="cls-15" x1="107.64" y1="7.08" x2="105.48" y2="7.08"/><line class="cls-15" x1="103.8" y1="7.08" x2="101.64" y2="7.08"/><line class="cls-15" x1="99.96" y1="7.08" x2="97.8" y2="7.08"/><line class="cls-15" x1="96.12" y1="7.08" x2="93.96" y2="7.08"/><line class="cls-15" x1="92.28" y1="7.08" x2="90.12" y2="7.08"/><line class="cls-15" x1="88.44" y1="7.08" x2="86.28" y2="7.08"/><line class="cls-15" x1="84.6" y1="7.08" x2="82.44" y2="7.08"/><line class="cls-15" x1="80.76" y1="7.08" x2="78.6" y2="7.08"/><line class="cls-15" x1="76.92" y1="7.08" x2="74.76" y2="7.08"/><line class="cls-15" x1="73.08" y1="7.08" x2="70.92" y2="7.08"/><line class="cls-15" x1="69.24" y1="7.08" x2="67.08" y2="7.08"/><line class="cls-15" x1="65.4" y1="7.08" x2="63.48" y2="7.08"/><line class="cls-15" x1="61.56" y1="7.08" x2="59.64" y2="7.08"/><line class="cls-15" x1="57.96" y1="7.08" x2="55.8" y2="7.08"/><line class="cls-15" x1="54.12" y1="7.08" x2="51.96" y2="7.08"/><line class="cls-15" x1="50.28" y1="7.08" x2="48.12" y2="7.08"/><line class="cls-15" x1="46.44" y1="7.08" x2="44.28" y2="7.08"/><line class="cls-15" x1="42.6" y1="7.08" x2="40.44" y2="7.08"/><line class="cls-15" x1="38.76" y1="7.08" x2="36.6" y2="7.08"/><line class="cls-15" x1="34.92" y1="7.08" x2="32.76" y2="7.08"/><line class="cls-15" x1="31.08" y1="7.08" x2="28.92" y2="7.08"/><line class="cls-15" x1="27.24" y1="7.08" x2="25.08" y2="7.08"/><line class="cls-15" x1="23.4" y1="7.08" x2="21.24" y2="7.08"/><line class="cls-15" x1="19.56" y1="7.08" x2="17.4" y2="7.08"/><line class="cls-15" x1="15.72" y1="7.08" x2="13.56" y2="7.08"/><line class="cls-15" x1="11.88" y1="7.08" x2="9.72" y2="7.08"/><polyline class="cls-15" points="8.04 7.08 7.08 7.08 7.08 8.52"/><line class="cls-15" x1="7.08" y1="10.2" x2="7.08" y2="12.36"/><line class="cls-15" x1="7.08" y1="14.04" x2="7.08" y2="16.2"/><line class="cls-15" x1="7.08" y1="17.88" x2="7.08" y2="20.04"/><line class="cls-15" x1="7.08" y1="21.72" x2="7.08" y2="23.88"/><line class="cls-15" x1="7.08" y1="25.56" x2="7.08" y2="27.72"/><line class="cls-15" x1="7.08" y1="29.4" x2="7.08" y2="31.56"/><line class="cls-15" x1="7.08" y1="33.24" x2="7.08" y2="35.4"/><line class="cls-15" x1="7.08" y1="37.08" x2="7.08" y2="39.24"/><line class="cls-15" x1="7.08" y1="40.92" x2="7.08" y2="43.08"/><line class="cls-15" x1="7.08" y1="44.76" x2="7.08" y2="46.92"/><line class="cls-15" x1="7.08" y1="48.6" x2="7.08" y2="50.76"/><line class="cls-15" x1="7.08" y1="52.44" x2="7.08" y2="54.6"/><line class="cls-15" x1="7.08" y1="56.28" x2="7.08" y2="58.44"/><line class="cls-15" x1="7.08" y1="60.12" x2="7.08" y2="62.04"/><line class="cls-15" x1="7.08" y1="63.96" x2="7.08" y2="65.88"/><line class="cls-15" x1="7.08" y1="67.8" x2="7.08" y2="69.72"/><line class="cls-15" x1="7.08" y1="71.4" x2="7.08" y2="73.56"/><line class="cls-15" x1="7.08" y1="75.24" x2="7.08" y2="77.4"/><line class="cls-15" x1="7.08" y1="79.08" x2="7.08" y2="81.24"/><line class="cls-15" x1="7.08" y1="82.92" x2="7.08" y2="85.08"/><line class="cls-15" x1="7.08" y1="86.76" x2="7.08" y2="88.92"/><line class="cls-15" x1="7.08" y1="90.6" x2="7.08" y2="92.76"/><line class="cls-15" x1="7.08" y1="94.44" x2="7.08" y2="96.6"/><line class="cls-15" x1="7.08" y1="98.28" x2="7.08" y2="100.44"/><line class="cls-15" x1="7.08" y1="102.12" x2="7.08" y2="104.28"/><line class="cls-15" x1="7.08" y1="105.96" x2="7.08" y2="108.12"/><line class="cls-15" x1="7.08" y1="109.8" x2="7.08" y2="111.96"/><line class="cls-15" x1="7.08" y1="113.64" x2="7.08" y2="115.8"/><line class="cls-15" x1="7.08" y1="117.48" x2="7.08" y2="119.64"/><line class="cls-15" x1="7.08" y1="121.32" x2="7.08" y2="123.48"/><line class="cls-15" x1="7.08" y1="125.16" x2="7.08" y2="127.32"/><line class="cls-15" x1="7.08" y1="129" x2="7.08" y2="130.92"/><line class="cls-15" x1="7.08" y1="132.84" x2="7.08" y2="134.76"/><line class="cls-15" x1="7.08" y1="136.68" x2="7.08" y2="138.6"/><line class="cls-15" x1="7.08" y1="140.28" x2="7.08" y2="142.44"/><line class="cls-15" x1="7.08" y1="144.12" x2="7.08" y2="146.28"/><line class="cls-15" x1="7.08" y1="147.96" x2="7.08" y2="150.12"/><line class="cls-15" x1="7.08" y1="151.8" x2="7.08" y2="153.96"/><line class="cls-15" x1="7.08" y1="155.64" x2="7.08" y2="157.8"/><line class="cls-15" x1="7.08" y1="159.48" x2="7.08" y2="161.64"/><line class="cls-15" x1="7.08" y1="163.32" x2="7.08" y2="165.48"/><line class="cls-15" x1="7.08" y1="167.16" x2="7.08" y2="169.32"/><line class="cls-15" x1="7.08" y1="171" x2="7.08" y2="173.16"/><line class="cls-15" x1="7.08" y1="174.84" x2="7.08" y2="177"/><line class="cls-15" x1="7.08" y1="178.68" x2="7.08" y2="180.84"/><line class="cls-15" x1="7.08" y1="182.52" x2="7.08" y2="184.68"/><line class="cls-15" x1="7.08" y1="186.36" x2="7.08" y2="188.52"/><line class="cls-15" x1="7.08" y1="190.2" x2="7.08" y2="192.36"/><line class="cls-15" x1="7.08" y1="194.04" x2="7.08" y2="196.2"/><line class="cls-15" x1="7.08" y1="197.88" x2="7.08" y2="200.04"/><line class="cls-15" x1="7.08" y1="201.72" x2="7.08" y2="203.64"/><line class="cls-15" x1="7.08" y1="205.56" x2="7.08" y2="207.48"/><line class="cls-15" x1="7.08" y1="209.4" x2="7.08" y2="211.32"/><line class="cls-15" x1="7.08" y1="213" x2="7.08" y2="215.16"/><line class="cls-15" x1="7.08" y1="216.84" x2="7.08" y2="219"/><line class="cls-15" x1="7.08" y1="220.68" x2="7.08" y2="222.84"/><line class="cls-15" x1="7.08" y1="224.52" x2="7.08" y2="226.68"/><line class="cls-15" x1="7.08" y1="228.36" x2="7.08" y2="230.52"/><line class="cls-15" x1="7.08" y1="232.2" x2="7.08" y2="234.36"/><line class="cls-15" x1="7.08" y1="236.04" x2="7.08" y2="238.2"/><line class="cls-15" x1="7.08" y1="239.88" x2="7.08" y2="242.04"/><line class="cls-15" x1="7.08" y1="243.72" x2="7.08" y2="245.88"/><line class="cls-15" x1="7.08" y1="247.56" x2="7.08" y2="249.72"/><line class="cls-15" x1="7.08" y1="251.4" x2="7.08" y2="253.56"/><line class="cls-15" x1="7.08" y1="255.24" x2="7.08" y2="257.4"/><line class="cls-15" x1="7.08" y1="259.08" x2="7.08" y2="261.24"/><line class="cls-15" x1="7.08" y1="262.92" x2="7.08" y2="265.08"/><line class="cls-15" x1="7.08" y1="266.76" x2="7.08" y2="268.92"/><line class="cls-15" x1="7.08" y1="270.6" x2="7.08" y2="272.76"/><line class="cls-15" x1="7.08" y1="274.44" x2="7.08" y2="276.36"/><line class="cls-15" x1="7.08" y1="278.28" x2="7.08" y2="280.2"/><line class="cls-15" x1="7.08" y1="281.88" x2="7.08" y2="284.04"/><line class="cls-15" x1="7.08" y1="285.72" x2="7.08" y2="287.88"/><line class="cls-15" x1="7.08" y1="289.56" x2="7.08" y2="291.72"/><line class="cls-15" x1="7.08" y1="293.4" x2="7.08" y2="295.08"/><polyline class="cls-16" points="153.96 286.68 155.4 286.92 156.84 287.16"/><polyline class="cls-16" points="175.32 286.68 173.88 286.92 172.44 287.16"/><line class="cls-16" x1="151.32" y1="283.56" x2="151.32" y2="284.04"/><polyline class="cls-16" points="151.32 283.56 151.08 281.88 151.32 280.44"/><polyline class="cls-16" points="153.96 286.68 152.28 285.72 151.32 284.04"/><line class="cls-16" x1="177.96" y1="283.56" x2="177.96" y2="284.04"/><polyline class="cls-16" points="177.96 283.56 178.2 281.88 177.96 280.44"/><polyline class="cls-16" points="175.32 286.68 177 285.72 177.96 284.04"/><line class="cls-15" x1="178.92" y1="295.08" x2="150.36" y2="295.08"/><polyline class="cls-15" points="179.16 277.56 177.72 275.16 175.56 273.24"/><polyline class="cls-15" points="180.12 282.6 179.88 279.96 179.16 277.56"/><polyline class="cls-15" points="178.92 295.08 179.88 288.84 180.12 282.6"/><polyline class="cls-15" points="149.16 282.6 149.4 288.84 150.36 295.08"/><polyline class="cls-15" points="170.76 270.36 167.64 269.4 164.76 269.16"/><polyline class="cls-15" points="175.56 273.24 173.4 271.56 170.76 270.36"/><polyline class="cls-15" points="150.12 277.56 149.4 279.96 149.16 282.6"/><polyline class="cls-15" points="153.72 273.24 151.8 275.16 150.12 277.56"/><polyline class="cls-15" points="158.52 270.36 155.88 271.56 153.72 273.24"/><polyline class="cls-15" points="164.76 269.16 161.64 269.4 158.52 270.36"/><polyline class="cls-16" points="150.12 293.88 179.16 293.88 179.88 288.12 180.12 282.6 179.88 279.96 179.16 277.56 177.72 275.16 175.56 273.24 173.4 271.56 170.76 270.36 167.64 269.4 164.76 269.16 161.64 269.4 158.52 270.36 155.88 271.56 153.72 273.24 151.8 275.16 150.12 277.56 149.4 279.96 149.16 282.6 149.4 288.12 150.12 293.88"/><polyline class="cls-16" points="139.08 295.08 190.2 295.08 190.2 293.88 139.08 293.88 139.08 295.08"/><line class="cls-15" x1="95.88" y1="173.4" x2="215.64" y2="173.4"/><polyline class="cls-15" points="93 170.52 93.96 172.68 95.88 173.4"/><line class="cls-15" x1="93" y1="120.12" x2="93" y2="170.52"/><polyline class="cls-15" points="95.88 117.24 93.96 118.2 93 120.12"/><line class="cls-15" x1="215.64" y1="117.24" x2="95.88" y2="117.24"/><polyline class="cls-15" points="218.28 120.12 217.56 118.2 215.64 117.24"/><line class="cls-15" x1="218.28" y1="170.52" x2="218.28" y2="120.12"/><polyline class="cls-15" points="215.64 173.4 217.56 172.68 218.28 170.52"/><polyline class="cls-16" points="186.84 117.24 186.84 118.68 214.2 118.68 214.2 117.24 186.84 117.24"/><polyline class="cls-16" points="100.68 171.96 100.68 173.4 141 173.4 141 171.96 100.68 171.96"/><polyline class="cls-16" points="187.08 171.96 187.08 173.4 214.44 173.4 214.44 171.96 187.08 171.96"/><line class="cls-16" x1="94.92" y1="168.12" x2="93.48" y2="168.12"/><line class="cls-16" x1="94.92" y1="122.76" x2="94.92" y2="168.12"/><line class="cls-16" x1="93.48" y1="122.76" x2="94.92" y2="122.76"/><line class="cls-16" x1="93.48" y1="168.12" x2="93.48" y2="122.76"/><line class="cls-16" x1="216.6" y1="167.88" x2="218.04" y2="167.88"/><line class="cls-16" x1="216.6" y1="122.76" x2="216.6" y2="167.88"/><line class="cls-16" x1="218.04" y1="122.76" x2="216.6" y2="122.76"/><line class="cls-16" x1="218.04" y1="167.88" x2="218.04" y2="122.76"/><line class="cls-16" x1="189.96" y1="122.28" x2="213.72" y2="122.28"/><line class="cls-16" x1="189.96" y1="168.84" x2="189.96" y2="122.28"/><line class="cls-16" x1="213.72" y1="168.84" x2="189.96" y2="168.84"/><line class="cls-16" x1="213.72" y1="122.28" x2="213.72" y2="168.84"/><line class="cls-16" x1="98.04" y1="171.24" x2="213.48" y2="171.24"/><polyline class="cls-16" points="95.16 168.36 96.12 170.52 98.04 171.24"/><line class="cls-16" x1="95.16" y1="122.28" x2="95.16" y2="168.36"/><polyline class="cls-16" points="98.04 119.4 96.12 120.36 95.16 122.28"/><line class="cls-16" x1="213.48" y1="119.4" x2="98.04" y2="119.4"/><polyline class="cls-16" points="216.12 122.28 215.4 120.36 213.48 119.4"/><line class="cls-16" x1="216.12" y1="168.36" x2="216.12" y2="122.28"/><polyline class="cls-16" points="213.48 171.24 215.4 170.52 216.12 168.36"/><polyline class="cls-16" points="218.28 170.52 218.28 120.12 218.28 119.4 218.04 118.68 217.56 118.2 217.08 117.72 216.36 117.48 215.64 117.24 95.88 117.24 95.16 117.48 94.44 117.72 93.96 118.2 93.48 118.68 93.24 119.4 93 120.12 93 170.52 93.24 171.24 93.48 171.96 93.96 172.68 94.44 173.16 95.16 173.4 95.88 173.4 215.64 173.4 216.36 173.4 217.08 173.16 217.56 172.68 218.04 171.96 218.28 171.24 218.28 170.52"/><polyline class="cls-15" points="69.48 298.44 70.2 290.76 72.84 283.56 76.92 277.32 82.2 271.8 88.68 267.72 95.88 265.32 103.32 264.36"/><polyline class="cls-15" points="100.68 298.44 100.68 264.36 103.32 264.36 103.32 298.44 100.68 298.44"/><polyline class="cls-15" points="69.48 298.44 68.52 289.56 66.36 280.92 62.52 273 57.48 265.56 51.24 259.32 43.8 254.28 35.88 250.44 27.24 248.28 18.36 247.32"/><polyline class="cls-15" points="21.24 298.44 21.24 247.32 18.36 247.32 18.36 298.44 21.24 298.44"/><polyline class="cls-15" points="103.32 295.08 18.36 295.08 18.36 301.8 103.32 301.8 103.32 295.08 18.36 295.08 18.36 301.8 103.32 301.8 103.32 295.08"/><line class="cls-17" x1="164.76" y1="264.36" x2="164.76" y2="274.92"/><line class="cls-17" x1="164.76" y1="286.44" x2="164.76" y2="297.72"/><line class="cls-17" x1="164.76" y1="309" x2="164.76" y2="319.56"/><line class="cls-18" x1="164.76" y1="319.56" x2="221.4" y2="319.56"/><line class="cls-17" x1="221.4" y1="319.56" x2="217.08" y2="323.88"/><line class="cls-17" x1="221.4" y1="319.56" x2="225.48" y2="315.24"/><line class="cls-18" x1="221.4" y1="319.56" x2="221.4" y2="326.76"/><line class="cls-18" x1="221.4" y1="319.56" x2="221.4" y2="305.4"/><line class="cls-17" x1="164.76" y1="319.56" x2="160.44" y2="323.88"/><line class="cls-17" x1="164.76" y1="319.56" x2="168.84" y2="315.24"/><line class="cls-18" x1="164.76" y1="319.56" x2="164.76" y2="326.76"/><line class="cls-18" x1="164.76" y1="319.56" x2="164.76" y2="305.4"/><rect class="cls-19" x="174.84" y="306.12" width="36" height="8.88"/><text class="cls-20" transform="translate(174.84 313.32)"><tspan class="cls-21">O</tspan><tspan class="cls-22" x="4.8" y="0">f</tspan><tspan class="cls-23" x="6.49" y="0">f</tspan><tspan class="cls-24" x="8.4" y="0">s</tspan><tspan class="cls-25" x="11.53" y="0">e</tspan><tspan class="cls-22" x="15.36" y="0">t</tspan><tspan class="cls-26" x="17.05" y="0">_</tspan><tspan x="20.65" y="0">W</tspan><tspan class="cls-27" x="26.88" y="0">H</tspan><tspan class="cls-28" x="31.45" y="0">B</tspan></text></g></g></svg>