<svg xmlns="http://www.w3.org/2000/svg" xmlns:xlink="http://www.w3.org/1999/xlink" viewBox="0 0 310.92 267.52"><defs><style>.cls-1,.cls-14,.cls-15,.cls-16,.cls-17,.cls-2{fill:none;}.cls-1{clip-rule:evenodd;}.cls-3{clip-path:url(#clip-path);}.cls-4{clip-path:url(#clip-path-2);}.cls-5{fill:#c6d3b4;}.cls-11,.cls-6{font-size:4.08px;font-family:ArialMT, Arial;}.cls-11,.cls-7{letter-spacing:-0.03em;}.cls-8{letter-spacing:0.02em;}.cls-9{letter-spacing:-0.09em;}.cls-10{letter-spacing:0.02em;}.cls-12{letter-spacing:-0.04em;}.cls-13{letter-spacing:0em;}.cls-14,.cls-15{stroke:#000;}.cls-14,.cls-15,.cls-16,.cls-17{stroke-linecap:round;stroke-linejoin:round;}.cls-14,.cls-17{stroke-width:0.24px;}.cls-15,.cls-16{stroke-width:0.48px;}.cls-16,.cls-17{stroke:red;}.cls-18{fill:#fff;}.cls-19{font-size:8.05px;fill:red;font-family:ArialNarrow, Arial;}.cls-20{letter-spacing:-0.01em;}.cls-21{letter-spacing:0.01em;}.cls-22{letter-spacing:-0.02em;}.cls-23{letter-spacing:-0.01em;}.cls-24{letter-spacing:-0.04em;}.cls-25{letter-spacing:0em;}.cls-26{letter-spacing:0em;}.cls-27{letter-spacing:0em;}.cls-28{letter-spacing:0.01em;}.cls-29{letter-spacing:-0.01em;}.cls-30{letter-spacing:0.01em;}.cls-31{letter-spacing:0em;}</style><clipPath id="clip-path" transform="translate(-532.54 -173.36)"><path class="cls-1" d="M675.34,239.16l-.48.24-.24.24-.48.24-.48.48-.24.72V293.4h.24v.48h.24l.24.24v.48h.48l.24.24.48.24,121.2.24v-.24l.72-.24.72-.72.48-1,.24-51.84h-.24v-.72l-1.2-1.2-.72-.24m-208.32-56.4v2.88h1v10.8l5.76-.72h8.16a13.6,13.6,0,0,1,7.68,4.8V201H611l.24.24v.48h.24l.24.24v.48H612v.48h.24v.48h.24v.48h.24v.48h.24v.72h.24v1h.24v1.2h.24v1.2h.24l-.24,5.52-.24,1.2a13.59,13.59,0,0,1-5,8.4l-.48.24-.48.48c-.91.43-1.59,1.26-2.64,1.44l-1.92.48-7.92.24v-.24l-3.84-.48h-1.92v11h-1V434H682.3V405.72l54-54h66.24v-149H768.46V182.76Z"/></clipPath><clipPath id="clip-path-2" transform="translate(-532.54 -173.36)"><rect class="cls-2" width="1684.08" height="1191.12"/></clipPath></defs><title>PushIt - Floor Plan - SP-Room-Bed_Sample_4</title><g id="Layer_2" data-name="Layer 2"><g id="Layer_1-2" data-name="Layer 1"><g class="cls-3"><g class="cls-4"><rect class="cls-5" x="55.68" y="9.4" width="214.32" height="251.28"/></g></g><text class="cls-6" transform="translate(171.84 129.4)">?</text><text class="cls-6" transform="translate(162.24 142.12)"><tspan class="cls-7">3900</tspan><tspan class="cls-8" x="8.64" y="0"> </tspan><tspan class="cls-9" x="9.84" y="0">x</tspan><tspan class="cls-10" x="11.52" y="0"> </tspan><tspan class="cls-7" x="12.72" y="0">455</tspan><tspan x="19.2" y="0">0</tspan></text><text class="cls-6" transform="translate(169.68 133.72)"><tspan class="cls-7">5</tspan><tspan class="cls-10" x="2.16" y="0">.</tspan><tspan class="cls-7" x="3.36" y="0">5</tspan><tspan x="5.52" y="0">0</tspan></text><text class="cls-11" transform="translate(161.04 137.8)">15<tspan class="cls-8" x="4.32" y="0">.</tspan><tspan x="5.52" y="0">09</tspan><tspan class="cls-8" x="9.84" y="0"> </tspan><tspan class="cls-12" x="11.04" y="0">(</tspan><tspan x="12.24" y="0">14</tspan><tspan class="cls-8" x="16.55" y="0">.</tspan><tspan x="17.75" y="0">09</tspan><tspan class="cls-13" x="22.07" y="0">)</tspan></text><text class="cls-6" transform="translate(171.84 125.08)">?</text><polyline class="cls-14" points="276.72 2.68 48.72 2.68 48.72 267.4 156.48 267.4 156.48 235.48 206.64 185.32 276.72 185.32 276.72 2.68"/><polyline class="cls-14" points="149.76 260.68 55.68 260.68 55.68 9.4 270 9.4 270 178.36 203.76 178.36 149.76 232.6 149.76 260.68"/><line class="cls-14" x1="55.68" y1="9.4" x2="55.68" y2="12.28"/><line class="cls-14" x1="55.68" y1="63.4" x2="55.68" y2="65.56"/><line class="cls-14" x1="55.68" y1="67.24" x2="55.68" y2="69.16"/><line class="cls-14" x1="55.68" y1="71.08" x2="55.68" y2="73"/><line class="cls-14" x1="55.68" y1="74.92" x2="55.68" y2="76.84"/><line class="cls-14" x1="55.68" y1="78.52" x2="55.68" y2="80.68"/><line class="cls-14" x1="55.68" y1="82.36" x2="55.68" y2="84.52"/><line class="cls-14" x1="55.68" y1="86.2" x2="55.68" y2="88.36"/><line class="cls-14" x1="55.68" y1="90.04" x2="55.68" y2="92.2"/><line class="cls-14" x1="55.68" y1="93.88" x2="55.68" y2="96.04"/><line class="cls-14" x1="55.68" y1="97.72" x2="55.68" y2="99.88"/><line class="cls-14" x1="55.68" y1="101.56" x2="55.68" y2="103.72"/><line class="cls-14" x1="55.68" y1="105.4" x2="55.68" y2="107.56"/><line class="cls-14" x1="55.68" y1="109.24" x2="55.68" y2="111.4"/><line class="cls-14" x1="55.68" y1="113.08" x2="55.68" y2="115.24"/><line class="cls-14" x1="55.68" y1="116.92" x2="55.68" y2="119.08"/><line class="cls-14" x1="55.68" y1="120.76" x2="55.68" y2="122.92"/><line class="cls-14" x1="55.68" y1="124.6" x2="55.68" y2="126.76"/><line class="cls-14" x1="55.68" y1="128.44" x2="55.68" y2="130.6"/><line class="cls-14" x1="55.68" y1="132.28" x2="55.68" y2="134.44"/><line class="cls-14" x1="55.68" y1="136.12" x2="55.68" y2="138.28"/><line class="cls-14" x1="55.68" y1="139.96" x2="55.68" y2="141.88"/><line class="cls-14" x1="55.68" y1="143.8" x2="55.68" y2="145.72"/><line class="cls-14" x1="55.68" y1="147.64" x2="55.68" y2="149.56"/><line class="cls-14" x1="55.68" y1="151.24" x2="55.68" y2="153.4"/><line class="cls-14" x1="55.68" y1="155.08" x2="55.68" y2="157.24"/><line class="cls-14" x1="55.68" y1="158.92" x2="55.68" y2="161.08"/><line class="cls-14" x1="55.68" y1="162.76" x2="55.68" y2="164.92"/><line class="cls-14" x1="55.68" y1="166.6" x2="55.68" y2="168.76"/><line class="cls-14" x1="55.68" y1="170.44" x2="55.68" y2="172.6"/><line class="cls-14" x1="55.68" y1="174.28" x2="55.68" y2="176.44"/><line class="cls-14" x1="55.68" y1="178.12" x2="55.68" y2="180.28"/><line class="cls-14" x1="55.68" y1="181.96" x2="55.68" y2="184.12"/><line class="cls-14" x1="55.68" y1="185.8" x2="55.68" y2="187.96"/><line class="cls-14" x1="55.68" y1="189.64" x2="55.68" y2="191.8"/><line class="cls-14" x1="55.68" y1="193.48" x2="55.68" y2="195.64"/><line class="cls-14" x1="55.68" y1="197.32" x2="55.68" y2="199.48"/><line class="cls-14" x1="55.68" y1="201.16" x2="55.68" y2="203.32"/><line class="cls-14" x1="55.68" y1="205" x2="55.68" y2="207.16"/><line class="cls-14" x1="55.68" y1="208.84" x2="55.68" y2="210.76"/><line class="cls-14" x1="55.68" y1="212.68" x2="55.68" y2="214.6"/><line class="cls-14" x1="55.68" y1="216.52" x2="55.68" y2="218.44"/><line class="cls-14" x1="55.68" y1="220.12" x2="55.68" y2="222.28"/><line class="cls-14" x1="55.68" y1="223.96" x2="55.68" y2="226.12"/><line class="cls-14" x1="55.68" y1="227.8" x2="55.68" y2="229.96"/><line class="cls-14" x1="55.68" y1="231.64" x2="55.68" y2="233.8"/><line class="cls-14" x1="55.68" y1="235.48" x2="55.68" y2="237.64"/><line class="cls-14" x1="55.68" y1="239.32" x2="55.68" y2="241.48"/><line class="cls-14" x1="55.68" y1="243.16" x2="55.68" y2="245.32"/><line class="cls-14" x1="55.68" y1="247" x2="55.68" y2="249.16"/><line class="cls-14" x1="55.68" y1="250.84" x2="55.68" y2="253"/><line class="cls-14" x1="55.68" y1="254.68" x2="55.68" y2="256.84"/><polyline class="cls-14" points="55.68 258.52 55.68 260.68 57.84 260.68"/><line class="cls-14" x1="59.52" y1="260.68" x2="61.68" y2="260.68"/><line class="cls-14" x1="63.36" y1="260.68" x2="65.52" y2="260.68"/><line class="cls-14" x1="67.2" y1="260.68" x2="69.36" y2="260.68"/><line class="cls-14" x1="71.04" y1="260.68" x2="73.2" y2="260.68"/><line class="cls-14" x1="74.88" y1="260.68" x2="76.8" y2="260.68"/><line class="cls-14" x1="78.72" y1="260.68" x2="80.64" y2="260.68"/><line class="cls-14" x1="82.32" y1="260.68" x2="84.48" y2="260.68"/><line class="cls-14" x1="86.16" y1="260.68" x2="88.32" y2="260.68"/><line class="cls-14" x1="90" y1="260.68" x2="92.16" y2="260.68"/><line class="cls-14" x1="93.84" y1="260.68" x2="96" y2="260.68"/><line class="cls-14" x1="97.68" y1="260.68" x2="99.84" y2="260.68"/><line class="cls-14" x1="101.52" y1="260.68" x2="103.68" y2="260.68"/><line class="cls-14" x1="105.36" y1="260.68" x2="107.52" y2="260.68"/><line class="cls-14" x1="109.2" y1="260.68" x2="111.36" y2="260.68"/><line class="cls-14" x1="113.04" y1="260.68" x2="115.2" y2="260.68"/><line class="cls-14" x1="116.88" y1="260.68" x2="119.04" y2="260.68"/><line class="cls-14" x1="120.72" y1="260.68" x2="122.88" y2="260.68"/><line class="cls-14" x1="124.56" y1="260.68" x2="126.72" y2="260.68"/><line class="cls-14" x1="128.4" y1="260.68" x2="130.56" y2="260.68"/><line class="cls-14" x1="132.24" y1="260.68" x2="134.4" y2="260.68"/><line class="cls-14" x1="136.08" y1="260.68" x2="138.24" y2="260.68"/><line class="cls-14" x1="139.92" y1="260.68" x2="142.08" y2="260.68"/><line class="cls-14" x1="143.76" y1="260.68" x2="145.68" y2="260.68"/><polyline class="cls-14" points="147.6 260.68 149.76 260.68 149.76 259"/><line class="cls-14" x1="149.76" y1="257.32" x2="149.76" y2="255.16"/><line class="cls-14" x1="149.76" y1="253.48" x2="149.76" y2="251.32"/><line class="cls-14" x1="149.76" y1="249.64" x2="149.76" y2="247.48"/><line class="cls-14" x1="149.76" y1="245.8" x2="149.76" y2="243.64"/><line class="cls-14" x1="149.76" y1="241.96" x2="149.76" y2="239.8"/><line class="cls-14" x1="149.76" y1="238.12" x2="149.76" y2="235.96"/><polyline class="cls-14" points="149.76 234.28 149.76 232.6 150.48 231.88"/><line class="cls-14" x1="151.68" y1="230.68" x2="153.12" y2="229"/><line class="cls-14" x1="154.32" y1="227.8" x2="155.76" y2="226.36"/><line class="cls-14" x1="156.96" y1="225.16" x2="158.64" y2="223.72"/><line class="cls-14" x1="159.84" y1="222.52" x2="161.28" y2="221.08"/><line class="cls-14" x1="162.48" y1="219.88" x2="163.92" y2="218.2"/><line class="cls-14" x1="165.12" y1="217" x2="166.8" y2="215.56"/><line class="cls-14" x1="168" y1="214.36" x2="169.44" y2="212.92"/><line class="cls-14" x1="170.64" y1="211.72" x2="172.08" y2="210.04"/><line class="cls-14" x1="173.28" y1="208.84" x2="174.72" y2="207.4"/><line class="cls-14" x1="175.92" y1="206.2" x2="177.6" y2="204.76"/><line class="cls-14" x1="178.8" y1="203.56" x2="180.24" y2="202.12"/><line class="cls-14" x1="181.44" y1="200.92" x2="182.88" y2="199.24"/><line class="cls-14" x1="184.08" y1="198.04" x2="185.52" y2="196.6"/><line class="cls-14" x1="186.96" y1="195.4" x2="188.4" y2="193.96"/><line class="cls-14" x1="189.6" y1="192.76" x2="191.04" y2="191.32"/><line class="cls-14" x1="192.24" y1="190.12" x2="193.68" y2="188.44"/><line class="cls-14" x1="194.88" y1="187.24" x2="196.56" y2="185.8"/><line class="cls-14" x1="197.76" y1="184.6" x2="199.2" y2="183.16"/><line class="cls-14" x1="200.4" y1="181.96" x2="201.84" y2="180.28"/><polyline class="cls-14" points="203.04 179.08 203.76 178.36 205.44 178.36"/><line class="cls-14" x1="207.12" y1="178.36" x2="209.28" y2="178.36"/><line class="cls-14" x1="210.96" y1="178.36" x2="213.12" y2="178.36"/><line class="cls-14" x1="214.8" y1="178.36" x2="216.96" y2="178.36"/><line class="cls-14" x1="218.64" y1="178.36" x2="220.8" y2="178.36"/><line class="cls-14" x1="222.48" y1="178.36" x2="224.64" y2="178.36"/><line class="cls-14" x1="226.32" y1="178.36" x2="228.48" y2="178.36"/><line class="cls-14" x1="230.16" y1="178.36" x2="232.08" y2="178.36"/><line class="cls-14" x1="234" y1="178.36" x2="235.92" y2="178.36"/><line class="cls-14" x1="237.6" y1="178.36" x2="239.76" y2="178.36"/><line class="cls-14" x1="241.44" y1="178.36" x2="243.6" y2="178.36"/><line class="cls-14" x1="245.28" y1="178.36" x2="247.44" y2="178.36"/><line class="cls-14" x1="249.12" y1="178.36" x2="251.28" y2="178.36"/><line class="cls-14" x1="252.96" y1="178.36" x2="255.12" y2="178.36"/><line class="cls-14" x1="256.8" y1="178.36" x2="258.96" y2="178.36"/><line class="cls-14" x1="260.64" y1="178.36" x2="262.8" y2="178.36"/><line class="cls-14" x1="264.48" y1="178.36" x2="266.64" y2="178.36"/><polyline class="cls-14" points="268.32 178.36 270 178.36 270 175.48"/><line class="cls-14" x1="270" y1="173.8" x2="270" y2="171.64"/><line class="cls-14" x1="270" y1="169.96" x2="270" y2="167.8"/><line class="cls-14" x1="270" y1="166.12" x2="270" y2="163.96"/><line class="cls-14" x1="270" y1="162.28" x2="270" y2="160.12"/><line class="cls-14" x1="270" y1="158.44" x2="270" y2="156.28"/><line class="cls-14" x1="270" y1="154.6" x2="270" y2="152.44"/><line class="cls-14" x1="270" y1="150.76" x2="270" y2="148.84"/><line class="cls-14" x1="270" y1="146.92" x2="270" y2="145"/><line class="cls-14" x1="270" y1="143.08" x2="270" y2="141.16"/><line class="cls-14" x1="270" y1="139.48" x2="270" y2="137.32"/><line class="cls-14" x1="270" y1="135.64" x2="270" y2="133.48"/><line class="cls-14" x1="270" y1="131.8" x2="270" y2="129.64"/><line class="cls-14" x1="270" y1="127.96" x2="270" y2="125.8"/><line class="cls-14" x1="270" y1="124.12" x2="270" y2="121.96"/><line class="cls-14" x1="270" y1="120.28" x2="270" y2="118.12"/><line class="cls-14" x1="270" y1="116.44" x2="270" y2="114.28"/><line class="cls-14" x1="270" y1="112.6" x2="270" y2="110.44"/><line class="cls-14" x1="270" y1="108.76" x2="270" y2="106.6"/><line class="cls-14" x1="270" y1="104.92" x2="270" y2="102.76"/><line class="cls-14" x1="270" y1="101.08" x2="270" y2="98.92"/><line class="cls-14" x1="270" y1="97.24" x2="270" y2="95.08"/><line class="cls-14" x1="270" y1="93.4" x2="270" y2="91.24"/><line class="cls-14" x1="270" y1="89.56" x2="270" y2="87.4"/><line class="cls-14" x1="270" y1="85.72" x2="270" y2="83.56"/><line class="cls-14" x1="270" y1="81.88" x2="270" y2="79.72"/><line class="cls-14" x1="270" y1="78.04" x2="270" y2="76.12"/><line class="cls-14" x1="270" y1="74.2" x2="270" y2="72.28"/><line class="cls-14" x1="270" y1="70.6" x2="270" y2="68.44"/><line class="cls-14" x1="270" y1="66.76" x2="270" y2="64.6"/><line class="cls-14" x1="270" y1="62.92" x2="270" y2="60.76"/><line class="cls-14" x1="270" y1="59.08" x2="270" y2="56.92"/><line class="cls-14" x1="270" y1="55.24" x2="270" y2="53.08"/><line class="cls-14" x1="270" y1="51.4" x2="270" y2="49.24"/><line class="cls-14" x1="270" y1="47.56" x2="270" y2="45.4"/><line class="cls-14" x1="270" y1="43.72" x2="270" y2="41.56"/><line class="cls-14" x1="270" y1="39.88" x2="270" y2="37.72"/><line class="cls-14" x1="270" y1="36.04" x2="270" y2="33.88"/><line class="cls-14" x1="270" y1="32.2" x2="270" y2="29.32"/><line class="cls-14" x1="235.92" y1="9.4" x2="234.48" y2="9.4"/><line class="cls-14" x1="232.8" y1="9.4" x2="230.88" y2="9.4"/><line class="cls-14" x1="228.96" y1="9.4" x2="227.04" y2="9.4"/><line class="cls-14" x1="225.36" y1="9.4" x2="223.2" y2="9.4"/><line class="cls-14" x1="221.52" y1="9.4" x2="219.36" y2="9.4"/><line class="cls-14" x1="217.68" y1="9.4" x2="215.52" y2="9.4"/><line class="cls-14" x1="213.84" y1="9.4" x2="211.68" y2="9.4"/><line class="cls-14" x1="210" y1="9.4" x2="207.84" y2="9.4"/><line class="cls-14" x1="206.16" y1="9.4" x2="204" y2="9.4"/><line class="cls-14" x1="202.32" y1="9.4" x2="200.16" y2="9.4"/><line class="cls-14" x1="198.48" y1="9.4" x2="196.32" y2="9.4"/><line class="cls-14" x1="194.64" y1="9.4" x2="192.48" y2="9.4"/><line class="cls-14" x1="190.8" y1="9.4" x2="188.64" y2="9.4"/><line class="cls-14" x1="186.96" y1="9.4" x2="184.8" y2="9.4"/><line class="cls-14" x1="183.12" y1="9.4" x2="180.96" y2="9.4"/><line class="cls-14" x1="179.28" y1="9.4" x2="177.12" y2="9.4"/><line class="cls-14" x1="175.44" y1="9.4" x2="173.28" y2="9.4"/><line class="cls-14" x1="171.6" y1="9.4" x2="169.44" y2="9.4"/><line class="cls-14" x1="167.76" y1="9.4" x2="165.6" y2="9.4"/><line class="cls-14" x1="163.92" y1="9.4" x2="162" y2="9.4"/><line class="cls-14" x1="160.08" y1="9.4" x2="158.16" y2="9.4"/><line class="cls-14" x1="156.24" y1="9.4" x2="154.32" y2="9.4"/><line class="cls-14" x1="152.64" y1="9.4" x2="150.48" y2="9.4"/><line class="cls-14" x1="148.8" y1="9.4" x2="146.64" y2="9.4"/><line class="cls-14" x1="144.96" y1="9.4" x2="142.8" y2="9.4"/><line class="cls-14" x1="141.12" y1="9.4" x2="138.96" y2="9.4"/><line class="cls-14" x1="137.28" y1="9.4" x2="135.12" y2="9.4"/><line class="cls-14" x1="133.44" y1="9.4" x2="131.28" y2="9.4"/><line class="cls-14" x1="129.6" y1="9.4" x2="127.44" y2="9.4"/><line class="cls-14" x1="125.76" y1="9.4" x2="123.6" y2="9.4"/><line class="cls-14" x1="121.92" y1="9.4" x2="119.76" y2="9.4"/><line class="cls-14" x1="118.08" y1="9.4" x2="115.92" y2="9.4"/><line class="cls-14" x1="114.24" y1="9.4" x2="112.08" y2="9.4"/><line class="cls-14" x1="110.4" y1="9.4" x2="108.24" y2="9.4"/><line class="cls-14" x1="106.56" y1="9.4" x2="104.4" y2="9.4"/><line class="cls-14" x1="102.72" y1="9.4" x2="100.56" y2="9.4"/><line class="cls-14" x1="98.88" y1="9.4" x2="96.72" y2="9.4"/><line class="cls-14" x1="95.04" y1="9.4" x2="92.88" y2="9.4"/><line class="cls-14" x1="91.2" y1="9.4" x2="89.28" y2="9.4"/><line class="cls-14" x1="87.36" y1="9.4" x2="85.44" y2="9.4"/><line class="cls-14" x1="83.76" y1="9.4" x2="81.6" y2="9.4"/><line class="cls-14" x1="79.92" y1="9.4" x2="77.76" y2="9.4"/><line class="cls-14" x1="76.08" y1="9.4" x2="73.92" y2="9.4"/><line class="cls-14" x1="72.24" y1="9.4" x2="70.08" y2="9.4"/><line class="cls-14" x1="68.4" y1="9.4" x2="66.24" y2="9.4"/><line class="cls-14" x1="64.56" y1="9.4" x2="62.4" y2="9.4"/><line class="cls-14" x1="60.72" y1="9.4" x2="58.56" y2="9.4"/><line class="cls-14" x1="56.88" y1="9.4" x2="55.68" y2="9.4"/><line class="cls-14" x1="143.52" y1="121.96" x2="263.28" y2="121.96"/><polyline class="cls-14" points="140.88 119.08 141.6 121.24 143.52 121.96"/><line class="cls-14" x1="140.88" y1="68.68" x2="140.88" y2="119.08"/><polyline class="cls-14" points="143.52 65.8 141.6 66.76 140.88 68.68"/><line class="cls-14" x1="263.28" y1="65.8" x2="143.52" y2="65.8"/><polyline class="cls-14" points="266.16 68.68 265.2 66.76 263.28 65.8"/><line class="cls-14" x1="266.16" y1="119.08" x2="266.16" y2="68.68"/><polyline class="cls-14" points="263.28 121.96 265.2 121.24 266.16 119.08"/><polyline class="cls-15" points="234.48 65.8 234.48 67.24 262.08 67.24 262.08 65.8 234.48 65.8"/><polyline class="cls-15" points="148.32 120.52 148.32 121.96 188.64 121.96 188.64 120.52 148.32 120.52"/><polyline class="cls-15" points="234.72 120.52 234.72 121.96 262.08 121.96 262.08 120.52 234.72 120.52"/><line class="cls-15" x1="142.56" y1="116.68" x2="141.12" y2="116.68"/><line class="cls-15" x1="142.56" y1="71.32" x2="142.56" y2="116.68"/><line class="cls-15" x1="141.12" y1="71.32" x2="142.56" y2="71.32"/><line class="cls-15" x1="141.12" y1="116.68" x2="141.12" y2="71.32"/><line class="cls-15" x1="264.24" y1="116.44" x2="265.68" y2="116.44"/><line class="cls-15" x1="264.24" y1="71.32" x2="264.24" y2="116.44"/><line class="cls-15" x1="265.68" y1="71.32" x2="264.24" y2="71.32"/><line class="cls-15" x1="265.68" y1="116.44" x2="265.68" y2="71.32"/><line class="cls-15" x1="237.6" y1="70.84" x2="261.36" y2="70.84"/><line class="cls-15" x1="237.6" y1="117.4" x2="237.6" y2="70.84"/><line class="cls-15" x1="261.36" y1="117.4" x2="237.6" y2="117.4"/><line class="cls-15" x1="261.36" y1="70.84" x2="261.36" y2="117.4"/><line class="cls-15" x1="145.68" y1="119.8" x2="261.12" y2="119.8"/><polyline class="cls-15" points="143.04 116.92 143.76 119.08 145.68 119.8"/><line class="cls-15" x1="143.04" y1="70.84" x2="143.04" y2="116.92"/><polyline class="cls-15" points="145.68 67.96 143.76 68.92 143.04 70.84"/><line class="cls-15" x1="261.12" y1="67.96" x2="145.68" y2="67.96"/><polyline class="cls-15" points="264 70.84 263.04 68.92 261.12 67.96"/><line class="cls-15" x1="264" y1="116.92" x2="264" y2="70.84"/><polyline class="cls-15" points="261.12 119.8 263.04 119.08 264 116.92"/><polyline class="cls-15" points="266.16 119.08 266.16 68.68 265.92 67.96 265.68 67.24 265.2 66.76 264.72 66.28 264 66.04 263.28 65.8 143.52 65.8 142.8 66.04 142.32 66.28 141.6 66.76 141.12 67.24 140.88 67.96 140.88 68.68 140.88 119.08 140.88 120.04 141.12 120.52 141.6 121.24 142.32 121.72 142.8 121.96 143.52 121.96 263.28 121.96 264 121.96 264.72 121.72 265.2 121.24 265.68 120.52 265.92 120.04 266.16 119.08"/><polyline class="cls-14" points="115.92 264.04 116.88 256.36 119.28 249.16 123.36 242.92 128.88 237.4 135.12 233.32 142.32 230.92 150 229.96"/><polyline class="cls-14" points="147.12 264.04 147.12 229.96 150 229.96 150 264.04 147.12 264.04"/><polyline class="cls-14" points="115.92 264.04 115.2 254.2 112.56 244.6 108.24 235.48 102.72 227.32 95.52 220.36 87.36 214.6 78.48 210.52 68.88 207.88 59.04 207.16"/><polyline class="cls-14" points="61.92 264.04 61.92 207.16 59.04 207.16 59.04 264.04 61.92 264.04"/><polyline class="cls-14" points="150 260.68 59.04 260.68 59.04 267.4 150 267.4 150 260.68 59.04 260.68 59.04 267.4 150 267.4 150 260.68"/><polyline class="cls-14" points="218.88 9.4 235.92 9.4 270 9.4"/><line class="cls-14" x1="235.92" y1="29.32" x2="270" y2="29.32"/><line class="cls-14" x1="235.92" y1="9.4" x2="270" y2="9.4"/><line class="cls-14" x1="235.92" y1="29.32" x2="235.92" y2="9.4"/><line class="cls-14" x1="270" y1="29.32" x2="270" y2="9.4"/><polyline class="cls-15" points="235.92 29.32 270 29.32 270 9.4 235.92 9.4 235.92 29.32"/><line class="cls-15" x1="235.92" y1="9.4" x2="270" y2="9.4"/><polyline class="cls-15" points="216 9.4 216.72 14.68 218.64 19.48 221.76 23.56 225.84 26.68 230.64 28.6 235.92 29.32 270 29.32"/><line class="cls-15" x1="235.92" y1="9.4" x2="235.92" y2="29.32"/><line class="cls-15" x1="270" y1="9.4" x2="270" y2="29.32"/><line class="cls-15" x1="216" y1="9.4" x2="235.92" y2="9.4"/><polyline class="cls-15" points="63.84 27.16 63.6 28.6 63.6 30.04"/><polyline class="cls-15" points="63.84 48.52 63.6 47.08 63.6 45.64"/><line class="cls-15" x1="67.2" y1="24.28" x2="66.48" y2="24.52"/><polyline class="cls-15" points="67.2 24.28 68.64 24.28 70.32 24.52"/><polyline class="cls-15" points="63.84 27.16 64.8 25.48 66.48 24.52"/><line class="cls-15" x1="67.2" y1="51.16" x2="66.48" y2="51.16"/><polyline class="cls-15" points="67.2 51.16 68.64 51.4 70.32 51.16"/><polyline class="cls-15" points="63.84 48.52 64.8 50.2 66.48 51.16"/><line class="cls-14" x1="55.68" y1="52.12" x2="55.68" y2="23.56"/><polyline class="cls-14" points="72.96 52.36 75.36 50.68 77.52 48.76"/><polyline class="cls-14" points="68.16 53.32 70.56 53.08 72.96 52.36"/><polyline class="cls-14" points="55.68 52.12 61.92 53.08 68.16 53.32"/><polyline class="cls-14" points="68.16 22.12 61.92 22.6 55.68 23.56"/><polyline class="cls-14" points="80.4 43.96 81.12 40.84 81.36 37.72"/><polyline class="cls-14" points="77.52 48.76 79.2 46.6 80.4 43.96"/><polyline class="cls-14" points="72.96 23.32 70.56 22.6 68.16 22.12"/><polyline class="cls-14" points="77.52 26.68 75.36 24.76 72.96 23.32"/><polyline class="cls-14" points="80.4 31.72 79.2 29.08 77.52 26.68"/><polyline class="cls-14" points="81.36 37.72 81.12 34.84 80.4 31.72"/><polyline class="cls-15" points="56.64 23.32 56.64 52.36 62.4 53.08 68.16 53.32 70.56 53.08 72.96 52.36 75.36 50.68 77.52 48.76 79.2 46.6 80.4 43.96 81.12 40.84 81.36 37.72 81.12 34.84 80.4 31.72 79.2 29.08 77.52 26.68 75.36 24.76 72.96 23.32 70.56 22.6 68.16 22.12 62.4 22.6 56.64 23.32"/><polyline class="cls-15" points="55.68 12.28 55.68 63.4 56.64 63.4 56.64 12.28 55.68 12.28"/><line class="cls-16" x1="81.36" y1="37.72" x2="69.36" y2="37.72"/><line class="cls-16" x1="58.08" y1="37.72" x2="46.8" y2="37.72"/><line class="cls-16" x1="35.52" y1="37.72" x2="23.52" y2="37.72"/><line class="cls-16" x1="188.16" y1="93.88" x2="198" y2="93.88"/><line class="cls-16" x1="209.28" y1="93.88" x2="220.56" y2="93.88"/><line class="cls-16" x1="231.84" y1="93.88" x2="243.36" y2="93.88"/><line class="cls-16" x1="254.64" y1="93.88" x2="265.92" y2="93.88"/><line class="cls-16" x1="277.2" y1="93.88" x2="286.8" y2="93.88"/><line class="cls-17" x1="13.44" y1="9.4" x2="13.44" y2="37.72"/><line class="cls-16" x1="13.44" y1="37.72" x2="9.12" y2="33.64"/><line class="cls-16" x1="13.44" y1="37.72" x2="17.76" y2="42.04"/><line class="cls-17" x1="13.44" y1="37.72" x2="6.24" y2="37.72"/><line class="cls-17" x1="13.44" y1="37.72" x2="27.6" y2="37.72"/><line class="cls-16" x1="13.44" y1="9.4" x2="9.12" y2="5.32"/><line class="cls-16" x1="13.44" y1="9.4" x2="17.76" y2="13.72"/><line class="cls-17" x1="13.44" y1="9.4" x2="6.24" y2="9.4"/><line class="cls-17" x1="13.44" y1="9.4" x2="27.6" y2="9.4"/><rect class="cls-18" y="5.56" width="9.6" height="36.48"/><text class="cls-19" transform="translate(7.68 41.8) rotate(-90)"><tspan class="cls-20">O</tspan><tspan class="cls-21" x="5.04" y="0">ff</tspan><tspan class="cls-22" x="8.88" y="0">s</tspan><tspan class="cls-23" x="12" y="0">e</tspan><tspan class="cls-21" x="15.6" y="0">t</tspan><tspan class="cls-24" x="17.52" y="0">_</tspan><tspan x="20.89" y="0">W</tspan><tspan class="cls-25" x="27.12" y="0">H</tspan><tspan class="cls-26" x="31.92" y="0">B</tspan></text><line class="cls-17" x1="303.84" y1="9.4" x2="303.84" y2="93.88"/><line class="cls-16" x1="303.84" y1="93.88" x2="299.52" y2="89.8"/><line class="cls-16" x1="303.84" y1="93.88" x2="307.92" y2="98.2"/><line class="cls-17" x1="303.84" y1="93.88" x2="310.8" y2="93.88"/><line class="cls-17" x1="303.84" y1="93.88" x2="289.68" y2="93.88"/><line class="cls-16" x1="303.84" y1="9.4" x2="299.52" y2="5.32"/><line class="cls-16" x1="303.84" y1="9.4" x2="307.92" y2="13.72"/><line class="cls-17" x1="303.84" y1="9.4" x2="310.8" y2="9.4"/><line class="cls-17" x1="303.84" y1="9.4" x2="289.68" y2="9.4"/><rect class="cls-18" x="290.4" y="0.04" width="9.6" height="103.44"/><text class="cls-19" transform="translate(298.08 103.24) rotate(-90)"><tspan class="cls-23">Graph</tspan><tspan class="cls-27" x="18" y="0">i</tspan><tspan class="cls-28" x="19.44" y="0">c</tspan><tspan class="cls-24" x="22.79" y="0">_</tspan><tspan class="cls-23" x="26.16" y="0">S</tspan><tspan class="cls-27" x="30.49" y="0">i</tspan><tspan class="cls-29" x="31.93" y="0">ng</tspan><tspan class="cls-27" x="39.13" y="0">l</tspan><tspan class="cls-29" x="40.58" y="0">eB</tspan><tspan class="cls-24" x="48.51" y="0">e</tspan><tspan class="cls-23" x="51.88" y="0">d_O</tspan><tspan class="cls-21" x="64.14" y="0">ff</tspan><tspan class="cls-30" x="67.98" y="0">s</tspan><tspan class="cls-24" x="71.33" y="0">e</tspan><tspan class="cls-21" x="74.7" y="0">t</tspan><tspan class="cls-23" x="76.61" y="0">_BV</tspan><tspan class="cls-31" x="88.88" y="0">ND</tspan><tspan x="98.48" y="0">H</tspan></text></g></g></svg>