<svg xmlns="http://www.w3.org/2000/svg" xmlns:xlink="http://www.w3.org/1999/xlink" viewBox="0 0 296.52 331.8"><defs><style>.cls-1,.cls-14,.cls-15,.cls-16,.cls-17,.cls-2{fill:none;}.cls-1{clip-rule:evenodd;}.cls-3{clip-path:url(#clip-path);}.cls-4{clip-path:url(#clip-path-2);}.cls-5{fill:#c6d3b4;}.cls-11,.cls-6{font-size:4.08px;font-family:ArialMT, Arial;}.cls-11,.cls-7{letter-spacing:-0.03em;}.cls-8{letter-spacing:0.02em;}.cls-9{letter-spacing:-0.09em;}.cls-10{letter-spacing:0.02em;}.cls-12{letter-spacing:-0.04em;}.cls-13{letter-spacing:0em;}.cls-14,.cls-15{stroke:#000;}.cls-14,.cls-15,.cls-16,.cls-17{stroke-linecap:round;stroke-linejoin:round;}.cls-14,.cls-17{stroke-width:0.24px;}.cls-15,.cls-16{stroke-width:0.48px;}.cls-16,.cls-17{stroke:red;}.cls-18{fill:#fff;}.cls-19{font-size:8.05px;}.cls-19,.cls-28{fill:red;font-family:ArialNarrow, Arial;}.cls-20{letter-spacing:-0.04em;}.cls-21{letter-spacing:-0.02em;}.cls-22{letter-spacing:0.01em;}.cls-23{letter-spacing:-0.02em;}.cls-24{letter-spacing:0.02em;}.cls-25{letter-spacing:-0.01em;}.cls-26{letter-spacing:0em;}.cls-27{letter-spacing:-0.02em;}.cls-28{font-size:8.05px;}</style><clipPath id="clip-path" transform="translate(-409.54 -249.96)"><path class="cls-1" d="M504.46,405l-1,.48-.24.48-.24.24-.24.72L502.54,458l.24.24V459H503v.48h.24V460h.24v.48H504l.48.24.24.24,121.2.24v-.24l.48-.24.24-.24.48-.24.24-.24.24-.48.24-53h-.24V406l-.48-.48-.48-.24-.24-.24M504.46,286l-1,.48-.24.48-.24.24-.24.72L502.54,339l.24.24V340H503v.72h.24l.72.72.48.24.24.24,121.2.24v-.24l.48-.24,1.2-1.2.24-53h-.24v-.48l-.48-.48-.48-.24-.24-.24Zm-87.84-28.08v288h132v-1.2h11v-1.92h-.24v-1.92h-.24v-1.68h-.24V533.4l-.24-.24.24-2.64.48-1.44.24-1,.48-.48.24-.48.24-.24.24-.48.24-.24.24-.48c2.23-2.2,4.7-4.52,7.92-5l1.92-.48h6l2.88.72c3.16.76,5.47,3.08,7.68,5.28v.48H588v.48h.24l.24.24v.48h.24v.48h.24v.72h.24v1h.24v1h.24l-.24,7.92-.48,3.84-.24,1.68,11,.24v1.2h31.2v-288Z"/></clipPath><clipPath id="clip-path-2" transform="translate(-409.54 -249.96)"><rect class="cls-2" width="1684.08" height="1191.12"/></clipPath></defs><title>PushIt - Floor Plan - SP-Room-Bed-Rectangle_Sample_4</title><g id="Layer_2" data-name="Layer 2"><g id="Layer_1-2" data-name="Layer 1"><g class="cls-3"><g class="cls-4"><rect class="cls-5" x="7.08" y="7.92" width="214.32" height="288"/></g></g><text class="cls-6" transform="translate(112.92 148.8)">?</text><text class="cls-6" transform="translate(103.56 161.52)"><tspan class="cls-7">3900</tspan><tspan class="cls-8" x="8.64" y="0"> </tspan><tspan class="cls-9" x="9.84" y="0">x</tspan><tspan class="cls-10" x="11.52" y="0"> </tspan><tspan class="cls-7" x="12.72" y="0">520</tspan><tspan x="19.2" y="0">0</tspan></text><text class="cls-6" transform="translate(109.56 153.12)"><tspan class="cls-7">12</tspan><tspan class="cls-8" x="4.32" y="0">.</tspan><tspan class="cls-7" x="5.52" y="0">0</tspan><tspan x="7.68" y="0">0</tspan></text><text class="cls-11" transform="translate(102.36 157.2)">20<tspan class="cls-8" x="4.32" y="0">.</tspan><tspan x="5.52" y="0">28</tspan><tspan class="cls-8" x="9.84" y="0"> </tspan><tspan class="cls-12" x="11.04" y="0">(</tspan><tspan x="12.24" y="0">19</tspan><tspan class="cls-8" x="16.55" y="0">.</tspan><tspan x="17.75" y="0">20</tspan><tspan class="cls-13" x="22.07" y="0">)</tspan></text><text class="cls-6" transform="translate(112.92 144.72)">?</text><polyline class="cls-14" points="221.4 295.92 7.08 295.92 7.08 7.92 221.4 7.92 221.4 295.92"/><polyline class="cls-14" points="228.12 1.2 0.12 1.2 0.12 302.64 228.12 302.64 228.12 1.2"/><line class="cls-14" x1="7.08" y1="295.92" x2="9" y2="295.92"/><line class="cls-14" x1="10.68" y1="295.92" x2="12.84" y2="295.92"/><line class="cls-14" x1="14.52" y1="295.92" x2="16.68" y2="295.92"/><line class="cls-14" x1="18.36" y1="295.92" x2="20.52" y2="295.92"/><line class="cls-14" x1="22.2" y1="295.92" x2="24.36" y2="295.92"/><line class="cls-14" x1="26.04" y1="295.92" x2="28.2" y2="295.92"/><line class="cls-14" x1="29.88" y1="295.92" x2="32.04" y2="295.92"/><line class="cls-14" x1="33.72" y1="295.92" x2="35.88" y2="295.92"/><line class="cls-14" x1="37.56" y1="295.92" x2="39.72" y2="295.92"/><line class="cls-14" x1="41.4" y1="295.92" x2="43.56" y2="295.92"/><line class="cls-14" x1="45.24" y1="295.92" x2="47.4" y2="295.92"/><line class="cls-14" x1="49.08" y1="295.92" x2="51.24" y2="295.92"/><line class="cls-14" x1="52.92" y1="295.92" x2="55.08" y2="295.92"/><line class="cls-14" x1="56.76" y1="295.92" x2="58.92" y2="295.92"/><line class="cls-14" x1="60.6" y1="295.92" x2="62.76" y2="295.92"/><line class="cls-14" x1="64.44" y1="295.92" x2="66.6" y2="295.92"/><line class="cls-14" x1="68.28" y1="295.92" x2="70.2" y2="295.92"/><line class="cls-14" x1="72.12" y1="295.92" x2="74.04" y2="295.92"/><line class="cls-14" x1="75.96" y1="295.92" x2="77.88" y2="295.92"/><line class="cls-14" x1="79.56" y1="295.92" x2="81.72" y2="295.92"/><line class="cls-14" x1="83.4" y1="295.92" x2="85.56" y2="295.92"/><line class="cls-14" x1="87.24" y1="295.92" x2="89.4" y2="295.92"/><line class="cls-14" x1="91.08" y1="295.92" x2="93.24" y2="295.92"/><line class="cls-14" x1="94.92" y1="295.92" x2="97.08" y2="295.92"/><line class="cls-14" x1="98.76" y1="295.92" x2="100.92" y2="295.92"/><line class="cls-14" x1="102.6" y1="295.92" x2="104.76" y2="295.92"/><line class="cls-14" x1="106.44" y1="295.92" x2="108.6" y2="295.92"/><line class="cls-14" x1="110.28" y1="295.92" x2="112.44" y2="295.92"/><line class="cls-14" x1="114.12" y1="295.92" x2="116.28" y2="295.92"/><line class="cls-14" x1="117.96" y1="295.92" x2="120.12" y2="295.92"/><line class="cls-14" x1="121.8" y1="295.92" x2="123.96" y2="295.92"/><line class="cls-14" x1="125.64" y1="295.92" x2="127.8" y2="295.92"/><line class="cls-14" x1="129.48" y1="295.92" x2="131.64" y2="295.92"/><line class="cls-14" x1="133.32" y1="295.92" x2="135.48" y2="295.92"/><line class="cls-14" x1="137.16" y1="295.92" x2="139.08" y2="295.92"/><line class="cls-14" x1="190.2" y1="295.92" x2="191.4" y2="295.92"/><line class="cls-14" x1="193.32" y1="295.92" x2="195.24" y2="295.92"/><line class="cls-14" x1="196.92" y1="295.92" x2="199.08" y2="295.92"/><line class="cls-14" x1="200.76" y1="295.92" x2="202.92" y2="295.92"/><line class="cls-14" x1="204.6" y1="295.92" x2="206.76" y2="295.92"/><line class="cls-14" x1="208.44" y1="295.92" x2="210.6" y2="295.92"/><line class="cls-14" x1="212.28" y1="295.92" x2="214.44" y2="295.92"/><line class="cls-14" x1="216.12" y1="295.92" x2="218.28" y2="295.92"/><polyline class="cls-14" points="219.96 295.92 221.4 295.92 221.4 294.48"/><line class="cls-14" x1="221.4" y1="292.8" x2="221.4" y2="290.64"/><line class="cls-14" x1="221.4" y1="288.96" x2="221.4" y2="286.8"/><line class="cls-14" x1="221.4" y1="285.12" x2="221.4" y2="282.96"/><line class="cls-14" x1="221.4" y1="281.28" x2="221.4" y2="279.12"/><line class="cls-14" x1="221.4" y1="277.44" x2="221.4" y2="275.28"/><line class="cls-14" x1="221.4" y1="273.6" x2="221.4" y2="271.44"/><line class="cls-14" x1="221.4" y1="269.76" x2="221.4" y2="267.6"/><line class="cls-14" x1="221.4" y1="265.92" x2="221.4" y2="263.76"/><line class="cls-14" x1="221.4" y1="262.08" x2="221.4" y2="259.92"/><line class="cls-14" x1="221.4" y1="258.24" x2="221.4" y2="256.08"/><line class="cls-14" x1="221.4" y1="254.4" x2="221.4" y2="252.24"/><line class="cls-14" x1="221.4" y1="250.56" x2="221.4" y2="248.4"/><line class="cls-14" x1="221.4" y1="246.72" x2="221.4" y2="244.56"/><line class="cls-14" x1="221.4" y1="242.88" x2="221.4" y2="240.72"/><line class="cls-14" x1="221.4" y1="239.04" x2="221.4" y2="236.88"/><line class="cls-14" x1="221.4" y1="235.2" x2="221.4" y2="233.28"/><line class="cls-14" x1="221.4" y1="231.36" x2="221.4" y2="229.44"/><line class="cls-14" x1="221.4" y1="227.52" x2="221.4" y2="225.6"/><line class="cls-14" x1="221.4" y1="223.92" x2="221.4" y2="221.76"/><line class="cls-14" x1="221.4" y1="220.08" x2="221.4" y2="217.92"/><line class="cls-14" x1="221.4" y1="216.24" x2="221.4" y2="214.08"/><line class="cls-14" x1="221.4" y1="212.4" x2="221.4" y2="210.24"/><line class="cls-14" x1="221.4" y1="208.56" x2="221.4" y2="206.4"/><line class="cls-14" x1="221.4" y1="204.72" x2="221.4" y2="202.56"/><line class="cls-14" x1="221.4" y1="200.88" x2="221.4" y2="198.72"/><line class="cls-14" x1="221.4" y1="197.04" x2="221.4" y2="194.88"/><line class="cls-14" x1="221.4" y1="193.2" x2="221.4" y2="191.04"/><line class="cls-14" x1="221.4" y1="189.36" x2="221.4" y2="187.2"/><line class="cls-14" x1="221.4" y1="185.52" x2="221.4" y2="183.36"/><line class="cls-14" x1="221.4" y1="181.68" x2="221.4" y2="179.52"/><line class="cls-14" x1="221.4" y1="177.84" x2="221.4" y2="175.68"/><line class="cls-14" x1="221.4" y1="174" x2="221.4" y2="171.84"/><line class="cls-14" x1="221.4" y1="170.16" x2="221.4" y2="168"/><line class="cls-14" x1="221.4" y1="166.32" x2="221.4" y2="164.16"/><line class="cls-14" x1="221.4" y1="162.48" x2="221.4" y2="160.56"/><line class="cls-14" x1="221.4" y1="158.64" x2="221.4" y2="156.72"/><line class="cls-14" x1="221.4" y1="154.8" x2="221.4" y2="152.88"/><line class="cls-14" x1="221.4" y1="151.2" x2="221.4" y2="149.04"/><line class="cls-14" x1="221.4" y1="147.36" x2="221.4" y2="145.2"/><line class="cls-14" x1="221.4" y1="143.52" x2="221.4" y2="141.36"/><line class="cls-14" x1="221.4" y1="139.68" x2="221.4" y2="137.52"/><line class="cls-14" x1="221.4" y1="135.84" x2="221.4" y2="133.68"/><line class="cls-14" x1="221.4" y1="132" x2="221.4" y2="129.84"/><line class="cls-14" x1="221.4" y1="128.16" x2="221.4" y2="126"/><line class="cls-14" x1="221.4" y1="124.32" x2="221.4" y2="122.16"/><line class="cls-14" x1="221.4" y1="120.48" x2="221.4" y2="118.32"/><line class="cls-14" x1="221.4" y1="116.64" x2="221.4" y2="114.48"/><line class="cls-14" x1="221.4" y1="112.8" x2="221.4" y2="110.64"/><line class="cls-14" x1="221.4" y1="108.96" x2="221.4" y2="106.8"/><line class="cls-14" x1="221.4" y1="105.12" x2="221.4" y2="102.96"/><line class="cls-14" x1="221.4" y1="101.28" x2="221.4" y2="99.12"/><line class="cls-14" x1="221.4" y1="97.44" x2="221.4" y2="95.28"/><line class="cls-14" x1="221.4" y1="93.6" x2="221.4" y2="91.68"/><line class="cls-14" x1="221.4" y1="89.76" x2="221.4" y2="87.84"/><line class="cls-14" x1="221.4" y1="85.92" x2="221.4" y2="84"/><line class="cls-14" x1="221.4" y1="82.32" x2="221.4" y2="80.16"/><line class="cls-14" x1="221.4" y1="78.48" x2="221.4" y2="76.32"/><line class="cls-14" x1="221.4" y1="74.64" x2="221.4" y2="72.48"/><line class="cls-14" x1="221.4" y1="70.8" x2="221.4" y2="68.64"/><line class="cls-14" x1="221.4" y1="66.96" x2="221.4" y2="64.8"/><line class="cls-14" x1="221.4" y1="63.12" x2="221.4" y2="60.96"/><line class="cls-14" x1="221.4" y1="59.28" x2="221.4" y2="57.12"/><line class="cls-14" x1="221.4" y1="55.44" x2="221.4" y2="53.28"/><line class="cls-14" x1="221.4" y1="51.6" x2="221.4" y2="49.44"/><line class="cls-14" x1="221.4" y1="47.76" x2="221.4" y2="45.6"/><line class="cls-14" x1="221.4" y1="43.92" x2="221.4" y2="41.76"/><line class="cls-14" x1="221.4" y1="40.08" x2="221.4" y2="37.92"/><line class="cls-14" x1="221.4" y1="36.24" x2="221.4" y2="34.08"/><line class="cls-14" x1="221.4" y1="32.4" x2="221.4" y2="30.24"/><line class="cls-14" x1="221.4" y1="28.56" x2="221.4" y2="26.4"/><line class="cls-14" x1="221.4" y1="24.72" x2="221.4" y2="22.56"/><line class="cls-14" x1="221.4" y1="20.88" x2="221.4" y2="18.96"/><line class="cls-14" x1="221.4" y1="17.04" x2="221.4" y2="15.12"/><line class="cls-14" x1="221.4" y1="13.2" x2="221.4" y2="11.28"/><polyline class="cls-14" points="221.4 9.6 221.4 7.92 220.2 7.92"/><line class="cls-14" x1="218.52" y1="7.92" x2="216.36" y2="7.92"/><line class="cls-14" x1="214.68" y1="7.92" x2="212.52" y2="7.92"/><line class="cls-14" x1="210.84" y1="7.92" x2="208.68" y2="7.92"/><line class="cls-14" x1="207" y1="7.92" x2="205.08" y2="7.92"/><line class="cls-14" x1="203.16" y1="7.92" x2="201.24" y2="7.92"/><line class="cls-14" x1="199.56" y1="7.92" x2="197.4" y2="7.92"/><line class="cls-14" x1="195.72" y1="7.92" x2="193.56" y2="7.92"/><line class="cls-14" x1="191.88" y1="7.92" x2="189.72" y2="7.92"/><line class="cls-14" x1="188.04" y1="7.92" x2="185.88" y2="7.92"/><line class="cls-14" x1="184.2" y1="7.92" x2="182.04" y2="7.92"/><line class="cls-14" x1="180.36" y1="7.92" x2="178.2" y2="7.92"/><line class="cls-14" x1="176.52" y1="7.92" x2="174.36" y2="7.92"/><line class="cls-14" x1="172.68" y1="7.92" x2="170.52" y2="7.92"/><line class="cls-14" x1="168.84" y1="7.92" x2="166.68" y2="7.92"/><line class="cls-14" x1="165" y1="7.92" x2="162.84" y2="7.92"/><line class="cls-14" x1="161.16" y1="7.92" x2="159" y2="7.92"/><line class="cls-14" x1="157.32" y1="7.92" x2="155.16" y2="7.92"/><line class="cls-14" x1="153.48" y1="7.92" x2="151.32" y2="7.92"/><line class="cls-14" x1="149.64" y1="7.92" x2="147.48" y2="7.92"/><line class="cls-14" x1="145.8" y1="7.92" x2="143.64" y2="7.92"/><line class="cls-14" x1="141.96" y1="7.92" x2="139.8" y2="7.92"/><line class="cls-14" x1="138.12" y1="7.92" x2="136.2" y2="7.92"/><line class="cls-14" x1="134.28" y1="7.92" x2="132.36" y2="7.92"/><line class="cls-14" x1="130.44" y1="7.92" x2="128.52" y2="7.92"/><line class="cls-14" x1="126.84" y1="7.92" x2="124.68" y2="7.92"/><line class="cls-14" x1="123" y1="7.92" x2="120.84" y2="7.92"/><line class="cls-14" x1="119.16" y1="7.92" x2="117" y2="7.92"/><line class="cls-14" x1="115.32" y1="7.92" x2="113.16" y2="7.92"/><line class="cls-14" x1="111.48" y1="7.92" x2="109.32" y2="7.92"/><line class="cls-14" x1="107.64" y1="7.92" x2="105.48" y2="7.92"/><line class="cls-14" x1="103.8" y1="7.92" x2="101.64" y2="7.92"/><line class="cls-14" x1="99.96" y1="7.92" x2="97.8" y2="7.92"/><line class="cls-14" x1="96.12" y1="7.92" x2="93.96" y2="7.92"/><line class="cls-14" x1="92.28" y1="7.92" x2="90.12" y2="7.92"/><line class="cls-14" x1="88.44" y1="7.92" x2="86.28" y2="7.92"/><line class="cls-14" x1="84.6" y1="7.92" x2="82.44" y2="7.92"/><line class="cls-14" x1="80.76" y1="7.92" x2="78.6" y2="7.92"/><line class="cls-14" x1="76.92" y1="7.92" x2="74.76" y2="7.92"/><line class="cls-14" x1="73.08" y1="7.92" x2="70.92" y2="7.92"/><line class="cls-14" x1="69.24" y1="7.92" x2="67.08" y2="7.92"/><line class="cls-14" x1="65.4" y1="7.92" x2="63.48" y2="7.92"/><line class="cls-14" x1="61.56" y1="7.92" x2="59.64" y2="7.92"/><line class="cls-14" x1="57.96" y1="7.92" x2="55.8" y2="7.92"/><line class="cls-14" x1="54.12" y1="7.92" x2="51.96" y2="7.92"/><line class="cls-14" x1="50.28" y1="7.92" x2="48.12" y2="7.92"/><line class="cls-14" x1="46.44" y1="7.92" x2="44.28" y2="7.92"/><line class="cls-14" x1="42.6" y1="7.92" x2="40.44" y2="7.92"/><line class="cls-14" x1="38.76" y1="7.92" x2="36.6" y2="7.92"/><line class="cls-14" x1="34.92" y1="7.92" x2="32.76" y2="7.92"/><line class="cls-14" x1="31.08" y1="7.92" x2="28.92" y2="7.92"/><line class="cls-14" x1="27.24" y1="7.92" x2="25.08" y2="7.92"/><line class="cls-14" x1="23.4" y1="7.92" x2="21.24" y2="7.92"/><line class="cls-14" x1="19.56" y1="7.92" x2="17.4" y2="7.92"/><line class="cls-14" x1="15.72" y1="7.92" x2="13.56" y2="7.92"/><line class="cls-14" x1="11.88" y1="7.92" x2="9.72" y2="7.92"/><polyline class="cls-14" points="8.04 7.92 7.08 7.92 7.08 9.6"/><line class="cls-14" x1="7.08" y1="11.28" x2="7.08" y2="13.2"/><line class="cls-14" x1="7.08" y1="15.12" x2="7.08" y2="17.04"/><line class="cls-14" x1="7.08" y1="18.96" x2="7.08" y2="20.88"/><line class="cls-14" x1="7.08" y1="22.56" x2="7.08" y2="24.72"/><line class="cls-14" x1="7.08" y1="26.4" x2="7.08" y2="28.56"/><line class="cls-14" x1="7.08" y1="30.24" x2="7.08" y2="32.4"/><line class="cls-14" x1="7.08" y1="34.08" x2="7.08" y2="36.24"/><line class="cls-14" x1="7.08" y1="37.92" x2="7.08" y2="40.08"/><line class="cls-14" x1="7.08" y1="41.76" x2="7.08" y2="43.92"/><line class="cls-14" x1="7.08" y1="45.6" x2="7.08" y2="47.76"/><line class="cls-14" x1="7.08" y1="49.44" x2="7.08" y2="51.6"/><line class="cls-14" x1="7.08" y1="53.28" x2="7.08" y2="55.44"/><line class="cls-14" x1="7.08" y1="57.12" x2="7.08" y2="59.28"/><line class="cls-14" x1="7.08" y1="60.96" x2="7.08" y2="63.12"/><line class="cls-14" x1="7.08" y1="64.8" x2="7.08" y2="66.96"/><line class="cls-14" x1="7.08" y1="68.64" x2="7.08" y2="70.8"/><line class="cls-14" x1="7.08" y1="72.48" x2="7.08" y2="74.64"/><line class="cls-14" x1="7.08" y1="76.32" x2="7.08" y2="78.48"/><line class="cls-14" x1="7.08" y1="80.16" x2="7.08" y2="82.32"/><line class="cls-14" x1="7.08" y1="84" x2="7.08" y2="85.92"/><line class="cls-14" x1="7.08" y1="87.84" x2="7.08" y2="89.76"/><line class="cls-14" x1="7.08" y1="91.68" x2="7.08" y2="93.6"/><line class="cls-14" x1="7.08" y1="95.28" x2="7.08" y2="97.44"/><line class="cls-14" x1="7.08" y1="99.12" x2="7.08" y2="101.28"/><line class="cls-14" x1="7.08" y1="102.96" x2="7.08" y2="105.12"/><line class="cls-14" x1="7.08" y1="106.8" x2="7.08" y2="108.96"/><line class="cls-14" x1="7.08" y1="110.64" x2="7.08" y2="112.8"/><line class="cls-14" x1="7.08" y1="114.48" x2="7.08" y2="116.64"/><line class="cls-14" x1="7.08" y1="118.32" x2="7.08" y2="120.48"/><line class="cls-14" x1="7.08" y1="122.16" x2="7.08" y2="124.32"/><line class="cls-14" x1="7.08" y1="126" x2="7.08" y2="128.16"/><line class="cls-14" x1="7.08" y1="129.84" x2="7.08" y2="132"/><line class="cls-14" x1="7.08" y1="133.68" x2="7.08" y2="135.84"/><line class="cls-14" x1="7.08" y1="137.52" x2="7.08" y2="139.68"/><line class="cls-14" x1="7.08" y1="141.36" x2="7.08" y2="143.52"/><line class="cls-14" x1="7.08" y1="145.2" x2="7.08" y2="147.36"/><line class="cls-14" x1="7.08" y1="149.04" x2="7.08" y2="151.2"/><line class="cls-14" x1="7.08" y1="152.88" x2="7.08" y2="154.8"/><line class="cls-14" x1="7.08" y1="156.72" x2="7.08" y2="158.64"/><line class="cls-14" x1="7.08" y1="160.56" x2="7.08" y2="162.48"/><line class="cls-14" x1="7.08" y1="164.16" x2="7.08" y2="166.32"/><line class="cls-14" x1="7.08" y1="168" x2="7.08" y2="170.16"/><line class="cls-14" x1="7.08" y1="171.84" x2="7.08" y2="174"/><line class="cls-14" x1="7.08" y1="175.68" x2="7.08" y2="177.84"/><line class="cls-14" x1="7.08" y1="179.52" x2="7.08" y2="181.68"/><line class="cls-14" x1="7.08" y1="183.36" x2="7.08" y2="185.52"/><line class="cls-14" x1="7.08" y1="187.2" x2="7.08" y2="189.36"/><line class="cls-14" x1="7.08" y1="191.04" x2="7.08" y2="193.2"/><line class="cls-14" x1="7.08" y1="194.88" x2="7.08" y2="197.04"/><line class="cls-14" x1="7.08" y1="198.72" x2="7.08" y2="200.88"/><line class="cls-14" x1="7.08" y1="202.56" x2="7.08" y2="204.72"/><line class="cls-14" x1="7.08" y1="206.4" x2="7.08" y2="208.56"/><line class="cls-14" x1="7.08" y1="210.24" x2="7.08" y2="212.4"/><line class="cls-14" x1="7.08" y1="214.08" x2="7.08" y2="216.24"/><line class="cls-14" x1="7.08" y1="217.92" x2="7.08" y2="220.08"/><line class="cls-14" x1="7.08" y1="221.76" x2="7.08" y2="223.92"/><line class="cls-14" x1="7.08" y1="225.6" x2="7.08" y2="227.52"/><line class="cls-14" x1="7.08" y1="229.44" x2="7.08" y2="231.36"/><line class="cls-14" x1="7.08" y1="233.28" x2="7.08" y2="235.2"/><line class="cls-14" x1="7.08" y1="236.88" x2="7.08" y2="239.04"/><line class="cls-14" x1="7.08" y1="240.72" x2="7.08" y2="242.88"/><line class="cls-14" x1="7.08" y1="244.56" x2="7.08" y2="246.72"/><line class="cls-14" x1="7.08" y1="248.4" x2="7.08" y2="250.56"/><line class="cls-14" x1="7.08" y1="252.24" x2="7.08" y2="254.4"/><line class="cls-14" x1="7.08" y1="256.08" x2="7.08" y2="258.24"/><line class="cls-14" x1="7.08" y1="259.92" x2="7.08" y2="262.08"/><line class="cls-14" x1="7.08" y1="263.76" x2="7.08" y2="265.92"/><line class="cls-14" x1="7.08" y1="267.6" x2="7.08" y2="269.76"/><line class="cls-14" x1="7.08" y1="271.44" x2="7.08" y2="273.6"/><line class="cls-14" x1="7.08" y1="275.28" x2="7.08" y2="277.44"/><line class="cls-14" x1="7.08" y1="279.12" x2="7.08" y2="281.28"/><line class="cls-14" x1="7.08" y1="282.96" x2="7.08" y2="285.12"/><line class="cls-14" x1="7.08" y1="286.8" x2="7.08" y2="288.96"/><line class="cls-14" x1="7.08" y1="290.64" x2="7.08" y2="292.8"/><line class="cls-14" x1="7.08" y1="294.48" x2="7.08" y2="295.92"/><polyline class="cls-15" points="153.96 287.76 155.4 288 156.84 288"/><polyline class="cls-15" points="175.32 287.76 173.88 288 172.44 288"/><line class="cls-15" x1="151.32" y1="284.4" x2="151.32" y2="285.12"/><polyline class="cls-15" points="151.32 284.4 151.08 282.96 151.32 281.28"/><polyline class="cls-15" points="153.96 287.76 152.28 286.8 151.32 285.12"/><line class="cls-15" x1="177.96" y1="284.4" x2="177.96" y2="285.12"/><polyline class="cls-15" points="177.96 284.4 178.2 282.96 177.96 281.28"/><polyline class="cls-15" points="175.32 287.76 177 286.8 177.96 285.12"/><line class="cls-14" x1="178.92" y1="295.92" x2="150.36" y2="295.92"/><polyline class="cls-14" points="179.16 278.4 177.72 276 175.56 274.08"/><polyline class="cls-14" points="180.12 283.44 179.88 281.04 179.16 278.4"/><polyline class="cls-14" points="178.92 295.92 179.88 289.68 180.12 283.44"/><polyline class="cls-14" points="149.16 283.44 149.4 289.68 150.36 295.92"/><polyline class="cls-14" points="170.76 271.2 167.64 270.48 164.76 270.24"/><polyline class="cls-14" points="175.56 274.08 173.4 272.4 170.76 271.2"/><polyline class="cls-14" points="150.12 278.4 149.4 281.04 149.16 283.44"/><polyline class="cls-14" points="153.72 274.08 151.8 276 150.12 278.4"/><polyline class="cls-14" points="158.52 271.2 155.88 272.4 153.72 274.08"/><polyline class="cls-14" points="164.76 270.24 161.64 270.48 158.52 271.2"/><polyline class="cls-15" points="150.12 294.72 179.16 294.72 179.88 289.2 180.12 283.44 179.88 280.8 179.16 278.4 177.72 276 175.56 274.08 173.4 272.4 170.76 271.2 167.64 270.48 164.76 270.24 161.64 270.48 158.52 271.2 155.88 272.4 153.72 274.08 151.8 276 150.12 278.4 149.4 280.8 149.16 283.44 149.4 289.2 150.12 294.72"/><polyline class="cls-15" points="139.08 295.92 190.2 295.92 190.2 294.72 139.08 294.72 139.08 295.92"/><line class="cls-14" x1="95.88" y1="92.16" x2="215.64" y2="92.16"/><polyline class="cls-14" points="93 89.28 93.96 91.2 95.88 92.16"/><line class="cls-14" x1="93" y1="38.88" x2="93" y2="89.28"/><polyline class="cls-14" points="95.88 36 93.96 36.72 93 38.88"/><line class="cls-14" x1="215.64" y1="36" x2="95.88" y2="36"/><polyline class="cls-14" points="218.28 38.88 217.56 36.72 215.64 36"/><line class="cls-14" x1="218.28" y1="89.28" x2="218.28" y2="38.88"/><polyline class="cls-14" points="215.64 92.16 217.56 91.2 218.28 89.28"/><polyline class="cls-15" points="186.84 36 186.84 37.44 214.2 37.44 214.2 36 186.84 36"/><polyline class="cls-15" points="100.68 90.72 100.68 92.16 141 92.16 141 90.72 100.68 90.72"/><polyline class="cls-15" points="187.08 90.72 187.08 92.16 214.44 92.16 214.44 90.72 187.08 90.72"/><line class="cls-15" x1="94.92" y1="86.64" x2="93.48" y2="86.64"/><line class="cls-15" x1="94.92" y1="41.28" x2="94.92" y2="86.64"/><line class="cls-15" x1="93.48" y1="41.28" x2="94.92" y2="41.28"/><line class="cls-15" x1="93.48" y1="86.64" x2="93.48" y2="41.28"/><line class="cls-15" x1="216.6" y1="86.64" x2="218.04" y2="86.64"/><line class="cls-15" x1="216.6" y1="41.28" x2="216.6" y2="86.64"/><line class="cls-15" x1="218.04" y1="41.28" x2="216.6" y2="41.28"/><line class="cls-15" x1="218.04" y1="86.64" x2="218.04" y2="41.28"/><line class="cls-15" x1="189.96" y1="41.04" x2="213.72" y2="41.04"/><line class="cls-15" x1="189.96" y1="87.36" x2="189.96" y2="41.04"/><line class="cls-15" x1="213.72" y1="87.36" x2="189.96" y2="87.36"/><line class="cls-15" x1="213.72" y1="41.04" x2="213.72" y2="87.36"/><line class="cls-15" x1="98.04" y1="90" x2="213.48" y2="90"/><polyline class="cls-15" points="95.16 87.12 96.12 89.04 98.04 90"/><line class="cls-15" x1="95.16" y1="41.04" x2="95.16" y2="87.12"/><polyline class="cls-15" points="98.04 38.16 96.12 38.88 95.16 41.04"/><line class="cls-15" x1="213.48" y1="38.16" x2="98.04" y2="38.16"/><polyline class="cls-15" points="216.12 41.04 215.4 38.88 213.48 38.16"/><line class="cls-15" x1="216.12" y1="87.12" x2="216.12" y2="41.04"/><polyline class="cls-15" points="213.48 90 215.4 89.04 216.12 87.12"/><polyline class="cls-15" points="218.28 89.28 218.28 38.88 218.28 38.16 218.04 37.44 217.56 36.72 217.08 36.48 216.36 36 215.64 36 95.88 36 95.16 36 94.44 36.48 93.96 36.72 93.48 37.44 93.24 38.16 93 38.88 93 89.28 93.24 90 93.48 90.72 93.96 91.2 94.44 91.68 95.16 92.16 95.88 92.16 215.64 92.16 216.36 92.16 217.08 91.68 217.56 91.2 218.04 90.72 218.28 90 218.28 89.28"/><line class="cls-14" x1="95.88" y1="211.2" x2="215.64" y2="211.2"/><polyline class="cls-14" points="93 208.32 93.96 210.48 95.88 211.2"/><line class="cls-14" x1="93" y1="157.92" x2="93" y2="208.32"/><polyline class="cls-14" points="95.88 155.04 93.96 155.76 93 157.92"/><line class="cls-14" x1="215.64" y1="155.04" x2="95.88" y2="155.04"/><polyline class="cls-14" points="218.28 157.92 217.56 155.76 215.64 155.04"/><line class="cls-14" x1="218.28" y1="208.32" x2="218.28" y2="157.92"/><polyline class="cls-14" points="215.64 211.2 217.56 210.48 218.28 208.32"/><polyline class="cls-15" points="186.84 155.04 186.84 156.48 214.2 156.48 214.2 155.04 186.84 155.04"/><polyline class="cls-15" points="100.68 209.76 100.68 211.2 141 211.2 141 209.76 100.68 209.76"/><polyline class="cls-15" points="187.08 209.76 187.08 211.2 214.44 211.2 214.44 209.76 187.08 209.76"/><line class="cls-15" x1="94.92" y1="205.92" x2="93.48" y2="205.92"/><line class="cls-15" x1="94.92" y1="160.56" x2="94.92" y2="205.92"/><line class="cls-15" x1="93.48" y1="160.56" x2="94.92" y2="160.56"/><line class="cls-15" x1="93.48" y1="205.92" x2="93.48" y2="160.56"/><line class="cls-15" x1="216.6" y1="205.68" x2="218.04" y2="205.68"/><line class="cls-15" x1="216.6" y1="160.32" x2="216.6" y2="205.68"/><line class="cls-15" x1="218.04" y1="160.32" x2="216.6" y2="160.32"/><line class="cls-15" x1="218.04" y1="205.68" x2="218.04" y2="160.32"/><line class="cls-15" x1="189.96" y1="160.08" x2="213.72" y2="160.08"/><line class="cls-15" x1="189.96" y1="206.4" x2="189.96" y2="160.08"/><line class="cls-15" x1="213.72" y1="206.4" x2="189.96" y2="206.4"/><line class="cls-15" x1="213.72" y1="160.08" x2="213.72" y2="206.4"/><line class="cls-15" x1="98.04" y1="209.04" x2="213.48" y2="209.04"/><polyline class="cls-15" points="95.16 206.16 96.12 208.32 98.04 209.04"/><line class="cls-15" x1="95.16" y1="160.08" x2="95.16" y2="206.16"/><polyline class="cls-15" points="98.04 157.2 96.12 157.92 95.16 160.08"/><line class="cls-15" x1="213.48" y1="157.2" x2="98.04" y2="157.2"/><polyline class="cls-15" points="216.12 160.08 215.4 157.92 213.48 157.2"/><line class="cls-15" x1="216.12" y1="206.16" x2="216.12" y2="160.08"/><polyline class="cls-15" points="213.48 209.04 215.4 208.32 216.12 206.16"/><polyline class="cls-15" points="218.28 208.32 218.28 157.92 218.28 157.2 218.04 156.48 217.56 155.76 217.08 155.52 216.36 155.04 215.64 155.04 95.88 155.04 95.16 155.04 94.44 155.52 93.96 155.76 93.48 156.48 93.24 157.2 93 157.92 93 208.32 93.24 209.04 93.48 209.76 93.96 210.48 94.44 210.72 95.16 211.2 95.88 211.2 215.64 211.2 216.36 211.2 217.08 210.72 217.56 210.48 218.04 209.76 218.28 209.04 218.28 208.32"/><polyline class="cls-14" points="69.48 299.28 70.2 291.84 72.84 284.64 76.92 278.16 82.2 272.64 88.68 268.8 95.88 266.16 103.32 265.44"/><polyline class="cls-14" points="100.68 299.28 100.68 265.44 103.32 265.44 103.32 299.28 100.68 299.28"/><polyline class="cls-14" points="69.48 299.28 68.52 290.4 66.36 282 62.52 273.84 57.48 266.64 51.24 260.16 43.8 255.12 35.88 251.52 27.24 249.12 18.36 248.4"/><polyline class="cls-14" points="21.24 299.28 21.24 248.4 18.36 248.4 18.36 299.28 21.24 299.28"/><polyline class="cls-14" points="103.32 295.92 18.36 295.92 18.36 302.64 103.32 302.64 103.32 295.92 18.36 295.92 18.36 302.64 103.32 302.64 103.32 295.92"/><line class="cls-16" x1="164.76" y1="270.24" x2="164.76" y2="278.16"/><line class="cls-16" x1="164.76" y1="289.44" x2="164.76" y2="300.72"/><line class="cls-16" x1="164.76" y1="312" x2="164.76" y2="320.16"/><line class="cls-16" x1="119.4" y1="64.08" x2="127.8" y2="64.08"/><line class="cls-16" x1="139.08" y1="64.08" x2="150.36" y2="64.08"/><line class="cls-16" x1="161.88" y1="64.08" x2="173.16" y2="64.08"/><line class="cls-16" x1="184.44" y1="64.08" x2="195.72" y2="64.08"/><line class="cls-16" x1="207.24" y1="64.08" x2="218.52" y2="64.08"/><line class="cls-16" x1="229.8" y1="64.08" x2="238.44" y2="64.08"/><line class="cls-16" x1="119.4" y1="183.12" x2="127.8" y2="183.12"/><line class="cls-16" x1="139.08" y1="183.12" x2="150.36" y2="183.12"/><line class="cls-16" x1="161.88" y1="183.12" x2="173.16" y2="183.12"/><line class="cls-16" x1="184.44" y1="183.12" x2="195.72" y2="183.12"/><line class="cls-16" x1="207.24" y1="183.12" x2="218.52" y2="183.12"/><line class="cls-16" x1="229.8" y1="183.12" x2="238.44" y2="183.12"/><line class="cls-16" x1="148.68" y1="242.64" x2="164.76" y2="242.64"/><line class="cls-16" x1="176.04" y1="242.64" x2="187.32" y2="242.64"/><line class="cls-16" x1="198.6" y1="242.64" x2="210.12" y2="242.64"/><line class="cls-16" x1="221.4" y1="242.64" x2="232.68" y2="242.64"/><line class="cls-16" x1="243.96" y1="242.64" x2="259.8" y2="242.64"/><line class="cls-16" x1="204.36" y1="123.6" x2="210.6" y2="123.6"/><line class="cls-16" x1="221.88" y1="123.6" x2="233.16" y2="123.6"/><line class="cls-16" x1="244.68" y1="123.6" x2="255.96" y2="123.6"/><line class="cls-16" x1="267.24" y1="123.6" x2="278.52" y2="123.6"/><line class="cls-16" x1="290.04" y1="123.6" x2="296.28" y2="123.6"/><line class="cls-17" x1="164.76" y1="324.48" x2="221.4" y2="324.48"/><line class="cls-16" x1="221.4" y1="324.48" x2="217.08" y2="328.8"/><line class="cls-16" x1="221.4" y1="324.48" x2="225.48" y2="320.4"/><line class="cls-17" x1="221.4" y1="324.48" x2="221.4" y2="331.68"/><line class="cls-17" x1="221.4" y1="324.48" x2="221.4" y2="310.32"/><line class="cls-16" x1="164.76" y1="324.48" x2="160.44" y2="328.8"/><line class="cls-16" x1="164.76" y1="324.48" x2="168.84" y2="320.4"/><line class="cls-17" x1="164.76" y1="324.48" x2="164.76" y2="331.68"/><line class="cls-17" x1="164.76" y1="324.48" x2="164.76" y2="310.32"/><rect class="cls-18" x="174.84" y="311.04" width="36" height="8.88"/><text class="cls-19" transform="translate(174.84 318.24)"><tspan class="cls-20">O</tspan><tspan class="cls-21" x="4.8" y="0">f</tspan><tspan class="cls-22" x="6.49" y="0">f</tspan><tspan class="cls-23" x="8.4" y="0">s</tspan><tspan class="cls-24" x="11.53" y="0">e</tspan><tspan class="cls-21" x="15.36" y="0">t</tspan><tspan class="cls-25" x="17.05" y="0">_</tspan><tspan class="cls-26" x="20.65" y="0">W</tspan><tspan class="cls-27" x="26.88" y="0">H</tspan><tspan x="31.45" y="0">B</tspan></text><line class="cls-17" x1="272.28" y1="299.28" x2="272.28" y2="242.64"/><line class="cls-16" x1="272.28" y1="242.64" x2="276.36" y2="246.96"/><line class="cls-16" x1="272.28" y1="242.64" x2="267.96" y2="238.32"/><line class="cls-17" x1="272.28" y1="242.64" x2="279.24" y2="242.64"/><line class="cls-17" x1="272.28" y1="242.64" x2="258.12" y2="242.64"/><line class="cls-16" x1="272.28" y1="299.28" x2="276.36" y2="303.6"/><line class="cls-16" x1="272.28" y1="299.28" x2="267.96" y2="295.2"/><line class="cls-17" x1="272.28" y1="299.28" x2="279.24" y2="299.28"/><line class="cls-17" x1="272.28" y1="299.28" x2="258.12" y2="299.28"/><rect class="cls-18" x="276.36" y="262.8" width="11.52" height="16.08"/><text class="cls-28" transform="translate(285.24 278.88) rotate(-89.91)">F</text><text class="cls-28" transform="translate(285.24 274.8) rotate(-89.91)">i</text><text class="cls-28" transform="translate(285.24 273.36) rotate(-89.91)">x</text><text class="cls-28" transform="translate(285.24 270) rotate(-89.91)">e</text><text class="cls-28" transform="translate(285.24 266.4) rotate(-89.91)">d</text><rect class="cls-18" x="258.84" y="263.76" width="9.6" height="14.64"/><text class="cls-28" transform="translate(266.52 278.16) rotate(-89.91)">1</text><text class="cls-28" transform="translate(266.52 274.56) rotate(-89.91)">0</text><text class="cls-28" transform="translate(266.52 270.96) rotate(-89.91)">0</text><text class="cls-28" transform="translate(266.52 267.36) rotate(-89.91)">0</text><line class="cls-17" x1="272.28" y1="123.6" x2="272.28" y2="242.64"/><line class="cls-16" x1="272.28" y1="242.64" x2="267.96" y2="238.32"/><line class="cls-16" x1="272.28" y1="242.64" x2="276.36" y2="246.96"/><line class="cls-17" x1="272.28" y1="242.64" x2="279.24" y2="242.64"/><line class="cls-17" x1="272.28" y1="242.64" x2="258.12" y2="242.64"/><line class="cls-17" x1="272.28" y1="4.56" x2="272.28" y2="123.6"/><line class="cls-16" x1="272.28" y1="123.6" x2="267.96" y2="119.28"/><line class="cls-16" x1="272.28" y1="123.6" x2="276.36" y2="127.92"/><line class="cls-17" x1="272.28" y1="123.6" x2="265.08" y2="123.6"/><line class="cls-17" x1="272.28" y1="123.6" x2="286.44" y2="123.6"/><line class="cls-16" x1="272.28" y1="4.56" x2="267.96" y2="0.24"/><line class="cls-16" x1="272.28" y1="4.56" x2="276.36" y2="8.88"/><line class="cls-17" x1="272.28" y1="4.56" x2="279.24" y2="4.56"/><line class="cls-17" x1="272.28" y1="4.56" x2="258.12" y2="4.56"/><rect class="cls-18" x="258.84" y="59.28" width="9.6" height="9.6"/><text class="cls-28" transform="translate(266.52 68.64) rotate(-89.91)">E</text><text class="cls-28" transform="translate(266.52 64.32) rotate(-89.91)">Q</text><rect class="cls-18" x="258.84" y="178.56" width="9.6" height="9.6"/><text class="cls-28" transform="translate(266.52 187.92) rotate(-89.91)">E</text><text class="cls-28" transform="translate(266.52 183.6) rotate(-89.91)">Q</text><line class="cls-17" x1="253.08" y1="64.08" x2="253.08" y2="123.6"/><line class="cls-16" x1="253.08" y1="123.6" x2="248.76" y2="119.28"/><line class="cls-16" x1="253.08" y1="123.6" x2="257.16" y2="127.92"/><line class="cls-17" x1="253.08" y1="123.6" x2="245.88" y2="123.6"/><line class="cls-17" x1="253.08" y1="123.6" x2="267.24" y2="123.6"/><line class="cls-17" x1="253.08" y1="4.56" x2="253.08" y2="64.08"/><line class="cls-16" x1="253.08" y1="64.08" x2="248.76" y2="59.76"/><line class="cls-16" x1="253.08" y1="64.08" x2="257.16" y2="68.4"/><line class="cls-17" x1="253.08" y1="64.08" x2="260.04" y2="64.08"/><line class="cls-17" x1="253.08" y1="64.08" x2="238.92" y2="64.08"/><line class="cls-16" x1="253.08" y1="4.56" x2="248.76" y2="0.24"/><line class="cls-16" x1="253.08" y1="4.56" x2="257.16" y2="8.88"/><line class="cls-17" x1="253.08" y1="4.56" x2="260.04" y2="4.56"/><line class="cls-17" x1="253.08" y1="4.56" x2="238.92" y2="4.56"/><rect class="cls-18" x="239.64" y="29.52" width="9.6" height="9.6"/><text class="cls-28" transform="translate(247.32 38.88) rotate(-89.91)">E</text><text class="cls-28" transform="translate(247.32 34.56) rotate(-89.91)">Q</text><rect class="cls-18" x="239.64" y="89.28" width="9.6" height="9.6"/><text class="cls-28" transform="translate(247.32 98.64) rotate(-89.91)">E</text><text class="cls-28" transform="translate(247.32 94.32) rotate(-89.91)">Q</text><line class="cls-17" x1="253.08" y1="183.12" x2="253.08" y2="123.6"/><line class="cls-16" x1="253.08" y1="123.6" x2="257.16" y2="127.92"/><line class="cls-16" x1="253.08" y1="123.6" x2="248.76" y2="119.28"/><line class="cls-17" x1="253.08" y1="123.6" x2="260.04" y2="123.6"/><line class="cls-17" x1="253.08" y1="123.6" x2="238.92" y2="123.6"/><line class="cls-17" x1="253.08" y1="242.64" x2="253.08" y2="183.12"/><line class="cls-16" x1="253.08" y1="183.12" x2="257.16" y2="187.44"/><line class="cls-16" x1="253.08" y1="183.12" x2="248.76" y2="178.8"/><line class="cls-17" x1="253.08" y1="183.12" x2="260.04" y2="183.12"/><line class="cls-17" x1="253.08" y1="183.12" x2="238.92" y2="183.12"/><line class="cls-16" x1="253.08" y1="242.64" x2="257.16" y2="246.96"/><line class="cls-16" x1="253.08" y1="242.64" x2="248.76" y2="238.32"/><line class="cls-17" x1="253.08" y1="242.64" x2="260.04" y2="242.64"/><line class="cls-17" x1="253.08" y1="242.64" x2="238.92" y2="242.64"/><rect class="cls-18" x="239.64" y="208.32" width="9.6" height="9.6"/><text class="cls-28" transform="translate(247.32 217.68) rotate(-89.91)">E</text><text class="cls-28" transform="translate(247.32 213.36) rotate(-89.91)">Q</text><rect class="cls-18" x="239.64" y="148.8" width="9.6" height="9.6"/><text class="cls-28" transform="translate(247.32 158.16) rotate(-89.91)">E</text><text class="cls-28" transform="translate(247.32 153.84) rotate(-89.91)">Q</text></g></g></svg>