<svg xmlns="http://www.w3.org/2000/svg" xmlns:xlink="http://www.w3.org/1999/xlink" viewBox="0 0 282.48 471.96"><defs><style>.cls-1,.cls-14,.cls-15,.cls-16,.cls-17,.cls-2{fill:none;}.cls-1{clip-rule:evenodd;}.cls-3{clip-path:url(#clip-path);}.cls-4{clip-path:url(#clip-path-2);}.cls-5{fill:#c6d3b4;}.cls-11,.cls-6{font-size:4.08px;font-family:ArialMT, Arial;}.cls-11,.cls-7{letter-spacing:-0.03em;}.cls-8{letter-spacing:0.02em;}.cls-9{letter-spacing:-0.09em;}.cls-10{letter-spacing:0.02em;}.cls-12{letter-spacing:-0.04em;}.cls-13{letter-spacing:0em;}.cls-14,.cls-15{stroke:#000;}.cls-14,.cls-15,.cls-16,.cls-17{stroke-linecap:round;stroke-linejoin:round;}.cls-14,.cls-17{stroke-width:0.24px;}.cls-15,.cls-16{stroke-width:0.48px;}.cls-16,.cls-17{stroke:red;}.cls-18{fill:#fff;}.cls-19,.cls-21{font-size:8.05px;fill:red;font-family:ArialNarrow, Arial;}.cls-20,.cls-21{letter-spacing:-0.01em;}.cls-22{letter-spacing:0em;}.cls-23{letter-spacing:-0.01em;}.cls-24{letter-spacing:-0.01em;}.cls-25{letter-spacing:-0.04em;}.cls-26{letter-spacing:-0.02em;}.cls-27{letter-spacing:0.01em;}.cls-28{letter-spacing:-0.02em;}.cls-29{letter-spacing:0.02em;}.cls-30{letter-spacing:-0.03em;}.cls-31{letter-spacing:0em;}</style><clipPath id="clip-path" transform="translate(-866.26 -365.4)"><path class="cls-1" d="M981.34,596.76l-.72.24-.24.24-.48.24-.24.24-.48,1V651h.24l.24.24V652h.48l.48.48.72.24,121,.24v-.24l.72-.24.48-.24.24-.24.24-.48.24-.24.24-52.8-.24-.24H1104v-.48l-.48-.48L1103,597l-.72-.24M980.62,426.84l-.24.24-.48.24-.24.72-.24.48-.24.24v52.08h.24l.24.24v.48h.24V482h.48l.24.24.72.24,19,.24,101.28.24v-.24l1.44-.48.48-.24.24-.24.24-.48.24-.24.24-52.56-.24-.24H1104v-.72l-.48-.48-.48-.24ZM873.1,373.32V820h99.84V763.32h55v-1.2h11V760.2h-.24v-1.92h-.24V756.6h-.24v-2.88H1038v-2.88l-.24-.24.24-1.2.24-1.44a11.8,11.8,0,0,1,6-7.92l.48-.48.72-.24,1.92-1,1.2-.24,1.92-.48,1.44-.24H1055l1.44.24,1.2.24,1.92.48.72.24,2.4,1.2.48.48.48.24,3.36,3.36v.48h.24l.24.24v.48h.24l.24.24v.48h.24v.72h.24v1h.24v1h.24l-.24,7.92-.48,3.84-.24,1.68,11,.24v1.2h31.2v-390Z"/></clipPath><clipPath id="clip-path-2" transform="translate(-866.26 -365.4)"><rect class="cls-2" width="1684.08" height="1191.12"/></clipPath></defs><title>PushIt - Floor Plan - SP-Room-Bed_Ens_Square_Sample_2</title><g id="Layer_2" data-name="Layer 2"><g id="Layer_1-2" data-name="Layer 1"><g class="cls-3"><g class="cls-4"><rect class="cls-5" x="6.84" y="7.92" width="237.12" height="446.64"/></g></g><text class="cls-6" transform="translate(123 127.68)">?</text><text class="cls-6" transform="translate(113.64 140.4)"><tspan class="cls-7">4300</tspan><tspan class="cls-8" x="8.64" y="0"> </tspan><tspan class="cls-9" x="9.84" y="0">x</tspan><tspan class="cls-10" x="11.52" y="0"> </tspan><tspan class="cls-7" x="12.72" y="0">800</tspan><tspan x="19.2" y="0">0</tspan></text><text class="cls-6" transform="translate(121.08 132)"><tspan class="cls-7">5</tspan><tspan class="cls-10" x="2.16" y="0">.</tspan><tspan class="cls-7" x="3.36" y="0">5</tspan><tspan x="5.52" y="0">0</tspan></text><text class="cls-11" transform="translate(112.45 136.08)">31<tspan class="cls-8" x="4.32" y="0">.</tspan><tspan x="5.52" y="0">98</tspan><tspan class="cls-8" x="9.84" y="0"> </tspan><tspan class="cls-12" x="11.04" y="0">(</tspan><tspan x="12.24" y="0">30</tspan><tspan class="cls-8" x="16.55" y="0">.</tspan><tspan x="17.75" y="0">52</tspan><tspan class="cls-13" x="22.07" y="0">)</tspan></text><text class="cls-6" transform="translate(123.01 123.36)">?</text><polyline class="cls-14" points="106.68 454.56 6.84 454.56 6.84 7.92 243.96 7.92 243.96 397.92 106.68 397.92 106.68 454.56"/><polyline class="cls-14" points="250.68 0.96 0.12 0.96 0.12 461.52 113.4 461.52 113.4 404.64 250.68 404.64 250.68 0.96"/><polyline class="cls-15" points="176.52 389.52 177.96 389.76 179.4 390"/><polyline class="cls-15" points="197.88 389.52 196.44 389.76 195 390"/><line class="cls-15" x1="173.88" y1="386.4" x2="173.88" y2="386.88"/><polyline class="cls-15" points="173.88 386.4 173.64 384.72 173.88 383.28"/><polyline class="cls-15" points="176.52 389.52 174.84 388.56 173.88 386.88"/><line class="cls-15" x1="200.52" y1="386.4" x2="200.52" y2="386.88"/><polyline class="cls-15" points="200.52 386.4 200.76 384.72 200.52 383.28"/><polyline class="cls-15" points="197.88 389.52 199.56 388.56 200.52 386.88"/><line class="cls-14" x1="201.48" y1="397.92" x2="172.92" y2="397.92"/><polyline class="cls-14" points="201.72 380.4 200.04 378 198.12 376.08"/><polyline class="cls-14" points="202.68 385.44 202.44 382.8 201.72 380.4"/><polyline class="cls-14" points="201.48 397.92 202.44 391.68 202.68 385.44"/><polyline class="cls-14" points="171.48 385.44 171.96 391.68 172.92 397.92"/><polyline class="cls-14" points="193.32 373.2 190.2 372.48 187.08 372"/><polyline class="cls-14" points="198.12 376.08 195.96 374.4 193.32 373.2"/><polyline class="cls-14" points="172.68 380.4 171.96 382.8 171.48 385.44"/><polyline class="cls-14" points="176.04 376.08 174.12 378 172.68 380.4"/><polyline class="cls-14" points="181.08 373.2 178.44 374.4 176.04 376.08"/><polyline class="cls-14" points="187.08 372 184.2 372.48 181.08 373.2"/><polyline class="cls-15" points="172.68 396.72 201.72 396.72 202.44 391.2 202.68 385.44 202.44 382.8 201.72 380.4 200.04 378 198.12 376.08 195.96 374.4 193.32 373.2 190.2 372.48 187.08 372 184.2 372.48 181.08 373.2 178.44 374.4 176.04 376.08 174.12 378 172.68 380.4 171.96 382.8 171.48 385.44 171.96 391.2 172.68 396.72"/><polyline class="cls-15" points="161.64 397.92 212.76 397.92 212.76 396.72 161.64 396.72 161.64 397.92"/><line class="cls-14" x1="6.84" y1="7.92" x2="6.84" y2="10.32"/><line class="cls-14" x1="6.84" y1="12" x2="6.84" y2="14.16"/><line class="cls-14" x1="6.84" y1="15.84" x2="6.84" y2="18"/><line class="cls-14" x1="6.84" y1="19.68" x2="6.84" y2="21.84"/><line class="cls-14" x1="6.84" y1="23.52" x2="6.84" y2="25.68"/><line class="cls-14" x1="6.84" y1="27.36" x2="6.84" y2="29.52"/><line class="cls-14" x1="6.84" y1="31.2" x2="6.84" y2="33.36"/><line class="cls-14" x1="6.84" y1="35.04" x2="6.84" y2="37.2"/><line class="cls-14" x1="6.84" y1="38.88" x2="6.84" y2="40.8"/><line class="cls-14" x1="6.84" y1="42.72" x2="6.84" y2="44.64"/><line class="cls-14" x1="6.84" y1="46.56" x2="6.84" y2="48.48"/><line class="cls-14" x1="6.84" y1="50.16" x2="6.84" y2="52.32"/><line class="cls-14" x1="6.84" y1="54" x2="6.84" y2="56.16"/><line class="cls-14" x1="6.84" y1="57.84" x2="6.84" y2="60"/><line class="cls-14" x1="6.84" y1="61.68" x2="6.84" y2="63.84"/><line class="cls-14" x1="6.84" y1="65.52" x2="6.84" y2="67.68"/><line class="cls-14" x1="6.84" y1="69.36" x2="6.84" y2="71.52"/><line class="cls-14" x1="6.84" y1="73.2" x2="6.84" y2="75.36"/><line class="cls-14" x1="6.84" y1="77.04" x2="6.84" y2="79.2"/><line class="cls-14" x1="6.84" y1="80.88" x2="6.84" y2="83.04"/><line class="cls-14" x1="6.84" y1="84.72" x2="6.84" y2="86.88"/><line class="cls-14" x1="6.84" y1="88.56" x2="6.84" y2="90.72"/><line class="cls-14" x1="6.84" y1="92.4" x2="6.84" y2="94.56"/><line class="cls-14" x1="6.84" y1="96.24" x2="6.84" y2="98.4"/><line class="cls-14" x1="6.84" y1="100.08" x2="6.84" y2="102.24"/><line class="cls-14" x1="6.84" y1="103.92" x2="6.84" y2="106.08"/><line class="cls-14" x1="6.84" y1="107.76" x2="6.84" y2="109.92"/><line class="cls-14" x1="6.84" y1="111.6" x2="6.84" y2="113.52"/><line class="cls-14" x1="6.84" y1="115.44" x2="6.84" y2="117.36"/><line class="cls-14" x1="6.84" y1="119.28" x2="6.84" y2="121.2"/><line class="cls-14" x1="6.84" y1="122.88" x2="6.84" y2="125.04"/><line class="cls-14" x1="6.84" y1="126.72" x2="6.84" y2="128.88"/><line class="cls-14" x1="6.84" y1="130.56" x2="6.84" y2="132.72"/><line class="cls-14" x1="6.84" y1="134.4" x2="6.84" y2="136.56"/><line class="cls-14" x1="6.84" y1="138.24" x2="6.84" y2="140.4"/><line class="cls-14" x1="6.84" y1="142.08" x2="6.84" y2="144.24"/><line class="cls-14" x1="6.84" y1="145.92" x2="6.84" y2="148.08"/><line class="cls-14" x1="6.84" y1="149.76" x2="6.84" y2="151.92"/><line class="cls-14" x1="6.84" y1="153.6" x2="6.84" y2="155.76"/><line class="cls-14" x1="6.84" y1="157.44" x2="6.84" y2="159.6"/><line class="cls-14" x1="6.84" y1="161.28" x2="6.84" y2="163.44"/><line class="cls-14" x1="6.84" y1="165.12" x2="6.84" y2="167.28"/><line class="cls-14" x1="6.84" y1="168.96" x2="6.84" y2="171.12"/><line class="cls-14" x1="6.84" y1="172.8" x2="6.84" y2="174.96"/><line class="cls-14" x1="6.84" y1="176.64" x2="6.84" y2="178.8"/><line class="cls-14" x1="6.84" y1="180.48" x2="6.84" y2="182.64"/><line class="cls-14" x1="6.84" y1="184.32" x2="6.84" y2="186.24"/><line class="cls-14" x1="6.84" y1="188.16" x2="6.84" y2="190.08"/><line class="cls-14" x1="6.84" y1="191.76" x2="6.84" y2="193.92"/><line class="cls-14" x1="6.84" y1="195.6" x2="6.84" y2="197.76"/><line class="cls-14" x1="6.84" y1="199.44" x2="6.84" y2="201.6"/><line class="cls-14" x1="6.84" y1="203.28" x2="6.84" y2="205.44"/><line class="cls-14" x1="6.84" y1="207.12" x2="6.84" y2="209.28"/><line class="cls-14" x1="6.84" y1="210.96" x2="6.84" y2="213.12"/><line class="cls-14" x1="6.84" y1="214.8" x2="6.84" y2="216.96"/><line class="cls-14" x1="6.84" y1="218.64" x2="6.84" y2="220.8"/><line class="cls-14" x1="6.84" y1="222.48" x2="6.84" y2="224.64"/><line class="cls-14" x1="6.84" y1="226.32" x2="6.84" y2="228.48"/><line class="cls-14" x1="6.84" y1="230.16" x2="6.84" y2="232.32"/><line class="cls-14" x1="6.84" y1="234" x2="6.84" y2="236.16"/><line class="cls-14" x1="6.84" y1="237.84" x2="6.84" y2="240"/><line class="cls-14" x1="6.84" y1="241.68" x2="6.84" y2="243.84"/><line class="cls-14" x1="6.84" y1="245.52" x2="6.84" y2="247.68"/><line class="cls-14" x1="6.84" y1="249.36" x2="6.84" y2="251.52"/><line class="cls-14" x1="6.84" y1="253.2" x2="6.84" y2="255.12"/><line class="cls-14" x1="6.84" y1="257.04" x2="6.84" y2="258.96"/><line class="cls-14" x1="6.84" y1="260.88" x2="6.84" y2="262.8"/><line class="cls-14" x1="6.84" y1="264.48" x2="6.84" y2="266.64"/><line class="cls-14" x1="6.84" y1="268.32" x2="6.84" y2="270.48"/><line class="cls-14" x1="6.84" y1="272.16" x2="6.84" y2="274.32"/><line class="cls-14" x1="6.84" y1="276" x2="6.84" y2="278.16"/><line class="cls-14" x1="6.84" y1="279.84" x2="6.84" y2="282"/><line class="cls-14" x1="6.84" y1="283.68" x2="6.84" y2="285.84"/><line class="cls-14" x1="6.84" y1="287.52" x2="6.84" y2="289.68"/><line class="cls-14" x1="6.84" y1="291.36" x2="6.84" y2="293.52"/><line class="cls-14" x1="6.84" y1="295.2" x2="6.84" y2="297.36"/><line class="cls-14" x1="6.84" y1="299.04" x2="6.84" y2="301.2"/><line class="cls-14" x1="6.84" y1="302.88" x2="6.84" y2="305.04"/><line class="cls-14" x1="6.84" y1="306.72" x2="6.84" y2="308.88"/><line class="cls-14" x1="6.84" y1="310.56" x2="6.84" y2="312.72"/><line class="cls-14" x1="6.84" y1="314.4" x2="6.84" y2="316.56"/><line class="cls-14" x1="6.84" y1="318.24" x2="6.84" y2="320.4"/><line class="cls-14" x1="6.84" y1="322.08" x2="6.84" y2="324.24"/><line class="cls-14" x1="6.84" y1="325.92" x2="6.84" y2="327.84"/><line class="cls-14" x1="6.84" y1="329.76" x2="6.84" y2="331.68"/><line class="cls-14" x1="6.84" y1="333.36" x2="6.84" y2="335.52"/><line class="cls-14" x1="6.84" y1="337.2" x2="6.84" y2="339.36"/><line class="cls-14" x1="6.84" y1="341.04" x2="6.84" y2="343.2"/><line class="cls-14" x1="6.84" y1="344.88" x2="6.84" y2="347.04"/><line class="cls-14" x1="6.84" y1="348.72" x2="6.84" y2="350.88"/><line class="cls-14" x1="6.84" y1="352.56" x2="6.84" y2="354.72"/><line class="cls-14" x1="6.84" y1="356.4" x2="6.84" y2="358.56"/><line class="cls-14" x1="6.84" y1="360.24" x2="6.84" y2="362.4"/><line class="cls-14" x1="6.84" y1="364.08" x2="6.84" y2="366.24"/><line class="cls-14" x1="6.84" y1="367.92" x2="6.84" y2="370.08"/><line class="cls-14" x1="6.84" y1="371.76" x2="6.84" y2="373.92"/><line class="cls-14" x1="6.84" y1="375.6" x2="6.84" y2="377.76"/><line class="cls-14" x1="6.84" y1="379.44" x2="6.84" y2="381.6"/><line class="cls-14" x1="6.84" y1="383.28" x2="6.84" y2="385.44"/><line class="cls-14" x1="6.84" y1="387.12" x2="6.84" y2="389.28"/><line class="cls-14" x1="6.84" y1="390.96" x2="6.84" y2="393.12"/><line class="cls-14" x1="6.84" y1="394.8" x2="6.84" y2="396.72"/><line class="cls-14" x1="6.84" y1="398.64" x2="6.84" y2="400.56"/><line class="cls-14" x1="6.84" y1="402.48" x2="6.84" y2="404.4"/><line class="cls-14" x1="6.84" y1="406.08" x2="6.84" y2="408.24"/><line class="cls-14" x1="6.84" y1="409.92" x2="6.84" y2="412.08"/><line class="cls-14" x1="6.84" y1="413.76" x2="6.84" y2="415.92"/><line class="cls-14" x1="6.84" y1="417.6" x2="6.84" y2="419.76"/><line class="cls-14" x1="6.84" y1="421.44" x2="6.84" y2="423.6"/><line class="cls-14" x1="6.84" y1="425.28" x2="6.84" y2="427.44"/><line class="cls-14" x1="6.84" y1="429.12" x2="6.84" y2="431.28"/><line class="cls-14" x1="6.84" y1="432.96" x2="6.84" y2="435.12"/><line class="cls-14" x1="6.84" y1="436.8" x2="6.84" y2="438.96"/><line class="cls-14" x1="6.84" y1="440.64" x2="6.84" y2="442.8"/><line class="cls-14" x1="6.84" y1="444.48" x2="6.84" y2="446.64"/><line class="cls-14" x1="6.84" y1="448.32" x2="6.84" y2="450.48"/><polyline class="cls-14" points="6.84 452.16 6.84 454.56 8.04 454.56"/><line class="cls-14" x1="9.72" y1="454.56" x2="11.88" y2="454.56"/><line class="cls-14" x1="13.56" y1="454.56" x2="15.72" y2="454.56"/><line class="cls-14" x1="17.4" y1="454.56" x2="19.56" y2="454.56"/><line class="cls-14" x1="21.24" y1="454.56" x2="23.4" y2="454.56"/><line class="cls-14" x1="25.08" y1="454.56" x2="27.24" y2="454.56"/><line class="cls-14" x1="28.92" y1="454.56" x2="31.08" y2="454.56"/><line class="cls-14" x1="32.76" y1="454.56" x2="34.92" y2="454.56"/><line class="cls-14" x1="36.6" y1="454.56" x2="38.76" y2="454.56"/><line class="cls-14" x1="40.44" y1="454.56" x2="42.6" y2="454.56"/><line class="cls-14" x1="44.28" y1="454.56" x2="46.44" y2="454.56"/><line class="cls-14" x1="48.12" y1="454.56" x2="50.28" y2="454.56"/><line class="cls-14" x1="51.96" y1="454.56" x2="54.12" y2="454.56"/><line class="cls-14" x1="55.8" y1="454.56" x2="57.96" y2="454.56"/><line class="cls-14" x1="59.64" y1="454.56" x2="61.56" y2="454.56"/><line class="cls-14" x1="63.48" y1="454.56" x2="65.4" y2="454.56"/><line class="cls-14" x1="67.08" y1="454.56" x2="69.24" y2="454.56"/><line class="cls-14" x1="70.92" y1="454.56" x2="73.08" y2="454.56"/><line class="cls-14" x1="74.76" y1="454.56" x2="76.92" y2="454.56"/><line class="cls-14" x1="78.6" y1="454.56" x2="80.76" y2="454.56"/><line class="cls-14" x1="82.44" y1="454.56" x2="84.6" y2="454.56"/><line class="cls-14" x1="86.28" y1="454.56" x2="88.44" y2="454.56"/><line class="cls-14" x1="90.12" y1="454.56" x2="92.28" y2="454.56"/><line class="cls-14" x1="93.96" y1="454.56" x2="96.12" y2="454.56"/><line class="cls-14" x1="97.8" y1="454.56" x2="99.96" y2="454.56"/><line class="cls-14" x1="101.64" y1="454.56" x2="103.8" y2="454.56"/><polyline class="cls-14" points="105.48 454.56 106.68 454.56 106.68 451.92"/><line class="cls-14" x1="106.68" y1="450.24" x2="106.68" y2="448.08"/><line class="cls-14" x1="106.68" y1="446.4" x2="106.68" y2="444.24"/><line class="cls-14" x1="106.68" y1="442.56" x2="106.68" y2="440.4"/><line class="cls-14" x1="106.68" y1="438.72" x2="106.68" y2="436.56"/><line class="cls-14" x1="106.68" y1="434.88" x2="106.68" y2="432.72"/><line class="cls-14" x1="106.68" y1="431.04" x2="106.68" y2="429.12"/><line class="cls-14" x1="106.68" y1="427.2" x2="106.68" y2="425.28"/><line class="cls-14" x1="106.68" y1="423.6" x2="106.68" y2="421.44"/><line class="cls-14" x1="106.68" y1="419.76" x2="106.68" y2="417.6"/><line class="cls-14" x1="106.68" y1="415.92" x2="106.68" y2="413.76"/><line class="cls-14" x1="106.68" y1="412.08" x2="106.68" y2="409.92"/><line class="cls-14" x1="106.68" y1="408.24" x2="106.68" y2="406.08"/><line class="cls-14" x1="106.68" y1="404.4" x2="106.68" y2="402.24"/><polyline class="cls-14" points="106.68 400.56 106.68 397.92 108.36 397.92"/><line class="cls-14" x1="110.04" y1="397.92" x2="112.2" y2="397.92"/><line class="cls-14" x1="113.88" y1="397.92" x2="116.04" y2="397.92"/><line class="cls-14" x1="117.72" y1="397.92" x2="119.88" y2="397.92"/><line class="cls-14" x1="121.56" y1="397.92" x2="123.72" y2="397.92"/><line class="cls-14" x1="125.4" y1="397.92" x2="127.56" y2="397.92"/><line class="cls-14" x1="129.24" y1="397.92" x2="131.4" y2="397.92"/><line class="cls-14" x1="133.08" y1="397.92" x2="135.24" y2="397.92"/><line class="cls-14" x1="136.92" y1="397.92" x2="139.08" y2="397.92"/><line class="cls-14" x1="140.76" y1="397.92" x2="142.92" y2="397.92"/><line class="cls-14" x1="144.6" y1="397.92" x2="146.76" y2="397.92"/><line class="cls-14" x1="148.44" y1="397.92" x2="150.6" y2="397.92"/><line class="cls-14" x1="152.28" y1="397.92" x2="154.44" y2="397.92"/><line class="cls-14" x1="156.12" y1="397.92" x2="158.28" y2="397.92"/><line class="cls-14" x1="159.96" y1="397.92" x2="161.64" y2="397.92"/><line class="cls-14" x1="212.76" y1="397.92" x2="213.96" y2="397.92"/><line class="cls-14" x1="215.64" y1="397.92" x2="217.8" y2="397.92"/><line class="cls-14" x1="219.48" y1="397.92" x2="221.64" y2="397.92"/><line class="cls-14" x1="223.32" y1="397.92" x2="225.48" y2="397.92"/><line class="cls-14" x1="227.16" y1="397.92" x2="229.32" y2="397.92"/><line class="cls-14" x1="231" y1="397.92" x2="233.16" y2="397.92"/><line class="cls-14" x1="234.84" y1="397.92" x2="237" y2="397.92"/><line class="cls-14" x1="238.68" y1="397.92" x2="240.84" y2="397.92"/><polyline class="cls-14" points="242.52 397.92 243.96 397.92 243.96 395.04"/><line class="cls-14" x1="243.96" y1="393.36" x2="243.96" y2="391.2"/><line class="cls-14" x1="243.96" y1="389.52" x2="243.96" y2="387.36"/><line class="cls-14" x1="243.96" y1="385.68" x2="243.96" y2="383.52"/><line class="cls-14" x1="243.96" y1="381.84" x2="243.96" y2="379.68"/><line class="cls-14" x1="243.96" y1="378" x2="243.96" y2="375.84"/><line class="cls-14" x1="243.96" y1="374.16" x2="243.96" y2="372"/><line class="cls-14" x1="243.96" y1="370.32" x2="243.96" y2="368.16"/><line class="cls-14" x1="243.96" y1="366.48" x2="243.96" y2="364.56"/><line class="cls-14" x1="243.96" y1="362.64" x2="243.96" y2="360.72"/><line class="cls-14" x1="243.96" y1="359.04" x2="243.96" y2="356.88"/><line class="cls-14" x1="243.96" y1="355.2" x2="243.96" y2="353.04"/><line class="cls-14" x1="243.96" y1="351.36" x2="243.96" y2="349.2"/><line class="cls-14" x1="243.96" y1="347.52" x2="243.96" y2="345.36"/><line class="cls-14" x1="243.96" y1="343.68" x2="243.96" y2="341.52"/><line class="cls-14" x1="243.96" y1="339.84" x2="243.96" y2="337.68"/><line class="cls-14" x1="243.96" y1="336" x2="243.96" y2="333.84"/><line class="cls-14" x1="243.96" y1="332.16" x2="243.96" y2="330"/><line class="cls-14" x1="243.96" y1="328.32" x2="243.96" y2="326.16"/><line class="cls-14" x1="243.96" y1="324.48" x2="243.96" y2="322.32"/><line class="cls-14" x1="243.96" y1="320.64" x2="243.96" y2="318.48"/><line class="cls-14" x1="243.96" y1="316.8" x2="243.96" y2="314.64"/><line class="cls-14" x1="243.96" y1="312.96" x2="243.96" y2="310.8"/><line class="cls-14" x1="243.96" y1="309.12" x2="243.96" y2="306.96"/><line class="cls-14" x1="243.96" y1="305.28" x2="243.96" y2="303.12"/><line class="cls-14" x1="243.96" y1="301.44" x2="243.96" y2="299.28"/><line class="cls-14" x1="243.96" y1="297.6" x2="243.96" y2="295.68"/><line class="cls-14" x1="243.96" y1="293.76" x2="243.96" y2="291.84"/><line class="cls-14" x1="243.96" y1="289.92" x2="243.96" y2="288"/><line class="cls-14" x1="243.96" y1="286.32" x2="243.96" y2="284.16"/><line class="cls-14" x1="243.96" y1="282.48" x2="243.96" y2="280.32"/><line class="cls-14" x1="243.96" y1="278.64" x2="243.96" y2="276.48"/><line class="cls-14" x1="243.96" y1="274.8" x2="243.96" y2="272.64"/><line class="cls-14" x1="243.96" y1="270.96" x2="243.96" y2="268.8"/><line class="cls-14" x1="243.96" y1="267.12" x2="243.96" y2="264.96"/><line class="cls-14" x1="243.96" y1="263.28" x2="243.96" y2="261.12"/><line class="cls-14" x1="243.96" y1="259.44" x2="243.96" y2="257.28"/><line class="cls-14" x1="243.96" y1="255.6" x2="243.96" y2="253.44"/><line class="cls-14" x1="243.96" y1="251.76" x2="243.96" y2="249.6"/><line class="cls-14" x1="243.96" y1="247.92" x2="243.96" y2="245.76"/><line class="cls-14" x1="243.96" y1="244.08" x2="243.96" y2="241.92"/><line class="cls-14" x1="243.96" y1="240.24" x2="243.96" y2="238.08"/><line class="cls-14" x1="243.96" y1="236.4" x2="243.96" y2="234.24"/><line class="cls-14" x1="243.96" y1="232.56" x2="243.96" y2="230.4"/><line class="cls-14" x1="243.96" y1="228.72" x2="243.96" y2="226.56"/><line class="cls-14" x1="243.96" y1="224.88" x2="243.96" y2="222.96"/><line class="cls-14" x1="243.96" y1="221.04" x2="243.96" y2="219.12"/><line class="cls-14" x1="243.96" y1="217.2" x2="243.96" y2="215.28"/><line class="cls-14" x1="243.96" y1="213.6" x2="243.96" y2="211.44"/><line class="cls-14" x1="243.96" y1="209.76" x2="243.96" y2="207.6"/><line class="cls-14" x1="243.96" y1="205.92" x2="243.96" y2="203.76"/><line class="cls-14" x1="243.96" y1="202.08" x2="243.96" y2="199.92"/><line class="cls-14" x1="243.96" y1="198.24" x2="243.96" y2="196.08"/><line class="cls-14" x1="243.96" y1="194.4" x2="243.96" y2="192.24"/><line class="cls-14" x1="243.96" y1="190.56" x2="243.96" y2="188.4"/><line class="cls-14" x1="243.96" y1="186.72" x2="243.96" y2="184.56"/><line class="cls-14" x1="243.96" y1="182.88" x2="243.96" y2="180.72"/><line class="cls-14" x1="243.96" y1="179.04" x2="243.96" y2="176.88"/><line class="cls-14" x1="243.96" y1="175.2" x2="243.96" y2="173.04"/><line class="cls-14" x1="243.96" y1="171.36" x2="243.96" y2="169.2"/><line class="cls-14" x1="243.96" y1="167.52" x2="243.96" y2="165.36"/><line class="cls-14" x1="243.96" y1="163.68" x2="243.96" y2="161.52"/><line class="cls-14" x1="243.96" y1="159.84" x2="243.96" y2="157.68"/><line class="cls-14" x1="243.96" y1="156" x2="243.96" y2="153.84"/><line class="cls-14" x1="243.96" y1="152.16" x2="243.96" y2="150.24"/><line class="cls-14" x1="243.96" y1="148.32" x2="243.96" y2="146.4"/><line class="cls-14" x1="243.96" y1="144.72" x2="243.96" y2="142.56"/><line class="cls-14" x1="243.96" y1="140.88" x2="243.96" y2="138.72"/><line class="cls-14" x1="243.96" y1="137.04" x2="243.96" y2="134.88"/><line class="cls-14" x1="243.96" y1="133.2" x2="243.96" y2="131.04"/><line class="cls-14" x1="243.96" y1="129.36" x2="243.96" y2="127.2"/><line class="cls-14" x1="243.96" y1="125.52" x2="243.96" y2="123.36"/><line class="cls-14" x1="243.96" y1="121.68" x2="243.96" y2="119.52"/><line class="cls-14" x1="243.96" y1="117.84" x2="243.96" y2="115.68"/><line class="cls-14" x1="243.96" y1="114" x2="243.96" y2="111.84"/><line class="cls-14" x1="243.96" y1="110.16" x2="243.96" y2="108"/><line class="cls-14" x1="243.96" y1="106.32" x2="243.96" y2="104.16"/><line class="cls-14" x1="243.96" y1="102.48" x2="243.96" y2="100.32"/><line class="cls-14" x1="243.96" y1="98.64" x2="243.96" y2="96.48"/><line class="cls-14" x1="243.96" y1="94.8" x2="243.96" y2="92.64"/><line class="cls-14" x1="243.96" y1="90.96" x2="243.96" y2="88.8"/><line class="cls-14" x1="243.96" y1="87.12" x2="243.96" y2="84.96"/><line class="cls-14" x1="243.96" y1="83.28" x2="243.96" y2="81.36"/><line class="cls-14" x1="243.96" y1="79.44" x2="243.96" y2="77.52"/><line class="cls-14" x1="243.96" y1="75.6" x2="243.96" y2="73.68"/><line class="cls-14" x1="243.96" y1="72" x2="243.96" y2="69.84"/><line class="cls-14" x1="243.96" y1="68.16" x2="243.96" y2="66"/><line class="cls-14" x1="243.96" y1="64.32" x2="243.96" y2="62.16"/><line class="cls-14" x1="243.96" y1="60.48" x2="243.96" y2="58.32"/><line class="cls-14" x1="243.96" y1="56.64" x2="243.96" y2="54.48"/><line class="cls-14" x1="243.96" y1="52.8" x2="243.96" y2="50.64"/><line class="cls-14" x1="243.96" y1="48.96" x2="243.96" y2="46.8"/><line class="cls-14" x1="243.96" y1="45.12" x2="243.96" y2="42.96"/><line class="cls-14" x1="243.96" y1="41.28" x2="243.96" y2="39.12"/><line class="cls-14" x1="243.96" y1="37.44" x2="243.96" y2="35.28"/><line class="cls-14" x1="243.96" y1="33.6" x2="243.96" y2="31.44"/><line class="cls-14" x1="243.96" y1="29.76" x2="243.96" y2="27.6"/><line class="cls-14" x1="243.96" y1="25.92" x2="243.96" y2="23.76"/><line class="cls-14" x1="243.96" y1="22.08" x2="243.96" y2="19.92"/><line class="cls-14" x1="243.96" y1="18.24" x2="243.96" y2="16.08"/><line class="cls-14" x1="243.96" y1="14.4" x2="243.96" y2="12.24"/><polyline class="cls-14" points="243.96 10.56 243.96 7.92 241.08 7.92"/><line class="cls-14" x1="239.4" y1="7.92" x2="237.24" y2="7.92"/><line class="cls-14" x1="235.56" y1="7.92" x2="233.4" y2="7.92"/><line class="cls-14" x1="231.72" y1="7.92" x2="229.56" y2="7.92"/><line class="cls-14" x1="227.88" y1="7.92" x2="225.72" y2="7.92"/><line class="cls-14" x1="224.04" y1="7.92" x2="221.88" y2="7.92"/><line class="cls-14" x1="220.2" y1="7.92" x2="218.04" y2="7.92"/><line class="cls-14" x1="216.36" y1="7.92" x2="214.2" y2="7.92"/><line class="cls-14" x1="212.52" y1="7.92" x2="210.36" y2="7.92"/><line class="cls-14" x1="208.68" y1="7.92" x2="206.52" y2="7.92"/><line class="cls-14" x1="204.84" y1="7.92" x2="202.68" y2="7.92"/><line class="cls-14" x1="201" y1="7.92" x2="198.84" y2="7.92"/><line class="cls-14" x1="197.16" y1="7.92" x2="195.24" y2="7.92"/><line class="cls-14" x1="193.32" y1="7.92" x2="191.4" y2="7.92"/><line class="cls-14" x1="189.48" y1="7.92" x2="187.56" y2="7.92"/><line class="cls-14" x1="185.88" y1="7.92" x2="183.72" y2="7.92"/><line class="cls-14" x1="182.04" y1="7.92" x2="179.88" y2="7.92"/><line class="cls-14" x1="178.2" y1="7.92" x2="176.04" y2="7.92"/><line class="cls-14" x1="174.36" y1="7.92" x2="172.2" y2="7.92"/><line class="cls-14" x1="170.52" y1="7.92" x2="168.36" y2="7.92"/><line class="cls-14" x1="166.68" y1="7.92" x2="164.52" y2="7.92"/><line class="cls-14" x1="162.84" y1="7.92" x2="160.68" y2="7.92"/><line class="cls-14" x1="159" y1="7.92" x2="156.84" y2="7.92"/><line class="cls-14" x1="155.16" y1="7.92" x2="153" y2="7.92"/><line class="cls-14" x1="151.32" y1="7.92" x2="149.16" y2="7.92"/><line class="cls-14" x1="147.48" y1="7.92" x2="145.32" y2="7.92"/><line class="cls-14" x1="143.64" y1="7.92" x2="141.48" y2="7.92"/><line class="cls-14" x1="139.8" y1="7.92" x2="137.64" y2="7.92"/><line class="cls-14" x1="135.96" y1="7.92" x2="133.8" y2="7.92"/><line class="cls-14" x1="132.12" y1="7.92" x2="129.96" y2="7.92"/><line class="cls-14" x1="128.28" y1="7.92" x2="126.12" y2="7.92"/><line class="cls-14" x1="124.44" y1="7.92" x2="122.52" y2="7.92"/><line class="cls-14" x1="120.6" y1="7.92" x2="118.68" y2="7.92"/><line class="cls-14" x1="116.76" y1="7.92" x2="114.84" y2="7.92"/><line class="cls-14" x1="113.16" y1="7.92" x2="111" y2="7.92"/><line class="cls-14" x1="109.32" y1="7.92" x2="107.16" y2="7.92"/><line class="cls-14" x1="105.48" y1="7.92" x2="103.32" y2="7.92"/><line class="cls-14" x1="101.64" y1="7.92" x2="99.48" y2="7.92"/><line class="cls-14" x1="97.8" y1="7.92" x2="95.64" y2="7.92"/><line class="cls-14" x1="93.96" y1="7.92" x2="91.8" y2="7.92"/><line class="cls-14" x1="90.12" y1="7.92" x2="87.96" y2="7.92"/><line class="cls-14" x1="86.28" y1="7.92" x2="84.12" y2="7.92"/><line class="cls-14" x1="82.44" y1="7.92" x2="80.28" y2="7.92"/><line class="cls-14" x1="78.6" y1="7.92" x2="76.44" y2="7.92"/><line class="cls-14" x1="74.76" y1="7.92" x2="72.6" y2="7.92"/><line class="cls-14" x1="70.92" y1="7.92" x2="68.76" y2="7.92"/><line class="cls-14" x1="67.08" y1="7.92" x2="64.92" y2="7.92"/><line class="cls-14" x1="63.24" y1="7.92" x2="61.08" y2="7.92"/><line class="cls-14" x1="59.4" y1="7.92" x2="57.24" y2="7.92"/><line class="cls-14" x1="55.56" y1="7.92" x2="53.4" y2="7.92"/><line class="cls-14" x1="51.72" y1="7.92" x2="49.8" y2="7.92"/><line class="cls-14" x1="47.88" y1="7.92" x2="45.96" y2="7.92"/><line class="cls-14" x1="44.28" y1="7.92" x2="42.12" y2="7.92"/><line class="cls-14" x1="40.44" y1="7.92" x2="38.28" y2="7.92"/><line class="cls-14" x1="36.6" y1="7.92" x2="34.44" y2="7.92"/><line class="cls-14" x1="32.76" y1="7.92" x2="30.6" y2="7.92"/><line class="cls-14" x1="28.92" y1="7.92" x2="26.76" y2="7.92"/><line class="cls-14" x1="25.08" y1="7.92" x2="22.92" y2="7.92"/><line class="cls-14" x1="21.24" y1="7.92" x2="19.08" y2="7.92"/><line class="cls-14" x1="17.4" y1="7.92" x2="15.24" y2="7.92"/><line class="cls-14" x1="13.56" y1="7.92" x2="11.4" y2="7.92"/><line class="cls-14" x1="9.72" y1="7.92" x2="6.84" y2="7.92"/><line class="cls-14" x1="115.8" y1="117.6" x2="235.32" y2="117.6"/><polyline class="cls-14" points="112.92 114.72 113.64 116.64 115.8 117.6"/><line class="cls-14" x1="112.92" y1="64.32" x2="112.92" y2="114.72"/><polyline class="cls-14" points="115.8 61.44 113.64 62.16 112.92 64.32"/><line class="cls-14" x1="235.32" y1="61.44" x2="115.8" y2="61.44"/><polyline class="cls-14" points="238.2 64.32 237.48 62.16 235.32 61.44"/><line class="cls-14" x1="238.2" y1="114.72" x2="238.2" y2="64.32"/><polyline class="cls-14" points="235.32 117.6 237.48 116.64 238.2 114.72"/><polyline class="cls-15" points="206.52 61.44 206.52 62.88 234.12 62.88 234.12 61.44 206.52 61.44"/><polyline class="cls-15" points="120.6 116.16 120.6 117.6 160.68 117.6 160.68 116.16 120.6 116.16"/><polyline class="cls-15" points="207 116.16 207 117.6 234.12 117.6 234.12 116.16 207 116.16"/><line class="cls-15" x1="114.84" y1="112.08" x2="113.4" y2="112.08"/><line class="cls-15" x1="114.84" y1="66.72" x2="114.84" y2="112.08"/><line class="cls-15" x1="113.4" y1="66.72" x2="114.84" y2="66.72"/><line class="cls-15" x1="113.4" y1="112.08" x2="113.4" y2="66.72"/><line class="cls-15" x1="236.28" y1="112.08" x2="237.96" y2="112.08"/><line class="cls-15" x1="236.28" y1="66.72" x2="236.28" y2="112.08"/><line class="cls-15" x1="237.96" y1="66.72" x2="236.28" y2="66.72"/><line class="cls-15" x1="237.96" y1="112.08" x2="237.96" y2="66.72"/><line class="cls-15" x1="209.64" y1="66.48" x2="233.4" y2="66.48"/><line class="cls-15" x1="209.64" y1="112.8" x2="209.64" y2="66.48"/><line class="cls-15" x1="233.4" y1="112.8" x2="209.64" y2="112.8"/><line class="cls-15" x1="233.4" y1="66.48" x2="233.4" y2="112.8"/><line class="cls-15" x1="117.96" y1="115.44" x2="233.16" y2="115.44"/><polyline class="cls-15" points="115.08 112.56 115.8 114.48 117.96 115.44"/><line class="cls-15" x1="115.08" y1="66.48" x2="115.08" y2="112.56"/><polyline class="cls-15" points="117.96 63.6 115.8 64.32 115.08 66.48"/><line class="cls-15" x1="233.16" y1="63.6" x2="117.96" y2="63.6"/><polyline class="cls-15" points="236.04 66.48 235.32 64.32 233.16 63.6"/><line class="cls-15" x1="236.04" y1="112.56" x2="236.04" y2="66.48"/><polyline class="cls-15" points="233.16 115.44 235.32 114.48 236.04 112.56"/><polyline class="cls-15" points="238.2 114.72 238.2 64.32 238.2 63.6 237.72 62.88 237.48 62.16 236.76 61.68 236.04 61.44 235.32 61.44 115.8 61.44 115.08 61.44 114.36 61.68 113.64 62.16 113.4 62.88 112.92 63.6 112.92 64.32 112.92 114.72 112.92 115.44 113.4 116.16 113.64 116.64 114.36 117.12 115.08 117.36 115.8 117.6 235.32 117.6 236.04 117.36 236.76 117.12 237.48 116.64 237.72 116.16 238.2 115.44 238.2 114.72"/><line class="cls-14" x1="115.8" y1="287.76" x2="235.32" y2="287.76"/><polyline class="cls-14" points="112.92 284.88 113.64 286.8 115.8 287.76"/><line class="cls-14" x1="112.92" y1="234.24" x2="112.92" y2="284.88"/><polyline class="cls-14" points="115.8 231.36 113.64 232.32 112.92 234.24"/><line class="cls-14" x1="235.32" y1="231.36" x2="115.8" y2="231.36"/><polyline class="cls-14" points="238.2 234.24 237.48 232.32 235.32 231.36"/><line class="cls-14" x1="238.2" y1="284.88" x2="238.2" y2="234.24"/><polyline class="cls-14" points="235.32 287.76 237.48 286.8 238.2 284.88"/><polyline class="cls-15" points="206.52 231.36 206.52 232.8 234.12 232.8 234.12 231.36 206.52 231.36"/><polyline class="cls-15" points="120.6 286.32 120.6 287.76 160.68 287.76 160.68 286.32 120.6 286.32"/><polyline class="cls-15" points="207 286.32 207 287.76 234.12 287.76 234.12 286.32 207 286.32"/><line class="cls-15" x1="114.84" y1="282.24" x2="113.4" y2="282.24"/><line class="cls-15" x1="114.84" y1="236.88" x2="114.84" y2="282.24"/><line class="cls-15" x1="113.4" y1="236.88" x2="114.84" y2="236.88"/><line class="cls-15" x1="113.4" y1="282.24" x2="113.4" y2="236.88"/><line class="cls-15" x1="236.28" y1="282" x2="237.96" y2="282"/><line class="cls-15" x1="236.28" y1="236.88" x2="236.28" y2="282"/><line class="cls-15" x1="237.96" y1="236.88" x2="236.28" y2="236.88"/><line class="cls-15" x1="237.96" y1="282" x2="237.96" y2="236.88"/><line class="cls-15" x1="209.64" y1="236.4" x2="233.4" y2="236.4"/><line class="cls-15" x1="209.64" y1="282.96" x2="209.64" y2="236.4"/><line class="cls-15" x1="233.4" y1="282.96" x2="209.64" y2="282.96"/><line class="cls-15" x1="233.4" y1="236.4" x2="233.4" y2="282.96"/><line class="cls-15" x1="117.96" y1="285.6" x2="233.16" y2="285.6"/><polyline class="cls-15" points="115.08 282.72 115.8 284.64 117.96 285.6"/><line class="cls-15" x1="115.08" y1="236.4" x2="115.08" y2="282.72"/><polyline class="cls-15" points="117.96 233.52 115.8 234.48 115.08 236.4"/><line class="cls-15" x1="233.16" y1="233.52" x2="117.96" y2="233.52"/><polyline class="cls-15" points="236.04 236.4 235.32 234.48 233.16 233.52"/><line class="cls-15" x1="236.04" y1="282.72" x2="236.04" y2="236.4"/><polyline class="cls-15" points="233.16 285.6 235.32 284.64 236.04 282.72"/><polyline class="cls-15" points="238.2 284.88 238.2 234.24 238.2 233.52 237.72 232.8 237.48 232.32 236.76 231.84 236.04 231.6 235.32 231.36 115.8 231.36 115.08 231.6 114.36 231.84 113.64 232.32 113.4 232.8 112.92 233.52 112.92 234.24 112.92 284.88 112.92 285.6 113.4 286.32 113.64 286.8 114.36 287.28 115.08 287.52 115.8 287.76 235.32 287.76 236.04 287.52 236.76 287.28 237.48 286.8 237.72 286.32 238.2 285.6 238.2 284.88"/><polyline class="cls-14" points="70.2 457.92 70.92 450.48 73.56 443.28 77.64 436.8 82.92 431.52 89.4 427.44 96.6 424.8 104.04 424.08"/><polyline class="cls-14" points="101.4 457.92 101.4 424.08 104.04 424.08 104.04 457.92 101.4 457.92"/><polyline class="cls-14" points="70.2 457.92 69.24 448.08 66.6 438.48 62.52 429.6 56.76 421.44 49.8 414.24 41.64 408.72 32.52 404.4 22.92 402 13.08 401.04"/><polyline class="cls-14" points="15.96 457.92 15.96 401.04 13.08 401.04 13.08 457.92 15.96 457.92"/><polyline class="cls-14" points="104.04 454.56 13.08 454.56 13.08 461.52 104.04 461.52 104.04 454.56 13.08 454.56 13.08 461.52 104.04 461.52 104.04 454.56"/><line class="cls-16" x1="118.44" y1="174.48" x2="132.6" y2="174.48"/><line class="cls-16" x1="143.88" y1="174.48" x2="155.16" y2="174.48"/><line class="cls-16" x1="166.44" y1="174.48" x2="177.96" y2="174.48"/><line class="cls-16" x1="189.24" y1="174.48" x2="200.52" y2="174.48"/><line class="cls-16" x1="211.8" y1="174.48" x2="223.32" y2="174.48"/><line class="cls-16" x1="234.6" y1="174.48" x2="245.88" y2="174.48"/><line class="cls-16" x1="257.16" y1="174.48" x2="271.56" y2="174.48"/><line class="cls-16" x1="118.44" y1="344.64" x2="132.6" y2="344.64"/><line class="cls-16" x1="143.88" y1="344.64" x2="155.16" y2="344.64"/><line class="cls-16" x1="166.44" y1="344.64" x2="177.96" y2="344.64"/><line class="cls-16" x1="189.24" y1="344.64" x2="200.52" y2="344.64"/><line class="cls-16" x1="211.8" y1="344.64" x2="223.32" y2="344.64"/><line class="cls-16" x1="234.6" y1="344.64" x2="245.88" y2="344.64"/><line class="cls-16" x1="257.16" y1="344.64" x2="271.56" y2="344.64"/><line class="cls-16" x1="115.08" y1="89.52" x2="126.36" y2="89.52"/><line class="cls-16" x1="137.64" y1="89.52" x2="149.16" y2="89.52"/><line class="cls-16" x1="160.44" y1="89.52" x2="171.72" y2="89.52"/><line class="cls-16" x1="183" y1="89.52" x2="194.52" y2="89.52"/><line class="cls-16" x1="205.8" y1="89.52" x2="217.08" y2="89.52"/><line class="cls-16" x1="228.36" y1="89.52" x2="239.88" y2="89.52"/><line class="cls-16" x1="251.16" y1="89.52" x2="262.44" y2="89.52"/><line class="cls-16" x1="125.4" y1="259.44" x2="131.64" y2="259.44"/><line class="cls-16" x1="142.92" y1="259.44" x2="154.2" y2="259.44"/><line class="cls-16" x1="165.48" y1="259.44" x2="177" y2="259.44"/><line class="cls-16" x1="188.28" y1="259.44" x2="199.56" y2="259.44"/><line class="cls-16" x1="210.84" y1="259.44" x2="222.36" y2="259.44"/><line class="cls-16" x1="233.64" y1="259.44" x2="244.92" y2="259.44"/><line class="cls-16" x1="256.2" y1="259.44" x2="262.44" y2="259.44"/><line class="cls-16" x1="187.08" y1="372" x2="187.08" y2="387.36"/><line class="cls-16" x1="187.08" y1="398.64" x2="187.08" y2="410.16"/><line class="cls-16" x1="187.08" y1="421.44" x2="187.08" y2="436.8"/><line class="cls-17" x1="275.4" y1="259.44" x2="275.4" y2="344.64"/><line class="cls-16" x1="275.4" y1="344.64" x2="271.08" y2="340.32"/><line class="cls-16" x1="275.4" y1="344.64" x2="279.72" y2="348.96"/><line class="cls-17" x1="275.4" y1="344.64" x2="282.36" y2="344.64"/><line class="cls-17" x1="275.4" y1="344.64" x2="261.24" y2="344.64"/><line class="cls-17" x1="275.4" y1="174.48" x2="275.4" y2="259.44"/><line class="cls-16" x1="275.4" y1="259.44" x2="271.08" y2="255.36"/><line class="cls-16" x1="275.4" y1="259.44" x2="279.72" y2="263.76"/><line class="cls-17" x1="275.4" y1="259.44" x2="282.36" y2="259.44"/><line class="cls-17" x1="275.4" y1="259.44" x2="261.24" y2="259.44"/><line class="cls-17" x1="275.4" y1="89.52" x2="275.4" y2="174.48"/><line class="cls-16" x1="275.4" y1="174.48" x2="271.08" y2="170.16"/><line class="cls-16" x1="275.4" y1="174.48" x2="279.72" y2="178.8"/><line class="cls-17" x1="275.4" y1="174.48" x2="282.36" y2="174.48"/><line class="cls-17" x1="275.4" y1="174.48" x2="261.24" y2="174.48"/><line class="cls-17" x1="275.4" y1="4.32" x2="275.4" y2="89.52"/><line class="cls-16" x1="275.4" y1="89.52" x2="271.08" y2="85.2"/><line class="cls-16" x1="275.4" y1="89.52" x2="279.72" y2="93.6"/><line class="cls-17" x1="275.4" y1="89.52" x2="282.36" y2="89.52"/><line class="cls-17" x1="275.4" y1="89.52" x2="261.24" y2="89.52"/><line class="cls-16" x1="275.4" y1="4.32" x2="271.08" y2="0.24"/><line class="cls-16" x1="275.4" y1="4.32" x2="279.72" y2="8.64"/><line class="cls-17" x1="275.4" y1="4.32" x2="282.36" y2="4.32"/><line class="cls-17" x1="275.4" y1="4.32" x2="261.24" y2="4.32"/><rect class="cls-18" x="261.96" y="42.24" width="9.6" height="9.6"/><text class="cls-19" transform="translate(269.64 51.6) rotate(-90)"><tspan class="cls-20">E</tspan><tspan x="4.32" y="0">Q</tspan></text><rect class="cls-18" x="261.96" y="127.44" width="9.6" height="9.6"/><text class="cls-19" transform="translate(269.64 136.8) rotate(-90)"><tspan class="cls-20">E</tspan><tspan x="4.32" y="0">Q</tspan></text><rect class="cls-18" x="261.96" y="212.4" width="9.6" height="9.6"/><text class="cls-21" transform="translate(269.64 221.76) rotate(-90)">E<tspan class="cls-22" x="4.32" y="0">Q</tspan></text><rect class="cls-18" x="261.96" y="297.36" width="9.6" height="9.6"/><text class="cls-19" transform="translate(269.64 306.72) rotate(-90)"><tspan class="cls-23">E</tspan><tspan x="4.32" y="0">Q</tspan></text><line class="cls-17" x1="275.4" y1="344.64" x2="275.4" y2="397.92"/><line class="cls-16" x1="275.4" y1="397.92" x2="271.08" y2="393.6"/><line class="cls-16" x1="275.4" y1="397.92" x2="279.72" y2="402.24"/><line class="cls-17" x1="275.4" y1="397.92" x2="282.36" y2="397.92"/><line class="cls-17" x1="275.4" y1="397.92" x2="261.24" y2="397.92"/><line class="cls-16" x1="275.4" y1="344.64" x2="271.08" y2="340.32"/><line class="cls-16" x1="275.4" y1="344.64" x2="279.72" y2="348.96"/><line class="cls-17" x1="275.4" y1="344.64" x2="282.36" y2="344.64"/><line class="cls-17" x1="275.4" y1="344.64" x2="261.24" y2="344.64"/><rect class="cls-18" x="261.96" y="365.76" width="9.6" height="11.04"/><text class="cls-19" transform="translate(269.64 376.56) rotate(-90)"><tspan class="cls-24">94</tspan><tspan x="7.2" y="0">0</tspan></text><line class="cls-17" x1="187.08" y1="464.64" x2="243.96" y2="464.64"/><line class="cls-16" x1="243.96" y1="464.64" x2="239.64" y2="468.96"/><line class="cls-16" x1="243.96" y1="464.64" x2="248.04" y2="460.56"/><line class="cls-17" x1="243.96" y1="464.64" x2="243.96" y2="471.84"/><line class="cls-17" x1="243.96" y1="464.64" x2="243.96" y2="450.48"/><line class="cls-16" x1="187.08" y1="464.64" x2="183" y2="468.96"/><line class="cls-16" x1="187.08" y1="464.64" x2="191.4" y2="460.56"/><line class="cls-17" x1="187.08" y1="464.64" x2="187.08" y2="471.84"/><line class="cls-17" x1="187.08" y1="464.64" x2="187.08" y2="450.48"/><rect class="cls-18" x="198.36" y="451.2" width="34.08" height="8.88"/><text class="cls-19" transform="translate(198.36 458.4)"><tspan class="cls-25">O</tspan><tspan class="cls-26" x="4.8" y="0">f</tspan><tspan class="cls-27" x="6.49" y="0">f</tspan><tspan class="cls-28" x="8.4" y="0">s</tspan><tspan class="cls-29" x="11.53" y="0">e</tspan><tspan class="cls-26" x="15.36" y="0">t</tspan><tspan class="cls-27" x="17.05" y="0"> </tspan><tspan class="cls-30" x="18.96" y="0">W</tspan><tspan class="cls-31" x="24.97" y="0">H</tspan><tspan x="29.77" y="0">B</tspan></text></g></g></svg>