<svg xmlns="http://www.w3.org/2000/svg" xmlns:xlink="http://www.w3.org/1999/xlink" viewBox="0 0 295.68 411.28"><defs><style>.cls-1,.cls-16,.cls-17,.cls-18,.cls-19,.cls-2{fill:none;}.cls-1{clip-rule:evenodd;}.cls-3{clip-path:url(#clip-path);}.cls-4{clip-path:url(#clip-path-2);}.cls-5{fill:#c6d3b4;}.cls-10,.cls-6{font-size:4.08px;font-family:ArialMT, Arial;}.cls-10,.cls-7{letter-spacing:-0.03em;}.cls-8{letter-spacing:0.02em;}.cls-9{letter-spacing:-0.09em;}.cls-11{letter-spacing:0em;}.cls-12{letter-spacing:0.02em;}.cls-13{letter-spacing:-0.03em;}.cls-14{letter-spacing:-0.04em;}.cls-15{letter-spacing:0em;}.cls-16,.cls-17{stroke:#000;}.cls-16,.cls-17,.cls-18,.cls-19{stroke-linecap:round;stroke-linejoin:round;}.cls-16,.cls-19{stroke-width:0.24px;}.cls-17,.cls-18{stroke-width:0.48px;}.cls-18,.cls-19{stroke:red;}.cls-20{fill:#fff;}.cls-21,.cls-32{font-size:8.05px;fill:red;font-family:ArialNarrow, Arial;}.cls-21,.cls-33{letter-spacing:-0.01em;}.cls-22{letter-spacing:0em;}.cls-23{letter-spacing:0.01em;}.cls-24{letter-spacing:-0.04em;}.cls-25{letter-spacing:0em;}.cls-26{letter-spacing:0.01em;}.cls-27{letter-spacing:0.01em;}.cls-28{letter-spacing:-0.04em;}.cls-29{letter-spacing:0.01em;}.cls-30{letter-spacing:0em;}.cls-31{letter-spacing:0em;}</style><clipPath id="clip-path" transform="translate(-870.34 -634.64)"><path class="cls-1" d="M963.82,810.36l-1,1-.24.72-.24,51.36.24.24v.72h.24v.72h.24l.72.72.72.24,121.2.24V866l.72-.24,1-1,.24-53.28-1.2-1.2M963.82,702.6l-.48.48-.24.48-.24.24-.24.48-.24,51.36.24.24v.72h.24v.72h.24l.72.72.72.24,121.2.24v-.24l.72-.24,1-1,.24-53h-.24v-.48l-1-1Zm-86.64-53.76v390.24H971.5v-27.84l.24-.24.24-.48.24-.24.48-1c.65-.67,1.27-2.21,1.92-2.88l.48-1,.24-.24c.67-1.24,1.53-2.34,2.16-3.6l.24-.24.24-.48.24-.24c1.88-3.32,4.1-6.54,6-9.84l.24-.24.24-.48.24-.24c4.07-6.77,8.36-13.42,12.48-20.16l.24-.24.48-1,.24-.24c8.73-14.2,17.64-28.3,26.4-42.48l.24-.24h12.72v-1h11v-1.44h-.24v-1.44h-.24v-1.44h-.24v-1.44h-.24v-5.76l-.24-.24.48-2.4.48-1.44.24-1,.24-.24.48-1,.24-.24.48-1,1.68-1.68.24-.48.48-.24.24-.24.48-.24.24-.24.48-.24.48-.48.72-.24,1.92-1,2.88-.72h6.24a15.59,15.59,0,0,1,9.84,5.52v.48h.24l.24.24v.48h.24v.48h.24l.24.24v.48h.24v.48h.24v.48h.24v.72h.24V910h.24v.72h.24l-.24,7.92-1,5.76,11.28.24v1h2.64V668.76h-33.84V648.84Z"/></clipPath><clipPath id="clip-path-2" transform="translate(-870.34 -634.64)"><rect class="cls-2" width="1684.08" height="1191.12"/></clipPath></defs><title>PushIt - Floor Plan - SP-Room-Bed_Sample_1</title><g id="Layer_2" data-name="Layer 2"><g id="Layer_1-2" data-name="Layer 1"><g class="cls-3"><g class="cls-4"><polyline class="cls-5" points="6.84 14.2 221.16 14.2 221.16 404.44 6.84 404.44"/></g></g><text class="cls-6" transform="translate(123.24 134.2)">?</text><text class="cls-6" transform="translate(113.64 146.92)"><tspan class="cls-7">3900</tspan><tspan class="cls-8" x="8.64" y="0"> </tspan><tspan class="cls-9" x="9.84" y="0">x</tspan><tspan class="cls-8" x="11.52" y="0"> </tspan><tspan class="cls-7" x="12.72" y="0">700</tspan><tspan x="19.2" y="0">0</tspan></text><text class="cls-10" transform="translate(121.08 138.52)">5<tspan class="cls-8" x="2.16" y="0">.</tspan><tspan x="3.36" y="0">5</tspan><tspan class="cls-11" x="5.52" y="0">0</tspan></text><text class="cls-10" transform="translate(112.44 142.6)">23<tspan class="cls-12" x="4.32" y="0">.</tspan><tspan class="cls-13" x="5.52" y="0">74</tspan><tspan class="cls-8" x="9.84" y="0"> </tspan><tspan class="cls-14" x="11.04" y="0">(</tspan><tspan x="12.24" y="0">22</tspan><tspan class="cls-8" x="16.55" y="0">.</tspan><tspan x="17.75" y="0">44</tspan><tspan class="cls-15" x="22.07" y="0">)</tspan></text><text class="cls-6" transform="translate(123.24 129.88)">?</text><polyline class="cls-16" points="101.16 404.44 6.84 404.44 6.84 14.2 221.16 14.2 221.16 290.92 154.68 290.92 101.16 376.84 101.16 404.44"/><polyline class="cls-16" points="228.12 7.48 0.12 7.48 0.12 411.16 107.88 411.16 107.88 378.76 158.52 297.88 228.12 297.88 228.12 7.48"/><line class="cls-16" x1="6.84" y1="14.2" x2="6.84" y2="17.08"/><line class="cls-16" x1="6.84" y1="18.76" x2="6.84" y2="20.92"/><line class="cls-16" x1="6.84" y1="22.6" x2="6.84" y2="24.76"/><line class="cls-16" x1="6.84" y1="26.44" x2="6.84" y2="28.6"/><line class="cls-16" x1="6.84" y1="30.28" x2="6.84" y2="32.44"/><line class="cls-16" x1="6.84" y1="34.12" x2="6.84" y2="36.28"/><line class="cls-16" x1="6.84" y1="37.96" x2="6.84" y2="40.12"/><line class="cls-16" x1="6.84" y1="41.8" x2="6.84" y2="43.96"/><line class="cls-16" x1="6.84" y1="45.64" x2="6.84" y2="47.8"/><line class="cls-16" x1="6.84" y1="49.48" x2="6.84" y2="51.64"/><line class="cls-16" x1="6.84" y1="53.32" x2="6.84" y2="55.48"/><line class="cls-16" x1="6.84" y1="57.16" x2="6.84" y2="59.32"/><line class="cls-16" x1="6.84" y1="61" x2="6.84" y2="63.16"/><line class="cls-16" x1="6.84" y1="64.84" x2="6.84" y2="67"/><line class="cls-16" x1="6.84" y1="68.68" x2="6.84" y2="70.84"/><line class="cls-16" x1="6.84" y1="72.52" x2="6.84" y2="74.44"/><line class="cls-16" x1="6.84" y1="76.36" x2="6.84" y2="78.28"/><line class="cls-16" x1="6.84" y1="80.2" x2="6.84" y2="82.12"/><line class="cls-16" x1="6.84" y1="83.8" x2="6.84" y2="85.96"/><line class="cls-16" x1="6.84" y1="87.64" x2="6.84" y2="89.8"/><line class="cls-16" x1="6.84" y1="91.48" x2="6.84" y2="93.64"/><line class="cls-16" x1="6.84" y1="95.32" x2="6.84" y2="97.48"/><line class="cls-16" x1="6.84" y1="99.16" x2="6.84" y2="101.32"/><line class="cls-16" x1="6.84" y1="103" x2="6.84" y2="105.16"/><line class="cls-16" x1="6.84" y1="106.84" x2="6.84" y2="109"/><line class="cls-16" x1="6.84" y1="110.68" x2="6.84" y2="112.84"/><line class="cls-16" x1="6.84" y1="114.52" x2="6.84" y2="116.68"/><line class="cls-16" x1="6.84" y1="118.36" x2="6.84" y2="120.52"/><line class="cls-16" x1="6.84" y1="122.2" x2="6.84" y2="124.36"/><line class="cls-16" x1="6.84" y1="126.04" x2="6.84" y2="128.2"/><line class="cls-16" x1="6.84" y1="129.88" x2="6.84" y2="132.04"/><line class="cls-16" x1="6.84" y1="133.72" x2="6.84" y2="135.88"/><line class="cls-16" x1="6.84" y1="137.56" x2="6.84" y2="139.72"/><line class="cls-16" x1="6.84" y1="141.4" x2="6.84" y2="143.56"/><line class="cls-16" x1="6.84" y1="145.24" x2="6.84" y2="147.16"/><line class="cls-16" x1="6.84" y1="149.08" x2="6.84" y2="151"/><line class="cls-16" x1="6.84" y1="152.92" x2="6.84" y2="154.84"/><line class="cls-16" x1="6.84" y1="156.52" x2="6.84" y2="158.68"/><line class="cls-16" x1="6.84" y1="160.36" x2="6.84" y2="162.52"/><line class="cls-16" x1="6.84" y1="164.2" x2="6.84" y2="166.36"/><line class="cls-16" x1="6.84" y1="168.04" x2="6.84" y2="170.2"/><line class="cls-16" x1="6.84" y1="171.88" x2="6.84" y2="174.04"/><line class="cls-16" x1="6.84" y1="175.72" x2="6.84" y2="177.88"/><line class="cls-16" x1="6.84" y1="179.56" x2="6.84" y2="181.72"/><line class="cls-16" x1="6.84" y1="183.4" x2="6.84" y2="185.56"/><line class="cls-16" x1="6.84" y1="187.24" x2="6.84" y2="189.4"/><line class="cls-16" x1="6.84" y1="191.08" x2="6.84" y2="193.24"/><line class="cls-16" x1="6.84" y1="194.92" x2="6.84" y2="197.08"/><line class="cls-16" x1="6.84" y1="198.76" x2="6.84" y2="200.92"/><line class="cls-16" x1="6.84" y1="202.6" x2="6.84" y2="204.76"/><line class="cls-16" x1="6.84" y1="206.44" x2="6.84" y2="208.6"/><line class="cls-16" x1="6.84" y1="210.28" x2="6.84" y2="212.44"/><line class="cls-16" x1="6.84" y1="214.12" x2="6.84" y2="216.04"/><line class="cls-16" x1="6.84" y1="217.96" x2="6.84" y2="219.88"/><line class="cls-16" x1="6.84" y1="221.8" x2="6.84" y2="223.72"/><line class="cls-16" x1="6.84" y1="225.4" x2="6.84" y2="227.56"/><line class="cls-16" x1="6.84" y1="229.24" x2="6.84" y2="231.4"/><line class="cls-16" x1="6.84" y1="233.08" x2="6.84" y2="235.24"/><line class="cls-16" x1="6.84" y1="236.92" x2="6.84" y2="239.08"/><line class="cls-16" x1="6.84" y1="240.76" x2="6.84" y2="242.92"/><line class="cls-16" x1="6.84" y1="244.6" x2="6.84" y2="246.76"/><line class="cls-16" x1="6.84" y1="248.44" x2="6.84" y2="250.6"/><line class="cls-16" x1="6.84" y1="252.28" x2="6.84" y2="254.44"/><line class="cls-16" x1="6.84" y1="256.13" x2="6.84" y2="258.28"/><line class="cls-16" x1="6.84" y1="259.97" x2="6.84" y2="262.13"/><line class="cls-16" x1="6.84" y1="263.81" x2="6.84" y2="265.97"/><line class="cls-16" x1="6.84" y1="267.65" x2="6.84" y2="269.81"/><line class="cls-16" x1="6.84" y1="271.49" x2="6.84" y2="273.65"/><line class="cls-16" x1="6.84" y1="275.33" x2="6.84" y2="277.49"/><line class="cls-16" x1="6.84" y1="279.17" x2="6.84" y2="281.33"/><line class="cls-16" x1="6.84" y1="283.01" x2="6.84" y2="285.17"/><line class="cls-16" x1="6.84" y1="286.85" x2="6.84" y2="288.77"/><line class="cls-16" x1="6.84" y1="290.69" x2="6.84" y2="292.61"/><line class="cls-16" x1="6.84" y1="294.53" x2="6.84" y2="296.45"/><line class="cls-16" x1="6.84" y1="298.13" x2="6.84" y2="300.29"/><line class="cls-16" x1="6.84" y1="301.97" x2="6.84" y2="304.13"/><line class="cls-16" x1="6.84" y1="305.81" x2="6.84" y2="307.97"/><line class="cls-16" x1="6.84" y1="309.65" x2="6.84" y2="311.81"/><line class="cls-16" x1="6.84" y1="313.49" x2="6.84" y2="315.65"/><line class="cls-16" x1="6.84" y1="317.33" x2="6.84" y2="319.49"/><line class="cls-16" x1="6.84" y1="321.17" x2="6.84" y2="323.33"/><line class="cls-16" x1="6.84" y1="325.01" x2="6.84" y2="327.17"/><line class="cls-16" x1="6.84" y1="328.85" x2="6.84" y2="331.01"/><line class="cls-16" x1="6.84" y1="332.69" x2="6.84" y2="334.85"/><line class="cls-16" x1="6.84" y1="336.53" x2="6.84" y2="338.69"/><line class="cls-16" x1="6.84" y1="340.37" x2="6.84" y2="342.53"/><line class="cls-16" x1="6.84" y1="344.21" x2="6.84" y2="346.37"/><line class="cls-16" x1="6.84" y1="348.05" x2="6.84" y2="350.21"/><line class="cls-16" x1="6.84" y1="351.89" x2="6.84" y2="354.05"/><line class="cls-16" x1="6.84" y1="355.73" x2="6.84" y2="357.89"/><line class="cls-16" x1="6.84" y1="359.57" x2="6.84" y2="361.49"/><line class="cls-16" x1="6.84" y1="363.41" x2="6.84" y2="365.33"/><line class="cls-16" x1="6.84" y1="367.01" x2="6.84" y2="369.17"/><line class="cls-16" x1="6.84" y1="370.85" x2="6.84" y2="373.01"/><line class="cls-16" x1="6.84" y1="374.69" x2="6.84" y2="376.85"/><line class="cls-16" x1="6.84" y1="378.53" x2="6.84" y2="380.69"/><line class="cls-16" x1="6.84" y1="382.37" x2="6.84" y2="384.53"/><line class="cls-16" x1="6.84" y1="386.21" x2="6.84" y2="388.37"/><line class="cls-16" x1="6.84" y1="390.05" x2="6.84" y2="392.21"/><line class="cls-16" x1="6.84" y1="393.89" x2="6.84" y2="396.05"/><line class="cls-16" x1="6.84" y1="397.73" x2="6.84" y2="399.89"/><polyline class="cls-16" points="6.84 401.57 6.84 404.45 9.24 404.45"/><line class="cls-16" x1="10.92" y1="404.45" x2="12.84" y2="404.45"/><line class="cls-16" x1="14.76" y1="404.45" x2="16.68" y2="404.45"/><line class="cls-16" x1="18.6" y1="404.45" x2="20.52" y2="404.45"/><line class="cls-16" x1="22.2" y1="404.45" x2="24.36" y2="404.45"/><line class="cls-16" x1="26.04" y1="404.45" x2="28.2" y2="404.45"/><line class="cls-16" x1="29.88" y1="404.45" x2="32.04" y2="404.45"/><line class="cls-16" x1="33.72" y1="404.45" x2="35.88" y2="404.45"/><line class="cls-16" x1="37.56" y1="404.45" x2="39.72" y2="404.45"/><line class="cls-16" x1="41.4" y1="404.45" x2="43.56" y2="404.45"/><line class="cls-16" x1="45.24" y1="404.45" x2="47.4" y2="404.45"/><line class="cls-16" x1="49.08" y1="404.45" x2="51.24" y2="404.45"/><line class="cls-16" x1="52.92" y1="404.45" x2="55.08" y2="404.45"/><line class="cls-16" x1="56.76" y1="404.45" x2="58.92" y2="404.45"/><line class="cls-16" x1="60.6" y1="404.45" x2="62.76" y2="404.45"/><line class="cls-16" x1="64.44" y1="404.45" x2="66.6" y2="404.45"/><line class="cls-16" x1="68.28" y1="404.45" x2="70.44" y2="404.45"/><line class="cls-16" x1="72.12" y1="404.45" x2="74.28" y2="404.45"/><line class="cls-16" x1="75.96" y1="404.45" x2="78.12" y2="404.45"/><line class="cls-16" x1="79.8" y1="404.45" x2="81.96" y2="404.45"/><line class="cls-16" x1="83.64" y1="404.45" x2="85.56" y2="404.45"/><line class="cls-16" x1="87.48" y1="404.45" x2="89.4" y2="404.45"/><line class="cls-16" x1="91.08" y1="404.45" x2="93.24" y2="404.45"/><line class="cls-16" x1="94.92" y1="404.45" x2="97.08" y2="404.45"/><polyline class="cls-16" points="98.76 404.45 101.16 404.45 101.16 403.01"/><line class="cls-16" x1="101.16" y1="401.33" x2="101.16" y2="399.17"/><line class="cls-16" x1="101.16" y1="397.49" x2="101.16" y2="395.33"/><line class="cls-16" x1="101.16" y1="393.65" x2="101.16" y2="391.49"/><line class="cls-16" x1="101.16" y1="389.81" x2="101.16" y2="387.65"/><line class="cls-16" x1="101.16" y1="385.97" x2="101.16" y2="383.81"/><line class="cls-16" x1="101.16" y1="382.13" x2="101.16" y2="379.97"/><polyline class="cls-16" points="101.16 378.29 101.16 376.85 102.12 375.17"/><line class="cls-16" x1="102.84" y1="373.73" x2="104.04" y2="371.81"/><line class="cls-16" x1="105" y1="370.37" x2="106.2" y2="368.69"/><line class="cls-16" x1="106.92" y1="367.25" x2="108.12" y2="365.33"/><line class="cls-16" x1="109.08" y1="363.89" x2="110.28" y2="362.21"/><line class="cls-16" x1="111" y1="360.77" x2="112.2" y2="358.85"/><line class="cls-16" x1="113.16" y1="357.41" x2="114.12" y2="355.73"/><line class="cls-16" x1="115.08" y1="354.29" x2="116.28" y2="352.37"/><line class="cls-16" x1="117.24" y1="350.93" x2="118.2" y2="349.25"/><line class="cls-16" x1="119.16" y1="347.81" x2="120.36" y2="345.89"/><line class="cls-16" x1="121.32" y1="344.45" x2="122.28" y2="342.77"/><line class="cls-16" x1="123.24" y1="341.33" x2="124.44" y2="339.41"/><line class="cls-16" x1="125.4" y1="337.97" x2="126.36" y2="336.29"/><line class="cls-16" x1="127.32" y1="334.85" x2="128.52" y2="332.93"/><line class="cls-16" x1="129.24" y1="331.49" x2="130.44" y2="329.81"/><line class="cls-16" x1="131.4" y1="328.37" x2="132.6" y2="326.45"/><line class="cls-16" x1="133.32" y1="325.01" x2="134.52" y2="323.33"/><line class="cls-16" x1="135.48" y1="321.89" x2="136.68" y2="319.97"/><line class="cls-16" x1="137.4" y1="318.53" x2="138.6" y2="316.85"/><line class="cls-16" x1="139.56" y1="315.41" x2="140.52" y2="313.49"/><line class="cls-16" x1="141.48" y1="312.05" x2="142.68" y2="310.37"/><line class="cls-16" x1="143.64" y1="308.93" x2="144.6" y2="307.01"/><line class="cls-16" x1="145.56" y1="305.57" x2="146.76" y2="303.89"/><line class="cls-16" x1="147.72" y1="302.45" x2="148.68" y2="300.53"/><line class="cls-16" x1="149.64" y1="299.09" x2="150.84" y2="297.41"/><line class="cls-16" x1="151.8" y1="295.97" x2="152.76" y2="294.05"/><polyline class="cls-16" points="153.72 292.61 154.68 290.93 156.36 290.93"/><line class="cls-16" x1="158.04" y1="290.93" x2="160.2" y2="290.93"/><line class="cls-16" x1="161.88" y1="290.93" x2="164.04" y2="290.93"/><line class="cls-16" x1="165.72" y1="290.93" x2="167.4" y2="290.93"/><polyline class="cls-16" points="218.52 290.93 221.16 290.93 221.16 289.73"/><line class="cls-16" x1="221.16" y1="288.05" x2="221.16" y2="285.89"/><line class="cls-16" x1="221.16" y1="284.21" x2="221.16" y2="282.05"/><line class="cls-16" x1="221.16" y1="280.37" x2="221.16" y2="278.21"/><line class="cls-16" x1="221.16" y1="276.53" x2="221.16" y2="274.37"/><line class="cls-16" x1="221.16" y1="272.69" x2="221.16" y2="270.53"/><line class="cls-16" x1="221.16" y1="268.85" x2="221.16" y2="266.69"/><line class="cls-16" x1="221.16" y1="265.01" x2="221.16" y2="262.85"/><line class="cls-16" x1="221.16" y1="261.17" x2="221.16" y2="259.01"/><line class="cls-16" x1="221.16" y1="257.33" x2="221.16" y2="255.41"/><line class="cls-16" x1="221.16" y1="253.49" x2="221.16" y2="251.57"/><line class="cls-16" x1="221.16" y1="249.65" x2="221.16" y2="247.73"/><line class="cls-16" x1="221.16" y1="246.05" x2="221.16" y2="243.89"/><line class="cls-16" x1="221.16" y1="242.21" x2="221.16" y2="240.05"/><line class="cls-16" x1="221.16" y1="238.37" x2="221.16" y2="236.21"/><line class="cls-16" x1="221.16" y1="234.53" x2="221.16" y2="232.37"/><line class="cls-16" x1="221.16" y1="230.69" x2="221.16" y2="228.53"/><line class="cls-16" x1="221.16" y1="226.85" x2="221.16" y2="224.69"/><line class="cls-16" x1="221.16" y1="223.01" x2="221.16" y2="220.85"/><line class="cls-16" x1="221.16" y1="219.16" x2="221.16" y2="217"/><line class="cls-16" x1="221.16" y1="215.32" x2="221.16" y2="213.16"/><line class="cls-16" x1="221.16" y1="211.48" x2="221.16" y2="209.32"/><line class="cls-16" x1="221.16" y1="207.64" x2="221.16" y2="205.48"/><line class="cls-16" x1="221.16" y1="203.8" x2="221.16" y2="201.64"/><line class="cls-16" x1="221.16" y1="199.96" x2="221.16" y2="197.8"/><line class="cls-16" x1="221.16" y1="196.12" x2="221.16" y2="193.96"/><line class="cls-16" x1="221.16" y1="192.28" x2="221.16" y2="190.12"/><line class="cls-16" x1="221.16" y1="188.44" x2="221.16" y2="186.28"/><line class="cls-16" x1="221.16" y1="184.6" x2="221.16" y2="182.68"/><line class="cls-16" x1="221.16" y1="180.76" x2="221.16" y2="178.84"/><line class="cls-16" x1="221.16" y1="176.92" x2="221.16" y2="175"/><line class="cls-16" x1="221.16" y1="173.32" x2="221.16" y2="171.16"/><line class="cls-16" x1="221.16" y1="169.48" x2="221.16" y2="167.32"/><line class="cls-16" x1="221.16" y1="165.64" x2="221.16" y2="163.48"/><line class="cls-16" x1="221.16" y1="161.8" x2="221.16" y2="159.64"/><line class="cls-16" x1="221.16" y1="157.96" x2="221.16" y2="155.8"/><line class="cls-16" x1="221.16" y1="154.12" x2="221.16" y2="151.96"/><line class="cls-16" x1="221.16" y1="150.28" x2="221.16" y2="148.12"/><line class="cls-16" x1="221.16" y1="146.44" x2="221.16" y2="144.28"/><line class="cls-16" x1="221.16" y1="142.6" x2="221.16" y2="140.44"/><line class="cls-16" x1="221.16" y1="138.76" x2="221.16" y2="136.6"/><line class="cls-16" x1="221.16" y1="134.92" x2="221.16" y2="132.76"/><line class="cls-16" x1="221.16" y1="131.08" x2="221.16" y2="128.92"/><line class="cls-16" x1="221.16" y1="127.24" x2="221.16" y2="125.08"/><line class="cls-16" x1="221.16" y1="123.4" x2="221.16" y2="121.24"/><line class="cls-16" x1="221.16" y1="119.56" x2="221.16" y2="117.4"/><line class="cls-16" x1="221.16" y1="115.72" x2="221.16" y2="113.56"/><line class="cls-16" x1="221.16" y1="111.88" x2="221.16" y2="109.96"/><line class="cls-16" x1="221.16" y1="108.04" x2="221.16" y2="106.12"/><line class="cls-16" x1="221.16" y1="104.44" x2="221.16" y2="102.28"/><line class="cls-16" x1="221.16" y1="100.6" x2="221.16" y2="98.44"/><line class="cls-16" x1="221.16" y1="96.76" x2="221.16" y2="94.6"/><line class="cls-16" x1="221.16" y1="92.92" x2="221.16" y2="90.76"/><line class="cls-16" x1="221.16" y1="89.08" x2="221.16" y2="86.92"/><line class="cls-16" x1="221.16" y1="85.24" x2="221.16" y2="83.08"/><line class="cls-16" x1="221.16" y1="81.4" x2="221.16" y2="79.24"/><line class="cls-16" x1="221.16" y1="77.56" x2="221.16" y2="75.4"/><line class="cls-16" x1="221.16" y1="73.72" x2="221.16" y2="71.56"/><line class="cls-16" x1="221.16" y1="69.88" x2="221.16" y2="67.72"/><line class="cls-16" x1="221.16" y1="66.04" x2="221.16" y2="63.88"/><line class="cls-16" x1="221.16" y1="62.2" x2="221.16" y2="60.04"/><line class="cls-16" x1="221.16" y1="58.36" x2="221.16" y2="56.2"/><line class="cls-16" x1="221.16" y1="54.52" x2="221.16" y2="52.36"/><line class="cls-16" x1="221.16" y1="50.68" x2="221.16" y2="48.52"/><line class="cls-16" x1="221.16" y1="46.84" x2="221.16" y2="44.68"/><line class="cls-16" x1="221.16" y1="43" x2="221.16" y2="41.08"/><line class="cls-16" x1="221.16" y1="39.16" x2="221.16" y2="37.24"/><line class="cls-16" x1="221.16" y1="35.32" x2="221.16" y2="34.12"/><line class="cls-16" x1="187.32" y1="14.2" x2="185.88" y2="14.2"/><line class="cls-16" x1="184.2" y1="14.2" x2="182.04" y2="14.2"/><line class="cls-16" x1="180.36" y1="14.2" x2="178.2" y2="14.2"/><line class="cls-16" x1="176.52" y1="14.2" x2="174.36" y2="14.2"/><line class="cls-16" x1="172.68" y1="14.2" x2="170.76" y2="14.2"/><line class="cls-16" x1="168.84" y1="14.2" x2="166.92" y2="14.2"/><line class="cls-16" x1="165" y1="14.2" x2="163.08" y2="14.2"/><line class="cls-16" x1="161.4" y1="14.2" x2="159.24" y2="14.2"/><line class="cls-16" x1="157.56" y1="14.2" x2="155.4" y2="14.2"/><line class="cls-16" x1="153.72" y1="14.2" x2="151.56" y2="14.2"/><line class="cls-16" x1="149.88" y1="14.2" x2="147.72" y2="14.2"/><line class="cls-16" x1="146.04" y1="14.2" x2="143.88" y2="14.2"/><line class="cls-16" x1="142.2" y1="14.2" x2="140.04" y2="14.2"/><line class="cls-16" x1="138.36" y1="14.2" x2="136.2" y2="14.2"/><line class="cls-16" x1="134.52" y1="14.2" x2="132.36" y2="14.2"/><line class="cls-16" x1="130.68" y1="14.2" x2="128.52" y2="14.2"/><line class="cls-16" x1="126.84" y1="14.2" x2="124.68" y2="14.2"/><line class="cls-16" x1="123" y1="14.2" x2="120.84" y2="14.2"/><line class="cls-16" x1="119.16" y1="14.2" x2="117" y2="14.2"/><line class="cls-16" x1="115.32" y1="14.2" x2="113.16" y2="14.2"/><line class="cls-16" x1="111.48" y1="14.2" x2="109.32" y2="14.2"/><line class="cls-16" x1="107.64" y1="14.2" x2="105.48" y2="14.2"/><line class="cls-16" x1="103.8" y1="14.2" x2="101.64" y2="14.2"/><line class="cls-16" x1="99.96" y1="14.2" x2="98.04" y2="14.2"/><line class="cls-16" x1="96.12" y1="14.2" x2="94.2" y2="14.2"/><line class="cls-16" x1="92.52" y1="14.2" x2="90.36" y2="14.2"/><line class="cls-16" x1="88.68" y1="14.2" x2="86.52" y2="14.2"/><line class="cls-16" x1="84.84" y1="14.2" x2="82.68" y2="14.2"/><line class="cls-16" x1="81" y1="14.2" x2="78.84" y2="14.2"/><line class="cls-16" x1="77.16" y1="14.2" x2="75" y2="14.2"/><line class="cls-16" x1="73.32" y1="14.2" x2="71.16" y2="14.2"/><line class="cls-16" x1="69.48" y1="14.2" x2="67.32" y2="14.2"/><line class="cls-16" x1="65.64" y1="14.2" x2="63.48" y2="14.2"/><line class="cls-16" x1="61.8" y1="14.2" x2="59.64" y2="14.2"/><line class="cls-16" x1="57.96" y1="14.2" x2="55.8" y2="14.2"/><line class="cls-16" x1="54.12" y1="14.2" x2="51.96" y2="14.2"/><line class="cls-16" x1="50.28" y1="14.2" x2="48.12" y2="14.2"/><line class="cls-16" x1="46.44" y1="14.2" x2="44.28" y2="14.2"/><line class="cls-16" x1="42.6" y1="14.2" x2="40.44" y2="14.2"/><line class="cls-16" x1="38.76" y1="14.2" x2="36.6" y2="14.2"/><line class="cls-16" x1="34.92" y1="14.2" x2="32.76" y2="14.2"/><line class="cls-16" x1="31.08" y1="14.2" x2="29.16" y2="14.2"/><line class="cls-16" x1="27.24" y1="14.2" x2="25.32" y2="14.2"/><line class="cls-16" x1="23.4" y1="14.2" x2="21.48" y2="14.2"/><line class="cls-16" x1="19.8" y1="14.2" x2="17.64" y2="14.2"/><line class="cls-16" x1="15.96" y1="14.2" x2="13.8" y2="14.2"/><line class="cls-16" x1="12.12" y1="14.2" x2="9.96" y2="14.2"/><line class="cls-16" x1="8.28" y1="14.2" x2="6.84" y2="14.2"/><line class="cls-16" x1="94.92" y1="231.88" x2="214.68" y2="231.88"/><polyline class="cls-16" points="92.04 229 93 230.92 94.92 231.88"/><line class="cls-16" x1="92.04" y1="178.36" x2="92.04" y2="229"/><polyline class="cls-16" points="94.92 175.72 93 176.44 92.04 178.36"/><line class="cls-16" x1="214.68" y1="175.72" x2="94.92" y2="175.72"/><polyline class="cls-16" points="217.32 178.36 216.6 176.44 214.68 175.72"/><line class="cls-16" x1="217.32" y1="229" x2="217.32" y2="178.36"/><polyline class="cls-16" points="214.68 231.88 216.6 230.92 217.32 229"/><polyline class="cls-17" points="185.88 175.72 185.88 176.92 213.24 176.92 213.24 175.72 185.88 175.72"/><polyline class="cls-17" points="99.72 230.44 99.72 231.88 140.04 231.88 140.04 230.44 99.72 230.44"/><polyline class="cls-17" points="186.12 230.44 186.12 231.88 213.48 231.88 213.48 230.44 186.12 230.44"/><line class="cls-17" x1="93.96" y1="226.36" x2="92.52" y2="226.36"/><line class="cls-17" x1="93.96" y1="181" x2="93.96" y2="226.36"/><line class="cls-17" x1="92.52" y1="181" x2="93.96" y2="181"/><line class="cls-17" x1="92.52" y1="226.36" x2="92.52" y2="181"/><line class="cls-17" x1="215.64" y1="226.12" x2="217.08" y2="226.12"/><line class="cls-17" x1="215.64" y1="181" x2="215.64" y2="226.12"/><line class="cls-17" x1="217.08" y1="181" x2="215.64" y2="181"/><line class="cls-17" x1="217.08" y1="226.12" x2="217.08" y2="181"/><line class="cls-17" x1="189" y1="180.52" x2="212.76" y2="180.52"/><line class="cls-17" x1="189" y1="227.08" x2="189" y2="180.52"/><line class="cls-17" x1="212.76" y1="227.08" x2="189" y2="227.08"/><line class="cls-17" x1="212.76" y1="180.52" x2="212.76" y2="227.08"/><line class="cls-17" x1="97.08" y1="229.72" x2="212.52" y2="229.72"/><polyline class="cls-17" points="94.2 226.84 95.16 228.76 97.08 229.72"/><line class="cls-17" x1="94.2" y1="180.52" x2="94.2" y2="226.84"/><polyline class="cls-17" points="97.08 177.88 95.16 178.6 94.2 180.52"/><line class="cls-17" x1="212.52" y1="177.88" x2="97.08" y2="177.88"/><polyline class="cls-17" points="215.16 180.52 214.44 178.6 212.52 177.88"/><line class="cls-17" x1="215.16" y1="226.84" x2="215.16" y2="180.52"/><polyline class="cls-17" points="212.52 229.72 214.44 228.76 215.16 226.84"/><polyline class="cls-17" points="217.32 229 217.32 178.36 217.32 177.64 217.08 176.92 216.6 176.44 216.12 175.96 215.4 175.72 214.68 175.72 94.92 175.72 94.2 175.72 93.48 175.96 93 176.44 92.52 176.92 92.28 177.64 92.04 178.36 92.04 229 92.28 229.72 92.52 230.44 93 230.92 93.48 231.4 94.2 231.64 94.92 231.88 214.68 231.88 215.4 231.64 216.12 231.4 216.6 230.92 217.08 230.44 217.32 229.72 217.32 229"/><polyline class="cls-17" points="182.28 282.76 183.72 283 185.16 283"/><polyline class="cls-17" points="203.64 282.76 202.2 283 200.76 283"/><line class="cls-17" x1="179.4" y1="279.4" x2="179.64" y2="280.12"/><polyline class="cls-17" points="179.4 279.4 179.4 277.96 179.64 276.28"/><polyline class="cls-17" points="182.28 282.76 180.6 281.8 179.64 280.12"/><line class="cls-17" x1="206.28" y1="279.4" x2="206.28" y2="280.12"/><polyline class="cls-17" points="206.28 279.4 206.52 277.96 206.28 276.28"/><polyline class="cls-17" points="203.64 282.76 205.32 281.8 206.28 280.12"/><line class="cls-16" x1="207" y1="290.92" x2="178.68" y2="290.92"/><polyline class="cls-16" points="207.24 273.64 205.8 271.24 203.88 269.08"/><polyline class="cls-16" points="208.44 278.44 208.2 276.04 207.24 273.64"/><polyline class="cls-16" points="207 290.92 208.2 284.68 208.44 278.44"/><polyline class="cls-16" points="177.24 278.44 177.72 284.68 178.68 290.92"/><polyline class="cls-16" points="199.08 266.2 195.96 265.48 192.84 265.24"/><polyline class="cls-16" points="203.88 269.08 201.48 267.4 199.08 266.2"/><polyline class="cls-16" points="178.44 273.64 177.48 276.04 177.24 278.44"/><polyline class="cls-16" points="181.8 269.08 179.88 271.24 178.44 273.64"/><polyline class="cls-16" points="186.84 266.2 184.2 267.4 181.8 269.08"/><polyline class="cls-16" points="192.84 265.24 189.72 265.48 186.84 266.2"/><polyline class="cls-17" points="178.44 289.96 207.24 289.96 208.2 284.2 208.44 278.44 208.2 276.04 207.24 273.64 205.8 271.24 203.88 269.08 201.48 267.4 199.08 266.2 195.96 265.48 192.84 265.24 189.72 265.48 186.84 266.2 184.2 267.4 181.8 269.08 179.88 271.24 178.44 273.64 177.72 276.04 177.24 278.44 177.48 284.2 178.44 289.96"/><polyline class="cls-17" points="167.4 290.92 218.52 290.92 218.52 289.96 167.4 289.96 167.4 290.92"/><line class="cls-16" x1="94.92" y1="124.12" x2="214.68" y2="124.12"/><polyline class="cls-16" points="92.04 121.24 93 123.16 94.92 124.12"/><line class="cls-16" x1="92.04" y1="70.6" x2="92.04" y2="121.24"/><polyline class="cls-16" points="94.92 67.96 93 68.68 92.04 70.6"/><line class="cls-16" x1="214.68" y1="67.96" x2="94.92" y2="67.96"/><polyline class="cls-16" points="217.32 70.6 216.6 68.68 214.68 67.96"/><line class="cls-16" x1="217.32" y1="121.24" x2="217.32" y2="70.6"/><polyline class="cls-16" points="214.68 124.12 216.6 123.16 217.32 121.24"/><polyline class="cls-17" points="185.88 67.96 185.88 69.4 213.24 69.4 213.24 67.96 185.88 67.96"/><polyline class="cls-17" points="99.72 122.68 99.72 124.12 140.04 124.12 140.04 122.68 99.72 122.68"/><polyline class="cls-17" points="186.12 122.68 186.12 124.12 213.48 124.12 213.48 122.68 186.12 122.68"/><line class="cls-17" x1="93.96" y1="118.6" x2="92.52" y2="118.6"/><line class="cls-17" x1="93.96" y1="73.24" x2="93.96" y2="118.6"/><line class="cls-17" x1="92.52" y1="73.24" x2="93.96" y2="73.24"/><line class="cls-17" x1="92.52" y1="118.6" x2="92.52" y2="73.24"/><line class="cls-17" x1="215.64" y1="118.36" x2="217.08" y2="118.36"/><line class="cls-17" x1="215.64" y1="73.24" x2="215.64" y2="118.36"/><line class="cls-17" x1="217.08" y1="73.24" x2="215.64" y2="73.24"/><line class="cls-17" x1="217.08" y1="118.36" x2="217.08" y2="73.24"/><line class="cls-17" x1="189" y1="72.76" x2="212.76" y2="72.76"/><line class="cls-17" x1="189" y1="119.32" x2="189" y2="72.76"/><line class="cls-17" x1="212.76" y1="119.32" x2="189" y2="119.32"/><line class="cls-17" x1="212.76" y1="72.76" x2="212.76" y2="119.32"/><line class="cls-17" x1="97.08" y1="121.96" x2="212.52" y2="121.96"/><polyline class="cls-17" points="94.2 119.08 95.16 121 97.08 121.96"/><line class="cls-17" x1="94.2" y1="72.76" x2="94.2" y2="119.08"/><polyline class="cls-17" points="97.08 70.12 95.16 70.84 94.2 72.76"/><line class="cls-17" x1="212.52" y1="70.12" x2="97.08" y2="70.12"/><polyline class="cls-17" points="215.16 72.76 214.44 70.84 212.52 70.12"/><line class="cls-17" x1="215.16" y1="119.08" x2="215.16" y2="72.76"/><polyline class="cls-17" points="212.52 121.96 214.44 121 215.16 119.08"/><polyline class="cls-17" points="217.32 121.24 217.32 70.6 217.32 69.88 217.08 69.4 216.6 68.68 216.12 68.2 215.4 67.96 214.68 67.96 94.92 67.96 94.2 67.96 93.48 68.2 93 68.68 92.52 69.4 92.28 69.88 92.04 70.6 92.04 121.24 92.28 121.96 92.52 122.68 93 123.16 93.48 123.64 94.2 123.88 94.92 124.12 214.68 124.12 215.4 123.88 216.12 123.64 216.6 123.16 217.08 122.68 217.32 121.96 217.32 121.24"/><polyline class="cls-16" points="67.32 407.8 68.28 400.12 70.68 392.92 74.76 386.68 80.04 381.16 86.52 377.08 93.72 374.68 101.4 373.72"/><polyline class="cls-16" points="98.52 407.8 98.52 373.72 101.4 373.72 101.4 407.8 98.52 407.8"/><polyline class="cls-16" points="67.32 407.8 66.36 397.96 63.96 388.36 59.64 379.24 53.88 371.08 46.92 364.12 38.76 358.36 29.88 354.28 20.28 351.64 10.44 350.92"/><polyline class="cls-16" points="13.08 407.8 13.08 350.92 10.44 350.92 10.44 407.8 13.08 407.8"/><polyline class="cls-16" points="101.4 404.44 10.44 404.44 10.44 411.16 101.4 411.16 101.4 404.44 10.44 404.44 10.44 411.16 101.4 411.16 101.4 404.44"/><polyline class="cls-16" points="170.28 14.2 187.32 14.2 221.16 14.2"/><line class="cls-16" x1="187.32" y1="34.12" x2="221.16" y2="34.12"/><line class="cls-16" x1="187.32" y1="14.2" x2="221.16" y2="14.2"/><line class="cls-16" x1="187.32" y1="34.12" x2="187.32" y2="14.2"/><line class="cls-16" x1="221.16" y1="34.12" x2="221.16" y2="14.2"/><polyline class="cls-17" points="187.32 34.12 221.16 34.12 221.16 14.2 187.32 14.2 187.32 34.12"/><line class="cls-17" x1="187.32" y1="14.2" x2="221.16" y2="14.2"/><polyline class="cls-17" points="167.4 14.2 168.12 19.48 170.04 24.28 173.16 28.36 177.24 31.48 182.04 33.4 187.32 34.12 221.16 34.12"/><line class="cls-17" x1="187.32" y1="14.2" x2="187.32" y2="34.12"/><line class="cls-17" x1="221.16" y1="14.2" x2="221.16" y2="34.12"/><line class="cls-17" x1="167.4" y1="14.2" x2="187.32" y2="14.2"/><line class="cls-18" x1="141.96" y1="96.04" x2="153.24" y2="96.04"/><line class="cls-18" x1="164.52" y1="96.04" x2="175.8" y2="96.04"/><line class="cls-18" x1="187.32" y1="96.04" x2="198.6" y2="96.04"/><line class="cls-18" x1="209.88" y1="96.04" x2="221.16" y2="96.04"/><line class="cls-18" x1="232.68" y1="96.04" x2="243.96" y2="96.04"/><line class="cls-18" x1="141.96" y1="203.8" x2="147.48" y2="203.8"/><line class="cls-18" x1="158.76" y1="203.8" x2="170.28" y2="203.8"/><line class="cls-18" x1="181.56" y1="203.8" x2="192.84" y2="203.8"/><line class="cls-18" x1="204.12" y1="203.8" x2="215.64" y2="203.8"/><line class="cls-18" x1="226.92" y1="203.8" x2="238.2" y2="203.8"/><line class="cls-18" x1="249.48" y1="203.8" x2="261" y2="203.8"/><line class="cls-18" x1="272.28" y1="203.8" x2="278.04" y2="203.8"/><line class="cls-19" x1="264.36" y1="7.48" x2="264.36" y2="96.04"/><line class="cls-18" x1="264.36" y1="96.04" x2="260.04" y2="91.72"/><line class="cls-18" x1="264.36" y1="96.04" x2="268.68" y2="100.12"/><line class="cls-19" x1="264.36" y1="96.04" x2="271.56" y2="96.04"/><line class="cls-19" x1="264.36" y1="96.04" x2="250.2" y2="96.04"/><line class="cls-18" x1="264.36" y1="7.48" x2="260.04" y2="3.16"/><line class="cls-18" x1="264.36" y1="7.48" x2="268.68" y2="11.8"/><line class="cls-19" x1="264.36" y1="7.48" x2="271.56" y2="7.48"/><line class="cls-19" x1="264.36" y1="7.48" x2="250.2" y2="7.48"/><rect class="cls-20" x="250.92" y="0.04" width="9.6" height="103.44"/><text class="cls-21" transform="translate(258.6 103.24) rotate(-90)">Graph<tspan class="cls-22" x="18" y="0">i</tspan><tspan class="cls-23" x="19.44" y="0">c</tspan><tspan class="cls-24" x="22.79" y="0">_</tspan><tspan x="26.16" y="0">S</tspan><tspan class="cls-25" x="30.49" y="0">i</tspan><tspan x="31.93" y="0">ng</tspan><tspan class="cls-22" x="39.13" y="0">l</tspan><tspan x="40.58" y="0">eB</tspan><tspan class="cls-24" x="48.51" y="0">e</tspan><tspan x="51.88" y="0">d_O</tspan><tspan class="cls-26" x="64.14" y="0">ff</tspan><tspan class="cls-27" x="67.98" y="0">s</tspan><tspan class="cls-28" x="71.33" y="0">e</tspan><tspan class="cls-29" x="74.7" y="0">t</tspan><tspan x="76.62" y="0">_BV</tspan><tspan class="cls-30" x="88.88" y="0">ND</tspan><tspan class="cls-31" x="98.48" y="0">H</tspan></text><line class="cls-19" x1="288.36" y1="7.48" x2="288.36" y2="203.8"/><line class="cls-18" x1="288.36" y1="203.8" x2="284.28" y2="199.48"/><line class="cls-18" x1="288.36" y1="203.8" x2="292.68" y2="207.88"/><line class="cls-19" x1="288.36" y1="203.8" x2="295.56" y2="203.8"/><line class="cls-19" x1="288.36" y1="203.8" x2="274.2" y2="203.8"/><line class="cls-18" x1="288.36" y1="7.48" x2="284.28" y2="3.16"/><line class="cls-18" x1="288.36" y1="7.48" x2="292.68" y2="11.8"/><line class="cls-19" x1="288.36" y1="7.48" x2="295.56" y2="7.48"/><line class="cls-19" x1="288.36" y1="7.48" x2="274.2" y2="7.48"/><rect class="cls-20" x="274.92" y="52.6" width="9.6" height="106.08"/><text class="cls-32" transform="translate(282.6 158.44) rotate(-90)"><tspan class="cls-33">Graph</tspan><tspan class="cls-22" x="18" y="0">i</tspan><tspan class="cls-23" x="19.44" y="0">c</tspan><tspan class="cls-24" x="22.79" y="0">_</tspan><tspan class="cls-30" x="26.16" y="0">D</tspan><tspan class="cls-33" x="30.96" y="0">oub</tspan><tspan class="cls-25" x="41.76" y="0">l</tspan><tspan class="cls-33" x="43.2" y="0">eB</tspan><tspan class="cls-24" x="51.13" y="0">e</tspan><tspan class="cls-33" x="54.5" y="0">d_O</tspan><tspan class="cls-26" x="66.77" y="0">ff</tspan><tspan class="cls-23" x="70.6" y="0">s</tspan><tspan class="cls-24" x="73.96" y="0">e</tspan><tspan class="cls-26" x="77.32" y="0">t</tspan><tspan class="cls-33" x="79.24" y="0">_BV</tspan><tspan class="cls-30" x="91.5" y="0">ND</tspan><tspan x="101.1" y="0">H</tspan></text></g></g></svg>