<svg xmlns="http://www.w3.org/2000/svg" xmlns:xlink="http://www.w3.org/1999/xlink" viewBox="0 0 327 390.12"><defs><style>.cls-1,.cls-14,.cls-15,.cls-16,.cls-17,.cls-2{fill:none;}.cls-1{clip-rule:evenodd;}.cls-3{clip-path:url(#clip-path);}.cls-4{clip-path:url(#clip-path-2);}.cls-5{fill:#c6d3b4;}.cls-11,.cls-6{font-size:4.08px;font-family:ArialMT, Arial;}.cls-11,.cls-7{letter-spacing:-0.03em;}.cls-8{letter-spacing:0.02em;}.cls-9{letter-spacing:-0.09em;}.cls-10{letter-spacing:0.02em;}.cls-12{letter-spacing:-0.04em;}.cls-13{letter-spacing:0em;}.cls-14,.cls-15{stroke:#000;}.cls-14,.cls-15,.cls-16,.cls-17{stroke-linecap:round;stroke-linejoin:round;}.cls-14,.cls-17{stroke-width:0.24px;}.cls-15,.cls-16{stroke-width:0.48px;}.cls-16,.cls-17{stroke:red;}.cls-18{fill:#fff;}.cls-19,.cls-24{font-size:8.05px;}.cls-19,.cls-24,.cls-29{fill:red;font-family:ArialNarrow, Arial;}.cls-20{letter-spacing:-0.01em;}.cls-21{letter-spacing:0em;}.cls-22,.cls-24{letter-spacing:-0.01em;}.cls-23{letter-spacing:0.01em;}.cls-25{letter-spacing:0em;}.cls-26{letter-spacing:-0.03em;}.cls-27{letter-spacing:0em;}.cls-28{letter-spacing:-0.02em;}.cls-29{font-size:8.04px;letter-spacing:-0.02em;}.cls-30{letter-spacing:0.02em;}.cls-31{letter-spacing:0em;}.cls-32{letter-spacing:0.01em;}.cls-33{letter-spacing:0em;}</style><clipPath id="clip-path" transform="translate(-242.15 -131.52)"><path class="cls-1" d="M358.07,224.64l-.48.24-.24.24-.48.24-.48.48-.24.72v52.08h.24v.72h.24l.24.24v.48h.48l.24.24.48.24,121.2.24v-.24l.72-.24.72-.72.24-.48.24-53-1.2-1.2-.72-.24m-229.2-85.2V455.52h99.84v-65h55v-1.2h11v-1.44h-.24V386.4h-.24V385h-.24v-1.2H415V378l-.24-.24c-.2-3.53,2.68-8.57,5.76-10.08l.24-.24.48-.24.48-.48A18.69,18.69,0,0,1,432,364.56l1.44.24,2.88.72a12.13,12.13,0,0,1,4.08,2.16l.48.24,2.88,2.88v.48H444v.48h.24l.24.24v.48h.24V373H445v.48h.24v.72h.24v.72h.24v.72h.24l-.24,7.92-.72,4.32-.24,1.2,11,.24v1.2H487v-251Z"/></clipPath><clipPath id="clip-path-2" transform="translate(-242.15 -131.52)"><rect class="cls-2" width="841.92" height="595.2"/></clipPath></defs><title>PushIt - Floor Plan - SP-Room-Bed_Ens_Square</title><g id="Layer_2" data-name="Layer 2"><g id="Layer_1-2" data-name="Layer 1"><g class="cls-3"><g class="cls-4"><rect class="cls-5" x="7.92" y="7.92" width="236.88" height="316.08"/></g></g><text class="cls-6" transform="translate(124.08 127.68)">?</text><text class="cls-6" transform="translate(114.48 140.4)"><tspan class="cls-7">4300</tspan><tspan class="cls-8" x="8.64" y="0"> </tspan><tspan class="cls-9" x="9.84" y="0">x</tspan><tspan class="cls-10" x="11.52" y="0"> </tspan><tspan class="cls-7" x="12.72" y="0">570</tspan><tspan x="19.2" y="0">0</tspan></text><text class="cls-6" transform="translate(122.16 132)"><tspan class="cls-7">5</tspan><tspan class="cls-10" x="2.16" y="0">.</tspan><tspan class="cls-7" x="3.36" y="0">5</tspan><tspan x="5.52" y="0">0</tspan></text><text class="cls-11" transform="translate(113.52 136.08)">21<tspan class="cls-8" x="4.32" y="0">.</tspan><tspan x="5.52" y="0">73</tspan><tspan class="cls-8" x="9.84" y="0"> </tspan><tspan class="cls-12" x="11.04" y="0">(</tspan><tspan x="12.24" y="0">20</tspan><tspan class="cls-8" x="16.55" y="0">.</tspan><tspan x="17.75" y="0">54</tspan><tspan class="cls-13" x="22.07" y="0">)</tspan></text><text class="cls-6" transform="translate(124.08 123.6)">?</text><polyline class="cls-14" points="107.76 324 7.92 324 7.92 7.92 244.8 7.92 244.8 258.96 107.76 258.96 107.76 324"/><polyline class="cls-14" points="251.52 1.2 1.2 1.2 1.2 330.96 114.48 330.96 114.48 265.68 251.52 265.68 251.52 1.2"/><polyline class="cls-15" points="177.6 250.56 179.04 250.8 180.48 251.04"/><polyline class="cls-15" points="198.72 250.56 197.28 250.8 195.84 251.04"/><line class="cls-15" x1="174.72" y1="247.44" x2="174.96" y2="247.92"/><polyline class="cls-15" points="174.72 247.44 174.72 245.76 174.72 244.32"/><polyline class="cls-15" points="177.6 250.56 175.92 249.6 174.96 247.92"/><line class="cls-15" x1="201.6" y1="247.44" x2="201.36" y2="247.92"/><polyline class="cls-15" points="201.6 247.44 201.6 245.76 201.6 244.32"/><polyline class="cls-15" points="198.72 250.56 200.4 249.6 201.36 247.92"/><line class="cls-14" x1="202.32" y1="258.96" x2="174" y2="258.96"/><polyline class="cls-14" points="202.56 241.44 201.12 239.04 199.2 237.12"/><polyline class="cls-14" points="203.76 246.48 203.52 243.84 202.56 241.44"/><polyline class="cls-14" points="202.32 258.96 203.52 252.72 203.76 246.48"/><polyline class="cls-14" points="172.56 246.48 172.8 252.72 174 258.96"/><polyline class="cls-14" points="194.16 234.24 191.28 233.52 188.16 233.04"/><polyline class="cls-14" points="199.2 237.12 196.8 235.44 194.16 234.24"/><polyline class="cls-14" points="173.76 241.44 172.8 243.84 172.56 246.48"/><polyline class="cls-14" points="177.12 237.12 175.2 239.04 173.76 241.44"/><polyline class="cls-14" points="182.16 234.24 179.52 235.44 177.12 237.12"/><polyline class="cls-14" points="188.16 233.04 185.04 233.52 182.16 234.24"/><polyline class="cls-15" points="173.76 257.76 202.56 257.76 203.52 252.24 203.76 246.48 203.52 243.84 202.56 241.44 201.12 239.04 199.2 237.12 196.8 235.44 194.16 234.24 191.28 233.52 188.16 233.04 185.04 233.52 182.16 234.24 179.52 235.44 177.12 237.12 175.2 239.04 173.76 241.44 172.8 243.84 172.56 246.48 172.8 252.24 173.76 257.76"/><polyline class="cls-15" points="162.72 258.96 213.6 258.96 213.6 257.76 162.72 257.76 162.72 258.96"/><line class="cls-14" x1="116.88" y1="149.28" x2="236.4" y2="149.28"/><polyline class="cls-14" points="114 146.4 114.72 148.56 116.88 149.28"/><line class="cls-14" x1="114" y1="96" x2="114" y2="146.4"/><polyline class="cls-14" points="116.88 93.12 114.72 94.08 114 96"/><line class="cls-14" x1="236.4" y1="93.12" x2="116.88" y2="93.12"/><polyline class="cls-14" points="239.04 96 238.32 94.08 236.4 93.12"/><line class="cls-14" x1="239.04" y1="146.4" x2="239.04" y2="96"/><polyline class="cls-14" points="236.4 149.28 238.32 148.56 239.04 146.4"/><polyline class="cls-15" points="207.6 93.12 207.6 94.56 234.96 94.56 234.96 93.12 207.6 93.12"/><polyline class="cls-15" points="121.44 147.84 121.44 149.28 161.76 149.28 161.76 147.84 121.44 147.84"/><polyline class="cls-15" points="207.84 147.84 207.84 149.28 235.2 149.28 235.2 147.84 207.84 147.84"/><line class="cls-15" x1="115.68" y1="144" x2="114.24" y2="144"/><line class="cls-15" x1="115.68" y1="98.64" x2="115.68" y2="144"/><line class="cls-15" x1="114.24" y1="98.64" x2="115.68" y2="98.64"/><line class="cls-15" x1="114.24" y1="144" x2="114.24" y2="98.64"/><line class="cls-15" x1="237.36" y1="143.76" x2="238.8" y2="143.76"/><line class="cls-15" x1="237.36" y1="98.64" x2="237.36" y2="143.76"/><line class="cls-15" x1="238.8" y1="98.64" x2="237.36" y2="98.64"/><line class="cls-15" x1="238.8" y1="143.76" x2="238.8" y2="98.64"/><line class="cls-15" x1="210.72" y1="98.16" x2="234.48" y2="98.16"/><line class="cls-15" x1="210.72" y1="144.72" x2="210.72" y2="98.16"/><line class="cls-15" x1="234.48" y1="144.72" x2="210.72" y2="144.72"/><line class="cls-15" x1="234.48" y1="98.16" x2="234.48" y2="144.72"/><line class="cls-15" x1="119.04" y1="147.12" x2="234.24" y2="147.12"/><polyline class="cls-15" points="116.16 144.24 116.88 146.4 119.04 147.12"/><line class="cls-15" x1="116.16" y1="98.16" x2="116.16" y2="144.24"/><polyline class="cls-15" points="119.04 95.28 116.88 96.24 116.16 98.16"/><line class="cls-15" x1="234.24" y1="95.28" x2="119.04" y2="95.28"/><polyline class="cls-15" points="236.88 98.16 236.16 96.24 234.24 95.28"/><line class="cls-15" x1="236.88" y1="144.24" x2="236.88" y2="98.16"/><polyline class="cls-15" points="234.24 147.12 236.16 146.4 236.88 144.24"/><polyline class="cls-15" points="239.04 146.4 239.04 96 239.04 95.28 238.8 94.56 238.32 94.08 237.84 93.6 237.12 93.36 236.4 93.12 116.88 93.12 115.92 93.36 115.44 93.6 114.72 94.08 114.24 94.56 114 95.28 114 96 114 146.4 114 147.12 114.24 147.84 114.72 148.56 115.44 149.04 115.92 149.28 116.88 149.28 236.4 149.28 237.12 149.28 237.84 149.04 238.32 148.56 238.8 147.84 239.04 147.12 239.04 146.4"/><line class="cls-14" x1="7.92" y1="7.92" x2="7.92" y2="10.32"/><line class="cls-14" x1="7.92" y1="12" x2="7.92" y2="14.16"/><line class="cls-14" x1="7.92" y1="15.84" x2="7.92" y2="18"/><line class="cls-14" x1="7.92" y1="19.68" x2="7.92" y2="21.84"/><line class="cls-14" x1="7.92" y1="23.52" x2="7.92" y2="25.44"/><line class="cls-14" x1="7.92" y1="27.36" x2="7.92" y2="29.28"/><line class="cls-14" x1="7.92" y1="31.2" x2="7.92" y2="33.12"/><line class="cls-14" x1="7.92" y1="34.8" x2="7.92" y2="36.96"/><line class="cls-14" x1="7.92" y1="38.64" x2="7.92" y2="40.8"/><line class="cls-14" x1="7.92" y1="42.48" x2="7.92" y2="44.64"/><line class="cls-14" x1="7.92" y1="46.32" x2="7.92" y2="48.48"/><line class="cls-14" x1="7.92" y1="50.16" x2="7.92" y2="52.32"/><line class="cls-14" x1="7.92" y1="54" x2="7.92" y2="56.16"/><line class="cls-14" x1="7.92" y1="57.84" x2="7.92" y2="60"/><line class="cls-14" x1="7.92" y1="61.68" x2="7.92" y2="63.84"/><line class="cls-14" x1="7.92" y1="65.52" x2="7.92" y2="67.68"/><line class="cls-14" x1="7.92" y1="69.36" x2="7.92" y2="71.52"/><line class="cls-14" x1="7.92" y1="73.2" x2="7.92" y2="75.36"/><line class="cls-14" x1="7.92" y1="77.04" x2="7.92" y2="79.2"/><line class="cls-14" x1="7.92" y1="80.88" x2="7.92" y2="83.04"/><line class="cls-14" x1="7.92" y1="84.72" x2="7.92" y2="86.64"/><line class="cls-14" x1="7.92" y1="88.56" x2="7.92" y2="90.48"/><line class="cls-14" x1="7.92" y1="92.16" x2="7.92" y2="94.32"/><line class="cls-14" x1="7.92" y1="96" x2="7.92" y2="98.16"/><line class="cls-14" x1="7.92" y1="99.84" x2="7.92" y2="102"/><line class="cls-14" x1="7.92" y1="103.68" x2="7.92" y2="105.84"/><line class="cls-14" x1="7.92" y1="107.52" x2="7.92" y2="109.68"/><line class="cls-14" x1="7.92" y1="111.36" x2="7.92" y2="113.52"/><line class="cls-14" x1="7.92" y1="115.2" x2="7.92" y2="117.36"/><line class="cls-14" x1="7.92" y1="119.04" x2="7.92" y2="121.2"/><line class="cls-14" x1="7.92" y1="122.88" x2="7.92" y2="125.04"/><line class="cls-14" x1="7.92" y1="126.72" x2="7.92" y2="128.88"/><line class="cls-14" x1="7.92" y1="130.56" x2="7.92" y2="132.72"/><line class="cls-14" x1="7.92" y1="134.4" x2="7.92" y2="136.56"/><line class="cls-14" x1="7.92" y1="138.24" x2="7.92" y2="140.4"/><line class="cls-14" x1="7.92" y1="142.08" x2="7.92" y2="144.24"/><line class="cls-14" x1="7.92" y1="145.92" x2="7.92" y2="147.84"/><line class="cls-14" x1="7.92" y1="149.76" x2="7.92" y2="151.68"/><line class="cls-14" x1="7.92" y1="153.36" x2="7.92" y2="155.52"/><line class="cls-14" x1="7.92" y1="157.2" x2="7.92" y2="159.36"/><line class="cls-14" x1="7.92" y1="161.04" x2="7.92" y2="163.2"/><line class="cls-14" x1="7.92" y1="164.88" x2="7.92" y2="167.04"/><line class="cls-14" x1="7.92" y1="168.72" x2="7.92" y2="170.88"/><line class="cls-14" x1="7.92" y1="172.56" x2="7.92" y2="174.72"/><line class="cls-14" x1="7.92" y1="176.4" x2="7.92" y2="178.56"/><line class="cls-14" x1="7.92" y1="180.24" x2="7.92" y2="182.4"/><line class="cls-14" x1="7.92" y1="184.08" x2="7.92" y2="186.24"/><line class="cls-14" x1="7.92" y1="187.92" x2="7.92" y2="190.08"/><line class="cls-14" x1="7.92" y1="191.76" x2="7.92" y2="193.92"/><line class="cls-14" x1="7.92" y1="195.6" x2="7.92" y2="197.76"/><line class="cls-14" x1="7.92" y1="199.44" x2="7.92" y2="201.6"/><line class="cls-14" x1="7.92" y1="203.28" x2="7.92" y2="205.44"/><line class="cls-14" x1="7.92" y1="207.12" x2="7.92" y2="209.04"/><line class="cls-14" x1="7.92" y1="210.96" x2="7.92" y2="212.88"/><line class="cls-14" x1="7.92" y1="214.56" x2="7.92" y2="216.72"/><line class="cls-14" x1="7.92" y1="218.4" x2="7.92" y2="220.56"/><line class="cls-14" x1="7.92" y1="222.24" x2="7.92" y2="224.4"/><line class="cls-14" x1="7.92" y1="226.08" x2="7.92" y2="228.24"/><line class="cls-14" x1="7.92" y1="229.92" x2="7.92" y2="232.08"/><line class="cls-14" x1="7.92" y1="233.76" x2="7.92" y2="235.92"/><line class="cls-14" x1="7.92" y1="237.6" x2="7.92" y2="239.76"/><line class="cls-14" x1="7.92" y1="241.44" x2="7.92" y2="243.6"/><line class="cls-14" x1="7.92" y1="245.28" x2="7.92" y2="247.44"/><line class="cls-14" x1="7.92" y1="249.12" x2="7.92" y2="251.28"/><line class="cls-14" x1="7.92" y1="252.96" x2="7.92" y2="255.12"/><line class="cls-14" x1="7.92" y1="256.8" x2="7.92" y2="258.96"/><line class="cls-14" x1="7.92" y1="260.64" x2="7.92" y2="262.8"/><line class="cls-14" x1="7.92" y1="264.48" x2="7.92" y2="266.4"/><line class="cls-14" x1="7.92" y1="268.32" x2="7.92" y2="270.24"/><line class="cls-14" x1="7.92" y1="272.16" x2="7.92" y2="274.08"/><line class="cls-14" x1="7.92" y1="275.76" x2="7.92" y2="277.92"/><line class="cls-14" x1="7.92" y1="279.6" x2="7.92" y2="281.76"/><line class="cls-14" x1="7.92" y1="283.44" x2="7.92" y2="285.6"/><line class="cls-14" x1="7.92" y1="287.28" x2="7.92" y2="289.44"/><line class="cls-14" x1="7.92" y1="291.12" x2="7.92" y2="293.28"/><line class="cls-14" x1="7.92" y1="294.96" x2="7.92" y2="297.12"/><line class="cls-14" x1="7.92" y1="298.8" x2="7.92" y2="300.96"/><line class="cls-14" x1="7.92" y1="302.64" x2="7.92" y2="304.8"/><line class="cls-14" x1="7.92" y1="306.48" x2="7.92" y2="308.64"/><line class="cls-14" x1="7.92" y1="310.32" x2="7.92" y2="312.48"/><line class="cls-14" x1="7.92" y1="314.16" x2="7.92" y2="316.32"/><line class="cls-14" x1="7.92" y1="318" x2="7.92" y2="320.16"/><polyline class="cls-14" points="7.92 321.84 7.92 324 9.12 324"/><line class="cls-14" x1="10.8" y1="324" x2="12.96" y2="324"/><line class="cls-14" x1="14.64" y1="324" x2="16.8" y2="324"/><line class="cls-14" x1="18.48" y1="324" x2="20.64" y2="324"/><line class="cls-14" x1="22.32" y1="324" x2="24.48" y2="324"/><line class="cls-14" x1="26.16" y1="324" x2="28.32" y2="324"/><line class="cls-14" x1="30" y1="324" x2="32.16" y2="324"/><line class="cls-14" x1="33.84" y1="324" x2="36" y2="324"/><line class="cls-14" x1="37.68" y1="324" x2="39.84" y2="324"/><line class="cls-14" x1="41.52" y1="324" x2="43.68" y2="324"/><line class="cls-14" x1="45.36" y1="324" x2="47.52" y2="324"/><line class="cls-14" x1="49.2" y1="324" x2="51.36" y2="324"/><line class="cls-14" x1="53.04" y1="324" x2="54.96" y2="324"/><line class="cls-14" x1="56.88" y1="324" x2="58.8" y2="324"/><line class="cls-14" x1="60.48" y1="324" x2="62.64" y2="324"/><line class="cls-14" x1="64.32" y1="324" x2="66.48" y2="324"/><line class="cls-14" x1="68.16" y1="324" x2="70.32" y2="324"/><line class="cls-14" x1="72" y1="324" x2="74.16" y2="324"/><line class="cls-14" x1="75.84" y1="324" x2="78" y2="324"/><line class="cls-14" x1="79.68" y1="324" x2="81.84" y2="324"/><line class="cls-14" x1="83.52" y1="324" x2="85.68" y2="324"/><line class="cls-14" x1="87.36" y1="324" x2="89.52" y2="324"/><line class="cls-14" x1="91.2" y1="324" x2="93.36" y2="324"/><line class="cls-14" x1="95.04" y1="324" x2="97.2" y2="324"/><line class="cls-14" x1="98.88" y1="324" x2="101.04" y2="324"/><line class="cls-14" x1="102.72" y1="324" x2="104.88" y2="324"/><polyline class="cls-14" points="106.56 324 107.76 324 107.76 323.04"/><line class="cls-14" x1="107.76" y1="321.36" x2="107.76" y2="319.2"/><line class="cls-14" x1="107.76" y1="317.52" x2="107.76" y2="315.36"/><line class="cls-14" x1="107.76" y1="313.68" x2="107.76" y2="311.52"/><line class="cls-14" x1="107.76" y1="309.84" x2="107.76" y2="307.68"/><line class="cls-14" x1="107.76" y1="306" x2="107.76" y2="303.84"/><line class="cls-14" x1="107.76" y1="302.16" x2="107.76" y2="300"/><line class="cls-14" x1="107.76" y1="298.32" x2="107.76" y2="296.16"/><line class="cls-14" x1="107.76" y1="294.48" x2="107.76" y2="292.32"/><line class="cls-14" x1="107.76" y1="290.64" x2="107.76" y2="288.48"/><line class="cls-14" x1="107.76" y1="286.8" x2="107.76" y2="284.64"/><line class="cls-14" x1="107.76" y1="282.96" x2="107.76" y2="280.8"/><line class="cls-14" x1="107.76" y1="279.12" x2="107.76" y2="276.96"/><line class="cls-14" x1="107.76" y1="275.28" x2="107.76" y2="273.36"/><line class="cls-14" x1="107.76" y1="271.44" x2="107.76" y2="269.52"/><line class="cls-14" x1="107.76" y1="267.84" x2="107.76" y2="265.68"/><line class="cls-14" x1="107.76" y1="264" x2="107.76" y2="261.84"/><polyline class="cls-14" points="107.76 260.16 107.76 258.96 109.44 258.96"/><line class="cls-14" x1="111.12" y1="258.96" x2="113.28" y2="258.96"/><line class="cls-14" x1="114.96" y1="258.96" x2="117.12" y2="258.96"/><line class="cls-14" x1="118.8" y1="258.96" x2="120.96" y2="258.96"/><line class="cls-14" x1="122.64" y1="258.96" x2="124.8" y2="258.96"/><line class="cls-14" x1="126.48" y1="258.96" x2="128.64" y2="258.96"/><line class="cls-14" x1="130.32" y1="258.96" x2="132.48" y2="258.96"/><line class="cls-14" x1="134.16" y1="258.96" x2="136.32" y2="258.96"/><line class="cls-14" x1="138" y1="258.96" x2="140.16" y2="258.96"/><line class="cls-14" x1="141.84" y1="258.96" x2="144" y2="258.96"/><line class="cls-14" x1="145.68" y1="258.96" x2="147.6" y2="258.96"/><line class="cls-14" x1="149.52" y1="258.96" x2="151.44" y2="258.96"/><line class="cls-14" x1="153.12" y1="258.96" x2="155.28" y2="258.96"/><line class="cls-14" x1="156.96" y1="258.96" x2="159.12" y2="258.96"/><line class="cls-14" x1="160.8" y1="258.96" x2="162.72" y2="258.96"/><line class="cls-14" x1="213.6" y1="258.96" x2="215.04" y2="258.96"/><line class="cls-14" x1="216.72" y1="258.96" x2="218.88" y2="258.96"/><line class="cls-14" x1="220.56" y1="258.96" x2="222.72" y2="258.96"/><line class="cls-14" x1="224.4" y1="258.96" x2="226.56" y2="258.96"/><line class="cls-14" x1="228.24" y1="258.96" x2="230.4" y2="258.96"/><line class="cls-14" x1="232.08" y1="258.96" x2="234.24" y2="258.96"/><line class="cls-14" x1="235.92" y1="258.96" x2="237.84" y2="258.96"/><line class="cls-14" x1="239.76" y1="258.96" x2="241.68" y2="258.96"/><polyline class="cls-14" points="243.36 258.96 244.8 258.96 244.8 256.56"/><line class="cls-14" x1="244.8" y1="254.88" x2="244.8" y2="252.96"/><line class="cls-14" x1="244.8" y1="251.04" x2="244.8" y2="249.12"/><line class="cls-14" x1="244.8" y1="247.44" x2="244.8" y2="245.28"/><line class="cls-14" x1="244.8" y1="243.6" x2="244.8" y2="241.44"/><line class="cls-14" x1="244.8" y1="239.76" x2="244.8" y2="237.6"/><line class="cls-14" x1="244.8" y1="235.92" x2="244.8" y2="233.76"/><line class="cls-14" x1="244.8" y1="232.08" x2="244.8" y2="229.92"/><line class="cls-14" x1="244.8" y1="228.24" x2="244.8" y2="226.08"/><line class="cls-14" x1="244.8" y1="224.4" x2="244.8" y2="222.24"/><line class="cls-14" x1="244.8" y1="220.56" x2="244.8" y2="218.4"/><line class="cls-14" x1="244.8" y1="216.72" x2="244.8" y2="214.56"/><line class="cls-14" x1="244.8" y1="212.88" x2="244.8" y2="210.72"/><line class="cls-14" x1="244.8" y1="209.04" x2="244.8" y2="206.88"/><line class="cls-14" x1="244.8" y1="205.2" x2="244.8" y2="203.04"/><line class="cls-14" x1="244.8" y1="201.36" x2="244.8" y2="199.2"/><line class="cls-14" x1="244.8" y1="197.52" x2="244.8" y2="195.36"/><line class="cls-14" x1="244.8" y1="193.68" x2="244.8" y2="191.76"/><line class="cls-14" x1="244.8" y1="189.84" x2="244.8" y2="187.92"/><line class="cls-14" x1="244.8" y1="186.24" x2="244.8" y2="184.08"/><line class="cls-14" x1="244.8" y1="182.4" x2="244.8" y2="180.24"/><line class="cls-14" x1="244.8" y1="178.56" x2="244.8" y2="176.4"/><line class="cls-14" x1="244.8" y1="174.72" x2="244.8" y2="172.56"/><line class="cls-14" x1="244.8" y1="170.88" x2="244.8" y2="168.72"/><line class="cls-14" x1="244.8" y1="167.04" x2="244.8" y2="164.88"/><line class="cls-14" x1="244.8" y1="163.2" x2="244.8" y2="161.04"/><line class="cls-14" x1="244.8" y1="159.36" x2="244.8" y2="157.2"/><line class="cls-14" x1="244.8" y1="155.52" x2="244.8" y2="153.36"/><line class="cls-14" x1="244.8" y1="151.68" x2="244.8" y2="149.52"/><line class="cls-14" x1="244.8" y1="147.84" x2="244.8" y2="145.68"/><line class="cls-14" x1="244.8" y1="144" x2="244.8" y2="141.84"/><line class="cls-14" x1="244.8" y1="140.16" x2="244.8" y2="138"/><line class="cls-14" x1="244.8" y1="136.32" x2="244.8" y2="134.4"/><line class="cls-14" x1="244.8" y1="132.48" x2="244.8" y2="130.56"/><line class="cls-14" x1="244.8" y1="128.64" x2="244.8" y2="126.72"/><line class="cls-14" x1="244.8" y1="125.04" x2="244.8" y2="122.88"/><line class="cls-14" x1="244.8" y1="121.2" x2="244.8" y2="119.04"/><line class="cls-14" x1="244.8" y1="117.36" x2="244.8" y2="115.2"/><line class="cls-14" x1="244.8" y1="113.52" x2="244.8" y2="111.36"/><line class="cls-14" x1="244.8" y1="109.68" x2="244.8" y2="107.52"/><line class="cls-14" x1="244.8" y1="105.84" x2="244.8" y2="103.68"/><line class="cls-14" x1="244.8" y1="102" x2="244.8" y2="99.84"/><line class="cls-14" x1="244.8" y1="98.16" x2="244.8" y2="96"/><line class="cls-14" x1="244.8" y1="94.32" x2="244.8" y2="92.16"/><line class="cls-14" x1="244.8" y1="90.48" x2="244.8" y2="88.32"/><line class="cls-14" x1="244.8" y1="86.64" x2="244.8" y2="84.48"/><line class="cls-14" x1="244.8" y1="82.8" x2="244.8" y2="80.64"/><line class="cls-14" x1="244.8" y1="78.96" x2="244.8" y2="76.8"/><line class="cls-14" x1="244.8" y1="75.12" x2="244.8" y2="73.2"/><line class="cls-14" x1="244.8" y1="71.28" x2="244.8" y2="69.36"/><line class="cls-14" x1="244.8" y1="67.44" x2="244.8" y2="65.52"/><line class="cls-14" x1="244.8" y1="63.84" x2="244.8" y2="61.68"/><line class="cls-14" x1="244.8" y1="60" x2="244.8" y2="57.84"/><line class="cls-14" x1="244.8" y1="56.16" x2="244.8" y2="54"/><line class="cls-14" x1="244.8" y1="52.32" x2="244.8" y2="50.16"/><line class="cls-14" x1="244.8" y1="48.48" x2="244.8" y2="46.32"/><line class="cls-14" x1="244.8" y1="44.64" x2="244.8" y2="42.48"/><line class="cls-14" x1="244.8" y1="40.8" x2="244.8" y2="38.64"/><line class="cls-14" x1="244.8" y1="36.96" x2="244.8" y2="34.8"/><line class="cls-14" x1="244.8" y1="33.12" x2="244.8" y2="30.96"/><line class="cls-14" x1="244.8" y1="29.28" x2="244.8" y2="27.12"/><line class="cls-14" x1="244.8" y1="25.44" x2="244.8" y2="23.28"/><line class="cls-14" x1="244.8" y1="21.6" x2="244.8" y2="19.44"/><line class="cls-14" x1="244.8" y1="17.76" x2="244.8" y2="15.6"/><line class="cls-14" x1="244.8" y1="13.92" x2="244.8" y2="12"/><polyline class="cls-14" points="244.8 10.08 244.8 7.92 241.92 7.92"/><line class="cls-14" x1="240.24" y1="7.92" x2="238.08" y2="7.92"/><line class="cls-14" x1="236.4" y1="7.92" x2="234.24" y2="7.92"/><line class="cls-14" x1="232.56" y1="7.92" x2="230.4" y2="7.92"/><line class="cls-14" x1="228.72" y1="7.92" x2="226.8" y2="7.92"/><line class="cls-14" x1="224.88" y1="7.92" x2="222.96" y2="7.92"/><line class="cls-14" x1="221.28" y1="7.92" x2="219.12" y2="7.92"/><line class="cls-14" x1="217.44" y1="7.92" x2="215.28" y2="7.92"/><line class="cls-14" x1="213.6" y1="7.92" x2="211.44" y2="7.92"/><line class="cls-14" x1="209.76" y1="7.92" x2="207.6" y2="7.92"/><line class="cls-14" x1="205.92" y1="7.92" x2="203.76" y2="7.92"/><line class="cls-14" x1="202.08" y1="7.92" x2="199.92" y2="7.92"/><line class="cls-14" x1="198.24" y1="7.92" x2="196.08" y2="7.92"/><line class="cls-14" x1="194.4" y1="7.92" x2="192.24" y2="7.92"/><line class="cls-14" x1="190.56" y1="7.92" x2="188.4" y2="7.92"/><line class="cls-14" x1="186.72" y1="7.92" x2="184.56" y2="7.92"/><line class="cls-14" x1="182.88" y1="7.92" x2="180.72" y2="7.92"/><line class="cls-14" x1="179.04" y1="7.92" x2="176.88" y2="7.92"/><line class="cls-14" x1="175.2" y1="7.92" x2="173.04" y2="7.92"/><line class="cls-14" x1="171.36" y1="7.92" x2="169.2" y2="7.92"/><line class="cls-14" x1="167.52" y1="7.92" x2="165.6" y2="7.92"/><line class="cls-14" x1="163.68" y1="7.92" x2="161.76" y2="7.92"/><line class="cls-14" x1="160.08" y1="7.92" x2="157.92" y2="7.92"/><line class="cls-14" x1="156.24" y1="7.92" x2="154.08" y2="7.92"/><line class="cls-14" x1="152.4" y1="7.92" x2="150.24" y2="7.92"/><line class="cls-14" x1="148.56" y1="7.92" x2="146.4" y2="7.92"/><line class="cls-14" x1="144.72" y1="7.92" x2="142.56" y2="7.92"/><line class="cls-14" x1="140.88" y1="7.92" x2="138.72" y2="7.92"/><line class="cls-14" x1="137.04" y1="7.92" x2="134.88" y2="7.92"/><line class="cls-14" x1="133.2" y1="7.92" x2="131.04" y2="7.92"/><line class="cls-14" x1="129.36" y1="7.92" x2="127.2" y2="7.92"/><line class="cls-14" x1="125.52" y1="7.92" x2="123.36" y2="7.92"/><line class="cls-14" x1="121.68" y1="7.92" x2="119.52" y2="7.92"/><line class="cls-14" x1="117.84" y1="7.92" x2="115.68" y2="7.92"/><line class="cls-14" x1="114" y1="7.92" x2="111.84" y2="7.92"/><line class="cls-14" x1="110.16" y1="7.92" x2="108.24" y2="7.92"/><line class="cls-14" x1="106.32" y1="7.92" x2="104.4" y2="7.92"/><line class="cls-14" x1="102.48" y1="7.92" x2="100.56" y2="7.92"/><line class="cls-14" x1="98.88" y1="7.92" x2="96.72" y2="7.92"/><line class="cls-14" x1="95.04" y1="7.92" x2="92.88" y2="7.92"/><line class="cls-14" x1="91.2" y1="7.92" x2="89.04" y2="7.92"/><line class="cls-14" x1="87.36" y1="7.92" x2="85.2" y2="7.92"/><line class="cls-14" x1="83.52" y1="7.92" x2="81.36" y2="7.92"/><line class="cls-14" x1="79.68" y1="7.92" x2="77.52" y2="7.92"/><line class="cls-14" x1="75.84" y1="7.92" x2="73.68" y2="7.92"/><line class="cls-14" x1="72" y1="7.92" x2="69.84" y2="7.92"/><line class="cls-14" x1="68.16" y1="7.92" x2="66" y2="7.92"/><line class="cls-14" x1="64.32" y1="7.92" x2="62.16" y2="7.92"/><line class="cls-14" x1="60.48" y1="7.92" x2="58.32" y2="7.92"/><line class="cls-14" x1="56.64" y1="7.92" x2="54.48" y2="7.92"/><line class="cls-14" x1="52.8" y1="7.92" x2="50.64" y2="7.92"/><line class="cls-14" x1="48.96" y1="7.92" x2="47.04" y2="7.92"/><line class="cls-14" x1="45.12" y1="7.92" x2="43.2" y2="7.92"/><line class="cls-14" x1="41.52" y1="7.92" x2="39.36" y2="7.92"/><line class="cls-14" x1="37.68" y1="7.92" x2="35.52" y2="7.92"/><line class="cls-14" x1="33.84" y1="7.92" x2="31.68" y2="7.92"/><line class="cls-14" x1="30" y1="7.92" x2="27.84" y2="7.92"/><line class="cls-14" x1="26.16" y1="7.92" x2="24" y2="7.92"/><line class="cls-14" x1="22.32" y1="7.92" x2="20.16" y2="7.92"/><line class="cls-14" x1="18.48" y1="7.92" x2="16.32" y2="7.92"/><line class="cls-14" x1="14.64" y1="7.92" x2="12.48" y2="7.92"/><line class="cls-14" x1="10.8" y1="7.92" x2="7.92" y2="7.92"/><polyline class="cls-14" points="71.04 327.6 72 319.92 74.4 312.72 78.48 306.24 84 300.96 90.48 296.88 97.68 294.24 105.12 293.52"/><polyline class="cls-14" points="102.24 327.6 102.24 293.52 105.12 293.52 105.12 327.6 102.24 327.6"/><polyline class="cls-14" points="71.04 327.6 70.32 317.52 67.68 307.92 63.6 299.04 57.84 290.88 50.88 283.92 42.72 278.16 33.6 274.08 24 271.44 14.16 270.48"/><polyline class="cls-14" points="17.04 327.6 17.04 270.48 14.16 270.48 14.16 327.6 17.04 327.6"/><polyline class="cls-14" points="105.12 324 14.16 324 14.16 330.96 105.12 330.96 105.12 324 14.16 324 14.16 330.96 105.12 330.96 105.12 324"/><line class="cls-16" x1="111.12" y1="327.6" x2="122.4" y2="327.6"/><line class="cls-16" x1="133.68" y1="327.6" x2="145.2" y2="327.6"/><line class="cls-16" x1="156.48" y1="327.6" x2="167.76" y2="327.6"/><line class="cls-16" x1="179.04" y1="327.6" x2="190.32" y2="327.6"/><line class="cls-16" x1="201.84" y1="327.6" x2="213.12" y2="327.6"/><line class="cls-16" x1="224.4" y1="327.6" x2="235.68" y2="327.6"/><line class="cls-16" x1="247.2" y1="327.6" x2="258.48" y2="327.6"/><line class="cls-16" x1="269.76" y1="327.6" x2="281.04" y2="327.6"/><line class="cls-16" x1="292.32" y1="327.6" x2="303.84" y2="327.6"/><line class="cls-16" x1="248.16" y1="262.32" x2="260.16" y2="262.32"/><line class="cls-16" x1="271.44" y1="262.32" x2="283.44" y2="262.32"/><line class="cls-16" x1="248.16" y1="4.56" x2="258.48" y2="4.56"/><line class="cls-16" x1="269.76" y1="4.56" x2="279.84" y2="4.56"/><line class="cls-16" x1="248.16" y1="262.32" x2="248.16" y2="274.32"/><line class="cls-16" x1="248.16" y1="285.6" x2="248.16" y2="296.88"/><line class="cls-16" x1="248.16" y1="308.16" x2="248.16" y2="319.68"/><line class="cls-16" x1="248.16" y1="330.96" x2="248.16" y2="342.72"/><line class="cls-16" x1="111.12" y1="327.6" x2="111.12" y2="333.12"/><line class="cls-16" x1="111.12" y1="344.4" x2="111.12" y2="350.16"/><line class="cls-16" x1="4.56" y1="327.6" x2="4.56" y2="342.24"/><line class="cls-16" x1="4.56" y1="353.52" x2="4.56" y2="368.4"/><line class="cls-17" x1="291.36" y1="4.56" x2="291.36" y2="262.32"/><line class="cls-16" x1="291.36" y1="262.32" x2="287.04" y2="258"/><line class="cls-16" x1="291.36" y1="262.32" x2="295.68" y2="266.64"/><line class="cls-17" x1="291.36" y1="262.32" x2="298.56" y2="262.32"/><line class="cls-17" x1="291.36" y1="262.32" x2="277.2" y2="262.32"/><line class="cls-16" x1="291.36" y1="4.56" x2="287.04" y2="0.24"/><line class="cls-16" x1="291.36" y1="4.56" x2="295.68" y2="8.88"/><line class="cls-17" x1="291.36" y1="4.56" x2="298.56" y2="4.56"/><line class="cls-17" x1="291.36" y1="4.56" x2="277.2" y2="4.56"/><rect class="cls-18" x="277.92" y="114.72" width="9.6" height="37.2"/><text class="cls-19" transform="translate(285.6 151.68) rotate(-90)"><tspan class="cls-20">SP_</tspan><tspan class="cls-21" x="12.27" y="0">D</tspan><tspan class="cls-22" x="17.06" y="0">ep</tspan><tspan class="cls-23" x="24.26" y="0">t</tspan><tspan class="cls-22" x="26.18" y="0">h_</tspan><tspan x="33.38" y="0">1</tspan></text><line class="cls-17" x1="319.68" y1="4.56" x2="319.68" y2="327.6"/><line class="cls-16" x1="319.68" y1="327.6" x2="315.36" y2="323.28"/><line class="cls-16" x1="319.68" y1="327.6" x2="324" y2="331.68"/><line class="cls-17" x1="319.68" y1="327.6" x2="326.88" y2="327.6"/><line class="cls-17" x1="319.68" y1="327.6" x2="305.52" y2="327.6"/><line class="cls-16" x1="319.68" y1="4.56" x2="315.36" y2="0.24"/><line class="cls-16" x1="319.68" y1="4.56" x2="324" y2="8.88"/><line class="cls-17" x1="319.68" y1="4.56" x2="326.88" y2="4.56"/><line class="cls-17" x1="319.68" y1="4.56" x2="305.52" y2="4.56"/><rect class="cls-18" x="306.24" y="150.96" width="9.6" height="30"/><text class="cls-24" transform="translate(313.92 180.72) rotate(-90)">SP_<tspan class="cls-21" x="12.26" y="0">D</tspan><tspan x="17.06" y="0">ep</tspan><tspan class="cls-23" x="24.26" y="0">t</tspan><tspan class="cls-25" x="26.18" y="0">h</tspan></text><line class="cls-17" x1="111.12" y1="360.96" x2="248.16" y2="360.96"/><line class="cls-16" x1="248.16" y1="360.96" x2="244.08" y2="365.04"/><line class="cls-16" x1="248.16" y1="360.96" x2="252.48" y2="356.64"/><line class="cls-17" x1="248.16" y1="360.96" x2="248.16" y2="367.92"/><line class="cls-17" x1="248.16" y1="360.96" x2="248.16" y2="346.8"/><line class="cls-16" x1="111.12" y1="360.96" x2="106.8" y2="365.04"/><line class="cls-16" x1="111.12" y1="360.96" x2="115.44" y2="356.64"/><line class="cls-17" x1="111.12" y1="360.96" x2="111.12" y2="367.92"/><line class="cls-17" x1="111.12" y1="360.96" x2="111.12" y2="346.8"/><rect class="cls-18" x="161.52" y="347.52" width="35.76" height="8.88"/><text class="cls-19" transform="translate(161.52 354.72)"><tspan class="cls-22">SP_</tspan><tspan class="cls-26" x="12.26" y="0">W</tspan><tspan class="cls-27" x="18.27" y="0">i</tspan><tspan class="cls-22" x="19.72" y="0">d</tspan><tspan class="cls-28" x="23.32" y="0">t</tspan><tspan class="cls-22" x="25" y="0">h_</tspan><tspan x="32.2" y="0">1</tspan></text><line class="cls-17" x1="4.56" y1="383.04" x2="248.16" y2="383.04"/><line class="cls-16" x1="248.16" y1="383.04" x2="244.08" y2="387.12"/><line class="cls-16" x1="248.16" y1="383.04" x2="252.48" y2="378.72"/><line class="cls-17" x1="248.16" y1="383.04" x2="248.16" y2="390"/><line class="cls-17" x1="248.16" y1="383.04" x2="248.16" y2="368.88"/><line class="cls-16" x1="4.56" y1="383.04" x2="0.24" y2="387.12"/><line class="cls-16" x1="4.56" y1="383.04" x2="8.88" y2="378.72"/><line class="cls-17" x1="4.56" y1="383.04" x2="4.56" y2="390"/><line class="cls-17" x1="4.56" y1="383.04" x2="4.56" y2="368.88"/><rect class="cls-18" x="111.84" y="369.6" width="28.56" height="8.88"/><text class="cls-19" transform="translate(111.84 376.8)"><tspan class="cls-22">SP_</tspan><tspan class="cls-26" x="12.26" y="0">W</tspan><tspan class="cls-27" x="18.27" y="0">i</tspan><tspan class="cls-22" x="19.72" y="0">d</tspan><tspan class="cls-28" x="23.32" y="0">t</tspan><tspan x="25" y="0">h</tspan></text><text class="cls-29" transform="translate(32.4 343.92) scale(1 1.01)">D<tspan class="cls-30" x="4.57" y="0">oo</tspan><tspan class="cls-31" x="12.24" y="0">r</tspan><tspan class="cls-32" x="14.4" y="0"> </tspan><tspan class="cls-33" x="16.31" y="0">1</tspan></text></g></g></svg>