<svg xmlns="http://www.w3.org/2000/svg" xmlns:xlink="http://www.w3.org/1999/xlink" viewBox="0 0 282.72 341.64"><defs><style>.cls-1,.cls-16,.cls-17,.cls-18,.cls-19,.cls-2{fill:none;}.cls-1{clip-rule:evenodd;}.cls-3{clip-path:url(#clip-path);}.cls-4{clip-path:url(#clip-path-2);}.cls-5{fill:#c6d3b4;}.cls-10,.cls-6{font-size:4.08px;font-family:ArialMT, Arial;}.cls-10,.cls-7{letter-spacing:-0.03em;}.cls-8{letter-spacing:0.02em;}.cls-9{letter-spacing:-0.09em;}.cls-11{letter-spacing:0em;}.cls-12{letter-spacing:0.02em;}.cls-13{letter-spacing:-0.03em;}.cls-14{letter-spacing:-0.04em;}.cls-15{letter-spacing:0em;}.cls-16,.cls-17{stroke:#000;}.cls-16,.cls-17,.cls-18,.cls-19{stroke-linecap:round;stroke-linejoin:round;}.cls-16,.cls-19{stroke-width:0.24px;}.cls-17,.cls-18{stroke-width:0.48px;}.cls-18,.cls-19{stroke:red;}.cls-20{fill:#fff;}.cls-21,.cls-32{font-size:8.05px;fill:red;font-family:ArialNarrow, Arial;}.cls-21{letter-spacing:-0.01em;}.cls-22{letter-spacing:0em;}.cls-23{letter-spacing:0.01em;}.cls-24{letter-spacing:-0.04em;}.cls-25{letter-spacing:0em;}.cls-26{letter-spacing:0.01em;}.cls-27{letter-spacing:0.01em;}.cls-28{letter-spacing:-0.04em;}.cls-29{letter-spacing:0.01em;}.cls-30{letter-spacing:0em;}.cls-31{letter-spacing:0em;}.cls-33{letter-spacing:-0.04em;}.cls-34{letter-spacing:-0.02em;}.cls-35{letter-spacing:-0.02em;}.cls-36{letter-spacing:0.02em;}.cls-37{letter-spacing:-0.03em;}</style><clipPath id="clip-path" transform="translate(-537.46 -495.72)"><path class="cls-1" d="M652.54,588.84l-.72.24-.24.24-.48.24-.48.48-.24.72v52.32h.24v.72h.24l.48.24.48.48.72.24,121,.24v-.24l.72-.24,1-1,.24-.72.24-51.84h-.24v-.72l-1.2-1.2-.72-.24m-229.2-85.2V820h99.84V754.68h55v-1h11v-1.44h-.24v-1.44h-.24V749.4h-.24V748h-.24V742.2l-.24-.24.48-2.4.48-1.44.24-1,.24-.24.48-1,.24-.24.48-1,1.68-1.68.24-.48.48-.24.24-.24.48-.24.24-.24.48-.24.48-.48.72-.24,1.92-1,2.88-.72h6.24a15.62,15.62,0,0,1,9.84,5.52V735h.24l.24.24v.48h.24v.48h.24l.24.24v.48h.24v.48h.24v.48h.24v.72h.24v.72h.24V740h.24l-.24,7.68-1,5.76,11.28.24v1h31v-251Z"/></clipPath><clipPath id="clip-path-2" transform="translate(-537.46 -495.72)"><rect class="cls-2" width="1684.08" height="1191.12"/></clipPath></defs><title>PushIt - Floor Plan - SP-Room-Bed_Ens_Square_Sample_1</title><g id="Layer_2" data-name="Layer 2"><g id="Layer_1-2" data-name="Layer 1"><g class="cls-3"><g class="cls-4"><rect class="cls-5" x="6.84" y="7.92" width="236.88" height="316.32"/></g></g><text class="cls-6" transform="translate(123 127.92)">?</text><text class="cls-6" transform="translate(113.4 140.4)"><tspan class="cls-7">4300</tspan><tspan class="cls-8" x="8.64" y="0"> </tspan><tspan class="cls-9" x="9.84" y="0">x</tspan><tspan class="cls-8" x="11.52" y="0"> </tspan><tspan class="cls-7" x="12.72" y="0">570</tspan><tspan x="19.2" y="0">0</tspan></text><text class="cls-10" transform="translate(121.08 132)">5<tspan class="cls-8" x="2.16" y="0">.</tspan><tspan x="3.36" y="0">5</tspan><tspan class="cls-11" x="5.52" y="0">0</tspan></text><text class="cls-10" transform="translate(112.44 136.32)">21<tspan class="cls-12" x="4.32" y="0">.</tspan><tspan class="cls-13" x="5.52" y="0">73</tspan><tspan class="cls-8" x="9.84" y="0"> </tspan><tspan class="cls-14" x="11.04" y="0">(</tspan><tspan x="12.24" y="0">20</tspan><tspan class="cls-8" x="16.55" y="0">.</tspan><tspan x="17.75" y="0">54</tspan><tspan class="cls-15" x="22.07" y="0">)</tspan></text><text class="cls-6" transform="translate(123 123.6)">?</text><polyline class="cls-16" points="106.68 324.24 6.84 324.24 6.84 7.92 243.72 7.92 243.72 258.96 106.68 258.96 106.68 324.24"/><polyline class="cls-16" points="250.68 1.2 0.12 1.2 0.12 331.2 113.4 331.2 113.4 265.92 250.68 265.92 250.68 1.2"/><polyline class="cls-17" points="176.52 250.8 177.96 251.04 179.4 251.04"/><polyline class="cls-17" points="197.88 250.8 196.44 251.04 195 251.04"/><line class="cls-17" x1="173.64" y1="247.44" x2="173.88" y2="248.16"/><polyline class="cls-17" points="173.64 247.44 173.64 246 173.88 244.32"/><polyline class="cls-17" points="176.52 250.8 174.84 249.84 173.88 248.16"/><line class="cls-17" x1="200.52" y1="247.44" x2="200.52" y2="248.16"/><polyline class="cls-17" points="200.52 247.44 200.76 246 200.52 244.32"/><polyline class="cls-17" points="197.88 250.8 199.56 249.84 200.52 248.16"/><line class="cls-16" x1="201.24" y1="258.96" x2="172.92" y2="258.96"/><polyline class="cls-16" points="201.48 241.68 200.04 239.28 198.12 237.12"/><polyline class="cls-16" points="202.68 246.72 202.44 244.08 201.48 241.68"/><polyline class="cls-16" points="201.24 258.96 202.44 252.72 202.68 246.48"/><polyline class="cls-16" points="171.48 246.48 171.96 252.72 172.92 258.96"/><polyline class="cls-16" points="193.32 234.24 190.2 233.52 187.08 233.28"/><polyline class="cls-16" points="198.12 237.12 195.72 235.44 193.32 234.24"/><polyline class="cls-16" points="172.68 241.68 171.72 244.08 171.48 246.72"/><polyline class="cls-16" points="176.04 237.12 174.12 239.28 172.68 241.68"/><polyline class="cls-16" points="181.08 234.24 178.44 235.44 176.04 237.12"/><polyline class="cls-16" points="187.08 233.28 183.96 233.52 181.08 234.24"/><polyline class="cls-17" points="172.68 258 201.48 258 202.44 252.24 202.68 246.48 202.44 244.08 201.48 241.68 200.04 239.28 198.12 237.12 195.72 235.44 193.32 234.24 190.2 233.52 187.08 233.28 183.96 233.52 181.08 234.24 178.44 235.44 176.04 237.12 174.12 239.28 172.68 241.68 171.96 244.08 171.48 246.48 171.72 252.24 172.68 258"/><polyline class="cls-17" points="161.64 258.96 212.76 258.96 212.76 258 161.64 258 161.64 258.96"/><line class="cls-16" x1="115.8" y1="149.28" x2="235.32" y2="149.28"/><polyline class="cls-16" points="112.92 146.64 113.64 148.56 115.8 149.28"/><line class="cls-16" x1="112.92" y1="96" x2="112.92" y2="146.64"/><polyline class="cls-16" points="115.8 93.12 113.64 94.08 112.92 96"/><line class="cls-16" x1="235.32" y1="93.12" x2="115.8" y2="93.12"/><polyline class="cls-16" points="238.2 96 237.24 94.08 235.32 93.12"/><line class="cls-16" x1="238.2" y1="146.64" x2="238.2" y2="96"/><polyline class="cls-16" points="235.32 149.28 237.24 148.56 238.2 146.64"/><polyline class="cls-17" points="206.52 93.12 206.52 94.56 234.12 94.56 234.12 93.12 206.52 93.12"/><polyline class="cls-17" points="120.36 148.08 120.36 149.28 160.68 149.28 160.68 148.08 120.36 148.08"/><polyline class="cls-17" points="207 148.08 207 149.28 234.12 149.28 234.12 148.08 207 148.08"/><line class="cls-17" x1="114.6" y1="144" x2="113.4" y2="144"/><line class="cls-17" x1="114.6" y1="98.64" x2="114.6" y2="144"/><line class="cls-17" x1="113.4" y1="98.64" x2="114.6" y2="98.64"/><line class="cls-17" x1="113.4" y1="144" x2="113.4" y2="98.64"/><line class="cls-17" x1="236.28" y1="143.76" x2="237.96" y2="143.76"/><line class="cls-17" x1="236.28" y1="98.64" x2="236.28" y2="143.76"/><line class="cls-17" x1="237.96" y1="98.64" x2="236.28" y2="98.64"/><line class="cls-17" x1="237.96" y1="143.76" x2="237.96" y2="98.64"/><line class="cls-17" x1="209.64" y1="98.16" x2="233.4" y2="98.16"/><line class="cls-17" x1="209.64" y1="144.72" x2="209.64" y2="98.16"/><line class="cls-17" x1="233.4" y1="144.72" x2="209.64" y2="144.72"/><line class="cls-17" x1="233.4" y1="98.16" x2="233.4" y2="144.72"/><line class="cls-17" x1="117.96" y1="147.12" x2="233.16" y2="147.12"/><polyline class="cls-17" points="115.08 144.48 115.8 146.4 117.96 147.12"/><line class="cls-17" x1="115.08" y1="98.16" x2="115.08" y2="144.48"/><polyline class="cls-17" points="117.96 95.28 115.8 96.24 115.08 98.16"/><line class="cls-17" x1="233.16" y1="95.28" x2="117.96" y2="95.28"/><polyline class="cls-17" points="236.04 98.16 235.08 96.24 233.16 95.28"/><line class="cls-17" x1="236.04" y1="144.48" x2="236.04" y2="98.16"/><polyline class="cls-17" points="233.16 147.12 235.08 146.4 236.04 144.48"/><polyline class="cls-17" points="238.2 146.64 238.2 96 237.96 95.28 237.72 94.56 237.24 94.08 236.76 93.6 236.04 93.36 235.32 93.12 115.8 93.12 115.08 93.36 114.36 93.6 113.64 94.08 113.16 94.56 112.92 95.28 112.92 96 112.92 146.64 112.92 147.36 113.16 148.08 113.64 148.56 114.36 149.04 115.08 149.28 115.8 149.28 235.32 149.28 236.04 149.28 236.76 149.04 237.24 148.56 237.72 148.08 237.96 147.36 238.2 146.64"/><line class="cls-16" x1="6.84" y1="7.92" x2="6.84" y2="10.32"/><line class="cls-16" x1="6.84" y1="12" x2="6.84" y2="14.16"/><line class="cls-16" x1="6.84" y1="15.84" x2="6.84" y2="18"/><line class="cls-16" x1="6.84" y1="19.68" x2="6.84" y2="21.84"/><line class="cls-16" x1="6.84" y1="23.52" x2="6.84" y2="25.44"/><line class="cls-16" x1="6.84" y1="27.36" x2="6.84" y2="29.28"/><line class="cls-16" x1="6.84" y1="31.2" x2="6.84" y2="33.12"/><line class="cls-16" x1="6.84" y1="34.8" x2="6.84" y2="36.96"/><line class="cls-16" x1="6.84" y1="38.64" x2="6.84" y2="40.8"/><line class="cls-16" x1="6.84" y1="42.48" x2="6.84" y2="44.64"/><line class="cls-16" x1="6.84" y1="46.32" x2="6.84" y2="48.48"/><line class="cls-16" x1="6.84" y1="50.16" x2="6.84" y2="52.32"/><line class="cls-16" x1="6.84" y1="54" x2="6.84" y2="56.16"/><line class="cls-16" x1="6.84" y1="57.84" x2="6.84" y2="60"/><line class="cls-16" x1="6.84" y1="61.68" x2="6.84" y2="63.84"/><line class="cls-16" x1="6.84" y1="65.52" x2="6.84" y2="67.68"/><line class="cls-16" x1="6.84" y1="69.36" x2="6.84" y2="71.52"/><line class="cls-16" x1="6.84" y1="73.2" x2="6.84" y2="75.36"/><line class="cls-16" x1="6.84" y1="77.04" x2="6.84" y2="79.2"/><line class="cls-16" x1="6.84" y1="80.88" x2="6.84" y2="83.04"/><line class="cls-16" x1="6.84" y1="84.72" x2="6.84" y2="86.88"/><line class="cls-16" x1="6.84" y1="88.56" x2="6.84" y2="90.72"/><line class="cls-16" x1="6.84" y1="92.4" x2="6.84" y2="94.56"/><line class="cls-16" x1="6.84" y1="96.24" x2="6.84" y2="98.16"/><line class="cls-16" x1="6.84" y1="100.08" x2="6.84" y2="102"/><line class="cls-16" x1="6.84" y1="103.68" x2="6.84" y2="105.84"/><line class="cls-16" x1="6.84" y1="107.52" x2="6.84" y2="109.68"/><line class="cls-16" x1="6.84" y1="111.36" x2="6.84" y2="113.52"/><line class="cls-16" x1="6.84" y1="115.2" x2="6.84" y2="117.36"/><line class="cls-16" x1="6.84" y1="119.04" x2="6.84" y2="121.2"/><line class="cls-16" x1="6.84" y1="122.88" x2="6.84" y2="125.04"/><line class="cls-16" x1="6.84" y1="126.72" x2="6.84" y2="128.88"/><line class="cls-16" x1="6.84" y1="130.56" x2="6.84" y2="132.72"/><line class="cls-16" x1="6.84" y1="134.4" x2="6.84" y2="136.56"/><line class="cls-16" x1="6.84" y1="138.24" x2="6.84" y2="140.4"/><line class="cls-16" x1="6.84" y1="142.08" x2="6.84" y2="144.24"/><line class="cls-16" x1="6.84" y1="145.92" x2="6.84" y2="148.08"/><line class="cls-16" x1="6.84" y1="149.76" x2="6.84" y2="151.92"/><line class="cls-16" x1="6.84" y1="153.6" x2="6.84" y2="155.76"/><line class="cls-16" x1="6.84" y1="157.44" x2="6.84" y2="159.6"/><line class="cls-16" x1="6.84" y1="161.28" x2="6.84" y2="163.44"/><line class="cls-16" x1="6.84" y1="165.12" x2="6.84" y2="167.04"/><line class="cls-16" x1="6.84" y1="168.96" x2="6.84" y2="170.88"/><line class="cls-16" x1="6.84" y1="172.8" x2="6.84" y2="174.72"/><line class="cls-16" x1="6.84" y1="176.4" x2="6.84" y2="178.56"/><line class="cls-16" x1="6.84" y1="180.24" x2="6.84" y2="182.4"/><line class="cls-16" x1="6.84" y1="184.08" x2="6.84" y2="186.24"/><line class="cls-16" x1="6.84" y1="187.92" x2="6.84" y2="190.08"/><line class="cls-16" x1="6.84" y1="191.76" x2="6.84" y2="193.92"/><line class="cls-16" x1="6.84" y1="195.6" x2="6.84" y2="197.76"/><line class="cls-16" x1="6.84" y1="199.44" x2="6.84" y2="201.6"/><line class="cls-16" x1="6.84" y1="203.28" x2="6.84" y2="205.44"/><line class="cls-16" x1="6.84" y1="207.12" x2="6.84" y2="209.28"/><line class="cls-16" x1="6.84" y1="210.96" x2="6.84" y2="213.12"/><line class="cls-16" x1="6.84" y1="214.8" x2="6.84" y2="216.96"/><line class="cls-16" x1="6.84" y1="218.64" x2="6.84" y2="220.8"/><line class="cls-16" x1="6.84" y1="222.48" x2="6.84" y2="224.64"/><line class="cls-16" x1="6.84" y1="226.32" x2="6.84" y2="228.48"/><line class="cls-16" x1="6.84" y1="230.16" x2="6.84" y2="232.32"/><line class="cls-16" x1="6.84" y1="234" x2="6.84" y2="236.16"/><line class="cls-16" x1="6.84" y1="237.84" x2="6.84" y2="239.76"/><line class="cls-16" x1="6.84" y1="241.68" x2="6.84" y2="243.6"/><line class="cls-16" x1="6.84" y1="245.28" x2="6.84" y2="247.44"/><line class="cls-16" x1="6.84" y1="249.12" x2="6.84" y2="251.28"/><line class="cls-16" x1="6.84" y1="252.96" x2="6.84" y2="255.12"/><line class="cls-16" x1="6.84" y1="256.8" x2="6.84" y2="258.96"/><line class="cls-16" x1="6.84" y1="260.64" x2="6.84" y2="262.8"/><line class="cls-16" x1="6.84" y1="264.48" x2="6.84" y2="266.64"/><line class="cls-16" x1="6.84" y1="268.32" x2="6.84" y2="270.48"/><line class="cls-16" x1="6.84" y1="272.16" x2="6.84" y2="274.32"/><line class="cls-16" x1="6.84" y1="276" x2="6.84" y2="278.16"/><line class="cls-16" x1="6.84" y1="279.84" x2="6.84" y2="282"/><line class="cls-16" x1="6.84" y1="283.68" x2="6.84" y2="285.84"/><line class="cls-16" x1="6.84" y1="287.52" x2="6.84" y2="289.68"/><line class="cls-16" x1="6.84" y1="291.36" x2="6.84" y2="293.52"/><line class="cls-16" x1="6.84" y1="295.2" x2="6.84" y2="297.36"/><line class="cls-16" x1="6.84" y1="299.04" x2="6.84" y2="301.2"/><line class="cls-16" x1="6.84" y1="302.88" x2="6.84" y2="305.04"/><line class="cls-16" x1="6.84" y1="306.72" x2="6.84" y2="308.64"/><line class="cls-16" x1="6.84" y1="310.56" x2="6.84" y2="312.48"/><line class="cls-16" x1="6.84" y1="314.4" x2="6.84" y2="316.32"/><line class="cls-16" x1="6.84" y1="318" x2="6.84" y2="320.16"/><polyline class="cls-16" points="6.84 321.84 6.84 324.24 8.04 324.24"/><line class="cls-16" x1="9.72" y1="324.24" x2="11.88" y2="324.24"/><line class="cls-16" x1="13.56" y1="324.24" x2="15.72" y2="324.24"/><line class="cls-16" x1="17.4" y1="324.24" x2="19.56" y2="324.24"/><line class="cls-16" x1="21.24" y1="324.24" x2="23.4" y2="324.24"/><line class="cls-16" x1="25.08" y1="324.24" x2="27.24" y2="324.24"/><line class="cls-16" x1="28.92" y1="324.24" x2="31.08" y2="324.24"/><line class="cls-16" x1="32.76" y1="324.24" x2="34.92" y2="324.24"/><line class="cls-16" x1="36.6" y1="324.24" x2="38.76" y2="324.24"/><line class="cls-16" x1="40.44" y1="324.24" x2="42.6" y2="324.24"/><line class="cls-16" x1="44.28" y1="324.24" x2="46.2" y2="324.24"/><line class="cls-16" x1="48.12" y1="324.24" x2="50.04" y2="324.24"/><line class="cls-16" x1="51.96" y1="324.24" x2="53.88" y2="324.24"/><line class="cls-16" x1="55.56" y1="324.24" x2="57.72" y2="324.24"/><line class="cls-16" x1="59.4" y1="324.24" x2="61.56" y2="324.24"/><line class="cls-16" x1="63.24" y1="324.24" x2="65.4" y2="324.24"/><line class="cls-16" x1="67.08" y1="324.24" x2="69.24" y2="324.24"/><line class="cls-16" x1="70.92" y1="324.24" x2="73.08" y2="324.24"/><line class="cls-16" x1="74.76" y1="324.24" x2="76.92" y2="324.24"/><line class="cls-16" x1="78.6" y1="324.24" x2="80.76" y2="324.24"/><line class="cls-16" x1="82.44" y1="324.24" x2="84.6" y2="324.24"/><line class="cls-16" x1="86.28" y1="324.24" x2="88.44" y2="324.24"/><line class="cls-16" x1="90.12" y1="324.24" x2="92.28" y2="324.24"/><line class="cls-16" x1="93.96" y1="324.24" x2="96.12" y2="324.24"/><line class="cls-16" x1="97.8" y1="324.24" x2="99.96" y2="324.24"/><line class="cls-16" x1="101.64" y1="324.24" x2="103.8" y2="324.24"/><polyline class="cls-16" points="105.48 324.24 106.68 324.24 106.68 323.04"/><line class="cls-16" x1="106.68" y1="321.36" x2="106.68" y2="319.2"/><line class="cls-16" x1="106.68" y1="317.52" x2="106.68" y2="315.6"/><line class="cls-16" x1="106.68" y1="313.68" x2="106.68" y2="311.76"/><line class="cls-16" x1="106.68" y1="310.08" x2="106.68" y2="307.92"/><line class="cls-16" x1="106.68" y1="306.24" x2="106.68" y2="304.08"/><line class="cls-16" x1="106.68" y1="302.4" x2="106.68" y2="300.24"/><line class="cls-16" x1="106.68" y1="298.56" x2="106.68" y2="296.4"/><line class="cls-16" x1="106.68" y1="294.72" x2="106.68" y2="292.56"/><line class="cls-16" x1="106.68" y1="290.88" x2="106.68" y2="288.72"/><line class="cls-16" x1="106.68" y1="287.04" x2="106.68" y2="284.88"/><line class="cls-16" x1="106.68" y1="283.2" x2="106.68" y2="281.04"/><line class="cls-16" x1="106.68" y1="279.36" x2="106.68" y2="277.2"/><line class="cls-16" x1="106.68" y1="275.52" x2="106.68" y2="273.36"/><line class="cls-16" x1="106.68" y1="271.68" x2="106.68" y2="269.52"/><line class="cls-16" x1="106.68" y1="267.84" x2="106.68" y2="265.68"/><line class="cls-16" x1="106.68" y1="264" x2="106.68" y2="261.84"/><polyline class="cls-16" points="106.68 260.16 106.68 258.96 108.36 258.96"/><line class="cls-16" x1="110.04" y1="258.96" x2="112.2" y2="258.96"/><line class="cls-16" x1="113.88" y1="258.96" x2="116.04" y2="258.96"/><line class="cls-16" x1="117.72" y1="258.96" x2="119.88" y2="258.96"/><line class="cls-16" x1="121.56" y1="258.96" x2="123.72" y2="258.96"/><line class="cls-16" x1="125.4" y1="258.96" x2="127.56" y2="258.96"/><line class="cls-16" x1="129.24" y1="258.96" x2="131.4" y2="258.96"/><line class="cls-16" x1="133.08" y1="258.96" x2="135.24" y2="258.96"/><line class="cls-16" x1="136.92" y1="258.96" x2="139.08" y2="258.96"/><line class="cls-16" x1="140.76" y1="258.96" x2="142.92" y2="258.96"/><line class="cls-16" x1="144.6" y1="258.96" x2="146.76" y2="258.96"/><line class="cls-16" x1="148.44" y1="258.96" x2="150.6" y2="258.96"/><line class="cls-16" x1="152.28" y1="258.96" x2="154.44" y2="258.96"/><line class="cls-16" x1="156.12" y1="258.96" x2="158.04" y2="258.96"/><line class="cls-16" x1="159.96" y1="258.96" x2="161.64" y2="258.96"/><line class="cls-16" x1="212.76" y1="258.96" x2="213.96" y2="258.96"/><line class="cls-16" x1="215.64" y1="258.96" x2="217.8" y2="258.96"/><line class="cls-16" x1="219.48" y1="258.96" x2="221.64" y2="258.96"/><line class="cls-16" x1="223.32" y1="258.96" x2="225.48" y2="258.96"/><line class="cls-16" x1="227.16" y1="258.96" x2="229.32" y2="258.96"/><line class="cls-16" x1="231" y1="258.96" x2="233.16" y2="258.96"/><line class="cls-16" x1="234.84" y1="258.96" x2="237" y2="258.96"/><line class="cls-16" x1="238.68" y1="258.96" x2="240.84" y2="258.96"/><polyline class="cls-16" points="242.52 258.96 243.72 258.96 243.72 256.8"/><line class="cls-16" x1="243.72" y1="255.12" x2="243.72" y2="252.96"/><line class="cls-16" x1="243.72" y1="251.28" x2="243.72" y2="249.12"/><line class="cls-16" x1="243.72" y1="247.44" x2="243.72" y2="245.28"/><line class="cls-16" x1="243.72" y1="243.6" x2="243.72" y2="241.44"/><line class="cls-16" x1="243.72" y1="239.76" x2="243.72" y2="237.6"/><line class="cls-16" x1="243.72" y1="235.92" x2="243.72" y2="233.76"/><line class="cls-16" x1="243.72" y1="232.08" x2="243.72" y2="229.92"/><line class="cls-16" x1="243.72" y1="228.24" x2="243.72" y2="226.08"/><line class="cls-16" x1="243.72" y1="224.4" x2="243.72" y2="222.48"/><line class="cls-16" x1="243.72" y1="220.56" x2="243.72" y2="218.64"/><line class="cls-16" x1="243.72" y1="216.72" x2="243.72" y2="214.8"/><line class="cls-16" x1="243.72" y1="213.12" x2="243.72" y2="210.96"/><line class="cls-16" x1="243.72" y1="209.28" x2="243.72" y2="207.12"/><line class="cls-16" x1="243.72" y1="205.44" x2="243.72" y2="203.28"/><line class="cls-16" x1="243.72" y1="201.6" x2="243.72" y2="199.44"/><line class="cls-16" x1="243.72" y1="197.76" x2="243.72" y2="195.6"/><line class="cls-16" x1="243.72" y1="193.92" x2="243.72" y2="191.76"/><line class="cls-16" x1="243.72" y1="190.08" x2="243.72" y2="187.92"/><line class="cls-16" x1="243.72" y1="186.24" x2="243.72" y2="184.08"/><line class="cls-16" x1="243.72" y1="182.4" x2="243.72" y2="180.24"/><line class="cls-16" x1="243.72" y1="178.56" x2="243.72" y2="176.4"/><line class="cls-16" x1="243.72" y1="174.72" x2="243.72" y2="172.56"/><line class="cls-16" x1="243.72" y1="170.88" x2="243.72" y2="168.72"/><line class="cls-16" x1="243.72" y1="167.04" x2="243.72" y2="164.88"/><line class="cls-16" x1="243.72" y1="163.2" x2="243.72" y2="161.04"/><line class="cls-16" x1="243.72" y1="159.36" x2="243.72" y2="157.2"/><line class="cls-16" x1="243.72" y1="155.52" x2="243.72" y2="153.36"/><line class="cls-16" x1="243.72" y1="151.68" x2="243.72" y2="149.76"/><line class="cls-16" x1="243.72" y1="147.84" x2="243.72" y2="145.92"/><line class="cls-16" x1="243.72" y1="144.24" x2="243.72" y2="142.08"/><line class="cls-16" x1="243.72" y1="140.4" x2="243.72" y2="138.24"/><line class="cls-16" x1="243.72" y1="136.56" x2="243.72" y2="134.4"/><line class="cls-16" x1="243.72" y1="132.72" x2="243.72" y2="130.56"/><line class="cls-16" x1="243.72" y1="128.88" x2="243.72" y2="126.72"/><line class="cls-16" x1="243.72" y1="125.04" x2="243.72" y2="122.88"/><line class="cls-16" x1="243.72" y1="121.2" x2="243.72" y2="119.04"/><line class="cls-16" x1="243.72" y1="117.36" x2="243.72" y2="115.2"/><line class="cls-16" x1="243.72" y1="113.52" x2="243.72" y2="111.36"/><line class="cls-16" x1="243.72" y1="109.68" x2="243.72" y2="107.52"/><line class="cls-16" x1="243.72" y1="105.84" x2="243.72" y2="103.68"/><line class="cls-16" x1="243.72" y1="102" x2="243.72" y2="99.84"/><line class="cls-16" x1="243.72" y1="98.16" x2="243.72" y2="96"/><line class="cls-16" x1="243.72" y1="94.32" x2="243.72" y2="92.16"/><line class="cls-16" x1="243.72" y1="90.48" x2="243.72" y2="88.32"/><line class="cls-16" x1="243.72" y1="86.64" x2="243.72" y2="84.48"/><line class="cls-16" x1="243.72" y1="82.8" x2="243.72" y2="80.88"/><line class="cls-16" x1="243.72" y1="78.96" x2="243.72" y2="77.04"/><line class="cls-16" x1="243.72" y1="75.12" x2="243.72" y2="73.2"/><line class="cls-16" x1="243.72" y1="71.52" x2="243.72" y2="69.36"/><line class="cls-16" x1="243.72" y1="67.68" x2="243.72" y2="65.52"/><line class="cls-16" x1="243.72" y1="63.84" x2="243.72" y2="61.68"/><line class="cls-16" x1="243.72" y1="60" x2="243.72" y2="57.84"/><line class="cls-16" x1="243.72" y1="56.16" x2="243.72" y2="54"/><line class="cls-16" x1="243.72" y1="52.32" x2="243.72" y2="50.16"/><line class="cls-16" x1="243.72" y1="48.48" x2="243.72" y2="46.32"/><line class="cls-16" x1="243.72" y1="44.64" x2="243.72" y2="42.48"/><line class="cls-16" x1="243.72" y1="40.8" x2="243.72" y2="38.64"/><line class="cls-16" x1="243.72" y1="36.96" x2="243.72" y2="34.8"/><line class="cls-16" x1="243.72" y1="33.12" x2="243.72" y2="30.96"/><line class="cls-16" x1="243.72" y1="29.28" x2="243.72" y2="27.12"/><line class="cls-16" x1="243.72" y1="25.44" x2="243.72" y2="23.28"/><line class="cls-16" x1="243.72" y1="21.6" x2="243.72" y2="19.44"/><line class="cls-16" x1="243.72" y1="17.76" x2="243.72" y2="15.6"/><line class="cls-16" x1="243.72" y1="13.92" x2="243.72" y2="11.76"/><polyline class="cls-16" points="243.72 10.08 243.72 7.92 241.08 7.92"/><line class="cls-16" x1="239.4" y1="7.92" x2="237.24" y2="7.92"/><line class="cls-16" x1="235.56" y1="7.92" x2="233.4" y2="7.92"/><line class="cls-16" x1="231.72" y1="7.92" x2="229.56" y2="7.92"/><line class="cls-16" x1="227.88" y1="7.92" x2="225.72" y2="7.92"/><line class="cls-16" x1="224.04" y1="7.92" x2="221.88" y2="7.92"/><line class="cls-16" x1="220.2" y1="7.92" x2="218.04" y2="7.92"/><line class="cls-16" x1="216.36" y1="7.92" x2="214.2" y2="7.92"/><line class="cls-16" x1="212.52" y1="7.92" x2="210.36" y2="7.92"/><line class="cls-16" x1="208.68" y1="7.92" x2="206.52" y2="7.92"/><line class="cls-16" x1="204.84" y1="7.92" x2="202.68" y2="7.92"/><line class="cls-16" x1="201" y1="7.92" x2="198.84" y2="7.92"/><line class="cls-16" x1="197.16" y1="7.92" x2="195" y2="7.92"/><line class="cls-16" x1="193.32" y1="7.92" x2="191.16" y2="7.92"/><line class="cls-16" x1="189.48" y1="7.92" x2="187.32" y2="7.92"/><line class="cls-16" x1="185.64" y1="7.92" x2="183.48" y2="7.92"/><line class="cls-16" x1="181.8" y1="7.92" x2="179.88" y2="7.92"/><line class="cls-16" x1="177.96" y1="7.92" x2="176.04" y2="7.92"/><line class="cls-16" x1="174.36" y1="7.92" x2="172.2" y2="7.92"/><line class="cls-16" x1="170.52" y1="7.92" x2="168.36" y2="7.92"/><line class="cls-16" x1="166.68" y1="7.92" x2="164.52" y2="7.92"/><line class="cls-16" x1="162.84" y1="7.92" x2="160.68" y2="7.92"/><line class="cls-16" x1="159" y1="7.92" x2="156.84" y2="7.92"/><line class="cls-16" x1="155.16" y1="7.92" x2="153" y2="7.92"/><line class="cls-16" x1="151.32" y1="7.92" x2="149.16" y2="7.92"/><line class="cls-16" x1="147.48" y1="7.92" x2="145.32" y2="7.92"/><line class="cls-16" x1="143.64" y1="7.92" x2="141.48" y2="7.92"/><line class="cls-16" x1="139.8" y1="7.92" x2="137.64" y2="7.92"/><line class="cls-16" x1="135.96" y1="7.92" x2="133.8" y2="7.92"/><line class="cls-16" x1="132.12" y1="7.92" x2="129.96" y2="7.92"/><line class="cls-16" x1="128.28" y1="7.92" x2="126.12" y2="7.92"/><line class="cls-16" x1="124.44" y1="7.92" x2="122.28" y2="7.92"/><line class="cls-16" x1="120.6" y1="7.92" x2="118.44" y2="7.92"/><line class="cls-16" x1="116.76" y1="7.92" x2="114.6" y2="7.92"/><line class="cls-16" x1="112.92" y1="7.92" x2="111" y2="7.92"/><line class="cls-16" x1="109.08" y1="7.92" x2="107.16" y2="7.92"/><line class="cls-16" x1="105.24" y1="7.92" x2="103.32" y2="7.92"/><line class="cls-16" x1="101.64" y1="7.92" x2="99.48" y2="7.92"/><line class="cls-16" x1="97.8" y1="7.92" x2="95.64" y2="7.92"/><line class="cls-16" x1="93.96" y1="7.92" x2="91.8" y2="7.92"/><line class="cls-16" x1="90.12" y1="7.92" x2="87.96" y2="7.92"/><line class="cls-16" x1="86.28" y1="7.92" x2="84.12" y2="7.92"/><line class="cls-16" x1="82.44" y1="7.92" x2="80.28" y2="7.92"/><line class="cls-16" x1="78.6" y1="7.92" x2="76.44" y2="7.92"/><line class="cls-16" x1="74.76" y1="7.92" x2="72.6" y2="7.92"/><line class="cls-16" x1="70.92" y1="7.92" x2="68.76" y2="7.92"/><line class="cls-16" x1="67.08" y1="7.92" x2="64.92" y2="7.92"/><line class="cls-16" x1="63.24" y1="7.92" x2="61.08" y2="7.92"/><line class="cls-16" x1="59.4" y1="7.92" x2="57.24" y2="7.92"/><line class="cls-16" x1="55.56" y1="7.92" x2="53.4" y2="7.92"/><line class="cls-16" x1="51.72" y1="7.92" x2="49.56" y2="7.92"/><line class="cls-16" x1="47.88" y1="7.92" x2="45.72" y2="7.92"/><line class="cls-16" x1="44.04" y1="7.92" x2="41.88" y2="7.92"/><line class="cls-16" x1="40.2" y1="7.92" x2="38.28" y2="7.92"/><line class="cls-16" x1="36.36" y1="7.92" x2="34.44" y2="7.92"/><line class="cls-16" x1="32.52" y1="7.92" x2="30.6" y2="7.92"/><line class="cls-16" x1="28.92" y1="7.92" x2="26.76" y2="7.92"/><line class="cls-16" x1="25.08" y1="7.92" x2="22.92" y2="7.92"/><line class="cls-16" x1="21.24" y1="7.92" x2="19.08" y2="7.92"/><line class="cls-16" x1="17.4" y1="7.92" x2="15.24" y2="7.92"/><line class="cls-16" x1="13.56" y1="7.92" x2="11.4" y2="7.92"/><line class="cls-16" x1="9.72" y1="7.92" x2="6.84" y2="7.92"/><polyline class="cls-16" points="69.96 327.6 70.92 320.16 73.32 312.96 77.4 306.48 82.92 301.2 89.4 297.12 96.6 294.48 104.04 293.76"/><polyline class="cls-16" points="101.16 327.6 101.16 293.76 104.04 293.76 104.04 327.6 101.16 327.6"/><polyline class="cls-16" points="69.96 327.6 69.24 317.76 66.6 308.16 62.52 299.28 56.76 291.12 49.8 283.92 41.64 278.4 32.52 274.08 22.92 271.68 13.08 270.72"/><polyline class="cls-16" points="15.96 327.6 15.96 270.72 13.08 270.72 13.08 327.6 15.96 327.6"/><polyline class="cls-16" points="104.04 324.24 13.08 324.24 13.08 331.2 104.04 331.2 104.04 324.24 13.08 324.24 13.08 331.2 104.04 331.2 104.04 324.24"/><line class="cls-18" x1="109.08" y1="121.2" x2="114.84" y2="121.2"/><line class="cls-18" x1="126.12" y1="121.2" x2="137.4" y2="121.2"/><line class="cls-18" x1="148.68" y1="121.2" x2="160.2" y2="121.2"/><line class="cls-18" x1="171.48" y1="121.2" x2="182.76" y2="121.2"/><line class="cls-18" x1="194.04" y1="121.2" x2="205.32" y2="121.2"/><line class="cls-18" x1="216.84" y1="121.2" x2="228.12" y2="121.2"/><line class="cls-18" x1="239.4" y1="121.2" x2="250.68" y2="121.2"/><line class="cls-18" x1="262.2" y1="121.2" x2="267.72" y2="121.2"/><line class="cls-18" x1="187.08" y1="242.64" x2="187.08" y2="253.92"/><line class="cls-18" x1="187.08" y1="265.2" x2="187.08" y2="276.72"/><line class="cls-18" x1="187.08" y1="288" x2="187.08" y2="299.28"/><line class="cls-19" x1="275.4" y1="4.56" x2="275.4" y2="121.2"/><line class="cls-18" x1="275.4" y1="121.2" x2="271.32" y2="117.12"/><line class="cls-18" x1="275.4" y1="121.2" x2="279.72" y2="125.52"/><line class="cls-19" x1="275.4" y1="121.2" x2="282.6" y2="121.2"/><line class="cls-19" x1="275.4" y1="121.2" x2="261.24" y2="121.2"/><line class="cls-18" x1="275.4" y1="4.56" x2="271.32" y2="0.24"/><line class="cls-18" x1="275.4" y1="4.56" x2="279.72" y2="8.64"/><line class="cls-19" x1="275.4" y1="4.56" x2="282.6" y2="4.56"/><line class="cls-19" x1="275.4" y1="4.56" x2="261.24" y2="4.56"/><rect class="cls-20" x="261.96" y="11.28" width="9.6" height="103.44"/><text class="cls-21" transform="translate(269.64 114.48) rotate(-90)">Graph<tspan class="cls-22" x="18" y="0">i</tspan><tspan class="cls-23" x="19.44" y="0">c</tspan><tspan class="cls-24" x="22.79" y="0">_</tspan><tspan x="26.16" y="0">S</tspan><tspan class="cls-25" x="30.49" y="0">i</tspan><tspan x="31.93" y="0">ng</tspan><tspan class="cls-22" x="39.13" y="0">l</tspan><tspan x="40.58" y="0">eB</tspan><tspan class="cls-24" x="48.51" y="0">e</tspan><tspan x="51.88" y="0">d_O</tspan><tspan class="cls-26" x="64.14" y="0">ff</tspan><tspan class="cls-27" x="67.98" y="0">s</tspan><tspan class="cls-28" x="71.33" y="0">e</tspan><tspan class="cls-29" x="74.7" y="0">t</tspan><tspan x="76.62" y="0">_BV</tspan><tspan class="cls-30" x="88.88" y="0">ND</tspan><tspan class="cls-31" x="98.48" y="0">H</tspan></text><line class="cls-19" x1="187.08" y1="334.32" x2="243.72" y2="334.32"/><line class="cls-18" x1="243.72" y1="334.32" x2="239.64" y2="338.64"/><line class="cls-18" x1="243.72" y1="334.32" x2="248.04" y2="330.24"/><line class="cls-19" x1="243.72" y1="334.32" x2="243.72" y2="341.52"/><line class="cls-19" x1="243.72" y1="334.32" x2="243.72" y2="320.16"/><line class="cls-18" x1="187.08" y1="334.32" x2="183" y2="338.64"/><line class="cls-18" x1="187.08" y1="334.32" x2="191.4" y2="330.24"/><line class="cls-19" x1="187.08" y1="334.32" x2="187.08" y2="341.52"/><line class="cls-19" x1="187.08" y1="334.32" x2="187.08" y2="320.16"/><rect class="cls-20" x="198.36" y="320.88" width="34.08" height="8.88"/><text class="cls-32" transform="translate(198.36 328.08)"><tspan class="cls-33">O</tspan><tspan class="cls-34" x="4.8" y="0">f</tspan><tspan class="cls-26" x="6.49" y="0">f</tspan><tspan class="cls-35" x="8.4" y="0">s</tspan><tspan class="cls-36" x="11.53" y="0">e</tspan><tspan class="cls-34" x="15.36" y="0">t</tspan><tspan class="cls-26" x="17.05" y="0"> </tspan><tspan class="cls-37" x="18.96" y="0">W</tspan><tspan class="cls-30" x="24.97" y="0">H</tspan><tspan x="29.77" y="0">B</tspan></text></g></g></svg>