<svg xmlns="http://www.w3.org/2000/svg" xmlns:xlink="http://www.w3.org/1999/xlink" viewBox="0 0 480.12 408.31"><defs><style>.cls-1,.cls-14,.cls-15,.cls-16,.cls-17,.cls-2{fill:none;}.cls-1{clip-rule:evenodd;}.cls-3{clip-path:url(#clip-path);}.cls-4{clip-path:url(#clip-path-2);}.cls-5{fill:#c6d3b4;}.cls-11,.cls-6{font-size:4.08px;font-family:ArialMT, Arial;}.cls-11,.cls-7{letter-spacing:-0.03em;}.cls-8{letter-spacing:0.02em;}.cls-9{letter-spacing:-0.09em;}.cls-10{letter-spacing:0.02em;}.cls-12{letter-spacing:-0.04em;}.cls-13{letter-spacing:0em;}.cls-14,.cls-15{stroke:#000;}.cls-14,.cls-15,.cls-16,.cls-17{stroke-linecap:round;stroke-linejoin:round;}.cls-14,.cls-17{stroke-width:0.24px;}.cls-15,.cls-16{stroke-width:0.48px;}.cls-16,.cls-17{stroke:red;}.cls-18{fill:#fff;}.cls-19,.cls-24,.cls-38{font-size:8.05px;fill:red;font-family:ArialNarrow, Arial;}.cls-20{letter-spacing:-0.02em;}.cls-21{letter-spacing:0em;}.cls-22{letter-spacing:-0.02em;}.cls-23{letter-spacing:-0.01em;}.cls-24{letter-spacing:-0.01em;}.cls-25{letter-spacing:-0.04em;}.cls-26{letter-spacing:-0.02em;}.cls-27{letter-spacing:-0.02em;}.cls-28{letter-spacing:0.02em;}.cls-29{letter-spacing:-0.02em;}.cls-30,.cls-38{letter-spacing:-0.01em;}.cls-31{letter-spacing:-0.03em;}.cls-32{letter-spacing:0.02em;}.cls-33{letter-spacing:0em;}.cls-34{letter-spacing:0.01em;}.cls-35{letter-spacing:0.01em;}.cls-36{letter-spacing:-0.04em;}.cls-37{letter-spacing:-0.03em;}.cls-39{letter-spacing:-0.02em;}.cls-40{letter-spacing:0em;}.cls-41{letter-spacing:-0.03em;}.cls-42{letter-spacing:0.01em;}.cls-43{letter-spacing:-0.01em;}.cls-44{letter-spacing:0em;}</style><clipPath id="clip-path" transform="translate(-355.66 -388.68)"><path class="cls-1" d="M634.54,502.2l-.48.48-.24.48-.24.24-.24.72-.24,51.12.24.24v.72h.24v.72h.24l.72.72.72.24,62.88.24,57.36.24v-.24l1.44-.48.48-.24.72-.72.24-53h-.24v-.48l-.72-.72-.48-.24m-347.52,0-.48.48-.24.48-.24.24-.24.72L408,555.24l.24.24v.72h.24v.72h.24l.72.72,1.44.48,119.52.24v-.24l1-.24,1-.48.72-.72.24-53H533v-.48l-.72-.72-.48-.24Zm9.84-50.88v19.92h34.08V451.32ZM713,445.8v19.92H747.1V445.8ZM402.46,434.52V698h78.72v-1.2h11V695.4H492V694h-.24v-1.44h-.24v-1.2h-.24v-5.76l-.24-.24.24-1.2c.57-5.6,4.49-9,9.36-11l2.88-.72h6.24a16.23,16.23,0,0,1,10.32,6v.48h.24v.48h.24l.24.24V680H521v.48h.24V681h.24v.72h.24v.72H522v.72h.24l-.24,7.92-.48,3.84-.24,1.68,11,.24v59.52H643.9V699.72l.48-.24L697.9,646h66.24V434.52Z"/></clipPath><clipPath id="clip-path-2" transform="translate(-355.66 -388.68)"><rect class="cls-2" width="1684.08" height="1191.12"/></clipPath></defs><title>PushIt - Floor Plan - SP-Room-Bed-CutOut_Sample_2</title><g id="Layer_2" data-name="Layer 2"><g id="Layer_1-2" data-name="Layer 1"><g class="cls-3"><g class="cls-4"><rect class="cls-5" x="46.8" y="45.84" width="361.68" height="321.84"/></g></g><text class="cls-6" transform="translate(162.96 165.6)">?</text><text class="cls-6" transform="translate(153.36 178.32)"><tspan class="cls-7">6500</tspan><tspan class="cls-8" x="8.64" y="0"> </tspan><tspan class="cls-9" x="9.84" y="0">x</tspan><tspan class="cls-10" x="11.52" y="0"> </tspan><tspan class="cls-7" x="12.72" y="0">580</tspan><tspan x="19.2" y="0">0</tspan></text><text class="cls-6" transform="translate(160.8 169.92)"><tspan class="cls-7">5</tspan><tspan class="cls-10" x="2.16" y="0">.</tspan><tspan class="cls-7" x="3.36" y="0">5</tspan><tspan x="5.52" y="0">0</tspan></text><text class="cls-11" transform="translate(152.16 174)">31<tspan class="cls-8" x="4.32" y="0">.</tspan><tspan x="5.52" y="0">63</tspan><tspan class="cls-8" x="9.84" y="0"> </tspan><tspan class="cls-12" x="11.04" y="0">(</tspan><tspan x="12.24" y="0">30</tspan><tspan class="cls-8" x="16.55" y="0">.</tspan><tspan x="17.75" y="0">40</tspan><tspan class="cls-13" x="22.07" y="0">)</tspan></text><text class="cls-6" transform="translate(162.96 161.28)">?</text><polyline class="cls-14" points="415.2 38.88 39.84 38.88 39.84 316.08 169.68 316.08 169.68 374.64 294.96 374.64 294.96 314.16 345.12 264 415.2 264 415.2 38.88"/><polyline class="cls-14" points="288.24 367.68 176.64 367.68 176.64 309.36 46.8 309.36 46.8 45.84 408.48 45.84 408.48 257.28 342.48 257.28 288.24 311.28 288.24 367.68"/><line class="cls-14" x1="46.8" y1="45.84" x2="46.8" y2="48.48"/><line class="cls-14" x1="46.8" y1="50.16" x2="46.8" y2="52.32"/><line class="cls-14" x1="46.8" y1="54" x2="46.8" y2="56.16"/><line class="cls-14" x1="46.8" y1="57.84" x2="46.8" y2="60"/><line class="cls-14" x1="46.8" y1="61.68" x2="46.8" y2="63.84"/><line class="cls-14" x1="46.8" y1="65.52" x2="46.8" y2="67.68"/><line class="cls-14" x1="46.8" y1="69.36" x2="46.8" y2="71.52"/><line class="cls-14" x1="46.8" y1="73.2" x2="46.8" y2="75.36"/><line class="cls-14" x1="46.8" y1="77.04" x2="46.8" y2="79.2"/><line class="cls-14" x1="46.8" y1="80.88" x2="46.8" y2="83.04"/><line class="cls-14" x1="46.8" y1="84.72" x2="46.8" y2="86.88"/><line class="cls-14" x1="46.8" y1="88.56" x2="46.8" y2="90.72"/><line class="cls-14" x1="46.8" y1="92.4" x2="46.8" y2="94.32"/><line class="cls-14" x1="46.8" y1="96.24" x2="46.8" y2="98.16"/><line class="cls-14" x1="46.8" y1="99.84" x2="46.8" y2="102"/><line class="cls-14" x1="46.8" y1="103.68" x2="46.8" y2="105.84"/><line class="cls-14" x1="46.8" y1="107.52" x2="46.8" y2="109.68"/><line class="cls-14" x1="46.8" y1="111.36" x2="46.8" y2="113.52"/><line class="cls-14" x1="46.8" y1="115.2" x2="46.8" y2="117.36"/><line class="cls-14" x1="46.8" y1="119.04" x2="46.8" y2="121.2"/><line class="cls-14" x1="46.8" y1="122.88" x2="46.8" y2="125.04"/><line class="cls-14" x1="46.8" y1="126.72" x2="46.8" y2="128.88"/><line class="cls-14" x1="46.8" y1="130.56" x2="46.8" y2="132.72"/><line class="cls-14" x1="46.8" y1="134.4" x2="46.8" y2="136.56"/><line class="cls-14" x1="46.8" y1="138.24" x2="46.8" y2="140.4"/><line class="cls-14" x1="46.8" y1="142.08" x2="46.8" y2="144.24"/><line class="cls-14" x1="46.8" y1="145.92" x2="46.8" y2="148.08"/><line class="cls-14" x1="46.8" y1="149.76" x2="46.8" y2="151.92"/><line class="cls-14" x1="46.8" y1="153.6" x2="46.8" y2="155.76"/><line class="cls-14" x1="46.8" y1="157.44" x2="46.8" y2="159.6"/><line class="cls-14" x1="46.8" y1="161.28" x2="46.8" y2="163.2"/><line class="cls-14" x1="46.8" y1="165.12" x2="46.8" y2="167.04"/><line class="cls-14" x1="46.8" y1="168.96" x2="46.8" y2="170.88"/><line class="cls-14" x1="46.8" y1="172.56" x2="46.8" y2="174.72"/><line class="cls-14" x1="46.8" y1="176.4" x2="46.8" y2="178.56"/><line class="cls-14" x1="46.8" y1="180.24" x2="46.8" y2="182.4"/><line class="cls-14" x1="46.8" y1="184.08" x2="46.8" y2="186.24"/><line class="cls-14" x1="46.8" y1="187.92" x2="46.8" y2="190.08"/><line class="cls-14" x1="46.8" y1="191.76" x2="46.8" y2="193.92"/><line class="cls-14" x1="46.8" y1="195.6" x2="46.8" y2="197.76"/><line class="cls-14" x1="46.8" y1="199.44" x2="46.8" y2="201.6"/><line class="cls-14" x1="46.8" y1="203.28" x2="46.8" y2="205.44"/><line class="cls-14" x1="46.8" y1="207.12" x2="46.8" y2="209.28"/><line class="cls-14" x1="46.8" y1="210.96" x2="46.8" y2="213.12"/><line class="cls-14" x1="46.8" y1="214.8" x2="46.8" y2="216.96"/><line class="cls-14" x1="46.8" y1="218.64" x2="46.8" y2="220.8"/><line class="cls-14" x1="46.8" y1="222.48" x2="46.8" y2="224.64"/><line class="cls-14" x1="46.8" y1="226.32" x2="46.8" y2="228.48"/><line class="cls-14" x1="46.8" y1="230.16" x2="46.8" y2="232.32"/><line class="cls-14" x1="46.8" y1="234" x2="46.8" y2="235.92"/><line class="cls-14" x1="46.8" y1="237.84" x2="46.8" y2="239.76"/><line class="cls-14" x1="46.8" y1="241.44" x2="46.8" y2="243.6"/><line class="cls-14" x1="46.8" y1="245.28" x2="46.8" y2="247.44"/><line class="cls-14" x1="46.8" y1="249.12" x2="46.8" y2="251.28"/><line class="cls-14" x1="46.8" y1="252.96" x2="46.8" y2="255.12"/><line class="cls-14" x1="46.8" y1="256.8" x2="46.8" y2="258.96"/><line class="cls-14" x1="46.8" y1="260.64" x2="46.8" y2="262.8"/><line class="cls-14" x1="46.8" y1="264.48" x2="46.8" y2="266.64"/><line class="cls-14" x1="46.8" y1="268.32" x2="46.8" y2="270.48"/><line class="cls-14" x1="46.8" y1="272.16" x2="46.8" y2="274.32"/><line class="cls-14" x1="46.8" y1="276" x2="46.8" y2="278.16"/><line class="cls-14" x1="46.8" y1="279.84" x2="46.8" y2="282"/><line class="cls-14" x1="46.8" y1="283.68" x2="46.8" y2="285.84"/><line class="cls-14" x1="46.8" y1="287.52" x2="46.8" y2="289.68"/><line class="cls-14" x1="46.8" y1="291.36" x2="46.8" y2="293.52"/><line class="cls-14" x1="46.8" y1="295.2" x2="46.8" y2="297.36"/><line class="cls-14" x1="46.8" y1="299.04" x2="46.8" y2="301.2"/><line class="cls-14" x1="46.8" y1="302.88" x2="46.8" y2="304.8"/><line class="cls-14" x1="46.8" y1="306.72" x2="46.8" y2="309.36"/><line class="cls-14" x1="46.8" y1="316.08" x2="48" y2="316.08"/><line class="cls-14" x1="49.68" y1="316.08" x2="51.84" y2="316.08"/><line class="cls-14" x1="53.52" y1="316.08" x2="55.68" y2="316.08"/><line class="cls-14" x1="57.36" y1="316.08" x2="59.52" y2="316.08"/><line class="cls-14" x1="61.2" y1="316.08" x2="63.36" y2="316.08"/><line class="cls-14" x1="65.04" y1="316.08" x2="67.2" y2="316.08"/><line class="cls-14" x1="68.88" y1="316.08" x2="71.04" y2="316.08"/><line class="cls-14" x1="72.72" y1="316.08" x2="74.88" y2="316.08"/><line class="cls-14" x1="76.56" y1="316.08" x2="78.72" y2="316.08"/><line class="cls-14" x1="80.4" y1="316.08" x2="82.56" y2="316.08"/><line class="cls-14" x1="84.24" y1="316.08" x2="86.4" y2="316.08"/><line class="cls-14" x1="88.08" y1="316.08" x2="90.24" y2="316.08"/><line class="cls-14" x1="91.92" y1="316.08" x2="94.08" y2="316.08"/><line class="cls-14" x1="95.76" y1="316.08" x2="97.92" y2="316.08"/><line class="cls-14" x1="99.6" y1="316.08" x2="101.52" y2="316.08"/><line class="cls-14" x1="103.44" y1="316.08" x2="105.36" y2="316.08"/><line class="cls-14" x1="107.04" y1="316.08" x2="109.2" y2="316.08"/><line class="cls-14" x1="110.88" y1="316.08" x2="113.04" y2="316.08"/><line class="cls-14" x1="114.72" y1="316.08" x2="116.88" y2="316.08"/><line class="cls-14" x1="118.56" y1="316.08" x2="120.72" y2="316.08"/><line class="cls-14" x1="122.4" y1="316.08" x2="124.56" y2="316.08"/><line class="cls-14" x1="126.24" y1="316.08" x2="128.4" y2="316.08"/><line class="cls-14" x1="130.08" y1="316.08" x2="132.24" y2="316.08"/><line class="cls-14" x1="133.92" y1="316.08" x2="136.08" y2="316.08"/><line class="cls-14" x1="137.76" y1="316.08" x2="139.92" y2="316.08"/><line class="cls-14" x1="141.6" y1="316.08" x2="143.76" y2="316.08"/><line class="cls-14" x1="145.44" y1="316.08" x2="147.6" y2="316.08"/><line class="cls-14" x1="149.28" y1="316.08" x2="151.44" y2="316.08"/><line class="cls-14" x1="153.12" y1="316.08" x2="155.28" y2="316.08"/><line class="cls-14" x1="156.96" y1="316.08" x2="159.12" y2="316.08"/><line class="cls-14" x1="160.8" y1="316.08" x2="162.96" y2="316.08"/><line class="cls-14" x1="164.64" y1="316.08" x2="166.8" y2="316.08"/><line class="cls-14" x1="168.48" y1="316.08" x2="169.68" y2="316.08"/><line class="cls-14" x1="176.64" y1="316.08" x2="176.64" y2="318.24"/><line class="cls-14" x1="176.64" y1="319.92" x2="176.64" y2="322.08"/><line class="cls-14" x1="176.64" y1="323.76" x2="176.64" y2="325.92"/><line class="cls-14" x1="176.64" y1="327.6" x2="176.64" y2="329.76"/><line class="cls-14" x1="176.64" y1="331.44" x2="176.64" y2="333.36"/><line class="cls-14" x1="176.64" y1="335.28" x2="176.64" y2="337.2"/><line class="cls-14" x1="176.64" y1="339.12" x2="176.64" y2="341.04"/><line class="cls-14" x1="176.64" y1="342.72" x2="176.64" y2="344.88"/><line class="cls-14" x1="176.64" y1="346.56" x2="176.64" y2="348.72"/><line class="cls-14" x1="176.64" y1="350.4" x2="176.64" y2="352.56"/><line class="cls-14" x1="176.64" y1="354.24" x2="176.64" y2="356.4"/><line class="cls-14" x1="176.64" y1="358.08" x2="176.64" y2="360.24"/><line class="cls-14" x1="176.64" y1="361.92" x2="176.64" y2="364.08"/><polyline class="cls-14" points="176.64 365.76 176.64 367.68 178.08 367.68"/><line class="cls-14" x1="179.76" y1="367.68" x2="181.68" y2="367.68"/><line class="cls-14" x1="183.6" y1="367.68" x2="185.52" y2="367.68"/><line class="cls-14" x1="187.2" y1="367.68" x2="189.36" y2="367.68"/><line class="cls-14" x1="191.04" y1="367.68" x2="193.2" y2="367.68"/><line class="cls-14" x1="194.88" y1="367.68" x2="197.04" y2="367.68"/><line class="cls-14" x1="198.72" y1="367.68" x2="200.88" y2="367.68"/><line class="cls-14" x1="202.56" y1="367.68" x2="204.72" y2="367.68"/><line class="cls-14" x1="206.4" y1="367.68" x2="208.56" y2="367.68"/><line class="cls-14" x1="210.24" y1="367.68" x2="212.4" y2="367.68"/><line class="cls-14" x1="214.08" y1="367.68" x2="216.24" y2="367.68"/><line class="cls-14" x1="217.92" y1="367.68" x2="220.08" y2="367.68"/><line class="cls-14" x1="221.76" y1="367.68" x2="223.92" y2="367.68"/><line class="cls-14" x1="225.6" y1="367.68" x2="227.76" y2="367.68"/><line class="cls-14" x1="229.44" y1="367.68" x2="231.6" y2="367.68"/><line class="cls-14" x1="233.28" y1="367.68" x2="235.44" y2="367.68"/><line class="cls-14" x1="237.12" y1="367.68" x2="239.28" y2="367.68"/><line class="cls-14" x1="240.96" y1="367.68" x2="243.12" y2="367.68"/><line class="cls-14" x1="244.8" y1="367.68" x2="246.96" y2="367.68"/><line class="cls-14" x1="248.64" y1="367.68" x2="250.56" y2="367.68"/><line class="cls-14" x1="252.48" y1="367.68" x2="254.4" y2="367.68"/><line class="cls-14" x1="256.32" y1="367.68" x2="258.24" y2="367.68"/><line class="cls-14" x1="259.92" y1="367.68" x2="262.08" y2="367.68"/><line class="cls-14" x1="263.76" y1="367.68" x2="265.92" y2="367.68"/><line class="cls-14" x1="267.6" y1="367.68" x2="269.76" y2="367.68"/><line class="cls-14" x1="271.44" y1="367.68" x2="273.6" y2="367.68"/><line class="cls-14" x1="275.28" y1="367.68" x2="277.44" y2="367.68"/><line class="cls-14" x1="279.12" y1="367.68" x2="281.28" y2="367.68"/><line class="cls-14" x1="282.96" y1="367.68" x2="285.12" y2="367.68"/><polyline class="cls-14" points="286.8 367.68 288.24 367.68 288.24 365.28"/><line class="cls-14" x1="288.24" y1="363.6" x2="288.24" y2="361.44"/><line class="cls-14" x1="288.24" y1="359.76" x2="288.24" y2="357.6"/><line class="cls-14" x1="288.24" y1="355.92" x2="288.24" y2="353.76"/><line class="cls-14" x1="288.24" y1="352.08" x2="288.24" y2="349.92"/><line class="cls-14" x1="288.24" y1="348.24" x2="288.24" y2="346.08"/><line class="cls-14" x1="288.24" y1="344.4" x2="288.24" y2="342.24"/><line class="cls-14" x1="288.24" y1="340.56" x2="288.24" y2="338.4"/><line class="cls-14" x1="288.24" y1="336.72" x2="288.24" y2="334.8"/><line class="cls-14" x1="288.24" y1="332.88" x2="288.24" y2="330.96"/><line class="cls-14" x1="288.24" y1="329.04" x2="288.24" y2="327.12"/><line class="cls-14" x1="288.24" y1="325.44" x2="288.24" y2="323.28"/><line class="cls-14" x1="288.24" y1="321.6" x2="288.24" y2="319.44"/><line class="cls-14" x1="288.24" y1="317.76" x2="288.24" y2="315.6"/><polyline class="cls-14" points="288.24 313.92 288.24 311.28 288.96 310.56"/><line class="cls-14" x1="290.16" y1="309.36" x2="291.6" y2="307.92"/><line class="cls-14" x1="292.8" y1="306.72" x2="294.48" y2="305.28"/><line class="cls-14" x1="295.68" y1="304.08" x2="297.12" y2="302.4"/><line class="cls-14" x1="298.32" y1="301.2" x2="299.76" y2="299.76"/><line class="cls-14" x1="300.96" y1="298.56" x2="302.64" y2="297.12"/><line class="cls-14" x1="303.84" y1="295.92" x2="305.28" y2="294.48"/><line class="cls-14" x1="306.48" y1="293.28" x2="307.92" y2="291.6"/><line class="cls-14" x1="309.12" y1="290.4" x2="310.56" y2="288.96"/><line class="cls-14" x1="311.76" y1="287.76" x2="313.44" y2="286.32"/><line class="cls-14" x1="314.64" y1="285.12" x2="316.08" y2="283.44"/><line class="cls-14" x1="317.28" y1="282.24" x2="318.72" y2="280.8"/><line class="cls-14" x1="319.92" y1="279.6" x2="321.36" y2="278.16"/><line class="cls-14" x1="322.56" y1="276.96" x2="324.24" y2="275.52"/><line class="cls-14" x1="325.44" y1="274.32" x2="326.88" y2="272.64"/><line class="cls-14" x1="328.08" y1="271.44" x2="329.52" y2="270"/><line class="cls-14" x1="330.72" y1="268.8" x2="332.4" y2="267.36"/><line class="cls-14" x1="333.6" y1="266.16" x2="335.04" y2="264.72"/><line class="cls-14" x1="336.24" y1="263.28" x2="337.68" y2="261.84"/><line class="cls-14" x1="338.88" y1="260.64" x2="340.32" y2="259.2"/><line class="cls-14" x1="341.52" y1="258" x2="342.48" y2="257.28"/><line class="cls-14" x1="342.48" y1="257.28" x2="343.92" y2="257.28"/><line class="cls-14" x1="345.6" y1="257.28" x2="347.76" y2="257.28"/><line class="cls-14" x1="349.44" y1="257.28" x2="351.6" y2="257.28"/><line class="cls-14" x1="353.28" y1="257.28" x2="355.44" y2="257.28"/><line class="cls-14" x1="357.12" y1="257.28" x2="359.28" y2="257.28"/><line class="cls-14" x1="360.96" y1="257.28" x2="363.12" y2="257.28"/><line class="cls-14" x1="364.8" y1="257.28" x2="366.96" y2="257.28"/><line class="cls-14" x1="368.64" y1="257.28" x2="370.8" y2="257.28"/><line class="cls-14" x1="372.48" y1="257.28" x2="374.64" y2="257.28"/><line class="cls-14" x1="376.32" y1="257.28" x2="378.48" y2="257.28"/><line class="cls-14" x1="380.16" y1="257.28" x2="382.32" y2="257.28"/><line class="cls-14" x1="384" y1="257.28" x2="386.16" y2="257.28"/><line class="cls-14" x1="387.84" y1="257.28" x2="389.76" y2="257.28"/><line class="cls-14" x1="391.68" y1="257.28" x2="393.6" y2="257.28"/><line class="cls-14" x1="395.28" y1="257.28" x2="397.44" y2="257.28"/><line class="cls-14" x1="399.12" y1="257.28" x2="401.28" y2="257.28"/><line class="cls-14" x1="402.96" y1="257.28" x2="405.12" y2="257.28"/><polyline class="cls-14" points="406.8 257.28 408.48 257.28 408.48 255.6"/><line class="cls-14" x1="408.48" y1="253.92" x2="408.48" y2="251.76"/><line class="cls-14" x1="408.48" y1="250.08" x2="408.48" y2="247.92"/><line class="cls-14" x1="408.48" y1="246.24" x2="408.48" y2="244.08"/><line class="cls-14" x1="408.48" y1="242.4" x2="408.48" y2="240.24"/><line class="cls-14" x1="408.48" y1="238.56" x2="408.48" y2="236.64"/><line class="cls-14" x1="408.48" y1="234.72" x2="408.48" y2="232.8"/><line class="cls-14" x1="408.48" y1="230.88" x2="408.48" y2="228.96"/><line class="cls-14" x1="408.48" y1="227.28" x2="408.48" y2="225.12"/><line class="cls-14" x1="408.48" y1="223.44" x2="408.48" y2="221.28"/><line class="cls-14" x1="408.48" y1="219.6" x2="408.48" y2="217.44"/><line class="cls-14" x1="408.48" y1="215.76" x2="408.48" y2="213.6"/><line class="cls-14" x1="408.48" y1="211.92" x2="408.48" y2="209.76"/><line class="cls-14" x1="408.48" y1="208.08" x2="408.48" y2="205.92"/><line class="cls-14" x1="408.48" y1="204.24" x2="408.48" y2="202.08"/><line class="cls-14" x1="408.48" y1="200.4" x2="408.48" y2="198.24"/><line class="cls-14" x1="408.48" y1="196.56" x2="408.48" y2="194.4"/><line class="cls-14" x1="408.48" y1="192.72" x2="408.48" y2="190.56"/><line class="cls-14" x1="408.48" y1="188.88" x2="408.48" y2="186.72"/><line class="cls-14" x1="408.48" y1="185.04" x2="408.48" y2="182.88"/><line class="cls-14" x1="408.48" y1="181.2" x2="408.48" y2="179.04"/><line class="cls-14" x1="408.48" y1="177.36" x2="408.48" y2="175.2"/><line class="cls-14" x1="408.48" y1="173.52" x2="408.48" y2="171.36"/><line class="cls-14" x1="408.48" y1="169.68" x2="408.48" y2="167.52"/><line class="cls-14" x1="408.48" y1="165.84" x2="408.48" y2="163.92"/><line class="cls-14" x1="408.48" y1="162" x2="408.48" y2="160.08"/><line class="cls-14" x1="408.48" y1="158.4" x2="408.48" y2="156.24"/><line class="cls-14" x1="408.48" y1="154.56" x2="408.48" y2="152.4"/><line class="cls-14" x1="408.48" y1="150.72" x2="408.48" y2="148.56"/><line class="cls-14" x1="408.48" y1="146.88" x2="408.48" y2="144.72"/><line class="cls-14" x1="408.48" y1="143.04" x2="408.48" y2="140.88"/><line class="cls-14" x1="408.48" y1="139.2" x2="408.48" y2="137.04"/><line class="cls-14" x1="408.48" y1="135.36" x2="408.48" y2="133.2"/><line class="cls-14" x1="408.48" y1="131.52" x2="408.48" y2="129.36"/><line class="cls-14" x1="408.48" y1="127.68" x2="408.48" y2="125.52"/><line class="cls-14" x1="408.48" y1="123.84" x2="408.48" y2="121.68"/><line class="cls-14" x1="408.48" y1="120" x2="408.48" y2="117.84"/><line class="cls-14" x1="408.48" y1="116.16" x2="408.48" y2="114"/><line class="cls-14" x1="408.48" y1="112.32" x2="408.48" y2="110.16"/><line class="cls-14" x1="408.48" y1="108.48" x2="408.48" y2="106.32"/><line class="cls-14" x1="408.48" y1="104.64" x2="408.48" y2="102.48"/><line class="cls-14" x1="408.48" y1="100.8" x2="408.48" y2="98.64"/><line class="cls-14" x1="408.48" y1="96.96" x2="408.48" y2="95.04"/><line class="cls-14" x1="408.48" y1="93.12" x2="408.48" y2="91.2"/><line class="cls-14" x1="408.48" y1="89.28" x2="408.48" y2="87.36"/><line class="cls-14" x1="408.48" y1="85.68" x2="408.48" y2="83.52"/><line class="cls-14" x1="408.48" y1="81.84" x2="408.48" y2="79.68"/><line class="cls-14" x1="408.48" y1="78" x2="408.48" y2="75.84"/><line class="cls-14" x1="408.48" y1="74.16" x2="408.48" y2="72"/><line class="cls-14" x1="408.48" y1="70.32" x2="408.48" y2="68.16"/><line class="cls-14" x1="408.48" y1="66.48" x2="408.48" y2="64.32"/><line class="cls-14" x1="408.48" y1="62.64" x2="408.48" y2="60.48"/><line class="cls-14" x1="408.48" y1="58.8" x2="408.48" y2="56.64"/><line class="cls-14" x1="408.48" y1="54.96" x2="408.48" y2="52.8"/><line class="cls-14" x1="408.48" y1="51.12" x2="408.48" y2="48.96"/><polyline class="cls-14" points="408.48 47.28 408.48 45.84 406.32 45.84"/><line class="cls-14" x1="404.64" y1="45.84" x2="402.48" y2="45.84"/><line class="cls-14" x1="400.8" y1="45.84" x2="398.64" y2="45.84"/><line class="cls-14" x1="396.96" y1="45.84" x2="394.8" y2="45.84"/><line class="cls-14" x1="393.12" y1="45.84" x2="390.96" y2="45.84"/><line class="cls-14" x1="389.28" y1="45.84" x2="387.36" y2="45.84"/><line class="cls-14" x1="385.44" y1="45.84" x2="383.52" y2="45.84"/><line class="cls-14" x1="381.6" y1="45.84" x2="379.68" y2="45.84"/><line class="cls-14" x1="378" y1="45.84" x2="375.84" y2="45.84"/><line class="cls-14" x1="374.16" y1="45.84" x2="372" y2="45.84"/><line class="cls-14" x1="370.32" y1="45.84" x2="368.16" y2="45.84"/><line class="cls-14" x1="366.48" y1="45.84" x2="364.32" y2="45.84"/><line class="cls-14" x1="362.64" y1="45.84" x2="360.48" y2="45.84"/><line class="cls-14" x1="358.8" y1="45.84" x2="356.64" y2="45.84"/><line class="cls-14" x1="354.96" y1="45.84" x2="352.8" y2="45.84"/><line class="cls-14" x1="351.12" y1="45.84" x2="348.96" y2="45.84"/><line class="cls-14" x1="347.28" y1="45.84" x2="345.12" y2="45.84"/><line class="cls-14" x1="343.44" y1="45.84" x2="341.28" y2="45.84"/><line class="cls-14" x1="339.6" y1="45.84" x2="337.44" y2="45.84"/><line class="cls-14" x1="335.76" y1="45.84" x2="333.6" y2="45.84"/><line class="cls-14" x1="331.92" y1="45.84" x2="329.76" y2="45.84"/><line class="cls-14" x1="328.08" y1="45.84" x2="325.92" y2="45.84"/><line class="cls-14" x1="324.24" y1="45.84" x2="322.08" y2="45.84"/><line class="cls-14" x1="320.4" y1="45.84" x2="318.24" y2="45.84"/><line class="cls-14" x1="316.56" y1="45.84" x2="314.64" y2="45.84"/><line class="cls-14" x1="312.72" y1="45.84" x2="310.8" y2="45.84"/><line class="cls-14" x1="309.12" y1="45.84" x2="306.96" y2="45.84"/><line class="cls-14" x1="305.28" y1="45.84" x2="303.12" y2="45.84"/><line class="cls-14" x1="301.44" y1="45.84" x2="299.28" y2="45.84"/><line class="cls-14" x1="297.6" y1="45.84" x2="295.44" y2="45.84"/><line class="cls-14" x1="293.76" y1="45.84" x2="291.6" y2="45.84"/><line class="cls-14" x1="289.92" y1="45.84" x2="287.76" y2="45.84"/><line class="cls-14" x1="286.08" y1="45.84" x2="283.92" y2="45.84"/><line class="cls-14" x1="282.24" y1="45.84" x2="280.08" y2="45.84"/><line class="cls-14" x1="278.4" y1="45.84" x2="276.24" y2="45.84"/><line class="cls-14" x1="274.56" y1="45.84" x2="272.4" y2="45.84"/><line class="cls-14" x1="270.72" y1="45.84" x2="268.56" y2="45.84"/><line class="cls-14" x1="266.88" y1="45.84" x2="264.72" y2="45.84"/><line class="cls-14" x1="263.04" y1="45.84" x2="260.88" y2="45.84"/><line class="cls-14" x1="259.2" y1="45.84" x2="257.04" y2="45.84"/><line class="cls-14" x1="255.36" y1="45.84" x2="253.2" y2="45.84"/><line class="cls-14" x1="251.52" y1="45.84" x2="249.36" y2="45.84"/><line class="cls-14" x1="247.68" y1="45.84" x2="245.76" y2="45.84"/><line class="cls-14" x1="243.84" y1="45.84" x2="241.92" y2="45.84"/><line class="cls-14" x1="240" y1="45.84" x2="238.08" y2="45.84"/><line class="cls-14" x1="236.4" y1="45.84" x2="234.24" y2="45.84"/><line class="cls-14" x1="232.56" y1="45.84" x2="230.4" y2="45.84"/><line class="cls-14" x1="228.72" y1="45.84" x2="226.56" y2="45.84"/><line class="cls-14" x1="224.88" y1="45.84" x2="222.72" y2="45.84"/><line class="cls-14" x1="221.04" y1="45.84" x2="218.88" y2="45.84"/><line class="cls-14" x1="217.2" y1="45.84" x2="215.04" y2="45.84"/><line class="cls-14" x1="213.36" y1="45.84" x2="211.2" y2="45.84"/><line class="cls-14" x1="209.52" y1="45.84" x2="207.36" y2="45.84"/><line class="cls-14" x1="205.68" y1="45.84" x2="203.52" y2="45.84"/><line class="cls-14" x1="201.84" y1="45.84" x2="199.68" y2="45.84"/><line class="cls-14" x1="198" y1="45.84" x2="195.84" y2="45.84"/><line class="cls-14" x1="194.16" y1="45.84" x2="192" y2="45.84"/><line class="cls-14" x1="190.32" y1="45.84" x2="188.16" y2="45.84"/><line class="cls-14" x1="186.48" y1="45.84" x2="184.32" y2="45.84"/><line class="cls-14" x1="182.64" y1="45.84" x2="180.48" y2="45.84"/><line class="cls-14" x1="178.8" y1="45.84" x2="176.64" y2="45.84"/><line class="cls-14" x1="174.96" y1="45.84" x2="173.04" y2="45.84"/><line class="cls-14" x1="171.12" y1="45.84" x2="169.2" y2="45.84"/><line class="cls-14" x1="167.52" y1="45.84" x2="165.36" y2="45.84"/><line class="cls-14" x1="163.68" y1="45.84" x2="161.52" y2="45.84"/><line class="cls-14" x1="159.84" y1="45.84" x2="157.68" y2="45.84"/><line class="cls-14" x1="156" y1="45.84" x2="153.84" y2="45.84"/><line class="cls-14" x1="152.16" y1="45.84" x2="150" y2="45.84"/><line class="cls-14" x1="148.32" y1="45.84" x2="146.16" y2="45.84"/><line class="cls-14" x1="144.48" y1="45.84" x2="142.32" y2="45.84"/><line class="cls-14" x1="140.64" y1="45.84" x2="138.48" y2="45.84"/><line class="cls-14" x1="136.8" y1="45.84" x2="134.64" y2="45.84"/><line class="cls-14" x1="132.96" y1="45.84" x2="130.8" y2="45.84"/><line class="cls-14" x1="129.12" y1="45.84" x2="126.96" y2="45.84"/><line class="cls-14" x1="125.28" y1="45.84" x2="123.12" y2="45.84"/><line class="cls-14" x1="121.44" y1="45.84" x2="119.28" y2="45.84"/><line class="cls-14" x1="117.6" y1="45.84" x2="115.44" y2="45.84"/><line class="cls-14" x1="113.76" y1="45.84" x2="111.6" y2="45.84"/><line class="cls-14" x1="109.92" y1="45.84" x2="107.76" y2="45.84"/><line class="cls-14" x1="106.08" y1="45.84" x2="104.16" y2="45.84"/><line class="cls-14" x1="102.24" y1="45.84" x2="100.32" y2="45.84"/><line class="cls-14" x1="98.4" y1="45.84" x2="96.48" y2="45.84"/><line class="cls-14" x1="94.8" y1="45.84" x2="92.64" y2="45.84"/><line class="cls-14" x1="90.96" y1="45.84" x2="88.8" y2="45.84"/><line class="cls-14" x1="87.12" y1="45.84" x2="84.96" y2="45.84"/><line class="cls-14" x1="83.28" y1="45.84" x2="81.12" y2="45.84"/><line class="cls-14" x1="79.44" y1="45.84" x2="77.28" y2="45.84"/><line class="cls-14" x1="75.6" y1="45.84" x2="73.44" y2="45.84"/><line class="cls-14" x1="71.76" y1="45.84" x2="69.6" y2="45.84"/><line class="cls-14" x1="67.92" y1="45.84" x2="65.76" y2="45.84"/><line class="cls-14" x1="64.08" y1="45.84" x2="61.92" y2="45.84"/><line class="cls-14" x1="60.24" y1="45.84" x2="58.08" y2="45.84"/><line class="cls-14" x1="56.4" y1="45.84" x2="54.24" y2="45.84"/><line class="cls-14" x1="52.56" y1="45.84" x2="50.4" y2="45.84"/><line class="cls-14" x1="48.72" y1="45.84" x2="46.8" y2="45.84"/><polyline class="cls-15" points="140.4 301.2 141.84 301.44 143.28 301.44"/><polyline class="cls-15" points="161.76 301.2 160.32 301.44 158.88 301.44"/><line class="cls-15" x1="137.52" y1="297.84" x2="137.76" y2="298.56"/><polyline class="cls-15" points="137.52 297.84 137.52 296.16 137.76 294.72"/><polyline class="cls-15" points="140.4 301.2 138.72 300.24 137.76 298.56"/><line class="cls-15" x1="164.4" y1="297.84" x2="164.4" y2="298.56"/><polyline class="cls-15" points="164.4 297.84 164.64 296.16 164.4 294.72"/><polyline class="cls-15" points="161.76 301.2 163.44 300.24 164.4 298.56"/><line class="cls-14" x1="165.36" y1="309.36" x2="136.8" y2="309.36"/><polyline class="cls-14" points="165.36 291.84 163.92 289.44 162 287.52"/><polyline class="cls-14" points="166.56 296.88 166.32 294.24 165.36 291.84"/><polyline class="cls-14" points="165.36 309.36 166.32 303.12 166.56 296.88"/><polyline class="cls-14" points="135.36 296.88 135.84 303.12 136.8 309.36"/><polyline class="cls-14" points="157.2 284.64 154.08 283.92 150.96 283.68"/><polyline class="cls-14" points="162 287.52 159.6 285.84 157.2 284.64"/><polyline class="cls-14" points="136.56 291.84 135.84 294.24 135.36 296.88"/><polyline class="cls-14" points="139.92 287.52 138 289.44 136.56 291.84"/><polyline class="cls-14" points="144.96 284.64 142.32 285.84 139.92 287.52"/><polyline class="cls-14" points="150.96 283.68 147.84 283.92 144.96 284.64"/><polyline class="cls-15" points="136.56 308.16 165.6 308.16 166.32 302.64 166.56 296.88 166.32 294.24 165.36 291.84 163.92 289.44 162 287.52 159.6 285.84 157.2 284.64 154.08 283.92 150.96 283.68 147.84 283.92 144.96 284.64 142.32 285.84 139.92 287.52 138 289.44 136.56 291.84 135.84 294.24 135.36 296.88 135.6 302.64 136.56 308.16"/><polyline class="cls-15" points="125.52 309.36 176.64 309.36 176.64 308.16 125.52 308.16 125.52 309.36"/><line class="cls-14" x1="174.72" y1="113.52" x2="55.2" y2="113.52"/><polyline class="cls-14" points="177.6 116.4 176.88 114.24 174.72 113.52"/><line class="cls-14" x1="177.6" y1="166.8" x2="177.6" y2="116.4"/><polyline class="cls-14" points="174.72 169.68 176.88 168.72 177.6 166.8"/><line class="cls-14" x1="55.2" y1="169.68" x2="174.72" y2="169.68"/><polyline class="cls-14" points="52.32 166.8 53.28 168.72 55.2 169.68"/><line class="cls-14" x1="52.32" y1="116.4" x2="52.32" y2="166.8"/><polyline class="cls-14" points="55.2 113.52 53.28 114.24 52.32 116.4"/><polyline class="cls-15" points="84 169.68 84 168.24 56.4 168.24 56.4 169.68 84 169.68"/><polyline class="cls-15" points="170.16 114.96 170.16 113.52 129.84 113.52 129.84 114.96 170.16 114.96"/><polyline class="cls-15" points="83.52 114.96 83.52 113.52 56.4 113.52 56.4 114.96 83.52 114.96"/><line class="cls-15" x1="175.92" y1="118.8" x2="177.36" y2="118.8"/><line class="cls-15" x1="175.92" y1="164.16" x2="175.92" y2="118.8"/><line class="cls-15" x1="177.36" y1="164.16" x2="175.92" y2="164.16"/><line class="cls-15" x1="177.36" y1="118.8" x2="177.36" y2="164.16"/><line class="cls-15" x1="54.24" y1="119.04" x2="52.56" y2="119.04"/><line class="cls-15" x1="54.24" y1="164.16" x2="54.24" y2="119.04"/><line class="cls-15" x1="52.56" y1="164.16" x2="54.24" y2="164.16"/><line class="cls-15" x1="52.56" y1="119.04" x2="52.56" y2="164.16"/><line class="cls-15" x1="80.88" y1="164.64" x2="57.12" y2="164.64"/><line class="cls-15" x1="80.88" y1="118.08" x2="80.88" y2="164.64"/><line class="cls-15" x1="57.12" y1="118.08" x2="80.88" y2="118.08"/><line class="cls-15" x1="57.12" y1="164.64" x2="57.12" y2="118.08"/><line class="cls-15" x1="172.56" y1="115.68" x2="57.36" y2="115.68"/><polyline class="cls-15" points="175.44 118.56 174.72 116.4 172.56 115.68"/><line class="cls-15" x1="175.44" y1="164.64" x2="175.44" y2="118.56"/><polyline class="cls-15" points="172.56 167.52 174.72 166.56 175.44 164.64"/><line class="cls-15" x1="57.36" y1="167.52" x2="172.56" y2="167.52"/><polyline class="cls-15" points="54.48 164.64 55.44 166.56 57.36 167.52"/><line class="cls-15" x1="54.48" y1="118.56" x2="54.48" y2="164.64"/><polyline class="cls-15" points="57.36 115.68 55.44 116.4 54.48 118.56"/><polyline class="cls-15" points="52.32 116.4 52.32 166.8 52.56 167.52 52.8 168.24 53.28 168.72 53.76 169.2 54.48 169.44 55.2 169.68 174.72 169.68 175.68 169.44 176.16 169.2 176.88 168.72 177.36 168.24 177.6 167.52 177.6 166.8 177.6 116.4 177.6 115.68 177.36 114.96 176.88 114.24 176.16 113.76 175.68 113.52 174.72 113.52 55.2 113.52 54.48 113.52 53.76 113.76 53.28 114.24 52.8 114.96 52.56 115.68 52.32 116.4"/><line class="cls-14" x1="280.32" y1="113.52" x2="399.84" y2="113.52"/><polyline class="cls-14" points="277.44 116.4 278.4 114.24 280.32 113.52"/><line class="cls-14" x1="277.44" y1="166.8" x2="277.44" y2="116.4"/><polyline class="cls-14" points="280.32 169.68 278.4 168.72 277.44 166.8"/><line class="cls-14" x1="399.84" y1="169.68" x2="280.32" y2="169.68"/><polyline class="cls-14" points="402.72 166.8 402 168.72 399.84 169.68"/><line class="cls-14" x1="402.72" y1="116.4" x2="402.72" y2="166.8"/><polyline class="cls-14" points="399.84 113.52 402 114.24 402.72 116.4"/><polyline class="cls-15" points="371.28 169.68 371.28 168.24 398.64 168.24 398.64 169.68 371.28 169.68"/><polyline class="cls-15" points="285.12 114.96 285.12 113.52 325.44 113.52 325.44 114.96 285.12 114.96"/><polyline class="cls-15" points="371.52 114.96 371.52 113.52 398.88 113.52 398.88 114.96 371.52 114.96"/><line class="cls-15" x1="279.36" y1="118.8" x2="277.92" y2="118.8"/><line class="cls-15" x1="279.36" y1="164.16" x2="279.36" y2="118.8"/><line class="cls-15" x1="277.92" y1="164.16" x2="279.36" y2="164.16"/><line class="cls-15" x1="277.92" y1="118.8" x2="277.92" y2="164.16"/><line class="cls-15" x1="400.8" y1="119.04" x2="402.48" y2="119.04"/><line class="cls-15" x1="400.8" y1="164.16" x2="400.8" y2="119.04"/><line class="cls-15" x1="402.48" y1="164.16" x2="400.8" y2="164.16"/><line class="cls-15" x1="402.48" y1="119.04" x2="402.48" y2="164.16"/><line class="cls-15" x1="374.16" y1="164.64" x2="398.16" y2="164.64"/><line class="cls-15" x1="374.16" y1="118.08" x2="374.16" y2="164.64"/><line class="cls-15" x1="398.16" y1="118.08" x2="374.16" y2="118.08"/><line class="cls-15" x1="398.16" y1="164.64" x2="398.16" y2="118.08"/><line class="cls-15" x1="282.48" y1="115.68" x2="397.68" y2="115.68"/><polyline class="cls-15" points="279.6 118.56 280.56 116.4 282.48 115.68"/><line class="cls-15" x1="279.6" y1="164.64" x2="279.6" y2="118.56"/><polyline class="cls-15" points="282.48 167.52 280.56 166.56 279.6 164.64"/><line class="cls-15" x1="397.68" y1="167.52" x2="282.48" y2="167.52"/><polyline class="cls-15" points="400.56 164.64 399.84 166.56 397.68 167.52"/><line class="cls-15" x1="400.56" y1="118.56" x2="400.56" y2="164.64"/><polyline class="cls-15" points="397.68 115.68 399.84 116.4 400.56 118.56"/><polyline class="cls-15" points="402.72 116.4 402.72 115.68 402.48 114.96 402 114.24 401.28 113.76 400.56 113.52 399.84 113.52 280.32 113.52 279.6 113.52 278.88 113.76 278.4 114.24 277.92 114.96 277.68 115.68 277.44 116.4 277.44 166.8 277.68 167.52 277.92 168.24 278.4 168.72 278.88 169.2 279.6 169.44 280.32 169.68 399.84 169.68 400.56 169.44 401.28 169.2 402 168.72 402.48 168.24 402.72 167.52 402.72 166.8 402.72 116.4"/><polyline class="cls-14" points="244.8 371.28 245.76 363.6 248.16 356.4 252.24 349.92 257.76 344.64 264.24 340.56 271.2 337.92 278.88 337.2"/><polyline class="cls-14" points="276 371.28 276 337.2 278.88 337.2 278.88 371.28 276 371.28"/><polyline class="cls-14" points="244.8 371.28 244.08 361.2 241.44 351.6 237.12 342.72 231.6 334.56 224.4 327.6 216.48 321.84 207.36 317.52 197.76 315.12 187.92 314.16"/><polyline class="cls-14" points="190.8 371.28 190.8 314.16 187.92 314.16 187.92 371.28 190.8 371.28"/><polyline class="cls-14" points="278.88 367.68 187.92 367.68 187.92 374.64 278.88 374.64 278.88 367.68 187.92 367.68 187.92 374.64 278.88 374.64 278.88 367.68"/><polyline class="cls-14" points="340.32 57.12 357.36 57.12 391.44 57.12"/><line class="cls-14" x1="357.36" y1="77.04" x2="391.44" y2="77.04"/><line class="cls-14" x1="357.36" y1="57.12" x2="391.44" y2="57.12"/><line class="cls-14" x1="357.36" y1="77.04" x2="357.36" y2="57.12"/><line class="cls-14" x1="391.44" y1="77.04" x2="391.44" y2="57.12"/><polyline class="cls-15" points="357.36 77.04 391.44 77.04 391.44 57.12 357.36 57.12 357.36 77.04"/><line class="cls-15" x1="357.36" y1="57.12" x2="391.44" y2="57.12"/><polyline class="cls-15" points="337.68 57.12 338.16 62.16 340.32 66.96 343.44 71.04 347.52 74.16 352.32 76.32 357.36 77.04 391.44 77.04"/><line class="cls-15" x1="357.36" y1="57.12" x2="357.36" y2="77.04"/><line class="cls-15" x1="391.44" y1="57.12" x2="391.44" y2="77.04"/><line class="cls-15" x1="337.68" y1="57.12" x2="357.36" y2="57.12"/><polyline class="cls-14" points="114.72 62.64 97.68 62.64 63.6 62.64"/><line class="cls-14" x1="97.68" y1="82.56" x2="63.6" y2="82.56"/><line class="cls-14" x1="97.68" y1="62.64" x2="63.6" y2="62.64"/><line class="cls-14" x1="97.68" y1="82.56" x2="97.68" y2="62.64"/><line class="cls-14" x1="63.6" y1="82.56" x2="63.6" y2="62.64"/><polyline class="cls-15" points="97.68 82.56 97.68 62.64 63.6 62.64 63.6 82.56 97.68 82.56"/><line class="cls-15" x1="97.68" y1="62.64" x2="63.6" y2="62.64"/><polyline class="cls-15" points="117.6 62.64 116.88 67.92 114.96 72.72 111.84 76.8 107.76 79.92 102.96 81.84 97.68 82.56 63.6 82.56"/><line class="cls-15" x1="97.68" y1="62.64" x2="97.68" y2="82.56"/><line class="cls-15" x1="63.6" y1="62.64" x2="63.6" y2="82.56"/><line class="cls-15" x1="117.6" y1="62.64" x2="97.68" y2="62.64"/><line class="cls-16" x1="150.96" y1="298.56" x2="150.96" y2="309.36"/><line class="cls-16" x1="150.96" y1="320.64" x2="150.96" y2="331.92"/><line class="cls-16" x1="150.96" y1="343.44" x2="150.96" y2="354.72"/><line class="cls-16" x1="150.96" y1="366" x2="150.96" y2="376.8"/><line class="cls-16" x1="176.64" y1="354.24" x2="176.64" y2="359.76"/><line class="cls-16" x1="176.64" y1="371.04" x2="176.64" y2="376.8"/><line class="cls-16" x1="391.44" y1="57.12" x2="405.6" y2="57.12"/><line class="cls-16" x1="416.88" y1="57.12" x2="431.04" y2="57.12"/><line class="cls-16" x1="391.44" y1="45.84" x2="405.6" y2="45.84"/><line class="cls-16" x1="416.88" y1="45.84" x2="431.04" y2="45.84"/><line class="cls-16" x1="408.48" y1="77.04" x2="408.48" y2="68.88"/><line class="cls-16" x1="408.48" y1="57.6" x2="408.48" y2="46.32"/><line class="cls-16" x1="408.48" y1="35.04" x2="408.48" y2="27.12"/><line class="cls-16" x1="391.44" y1="77.04" x2="391.44" y2="68.88"/><line class="cls-16" x1="391.44" y1="57.6" x2="391.44" y2="46.32"/><line class="cls-16" x1="391.44" y1="35.04" x2="391.44" y2="27.12"/><line class="cls-16" x1="46.8" y1="83.52" x2="46.8" y2="70.56"/><line class="cls-16" x1="46.8" y1="59.04" x2="46.8" y2="47.76"/><line class="cls-16" x1="46.8" y1="36.48" x2="46.8" y2="23.52"/><line class="cls-16" x1="63.6" y1="82.56" x2="63.6" y2="70.08"/><line class="cls-16" x1="63.6" y1="58.8" x2="63.6" y2="47.28"/><line class="cls-16" x1="63.6" y1="36" x2="63.6" y2="23.52"/><line class="cls-16" x1="73.92" y1="62.64" x2="66.48" y2="62.64"/><line class="cls-16" x1="55.2" y1="62.64" x2="43.92" y2="62.64"/><line class="cls-16" x1="32.64" y1="62.64" x2="25.2" y2="62.64"/><line class="cls-16" x1="73.92" y1="45.84" x2="66.48" y2="45.84"/><line class="cls-16" x1="55.2" y1="45.84" x2="43.92" y2="45.84"/><line class="cls-16" x1="32.64" y1="45.84" x2="25.2" y2="45.84"/><line class="cls-16" x1="457.68" y1="141.6" x2="446.16" y2="141.6"/><line class="cls-16" x1="434.88" y1="141.6" x2="423.6" y2="141.6"/><line class="cls-16" x1="412.32" y1="141.6" x2="400.8" y2="141.6"/><line class="cls-16" x1="389.52" y1="141.6" x2="378.24" y2="141.6"/><line class="cls-16" x1="366.96" y1="141.6" x2="355.44" y2="141.6"/><line class="cls-16" x1="344.16" y1="141.6" x2="332.88" y2="141.6"/><line class="cls-16" x1="321.6" y1="141.6" x2="310.08" y2="141.6"/><line class="cls-16" x1="298.8" y1="141.6" x2="287.52" y2="141.6"/><line class="cls-16" x1="276.24" y1="141.6" x2="264.72" y2="141.6"/><line class="cls-16" x1="253.44" y1="141.6" x2="242.16" y2="141.6"/><line class="cls-16" x1="230.88" y1="141.6" x2="219.6" y2="141.6"/><line class="cls-16" x1="208.08" y1="141.6" x2="196.8" y2="141.6"/><line class="cls-16" x1="185.52" y1="141.6" x2="174.24" y2="141.6"/><line class="cls-16" x1="162.72" y1="141.6" x2="151.44" y2="141.6"/><line class="cls-16" x1="140.16" y1="141.6" x2="128.88" y2="141.6"/><line class="cls-16" x1="117.36" y1="141.6" x2="106.08" y2="141.6"/><line class="cls-16" x1="94.8" y1="141.6" x2="83.52" y2="141.6"/><line class="cls-17" x1="150.96" y1="394.56" x2="176.64" y2="394.56"/><line class="cls-16" x1="176.64" y1="394.56" x2="172.32" y2="398.64"/><line class="cls-16" x1="176.64" y1="394.56" x2="180.72" y2="390.24"/><line class="cls-17" x1="176.64" y1="394.56" x2="176.64" y2="401.52"/><line class="cls-17" x1="176.64" y1="394.56" x2="176.64" y2="380.4"/><line class="cls-16" x1="150.96" y1="394.56" x2="146.88" y2="398.64"/><line class="cls-16" x1="150.96" y1="394.56" x2="155.28" y2="390.24"/><line class="cls-17" x1="150.96" y1="394.56" x2="150.96" y2="401.52"/><line class="cls-17" x1="150.96" y1="394.56" x2="150.96" y2="380.4"/><rect class="cls-18" x="155.76" y="398.64" width="15.6" height="8.88"/><text class="cls-19" transform="translate(155.76 405.84)"><tspan class="cls-20">F</tspan><tspan class="cls-21" x="3.85" y="0">i</tspan><tspan class="cls-22" x="5.29" y="0">x</tspan><tspan class="cls-23" x="8.41" y="0">e</tspan><tspan x="12.01" y="0">d</tspan></text><rect class="cls-18" x="158.4" y="381.12" width="10.8" height="8.88"/><text class="cls-19" transform="translate(158.4 388.32)"><tspan class="cls-23">45</tspan><tspan x="7.2" y="0">0</tspan></text><line class="cls-17" x1="46.8" y1="13.44" x2="63.6" y2="13.44"/><line class="cls-16" x1="63.6" y1="13.44" x2="59.52" y2="17.76"/><line class="cls-16" x1="63.6" y1="13.44" x2="67.92" y2="9.36"/><line class="cls-17" x1="63.6" y1="13.44" x2="63.6" y2="6.48"/><line class="cls-17" x1="63.6" y1="13.44" x2="63.6" y2="27.84"/><line class="cls-16" x1="46.8" y1="13.44" x2="42.48" y2="17.76"/><line class="cls-16" x1="46.8" y1="13.44" x2="50.88" y2="9.36"/><line class="cls-17" x1="46.8" y1="13.44" x2="46.8" y2="6.48"/><line class="cls-17" x1="46.8" y1="13.44" x2="46.8" y2="27.84"/><rect class="cls-18" x="16.8" width="76.32" height="8.88"/><text class="cls-24" transform="translate(16.8 7.2)">SP<tspan class="cls-23" x="8.68" y="0">_</tspan><tspan class="cls-25" x="12.28" y="0">O</tspan><tspan class="cls-26" x="17.08" y="0">ff</tspan><tspan class="cls-27" x="20.45" y="0">s</tspan><tspan class="cls-28" x="23.58" y="0">e</tspan><tspan class="cls-29" x="27.41" y="0">t</tspan><tspan class="cls-30" x="29.09" y="0">_</tspan><tspan x="32.69" y="0">X</tspan><tspan class="cls-30" x="37.03" y="0">_</tspan><tspan class="cls-31" x="40.64" y="0">W</tspan><tspan class="cls-23" x="46.64" y="0">a</tspan><tspan class="cls-32" x="50.24" y="0">r</tspan><tspan class="cls-30" x="52.64" y="0">drobe_</tspan><tspan class="cls-33" x="72.77" y="0">2</tspan></text><line class="cls-17" x1="13.44" y1="45.84" x2="13.44" y2="62.64"/><line class="cls-16" x1="13.44" y1="62.64" x2="9.12" y2="58.56"/><line class="cls-16" x1="13.44" y1="62.64" x2="17.76" y2="66.96"/><line class="cls-17" x1="13.44" y1="62.64" x2="6.48" y2="62.64"/><line class="cls-17" x1="13.44" y1="62.64" x2="27.6" y2="62.64"/><line class="cls-16" x1="13.44" y1="45.84" x2="9.12" y2="41.52"/><line class="cls-16" x1="13.44" y1="45.84" x2="17.76" y2="49.92"/><line class="cls-17" x1="13.44" y1="45.84" x2="6.48" y2="45.84"/><line class="cls-17" x1="13.44" y1="45.84" x2="27.6" y2="45.84"/><rect class="cls-18" y="15.84" width="9.6" height="77.04"/><text class="cls-19" transform="translate(7.68 92.64) rotate(-90)"><tspan class="cls-30">SP_O</tspan><tspan class="cls-34" x="17.33" y="0">ff</tspan><tspan class="cls-35" x="21.17" y="0">s</tspan><tspan class="cls-36" x="24.52" y="0">e</tspan><tspan class="cls-34" x="27.89" y="0">t</tspan><tspan class="cls-30" x="29.8" y="0">_Y_</tspan><tspan x="41.34" y="0">W</tspan><tspan class="cls-30" x="47.57" y="0">a</tspan><tspan class="cls-37" x="51.17" y="0">r</tspan><tspan class="cls-30" x="53.09" y="0">drobe_</tspan><tspan x="73.22" y="0">2</tspan></text><line class="cls-17" x1="452.64" y1="57.12" x2="452.64" y2="45.84"/><line class="cls-16" x1="452.64" y1="45.84" x2="456.96" y2="49.92"/><line class="cls-16" x1="452.64" y1="45.84" x2="448.56" y2="41.52"/><line class="cls-17" x1="452.64" y1="45.84" x2="459.84" y2="45.84"/><line class="cls-17" x1="452.64" y1="45.84" x2="438.48" y2="45.84"/><line class="cls-16" x1="452.64" y1="57.12" x2="456.96" y2="61.44"/><line class="cls-16" x1="452.64" y1="57.12" x2="448.56" y2="52.8"/><line class="cls-17" x1="452.64" y1="57.12" x2="459.84" y2="57.12"/><line class="cls-17" x1="452.64" y1="57.12" x2="438.48" y2="57.12"/><rect class="cls-18" x="439.2" y="12.96" width="9.6" height="77.04"/><text class="cls-19" transform="translate(446.88 89.76) rotate(-90)"><tspan class="cls-30">SP_O</tspan><tspan class="cls-34" x="17.33" y="0">ff</tspan><tspan class="cls-35" x="21.17" y="0">s</tspan><tspan class="cls-36" x="24.52" y="0">e</tspan><tspan class="cls-34" x="27.89" y="0">t</tspan><tspan class="cls-30" x="29.8" y="0">_Y_</tspan><tspan x="41.34" y="0">W</tspan><tspan class="cls-30" x="47.57" y="0">a</tspan><tspan class="cls-37" x="51.17" y="0">r</tspan><tspan class="cls-30" x="53.09" y="0">drobe_</tspan><tspan x="73.22" y="0">1</tspan></text><line class="cls-17" x1="391.44" y1="13.44" x2="408.48" y2="13.44"/><line class="cls-16" x1="408.48" y1="13.44" x2="404.16" y2="17.76"/><line class="cls-16" x1="408.48" y1="13.44" x2="412.8" y2="9.36"/><line class="cls-17" x1="408.48" y1="13.44" x2="408.48" y2="6.48"/><line class="cls-17" x1="408.48" y1="13.44" x2="408.48" y2="27.84"/><line class="cls-16" x1="391.44" y1="13.44" x2="387.12" y2="17.76"/><line class="cls-16" x1="391.44" y1="13.44" x2="395.76" y2="9.36"/><line class="cls-17" x1="391.44" y1="13.44" x2="391.44" y2="6.48"/><line class="cls-17" x1="391.44" y1="13.44" x2="391.44" y2="27.84"/><rect class="cls-18" x="361.68" width="76.32" height="8.88"/><text class="cls-24" transform="translate(361.68 7.2)">SP<tspan class="cls-23" x="8.68" y="0">_</tspan><tspan class="cls-25" x="12.28" y="0">O</tspan><tspan class="cls-26" x="17.08" y="0">ff</tspan><tspan class="cls-27" x="20.45" y="0">s</tspan><tspan class="cls-28" x="23.58" y="0">e</tspan><tspan class="cls-29" x="27.41" y="0">t</tspan><tspan class="cls-30" x="29.09" y="0">_</tspan><tspan x="32.69" y="0">X</tspan><tspan class="cls-30" x="37.03" y="0">_</tspan><tspan class="cls-31" x="40.64" y="0">W</tspan><tspan class="cls-23" x="46.64" y="0">a</tspan><tspan class="cls-32" x="50.24" y="0">r</tspan><tspan class="cls-30" x="52.64" y="0">drobe_</tspan><tspan class="cls-33" x="72.77" y="0">1</tspan></text><line class="cls-17" x1="472.8" y1="141.6" x2="472.8" y2="45.84"/><line class="cls-16" x1="472.8" y1="45.84" x2="477.12" y2="49.92"/><line class="cls-16" x1="472.8" y1="45.84" x2="468.48" y2="41.52"/><line class="cls-17" x1="472.8" y1="45.84" x2="480" y2="45.84"/><line class="cls-17" x1="472.8" y1="45.84" x2="458.64" y2="45.84"/><line class="cls-16" x1="472.8" y1="141.6" x2="477.12" y2="145.92"/><line class="cls-16" x1="472.8" y1="141.6" x2="468.48" y2="137.28"/><line class="cls-17" x1="472.8" y1="141.6" x2="480" y2="141.6"/><line class="cls-17" x1="472.8" y1="141.6" x2="458.64" y2="141.6"/><rect class="cls-18" x="459.36" y="54.96" width="9.6" height="77.76"/><text class="cls-38" transform="translate(467.04 132.48) rotate(-90)">Graph<tspan class="cls-21" x="18" y="0">i</tspan><tspan class="cls-39" x="19.44" y="0">c</tspan><tspan class="cls-34" x="22.56" y="0"> </tspan><tspan class="cls-40" x="24.48" y="0">D</tspan><tspan x="29.28" y="0">oub</tspan><tspan class="cls-41" x="40.08" y="0">l</tspan><tspan x="41.28" y="0">e</tspan><tspan class="cls-34" x="44.88" y="0"> </tspan><tspan class="cls-23" x="46.8" y="0">Bed</tspan><tspan class="cls-29" x="58.33" y="0"> </tspan><tspan x="60.02" y="0">O</tspan><tspan class="cls-34" x="65.09" y="0">ff</tspan><tspan class="cls-42" x="68.92" y="0">s</tspan><tspan class="cls-43" x="72.27" y="0">e</tspan><tspan class="cls-44" x="75.87" y="0">t</tspan></text></g></g></svg>