<svg xmlns="http://www.w3.org/2000/svg" xmlns:xlink="http://www.w3.org/1999/xlink" viewBox="0 0 268.68 332.52"><defs><style>.cls-1,.cls-15,.cls-16,.cls-17,.cls-18,.cls-2{fill:none;}.cls-1{clip-rule:evenodd;}.cls-3{clip-path:url(#clip-path);}.cls-4{clip-path:url(#clip-path-2);}.cls-5{fill:#c6d3b4;}.cls-12,.cls-6{font-size:4.08px;font-family:ArialMT, Arial;}.cls-12,.cls-7{letter-spacing:-0.03em;}.cls-8{letter-spacing:0.02em;}.cls-9{letter-spacing:-0.09em;}.cls-10{letter-spacing:0.02em;}.cls-11{letter-spacing:-0.03em;}.cls-13{letter-spacing:-0.04em;}.cls-14{letter-spacing:0em;}.cls-15,.cls-16{stroke:#000;}.cls-15,.cls-16,.cls-17,.cls-18{stroke-linecap:round;stroke-linejoin:round;}.cls-15,.cls-17{stroke-width:0.24px;}.cls-16,.cls-18{stroke-width:0.48px;}.cls-17,.cls-18{stroke:red;}.cls-19{fill:#fff;}.cls-20,.cls-24{font-size:8.05px;}.cls-20,.cls-24,.cls-29{fill:red;font-family:ArialNarrow, Arial;}.cls-20,.cls-25{letter-spacing:-0.01em;}.cls-21{letter-spacing:0em;}.cls-22{letter-spacing:0.01em;}.cls-23{letter-spacing:0em;}.cls-26{letter-spacing:-0.03em;}.cls-27{letter-spacing:0em;}.cls-28{letter-spacing:-0.02em;}.cls-29{font-size:8.04px;letter-spacing:-0.02em;}.cls-30{letter-spacing:0.02em;}.cls-31{letter-spacing:0em;}.cls-32{letter-spacing:0.01em;}.cls-33{letter-spacing:0em;}</style><clipPath id="clip-path" transform="translate(-304.07 -148.32)"><path class="cls-1" d="M399.59,266.4l-.24.24-.48.24-.48.48-.24.72V320.4h.24v.72h.24l.24.24.48.24.24.24.48.24,121.2.24v-.24l1-.48.72-.72.24-53.28-1-1-.48-.24M312,156V444H444v-1.2h11v-1.92h-.24V439h-.24V437h-.24v-5.76l-.24-.24.24-2.4.48-1.44.24-1,.48-.48.24-.48L456,425l.24-.48.24-.24.24-.48,1.92-1.92.48-.24.48-.48.48-.24.72-.72.72-.24,1.92-1,1-.24,2.16-.72h6a18.69,18.69,0,0,1,10.56,6.24v.48h.24v.48h.24l.24.24V426h.24v.48h.24v.72h.24v1h.24v1H485l-.24,7.68-.72,5.76,11,.24V444h31.2V156Z"/></clipPath><clipPath id="clip-path-2" transform="translate(-304.07 -148.32)"><rect class="cls-2" width="841.92" height="595.2"/></clipPath></defs><title>PushIt - Floor Plan - SP-Room-Bed-Rectangle</title><g id="Layer_2" data-name="Layer 2"><g id="Layer_1-2" data-name="Layer 1"><g class="cls-3"><g class="cls-4"><rect class="cls-5" x="7.92" y="7.68" width="214.32" height="288"/></g></g><text class="cls-6" transform="translate(113.76 148.56)">?</text><text class="cls-6" transform="translate(104.4 161.28)"><tspan class="cls-7">3900</tspan><tspan class="cls-8" x="8.64" y="0"> </tspan><tspan class="cls-9" x="9.84" y="0">x</tspan><tspan class="cls-8" x="11.52" y="0"> </tspan><tspan class="cls-7" x="12.72" y="0">520</tspan><tspan x="19.2" y="0">0</tspan></text><text class="cls-6" transform="translate(110.4 152.88)"><tspan class="cls-7">12</tspan><tspan class="cls-10" x="4.32" y="0">.</tspan><tspan class="cls-11" x="5.52" y="0">0</tspan><tspan x="7.68" y="0">0</tspan></text><text class="cls-12" transform="translate(103.2 156.96)">20<tspan class="cls-10" x="4.32" y="0">.</tspan><tspan class="cls-11" x="5.52" y="0">28</tspan><tspan class="cls-8" x="9.84" y="0"> </tspan><tspan class="cls-13" x="11.04" y="0">(</tspan><tspan x="12.24" y="0">19</tspan><tspan class="cls-8" x="16.55" y="0">.</tspan><tspan x="17.75" y="0">20</tspan><tspan class="cls-14" x="22.07" y="0">)</tspan></text><text class="cls-6" transform="translate(113.76 144.48)">?</text><polyline class="cls-15" points="228.96 0.96 1.2 0.96 1.2 302.4 228.96 302.4 228.96 0.96"/><polyline class="cls-15" points="222.24 295.68 7.92 295.68 7.92 7.68 222.24 7.68 222.24 295.68"/><line class="cls-15" x1="7.92" y1="295.68" x2="10.08" y2="295.68"/><line class="cls-15" x1="11.76" y1="295.68" x2="13.92" y2="295.68"/><line class="cls-15" x1="15.6" y1="295.68" x2="17.76" y2="295.68"/><line class="cls-15" x1="19.44" y1="295.68" x2="21.6" y2="295.68"/><line class="cls-15" x1="23.28" y1="295.68" x2="25.2" y2="295.68"/><line class="cls-15" x1="27.12" y1="295.68" x2="29.04" y2="295.68"/><line class="cls-15" x1="30.96" y1="295.68" x2="32.88" y2="295.68"/><line class="cls-15" x1="34.56" y1="295.68" x2="36.72" y2="295.68"/><line class="cls-15" x1="38.4" y1="295.68" x2="40.56" y2="295.68"/><line class="cls-15" x1="42.24" y1="295.68" x2="44.4" y2="295.68"/><line class="cls-15" x1="46.08" y1="295.68" x2="48.24" y2="295.68"/><line class="cls-15" x1="49.92" y1="295.68" x2="52.08" y2="295.68"/><line class="cls-15" x1="53.76" y1="295.68" x2="55.92" y2="295.68"/><line class="cls-15" x1="57.6" y1="295.68" x2="59.76" y2="295.68"/><line class="cls-15" x1="61.44" y1="295.68" x2="63.6" y2="295.68"/><line class="cls-15" x1="65.28" y1="295.68" x2="67.44" y2="295.68"/><line class="cls-15" x1="69.12" y1="295.68" x2="71.28" y2="295.68"/><line class="cls-15" x1="72.96" y1="295.68" x2="75.12" y2="295.68"/><line class="cls-15" x1="76.8" y1="295.68" x2="78.96" y2="295.68"/><line class="cls-15" x1="80.64" y1="295.68" x2="82.8" y2="295.68"/><line class="cls-15" x1="84.48" y1="295.68" x2="86.4" y2="295.68"/><line class="cls-15" x1="88.32" y1="295.68" x2="90.24" y2="295.68"/><line class="cls-15" x1="91.92" y1="295.68" x2="94.08" y2="295.68"/><line class="cls-15" x1="95.76" y1="295.68" x2="97.92" y2="295.68"/><line class="cls-15" x1="99.6" y1="295.68" x2="101.76" y2="295.68"/><line class="cls-15" x1="103.44" y1="295.68" x2="105.6" y2="295.68"/><line class="cls-15" x1="107.28" y1="295.68" x2="109.44" y2="295.68"/><line class="cls-15" x1="111.12" y1="295.68" x2="113.28" y2="295.68"/><line class="cls-15" x1="114.96" y1="295.68" x2="117.12" y2="295.68"/><line class="cls-15" x1="118.8" y1="295.68" x2="120.96" y2="295.68"/><line class="cls-15" x1="122.64" y1="295.68" x2="124.8" y2="295.68"/><line class="cls-15" x1="126.48" y1="295.68" x2="128.64" y2="295.68"/><line class="cls-15" x1="130.32" y1="295.68" x2="132.48" y2="295.68"/><line class="cls-15" x1="134.16" y1="295.68" x2="136.32" y2="295.68"/><line class="cls-15" x1="138" y1="295.68" x2="139.92" y2="295.68"/><line class="cls-15" x1="191.04" y1="295.68" x2="192.24" y2="295.68"/><line class="cls-15" x1="193.92" y1="295.68" x2="196.08" y2="295.68"/><line class="cls-15" x1="197.76" y1="295.68" x2="199.92" y2="295.68"/><line class="cls-15" x1="201.6" y1="295.68" x2="203.76" y2="295.68"/><line class="cls-15" x1="205.44" y1="295.68" x2="207.6" y2="295.68"/><line class="cls-15" x1="209.28" y1="295.68" x2="211.44" y2="295.68"/><line class="cls-15" x1="213.12" y1="295.68" x2="215.28" y2="295.68"/><line class="cls-15" x1="216.96" y1="295.68" x2="219.12" y2="295.68"/><polyline class="cls-15" points="220.8 295.68 222.24 295.68 222.24 294"/><line class="cls-15" x1="222.24" y1="292.32" x2="222.24" y2="290.16"/><line class="cls-15" x1="222.24" y1="288.48" x2="222.24" y2="286.32"/><line class="cls-15" x1="222.24" y1="284.64" x2="222.24" y2="282.48"/><line class="cls-15" x1="222.24" y1="280.8" x2="222.24" y2="278.88"/><line class="cls-15" x1="222.24" y1="276.96" x2="222.24" y2="275.04"/><line class="cls-15" x1="222.24" y1="273.36" x2="222.24" y2="271.2"/><line class="cls-15" x1="222.24" y1="269.52" x2="222.24" y2="267.36"/><line class="cls-15" x1="222.24" y1="265.68" x2="222.24" y2="263.52"/><line class="cls-15" x1="222.24" y1="261.84" x2="222.24" y2="259.68"/><line class="cls-15" x1="222.24" y1="258" x2="222.24" y2="255.84"/><line class="cls-15" x1="222.24" y1="254.16" x2="222.24" y2="252"/><line class="cls-15" x1="222.24" y1="250.32" x2="222.24" y2="248.16"/><line class="cls-15" x1="222.24" y1="246.48" x2="222.24" y2="244.32"/><line class="cls-15" x1="222.24" y1="242.64" x2="222.24" y2="240.48"/><line class="cls-15" x1="222.24" y1="238.8" x2="222.24" y2="236.64"/><line class="cls-15" x1="222.24" y1="234.96" x2="222.24" y2="232.8"/><line class="cls-15" x1="222.24" y1="231.12" x2="222.24" y2="228.96"/><line class="cls-15" x1="222.24" y1="227.28" x2="222.24" y2="225.12"/><line class="cls-15" x1="222.24" y1="223.44" x2="222.24" y2="221.28"/><line class="cls-15" x1="222.24" y1="219.6" x2="222.24" y2="217.68"/><line class="cls-15" x1="222.24" y1="215.76" x2="222.24" y2="213.84"/><line class="cls-15" x1="222.24" y1="212.16" x2="222.24" y2="210"/><line class="cls-15" x1="222.24" y1="208.32" x2="222.24" y2="206.16"/><line class="cls-15" x1="222.24" y1="204.48" x2="222.24" y2="202.32"/><line class="cls-15" x1="222.24" y1="200.64" x2="222.24" y2="198.48"/><line class="cls-15" x1="222.24" y1="196.8" x2="222.24" y2="194.64"/><line class="cls-15" x1="222.24" y1="192.96" x2="222.24" y2="190.8"/><line class="cls-15" x1="222.24" y1="189.12" x2="222.24" y2="186.96"/><line class="cls-15" x1="222.24" y1="185.28" x2="222.24" y2="183.12"/><line class="cls-15" x1="222.24" y1="181.44" x2="222.24" y2="179.28"/><line class="cls-15" x1="222.24" y1="177.6" x2="222.24" y2="175.44"/><line class="cls-15" x1="222.24" y1="173.76" x2="222.24" y2="171.6"/><line class="cls-15" x1="222.24" y1="169.92" x2="222.24" y2="167.76"/><line class="cls-15" x1="222.24" y1="166.08" x2="222.24" y2="163.92"/><line class="cls-15" x1="222.24" y1="162.24" x2="222.24" y2="160.08"/><line class="cls-15" x1="222.24" y1="158.4" x2="222.24" y2="156.48"/><line class="cls-15" x1="222.24" y1="154.56" x2="222.24" y2="152.64"/><line class="cls-15" x1="222.24" y1="150.96" x2="222.24" y2="148.8"/><line class="cls-15" x1="222.24" y1="147.12" x2="222.24" y2="144.96"/><line class="cls-15" x1="222.24" y1="143.28" x2="222.24" y2="141.12"/><line class="cls-15" x1="222.24" y1="139.44" x2="222.24" y2="137.28"/><line class="cls-15" x1="222.24" y1="135.6" x2="222.24" y2="133.44"/><line class="cls-15" x1="222.24" y1="131.76" x2="222.24" y2="129.6"/><line class="cls-15" x1="222.24" y1="127.92" x2="222.24" y2="125.76"/><line class="cls-15" x1="222.24" y1="124.08" x2="222.24" y2="121.92"/><line class="cls-15" x1="222.24" y1="120.24" x2="222.24" y2="118.08"/><line class="cls-15" x1="222.24" y1="116.4" x2="222.24" y2="114.24"/><line class="cls-15" x1="222.24" y1="112.56" x2="222.24" y2="110.4"/><line class="cls-15" x1="222.24" y1="108.72" x2="222.24" y2="106.56"/><line class="cls-15" x1="222.24" y1="104.88" x2="222.24" y2="102.72"/><line class="cls-15" x1="222.24" y1="101.04" x2="222.24" y2="99.12"/><line class="cls-15" x1="222.24" y1="97.2" x2="222.24" y2="95.28"/><line class="cls-15" x1="222.24" y1="93.36" x2="222.24" y2="91.44"/><line class="cls-15" x1="222.24" y1="89.76" x2="222.24" y2="87.6"/><line class="cls-15" x1="222.24" y1="85.92" x2="222.24" y2="83.76"/><line class="cls-15" x1="222.24" y1="82.08" x2="222.24" y2="79.92"/><line class="cls-15" x1="222.24" y1="78.24" x2="222.24" y2="76.08"/><line class="cls-15" x1="222.24" y1="74.4" x2="222.24" y2="72.24"/><line class="cls-15" x1="222.24" y1="70.56" x2="222.24" y2="68.4"/><line class="cls-15" x1="222.24" y1="66.72" x2="222.24" y2="64.56"/><line class="cls-15" x1="222.24" y1="62.88" x2="222.24" y2="60.72"/><line class="cls-15" x1="222.24" y1="59.04" x2="222.24" y2="56.88"/><line class="cls-15" x1="222.24" y1="55.2" x2="222.24" y2="53.04"/><line class="cls-15" x1="222.24" y1="51.36" x2="222.24" y2="49.2"/><line class="cls-15" x1="222.24" y1="47.52" x2="222.24" y2="45.36"/><line class="cls-15" x1="222.24" y1="43.68" x2="222.24" y2="41.52"/><line class="cls-15" x1="222.24" y1="39.84" x2="222.24" y2="37.92"/><line class="cls-15" x1="222.24" y1="36" x2="222.24" y2="34.08"/><line class="cls-15" x1="222.24" y1="32.4" x2="222.24" y2="30.24"/><line class="cls-15" x1="222.24" y1="28.56" x2="222.24" y2="26.4"/><line class="cls-15" x1="222.24" y1="24.72" x2="222.24" y2="22.56"/><line class="cls-15" x1="222.24" y1="20.88" x2="222.24" y2="18.72"/><line class="cls-15" x1="222.24" y1="17.04" x2="222.24" y2="14.88"/><line class="cls-15" x1="222.24" y1="13.2" x2="222.24" y2="11.04"/><polyline class="cls-15" points="222.24 9.36 222.24 7.68 221.04 7.68"/><line class="cls-15" x1="219.36" y1="7.68" x2="217.2" y2="7.68"/><line class="cls-15" x1="215.52" y1="7.68" x2="213.36" y2="7.68"/><line class="cls-15" x1="211.68" y1="7.68" x2="209.52" y2="7.68"/><line class="cls-15" x1="207.84" y1="7.68" x2="205.68" y2="7.68"/><line class="cls-15" x1="204" y1="7.68" x2="202.08" y2="7.68"/><line class="cls-15" x1="200.16" y1="7.68" x2="198.24" y2="7.68"/><line class="cls-15" x1="196.56" y1="7.68" x2="194.4" y2="7.68"/><line class="cls-15" x1="192.72" y1="7.68" x2="190.56" y2="7.68"/><line class="cls-15" x1="188.88" y1="7.68" x2="186.72" y2="7.68"/><line class="cls-15" x1="185.04" y1="7.68" x2="182.88" y2="7.68"/><line class="cls-15" x1="181.2" y1="7.68" x2="179.04" y2="7.68"/><line class="cls-15" x1="177.36" y1="7.68" x2="175.2" y2="7.68"/><line class="cls-15" x1="173.52" y1="7.68" x2="171.36" y2="7.68"/><line class="cls-15" x1="169.68" y1="7.68" x2="167.52" y2="7.68"/><line class="cls-15" x1="165.84" y1="7.68" x2="163.68" y2="7.68"/><line class="cls-15" x1="162" y1="7.68" x2="159.84" y2="7.68"/><line class="cls-15" x1="158.16" y1="7.68" x2="156" y2="7.68"/><line class="cls-15" x1="154.32" y1="7.68" x2="152.16" y2="7.68"/><line class="cls-15" x1="150.48" y1="7.68" x2="148.32" y2="7.68"/><line class="cls-15" x1="146.64" y1="7.68" x2="144.48" y2="7.68"/><line class="cls-15" x1="142.8" y1="7.68" x2="140.88" y2="7.68"/><line class="cls-15" x1="138.96" y1="7.68" x2="137.04" y2="7.68"/><line class="cls-15" x1="135.36" y1="7.68" x2="133.2" y2="7.68"/><line class="cls-15" x1="131.52" y1="7.68" x2="129.36" y2="7.68"/><line class="cls-15" x1="127.68" y1="7.68" x2="125.52" y2="7.68"/><line class="cls-15" x1="123.84" y1="7.68" x2="121.68" y2="7.68"/><line class="cls-15" x1="120" y1="7.68" x2="117.84" y2="7.68"/><line class="cls-15" x1="116.16" y1="7.68" x2="114" y2="7.68"/><line class="cls-15" x1="112.32" y1="7.68" x2="110.16" y2="7.68"/><line class="cls-15" x1="108.48" y1="7.68" x2="106.32" y2="7.68"/><line class="cls-15" x1="104.64" y1="7.68" x2="102.48" y2="7.68"/><line class="cls-15" x1="100.8" y1="7.68" x2="98.64" y2="7.68"/><line class="cls-15" x1="96.96" y1="7.68" x2="94.8" y2="7.68"/><line class="cls-15" x1="93.12" y1="7.68" x2="90.96" y2="7.68"/><line class="cls-15" x1="89.28" y1="7.68" x2="87.12" y2="7.68"/><line class="cls-15" x1="85.44" y1="7.68" x2="83.28" y2="7.68"/><line class="cls-15" x1="81.6" y1="7.68" x2="79.68" y2="7.68"/><line class="cls-15" x1="77.76" y1="7.68" x2="75.84" y2="7.68"/><line class="cls-15" x1="74.16" y1="7.68" x2="72" y2="7.68"/><line class="cls-15" x1="70.32" y1="7.68" x2="68.16" y2="7.68"/><line class="cls-15" x1="66.48" y1="7.68" x2="64.32" y2="7.68"/><line class="cls-15" x1="62.64" y1="7.68" x2="60.48" y2="7.68"/><line class="cls-15" x1="58.8" y1="7.68" x2="56.64" y2="7.68"/><line class="cls-15" x1="54.96" y1="7.68" x2="52.8" y2="7.68"/><line class="cls-15" x1="51.12" y1="7.68" x2="48.96" y2="7.68"/><line class="cls-15" x1="47.28" y1="7.68" x2="45.12" y2="7.68"/><line class="cls-15" x1="43.44" y1="7.68" x2="41.28" y2="7.68"/><line class="cls-15" x1="39.6" y1="7.68" x2="37.44" y2="7.68"/><line class="cls-15" x1="35.76" y1="7.68" x2="33.6" y2="7.68"/><line class="cls-15" x1="31.92" y1="7.68" x2="29.76" y2="7.68"/><line class="cls-15" x1="28.08" y1="7.68" x2="25.92" y2="7.68"/><line class="cls-15" x1="24.24" y1="7.68" x2="22.32" y2="7.68"/><line class="cls-15" x1="20.4" y1="7.68" x2="18.48" y2="7.68"/><line class="cls-15" x1="16.56" y1="7.68" x2="14.64" y2="7.68"/><line class="cls-15" x1="12.96" y1="7.68" x2="10.8" y2="7.68"/><polyline class="cls-15" points="9.12 7.68 7.92 7.68 7.92 9.36"/><line class="cls-15" x1="7.92" y1="11.04" x2="7.92" y2="13.2"/><line class="cls-15" x1="7.92" y1="14.88" x2="7.92" y2="17.04"/><line class="cls-15" x1="7.92" y1="18.72" x2="7.92" y2="20.88"/><line class="cls-15" x1="7.92" y1="22.56" x2="7.92" y2="24.72"/><line class="cls-15" x1="7.92" y1="26.4" x2="7.92" y2="28.56"/><line class="cls-15" x1="7.92" y1="30.24" x2="7.92" y2="32.4"/><line class="cls-15" x1="7.92" y1="34.08" x2="7.92" y2="36"/><line class="cls-15" x1="7.92" y1="37.92" x2="7.92" y2="39.84"/><line class="cls-15" x1="7.92" y1="41.52" x2="7.92" y2="43.68"/><line class="cls-15" x1="7.92" y1="45.36" x2="7.92" y2="47.52"/><line class="cls-15" x1="7.92" y1="49.2" x2="7.92" y2="51.36"/><line class="cls-15" x1="7.92" y1="53.04" x2="7.92" y2="55.2"/><line class="cls-15" x1="7.92" y1="56.88" x2="7.92" y2="59.04"/><line class="cls-15" x1="7.92" y1="60.72" x2="7.92" y2="62.88"/><line class="cls-15" x1="7.92" y1="64.56" x2="7.92" y2="66.72"/><line class="cls-15" x1="7.92" y1="68.4" x2="7.92" y2="70.56"/><line class="cls-15" x1="7.92" y1="72.24" x2="7.92" y2="74.4"/><line class="cls-15" x1="7.92" y1="76.08" x2="7.92" y2="78.24"/><line class="cls-15" x1="7.92" y1="79.92" x2="7.92" y2="82.08"/><line class="cls-15" x1="7.92" y1="83.76" x2="7.92" y2="85.92"/><line class="cls-15" x1="7.92" y1="87.6" x2="7.92" y2="89.76"/><line class="cls-15" x1="7.92" y1="91.44" x2="7.92" y2="93.36"/><line class="cls-15" x1="7.92" y1="95.28" x2="7.92" y2="97.2"/><line class="cls-15" x1="7.92" y1="99.12" x2="7.92" y2="101.04"/><line class="cls-15" x1="7.92" y1="102.72" x2="7.92" y2="104.88"/><line class="cls-15" x1="7.92" y1="106.56" x2="7.92" y2="108.72"/><line class="cls-15" x1="7.92" y1="110.4" x2="7.92" y2="112.56"/><line class="cls-15" x1="7.92" y1="114.24" x2="7.92" y2="116.4"/><line class="cls-15" x1="7.92" y1="118.08" x2="7.92" y2="120.24"/><line class="cls-15" x1="7.92" y1="121.92" x2="7.92" y2="124.08"/><line class="cls-15" x1="7.92" y1="125.76" x2="7.92" y2="127.92"/><line class="cls-15" x1="7.92" y1="129.6" x2="7.92" y2="131.76"/><line class="cls-15" x1="7.92" y1="133.44" x2="7.92" y2="135.6"/><line class="cls-15" x1="7.92" y1="137.28" x2="7.92" y2="139.44"/><line class="cls-15" x1="7.92" y1="141.12" x2="7.92" y2="143.28"/><line class="cls-15" x1="7.92" y1="144.96" x2="7.92" y2="147.12"/><line class="cls-15" x1="7.92" y1="148.8" x2="7.92" y2="150.96"/><line class="cls-15" x1="7.92" y1="152.64" x2="7.92" y2="154.56"/><line class="cls-15" x1="7.92" y1="156.48" x2="7.92" y2="158.4"/><line class="cls-15" x1="7.92" y1="160.08" x2="7.92" y2="162.24"/><line class="cls-15" x1="7.92" y1="163.92" x2="7.92" y2="166.08"/><line class="cls-15" x1="7.92" y1="167.76" x2="7.92" y2="169.92"/><line class="cls-15" x1="7.92" y1="171.6" x2="7.92" y2="173.76"/><line class="cls-15" x1="7.92" y1="175.44" x2="7.92" y2="177.6"/><line class="cls-15" x1="7.92" y1="179.28" x2="7.92" y2="181.44"/><line class="cls-15" x1="7.92" y1="183.12" x2="7.92" y2="185.28"/><line class="cls-15" x1="7.92" y1="186.96" x2="7.92" y2="189.12"/><line class="cls-15" x1="7.92" y1="190.8" x2="7.92" y2="192.96"/><line class="cls-15" x1="7.92" y1="194.64" x2="7.92" y2="196.8"/><line class="cls-15" x1="7.92" y1="198.48" x2="7.92" y2="200.64"/><line class="cls-15" x1="7.92" y1="202.32" x2="7.92" y2="204.48"/><line class="cls-15" x1="7.92" y1="206.16" x2="7.92" y2="208.32"/><line class="cls-15" x1="7.92" y1="210" x2="7.92" y2="212.16"/><line class="cls-15" x1="7.92" y1="213.84" x2="7.92" y2="215.76"/><line class="cls-15" x1="7.92" y1="217.68" x2="7.92" y2="219.6"/><line class="cls-15" x1="7.92" y1="221.28" x2="7.92" y2="223.44"/><line class="cls-15" x1="7.92" y1="225.12" x2="7.92" y2="227.28"/><line class="cls-15" x1="7.92" y1="228.96" x2="7.92" y2="231.12"/><line class="cls-15" x1="7.92" y1="232.8" x2="7.92" y2="234.96"/><line class="cls-15" x1="7.92" y1="236.64" x2="7.92" y2="238.8"/><line class="cls-15" x1="7.92" y1="240.48" x2="7.92" y2="242.64"/><line class="cls-15" x1="7.92" y1="244.32" x2="7.92" y2="246.48"/><line class="cls-15" x1="7.92" y1="248.16" x2="7.92" y2="250.32"/><line class="cls-15" x1="7.92" y1="252" x2="7.92" y2="254.16"/><line class="cls-15" x1="7.92" y1="255.84" x2="7.92" y2="258"/><line class="cls-15" x1="7.92" y1="259.68" x2="7.92" y2="261.84"/><line class="cls-15" x1="7.92" y1="263.52" x2="7.92" y2="265.68"/><line class="cls-15" x1="7.92" y1="267.36" x2="7.92" y2="269.52"/><line class="cls-15" x1="7.92" y1="271.2" x2="7.92" y2="273.36"/><line class="cls-15" x1="7.92" y1="275.04" x2="7.92" y2="276.96"/><line class="cls-15" x1="7.92" y1="278.88" x2="7.92" y2="280.8"/><line class="cls-15" x1="7.92" y1="282.48" x2="7.92" y2="284.64"/><line class="cls-15" x1="7.92" y1="286.32" x2="7.92" y2="288.48"/><line class="cls-15" x1="7.92" y1="290.16" x2="7.92" y2="292.32"/><line class="cls-15" x1="7.92" y1="294" x2="7.92" y2="295.68"/><polyline class="cls-16" points="154.8 287.28 156.24 287.52 157.68 287.76"/><polyline class="cls-16" points="176.16 287.28 174.72 287.52 173.28 287.76"/><line class="cls-16" x1="152.16" y1="284.16" x2="152.16" y2="284.64"/><polyline class="cls-16" points="152.16 284.16 151.92 282.48 152.16 281.04"/><polyline class="cls-16" points="154.8 287.28 153.12 286.32 152.16 284.64"/><line class="cls-16" x1="178.8" y1="284.16" x2="178.8" y2="284.64"/><polyline class="cls-16" points="178.8 284.16 179.04 282.48 178.8 281.04"/><polyline class="cls-16" points="176.16 287.28 177.84 286.32 178.8 284.64"/><line class="cls-15" x1="179.76" y1="295.68" x2="151.2" y2="295.68"/><polyline class="cls-15" points="180 278.16 178.56 275.76 176.4 273.84"/><polyline class="cls-15" points="180.96 283.2 180.72 280.56 180 278.16"/><polyline class="cls-15" points="179.76 295.68 180.72 289.44 180.96 282.96"/><polyline class="cls-15" points="150 282.96 150.24 289.44 151.2 295.68"/><polyline class="cls-15" points="171.6 270.96 168.48 270 165.6 269.76"/><polyline class="cls-15" points="176.4 273.84 174.24 272.16 171.6 270.96"/><polyline class="cls-15" points="150.96 278.16 150.24 280.56 150 283.2"/><polyline class="cls-15" points="154.56 273.84 152.64 275.76 150.96 278.16"/><polyline class="cls-15" points="159.36 270.96 156.72 272.16 154.56 273.84"/><polyline class="cls-15" points="165.6 269.76 162.48 270 159.36 270.96"/><polyline class="cls-16" points="150.96 294.48 180 294.48 180.72 288.72 180.96 282.96 180.72 280.56 180 278.16 178.56 275.76 176.4 273.84 174.24 272.16 171.6 270.96 168.48 270 165.6 269.76 162.48 270 159.36 270.96 156.72 272.16 154.56 273.84 152.64 275.76 150.96 278.16 150.24 280.56 150 282.96 150.24 288.72 150.96 294.48"/><polyline class="cls-16" points="139.92 295.68 191.04 295.68 191.04 294.48 139.92 294.48 139.92 295.68"/><line class="cls-15" x1="96.72" y1="174" x2="216.48" y2="174"/><polyline class="cls-15" points="94.08 171.36 94.8 173.28 96.72 174"/><line class="cls-15" x1="94.08" y1="120.72" x2="94.08" y2="171.36"/><polyline class="cls-15" points="96.72 118.08 94.8 118.8 94.08 120.72"/><line class="cls-15" x1="216.48" y1="118.08" x2="96.72" y2="118.08"/><polyline class="cls-15" points="219.12 120.72 218.4 118.8 216.48 118.08"/><line class="cls-15" x1="219.12" y1="171.36" x2="219.12" y2="120.72"/><polyline class="cls-15" points="216.48 174 218.4 173.28 219.12 171.36"/><polyline class="cls-16" points="187.68 118.08 187.68 119.28 215.04 119.28 215.04 118.08 187.68 118.08"/><polyline class="cls-16" points="101.52 172.8 101.52 174 141.84 174 141.84 172.8 101.52 172.8"/><polyline class="cls-16" points="187.92 172.8 187.92 174 215.28 174 215.28 172.8 187.92 172.8"/><line class="cls-16" x1="95.76" y1="168.72" x2="94.32" y2="168.72"/><line class="cls-16" x1="95.76" y1="123.36" x2="95.76" y2="168.72"/><line class="cls-16" x1="94.32" y1="123.36" x2="95.76" y2="123.36"/><line class="cls-16" x1="94.32" y1="168.72" x2="94.32" y2="123.36"/><line class="cls-16" x1="217.44" y1="168.48" x2="218.88" y2="168.48"/><line class="cls-16" x1="217.44" y1="123.36" x2="217.44" y2="168.48"/><line class="cls-16" x1="218.88" y1="123.36" x2="217.44" y2="123.36"/><line class="cls-16" x1="218.88" y1="168.48" x2="218.88" y2="123.36"/><line class="cls-16" x1="190.8" y1="122.88" x2="214.56" y2="122.88"/><line class="cls-16" x1="190.8" y1="169.44" x2="190.8" y2="122.88"/><line class="cls-16" x1="214.56" y1="169.44" x2="190.8" y2="169.44"/><line class="cls-16" x1="214.56" y1="122.88" x2="214.56" y2="169.44"/><line class="cls-16" x1="98.88" y1="171.84" x2="214.32" y2="171.84"/><polyline class="cls-16" points="96.24 169.2 96.96 171.12 98.88 171.84"/><line class="cls-16" x1="96.24" y1="122.88" x2="96.24" y2="169.2"/><polyline class="cls-16" points="98.88 120.24 96.96 120.96 96.24 122.88"/><line class="cls-16" x1="214.32" y1="120.24" x2="98.88" y2="120.24"/><polyline class="cls-16" points="216.96 122.88 216.24 120.96 214.32 120.24"/><line class="cls-16" x1="216.96" y1="169.2" x2="216.96" y2="122.88"/><polyline class="cls-16" points="214.32 171.84 216.24 171.12 216.96 169.2"/><polyline class="cls-16" points="219.12 171.36 219.12 120.72 219.12 120 218.88 119.28 218.4 118.8 217.68 118.32 217.2 118.08 216.48 118.08 96.72 118.08 96 118.08 95.52 118.32 94.8 118.8 94.32 119.28 94.08 120 94.08 120.72 94.08 171.36 94.08 172.08 94.32 172.8 94.8 173.28 95.52 173.76 96 174 96.72 174 216.48 174 217.2 174 217.68 173.76 218.4 173.28 218.88 172.8 219.12 172.08 219.12 171.36"/><polyline class="cls-15" points="70.32 299.04 71.04 291.36 73.68 284.16 77.76 277.92 83.04 272.4 89.52 268.32 96.72 265.92 104.4 264.96"/><polyline class="cls-15" points="101.52 299.04 101.52 264.96 104.4 264.96 104.4 299.04 101.52 299.04"/><polyline class="cls-15" points="70.32 299.04 69.6 290.16 67.2 281.52 63.36 273.6 58.32 266.16 52.08 259.92 44.88 254.88 36.72 251.04 28.08 248.88 19.2 247.92"/><polyline class="cls-15" points="22.08 299.04 22.08 247.92 19.2 247.92 19.2 299.04 22.08 299.04"/><polyline class="cls-15" points="104.4 295.68 19.2 295.68 19.2 302.4 104.4 302.4 104.4 295.68 19.2 295.68 19.2 302.4 104.4 302.4 104.4 295.68"/><line class="cls-17" x1="261.6" y1="4.32" x2="261.6" y2="299.04"/><line class="cls-18" x1="261.6" y1="299.04" x2="257.28" y2="294.72"/><line class="cls-18" x1="261.6" y1="299.04" x2="265.68" y2="303.36"/><line class="cls-17" x1="261.6" y1="299.04" x2="268.56" y2="299.04"/><line class="cls-17" x1="261.6" y1="299.04" x2="247.44" y2="299.04"/><line class="cls-18" x1="261.6" y1="4.32" x2="257.28" y2="0.24"/><line class="cls-18" x1="261.6" y1="4.32" x2="265.68" y2="8.64"/><line class="cls-17" x1="261.6" y1="4.32" x2="268.56" y2="4.32"/><line class="cls-17" x1="261.6" y1="4.32" x2="247.44" y2="4.32"/><rect class="cls-19" x="248.16" y="136.8" width="9.6" height="30"/><text class="cls-20" transform="translate(255.84 166.56) rotate(-90)">SP_<tspan class="cls-21" x="12.26" y="0">D</tspan><tspan x="17.06" y="0">ep</tspan><tspan class="cls-22" x="24.26" y="0">t</tspan><tspan class="cls-23" x="26.18" y="0">h</tspan></text><line class="cls-17" x1="4.56" y1="325.2" x2="225.6" y2="325.2"/><line class="cls-18" x1="225.6" y1="325.2" x2="221.28" y2="329.52"/><line class="cls-18" x1="225.6" y1="325.2" x2="229.92" y2="321.12"/><line class="cls-17" x1="225.6" y1="325.2" x2="225.6" y2="332.4"/><line class="cls-17" x1="225.6" y1="325.2" x2="225.6" y2="311.04"/><line class="cls-18" x1="4.56" y1="325.2" x2="0.24" y2="329.52"/><line class="cls-18" x1="4.56" y1="325.2" x2="8.88" y2="321.12"/><line class="cls-17" x1="4.56" y1="325.2" x2="4.56" y2="332.4"/><line class="cls-17" x1="4.56" y1="325.2" x2="4.56" y2="311.04"/><rect class="cls-19" x="100.56" y="311.76" width="28.56" height="8.88"/><text class="cls-24" transform="translate(100.56 318.96)"><tspan class="cls-25">SP_</tspan><tspan class="cls-26" x="12.26" y="0">W</tspan><tspan class="cls-27" x="18.27" y="0">i</tspan><tspan class="cls-25" x="19.72" y="0">d</tspan><tspan class="cls-28" x="23.32" y="0">t</tspan><tspan x="25" y="0">h</tspan></text><text class="cls-29" transform="translate(34.08 311.52) scale(1 1.01)">D<tspan class="cls-30" x="4.57" y="0">oo</tspan><tspan class="cls-31" x="12.24" y="0">r</tspan><tspan class="cls-32" x="14.4" y="0"> </tspan><tspan class="cls-33" x="16.31" y="0">1</tspan></text></g></g></svg>