<svg xmlns="http://www.w3.org/2000/svg" xmlns:xlink="http://www.w3.org/1999/xlink" viewBox="0 0 262.32 267.52"><defs><style>.cls-1,.cls-16,.cls-17,.cls-18,.cls-19,.cls-2{fill:none;}.cls-1{clip-rule:evenodd;}.cls-3{clip-path:url(#clip-path);}.cls-4{clip-path:url(#clip-path-2);}.cls-5{fill:#c6d3b4;}.cls-10,.cls-6{font-size:4.08px;font-family:ArialMT, Arial;}.cls-10,.cls-7{letter-spacing:-0.03em;}.cls-8{letter-spacing:0.02em;}.cls-9{letter-spacing:-0.09em;}.cls-11{letter-spacing:0em;}.cls-12{letter-spacing:0.02em;}.cls-13{letter-spacing:-0.03em;}.cls-14{letter-spacing:-0.04em;}.cls-15{letter-spacing:0em;}.cls-16,.cls-17{stroke:#000;}.cls-16,.cls-17,.cls-18,.cls-19{stroke-linecap:round;stroke-linejoin:round;}.cls-16,.cls-19{stroke-width:0.24px;}.cls-17,.cls-18{stroke-width:0.48px;}.cls-18,.cls-19{stroke:red;}.cls-20{fill:#fff;}.cls-21,.cls-30{font-size:8.05px;fill:red;font-family:ArialNarrow, Arial;}.cls-22{letter-spacing:-0.04em;}.cls-23{letter-spacing:-0.02em;}.cls-24{letter-spacing:0.01em;}.cls-25{letter-spacing:-0.02em;}.cls-26{letter-spacing:0.02em;}.cls-27,.cls-30{letter-spacing:-0.01em;}.cls-28{letter-spacing:-0.03em;}.cls-29{letter-spacing:0em;}.cls-31{letter-spacing:0em;}.cls-32{letter-spacing:0.01em;}.cls-33{letter-spacing:-0.04em;}.cls-34{letter-spacing:0em;}.cls-35{letter-spacing:0.01em;}.cls-36{letter-spacing:-0.04em;}.cls-37{letter-spacing:0.01em;}.cls-38{letter-spacing:0em;}.cls-39{letter-spacing:0em;}</style><clipPath id="clip-path" transform="translate(-581.14 -778.4)"><path class="cls-1" d="M675.34,844.2l-.48.24-.24.24-.48.24-.48.48-.24.72v52.32h.24v.48h.24l.24.24v.48h.48l.24.24.48.24,121.2.24v-.24l.72-.24.72-.72.48-1,.24-51.84h-.24v-.72l-1.2-1.2-.72-.24M588.22,787.8v251.28H682.3v-28.32l54-54h12.24v-1h11v-1.92h-.24V952h-.24V950h-.24v-2.88h-.24v-2.88l-.24-.24.24-1.2.24-1.44.48-1.44.24-1,.24-.24.24-.48.24-.24.24-.48.24-.24.24-.48,1.68-1.68.24-.48.48-.24.24-.24.48-.24.24-.24.48-.24.48-.48.72-.24,1.92-1,1.2-.24,1.92-.48h6l1.2.24,1.92.48.72.24,2.4,1.2.48.48.48.24,2.64,2.64v.48h.24l.72.72v.48h.24l.48.48v.48h.24V940h.24v1h.24v1h.24l-.24,7.92-.72,5.76,11,.24v1h2.88v-149H768.46V787.8Z"/></clipPath><clipPath id="clip-path-2" transform="translate(-581.14 -778.4)"><rect class="cls-2" width="1684.08" height="1191.12"/></clipPath></defs><title>PushIt - Floor Plan - SP-Room-Bed_Sample_2</title><g id="Layer_2" data-name="Layer 2"><g id="Layer_1-2" data-name="Layer 1"><g class="cls-3"><g class="cls-4"><rect class="cls-5" x="7.08" y="9.4" width="214.32" height="251.28"/></g></g><text class="cls-6" transform="translate(123.24 129.4)">?</text><text class="cls-6" transform="translate(113.64 142.12)"><tspan class="cls-7">3900</tspan><tspan class="cls-8" x="8.64" y="0"> </tspan><tspan class="cls-9" x="9.84" y="0">x</tspan><tspan class="cls-8" x="11.52" y="0"> </tspan><tspan class="cls-7" x="12.72" y="0">455</tspan><tspan x="19.2" y="0">0</tspan></text><text class="cls-10" transform="translate(121.08 133.72)">5<tspan class="cls-8" x="2.16" y="0">.</tspan><tspan x="3.36" y="0">5</tspan><tspan class="cls-11" x="5.52" y="0">0</tspan></text><text class="cls-10" transform="translate(112.44 137.8)">15<tspan class="cls-12" x="4.32" y="0">.</tspan><tspan class="cls-13" x="5.52" y="0">09</tspan><tspan class="cls-8" x="9.84" y="0"> </tspan><tspan class="cls-14" x="11.04" y="0">(</tspan><tspan x="12.24" y="0">14</tspan><tspan class="cls-8" x="16.55" y="0">.</tspan><tspan x="17.75" y="0">09</tspan><tspan class="cls-15" x="22.07" y="0">)</tspan></text><text class="cls-6" transform="translate(123.24 125.08)">?</text><polyline class="cls-16" points="228.12 2.68 0.12 2.68 0.12 267.4 107.88 267.4 107.88 235.48 158.04 185.32 228.12 185.32 228.12 2.68"/><polyline class="cls-16" points="101.16 260.68 7.08 260.68 7.08 9.4 221.4 9.4 221.4 178.36 155.16 178.36 101.16 232.6 101.16 260.68"/><line class="cls-16" x1="7.08" y1="9.4" x2="7.08" y2="11.8"/><line class="cls-16" x1="7.08" y1="13.48" x2="7.08" y2="15.64"/><line class="cls-16" x1="7.08" y1="17.32" x2="7.08" y2="19.48"/><line class="cls-16" x1="7.08" y1="21.16" x2="7.08" y2="23.32"/><line class="cls-16" x1="7.08" y1="25" x2="7.08" y2="27.16"/><line class="cls-16" x1="7.08" y1="28.84" x2="7.08" y2="30.76"/><line class="cls-16" x1="7.08" y1="32.68" x2="7.08" y2="34.6"/><line class="cls-16" x1="7.08" y1="36.28" x2="7.08" y2="38.44"/><line class="cls-16" x1="7.08" y1="40.12" x2="7.08" y2="42.28"/><line class="cls-16" x1="7.08" y1="43.96" x2="7.08" y2="46.12"/><line class="cls-16" x1="7.08" y1="47.8" x2="7.08" y2="49.96"/><line class="cls-16" x1="7.08" y1="51.64" x2="7.08" y2="53.8"/><line class="cls-16" x1="7.08" y1="55.48" x2="7.08" y2="57.64"/><line class="cls-16" x1="7.08" y1="59.32" x2="7.08" y2="61.48"/><line class="cls-16" x1="7.08" y1="63.16" x2="7.08" y2="65.32"/><line class="cls-16" x1="7.08" y1="67" x2="7.08" y2="69.16"/><line class="cls-16" x1="7.08" y1="70.84" x2="7.08" y2="73"/><line class="cls-16" x1="7.08" y1="74.68" x2="7.08" y2="76.84"/><line class="cls-16" x1="7.08" y1="78.52" x2="7.08" y2="80.68"/><line class="cls-16" x1="7.08" y1="82.36" x2="7.08" y2="84.52"/><line class="cls-16" x1="7.08" y1="86.2" x2="7.08" y2="88.36"/><line class="cls-16" x1="7.08" y1="90.04" x2="7.08" y2="92.2"/><line class="cls-16" x1="7.08" y1="93.88" x2="7.08" y2="96.04"/><line class="cls-16" x1="7.08" y1="97.72" x2="7.08" y2="99.64"/><line class="cls-16" x1="7.08" y1="101.56" x2="7.08" y2="103.48"/><line class="cls-16" x1="7.08" y1="105.4" x2="7.08" y2="107.32"/><line class="cls-16" x1="7.08" y1="109" x2="7.08" y2="111.16"/><line class="cls-16" x1="7.08" y1="112.84" x2="7.08" y2="115"/><line class="cls-16" x1="7.08" y1="116.68" x2="7.08" y2="118.84"/><line class="cls-16" x1="7.08" y1="120.52" x2="7.08" y2="122.68"/><line class="cls-16" x1="7.08" y1="124.36" x2="7.08" y2="126.52"/><line class="cls-16" x1="7.08" y1="128.2" x2="7.08" y2="130.36"/><line class="cls-16" x1="7.08" y1="132.04" x2="7.08" y2="134.2"/><line class="cls-16" x1="7.08" y1="135.88" x2="7.08" y2="138.04"/><line class="cls-16" x1="7.08" y1="139.72" x2="7.08" y2="141.88"/><line class="cls-16" x1="7.08" y1="143.56" x2="7.08" y2="145.72"/><line class="cls-16" x1="7.08" y1="147.4" x2="7.08" y2="149.56"/><line class="cls-16" x1="7.08" y1="151.24" x2="7.08" y2="153.4"/><line class="cls-16" x1="7.08" y1="155.08" x2="7.08" y2="157.24"/><line class="cls-16" x1="7.08" y1="158.92" x2="7.08" y2="161.08"/><line class="cls-16" x1="7.08" y1="162.76" x2="7.08" y2="164.92"/><line class="cls-16" x1="7.08" y1="166.6" x2="7.08" y2="168.76"/><line class="cls-16" x1="7.08" y1="170.44" x2="7.08" y2="172.36"/><line class="cls-16" x1="7.08" y1="174.28" x2="7.08" y2="176.2"/><line class="cls-16" x1="7.08" y1="177.88" x2="7.08" y2="180.04"/><line class="cls-16" x1="7.08" y1="181.72" x2="7.08" y2="183.88"/><line class="cls-16" x1="7.08" y1="185.56" x2="7.08" y2="187.72"/><line class="cls-16" x1="7.08" y1="189.4" x2="7.08" y2="191.56"/><line class="cls-16" x1="7.08" y1="193.24" x2="7.08" y2="195.4"/><line class="cls-16" x1="7.08" y1="197.08" x2="7.08" y2="199.24"/><line class="cls-16" x1="7.08" y1="200.92" x2="7.08" y2="203.08"/><line class="cls-16" x1="7.08" y1="204.76" x2="7.08" y2="206.92"/><line class="cls-16" x1="7.08" y1="208.6" x2="7.08" y2="210.76"/><line class="cls-16" x1="7.08" y1="212.44" x2="7.08" y2="214.6"/><line class="cls-16" x1="7.08" y1="216.28" x2="7.08" y2="218.44"/><line class="cls-16" x1="7.08" y1="220.13" x2="7.08" y2="222.28"/><line class="cls-16" x1="7.08" y1="223.97" x2="7.08" y2="226.13"/><line class="cls-16" x1="7.08" y1="227.81" x2="7.08" y2="229.97"/><line class="cls-16" x1="7.08" y1="231.65" x2="7.08" y2="233.81"/><line class="cls-16" x1="7.08" y1="235.49" x2="7.08" y2="237.65"/><line class="cls-16" x1="7.08" y1="239.33" x2="7.08" y2="241.25"/><line class="cls-16" x1="7.08" y1="243.17" x2="7.08" y2="245.09"/><line class="cls-16" x1="7.08" y1="247.01" x2="7.08" y2="248.93"/><line class="cls-16" x1="7.08" y1="250.61" x2="7.08" y2="252.77"/><line class="cls-16" x1="7.08" y1="254.45" x2="7.08" y2="256.6"/><polyline class="cls-16" points="7.08 258.29 7.08 260.69 9.24 260.69"/><line class="cls-16" x1="10.92" y1="260.69" x2="13.08" y2="260.69"/><line class="cls-16" x1="14.76" y1="260.69" x2="16.92" y2="260.69"/><line class="cls-16" x1="18.6" y1="260.69" x2="20.76" y2="260.69"/><line class="cls-16" x1="22.44" y1="260.69" x2="24.6" y2="260.69"/><line class="cls-16" x1="26.28" y1="260.69" x2="28.2" y2="260.69"/><line class="cls-16" x1="30.12" y1="260.69" x2="32.04" y2="260.69"/><line class="cls-16" x1="33.72" y1="260.69" x2="35.88" y2="260.69"/><line class="cls-16" x1="37.56" y1="260.69" x2="39.72" y2="260.69"/><line class="cls-16" x1="41.4" y1="260.69" x2="43.56" y2="260.69"/><line class="cls-16" x1="45.24" y1="260.69" x2="47.4" y2="260.69"/><line class="cls-16" x1="49.08" y1="260.69" x2="51.24" y2="260.69"/><line class="cls-16" x1="52.92" y1="260.69" x2="55.08" y2="260.69"/><line class="cls-16" x1="56.76" y1="260.69" x2="58.92" y2="260.69"/><line class="cls-16" x1="60.6" y1="260.69" x2="62.76" y2="260.69"/><line class="cls-16" x1="64.44" y1="260.69" x2="66.6" y2="260.69"/><line class="cls-16" x1="68.28" y1="260.69" x2="70.44" y2="260.69"/><line class="cls-16" x1="72.12" y1="260.69" x2="74.28" y2="260.69"/><line class="cls-16" x1="75.96" y1="260.69" x2="78.12" y2="260.69"/><line class="cls-16" x1="79.8" y1="260.69" x2="81.96" y2="260.69"/><line class="cls-16" x1="83.64" y1="260.69" x2="85.8" y2="260.69"/><line class="cls-16" x1="87.48" y1="260.69" x2="89.64" y2="260.69"/><line class="cls-16" x1="91.32" y1="260.69" x2="93.48" y2="260.69"/><line class="cls-16" x1="95.16" y1="260.69" x2="97.08" y2="260.69"/><polyline class="cls-16" points="99 260.69 101.16 260.69 101.16 259"/><line class="cls-16" x1="101.16" y1="257.33" x2="101.16" y2="255.17"/><line class="cls-16" x1="101.16" y1="253.49" x2="101.16" y2="251.33"/><line class="cls-16" x1="101.16" y1="249.65" x2="101.16" y2="247.49"/><line class="cls-16" x1="101.16" y1="245.81" x2="101.16" y2="243.65"/><line class="cls-16" x1="101.16" y1="241.97" x2="101.16" y2="239.81"/><line class="cls-16" x1="101.16" y1="238.13" x2="101.16" y2="235.97"/><polyline class="cls-16" points="101.16 234.28 101.16 232.6 101.88 231.88"/><line class="cls-16" x1="103.08" y1="230.69" x2="104.52" y2="229.01"/><line class="cls-16" x1="105.72" y1="227.81" x2="107.16" y2="226.37"/><line class="cls-16" x1="108.36" y1="225.17" x2="110.04" y2="223.73"/><line class="cls-16" x1="111.24" y1="222.53" x2="112.68" y2="221.09"/><line class="cls-16" x1="113.88" y1="219.89" x2="115.32" y2="218.21"/><line class="cls-16" x1="116.52" y1="217.01" x2="118.2" y2="215.57"/><line class="cls-16" x1="119.4" y1="214.37" x2="120.84" y2="212.93"/><line class="cls-16" x1="122.04" y1="211.73" x2="123.48" y2="210.29"/><line class="cls-16" x1="124.68" y1="208.85" x2="126.12" y2="207.41"/><line class="cls-16" x1="127.32" y1="206.21" x2="129" y2="204.77"/><line class="cls-16" x1="130.2" y1="203.57" x2="131.64" y2="202.13"/><line class="cls-16" x1="132.84" y1="200.92" x2="134.28" y2="199.24"/><line class="cls-16" x1="135.48" y1="198.04" x2="136.92" y2="196.6"/><line class="cls-16" x1="138.36" y1="195.4" x2="139.8" y2="193.96"/><line class="cls-16" x1="141" y1="192.76" x2="142.44" y2="191.32"/><line class="cls-16" x1="143.64" y1="190.12" x2="145.08" y2="188.44"/><line class="cls-16" x1="146.28" y1="187.24" x2="147.96" y2="185.8"/><line class="cls-16" x1="149.16" y1="184.6" x2="150.6" y2="183.16"/><line class="cls-16" x1="151.8" y1="181.96" x2="153.24" y2="180.28"/><polyline class="cls-16" points="154.44 179.09 155.16 178.37 156.6 178.37"/><line class="cls-16" x1="158.28" y1="178.36" x2="160.44" y2="178.36"/><line class="cls-16" x1="162.12" y1="178.36" x2="164.28" y2="178.36"/><line class="cls-16" x1="165.96" y1="178.36" x2="167.4" y2="178.36"/><polyline class="cls-16" points="218.52 178.37 221.4 178.37 221.4 175.49"/><line class="cls-16" x1="221.4" y1="173.8" x2="221.4" y2="171.64"/><line class="cls-16" x1="221.4" y1="169.96" x2="221.4" y2="167.8"/><line class="cls-16" x1="221.4" y1="166.12" x2="221.4" y2="163.96"/><line class="cls-16" x1="221.4" y1="162.28" x2="221.4" y2="160.12"/><line class="cls-16" x1="221.4" y1="158.44" x2="221.4" y2="156.28"/><line class="cls-16" x1="221.4" y1="154.6" x2="221.4" y2="152.44"/><line class="cls-16" x1="221.4" y1="150.76" x2="221.4" y2="148.84"/><line class="cls-16" x1="221.4" y1="146.92" x2="221.4" y2="145"/><line class="cls-16" x1="221.4" y1="143.08" x2="221.4" y2="141.16"/><line class="cls-16" x1="221.4" y1="139.48" x2="221.4" y2="137.32"/><line class="cls-16" x1="221.4" y1="135.64" x2="221.4" y2="133.48"/><line class="cls-16" x1="221.4" y1="131.8" x2="221.4" y2="129.64"/><line class="cls-16" x1="221.4" y1="127.96" x2="221.4" y2="125.8"/><line class="cls-16" x1="221.4" y1="124.12" x2="221.4" y2="121.96"/><line class="cls-16" x1="221.4" y1="120.28" x2="221.4" y2="118.12"/><line class="cls-16" x1="221.4" y1="116.44" x2="221.4" y2="114.28"/><line class="cls-16" x1="221.4" y1="112.6" x2="221.4" y2="110.44"/><line class="cls-16" x1="221.4" y1="108.76" x2="221.4" y2="106.6"/><line class="cls-16" x1="221.4" y1="104.92" x2="221.4" y2="102.76"/><line class="cls-16" x1="221.4" y1="101.08" x2="221.4" y2="98.92"/><line class="cls-16" x1="221.4" y1="97.24" x2="221.4" y2="95.08"/><line class="cls-16" x1="221.4" y1="93.4" x2="221.4" y2="91.24"/><line class="cls-16" x1="221.4" y1="89.56" x2="221.4" y2="87.4"/><line class="cls-16" x1="221.4" y1="85.72" x2="221.4" y2="83.56"/><line class="cls-16" x1="221.4" y1="81.88" x2="221.4" y2="79.96"/><line class="cls-16" x1="221.4" y1="78.04" x2="221.4" y2="76.12"/><line class="cls-16" x1="221.4" y1="74.2" x2="221.4" y2="72.28"/><line class="cls-16" x1="221.4" y1="70.6" x2="221.4" y2="68.44"/><line class="cls-16" x1="221.4" y1="66.76" x2="221.4" y2="64.6"/><line class="cls-16" x1="221.4" y1="62.92" x2="221.4" y2="60.76"/><line class="cls-16" x1="221.4" y1="59.08" x2="221.4" y2="56.92"/><line class="cls-16" x1="221.4" y1="55.24" x2="221.4" y2="53.08"/><line class="cls-16" x1="221.4" y1="51.4" x2="221.4" y2="49.24"/><line class="cls-16" x1="221.4" y1="47.56" x2="221.4" y2="45.4"/><line class="cls-16" x1="221.4" y1="43.72" x2="221.4" y2="41.56"/><line class="cls-16" x1="221.4" y1="39.88" x2="221.4" y2="37.72"/><line class="cls-16" x1="221.4" y1="36.04" x2="221.4" y2="33.88"/><line class="cls-16" x1="221.4" y1="32.2" x2="221.4" y2="29.32"/><line class="cls-16" x1="187.32" y1="9.4" x2="185.88" y2="9.4"/><line class="cls-16" x1="184.2" y1="9.4" x2="182.28" y2="9.4"/><line class="cls-16" x1="180.36" y1="9.4" x2="178.44" y2="9.4"/><line class="cls-16" x1="176.76" y1="9.4" x2="174.6" y2="9.4"/><line class="cls-16" x1="172.92" y1="9.4" x2="170.76" y2="9.4"/><line class="cls-16" x1="169.08" y1="9.4" x2="166.92" y2="9.4"/><line class="cls-16" x1="165.24" y1="9.4" x2="163.08" y2="9.4"/><line class="cls-16" x1="161.4" y1="9.4" x2="159.24" y2="9.4"/><line class="cls-16" x1="157.56" y1="9.4" x2="155.4" y2="9.4"/><line class="cls-16" x1="153.72" y1="9.4" x2="151.56" y2="9.4"/><line class="cls-16" x1="149.88" y1="9.4" x2="147.72" y2="9.4"/><line class="cls-16" x1="146.04" y1="9.4" x2="143.88" y2="9.4"/><line class="cls-16" x1="142.2" y1="9.4" x2="140.04" y2="9.4"/><line class="cls-16" x1="138.36" y1="9.4" x2="136.2" y2="9.4"/><line class="cls-16" x1="134.52" y1="9.4" x2="132.36" y2="9.4"/><line class="cls-16" x1="130.68" y1="9.4" x2="128.52" y2="9.4"/><line class="cls-16" x1="126.84" y1="9.4" x2="124.68" y2="9.4"/><line class="cls-16" x1="123" y1="9.4" x2="120.84" y2="9.4"/><line class="cls-16" x1="119.16" y1="9.4" x2="117" y2="9.4"/><line class="cls-16" x1="115.32" y1="9.4" x2="113.4" y2="9.4"/><line class="cls-16" x1="111.48" y1="9.4" x2="109.56" y2="9.4"/><line class="cls-16" x1="107.64" y1="9.4" x2="105.72" y2="9.4"/><line class="cls-16" x1="104.04" y1="9.4" x2="101.88" y2="9.4"/><line class="cls-16" x1="100.2" y1="9.4" x2="98.04" y2="9.4"/><line class="cls-16" x1="96.36" y1="9.4" x2="94.2" y2="9.4"/><line class="cls-16" x1="92.52" y1="9.4" x2="90.36" y2="9.4"/><line class="cls-16" x1="88.68" y1="9.4" x2="86.52" y2="9.4"/><line class="cls-16" x1="84.84" y1="9.4" x2="82.68" y2="9.4"/><line class="cls-16" x1="81" y1="9.4" x2="78.84" y2="9.4"/><line class="cls-16" x1="77.16" y1="9.4" x2="75" y2="9.4"/><line class="cls-16" x1="73.32" y1="9.4" x2="71.16" y2="9.4"/><line class="cls-16" x1="69.48" y1="9.4" x2="67.32" y2="9.4"/><line class="cls-16" x1="65.64" y1="9.4" x2="63.48" y2="9.4"/><line class="cls-16" x1="61.8" y1="9.4" x2="59.64" y2="9.4"/><line class="cls-16" x1="57.96" y1="9.4" x2="55.8" y2="9.4"/><line class="cls-16" x1="54.12" y1="9.4" x2="51.96" y2="9.4"/><line class="cls-16" x1="50.28" y1="9.4" x2="48.12" y2="9.4"/><line class="cls-16" x1="46.44" y1="9.4" x2="44.28" y2="9.4"/><line class="cls-16" x1="42.6" y1="9.4" x2="40.68" y2="9.4"/><line class="cls-16" x1="38.76" y1="9.4" x2="36.84" y2="9.4"/><line class="cls-16" x1="35.16" y1="9.4" x2="33" y2="9.4"/><line class="cls-16" x1="31.32" y1="9.4" x2="29.16" y2="9.4"/><line class="cls-16" x1="27.48" y1="9.4" x2="25.32" y2="9.4"/><line class="cls-16" x1="23.64" y1="9.4" x2="21.48" y2="9.4"/><line class="cls-16" x1="19.8" y1="9.4" x2="17.64" y2="9.4"/><line class="cls-16" x1="15.96" y1="9.4" x2="13.8" y2="9.4"/><line class="cls-16" x1="12.12" y1="9.4" x2="9.96" y2="9.4"/><line class="cls-16" x1="8.28" y1="9.4" x2="7.08" y2="9.4"/><line class="cls-16" x1="94.92" y1="121.96" x2="214.68" y2="121.96"/><polyline class="cls-16" points="92.28 119.08 93 121.24 94.92 121.96"/><line class="cls-16" x1="92.28" y1="68.68" x2="92.28" y2="119.08"/><polyline class="cls-16" points="94.92 65.8 93 66.76 92.28 68.68"/><line class="cls-16" x1="214.68" y1="65.8" x2="94.92" y2="65.8"/><polyline class="cls-16" points="217.56 68.68 216.6 66.76 214.68 65.8"/><line class="cls-16" x1="217.56" y1="119.08" x2="217.56" y2="68.68"/><polyline class="cls-16" points="214.68 121.96 216.6 121.24 217.56 119.08"/><polyline class="cls-17" points="185.88 65.8 185.88 67.24 213.48 67.24 213.48 65.8 185.88 65.8"/><polyline class="cls-17" points="99.72 120.76 99.72 121.96 140.04 121.96 140.04 120.76 99.72 120.76"/><polyline class="cls-17" points="186.12 120.76 186.12 121.96 213.48 121.96 213.48 120.76 186.12 120.76"/><line class="cls-17" x1="93.96" y1="116.68" x2="92.52" y2="116.68"/><line class="cls-17" x1="93.96" y1="71.32" x2="93.96" y2="116.68"/><line class="cls-17" x1="92.52" y1="71.32" x2="93.96" y2="71.32"/><line class="cls-17" x1="92.52" y1="116.68" x2="92.52" y2="71.32"/><line class="cls-17" x1="215.64" y1="116.44" x2="217.08" y2="116.44"/><line class="cls-17" x1="215.64" y1="71.32" x2="215.64" y2="116.44"/><line class="cls-17" x1="217.08" y1="71.32" x2="215.64" y2="71.32"/><line class="cls-17" x1="217.08" y1="116.44" x2="217.08" y2="71.32"/><line class="cls-17" x1="189" y1="70.84" x2="212.76" y2="70.84"/><line class="cls-17" x1="189" y1="117.4" x2="189" y2="70.84"/><line class="cls-17" x1="212.76" y1="117.4" x2="189" y2="117.4"/><line class="cls-17" x1="212.76" y1="70.84" x2="212.76" y2="117.4"/><line class="cls-17" x1="97.08" y1="119.8" x2="212.52" y2="119.8"/><polyline class="cls-17" points="94.44 116.92 95.16 119.08 97.08 119.8"/><line class="cls-17" x1="94.44" y1="70.84" x2="94.44" y2="116.92"/><polyline class="cls-17" points="97.08 67.96 95.16 68.92 94.44 70.84"/><line class="cls-17" x1="212.52" y1="67.96" x2="97.08" y2="67.96"/><polyline class="cls-17" points="215.4 70.84 214.44 68.92 212.52 67.96"/><line class="cls-17" x1="215.4" y1="116.92" x2="215.4" y2="70.84"/><polyline class="cls-17" points="212.52 119.8 214.44 119.08 215.4 116.92"/><polyline class="cls-17" points="217.56 119.08 217.56 68.68 217.32 67.96 217.08 67.24 216.6 66.76 216.12 66.28 215.4 66.04 214.68 65.8 94.92 65.8 94.2 66.04 93.72 66.28 93 66.76 92.52 67.24 92.28 67.96 92.28 68.68 92.28 119.08 92.28 120.04 92.52 120.52 93 121.24 93.72 121.72 94.2 121.96 94.92 121.96 214.68 121.96 215.4 121.96 216.12 121.72 216.6 121.24 217.08 120.52 217.32 120.04 217.56 119.08"/><polyline class="cls-17" points="182.28 170.2 183.72 170.44 185.16 170.44"/><polyline class="cls-17" points="203.64 170.2 202.2 170.44 200.76 170.44"/><line class="cls-17" x1="179.64" y1="166.84" x2="179.64" y2="167.56"/><polyline class="cls-17" points="179.64 166.84 179.4 165.4 179.64 163.72"/><polyline class="cls-17" points="182.28 170.2 180.6 169.24 179.64 167.56"/><line class="cls-17" x1="206.28" y1="166.84" x2="206.28" y2="167.56"/><polyline class="cls-17" points="206.28 166.84 206.52 165.4 206.28 163.72"/><polyline class="cls-17" points="203.64 170.2 205.32 169.24 206.28 167.56"/><line class="cls-16" x1="207.24" y1="178.36" x2="178.68" y2="178.36"/><polyline class="cls-16" points="207.48 160.84 205.8 158.68 203.88 156.52"/><polyline class="cls-16" points="208.44 165.88 208.2 163.48 207.48 160.84"/><polyline class="cls-16" points="207.24 178.36 208.2 172.12 208.44 165.88"/><polyline class="cls-16" points="177.24 165.88 177.72 172.12 178.68 178.36"/><polyline class="cls-16" points="199.08 153.64 195.96 152.92 192.84 152.68"/><polyline class="cls-16" points="203.88 156.52 201.72 154.84 199.08 153.64"/><polyline class="cls-16" points="178.44 160.84 177.72 163.48 177.24 165.88"/><polyline class="cls-16" points="181.8 156.52 179.88 158.68 178.44 160.84"/><polyline class="cls-16" points="186.84 153.64 184.2 154.84 181.8 156.52"/><polyline class="cls-16" points="192.84 152.68 189.96 152.92 186.84 153.64"/><polyline class="cls-17" points="178.44 177.4 207.48 177.4 208.2 171.64 208.44 165.88 208.2 163.24 207.48 160.84 205.8 158.68 203.88 156.52 201.72 154.84 199.08 153.64 195.96 152.92 192.84 152.68 189.96 152.92 186.84 153.64 184.2 154.84 181.8 156.52 179.88 158.68 178.44 160.84 177.72 163.24 177.24 165.88 177.72 171.64 178.44 177.4"/><polyline class="cls-17" points="167.4 178.36 218.52 178.36 218.52 177.4 167.4 177.4 167.4 178.36"/><polyline class="cls-16" points="170.28 9.4 187.32 9.4 221.4 9.4"/><line class="cls-16" x1="187.32" y1="29.32" x2="221.4" y2="29.32"/><line class="cls-16" x1="187.32" y1="9.4" x2="221.4" y2="9.4"/><line class="cls-16" x1="187.32" y1="29.32" x2="187.32" y2="9.4"/><line class="cls-16" x1="221.4" y1="29.32" x2="221.4" y2="9.4"/><polyline class="cls-17" points="187.32 29.32 221.4 29.32 221.4 9.4 187.32 9.4 187.32 29.32"/><line class="cls-17" x1="187.32" y1="9.4" x2="221.4" y2="9.4"/><polyline class="cls-17" points="167.4 9.4 168.12 14.68 170.04 19.48 173.16 23.56 177.24 26.68 182.04 28.6 187.32 29.32 221.4 29.32"/><line class="cls-17" x1="187.32" y1="9.4" x2="187.32" y2="29.32"/><line class="cls-17" x1="221.4" y1="9.4" x2="221.4" y2="29.32"/><line class="cls-17" x1="167.4" y1="9.4" x2="187.32" y2="9.4"/><polyline class="cls-16" points="67.32 264.04 68.28 256.36 70.68 249.16 74.76 242.92 80.28 237.4 86.52 233.32 93.72 230.92 101.4 229.96"/><polyline class="cls-16" points="98.52 264.04 98.52 229.96 101.4 229.96 101.4 264.04 98.52 264.04"/><polyline class="cls-16" points="67.32 264.04 66.6 254.2 63.96 244.6 59.64 235.48 54.12 227.32 46.92 220.36 38.76 214.6 29.88 210.52 20.28 207.88 10.44 207.16"/><polyline class="cls-16" points="13.32 264.04 13.32 207.16 10.44 207.16 10.44 264.04 13.32 264.04"/><polyline class="cls-16" points="101.4 260.68 10.44 260.68 10.44 267.4 101.4 267.4 101.4 260.68 10.44 260.68 10.44 267.4 101.4 267.4 101.4 260.68"/><line class="cls-18" x1="138.6" y1="93.88" x2="149.88" y2="93.88"/><line class="cls-18" x1="161.16" y1="93.88" x2="172.44" y2="93.88"/><line class="cls-18" x1="183.96" y1="93.88" x2="195.24" y2="93.88"/><line class="cls-18" x1="206.52" y1="93.88" x2="217.8" y2="93.88"/><line class="cls-18" x1="229.32" y1="93.88" x2="240.6" y2="93.88"/><line class="cls-19" x1="192.84" y1="210.52" x2="221.4" y2="210.52"/><line class="cls-18" x1="221.4" y1="210.52" x2="217.08" y2="214.84"/><line class="cls-18" x1="221.4" y1="210.52" x2="225.48" y2="206.2"/><line class="cls-19" x1="221.4" y1="210.52" x2="221.4" y2="217.72"/><line class="cls-19" x1="221.4" y1="210.52" x2="221.4" y2="196.36"/><line class="cls-18" x1="192.84" y1="210.52" x2="188.76" y2="214.84"/><line class="cls-18" x1="192.84" y1="210.52" x2="197.16" y2="206.2"/><line class="cls-19" x1="192.84" y1="210.52" x2="192.84" y2="217.72"/><line class="cls-19" x1="192.84" y1="210.52" x2="192.84" y2="196.36"/><rect class="cls-20" x="189" y="197.08" width="36" height="8.88"/><text class="cls-21" transform="translate(189 204.28)"><tspan class="cls-22">O</tspan><tspan class="cls-23" x="4.8" y="0">f</tspan><tspan class="cls-24" x="6.49" y="0">f</tspan><tspan class="cls-25" x="8.4" y="0">s</tspan><tspan class="cls-26" x="11.53" y="0">e</tspan><tspan class="cls-23" x="15.36" y="0">t</tspan><tspan class="cls-27" x="17.05" y="0">_</tspan><tspan x="20.65" y="0">W</tspan><tspan class="cls-28" x="26.88" y="0">H</tspan><tspan class="cls-29" x="31.45" y="0">B</tspan></text><line class="cls-19" x1="255.24" y1="9.4" x2="255.24" y2="93.88"/><line class="cls-18" x1="255.24" y1="93.88" x2="250.92" y2="89.8"/><line class="cls-18" x1="255.24" y1="93.88" x2="259.32" y2="98.2"/><line class="cls-19" x1="255.24" y1="93.88" x2="262.2" y2="93.88"/><line class="cls-19" x1="255.24" y1="93.88" x2="241.08" y2="93.88"/><line class="cls-18" x1="255.24" y1="9.4" x2="250.92" y2="5.32"/><line class="cls-18" x1="255.24" y1="9.4" x2="259.32" y2="13.72"/><line class="cls-19" x1="255.24" y1="9.4" x2="262.2" y2="9.4"/><line class="cls-19" x1="255.24" y1="9.4" x2="241.08" y2="9.4"/><rect class="cls-20" x="241.8" y="0.04" width="9.6" height="103.44"/><text class="cls-30" transform="translate(249.48 103.24) rotate(-90)">Graph<tspan class="cls-31" x="18" y="0">i</tspan><tspan class="cls-32" x="19.44" y="0">c</tspan><tspan class="cls-33" x="22.79" y="0">_</tspan><tspan x="26.16" y="0">S</tspan><tspan class="cls-34" x="30.49" y="0">i</tspan><tspan x="31.93" y="0">ng</tspan><tspan class="cls-31" x="39.13" y="0">l</tspan><tspan x="40.58" y="0">eB</tspan><tspan class="cls-33" x="48.51" y="0">e</tspan><tspan x="51.88" y="0">d_O</tspan><tspan class="cls-24" x="64.14" y="0">ff</tspan><tspan class="cls-35" x="67.98" y="0">s</tspan><tspan class="cls-36" x="71.33" y="0">e</tspan><tspan class="cls-37" x="74.7" y="0">t</tspan><tspan x="76.62" y="0">_BV</tspan><tspan class="cls-38" x="88.88" y="0">ND</tspan><tspan class="cls-39" x="98.48" y="0">H</tspan></text></g></g></svg>