<svg xmlns="http://www.w3.org/2000/svg" xmlns:xlink="http://www.w3.org/1999/xlink" viewBox="0 0 263.64 334.44"><defs><style>.cls-1,.cls-14,.cls-15,.cls-16,.cls-17,.cls-2{fill:none;}.cls-1{clip-rule:evenodd;}.cls-3{clip-path:url(#clip-path);}.cls-4{clip-path:url(#clip-path-2);}.cls-5{fill:#c6d3b4;}.cls-11,.cls-6{font-size:4.08px;font-family:ArialMT, Arial;}.cls-11,.cls-7{letter-spacing:-0.03em;}.cls-8{letter-spacing:0.02em;}.cls-9{letter-spacing:-0.09em;}.cls-10{letter-spacing:0.02em;}.cls-12{letter-spacing:-0.04em;}.cls-13{letter-spacing:0em;}.cls-14,.cls-15{stroke:#000;}.cls-14,.cls-15,.cls-16,.cls-17{stroke-linecap:round;stroke-linejoin:round;}.cls-14,.cls-17{stroke-width:0.24px;}.cls-15,.cls-16{stroke-width:0.48px;}.cls-16,.cls-17{stroke:red;}.cls-18{fill:#fff;}.cls-19,.cls-27{font-size:8.05px;fill:red;font-family:ArialNarrow, Arial;}.cls-19{letter-spacing:-0.04em;}.cls-20{letter-spacing:-0.02em;}.cls-21{letter-spacing:0.01em;}.cls-22{letter-spacing:-0.01em;}.cls-23{letter-spacing:0.02em;}.cls-24{letter-spacing:-0.01em;}.cls-25{letter-spacing:-0.01em;}.cls-26{letter-spacing:0em;}.cls-28{letter-spacing:-0.01em;}.cls-29{letter-spacing:0.01em;}.cls-30{letter-spacing:-0.02em;}.cls-31{letter-spacing:-0.04em;}.cls-32{letter-spacing:0em;}</style><clipPath id="clip-path" transform="translate(-754.06 -218.28)"><path class="cls-1" d="M908.86,260.76l-.72.24-.24.24-.48.24-.48,1-.24.24V384.12h.24l.48.48v.72h.48l.24.24.72.24,51.84.24v-.24l.72-.24.48-.24.24-.24.24-.72.24-.24.24-121.68-.24-.24h-.24v-.48l-.48-.48-.48-.24-.72-.24m-164.16-2.88v27.84h1v10.8l5.76-1h8.16a16.18,16.18,0,0,1,7.68,5v.48h.24l.24.24v.48h.24l.24.24v.48h.24V303h.24v.48h.24V304H821v.48h.24v.72h.24v1h.24v1H822v1h.24l-.24,6-.72,2.88c-1.66,4.34-3.71,6.68-7.92,8.64l-2.16.72-7.92.24v-.24l-4.32-.72H797.5v11h-1V545.88h214.32v-288Z"/></clipPath><clipPath id="clip-path-2" transform="translate(-754.06 -218.28)"><rect class="cls-2" width="1684.08" height="1191.12"/></clipPath></defs><title>PushIt - Floor Plan - SP-Room-Bed-Rectangle_Sample_2</title><g id="Layer_2" data-name="Layer 2"><g id="Layer_1-2" data-name="Layer 1"><g class="cls-3"><g class="cls-4"><rect class="cls-5" x="42.48" y="39.6" width="214.32" height="288"/></g></g><text class="cls-6" transform="translate(148.32 180.48)">?</text><text class="cls-6" transform="translate(138.72 193.2)"><tspan class="cls-7">3900</tspan><tspan class="cls-8" x="8.64" y="0"> </tspan><tspan class="cls-9" x="9.84" y="0">x</tspan><tspan class="cls-10" x="11.52" y="0"> </tspan><tspan class="cls-7" x="12.72" y="0">520</tspan><tspan x="19.2" y="0">0</tspan></text><text class="cls-6" transform="translate(144.96 184.8)"><tspan class="cls-7">12</tspan><tspan class="cls-8" x="4.32" y="0">.</tspan><tspan class="cls-7" x="5.52" y="0">0</tspan><tspan x="7.68" y="0">0</tspan></text><text class="cls-11" transform="translate(137.76 188.88)">20<tspan class="cls-8" x="4.32" y="0">.</tspan><tspan x="5.52" y="0">28</tspan><tspan class="cls-8" x="9.84" y="0"> </tspan><tspan class="cls-12" x="11.04" y="0">(</tspan><tspan x="12.24" y="0">19</tspan><tspan class="cls-8" x="16.55" y="0">.</tspan><tspan x="17.75" y="0">20</tspan><tspan class="cls-13" x="22.07" y="0">)</tspan></text><text class="cls-6" transform="translate(148.32 176.4)">?</text><polyline class="cls-14" points="256.8 327.6 42.48 327.6 42.48 39.6 256.8 39.6 256.8 327.6"/><polyline class="cls-14" points="263.52 32.88 35.52 32.88 35.52 334.32 263.52 334.32 263.52 32.88"/><line class="cls-14" x1="42.48" y1="327.6" x2="43.44" y2="327.6"/><line class="cls-14" x1="45.12" y1="327.6" x2="47.28" y2="327.6"/><line class="cls-14" x1="48.96" y1="327.6" x2="51.12" y2="327.6"/><line class="cls-14" x1="52.8" y1="327.6" x2="54.96" y2="327.6"/><line class="cls-14" x1="56.64" y1="327.6" x2="58.8" y2="327.6"/><line class="cls-14" x1="60.48" y1="327.6" x2="62.64" y2="327.6"/><line class="cls-14" x1="64.32" y1="327.6" x2="66.48" y2="327.6"/><line class="cls-14" x1="68.16" y1="327.6" x2="70.32" y2="327.6"/><line class="cls-14" x1="72" y1="327.6" x2="74.16" y2="327.6"/><line class="cls-14" x1="75.84" y1="327.6" x2="78" y2="327.6"/><line class="cls-14" x1="79.68" y1="327.6" x2="81.6" y2="327.6"/><line class="cls-14" x1="83.52" y1="327.6" x2="85.44" y2="327.6"/><line class="cls-14" x1="87.12" y1="327.6" x2="89.28" y2="327.6"/><line class="cls-14" x1="90.96" y1="327.6" x2="93.12" y2="327.6"/><line class="cls-14" x1="94.8" y1="327.6" x2="96.96" y2="327.6"/><line class="cls-14" x1="98.64" y1="327.6" x2="100.8" y2="327.6"/><line class="cls-14" x1="102.48" y1="327.6" x2="104.64" y2="327.6"/><line class="cls-14" x1="106.32" y1="327.6" x2="108.48" y2="327.6"/><line class="cls-14" x1="110.16" y1="327.6" x2="112.32" y2="327.6"/><line class="cls-14" x1="114" y1="327.6" x2="116.16" y2="327.6"/><line class="cls-14" x1="117.84" y1="327.6" x2="120" y2="327.6"/><line class="cls-14" x1="121.68" y1="327.6" x2="123.84" y2="327.6"/><line class="cls-14" x1="125.52" y1="327.6" x2="127.68" y2="327.6"/><line class="cls-14" x1="129.36" y1="327.6" x2="131.52" y2="327.6"/><line class="cls-14" x1="133.2" y1="327.6" x2="135.36" y2="327.6"/><line class="cls-14" x1="137.04" y1="327.6" x2="139.2" y2="327.6"/><line class="cls-14" x1="140.88" y1="327.6" x2="143.04" y2="327.6"/><line class="cls-14" x1="144.72" y1="327.6" x2="146.88" y2="327.6"/><line class="cls-14" x1="148.56" y1="327.6" x2="150.48" y2="327.6"/><line class="cls-14" x1="152.4" y1="327.6" x2="154.32" y2="327.6"/><line class="cls-14" x1="156.24" y1="327.6" x2="158.16" y2="327.6"/><line class="cls-14" x1="159.84" y1="327.6" x2="162" y2="327.6"/><line class="cls-14" x1="163.68" y1="327.6" x2="165.84" y2="327.6"/><line class="cls-14" x1="167.52" y1="327.6" x2="169.68" y2="327.6"/><line class="cls-14" x1="171.36" y1="327.6" x2="173.52" y2="327.6"/><line class="cls-14" x1="175.2" y1="327.6" x2="177.36" y2="327.6"/><line class="cls-14" x1="179.04" y1="327.6" x2="181.2" y2="327.6"/><line class="cls-14" x1="182.88" y1="327.6" x2="185.04" y2="327.6"/><line class="cls-14" x1="186.72" y1="327.6" x2="188.88" y2="327.6"/><line class="cls-14" x1="190.56" y1="327.6" x2="192.72" y2="327.6"/><line class="cls-14" x1="194.4" y1="327.6" x2="196.56" y2="327.6"/><line class="cls-14" x1="198.24" y1="327.6" x2="200.4" y2="327.6"/><line class="cls-14" x1="202.08" y1="327.6" x2="204.24" y2="327.6"/><line class="cls-14" x1="205.92" y1="327.6" x2="208.08" y2="327.6"/><line class="cls-14" x1="209.76" y1="327.6" x2="211.92" y2="327.6"/><line class="cls-14" x1="213.6" y1="327.6" x2="215.76" y2="327.6"/><line class="cls-14" x1="217.44" y1="327.6" x2="219.6" y2="327.6"/><line class="cls-14" x1="221.28" y1="327.6" x2="223.2" y2="327.6"/><line class="cls-14" x1="225.12" y1="327.6" x2="227.04" y2="327.6"/><line class="cls-14" x1="228.96" y1="327.6" x2="230.88" y2="327.6"/><line class="cls-14" x1="232.56" y1="327.6" x2="234.72" y2="327.6"/><line class="cls-14" x1="236.4" y1="327.6" x2="238.56" y2="327.6"/><line class="cls-14" x1="240.24" y1="327.6" x2="242.4" y2="327.6"/><line class="cls-14" x1="244.08" y1="327.6" x2="246.24" y2="327.6"/><line class="cls-14" x1="247.92" y1="327.6" x2="250.08" y2="327.6"/><line class="cls-14" x1="251.76" y1="327.6" x2="253.92" y2="327.6"/><polyline class="cls-14" points="255.6 327.6 256.8 327.6 256.8 326.16"/><line class="cls-14" x1="256.8" y1="324.48" x2="256.8" y2="322.32"/><line class="cls-14" x1="256.8" y1="320.64" x2="256.8" y2="318.48"/><line class="cls-14" x1="256.8" y1="316.8" x2="256.8" y2="314.64"/><line class="cls-14" x1="256.8" y1="312.96" x2="256.8" y2="310.8"/><line class="cls-14" x1="256.8" y1="309.12" x2="256.8" y2="306.96"/><line class="cls-14" x1="256.8" y1="305.28" x2="256.8" y2="303.12"/><line class="cls-14" x1="256.8" y1="301.44" x2="256.8" y2="299.28"/><line class="cls-14" x1="256.8" y1="297.6" x2="256.8" y2="295.44"/><line class="cls-14" x1="256.8" y1="293.76" x2="256.8" y2="291.6"/><line class="cls-14" x1="256.8" y1="289.92" x2="256.8" y2="287.76"/><line class="cls-14" x1="256.8" y1="286.08" x2="256.8" y2="283.92"/><line class="cls-14" x1="256.8" y1="282.24" x2="256.8" y2="280.08"/><line class="cls-14" x1="256.8" y1="278.4" x2="256.8" y2="276.24"/><line class="cls-14" x1="256.8" y1="274.56" x2="256.8" y2="272.4"/><line class="cls-14" x1="256.8" y1="270.72" x2="256.8" y2="268.56"/><line class="cls-14" x1="256.8" y1="266.88" x2="256.8" y2="264.96"/><line class="cls-14" x1="256.8" y1="263.04" x2="256.8" y2="261.12"/><line class="cls-14" x1="256.8" y1="259.2" x2="256.8" y2="257.28"/><line class="cls-14" x1="256.8" y1="255.6" x2="256.8" y2="253.44"/><line class="cls-14" x1="256.8" y1="251.76" x2="256.8" y2="249.6"/><line class="cls-14" x1="256.8" y1="247.92" x2="256.8" y2="245.76"/><line class="cls-14" x1="256.8" y1="244.08" x2="256.8" y2="241.92"/><line class="cls-14" x1="256.8" y1="240.24" x2="256.8" y2="238.08"/><line class="cls-14" x1="256.8" y1="236.4" x2="256.8" y2="234.24"/><line class="cls-14" x1="256.8" y1="232.56" x2="256.8" y2="230.4"/><line class="cls-14" x1="256.8" y1="228.72" x2="256.8" y2="226.56"/><line class="cls-14" x1="256.8" y1="224.88" x2="256.8" y2="222.72"/><line class="cls-14" x1="256.8" y1="221.04" x2="256.8" y2="218.88"/><line class="cls-14" x1="256.8" y1="217.2" x2="256.8" y2="215.04"/><line class="cls-14" x1="256.8" y1="213.36" x2="256.8" y2="211.2"/><line class="cls-14" x1="256.8" y1="209.52" x2="256.8" y2="207.36"/><line class="cls-14" x1="256.8" y1="205.68" x2="256.8" y2="203.52"/><line class="cls-14" x1="256.8" y1="201.84" x2="256.8" y2="199.68"/><line class="cls-14" x1="256.8" y1="198" x2="256.8" y2="195.84"/><line class="cls-14" x1="256.8" y1="194.16" x2="256.8" y2="192.24"/><line class="cls-14" x1="256.8" y1="190.32" x2="256.8" y2="188.4"/><line class="cls-14" x1="256.8" y1="186.48" x2="256.8" y2="184.56"/><line class="cls-14" x1="256.8" y1="182.88" x2="256.8" y2="180.72"/><line class="cls-14" x1="256.8" y1="179.04" x2="256.8" y2="176.88"/><line class="cls-14" x1="256.8" y1="175.2" x2="256.8" y2="173.04"/><line class="cls-14" x1="256.8" y1="171.36" x2="256.8" y2="169.2"/><line class="cls-14" x1="256.8" y1="167.52" x2="256.8" y2="165.36"/><line class="cls-14" x1="256.8" y1="163.68" x2="256.8" y2="161.52"/><line class="cls-14" x1="256.8" y1="159.84" x2="256.8" y2="157.68"/><line class="cls-14" x1="256.8" y1="156" x2="256.8" y2="153.84"/><line class="cls-14" x1="256.8" y1="152.16" x2="256.8" y2="150"/><line class="cls-14" x1="256.8" y1="148.32" x2="256.8" y2="146.16"/><line class="cls-14" x1="256.8" y1="144.48" x2="256.8" y2="142.32"/><line class="cls-14" x1="256.8" y1="140.64" x2="256.8" y2="138.48"/><line class="cls-14" x1="256.8" y1="136.8" x2="256.8" y2="134.64"/><line class="cls-14" x1="256.8" y1="132.96" x2="256.8" y2="130.8"/><line class="cls-14" x1="256.8" y1="129.12" x2="256.8" y2="126.96"/><line class="cls-14" x1="256.8" y1="125.28" x2="256.8" y2="123.36"/><line class="cls-14" x1="256.8" y1="121.44" x2="256.8" y2="119.52"/><line class="cls-14" x1="256.8" y1="117.6" x2="256.8" y2="115.68"/><line class="cls-14" x1="256.8" y1="114" x2="256.8" y2="111.84"/><line class="cls-14" x1="256.8" y1="110.16" x2="256.8" y2="108"/><line class="cls-14" x1="256.8" y1="106.32" x2="256.8" y2="104.16"/><line class="cls-14" x1="256.8" y1="102.48" x2="256.8" y2="100.32"/><line class="cls-14" x1="256.8" y1="98.64" x2="256.8" y2="96.48"/><line class="cls-14" x1="256.8" y1="94.8" x2="256.8" y2="92.64"/><line class="cls-14" x1="256.8" y1="90.96" x2="256.8" y2="88.8"/><line class="cls-14" x1="256.8" y1="87.12" x2="256.8" y2="84.96"/><line class="cls-14" x1="256.8" y1="83.28" x2="256.8" y2="81.12"/><line class="cls-14" x1="256.8" y1="79.44" x2="256.8" y2="77.28"/><line class="cls-14" x1="256.8" y1="75.6" x2="256.8" y2="73.44"/><line class="cls-14" x1="256.8" y1="71.76" x2="256.8" y2="69.6"/><line class="cls-14" x1="256.8" y1="67.92" x2="256.8" y2="65.76"/><line class="cls-14" x1="256.8" y1="64.08" x2="256.8" y2="61.92"/><line class="cls-14" x1="256.8" y1="60.24" x2="256.8" y2="58.08"/><line class="cls-14" x1="256.8" y1="56.4" x2="256.8" y2="54.24"/><line class="cls-14" x1="256.8" y1="52.56" x2="256.8" y2="50.64"/><line class="cls-14" x1="256.8" y1="48.72" x2="256.8" y2="46.8"/><line class="cls-14" x1="256.8" y1="44.88" x2="256.8" y2="42.96"/><polyline class="cls-14" points="256.8 41.28 256.8 39.6 255.6 39.6"/><line class="cls-14" x1="253.92" y1="39.6" x2="251.76" y2="39.6"/><line class="cls-14" x1="250.08" y1="39.6" x2="247.92" y2="39.6"/><line class="cls-14" x1="246.24" y1="39.6" x2="244.08" y2="39.6"/><line class="cls-14" x1="242.4" y1="39.6" x2="240.24" y2="39.6"/><line class="cls-14" x1="238.56" y1="39.6" x2="236.4" y2="39.6"/><line class="cls-14" x1="234.72" y1="39.6" x2="232.56" y2="39.6"/><line class="cls-14" x1="230.88" y1="39.6" x2="228.96" y2="39.6"/><line class="cls-14" x1="227.04" y1="39.6" x2="225.12" y2="39.6"/><line class="cls-14" x1="223.2" y1="39.6" x2="221.28" y2="39.6"/><line class="cls-14" x1="219.6" y1="39.6" x2="217.44" y2="39.6"/><line class="cls-14" x1="215.76" y1="39.6" x2="213.6" y2="39.6"/><line class="cls-14" x1="211.92" y1="39.6" x2="209.76" y2="39.6"/><line class="cls-14" x1="208.08" y1="39.6" x2="205.92" y2="39.6"/><line class="cls-14" x1="204.24" y1="39.6" x2="202.08" y2="39.6"/><line class="cls-14" x1="200.4" y1="39.6" x2="198.24" y2="39.6"/><line class="cls-14" x1="196.56" y1="39.6" x2="194.4" y2="39.6"/><line class="cls-14" x1="192.72" y1="39.6" x2="190.56" y2="39.6"/><line class="cls-14" x1="188.88" y1="39.6" x2="186.72" y2="39.6"/><line class="cls-14" x1="185.04" y1="39.6" x2="182.88" y2="39.6"/><line class="cls-14" x1="181.2" y1="39.6" x2="179.04" y2="39.6"/><line class="cls-14" x1="177.36" y1="39.6" x2="175.2" y2="39.6"/><line class="cls-14" x1="173.52" y1="39.6" x2="171.36" y2="39.6"/><line class="cls-14" x1="169.68" y1="39.6" x2="167.52" y2="39.6"/><line class="cls-14" x1="165.84" y1="39.6" x2="163.68" y2="39.6"/><line class="cls-14" x1="162" y1="39.6" x2="159.84" y2="39.6"/><line class="cls-14" x1="158.16" y1="39.6" x2="156.24" y2="39.6"/><line class="cls-14" x1="154.32" y1="39.6" x2="152.4" y2="39.6"/><line class="cls-14" x1="150.48" y1="39.6" x2="148.56" y2="39.6"/><line class="cls-14" x1="146.88" y1="39.6" x2="144.72" y2="39.6"/><line class="cls-14" x1="143.04" y1="39.6" x2="140.88" y2="39.6"/><line class="cls-14" x1="139.2" y1="39.6" x2="137.04" y2="39.6"/><line class="cls-14" x1="135.36" y1="39.6" x2="133.2" y2="39.6"/><line class="cls-14" x1="131.52" y1="39.6" x2="129.36" y2="39.6"/><line class="cls-14" x1="127.68" y1="39.6" x2="125.52" y2="39.6"/><line class="cls-14" x1="123.84" y1="39.6" x2="121.68" y2="39.6"/><line class="cls-14" x1="120" y1="39.6" x2="117.84" y2="39.6"/><line class="cls-14" x1="116.16" y1="39.6" x2="114" y2="39.6"/><line class="cls-14" x1="112.32" y1="39.6" x2="110.16" y2="39.6"/><line class="cls-14" x1="108.48" y1="39.6" x2="106.32" y2="39.6"/><line class="cls-14" x1="104.64" y1="39.6" x2="102.48" y2="39.6"/><line class="cls-14" x1="100.8" y1="39.6" x2="98.64" y2="39.6"/><line class="cls-14" x1="96.96" y1="39.6" x2="94.8" y2="39.6"/><line class="cls-14" x1="93.12" y1="39.6" x2="90.96" y2="39.6"/><line class="cls-14" x1="89.28" y1="39.6" x2="87.12" y2="39.6"/><line class="cls-14" x1="85.44" y1="39.6" x2="83.52" y2="39.6"/><line class="cls-14" x1="81.6" y1="39.6" x2="79.68" y2="39.6"/><line class="cls-14" x1="78" y1="39.6" x2="75.84" y2="39.6"/><line class="cls-14" x1="74.16" y1="39.6" x2="72" y2="39.6"/><line class="cls-14" x1="70.32" y1="39.6" x2="68.16" y2="39.6"/><line class="cls-14" x1="66.48" y1="39.6" x2="64.32" y2="39.6"/><line class="cls-14" x1="62.64" y1="39.6" x2="60.48" y2="39.6"/><line class="cls-14" x1="58.8" y1="39.6" x2="56.64" y2="39.6"/><line class="cls-14" x1="54.96" y1="39.6" x2="52.8" y2="39.6"/><line class="cls-14" x1="51.12" y1="39.6" x2="48.96" y2="39.6"/><line class="cls-14" x1="47.28" y1="39.6" x2="45.12" y2="39.6"/><polyline class="cls-14" points="43.44 39.6 42.48 39.6 42.48 41.28"/><line class="cls-14" x1="42.48" y1="42.96" x2="42.48" y2="44.88"/><line class="cls-14" x1="42.48" y1="46.8" x2="42.48" y2="48.72"/><line class="cls-14" x1="42.48" y1="50.64" x2="42.48" y2="52.56"/><line class="cls-14" x1="42.48" y1="54.24" x2="42.48" y2="56.4"/><line class="cls-14" x1="42.48" y1="58.08" x2="42.48" y2="60.24"/><line class="cls-14" x1="42.48" y1="61.92" x2="42.48" y2="64.08"/><line class="cls-14" x1="42.48" y1="65.76" x2="42.48" y2="67.44"/><line class="cls-14" x1="42.48" y1="118.32" x2="42.48" y2="120.72"/><line class="cls-14" x1="42.48" y1="122.4" x2="42.48" y2="124.56"/><line class="cls-14" x1="42.48" y1="126.24" x2="42.48" y2="128.4"/><line class="cls-14" x1="42.48" y1="130.08" x2="42.48" y2="132.24"/><line class="cls-14" x1="42.48" y1="133.92" x2="42.48" y2="136.08"/><line class="cls-14" x1="42.48" y1="137.76" x2="42.48" y2="139.92"/><line class="cls-14" x1="42.48" y1="141.6" x2="42.48" y2="143.76"/><line class="cls-14" x1="42.48" y1="145.44" x2="42.48" y2="147.6"/><line class="cls-14" x1="42.48" y1="149.28" x2="42.48" y2="151.44"/><line class="cls-14" x1="42.48" y1="153.12" x2="42.48" y2="155.28"/><line class="cls-14" x1="42.48" y1="156.96" x2="42.48" y2="159.12"/><line class="cls-14" x1="42.48" y1="160.8" x2="42.48" y2="162.96"/><line class="cls-14" x1="42.48" y1="164.64" x2="42.48" y2="166.8"/><line class="cls-14" x1="42.48" y1="168.48" x2="42.48" y2="170.4"/><line class="cls-14" x1="42.48" y1="172.32" x2="42.48" y2="174.24"/><line class="cls-14" x1="42.48" y1="175.92" x2="42.48" y2="178.08"/><line class="cls-14" x1="42.48" y1="179.76" x2="42.48" y2="181.92"/><line class="cls-14" x1="42.48" y1="183.6" x2="42.48" y2="185.76"/><line class="cls-14" x1="42.48" y1="187.44" x2="42.48" y2="189.6"/><line class="cls-14" x1="42.48" y1="191.28" x2="42.48" y2="193.44"/><line class="cls-14" x1="42.48" y1="195.12" x2="42.48" y2="197.28"/><line class="cls-14" x1="42.48" y1="198.96" x2="42.48" y2="201.12"/><line class="cls-14" x1="42.48" y1="202.8" x2="42.48" y2="204.96"/><line class="cls-14" x1="42.48" y1="206.64" x2="42.48" y2="208.8"/><line class="cls-14" x1="42.48" y1="210.48" x2="42.48" y2="212.64"/><line class="cls-14" x1="42.48" y1="214.32" x2="42.48" y2="216.48"/><line class="cls-14" x1="42.48" y1="218.16" x2="42.48" y2="220.32"/><line class="cls-14" x1="42.48" y1="222" x2="42.48" y2="224.16"/><line class="cls-14" x1="42.48" y1="225.84" x2="42.48" y2="228"/><line class="cls-14" x1="42.48" y1="229.68" x2="42.48" y2="231.84"/><line class="cls-14" x1="42.48" y1="233.52" x2="42.48" y2="235.68"/><line class="cls-14" x1="42.48" y1="237.36" x2="42.48" y2="239.28"/><line class="cls-14" x1="42.48" y1="241.2" x2="42.48" y2="243.12"/><line class="cls-14" x1="42.48" y1="245.04" x2="42.48" y2="246.96"/><line class="cls-14" x1="42.48" y1="248.64" x2="42.48" y2="250.8"/><line class="cls-14" x1="42.48" y1="252.48" x2="42.48" y2="254.64"/><line class="cls-14" x1="42.48" y1="256.32" x2="42.48" y2="258.48"/><line class="cls-14" x1="42.48" y1="260.16" x2="42.48" y2="262.32"/><line class="cls-14" x1="42.48" y1="264" x2="42.48" y2="266.16"/><line class="cls-14" x1="42.48" y1="267.84" x2="42.48" y2="270"/><line class="cls-14" x1="42.48" y1="271.68" x2="42.48" y2="273.84"/><line class="cls-14" x1="42.48" y1="275.52" x2="42.48" y2="277.68"/><line class="cls-14" x1="42.48" y1="279.36" x2="42.48" y2="281.52"/><line class="cls-14" x1="42.48" y1="283.2" x2="42.48" y2="285.36"/><line class="cls-14" x1="42.48" y1="287.04" x2="42.48" y2="289.2"/><line class="cls-14" x1="42.48" y1="290.88" x2="42.48" y2="293.04"/><line class="cls-14" x1="42.48" y1="294.72" x2="42.48" y2="296.88"/><line class="cls-14" x1="42.48" y1="298.56" x2="42.48" y2="300.72"/><line class="cls-14" x1="42.48" y1="302.4" x2="42.48" y2="304.56"/><line class="cls-14" x1="42.48" y1="306.24" x2="42.48" y2="308.4"/><line class="cls-14" x1="42.48" y1="310.08" x2="42.48" y2="312"/><line class="cls-14" x1="42.48" y1="313.92" x2="42.48" y2="315.84"/><line class="cls-14" x1="42.48" y1="317.76" x2="42.48" y2="319.68"/><line class="cls-14" x1="42.48" y1="321.36" x2="42.48" y2="323.52"/><line class="cls-14" x1="42.48" y1="325.2" x2="42.48" y2="327.6"/><polyline class="cls-15" points="50.64 82.32 50.4 83.76 50.4 85.2"/><polyline class="cls-15" points="50.64 103.44 50.4 102.24 50.4 100.56"/><line class="cls-15" x1="54" y1="79.44" x2="53.28" y2="79.68"/><polyline class="cls-15" points="54 79.44 55.44 79.44 57.12 79.68"/><polyline class="cls-15" points="50.64 82.32 51.6 80.64 53.28 79.68"/><line class="cls-15" x1="54" y1="106.32" x2="53.28" y2="106.32"/><polyline class="cls-15" points="54 106.32 55.44 106.56 57.12 106.32"/><polyline class="cls-15" points="50.64 103.44 51.6 105.36 53.28 106.32"/><line class="cls-14" x1="42.48" y1="107.04" x2="42.48" y2="78.72"/><polyline class="cls-14" points="59.76 107.28 62.16 105.84 64.32 103.92"/><polyline class="cls-14" points="54.96 108.48 57.36 108.24 59.76 107.28"/><polyline class="cls-14" points="42.48 107.04 48.72 108.24 54.96 108.48"/><polyline class="cls-14" points="54.96 77.28 48.72 77.76 42.48 78.72"/><polyline class="cls-14" points="67.2 98.88 67.92 96 68.16 92.88"/><polyline class="cls-14" points="64.32 103.92 66 101.52 67.2 98.88"/><polyline class="cls-14" points="59.76 78.48 57.36 77.52 54.96 77.28"/><polyline class="cls-14" points="64.32 81.84 62.16 79.92 59.76 78.48"/><polyline class="cls-14" points="67.2 86.88 66 84.24 64.32 81.84"/><polyline class="cls-14" points="68.16 92.88 67.92 89.76 67.2 86.88"/><polyline class="cls-15" points="43.44 78.48 43.44 107.28 49.2 108.24 54.96 108.48 57.36 108.24 59.76 107.28 62.16 105.84 64.32 103.92 66 101.52 67.2 98.88 67.92 96 68.16 92.88 67.92 89.76 67.2 86.88 66 84.24 64.32 81.84 62.16 79.92 59.76 78.48 57.36 77.52 54.96 77.28 49.2 77.52 43.44 78.48"/><polyline class="cls-15" points="42.48 67.44 42.48 118.32 43.44 118.32 43.44 67.44 42.48 67.44"/><line class="cls-14" x1="208.8" y1="165.12" x2="208.8" y2="45.36"/><polyline class="cls-14" points="205.92 167.76 208.08 167.04 208.8 165.12"/><line class="cls-14" x1="155.52" y1="167.76" x2="205.92" y2="167.76"/><polyline class="cls-14" points="152.64 165.12 153.36 167.04 155.52 167.76"/><line class="cls-14" x1="152.64" y1="45.36" x2="152.64" y2="165.12"/><polyline class="cls-14" points="155.52 42.48 153.36 43.44 152.64 45.36"/><line class="cls-14" x1="205.92" y1="42.48" x2="155.52" y2="42.48"/><polyline class="cls-14" points="208.8 45.36 208.08 43.44 205.92 42.48"/><polyline class="cls-15" points="152.64 74.16 154.08 74.16 154.08 46.56 152.64 46.56 152.64 74.16"/><polyline class="cls-15" points="207.36 160.32 208.8 160.32 208.8 120 207.36 120 207.36 160.32"/><polyline class="cls-15" points="207.36 73.68 208.8 73.68 208.8 46.56 207.36 46.56 207.36 73.68"/><line class="cls-15" x1="203.28" y1="166.08" x2="203.28" y2="167.52"/><line class="cls-15" x1="158.16" y1="166.08" x2="203.28" y2="166.08"/><line class="cls-15" x1="158.16" y1="167.52" x2="158.16" y2="166.08"/><line class="cls-15" x1="203.28" y1="167.52" x2="158.16" y2="167.52"/><line class="cls-15" x1="203.28" y1="44.4" x2="203.28" y2="42.72"/><line class="cls-15" x1="157.92" y1="44.4" x2="203.28" y2="44.4"/><line class="cls-15" x1="157.92" y1="42.72" x2="157.92" y2="44.4"/><line class="cls-15" x1="203.28" y1="42.72" x2="157.92" y2="42.72"/><line class="cls-15" x1="157.68" y1="71.04" x2="157.68" y2="47.28"/><line class="cls-15" x1="204" y1="71.04" x2="157.68" y2="71.04"/><line class="cls-15" x1="204" y1="47.28" x2="204" y2="71.04"/><line class="cls-15" x1="157.68" y1="47.28" x2="204" y2="47.28"/><line class="cls-15" x1="206.64" y1="162.96" x2="206.64" y2="47.52"/><polyline class="cls-15" points="203.76 165.6 205.92 164.88 206.64 162.96"/><line class="cls-15" x1="157.68" y1="165.6" x2="203.76" y2="165.6"/><polyline class="cls-15" points="154.8 162.96 155.52 164.88 157.68 165.6"/><line class="cls-15" x1="154.8" y1="47.52" x2="154.8" y2="162.96"/><polyline class="cls-15" points="157.68 44.64 155.52 45.6 154.8 47.52"/><line class="cls-15" x1="203.76" y1="44.64" x2="157.68" y2="44.64"/><polyline class="cls-15" points="206.64 47.52 205.92 45.6 203.76 44.64"/><polyline class="cls-15" points="205.92 42.48 155.52 42.48 154.8 42.72 154.08 42.96 153.36 43.44 153.12 43.92 152.64 44.64 152.64 45.36 152.64 165.12 152.64 165.84 153.12 166.32 153.36 167.04 154.08 167.52 154.8 167.76 155.52 167.76 205.92 167.76 206.64 167.76 207.36 167.52 208.08 167.04 208.32 166.32 208.8 165.84 208.8 165.12 208.8 45.36 208.8 44.64 208.32 43.92 208.08 43.44 207.36 42.96 206.64 42.72 205.92 42.48"/><polyline class="cls-14" points="104.64 330.96 105.6 323.52 108 316.32 112.08 309.84 117.6 304.32 124.08 300.48 131.28 297.84 138.72 297.12"/><polyline class="cls-14" points="135.84 330.96 135.84 297.12 138.72 297.12 138.72 330.96 135.84 330.96"/><polyline class="cls-14" points="104.64 330.96 103.92 322.08 101.76 313.68 97.92 305.52 92.88 298.32 86.4 291.84 79.2 286.8 71.28 283.2 62.64 280.8 53.76 280.08"/><polyline class="cls-14" points="56.64 330.96 56.64 280.08 53.76 280.08 53.76 330.96 56.64 330.96"/><polyline class="cls-14" points="138.72 327.6 53.76 327.6 53.76 334.32 138.72 334.32 138.72 327.6 53.76 327.6 53.76 334.32 138.72 334.32 138.72 327.6"/><line class="cls-16" x1="180.72" y1="171.6" x2="180.72" y2="160.32"/><line class="cls-16" x1="180.72" y1="149.04" x2="180.72" y2="137.76"/><line class="cls-16" x1="180.72" y1="126.24" x2="180.72" y2="114.96"/><line class="cls-16" x1="180.72" y1="103.68" x2="180.72" y2="92.4"/><line class="cls-16" x1="180.72" y1="80.88" x2="180.72" y2="69.6"/><line class="cls-16" x1="180.72" y1="58.32" x2="180.72" y2="47.04"/><line class="cls-16" x1="180.72" y1="35.52" x2="180.72" y2="24.24"/><line class="cls-16" x1="55.2" y1="92.88" x2="40.08" y2="92.88"/><line class="cls-16" x1="28.56" y1="92.88" x2="13.44" y2="92.88"/><line class="cls-17" x1="38.88" y1="13.44" x2="180.72" y2="13.44"/><line class="cls-16" x1="180.72" y1="13.44" x2="176.4" y2="17.76"/><line class="cls-16" x1="180.72" y1="13.44" x2="185.04" y2="9.12"/><line class="cls-17" x1="180.72" y1="13.44" x2="180.72" y2="6.48"/><line class="cls-17" x1="180.72" y1="13.44" x2="180.72" y2="27.6"/><line class="cls-16" x1="38.88" y1="13.44" x2="34.8" y2="17.76"/><line class="cls-16" x1="38.88" y1="13.44" x2="43.2" y2="9.12"/><line class="cls-17" x1="38.88" y1="13.44" x2="38.88" y2="6.48"/><line class="cls-17" x1="38.88" y1="13.44" x2="38.88" y2="27.6"/><rect class="cls-18" x="93.6" width="32.16" height="8.88"/><text class="cls-19" transform="translate(93.6 7.2)">O<tspan class="cls-20" x="4.8" y="0">ff</tspan><tspan class="cls-21" x="8.17" y="0">s</tspan><tspan class="cls-22" x="11.52" y="0">e</tspan><tspan class="cls-20" x="15.12" y="0">t</tspan><tspan class="cls-23" x="16.8" y="0">_</tspan><tspan class="cls-24" x="20.64" y="0">B</tspan><tspan class="cls-25" x="24.96" y="0">e</tspan><tspan class="cls-26" x="28.56" y="0">d</tspan></text><line class="cls-17" x1="13.44" y1="36.24" x2="13.44" y2="92.88"/><line class="cls-16" x1="13.44" y1="92.88" x2="9.12" y2="88.56"/><line class="cls-16" x1="13.44" y1="92.88" x2="17.52" y2="97.2"/><line class="cls-17" x1="13.44" y1="92.88" x2="6.24" y2="92.88"/><line class="cls-17" x1="13.44" y1="92.88" x2="27.6" y2="92.88"/><line class="cls-16" x1="13.44" y1="36.24" x2="9.12" y2="31.92"/><line class="cls-16" x1="13.44" y1="36.24" x2="17.52" y2="40.56"/><line class="cls-17" x1="13.44" y1="36.24" x2="6.24" y2="36.24"/><line class="cls-17" x1="13.44" y1="36.24" x2="27.6" y2="36.24"/><rect class="cls-18" y="46.32" width="9.6" height="36.48"/><text class="cls-27" transform="translate(7.68 82.56) rotate(-90)"><tspan class="cls-28">O</tspan><tspan class="cls-29" x="5.04" y="0">ff</tspan><tspan class="cls-30" x="8.88" y="0">s</tspan><tspan class="cls-22" x="12" y="0">e</tspan><tspan class="cls-29" x="15.6" y="0">t</tspan><tspan class="cls-31" x="17.52" y="0">_</tspan><tspan x="20.89" y="0">W</tspan><tspan class="cls-32" x="27.12" y="0">H</tspan><tspan class="cls-26" x="31.92" y="0">B</tspan></text></g></g></svg>