<svg xmlns="http://www.w3.org/2000/svg" xmlns:xlink="http://www.w3.org/1999/xlink" viewBox="0 0 413.04 372.79"><defs><style>.cls-1,.cls-14,.cls-15,.cls-16,.cls-17,.cls-2{fill:none;}.cls-1{clip-rule:evenodd;}.cls-3{clip-path:url(#clip-path);}.cls-4{clip-path:url(#clip-path-2);}.cls-5{fill:#c6d3b4;}.cls-11,.cls-6{font-size:4.08px;font-family:ArialMT, Arial;}.cls-11,.cls-7{letter-spacing:-0.03em;}.cls-8{letter-spacing:0.02em;}.cls-9{letter-spacing:-0.09em;}.cls-10{letter-spacing:0.02em;}.cls-12{letter-spacing:-0.04em;}.cls-13{letter-spacing:0em;}.cls-14,.cls-15{stroke:#000;}.cls-14,.cls-15,.cls-16,.cls-17{stroke-linecap:round;stroke-linejoin:round;}.cls-14,.cls-17{stroke-width:0.24px;}.cls-15,.cls-16{stroke-width:0.48px;}.cls-16,.cls-17{stroke:red;}.cls-18{fill:#fff;}.cls-19,.cls-29{font-size:8.05px;fill:red;font-family:ArialNarrow, Arial;}.cls-19{letter-spacing:-0.01em;}.cls-20{letter-spacing:0em;}.cls-21{letter-spacing:-0.02em;}.cls-22{letter-spacing:0.01em;}.cls-23{letter-spacing:0em;}.cls-24{letter-spacing:-0.03em;}.cls-25{letter-spacing:-0.01em;}.cls-26{letter-spacing:-0.02em;}.cls-27{letter-spacing:0.01em;}.cls-28{letter-spacing:0em;}.cls-30{letter-spacing:-0.02em;}.cls-31{letter-spacing:-0.02em;}</style><clipPath id="clip-path" transform="translate(-654.34 -405.72)"><path class="cls-1" d="M894,470l-.72.24-1,1-.24.72-.24,51.12.24.24V524h.24v.72h.24l.24.24v.48H893l.24.24.72.24,121.2.24V526l.72-.24.72-.72.24-.48.24-53-1.2-1.2-.72-.24m-346.32,0-.72.24-1,1-.24.72-.24,51.12.24.24V524h.24v.72h.24l.24.24v.48h.24l.24.24.72.24,121.2.24V526l.72-.24.72-.72.24-.48.24-.72.24-51.6H792v-.72l-1.2-1.2-.72-.24Zm-7.68-56.4V664.92h60v-1.2h11V661.8H732v-1.92h-.24V658h-.24V652.2l-.24-.24.24-2.4.48-1.44.24-1,.48-.48.24-.48.24-.24.24-.48.24-.24.24-.48,1.68-1.68.24-.48.48-.24.24-.24.48-.24.24-.24.48-.24.24-.24.72-.24,1.92-1,1-.24,2.16-.72h6l1,.24,2.88,1,2.88,1.44.24.24,1,.48,2.16,2.16V645h.24l.24.24v.48h.24v.48h.24l.24.24v.48h.24v.48h.24v.72h.24v1H762v1h.24v1h.24l-.24,3.84-.24,2.88-.72,5.76,11,.24v1.2h19.92v65h110.4V591.24h120.24V413.64Z"/></clipPath><clipPath id="clip-path-2" transform="translate(-654.34 -405.72)"><rect class="cls-2" width="1684.08" height="1191.12"/></clipPath></defs><title>PushIt - Floor Plan - SP-Room-Bed-CutOut_Ens_Square_Sample_1</title><g id="Layer_2" data-name="Layer 2"><g id="Layer_1-2" data-name="Layer 1"><g class="cls-3"><g class="cls-4"><rect class="cls-5" x="6.84" y="7.92" width="361.68" height="316.32"/></g></g><text class="cls-6" transform="translate(123 127.92)">?</text><text class="cls-6" transform="translate(113.4 140.64)"><tspan class="cls-7">6500</tspan><tspan class="cls-8" x="8.64" y="0"> </tspan><tspan class="cls-9" x="9.84" y="0">x</tspan><tspan class="cls-10" x="11.52" y="0"> </tspan><tspan class="cls-7" x="12.72" y="0">570</tspan><tspan x="19.2" y="0">0</tspan></text><text class="cls-6" transform="translate(121.08 132)"><tspan class="cls-7">5</tspan><tspan class="cls-10" x="2.16" y="0">.</tspan><tspan class="cls-7" x="3.36" y="0">0</tspan><tspan x="5.52" y="0">0</tspan></text><text class="cls-11" transform="translate(112.44 136.32)">29<tspan class="cls-8" x="4.32" y="0">.</tspan><tspan x="5.52" y="0">20</tspan><tspan class="cls-8" x="9.84" y="0"> </tspan><tspan class="cls-12" x="11.04" y="0">(</tspan><tspan x="12.24" y="0">27</tspan><tspan class="cls-8" x="16.55" y="0">.</tspan><tspan x="17.75" y="0">75</tspan><tspan class="cls-13" x="22.07" y="0">)</tspan></text><text class="cls-6" transform="translate(123 123.6)">?</text><polyline class="cls-14" points="248.28 324.24 137.88 324.24 137.88 259.2 6.84 259.2 6.84 7.92 368.52 7.92 368.52 185.52 248.28 185.52 248.28 324.24"/><polyline class="cls-14" points="375.24 1.2 0.12 1.2 0.12 265.92 130.92 265.92 130.92 331.2 255.24 331.2 255.24 192.24 375.24 192.24 375.24 1.2"/><line class="cls-14" x1="6.84" y1="7.92" x2="6.84" y2="10.32"/><line class="cls-14" x1="6.84" y1="12" x2="6.84" y2="14.16"/><line class="cls-14" x1="6.84" y1="15.84" x2="6.84" y2="17.76"/><line class="cls-14" x1="6.84" y1="19.68" x2="6.84" y2="21.6"/><line class="cls-14" x1="6.84" y1="23.28" x2="6.84" y2="25.44"/><line class="cls-14" x1="6.84" y1="27.12" x2="6.84" y2="29.28"/><line class="cls-14" x1="6.84" y1="30.96" x2="6.84" y2="33.12"/><line class="cls-14" x1="6.84" y1="34.8" x2="6.84" y2="36.96"/><line class="cls-14" x1="6.84" y1="38.64" x2="6.84" y2="40.8"/><line class="cls-14" x1="6.84" y1="42.48" x2="6.84" y2="44.64"/><line class="cls-14" x1="6.84" y1="46.32" x2="6.84" y2="48.48"/><line class="cls-14" x1="6.84" y1="50.16" x2="6.84" y2="52.32"/><line class="cls-14" x1="6.84" y1="54" x2="6.84" y2="56.16"/><line class="cls-14" x1="6.84" y1="57.84" x2="6.84" y2="60"/><line class="cls-14" x1="6.84" y1="61.68" x2="6.84" y2="63.84"/><line class="cls-14" x1="6.84" y1="65.52" x2="6.84" y2="67.68"/><line class="cls-14" x1="6.84" y1="69.36" x2="6.84" y2="71.52"/><line class="cls-14" x1="6.84" y1="73.2" x2="6.84" y2="75.36"/><line class="cls-14" x1="6.84" y1="77.04" x2="6.84" y2="79.2"/><line class="cls-14" x1="6.84" y1="80.88" x2="6.84" y2="83.04"/><line class="cls-14" x1="6.84" y1="84.72" x2="6.84" y2="86.64"/><line class="cls-14" x1="6.84" y1="88.56" x2="6.84" y2="90.48"/><line class="cls-14" x1="6.84" y1="92.4" x2="6.84" y2="94.32"/><line class="cls-14" x1="6.84" y1="96" x2="6.84" y2="98.16"/><line class="cls-14" x1="6.84" y1="99.84" x2="6.84" y2="102"/><line class="cls-14" x1="6.84" y1="103.68" x2="6.84" y2="105.84"/><line class="cls-14" x1="6.84" y1="107.52" x2="6.84" y2="109.68"/><line class="cls-14" x1="6.84" y1="111.36" x2="6.84" y2="113.52"/><line class="cls-14" x1="6.84" y1="115.2" x2="6.84" y2="117.36"/><line class="cls-14" x1="6.84" y1="119.04" x2="6.84" y2="121.2"/><line class="cls-14" x1="6.84" y1="122.88" x2="6.84" y2="125.04"/><line class="cls-14" x1="6.84" y1="126.72" x2="6.84" y2="128.88"/><line class="cls-14" x1="6.84" y1="130.56" x2="6.84" y2="132.72"/><line class="cls-14" x1="6.84" y1="134.4" x2="6.84" y2="136.56"/><line class="cls-14" x1="6.84" y1="138.24" x2="6.84" y2="140.4"/><line class="cls-14" x1="6.84" y1="142.08" x2="6.84" y2="144.24"/><line class="cls-14" x1="6.84" y1="145.92" x2="6.84" y2="148.08"/><line class="cls-14" x1="6.84" y1="149.76" x2="6.84" y2="151.92"/><line class="cls-14" x1="6.84" y1="153.6" x2="6.84" y2="155.76"/><line class="cls-14" x1="6.84" y1="157.44" x2="6.84" y2="159.36"/><line class="cls-14" x1="6.84" y1="161.28" x2="6.84" y2="163.2"/><line class="cls-14" x1="6.84" y1="164.88" x2="6.84" y2="167.04"/><line class="cls-14" x1="6.84" y1="168.72" x2="6.84" y2="170.88"/><line class="cls-14" x1="6.84" y1="172.56" x2="6.84" y2="174.72"/><line class="cls-14" x1="6.84" y1="176.4" x2="6.84" y2="178.56"/><line class="cls-14" x1="6.84" y1="180.24" x2="6.84" y2="182.4"/><line class="cls-14" x1="6.84" y1="184.08" x2="6.84" y2="186.24"/><line class="cls-14" x1="6.84" y1="187.92" x2="6.84" y2="190.08"/><line class="cls-14" x1="6.84" y1="191.76" x2="6.84" y2="193.92"/><line class="cls-14" x1="6.84" y1="195.6" x2="6.84" y2="197.76"/><line class="cls-14" x1="6.84" y1="199.44" x2="6.84" y2="201.6"/><line class="cls-14" x1="6.84" y1="203.28" x2="6.84" y2="205.44"/><line class="cls-14" x1="6.84" y1="207.12" x2="6.84" y2="209.28"/><line class="cls-14" x1="6.84" y1="210.96" x2="6.84" y2="213.12"/><line class="cls-14" x1="6.84" y1="214.8" x2="6.84" y2="216.96"/><line class="cls-14" x1="6.84" y1="218.64" x2="6.84" y2="220.8"/><line class="cls-14" x1="6.84" y1="222.48" x2="6.84" y2="224.64"/><line class="cls-14" x1="6.84" y1="226.32" x2="6.84" y2="228.24"/><line class="cls-14" x1="6.84" y1="230.16" x2="6.84" y2="232.08"/><line class="cls-14" x1="6.84" y1="234" x2="6.84" y2="235.92"/><line class="cls-14" x1="6.84" y1="237.6" x2="6.84" y2="239.76"/><line class="cls-14" x1="6.84" y1="241.44" x2="6.84" y2="243.6"/><line class="cls-14" x1="6.84" y1="245.28" x2="6.84" y2="247.44"/><line class="cls-14" x1="6.84" y1="249.12" x2="6.84" y2="251.28"/><line class="cls-14" x1="6.84" y1="252.96" x2="6.84" y2="255.12"/><line class="cls-14" x1="6.84" y1="256.8" x2="6.84" y2="259.2"/><line class="cls-14" x1="6.84" y1="265.92" x2="8.76" y2="265.92"/><line class="cls-14" x1="10.44" y1="265.92" x2="12.6" y2="265.92"/><line class="cls-14" x1="14.28" y1="265.92" x2="16.44" y2="265.92"/><line class="cls-14" x1="18.12" y1="265.92" x2="20.28" y2="265.92"/><line class="cls-14" x1="21.96" y1="265.92" x2="24.12" y2="265.92"/><line class="cls-14" x1="25.8" y1="265.92" x2="27.96" y2="265.92"/><line class="cls-14" x1="29.64" y1="265.92" x2="31.8" y2="265.92"/><line class="cls-14" x1="33.48" y1="265.92" x2="35.4" y2="265.92"/><line class="cls-14" x1="37.32" y1="265.92" x2="39.24" y2="265.92"/><line class="cls-14" x1="40.92" y1="265.92" x2="43.08" y2="265.92"/><line class="cls-14" x1="44.76" y1="265.92" x2="46.92" y2="265.92"/><line class="cls-14" x1="48.6" y1="265.92" x2="50.76" y2="265.92"/><line class="cls-14" x1="52.44" y1="265.92" x2="54.6" y2="265.92"/><line class="cls-14" x1="56.28" y1="265.92" x2="58.44" y2="265.92"/><line class="cls-14" x1="60.12" y1="265.92" x2="62.28" y2="265.92"/><line class="cls-14" x1="63.96" y1="265.92" x2="66.12" y2="265.92"/><line class="cls-14" x1="67.8" y1="265.92" x2="69.96" y2="265.92"/><line class="cls-14" x1="71.64" y1="265.92" x2="73.8" y2="265.92"/><line class="cls-14" x1="75.48" y1="265.92" x2="77.64" y2="265.92"/><line class="cls-14" x1="79.32" y1="265.92" x2="81.48" y2="265.92"/><line class="cls-14" x1="83.16" y1="265.92" x2="85.32" y2="265.92"/><line class="cls-14" x1="87" y1="265.92" x2="89.16" y2="265.92"/><line class="cls-14" x1="90.84" y1="265.92" x2="93" y2="265.92"/><line class="cls-14" x1="94.68" y1="265.92" x2="96.84" y2="265.92"/><line class="cls-14" x1="98.52" y1="265.92" x2="100.68" y2="265.92"/><line class="cls-14" x1="102.36" y1="265.92" x2="104.28" y2="265.92"/><line class="cls-14" x1="106.2" y1="265.92" x2="108.12" y2="265.92"/><line class="cls-14" x1="110.04" y1="265.92" x2="111.96" y2="265.92"/><line class="cls-14" x1="113.64" y1="265.92" x2="115.8" y2="265.92"/><line class="cls-14" x1="117.48" y1="265.92" x2="119.64" y2="265.92"/><line class="cls-14" x1="121.32" y1="265.92" x2="123.48" y2="265.92"/><line class="cls-14" x1="125.16" y1="265.92" x2="127.32" y2="265.92"/><line class="cls-14" x1="129" y1="265.92" x2="130.92" y2="265.92"/><line class="cls-14" x1="137.88" y1="265.92" x2="137.88" y2="267.36"/><line class="cls-14" x1="137.88" y1="269.28" x2="137.88" y2="271.2"/><line class="cls-14" x1="137.88" y1="273.12" x2="137.88" y2="275.04"/><line class="cls-14" x1="137.88" y1="276.72" x2="137.88" y2="278.88"/><line class="cls-14" x1="137.88" y1="280.56" x2="137.88" y2="282.72"/><line class="cls-14" x1="137.88" y1="284.4" x2="137.88" y2="286.56"/><line class="cls-14" x1="137.88" y1="288.24" x2="137.88" y2="290.4"/><line class="cls-14" x1="137.88" y1="292.08" x2="137.88" y2="294.24"/><line class="cls-14" x1="137.88" y1="295.92" x2="137.88" y2="298.08"/><line class="cls-14" x1="137.88" y1="299.76" x2="137.88" y2="301.92"/><line class="cls-14" x1="137.88" y1="303.6" x2="137.88" y2="305.76"/><line class="cls-14" x1="137.88" y1="307.44" x2="137.88" y2="309.6"/><line class="cls-14" x1="137.88" y1="311.28" x2="137.88" y2="313.44"/><line class="cls-14" x1="137.88" y1="315.12" x2="137.88" y2="317.28"/><line class="cls-14" x1="137.88" y1="318.96" x2="137.88" y2="321.12"/><polyline class="cls-14" points="137.88 322.8 137.88 324.24 140.52 324.24"/><line class="cls-14" x1="142.2" y1="324.24" x2="144.36" y2="324.24"/><line class="cls-14" x1="146.04" y1="324.24" x2="148.2" y2="324.24"/><line class="cls-14" x1="149.88" y1="324.24" x2="152.04" y2="324.24"/><line class="cls-14" x1="153.72" y1="324.24" x2="155.88" y2="324.24"/><line class="cls-14" x1="157.56" y1="324.24" x2="159.72" y2="324.24"/><line class="cls-14" x1="161.4" y1="324.24" x2="163.56" y2="324.24"/><line class="cls-14" x1="165.24" y1="324.24" x2="167.4" y2="324.24"/><line class="cls-14" x1="169.08" y1="324.24" x2="171.24" y2="324.24"/><line class="cls-14" x1="172.92" y1="324.24" x2="175.08" y2="324.24"/><line class="cls-14" x1="176.76" y1="324.24" x2="178.92" y2="324.24"/><line class="cls-14" x1="180.6" y1="324.24" x2="182.76" y2="324.24"/><line class="cls-14" x1="184.44" y1="324.24" x2="186.36" y2="324.24"/><line class="cls-14" x1="188.28" y1="324.24" x2="190.2" y2="324.24"/><line class="cls-14" x1="191.88" y1="324.24" x2="194.04" y2="324.24"/><line class="cls-14" x1="195.72" y1="324.24" x2="197.88" y2="324.24"/><line class="cls-14" x1="199.56" y1="324.24" x2="201.72" y2="324.24"/><line class="cls-14" x1="203.4" y1="324.24" x2="205.56" y2="324.24"/><line class="cls-14" x1="207.24" y1="324.24" x2="209.4" y2="324.24"/><line class="cls-14" x1="211.08" y1="324.24" x2="213.24" y2="324.24"/><line class="cls-14" x1="214.92" y1="324.24" x2="217.08" y2="324.24"/><line class="cls-14" x1="218.76" y1="324.24" x2="220.92" y2="324.24"/><line class="cls-14" x1="222.6" y1="324.24" x2="224.76" y2="324.24"/><line class="cls-14" x1="226.44" y1="324.24" x2="228.6" y2="324.24"/><line class="cls-14" x1="230.28" y1="324.24" x2="232.44" y2="324.24"/><line class="cls-14" x1="234.12" y1="324.24" x2="236.28" y2="324.24"/><line class="cls-14" x1="237.96" y1="324.24" x2="240.12" y2="324.24"/><line class="cls-14" x1="241.8" y1="324.24" x2="243.96" y2="324.24"/><polyline class="cls-14" points="245.64 324.24 248.28 324.24 248.28 322.8"/><line class="cls-14" x1="248.28" y1="320.88" x2="248.28" y2="318.96"/><line class="cls-14" x1="248.28" y1="317.28" x2="248.28" y2="315.12"/><line class="cls-14" x1="248.28" y1="313.44" x2="248.28" y2="311.28"/><line class="cls-14" x1="248.28" y1="309.6" x2="248.28" y2="307.44"/><line class="cls-14" x1="248.28" y1="305.76" x2="248.28" y2="303.6"/><line class="cls-14" x1="248.28" y1="301.92" x2="248.28" y2="299.76"/><line class="cls-14" x1="248.28" y1="298.08" x2="248.28" y2="295.92"/><line class="cls-14" x1="248.28" y1="294.24" x2="248.28" y2="292.08"/><line class="cls-14" x1="248.28" y1="290.4" x2="248.28" y2="288.24"/><line class="cls-14" x1="248.28" y1="286.56" x2="248.28" y2="284.4"/><line class="cls-14" x1="248.28" y1="282.72" x2="248.28" y2="280.56"/><line class="cls-14" x1="248.28" y1="278.88" x2="248.28" y2="276.72"/><line class="cls-14" x1="248.28" y1="275.04" x2="248.28" y2="272.88"/><line class="cls-14" x1="248.28" y1="271.2" x2="248.28" y2="269.04"/><line class="cls-14" x1="248.28" y1="267.36" x2="248.28" y2="265.2"/><line class="cls-14" x1="248.28" y1="263.52" x2="248.28" y2="261.36"/><line class="cls-14" x1="248.28" y1="259.68" x2="248.28" y2="257.52"/><line class="cls-14" x1="248.28" y1="255.84" x2="248.28" y2="253.92"/><line class="cls-14" x1="248.28" y1="252" x2="248.28" y2="250.08"/><line class="cls-14" x1="248.28" y1="248.16" x2="248.28" y2="246.24"/><line class="cls-14" x1="248.28" y1="244.56" x2="248.28" y2="242.4"/><line class="cls-14" x1="248.28" y1="240.72" x2="248.28" y2="238.56"/><line class="cls-14" x1="248.28" y1="236.88" x2="248.28" y2="234.72"/><line class="cls-14" x1="248.28" y1="233.04" x2="248.28" y2="230.88"/><line class="cls-14" x1="248.28" y1="229.2" x2="248.28" y2="227.04"/><line class="cls-14" x1="248.28" y1="225.36" x2="248.28" y2="223.2"/><line class="cls-14" x1="248.28" y1="221.52" x2="248.28" y2="219.36"/><line class="cls-14" x1="248.28" y1="217.68" x2="248.28" y2="215.52"/><line class="cls-14" x1="248.28" y1="213.84" x2="248.28" y2="211.68"/><line class="cls-14" x1="248.28" y1="210" x2="248.28" y2="207.84"/><line class="cls-14" x1="248.28" y1="206.16" x2="248.28" y2="204"/><line class="cls-14" x1="248.28" y1="202.32" x2="248.28" y2="200.16"/><line class="cls-14" x1="248.28" y1="198.48" x2="248.28" y2="196.32"/><line class="cls-14" x1="248.28" y1="194.64" x2="248.28" y2="192.48"/><line class="cls-14" x1="248.28" y1="190.8" x2="248.28" y2="188.64"/><polyline class="cls-14" points="248.28 186.96 248.28 185.52 250.2 185.52"/><line class="cls-14" x1="251.88" y1="185.52" x2="254.04" y2="185.52"/><line class="cls-14" x1="255.72" y1="185.52" x2="257.88" y2="185.52"/><line class="cls-14" x1="259.56" y1="185.52" x2="261.72" y2="185.52"/><line class="cls-14" x1="263.4" y1="185.52" x2="265.56" y2="185.52"/><line class="cls-14" x1="267.24" y1="185.52" x2="269.4" y2="185.52"/><line class="cls-14" x1="271.08" y1="185.52" x2="273.24" y2="185.52"/><line class="cls-14" x1="274.92" y1="185.52" x2="277.08" y2="185.52"/><line class="cls-14" x1="278.76" y1="185.52" x2="280.68" y2="185.52"/><line class="cls-14" x1="282.6" y1="185.52" x2="284.52" y2="185.52"/><line class="cls-14" x1="286.44" y1="185.52" x2="288.36" y2="185.52"/><line class="cls-14" x1="290.04" y1="185.52" x2="292.2" y2="185.52"/><line class="cls-14" x1="293.88" y1="185.52" x2="296.04" y2="185.52"/><line class="cls-14" x1="297.72" y1="185.52" x2="299.88" y2="185.52"/><line class="cls-14" x1="301.56" y1="185.52" x2="303.72" y2="185.52"/><line class="cls-14" x1="305.4" y1="185.52" x2="307.56" y2="185.52"/><line class="cls-14" x1="309.24" y1="185.52" x2="311.4" y2="185.52"/><line class="cls-14" x1="313.08" y1="185.52" x2="315.24" y2="185.52"/><line class="cls-14" x1="316.92" y1="185.52" x2="319.08" y2="185.52"/><line class="cls-14" x1="320.76" y1="185.52" x2="322.92" y2="185.52"/><line class="cls-14" x1="324.6" y1="185.52" x2="326.76" y2="185.52"/><line class="cls-14" x1="328.44" y1="185.52" x2="330.6" y2="185.52"/><line class="cls-14" x1="332.28" y1="185.52" x2="334.44" y2="185.52"/><line class="cls-14" x1="336.12" y1="185.52" x2="338.28" y2="185.52"/><line class="cls-14" x1="339.96" y1="185.52" x2="342.12" y2="185.52"/><line class="cls-14" x1="343.8" y1="185.52" x2="345.96" y2="185.52"/><line class="cls-14" x1="347.64" y1="185.52" x2="349.8" y2="185.52"/><line class="cls-14" x1="351.48" y1="185.52" x2="353.4" y2="185.52"/><line class="cls-14" x1="355.32" y1="185.52" x2="357.24" y2="185.52"/><line class="cls-14" x1="358.92" y1="185.52" x2="361.08" y2="185.52"/><line class="cls-14" x1="362.76" y1="185.52" x2="364.92" y2="185.52"/><polyline class="cls-14" points="366.6 185.52 368.52 185.52 368.52 183.6"/><line class="cls-14" x1="368.52" y1="181.92" x2="368.52" y2="179.76"/><line class="cls-14" x1="368.52" y1="178.08" x2="368.52" y2="175.92"/><line class="cls-14" x1="368.52" y1="174.24" x2="368.52" y2="172.08"/><line class="cls-14" x1="368.52" y1="170.4" x2="368.52" y2="168.24"/><line class="cls-14" x1="368.52" y1="166.56" x2="368.52" y2="164.4"/><line class="cls-14" x1="368.52" y1="162.72" x2="368.52" y2="160.56"/><line class="cls-14" x1="368.52" y1="158.88" x2="368.52" y2="156.96"/><line class="cls-14" x1="368.52" y1="155.04" x2="368.52" y2="153.12"/><line class="cls-14" x1="368.52" y1="151.44" x2="368.52" y2="149.28"/><line class="cls-14" x1="368.52" y1="147.6" x2="368.52" y2="145.44"/><line class="cls-14" x1="368.52" y1="143.76" x2="368.52" y2="141.6"/><line class="cls-14" x1="368.52" y1="139.92" x2="368.52" y2="137.76"/><line class="cls-14" x1="368.52" y1="136.08" x2="368.52" y2="133.92"/><line class="cls-14" x1="368.52" y1="132.24" x2="368.52" y2="130.08"/><line class="cls-14" x1="368.52" y1="128.4" x2="368.52" y2="126.24"/><line class="cls-14" x1="368.52" y1="124.56" x2="368.52" y2="122.4"/><line class="cls-14" x1="368.52" y1="120.72" x2="368.52" y2="118.56"/><line class="cls-14" x1="368.52" y1="116.88" x2="368.52" y2="114.72"/><line class="cls-14" x1="368.52" y1="113.04" x2="368.52" y2="110.88"/><line class="cls-14" x1="368.52" y1="109.2" x2="368.52" y2="107.04"/><line class="cls-14" x1="368.52" y1="105.36" x2="368.52" y2="103.2"/><line class="cls-14" x1="368.52" y1="101.52" x2="368.52" y2="99.36"/><line class="cls-14" x1="368.52" y1="97.68" x2="368.52" y2="95.52"/><line class="cls-14" x1="368.52" y1="93.84" x2="368.52" y2="91.68"/><line class="cls-14" x1="368.52" y1="90" x2="368.52" y2="88.08"/><line class="cls-14" x1="368.52" y1="86.16" x2="368.52" y2="84.24"/><line class="cls-14" x1="368.52" y1="82.32" x2="368.52" y2="80.4"/><line class="cls-14" x1="368.52" y1="78.72" x2="368.52" y2="76.56"/><line class="cls-14" x1="368.52" y1="74.88" x2="368.52" y2="72.72"/><line class="cls-14" x1="368.52" y1="71.04" x2="368.52" y2="68.88"/><line class="cls-14" x1="368.52" y1="67.2" x2="368.52" y2="65.04"/><line class="cls-14" x1="368.52" y1="63.36" x2="368.52" y2="61.2"/><line class="cls-14" x1="368.52" y1="59.52" x2="368.52" y2="57.36"/><line class="cls-14" x1="368.52" y1="55.68" x2="368.52" y2="53.52"/><line class="cls-14" x1="368.52" y1="51.84" x2="368.52" y2="49.68"/><line class="cls-14" x1="368.52" y1="48" x2="368.52" y2="45.84"/><line class="cls-14" x1="368.52" y1="44.16" x2="368.52" y2="42"/><line class="cls-14" x1="368.52" y1="40.32" x2="368.52" y2="38.16"/><line class="cls-14" x1="368.52" y1="36.48" x2="368.52" y2="34.32"/><line class="cls-14" x1="368.52" y1="32.64" x2="368.52" y2="30.48"/><line class="cls-14" x1="368.52" y1="28.8" x2="368.52" y2="26.64"/><line class="cls-14" x1="368.52" y1="24.96" x2="368.52" y2="22.8"/><line class="cls-14" x1="368.52" y1="21.12" x2="368.52" y2="18.96"/><line class="cls-14" x1="368.52" y1="17.28" x2="368.52" y2="15.36"/><line class="cls-14" x1="368.52" y1="13.44" x2="368.52" y2="11.52"/><polyline class="cls-14" points="368.52 9.84 368.52 7.92 366.6 7.92"/><line class="cls-14" x1="364.68" y1="7.92" x2="362.76" y2="7.92"/><line class="cls-14" x1="360.84" y1="7.92" x2="358.92" y2="7.92"/><line class="cls-14" x1="357.24" y1="7.92" x2="355.08" y2="7.92"/><line class="cls-14" x1="353.4" y1="7.92" x2="351.24" y2="7.92"/><line class="cls-14" x1="349.56" y1="7.92" x2="347.4" y2="7.92"/><line class="cls-14" x1="345.72" y1="7.92" x2="343.56" y2="7.92"/><line class="cls-14" x1="341.88" y1="7.92" x2="339.72" y2="7.92"/><line class="cls-14" x1="338.04" y1="7.92" x2="335.88" y2="7.92"/><line class="cls-14" x1="334.2" y1="7.92" x2="332.04" y2="7.92"/><line class="cls-14" x1="330.36" y1="7.92" x2="328.2" y2="7.92"/><line class="cls-14" x1="326.52" y1="7.92" x2="324.36" y2="7.92"/><line class="cls-14" x1="322.68" y1="7.92" x2="320.52" y2="7.92"/><line class="cls-14" x1="318.84" y1="7.92" x2="316.68" y2="7.92"/><line class="cls-14" x1="315" y1="7.92" x2="312.84" y2="7.92"/><line class="cls-14" x1="311.16" y1="7.92" x2="309" y2="7.92"/><line class="cls-14" x1="307.32" y1="7.92" x2="305.16" y2="7.92"/><line class="cls-14" x1="303.48" y1="7.92" x2="301.32" y2="7.92"/><line class="cls-14" x1="299.64" y1="7.92" x2="297.48" y2="7.92"/><line class="cls-14" x1="295.8" y1="7.92" x2="293.88" y2="7.92"/><line class="cls-14" x1="291.96" y1="7.92" x2="290.04" y2="7.92"/><line class="cls-14" x1="288.12" y1="7.92" x2="286.2" y2="7.92"/><line class="cls-14" x1="284.52" y1="7.92" x2="282.36" y2="7.92"/><line class="cls-14" x1="280.68" y1="7.92" x2="278.52" y2="7.92"/><line class="cls-14" x1="276.84" y1="7.92" x2="274.68" y2="7.92"/><line class="cls-14" x1="273" y1="7.92" x2="270.84" y2="7.92"/><line class="cls-14" x1="269.16" y1="7.92" x2="267" y2="7.92"/><line class="cls-14" x1="265.32" y1="7.92" x2="263.16" y2="7.92"/><line class="cls-14" x1="261.48" y1="7.92" x2="259.32" y2="7.92"/><line class="cls-14" x1="257.64" y1="7.92" x2="255.48" y2="7.92"/><line class="cls-14" x1="253.8" y1="7.92" x2="251.64" y2="7.92"/><line class="cls-14" x1="249.96" y1="7.92" x2="247.8" y2="7.92"/><line class="cls-14" x1="246.12" y1="7.92" x2="243.96" y2="7.92"/><line class="cls-14" x1="242.28" y1="7.92" x2="240.12" y2="7.92"/><line class="cls-14" x1="238.44" y1="7.92" x2="236.28" y2="7.92"/><line class="cls-14" x1="234.6" y1="7.92" x2="232.44" y2="7.92"/><line class="cls-14" x1="230.76" y1="7.92" x2="228.6" y2="7.92"/><line class="cls-14" x1="226.92" y1="7.92" x2="225" y2="7.92"/><line class="cls-14" x1="223.08" y1="7.92" x2="221.16" y2="7.92"/><line class="cls-14" x1="219.24" y1="7.92" x2="217.32" y2="7.92"/><line class="cls-14" x1="215.64" y1="7.92" x2="213.48" y2="7.92"/><line class="cls-14" x1="211.8" y1="7.92" x2="209.64" y2="7.92"/><line class="cls-14" x1="207.96" y1="7.92" x2="205.8" y2="7.92"/><line class="cls-14" x1="204.12" y1="7.92" x2="201.96" y2="7.92"/><line class="cls-14" x1="200.28" y1="7.92" x2="198.12" y2="7.92"/><line class="cls-14" x1="196.44" y1="7.92" x2="194.28" y2="7.92"/><line class="cls-14" x1="192.6" y1="7.92" x2="190.44" y2="7.92"/><line class="cls-14" x1="188.76" y1="7.92" x2="186.6" y2="7.92"/><line class="cls-14" x1="184.92" y1="7.92" x2="182.76" y2="7.92"/><line class="cls-14" x1="181.08" y1="7.92" x2="178.92" y2="7.92"/><line class="cls-14" x1="177.24" y1="7.92" x2="175.08" y2="7.92"/><line class="cls-14" x1="173.4" y1="7.92" x2="171.24" y2="7.92"/><line class="cls-14" x1="169.56" y1="7.92" x2="167.4" y2="7.92"/><line class="cls-14" x1="165.72" y1="7.92" x2="163.56" y2="7.92"/><line class="cls-14" x1="161.88" y1="7.92" x2="159.72" y2="7.92"/><line class="cls-14" x1="158.04" y1="7.92" x2="155.88" y2="7.92"/><line class="cls-14" x1="154.2" y1="7.92" x2="152.28" y2="7.92"/><line class="cls-14" x1="150.36" y1="7.92" x2="148.44" y2="7.92"/><line class="cls-14" x1="146.52" y1="7.92" x2="144.6" y2="7.92"/><line class="cls-14" x1="142.92" y1="7.92" x2="140.76" y2="7.92"/><line class="cls-14" x1="139.08" y1="7.92" x2="136.92" y2="7.92"/><line class="cls-14" x1="135.24" y1="7.92" x2="133.08" y2="7.92"/><line class="cls-14" x1="131.4" y1="7.92" x2="129.24" y2="7.92"/><line class="cls-14" x1="127.56" y1="7.92" x2="125.4" y2="7.92"/><line class="cls-14" x1="123.72" y1="7.92" x2="121.56" y2="7.92"/><line class="cls-14" x1="119.88" y1="7.92" x2="117.72" y2="7.92"/><line class="cls-14" x1="116.04" y1="7.92" x2="113.88" y2="7.92"/><line class="cls-14" x1="112.2" y1="7.92" x2="110.04" y2="7.92"/><line class="cls-14" x1="108.36" y1="7.92" x2="106.2" y2="7.92"/><line class="cls-14" x1="104.52" y1="7.92" x2="102.36" y2="7.92"/><line class="cls-14" x1="100.68" y1="7.92" x2="98.52" y2="7.92"/><line class="cls-14" x1="96.84" y1="7.92" x2="94.68" y2="7.92"/><line class="cls-14" x1="93" y1="7.92" x2="90.84" y2="7.92"/><line class="cls-14" x1="89.16" y1="7.92" x2="87" y2="7.92"/><line class="cls-14" x1="85.32" y1="7.92" x2="83.16" y2="7.92"/><line class="cls-14" x1="81.48" y1="7.92" x2="79.56" y2="7.92"/><line class="cls-14" x1="77.64" y1="7.92" x2="75.72" y2="7.92"/><line class="cls-14" x1="74.04" y1="7.92" x2="71.88" y2="7.92"/><line class="cls-14" x1="70.2" y1="7.92" x2="68.04" y2="7.92"/><line class="cls-14" x1="66.36" y1="7.92" x2="64.2" y2="7.92"/><line class="cls-14" x1="62.52" y1="7.92" x2="60.36" y2="7.92"/><line class="cls-14" x1="58.68" y1="7.92" x2="56.52" y2="7.92"/><line class="cls-14" x1="54.84" y1="7.92" x2="52.68" y2="7.92"/><line class="cls-14" x1="51" y1="7.92" x2="48.84" y2="7.92"/><line class="cls-14" x1="47.16" y1="7.92" x2="45" y2="7.92"/><line class="cls-14" x1="43.32" y1="7.92" x2="41.16" y2="7.92"/><line class="cls-14" x1="39.48" y1="7.92" x2="37.32" y2="7.92"/><line class="cls-14" x1="35.64" y1="7.92" x2="33.48" y2="7.92"/><line class="cls-14" x1="31.8" y1="7.92" x2="29.64" y2="7.92"/><line class="cls-14" x1="27.96" y1="7.92" x2="25.8" y2="7.92"/><line class="cls-14" x1="24.12" y1="7.92" x2="21.96" y2="7.92"/><line class="cls-14" x1="20.28" y1="7.92" x2="18.12" y2="7.92"/><line class="cls-14" x1="16.44" y1="7.92" x2="14.28" y2="7.92"/><line class="cls-14" x1="12.6" y1="7.92" x2="10.68" y2="7.92"/><line class="cls-14" x1="8.76" y1="7.92" x2="6.84" y2="7.92"/><polyline class="cls-15" points="81.72 250.8 83.16 251.04 84.6 251.28"/><polyline class="cls-15" points="103.08 250.8 101.64 251.04 100.2 251.28"/><line class="cls-15" x1="79.08" y1="247.68" x2="79.08" y2="248.16"/><polyline class="cls-15" points="79.08 247.68 78.84 246 79.08 244.32"/><polyline class="cls-15" points="81.72 250.8 80.04 249.84 79.08 248.16"/><line class="cls-15" x1="105.96" y1="247.68" x2="105.72" y2="248.16"/><polyline class="cls-15" points="105.96 247.68 105.96 246 105.72 244.32"/><polyline class="cls-15" points="103.08 250.8 104.76 249.84 105.72 248.16"/><line class="cls-14" x1="106.68" y1="259.2" x2="78.12" y2="259.2"/><polyline class="cls-14" points="106.92 241.68 105.48 239.28 103.56 237.12"/><polyline class="cls-14" points="108.12 246.72 107.64 244.08 106.92 241.68"/><polyline class="cls-14" points="106.68 259.2 107.64 252.96 108.12 246.48"/><polyline class="cls-14" points="76.92 246.48 77.16 252.96 78.12 259.2"/><polyline class="cls-14" points="98.52 234.48 95.4 233.52 92.52 233.28"/><polyline class="cls-14" points="103.56 237.12 101.16 235.68 98.52 234.48"/><polyline class="cls-14" points="77.88 241.68 77.16 244.08 76.92 246.72"/><polyline class="cls-14" points="81.48 237.12 79.56 239.28 77.88 241.68"/><polyline class="cls-14" points="86.28 234.48 83.64 235.68 81.48 237.12"/><polyline class="cls-14" points="92.52 233.28 89.4 233.52 86.28 234.48"/><polyline class="cls-15" points="77.88 258 106.92 258 107.64 252.24 108.12 246.48 107.64 244.08 106.92 241.68 105.48 239.28 103.56 237.12 101.16 235.68 98.52 234.48 95.4 233.52 92.52 233.28 89.4 233.52 86.28 234.48 83.64 235.68 81.48 237.12 79.56 239.28 77.88 241.68 77.16 244.08 76.92 246.48 77.16 252.24 77.88 258"/><polyline class="cls-15" points="66.84 259.2 117.96 259.2 117.96 258 66.84 258 66.84 259.2"/><line class="cls-14" x1="135" y1="64.32" x2="15.24" y2="64.32"/><polyline class="cls-14" points="137.88 67.2 136.92 65.28 135 64.32"/><line class="cls-14" x1="137.88" y1="117.6" x2="137.88" y2="67.2"/><polyline class="cls-14" points="135 120.48 136.92 119.76 137.88 117.6"/><line class="cls-14" x1="15.24" y1="120.48" x2="135" y2="120.48"/><polyline class="cls-14" points="12.36 117.6 13.32 119.76 15.24 120.48"/><line class="cls-14" x1="12.36" y1="67.2" x2="12.36" y2="117.6"/><polyline class="cls-14" points="15.24 64.32 13.32 65.28 12.36 67.2"/><polyline class="cls-15" points="44.04 120.48 44.04 119.04 16.68 119.04 16.68 120.48 44.04 120.48"/><polyline class="cls-15" points="130.2 65.76 130.2 64.32 89.88 64.32 89.88 65.76 130.2 65.76"/><polyline class="cls-15" points="43.8 65.76 43.8 64.32 16.44 64.32 16.44 65.76 43.8 65.76"/><line class="cls-15" x1="135.96" y1="69.84" x2="137.4" y2="69.84"/><line class="cls-15" x1="135.96" y1="115.2" x2="135.96" y2="69.84"/><line class="cls-15" x1="137.4" y1="115.2" x2="135.96" y2="115.2"/><line class="cls-15" x1="137.4" y1="69.84" x2="137.4" y2="115.2"/><line class="cls-15" x1="14.28" y1="69.84" x2="12.84" y2="69.84"/><line class="cls-15" x1="14.28" y1="115.2" x2="14.28" y2="69.84"/><line class="cls-15" x1="12.84" y1="115.2" x2="14.28" y2="115.2"/><line class="cls-15" x1="12.84" y1="69.84" x2="12.84" y2="115.2"/><line class="cls-15" x1="40.92" y1="115.44" x2="17.16" y2="115.44"/><line class="cls-15" x1="40.92" y1="69.12" x2="40.92" y2="115.44"/><line class="cls-15" x1="17.16" y1="69.12" x2="40.92" y2="69.12"/><line class="cls-15" x1="17.16" y1="115.44" x2="17.16" y2="69.12"/><line class="cls-15" x1="132.84" y1="66.48" x2="17.4" y2="66.48"/><polyline class="cls-15" points="135.72 69.36 134.76 67.44 132.84 66.48"/><line class="cls-15" x1="135.72" y1="115.44" x2="135.72" y2="69.36"/><polyline class="cls-15" points="132.84 118.32 134.76 117.6 135.72 115.44"/><line class="cls-15" x1="17.4" y1="118.32" x2="132.84" y2="118.32"/><polyline class="cls-15" points="14.52 115.44 15.48 117.6 17.4 118.32"/><line class="cls-15" x1="14.52" y1="69.36" x2="14.52" y2="115.44"/><polyline class="cls-15" points="17.4 66.48 15.48 67.44 14.52 69.36"/><polyline class="cls-15" points="12.36 67.2 12.36 117.6 12.6 118.32 12.84 119.04 13.32 119.76 13.8 120.24 14.52 120.48 15.24 120.48 135 120.48 135.72 120.48 136.44 120.24 136.92 119.76 137.4 119.04 137.64 118.32 137.88 117.6 137.88 67.2 137.64 66.48 137.4 65.76 136.92 65.28 136.44 64.8 135.72 64.56 135 64.32 15.24 64.32 14.52 64.56 13.8 64.8 13.32 65.28 12.84 65.76 12.6 66.48 12.36 67.2"/><line class="cls-14" x1="240.36" y1="64.32" x2="360.12" y2="64.32"/><polyline class="cls-14" points="237.48 67.2 238.44 65.28 240.36 64.32"/><line class="cls-14" x1="237.48" y1="117.6" x2="237.48" y2="67.2"/><polyline class="cls-14" points="240.36 120.48 238.44 119.76 237.48 117.6"/><line class="cls-14" x1="360.12" y1="120.48" x2="240.36" y2="120.48"/><polyline class="cls-14" points="362.76 117.6 362.04 119.76 360.12 120.48"/><line class="cls-14" x1="362.76" y1="67.2" x2="362.76" y2="117.6"/><polyline class="cls-14" points="360.12 64.32 362.04 65.28 362.76 67.2"/><polyline class="cls-15" points="331.32 120.48 331.32 119.04 358.68 119.04 358.68 120.48 331.32 120.48"/><polyline class="cls-15" points="245.16 65.76 245.16 64.32 285.48 64.32 285.48 65.76 245.16 65.76"/><polyline class="cls-15" points="331.56 65.76 331.56 64.32 358.92 64.32 358.92 65.76 331.56 65.76"/><line class="cls-15" x1="239.4" y1="69.84" x2="237.96" y2="69.84"/><line class="cls-15" x1="239.4" y1="115.2" x2="239.4" y2="69.84"/><line class="cls-15" x1="237.96" y1="115.2" x2="239.4" y2="115.2"/><line class="cls-15" x1="237.96" y1="69.84" x2="237.96" y2="115.2"/><line class="cls-15" x1="361.08" y1="69.84" x2="362.52" y2="69.84"/><line class="cls-15" x1="361.08" y1="115.2" x2="361.08" y2="69.84"/><line class="cls-15" x1="362.52" y1="115.2" x2="361.08" y2="115.2"/><line class="cls-15" x1="362.52" y1="69.84" x2="362.52" y2="115.2"/><line class="cls-15" x1="334.44" y1="115.44" x2="358.2" y2="115.44"/><line class="cls-15" x1="334.44" y1="69.12" x2="334.44" y2="115.44"/><line class="cls-15" x1="358.2" y1="69.12" x2="334.44" y2="69.12"/><line class="cls-15" x1="358.2" y1="115.44" x2="358.2" y2="69.12"/><line class="cls-15" x1="242.52" y1="66.48" x2="357.96" y2="66.48"/><polyline class="cls-15" points="239.64 69.36 240.6 67.44 242.52 66.48"/><line class="cls-15" x1="239.64" y1="115.44" x2="239.64" y2="69.36"/><polyline class="cls-15" points="242.52 118.32 240.6 117.6 239.64 115.44"/><line class="cls-15" x1="357.96" y1="118.32" x2="242.52" y2="118.32"/><polyline class="cls-15" points="360.6 115.44 359.88 117.6 357.96 118.32"/><line class="cls-15" x1="360.6" y1="69.36" x2="360.6" y2="115.44"/><polyline class="cls-15" points="357.96 66.48 359.88 67.44 360.6 69.36"/><polyline class="cls-15" points="362.76 67.2 362.76 66.48 362.52 65.76 362.04 65.28 361.56 64.8 360.84 64.56 360.12 64.32 240.36 64.32 239.64 64.56 238.92 64.8 238.44 65.28 237.96 65.76 237.72 66.48 237.48 67.2 237.48 117.6 237.72 118.32 237.96 119.04 238.44 119.76 238.92 120.24 239.64 120.48 240.36 120.48 360.12 120.48 360.84 120.48 361.56 120.24 362.04 119.76 362.52 119.04 362.76 118.32 362.76 117.6 362.76 67.2"/><polyline class="cls-14" points="206.04 327.84 207 320.16 209.4 312.96 213.48 306.48 219 301.2 225.24 297.12 232.44 294.48 240.12 293.76"/><polyline class="cls-14" points="237.24 327.84 237.24 293.76 240.12 293.76 240.12 327.84 237.24 327.84"/><polyline class="cls-14" points="206.04 327.84 205.32 317.76 202.68 308.16 198.36 299.28 192.84 291.12 185.64 284.16 177.72 278.4 168.6 274.08 159 271.68 149.16 270.72"/><polyline class="cls-14" points="152.04 327.84 152.04 270.72 149.16 270.72 149.16 327.84 152.04 327.84"/><polyline class="cls-14" points="240.12 324.24 149.16 324.24 149.16 331.2 240.12 331.2 240.12 324.24 149.16 324.24 149.16 331.2 240.12 331.2 240.12 324.24"/><line class="cls-16" x1="19.8" y1="92.4" x2="31.08" y2="92.4"/><line class="cls-16" x1="42.6" y1="92.4" x2="53.88" y2="92.4"/><line class="cls-16" x1="65.16" y1="92.4" x2="76.44" y2="92.4"/><line class="cls-16" x1="87.96" y1="92.4" x2="99.24" y2="92.4"/><line class="cls-16" x1="110.52" y1="92.4" x2="121.8" y2="92.4"/><line class="cls-16" x1="133.32" y1="92.4" x2="144.6" y2="92.4"/><line class="cls-16" x1="155.88" y1="92.4" x2="167.16" y2="92.4"/><line class="cls-16" x1="178.68" y1="92.4" x2="189.96" y2="92.4"/><line class="cls-16" x1="201.24" y1="92.4" x2="212.52" y2="92.4"/><line class="cls-16" x1="224.04" y1="92.4" x2="235.32" y2="92.4"/><line class="cls-16" x1="246.6" y1="92.4" x2="257.88" y2="92.4"/><line class="cls-16" x1="269.4" y1="92.4" x2="280.68" y2="92.4"/><line class="cls-16" x1="291.96" y1="92.4" x2="303.24" y2="92.4"/><line class="cls-16" x1="314.76" y1="92.4" x2="326.04" y2="92.4"/><line class="cls-16" x1="337.32" y1="92.4" x2="348.6" y2="92.4"/><line class="cls-16" x1="360.12" y1="92.4" x2="371.4" y2="92.4"/><line class="cls-16" x1="382.68" y1="92.4" x2="393.96" y2="92.4"/><line class="cls-16" x1="92.52" y1="233.28" x2="92.52" y2="241.92"/><line class="cls-16" x1="92.52" y1="253.2" x2="92.52" y2="264.48"/><line class="cls-16" x1="92.52" y1="275.76" x2="92.52" y2="287.28"/><line class="cls-16" x1="92.52" y1="298.56" x2="92.52" y2="309.84"/><line class="cls-16" x1="92.52" y1="321.12" x2="92.52" y2="332.64"/><line class="cls-16" x1="92.52" y1="343.92" x2="92.52" y2="352.32"/><line class="cls-17" x1="405.72" y1="4.56" x2="405.72" y2="92.4"/><line class="cls-16" x1="405.72" y1="92.4" x2="401.64" y2="88.08"/><line class="cls-16" x1="405.72" y1="92.4" x2="410.04" y2="96.72"/><line class="cls-17" x1="405.72" y1="92.4" x2="412.92" y2="92.4"/><line class="cls-17" x1="405.72" y1="92.4" x2="391.56" y2="92.4"/><line class="cls-16" x1="405.72" y1="4.56" x2="401.64" y2="0.24"/><line class="cls-16" x1="405.72" y1="4.56" x2="410.04" y2="8.88"/><line class="cls-17" x1="405.72" y1="4.56" x2="412.92" y2="4.56"/><line class="cls-17" x1="405.72" y1="4.56" x2="391.56" y2="4.56"/><rect class="cls-18" x="392.28" y="9.84" width="9.6" height="77.76"/><text class="cls-19" transform="translate(399.96 87.36) rotate(-90)">Graph<tspan class="cls-20" x="18" y="0">i</tspan><tspan class="cls-21" x="19.44" y="0">c</tspan><tspan class="cls-22" x="22.56" y="0"> </tspan><tspan class="cls-23" x="24.48" y="0">D</tspan><tspan x="29.28" y="0">oub</tspan><tspan class="cls-24" x="40.08" y="0">l</tspan><tspan x="41.28" y="0">e</tspan><tspan class="cls-22" x="44.88" y="0"> </tspan><tspan class="cls-25" x="46.8" y="0">Bed</tspan><tspan class="cls-26" x="58.33" y="0"> </tspan><tspan x="60.02" y="0">O</tspan><tspan class="cls-22" x="65.09" y="0">ff</tspan><tspan class="cls-27" x="68.92" y="0">s</tspan><tspan x="72.27" y="0">e</tspan><tspan class="cls-28" x="75.87" y="0">t</tspan></text><line class="cls-17" x1="92.52" y1="358.8" x2="137.88" y2="358.8"/><line class="cls-16" x1="137.88" y1="358.8" x2="133.56" y2="363.12"/><line class="cls-16" x1="137.88" y1="358.8" x2="141.96" y2="354.72"/><line class="cls-17" x1="137.88" y1="358.8" x2="137.88" y2="366"/><line class="cls-17" x1="137.88" y1="358.8" x2="137.88" y2="344.64"/><line class="cls-16" x1="92.52" y1="358.8" x2="88.2" y2="363.12"/><line class="cls-16" x1="92.52" y1="358.8" x2="96.6" y2="354.72"/><line class="cls-17" x1="92.52" y1="358.8" x2="92.52" y2="366"/><line class="cls-17" x1="92.52" y1="358.8" x2="92.52" y2="344.64"/><rect class="cls-18" x="107.16" y="363.12" width="15.6" height="8.88"/><text class="cls-29" transform="translate(107.16 370.32)"><tspan class="cls-30">F</tspan><tspan class="cls-20" x="3.85" y="0">i</tspan><tspan class="cls-31" x="5.29" y="0">x</tspan><tspan class="cls-25" x="8.41" y="0">e</tspan><tspan x="12.01" y="0">d</tspan></text><rect class="cls-18" x="109.8" y="345.36" width="10.8" height="8.88"/><text class="cls-29" transform="translate(109.8 352.56)"><tspan class="cls-25">80</tspan><tspan x="7.2" y="0">0</tspan></text></g></g></svg>