<svg xmlns="http://www.w3.org/2000/svg" xmlns:xlink="http://www.w3.org/1999/xlink" viewBox="0 0 260.52 302.76"><defs><style>.cls-1,.cls-15,.cls-16,.cls-17,.cls-18,.cls-2{fill:none;}.cls-1{clip-rule:evenodd;}.cls-3{clip-path:url(#clip-path);}.cls-4{clip-path:url(#clip-path-2);}.cls-5{fill:#c6d3b4;}.cls-12,.cls-6{font-size:4.08px;font-family:ArialMT, Arial;}.cls-12,.cls-7{letter-spacing:-0.03em;}.cls-8{letter-spacing:0.02em;}.cls-9{letter-spacing:-0.09em;}.cls-10{letter-spacing:0.02em;}.cls-11{letter-spacing:-0.03em;}.cls-13{letter-spacing:-0.04em;}.cls-14{letter-spacing:0em;}.cls-15,.cls-16{stroke:#000;}.cls-15,.cls-16,.cls-17,.cls-18{stroke-linecap:round;stroke-linejoin:round;}.cls-15,.cls-18{stroke-width:0.24px;}.cls-16,.cls-17{stroke-width:0.48px;}.cls-17,.cls-18{stroke:red;}.cls-19{fill:#fff;}.cls-20{font-size:8.05px;fill:red;font-family:ArialNarrow, Arial;}.cls-21{letter-spacing:-0.01em;}.cls-22{letter-spacing:0.01em;}.cls-23{letter-spacing:-0.02em;}.cls-24{letter-spacing:-0.01em;}.cls-25{letter-spacing:0.01em;}.cls-26{letter-spacing:-0.04em;}.cls-27{letter-spacing:0em;}</style><clipPath id="clip-path" transform="translate(-757.18 -601.56)"><path class="cls-1" d="M884.62,719.64l-.72.24-1,1-.24.72-.24,51.12.24.24v.72h.24v.72h.24l.24.24v.48h.24l.24.24.72.24,121.2.24v-.24l1-.48.48-.48.24-.48.24-53-1-1-1-.48M796.54,609.48v27.6h1v11l5.76-1h8.16a16.18,16.18,0,0,1,7.68,5v.48h.24l.24.24v.48h.24l.24.24v.48h.24v.48h.24v.48h.24v.48H821V656h.24v.48h.24v1h.24v1H822v1.2h.24l-.24,6-.72,2.88c-1.66,4.34-3.71,6.68-7.92,8.64l-2.16.72-7.92.24v-.24l-4.32-.72H797.5v11h-1V897.48h214.32v-288Z"/></clipPath><clipPath id="clip-path-2" transform="translate(-757.18 -601.56)"><rect class="cls-2" width="1684.08" height="1191.12"/></clipPath></defs><title>PushIt - Floor Plan - SP-Room-Bed-Rectangle_Sample_3</title><g id="Layer_2" data-name="Layer 2"><g id="Layer_1-2" data-name="Layer 1"><g class="cls-3"><g class="cls-4"><rect class="cls-5" x="39.36" y="7.92" width="214.32" height="288"/></g></g><text class="cls-6" transform="translate(145.2 148.8)">?</text><text class="cls-6" transform="translate(135.6 161.52)"><tspan class="cls-7">3900</tspan><tspan class="cls-8" x="8.64" y="0"> </tspan><tspan class="cls-9" x="9.84" y="0">x</tspan><tspan class="cls-8" x="11.52" y="0"> </tspan><tspan class="cls-7" x="12.72" y="0">520</tspan><tspan x="19.2" y="0">0</tspan></text><text class="cls-6" transform="translate(141.84 153.12)"><tspan class="cls-7">12</tspan><tspan class="cls-10" x="4.32" y="0">.</tspan><tspan class="cls-11" x="5.52" y="0">0</tspan><tspan x="7.68" y="0">0</tspan></text><text class="cls-12" transform="translate(134.64 157.2)">20<tspan class="cls-10" x="4.32" y="0">.</tspan><tspan class="cls-11" x="5.52" y="0">28</tspan><tspan class="cls-8" x="9.84" y="0"> </tspan><tspan class="cls-13" x="11.04" y="0">(</tspan><tspan x="12.24" y="0">19</tspan><tspan class="cls-8" x="16.55" y="0">.</tspan><tspan x="17.75" y="0">20</tspan><tspan class="cls-14" x="22.07" y="0">)</tspan></text><text class="cls-6" transform="translate(145.2 144.48)">?</text><polyline class="cls-15" points="253.68 295.92 39.36 295.92 39.36 7.92 253.68 7.92 253.68 295.92"/><polyline class="cls-15" points="260.4 0.96 32.4 0.96 32.4 302.64 260.4 302.64 260.4 0.96"/><line class="cls-15" x1="39.36" y1="295.92" x2="40.32" y2="295.92"/><line class="cls-15" x1="42" y1="295.92" x2="44.16" y2="295.92"/><line class="cls-15" x1="45.84" y1="295.92" x2="48" y2="295.92"/><line class="cls-15" x1="49.68" y1="295.92" x2="51.84" y2="295.92"/><line class="cls-15" x1="53.52" y1="295.92" x2="55.68" y2="295.92"/><line class="cls-15" x1="57.36" y1="295.92" x2="59.52" y2="295.92"/><line class="cls-15" x1="61.2" y1="295.92" x2="63.36" y2="295.92"/><line class="cls-15" x1="65.04" y1="295.92" x2="67.2" y2="295.92"/><line class="cls-15" x1="68.88" y1="295.92" x2="71.04" y2="295.92"/><line class="cls-15" x1="72.72" y1="295.92" x2="74.88" y2="295.92"/><line class="cls-15" x1="76.56" y1="295.92" x2="78.48" y2="295.92"/><line class="cls-15" x1="80.4" y1="295.92" x2="82.32" y2="295.92"/><line class="cls-15" x1="84" y1="295.92" x2="86.16" y2="295.92"/><line class="cls-15" x1="87.84" y1="295.92" x2="90" y2="295.92"/><line class="cls-15" x1="91.68" y1="295.92" x2="93.84" y2="295.92"/><line class="cls-15" x1="95.52" y1="295.92" x2="97.68" y2="295.92"/><line class="cls-15" x1="99.36" y1="295.92" x2="101.52" y2="295.92"/><line class="cls-15" x1="103.2" y1="295.92" x2="105.36" y2="295.92"/><line class="cls-15" x1="107.04" y1="295.92" x2="109.2" y2="295.92"/><line class="cls-15" x1="110.88" y1="295.92" x2="113.04" y2="295.92"/><line class="cls-15" x1="114.72" y1="295.92" x2="116.88" y2="295.92"/><line class="cls-15" x1="118.56" y1="295.92" x2="120.72" y2="295.92"/><line class="cls-15" x1="122.4" y1="295.92" x2="124.56" y2="295.92"/><line class="cls-15" x1="126.24" y1="295.92" x2="128.4" y2="295.92"/><line class="cls-15" x1="130.08" y1="295.92" x2="132.24" y2="295.92"/><line class="cls-15" x1="133.92" y1="295.92" x2="136.08" y2="295.92"/><line class="cls-15" x1="137.76" y1="295.92" x2="139.92" y2="295.92"/><line class="cls-15" x1="141.6" y1="295.92" x2="143.76" y2="295.92"/><line class="cls-15" x1="145.44" y1="295.92" x2="147.36" y2="295.92"/><line class="cls-15" x1="149.28" y1="295.92" x2="151.2" y2="295.92"/><line class="cls-15" x1="153.12" y1="295.92" x2="155.04" y2="295.92"/><line class="cls-15" x1="156.72" y1="295.92" x2="158.88" y2="295.92"/><line class="cls-15" x1="160.56" y1="295.92" x2="162.72" y2="295.92"/><line class="cls-15" x1="164.4" y1="295.92" x2="166.56" y2="295.92"/><line class="cls-15" x1="168.24" y1="295.92" x2="170.4" y2="295.92"/><line class="cls-15" x1="172.08" y1="295.92" x2="174.24" y2="295.92"/><line class="cls-15" x1="175.92" y1="295.92" x2="178.08" y2="295.92"/><line class="cls-15" x1="179.76" y1="295.92" x2="181.92" y2="295.92"/><line class="cls-15" x1="183.6" y1="295.92" x2="185.76" y2="295.92"/><line class="cls-15" x1="187.44" y1="295.92" x2="189.6" y2="295.92"/><line class="cls-15" x1="191.28" y1="295.92" x2="193.44" y2="295.92"/><line class="cls-15" x1="195.12" y1="295.92" x2="197.28" y2="295.92"/><line class="cls-15" x1="198.96" y1="295.92" x2="201.12" y2="295.92"/><line class="cls-15" x1="202.8" y1="295.92" x2="204.96" y2="295.92"/><line class="cls-15" x1="206.64" y1="295.92" x2="208.8" y2="295.92"/><line class="cls-15" x1="210.48" y1="295.92" x2="212.64" y2="295.92"/><line class="cls-15" x1="214.32" y1="295.92" x2="216.48" y2="295.92"/><line class="cls-15" x1="218.16" y1="295.92" x2="220.08" y2="295.92"/><line class="cls-15" x1="222" y1="295.92" x2="223.92" y2="295.92"/><line class="cls-15" x1="225.84" y1="295.92" x2="227.76" y2="295.92"/><line class="cls-15" x1="229.44" y1="295.92" x2="231.6" y2="295.92"/><line class="cls-15" x1="233.28" y1="295.92" x2="235.44" y2="295.92"/><line class="cls-15" x1="237.12" y1="295.92" x2="239.28" y2="295.92"/><line class="cls-15" x1="240.96" y1="295.92" x2="243.12" y2="295.92"/><line class="cls-15" x1="244.8" y1="295.92" x2="246.96" y2="295.92"/><line class="cls-15" x1="248.64" y1="295.92" x2="250.8" y2="295.92"/><polyline class="cls-15" points="252.48 295.92 253.68 295.92 253.68 294.24"/><line class="cls-15" x1="253.68" y1="292.56" x2="253.68" y2="290.4"/><line class="cls-15" x1="253.68" y1="288.72" x2="253.68" y2="286.56"/><line class="cls-15" x1="253.68" y1="284.88" x2="253.68" y2="282.72"/><line class="cls-15" x1="253.68" y1="281.04" x2="253.68" y2="279.12"/><line class="cls-15" x1="253.68" y1="277.2" x2="253.68" y2="275.28"/><line class="cls-15" x1="253.68" y1="273.6" x2="253.68" y2="271.44"/><line class="cls-15" x1="253.68" y1="269.76" x2="253.68" y2="267.6"/><line class="cls-15" x1="253.68" y1="265.92" x2="253.68" y2="263.76"/><line class="cls-15" x1="253.68" y1="262.08" x2="253.68" y2="259.92"/><line class="cls-15" x1="253.68" y1="258.24" x2="253.68" y2="256.08"/><line class="cls-15" x1="253.68" y1="254.4" x2="253.68" y2="252.24"/><line class="cls-15" x1="253.68" y1="250.56" x2="253.68" y2="248.4"/><line class="cls-15" x1="253.68" y1="246.72" x2="253.68" y2="244.56"/><line class="cls-15" x1="253.68" y1="242.88" x2="253.68" y2="240.72"/><line class="cls-15" x1="253.68" y1="239.04" x2="253.68" y2="236.88"/><line class="cls-15" x1="253.68" y1="235.2" x2="253.68" y2="233.04"/><line class="cls-15" x1="253.68" y1="231.36" x2="253.68" y2="229.2"/><line class="cls-15" x1="253.68" y1="227.52" x2="253.68" y2="225.36"/><line class="cls-15" x1="253.68" y1="223.68" x2="253.68" y2="221.52"/><line class="cls-15" x1="253.68" y1="219.84" x2="253.68" y2="217.68"/><line class="cls-15" x1="253.68" y1="216" x2="253.68" y2="213.84"/><line class="cls-15" x1="253.68" y1="212.16" x2="253.68" y2="210.24"/><line class="cls-15" x1="253.68" y1="208.32" x2="253.68" y2="206.4"/><line class="cls-15" x1="253.68" y1="204.48" x2="253.68" y2="202.56"/><line class="cls-15" x1="253.68" y1="200.88" x2="253.68" y2="198.72"/><line class="cls-15" x1="253.68" y1="197.04" x2="253.68" y2="194.88"/><line class="cls-15" x1="253.68" y1="193.2" x2="253.68" y2="191.04"/><line class="cls-15" x1="253.68" y1="189.36" x2="253.68" y2="187.2"/><line class="cls-15" x1="253.68" y1="185.52" x2="253.68" y2="183.36"/><line class="cls-15" x1="253.68" y1="181.68" x2="253.68" y2="179.52"/><line class="cls-15" x1="253.68" y1="177.84" x2="253.68" y2="175.68"/><line class="cls-15" x1="253.68" y1="174" x2="253.68" y2="171.84"/><line class="cls-15" x1="253.68" y1="170.16" x2="253.68" y2="168"/><line class="cls-15" x1="253.68" y1="166.32" x2="253.68" y2="164.16"/><line class="cls-15" x1="253.68" y1="162.48" x2="253.68" y2="160.32"/><line class="cls-15" x1="253.68" y1="158.64" x2="253.68" y2="156.48"/><line class="cls-15" x1="253.68" y1="154.8" x2="253.68" y2="152.64"/><line class="cls-15" x1="253.68" y1="150.96" x2="253.68" y2="148.8"/><line class="cls-15" x1="253.68" y1="147.12" x2="253.68" y2="144.96"/><line class="cls-15" x1="253.68" y1="143.28" x2="253.68" y2="141.12"/><line class="cls-15" x1="253.68" y1="139.44" x2="253.68" y2="137.52"/><line class="cls-15" x1="253.68" y1="135.6" x2="253.68" y2="133.68"/><line class="cls-15" x1="253.68" y1="131.76" x2="253.68" y2="129.84"/><line class="cls-15" x1="253.68" y1="128.16" x2="253.68" y2="126"/><line class="cls-15" x1="253.68" y1="124.32" x2="253.68" y2="122.16"/><line class="cls-15" x1="253.68" y1="120.48" x2="253.68" y2="118.32"/><line class="cls-15" x1="253.68" y1="116.64" x2="253.68" y2="114.48"/><line class="cls-15" x1="253.68" y1="112.8" x2="253.68" y2="110.64"/><line class="cls-15" x1="253.68" y1="108.96" x2="253.68" y2="106.8"/><line class="cls-15" x1="253.68" y1="105.12" x2="253.68" y2="102.96"/><line class="cls-15" x1="253.68" y1="101.28" x2="253.68" y2="99.12"/><line class="cls-15" x1="253.68" y1="97.44" x2="253.68" y2="95.28"/><line class="cls-15" x1="253.68" y1="93.6" x2="253.68" y2="91.44"/><line class="cls-15" x1="253.68" y1="89.76" x2="253.68" y2="87.6"/><line class="cls-15" x1="253.68" y1="85.92" x2="253.68" y2="83.76"/><line class="cls-15" x1="253.68" y1="82.08" x2="253.68" y2="79.92"/><line class="cls-15" x1="253.68" y1="78.24" x2="253.68" y2="76.08"/><line class="cls-15" x1="253.68" y1="74.4" x2="253.68" y2="72.24"/><line class="cls-15" x1="253.68" y1="70.56" x2="253.68" y2="68.64"/><line class="cls-15" x1="253.68" y1="66.72" x2="253.68" y2="64.8"/><line class="cls-15" x1="253.68" y1="62.88" x2="253.68" y2="60.96"/><line class="cls-15" x1="253.68" y1="59.28" x2="253.68" y2="57.12"/><line class="cls-15" x1="253.68" y1="55.44" x2="253.68" y2="53.28"/><line class="cls-15" x1="253.68" y1="51.6" x2="253.68" y2="49.44"/><line class="cls-15" x1="253.68" y1="47.76" x2="253.68" y2="45.6"/><line class="cls-15" x1="253.68" y1="43.92" x2="253.68" y2="41.76"/><line class="cls-15" x1="253.68" y1="40.08" x2="253.68" y2="37.92"/><line class="cls-15" x1="253.68" y1="36.24" x2="253.68" y2="34.08"/><line class="cls-15" x1="253.68" y1="32.4" x2="253.68" y2="30.24"/><line class="cls-15" x1="253.68" y1="28.56" x2="253.68" y2="26.4"/><line class="cls-15" x1="253.68" y1="24.72" x2="253.68" y2="22.56"/><line class="cls-15" x1="253.68" y1="20.88" x2="253.68" y2="18.72"/><line class="cls-15" x1="253.68" y1="17.04" x2="253.68" y2="14.88"/><line class="cls-15" x1="253.68" y1="13.2" x2="253.68" y2="11.04"/><polyline class="cls-15" points="253.68 9.36 253.68 7.92 252.48 7.92"/><line class="cls-15" x1="250.8" y1="7.92" x2="248.64" y2="7.92"/><line class="cls-15" x1="246.96" y1="7.92" x2="244.8" y2="7.92"/><line class="cls-15" x1="243.12" y1="7.92" x2="240.96" y2="7.92"/><line class="cls-15" x1="239.28" y1="7.92" x2="237.12" y2="7.92"/><line class="cls-15" x1="235.44" y1="7.92" x2="233.28" y2="7.92"/><line class="cls-15" x1="231.6" y1="7.92" x2="229.44" y2="7.92"/><line class="cls-15" x1="227.76" y1="7.92" x2="225.84" y2="7.92"/><line class="cls-15" x1="223.92" y1="7.92" x2="222" y2="7.92"/><line class="cls-15" x1="220.08" y1="7.92" x2="218.16" y2="7.92"/><line class="cls-15" x1="216.48" y1="7.92" x2="214.32" y2="7.92"/><line class="cls-15" x1="212.64" y1="7.92" x2="210.48" y2="7.92"/><line class="cls-15" x1="208.8" y1="7.92" x2="206.64" y2="7.92"/><line class="cls-15" x1="204.96" y1="7.92" x2="202.8" y2="7.92"/><line class="cls-15" x1="201.12" y1="7.92" x2="198.96" y2="7.92"/><line class="cls-15" x1="197.28" y1="7.92" x2="195.12" y2="7.92"/><line class="cls-15" x1="193.44" y1="7.92" x2="191.28" y2="7.92"/><line class="cls-15" x1="189.6" y1="7.92" x2="187.44" y2="7.92"/><line class="cls-15" x1="185.76" y1="7.92" x2="183.6" y2="7.92"/><line class="cls-15" x1="181.92" y1="7.92" x2="179.76" y2="7.92"/><line class="cls-15" x1="178.08" y1="7.92" x2="175.92" y2="7.92"/><line class="cls-15" x1="174.24" y1="7.92" x2="172.08" y2="7.92"/><line class="cls-15" x1="170.4" y1="7.92" x2="168.24" y2="7.92"/><line class="cls-15" x1="166.56" y1="7.92" x2="164.4" y2="7.92"/><line class="cls-15" x1="162.72" y1="7.92" x2="160.56" y2="7.92"/><line class="cls-15" x1="158.88" y1="7.92" x2="156.72" y2="7.92"/><line class="cls-15" x1="155.04" y1="7.92" x2="153.12" y2="7.92"/><line class="cls-15" x1="151.2" y1="7.92" x2="149.28" y2="7.92"/><line class="cls-15" x1="147.36" y1="7.92" x2="145.44" y2="7.92"/><line class="cls-15" x1="143.76" y1="7.92" x2="141.6" y2="7.92"/><line class="cls-15" x1="139.92" y1="7.92" x2="137.76" y2="7.92"/><line class="cls-15" x1="136.08" y1="7.92" x2="133.92" y2="7.92"/><line class="cls-15" x1="132.24" y1="7.92" x2="130.08" y2="7.92"/><line class="cls-15" x1="128.4" y1="7.92" x2="126.24" y2="7.92"/><line class="cls-15" x1="124.56" y1="7.92" x2="122.4" y2="7.92"/><line class="cls-15" x1="120.72" y1="7.92" x2="118.56" y2="7.92"/><line class="cls-15" x1="116.88" y1="7.92" x2="114.72" y2="7.92"/><line class="cls-15" x1="113.04" y1="7.92" x2="110.88" y2="7.92"/><line class="cls-15" x1="109.2" y1="7.92" x2="107.04" y2="7.92"/><line class="cls-15" x1="105.36" y1="7.92" x2="103.2" y2="7.92"/><line class="cls-15" x1="101.52" y1="7.92" x2="99.36" y2="7.92"/><line class="cls-15" x1="97.68" y1="7.92" x2="95.52" y2="7.92"/><line class="cls-15" x1="93.84" y1="7.92" x2="91.68" y2="7.92"/><line class="cls-15" x1="90" y1="7.92" x2="87.84" y2="7.92"/><line class="cls-15" x1="86.16" y1="7.92" x2="84" y2="7.92"/><line class="cls-15" x1="82.32" y1="7.92" x2="80.4" y2="7.92"/><line class="cls-15" x1="78.48" y1="7.92" x2="76.56" y2="7.92"/><line class="cls-15" x1="74.88" y1="7.92" x2="72.72" y2="7.92"/><line class="cls-15" x1="71.04" y1="7.92" x2="68.88" y2="7.92"/><line class="cls-15" x1="67.2" y1="7.92" x2="65.04" y2="7.92"/><line class="cls-15" x1="63.36" y1="7.92" x2="61.2" y2="7.92"/><line class="cls-15" x1="59.52" y1="7.92" x2="57.36" y2="7.92"/><line class="cls-15" x1="55.68" y1="7.92" x2="53.52" y2="7.92"/><line class="cls-15" x1="51.84" y1="7.92" x2="49.68" y2="7.92"/><line class="cls-15" x1="48" y1="7.92" x2="45.84" y2="7.92"/><line class="cls-15" x1="44.16" y1="7.92" x2="42" y2="7.92"/><polyline class="cls-15" points="40.32 7.92 39.36 7.92 39.36 9.36"/><line class="cls-15" x1="39.36" y1="11.04" x2="39.36" y2="13.2"/><line class="cls-15" x1="39.36" y1="14.88" x2="39.36" y2="17.04"/><line class="cls-15" x1="39.36" y1="18.72" x2="39.36" y2="20.88"/><line class="cls-15" x1="39.36" y1="22.56" x2="39.36" y2="24.72"/><line class="cls-15" x1="39.36" y1="26.4" x2="39.36" y2="28.56"/><line class="cls-15" x1="39.36" y1="30.24" x2="39.36" y2="32.4"/><line class="cls-15" x1="39.36" y1="34.08" x2="39.36" y2="35.52"/><line class="cls-15" x1="39.36" y1="86.64" x2="39.36" y2="89.04"/><line class="cls-15" x1="39.36" y1="90.72" x2="39.36" y2="92.88"/><line class="cls-15" x1="39.36" y1="94.56" x2="39.36" y2="96.72"/><line class="cls-15" x1="39.36" y1="98.4" x2="39.36" y2="100.56"/><line class="cls-15" x1="39.36" y1="102.24" x2="39.36" y2="104.4"/><line class="cls-15" x1="39.36" y1="106.08" x2="39.36" y2="108.24"/><line class="cls-15" x1="39.36" y1="109.92" x2="39.36" y2="112.08"/><line class="cls-15" x1="39.36" y1="113.76" x2="39.36" y2="115.68"/><line class="cls-15" x1="39.36" y1="117.6" x2="39.36" y2="119.52"/><line class="cls-15" x1="39.36" y1="121.2" x2="39.36" y2="123.36"/><line class="cls-15" x1="39.36" y1="125.04" x2="39.36" y2="127.2"/><line class="cls-15" x1="39.36" y1="128.88" x2="39.36" y2="131.04"/><line class="cls-15" x1="39.36" y1="132.72" x2="39.36" y2="134.88"/><line class="cls-15" x1="39.36" y1="136.56" x2="39.36" y2="138.72"/><line class="cls-15" x1="39.36" y1="140.4" x2="39.36" y2="142.56"/><line class="cls-15" x1="39.36" y1="144.24" x2="39.36" y2="146.4"/><line class="cls-15" x1="39.36" y1="148.08" x2="39.36" y2="150.24"/><line class="cls-15" x1="39.36" y1="151.92" x2="39.36" y2="154.08"/><line class="cls-15" x1="39.36" y1="155.76" x2="39.36" y2="157.92"/><line class="cls-15" x1="39.36" y1="159.6" x2="39.36" y2="161.76"/><line class="cls-15" x1="39.36" y1="163.44" x2="39.36" y2="165.6"/><line class="cls-15" x1="39.36" y1="167.28" x2="39.36" y2="169.44"/><line class="cls-15" x1="39.36" y1="171.12" x2="39.36" y2="173.28"/><line class="cls-15" x1="39.36" y1="174.96" x2="39.36" y2="177.12"/><line class="cls-15" x1="39.36" y1="178.8" x2="39.36" y2="180.96"/><line class="cls-15" x1="39.36" y1="182.64" x2="39.36" y2="184.56"/><line class="cls-15" x1="39.36" y1="186.48" x2="39.36" y2="188.4"/><line class="cls-15" x1="39.36" y1="190.32" x2="39.36" y2="192.24"/><line class="cls-15" x1="39.36" y1="193.92" x2="39.36" y2="196.08"/><line class="cls-15" x1="39.36" y1="197.76" x2="39.36" y2="199.92"/><line class="cls-15" x1="39.36" y1="201.6" x2="39.36" y2="203.76"/><line class="cls-15" x1="39.36" y1="205.44" x2="39.36" y2="207.6"/><line class="cls-15" x1="39.36" y1="209.28" x2="39.36" y2="211.44"/><line class="cls-15" x1="39.36" y1="213.12" x2="39.36" y2="215.28"/><line class="cls-15" x1="39.36" y1="216.96" x2="39.36" y2="219.12"/><line class="cls-15" x1="39.36" y1="220.8" x2="39.36" y2="222.96"/><line class="cls-15" x1="39.36" y1="224.64" x2="39.36" y2="226.8"/><line class="cls-15" x1="39.36" y1="228.48" x2="39.36" y2="230.64"/><line class="cls-15" x1="39.36" y1="232.32" x2="39.36" y2="234.48"/><line class="cls-15" x1="39.36" y1="236.16" x2="39.36" y2="238.32"/><line class="cls-15" x1="39.36" y1="240" x2="39.36" y2="242.16"/><line class="cls-15" x1="39.36" y1="243.84" x2="39.36" y2="246"/><line class="cls-15" x1="39.36" y1="247.68" x2="39.36" y2="249.84"/><line class="cls-15" x1="39.36" y1="251.52" x2="39.36" y2="253.68"/><line class="cls-15" x1="39.36" y1="255.36" x2="39.36" y2="257.28"/><line class="cls-15" x1="39.36" y1="259.2" x2="39.36" y2="261.12"/><line class="cls-15" x1="39.36" y1="263.04" x2="39.36" y2="264.96"/><line class="cls-15" x1="39.36" y1="266.64" x2="39.36" y2="268.8"/><line class="cls-15" x1="39.36" y1="270.48" x2="39.36" y2="272.64"/><line class="cls-15" x1="39.36" y1="274.32" x2="39.36" y2="276.48"/><line class="cls-15" x1="39.36" y1="278.16" x2="39.36" y2="280.32"/><line class="cls-15" x1="39.36" y1="282" x2="39.36" y2="284.16"/><line class="cls-15" x1="39.36" y1="285.84" x2="39.36" y2="288"/><line class="cls-15" x1="39.36" y1="289.68" x2="39.36" y2="291.84"/><line class="cls-15" x1="39.36" y1="293.52" x2="39.36" y2="295.92"/><line class="cls-15" x1="128.16" y1="174.24" x2="247.68" y2="174.24"/><polyline class="cls-15" points="125.28 171.36 126.24 173.52 128.16 174.24"/><line class="cls-15" x1="125.28" y1="120.96" x2="125.28" y2="171.36"/><polyline class="cls-15" points="128.16 118.08 126.24 119.04 125.28 120.96"/><line class="cls-15" x1="247.68" y1="118.08" x2="128.16" y2="118.08"/><polyline class="cls-15" points="250.56 120.96 249.84 119.04 247.68 118.08"/><line class="cls-15" x1="250.56" y1="171.36" x2="250.56" y2="120.96"/><polyline class="cls-15" points="247.68 174.24 249.84 173.52 250.56 171.36"/><polyline class="cls-16" points="219.12 118.08 219.12 119.52 246.48 119.52 246.48 118.08 219.12 118.08"/><polyline class="cls-16" points="132.96 172.8 132.96 174.24 173.28 174.24 173.28 172.8 132.96 172.8"/><polyline class="cls-16" points="219.36 172.8 219.36 174.24 246.72 174.24 246.72 172.8 219.36 172.8"/><line class="cls-16" x1="127.2" y1="168.96" x2="125.76" y2="168.96"/><line class="cls-16" x1="127.2" y1="123.6" x2="127.2" y2="168.96"/><line class="cls-16" x1="125.76" y1="123.6" x2="127.2" y2="123.6"/><line class="cls-16" x1="125.76" y1="168.96" x2="125.76" y2="123.6"/><line class="cls-16" x1="248.64" y1="168.72" x2="250.32" y2="168.72"/><line class="cls-16" x1="248.64" y1="123.6" x2="248.64" y2="168.72"/><line class="cls-16" x1="250.32" y1="123.6" x2="248.64" y2="123.6"/><line class="cls-16" x1="250.32" y1="168.72" x2="250.32" y2="123.6"/><line class="cls-16" x1="222.24" y1="123.12" x2="246" y2="123.12"/><line class="cls-16" x1="222.24" y1="169.68" x2="222.24" y2="123.12"/><line class="cls-16" x1="246" y1="169.68" x2="222.24" y2="169.68"/><line class="cls-16" x1="246" y1="123.12" x2="246" y2="169.68"/><line class="cls-16" x1="130.32" y1="172.08" x2="245.52" y2="172.08"/><polyline class="cls-16" points="127.44 169.2 128.4 171.36 130.32 172.08"/><line class="cls-16" x1="127.44" y1="123.12" x2="127.44" y2="169.2"/><polyline class="cls-16" points="130.32 120.24 128.4 121.2 127.44 123.12"/><line class="cls-16" x1="245.52" y1="120.24" x2="130.32" y2="120.24"/><polyline class="cls-16" points="248.4 123.12 247.68 121.2 245.52 120.24"/><line class="cls-16" x1="248.4" y1="169.2" x2="248.4" y2="123.12"/><polyline class="cls-16" points="245.52 172.08 247.68 171.36 248.4 169.2"/><polyline class="cls-16" points="250.56 171.36 250.56 120.96 250.56 120.24 250.32 119.52 249.84 119.04 249.12 118.56 248.64 118.32 247.68 118.08 128.16 118.08 127.44 118.32 126.72 118.56 126.24 119.04 125.76 119.52 125.52 120.24 125.28 120.96 125.28 171.36 125.52 172.08 125.76 172.8 126.24 173.52 126.72 174 127.44 174.24 128.16 174.24 247.68 174.24 248.64 174.24 249.12 174 249.84 173.52 250.32 172.8 250.56 172.08 250.56 171.36"/><polyline class="cls-16" points="47.52 50.4 47.28 51.84 47.28 53.28"/><polyline class="cls-16" points="47.52 71.76 47.28 70.32 47.28 68.88"/><line class="cls-16" x1="50.88" y1="47.76" x2="50.16" y2="47.76"/><polyline class="cls-16" points="50.88 47.76 52.32 47.52 54 47.76"/><polyline class="cls-16" points="47.52 50.4 48.48 48.72 50.16 47.76"/><line class="cls-16" x1="50.88" y1="74.64" x2="50.16" y2="74.4"/><polyline class="cls-16" points="50.88 74.64 52.32 74.64 54 74.4"/><polyline class="cls-16" points="47.52 71.76 48.48 73.44 50.16 74.4"/><line class="cls-15" x1="39.36" y1="75.36" x2="39.36" y2="47.04"/><polyline class="cls-15" points="56.64 75.6 59.04 74.16 61.2 72.24"/><polyline class="cls-15" points="51.84 76.8 54.24 76.56 56.64 75.6"/><polyline class="cls-15" points="39.36 75.36 45.6 76.32 51.84 76.8"/><polyline class="cls-15" points="51.84 45.6 45.6 45.84 39.36 47.04"/><polyline class="cls-15" points="64.08 67.2 64.8 64.32 65.04 61.2"/><polyline class="cls-15" points="61.2 72.24 62.88 69.84 64.08 67.2"/><polyline class="cls-15" points="56.64 46.8 54.24 45.84 51.84 45.6"/><polyline class="cls-15" points="61.2 50.16 59.04 48.24 56.64 46.8"/><polyline class="cls-15" points="64.08 54.96 62.88 52.56 61.2 50.16"/><polyline class="cls-15" points="65.04 61.2 64.8 58.08 64.08 54.96"/><polyline class="cls-16" points="40.32 46.8 40.32 75.6 46.08 76.56 51.84 76.8 54.24 76.56 56.64 75.6 59.04 74.16 61.2 72.24 62.88 69.84 64.08 67.2 64.8 64.32 65.04 61.2 64.8 58.08 64.08 54.96 62.88 52.56 61.2 50.16 59.04 48.24 56.64 46.8 54.24 45.84 51.84 45.6 46.08 45.84 40.32 46.8"/><polyline class="cls-16" points="39.36 35.52 39.36 86.64 40.32 86.64 40.32 35.52 39.36 35.52"/><polyline class="cls-15" points="101.52 299.28 102.48 291.6 104.88 284.4 108.96 278.16 114.48 272.64 120.96 268.56 128.16 266.16 135.6 265.2"/><polyline class="cls-15" points="132.72 299.28 132.72 265.2 135.6 265.2 135.6 299.28 132.72 299.28"/><polyline class="cls-15" points="101.52 299.28 100.8 290.4 98.64 281.76 94.8 273.84 89.76 266.4 83.28 260.16 76.08 255.12 68.16 251.28 59.52 249.12 50.64 248.16"/><polyline class="cls-15" points="53.52 299.28 53.52 248.16 50.64 248.16 50.64 299.28 53.52 299.28"/><polyline class="cls-15" points="135.6 295.92 50.64 295.92 50.64 302.64 135.6 302.64 135.6 295.92 50.64 295.92 50.64 302.64 135.6 302.64 135.6 295.92"/><line class="cls-17" x1="65.04" y1="61.2" x2="56.16" y2="61.2"/><line class="cls-17" x1="44.88" y1="61.2" x2="33.6" y2="61.2"/><line class="cls-17" x1="22.32" y1="61.2" x2="13.44" y2="61.2"/><line class="cls-18" x1="13.44" y1="61.2" x2="13.44" y2="4.56"/><line class="cls-17" x1="13.44" y1="4.56" x2="17.76" y2="8.64"/><line class="cls-17" x1="13.44" y1="4.56" x2="9.12" y2="0.24"/><line class="cls-18" x1="13.44" y1="4.56" x2="6.48" y2="4.56"/><line class="cls-18" x1="13.44" y1="4.56" x2="27.6" y2="4.56"/><line class="cls-17" x1="13.44" y1="61.2" x2="17.76" y2="65.52"/><line class="cls-17" x1="13.44" y1="61.2" x2="9.12" y2="56.88"/><line class="cls-18" x1="13.44" y1="61.2" x2="6.48" y2="61.2"/><line class="cls-18" x1="13.44" y1="61.2" x2="27.6" y2="61.2"/><rect class="cls-19" y="14.64" width="9.6" height="36.48"/><text class="cls-20" transform="translate(7.68 50.88) rotate(-90)"><tspan class="cls-21">O</tspan><tspan class="cls-22" x="5.04" y="0">ff</tspan><tspan class="cls-23" x="8.88" y="0">s</tspan><tspan class="cls-24" x="12" y="0">e</tspan><tspan class="cls-25" x="15.6" y="0">t</tspan><tspan class="cls-26" x="17.52" y="0">_</tspan><tspan x="20.89" y="0">W</tspan><tspan class="cls-27" x="27.12" y="0">H</tspan><tspan x="31.92" y="0">B</tspan></text></g></g></svg>