<svg xmlns="http://www.w3.org/2000/svg" xmlns:xlink="http://www.w3.org/1999/xlink" viewBox="0 0 412.68 336"><defs><style>.cls-1,.cls-14,.cls-15,.cls-16,.cls-17,.cls-2{fill:none;}.cls-1{clip-rule:evenodd;}.cls-3{clip-path:url(#clip-path);}.cls-4{clip-path:url(#clip-path-2);}.cls-5{fill:#c6d3b4;}.cls-11,.cls-6{font-size:4.08px;font-family:ArialMT, Arial;}.cls-11,.cls-7{letter-spacing:-0.03em;}.cls-8{letter-spacing:0.02em;}.cls-9{letter-spacing:-0.09em;}.cls-10{letter-spacing:0.02em;}.cls-12{letter-spacing:-0.04em;}.cls-13{letter-spacing:0em;}.cls-14,.cls-15{stroke:#000;}.cls-14,.cls-15,.cls-16,.cls-17{stroke-linecap:round;stroke-linejoin:round;}.cls-14,.cls-17{stroke-width:0.24px;}.cls-15,.cls-16{stroke-width:0.48px;}.cls-16,.cls-17{stroke:red;}.cls-18{fill:#fff;}.cls-19{font-size:8.05px;fill:red;font-family:ArialNarrow, Arial;}.cls-20{letter-spacing:0.01em;}.cls-21{letter-spacing:0em;}.cls-22{letter-spacing:-0.01em;}</style><clipPath id="clip-path" transform="translate(-875.98 -427.44)"><path class="cls-1" d="M1152.22,502.2l-.24.24-.48.24-.24.48-.24.24-.24.72V556.2h.24v.72h.24l.24.24.48.24.24.24.48.24,121.2.24v-.24l.72-.24,1-1,.24-.72.24-51.6h-.24v-.72h-.24v-.48l-1-1m-347.52,0-.24.24-.48.24-.24.48-.24.24-.24.72V556.2h.24v.72h.24l.24.24.48.24.24.24.72.24,115.92.24,4.32.24v-.24l1.44-.48,1-1,.24-.72.24-51.6h-.24v-.72h-.24v-.48l-1-1ZM954,434.52V454.2H919.9V698h86.16v10.8l5.76-.72c6.53-.93,11.59-.27,15.84,4.8v.48h.24l.24.24v.48h.24l.24.24v.48h.24v.48h.24v.48h.24v.48h.24v.48h.24v.72h.24v1h.24v1h.24v1.2h.24l-.24,5.76-.24,1.2a13.59,13.59,0,0,1-5,8.4l-.48.24-.48.48c-.91.43-1.59,1.26-2.64,1.44l-1.92.48-7.92.24v-.24l-3.84-.48h-1.92v11h-1v7.2h156.48V699.72L1215.34,646h66.24V454.2h-33.84V434.52Z"/></clipPath><clipPath id="clip-path-2" transform="translate(-875.98 -427.44)"><rect class="cls-2" width="1684.08" height="1191.12"/></clipPath></defs><title>PushIt - Floor Plan - SP-Room-Bed-CutOut_Sample_1</title><g id="Layer_2" data-name="Layer 2"><g id="Layer_1-2" data-name="Layer 1"><g class="cls-3"><g class="cls-4"><rect class="cls-5" x="43.92" y="7.08" width="361.68" height="321.84"/></g></g><text class="cls-6" transform="translate(160.09 126.84)">?</text><text class="cls-6" transform="translate(150.72 139.56)"><tspan class="cls-7">6500</tspan><tspan class="cls-8" x="8.64" y="0"> </tspan><tspan class="cls-9" x="9.84" y="0">x</tspan><tspan class="cls-10" x="11.52" y="0"> </tspan><tspan class="cls-7" x="12.72" y="0">580</tspan><tspan x="19.2" y="0">0</tspan></text><text class="cls-6" transform="translate(158.16 131.16)"><tspan class="cls-7">5</tspan><tspan class="cls-10" x="2.16" y="0">.</tspan><tspan class="cls-7" x="3.36" y="0">5</tspan><tspan x="5.52" y="0">0</tspan></text><text class="cls-11" transform="translate(149.52 135.24)">32<tspan class="cls-8" x="4.32" y="0">.</tspan><tspan x="5.52" y="0">44</tspan><tspan class="cls-8" x="9.84" y="0"> </tspan><tspan class="cls-12" x="11.04" y="0">(</tspan><tspan x="12.24" y="0">31</tspan><tspan class="cls-8" x="16.55" y="0">.</tspan><tspan x="17.75" y="0">22</tspan><tspan class="cls-13" x="22.07" y="0">)</tspan></text><text class="cls-6" transform="translate(160.08 122.52)">?</text><polyline class="cls-14" points="285.6 328.92 129.12 328.92 129.12 270.6 43.92 270.6 43.92 7.08 405.6 7.08 405.6 218.52 339.6 218.52 285.6 272.52 285.6 328.92"/><polyline class="cls-14" points="412.56 0.12 37.2 0.12 37.2 277.32 122.16 277.32 122.16 335.88 292.32 335.88 292.32 275.4 342.48 225.24 412.56 225.24 412.56 0.12"/><line class="cls-14" x1="43.92" y1="26.76" x2="43.92" y2="29.16"/><line class="cls-14" x1="43.92" y1="30.84" x2="43.92" y2="33"/><line class="cls-14" x1="43.92" y1="34.68" x2="43.92" y2="36.84"/><line class="cls-14" x1="43.92" y1="38.52" x2="43.92" y2="40.68"/><line class="cls-14" x1="43.92" y1="42.36" x2="43.92" y2="44.52"/><line class="cls-14" x1="43.92" y1="46.2" x2="43.92" y2="48.36"/><line class="cls-14" x1="43.92" y1="50.04" x2="43.92" y2="52.2"/><line class="cls-14" x1="43.92" y1="53.88" x2="43.92" y2="56.04"/><line class="cls-14" x1="43.92" y1="57.72" x2="43.92" y2="59.88"/><line class="cls-14" x1="43.92" y1="61.56" x2="43.92" y2="63.72"/><line class="cls-14" x1="43.92" y1="65.4" x2="43.92" y2="67.56"/><line class="cls-14" x1="43.92" y1="69.24" x2="43.92" y2="71.4"/><line class="cls-14" x1="43.92" y1="73.08" x2="43.92" y2="75.24"/><line class="cls-14" x1="43.92" y1="76.92" x2="43.92" y2="79.08"/><line class="cls-14" x1="43.92" y1="80.76" x2="43.92" y2="82.92"/><line class="cls-14" x1="43.92" y1="84.6" x2="43.92" y2="86.52"/><line class="cls-14" x1="43.92" y1="88.44" x2="43.92" y2="90.36"/><line class="cls-14" x1="43.92" y1="92.28" x2="43.92" y2="94.2"/><line class="cls-14" x1="43.92" y1="95.88" x2="43.92" y2="98.04"/><line class="cls-14" x1="43.92" y1="99.72" x2="43.92" y2="101.88"/><line class="cls-14" x1="43.92" y1="103.56" x2="43.92" y2="105.72"/><line class="cls-14" x1="43.92" y1="107.4" x2="43.92" y2="109.56"/><line class="cls-14" x1="43.92" y1="111.24" x2="43.92" y2="113.4"/><line class="cls-14" x1="43.92" y1="115.08" x2="43.92" y2="117.24"/><line class="cls-14" x1="43.92" y1="118.92" x2="43.92" y2="121.08"/><line class="cls-14" x1="43.92" y1="122.76" x2="43.92" y2="124.92"/><line class="cls-14" x1="43.92" y1="126.6" x2="43.92" y2="128.76"/><line class="cls-14" x1="43.92" y1="130.44" x2="43.92" y2="132.6"/><line class="cls-14" x1="43.92" y1="134.28" x2="43.92" y2="136.44"/><line class="cls-14" x1="43.92" y1="138.12" x2="43.92" y2="140.28"/><line class="cls-14" x1="43.92" y1="141.96" x2="43.92" y2="144.12"/><line class="cls-14" x1="43.92" y1="145.8" x2="43.92" y2="147.96"/><line class="cls-14" x1="43.92" y1="149.64" x2="43.92" y2="151.8"/><line class="cls-14" x1="43.92" y1="153.48" x2="43.92" y2="155.64"/><line class="cls-14" x1="43.92" y1="157.32" x2="43.92" y2="159.24"/><line class="cls-14" x1="43.92" y1="161.16" x2="43.92" y2="163.08"/><line class="cls-14" x1="43.92" y1="165" x2="43.92" y2="166.92"/><line class="cls-14" x1="43.92" y1="168.6" x2="43.92" y2="170.76"/><line class="cls-14" x1="43.92" y1="172.44" x2="43.92" y2="174.6"/><line class="cls-14" x1="43.92" y1="176.28" x2="43.92" y2="178.44"/><line class="cls-14" x1="43.92" y1="180.12" x2="43.92" y2="182.28"/><line class="cls-14" x1="43.92" y1="183.96" x2="43.92" y2="186.12"/><line class="cls-14" x1="43.92" y1="187.8" x2="43.92" y2="189.96"/><line class="cls-14" x1="43.92" y1="191.64" x2="43.92" y2="193.8"/><line class="cls-14" x1="43.92" y1="195.48" x2="43.92" y2="197.64"/><line class="cls-14" x1="43.92" y1="199.32" x2="43.92" y2="201.48"/><line class="cls-14" x1="43.92" y1="203.16" x2="43.92" y2="205.32"/><line class="cls-14" x1="43.92" y1="207" x2="43.92" y2="209.16"/><line class="cls-14" x1="43.92" y1="210.84" x2="43.92" y2="213"/><line class="cls-14" x1="43.92" y1="214.68" x2="43.92" y2="216.84"/><line class="cls-14" x1="43.92" y1="218.52" x2="43.92" y2="220.68"/><line class="cls-14" x1="43.92" y1="222.36" x2="43.92" y2="224.52"/><line class="cls-14" x1="43.92" y1="226.2" x2="43.92" y2="228.36"/><line class="cls-14" x1="43.92" y1="230.04" x2="43.92" y2="231.96"/><line class="cls-14" x1="43.92" y1="233.88" x2="43.92" y2="235.8"/><line class="cls-14" x1="43.92" y1="237.48" x2="43.92" y2="239.64"/><line class="cls-14" x1="43.92" y1="241.32" x2="43.92" y2="243.48"/><line class="cls-14" x1="43.92" y1="245.16" x2="43.92" y2="247.32"/><line class="cls-14" x1="43.92" y1="249" x2="43.92" y2="251.16"/><line class="cls-14" x1="43.92" y1="252.84" x2="43.92" y2="255"/><line class="cls-14" x1="43.92" y1="256.68" x2="43.92" y2="258.84"/><line class="cls-14" x1="43.92" y1="260.52" x2="43.92" y2="262.68"/><line class="cls-14" x1="43.92" y1="264.36" x2="43.92" y2="266.52"/><line class="cls-14" x1="43.92" y1="268.2" x2="43.92" y2="270.6"/><line class="cls-14" x1="43.92" y1="277.32" x2="45.84" y2="277.32"/><line class="cls-14" x1="47.52" y1="277.32" x2="49.68" y2="277.32"/><line class="cls-14" x1="51.36" y1="277.32" x2="53.52" y2="277.32"/><line class="cls-14" x1="55.2" y1="277.32" x2="57.36" y2="277.32"/><line class="cls-14" x1="59.04" y1="277.32" x2="61.2" y2="277.32"/><line class="cls-14" x1="62.88" y1="277.32" x2="65.04" y2="277.32"/><line class="cls-14" x1="66.72" y1="277.32" x2="68.88" y2="277.32"/><line class="cls-14" x1="70.56" y1="277.32" x2="72.72" y2="277.32"/><line class="cls-14" x1="74.4" y1="277.32" x2="76.56" y2="277.32"/><line class="cls-14" x1="78.24" y1="277.32" x2="80.4" y2="277.32"/><line class="cls-14" x1="82.08" y1="277.32" x2="84.24" y2="277.32"/><line class="cls-14" x1="85.92" y1="277.32" x2="88.08" y2="277.32"/><line class="cls-14" x1="89.76" y1="277.32" x2="91.92" y2="277.32"/><line class="cls-14" x1="93.6" y1="277.32" x2="95.52" y2="277.32"/><line class="cls-14" x1="97.44" y1="277.32" x2="99.36" y2="277.32"/><line class="cls-14" x1="101.04" y1="277.32" x2="103.2" y2="277.32"/><line class="cls-14" x1="104.88" y1="277.32" x2="107.04" y2="277.32"/><line class="cls-14" x1="108.72" y1="277.32" x2="110.88" y2="277.32"/><line class="cls-14" x1="112.56" y1="277.32" x2="114.72" y2="277.32"/><line class="cls-14" x1="116.4" y1="277.32" x2="118.56" y2="277.32"/><line class="cls-14" x1="120.24" y1="277.32" x2="122.16" y2="277.32"/><line class="cls-14" x1="129.12" y1="321.72" x2="129.12" y2="324.6"/><polyline class="cls-14" points="129.12 326.28 129.12 328.92 131.76 328.92"/><line class="cls-14" x1="133.44" y1="328.92" x2="135.6" y2="328.92"/><line class="cls-14" x1="137.28" y1="328.92" x2="139.44" y2="328.92"/><line class="cls-14" x1="141.12" y1="328.92" x2="143.28" y2="328.92"/><line class="cls-14" x1="144.96" y1="328.92" x2="147.12" y2="328.92"/><line class="cls-14" x1="148.8" y1="328.92" x2="150.96" y2="328.92"/><line class="cls-14" x1="152.64" y1="328.92" x2="154.8" y2="328.92"/><line class="cls-14" x1="156.48" y1="328.92" x2="158.64" y2="328.92"/><line class="cls-14" x1="160.32" y1="328.92" x2="162.48" y2="328.92"/><line class="cls-14" x1="164.16" y1="328.92" x2="166.32" y2="328.92"/><line class="cls-14" x1="168" y1="328.92" x2="170.16" y2="328.92"/><line class="cls-14" x1="171.84" y1="328.92" x2="173.76" y2="328.92"/><line class="cls-14" x1="175.68" y1="328.92" x2="177.6" y2="328.92"/><line class="cls-14" x1="179.52" y1="328.92" x2="181.44" y2="328.92"/><line class="cls-14" x1="183.12" y1="328.92" x2="185.28" y2="328.92"/><line class="cls-14" x1="186.96" y1="328.92" x2="189.12" y2="328.92"/><line class="cls-14" x1="190.8" y1="328.92" x2="192.96" y2="328.92"/><line class="cls-14" x1="194.64" y1="328.92" x2="196.8" y2="328.92"/><line class="cls-14" x1="198.48" y1="328.92" x2="200.64" y2="328.92"/><line class="cls-14" x1="202.32" y1="328.92" x2="204.48" y2="328.92"/><line class="cls-14" x1="206.16" y1="328.92" x2="208.32" y2="328.92"/><line class="cls-14" x1="210" y1="328.92" x2="212.16" y2="328.92"/><line class="cls-14" x1="213.84" y1="328.92" x2="216" y2="328.92"/><line class="cls-14" x1="217.68" y1="328.92" x2="219.84" y2="328.92"/><line class="cls-14" x1="221.52" y1="328.92" x2="223.68" y2="328.92"/><line class="cls-14" x1="225.36" y1="328.92" x2="227.52" y2="328.92"/><line class="cls-14" x1="229.2" y1="328.92" x2="231.36" y2="328.92"/><line class="cls-14" x1="233.04" y1="328.92" x2="235.2" y2="328.92"/><line class="cls-14" x1="236.88" y1="328.92" x2="239.04" y2="328.92"/><line class="cls-14" x1="240.72" y1="328.92" x2="242.88" y2="328.92"/><line class="cls-14" x1="244.56" y1="328.92" x2="246.48" y2="328.92"/><line class="cls-14" x1="248.4" y1="328.92" x2="250.32" y2="328.92"/><line class="cls-14" x1="252" y1="328.92" x2="254.16" y2="328.92"/><line class="cls-14" x1="255.84" y1="328.92" x2="258" y2="328.92"/><line class="cls-14" x1="259.68" y1="328.92" x2="261.84" y2="328.92"/><line class="cls-14" x1="263.52" y1="328.92" x2="265.68" y2="328.92"/><line class="cls-14" x1="267.36" y1="328.92" x2="269.52" y2="328.92"/><line class="cls-14" x1="271.2" y1="328.92" x2="273.36" y2="328.92"/><line class="cls-14" x1="275.04" y1="328.92" x2="277.2" y2="328.92"/><line class="cls-14" x1="278.88" y1="328.92" x2="281.04" y2="328.92"/><polyline class="cls-14" points="282.72 328.92 285.6 328.92 285.6 326.52"/><line class="cls-14" x1="285.6" y1="324.84" x2="285.6" y2="322.68"/><line class="cls-14" x1="285.6" y1="321" x2="285.6" y2="318.84"/><line class="cls-14" x1="285.6" y1="317.16" x2="285.6" y2="315"/><line class="cls-14" x1="285.6" y1="313.32" x2="285.6" y2="311.16"/><line class="cls-14" x1="285.6" y1="309.48" x2="285.6" y2="307.32"/><line class="cls-14" x1="285.6" y1="305.64" x2="285.6" y2="303.48"/><line class="cls-14" x1="285.6" y1="301.8" x2="285.6" y2="299.64"/><line class="cls-14" x1="285.6" y1="297.96" x2="285.6" y2="296.04"/><line class="cls-14" x1="285.6" y1="294.12" x2="285.6" y2="292.2"/><line class="cls-14" x1="285.6" y1="290.28" x2="285.6" y2="288.36"/><line class="cls-14" x1="285.6" y1="286.68" x2="285.6" y2="284.52"/><line class="cls-14" x1="285.6" y1="282.84" x2="285.6" y2="280.68"/><line class="cls-14" x1="285.6" y1="279" x2="285.6" y2="276.84"/><polyline class="cls-14" points="285.6 275.16 285.6 272.52 286.32 271.8"/><line class="cls-14" x1="287.52" y1="270.6" x2="288.96" y2="269.16"/><line class="cls-14" x1="290.16" y1="267.96" x2="291.6" y2="266.52"/><line class="cls-14" x1="292.8" y1="265.32" x2="294.48" y2="263.64"/><line class="cls-14" x1="295.68" y1="262.44" x2="297.12" y2="261"/><line class="cls-14" x1="298.32" y1="259.8" x2="299.76" y2="258.36"/><line class="cls-14" x1="300.96" y1="257.16" x2="302.4" y2="255.72"/><line class="cls-14" x1="303.6" y1="254.52" x2="305.28" y2="252.84"/><line class="cls-14" x1="306.48" y1="251.64" x2="307.92" y2="250.2"/><line class="cls-14" x1="309.12" y1="249" x2="310.56" y2="247.56"/><line class="cls-14" x1="311.76" y1="246.36" x2="313.44" y2="244.68"/><line class="cls-14" x1="314.64" y1="243.48" x2="316.08" y2="242.04"/><line class="cls-14" x1="317.28" y1="240.84" x2="318.72" y2="239.4"/><line class="cls-14" x1="319.92" y1="238.2" x2="321.36" y2="236.76"/><line class="cls-14" x1="322.56" y1="235.56" x2="324.24" y2="233.88"/><line class="cls-14" x1="325.44" y1="232.68" x2="326.88" y2="231.24"/><line class="cls-14" x1="328.08" y1="230.04" x2="329.52" y2="228.6"/><line class="cls-14" x1="330.72" y1="227.4" x2="332.16" y2="225.96"/><line class="cls-14" x1="333.36" y1="224.52" x2="335.04" y2="223.08"/><line class="cls-14" x1="336.24" y1="221.88" x2="337.68" y2="220.44"/><polyline class="cls-14" points="338.88 219.24 339.6 218.52 341.28 218.52"/><line class="cls-14" x1="342.96" y1="218.52" x2="345.12" y2="218.52"/><line class="cls-14" x1="346.8" y1="218.52" x2="348.96" y2="218.52"/><line class="cls-14" x1="350.64" y1="218.52" x2="352.8" y2="218.52"/><line class="cls-14" x1="354.48" y1="218.52" x2="356.4" y2="218.52"/><line class="cls-14" x1="358.32" y1="218.52" x2="360.24" y2="218.52"/><line class="cls-14" x1="362.16" y1="218.52" x2="364.08" y2="218.52"/><line class="cls-14" x1="365.76" y1="218.52" x2="367.92" y2="218.52"/><line class="cls-14" x1="369.6" y1="218.52" x2="371.76" y2="218.52"/><line class="cls-14" x1="373.44" y1="218.52" x2="375.6" y2="218.52"/><line class="cls-14" x1="377.28" y1="218.52" x2="379.44" y2="218.52"/><line class="cls-14" x1="381.12" y1="218.52" x2="383.28" y2="218.52"/><line class="cls-14" x1="384.96" y1="218.52" x2="387.12" y2="218.52"/><line class="cls-14" x1="388.8" y1="218.52" x2="390.96" y2="218.52"/><line class="cls-14" x1="392.64" y1="218.52" x2="394.8" y2="218.52"/><line class="cls-14" x1="396.48" y1="218.52" x2="398.64" y2="218.52"/><line class="cls-14" x1="400.32" y1="218.52" x2="402.48" y2="218.52"/><line class="cls-14" x1="404.16" y1="218.52" x2="405.6" y2="218.52"/><line class="cls-14" x1="405.6" y1="218.52" x2="405.6" y2="217.32"/><line class="cls-14" x1="405.6" y1="215.64" x2="405.6" y2="213.48"/><line class="cls-14" x1="405.6" y1="211.8" x2="405.6" y2="209.64"/><line class="cls-14" x1="405.6" y1="207.96" x2="405.6" y2="205.8"/><line class="cls-14" x1="405.6" y1="204.12" x2="405.6" y2="201.96"/><line class="cls-14" x1="405.6" y1="200.28" x2="405.6" y2="198.12"/><line class="cls-14" x1="405.6" y1="196.44" x2="405.6" y2="194.28"/><line class="cls-14" x1="405.6" y1="192.6" x2="405.6" y2="190.44"/><line class="cls-14" x1="405.6" y1="188.76" x2="405.6" y2="186.6"/><line class="cls-14" x1="405.6" y1="184.92" x2="405.6" y2="182.76"/><line class="cls-14" x1="405.6" y1="181.08" x2="405.6" y2="178.92"/><line class="cls-14" x1="405.6" y1="177.24" x2="405.6" y2="175.08"/><line class="cls-14" x1="405.6" y1="173.4" x2="405.6" y2="171.24"/><line class="cls-14" x1="405.6" y1="169.56" x2="405.6" y2="167.4"/><line class="cls-14" x1="405.6" y1="165.72" x2="405.6" y2="163.56"/><line class="cls-14" x1="405.6" y1="161.88" x2="405.6" y2="159.96"/><line class="cls-14" x1="405.6" y1="158.04" x2="405.6" y2="156.12"/><line class="cls-14" x1="405.6" y1="154.44" x2="405.6" y2="152.28"/><line class="cls-14" x1="405.6" y1="150.6" x2="405.6" y2="148.44"/><line class="cls-14" x1="405.6" y1="146.76" x2="405.6" y2="144.6"/><line class="cls-14" x1="405.6" y1="142.92" x2="405.6" y2="140.76"/><line class="cls-14" x1="405.6" y1="139.08" x2="405.6" y2="136.92"/><line class="cls-14" x1="405.6" y1="135.24" x2="405.6" y2="133.08"/><line class="cls-14" x1="405.6" y1="131.4" x2="405.6" y2="129.24"/><line class="cls-14" x1="405.6" y1="127.56" x2="405.6" y2="125.4"/><line class="cls-14" x1="405.6" y1="123.72" x2="405.6" y2="121.56"/><line class="cls-14" x1="405.6" y1="119.88" x2="405.6" y2="117.72"/><line class="cls-14" x1="405.6" y1="116.04" x2="405.6" y2="113.88"/><line class="cls-14" x1="405.6" y1="112.2" x2="405.6" y2="110.04"/><line class="cls-14" x1="405.6" y1="108.36" x2="405.6" y2="106.2"/><line class="cls-14" x1="405.6" y1="104.52" x2="405.6" y2="102.36"/><line class="cls-14" x1="405.6" y1="100.68" x2="405.6" y2="98.52"/><line class="cls-14" x1="405.6" y1="96.84" x2="405.6" y2="94.68"/><line class="cls-14" x1="405.6" y1="93" x2="405.6" y2="91.08"/><line class="cls-14" x1="405.6" y1="89.16" x2="405.6" y2="87.24"/><line class="cls-14" x1="405.6" y1="85.32" x2="405.6" y2="83.4"/><line class="cls-14" x1="405.6" y1="81.72" x2="405.6" y2="79.56"/><line class="cls-14" x1="405.6" y1="77.88" x2="405.6" y2="75.72"/><line class="cls-14" x1="405.6" y1="74.04" x2="405.6" y2="71.88"/><line class="cls-14" x1="405.6" y1="70.2" x2="405.6" y2="68.04"/><line class="cls-14" x1="405.6" y1="66.36" x2="405.6" y2="64.2"/><line class="cls-14" x1="405.6" y1="62.52" x2="405.6" y2="60.36"/><line class="cls-14" x1="405.6" y1="58.68" x2="405.6" y2="56.52"/><line class="cls-14" x1="405.6" y1="54.84" x2="405.6" y2="52.68"/><line class="cls-14" x1="405.6" y1="51" x2="405.6" y2="48.84"/><line class="cls-14" x1="405.6" y1="47.16" x2="405.6" y2="45"/><line class="cls-14" x1="405.6" y1="43.32" x2="405.6" y2="41.16"/><line class="cls-14" x1="405.6" y1="39.48" x2="405.6" y2="37.32"/><line class="cls-14" x1="405.6" y1="35.64" x2="405.6" y2="33.48"/><line class="cls-14" x1="405.6" y1="31.8" x2="405.6" y2="29.64"/><line class="cls-14" x1="405.6" y1="27.96" x2="405.6" y2="26.76"/><line class="cls-14" x1="371.76" y1="7.08" x2="369.12" y2="7.08"/><line class="cls-14" x1="367.44" y1="7.08" x2="365.28" y2="7.08"/><line class="cls-14" x1="363.6" y1="7.08" x2="361.44" y2="7.08"/><line class="cls-14" x1="359.76" y1="7.08" x2="357.6" y2="7.08"/><line class="cls-14" x1="355.92" y1="7.08" x2="354" y2="7.08"/><line class="cls-14" x1="352.08" y1="7.08" x2="350.16" y2="7.08"/><line class="cls-14" x1="348.24" y1="7.08" x2="346.32" y2="7.08"/><line class="cls-14" x1="344.64" y1="7.08" x2="342.48" y2="7.08"/><line class="cls-14" x1="340.8" y1="7.08" x2="338.64" y2="7.08"/><line class="cls-14" x1="336.96" y1="7.08" x2="334.8" y2="7.08"/><line class="cls-14" x1="333.12" y1="7.08" x2="330.96" y2="7.08"/><line class="cls-14" x1="329.28" y1="7.08" x2="327.12" y2="7.08"/><line class="cls-14" x1="325.44" y1="7.08" x2="323.28" y2="7.08"/><line class="cls-14" x1="321.6" y1="7.08" x2="319.44" y2="7.08"/><line class="cls-14" x1="317.76" y1="7.08" x2="315.6" y2="7.08"/><line class="cls-14" x1="313.92" y1="7.08" x2="311.76" y2="7.08"/><line class="cls-14" x1="310.08" y1="7.08" x2="307.92" y2="7.08"/><line class="cls-14" x1="306.24" y1="7.08" x2="304.08" y2="7.08"/><line class="cls-14" x1="302.4" y1="7.08" x2="300.24" y2="7.08"/><line class="cls-14" x1="298.56" y1="7.08" x2="296.4" y2="7.08"/><line class="cls-14" x1="294.72" y1="7.08" x2="292.56" y2="7.08"/><line class="cls-14" x1="290.88" y1="7.08" x2="288.72" y2="7.08"/><line class="cls-14" x1="287.04" y1="7.08" x2="284.88" y2="7.08"/><line class="cls-14" x1="283.2" y1="7.08" x2="281.28" y2="7.08"/><line class="cls-14" x1="279.36" y1="7.08" x2="277.44" y2="7.08"/><line class="cls-14" x1="275.76" y1="7.08" x2="273.6" y2="7.08"/><line class="cls-14" x1="271.92" y1="7.08" x2="269.76" y2="7.08"/><line class="cls-14" x1="268.08" y1="7.08" x2="265.92" y2="7.08"/><line class="cls-14" x1="264.24" y1="7.08" x2="262.08" y2="7.08"/><line class="cls-14" x1="260.4" y1="7.08" x2="258.24" y2="7.08"/><line class="cls-14" x1="256.56" y1="7.08" x2="254.4" y2="7.08"/><line class="cls-14" x1="252.72" y1="7.08" x2="250.56" y2="7.08"/><line class="cls-14" x1="248.88" y1="7.08" x2="246.72" y2="7.08"/><line class="cls-14" x1="245.04" y1="7.08" x2="242.88" y2="7.08"/><line class="cls-14" x1="241.2" y1="7.08" x2="239.04" y2="7.08"/><line class="cls-14" x1="237.36" y1="7.08" x2="235.2" y2="7.08"/><line class="cls-14" x1="233.52" y1="7.08" x2="231.36" y2="7.08"/><line class="cls-14" x1="229.68" y1="7.08" x2="227.52" y2="7.08"/><line class="cls-14" x1="225.84" y1="7.08" x2="223.68" y2="7.08"/><line class="cls-14" x1="222" y1="7.08" x2="219.84" y2="7.08"/><line class="cls-14" x1="218.16" y1="7.08" x2="216" y2="7.08"/><line class="cls-14" x1="214.32" y1="7.08" x2="212.4" y2="7.08"/><line class="cls-14" x1="210.48" y1="7.08" x2="208.56" y2="7.08"/><line class="cls-14" x1="206.64" y1="7.08" x2="204.72" y2="7.08"/><line class="cls-14" x1="203.04" y1="7.08" x2="200.88" y2="7.08"/><line class="cls-14" x1="199.2" y1="7.08" x2="197.04" y2="7.08"/><line class="cls-14" x1="195.36" y1="7.08" x2="193.2" y2="7.08"/><line class="cls-14" x1="191.52" y1="7.08" x2="189.36" y2="7.08"/><line class="cls-14" x1="187.68" y1="7.08" x2="185.52" y2="7.08"/><line class="cls-14" x1="183.84" y1="7.08" x2="181.68" y2="7.08"/><line class="cls-14" x1="180" y1="7.08" x2="177.84" y2="7.08"/><line class="cls-14" x1="176.16" y1="7.08" x2="174" y2="7.08"/><line class="cls-14" x1="172.32" y1="7.08" x2="170.16" y2="7.08"/><line class="cls-14" x1="168.48" y1="7.08" x2="166.32" y2="7.08"/><line class="cls-14" x1="164.64" y1="7.08" x2="162.48" y2="7.08"/><line class="cls-14" x1="160.8" y1="7.08" x2="158.64" y2="7.08"/><line class="cls-14" x1="156.96" y1="7.08" x2="154.8" y2="7.08"/><line class="cls-14" x1="153.12" y1="7.08" x2="150.96" y2="7.08"/><line class="cls-14" x1="149.28" y1="7.08" x2="147.12" y2="7.08"/><line class="cls-14" x1="145.44" y1="7.08" x2="143.28" y2="7.08"/><line class="cls-14" x1="141.6" y1="7.08" x2="139.68" y2="7.08"/><line class="cls-14" x1="137.76" y1="7.08" x2="135.84" y2="7.08"/><line class="cls-14" x1="134.16" y1="7.08" x2="132" y2="7.08"/><line class="cls-14" x1="130.32" y1="7.08" x2="128.16" y2="7.08"/><line class="cls-14" x1="126.48" y1="7.08" x2="124.32" y2="7.08"/><line class="cls-14" x1="122.64" y1="7.08" x2="120.48" y2="7.08"/><line class="cls-14" x1="118.8" y1="7.08" x2="116.64" y2="7.08"/><line class="cls-14" x1="114.96" y1="7.08" x2="112.8" y2="7.08"/><line class="cls-14" x1="111.12" y1="7.08" x2="108.96" y2="7.08"/><line class="cls-14" x1="107.28" y1="7.08" x2="105.12" y2="7.08"/><line class="cls-14" x1="103.44" y1="7.08" x2="101.28" y2="7.08"/><line class="cls-14" x1="99.6" y1="7.08" x2="97.44" y2="7.08"/><line class="cls-14" x1="95.76" y1="7.08" x2="93.6" y2="7.08"/><line class="cls-14" x1="91.92" y1="7.08" x2="89.76" y2="7.08"/><line class="cls-14" x1="88.08" y1="7.08" x2="85.92" y2="7.08"/><line class="cls-14" x1="84.24" y1="7.08" x2="82.08" y2="7.08"/><line class="cls-14" x1="80.4" y1="7.08" x2="78" y2="7.08"/><line class="cls-14" x1="172.08" y1="74.76" x2="52.56" y2="74.76"/><polyline class="cls-14" points="174.96 77.64 174 75.48 172.08 74.76"/><line class="cls-14" x1="174.96" y1="128.04" x2="174.96" y2="77.64"/><polyline class="cls-14" points="172.08 130.92 174 129.96 174.96 128.04"/><line class="cls-14" x1="52.56" y1="130.92" x2="172.08" y2="130.92"/><polyline class="cls-14" points="49.68 128.04 50.4 129.96 52.56 130.92"/><line class="cls-14" x1="49.68" y1="77.64" x2="49.68" y2="128.04"/><polyline class="cls-14" points="52.56 74.76 50.4 75.48 49.68 77.64"/><polyline class="cls-15" points="81.12 130.92 81.12 129.48 53.76 129.48 53.76 130.92 81.12 130.92"/><polyline class="cls-15" points="167.28 76.2 167.28 74.76 126.96 74.76 126.96 76.2 167.28 76.2"/><polyline class="cls-15" points="80.88 76.2 80.88 74.76 53.52 74.76 53.52 76.2 80.88 76.2"/><line class="cls-15" x1="173.04" y1="80.04" x2="174.48" y2="80.04"/><line class="cls-15" x1="173.04" y1="125.4" x2="173.04" y2="80.04"/><line class="cls-15" x1="174.48" y1="125.4" x2="173.04" y2="125.4"/><line class="cls-15" x1="174.48" y1="80.04" x2="174.48" y2="125.4"/><line class="cls-15" x1="51.6" y1="80.28" x2="49.92" y2="80.28"/><line class="cls-15" x1="51.6" y1="125.4" x2="51.6" y2="80.28"/><line class="cls-15" x1="49.92" y1="125.4" x2="51.6" y2="125.4"/><line class="cls-15" x1="49.92" y1="80.28" x2="49.92" y2="125.4"/><line class="cls-15" x1="78.24" y1="125.88" x2="54.24" y2="125.88"/><line class="cls-15" x1="78.24" y1="79.32" x2="78.24" y2="125.88"/><line class="cls-15" x1="54.24" y1="79.32" x2="78.24" y2="79.32"/><line class="cls-15" x1="54.24" y1="125.88" x2="54.24" y2="79.32"/><line class="cls-15" x1="169.92" y1="76.92" x2="54.72" y2="76.92"/><polyline class="cls-15" points="172.8 79.8 171.84 77.64 169.92 76.92"/><line class="cls-15" x1="172.8" y1="125.88" x2="172.8" y2="79.8"/><polyline class="cls-15" points="169.92 128.76 171.84 127.8 172.8 125.88"/><line class="cls-15" x1="54.72" y1="128.76" x2="169.92" y2="128.76"/><polyline class="cls-15" points="51.84 125.88 52.56 127.8 54.72 128.76"/><line class="cls-15" x1="51.84" y1="79.8" x2="51.84" y2="125.88"/><polyline class="cls-15" points="54.72 76.92 52.56 77.64 51.84 79.8"/><polyline class="cls-15" points="49.68 77.64 49.68 128.04 49.68 128.76 49.92 129.48 50.4 129.96 51.12 130.44 51.84 130.68 52.56 130.92 172.08 130.92 172.8 130.68 173.52 130.44 174 129.96 174.48 129.48 174.72 128.76 174.96 128.04 174.96 77.64 174.72 76.92 174.48 76.2 174 75.48 173.52 75 172.8 74.76 172.08 74.76 52.56 74.76 51.84 74.76 51.12 75 50.4 75.48 49.92 76.2 49.68 76.92 49.68 77.64"/><line class="cls-14" x1="277.68" y1="74.76" x2="397.2" y2="74.76"/><polyline class="cls-14" points="274.8 77.64 275.52 75.48 277.68 74.76"/><line class="cls-14" x1="274.8" y1="128.04" x2="274.8" y2="77.64"/><polyline class="cls-14" points="277.68 130.92 275.52 129.96 274.8 128.04"/><line class="cls-14" x1="397.2" y1="130.92" x2="277.68" y2="130.92"/><polyline class="cls-14" points="400.08 128.04 399.12 129.96 397.2 130.92"/><line class="cls-14" x1="400.08" y1="77.64" x2="400.08" y2="128.04"/><polyline class="cls-14" points="397.2 74.76 399.12 75.48 400.08 77.64"/><polyline class="cls-15" points="368.4 130.92 368.4 129.48 396 129.48 396 130.92 368.4 130.92"/><polyline class="cls-15" points="282.24 76.2 282.24 74.76 322.56 74.76 322.56 76.2 282.24 76.2"/><polyline class="cls-15" points="368.88 76.2 368.88 74.76 396 74.76 396 76.2 368.88 76.2"/><line class="cls-15" x1="276.48" y1="80.04" x2="275.04" y2="80.04"/><line class="cls-15" x1="276.48" y1="125.4" x2="276.48" y2="80.04"/><line class="cls-15" x1="275.04" y1="125.4" x2="276.48" y2="125.4"/><line class="cls-15" x1="275.04" y1="80.04" x2="275.04" y2="125.4"/><line class="cls-15" x1="398.16" y1="80.28" x2="399.84" y2="80.28"/><line class="cls-15" x1="398.16" y1="125.4" x2="398.16" y2="80.28"/><line class="cls-15" x1="399.84" y1="125.4" x2="398.16" y2="125.4"/><line class="cls-15" x1="399.84" y1="80.28" x2="399.84" y2="125.4"/><line class="cls-15" x1="371.52" y1="125.88" x2="395.28" y2="125.88"/><line class="cls-15" x1="371.52" y1="79.32" x2="371.52" y2="125.88"/><line class="cls-15" x1="395.28" y1="79.32" x2="371.52" y2="79.32"/><line class="cls-15" x1="395.28" y1="125.88" x2="395.28" y2="79.32"/><line class="cls-15" x1="279.84" y1="76.92" x2="395.04" y2="76.92"/><polyline class="cls-15" points="276.96 79.8 277.68 77.64 279.84 76.92"/><line class="cls-15" x1="276.96" y1="125.88" x2="276.96" y2="79.8"/><polyline class="cls-15" points="279.84 128.76 277.68 127.8 276.96 125.88"/><line class="cls-15" x1="395.04" y1="128.76" x2="279.84" y2="128.76"/><polyline class="cls-15" points="397.92 125.88 396.96 127.8 395.04 128.76"/><line class="cls-15" x1="397.92" y1="79.8" x2="397.92" y2="125.88"/><polyline class="cls-15" points="395.04 76.92 396.96 77.64 397.92 79.8"/><polyline class="cls-15" points="400.08 77.64 399.84 76.92 399.6 76.2 399.12 75.48 398.64 75 397.92 74.76 397.2 74.76 277.68 74.76 276.72 74.76 276.24 75 275.52 75.48 275.04 76.2 274.8 76.92 274.8 77.64 274.8 128.04 274.8 128.76 275.04 129.48 275.52 129.96 276.24 130.44 276.72 130.68 277.68 130.92 397.2 130.92 397.92 130.68 398.64 130.44 399.12 129.96 399.6 129.48 399.84 128.76 400.08 128.04 400.08 77.64"/><polyline class="cls-14" points="237.12 332.52 237.84 324.84 240.48 317.64 244.56 311.16 249.84 305.88 256.32 301.8 263.52 299.16 270.96 298.44"/><polyline class="cls-14" points="268.32 332.52 268.32 298.44 270.96 298.44 270.96 332.52 268.32 332.52"/><polyline class="cls-14" points="237.12 332.52 236.16 322.44 233.52 312.84 229.44 303.96 223.68 295.8 216.72 288.84 208.56 283.08 199.44 278.76 189.84 276.36 180 275.4"/><polyline class="cls-14" points="182.88 332.52 182.88 275.4 180 275.4 180 332.52 182.88 332.52"/><polyline class="cls-14" points="270.96 328.92 180 328.92 180 335.88 270.96 335.88 270.96 328.92 180 328.92 180 335.88 270.96 335.88 270.96 328.92"/><polyline class="cls-14" points="354.72 7.08 371.76 7.08 405.6 7.08"/><line class="cls-14" x1="371.76" y1="26.76" x2="405.6" y2="26.76"/><line class="cls-14" x1="371.76" y1="7.08" x2="405.6" y2="7.08"/><line class="cls-14" x1="371.76" y1="26.76" x2="371.76" y2="7.08"/><line class="cls-14" x1="405.6" y1="26.76" x2="405.6" y2="7.08"/><polyline class="cls-15" points="371.76 26.76 405.6 26.76 405.6 7.08 371.76 7.08 371.76 26.76"/><line class="cls-15" x1="371.76" y1="7.08" x2="405.6" y2="7.08"/><polyline class="cls-15" points="351.84 7.08 352.56 12.12 354.48 16.92 357.6 21 361.68 24.12 366.48 26.04 371.76 26.76 405.6 26.76"/><line class="cls-15" x1="371.76" y1="7.08" x2="371.76" y2="26.76"/><line class="cls-15" x1="405.6" y1="7.08" x2="405.6" y2="26.76"/><line class="cls-15" x1="351.84" y1="7.08" x2="371.76" y2="7.08"/><polyline class="cls-14" points="95.04 7.08 78 7.08 43.92 7.08"/><line class="cls-14" x1="78" y1="26.76" x2="43.92" y2="26.76"/><line class="cls-14" x1="78" y1="7.08" x2="43.92" y2="7.08"/><line class="cls-14" x1="78" y1="26.76" x2="78" y2="7.08"/><line class="cls-14" x1="43.92" y1="26.76" x2="43.92" y2="7.08"/><polyline class="cls-15" points="78 26.76 78 7.08 43.92 7.08 43.92 26.76 78 26.76"/><line class="cls-15" x1="78" y1="7.08" x2="43.92" y2="7.08"/><polyline class="cls-15" points="97.92 7.08 97.2 12.12 95.28 16.92 91.92 21 87.84 24.12 83.04 26.04 78 26.76 43.92 26.76"/><line class="cls-15" x1="78" y1="7.08" x2="78" y2="26.76"/><line class="cls-15" x1="43.92" y1="7.08" x2="43.92" y2="26.76"/><line class="cls-15" x1="97.92" y1="7.08" x2="78" y2="7.08"/><polyline class="cls-15" points="137.28 285.48 137.04 286.92 137.04 288.36"/><polyline class="cls-15" points="137.28 306.84 137.04 305.4 137.04 303.96"/><line class="cls-15" x1="140.64" y1="282.6" x2="139.92" y2="282.84"/><polyline class="cls-15" points="140.64 282.6 142.08 282.6 143.76 282.84"/><polyline class="cls-15" points="137.28 285.48 138.24 283.8 139.92 282.84"/><line class="cls-15" x1="140.64" y1="309.48" x2="139.92" y2="309.48"/><polyline class="cls-15" points="140.64 309.48 142.08 309.72 143.76 309.48"/><polyline class="cls-15" points="137.28 306.84 138.24 308.52 139.92 309.48"/><line class="cls-14" x1="129.12" y1="310.44" x2="129.12" y2="281.88"/><polyline class="cls-14" points="146.4 310.68 148.8 309 150.96 307.08"/><polyline class="cls-14" points="141.6 311.64 144 311.4 146.4 310.68"/><polyline class="cls-14" points="129.12 310.44 135.36 311.4 141.6 311.64"/><polyline class="cls-14" points="141.6 280.44 135.36 280.92 129.12 281.88"/><polyline class="cls-14" points="153.84 302.28 154.56 299.16 154.8 296.04"/><polyline class="cls-14" points="150.96 307.08 152.64 304.92 153.84 302.28"/><polyline class="cls-14" points="146.4 281.64 144 280.92 141.6 280.44"/><polyline class="cls-14" points="150.96 285 148.8 283.08 146.4 281.64"/><polyline class="cls-14" points="153.84 290.04 152.64 287.4 150.96 285"/><polyline class="cls-14" points="154.8 296.04 154.56 293.16 153.84 290.04"/><polyline class="cls-15" points="130.08 281.64 130.08 310.68 135.84 311.4 141.6 311.64 144 311.4 146.4 310.68 148.8 309 150.96 307.08 152.64 304.92 153.84 302.28 154.56 299.16 154.8 296.04 154.56 293.16 153.84 290.04 152.64 287.4 150.96 285 148.8 283.08 146.4 281.64 144 280.92 141.6 280.44 135.84 280.92 130.08 281.64"/><polyline class="cls-15" points="129.12 270.6 129.12 321.72 130.08 321.72 130.08 270.6 129.12 270.6"/><line class="cls-16" x1="138.96" y1="296.04" x2="129.36" y2="296.04"/><line class="cls-16" x1="118.08" y1="296.04" x2="106.8" y2="296.04"/><line class="cls-16" x1="95.52" y1="296.04" x2="84" y2="296.04"/><line class="cls-16" x1="72.72" y1="296.04" x2="61.44" y2="296.04"/><line class="cls-16" x1="50.16" y1="296.04" x2="40.56" y2="296.04"/><line class="cls-16" x1="65.52" y1="270.6" x2="51.36" y2="270.6"/><line class="cls-16" x1="40.08" y1="270.6" x2="25.92" y2="270.6"/><line class="cls-17" x1="13.44" y1="270.6" x2="13.44" y2="296.04"/><line class="cls-16" x1="13.44" y1="296.04" x2="9.12" y2="291.96"/><line class="cls-16" x1="13.44" y1="296.04" x2="17.52" y2="300.36"/><line class="cls-17" x1="13.44" y1="296.04" x2="6.24" y2="296.04"/><line class="cls-17" x1="13.44" y1="296.04" x2="27.6" y2="296.04"/><line class="cls-16" x1="13.44" y1="270.6" x2="9.12" y2="266.28"/><line class="cls-16" x1="13.44" y1="270.6" x2="17.52" y2="274.92"/><line class="cls-17" x1="13.44" y1="270.6" x2="6.24" y2="270.6"/><line class="cls-17" x1="13.44" y1="270.6" x2="27.6" y2="270.6"/><rect class="cls-18" x="17.52" y="275.16" width="9.6" height="16.32"/><text class="cls-19" transform="translate(25.2 291.24) rotate(-90)"><tspan class="cls-20">F</tspan><tspan class="cls-21" x="4.08" y="0">i</tspan><tspan class="cls-20" x="5.53" y="0">x</tspan><tspan class="cls-22" x="8.88" y="0">e</tspan><tspan x="12.48" y="0">d</tspan></text><rect class="cls-18" y="278.04" width="9.6" height="11.04"/><text class="cls-19" transform="translate(7.68 288.84) rotate(-90)"><tspan class="cls-22">45</tspan><tspan x="7.2" y="0">0</tspan></text></g></g></svg>