<svg xmlns="http://www.w3.org/2000/svg" xmlns:xlink="http://www.w3.org/1999/xlink" viewBox="0 0 404.88 333.96"><defs><style>.cls-1,.cls-15,.cls-16,.cls-17,.cls-18,.cls-2{fill:none;}.cls-1{clip-rule:evenodd;}.cls-3{clip-path:url(#clip-path);}.cls-4{clip-path:url(#clip-path-2);}.cls-5{fill:#c6d3b4;}.cls-12,.cls-6{font-size:4.08px;font-family:ArialMT, Arial;}.cls-12,.cls-7{letter-spacing:-0.03em;}.cls-8{letter-spacing:0.02em;}.cls-9{letter-spacing:-0.09em;}.cls-10{letter-spacing:0.02em;}.cls-11{letter-spacing:-0.03em;}.cls-13{letter-spacing:-0.04em;}.cls-14{letter-spacing:0em;}.cls-15,.cls-16{stroke:#000;}.cls-15,.cls-16,.cls-17,.cls-18{stroke-linecap:round;stroke-linejoin:round;}.cls-15,.cls-18{stroke-width:0.24px;}.cls-16,.cls-17{stroke-width:0.48px;}.cls-17,.cls-18{stroke:red;}.cls-19{fill:#fff;}.cls-20{font-size:8.05px;fill:red;font-family:ArialNarrow, Arial;}.cls-21{letter-spacing:-0.01em;}.cls-22{letter-spacing:0em;}.cls-23{letter-spacing:0.01em;}.cls-24{letter-spacing:-0.04em;}.cls-25{letter-spacing:0em;}.cls-26{letter-spacing:0em;}.cls-27{letter-spacing:0.01em;}</style><clipPath id="clip-path" transform="translate(-399.94 -533.64)"><path class="cls-1" d="M638.86,623.4l-.48.48-.24.48-.24.24-.24.72V677.4h.24v.72h.24l.72.72.72.24,62.88.24,57.6.24v-.24l1.44-.48,1-1,.24-.72.24-51.6h-.24v-.72h-.24v-.48l-1-1M414,623.4l-.24.24-.48.24-.24.48-.24.24-.24.72V677.4h.24l.24.24v.48h.24v.48h.24l.24.24,1.44.48,119.76.24v-.24l1.44-.48,1-1,.24-.72.24-51.6h-.24v-.72h-.24v-.48l-1-1Zm-7.2-81.84V750.12H473l54,54v56.64h121.2V804.12l54-54h66.24V541.56Z"/></clipPath><clipPath id="clip-path-2" transform="translate(-399.94 -533.64)"><rect class="cls-2" width="1684.08" height="1191.12"/></clipPath></defs><title>PushIt - Floor Plan - SP-Room-Bed-Two_ENS_Sample 2</title><g id="Layer_2" data-name="Layer 2"><g id="Layer_1-2" data-name="Layer 1"><g class="cls-3"><g class="cls-4"><rect class="cls-5" x="6.84" y="7.92" width="361.68" height="319.2"/></g></g><text class="cls-6" transform="translate(123 127.68)">?</text><text class="cls-6" transform="translate(113.64 140.4)"><tspan class="cls-7">6500</tspan><tspan class="cls-8" x="8.64" y="0"> </tspan><tspan class="cls-9" x="9.84" y="0">x</tspan><tspan class="cls-8" x="11.52" y="0"> </tspan><tspan class="cls-7" x="12.72" y="0">575</tspan><tspan x="19.2" y="0">0</tspan></text><text class="cls-6" transform="translate(119.64 132)"><tspan class="cls-7">10</tspan><tspan class="cls-10" x="4.32" y="0">.</tspan><tspan class="cls-11" x="5.52" y="0">0</tspan><tspan x="7.68" y="0">0</tspan></text><text class="cls-12" transform="translate(112.44 136.08)">29<tspan class="cls-10" x="4.32" y="0">.</tspan><tspan class="cls-11" x="5.52" y="0">11</tspan><tspan class="cls-8" x="9.84" y="0"> </tspan><tspan class="cls-13" x="11.04" y="0">(</tspan><tspan x="12.24" y="0">28</tspan><tspan class="cls-8" x="16.55" y="0">.</tspan><tspan x="17.75" y="0">55</tspan><tspan class="cls-14" x="22.07" y="0">)</tspan></text><text class="cls-6" transform="translate(123 123.36)">?</text><polyline class="cls-15" points="375.48 0.96 0.12 0.96 0.12 223.2 69.96 223.2 120.36 273.36 120.36 333.84 255.24 333.84 255.24 273.36 305.4 223.2 375.48 223.2 375.48 0.96"/><polyline class="cls-15" points="248.28 327.12 127.08 327.12 127.08 270.72 72.84 216.48 6.84 216.48 6.84 7.92 368.52 7.92 368.52 216.48 302.52 216.48 248.28 270.72 248.28 327.12"/><line class="cls-15" x1="135" y1="89.76" x2="15.24" y2="89.76"/><polyline class="cls-15" points="137.88 92.64 136.92 90.48 135 89.76"/><line class="cls-15" x1="137.88" y1="143.04" x2="137.88" y2="92.64"/><polyline class="cls-15" points="135 145.92 136.92 144.96 137.88 143.04"/><line class="cls-15" x1="15.24" y1="145.92" x2="135" y2="145.92"/><polyline class="cls-15" points="12.6 143.04 13.32 144.96 15.24 145.92"/><line class="cls-15" x1="12.6" y1="92.64" x2="12.6" y2="143.04"/><polyline class="cls-15" points="15.24 89.76 13.32 90.48 12.6 92.64"/><polyline class="cls-16" points="44.04 145.92 44.04 144.48 16.68 144.48 16.68 145.92 44.04 145.92"/><polyline class="cls-16" points="130.2 91.2 130.2 89.76 89.88 89.76 89.88 91.2 130.2 91.2"/><polyline class="cls-16" points="43.8 91.2 43.8 89.76 16.44 89.76 16.44 91.2 43.8 91.2"/><line class="cls-16" x1="135.96" y1="95.04" x2="137.4" y2="95.04"/><line class="cls-16" x1="135.96" y1="140.4" x2="135.96" y2="95.04"/><line class="cls-16" x1="137.4" y1="140.4" x2="135.96" y2="140.4"/><line class="cls-16" x1="137.4" y1="95.04" x2="137.4" y2="140.4"/><line class="cls-16" x1="14.52" y1="95.28" x2="12.84" y2="95.28"/><line class="cls-16" x1="14.52" y1="140.4" x2="14.52" y2="95.28"/><line class="cls-16" x1="12.84" y1="140.4" x2="14.52" y2="140.4"/><line class="cls-16" x1="12.84" y1="95.28" x2="12.84" y2="140.4"/><line class="cls-16" x1="40.92" y1="140.88" x2="17.16" y2="140.88"/><line class="cls-16" x1="40.92" y1="94.32" x2="40.92" y2="140.88"/><line class="cls-16" x1="17.16" y1="94.32" x2="40.92" y2="94.32"/><line class="cls-16" x1="17.16" y1="140.88" x2="17.16" y2="94.32"/><line class="cls-16" x1="132.84" y1="91.92" x2="17.4" y2="91.92"/><polyline class="cls-16" points="135.72 94.8 134.76 92.64 132.84 91.92"/><line class="cls-16" x1="135.72" y1="140.88" x2="135.72" y2="94.8"/><polyline class="cls-16" points="132.84 143.76 134.76 142.8 135.72 140.88"/><line class="cls-16" x1="17.4" y1="143.76" x2="132.84" y2="143.76"/><polyline class="cls-16" points="14.76 140.88 15.48 142.8 17.4 143.76"/><line class="cls-16" x1="14.76" y1="94.8" x2="14.76" y2="140.88"/><polyline class="cls-16" points="17.4 91.92 15.48 92.64 14.76 94.8"/><polyline class="cls-16" points="12.6 92.64 12.6 143.04 12.6 143.76 12.84 144.48 13.32 144.96 14.04 145.44 14.52 145.68 15.24 145.92 135 145.92 135.72 145.68 136.44 145.44 136.92 144.96 137.4 144.48 137.64 143.76 137.88 143.04 137.88 92.64 137.64 91.92 137.4 91.2 136.92 90.48 136.44 90 135.72 89.76 135 89.76 15.24 89.76 14.52 89.76 14.04 90 13.32 90.48 12.84 91.2 12.6 91.92 12.6 92.64"/><line class="cls-15" x1="240.36" y1="89.76" x2="360.12" y2="89.76"/><polyline class="cls-15" points="237.72 92.64 238.44 90.48 240.36 89.76"/><line class="cls-15" x1="237.72" y1="143.04" x2="237.72" y2="92.64"/><polyline class="cls-15" points="240.36 145.92 238.44 144.96 237.72 143.04"/><line class="cls-15" x1="360.12" y1="145.92" x2="240.36" y2="145.92"/><polyline class="cls-15" points="363 143.04 362.04 144.96 360.12 145.92"/><line class="cls-15" x1="363" y1="92.64" x2="363" y2="143.04"/><polyline class="cls-15" points="360.12 89.76 362.04 90.48 363 92.64"/><polyline class="cls-16" points="331.32 145.92 331.32 144.48 358.92 144.48 358.92 145.92 331.32 145.92"/><polyline class="cls-16" points="245.16 91.2 245.16 89.76 285.48 89.76 285.48 91.2 245.16 91.2"/><polyline class="cls-16" points="331.56 91.2 331.56 89.76 358.92 89.76 358.92 91.2 331.56 91.2"/><line class="cls-16" x1="239.4" y1="95.04" x2="237.96" y2="95.04"/><line class="cls-16" x1="239.4" y1="140.4" x2="239.4" y2="95.04"/><line class="cls-16" x1="237.96" y1="140.4" x2="239.4" y2="140.4"/><line class="cls-16" x1="237.96" y1="95.04" x2="237.96" y2="140.4"/><line class="cls-16" x1="361.08" y1="95.28" x2="362.52" y2="95.28"/><line class="cls-16" x1="361.08" y1="140.4" x2="361.08" y2="95.28"/><line class="cls-16" x1="362.52" y1="140.4" x2="361.08" y2="140.4"/><line class="cls-16" x1="362.52" y1="95.28" x2="362.52" y2="140.4"/><line class="cls-16" x1="334.44" y1="140.88" x2="358.2" y2="140.88"/><line class="cls-16" x1="334.44" y1="94.32" x2="334.44" y2="140.88"/><line class="cls-16" x1="358.2" y1="94.32" x2="334.44" y2="94.32"/><line class="cls-16" x1="358.2" y1="140.88" x2="358.2" y2="94.32"/><line class="cls-16" x1="242.52" y1="91.92" x2="357.96" y2="91.92"/><polyline class="cls-16" points="239.88 94.8 240.6 92.64 242.52 91.92"/><line class="cls-16" x1="239.88" y1="140.88" x2="239.88" y2="94.8"/><polyline class="cls-16" points="242.52 143.76 240.6 142.8 239.88 140.88"/><line class="cls-16" x1="357.96" y1="143.76" x2="242.52" y2="143.76"/><polyline class="cls-16" points="360.84 140.88 359.88 142.8 357.96 143.76"/><line class="cls-16" x1="360.84" y1="94.8" x2="360.84" y2="140.88"/><polyline class="cls-16" points="357.96 91.92 359.88 92.64 360.84 94.8"/><polyline class="cls-16" points="363 92.64 362.76 91.92 362.52 91.2 362.04 90.48 361.56 90 360.84 89.76 360.12 89.76 240.36 89.76 239.64 89.76 238.92 90 238.44 90.48 237.96 91.2 237.72 91.92 237.72 92.64 237.72 143.04 237.72 143.76 237.96 144.48 238.44 144.96 238.92 145.44 239.64 145.68 240.36 145.92 360.12 145.92 360.84 145.68 361.56 145.44 362.04 144.96 362.52 144.48 362.76 143.76 363 143.04 363 92.64"/><line class="cls-15" x1="6.84" y1="7.92" x2="6.84" y2="9.84"/><line class="cls-15" x1="6.84" y1="11.52" x2="6.84" y2="13.68"/><line class="cls-15" x1="6.84" y1="15.36" x2="6.84" y2="17.52"/><line class="cls-15" x1="6.84" y1="19.2" x2="6.84" y2="21.36"/><line class="cls-15" x1="6.84" y1="23.04" x2="6.84" y2="25.2"/><line class="cls-15" x1="6.84" y1="26.88" x2="6.84" y2="29.04"/><line class="cls-15" x1="6.84" y1="30.72" x2="6.84" y2="32.88"/><line class="cls-15" x1="6.84" y1="34.56" x2="6.84" y2="36.72"/><line class="cls-15" x1="6.84" y1="38.4" x2="6.84" y2="40.56"/><line class="cls-15" x1="6.84" y1="42.24" x2="6.84" y2="44.4"/><line class="cls-15" x1="6.84" y1="46.08" x2="6.84" y2="48.24"/><line class="cls-15" x1="6.84" y1="49.92" x2="6.84" y2="51.84"/><line class="cls-15" x1="6.84" y1="53.76" x2="6.84" y2="55.68"/><line class="cls-15" x1="6.84" y1="57.6" x2="6.84" y2="59.52"/><line class="cls-15" x1="6.84" y1="61.2" x2="6.84" y2="63.36"/><line class="cls-15" x1="6.84" y1="65.04" x2="6.84" y2="67.2"/><line class="cls-15" x1="6.84" y1="68.88" x2="6.84" y2="71.04"/><line class="cls-15" x1="6.84" y1="72.72" x2="6.84" y2="74.88"/><line class="cls-15" x1="6.84" y1="76.56" x2="6.84" y2="78.72"/><line class="cls-15" x1="6.84" y1="80.4" x2="6.84" y2="82.56"/><line class="cls-15" x1="6.84" y1="84.24" x2="6.84" y2="86.4"/><line class="cls-15" x1="6.84" y1="88.08" x2="6.84" y2="90.24"/><line class="cls-15" x1="6.84" y1="91.92" x2="6.84" y2="94.08"/><line class="cls-15" x1="6.84" y1="95.76" x2="6.84" y2="97.92"/><line class="cls-15" x1="6.84" y1="99.6" x2="6.84" y2="101.76"/><line class="cls-15" x1="6.84" y1="103.44" x2="6.84" y2="105.6"/><line class="cls-15" x1="6.84" y1="107.28" x2="6.84" y2="109.44"/><line class="cls-15" x1="6.84" y1="111.12" x2="6.84" y2="113.28"/><line class="cls-15" x1="6.84" y1="114.96" x2="6.84" y2="117.12"/><line class="cls-15" x1="6.84" y1="118.8" x2="6.84" y2="120.96"/><line class="cls-15" x1="6.84" y1="122.64" x2="6.84" y2="124.56"/><line class="cls-15" x1="6.84" y1="126.48" x2="6.84" y2="128.4"/><line class="cls-15" x1="6.84" y1="130.08" x2="6.84" y2="132.24"/><line class="cls-15" x1="6.84" y1="133.92" x2="6.84" y2="136.08"/><line class="cls-15" x1="6.84" y1="137.76" x2="6.84" y2="139.92"/><line class="cls-15" x1="6.84" y1="141.6" x2="6.84" y2="143.76"/><line class="cls-15" x1="6.84" y1="145.44" x2="6.84" y2="147.6"/><line class="cls-15" x1="6.84" y1="149.28" x2="6.84" y2="151.44"/><line class="cls-15" x1="6.84" y1="153.12" x2="6.84" y2="155.28"/><line class="cls-15" x1="6.84" y1="156.96" x2="6.84" y2="159.12"/><line class="cls-15" x1="6.84" y1="160.8" x2="6.84" y2="162.96"/><line class="cls-15" x1="6.84" y1="164.64" x2="6.84" y2="166.8"/><line class="cls-15" x1="6.84" y1="168.48" x2="6.84" y2="170.64"/><line class="cls-15" x1="6.84" y1="172.32" x2="6.84" y2="174.48"/><line class="cls-15" x1="6.84" y1="176.16" x2="6.84" y2="178.32"/><line class="cls-15" x1="6.84" y1="180" x2="6.84" y2="182.16"/><line class="cls-15" x1="6.84" y1="183.84" x2="6.84" y2="186"/><line class="cls-15" x1="6.84" y1="187.68" x2="6.84" y2="189.84"/><line class="cls-15" x1="6.84" y1="191.52" x2="6.84" y2="193.44"/><line class="cls-15" x1="6.84" y1="195.36" x2="6.84" y2="197.28"/><line class="cls-15" x1="6.84" y1="199.2" x2="6.84" y2="201.12"/><line class="cls-15" x1="6.84" y1="202.8" x2="6.84" y2="204.96"/><line class="cls-15" x1="6.84" y1="206.64" x2="6.84" y2="208.8"/><line class="cls-15" x1="6.84" y1="210.48" x2="6.84" y2="212.64"/><polyline class="cls-15" points="6.84 214.32 6.84 216.48 8.52 216.48"/><line class="cls-15" x1="10.2" y1="216.48" x2="12.12" y2="216.48"/><line class="cls-15" x1="14.04" y1="216.48" x2="15.96" y2="216.48"/><line class="cls-15" x1="17.64" y1="216.48" x2="19.8" y2="216.48"/><line class="cls-15" x1="21.48" y1="216.48" x2="23.64" y2="216.48"/><line class="cls-15" x1="25.32" y1="216.48" x2="27.48" y2="216.48"/><line class="cls-15" x1="29.16" y1="216.48" x2="31.32" y2="216.48"/><line class="cls-15" x1="33" y1="216.48" x2="35.16" y2="216.48"/><line class="cls-15" x1="36.84" y1="216.48" x2="39" y2="216.48"/><line class="cls-15" x1="40.68" y1="216.48" x2="42.84" y2="216.48"/><line class="cls-15" x1="44.52" y1="216.48" x2="46.68" y2="216.48"/><line class="cls-15" x1="48.36" y1="216.48" x2="50.52" y2="216.48"/><line class="cls-15" x1="52.2" y1="216.48" x2="54.36" y2="216.48"/><line class="cls-15" x1="56.04" y1="216.48" x2="58.2" y2="216.48"/><line class="cls-15" x1="59.88" y1="216.48" x2="62.04" y2="216.48"/><line class="cls-15" x1="63.72" y1="216.48" x2="65.88" y2="216.48"/><line class="cls-15" x1="67.56" y1="216.48" x2="69.72" y2="216.48"/><polyline class="cls-15" points="71.4 216.48 72.84 216.48 73.56 217.2"/><line class="cls-15" x1="74.76" y1="218.4" x2="76.44" y2="219.84"/><line class="cls-15" x1="77.64" y1="221.04" x2="79.08" y2="222.72"/><line class="cls-15" x1="80.28" y1="223.92" x2="81.72" y2="225.36"/><line class="cls-15" x1="82.92" y1="226.56" x2="84.6" y2="228"/><line class="cls-15" x1="85.8" y1="229.2" x2="87.24" y2="230.64"/><line class="cls-15" x1="88.44" y1="231.84" x2="89.88" y2="233.52"/><line class="cls-15" x1="91.08" y1="234.72" x2="92.52" y2="236.16"/><line class="cls-15" x1="93.72" y1="237.36" x2="95.4" y2="238.8"/><line class="cls-15" x1="96.6" y1="240" x2="98.04" y2="241.68"/><line class="cls-15" x1="99.24" y1="242.88" x2="100.68" y2="244.32"/><line class="cls-15" x1="101.88" y1="245.52" x2="103.32" y2="246.96"/><line class="cls-15" x1="104.52" y1="248.16" x2="106.2" y2="249.6"/><line class="cls-15" x1="107.4" y1="250.8" x2="108.84" y2="252.48"/><line class="cls-15" x1="110.04" y1="253.68" x2="111.48" y2="255.12"/><line class="cls-15" x1="112.68" y1="256.32" x2="114.36" y2="257.76"/><line class="cls-15" x1="115.56" y1="258.96" x2="117" y2="260.4"/><line class="cls-15" x1="118.2" y1="261.6" x2="119.64" y2="263.28"/><line class="cls-15" x1="120.84" y1="264.48" x2="122.28" y2="265.92"/><line class="cls-15" x1="123.48" y1="267.12" x2="125.16" y2="268.56"/><polyline class="cls-15" points="126.36 269.76 127.08 270.72 127.08 273.12"/><line class="cls-15" x1="127.08" y1="274.8" x2="127.08" y2="276.96"/><line class="cls-15" x1="127.08" y1="278.64" x2="127.08" y2="280.8"/><line class="cls-15" x1="127.08" y1="282.48" x2="127.08" y2="284.64"/><line class="cls-15" x1="127.08" y1="286.32" x2="127.08" y2="288.48"/><line class="cls-15" x1="127.08" y1="290.16" x2="127.08" y2="292.32"/><line class="cls-15" x1="127.08" y1="294" x2="127.08" y2="295.92"/><line class="cls-15" x1="127.08" y1="297.84" x2="127.08" y2="299.76"/><line class="cls-15" x1="127.08" y1="301.68" x2="127.08" y2="303.6"/><line class="cls-15" x1="127.08" y1="305.28" x2="127.08" y2="307.44"/><line class="cls-15" x1="127.08" y1="309.12" x2="127.08" y2="311.28"/><line class="cls-15" x1="127.08" y1="312.96" x2="127.08" y2="315.12"/><line class="cls-15" x1="127.08" y1="316.8" x2="127.08" y2="318.96"/><line class="cls-15" x1="127.08" y1="320.64" x2="127.08" y2="322.8"/><polyline class="cls-15" points="127.08 324.48 127.08 327.12 129.48 327.12"/><line class="cls-15" x1="131.16" y1="327.12" x2="133.32" y2="327.12"/><line class="cls-15" x1="135" y1="327.12" x2="137.16" y2="327.12"/><line class="cls-15" x1="138.84" y1="327.12" x2="141" y2="327.12"/><line class="cls-15" x1="142.68" y1="327.12" x2="144.84" y2="327.12"/><line class="cls-15" x1="146.52" y1="327.12" x2="148.68" y2="327.12"/><line class="cls-15" x1="150.36" y1="327.12" x2="152.52" y2="327.12"/><line class="cls-15" x1="154.2" y1="327.12" x2="156.36" y2="327.12"/><line class="cls-15" x1="158.04" y1="327.12" x2="159.96" y2="327.12"/><line class="cls-15" x1="161.88" y1="327.12" x2="163.8" y2="327.12"/><line class="cls-15" x1="165.72" y1="327.12" x2="167.64" y2="327.12"/><line class="cls-15" x1="169.32" y1="327.12" x2="171.48" y2="327.12"/><line class="cls-15" x1="173.16" y1="327.12" x2="175.32" y2="327.12"/><line class="cls-15" x1="177" y1="327.12" x2="179.16" y2="327.12"/><line class="cls-15" x1="180.84" y1="327.12" x2="183" y2="327.12"/><line class="cls-15" x1="184.68" y1="327.12" x2="186.84" y2="327.12"/><line class="cls-15" x1="188.52" y1="327.12" x2="190.68" y2="327.12"/><line class="cls-15" x1="192.36" y1="327.12" x2="194.52" y2="327.12"/><line class="cls-15" x1="196.2" y1="327.12" x2="198.36" y2="327.12"/><line class="cls-15" x1="200.04" y1="327.12" x2="202.2" y2="327.12"/><line class="cls-15" x1="203.88" y1="327.12" x2="206.04" y2="327.12"/><line class="cls-15" x1="207.72" y1="327.12" x2="209.88" y2="327.12"/><line class="cls-15" x1="211.56" y1="327.12" x2="213.72" y2="327.12"/><line class="cls-15" x1="215.4" y1="327.12" x2="217.56" y2="327.12"/><line class="cls-15" x1="219.24" y1="327.12" x2="221.4" y2="327.12"/><line class="cls-15" x1="223.08" y1="327.12" x2="225.24" y2="327.12"/><line class="cls-15" x1="226.92" y1="327.12" x2="229.08" y2="327.12"/><line class="cls-15" x1="230.76" y1="327.12" x2="232.68" y2="327.12"/><line class="cls-15" x1="234.6" y1="327.12" x2="236.52" y2="327.12"/><line class="cls-15" x1="238.2" y1="327.12" x2="240.36" y2="327.12"/><line class="cls-15" x1="242.04" y1="327.12" x2="244.2" y2="327.12"/><polyline class="cls-15" points="245.88 327.12 248.28 327.12 248.28 324.48"/><line class="cls-15" x1="248.28" y1="322.8" x2="248.28" y2="320.64"/><line class="cls-15" x1="248.28" y1="318.96" x2="248.28" y2="316.8"/><line class="cls-15" x1="248.28" y1="315.12" x2="248.28" y2="312.96"/><line class="cls-15" x1="248.28" y1="311.28" x2="248.28" y2="309.12"/><line class="cls-15" x1="248.28" y1="307.44" x2="248.28" y2="305.28"/><line class="cls-15" x1="248.28" y1="303.6" x2="248.28" y2="301.68"/><line class="cls-15" x1="248.28" y1="299.76" x2="248.28" y2="297.84"/><line class="cls-15" x1="248.28" y1="295.92" x2="248.28" y2="294"/><line class="cls-15" x1="248.28" y1="292.32" x2="248.28" y2="290.16"/><line class="cls-15" x1="248.28" y1="288.48" x2="248.28" y2="286.32"/><line class="cls-15" x1="248.28" y1="284.64" x2="248.28" y2="282.48"/><line class="cls-15" x1="248.28" y1="280.8" x2="248.28" y2="278.64"/><line class="cls-15" x1="248.28" y1="276.96" x2="248.28" y2="274.8"/><polyline class="cls-15" points="248.28 273.12 248.28 270.72 249.24 269.76"/><line class="cls-15" x1="250.44" y1="268.56" x2="251.88" y2="267.12"/><line class="cls-15" x1="253.08" y1="265.92" x2="254.52" y2="264.48"/><line class="cls-15" x1="255.72" y1="263.28" x2="257.16" y2="261.6"/><line class="cls-15" x1="258.36" y1="260.4" x2="260.04" y2="258.96"/><line class="cls-15" x1="261.24" y1="257.76" x2="262.68" y2="256.32"/><line class="cls-15" x1="263.88" y1="255.12" x2="265.32" y2="253.68"/><line class="cls-15" x1="266.52" y1="252.48" x2="268.2" y2="250.8"/><line class="cls-15" x1="269.4" y1="249.6" x2="270.84" y2="248.16"/><line class="cls-15" x1="272.04" y1="246.96" x2="273.48" y2="245.52"/><line class="cls-15" x1="274.68" y1="244.32" x2="276.12" y2="242.88"/><line class="cls-15" x1="277.32" y1="241.68" x2="279" y2="240"/><line class="cls-15" x1="280.2" y1="238.8" x2="281.64" y2="237.36"/><line class="cls-15" x1="282.84" y1="236.16" x2="284.28" y2="234.72"/><line class="cls-15" x1="285.48" y1="233.52" x2="286.92" y2="231.84"/><line class="cls-15" x1="288.12" y1="230.64" x2="289.8" y2="229.2"/><line class="cls-15" x1="291" y1="228" x2="292.44" y2="226.56"/><line class="cls-15" x1="293.64" y1="225.36" x2="295.08" y2="223.92"/><line class="cls-15" x1="296.28" y1="222.72" x2="297.96" y2="221.04"/><line class="cls-15" x1="299.16" y1="219.84" x2="300.6" y2="218.4"/><polyline class="cls-15" points="301.8 217.2 302.52 216.48 304.2 216.48"/><line class="cls-15" x1="305.88" y1="216.48" x2="307.8" y2="216.48"/><line class="cls-15" x1="309.72" y1="216.48" x2="311.64" y2="216.48"/><line class="cls-15" x1="313.56" y1="216.48" x2="315.48" y2="216.48"/><line class="cls-15" x1="317.16" y1="216.48" x2="319.32" y2="216.48"/><line class="cls-15" x1="321" y1="216.48" x2="323.16" y2="216.48"/><line class="cls-15" x1="324.84" y1="216.48" x2="327" y2="216.48"/><line class="cls-15" x1="328.68" y1="216.48" x2="330.84" y2="216.48"/><line class="cls-15" x1="332.52" y1="216.48" x2="334.68" y2="216.48"/><line class="cls-15" x1="336.36" y1="216.48" x2="338.52" y2="216.48"/><line class="cls-15" x1="340.2" y1="216.48" x2="342.36" y2="216.48"/><line class="cls-15" x1="344.04" y1="216.48" x2="346.2" y2="216.48"/><line class="cls-15" x1="347.88" y1="216.48" x2="350.04" y2="216.48"/><line class="cls-15" x1="351.72" y1="216.48" x2="353.88" y2="216.48"/><line class="cls-15" x1="355.56" y1="216.48" x2="357.72" y2="216.48"/><line class="cls-15" x1="359.4" y1="216.48" x2="361.56" y2="216.48"/><line class="cls-15" x1="363.24" y1="216.48" x2="365.4" y2="216.48"/><polyline class="cls-15" points="367.08 216.48 368.52 216.48 368.52 214.32"/><line class="cls-15" x1="368.52" y1="212.64" x2="368.52" y2="210.48"/><line class="cls-15" x1="368.52" y1="208.8" x2="368.52" y2="206.64"/><line class="cls-15" x1="368.52" y1="204.96" x2="368.52" y2="202.8"/><line class="cls-15" x1="368.52" y1="201.12" x2="368.52" y2="199.2"/><line class="cls-15" x1="368.52" y1="197.28" x2="368.52" y2="195.36"/><line class="cls-15" x1="368.52" y1="193.44" x2="368.52" y2="191.52"/><line class="cls-15" x1="368.52" y1="189.84" x2="368.52" y2="187.68"/><line class="cls-15" x1="368.52" y1="186" x2="368.52" y2="183.84"/><line class="cls-15" x1="368.52" y1="182.16" x2="368.52" y2="180"/><line class="cls-15" x1="368.52" y1="178.32" x2="368.52" y2="176.16"/><line class="cls-15" x1="368.52" y1="174.48" x2="368.52" y2="172.32"/><line class="cls-15" x1="368.52" y1="170.64" x2="368.52" y2="168.48"/><line class="cls-15" x1="368.52" y1="166.8" x2="368.52" y2="164.64"/><line class="cls-15" x1="368.52" y1="162.96" x2="368.52" y2="160.8"/><line class="cls-15" x1="368.52" y1="159.12" x2="368.52" y2="156.96"/><line class="cls-15" x1="368.52" y1="155.28" x2="368.52" y2="153.12"/><line class="cls-15" x1="368.52" y1="151.44" x2="368.52" y2="149.28"/><line class="cls-15" x1="368.52" y1="147.6" x2="368.52" y2="145.44"/><line class="cls-15" x1="368.52" y1="143.76" x2="368.52" y2="141.6"/><line class="cls-15" x1="368.52" y1="139.92" x2="368.52" y2="137.76"/><line class="cls-15" x1="368.52" y1="136.08" x2="368.52" y2="133.92"/><line class="cls-15" x1="368.52" y1="132.24" x2="368.52" y2="130.08"/><line class="cls-15" x1="368.52" y1="128.4" x2="368.52" y2="126.48"/><line class="cls-15" x1="368.52" y1="124.56" x2="368.52" y2="122.64"/><line class="cls-15" x1="368.52" y1="120.96" x2="368.52" y2="118.8"/><line class="cls-15" x1="368.52" y1="117.12" x2="368.52" y2="114.96"/><line class="cls-15" x1="368.52" y1="113.28" x2="368.52" y2="111.12"/><line class="cls-15" x1="368.52" y1="109.44" x2="368.52" y2="107.28"/><line class="cls-15" x1="368.52" y1="105.6" x2="368.52" y2="103.44"/><line class="cls-15" x1="368.52" y1="101.76" x2="368.52" y2="99.6"/><line class="cls-15" x1="368.52" y1="97.92" x2="368.52" y2="95.76"/><line class="cls-15" x1="368.52" y1="94.08" x2="368.52" y2="91.92"/><line class="cls-15" x1="368.52" y1="90.24" x2="368.52" y2="88.08"/><line class="cls-15" x1="368.52" y1="86.4" x2="368.52" y2="84.24"/><line class="cls-15" x1="368.52" y1="82.56" x2="368.52" y2="80.4"/><line class="cls-15" x1="368.52" y1="78.72" x2="368.52" y2="76.56"/><line class="cls-15" x1="368.52" y1="74.88" x2="368.52" y2="72.72"/><line class="cls-15" x1="368.52" y1="71.04" x2="368.52" y2="68.88"/><line class="cls-15" x1="368.52" y1="67.2" x2="368.52" y2="65.04"/><line class="cls-15" x1="368.52" y1="63.36" x2="368.52" y2="61.2"/><line class="cls-15" x1="368.52" y1="59.52" x2="368.52" y2="57.6"/><line class="cls-15" x1="368.52" y1="55.68" x2="368.52" y2="53.76"/><line class="cls-15" x1="368.52" y1="51.84" x2="368.52" y2="49.92"/><line class="cls-15" x1="368.52" y1="48.24" x2="368.52" y2="46.08"/><line class="cls-15" x1="368.52" y1="44.4" x2="368.52" y2="42.24"/><line class="cls-15" x1="368.52" y1="40.56" x2="368.52" y2="38.4"/><line class="cls-15" x1="368.52" y1="36.72" x2="368.52" y2="34.56"/><line class="cls-15" x1="368.52" y1="32.88" x2="368.52" y2="30.72"/><line class="cls-15" x1="368.52" y1="29.04" x2="368.52" y2="26.88"/><line class="cls-15" x1="368.52" y1="25.2" x2="368.52" y2="23.04"/><line class="cls-15" x1="368.52" y1="21.36" x2="368.52" y2="19.2"/><line class="cls-15" x1="368.52" y1="17.52" x2="368.52" y2="15.36"/><line class="cls-15" x1="368.52" y1="13.68" x2="368.52" y2="11.52"/><polyline class="cls-15" points="368.52 9.84 368.52 7.92 366.6 7.92"/><line class="cls-15" x1="364.92" y1="7.92" x2="362.76" y2="7.92"/><line class="cls-15" x1="361.08" y1="7.92" x2="358.92" y2="7.92"/><line class="cls-15" x1="357.24" y1="7.92" x2="355.08" y2="7.92"/><line class="cls-15" x1="353.4" y1="7.92" x2="351.24" y2="7.92"/><line class="cls-15" x1="349.56" y1="7.92" x2="347.4" y2="7.92"/><line class="cls-15" x1="345.72" y1="7.92" x2="343.56" y2="7.92"/><line class="cls-15" x1="341.88" y1="7.92" x2="339.72" y2="7.92"/><line class="cls-15" x1="338.04" y1="7.92" x2="335.88" y2="7.92"/><line class="cls-15" x1="334.2" y1="7.92" x2="332.04" y2="7.92"/><line class="cls-15" x1="330.36" y1="7.92" x2="328.2" y2="7.92"/><line class="cls-15" x1="326.52" y1="7.92" x2="324.36" y2="7.92"/><line class="cls-15" x1="322.68" y1="7.92" x2="320.52" y2="7.92"/><line class="cls-15" x1="318.84" y1="7.92" x2="316.68" y2="7.92"/><line class="cls-15" x1="315" y1="7.92" x2="312.84" y2="7.92"/><line class="cls-15" x1="311.16" y1="7.92" x2="309" y2="7.92"/><line class="cls-15" x1="307.32" y1="7.92" x2="305.4" y2="7.92"/><line class="cls-15" x1="303.48" y1="7.92" x2="301.56" y2="7.92"/><line class="cls-15" x1="299.88" y1="7.92" x2="297.72" y2="7.92"/><line class="cls-15" x1="296.04" y1="7.92" x2="293.88" y2="7.92"/><line class="cls-15" x1="292.2" y1="7.92" x2="290.04" y2="7.92"/><line class="cls-15" x1="288.36" y1="7.92" x2="286.2" y2="7.92"/><line class="cls-15" x1="284.52" y1="7.92" x2="282.36" y2="7.92"/><line class="cls-15" x1="280.68" y1="7.92" x2="278.52" y2="7.92"/><line class="cls-15" x1="276.84" y1="7.92" x2="274.68" y2="7.92"/><line class="cls-15" x1="273" y1="7.92" x2="270.84" y2="7.92"/><line class="cls-15" x1="269.16" y1="7.92" x2="267" y2="7.92"/><line class="cls-15" x1="265.32" y1="7.92" x2="263.16" y2="7.92"/><line class="cls-15" x1="261.48" y1="7.92" x2="259.32" y2="7.92"/><line class="cls-15" x1="257.64" y1="7.92" x2="255.48" y2="7.92"/><line class="cls-15" x1="253.8" y1="7.92" x2="251.64" y2="7.92"/><line class="cls-15" x1="249.96" y1="7.92" x2="247.8" y2="7.92"/><line class="cls-15" x1="246.12" y1="7.92" x2="243.96" y2="7.92"/><line class="cls-15" x1="242.28" y1="7.92" x2="240.12" y2="7.92"/><line class="cls-15" x1="238.44" y1="7.92" x2="236.52" y2="7.92"/><line class="cls-15" x1="234.6" y1="7.92" x2="232.68" y2="7.92"/><line class="cls-15" x1="230.76" y1="7.92" x2="228.84" y2="7.92"/><line class="cls-15" x1="227.16" y1="7.92" x2="225" y2="7.92"/><line class="cls-15" x1="223.32" y1="7.92" x2="221.16" y2="7.92"/><line class="cls-15" x1="219.48" y1="7.92" x2="217.32" y2="7.92"/><line class="cls-15" x1="215.64" y1="7.92" x2="213.48" y2="7.92"/><line class="cls-15" x1="211.8" y1="7.92" x2="209.64" y2="7.92"/><line class="cls-15" x1="207.96" y1="7.92" x2="205.8" y2="7.92"/><line class="cls-15" x1="204.12" y1="7.92" x2="201.96" y2="7.92"/><line class="cls-15" x1="200.28" y1="7.92" x2="198.12" y2="7.92"/><line class="cls-15" x1="196.44" y1="7.92" x2="194.28" y2="7.92"/><line class="cls-15" x1="192.6" y1="7.92" x2="190.44" y2="7.92"/><line class="cls-15" x1="188.76" y1="7.92" x2="186.6" y2="7.92"/><line class="cls-15" x1="184.92" y1="7.92" x2="182.76" y2="7.92"/><line class="cls-15" x1="181.08" y1="7.92" x2="178.92" y2="7.92"/><line class="cls-15" x1="177.24" y1="7.92" x2="175.08" y2="7.92"/><line class="cls-15" x1="173.4" y1="7.92" x2="171.24" y2="7.92"/><line class="cls-15" x1="169.56" y1="7.92" x2="167.4" y2="7.92"/><line class="cls-15" x1="165.72" y1="7.92" x2="163.8" y2="7.92"/><line class="cls-15" x1="161.88" y1="7.92" x2="159.96" y2="7.92"/><line class="cls-15" x1="158.04" y1="7.92" x2="156.12" y2="7.92"/><line class="cls-15" x1="154.44" y1="7.92" x2="152.28" y2="7.92"/><line class="cls-15" x1="150.6" y1="7.92" x2="148.44" y2="7.92"/><line class="cls-15" x1="146.76" y1="7.92" x2="144.6" y2="7.92"/><line class="cls-15" x1="142.92" y1="7.92" x2="140.76" y2="7.92"/><line class="cls-15" x1="139.08" y1="7.92" x2="136.92" y2="7.92"/><line class="cls-15" x1="135.24" y1="7.92" x2="133.08" y2="7.92"/><line class="cls-15" x1="131.4" y1="7.92" x2="129.24" y2="7.92"/><line class="cls-15" x1="127.56" y1="7.92" x2="125.4" y2="7.92"/><line class="cls-15" x1="123.72" y1="7.92" x2="121.56" y2="7.92"/><line class="cls-15" x1="119.88" y1="7.92" x2="117.72" y2="7.92"/><line class="cls-15" x1="116.04" y1="7.92" x2="113.88" y2="7.92"/><line class="cls-15" x1="112.2" y1="7.92" x2="110.04" y2="7.92"/><line class="cls-15" x1="108.36" y1="7.92" x2="106.2" y2="7.92"/><line class="cls-15" x1="104.52" y1="7.92" x2="102.36" y2="7.92"/><line class="cls-15" x1="100.68" y1="7.92" x2="98.52" y2="7.92"/><line class="cls-15" x1="96.84" y1="7.92" x2="94.92" y2="7.92"/><line class="cls-15" x1="93" y1="7.92" x2="91.08" y2="7.92"/><line class="cls-15" x1="89.16" y1="7.92" x2="87.24" y2="7.92"/><line class="cls-15" x1="85.56" y1="7.92" x2="83.4" y2="7.92"/><line class="cls-15" x1="81.72" y1="7.92" x2="79.56" y2="7.92"/><line class="cls-15" x1="77.88" y1="7.92" x2="75.72" y2="7.92"/><line class="cls-15" x1="74.04" y1="7.92" x2="71.88" y2="7.92"/><line class="cls-15" x1="70.2" y1="7.92" x2="68.04" y2="7.92"/><line class="cls-15" x1="66.36" y1="7.92" x2="64.2" y2="7.92"/><line class="cls-15" x1="62.52" y1="7.92" x2="60.36" y2="7.92"/><line class="cls-15" x1="58.68" y1="7.92" x2="56.52" y2="7.92"/><line class="cls-15" x1="54.84" y1="7.92" x2="52.68" y2="7.92"/><line class="cls-15" x1="51" y1="7.92" x2="48.84" y2="7.92"/><line class="cls-15" x1="47.16" y1="7.92" x2="45" y2="7.92"/><line class="cls-15" x1="43.32" y1="7.92" x2="41.16" y2="7.92"/><line class="cls-15" x1="39.48" y1="7.92" x2="37.32" y2="7.92"/><line class="cls-15" x1="35.64" y1="7.92" x2="33.48" y2="7.92"/><line class="cls-15" x1="31.8" y1="7.92" x2="29.64" y2="7.92"/><line class="cls-15" x1="27.96" y1="7.92" x2="25.8" y2="7.92"/><line class="cls-15" x1="24.12" y1="7.92" x2="22.2" y2="7.92"/><line class="cls-15" x1="20.28" y1="7.92" x2="18.36" y2="7.92"/><line class="cls-15" x1="16.44" y1="7.92" x2="14.52" y2="7.92"/><line class="cls-15" x1="12.84" y1="7.92" x2="10.68" y2="7.92"/><line class="cls-15" x1="9" y1="7.92" x2="6.84" y2="7.92"/><polyline class="cls-15" points="195.48 330.48 196.2 322.8 198.84 315.6 202.68 309.12 208.2 303.84 214.68 299.76 221.88 297.36 229.32 296.4"/><polyline class="cls-15" points="226.44 330.48 226.44 296.4 229.32 296.4 229.32 330.48 226.44 330.48"/><polyline class="cls-15" points="195.48 330.48 194.52 320.4 191.88 310.8 187.8 301.92 182.04 293.76 175.08 286.8 166.92 281.04 157.8 276.96 148.2 274.32 138.36 273.36"/><polyline class="cls-15" points="141.24 330.48 141.24 273.36 138.36 273.36 138.36 330.48 141.24 330.48"/><polyline class="cls-15" points="229.32 327.12 138.36 327.12 138.36 333.84 229.32 333.84 229.32 327.12 138.36 327.12 138.36 333.84 229.32 333.84 229.32 327.12"/><line class="cls-17" x1="8.76" y1="117.84" x2="20.04" y2="117.84"/><line class="cls-17" x1="31.32" y1="117.84" x2="42.84" y2="117.84"/><line class="cls-17" x1="54.12" y1="117.84" x2="65.4" y2="117.84"/><line class="cls-17" x1="76.68" y1="117.84" x2="88.2" y2="117.84"/><line class="cls-17" x1="99.48" y1="117.84" x2="110.76" y2="117.84"/><line class="cls-17" x1="122.04" y1="117.84" x2="133.56" y2="117.84"/><line class="cls-17" x1="144.84" y1="117.84" x2="156.12" y2="117.84"/><line class="cls-17" x1="167.4" y1="117.84" x2="178.68" y2="117.84"/><line class="cls-17" x1="190.2" y1="117.84" x2="201.48" y2="117.84"/><line class="cls-17" x1="212.76" y1="117.84" x2="224.04" y2="117.84"/><line class="cls-17" x1="235.56" y1="117.84" x2="246.84" y2="117.84"/><line class="cls-17" x1="258.12" y1="117.84" x2="269.4" y2="117.84"/><line class="cls-17" x1="280.92" y1="117.84" x2="292.2" y2="117.84"/><line class="cls-17" x1="303.48" y1="117.84" x2="314.76" y2="117.84"/><line class="cls-17" x1="326.28" y1="117.84" x2="337.56" y2="117.84"/><line class="cls-17" x1="348.84" y1="117.84" x2="360.12" y2="117.84"/><line class="cls-17" x1="371.64" y1="117.84" x2="382.92" y2="117.84"/><line class="cls-18" x1="397.8" y1="4.32" x2="397.8" y2="117.84"/><line class="cls-17" x1="397.8" y1="117.84" x2="393.48" y2="113.52"/><line class="cls-17" x1="397.8" y1="117.84" x2="401.88" y2="122.16"/><line class="cls-18" x1="397.8" y1="117.84" x2="404.76" y2="117.84"/><line class="cls-18" x1="397.8" y1="117.84" x2="383.64" y2="117.84"/><line class="cls-17" x1="397.8" y1="4.32" x2="393.48" y2="0.24"/><line class="cls-17" x1="397.8" y1="4.32" x2="401.88" y2="8.64"/><line class="cls-18" x1="397.8" y1="4.32" x2="404.76" y2="4.32"/><line class="cls-18" x1="397.8" y1="4.32" x2="383.64" y2="4.32"/><rect class="cls-19" x="384.12" y="8.16" width="9.6" height="106.08"/><text class="cls-20" transform="translate(391.8 114) rotate(-90)"><tspan class="cls-21">Graph</tspan><tspan class="cls-22" x="18" y="0">i</tspan><tspan class="cls-23" x="19.44" y="0">c</tspan><tspan class="cls-24" x="22.79" y="0">_</tspan><tspan class="cls-25" x="26.16" y="0">D</tspan><tspan class="cls-21" x="30.96" y="0">oub</tspan><tspan class="cls-26" x="41.76" y="0">l</tspan><tspan class="cls-21" x="43.2" y="0">eB</tspan><tspan class="cls-24" x="51.13" y="0">e</tspan><tspan class="cls-21" x="54.5" y="0">d_O</tspan><tspan class="cls-27" x="66.77" y="0">ff</tspan><tspan class="cls-23" x="70.6" y="0">s</tspan><tspan class="cls-24" x="73.96" y="0">e</tspan><tspan class="cls-27" x="77.32" y="0">t</tspan><tspan class="cls-21" x="79.24" y="0">_BV</tspan><tspan class="cls-25" x="91.5" y="0">ND</tspan><tspan x="101.1" y="0">H</tspan></text></g></g></svg>