<svg xmlns="http://www.w3.org/2000/svg" xmlns:xlink="http://www.w3.org/1999/xlink" viewBox="0 0 520.68 419.16"><defs><style>.cls-1,.cls-15,.cls-16,.cls-17,.cls-18,.cls-2{fill:none;}.cls-1{clip-rule:evenodd;}.cls-3{clip-path:url(#clip-path);}.cls-4{clip-path:url(#clip-path-2);}.cls-5{fill:#c6d3b4;}.cls-12,.cls-6{font-size:4.08px;font-family:ArialMT, Arial;}.cls-7{letter-spacing:-0.03em;}.cls-8{letter-spacing:0.02em;}.cls-9{letter-spacing:-0.09em;}.cls-10,.cls-12{letter-spacing:-0.03em;}.cls-11{letter-spacing:0.02em;}.cls-13{letter-spacing:-0.04em;}.cls-14{letter-spacing:0em;}.cls-15,.cls-16{stroke:#000;}.cls-15,.cls-16,.cls-17,.cls-18{stroke-linecap:round;stroke-linejoin:round;}.cls-15,.cls-18{stroke-width:0.24px;}.cls-16,.cls-17{stroke-width:0.48px;}.cls-17,.cls-18{stroke:red;}.cls-19{fill:#fff;}.cls-20,.cls-25{font-size:8.05px;}.cls-20,.cls-25,.cls-34{fill:red;font-family:ArialNarrow, Arial;}.cls-21{letter-spacing:-0.01em;}.cls-22{letter-spacing:-0.03em;}.cls-23{letter-spacing:0em;}.cls-24{letter-spacing:-0.02em;}.cls-25,.cls-29{letter-spacing:-0.01em;}.cls-26{letter-spacing:0em;}.cls-27{letter-spacing:0.01em;}.cls-28{letter-spacing:0em;}.cls-30{letter-spacing:0em;}.cls-31{letter-spacing:-0.02em;}.cls-32{letter-spacing:0em;}.cls-33{letter-spacing:0.01em;}.cls-34{font-size:8.04px;letter-spacing:-0.02em;}.cls-35{letter-spacing:0.02em;}.cls-36{letter-spacing:0em;}.cls-37{letter-spacing:0.01em;}.cls-38{letter-spacing:0em;}</style><clipPath id="clip-path" transform="translate(-160.55 -107.28)"><path class="cls-1" d="M452.87,219.36l-.72.24-1,1-.24.72-.24,51.12.24.24v.72h.24v.72h.24l.24.24v.48h.24l.24.24.72.24,121,.24v-.24l.72-.24.48-.24.24-.24.24-.72.24-.24L576,221l-.24-.24h-.24v-.48l-.48-.48-.48-.24-.72-.24m-345.84,0-.72.24-.24.24-.48.24-.48,1-.24.24v52.08h.24l.24.24v.48h.24v.72H227l.24.24.72.24,121,.24v-.24l.72-.24.72-.72.24-.48.24-.72.24-51.6h-.24v-.72l-1.2-1.2-.72-.24Zm-7.92-56.16V414h60.24v-1h11V411.6h-.24v-1.44h-.24v-1.44h-.24v-1.44h-.24v-5.76l-.24-.24a10.64,10.64,0,0,1,2.16-6.24l.48-1,1.68-1.68.24-.48.48-.24.24-.24.48-.24.24-.24.48-.24.48-.48.72-.24,1.92-1,2.88-.72h6.24l2.88.72a15.58,15.58,0,0,1,7,4.8v.48H319l.24.24V395h.24v.48h.24l.24.24v.48h.24v.48h.24v.48h.24v.72h.24v.72h.24v.72h.24l-.24,7.68-1,5.76,11,.24v1h19.92v65.28h110.4v-139H581.75V163.2Z"/></clipPath><clipPath id="clip-path-2" transform="translate(-160.55 -107.28)"><rect class="cls-2" width="841.92" height="595.2"/></clipPath></defs><title>PushIt - Floor Plan - SP-Room-Bed-CutOut_Ens_Square</title><g id="Layer_2" data-name="Layer 2"><g id="Layer_1-2" data-name="Layer 1"><g class="cls-3"><g class="cls-4"><rect class="cls-5" x="59.52" y="55.92" width="361.68" height="316.08"/></g></g><text class="cls-6" transform="translate(175.68 175.68)">?</text><text class="cls-6" transform="translate(166.32 188.4)"><tspan class="cls-7">6500</tspan><tspan class="cls-8" x="8.64" y="0"> </tspan><tspan class="cls-9" x="9.84" y="0">x</tspan><tspan class="cls-8" x="11.52" y="0"> </tspan><tspan class="cls-7" x="12.72" y="0">570</tspan><tspan x="19.2" y="0">0</tspan></text><text class="cls-6" transform="translate(173.76 180)"><tspan class="cls-10">5</tspan><tspan class="cls-11" x="2.16" y="0">.</tspan><tspan class="cls-10" x="3.36" y="0">0</tspan><tspan x="5.52" y="0">0</tspan></text><text class="cls-12" transform="translate(165.12 184.08)">29<tspan class="cls-8" x="4.32" y="0">.</tspan><tspan x="5.52" y="0">20</tspan><tspan class="cls-8" x="9.84" y="0"> </tspan><tspan class="cls-13" x="11.04" y="0">(</tspan><tspan class="cls-7" x="12.24" y="0">27</tspan><tspan class="cls-8" x="16.55" y="0">.</tspan><tspan class="cls-7" x="17.75" y="0">75</tspan><tspan class="cls-14" x="22.07" y="0">)</tspan></text><text class="cls-6" transform="translate(175.68 171.36)">?</text><polyline class="cls-15" points="300.96 372 190.56 372 190.56 306.72 59.52 306.72 59.52 55.92 421.2 55.92 421.2 233.04 300.96 233.04 300.96 372"/><polyline class="cls-15" points="427.92 48.96 52.8 48.96 52.8 313.68 183.6 313.68 183.6 378.72 307.68 378.72 307.68 240 427.92 240 427.92 48.96"/><line class="cls-15" x1="59.52" y1="55.92" x2="59.52" y2="58.08"/><line class="cls-15" x1="59.52" y1="59.76" x2="59.52" y2="61.92"/><line class="cls-15" x1="59.52" y1="63.6" x2="59.52" y2="65.76"/><line class="cls-15" x1="59.52" y1="67.44" x2="59.52" y2="69.6"/><line class="cls-15" x1="59.52" y1="71.28" x2="59.52" y2="73.44"/><line class="cls-15" x1="59.52" y1="75.12" x2="59.52" y2="77.28"/><line class="cls-15" x1="59.52" y1="78.96" x2="59.52" y2="81.12"/><line class="cls-15" x1="59.52" y1="82.8" x2="59.52" y2="84.96"/><line class="cls-15" x1="59.52" y1="86.64" x2="59.52" y2="88.56"/><line class="cls-15" x1="59.52" y1="90.48" x2="59.52" y2="92.4"/><line class="cls-15" x1="59.52" y1="94.08" x2="59.52" y2="96.24"/><line class="cls-15" x1="59.52" y1="97.92" x2="59.52" y2="100.08"/><line class="cls-15" x1="59.52" y1="101.76" x2="59.52" y2="103.92"/><line class="cls-15" x1="59.52" y1="105.6" x2="59.52" y2="107.76"/><line class="cls-15" x1="59.52" y1="109.44" x2="59.52" y2="111.6"/><line class="cls-15" x1="59.52" y1="113.28" x2="59.52" y2="115.44"/><line class="cls-15" x1="59.52" y1="117.12" x2="59.52" y2="119.28"/><line class="cls-15" x1="59.52" y1="120.96" x2="59.52" y2="123.12"/><line class="cls-15" x1="59.52" y1="124.8" x2="59.52" y2="126.96"/><line class="cls-15" x1="59.52" y1="128.64" x2="59.52" y2="130.8"/><line class="cls-15" x1="59.52" y1="132.48" x2="59.52" y2="134.64"/><line class="cls-15" x1="59.52" y1="136.32" x2="59.52" y2="138.48"/><line class="cls-15" x1="59.52" y1="140.16" x2="59.52" y2="142.32"/><line class="cls-15" x1="59.52" y1="144" x2="59.52" y2="145.92"/><line class="cls-15" x1="59.52" y1="147.84" x2="59.52" y2="149.76"/><line class="cls-15" x1="59.52" y1="151.68" x2="59.52" y2="153.6"/><line class="cls-15" x1="59.52" y1="155.28" x2="59.52" y2="157.44"/><line class="cls-15" x1="59.52" y1="159.12" x2="59.52" y2="161.28"/><line class="cls-15" x1="59.52" y1="162.96" x2="59.52" y2="165.12"/><line class="cls-15" x1="59.52" y1="166.8" x2="59.52" y2="168.96"/><line class="cls-15" x1="59.52" y1="170.64" x2="59.52" y2="172.8"/><line class="cls-15" x1="59.52" y1="174.48" x2="59.52" y2="176.64"/><line class="cls-15" x1="59.52" y1="178.32" x2="59.52" y2="180.48"/><line class="cls-15" x1="59.52" y1="182.16" x2="59.52" y2="184.32"/><line class="cls-15" x1="59.52" y1="186" x2="59.52" y2="188.16"/><line class="cls-15" x1="59.52" y1="189.84" x2="59.52" y2="192"/><line class="cls-15" x1="59.52" y1="193.68" x2="59.52" y2="195.84"/><line class="cls-15" x1="59.52" y1="197.52" x2="59.52" y2="199.68"/><line class="cls-15" x1="59.52" y1="201.36" x2="59.52" y2="203.52"/><line class="cls-15" x1="59.52" y1="205.2" x2="59.52" y2="207.12"/><line class="cls-15" x1="59.52" y1="209.04" x2="59.52" y2="210.96"/><line class="cls-15" x1="59.52" y1="212.88" x2="59.52" y2="214.8"/><line class="cls-15" x1="59.52" y1="216.48" x2="59.52" y2="218.64"/><line class="cls-15" x1="59.52" y1="220.32" x2="59.52" y2="222.48"/><line class="cls-15" x1="59.52" y1="224.16" x2="59.52" y2="226.32"/><line class="cls-15" x1="59.52" y1="228" x2="59.52" y2="230.16"/><line class="cls-15" x1="59.52" y1="231.84" x2="59.52" y2="234"/><line class="cls-15" x1="59.52" y1="235.68" x2="59.52" y2="237.84"/><line class="cls-15" x1="59.52" y1="239.52" x2="59.52" y2="241.68"/><line class="cls-15" x1="59.52" y1="243.36" x2="59.52" y2="245.52"/><line class="cls-15" x1="59.52" y1="247.2" x2="59.52" y2="249.36"/><line class="cls-15" x1="59.52" y1="251.04" x2="59.52" y2="253.2"/><line class="cls-15" x1="59.52" y1="254.88" x2="59.52" y2="257.04"/><line class="cls-15" x1="59.52" y1="258.72" x2="59.52" y2="260.88"/><line class="cls-15" x1="59.52" y1="262.56" x2="59.52" y2="264.72"/><line class="cls-15" x1="59.52" y1="266.4" x2="59.52" y2="268.32"/><line class="cls-15" x1="59.52" y1="270.24" x2="59.52" y2="272.16"/><line class="cls-15" x1="59.52" y1="273.84" x2="59.52" y2="276"/><line class="cls-15" x1="59.52" y1="277.68" x2="59.52" y2="279.84"/><line class="cls-15" x1="59.52" y1="281.52" x2="59.52" y2="283.68"/><line class="cls-15" x1="59.52" y1="285.36" x2="59.52" y2="287.52"/><line class="cls-15" x1="59.52" y1="289.2" x2="59.52" y2="291.36"/><line class="cls-15" x1="59.52" y1="293.04" x2="59.52" y2="295.2"/><line class="cls-15" x1="59.52" y1="296.88" x2="59.52" y2="299.04"/><line class="cls-15" x1="59.52" y1="300.72" x2="59.52" y2="302.88"/><line class="cls-15" x1="59.52" y1="304.56" x2="59.52" y2="306.72"/><line class="cls-15" x1="59.52" y1="313.68" x2="61.44" y2="313.68"/><line class="cls-15" x1="63.12" y1="313.68" x2="65.28" y2="313.68"/><line class="cls-15" x1="66.96" y1="313.68" x2="69.12" y2="313.68"/><line class="cls-15" x1="70.8" y1="313.68" x2="72.96" y2="313.68"/><line class="cls-15" x1="74.64" y1="313.68" x2="76.8" y2="313.68"/><line class="cls-15" x1="78.48" y1="313.68" x2="80.64" y2="313.68"/><line class="cls-15" x1="82.32" y1="313.68" x2="84.48" y2="313.68"/><line class="cls-15" x1="86.16" y1="313.68" x2="88.32" y2="313.68"/><line class="cls-15" x1="90" y1="313.68" x2="92.16" y2="313.68"/><line class="cls-15" x1="93.84" y1="313.68" x2="96" y2="313.68"/><line class="cls-15" x1="97.68" y1="313.68" x2="99.84" y2="313.68"/><line class="cls-15" x1="101.52" y1="313.68" x2="103.68" y2="313.68"/><line class="cls-15" x1="105.36" y1="313.68" x2="107.52" y2="313.68"/><line class="cls-15" x1="109.2" y1="313.68" x2="111.36" y2="313.68"/><line class="cls-15" x1="113.04" y1="313.68" x2="114.96" y2="313.68"/><line class="cls-15" x1="116.88" y1="313.68" x2="118.8" y2="313.68"/><line class="cls-15" x1="120.48" y1="313.68" x2="122.64" y2="313.68"/><line class="cls-15" x1="124.32" y1="313.68" x2="126.48" y2="313.68"/><line class="cls-15" x1="128.16" y1="313.68" x2="130.32" y2="313.68"/><line class="cls-15" x1="132" y1="313.68" x2="134.16" y2="313.68"/><line class="cls-15" x1="135.84" y1="313.68" x2="138" y2="313.68"/><line class="cls-15" x1="139.68" y1="313.68" x2="141.84" y2="313.68"/><line class="cls-15" x1="143.52" y1="313.68" x2="145.68" y2="313.68"/><line class="cls-15" x1="147.36" y1="313.68" x2="149.52" y2="313.68"/><line class="cls-15" x1="151.2" y1="313.68" x2="153.36" y2="313.68"/><line class="cls-15" x1="155.04" y1="313.68" x2="157.2" y2="313.68"/><line class="cls-15" x1="158.88" y1="313.68" x2="161.04" y2="313.68"/><line class="cls-15" x1="162.72" y1="313.68" x2="164.88" y2="313.68"/><line class="cls-15" x1="166.56" y1="313.68" x2="168.72" y2="313.68"/><line class="cls-15" x1="170.4" y1="313.68" x2="172.56" y2="313.68"/><line class="cls-15" x1="174.24" y1="313.68" x2="176.16" y2="313.68"/><line class="cls-15" x1="178.08" y1="313.68" x2="180" y2="313.68"/><line class="cls-15" x1="181.68" y1="313.68" x2="183.6" y2="313.68"/><line class="cls-15" x1="190.56" y1="313.68" x2="190.56" y2="315.12"/><line class="cls-15" x1="190.56" y1="316.8" x2="190.56" y2="318.96"/><line class="cls-15" x1="190.56" y1="320.64" x2="190.56" y2="322.8"/><line class="cls-15" x1="190.56" y1="324.48" x2="190.56" y2="326.64"/><line class="cls-15" x1="190.56" y1="328.32" x2="190.56" y2="330.48"/><line class="cls-15" x1="190.56" y1="332.16" x2="190.56" y2="334.32"/><line class="cls-15" x1="190.56" y1="336" x2="190.56" y2="338.16"/><line class="cls-15" x1="190.56" y1="339.84" x2="190.56" y2="342"/><line class="cls-15" x1="190.56" y1="343.68" x2="190.56" y2="345.84"/><line class="cls-15" x1="190.56" y1="347.52" x2="190.56" y2="349.68"/><line class="cls-15" x1="190.56" y1="351.36" x2="190.56" y2="353.52"/><line class="cls-15" x1="190.56" y1="355.2" x2="190.56" y2="357.36"/><line class="cls-15" x1="190.56" y1="359.04" x2="190.56" y2="360.96"/><line class="cls-15" x1="190.56" y1="362.88" x2="190.56" y2="364.8"/><line class="cls-15" x1="190.56" y1="366.48" x2="190.56" y2="368.64"/><polyline class="cls-15" points="190.56 370.32 190.56 372 193.2 372"/><line class="cls-15" x1="194.88" y1="372" x2="197.04" y2="372"/><line class="cls-15" x1="198.72" y1="372" x2="200.88" y2="372"/><line class="cls-15" x1="202.56" y1="372" x2="204.72" y2="372"/><line class="cls-15" x1="206.4" y1="372" x2="208.56" y2="372"/><line class="cls-15" x1="210.24" y1="372" x2="212.4" y2="372"/><line class="cls-15" x1="214.08" y1="372" x2="216.24" y2="372"/><line class="cls-15" x1="217.92" y1="372" x2="220.08" y2="372"/><line class="cls-15" x1="221.76" y1="372" x2="223.92" y2="372"/><line class="cls-15" x1="225.6" y1="372" x2="227.76" y2="372"/><line class="cls-15" x1="229.44" y1="372" x2="231.6" y2="372"/><line class="cls-15" x1="233.28" y1="372" x2="235.44" y2="372"/><line class="cls-15" x1="237.12" y1="372" x2="239.28" y2="372"/><line class="cls-15" x1="240.96" y1="372" x2="242.88" y2="372"/><line class="cls-15" x1="244.8" y1="372" x2="246.72" y2="372"/><line class="cls-15" x1="248.4" y1="372" x2="250.56" y2="372"/><line class="cls-15" x1="252.24" y1="372" x2="254.4" y2="372"/><line class="cls-15" x1="256.08" y1="372" x2="258.24" y2="372"/><line class="cls-15" x1="259.92" y1="372" x2="262.08" y2="372"/><line class="cls-15" x1="263.76" y1="372" x2="265.92" y2="372"/><line class="cls-15" x1="267.6" y1="372" x2="269.76" y2="372"/><line class="cls-15" x1="271.44" y1="372" x2="273.6" y2="372"/><line class="cls-15" x1="275.28" y1="372" x2="277.44" y2="372"/><line class="cls-15" x1="279.12" y1="372" x2="281.28" y2="372"/><line class="cls-15" x1="282.96" y1="372" x2="285.12" y2="372"/><line class="cls-15" x1="286.8" y1="372" x2="288.96" y2="372"/><line class="cls-15" x1="290.64" y1="372" x2="292.8" y2="372"/><line class="cls-15" x1="294.48" y1="372" x2="296.64" y2="372"/><polyline class="cls-15" points="298.32 372 300.96 372 300.96 370.32"/><line class="cls-15" x1="300.96" y1="368.64" x2="300.96" y2="366.48"/><line class="cls-15" x1="300.96" y1="364.8" x2="300.96" y2="362.64"/><line class="cls-15" x1="300.96" y1="360.96" x2="300.96" y2="358.8"/><line class="cls-15" x1="300.96" y1="357.12" x2="300.96" y2="354.96"/><line class="cls-15" x1="300.96" y1="353.28" x2="300.96" y2="351.12"/><line class="cls-15" x1="300.96" y1="349.44" x2="300.96" y2="347.52"/><line class="cls-15" x1="300.96" y1="345.6" x2="300.96" y2="343.68"/><line class="cls-15" x1="300.96" y1="342" x2="300.96" y2="339.84"/><line class="cls-15" x1="300.96" y1="338.16" x2="300.96" y2="336"/><line class="cls-15" x1="300.96" y1="334.32" x2="300.96" y2="332.16"/><line class="cls-15" x1="300.96" y1="330.48" x2="300.96" y2="328.32"/><line class="cls-15" x1="300.96" y1="326.64" x2="300.96" y2="324.48"/><line class="cls-15" x1="300.96" y1="322.8" x2="300.96" y2="320.64"/><line class="cls-15" x1="300.96" y1="318.96" x2="300.96" y2="316.8"/><line class="cls-15" x1="300.96" y1="315.12" x2="300.96" y2="312.96"/><line class="cls-15" x1="300.96" y1="311.28" x2="300.96" y2="309.12"/><line class="cls-15" x1="300.96" y1="307.44" x2="300.96" y2="305.28"/><line class="cls-15" x1="300.96" y1="303.6" x2="300.96" y2="301.44"/><line class="cls-15" x1="300.96" y1="299.76" x2="300.96" y2="297.6"/><line class="cls-15" x1="300.96" y1="295.92" x2="300.96" y2="293.76"/><line class="cls-15" x1="300.96" y1="292.08" x2="300.96" y2="289.92"/><line class="cls-15" x1="300.96" y1="288.24" x2="300.96" y2="286.32"/><line class="cls-15" x1="300.96" y1="284.4" x2="300.96" y2="282.48"/><line class="cls-15" x1="300.96" y1="280.8" x2="300.96" y2="278.64"/><line class="cls-15" x1="300.96" y1="276.96" x2="300.96" y2="274.8"/><line class="cls-15" x1="300.96" y1="273.12" x2="300.96" y2="270.96"/><line class="cls-15" x1="300.96" y1="269.28" x2="300.96" y2="267.12"/><line class="cls-15" x1="300.96" y1="265.44" x2="300.96" y2="263.28"/><line class="cls-15" x1="300.96" y1="261.6" x2="300.96" y2="259.44"/><line class="cls-15" x1="300.96" y1="257.76" x2="300.96" y2="255.6"/><line class="cls-15" x1="300.96" y1="253.92" x2="300.96" y2="251.76"/><line class="cls-15" x1="300.96" y1="250.08" x2="300.96" y2="247.92"/><line class="cls-15" x1="300.96" y1="246.24" x2="300.96" y2="244.08"/><line class="cls-15" x1="300.96" y1="242.4" x2="300.96" y2="240.24"/><line class="cls-15" x1="300.96" y1="238.56" x2="300.96" y2="236.4"/><polyline class="cls-15" points="300.96 234.72 300.96 233.04 302.88 233.04"/><line class="cls-15" x1="304.56" y1="233.04" x2="306.72" y2="233.04"/><line class="cls-15" x1="308.4" y1="233.04" x2="310.56" y2="233.04"/><line class="cls-15" x1="312.24" y1="233.04" x2="314.4" y2="233.04"/><line class="cls-15" x1="316.08" y1="233.04" x2="318.24" y2="233.04"/><line class="cls-15" x1="319.92" y1="233.04" x2="322.08" y2="233.04"/><line class="cls-15" x1="323.76" y1="233.04" x2="325.68" y2="233.04"/><line class="cls-15" x1="327.6" y1="233.04" x2="329.52" y2="233.04"/><line class="cls-15" x1="331.2" y1="233.04" x2="333.36" y2="233.04"/><line class="cls-15" x1="335.04" y1="233.04" x2="337.2" y2="233.04"/><line class="cls-15" x1="338.88" y1="233.04" x2="341.04" y2="233.04"/><line class="cls-15" x1="342.72" y1="233.04" x2="344.88" y2="233.04"/><line class="cls-15" x1="346.56" y1="233.04" x2="348.72" y2="233.04"/><line class="cls-15" x1="350.4" y1="233.04" x2="352.56" y2="233.04"/><line class="cls-15" x1="354.24" y1="233.04" x2="356.4" y2="233.04"/><line class="cls-15" x1="358.08" y1="233.04" x2="360.24" y2="233.04"/><line class="cls-15" x1="361.92" y1="233.04" x2="364.08" y2="233.04"/><line class="cls-15" x1="365.76" y1="233.04" x2="367.92" y2="233.04"/><line class="cls-15" x1="369.6" y1="233.04" x2="371.76" y2="233.04"/><line class="cls-15" x1="373.44" y1="233.04" x2="375.6" y2="233.04"/><line class="cls-15" x1="377.28" y1="233.04" x2="379.44" y2="233.04"/><line class="cls-15" x1="381.12" y1="233.04" x2="383.04" y2="233.04"/><line class="cls-15" x1="384.96" y1="233.04" x2="386.88" y2="233.04"/><line class="cls-15" x1="388.8" y1="233.04" x2="390.72" y2="233.04"/><line class="cls-15" x1="392.4" y1="233.04" x2="394.56" y2="233.04"/><line class="cls-15" x1="396.24" y1="233.04" x2="398.4" y2="233.04"/><line class="cls-15" x1="400.08" y1="233.04" x2="402.24" y2="233.04"/><line class="cls-15" x1="403.92" y1="233.04" x2="406.08" y2="233.04"/><line class="cls-15" x1="407.76" y1="233.04" x2="409.92" y2="233.04"/><line class="cls-15" x1="411.6" y1="233.04" x2="413.76" y2="233.04"/><line class="cls-15" x1="415.44" y1="233.04" x2="417.6" y2="233.04"/><polyline class="cls-15" points="419.28 233.04 421.2 233.04 421.2 231.36"/><line class="cls-15" x1="421.2" y1="229.68" x2="421.2" y2="227.52"/><line class="cls-15" x1="421.2" y1="225.84" x2="421.2" y2="223.68"/><line class="cls-15" x1="421.2" y1="222" x2="421.2" y2="219.84"/><line class="cls-15" x1="421.2" y1="218.16" x2="421.2" y2="216"/><line class="cls-15" x1="421.2" y1="214.32" x2="421.2" y2="212.16"/><line class="cls-15" x1="421.2" y1="210.48" x2="421.2" y2="208.32"/><line class="cls-15" x1="421.2" y1="206.64" x2="421.2" y2="204.72"/><line class="cls-15" x1="421.2" y1="202.8" x2="421.2" y2="200.88"/><line class="cls-15" x1="421.2" y1="199.2" x2="421.2" y2="197.04"/><line class="cls-15" x1="421.2" y1="195.36" x2="421.2" y2="193.2"/><line class="cls-15" x1="421.2" y1="191.52" x2="421.2" y2="189.36"/><line class="cls-15" x1="421.2" y1="187.68" x2="421.2" y2="185.52"/><line class="cls-15" x1="421.2" y1="183.84" x2="421.2" y2="181.68"/><line class="cls-15" x1="421.2" y1="180" x2="421.2" y2="177.84"/><line class="cls-15" x1="421.2" y1="176.16" x2="421.2" y2="174"/><line class="cls-15" x1="421.2" y1="172.32" x2="421.2" y2="170.16"/><line class="cls-15" x1="421.2" y1="168.48" x2="421.2" y2="166.32"/><line class="cls-15" x1="421.2" y1="164.64" x2="421.2" y2="162.48"/><line class="cls-15" x1="421.2" y1="160.8" x2="421.2" y2="158.64"/><line class="cls-15" x1="421.2" y1="156.96" x2="421.2" y2="154.8"/><line class="cls-15" x1="421.2" y1="153.12" x2="421.2" y2="150.96"/><line class="cls-15" x1="421.2" y1="149.28" x2="421.2" y2="147.36"/><line class="cls-15" x1="421.2" y1="145.44" x2="421.2" y2="143.52"/><line class="cls-15" x1="421.2" y1="141.6" x2="421.2" y2="139.68"/><line class="cls-15" x1="421.2" y1="138" x2="421.2" y2="135.84"/><line class="cls-15" x1="421.2" y1="134.16" x2="421.2" y2="132"/><line class="cls-15" x1="421.2" y1="130.32" x2="421.2" y2="128.16"/><line class="cls-15" x1="421.2" y1="126.48" x2="421.2" y2="124.32"/><line class="cls-15" x1="421.2" y1="122.64" x2="421.2" y2="120.48"/><line class="cls-15" x1="421.2" y1="118.8" x2="421.2" y2="116.64"/><line class="cls-15" x1="421.2" y1="114.96" x2="421.2" y2="112.8"/><line class="cls-15" x1="421.2" y1="111.12" x2="421.2" y2="108.96"/><line class="cls-15" x1="421.2" y1="107.28" x2="421.2" y2="105.12"/><line class="cls-15" x1="421.2" y1="103.44" x2="421.2" y2="101.28"/><line class="cls-15" x1="421.2" y1="99.6" x2="421.2" y2="97.44"/><line class="cls-15" x1="421.2" y1="95.76" x2="421.2" y2="93.6"/><line class="cls-15" x1="421.2" y1="91.92" x2="421.2" y2="89.76"/><line class="cls-15" x1="421.2" y1="88.08" x2="421.2" y2="86.16"/><line class="cls-15" x1="421.2" y1="84.24" x2="421.2" y2="82.32"/><line class="cls-15" x1="421.2" y1="80.64" x2="421.2" y2="78.48"/><line class="cls-15" x1="421.2" y1="76.8" x2="421.2" y2="74.64"/><line class="cls-15" x1="421.2" y1="72.96" x2="421.2" y2="70.8"/><line class="cls-15" x1="421.2" y1="69.12" x2="421.2" y2="66.96"/><line class="cls-15" x1="421.2" y1="65.28" x2="421.2" y2="63.12"/><line class="cls-15" x1="421.2" y1="61.44" x2="421.2" y2="59.28"/><polyline class="cls-15" points="421.2 57.6 421.2 55.92 419.04 55.92"/><line class="cls-15" x1="417.36" y1="55.92" x2="415.2" y2="55.92"/><line class="cls-15" x1="413.52" y1="55.92" x2="411.36" y2="55.92"/><line class="cls-15" x1="409.68" y1="55.92" x2="407.52" y2="55.92"/><line class="cls-15" x1="405.84" y1="55.92" x2="403.68" y2="55.92"/><line class="cls-15" x1="402" y1="55.92" x2="399.84" y2="55.92"/><line class="cls-15" x1="398.16" y1="55.92" x2="396" y2="55.92"/><line class="cls-15" x1="394.32" y1="55.92" x2="392.4" y2="55.92"/><line class="cls-15" x1="390.48" y1="55.92" x2="388.56" y2="55.92"/><line class="cls-15" x1="386.88" y1="55.92" x2="384.72" y2="55.92"/><line class="cls-15" x1="383.04" y1="55.92" x2="380.88" y2="55.92"/><line class="cls-15" x1="379.2" y1="55.92" x2="377.04" y2="55.92"/><line class="cls-15" x1="375.36" y1="55.92" x2="373.2" y2="55.92"/><line class="cls-15" x1="371.52" y1="55.92" x2="369.36" y2="55.92"/><line class="cls-15" x1="367.68" y1="55.92" x2="365.52" y2="55.92"/><line class="cls-15" x1="363.84" y1="55.92" x2="361.68" y2="55.92"/><line class="cls-15" x1="360" y1="55.92" x2="357.84" y2="55.92"/><line class="cls-15" x1="356.16" y1="55.92" x2="354" y2="55.92"/><line class="cls-15" x1="352.32" y1="55.92" x2="350.16" y2="55.92"/><line class="cls-15" x1="348.48" y1="55.92" x2="346.32" y2="55.92"/><line class="cls-15" x1="344.64" y1="55.92" x2="342.48" y2="55.92"/><line class="cls-15" x1="340.8" y1="55.92" x2="338.64" y2="55.92"/><line class="cls-15" x1="336.96" y1="55.92" x2="335.04" y2="55.92"/><line class="cls-15" x1="333.12" y1="55.92" x2="331.2" y2="55.92"/><line class="cls-15" x1="329.28" y1="55.92" x2="327.36" y2="55.92"/><line class="cls-15" x1="325.68" y1="55.92" x2="323.52" y2="55.92"/><line class="cls-15" x1="321.84" y1="55.92" x2="319.68" y2="55.92"/><line class="cls-15" x1="318" y1="55.92" x2="315.84" y2="55.92"/><line class="cls-15" x1="314.16" y1="55.92" x2="312" y2="55.92"/><line class="cls-15" x1="310.32" y1="55.92" x2="308.16" y2="55.92"/><line class="cls-15" x1="306.48" y1="55.92" x2="304.32" y2="55.92"/><line class="cls-15" x1="302.64" y1="55.92" x2="300.48" y2="55.92"/><line class="cls-15" x1="298.8" y1="55.92" x2="296.64" y2="55.92"/><line class="cls-15" x1="294.96" y1="55.92" x2="292.8" y2="55.92"/><line class="cls-15" x1="291.12" y1="55.92" x2="288.96" y2="55.92"/><line class="cls-15" x1="287.28" y1="55.92" x2="285.12" y2="55.92"/><line class="cls-15" x1="283.44" y1="55.92" x2="281.28" y2="55.92"/><line class="cls-15" x1="279.6" y1="55.92" x2="277.44" y2="55.92"/><line class="cls-15" x1="275.76" y1="55.92" x2="273.84" y2="55.92"/><line class="cls-15" x1="271.92" y1="55.92" x2="270" y2="55.92"/><line class="cls-15" x1="268.32" y1="55.92" x2="266.16" y2="55.92"/><line class="cls-15" x1="264.48" y1="55.92" x2="262.32" y2="55.92"/><line class="cls-15" x1="260.64" y1="55.92" x2="258.48" y2="55.92"/><line class="cls-15" x1="256.8" y1="55.92" x2="254.64" y2="55.92"/><line class="cls-15" x1="252.96" y1="55.92" x2="250.8" y2="55.92"/><line class="cls-15" x1="249.12" y1="55.92" x2="246.96" y2="55.92"/><line class="cls-15" x1="245.28" y1="55.92" x2="243.12" y2="55.92"/><line class="cls-15" x1="241.44" y1="55.92" x2="239.28" y2="55.92"/><line class="cls-15" x1="237.6" y1="55.92" x2="235.44" y2="55.92"/><line class="cls-15" x1="233.76" y1="55.92" x2="231.6" y2="55.92"/><line class="cls-15" x1="229.92" y1="55.92" x2="227.76" y2="55.92"/><line class="cls-15" x1="226.08" y1="55.92" x2="223.92" y2="55.92"/><line class="cls-15" x1="222.24" y1="55.92" x2="220.08" y2="55.92"/><line class="cls-15" x1="218.4" y1="55.92" x2="216.24" y2="55.92"/><line class="cls-15" x1="214.56" y1="55.92" x2="212.64" y2="55.92"/><line class="cls-15" x1="210.72" y1="55.92" x2="208.8" y2="55.92"/><line class="cls-15" x1="207.12" y1="55.92" x2="204.96" y2="55.92"/><line class="cls-15" x1="203.28" y1="55.92" x2="201.12" y2="55.92"/><line class="cls-15" x1="199.44" y1="55.92" x2="197.28" y2="55.92"/><line class="cls-15" x1="195.6" y1="55.92" x2="193.44" y2="55.92"/><line class="cls-15" x1="191.76" y1="55.92" x2="189.6" y2="55.92"/><line class="cls-15" x1="187.92" y1="55.92" x2="185.76" y2="55.92"/><line class="cls-15" x1="184.08" y1="55.92" x2="181.92" y2="55.92"/><line class="cls-15" x1="180.24" y1="55.92" x2="178.08" y2="55.92"/><line class="cls-15" x1="176.4" y1="55.92" x2="174.24" y2="55.92"/><line class="cls-15" x1="172.56" y1="55.92" x2="170.4" y2="55.92"/><line class="cls-15" x1="168.72" y1="55.92" x2="166.56" y2="55.92"/><line class="cls-15" x1="164.88" y1="55.92" x2="162.72" y2="55.92"/><line class="cls-15" x1="161.04" y1="55.92" x2="158.88" y2="55.92"/><line class="cls-15" x1="157.2" y1="55.92" x2="155.04" y2="55.92"/><line class="cls-15" x1="153.36" y1="55.92" x2="151.44" y2="55.92"/><line class="cls-15" x1="149.52" y1="55.92" x2="147.6" y2="55.92"/><line class="cls-15" x1="145.92" y1="55.92" x2="143.76" y2="55.92"/><line class="cls-15" x1="142.08" y1="55.92" x2="139.92" y2="55.92"/><line class="cls-15" x1="138.24" y1="55.92" x2="136.08" y2="55.92"/><line class="cls-15" x1="134.4" y1="55.92" x2="132.24" y2="55.92"/><line class="cls-15" x1="130.56" y1="55.92" x2="128.4" y2="55.92"/><line class="cls-15" x1="126.72" y1="55.92" x2="124.56" y2="55.92"/><line class="cls-15" x1="122.88" y1="55.92" x2="120.72" y2="55.92"/><line class="cls-15" x1="119.04" y1="55.92" x2="116.88" y2="55.92"/><line class="cls-15" x1="115.2" y1="55.92" x2="113.04" y2="55.92"/><line class="cls-15" x1="111.36" y1="55.92" x2="109.2" y2="55.92"/><line class="cls-15" x1="107.52" y1="55.92" x2="105.36" y2="55.92"/><line class="cls-15" x1="103.68" y1="55.92" x2="101.52" y2="55.92"/><line class="cls-15" x1="99.84" y1="55.92" x2="97.68" y2="55.92"/><line class="cls-15" x1="96" y1="55.92" x2="94.08" y2="55.92"/><line class="cls-15" x1="92.16" y1="55.92" x2="90.24" y2="55.92"/><line class="cls-15" x1="88.32" y1="55.92" x2="86.4" y2="55.92"/><line class="cls-15" x1="84.72" y1="55.92" x2="82.56" y2="55.92"/><line class="cls-15" x1="80.88" y1="55.92" x2="78.72" y2="55.92"/><line class="cls-15" x1="77.04" y1="55.92" x2="74.88" y2="55.92"/><line class="cls-15" x1="73.2" y1="55.92" x2="71.04" y2="55.92"/><line class="cls-15" x1="69.36" y1="55.92" x2="67.2" y2="55.92"/><line class="cls-15" x1="65.52" y1="55.92" x2="63.36" y2="55.92"/><line class="cls-15" x1="61.68" y1="55.92" x2="59.52" y2="55.92"/><polyline class="cls-16" points="134.64 298.56 135.84 298.8 137.52 298.8"/><polyline class="cls-16" points="155.76 298.56 154.32 298.8 152.88 298.8"/><line class="cls-16" x1="131.76" y1="295.2" x2="132" y2="295.92"/><polyline class="cls-16" points="131.76 295.2 131.76 293.76 131.76 292.08"/><polyline class="cls-16" points="134.64 298.56 132.72 297.6 132 295.92"/><line class="cls-16" x1="158.64" y1="295.2" x2="158.4" y2="295.92"/><polyline class="cls-16" points="158.64 295.2 158.64 293.76 158.4 292.08"/><polyline class="cls-16" points="155.76 298.56 157.44 297.6 158.4 295.92"/><line class="cls-15" x1="159.36" y1="306.72" x2="131.04" y2="306.72"/><polyline class="cls-15" points="159.6 289.44 158.16 287.04 156.24 284.88"/><polyline class="cls-15" points="160.8 294.24 160.56 291.84 159.6 289.44"/><polyline class="cls-15" points="159.36 306.72 160.32 300.48 160.8 294.24"/><polyline class="cls-15" points="129.6 294.24 129.84 300.48 131.04 306.72"/><polyline class="cls-15" points="151.2 282 148.32 281.28 145.2 281.04"/><polyline class="cls-15" points="156.24 284.88 153.84 283.2 151.2 282"/><polyline class="cls-15" points="130.8 289.44 129.84 291.84 129.6 294.24"/><polyline class="cls-15" points="134.16 284.88 132.24 287.04 130.8 289.44"/><polyline class="cls-15" points="139.2 282 136.56 283.2 134.16 284.88"/><polyline class="cls-15" points="145.2 281.04 142.08 281.28 139.2 282"/><polyline class="cls-16" points="130.8 305.76 159.6 305.76 160.56 300 160.8 294.24 160.56 291.84 159.6 289.44 158.16 287.04 156.24 284.88 153.84 283.2 151.2 282 148.32 281.28 145.2 281.04 142.08 281.28 139.2 282 136.56 283.2 134.16 284.88 132.24 287.04 130.8 289.44 129.84 291.84 129.6 294.24 129.84 300 130.8 305.76"/><polyline class="cls-16" points="119.76 306.72 170.64 306.72 170.64 305.76 119.76 305.76 119.76 306.72"/><line class="cls-15" x1="187.68" y1="112.08" x2="68.16" y2="112.08"/><polyline class="cls-15" points="190.56 114.96 189.6 113.04 187.68 112.08"/><line class="cls-15" x1="190.56" y1="165.36" x2="190.56" y2="114.96"/><polyline class="cls-15" points="187.68 168.24 189.6 167.52 190.56 165.36"/><line class="cls-15" x1="68.16" y1="168.24" x2="187.68" y2="168.24"/><polyline class="cls-15" points="65.28 165.36 66 167.52 68.16 168.24"/><line class="cls-15" x1="65.28" y1="114.96" x2="65.28" y2="165.36"/><polyline class="cls-15" points="68.16 112.08 66 113.04 65.28 114.96"/><polyline class="cls-16" points="96.96 168.24 96.96 166.8 69.36 166.8 69.36 168.24 96.96 168.24"/><polyline class="cls-16" points="182.88 113.52 182.88 112.08 142.56 112.08 142.56 113.52 182.88 113.52"/><polyline class="cls-16" points="96.48 113.52 96.48 112.08 69.36 112.08 69.36 113.52 96.48 113.52"/><line class="cls-16" x1="188.64" y1="117.6" x2="190.08" y2="117.6"/><line class="cls-16" x1="188.64" y1="162.96" x2="188.64" y2="117.6"/><line class="cls-16" x1="190.08" y1="162.96" x2="188.64" y2="162.96"/><line class="cls-16" x1="190.08" y1="117.6" x2="190.08" y2="162.96"/><line class="cls-16" x1="67.2" y1="117.84" x2="65.52" y2="117.84"/><line class="cls-16" x1="67.2" y1="162.96" x2="67.2" y2="117.84"/><line class="cls-16" x1="65.52" y1="162.96" x2="67.2" y2="162.96"/><line class="cls-16" x1="65.52" y1="117.84" x2="65.52" y2="162.96"/><line class="cls-16" x1="93.84" y1="163.2" x2="70.08" y2="163.2"/><line class="cls-16" x1="93.84" y1="116.88" x2="93.84" y2="163.2"/><line class="cls-16" x1="70.08" y1="116.88" x2="93.84" y2="116.88"/><line class="cls-16" x1="70.08" y1="163.2" x2="70.08" y2="116.88"/><line class="cls-16" x1="185.52" y1="114.24" x2="70.32" y2="114.24"/><polyline class="cls-16" points="188.4 117.12 187.44 115.2 185.52 114.24"/><line class="cls-16" x1="188.4" y1="163.2" x2="188.4" y2="117.12"/><polyline class="cls-16" points="185.52 166.08 187.44 165.36 188.4 163.2"/><line class="cls-16" x1="70.32" y1="166.08" x2="185.52" y2="166.08"/><polyline class="cls-16" points="67.44 163.2 68.16 165.36 70.32 166.08"/><line class="cls-16" x1="67.44" y1="117.12" x2="67.44" y2="163.2"/><polyline class="cls-16" points="70.32 114.24 68.16 115.2 67.44 117.12"/><polyline class="cls-16" points="65.28 114.96 65.28 165.36 65.28 166.08 65.76 166.8 66 167.52 66.72 168 67.44 168.24 68.16 168.24 187.68 168.24 188.4 168.24 189.12 168 189.6 167.52 190.08 166.8 190.32 166.08 190.56 165.36 190.56 114.96 190.32 114.24 190.08 113.52 189.6 113.04 189.12 112.56 188.4 112.32 187.68 112.08 68.16 112.08 67.44 112.32 66.72 112.56 66 113.04 65.76 113.52 65.28 114.24 65.28 114.96"/><line class="cls-15" x1="293.04" y1="112.08" x2="412.56" y2="112.08"/><polyline class="cls-15" points="290.16 114.96 291.12 113.04 293.04 112.08"/><line class="cls-15" x1="290.16" y1="165.36" x2="290.16" y2="114.96"/><polyline class="cls-15" points="293.04 168.24 291.12 167.52 290.16 165.36"/><line class="cls-15" x1="412.56" y1="168.24" x2="293.04" y2="168.24"/><polyline class="cls-15" points="415.44 165.36 414.72 167.52 412.56 168.24"/><line class="cls-15" x1="415.44" y1="114.96" x2="415.44" y2="165.36"/><polyline class="cls-15" points="412.56 112.08 414.72 113.04 415.44 114.96"/><polyline class="cls-16" points="383.76 168.24 383.76 166.8 411.36 166.8 411.36 168.24 383.76 168.24"/><polyline class="cls-16" points="297.84 113.52 297.84 112.08 338.16 112.08 338.16 113.52 297.84 113.52"/><polyline class="cls-16" points="384.24 113.52 384.24 112.08 411.36 112.08 411.36 113.52 384.24 113.52"/><line class="cls-16" x1="292.08" y1="117.6" x2="290.64" y2="117.6"/><line class="cls-16" x1="292.08" y1="162.96" x2="292.08" y2="117.6"/><line class="cls-16" x1="290.64" y1="162.96" x2="292.08" y2="162.96"/><line class="cls-16" x1="290.64" y1="117.6" x2="290.64" y2="162.96"/><line class="cls-16" x1="413.52" y1="117.84" x2="415.2" y2="117.84"/><line class="cls-16" x1="413.52" y1="162.96" x2="413.52" y2="117.84"/><line class="cls-16" x1="415.2" y1="162.96" x2="413.52" y2="162.96"/><line class="cls-16" x1="415.2" y1="117.84" x2="415.2" y2="162.96"/><line class="cls-16" x1="386.88" y1="163.2" x2="410.88" y2="163.2"/><line class="cls-16" x1="386.88" y1="116.88" x2="386.88" y2="163.2"/><line class="cls-16" x1="410.88" y1="116.88" x2="386.88" y2="116.88"/><line class="cls-16" x1="410.88" y1="163.2" x2="410.88" y2="116.88"/><line class="cls-16" x1="295.2" y1="114.24" x2="410.4" y2="114.24"/><polyline class="cls-16" points="292.32 117.12 293.28 115.2 295.2 114.24"/><line class="cls-16" x1="292.32" y1="163.2" x2="292.32" y2="117.12"/><polyline class="cls-16" points="295.2 166.08 293.28 165.36 292.32 163.2"/><line class="cls-16" x1="410.4" y1="166.08" x2="295.2" y2="166.08"/><polyline class="cls-16" points="413.28 163.2 412.56 165.36 410.4 166.08"/><line class="cls-16" x1="413.28" y1="117.12" x2="413.28" y2="163.2"/><polyline class="cls-16" points="410.4 114.24 412.56 115.2 413.28 117.12"/><polyline class="cls-16" points="415.44 114.96 415.44 114.24 414.96 113.52 414.72 113.04 414 112.56 413.28 112.32 412.56 112.08 293.04 112.08 292.32 112.32 291.6 112.56 291.12 113.04 290.64 113.52 290.4 114.24 290.16 114.96 290.16 165.36 290.4 166.08 290.64 166.8 291.12 167.52 291.6 168 292.32 168.24 293.04 168.24 412.56 168.24 413.28 168.24 414 168 414.72 167.52 414.96 166.8 415.44 166.08 415.44 165.36 415.44 114.96"/><polyline class="cls-15" points="258.72 375.36 259.68 367.92 262.08 360.72 266.16 354.24 271.68 348.72 277.92 344.64 285.12 342.24 292.8 341.28"/><polyline class="cls-15" points="289.92 375.36 289.92 341.28 292.8 341.28 292.8 375.36 289.92 375.36"/><polyline class="cls-15" points="258.72 375.36 258 365.52 255.36 355.92 251.04 346.8 245.52 338.88 238.32 331.68 230.4 326.16 221.28 321.84 211.68 319.2 201.84 318.48"/><polyline class="cls-15" points="204.72 375.36 204.72 318.48 201.84 318.48 201.84 375.36 204.72 375.36"/><polyline class="cls-15" points="292.8 372 201.84 372 201.84 378.72 292.8 378.72 292.8 372 201.84 372 201.84 378.72 292.8 378.72 292.8 372"/><line class="cls-17" x1="424.56" y1="52.32" x2="433.68" y2="52.32"/><line class="cls-17" x1="444.96" y1="52.32" x2="456.24" y2="52.32"/><line class="cls-17" x1="467.52" y1="52.32" x2="476.64" y2="52.32"/><line class="cls-17" x1="424.56" y1="236.64" x2="435.84" y2="236.64"/><line class="cls-17" x1="447.12" y1="236.64" x2="458.4" y2="236.64"/><line class="cls-17" x1="469.92" y1="236.64" x2="481.2" y2="236.64"/><line class="cls-17" x1="304.32" y1="375.36" x2="312.96" y2="375.36"/><line class="cls-17" x1="324.24" y1="375.36" x2="335.52" y2="375.36"/><line class="cls-17" x1="346.8" y1="375.36" x2="358.32" y2="375.36"/><line class="cls-17" x1="369.6" y1="375.36" x2="380.88" y2="375.36"/><line class="cls-17" x1="392.16" y1="375.36" x2="403.44" y2="375.36"/><line class="cls-17" x1="414.96" y1="375.36" x2="426.24" y2="375.36"/><line class="cls-17" x1="437.52" y1="375.36" x2="448.8" y2="375.36"/><line class="cls-17" x1="460.32" y1="375.36" x2="471.6" y2="375.36"/><line class="cls-17" x1="482.88" y1="375.36" x2="491.28" y2="375.36"/><line class="cls-17" x1="424.56" y1="236.64" x2="424.56" y2="242.16"/><line class="cls-17" x1="424.56" y1="253.44" x2="424.56" y2="264.96"/><line class="cls-17" x1="424.56" y1="276.24" x2="424.56" y2="287.52"/><line class="cls-17" x1="424.56" y1="298.8" x2="424.56" y2="310.32"/><line class="cls-17" x1="424.56" y1="321.6" x2="424.56" y2="332.88"/><line class="cls-17" x1="424.56" y1="344.16" x2="424.56" y2="355.44"/><line class="cls-17" x1="424.56" y1="366.96" x2="424.56" y2="378.24"/><line class="cls-17" x1="424.56" y1="389.52" x2="424.56" y2="395.28"/><line class="cls-17" x1="304.32" y1="375.36" x2="304.32" y2="381.12"/><line class="cls-17" x1="304.32" y1="392.4" x2="304.32" y2="398.16"/><line class="cls-17" x1="187.2" y1="375.36" x2="187.2" y2="384.96"/><line class="cls-17" x1="187.2" y1="396.24" x2="187.2" y2="406.08"/><line class="cls-17" x1="56.16" y1="310.32" x2="56.16" y2="325.92"/><line class="cls-17" x1="56.16" y1="337.2" x2="56.16" y2="348.48"/><line class="cls-17" x1="56.16" y1="359.76" x2="56.16" y2="371.04"/><line class="cls-17" x1="56.16" y1="382.56" x2="56.16" y2="398.16"/><line class="cls-17" x1="56.16" y1="310.32" x2="48.96" y2="310.32"/><line class="cls-17" x1="37.44" y1="310.32" x2="30.24" y2="310.32"/><line class="cls-17" x1="56.16" y1="52.32" x2="48.96" y2="52.32"/><line class="cls-17" x1="37.44" y1="52.32" x2="30.24" y2="52.32"/><line class="cls-17" x1="56.16" y1="52.32" x2="56.16" y2="43.92"/><line class="cls-17" x1="56.16" y1="32.64" x2="56.16" y2="24"/><line class="cls-17" x1="424.56" y1="52.32" x2="424.56" y2="43.92"/><line class="cls-17" x1="424.56" y1="32.64" x2="424.56" y2="24"/><line class="cls-18" x1="56.16" y1="13.44" x2="424.56" y2="13.44"/><line class="cls-17" x1="424.56" y1="13.44" x2="420.24" y2="17.52"/><line class="cls-17" x1="424.56" y1="13.44" x2="428.88" y2="9.12"/><line class="cls-18" x1="424.56" y1="13.44" x2="424.56" y2="6.24"/><line class="cls-18" x1="424.56" y1="13.44" x2="424.56" y2="27.6"/><line class="cls-17" x1="56.16" y1="13.44" x2="52.08" y2="17.52"/><line class="cls-17" x1="56.16" y1="13.44" x2="60.48" y2="9.12"/><line class="cls-18" x1="56.16" y1="13.44" x2="56.16" y2="6.24"/><line class="cls-18" x1="56.16" y1="13.44" x2="56.16" y2="27.6"/><rect class="cls-19" x="225.84" width="28.56" height="8.88"/><text class="cls-20" transform="translate(225.84 7.2)"><tspan class="cls-21">SP_</tspan><tspan class="cls-22" x="12.27" y="0">W</tspan><tspan class="cls-23" x="18.27" y="0">i</tspan><tspan class="cls-21" x="19.72" y="0">d</tspan><tspan class="cls-24" x="23.32" y="0">t</tspan><tspan x="25" y="0">h</tspan></text><line class="cls-18" x1="513.6" y1="52.32" x2="513.6" y2="375.36"/><line class="cls-17" x1="513.6" y1="375.36" x2="509.28" y2="371.04"/><line class="cls-17" x1="513.6" y1="375.36" x2="517.92" y2="379.68"/><line class="cls-18" x1="513.6" y1="375.36" x2="520.56" y2="375.36"/><line class="cls-18" x1="513.6" y1="375.36" x2="499.44" y2="375.36"/><line class="cls-17" x1="513.6" y1="52.32" x2="509.28" y2="48.24"/><line class="cls-17" x1="513.6" y1="52.32" x2="517.92" y2="56.64"/><line class="cls-18" x1="513.6" y1="52.32" x2="520.56" y2="52.32"/><line class="cls-18" x1="513.6" y1="52.32" x2="499.44" y2="52.32"/><rect class="cls-19" x="500.16" y="198.96" width="9.6" height="30"/><text class="cls-25" transform="translate(507.84 228.72) rotate(-90)">SP_<tspan class="cls-26" x="12.26" y="0">D</tspan><tspan x="17.06" y="0">ep</tspan><tspan class="cls-27" x="24.26" y="0">t</tspan><tspan class="cls-28" x="26.18" y="0">h</tspan></text><line class="cls-18" x1="56.16" y1="412.08" x2="187.2" y2="412.08"/><line class="cls-17" x1="187.2" y1="412.08" x2="182.88" y2="416.16"/><line class="cls-17" x1="187.2" y1="412.08" x2="191.28" y2="407.76"/><line class="cls-18" x1="187.2" y1="412.08" x2="187.2" y2="419.04"/><line class="cls-18" x1="187.2" y1="412.08" x2="187.2" y2="397.68"/><line class="cls-17" x1="56.16" y1="412.08" x2="52.08" y2="416.16"/><line class="cls-17" x1="56.16" y1="412.08" x2="60.48" y2="407.76"/><line class="cls-18" x1="56.16" y1="412.08" x2="56.16" y2="419.04"/><line class="cls-18" x1="56.16" y1="412.08" x2="56.16" y2="397.68"/><rect class="cls-19" x="103.68" y="398.4" width="35.76" height="8.88"/><text class="cls-20" transform="translate(103.68 405.6)"><tspan class="cls-29">SP_</tspan><tspan class="cls-22" x="12.26" y="0">W</tspan><tspan class="cls-30" x="18.27" y="0">i</tspan><tspan class="cls-29" x="19.72" y="0">d</tspan><tspan class="cls-31" x="23.32" y="0">t</tspan><tspan class="cls-29" x="25" y="0">h_</tspan><tspan x="32.2" y="0">3</tspan></text><line class="cls-18" x1="304.32" y1="412.08" x2="424.56" y2="412.08"/><line class="cls-17" x1="424.56" y1="412.08" x2="420.24" y2="416.16"/><line class="cls-17" x1="424.56" y1="412.08" x2="428.88" y2="407.76"/><line class="cls-18" x1="424.56" y1="412.08" x2="424.56" y2="419.04"/><line class="cls-18" x1="424.56" y1="412.08" x2="424.56" y2="397.68"/><line class="cls-17" x1="304.32" y1="412.08" x2="300.24" y2="416.16"/><line class="cls-17" x1="304.32" y1="412.08" x2="308.64" y2="407.76"/><line class="cls-18" x1="304.32" y1="412.08" x2="304.32" y2="419.04"/><line class="cls-18" x1="304.32" y1="412.08" x2="304.32" y2="397.68"/><rect class="cls-19" x="346.32" y="398.4" width="35.76" height="8.88"/><text class="cls-20" transform="translate(346.32 405.6)"><tspan class="cls-29">SP_</tspan><tspan class="cls-22" x="12.26" y="0">W</tspan><tspan class="cls-30" x="18.27" y="0">i</tspan><tspan class="cls-29" x="19.72" y="0">d</tspan><tspan class="cls-31" x="23.32" y="0">t</tspan><tspan class="cls-29" x="25" y="0">h_</tspan><tspan x="32.2" y="0">1</tspan></text><line class="cls-18" x1="485.28" y1="52.32" x2="485.28" y2="236.64"/><line class="cls-17" x1="485.28" y1="236.64" x2="480.96" y2="232.32"/><line class="cls-17" x1="485.28" y1="236.64" x2="489.6" y2="240.72"/><line class="cls-18" x1="485.28" y1="236.64" x2="492.24" y2="236.64"/><line class="cls-18" x1="485.28" y1="236.64" x2="471.12" y2="236.64"/><line class="cls-17" x1="485.28" y1="52.32" x2="480.96" y2="48.24"/><line class="cls-17" x1="485.28" y1="52.32" x2="489.6" y2="56.64"/><line class="cls-18" x1="485.28" y1="52.32" x2="492.24" y2="52.32"/><line class="cls-18" x1="485.28" y1="52.32" x2="471.12" y2="52.32"/><rect class="cls-19" x="473.28" y="122.16" width="9.6" height="37.2"/><text class="cls-20" transform="translate(480.96 159.12) rotate(-90)"><tspan class="cls-21">SP_</tspan><tspan class="cls-32" x="12.27" y="0">D</tspan><tspan class="cls-21" x="17.06" y="0">ep</tspan><tspan class="cls-33" x="24.27" y="0">t</tspan><tspan class="cls-21" x="26.18" y="0">h_</tspan><tspan x="33.38" y="0">1</tspan></text><line class="cls-18" x1="13.44" y1="52.32" x2="13.44" y2="310.32"/><line class="cls-17" x1="13.44" y1="310.32" x2="9.12" y2="306"/><line class="cls-17" x1="13.44" y1="310.32" x2="17.52" y2="314.4"/><line class="cls-18" x1="13.44" y1="310.32" x2="6.24" y2="310.32"/><line class="cls-18" x1="13.44" y1="310.32" x2="27.6" y2="310.32"/><line class="cls-17" x1="13.44" y1="52.32" x2="9.12" y2="48.24"/><line class="cls-17" x1="13.44" y1="52.32" x2="17.52" y2="56.64"/><line class="cls-18" x1="13.44" y1="52.32" x2="6.24" y2="52.32"/><line class="cls-18" x1="13.44" y1="52.32" x2="27.6" y2="52.32"/><rect class="cls-19" y="162.72" width="9.6" height="37.2"/><text class="cls-20" transform="translate(7.68 199.68) rotate(-90)"><tspan class="cls-29">SP_</tspan><tspan class="cls-26" x="12.26" y="0">D</tspan><tspan class="cls-29" x="17.06" y="0">ep</tspan><tspan class="cls-27" x="24.26" y="0">t</tspan><tspan class="cls-29" x="26.18" y="0">h_</tspan><tspan x="33.38" y="0">3</tspan></text><text class="cls-34" transform="translate(219.6 395.04) scale(1 1.01)">D<tspan class="cls-35" x="4.57" y="0">oo</tspan><tspan class="cls-36" x="12.24" y="0">r</tspan><tspan class="cls-37" x="14.4" y="0"> </tspan><tspan class="cls-38" x="16.31" y="0">1</tspan></text></g></g></svg>