<svg xmlns="http://www.w3.org/2000/svg" xmlns:xlink="http://www.w3.org/1999/xlink" viewBox="0 0 433.2 460.46"><defs><style>.cls-1,.cls-15,.cls-16,.cls-17,.cls-2,.cls-20{fill:none;}.cls-1{clip-rule:evenodd;}.cls-3{clip-path:url(#clip-path);}.cls-4{clip-path:url(#clip-path-2);}.cls-5{fill:#c6d3b4;}.cls-12,.cls-6{font-size:4.08px;font-family:ArialMT, Arial;}.cls-12,.cls-7{letter-spacing:-0.03em;}.cls-8{letter-spacing:0.02em;}.cls-9{letter-spacing:-0.09em;}.cls-10{letter-spacing:0.02em;}.cls-11{letter-spacing:-0.03em;}.cls-13{letter-spacing:-0.04em;}.cls-14{letter-spacing:0em;}.cls-15,.cls-16{stroke:#000;}.cls-15,.cls-16,.cls-17,.cls-20{stroke-linecap:round;stroke-linejoin:round;}.cls-15,.cls-20{stroke-width:0.24px;}.cls-16,.cls-17{stroke-width:0.48px;}.cls-17,.cls-20{stroke:red;}.cls-18{clip-path:url(#clip-path-3);}.cls-19{clip-path:url(#clip-path-4);}.cls-21{fill:#fff;}.cls-22{font-size:8.05px;fill:red;font-family:ArialNarrow, Arial;}.cls-23{letter-spacing:-0.01em;}.cls-24{letter-spacing:0em;}.cls-25{letter-spacing:0.01em;}.cls-26{letter-spacing:-0.04em;}.cls-27{letter-spacing:-0.02em;}.cls-28{letter-spacing:0.01em;}.cls-29{letter-spacing:0.01em;}.cls-30{letter-spacing:-0.01em;}.cls-31{letter-spacing:-0.01em;}.cls-32{letter-spacing:0em;}.cls-33{letter-spacing:-0.04em;}.cls-34{letter-spacing:0em;}</style><clipPath id="clip-path" transform="translate(-870.34 -463.78)"><path class="cls-1" d="M1110,680l-.48.24-.48.24-.24.48-.24.24-.24.72-.24,51.12.24.24V734h.24v.72h.24l.24.24v.48h.48l.48.24.24.24,121.2.24V736l.48-.48.72-.24.24-.24.24-.48.24-53h-.24V681l-.48-.48-.72-.24-.24-.24m-346.8,0-.48.24-.48.24-.24.48-.24.24-.24.72-.24,51.12.24.24V734h.24v.72h.24l.24.24v.48h.48l.48.24.24.24,121.2.24V736l.48-.24c.85-.84.87,0,1.44-1.92l.24-51.6h-.24v-.72H1008V681l-.48-.48-.48-.24-.24-.24Zm225.36-170.16-.72.24-1,1-.24.72-.24,51.36.24.24v.72h.24v.48h.24l.24.24v.48h.24l.24.24.72.24,121.2.24v-.24l1-.48.48-.48.24-.48.24-53-1-1-1-.48Zm-225.12,0-.72.24-1,1-.24.72-.24,51.36.24.24v.72h.24v.48h.24l.24.24v.48h.24l.24.24.72.24,121.2.24v-.24l.72-.24.72-.72.48-1,.24-51.84h-.24v-.72l-1.2-1.2-.72-.24Zm-7.68-25.2V806.76h66.24l54,54V917.4h121.2V860.76l54-54h66.24V484.68Z"/></clipPath><clipPath id="clip-path-2" transform="translate(-870.34 -463.78)"><rect class="cls-2" width="1684.08" height="1191.12"/></clipPath><clipPath id="clip-path-3" transform="translate(-870.34 -463.78)"><rect class="cls-2" x="1240.06" y="537.48" width="15.12" height="1.2"/></clipPath><clipPath id="clip-path-4" transform="translate(-870.34 -463.78)"><rect class="cls-2" x="1240.06" y="707.64" width="15.12" height="1.2"/></clipPath></defs><title>PushIt - Floor Plan - SP-Room-Bed-Two_ENS_Sample_1</title><g id="Layer_2" data-name="Layer 2"><g id="Layer_1-2" data-name="Layer 1"><g class="cls-3"><g class="cls-4"><rect class="cls-5" x="7.08" y="20.9" width="361.68" height="432.72"/></g></g><text class="cls-6" transform="translate(123.25 140.9)">?</text><text class="cls-6" transform="translate(113.65 153.62)"><tspan class="cls-7">6500</tspan><tspan class="cls-8" x="8.64" y="0"> </tspan><tspan class="cls-9" x="9.84" y="0">x</tspan><tspan class="cls-8" x="11.52" y="0"> </tspan><tspan class="cls-7" x="12.72" y="0">775</tspan><tspan x="19.2" y="0">0</tspan></text><text class="cls-6" transform="translate(119.89 145.22)"><tspan class="cls-7">10</tspan><tspan class="cls-10" x="4.32" y="0">.</tspan><tspan class="cls-11" x="5.52" y="0">0</tspan><tspan x="7.68" y="0">0</tspan></text><text class="cls-12" transform="translate(112.69 149.3)">42<tspan class="cls-10" x="4.32" y="0">.</tspan><tspan class="cls-11" x="5.52" y="0">11</tspan><tspan class="cls-8" x="9.84" y="0"> </tspan><tspan class="cls-13" x="11.04" y="0">(</tspan><tspan x="12.24" y="0">41</tspan><tspan class="cls-8" x="16.55" y="0">.</tspan><tspan x="17.75" y="0">31</tspan><tspan class="cls-14" x="22.07" y="0">)</tspan></text><text class="cls-6" transform="translate(123.25 136.58)">?</text><polyline class="cls-15" points="375.48 14.18 0.12 14.18 0.12 349.7 70.2 349.7 120.36 399.86 120.36 460.34 255.48 460.34 255.48 399.86 305.64 349.7 375.48 349.7 375.48 14.18"/><polyline class="cls-15" points="248.52 453.62 127.32 453.62 127.32 397.22 73.08 342.98 7.08 342.98 7.08 20.9 368.76 20.9 368.76 342.98 302.76 342.98 248.52 397.22 248.52 453.62"/><line class="cls-15" x1="135.24" y1="216.26" x2="15.48" y2="216.26"/><polyline class="cls-15" points="138.12 219.14 137.16 216.98 135.24 216.26"/><line class="cls-15" x1="138.12" y1="269.54" x2="138.12" y2="219.14"/><polyline class="cls-15" points="135.24 272.42 137.16 271.7 138.12 269.54"/><line class="cls-15" x1="15.48" y1="272.42" x2="135.24" y2="272.42"/><polyline class="cls-15" points="12.6 269.54 13.56 271.7 15.48 272.42"/><line class="cls-15" x1="12.6" y1="219.14" x2="12.6" y2="269.54"/><polyline class="cls-15" points="15.48 216.26 13.56 216.98 12.6 219.14"/><polyline class="cls-16" points="44.28 272.42 44.28 270.98 16.92 270.98 16.92 272.42 44.28 272.42"/><polyline class="cls-16" points="130.44 217.7 130.44 216.26 90.12 216.26 90.12 217.7 130.44 217.7"/><polyline class="cls-16" points="44.04 217.7 44.04 216.26 16.68 216.26 16.68 217.7 44.04 217.7"/><line class="cls-16" x1="136.2" y1="221.78" x2="137.64" y2="221.78"/><line class="cls-16" x1="136.2" y1="267.14" x2="136.2" y2="221.78"/><line class="cls-16" x1="137.64" y1="267.14" x2="136.2" y2="267.14"/><line class="cls-16" x1="137.64" y1="221.78" x2="137.64" y2="267.14"/><line class="cls-16" x1="14.52" y1="221.78" x2="13.08" y2="221.78"/><line class="cls-16" x1="14.52" y1="267.14" x2="14.52" y2="221.78"/><line class="cls-16" x1="13.08" y1="267.14" x2="14.52" y2="267.14"/><line class="cls-16" x1="13.08" y1="221.78" x2="13.08" y2="267.14"/><line class="cls-16" x1="41.16" y1="267.38" x2="17.4" y2="267.38"/><line class="cls-16" x1="41.16" y1="221.06" x2="41.16" y2="267.38"/><line class="cls-16" x1="17.4" y1="221.06" x2="41.16" y2="221.06"/><line class="cls-16" x1="17.4" y1="267.38" x2="17.4" y2="221.06"/><line class="cls-16" x1="133.08" y1="218.42" x2="17.64" y2="218.42"/><polyline class="cls-16" points="135.96 221.3 135 219.14 133.08 218.42"/><line class="cls-16" x1="135.96" y1="267.38" x2="135.96" y2="221.3"/><polyline class="cls-16" points="133.08 270.26 135 269.54 135.96 267.38"/><line class="cls-16" x1="17.64" y1="270.26" x2="133.08" y2="270.26"/><polyline class="cls-16" points="14.76 267.38 15.72 269.54 17.64 270.26"/><line class="cls-16" x1="14.76" y1="221.3" x2="14.76" y2="267.38"/><polyline class="cls-16" points="17.64 218.42 15.72 219.14 14.76 221.3"/><polyline class="cls-16" points="12.6 219.14 12.6 269.54 12.84 270.26 13.08 270.98 13.56 271.7 14.04 271.94 14.76 272.42 15.48 272.42 135.24 272.42 135.96 272.42 136.68 271.94 137.16 271.7 137.64 270.98 137.88 270.26 138.12 269.54 138.12 219.14 137.88 218.42 137.64 217.7 137.16 216.98 136.68 216.74 135.96 216.26 135.24 216.26 15.48 216.26 14.76 216.26 14.04 216.74 13.56 216.98 13.08 217.7 12.84 218.42 12.6 219.14"/><line class="cls-15" x1="240.6" y1="216.26" x2="360.36" y2="216.26"/><polyline class="cls-15" points="237.72 219.14 238.68 216.98 240.6 216.26"/><line class="cls-15" x1="237.72" y1="269.54" x2="237.72" y2="219.14"/><polyline class="cls-15" points="240.6 272.42 238.68 271.7 237.72 269.54"/><line class="cls-15" x1="360.36" y1="272.42" x2="240.6" y2="272.42"/><polyline class="cls-15" points="363 269.54 362.28 271.7 360.36 272.42"/><line class="cls-15" x1="363" y1="219.14" x2="363" y2="269.54"/><polyline class="cls-15" points="360.36 216.26 362.28 216.98 363 219.14"/><polyline class="cls-16" points="331.56 272.42 331.56 270.98 358.92 270.98 358.92 272.42 331.56 272.42"/><polyline class="cls-16" points="245.4 217.7 245.4 216.26 285.72 216.26 285.72 217.7 245.4 217.7"/><polyline class="cls-16" points="331.8 217.7 331.8 216.26 359.16 216.26 359.16 217.7 331.8 217.7"/><line class="cls-16" x1="239.64" y1="221.78" x2="238.2" y2="221.78"/><line class="cls-16" x1="239.64" y1="267.14" x2="239.64" y2="221.78"/><line class="cls-16" x1="238.2" y1="267.14" x2="239.64" y2="267.14"/><line class="cls-16" x1="238.2" y1="221.78" x2="238.2" y2="267.14"/><line class="cls-16" x1="361.32" y1="221.78" x2="362.76" y2="221.78"/><line class="cls-16" x1="361.32" y1="267.14" x2="361.32" y2="221.78"/><line class="cls-16" x1="362.76" y1="267.14" x2="361.32" y2="267.14"/><line class="cls-16" x1="362.76" y1="221.78" x2="362.76" y2="267.14"/><line class="cls-16" x1="334.68" y1="267.38" x2="358.44" y2="267.38"/><line class="cls-16" x1="334.68" y1="221.06" x2="334.68" y2="267.38"/><line class="cls-16" x1="358.44" y1="221.06" x2="334.68" y2="221.06"/><line class="cls-16" x1="358.44" y1="267.38" x2="358.44" y2="221.06"/><line class="cls-16" x1="242.76" y1="218.42" x2="358.2" y2="218.42"/><polyline class="cls-16" points="239.88 221.3 240.84 219.14 242.76 218.42"/><line class="cls-16" x1="239.88" y1="267.38" x2="239.88" y2="221.3"/><polyline class="cls-16" points="242.76 270.26 240.84 269.54 239.88 267.38"/><line class="cls-16" x1="358.2" y1="270.26" x2="242.76" y2="270.26"/><polyline class="cls-16" points="360.84 267.38 360.12 269.54 358.2 270.26"/><line class="cls-16" x1="360.84" y1="221.3" x2="360.84" y2="267.38"/><polyline class="cls-16" points="358.2 218.42 360.12 219.14 360.84 221.3"/><polyline class="cls-16" points="363 219.14 363 218.42 362.76 217.7 362.28 216.98 361.56 216.74 361.08 216.26 360.36 216.26 240.6 216.26 239.88 216.26 239.16 216.74 238.68 216.98 238.2 217.7 237.96 218.42 237.72 219.14 237.72 269.54 237.96 270.26 238.2 270.98 238.68 271.7 239.16 271.94 239.88 272.42 240.6 272.42 360.36 272.42 361.08 272.42 361.56 271.94 362.28 271.7 362.76 270.98 363 270.26 363 269.54 363 219.14"/><line class="cls-15" x1="135.24" y1="46.1" x2="15.48" y2="46.1"/><polyline class="cls-15" points="138.12 48.98 137.16 47.06 135.24 46.1"/><line class="cls-15" x1="138.12" y1="99.62" x2="138.12" y2="48.98"/><polyline class="cls-15" points="135.24 102.26 137.16 101.54 138.12 99.62"/><line class="cls-15" x1="15.48" y1="102.26" x2="135.24" y2="102.26"/><polyline class="cls-15" points="12.6 99.62 13.56 101.54 15.48 102.26"/><line class="cls-15" x1="12.6" y1="48.98" x2="12.6" y2="99.62"/><polyline class="cls-15" points="15.48 46.1 13.56 47.06 12.6 48.98"/><polyline class="cls-16" points="44.28 102.26 44.28 100.82 16.92 100.82 16.92 102.26 44.28 102.26"/><polyline class="cls-16" points="130.44 47.54 130.44 46.1 90.12 46.1 90.12 47.54 130.44 47.54"/><polyline class="cls-16" points="44.04 47.54 44.04 46.1 16.68 46.1 16.68 47.54 44.04 47.54"/><line class="cls-16" x1="136.2" y1="51.62" x2="137.64" y2="51.62"/><line class="cls-16" x1="136.2" y1="96.98" x2="136.2" y2="51.62"/><line class="cls-16" x1="137.64" y1="96.98" x2="136.2" y2="96.98"/><line class="cls-16" x1="137.64" y1="51.62" x2="137.64" y2="96.98"/><line class="cls-16" x1="14.52" y1="51.86" x2="13.08" y2="51.86"/><line class="cls-16" x1="14.52" y1="96.98" x2="14.52" y2="51.86"/><line class="cls-16" x1="13.08" y1="96.98" x2="14.52" y2="96.98"/><line class="cls-16" x1="13.08" y1="51.86" x2="13.08" y2="96.98"/><line class="cls-16" x1="41.16" y1="97.46" x2="17.4" y2="97.46"/><line class="cls-16" x1="41.16" y1="50.9" x2="41.16" y2="97.46"/><line class="cls-16" x1="17.4" y1="50.9" x2="41.16" y2="50.9"/><line class="cls-16" x1="17.4" y1="97.46" x2="17.4" y2="50.9"/><line class="cls-16" x1="133.08" y1="48.26" x2="17.64" y2="48.26"/><polyline class="cls-16" points="135.96 51.14 135 49.22 133.08 48.26"/><line class="cls-16" x1="135.96" y1="97.46" x2="135.96" y2="51.14"/><polyline class="cls-16" points="133.08 100.1 135 99.38 135.96 97.46"/><line class="cls-16" x1="17.64" y1="100.1" x2="133.08" y2="100.1"/><polyline class="cls-16" points="14.76 97.46 15.72 99.38 17.64 100.1"/><line class="cls-16" x1="14.76" y1="51.14" x2="14.76" y2="97.46"/><polyline class="cls-16" points="17.64 48.26 15.72 49.22 14.76 51.14"/><polyline class="cls-16" points="12.6 48.98 12.6 99.62 12.84 100.34 13.08 100.82 13.56 101.54 14.04 102.02 14.76 102.26 15.48 102.26 135.24 102.26 135.96 102.26 136.68 102.02 137.16 101.54 137.64 100.82 137.88 100.34 138.12 99.62 138.12 48.98 137.88 48.26 137.64 47.54 137.16 47.06 136.68 46.58 135.96 46.34 135.24 46.1 15.48 46.1 14.76 46.34 14.04 46.58 13.56 47.06 13.08 47.54 12.84 48.26 12.6 48.98"/><line class="cls-15" x1="240.6" y1="46.1" x2="360.36" y2="46.1"/><polyline class="cls-15" points="237.72 48.98 238.68 47.06 240.6 46.1"/><line class="cls-15" x1="237.72" y1="99.62" x2="237.72" y2="48.98"/><polyline class="cls-15" points="240.6 102.26 238.68 101.54 237.72 99.62"/><line class="cls-15" x1="360.36" y1="102.26" x2="240.6" y2="102.26"/><polyline class="cls-15" points="363 99.62 362.28 101.54 360.36 102.26"/><line class="cls-15" x1="363" y1="48.98" x2="363" y2="99.62"/><polyline class="cls-15" points="360.36 46.1 362.28 47.06 363 48.98"/><polyline class="cls-16" points="331.56 102.26 331.56 100.82 358.92 100.82 358.92 102.26 331.56 102.26"/><polyline class="cls-16" points="245.4 47.54 245.4 46.1 285.72 46.1 285.72 47.54 245.4 47.54"/><polyline class="cls-16" points="331.8 47.54 331.8 46.1 359.16 46.1 359.16 47.54 331.8 47.54"/><line class="cls-16" x1="239.64" y1="51.62" x2="238.2" y2="51.62"/><line class="cls-16" x1="239.64" y1="96.98" x2="239.64" y2="51.62"/><line class="cls-16" x1="238.2" y1="96.98" x2="239.64" y2="96.98"/><line class="cls-16" x1="238.2" y1="51.62" x2="238.2" y2="96.98"/><line class="cls-16" x1="361.32" y1="51.86" x2="362.76" y2="51.86"/><line class="cls-16" x1="361.32" y1="96.98" x2="361.32" y2="51.86"/><line class="cls-16" x1="362.76" y1="96.98" x2="361.32" y2="96.98"/><line class="cls-16" x1="362.76" y1="51.86" x2="362.76" y2="96.98"/><line class="cls-16" x1="334.68" y1="97.46" x2="358.44" y2="97.46"/><line class="cls-16" x1="334.68" y1="50.9" x2="334.68" y2="97.46"/><line class="cls-16" x1="358.44" y1="50.9" x2="334.68" y2="50.9"/><line class="cls-16" x1="358.44" y1="97.46" x2="358.44" y2="50.9"/><line class="cls-16" x1="242.76" y1="48.26" x2="358.2" y2="48.26"/><polyline class="cls-16" points="239.88 51.14 240.84 49.22 242.76 48.26"/><line class="cls-16" x1="239.88" y1="97.46" x2="239.88" y2="51.14"/><polyline class="cls-16" points="242.76 100.1 240.84 99.38 239.88 97.46"/><line class="cls-16" x1="358.2" y1="100.1" x2="242.76" y2="100.1"/><polyline class="cls-16" points="360.84 97.46 360.12 99.38 358.2 100.1"/><line class="cls-16" x1="360.84" y1="51.14" x2="360.84" y2="97.46"/><polyline class="cls-16" points="358.2 48.26 360.12 49.22 360.84 51.14"/><polyline class="cls-16" points="363 48.98 363 48.26 362.76 47.54 362.28 47.06 361.56 46.58 361.08 46.34 360.36 46.1 240.6 46.1 239.88 46.34 239.16 46.58 238.68 47.06 238.2 47.54 237.96 48.26 237.72 48.98 237.72 99.62 237.96 100.34 238.2 100.82 238.68 101.54 239.16 102.02 239.88 102.26 240.6 102.26 360.36 102.26 361.08 102.26 361.56 102.02 362.28 101.54 362.76 100.82 363 100.34 363 99.62 363 48.98"/><line class="cls-15" x1="7.08" y1="20.9" x2="7.08" y2="22.34"/><line class="cls-15" x1="7.08" y1="24.02" x2="7.08" y2="26.18"/><line class="cls-15" x1="7.08" y1="27.86" x2="7.08" y2="30.02"/><line class="cls-15" x1="7.08" y1="31.7" x2="7.08" y2="33.86"/><line class="cls-15" x1="7.08" y1="35.54" x2="7.08" y2="37.7"/><line class="cls-15" x1="7.08" y1="39.38" x2="7.08" y2="41.54"/><line class="cls-15" x1="7.08" y1="43.22" x2="7.08" y2="45.38"/><line class="cls-15" x1="7.08" y1="47.06" x2="7.08" y2="48.98"/><line class="cls-15" x1="7.08" y1="50.9" x2="7.08" y2="52.82"/><line class="cls-15" x1="7.08" y1="54.74" x2="7.08" y2="56.66"/><line class="cls-15" x1="7.08" y1="58.34" x2="7.08" y2="60.5"/><line class="cls-15" x1="7.08" y1="62.18" x2="7.08" y2="64.34"/><line class="cls-15" x1="7.08" y1="66.02" x2="7.08" y2="68.18"/><line class="cls-15" x1="7.08" y1="69.86" x2="7.08" y2="72.02"/><line class="cls-15" x1="7.08" y1="73.7" x2="7.08" y2="75.86"/><line class="cls-15" x1="7.08" y1="77.54" x2="7.08" y2="79.7"/><line class="cls-15" x1="7.08" y1="81.38" x2="7.08" y2="83.54"/><line class="cls-15" x1="7.08" y1="85.22" x2="7.08" y2="87.38"/><line class="cls-15" x1="7.08" y1="89.06" x2="7.08" y2="91.22"/><line class="cls-15" x1="7.08" y1="92.9" x2="7.08" y2="95.06"/><line class="cls-15" x1="7.08" y1="96.74" x2="7.08" y2="98.9"/><line class="cls-15" x1="7.08" y1="100.58" x2="7.08" y2="102.74"/><line class="cls-15" x1="7.08" y1="104.42" x2="7.08" y2="106.58"/><line class="cls-15" x1="7.08" y1="108.26" x2="7.08" y2="110.42"/><line class="cls-15" x1="7.08" y1="112.1" x2="7.08" y2="114.26"/><line class="cls-15" x1="7.08" y1="115.94" x2="7.08" y2="118.1"/><line class="cls-15" x1="7.08" y1="119.78" x2="7.08" y2="121.7"/><line class="cls-15" x1="7.08" y1="123.62" x2="7.08" y2="125.54"/><line class="cls-15" x1="7.08" y1="127.46" x2="7.08" y2="129.38"/><line class="cls-15" x1="7.08" y1="131.06" x2="7.08" y2="133.22"/><line class="cls-15" x1="7.08" y1="134.9" x2="7.08" y2="137.06"/><line class="cls-15" x1="7.08" y1="138.74" x2="7.08" y2="140.9"/><line class="cls-15" x1="7.08" y1="142.58" x2="7.08" y2="144.74"/><line class="cls-15" x1="7.08" y1="146.42" x2="7.08" y2="148.58"/><line class="cls-15" x1="7.08" y1="150.26" x2="7.08" y2="152.42"/><line class="cls-15" x1="7.08" y1="154.1" x2="7.08" y2="156.26"/><line class="cls-15" x1="7.08" y1="157.94" x2="7.08" y2="160.1"/><line class="cls-15" x1="7.08" y1="161.78" x2="7.08" y2="163.94"/><line class="cls-15" x1="7.08" y1="165.62" x2="7.08" y2="167.78"/><line class="cls-15" x1="7.08" y1="169.46" x2="7.08" y2="171.62"/><line class="cls-15" x1="7.08" y1="173.3" x2="7.08" y2="175.46"/><line class="cls-15" x1="7.08" y1="177.14" x2="7.08" y2="179.3"/><line class="cls-15" x1="7.08" y1="180.98" x2="7.08" y2="183.14"/><line class="cls-15" x1="7.08" y1="184.82" x2="7.08" y2="186.98"/><line class="cls-15" x1="7.08" y1="188.66" x2="7.08" y2="190.82"/><line class="cls-15" x1="7.08" y1="192.5" x2="7.08" y2="194.42"/><line class="cls-15" x1="7.08" y1="196.34" x2="7.08" y2="198.26"/><line class="cls-15" x1="7.08" y1="199.94" x2="7.08" y2="202.1"/><line class="cls-15" x1="7.08" y1="203.78" x2="7.08" y2="205.94"/><line class="cls-15" x1="7.08" y1="207.62" x2="7.08" y2="209.78"/><line class="cls-15" x1="7.08" y1="211.46" x2="7.08" y2="213.62"/><line class="cls-15" x1="7.08" y1="215.3" x2="7.08" y2="217.46"/><line class="cls-15" x1="7.08" y1="219.14" x2="7.08" y2="221.3"/><line class="cls-15" x1="7.08" y1="222.98" x2="7.08" y2="225.14"/><line class="cls-15" x1="7.08" y1="226.82" x2="7.08" y2="228.98"/><line class="cls-15" x1="7.08" y1="230.66" x2="7.08" y2="232.82"/><line class="cls-15" x1="7.08" y1="234.5" x2="7.08" y2="236.66"/><line class="cls-15" x1="7.08" y1="238.34" x2="7.08" y2="240.5"/><line class="cls-15" x1="7.08" y1="242.18" x2="7.08" y2="244.34"/><line class="cls-15" x1="7.08" y1="246.02" x2="7.08" y2="248.18"/><line class="cls-15" x1="7.08" y1="249.86" x2="7.08" y2="252.02"/><line class="cls-15" x1="7.08" y1="253.7" x2="7.08" y2="255.86"/><line class="cls-15" x1="7.08" y1="257.54" x2="7.08" y2="259.7"/><line class="cls-15" x1="7.08" y1="261.38" x2="7.08" y2="263.3"/><line class="cls-15" x1="7.08" y1="265.22" x2="7.08" y2="267.14"/><line class="cls-15" x1="7.08" y1="269.06" x2="7.08" y2="270.98"/><line class="cls-15" x1="7.08" y1="272.66" x2="7.08" y2="274.82"/><line class="cls-15" x1="7.08" y1="276.5" x2="7.08" y2="278.66"/><line class="cls-15" x1="7.08" y1="280.34" x2="7.08" y2="282.5"/><line class="cls-15" x1="7.08" y1="284.18" x2="7.08" y2="286.34"/><line class="cls-15" x1="7.08" y1="288.02" x2="7.08" y2="290.18"/><line class="cls-15" x1="7.08" y1="291.86" x2="7.08" y2="294.02"/><line class="cls-15" x1="7.08" y1="295.7" x2="7.08" y2="297.86"/><line class="cls-15" x1="7.08" y1="299.54" x2="7.08" y2="301.7"/><line class="cls-15" x1="7.08" y1="303.38" x2="7.08" y2="305.54"/><line class="cls-15" x1="7.08" y1="307.22" x2="7.08" y2="309.38"/><line class="cls-15" x1="7.08" y1="311.06" x2="7.08" y2="313.22"/><line class="cls-15" x1="7.08" y1="314.9" x2="7.08" y2="317.06"/><line class="cls-15" x1="7.08" y1="318.74" x2="7.08" y2="320.9"/><line class="cls-15" x1="7.08" y1="322.58" x2="7.08" y2="324.74"/><line class="cls-15" x1="7.08" y1="326.42" x2="7.08" y2="328.58"/><line class="cls-15" x1="7.08" y1="330.26" x2="7.08" y2="332.42"/><line class="cls-15" x1="7.08" y1="334.1" x2="7.08" y2="336.02"/><line class="cls-15" x1="7.08" y1="337.94" x2="7.08" y2="339.86"/><polyline class="cls-15" points="7.08 341.54 7.08 342.98 8.52 342.98"/><line class="cls-15" x1="10.2" y1="342.98" x2="12.36" y2="342.98"/><line class="cls-15" x1="14.04" y1="342.98" x2="16.2" y2="342.98"/><line class="cls-15" x1="17.88" y1="342.98" x2="20.04" y2="342.98"/><line class="cls-15" x1="21.72" y1="342.98" x2="23.88" y2="342.98"/><line class="cls-15" x1="25.56" y1="342.98" x2="27.72" y2="342.98"/><line class="cls-15" x1="29.4" y1="342.98" x2="31.56" y2="342.98"/><line class="cls-15" x1="33.24" y1="342.98" x2="35.4" y2="342.98"/><line class="cls-15" x1="37.08" y1="342.98" x2="39.24" y2="342.98"/><line class="cls-15" x1="40.92" y1="342.98" x2="43.08" y2="342.98"/><line class="cls-15" x1="44.76" y1="342.98" x2="46.92" y2="342.98"/><line class="cls-15" x1="48.6" y1="342.98" x2="50.76" y2="342.98"/><line class="cls-15" x1="52.44" y1="342.98" x2="54.6" y2="342.98"/><line class="cls-15" x1="56.28" y1="342.98" x2="58.44" y2="342.98"/><line class="cls-15" x1="60.12" y1="342.98" x2="62.28" y2="342.98"/><line class="cls-15" x1="63.96" y1="342.98" x2="65.88" y2="342.98"/><line class="cls-15" x1="67.8" y1="342.98" x2="69.72" y2="342.98"/><polyline class="cls-15" points="71.64 342.98 73.08 342.98 73.8 343.7"/><line class="cls-15" x1="75" y1="344.9" x2="76.44" y2="346.58"/><line class="cls-15" x1="77.64" y1="347.78" x2="79.32" y2="349.22"/><line class="cls-15" x1="80.52" y1="350.42" x2="81.96" y2="351.86"/><line class="cls-15" x1="83.16" y1="353.06" x2="84.6" y2="354.5"/><line class="cls-15" x1="85.8" y1="355.7" x2="87.48" y2="357.38"/><line class="cls-15" x1="88.68" y1="358.58" x2="90.12" y2="360.02"/><line class="cls-15" x1="91.32" y1="361.22" x2="92.76" y2="362.66"/><line class="cls-15" x1="93.96" y1="363.86" x2="95.4" y2="365.3"/><line class="cls-15" x1="96.6" y1="366.74" x2="98.28" y2="368.18"/><line class="cls-15" x1="99.48" y1="369.38" x2="100.92" y2="370.82"/><line class="cls-15" x1="102.12" y1="372.02" x2="103.56" y2="373.46"/><line class="cls-15" x1="104.76" y1="374.66" x2="106.44" y2="376.34"/><line class="cls-15" x1="107.64" y1="377.54" x2="109.08" y2="378.98"/><line class="cls-15" x1="110.28" y1="380.18" x2="111.72" y2="381.62"/><line class="cls-15" x1="112.92" y1="382.82" x2="114.36" y2="384.26"/><line class="cls-15" x1="115.56" y1="385.46" x2="117.24" y2="387.14"/><line class="cls-15" x1="118.44" y1="388.34" x2="119.88" y2="389.78"/><line class="cls-15" x1="121.08" y1="390.98" x2="122.52" y2="392.42"/><line class="cls-15" x1="123.72" y1="393.62" x2="125.16" y2="395.3"/><polyline class="cls-15" points="126.36 396.5 127.32 397.22 127.32 399.62"/><line class="cls-15" x1="127.32" y1="401.3" x2="127.32" y2="403.46"/><line class="cls-15" x1="127.32" y1="405.14" x2="127.32" y2="407.3"/><line class="cls-15" x1="127.32" y1="408.98" x2="127.32" y2="411.14"/><line class="cls-15" x1="127.32" y1="412.82" x2="127.32" y2="414.98"/><line class="cls-15" x1="127.32" y1="416.66" x2="127.32" y2="418.82"/><line class="cls-15" x1="127.32" y1="420.5" x2="127.32" y2="422.66"/><line class="cls-15" x1="127.32" y1="424.34" x2="127.32" y2="426.5"/><line class="cls-15" x1="127.32" y1="428.18" x2="127.32" y2="430.34"/><line class="cls-15" x1="127.32" y1="432.02" x2="127.32" y2="434.18"/><line class="cls-15" x1="127.32" y1="435.86" x2="127.32" y2="438.02"/><line class="cls-15" x1="127.32" y1="439.7" x2="127.32" y2="441.62"/><line class="cls-15" x1="127.32" y1="443.54" x2="127.32" y2="445.46"/><line class="cls-15" x1="127.32" y1="447.14" x2="127.32" y2="449.3"/><polyline class="cls-15" points="127.32 450.98 127.32 453.62 129.72 453.62"/><line class="cls-15" x1="131.4" y1="453.62" x2="133.56" y2="453.62"/><line class="cls-15" x1="135.24" y1="453.62" x2="137.4" y2="453.62"/><line class="cls-15" x1="139.08" y1="453.62" x2="141.24" y2="453.62"/><line class="cls-15" x1="142.92" y1="453.62" x2="144.84" y2="453.62"/><line class="cls-15" x1="146.76" y1="453.62" x2="148.68" y2="453.62"/><line class="cls-15" x1="150.36" y1="453.62" x2="152.52" y2="453.62"/><line class="cls-15" x1="154.2" y1="453.62" x2="156.36" y2="453.62"/><line class="cls-15" x1="158.04" y1="453.62" x2="160.2" y2="453.62"/><line class="cls-15" x1="161.88" y1="453.62" x2="164.04" y2="453.62"/><line class="cls-15" x1="165.72" y1="453.62" x2="167.88" y2="453.62"/><line class="cls-15" x1="169.56" y1="453.62" x2="171.72" y2="453.62"/><line class="cls-15" x1="173.4" y1="453.62" x2="175.56" y2="453.62"/><line class="cls-15" x1="177.24" y1="453.62" x2="179.4" y2="453.62"/><line class="cls-15" x1="181.08" y1="453.62" x2="183.24" y2="453.62"/><line class="cls-15" x1="184.92" y1="453.62" x2="187.08" y2="453.62"/><line class="cls-15" x1="188.76" y1="453.62" x2="190.92" y2="453.62"/><line class="cls-15" x1="192.6" y1="453.62" x2="194.76" y2="453.62"/><line class="cls-15" x1="196.44" y1="453.62" x2="198.6" y2="453.62"/><line class="cls-15" x1="200.28" y1="453.62" x2="202.44" y2="453.62"/><line class="cls-15" x1="204.12" y1="453.62" x2="206.28" y2="453.62"/><line class="cls-15" x1="207.96" y1="453.62" x2="210.12" y2="453.62"/><line class="cls-15" x1="211.8" y1="453.62" x2="213.72" y2="453.62"/><line class="cls-15" x1="215.64" y1="453.62" x2="217.56" y2="453.62"/><line class="cls-15" x1="219.48" y1="453.62" x2="221.4" y2="453.62"/><line class="cls-15" x1="223.08" y1="453.62" x2="225.24" y2="453.62"/><line class="cls-15" x1="226.92" y1="453.62" x2="229.08" y2="453.62"/><line class="cls-15" x1="230.76" y1="453.62" x2="232.92" y2="453.62"/><line class="cls-15" x1="234.6" y1="453.62" x2="236.76" y2="453.62"/><line class="cls-15" x1="238.44" y1="453.62" x2="240.6" y2="453.62"/><line class="cls-15" x1="242.28" y1="453.62" x2="244.44" y2="453.62"/><polyline class="cls-15" points="246.12 453.62 248.52 453.62 248.52 450.98"/><line class="cls-15" x1="248.52" y1="449.3" x2="248.52" y2="447.14"/><line class="cls-15" x1="248.52" y1="445.46" x2="248.52" y2="443.54"/><line class="cls-15" x1="248.52" y1="441.62" x2="248.52" y2="439.7"/><line class="cls-15" x1="248.52" y1="438.02" x2="248.52" y2="435.86"/><line class="cls-15" x1="248.52" y1="434.18" x2="248.52" y2="432.02"/><line class="cls-15" x1="248.52" y1="430.34" x2="248.52" y2="428.18"/><line class="cls-15" x1="248.52" y1="426.5" x2="248.52" y2="424.34"/><line class="cls-15" x1="248.52" y1="422.66" x2="248.52" y2="420.5"/><line class="cls-15" x1="248.52" y1="418.82" x2="248.52" y2="416.66"/><line class="cls-15" x1="248.52" y1="414.98" x2="248.52" y2="412.82"/><line class="cls-15" x1="248.52" y1="411.14" x2="248.52" y2="408.98"/><line class="cls-15" x1="248.52" y1="407.3" x2="248.52" y2="405.14"/><line class="cls-15" x1="248.52" y1="403.46" x2="248.52" y2="401.3"/><polyline class="cls-15" points="248.52 399.62 248.52 397.22 249.24 396.5"/><line class="cls-15" x1="250.44" y1="395.3" x2="252.12" y2="393.62"/><line class="cls-15" x1="253.32" y1="392.42" x2="254.76" y2="390.98"/><line class="cls-15" x1="255.96" y1="389.78" x2="257.4" y2="388.34"/><line class="cls-15" x1="258.6" y1="387.14" x2="260.04" y2="385.46"/><line class="cls-15" x1="261.48" y1="384.26" x2="262.92" y2="382.82"/><line class="cls-15" x1="264.12" y1="381.62" x2="265.56" y2="380.18"/><line class="cls-15" x1="266.76" y1="378.98" x2="268.2" y2="377.54"/><line class="cls-15" x1="269.4" y1="376.34" x2="271.08" y2="374.66"/><line class="cls-15" x1="272.28" y1="373.46" x2="273.72" y2="372.02"/><line class="cls-15" x1="274.92" y1="370.82" x2="276.36" y2="369.38"/><line class="cls-15" x1="277.56" y1="368.18" x2="279" y2="366.74"/><line class="cls-15" x1="280.2" y1="365.3" x2="281.88" y2="363.86"/><line class="cls-15" x1="283.08" y1="362.66" x2="284.52" y2="361.22"/><line class="cls-15" x1="285.72" y1="360.02" x2="287.16" y2="358.58"/><line class="cls-15" x1="288.36" y1="357.38" x2="290.04" y2="355.7"/><line class="cls-15" x1="291.24" y1="354.5" x2="292.68" y2="353.06"/><line class="cls-15" x1="293.88" y1="351.86" x2="295.32" y2="350.42"/><line class="cls-15" x1="296.52" y1="349.22" x2="297.96" y2="347.78"/><line class="cls-15" x1="299.16" y1="346.58" x2="300.84" y2="344.9"/><polyline class="cls-15" points="302.04 343.7 302.76 342.98 304.2 342.98"/><line class="cls-15" x1="305.88" y1="342.98" x2="308.04" y2="342.98"/><line class="cls-15" x1="309.72" y1="342.98" x2="311.88" y2="342.98"/><line class="cls-15" x1="313.56" y1="342.98" x2="315.72" y2="342.98"/><line class="cls-15" x1="317.4" y1="342.98" x2="319.56" y2="342.98"/><line class="cls-15" x1="321.24" y1="342.98" x2="323.4" y2="342.98"/><line class="cls-15" x1="325.08" y1="342.98" x2="327.24" y2="342.98"/><line class="cls-15" x1="328.92" y1="342.98" x2="331.08" y2="342.98"/><line class="cls-15" x1="332.76" y1="342.98" x2="334.92" y2="342.98"/><line class="cls-15" x1="336.6" y1="342.98" x2="338.76" y2="342.98"/><line class="cls-15" x1="340.44" y1="342.98" x2="342.6" y2="342.98"/><line class="cls-15" x1="344.28" y1="342.98" x2="346.44" y2="342.98"/><line class="cls-15" x1="348.12" y1="342.98" x2="350.28" y2="342.98"/><line class="cls-15" x1="351.96" y1="342.98" x2="354.12" y2="342.98"/><line class="cls-15" x1="355.8" y1="342.98" x2="357.96" y2="342.98"/><line class="cls-15" x1="359.64" y1="342.98" x2="361.8" y2="342.98"/><line class="cls-15" x1="363.48" y1="342.98" x2="365.4" y2="342.98"/><polyline class="cls-15" points="367.32 342.98 368.76 342.98 368.76 341.54"/><line class="cls-15" x1="368.76" y1="339.86" x2="368.76" y2="337.94"/><line class="cls-15" x1="368.76" y1="336.02" x2="368.76" y2="334.1"/><line class="cls-15" x1="368.76" y1="332.42" x2="368.76" y2="330.26"/><line class="cls-15" x1="368.76" y1="328.58" x2="368.76" y2="326.42"/><line class="cls-15" x1="368.76" y1="324.74" x2="368.76" y2="322.58"/><line class="cls-15" x1="368.76" y1="320.9" x2="368.76" y2="318.74"/><line class="cls-15" x1="368.76" y1="317.06" x2="368.76" y2="314.9"/><line class="cls-15" x1="368.76" y1="313.22" x2="368.76" y2="311.06"/><line class="cls-15" x1="368.76" y1="309.38" x2="368.76" y2="307.22"/><line class="cls-15" x1="368.76" y1="305.54" x2="368.76" y2="303.38"/><line class="cls-15" x1="368.76" y1="301.7" x2="368.76" y2="299.54"/><line class="cls-15" x1="368.76" y1="297.86" x2="368.76" y2="295.7"/><line class="cls-15" x1="368.76" y1="294.02" x2="368.76" y2="291.86"/><line class="cls-15" x1="368.76" y1="290.18" x2="368.76" y2="288.02"/><line class="cls-15" x1="368.76" y1="286.34" x2="368.76" y2="284.18"/><line class="cls-15" x1="368.76" y1="282.5" x2="368.76" y2="280.34"/><line class="cls-15" x1="368.76" y1="278.66" x2="368.76" y2="276.5"/><line class="cls-15" x1="368.76" y1="274.82" x2="368.76" y2="272.66"/><line class="cls-15" x1="368.76" y1="270.98" x2="368.76" y2="269.06"/><line class="cls-15" x1="368.76" y1="267.14" x2="368.76" y2="265.22"/><line class="cls-15" x1="368.76" y1="263.3" x2="368.76" y2="261.38"/><line class="cls-15" x1="368.76" y1="259.7" x2="368.76" y2="257.54"/><line class="cls-15" x1="368.76" y1="255.86" x2="368.76" y2="253.7"/><line class="cls-15" x1="368.76" y1="252.02" x2="368.76" y2="249.86"/><line class="cls-15" x1="368.76" y1="248.18" x2="368.76" y2="246.02"/><line class="cls-15" x1="368.76" y1="244.34" x2="368.76" y2="242.18"/><line class="cls-15" x1="368.76" y1="240.5" x2="368.76" y2="238.34"/><line class="cls-15" x1="368.76" y1="236.66" x2="368.76" y2="234.5"/><line class="cls-15" x1="368.76" y1="232.82" x2="368.76" y2="230.66"/><line class="cls-15" x1="368.76" y1="228.98" x2="368.76" y2="226.82"/><line class="cls-15" x1="368.76" y1="225.14" x2="368.76" y2="222.98"/><line class="cls-15" x1="368.76" y1="221.3" x2="368.76" y2="219.14"/><line class="cls-15" x1="368.76" y1="217.46" x2="368.76" y2="215.3"/><line class="cls-15" x1="368.76" y1="213.62" x2="368.76" y2="211.46"/><line class="cls-15" x1="368.76" y1="209.78" x2="368.76" y2="207.62"/><line class="cls-15" x1="368.76" y1="205.94" x2="368.76" y2="203.78"/><line class="cls-15" x1="368.76" y1="202.1" x2="368.76" y2="199.94"/><line class="cls-15" x1="368.76" y1="198.26" x2="368.76" y2="196.34"/><line class="cls-15" x1="368.76" y1="194.42" x2="368.76" y2="192.5"/><line class="cls-15" x1="368.76" y1="190.82" x2="368.76" y2="188.66"/><line class="cls-15" x1="368.76" y1="186.98" x2="368.76" y2="184.82"/><line class="cls-15" x1="368.76" y1="183.14" x2="368.76" y2="180.98"/><line class="cls-15" x1="368.76" y1="179.3" x2="368.76" y2="177.14"/><line class="cls-15" x1="368.76" y1="175.46" x2="368.76" y2="173.3"/><line class="cls-15" x1="368.76" y1="171.62" x2="368.76" y2="169.46"/><line class="cls-15" x1="368.76" y1="167.78" x2="368.76" y2="165.62"/><line class="cls-15" x1="368.76" y1="163.94" x2="368.76" y2="161.78"/><line class="cls-15" x1="368.76" y1="160.1" x2="368.76" y2="157.94"/><line class="cls-15" x1="368.76" y1="156.26" x2="368.76" y2="154.1"/><line class="cls-15" x1="368.76" y1="152.42" x2="368.76" y2="150.26"/><line class="cls-15" x1="368.76" y1="148.58" x2="368.76" y2="146.42"/><line class="cls-15" x1="368.76" y1="144.74" x2="368.76" y2="142.58"/><line class="cls-15" x1="368.76" y1="140.9" x2="368.76" y2="138.74"/><line class="cls-15" x1="368.76" y1="137.06" x2="368.76" y2="134.9"/><line class="cls-15" x1="368.76" y1="133.22" x2="368.76" y2="131.06"/><line class="cls-15" x1="368.76" y1="129.38" x2="368.76" y2="127.46"/><line class="cls-15" x1="368.76" y1="125.54" x2="368.76" y2="123.62"/><line class="cls-15" x1="368.76" y1="121.7" x2="368.76" y2="119.78"/><line class="cls-15" x1="368.76" y1="118.1" x2="368.76" y2="115.94"/><line class="cls-15" x1="368.76" y1="114.26" x2="368.76" y2="112.1"/><line class="cls-15" x1="368.76" y1="110.42" x2="368.76" y2="108.26"/><line class="cls-15" x1="368.76" y1="106.58" x2="368.76" y2="104.42"/><line class="cls-15" x1="368.76" y1="102.74" x2="368.76" y2="100.58"/><line class="cls-15" x1="368.76" y1="98.9" x2="368.76" y2="96.74"/><line class="cls-15" x1="368.76" y1="95.06" x2="368.76" y2="92.9"/><line class="cls-15" x1="368.76" y1="91.22" x2="368.76" y2="89.06"/><line class="cls-15" x1="368.76" y1="87.38" x2="368.76" y2="85.22"/><line class="cls-15" x1="368.76" y1="83.54" x2="368.76" y2="81.38"/><line class="cls-15" x1="368.76" y1="79.7" x2="368.76" y2="77.54"/><line class="cls-15" x1="368.76" y1="75.86" x2="368.76" y2="73.7"/><line class="cls-15" x1="368.76" y1="72.02" x2="368.76" y2="69.86"/><line class="cls-15" x1="368.76" y1="68.18" x2="368.76" y2="66.02"/><line class="cls-15" x1="368.76" y1="64.34" x2="368.76" y2="62.18"/><line class="cls-15" x1="368.76" y1="60.5" x2="368.76" y2="58.34"/><line class="cls-15" x1="368.76" y1="56.66" x2="368.76" y2="54.74"/><line class="cls-15" x1="368.76" y1="52.82" x2="368.76" y2="50.9"/><line class="cls-15" x1="368.76" y1="48.98" x2="368.76" y2="47.06"/><line class="cls-15" x1="368.76" y1="45.38" x2="368.76" y2="43.22"/><line class="cls-15" x1="368.76" y1="41.54" x2="368.76" y2="39.38"/><line class="cls-15" x1="368.76" y1="37.7" x2="368.76" y2="35.54"/><line class="cls-15" x1="368.76" y1="33.86" x2="368.76" y2="31.7"/><line class="cls-15" x1="368.76" y1="30.02" x2="368.76" y2="27.86"/><line class="cls-15" x1="368.76" y1="26.18" x2="368.76" y2="24.02"/><polyline class="cls-15" points="368.76 22.34 368.76 20.9 366.6 20.9"/><line class="cls-15" x1="364.92" y1="20.9" x2="363" y2="20.9"/><line class="cls-15" x1="361.08" y1="20.9" x2="359.16" y2="20.9"/><line class="cls-15" x1="357.24" y1="20.9" x2="355.32" y2="20.9"/><line class="cls-15" x1="353.64" y1="20.9" x2="351.48" y2="20.9"/><line class="cls-15" x1="349.8" y1="20.9" x2="347.64" y2="20.9"/><line class="cls-15" x1="345.96" y1="20.9" x2="343.8" y2="20.9"/><line class="cls-15" x1="342.12" y1="20.9" x2="339.96" y2="20.9"/><line class="cls-15" x1="338.28" y1="20.9" x2="336.12" y2="20.9"/><line class="cls-15" x1="334.44" y1="20.9" x2="332.28" y2="20.9"/><line class="cls-15" x1="330.6" y1="20.9" x2="328.44" y2="20.9"/><line class="cls-15" x1="326.76" y1="20.9" x2="324.6" y2="20.9"/><line class="cls-15" x1="322.92" y1="20.9" x2="320.76" y2="20.9"/><line class="cls-15" x1="319.08" y1="20.9" x2="316.92" y2="20.9"/><line class="cls-15" x1="315.24" y1="20.9" x2="313.08" y2="20.9"/><line class="cls-15" x1="311.4" y1="20.9" x2="309.24" y2="20.9"/><line class="cls-15" x1="307.56" y1="20.9" x2="305.4" y2="20.9"/><line class="cls-15" x1="303.72" y1="20.9" x2="301.56" y2="20.9"/><line class="cls-15" x1="299.88" y1="20.9" x2="297.72" y2="20.9"/><line class="cls-15" x1="296.04" y1="20.9" x2="293.88" y2="20.9"/><line class="cls-15" x1="292.2" y1="20.9" x2="290.28" y2="20.9"/><line class="cls-15" x1="288.36" y1="20.9" x2="286.44" y2="20.9"/><line class="cls-15" x1="284.52" y1="20.9" x2="282.6" y2="20.9"/><line class="cls-15" x1="280.92" y1="20.9" x2="278.76" y2="20.9"/><line class="cls-15" x1="277.08" y1="20.9" x2="274.92" y2="20.9"/><line class="cls-15" x1="273.24" y1="20.9" x2="271.08" y2="20.9"/><line class="cls-15" x1="269.4" y1="20.9" x2="267.24" y2="20.9"/><line class="cls-15" x1="265.56" y1="20.9" x2="263.4" y2="20.9"/><line class="cls-15" x1="261.72" y1="20.9" x2="259.56" y2="20.9"/><line class="cls-15" x1="257.88" y1="20.9" x2="255.72" y2="20.9"/><line class="cls-15" x1="254.04" y1="20.9" x2="251.88" y2="20.9"/><line class="cls-15" x1="250.2" y1="20.9" x2="248.04" y2="20.9"/><line class="cls-15" x1="246.36" y1="20.9" x2="244.2" y2="20.9"/><line class="cls-15" x1="242.52" y1="20.9" x2="240.36" y2="20.9"/><line class="cls-15" x1="238.68" y1="20.9" x2="236.52" y2="20.9"/><line class="cls-15" x1="234.84" y1="20.9" x2="232.68" y2="20.9"/><line class="cls-15" x1="231" y1="20.9" x2="228.84" y2="20.9"/><line class="cls-15" x1="227.16" y1="20.9" x2="225" y2="20.9"/><line class="cls-15" x1="223.32" y1="20.9" x2="221.4" y2="20.9"/><line class="cls-15" x1="219.48" y1="20.9" x2="217.56" y2="20.9"/><line class="cls-15" x1="215.64" y1="20.9" x2="213.72" y2="20.9"/><line class="cls-15" x1="212.04" y1="20.9" x2="209.88" y2="20.9"/><line class="cls-15" x1="208.2" y1="20.9" x2="206.04" y2="20.9"/><line class="cls-15" x1="204.36" y1="20.9" x2="202.2" y2="20.9"/><line class="cls-15" x1="200.52" y1="20.9" x2="198.36" y2="20.9"/><line class="cls-15" x1="196.68" y1="20.9" x2="194.52" y2="20.9"/><line class="cls-15" x1="192.84" y1="20.9" x2="190.68" y2="20.9"/><line class="cls-15" x1="189" y1="20.9" x2="186.84" y2="20.9"/><line class="cls-15" x1="185.16" y1="20.9" x2="183" y2="20.9"/><line class="cls-15" x1="181.32" y1="20.9" x2="179.16" y2="20.9"/><line class="cls-15" x1="177.48" y1="20.9" x2="175.32" y2="20.9"/><line class="cls-15" x1="173.64" y1="20.9" x2="171.48" y2="20.9"/><line class="cls-15" x1="169.8" y1="20.9" x2="167.64" y2="20.9"/><line class="cls-15" x1="165.96" y1="20.9" x2="163.8" y2="20.9"/><line class="cls-15" x1="162.12" y1="20.9" x2="159.96" y2="20.9"/><line class="cls-15" x1="158.28" y1="20.9" x2="156.12" y2="20.9"/><line class="cls-15" x1="154.44" y1="20.9" x2="152.28" y2="20.9"/><line class="cls-15" x1="150.6" y1="20.9" x2="148.68" y2="20.9"/><line class="cls-15" x1="146.76" y1="20.9" x2="144.84" y2="20.9"/><line class="cls-15" x1="142.92" y1="20.9" x2="141" y2="20.9"/><line class="cls-15" x1="139.32" y1="20.9" x2="137.16" y2="20.9"/><line class="cls-15" x1="135.48" y1="20.9" x2="133.32" y2="20.9"/><line class="cls-15" x1="131.64" y1="20.9" x2="129.48" y2="20.9"/><line class="cls-15" x1="127.8" y1="20.9" x2="125.64" y2="20.9"/><line class="cls-15" x1="123.96" y1="20.9" x2="121.8" y2="20.9"/><line class="cls-15" x1="120.12" y1="20.9" x2="117.96" y2="20.9"/><line class="cls-15" x1="116.28" y1="20.9" x2="114.12" y2="20.9"/><line class="cls-15" x1="112.44" y1="20.9" x2="110.28" y2="20.9"/><line class="cls-15" x1="108.6" y1="20.9" x2="106.44" y2="20.9"/><line class="cls-15" x1="104.76" y1="20.9" x2="102.6" y2="20.9"/><line class="cls-15" x1="100.92" y1="20.9" x2="98.76" y2="20.9"/><line class="cls-15" x1="97.08" y1="20.9" x2="94.92" y2="20.9"/><line class="cls-15" x1="93.24" y1="20.9" x2="91.08" y2="20.9"/><line class="cls-15" x1="89.4" y1="20.9" x2="87.24" y2="20.9"/><line class="cls-15" x1="85.56" y1="20.9" x2="83.4" y2="20.9"/><line class="cls-15" x1="81.72" y1="20.9" x2="79.56" y2="20.9"/><line class="cls-15" x1="77.88" y1="20.9" x2="75.96" y2="20.9"/><line class="cls-15" x1="74.04" y1="20.9" x2="72.12" y2="20.9"/><line class="cls-15" x1="70.44" y1="20.9" x2="68.28" y2="20.9"/><line class="cls-15" x1="66.6" y1="20.9" x2="64.44" y2="20.9"/><line class="cls-15" x1="62.76" y1="20.9" x2="60.6" y2="20.9"/><line class="cls-15" x1="58.92" y1="20.9" x2="56.76" y2="20.9"/><line class="cls-15" x1="55.08" y1="20.9" x2="52.92" y2="20.9"/><line class="cls-15" x1="51.24" y1="20.9" x2="49.08" y2="20.9"/><line class="cls-15" x1="47.4" y1="20.9" x2="45.24" y2="20.9"/><line class="cls-15" x1="43.56" y1="20.9" x2="41.4" y2="20.9"/><line class="cls-15" x1="39.72" y1="20.9" x2="37.56" y2="20.9"/><line class="cls-15" x1="35.88" y1="20.9" x2="33.72" y2="20.9"/><line class="cls-15" x1="32.04" y1="20.9" x2="29.88" y2="20.9"/><line class="cls-15" x1="28.2" y1="20.9" x2="26.04" y2="20.9"/><line class="cls-15" x1="24.36" y1="20.9" x2="22.2" y2="20.9"/><line class="cls-15" x1="20.52" y1="20.9" x2="18.36" y2="20.9"/><line class="cls-15" x1="16.68" y1="20.9" x2="14.52" y2="20.9"/><line class="cls-15" x1="12.84" y1="20.9" x2="10.68" y2="20.9"/><line class="cls-15" x1="9" y1="20.9" x2="7.08" y2="20.9"/><polyline class="cls-15" points="195.48 456.98 196.44 449.3 198.84 442.1 202.92 435.86 208.44 430.34 214.92 426.26 222.12 423.86 229.56 422.9"/><polyline class="cls-15" points="226.68 456.98 226.68 422.9 229.56 422.9 229.56 456.98 226.68 456.98"/><polyline class="cls-15" points="195.48 456.98 194.76 447.14 192.12 437.54 187.8 428.42 182.28 420.26 175.08 413.3 167.16 407.54 158.04 403.46 148.44 400.82 138.6 400.1"/><polyline class="cls-15" points="141.48 456.98 141.48 400.1 138.6 400.1 138.6 456.98 141.48 456.98"/><polyline class="cls-15" points="229.56 453.62 138.6 453.62 138.6 460.34 229.56 460.34 229.56 453.62 138.6 453.62 138.6 460.34 229.56 460.34 229.56 453.62"/><line class="cls-17" x1="26.52" y1="74.18" x2="41.16" y2="74.18"/><line class="cls-17" x1="52.68" y1="74.18" x2="63.96" y2="74.18"/><line class="cls-17" x1="75.24" y1="74.18" x2="86.52" y2="74.18"/><line class="cls-17" x1="98.04" y1="74.18" x2="109.32" y2="74.18"/><line class="cls-17" x1="120.6" y1="74.18" x2="131.88" y2="74.18"/><line class="cls-17" x1="143.4" y1="74.18" x2="154.68" y2="74.18"/><line class="cls-17" x1="165.96" y1="74.18" x2="177.24" y2="74.18"/><line class="cls-17" x1="188.76" y1="74.18" x2="200.04" y2="74.18"/><line class="cls-17" x1="211.32" y1="74.18" x2="222.6" y2="74.18"/><line class="cls-17" x1="234.12" y1="74.18" x2="245.4" y2="74.18"/><line class="cls-17" x1="256.68" y1="74.18" x2="267.96" y2="74.18"/><line class="cls-17" x1="279.48" y1="74.18" x2="290.76" y2="74.18"/><line class="cls-17" x1="302.04" y1="74.18" x2="313.32" y2="74.18"/><line class="cls-17" x1="324.84" y1="74.18" x2="336.12" y2="74.18"/><line class="cls-17" x1="347.4" y1="74.18" x2="358.68" y2="74.18"/><g class="cls-18"><line class="cls-17" x1="370.2" y1="74.18" x2="384.84" y2="74.18"/></g><line class="cls-17" x1="26.52" y1="244.34" x2="41.16" y2="244.34"/><line class="cls-17" x1="52.68" y1="244.34" x2="63.96" y2="244.34"/><line class="cls-17" x1="75.24" y1="244.34" x2="86.52" y2="244.34"/><line class="cls-17" x1="98.04" y1="244.34" x2="109.32" y2="244.34"/><line class="cls-17" x1="120.6" y1="244.34" x2="131.88" y2="244.34"/><line class="cls-17" x1="143.4" y1="244.34" x2="154.68" y2="244.34"/><line class="cls-17" x1="165.96" y1="244.34" x2="177.24" y2="244.34"/><line class="cls-17" x1="188.76" y1="244.34" x2="200.04" y2="244.34"/><line class="cls-17" x1="211.32" y1="244.34" x2="222.6" y2="244.34"/><line class="cls-17" x1="234.12" y1="244.34" x2="245.4" y2="244.34"/><line class="cls-17" x1="256.68" y1="244.34" x2="267.96" y2="244.34"/><line class="cls-17" x1="279.48" y1="244.34" x2="290.76" y2="244.34"/><line class="cls-17" x1="302.04" y1="244.34" x2="313.32" y2="244.34"/><line class="cls-17" x1="324.84" y1="244.34" x2="336.12" y2="244.34"/><line class="cls-17" x1="347.4" y1="244.34" x2="358.68" y2="244.34"/><g class="cls-19"><line class="cls-17" x1="370.2" y1="244.34" x2="384.84" y2="244.34"/></g><line class="cls-20" x1="404.28" y1="17.54" x2="404.28" y2="74.18"/><line class="cls-17" x1="404.28" y1="74.18" x2="399.96" y2="70.1"/><line class="cls-17" x1="404.28" y1="74.18" x2="408.6" y2="78.5"/><line class="cls-20" x1="404.28" y1="74.18" x2="411.48" y2="74.18"/><line class="cls-20" x1="404.28" y1="74.18" x2="390.12" y2="74.18"/><line class="cls-17" x1="404.28" y1="17.54" x2="399.96" y2="13.22"/><line class="cls-17" x1="404.28" y1="17.54" x2="408.6" y2="21.86"/><line class="cls-20" x1="404.28" y1="17.54" x2="411.48" y2="17.54"/><line class="cls-20" x1="404.28" y1="17.54" x2="390.12" y2="17.54"/><rect class="cls-21" x="390.84" y="0.26" width="9.6" height="91.68"/><text class="cls-22" transform="translate(398.52 91.7) rotate(-90)"><tspan class="cls-23">Graph</tspan><tspan class="cls-24" x="18" y="0">i</tspan><tspan class="cls-25" x="19.44" y="0">c</tspan><tspan class="cls-23" x="22.79" y="0">_</tspan><tspan class="cls-26" x="26.39" y="0">Q</tspan><tspan class="cls-23" x="31.19" y="0">uadBed_O</tspan><tspan class="cls-27" x="62.2" y="0">f</tspan><tspan class="cls-28" x="63.88" y="0">f</tspan><tspan class="cls-29" x="65.8" y="0">s</tspan><tspan class="cls-30" x="69.15" y="0">e</tspan><tspan class="cls-28" x="72.75" y="0">t</tspan><tspan class="cls-31" x="74.67" y="0">_BV</tspan><tspan x="86.93" y="0">N</tspan></text><line class="cls-20" x1="425.88" y1="17.54" x2="425.88" y2="244.34"/><line class="cls-17" x1="425.88" y1="244.34" x2="421.8" y2="240.02"/><line class="cls-17" x1="425.88" y1="244.34" x2="430.2" y2="248.66"/><line class="cls-20" x1="425.88" y1="244.34" x2="433.08" y2="244.34"/><line class="cls-20" x1="425.88" y1="244.34" x2="411.72" y2="244.34"/><line class="cls-17" x1="425.88" y1="17.54" x2="421.8" y2="13.22"/><line class="cls-17" x1="425.88" y1="17.54" x2="430.2" y2="21.86"/><line class="cls-20" x1="425.88" y1="17.54" x2="433.08" y2="17.54"/><line class="cls-20" x1="425.88" y1="17.54" x2="411.72" y2="17.54"/><rect class="cls-21" x="412.44" y="78.02" width="9.6" height="106.08"/><text class="cls-22" transform="translate(420.12 183.86) rotate(-90)"><tspan class="cls-31">Graph</tspan><tspan class="cls-32" x="18" y="0">i</tspan><tspan class="cls-29" x="19.44" y="0">c</tspan><tspan class="cls-33" x="22.79" y="0">_</tspan><tspan class="cls-34" x="26.16" y="0">D</tspan><tspan class="cls-31" x="30.96" y="0">oub</tspan><tspan class="cls-24" x="41.76" y="0">l</tspan><tspan class="cls-31" x="43.2" y="0">eB</tspan><tspan class="cls-33" x="51.13" y="0">e</tspan><tspan class="cls-31" x="54.5" y="0">d_O</tspan><tspan class="cls-28" x="66.77" y="0">ff</tspan><tspan class="cls-29" x="70.6" y="0">s</tspan><tspan class="cls-33" x="73.96" y="0">e</tspan><tspan class="cls-28" x="77.32" y="0">t</tspan><tspan class="cls-31" x="79.24" y="0">_BV</tspan><tspan class="cls-34" x="91.5" y="0">ND</tspan><tspan x="101.1" y="0">H</tspan></text></g></g></svg>