<svg xmlns="http://www.w3.org/2000/svg" xmlns:xlink="http://www.w3.org/1999/xlink" viewBox="0 0 497.16 447.96"><defs><style>.cls-1,.cls-14,.cls-15,.cls-16,.cls-17,.cls-2{fill:none;}.cls-1{clip-rule:evenodd;}.cls-3{clip-path:url(#clip-path);}.cls-4{clip-path:url(#clip-path-2);}.cls-5{fill:#c6d3b4;}.cls-11,.cls-6{font-size:4.08px;font-family:ArialMT, Arial;}.cls-11,.cls-7{letter-spacing:-0.03em;}.cls-8{letter-spacing:0.02em;}.cls-9{letter-spacing:-0.09em;}.cls-10{letter-spacing:0.02em;}.cls-12{letter-spacing:-0.04em;}.cls-13{letter-spacing:0em;}.cls-14,.cls-15{stroke:#000;}.cls-14,.cls-15,.cls-16,.cls-17{stroke-linecap:round;stroke-linejoin:round;}.cls-14,.cls-17{stroke-width:0.24px;}.cls-15,.cls-16{stroke-width:0.48px;}.cls-16,.cls-17{stroke:red;}.cls-18{fill:#fff;}.cls-19,.cls-29{font-size:8.05px;fill:red;font-family:ArialNarrow, Arial;}.cls-20{letter-spacing:-0.01em;}.cls-21{letter-spacing:-0.03em;}.cls-22{letter-spacing:0em;}.cls-23{letter-spacing:-0.02em;}.cls-24,.cls-29{letter-spacing:-0.01em;}.cls-25{letter-spacing:0em;}.cls-26{letter-spacing:0.01em;}.cls-27{letter-spacing:0em;}.cls-28{letter-spacing:0.01em;}.cls-30{letter-spacing:0em;}</style><clipPath id="clip-path" transform="translate(-178.07 -92.16)"><path class="cls-1" d="M458.15,167.76l-.48.48-.24.48-.24.24-.24.72-.24,51.12.24.24v.72h.24v.72h.24l.72.72.72.24,15.6.24,104.64.24v-.24l1.44-.48L581,223l.72-.72.24-53h-.24v-.48L581,168l-.48-.24m-347.28,0-.48.48-.24.48-.24.24-.24.48-.24.24v52.08h.24l.24.24v.48h.24l.72.72.72.24,51.6.24,68.64.24v-.24l1.44-.48,1-1,.24-.72.24-51.6h-.24v-.72h-.24v-.48l-1-1Zm26.88-67.68v19.68H226.07V363.6h79v-1.2h11V361h-.24v-1.44h-.24v-1.44h-.24v-1.44h-.24v-5.76l-.24-.24c-.15-2.2.92-4.16,1.92-6l.24-.24.48-1,1.92-1.92.48-.24.24-.24.48-.24.24-.24.48-.24.48-.48.72-.24,1.92-1,2.88-1h6.24l3.6,1.2,2.4,1.2.24.24.48.24.24.24.48.24,2.88,2.88v.48h.24v.48h.24l.24.24v.48h.24v.48h.24v.48h.24v.72h.24V348h.24v.72h.24l-.24,7.68-1,5.76,11,.24v59.52h111.6V365.28l54-54h66.24V119.76H553.67V100.08Z"/></clipPath><clipPath id="clip-path-2" transform="translate(-178.07 -92.16)"><rect class="cls-2" width="841.92" height="595.2"/></clipPath></defs><title>PushIt - Floor Plan - SP-Room-Bed-CutOut</title><g id="Layer_2" data-name="Layer 2"><g id="Layer_1-2" data-name="Layer 1"><g class="cls-3"><g class="cls-4"><rect class="cls-5" x="48" y="7.92" width="361.68" height="321.84"/></g></g><text class="cls-6" transform="translate(164.16 127.68)">?</text><text class="cls-6" transform="translate(154.8 140.4)"><tspan class="cls-7">6500</tspan><tspan class="cls-8" x="8.64" y="0"> </tspan><tspan class="cls-9" x="9.84" y="0">x</tspan><tspan class="cls-10" x="11.52" y="0"> </tspan><tspan class="cls-7" x="12.72" y="0">580</tspan><tspan x="19.2" y="0">0</tspan></text><text class="cls-6" transform="translate(162.24 132)"><tspan class="cls-7">5</tspan><tspan class="cls-10" x="2.16" y="0">.</tspan><tspan class="cls-7" x="3.36" y="0">5</tspan><tspan x="5.52" y="0">0</tspan></text><text class="cls-11" transform="translate(153.6 136.08)">31<tspan class="cls-8" x="4.32" y="0">.</tspan><tspan x="5.52" y="0">63</tspan><tspan class="cls-8" x="9.84" y="0"> </tspan><tspan class="cls-12" x="11.04" y="0">(</tspan><tspan x="12.24" y="0">30</tspan><tspan class="cls-8" x="16.55" y="0">.</tspan><tspan x="17.75" y="0">40</tspan><tspan class="cls-13" x="22.07" y="0">)</tspan></text><text class="cls-6" transform="translate(164.16 123.36)">?</text><polyline class="cls-14" points="416.4 1.2 41.28 1.2 41.28 278.16 171.12 278.16 171.12 336.48 296.4 336.48 296.4 276.24 346.32 226.08 416.4 226.08 416.4 1.2"/><polyline class="cls-14" points="289.44 329.76 177.84 329.76 177.84 271.44 48 271.44 48 7.92 409.68 7.92 409.68 219.12 343.68 219.12 289.44 273.36 289.44 329.76"/><line class="cls-14" x1="48" y1="27.6" x2="48" y2="30.24"/><line class="cls-14" x1="48" y1="31.92" x2="48" y2="33.84"/><line class="cls-14" x1="48" y1="35.76" x2="48" y2="37.68"/><line class="cls-14" x1="48" y1="39.36" x2="48" y2="41.52"/><line class="cls-14" x1="48" y1="43.2" x2="48" y2="45.36"/><line class="cls-14" x1="48" y1="47.04" x2="48" y2="49.2"/><line class="cls-14" x1="48" y1="50.88" x2="48" y2="53.04"/><line class="cls-14" x1="48" y1="54.72" x2="48" y2="56.88"/><line class="cls-14" x1="48" y1="58.56" x2="48" y2="60.72"/><line class="cls-14" x1="48" y1="62.4" x2="48" y2="64.56"/><line class="cls-14" x1="48" y1="66.24" x2="48" y2="68.4"/><line class="cls-14" x1="48" y1="70.08" x2="48" y2="72.24"/><line class="cls-14" x1="48" y1="73.92" x2="48" y2="76.08"/><line class="cls-14" x1="48" y1="77.76" x2="48" y2="79.92"/><line class="cls-14" x1="48" y1="81.6" x2="48" y2="83.76"/><line class="cls-14" x1="48" y1="85.44" x2="48" y2="87.6"/><line class="cls-14" x1="48" y1="89.28" x2="48" y2="91.2"/><line class="cls-14" x1="48" y1="93.12" x2="48" y2="95.04"/><line class="cls-14" x1="48" y1="96.96" x2="48" y2="98.88"/><line class="cls-14" x1="48" y1="100.56" x2="48" y2="102.72"/><line class="cls-14" x1="48" y1="104.4" x2="48" y2="106.56"/><line class="cls-14" x1="48" y1="108.24" x2="48" y2="110.4"/><line class="cls-14" x1="48" y1="112.08" x2="48" y2="114.24"/><line class="cls-14" x1="48" y1="115.92" x2="48" y2="118.08"/><line class="cls-14" x1="48" y1="119.76" x2="48" y2="121.92"/><line class="cls-14" x1="48" y1="123.6" x2="48" y2="125.76"/><line class="cls-14" x1="48" y1="127.44" x2="48" y2="129.6"/><line class="cls-14" x1="48" y1="131.28" x2="48" y2="133.44"/><line class="cls-14" x1="48" y1="135.12" x2="48" y2="137.28"/><line class="cls-14" x1="48" y1="138.96" x2="48" y2="141.12"/><line class="cls-14" x1="48" y1="142.8" x2="48" y2="144.96"/><line class="cls-14" x1="48" y1="146.64" x2="48" y2="148.8"/><line class="cls-14" x1="48" y1="150.48" x2="48" y2="152.4"/><line class="cls-14" x1="48" y1="154.32" x2="48" y2="156.24"/><line class="cls-14" x1="48" y1="157.92" x2="48" y2="160.08"/><line class="cls-14" x1="48" y1="161.76" x2="48" y2="163.92"/><line class="cls-14" x1="48" y1="165.6" x2="48" y2="167.76"/><line class="cls-14" x1="48" y1="169.44" x2="48" y2="171.6"/><line class="cls-14" x1="48" y1="173.28" x2="48" y2="175.44"/><line class="cls-14" x1="48" y1="177.12" x2="48" y2="179.28"/><line class="cls-14" x1="48" y1="180.96" x2="48" y2="183.12"/><line class="cls-14" x1="48" y1="184.8" x2="48" y2="186.96"/><line class="cls-14" x1="48" y1="188.64" x2="48" y2="190.8"/><line class="cls-14" x1="48" y1="192.48" x2="48" y2="194.64"/><line class="cls-14" x1="48" y1="196.32" x2="48" y2="198.48"/><line class="cls-14" x1="48" y1="200.16" x2="48" y2="202.32"/><line class="cls-14" x1="48" y1="204" x2="48" y2="206.16"/><line class="cls-14" x1="48" y1="207.84" x2="48" y2="210"/><line class="cls-14" x1="48" y1="211.68" x2="48" y2="213.6"/><line class="cls-14" x1="48" y1="215.52" x2="48" y2="217.44"/><line class="cls-14" x1="48" y1="219.12" x2="48" y2="221.28"/><line class="cls-14" x1="48" y1="222.96" x2="48" y2="225.12"/><line class="cls-14" x1="48" y1="226.8" x2="48" y2="228.96"/><line class="cls-14" x1="48" y1="230.64" x2="48" y2="232.8"/><line class="cls-14" x1="48" y1="234.48" x2="48" y2="236.64"/><line class="cls-14" x1="48" y1="238.32" x2="48" y2="240.48"/><line class="cls-14" x1="48" y1="242.16" x2="48" y2="244.32"/><line class="cls-14" x1="48" y1="246" x2="48" y2="248.16"/><line class="cls-14" x1="48" y1="249.84" x2="48" y2="252"/><line class="cls-14" x1="48" y1="253.68" x2="48" y2="255.84"/><line class="cls-14" x1="48" y1="257.52" x2="48" y2="259.68"/><line class="cls-14" x1="48" y1="261.36" x2="48" y2="263.52"/><line class="cls-14" x1="48" y1="265.2" x2="48" y2="267.36"/><line class="cls-14" x1="48" y1="269.04" x2="48" y2="271.44"/><line class="cls-14" x1="48" y1="278.16" x2="49.44" y2="278.16"/><line class="cls-14" x1="51.12" y1="278.16" x2="53.28" y2="278.16"/><line class="cls-14" x1="54.96" y1="278.16" x2="57.12" y2="278.16"/><line class="cls-14" x1="58.8" y1="278.16" x2="60.96" y2="278.16"/><line class="cls-14" x1="62.64" y1="278.16" x2="64.8" y2="278.16"/><line class="cls-14" x1="66.48" y1="278.16" x2="68.64" y2="278.16"/><line class="cls-14" x1="70.32" y1="278.16" x2="72.48" y2="278.16"/><line class="cls-14" x1="74.16" y1="278.16" x2="76.32" y2="278.16"/><line class="cls-14" x1="78" y1="278.16" x2="80.16" y2="278.16"/><line class="cls-14" x1="81.84" y1="278.16" x2="83.76" y2="278.16"/><line class="cls-14" x1="85.68" y1="278.16" x2="87.6" y2="278.16"/><line class="cls-14" x1="89.28" y1="278.16" x2="91.44" y2="278.16"/><line class="cls-14" x1="93.12" y1="278.16" x2="95.28" y2="278.16"/><line class="cls-14" x1="96.96" y1="278.16" x2="99.12" y2="278.16"/><line class="cls-14" x1="100.8" y1="278.16" x2="102.96" y2="278.16"/><line class="cls-14" x1="104.64" y1="278.16" x2="106.8" y2="278.16"/><line class="cls-14" x1="108.48" y1="278.16" x2="110.64" y2="278.16"/><line class="cls-14" x1="112.32" y1="278.16" x2="114.48" y2="278.16"/><line class="cls-14" x1="116.16" y1="278.16" x2="118.32" y2="278.16"/><line class="cls-14" x1="120" y1="278.16" x2="122.16" y2="278.16"/><line class="cls-14" x1="123.84" y1="278.16" x2="126" y2="278.16"/><line class="cls-14" x1="127.68" y1="278.16" x2="129.84" y2="278.16"/><line class="cls-14" x1="131.52" y1="278.16" x2="133.68" y2="278.16"/><line class="cls-14" x1="135.36" y1="278.16" x2="137.52" y2="278.16"/><line class="cls-14" x1="139.2" y1="278.16" x2="141.36" y2="278.16"/><line class="cls-14" x1="143.04" y1="278.16" x2="144.96" y2="278.16"/><line class="cls-14" x1="146.88" y1="278.16" x2="148.8" y2="278.16"/><line class="cls-14" x1="150.48" y1="278.16" x2="152.64" y2="278.16"/><line class="cls-14" x1="154.32" y1="278.16" x2="156.48" y2="278.16"/><line class="cls-14" x1="158.16" y1="278.16" x2="160.32" y2="278.16"/><line class="cls-14" x1="162" y1="278.16" x2="164.16" y2="278.16"/><line class="cls-14" x1="165.84" y1="278.16" x2="168" y2="278.16"/><line class="cls-14" x1="169.68" y1="278.16" x2="171.12" y2="278.16"/><line class="cls-14" x1="177.84" y1="278.16" x2="177.84" y2="280.08"/><line class="cls-14" x1="177.84" y1="281.76" x2="177.84" y2="283.92"/><line class="cls-14" x1="177.84" y1="285.6" x2="177.84" y2="287.76"/><line class="cls-14" x1="177.84" y1="289.44" x2="177.84" y2="291.6"/><line class="cls-14" x1="177.84" y1="293.28" x2="177.84" y2="295.44"/><line class="cls-14" x1="177.84" y1="297.12" x2="177.84" y2="299.28"/><line class="cls-14" x1="177.84" y1="300.96" x2="177.84" y2="303.12"/><line class="cls-14" x1="177.84" y1="304.8" x2="177.84" y2="306.96"/><line class="cls-14" x1="177.84" y1="308.64" x2="177.84" y2="310.8"/><line class="cls-14" x1="177.84" y1="312.48" x2="177.84" y2="314.64"/><line class="cls-14" x1="177.84" y1="316.32" x2="177.84" y2="318.48"/><line class="cls-14" x1="177.84" y1="320.16" x2="177.84" y2="322.32"/><line class="cls-14" x1="177.84" y1="324" x2="177.84" y2="326.16"/><polyline class="cls-14" points="177.84 327.84 177.84 329.76 179.28 329.76"/><line class="cls-14" x1="180.96" y1="329.76" x2="183.12" y2="329.76"/><line class="cls-14" x1="184.8" y1="329.76" x2="186.96" y2="329.76"/><line class="cls-14" x1="188.64" y1="329.76" x2="190.8" y2="329.76"/><line class="cls-14" x1="192.48" y1="329.76" x2="194.64" y2="329.76"/><line class="cls-14" x1="196.32" y1="329.76" x2="198.48" y2="329.76"/><line class="cls-14" x1="200.16" y1="329.76" x2="202.32" y2="329.76"/><line class="cls-14" x1="204" y1="329.76" x2="206.16" y2="329.76"/><line class="cls-14" x1="207.84" y1="329.76" x2="209.76" y2="329.76"/><line class="cls-14" x1="211.68" y1="329.76" x2="213.6" y2="329.76"/><line class="cls-14" x1="215.52" y1="329.76" x2="217.44" y2="329.76"/><line class="cls-14" x1="219.12" y1="329.76" x2="221.28" y2="329.76"/><line class="cls-14" x1="222.96" y1="329.76" x2="225.12" y2="329.76"/><line class="cls-14" x1="226.8" y1="329.76" x2="228.96" y2="329.76"/><line class="cls-14" x1="230.64" y1="329.76" x2="232.8" y2="329.76"/><line class="cls-14" x1="234.48" y1="329.76" x2="236.64" y2="329.76"/><line class="cls-14" x1="238.32" y1="329.76" x2="240.48" y2="329.76"/><line class="cls-14" x1="242.16" y1="329.76" x2="244.32" y2="329.76"/><line class="cls-14" x1="246" y1="329.76" x2="248.16" y2="329.76"/><line class="cls-14" x1="249.84" y1="329.76" x2="252" y2="329.76"/><line class="cls-14" x1="253.68" y1="329.76" x2="255.84" y2="329.76"/><line class="cls-14" x1="257.52" y1="329.76" x2="259.68" y2="329.76"/><line class="cls-14" x1="261.36" y1="329.76" x2="263.52" y2="329.76"/><line class="cls-14" x1="265.2" y1="329.76" x2="267.36" y2="329.76"/><line class="cls-14" x1="269.04" y1="329.76" x2="270.96" y2="329.76"/><line class="cls-14" x1="272.88" y1="329.76" x2="274.8" y2="329.76"/><line class="cls-14" x1="276.48" y1="329.76" x2="278.64" y2="329.76"/><line class="cls-14" x1="280.32" y1="329.76" x2="282.48" y2="329.76"/><line class="cls-14" x1="284.16" y1="329.76" x2="286.32" y2="329.76"/><polyline class="cls-14" points="288 329.76 289.44 329.76 289.44 327.36"/><line class="cls-14" x1="289.44" y1="325.44" x2="289.44" y2="323.52"/><line class="cls-14" x1="289.44" y1="321.84" x2="289.44" y2="319.68"/><line class="cls-14" x1="289.44" y1="318" x2="289.44" y2="315.84"/><line class="cls-14" x1="289.44" y1="314.16" x2="289.44" y2="312"/><line class="cls-14" x1="289.44" y1="310.32" x2="289.44" y2="308.16"/><line class="cls-14" x1="289.44" y1="306.48" x2="289.44" y2="304.32"/><line class="cls-14" x1="289.44" y1="302.64" x2="289.44" y2="300.48"/><line class="cls-14" x1="289.44" y1="298.8" x2="289.44" y2="296.64"/><line class="cls-14" x1="289.44" y1="294.96" x2="289.44" y2="292.8"/><line class="cls-14" x1="289.44" y1="291.12" x2="289.44" y2="288.96"/><line class="cls-14" x1="289.44" y1="287.28" x2="289.44" y2="285.12"/><line class="cls-14" x1="289.44" y1="283.44" x2="289.44" y2="281.28"/><line class="cls-14" x1="289.44" y1="279.6" x2="289.44" y2="277.44"/><polyline class="cls-14" points="289.44 275.76 289.44 273.36 290.16 272.64"/><line class="cls-14" x1="291.36" y1="271.44" x2="293.04" y2="270"/><line class="cls-14" x1="294.24" y1="268.8" x2="295.68" y2="267.12"/><line class="cls-14" x1="296.88" y1="265.92" x2="298.32" y2="264.48"/><line class="cls-14" x1="299.52" y1="263.28" x2="300.96" y2="261.84"/><line class="cls-14" x1="302.16" y1="260.64" x2="303.84" y2="258.96"/><line class="cls-14" x1="305.04" y1="257.76" x2="306.48" y2="256.32"/><line class="cls-14" x1="307.68" y1="255.12" x2="309.12" y2="253.68"/><line class="cls-14" x1="310.32" y1="252.48" x2="312" y2="251.04"/><line class="cls-14" x1="313.2" y1="249.84" x2="314.64" y2="248.16"/><line class="cls-14" x1="315.84" y1="246.96" x2="317.28" y2="245.52"/><line class="cls-14" x1="318.48" y1="244.32" x2="319.92" y2="242.88"/><line class="cls-14" x1="321.12" y1="241.68" x2="322.8" y2="240.24"/><line class="cls-14" x1="324" y1="239.04" x2="325.44" y2="237.36"/><line class="cls-14" x1="326.64" y1="236.16" x2="328.08" y2="234.72"/><line class="cls-14" x1="329.28" y1="233.52" x2="330.72" y2="232.08"/><line class="cls-14" x1="331.92" y1="230.88" x2="333.6" y2="229.2"/><line class="cls-14" x1="334.8" y1="228" x2="336.24" y2="226.56"/><line class="cls-14" x1="337.44" y1="225.36" x2="338.88" y2="223.92"/><line class="cls-14" x1="340.08" y1="222.72" x2="341.76" y2="221.28"/><polyline class="cls-14" points="342.96 220.08 343.68 219.12 345.12 219.12"/><line class="cls-14" x1="346.8" y1="219.12" x2="348.96" y2="219.12"/><line class="cls-14" x1="350.64" y1="219.12" x2="352.8" y2="219.12"/><line class="cls-14" x1="354.48" y1="219.12" x2="356.64" y2="219.12"/><line class="cls-14" x1="358.32" y1="219.12" x2="360.48" y2="219.12"/><line class="cls-14" x1="362.16" y1="219.12" x2="364.32" y2="219.12"/><line class="cls-14" x1="366" y1="219.12" x2="368.16" y2="219.12"/><line class="cls-14" x1="369.84" y1="219.12" x2="372" y2="219.12"/><line class="cls-14" x1="373.68" y1="219.12" x2="375.84" y2="219.12"/><line class="cls-14" x1="377.52" y1="219.12" x2="379.68" y2="219.12"/><line class="cls-14" x1="381.36" y1="219.12" x2="383.52" y2="219.12"/><line class="cls-14" x1="385.2" y1="219.12" x2="387.12" y2="219.12"/><line class="cls-14" x1="389.04" y1="219.12" x2="390.96" y2="219.12"/><line class="cls-14" x1="392.88" y1="219.12" x2="394.8" y2="219.12"/><line class="cls-14" x1="396.48" y1="219.12" x2="398.64" y2="219.12"/><line class="cls-14" x1="400.32" y1="219.12" x2="402.48" y2="219.12"/><line class="cls-14" x1="404.16" y1="219.12" x2="406.32" y2="219.12"/><polyline class="cls-14" points="408 219.12 409.68 219.12 409.68 217.92"/><line class="cls-14" x1="409.68" y1="216.24" x2="409.68" y2="214.32"/><line class="cls-14" x1="409.68" y1="212.4" x2="409.68" y2="210.48"/><line class="cls-14" x1="409.68" y1="208.8" x2="409.68" y2="206.64"/><line class="cls-14" x1="409.68" y1="204.96" x2="409.68" y2="202.8"/><line class="cls-14" x1="409.68" y1="201.12" x2="409.68" y2="198.96"/><line class="cls-14" x1="409.68" y1="197.28" x2="409.68" y2="195.12"/><line class="cls-14" x1="409.68" y1="193.44" x2="409.68" y2="191.28"/><line class="cls-14" x1="409.68" y1="189.6" x2="409.68" y2="187.44"/><line class="cls-14" x1="409.68" y1="185.76" x2="409.68" y2="183.6"/><line class="cls-14" x1="409.68" y1="181.92" x2="409.68" y2="179.76"/><line class="cls-14" x1="409.68" y1="178.08" x2="409.68" y2="175.92"/><line class="cls-14" x1="409.68" y1="174.24" x2="409.68" y2="172.08"/><line class="cls-14" x1="409.68" y1="170.4" x2="409.68" y2="168.24"/><line class="cls-14" x1="409.68" y1="166.56" x2="409.68" y2="164.4"/><line class="cls-14" x1="409.68" y1="162.72" x2="409.68" y2="160.56"/><line class="cls-14" x1="409.68" y1="158.88" x2="409.68" y2="156.72"/><line class="cls-14" x1="409.68" y1="155.04" x2="409.68" y2="153.12"/><line class="cls-14" x1="409.68" y1="151.2" x2="409.68" y2="149.28"/><line class="cls-14" x1="409.68" y1="147.6" x2="409.68" y2="145.44"/><line class="cls-14" x1="409.68" y1="143.76" x2="409.68" y2="141.6"/><line class="cls-14" x1="409.68" y1="139.92" x2="409.68" y2="137.76"/><line class="cls-14" x1="409.68" y1="136.08" x2="409.68" y2="133.92"/><line class="cls-14" x1="409.68" y1="132.24" x2="409.68" y2="130.08"/><line class="cls-14" x1="409.68" y1="128.4" x2="409.68" y2="126.24"/><line class="cls-14" x1="409.68" y1="124.56" x2="409.68" y2="122.4"/><line class="cls-14" x1="409.68" y1="120.72" x2="409.68" y2="118.56"/><line class="cls-14" x1="409.68" y1="116.88" x2="409.68" y2="114.72"/><line class="cls-14" x1="409.68" y1="113.04" x2="409.68" y2="110.88"/><line class="cls-14" x1="409.68" y1="109.2" x2="409.68" y2="107.04"/><line class="cls-14" x1="409.68" y1="105.36" x2="409.68" y2="103.2"/><line class="cls-14" x1="409.68" y1="101.52" x2="409.68" y2="99.36"/><line class="cls-14" x1="409.68" y1="97.68" x2="409.68" y2="95.52"/><line class="cls-14" x1="409.68" y1="93.84" x2="409.68" y2="91.92"/><line class="cls-14" x1="409.68" y1="90" x2="409.68" y2="88.08"/><line class="cls-14" x1="409.68" y1="86.4" x2="409.68" y2="84.24"/><line class="cls-14" x1="409.68" y1="82.56" x2="409.68" y2="80.4"/><line class="cls-14" x1="409.68" y1="78.72" x2="409.68" y2="76.56"/><line class="cls-14" x1="409.68" y1="74.88" x2="409.68" y2="72.72"/><line class="cls-14" x1="409.68" y1="71.04" x2="409.68" y2="68.88"/><line class="cls-14" x1="409.68" y1="67.2" x2="409.68" y2="65.04"/><line class="cls-14" x1="409.68" y1="63.36" x2="409.68" y2="61.2"/><line class="cls-14" x1="409.68" y1="59.52" x2="409.68" y2="57.36"/><line class="cls-14" x1="409.68" y1="55.68" x2="409.68" y2="53.52"/><line class="cls-14" x1="409.68" y1="51.84" x2="409.68" y2="49.68"/><line class="cls-14" x1="409.68" y1="48" x2="409.68" y2="45.84"/><line class="cls-14" x1="409.68" y1="44.16" x2="409.68" y2="42"/><line class="cls-14" x1="409.68" y1="40.32" x2="409.68" y2="38.16"/><line class="cls-14" x1="409.68" y1="36.48" x2="409.68" y2="34.56"/><line class="cls-14" x1="409.68" y1="32.64" x2="409.68" y2="30.72"/><line class="cls-14" x1="409.68" y1="28.8" x2="409.68" y2="27.6"/><line class="cls-14" x1="375.6" y1="7.92" x2="373.2" y2="7.92"/><line class="cls-14" x1="371.52" y1="7.92" x2="369.36" y2="7.92"/><line class="cls-14" x1="367.68" y1="7.92" x2="365.52" y2="7.92"/><line class="cls-14" x1="363.84" y1="7.92" x2="361.68" y2="7.92"/><line class="cls-14" x1="360" y1="7.92" x2="357.84" y2="7.92"/><line class="cls-14" x1="356.16" y1="7.92" x2="354" y2="7.92"/><line class="cls-14" x1="352.32" y1="7.92" x2="350.16" y2="7.92"/><line class="cls-14" x1="348.48" y1="7.92" x2="346.32" y2="7.92"/><line class="cls-14" x1="344.64" y1="7.92" x2="342.48" y2="7.92"/><line class="cls-14" x1="340.8" y1="7.92" x2="338.64" y2="7.92"/><line class="cls-14" x1="336.96" y1="7.92" x2="334.8" y2="7.92"/><line class="cls-14" x1="333.12" y1="7.92" x2="330.96" y2="7.92"/><line class="cls-14" x1="329.28" y1="7.92" x2="327.36" y2="7.92"/><line class="cls-14" x1="325.44" y1="7.92" x2="323.52" y2="7.92"/><line class="cls-14" x1="321.6" y1="7.92" x2="319.68" y2="7.92"/><line class="cls-14" x1="318" y1="7.92" x2="315.84" y2="7.92"/><line class="cls-14" x1="314.16" y1="7.92" x2="312" y2="7.92"/><line class="cls-14" x1="310.32" y1="7.92" x2="308.16" y2="7.92"/><line class="cls-14" x1="306.48" y1="7.92" x2="304.32" y2="7.92"/><line class="cls-14" x1="302.64" y1="7.92" x2="300.48" y2="7.92"/><line class="cls-14" x1="298.8" y1="7.92" x2="296.64" y2="7.92"/><line class="cls-14" x1="294.96" y1="7.92" x2="292.8" y2="7.92"/><line class="cls-14" x1="291.12" y1="7.92" x2="288.96" y2="7.92"/><line class="cls-14" x1="287.28" y1="7.92" x2="285.12" y2="7.92"/><line class="cls-14" x1="283.44" y1="7.92" x2="281.28" y2="7.92"/><line class="cls-14" x1="279.6" y1="7.92" x2="277.44" y2="7.92"/><line class="cls-14" x1="275.76" y1="7.92" x2="273.6" y2="7.92"/><line class="cls-14" x1="271.92" y1="7.92" x2="269.76" y2="7.92"/><line class="cls-14" x1="268.08" y1="7.92" x2="266.16" y2="7.92"/><line class="cls-14" x1="264.24" y1="7.92" x2="262.32" y2="7.92"/><line class="cls-14" x1="260.64" y1="7.92" x2="258.48" y2="7.92"/><line class="cls-14" x1="256.8" y1="7.92" x2="254.64" y2="7.92"/><line class="cls-14" x1="252.96" y1="7.92" x2="250.8" y2="7.92"/><line class="cls-14" x1="249.12" y1="7.92" x2="246.96" y2="7.92"/><line class="cls-14" x1="245.28" y1="7.92" x2="243.12" y2="7.92"/><line class="cls-14" x1="241.44" y1="7.92" x2="239.28" y2="7.92"/><line class="cls-14" x1="237.6" y1="7.92" x2="235.44" y2="7.92"/><line class="cls-14" x1="233.76" y1="7.92" x2="231.6" y2="7.92"/><line class="cls-14" x1="229.92" y1="7.92" x2="227.76" y2="7.92"/><line class="cls-14" x1="226.08" y1="7.92" x2="223.92" y2="7.92"/><line class="cls-14" x1="222.24" y1="7.92" x2="220.08" y2="7.92"/><line class="cls-14" x1="218.4" y1="7.92" x2="216.24" y2="7.92"/><line class="cls-14" x1="214.56" y1="7.92" x2="212.4" y2="7.92"/><line class="cls-14" x1="210.72" y1="7.92" x2="208.56" y2="7.92"/><line class="cls-14" x1="206.88" y1="7.92" x2="204.96" y2="7.92"/><line class="cls-14" x1="203.04" y1="7.92" x2="201.12" y2="7.92"/><line class="cls-14" x1="199.44" y1="7.92" x2="197.28" y2="7.92"/><line class="cls-14" x1="195.6" y1="7.92" x2="193.44" y2="7.92"/><line class="cls-14" x1="191.76" y1="7.92" x2="189.6" y2="7.92"/><line class="cls-14" x1="187.92" y1="7.92" x2="185.76" y2="7.92"/><line class="cls-14" x1="184.08" y1="7.92" x2="181.92" y2="7.92"/><line class="cls-14" x1="180.24" y1="7.92" x2="178.08" y2="7.92"/><line class="cls-14" x1="176.4" y1="7.92" x2="174.24" y2="7.92"/><line class="cls-14" x1="172.56" y1="7.92" x2="170.4" y2="7.92"/><line class="cls-14" x1="168.72" y1="7.92" x2="166.56" y2="7.92"/><line class="cls-14" x1="164.88" y1="7.92" x2="162.72" y2="7.92"/><line class="cls-14" x1="161.04" y1="7.92" x2="158.88" y2="7.92"/><line class="cls-14" x1="157.2" y1="7.92" x2="155.04" y2="7.92"/><line class="cls-14" x1="153.36" y1="7.92" x2="151.2" y2="7.92"/><line class="cls-14" x1="149.52" y1="7.92" x2="147.36" y2="7.92"/><line class="cls-14" x1="145.68" y1="7.92" x2="143.76" y2="7.92"/><line class="cls-14" x1="141.84" y1="7.92" x2="139.92" y2="7.92"/><line class="cls-14" x1="138.24" y1="7.92" x2="136.08" y2="7.92"/><line class="cls-14" x1="134.4" y1="7.92" x2="132.24" y2="7.92"/><line class="cls-14" x1="130.56" y1="7.92" x2="128.4" y2="7.92"/><line class="cls-14" x1="126.72" y1="7.92" x2="124.56" y2="7.92"/><line class="cls-14" x1="122.88" y1="7.92" x2="120.72" y2="7.92"/><line class="cls-14" x1="119.04" y1="7.92" x2="116.88" y2="7.92"/><line class="cls-14" x1="115.2" y1="7.92" x2="113.04" y2="7.92"/><line class="cls-14" x1="111.36" y1="7.92" x2="109.2" y2="7.92"/><line class="cls-14" x1="107.52" y1="7.92" x2="105.36" y2="7.92"/><line class="cls-14" x1="103.68" y1="7.92" x2="101.52" y2="7.92"/><line class="cls-14" x1="99.84" y1="7.92" x2="97.68" y2="7.92"/><line class="cls-14" x1="96" y1="7.92" x2="93.84" y2="7.92"/><line class="cls-14" x1="92.16" y1="7.92" x2="90" y2="7.92"/><line class="cls-14" x1="88.32" y1="7.92" x2="86.4" y2="7.92"/><line class="cls-14" x1="84.48" y1="7.92" x2="82.08" y2="7.92"/><polyline class="cls-15" points="141.84 263.04 143.04 263.28 144.72 263.52"/><polyline class="cls-15" points="162.96 263.04 161.52 263.28 160.08 263.52"/><line class="cls-15" x1="138.96" y1="259.92" x2="138.96" y2="260.4"/><polyline class="cls-15" points="138.96 259.92 138.72 258.24 138.96 256.8"/><polyline class="cls-15" points="141.84 263.04 139.92 262.08 138.96 260.4"/><line class="cls-15" x1="165.84" y1="259.92" x2="165.6" y2="260.4"/><polyline class="cls-15" points="165.84 259.92 165.84 258.24 165.6 256.8"/><polyline class="cls-15" points="162.96 263.04 164.64 262.08 165.6 260.4"/><line class="cls-14" x1="166.56" y1="271.44" x2="138.24" y2="271.44"/><polyline class="cls-14" points="166.8 253.92 165.36 251.52 163.44 249.6"/><polyline class="cls-14" points="168 258.96 167.76 256.32 166.8 253.92"/><polyline class="cls-14" points="166.56 271.44 167.52 265.2 168 258.72"/><polyline class="cls-14" points="136.8 258.72 137.04 265.2 138.24 271.44"/><polyline class="cls-14" points="158.4 246.72 155.52 245.76 152.4 245.52"/><polyline class="cls-14" points="163.44 249.6 161.04 247.92 158.4 246.72"/><polyline class="cls-14" points="138 253.92 137.04 256.32 136.8 258.96"/><polyline class="cls-14" points="141.36 249.6 139.44 251.52 138 253.92"/><polyline class="cls-14" points="146.4 246.72 143.76 247.92 141.36 249.6"/><polyline class="cls-14" points="152.4 245.52 149.28 245.76 146.4 246.72"/><polyline class="cls-15" points="138 270.24 166.8 270.24 167.76 264.48 168 258.72 167.76 256.32 166.8 253.92 165.36 251.52 163.44 249.6 161.04 247.92 158.4 246.72 155.52 245.76 152.4 245.52 149.28 245.76 146.4 246.72 143.76 247.92 141.36 249.6 139.44 251.52 138 253.92 137.04 256.32 136.8 258.72 137.04 264.48 138 270.24"/><polyline class="cls-15" points="126.96 271.44 177.84 271.44 177.84 270.24 126.96 270.24 126.96 271.44"/><line class="cls-14" x1="176.16" y1="75.6" x2="56.64" y2="75.6"/><polyline class="cls-14" points="179.04 78.48 178.08 76.32 176.16 75.6"/><line class="cls-14" x1="179.04" y1="128.88" x2="179.04" y2="78.48"/><polyline class="cls-14" points="176.16 131.76 178.08 130.8 179.04 128.88"/><line class="cls-14" x1="56.64" y1="131.76" x2="176.16" y2="131.76"/><polyline class="cls-14" points="53.76 128.88 54.72 130.8 56.64 131.76"/><line class="cls-14" x1="53.76" y1="78.48" x2="53.76" y2="128.88"/><polyline class="cls-14" points="56.64 75.6 54.72 76.32 53.76 78.48"/><polyline class="cls-15" points="85.44 131.76 85.44 130.32 57.84 130.32 57.84 131.76 85.44 131.76"/><polyline class="cls-15" points="171.36 77.04 171.36 75.6 131.04 75.6 131.04 77.04 171.36 77.04"/><polyline class="cls-15" points="84.96 77.04 84.96 75.6 57.84 75.6 57.84 77.04 84.96 77.04"/><line class="cls-15" x1="177.12" y1="80.88" x2="178.56" y2="80.88"/><line class="cls-15" x1="177.12" y1="126.24" x2="177.12" y2="80.88"/><line class="cls-15" x1="178.56" y1="126.24" x2="177.12" y2="126.24"/><line class="cls-15" x1="178.56" y1="80.88" x2="178.56" y2="126.24"/><line class="cls-15" x1="55.68" y1="81.12" x2="54" y2="81.12"/><line class="cls-15" x1="55.68" y1="126.24" x2="55.68" y2="81.12"/><line class="cls-15" x1="54" y1="126.24" x2="55.68" y2="126.24"/><line class="cls-15" x1="54" y1="81.12" x2="54" y2="126.24"/><line class="cls-15" x1="82.32" y1="126.72" x2="58.56" y2="126.72"/><line class="cls-15" x1="82.32" y1="80.16" x2="82.32" y2="126.72"/><line class="cls-15" x1="58.56" y1="80.16" x2="82.32" y2="80.16"/><line class="cls-15" x1="58.56" y1="126.72" x2="58.56" y2="80.16"/><line class="cls-15" x1="174" y1="77.76" x2="58.8" y2="77.76"/><polyline class="cls-15" points="176.88 80.64 175.92 78.48 174 77.76"/><line class="cls-15" x1="176.88" y1="126.72" x2="176.88" y2="80.64"/><polyline class="cls-15" points="174 129.6 175.92 128.64 176.88 126.72"/><line class="cls-15" x1="58.8" y1="129.6" x2="174" y2="129.6"/><polyline class="cls-15" points="55.92 126.72 56.88 128.64 58.8 129.6"/><line class="cls-15" x1="55.92" y1="80.64" x2="55.92" y2="126.72"/><polyline class="cls-15" points="58.8 77.76 56.88 78.48 55.92 80.64"/><polyline class="cls-15" points="53.76 78.48 53.76 128.88 53.76 129.6 54.24 130.32 54.72 130.8 55.2 131.28 55.92 131.52 56.64 131.76 176.16 131.76 176.88 131.52 177.6 131.28 178.08 130.8 178.56 130.32 178.8 129.6 179.04 128.88 179.04 78.48 178.8 77.76 178.56 77.04 178.08 76.32 177.6 75.84 176.88 75.6 176.16 75.6 56.64 75.6 55.92 75.6 55.2 75.84 54.72 76.32 54.24 77.04 53.76 77.76 53.76 78.48"/><line class="cls-14" x1="281.52" y1="75.6" x2="401.04" y2="75.6"/><polyline class="cls-14" points="278.64 78.48 279.6 76.32 281.52 75.6"/><line class="cls-14" x1="278.64" y1="128.88" x2="278.64" y2="78.48"/><polyline class="cls-14" points="281.52 131.76 279.6 130.8 278.64 128.88"/><line class="cls-14" x1="401.04" y1="131.76" x2="281.52" y2="131.76"/><polyline class="cls-14" points="403.92 128.88 403.2 130.8 401.04 131.76"/><line class="cls-14" x1="403.92" y1="78.48" x2="403.92" y2="128.88"/><polyline class="cls-14" points="401.04 75.6 403.2 76.32 403.92 78.48"/><polyline class="cls-15" points="372.48 131.76 372.48 130.32 399.84 130.32 399.84 131.76 372.48 131.76"/><polyline class="cls-15" points="286.32 77.04 286.32 75.6 326.64 75.6 326.64 77.04 286.32 77.04"/><polyline class="cls-15" points="372.72 77.04 372.72 75.6 400.08 75.6 400.08 77.04 372.72 77.04"/><line class="cls-15" x1="280.56" y1="80.88" x2="279.12" y2="80.88"/><line class="cls-15" x1="280.56" y1="126.24" x2="280.56" y2="80.88"/><line class="cls-15" x1="279.12" y1="126.24" x2="280.56" y2="126.24"/><line class="cls-15" x1="279.12" y1="80.88" x2="279.12" y2="126.24"/><line class="cls-15" x1="402" y1="81.12" x2="403.68" y2="81.12"/><line class="cls-15" x1="402" y1="126.24" x2="402" y2="81.12"/><line class="cls-15" x1="403.68" y1="126.24" x2="402" y2="126.24"/><line class="cls-15" x1="403.68" y1="81.12" x2="403.68" y2="126.24"/><line class="cls-15" x1="375.36" y1="126.72" x2="399.36" y2="126.72"/><line class="cls-15" x1="375.36" y1="80.16" x2="375.36" y2="126.72"/><line class="cls-15" x1="399.36" y1="80.16" x2="375.36" y2="80.16"/><line class="cls-15" x1="399.36" y1="126.72" x2="399.36" y2="80.16"/><line class="cls-15" x1="283.68" y1="77.76" x2="398.88" y2="77.76"/><polyline class="cls-15" points="280.8 80.64 281.76 78.48 283.68 77.76"/><line class="cls-15" x1="280.8" y1="126.72" x2="280.8" y2="80.64"/><polyline class="cls-15" points="283.68 129.6 281.76 128.64 280.8 126.72"/><line class="cls-15" x1="398.88" y1="129.6" x2="283.68" y2="129.6"/><polyline class="cls-15" points="401.76 126.72 401.04 128.64 398.88 129.6"/><line class="cls-15" x1="401.76" y1="80.64" x2="401.76" y2="126.72"/><polyline class="cls-15" points="398.88 77.76 401.04 78.48 401.76 80.64"/><polyline class="cls-15" points="403.92 78.48 403.92 77.76 403.68 77.04 403.2 76.32 402.48 75.84 401.76 75.6 401.04 75.6 281.52 75.6 280.8 75.6 280.08 75.84 279.6 76.32 279.12 77.04 278.88 77.76 278.64 78.48 278.64 128.88 278.88 129.6 279.12 130.32 279.6 130.8 280.08 131.28 280.8 131.52 281.52 131.76 401.04 131.76 401.76 131.52 402.48 131.28 403.2 130.8 403.68 130.32 403.92 129.6 403.92 128.88 403.92 78.48"/><polyline class="cls-14" points="246.24 333.12 246.96 325.68 249.6 318.48 253.68 312 258.96 306.48 265.44 302.4 272.64 300 280.08 299.04"/><polyline class="cls-14" points="277.2 333.12 277.2 299.04 280.08 299.04 280.08 333.12 277.2 333.12"/><polyline class="cls-14" points="246.24 333.12 245.28 323.28 242.64 313.68 238.56 304.56 232.8 296.64 225.84 289.44 217.68 283.92 208.56 279.6 199.2 276.96 189.12 276.24"/><polyline class="cls-14" points="192 333.12 192 276.24 189.12 276.24 189.12 333.12 192 333.12"/><polyline class="cls-14" points="280.08 329.76 189.12 329.76 189.12 336.48 280.08 336.48 280.08 329.76 189.12 329.76 189.12 336.48 280.08 336.48 280.08 329.76"/><polyline class="cls-14" points="358.56 7.92 375.6 7.92 409.68 7.92"/><line class="cls-14" x1="375.6" y1="27.6" x2="409.68" y2="27.6"/><line class="cls-14" x1="375.6" y1="7.92" x2="409.68" y2="7.92"/><line class="cls-14" x1="375.6" y1="27.6" x2="375.6" y2="7.92"/><line class="cls-14" x1="409.68" y1="27.6" x2="409.68" y2="7.92"/><polyline class="cls-15" points="375.6 27.6 409.68 27.6 409.68 7.92 375.6 7.92 375.6 27.6"/><line class="cls-15" x1="375.6" y1="7.92" x2="409.68" y2="7.92"/><polyline class="cls-15" points="355.68 7.92 356.4 12.96 358.56 17.76 361.68 21.84 365.76 24.96 370.56 27.12 375.6 27.6 409.68 27.6"/><line class="cls-15" x1="375.6" y1="7.92" x2="375.6" y2="27.6"/><line class="cls-15" x1="409.68" y1="7.92" x2="409.68" y2="27.6"/><line class="cls-15" x1="355.68" y1="7.92" x2="375.6" y2="7.92"/><polyline class="cls-14" points="99.12 7.92 82.08 7.92 48 7.92"/><line class="cls-14" x1="82.08" y1="27.6" x2="48" y2="27.6"/><line class="cls-14" x1="82.08" y1="7.92" x2="48" y2="7.92"/><line class="cls-14" x1="82.08" y1="27.6" x2="82.08" y2="7.92"/><line class="cls-14" x1="48" y1="27.6" x2="48" y2="7.92"/><polyline class="cls-15" points="82.08 27.6 82.08 7.92 48 7.92 48 27.6 82.08 27.6"/><line class="cls-15" x1="82.08" y1="7.92" x2="48" y2="7.92"/><polyline class="cls-15" points="102 7.92 101.28 12.96 99.36 17.76 96.24 21.84 91.92 24.96 87.12 27.12 82.08 27.6 48 27.6"/><line class="cls-15" x1="82.08" y1="7.92" x2="82.08" y2="27.6"/><line class="cls-15" x1="48" y1="7.92" x2="48" y2="27.6"/><line class="cls-15" x1="102" y1="7.92" x2="82.08" y2="7.92"/><line class="cls-16" x1="413.04" y1="222.72" x2="413.04" y2="229.44"/><line class="cls-16" x1="413.04" y1="240.72" x2="413.04" y2="252"/><line class="cls-16" x1="413.04" y1="263.52" x2="413.04" y2="274.8"/><line class="cls-16" x1="413.04" y1="286.08" x2="413.04" y2="297.36"/><line class="cls-16" x1="413.04" y1="308.88" x2="413.04" y2="320.16"/><line class="cls-16" x1="413.04" y1="331.44" x2="413.04" y2="342.72"/><line class="cls-16" x1="413.04" y1="354" x2="413.04" y2="360.96"/><line class="cls-16" x1="292.8" y1="333.12" x2="299.76" y2="333.12"/><line class="cls-16" x1="311.04" y1="333.12" x2="322.32" y2="333.12"/><line class="cls-16" x1="333.6" y1="333.12" x2="345.12" y2="333.12"/><line class="cls-16" x1="356.4" y1="333.12" x2="367.68" y2="333.12"/><line class="cls-16" x1="378.96" y1="333.12" x2="390.24" y2="333.12"/><line class="cls-16" x1="401.76" y1="333.12" x2="413.04" y2="333.12"/><line class="cls-16" x1="424.32" y1="333.12" x2="431.04" y2="333.12"/><line class="cls-16" x1="289.44" y1="274.8" x2="298.08" y2="274.8"/><line class="cls-16" x1="309.36" y1="274.8" x2="320.64" y2="274.8"/><line class="cls-16" x1="331.92" y1="274.8" x2="343.2" y2="274.8"/><line class="cls-16" x1="354.72" y1="274.8" x2="366" y2="274.8"/><line class="cls-16" x1="377.28" y1="274.8" x2="388.56" y2="274.8"/><line class="cls-16" x1="400.08" y1="274.8" x2="411.36" y2="274.8"/><line class="cls-16" x1="422.64" y1="274.8" x2="431.04" y2="274.8"/><line class="cls-16" x1="413.04" y1="222.72" x2="425.28" y2="222.72"/><line class="cls-16" x1="436.8" y1="222.72" x2="449.04" y2="222.72"/><line class="cls-16" x1="345.12" y1="222.72" x2="345.12" y2="229.44"/><line class="cls-16" x1="345.12" y1="240.72" x2="345.12" y2="252"/><line class="cls-16" x1="345.12" y1="263.52" x2="345.12" y2="274.8"/><line class="cls-16" x1="345.12" y1="286.08" x2="345.12" y2="297.36"/><line class="cls-16" x1="345.12" y1="308.88" x2="345.12" y2="320.16"/><line class="cls-16" x1="345.12" y1="331.44" x2="345.12" y2="342.72"/><line class="cls-16" x1="345.12" y1="354" x2="345.12" y2="360.96"/><line class="cls-16" x1="174.48" y1="274.8" x2="174.48" y2="285.6"/><line class="cls-16" x1="174.48" y1="296.88" x2="174.48" y2="308.16"/><line class="cls-16" x1="174.48" y1="319.44" x2="174.48" y2="330.96"/><line class="cls-16" x1="174.48" y1="342.24" x2="174.48" y2="353.52"/><line class="cls-16" x1="174.48" y1="364.8" x2="174.48" y2="376.08"/><line class="cls-16" x1="174.48" y1="387.6" x2="174.48" y2="398.4"/><line class="cls-16" x1="44.64" y1="274.8" x2="44.64" y2="283.2"/><line class="cls-16" x1="44.64" y1="294.48" x2="44.64" y2="306"/><line class="cls-16" x1="44.64" y1="317.28" x2="44.64" y2="328.56"/><line class="cls-16" x1="44.64" y1="339.84" x2="44.64" y2="351.36"/><line class="cls-16" x1="44.64" y1="362.64" x2="44.64" y2="373.92"/><line class="cls-16" x1="44.64" y1="385.2" x2="44.64" y2="393.84"/><line class="cls-16" x1="292.8" y1="274.8" x2="292.8" y2="282.24"/><line class="cls-16" x1="292.8" y1="293.52" x2="292.8" y2="304.8"/><line class="cls-16" x1="292.8" y1="316.08" x2="292.8" y2="327.36"/><line class="cls-16" x1="292.8" y1="338.88" x2="292.8" y2="346.08"/><line class="cls-16" x1="23.28" y1="274.8" x2="44.64" y2="274.8"/><line class="cls-16" x1="413.04" y1="4.56" x2="425.28" y2="4.56"/><line class="cls-16" x1="436.8" y1="4.56" x2="449.04" y2="4.56"/><line class="cls-16" x1="8.64" y1="4.56" x2="21.12" y2="4.56"/><line class="cls-16" x1="32.4" y1="4.56" x2="44.64" y2="4.56"/><line class="cls-17" x1="44.64" y1="440.88" x2="413.04" y2="440.88"/><line class="cls-16" x1="413.04" y1="440.88" x2="408.72" y2="444.96"/><line class="cls-16" x1="413.04" y1="440.88" x2="417.36" y2="436.56"/><line class="cls-17" x1="413.04" y1="440.88" x2="413.04" y2="447.84"/><line class="cls-17" x1="413.04" y1="440.88" x2="413.04" y2="426.72"/><line class="cls-16" x1="44.64" y1="440.88" x2="40.56" y2="444.96"/><line class="cls-16" x1="44.64" y1="440.88" x2="48.96" y2="436.56"/><line class="cls-17" x1="44.64" y1="440.88" x2="44.64" y2="447.84"/><line class="cls-17" x1="44.64" y1="440.88" x2="44.64" y2="426.72"/><rect class="cls-18" x="214.32" y="426.24" width="28.56" height="8.88"/><text class="cls-19" transform="translate(214.32 433.44)"><tspan class="cls-20">SP_</tspan><tspan class="cls-21" x="12.26" y="0">W</tspan><tspan class="cls-22" x="18.27" y="0">i</tspan><tspan class="cls-20" x="19.72" y="0">d</tspan><tspan class="cls-23" x="23.32" y="0">t</tspan><tspan x="25" y="0">h</tspan></text><line class="cls-17" x1="44.64" y1="412.56" x2="174.48" y2="412.56"/><line class="cls-16" x1="174.48" y1="412.56" x2="170.16" y2="416.64"/><line class="cls-16" x1="174.48" y1="412.56" x2="178.8" y2="408.24"/><line class="cls-17" x1="174.48" y1="412.56" x2="174.48" y2="419.52"/><line class="cls-17" x1="174.48" y1="412.56" x2="174.48" y2="398.4"/><line class="cls-16" x1="44.64" y1="412.56" x2="40.56" y2="416.64"/><line class="cls-16" x1="44.64" y1="412.56" x2="48.96" y2="408.24"/><line class="cls-17" x1="44.64" y1="412.56" x2="44.64" y2="419.52"/><line class="cls-17" x1="44.64" y1="412.56" x2="44.64" y2="398.4"/><rect class="cls-18" x="91.44" y="398.88" width="35.76" height="8.88"/><text class="cls-19" transform="translate(91.44 406.08)"><tspan class="cls-20">SP_</tspan><tspan class="cls-21" x="12.26" y="0">W</tspan><tspan class="cls-22" x="18.27" y="0">i</tspan><tspan class="cls-20" x="19.72" y="0">d</tspan><tspan class="cls-23" x="23.32" y="0">t</tspan><tspan class="cls-20" x="25" y="0">h_</tspan><tspan x="32.2" y="0">3</tspan></text><line class="cls-17" x1="292.8" y1="412.56" x2="413.04" y2="412.56"/><line class="cls-16" x1="413.04" y1="412.56" x2="408.72" y2="416.64"/><line class="cls-16" x1="413.04" y1="412.56" x2="417.36" y2="408.24"/><line class="cls-17" x1="413.04" y1="412.56" x2="413.04" y2="419.52"/><line class="cls-17" x1="413.04" y1="412.56" x2="413.04" y2="398.4"/><line class="cls-16" x1="292.8" y1="412.56" x2="288.72" y2="416.64"/><line class="cls-16" x1="292.8" y1="412.56" x2="297.12" y2="408.24"/><line class="cls-17" x1="292.8" y1="412.56" x2="292.8" y2="419.52"/><line class="cls-17" x1="292.8" y1="412.56" x2="292.8" y2="398.4"/><rect class="cls-18" x="334.8" y="398.88" width="35.76" height="8.88"/><text class="cls-19" transform="translate(334.8 406.08)"><tspan class="cls-20">SP_</tspan><tspan class="cls-21" x="12.26" y="0">W</tspan><tspan class="cls-22" x="18.27" y="0">i</tspan><tspan class="cls-20" x="19.72" y="0">d</tspan><tspan class="cls-23" x="23.32" y="0">t</tspan><tspan class="cls-20" x="25" y="0">h_</tspan><tspan x="32.2" y="0">1</tspan></text><line class="cls-17" x1="345.12" y1="384" x2="413.04" y2="384"/><line class="cls-16" x1="413.04" y1="384" x2="408.72" y2="388.32"/><line class="cls-16" x1="413.04" y1="384" x2="417.36" y2="379.92"/><line class="cls-17" x1="413.04" y1="384" x2="413.04" y2="391.2"/><line class="cls-17" x1="413.04" y1="384" x2="413.04" y2="369.84"/><line class="cls-16" x1="345.12" y1="384" x2="340.8" y2="388.32"/><line class="cls-16" x1="345.12" y1="384" x2="349.2" y2="379.92"/><line class="cls-17" x1="345.12" y1="384" x2="345.12" y2="391.2"/><line class="cls-17" x1="345.12" y1="384" x2="345.12" y2="369.84"/><rect class="cls-18" x="363.36" y="369.36" width="35.76" height="8.88"/><text class="cls-19" transform="translate(363.36 376.56)"><tspan class="cls-20">SP_</tspan><tspan class="cls-21" x="12.26" y="0">W</tspan><tspan class="cls-22" x="18.27" y="0">i</tspan><tspan class="cls-20" x="19.72" y="0">d</tspan><tspan class="cls-23" x="23.32" y="0">t</tspan><tspan class="cls-20" x="25" y="0">h_</tspan><tspan x="32.2" y="0">2</tspan></text><line class="cls-17" x1="461.76" y1="4.56" x2="461.76" y2="222.72"/><line class="cls-16" x1="461.76" y1="222.72" x2="457.44" y2="218.4"/><line class="cls-16" x1="461.76" y1="222.72" x2="466.08" y2="226.8"/><line class="cls-17" x1="461.76" y1="222.72" x2="468.72" y2="222.72"/><line class="cls-17" x1="461.76" y1="222.72" x2="447.6" y2="222.72"/><line class="cls-16" x1="461.76" y1="4.56" x2="457.44" y2="0.24"/><line class="cls-16" x1="461.76" y1="4.56" x2="466.08" y2="8.64"/><line class="cls-17" x1="461.76" y1="4.56" x2="468.72" y2="4.56"/><line class="cls-17" x1="461.76" y1="4.56" x2="447.6" y2="4.56"/><rect class="cls-18" x="448.32" y="95.04" width="9.6" height="37.2"/><text class="cls-19" transform="translate(456 132) rotate(-90)"><tspan class="cls-24">SP_</tspan><tspan class="cls-25" x="12.27" y="0">D</tspan><tspan class="cls-24" x="17.06" y="0">ep</tspan><tspan class="cls-26" x="24.27" y="0">t</tspan><tspan class="cls-24" x="26.18" y="0">h_</tspan><tspan x="33.38" y="0">1</tspan></text><line class="cls-17" x1="461.76" y1="333.12" x2="461.76" y2="274.8"/><line class="cls-16" x1="461.76" y1="274.8" x2="466.08" y2="279.12"/><line class="cls-16" x1="461.76" y1="274.8" x2="457.44" y2="270.48"/><line class="cls-17" x1="461.76" y1="274.8" x2="468.72" y2="274.8"/><line class="cls-17" x1="461.76" y1="274.8" x2="447.6" y2="274.8"/><line class="cls-16" x1="461.76" y1="333.12" x2="466.08" y2="337.44"/><line class="cls-16" x1="461.76" y1="333.12" x2="457.44" y2="328.8"/><line class="cls-17" x1="461.76" y1="333.12" x2="468.72" y2="333.12"/><line class="cls-17" x1="461.76" y1="333.12" x2="447.6" y2="333.12"/><rect class="cls-18" x="448.32" y="285.36" width="9.6" height="37.2"/><text class="cls-19" transform="translate(456 322.32) rotate(-90)"><tspan class="cls-20">SP_</tspan><tspan class="cls-27" x="12.26" y="0">D</tspan><tspan class="cls-20" x="17.06" y="0">ep</tspan><tspan class="cls-28" x="24.26" y="0">t</tspan><tspan class="cls-20" x="26.18" y="0">h_</tspan><tspan x="33.38" y="0">2</tspan></text><line class="cls-17" x1="13.44" y1="4.56" x2="13.44" y2="274.8"/><line class="cls-16" x1="13.44" y1="274.8" x2="9.12" y2="270.48"/><line class="cls-16" x1="13.44" y1="274.8" x2="17.76" y2="279.12"/><line class="cls-17" x1="13.44" y1="274.8" x2="6.48" y2="274.8"/><line class="cls-17" x1="13.44" y1="274.8" x2="27.6" y2="274.8"/><line class="cls-16" x1="13.44" y1="4.56" x2="9.12" y2="0.24"/><line class="cls-16" x1="13.44" y1="4.56" x2="17.76" y2="8.64"/><line class="cls-17" x1="13.44" y1="4.56" x2="6.48" y2="4.56"/><line class="cls-17" x1="13.44" y1="4.56" x2="27.6" y2="4.56"/><rect class="cls-18" y="120.96" width="9.6" height="37.2"/><text class="cls-19" transform="translate(7.68 157.92) rotate(-90)"><tspan class="cls-24">SP_</tspan><tspan class="cls-25" x="12.27" y="0">D</tspan><tspan class="cls-24" x="17.06" y="0">ep</tspan><tspan class="cls-26" x="24.27" y="0">t</tspan><tspan class="cls-24" x="26.18" y="0">h_</tspan><tspan x="33.38" y="0">3</tspan></text><line class="cls-17" x1="490.08" y1="4.56" x2="490.08" y2="333.12"/><line class="cls-16" x1="490.08" y1="333.12" x2="485.76" y2="328.8"/><line class="cls-16" x1="490.08" y1="333.12" x2="494.4" y2="337.44"/><line class="cls-17" x1="490.08" y1="333.12" x2="497.04" y2="333.12"/><line class="cls-17" x1="490.08" y1="333.12" x2="475.92" y2="333.12"/><line class="cls-16" x1="490.08" y1="4.56" x2="485.76" y2="0.24"/><line class="cls-16" x1="490.08" y1="4.56" x2="494.4" y2="8.64"/><line class="cls-17" x1="490.08" y1="4.56" x2="497.04" y2="4.56"/><line class="cls-17" x1="490.08" y1="4.56" x2="475.92" y2="4.56"/><rect class="cls-18" x="476.64" y="153.84" width="9.6" height="30"/><text class="cls-29" transform="translate(484.32 183.6) rotate(-90)">SP_<tspan class="cls-25" x="12.27" y="0">D</tspan><tspan x="17.06" y="0">ep</tspan><tspan class="cls-28" x="24.26" y="0">t</tspan><tspan class="cls-30" x="26.18" y="0">h</tspan></text></g></g></svg>