<svg xmlns="http://www.w3.org/2000/svg" xmlns:xlink="http://www.w3.org/1999/xlink" viewBox="0 0 64.08 71.04"><defs><style>.cls-1,.cls-2,.cls-6,.cls-7,.cls-8,.cls-9{fill:none;}.cls-1{clip-rule:evenodd;}.cls-3{clip-path:url(#clip-path);}.cls-4{clip-path:url(#clip-path-2);}.cls-5{fill:#c6d3b4;}.cls-6{stroke:red;}.cls-6,.cls-7,.cls-8,.cls-9{stroke-linecap:round;stroke-linejoin:round;}.cls-6,.cls-7{stroke-width:0.24px;}.cls-7,.cls-8,.cls-9{stroke:#000;}.cls-8{stroke-width:0.48px;}.cls-9{stroke-width:0.96px;}</style><clipPath id="clip-path" transform="translate(-530.76 -771.01)"><path class="cls-1" d="M534.24,805.21h57.12V774.73H575.52v.48H570v1.44l.24,1.44.24,4.08h-.24l-.24.48-.24.72-.24.24-.48,1-.72.72v.24h-.48l-.72.72v.24h-.72v.24h-.48V787h-.72v.24h-.72v.24h-3.36l-.72-.24-1-.24-.48-.24-.72-.24-.72-.72-.48-.24-1-1-.48-1-.24-.24-.24-.72v-6l.24-1.44h-5.28v-.48H534.24v10.56l.24-.24h5.28v-.24l7.92.24c1.86,1.34,3.13,1.42,3.6,4.08l.24,1.2h-.24l-.24,1-.48,1-.48.48v.48h-.48v.24h-.48l-.24.24v.24h-.48v.24h-.48v.24h-1.2v.24h-1.44l-.24.24-5.28-.24-5.52-.24m0,44.16h15.84v-.48h5.28l-.24-1.44v-6.24l.72-1.44,2.16-2.16h.48v-.24H559v-.24h.72v-.24h.72v-.24l4.56.24.72.24,1.92,1,1.68,1.68.72,1.44.24.72.24,4.08h-.24l-.24,1.44v1.44h5.52v.48h15.84V808.09H534.24v10.8l.24-.24h5.28v-.24l6.72.24,1.2.24,1.92,1,.72.72L551,822l.48,1.92h-.24l-.24,1.2-.48,1-.48.48v.24h-.48V827h-.48l-.24.24v.24h-.48l-.48.48v.24h-1.2v.24H545l-5.28-.24-5.52-.24Z"/></clipPath><clipPath id="clip-path-2" transform="translate(-530.76 -771.01)"><rect class="cls-2" width="595.2" height="841.92"/></clipPath></defs><title>WC-DOUBLE</title><g id="Layer_2" data-name="Layer 2"><g id="Layer_1-2" data-name="Layer 1"><g class="cls-3"><g class="cls-4"><rect class="cls-5" x="3.48" y="3.72" width="57.12" height="63.84"/></g></g><line class="cls-6" x1="1.8" y1="69.24" x2="1.8" y2="67.08"/><line class="cls-6" x1="1.8" y1="65.4" x2="1.8" y2="63.24"/><line class="cls-6" x1="1.8" y1="61.56" x2="1.8" y2="59.4"/><line class="cls-6" x1="1.8" y1="57.72" x2="1.8" y2="55.56"/><line class="cls-6" x1="1.8" y1="53.88" x2="1.8" y2="51.72"/><line class="cls-6" x1="1.8" y1="50.04" x2="1.8" y2="47.88"/><line class="cls-6" x1="1.8" y1="46.2" x2="1.8" y2="44.04"/><line class="cls-6" x1="1.8" y1="42.36" x2="1.8" y2="40.2"/><line class="cls-6" x1="1.8" y1="38.52" x2="1.8" y2="36.36"/><line class="cls-6" x1="1.8" y1="34.68" x2="1.8" y2="32.76"/><line class="cls-6" x1="1.8" y1="30.84" x2="1.8" y2="28.92"/><line class="cls-6" x1="1.8" y1="27.24" x2="1.8" y2="25.08"/><line class="cls-6" x1="1.8" y1="23.4" x2="1.8" y2="21.24"/><line class="cls-6" x1="1.8" y1="19.56" x2="1.8" y2="17.4"/><line class="cls-6" x1="1.8" y1="15.72" x2="1.8" y2="13.56"/><line class="cls-6" x1="1.8" y1="11.88" x2="1.8" y2="9.72"/><line class="cls-6" x1="1.8" y1="8.04" x2="1.8" y2="5.88"/><polyline class="cls-6" points="1.8 4.2 1.8 1.8 4.44 1.8"/><line class="cls-6" x1="6.12" y1="1.8" x2="8.28" y2="1.8"/><line class="cls-6" x1="9.96" y1="1.8" x2="12.12" y2="1.8"/><line class="cls-6" x1="13.8" y1="1.8" x2="15.96" y2="1.8"/><line class="cls-6" x1="17.64" y1="1.8" x2="19.8" y2="1.8"/><line class="cls-6" x1="21.48" y1="1.8" x2="23.64" y2="1.8"/><line class="cls-6" x1="25.32" y1="1.8" x2="27.48" y2="1.8"/><line class="cls-6" x1="29.16" y1="1.8" x2="31.32" y2="1.8"/><line class="cls-6" x1="33" y1="1.8" x2="35.16" y2="1.8"/><line class="cls-6" x1="36.84" y1="1.8" x2="38.76" y2="1.8"/><line class="cls-6" x1="40.68" y1="1.8" x2="42.6" y2="1.8"/><line class="cls-6" x1="44.28" y1="1.8" x2="46.44" y2="1.8"/><line class="cls-6" x1="48.12" y1="1.8" x2="50.28" y2="1.8"/><line class="cls-6" x1="51.96" y1="1.8" x2="54.12" y2="1.8"/><line class="cls-6" x1="55.8" y1="1.8" x2="57.96" y2="1.8"/><polyline class="cls-6" points="59.64 1.8 62.28 1.8 62.28 4.2"/><line class="cls-6" x1="62.28" y1="5.88" x2="62.28" y2="8.04"/><line class="cls-6" x1="62.28" y1="9.72" x2="62.28" y2="11.88"/><line class="cls-6" x1="62.28" y1="13.56" x2="62.28" y2="15.72"/><line class="cls-6" x1="62.28" y1="17.4" x2="62.28" y2="19.56"/><line class="cls-6" x1="62.28" y1="21.24" x2="62.28" y2="23.4"/><line class="cls-6" x1="62.28" y1="25.08" x2="62.28" y2="27.24"/><line class="cls-6" x1="62.28" y1="28.92" x2="62.28" y2="30.84"/><line class="cls-6" x1="62.28" y1="32.76" x2="62.28" y2="34.68"/><line class="cls-6" x1="62.28" y1="36.36" x2="62.28" y2="38.52"/><line class="cls-6" x1="62.28" y1="40.2" x2="62.28" y2="42.36"/><line class="cls-6" x1="62.28" y1="44.04" x2="62.28" y2="46.2"/><line class="cls-6" x1="62.28" y1="47.88" x2="62.28" y2="50.04"/><line class="cls-6" x1="62.28" y1="51.72" x2="62.28" y2="53.88"/><line class="cls-6" x1="62.28" y1="55.56" x2="62.28" y2="57.72"/><line class="cls-6" x1="62.28" y1="59.4" x2="62.28" y2="61.56"/><line class="cls-6" x1="62.28" y1="63.24" x2="62.28" y2="65.4"/><polyline class="cls-6" points="62.28 67.08 62.28 69.24 59.64 69.24"/><line class="cls-6" x1="57.96" y1="69.24" x2="55.8" y2="69.24"/><line class="cls-6" x1="54.12" y1="69.24" x2="51.96" y2="69.24"/><line class="cls-6" x1="50.28" y1="69.24" x2="48.12" y2="69.24"/><line class="cls-6" x1="46.44" y1="69.24" x2="44.28" y2="69.24"/><line class="cls-6" x1="42.6" y1="69.24" x2="40.68" y2="69.24"/><line class="cls-6" x1="38.76" y1="69.24" x2="36.84" y2="69.24"/><line class="cls-6" x1="35.16" y1="69.24" x2="33" y2="69.24"/><line class="cls-6" x1="31.32" y1="69.24" x2="29.16" y2="69.24"/><line class="cls-6" x1="27.48" y1="69.24" x2="25.32" y2="69.24"/><line class="cls-6" x1="23.64" y1="69.24" x2="21.48" y2="69.24"/><line class="cls-6" x1="19.8" y1="69.24" x2="17.64" y2="69.24"/><line class="cls-6" x1="15.96" y1="69.24" x2="13.8" y2="69.24"/><line class="cls-6" x1="12.12" y1="69.24" x2="9.96" y2="69.24"/><line class="cls-6" x1="8.28" y1="69.24" x2="6.12" y2="69.24"/><line class="cls-6" x1="4.44" y1="69.24" x2="1.8" y2="69.24"/><polyline class="cls-7" points="62.28 4.2 56.04 4.92 50.04 7.08 44.52 10.44 39.96 15 36.6 20.28 34.44 26.52 33.72 32.76"/><polyline class="cls-7" points="62.28 4.2 56.04 4.92 50.04 7.08 44.52 10.44 39.96 15 36.6 20.28 34.44 26.52 33.72 32.76"/><line class="cls-7" x1="62.28" y1="32.76" x2="33.72" y2="32.76"/><polyline class="cls-7" points="62.28 31.32 33.72 31.32 33.72 32.76 62.28 32.76 62.28 31.32"/><polyline class="cls-7" points="62.28 67.08 56.04 66.36 50.04 64.2 44.52 60.84 39.96 56.28 36.6 50.76 34.44 44.76 33.72 38.52"/><polyline class="cls-7" points="62.28 67.08 56.04 66.36 50.04 64.2 44.52 60.84 39.96 56.28 36.6 50.76 34.44 44.76 33.72 38.52"/><line class="cls-7" x1="62.28" y1="38.52" x2="33.72" y2="38.52"/><polyline class="cls-7" points="62.28 39.96 33.72 39.96 33.72 38.52 62.28 38.52 62.28 39.96"/><polyline class="cls-7" points="3.48 35.64 3.48 37.08 60.6 37.08 60.6 34.2 3.48 34.2 3.48 35.64"/><polyline class="cls-7" points="60.6 3.72 60.6 67.56 3.48 67.56 3.48 3.72 60.6 3.72"/><polyline class="cls-7" points="0.12 0.12 0.12 70.92 63.96 70.92 63.96 0.12"/><line class="cls-7" x1="63.96" y1="0.12" x2="0.12" y2="0.12"/><line class="cls-7" x1="60.6" y1="67.56" x2="60.6" y2="66.6"/><line class="cls-7" x1="60.6" y1="64.92" x2="60.6" y2="62.76"/><line class="cls-7" x1="60.6" y1="61.08" x2="60.6" y2="58.92"/><line class="cls-7" x1="60.6" y1="57.24" x2="60.6" y2="55.08"/><line class="cls-7" x1="60.6" y1="53.4" x2="60.6" y2="51.24"/><line class="cls-7" x1="60.6" y1="49.56" x2="60.6" y2="47.4"/><line class="cls-7" x1="60.6" y1="45.72" x2="60.6" y2="43.56"/><line class="cls-7" x1="60.6" y1="41.88" x2="60.6" y2="39.72"/><line class="cls-7" x1="60.6" y1="38.04" x2="60.6" y2="37.08"/><line class="cls-7" x1="60.6" y1="34.2" x2="60.6" y2="33.24"/><line class="cls-7" x1="60.6" y1="31.56" x2="60.6" y2="29.4"/><line class="cls-7" x1="60.6" y1="27.72" x2="60.6" y2="25.56"/><line class="cls-7" x1="60.6" y1="23.88" x2="60.6" y2="21.72"/><line class="cls-7" x1="60.6" y1="20.04" x2="60.6" y2="17.88"/><line class="cls-7" x1="60.6" y1="16.2" x2="60.6" y2="14.04"/><line class="cls-7" x1="60.6" y1="12.36" x2="60.6" y2="10.2"/><line class="cls-7" x1="60.6" y1="8.52" x2="60.6" y2="6.36"/><polyline class="cls-7" points="60.6 4.68 60.6 3.72 59.4 3.72"/><line class="cls-7" x1="57.72" y1="3.72" x2="55.56" y2="3.72"/><line class="cls-7" x1="53.88" y1="3.72" x2="51.72" y2="3.72"/><line class="cls-7" x1="50.04" y1="3.72" x2="47.88" y2="3.72"/><line class="cls-7" x1="46.2" y1="3.72" x2="44.76" y2="3.72"/><line class="cls-7" x1="19.32" y1="3.72" x2="17.88" y2="3.72"/><line class="cls-7" x1="16.2" y1="3.72" x2="14.04" y2="3.72"/><line class="cls-7" x1="12.36" y1="3.72" x2="10.44" y2="3.72"/><line class="cls-7" x1="8.52" y1="3.72" x2="6.6" y2="3.72"/><polyline class="cls-7" points="4.68 3.72 3.48 3.72 3.48 6.36"/><line class="cls-7" x1="3.48" y1="8.04" x2="3.48" y2="10.2"/><line class="cls-7" x1="3.48" y1="11.88" x2="3.48" y2="14.52"/><line class="cls-7" x1="3.48" y1="22.92" x2="3.48" y2="25.8"/><line class="cls-7" x1="3.48" y1="27.48" x2="3.48" y2="29.64"/><line class="cls-7" x1="3.48" y1="31.32" x2="3.48" y2="34.2"/><line class="cls-7" x1="3.48" y1="37.08" x2="3.48" y2="39.96"/><line class="cls-7" x1="3.48" y1="41.64" x2="3.48" y2="43.8"/><line class="cls-7" x1="3.48" y1="45.48" x2="3.48" y2="48.12"/><line class="cls-7" x1="3.48" y1="56.76" x2="3.48" y2="59.4"/><line class="cls-7" x1="3.48" y1="61.08" x2="3.48" y2="63.24"/><polyline class="cls-7" points="3.48 64.92 3.48 67.56 4.68 67.56"/><line class="cls-7" x1="6.6" y1="67.56" x2="8.52" y2="67.56"/><line class="cls-7" x1="10.44" y1="67.56" x2="12.36" y2="67.56"/><line class="cls-7" x1="14.04" y1="67.56" x2="16.2" y2="67.56"/><line class="cls-7" x1="17.88" y1="67.56" x2="19.32" y2="67.56"/><line class="cls-7" x1="44.76" y1="67.56" x2="46.2" y2="67.56"/><line class="cls-7" x1="47.88" y1="67.56" x2="50.04" y2="67.56"/><line class="cls-7" x1="51.72" y1="67.56" x2="53.88" y2="67.56"/><line class="cls-7" x1="55.56" y1="67.56" x2="57.72" y2="67.56"/><line class="cls-7" x1="59.4" y1="67.56" x2="60.6" y2="67.56"/><polyline class="cls-8" points="3.72 47.88 3.72 47.88 3.48 47.88 3.48 48.12 3.48 52.44 3.48 56.76 3.48 57 3.72 57 14.52 57.48 15.96 57.48 17.16 57.24 18.12 56.52 19.32 55.8 20.04 55.08 20.52 54.12 20.76 52.92 20.76 51.96 20.52 51 20.04 50.04 19.32 49.08 18.12 48.36 17.16 47.88 15.96 47.64 14.52 47.4 3.72 47.88"/><polyline class="cls-7" points="4.68 56.76 5.64 56.28 6.12 55.56 6.36 54.12 6.6 52.44 6.36 51 6.12 49.56 5.64 48.6 4.68 48.12"/><polyline class="cls-7" points="12.84 57.24 11.88 57 10.92 56.52 10.2 56.28 9.72 55.56 9.48 55.32 9.24 54.84"/><polyline class="cls-7" points="9 52.44 9 53.64 9.24 54.84"/><polyline class="cls-7" points="9 52.44 9 51.24 9.24 50.28"/><polyline class="cls-7" points="9.72 49.32 9.48 49.8 9.24 50.28"/><polyline class="cls-7" points="10.92 48.36 10.2 48.84 9.72 49.32"/><polyline class="cls-7" points="12.84 47.88 11.88 47.88 10.92 48.36"/><line class="cls-7" x1="8.04" y1="51" x2="9" y2="51"/><line class="cls-7" x1="7.8" y1="51" x2="8.04" y2="51"/><line class="cls-7" x1="7.8" y1="53.88" x2="7.8" y2="51"/><line class="cls-7" x1="8.04" y1="53.88" x2="7.8" y2="53.88"/><line class="cls-7" x1="9" y1="53.88" x2="8.04" y2="53.88"/><line class="cls-7" x1="12.84" y1="57.24" x2="14.52" y2="57.24"/><line class="cls-7" x1="14.52" y1="47.64" x2="12.84" y2="47.88"/><polyline class="cls-7" points="19.08 49.32 16.92 48.12 14.52 47.64"/><polyline class="cls-7" points="19.08 55.56 20.28 53.64 20.28 51.24 19.08 49.32"/><polyline class="cls-7" points="14.28 57.24 16.92 57 19.08 55.56"/><line class="cls-7" x1="10.2" y1="56.52" x2="10.2" y2="48.36"/><polyline class="cls-7" points="12.84 47.64 11.88 47.64 10.68 48.12 9.96 48.6 9.48 49.08 9.24 49.56 9 50.04"/><polyline class="cls-7" points="8.76 52.44 8.76 51.24 9 50.04"/><polyline class="cls-7" points="8.76 52.44 8.76 53.64 9 54.84"/><polyline class="cls-7" points="9.48 55.8 9.24 55.32 9 54.84"/><polyline class="cls-7" points="10.68 56.76 9.96 56.52 9.48 55.8"/><polyline class="cls-7" points="12.84 57.48 11.88 57.24 10.68 56.76"/><line class="cls-7" x1="3.48" y1="48.12" x2="3.48" y2="56.76"/><line class="cls-7" x1="3.72" y1="47.88" x2="3.48" y2="48.12"/><line class="cls-7" x1="14.52" y1="47.4" x2="3.72" y2="47.88"/><polyline class="cls-7" points="19.32 49.08 17.16 47.88 14.52 47.4"/><polyline class="cls-7" points="19.32 55.8 20.52 53.64 20.52 51.24 19.32 49.08"/><polyline class="cls-7" points="14.52 57.48 17.16 57.24 19.32 55.8"/><line class="cls-7" x1="3.72" y1="57" x2="14.52" y2="57.48"/><polyline class="cls-7" points="3.48 56.76 3.48 57 3.72 57"/><line class="cls-7" x1="3.48" y1="57" x2="3.48" y2="47.88"/><polyline class="cls-8" points="3.48 56.76 3.48 56.76 3.48 57 3.72 57 14.52 57.48 15.96 57.48 17.16 57.24 18.12 56.52 19.32 55.8 20.04 55.08 20.52 54.12 20.76 52.92 20.76 51.96 20.52 51 20.04 50.04 19.32 49.08 18.12 48.36 17.16 47.88 15.96 47.64 14.52 47.4 3.72 47.88 3.48 47.88 3.48 48.12"/><polyline class="cls-8" points="26.76 63.48 27.48 63.72 28.2 63.72"/><polyline class="cls-8" points="37.32 63.48 36.6 63.72 35.88 63.72"/><line class="cls-8" x1="25.32" y1="61.8" x2="25.32" y2="62.28"/><polyline class="cls-8" points="25.32 61.8 25.32 61.08 25.32 60.36"/><polyline class="cls-8" points="26.76 63.48 25.8 63 25.32 62.28"/><line class="cls-8" x1="38.76" y1="61.8" x2="38.76" y2="62.28"/><polyline class="cls-8" points="38.76 61.8 38.76 61.08 38.76 60.36"/><polyline class="cls-8" points="37.32 63.48 38.28 63 38.76 62.28"/><line class="cls-7" x1="39.24" y1="67.56" x2="25.08" y2="67.56"/><polyline class="cls-7" points="39.24 58.92 38.52 57.72 37.56 56.76"/><polyline class="cls-7" points="39.96 61.32 39.72 60.12 39.24 58.92"/><polyline class="cls-7" points="39.24 67.56 39.72 64.44 39.96 61.32"/><polyline class="cls-7" points="24.36 61.32 24.36 64.44 25.08 67.56"/><polyline class="cls-7" points="35.16 55.32 33.72 54.84 32.04 54.84"/><polyline class="cls-7" points="37.56 56.76 36.36 55.8 35.16 55.32"/><polyline class="cls-7" points="24.84 58.92 24.36 60.12 24.36 61.32"/><polyline class="cls-7" points="26.52 56.76 25.56 57.72 24.84 58.92"/><polyline class="cls-7" points="28.92 55.32 27.72 55.8 26.52 56.76"/><polyline class="cls-7" points="32.04 54.84 30.6 54.84 28.92 55.32"/><polyline class="cls-8" points="24.84 67.08 39.24 67.08 39.72 64.2 39.96 61.32 39.72 60.12 39.24 58.92 38.52 57.72 37.56 56.76 36.36 55.8 35.16 55.32 33.72 54.84 32.04 54.84 30.6 54.84 28.92 55.32 27.72 55.8 26.52 56.76 25.56 57.72 24.84 58.92 24.36 60.12 24.36 61.32 24.36 64.2 24.84 67.08"/><polyline class="cls-9" points="19.32 67.56 44.76 67.56 44.76 67.08 19.32 67.08 19.32 67.56"/><line class="cls-8" x1="14.52" y1="23.88" x2="3.72" y2="23.4"/><polyline class="cls-8" points="19.32 22.2 18.12 22.92 17.16 23.4 15.96 23.64 14.52 23.88"/><polyline class="cls-8" points="19.32 15.48 20.04 16.2 20.52 17.16 20.76 18.12 20.76 19.32 20.52 20.28 20.04 21.24 19.32 22.2"/><polyline class="cls-8" points="14.52 13.8 15.96 13.8 17.16 14.04 18.12 14.76 19.32 15.48"/><line class="cls-8" x1="3.72" y1="14.28" x2="14.52" y2="13.8"/><polyline class="cls-8" points="3.48 14.52 3.48 14.52 3.48 14.28 3.72 14.28"/><line class="cls-8" x1="3.48" y1="18.84" x2="3.48" y2="14.52"/><line class="cls-8" x1="3.48" y1="22.92" x2="3.48" y2="18.84"/><polyline class="cls-8" points="3.72 23.4 3.72 23.4 3.48 23.16 3.48 22.92"/><polyline class="cls-7" points="4.68 14.28 5.64 15 6.12 15.72 6.36 17.16 6.6 18.84 6.36 20.28 6.12 21.72 5.64 22.68 4.68 23.16"/><polyline class="cls-7" points="12.84 14.04 11.88 14.28 10.92 14.76 10.2 15 9.72 15.48 9.48 15.96 9.24 16.44"/><polyline class="cls-7" points="9 18.84 9 17.64 9.24 16.44"/><polyline class="cls-7" points="9 18.84 9 20.04 9.24 21"/><polyline class="cls-7" points="9.72 21.96 9.48 21.48 9.24 21"/><polyline class="cls-7" points="10.92 22.92 10.2 22.44 9.72 21.96"/><polyline class="cls-7" points="12.84 23.4 11.88 23.16 10.92 22.92"/><line class="cls-7" x1="8.04" y1="20.28" x2="9" y2="20.28"/><line class="cls-7" x1="7.8" y1="20.04" x2="8.04" y2="20.28"/><line class="cls-7" x1="7.8" y1="17.4" x2="7.8" y2="20.04"/><line class="cls-7" x1="8.04" y1="17.4" x2="7.8" y2="17.4"/><line class="cls-7" x1="9" y1="17.4" x2="8.04" y2="17.4"/><line class="cls-7" x1="12.84" y1="14.04" x2="14.52" y2="14.04"/><line class="cls-7" x1="14.52" y1="23.4" x2="12.84" y2="23.4"/><polyline class="cls-7" points="19.08 21.96 16.92 23.16 14.52 23.4"/><polyline class="cls-7" points="19.08 15.72 20.28 17.64 20.28 20.04 19.08 21.96"/><polyline class="cls-7" points="14.28 14.04 16.92 14.28 19.08 15.72"/><line class="cls-7" x1="10.2" y1="14.76" x2="10.2" y2="22.92"/><polyline class="cls-7" points="12.84 23.64 11.88 23.64 10.68 23.16 9.96 22.68 9.48 22.2 9.24 21.72 9 21.24"/><polyline class="cls-7" points="8.76 18.84 8.76 20.04 9 21.24"/><polyline class="cls-7" points="8.76 18.84 8.76 17.64 9 16.44"/><polyline class="cls-7" points="9.48 15.48 9.24 15.96 9 16.44"/><polyline class="cls-7" points="10.68 14.52 9.96 14.76 9.48 15.48"/><polyline class="cls-7" points="12.84 13.8 11.88 14.04 10.68 14.52"/><line class="cls-7" x1="3.48" y1="22.92" x2="3.48" y2="14.52"/><polyline class="cls-7" points="3.72 23.4 3.48 23.16 3.48 22.92"/><line class="cls-7" x1="14.52" y1="23.88" x2="3.72" y2="23.4"/><polyline class="cls-7" points="19.32 22.2 17.16 23.4 14.52 23.88"/><polyline class="cls-7" points="19.32 15.48 20.52 17.4 20.52 20.04 19.32 22.2"/><polyline class="cls-7" points="14.52 13.8 17.16 14.04 19.32 15.48"/><line class="cls-7" x1="3.72" y1="14.28" x2="14.52" y2="13.8"/><polyline class="cls-7" points="3.48 14.52 3.48 14.28 3.72 14.28"/><line class="cls-7" x1="3.48" y1="14.28" x2="3.48" y2="23.4"/><polyline class="cls-8" points="3.48 23.16 3.48 23.16 3.72 23.4 14.52 23.88 15.96 23.64 17.16 23.4 18.12 22.92 19.32 22.2 20.04 21.24 20.52 20.28 20.76 19.32 20.76 18.12 20.52 17.16 20.04 16.2 19.32 15.48 18.12 14.76 17.16 14.04 15.96 13.8 14.52 13.8 3.72 14.28 3.48 14.28 3.48 14.52"/><polyline class="cls-8" points="26.76 7.8 27.48 7.56 28.2 7.56"/><polyline class="cls-8" points="37.32 7.8 36.6 7.56 35.88 7.56"/><line class="cls-8" x1="25.32" y1="9.48" x2="25.32" y2="9"/><polyline class="cls-8" points="25.32 9.48 25.32 10.2 25.32 10.92"/><polyline class="cls-8" points="26.76 7.8 25.8 8.28 25.32 9"/><line class="cls-8" x1="38.76" y1="9.48" x2="38.76" y2="9"/><polyline class="cls-8" points="38.76 9.48 38.76 10.2 38.76 10.92"/><polyline class="cls-8" points="37.32 7.8 38.28 8.28 38.76 9"/><line class="cls-7" x1="39.24" y1="3.72" x2="25.08" y2="3.72"/><polyline class="cls-7" points="39.24 12.36 38.52 13.56 37.56 14.52"/><polyline class="cls-7" points="39.96 9.96 39.72 11.16 39.24 12.36"/><polyline class="cls-7" points="39.24 3.72 39.72 6.84 39.96 9.96"/><polyline class="cls-7" points="24.36 9.96 24.36 6.84 25.08 3.72"/><polyline class="cls-7" points="35.16 15.96 33.72 16.44 32.04 16.44"/><polyline class="cls-7" points="37.56 14.52 36.36 15.48 35.16 15.96"/><polyline class="cls-7" points="24.84 12.36 24.36 11.16 24.36 9.96"/><polyline class="cls-7" points="26.52 14.52 25.56 13.56 24.84 12.36"/><polyline class="cls-7" points="28.92 15.96 27.72 15.48 26.52 14.52"/><polyline class="cls-7" points="32.04 16.44 30.6 16.44 28.92 15.96"/><polyline class="cls-8" points="24.84 4.2 24.36 7.08 24.36 9.96 24.36 11.16 24.84 12.36 25.56 13.56 26.52 14.52 27.72 15.48 28.92 15.96 30.6 16.44 32.04 16.44 33.72 16.44 35.16 15.96 36.36 15.48 37.56 14.52 38.52 13.56 39.24 12.36 39.72 11.16 39.96 9.96 39.72 7.08 39.24 4.2 24.84 4.2"/><polyline class="cls-9" points="44.76 3.72 19.32 3.72 19.32 4.2 44.76 4.2 44.76 3.72"/></g></g></svg>