<svg xmlns="http://www.w3.org/2000/svg" xmlns:xlink="http://www.w3.org/1999/xlink" viewBox="0 0 223.01 148.8"><defs><style>.cls-1,.cls-10,.cls-11,.cls-2,.cls-8,.cls-9{fill:none;}.cls-1{clip-rule:evenodd;}.cls-3{clip-path:url(#clip-path);}.cls-4{clip-path:url(#clip-path-2);}.cls-5{fill:#c6d3b4;}.cls-6{clip-path:url(#clip-path-3);}.cls-7{clip-path:url(#clip-path-5);}.cls-8{stroke:red;}.cls-10,.cls-11,.cls-8,.cls-9{stroke-linecap:round;stroke-linejoin:round;}.cls-8,.cls-9{stroke-width:0.24px;}.cls-10,.cls-11,.cls-9{stroke:#000;}.cls-10{stroke-width:0.48px;}.cls-11{stroke-width:0.96px;}.cls-12{font-size:9.89px;font-family:ArialNarrow, Arial;}.cls-13{letter-spacing:-0.01em;}.cls-14{letter-spacing:0.01em;}.cls-15{letter-spacing:-0.01em;}.cls-16{letter-spacing:0.01em;}.cls-17{letter-spacing:0.01em;}.cls-18{letter-spacing:0.01em;}</style><clipPath id="clip-path" transform="translate(0 -446.04)"><path class="cls-1" d="M3.48,449.52v57.12H67.32V482.4h-.24l-5.28.24-5.52.24-1.2.24v-.24l-1.2-.24a19,19,0,0,1-2.64-1.92H51v-.48h-.24v-.48h-.24v-1.2h-.24v-1.2l.24-1.44.24-.24.24-.48.72-.72.48-.24.48-.48.72-.24.48-.24.72-.24h7.2l5.28.24.24.24v-24H48.12V450H42.84v1.44h.24v1.44h.24l-.24,3.84c-1.38,3.6-2.37,4.35-6.24,5.28l-2.88.24V462l-.72-.24a8.39,8.39,0,0,1-2.88-1.2h-.48v-.48l-.72-.72h-.24v-.48h-.24v-.48l-.24-.24H28.2v-.72H28V457h-.24v-4.32L28,451.2l.24-1.2H22.68v-.48"/></clipPath><clipPath id="clip-path-2" transform="translate(0 -446.04)"><rect class="cls-2" x="0.13" width="841.92" height="595.2"/></clipPath><clipPath id="clip-path-3" transform="translate(0 -446.04)"><polyline class="cls-1" points="104.76 449.52 104.76 506.64 168.84 506.64 168.84 482.4 168.6 482.4 163.32 482.64 157.8 482.88 156.36 483.12 156.36 482.88 155.16 482.64 154.68 482.16 154.2 481.92 153.96 481.68 153 481.2 152.52 480.72 152.28 480.72 152.28 480.24 152.04 480.24 152.04 479.76 151.8 479.76 151.8 478.56 151.56 478.56 151.56 477.36 152.28 475.2 153 474.48 153.96 474 154.2 473.76 155.16 473.28 155.88 473.04 163.32 473.04 168.6 473.28 168.84 473.52 168.84 449.52 149.64 449.52 149.64 450 144.36 450 144.36 451.44 144.6 451.44 144.36 457.44 143.64 458.88 143.4 459.12 143.16 459.6 142.2 460.56 141.24 461.04 138.36 462 135.24 462.24 135.24 462 133.8 461.52 133.32 461.28 132.6 461.04 132.36 460.8 131.88 460.56 131.4 460.56 131.4 460.08 130.68 459.36 130.44 459.36 130.44 458.88 130.2 458.88 130.2 458.4 129.96 458.16 129.72 458.16 129.72 457.44 129.48 457.44 129.48 456.96 129.24 456.96 129.24 455.76 129 455.52 129.24 452.64 129.48 451.2 129.72 450 124.2 450 124.2 449.52"/></clipPath><clipPath id="clip-path-5" transform="translate(0 -446.04)"><path class="cls-1" d="M129,534.72v.72h-5.28v1.2H124v1.44h.24l-.24,4.08c-.45,2.61-3.57,4.89-6,5l-3.12.24v-.24l-1.68-.24-.24-.24-1-.48-.24-.24-1-.48-.72-.72h-.24v-.48h-.24v-.48l-.24-.24h-.24v-.72h-.24v-.72h-.24v-4.32l.48-2.4h-5.52v55.92H170v-39.6h-.24l-5.28.24-5.52.24-1.2.24v-.24l-1.2-.24-.48-.24-.72-.24L154,550.08h-.24v-.48h-.24v-.48h-.24v-1H153v-1.44l.24-1,.48-1,.48-.48.24-.48.48-.24.48-.48.72-.24.48-.24,1.2-.24h6.72l5.28.24.24.24v-8.16"/></clipPath></defs><title>WC-SINGLE</title><g id="Layer_2" data-name="Layer 2"><g id="Layer_1-2" data-name="Layer 1"><g class="cls-3"><g class="cls-4"><rect class="cls-5" x="3.48" y="3.48" width="63.84" height="57.12"/></g></g><g class="cls-6"><g class="cls-4"><rect class="cls-5" x="104.76" y="3.48" width="64.08" height="57.12"/></g></g><g class="cls-7"><g class="cls-4"><rect class="cls-5" x="103.56" y="88.68" width="66.48" height="56.64"/></g></g><line class="cls-8" x1="1.8" y1="1.8" x2="3.96" y2="1.8"/><line class="cls-8" x1="5.64" y1="1.8" x2="7.8" y2="1.8"/><line class="cls-8" x1="9.48" y1="1.8" x2="11.64" y2="1.8"/><line class="cls-8" x1="13.32" y1="1.8" x2="15.48" y2="1.8"/><line class="cls-8" x1="17.16" y1="1.8" x2="19.32" y2="1.8"/><line class="cls-8" x1="21" y1="1.8" x2="23.16" y2="1.8"/><line class="cls-8" x1="24.84" y1="1.8" x2="27" y2="1.8"/><line class="cls-8" x1="28.68" y1="1.8" x2="30.84" y2="1.8"/><line class="cls-8" x1="32.52" y1="1.8" x2="34.68" y2="1.8"/><line class="cls-8" x1="36.36" y1="1.8" x2="38.28" y2="1.8"/><line class="cls-8" x1="40.2" y1="1.8" x2="42.12" y2="1.8"/><line class="cls-8" x1="43.8" y1="1.8" x2="45.96" y2="1.8"/><line class="cls-8" x1="47.64" y1="1.8" x2="49.8" y2="1.8"/><line class="cls-8" x1="51.48" y1="1.8" x2="53.64" y2="1.8"/><line class="cls-8" x1="55.32" y1="1.8" x2="57.48" y2="1.8"/><line class="cls-8" x1="59.16" y1="1.8" x2="61.32" y2="1.8"/><line class="cls-8" x1="63" y1="1.8" x2="65.16" y2="1.8"/><polyline class="cls-8" points="66.84 1.8 69.24 1.8 69.24 4.44"/><line class="cls-8" x1="69.24" y1="6.12" x2="69.24" y2="8.28"/><line class="cls-8" x1="69.24" y1="9.96" x2="69.24" y2="12.12"/><line class="cls-8" x1="69.24" y1="13.8" x2="69.24" y2="15.96"/><line class="cls-8" x1="69.24" y1="17.64" x2="69.24" y2="19.8"/><line class="cls-8" x1="69.24" y1="21.48" x2="69.24" y2="23.64"/><line class="cls-8" x1="69.24" y1="25.32" x2="69.24" y2="27.48"/><line class="cls-8" x1="69.24" y1="29.16" x2="69.24" y2="31.32"/><line class="cls-8" x1="69.24" y1="33" x2="69.24" y2="35.16"/><line class="cls-8" x1="69.24" y1="36.84" x2="69.24" y2="38.76"/><line class="cls-8" x1="69.24" y1="40.68" x2="69.24" y2="42.6"/><line class="cls-8" x1="69.24" y1="44.28" x2="69.24" y2="46.44"/><line class="cls-8" x1="69.24" y1="48.12" x2="69.24" y2="50.28"/><line class="cls-8" x1="69.24" y1="51.96" x2="69.24" y2="54.12"/><line class="cls-8" x1="69.24" y1="55.8" x2="69.24" y2="57.96"/><polyline class="cls-8" points="69.24 59.64 69.24 62.28 66.84 62.28"/><line class="cls-8" x1="65.16" y1="62.28" x2="63" y2="62.28"/><line class="cls-8" x1="61.32" y1="62.28" x2="59.16" y2="62.28"/><line class="cls-8" x1="57.48" y1="62.28" x2="55.32" y2="62.28"/><line class="cls-8" x1="53.64" y1="62.28" x2="51.48" y2="62.28"/><line class="cls-8" x1="49.8" y1="62.28" x2="47.64" y2="62.28"/><line class="cls-8" x1="45.96" y1="62.28" x2="43.8" y2="62.28"/><line class="cls-8" x1="42.12" y1="62.28" x2="40.2" y2="62.28"/><line class="cls-8" x1="38.28" y1="62.28" x2="36.36" y2="62.28"/><line class="cls-8" x1="34.68" y1="62.28" x2="32.52" y2="62.28"/><line class="cls-8" x1="30.84" y1="62.28" x2="28.68" y2="62.28"/><line class="cls-8" x1="27" y1="62.28" x2="24.84" y2="62.28"/><line class="cls-8" x1="23.16" y1="62.28" x2="21" y2="62.28"/><line class="cls-8" x1="19.32" y1="62.28" x2="17.16" y2="62.28"/><line class="cls-8" x1="15.48" y1="62.28" x2="13.32" y2="62.28"/><line class="cls-8" x1="11.64" y1="62.28" x2="9.48" y2="62.28"/><line class="cls-8" x1="7.8" y1="62.28" x2="5.64" y2="62.28"/><polyline class="cls-8" points="3.96 62.28 1.8 62.28 1.8 59.64"/><line class="cls-8" x1="1.8" y1="57.96" x2="1.8" y2="55.8"/><line class="cls-8" x1="1.8" y1="54.12" x2="1.8" y2="51.96"/><line class="cls-8" x1="1.8" y1="50.28" x2="1.8" y2="48.12"/><line class="cls-8" x1="1.8" y1="46.44" x2="1.8" y2="44.28"/><line class="cls-8" x1="1.8" y1="42.6" x2="1.8" y2="40.68"/><line class="cls-8" x1="1.8" y1="38.76" x2="1.8" y2="36.84"/><line class="cls-8" x1="1.8" y1="35.16" x2="1.8" y2="33"/><line class="cls-8" x1="1.8" y1="31.32" x2="1.8" y2="29.16"/><line class="cls-8" x1="1.8" y1="27.48" x2="1.8" y2="25.32"/><line class="cls-8" x1="1.8" y1="23.64" x2="1.8" y2="21.48"/><line class="cls-8" x1="1.8" y1="19.8" x2="1.8" y2="17.64"/><line class="cls-8" x1="1.8" y1="15.96" x2="1.8" y2="13.8"/><line class="cls-8" x1="1.8" y1="12.12" x2="1.8" y2="9.96"/><line class="cls-8" x1="1.8" y1="8.28" x2="1.8" y2="6.12"/><line class="cls-8" x1="1.8" y1="4.44" x2="1.8" y2="1.8"/><polyline class="cls-9" points="33.24 62.28 32.52 56.04 30.36 50.04 27 44.52 22.44 39.96 16.92 36.6 10.92 34.44 4.44 33.72"/><polyline class="cls-9" points="33.24 62.28 32.52 56.04 30.36 50.04 27 44.52 22.44 39.96 16.92 36.6 10.92 34.44 4.44 33.72"/><line class="cls-9" x1="4.44" y1="62.28" x2="4.44" y2="33.72"/><polyline class="cls-9" points="5.88 62.28 5.88 33.72 4.44 33.72 4.44 62.28 5.88 62.28"/><polyline class="cls-9" points="70.92 0.12 0.12 0.12 0.12 64.2 70.92 64.2"/><line class="cls-9" x1="70.92" y1="64.2" x2="70.92" y2="0.12"/><polyline class="cls-9" points="67.32 60.6 3.48 60.6 3.48 3.48 67.32 3.48 67.32 60.6"/><line class="cls-9" x1="3.48" y1="60.6" x2="5.88" y2="60.6"/><line class="cls-9" x1="7.56" y1="60.6" x2="9.72" y2="60.6"/><line class="cls-9" x1="11.4" y1="60.6" x2="13.56" y2="60.6"/><line class="cls-9" x1="15.24" y1="60.6" x2="17.4" y2="60.6"/><line class="cls-9" x1="19.08" y1="60.6" x2="21.24" y2="60.6"/><line class="cls-9" x1="22.92" y1="60.6" x2="25.08" y2="60.6"/><line class="cls-9" x1="26.76" y1="60.6" x2="28.92" y2="60.6"/><line class="cls-9" x1="30.6" y1="60.6" x2="32.76" y2="60.6"/><line class="cls-9" x1="34.44" y1="60.6" x2="36.36" y2="60.6"/><line class="cls-9" x1="38.28" y1="60.6" x2="40.2" y2="60.6"/><line class="cls-9" x1="42.12" y1="60.6" x2="44.04" y2="60.6"/><line class="cls-9" x1="45.72" y1="60.6" x2="47.88" y2="60.6"/><line class="cls-9" x1="49.56" y1="60.6" x2="51.72" y2="60.6"/><line class="cls-9" x1="53.4" y1="60.6" x2="55.56" y2="60.6"/><line class="cls-9" x1="57.24" y1="60.6" x2="59.4" y2="60.6"/><line class="cls-9" x1="61.08" y1="60.6" x2="63.24" y2="60.6"/><polyline class="cls-9" points="64.92 60.6 67.32 60.6 67.32 58.92"/><line class="cls-9" x1="67.32" y1="57.24" x2="67.32" y2="55.08"/><line class="cls-9" x1="67.32" y1="53.4" x2="67.32" y2="51.24"/><line class="cls-9" x1="67.32" y1="49.56" x2="67.32" y2="47.4"/><line class="cls-9" x1="67.32" y1="45.72" x2="67.32" y2="43.56"/><line class="cls-9" x1="67.32" y1="41.88" x2="67.32" y2="39.72"/><line class="cls-9" x1="67.32" y1="38.04" x2="67.32" y2="36.36"/><line class="cls-9" x1="67.32" y1="27.72" x2="67.32" y2="26.04"/><line class="cls-9" x1="67.32" y1="24.36" x2="67.32" y2="22.2"/><line class="cls-9" x1="67.32" y1="20.52" x2="67.32" y2="18.36"/><line class="cls-9" x1="67.32" y1="16.68" x2="67.32" y2="14.52"/><line class="cls-9" x1="67.32" y1="12.84" x2="67.32" y2="10.68"/><line class="cls-9" x1="67.32" y1="9" x2="67.32" y2="6.84"/><polyline class="cls-9" points="67.32 5.16 67.32 3.48 66.36 3.48"/><line class="cls-9" x1="64.68" y1="3.48" x2="62.52" y2="3.48"/><line class="cls-9" x1="60.84" y1="3.48" x2="58.68" y2="3.48"/><line class="cls-9" x1="57" y1="3.48" x2="54.84" y2="3.48"/><line class="cls-9" x1="53.16" y1="3.48" x2="51" y2="3.48"/><line class="cls-9" x1="49.32" y1="3.48" x2="48.12" y2="3.48"/><line class="cls-9" x1="22.68" y1="3.48" x2="21.48" y2="3.48"/><line class="cls-9" x1="19.8" y1="3.48" x2="17.64" y2="3.48"/><line class="cls-9" x1="15.96" y1="3.48" x2="13.8" y2="3.48"/><line class="cls-9" x1="12.12" y1="3.48" x2="9.96" y2="3.48"/><line class="cls-9" x1="8.28" y1="3.48" x2="6.12" y2="3.48"/><polyline class="cls-9" points="4.44 3.48 3.48 3.48 3.48 6.36"/><line class="cls-9" x1="3.48" y1="8.04" x2="3.48" y2="10.2"/><line class="cls-9" x1="3.48" y1="11.88" x2="3.48" y2="14.04"/><line class="cls-9" x1="3.48" y1="15.72" x2="3.48" y2="17.88"/><line class="cls-9" x1="3.48" y1="19.56" x2="3.48" y2="21.72"/><line class="cls-9" x1="3.48" y1="23.4" x2="3.48" y2="25.56"/><line class="cls-9" x1="3.48" y1="27.24" x2="3.48" y2="29.4"/><line class="cls-9" x1="3.48" y1="31.08" x2="3.48" y2="33.24"/><line class="cls-9" x1="3.48" y1="34.92" x2="3.48" y2="37.08"/><line class="cls-9" x1="3.48" y1="38.76" x2="3.48" y2="40.68"/><line class="cls-9" x1="3.48" y1="42.6" x2="3.48" y2="44.52"/><line class="cls-9" x1="3.48" y1="46.2" x2="3.48" y2="48.36"/><line class="cls-9" x1="3.48" y1="50.04" x2="3.48" y2="52.2"/><line class="cls-9" x1="3.48" y1="53.88" x2="3.48" y2="56.04"/><line class="cls-9" x1="3.48" y1="57.72" x2="3.48" y2="60.6"/><polyline class="cls-10" points="67.08 36.6 67.32 36.6 67.32 36.36 67.32 32.04 67.32 27.72 67.32 27.48 67.08 27.48 56.28 27 55.08 27 53.88 27.48 52.68 27.96 51.72 28.68 51 29.4 50.52 30.36 50.28 31.56 50.28 32.52 50.52 33.72 51 34.68 51.72 35.4 52.68 36.12 53.88 36.84 55.08 37.08 56.28 37.08 67.08 36.6"/><polyline class="cls-9" points="66.12 27.72 65.4 28.2 64.92 29.16 64.44 30.6 64.2 32.04 64.44 33.72 64.92 35.16 65.4 35.88 66.12 36.36"/><polyline class="cls-9" points="57.96 27.48 58.92 27.48 60.12 27.96 60.6 28.44 61.08 28.92 61.32 29.4 61.56 29.64"/><polyline class="cls-9" points="61.8 32.04 61.8 30.84 61.56 29.64"/><polyline class="cls-9" points="61.8 32.04 61.8 33.24 61.56 34.44"/><polyline class="cls-9" points="61.08 35.16 61.32 34.92 61.56 34.44"/><polyline class="cls-9" points="60.12 36.12 60.6 35.88 61.08 35.16"/><polyline class="cls-9" points="57.96 36.84 58.92 36.6 60.12 36.12"/><line class="cls-9" x1="63" y1="33.48" x2="62.04" y2="33.48"/><line class="cls-9" x1="63" y1="33.48" x2="63" y2="33.48"/><line class="cls-9" x1="63" y1="30.6" x2="63" y2="33.48"/><line class="cls-9" x1="63" y1="30.6" x2="63" y2="30.6"/><line class="cls-9" x1="62.04" y1="30.6" x2="63" y2="30.6"/><line class="cls-9" x1="57.96" y1="27.48" x2="56.28" y2="27.24"/><line class="cls-9" x1="56.28" y1="36.84" x2="57.96" y2="36.84"/><polyline class="cls-9" points="51.72 35.16 53.88 36.36 56.28 36.84"/><polyline class="cls-9" points="51.72 28.92 50.52 30.84 50.52 33.24 51.72 35.16"/><polyline class="cls-9" points="56.52 27.24 54.12 27.72 51.72 28.92"/><line class="cls-9" x1="60.6" y1="27.96" x2="60.6" y2="36.12"/><polyline class="cls-9" points="57.96 37.08 59.16 36.84 60.12 36.36 60.84 36.12 61.32 35.4 61.56 34.92 61.8 34.44"/><polyline class="cls-9" points="62.04 32.04 62.04 33.24 61.8 34.44"/><polyline class="cls-9" points="62.04 32.04 62.04 30.84 61.8 29.64"/><polyline class="cls-9" points="61.32 28.68 61.56 29.16 61.8 29.64"/><polyline class="cls-9" points="60.12 27.72 60.84 28.2 61.32 28.68"/><polyline class="cls-9" points="57.96 27.24 59.16 27.24 60.12 27.72"/><line class="cls-9" x1="67.32" y1="36.36" x2="67.32" y2="27.72"/><polyline class="cls-9" points="67.08 36.6 67.32 36.6 67.32 36.36"/><line class="cls-9" x1="56.28" y1="37.08" x2="67.08" y2="36.6"/><polyline class="cls-9" points="51.72 35.4 53.88 36.84 56.28 37.08"/><polyline class="cls-9" points="51.72 28.68 50.28 30.84 50.28 33.24 51.72 35.4"/><polyline class="cls-9" points="56.28 27 53.88 27.48 51.72 28.68"/><line class="cls-9" x1="67.08" y1="27.48" x2="56.28" y2="27"/><polyline class="cls-9" points="67.32 27.72 67.32 27.72 67.08 27.48"/><line class="cls-9" x1="67.32" y1="27.48" x2="67.32" y2="36.6"/><polyline class="cls-10" points="67.32 27.72 67.32 27.72 67.32 27.48"/><polyline class="cls-10" points="67.08 27.48 56.28 27 55.08 27 53.88 27.48 52.68 27.96 51.72 28.68 51 29.4 50.52 30.36 50.28 31.56 50.28 32.52 50.52 33.72 51 34.68 51.72 35.4 52.68 36.12 53.88 36.84 55.08 37.08 56.28 37.08 67.08 36.6"/><polyline class="cls-10" points="67.32 36.6 67.32 36.6 67.32 36.36"/><polyline class="cls-10" points="40.68 7.56 39.96 7.56 39.24 7.32"/><polyline class="cls-10" points="30.12 7.56 30.84 7.56 31.56 7.32"/><line class="cls-10" x1="42.12" y1="9.24" x2="42.12" y2="9"/><polyline class="cls-10" points="42.12 9.24 42.12 9.96 42.12 10.68"/><polyline class="cls-10" points="40.68 7.56 41.64 8.04 42.12 9"/><line class="cls-10" x1="28.68" y1="9.24" x2="28.68" y2="9"/><polyline class="cls-10" points="28.68 9.24 28.68 9.96 28.68 10.68"/><polyline class="cls-10" points="30.12 7.56 29.16 8.04 28.68 9"/><line class="cls-9" x1="28.2" y1="3.48" x2="42.6" y2="3.48"/><polyline class="cls-9" points="28.2 12.12 28.92 13.32 29.88 14.52"/><polyline class="cls-9" points="27.72 9.72 27.72 10.92 28.2 12.12"/><polyline class="cls-9" points="28.2 3.48 27.72 6.6 27.72 9.72"/><polyline class="cls-9" points="43.32 9.72 43.08 6.6 42.6 3.48"/><polyline class="cls-9" points="32.28 15.72 33.96 16.2 35.4 16.44"/><polyline class="cls-9" points="29.88 14.52 31.08 15.24 32.28 15.72"/><polyline class="cls-9" points="42.6 12.12 43.08 10.92 43.32 9.72"/><polyline class="cls-9" points="40.92 14.52 41.88 13.32 42.6 12.12"/><polyline class="cls-9" points="38.52 15.72 39.72 15.24 40.92 14.52"/><polyline class="cls-9" points="35.4 16.44 36.84 16.2 38.52 15.72"/><polyline class="cls-10" points="42.6 3.96 28.2 3.96 27.72 6.84 27.72 9.72 27.72 10.92 28.2 12.12 28.92 13.32 29.88 14.52 31.08 15.24 32.28 15.72 33.96 16.2 35.4 16.44 36.84 16.2 38.52 15.72 39.72 15.24 40.92 14.52 41.88 13.32 42.6 12.12 43.08 10.92 43.32 9.72 43.08 6.84 42.6 3.96"/><polyline class="cls-11" points="48.12 3.48 22.68 3.48 22.68 3.96 48.12 3.96 48.12 3.48"/><line class="cls-8" x1="103.08" y1="1.8" x2="105.48" y2="1.8"/><line class="cls-8" x1="107.16" y1="1.8" x2="109.32" y2="1.8"/><line class="cls-8" x1="111" y1="1.8" x2="113.16" y2="1.8"/><line class="cls-8" x1="114.84" y1="1.8" x2="116.76" y2="1.8"/><line class="cls-8" x1="118.68" y1="1.8" x2="120.6" y2="1.8"/><line class="cls-8" x1="122.28" y1="1.8" x2="124.44" y2="1.8"/><line class="cls-8" x1="126.12" y1="1.8" x2="128.28" y2="1.8"/><line class="cls-8" x1="129.96" y1="1.8" x2="132.12" y2="1.8"/><line class="cls-8" x1="133.8" y1="1.8" x2="135.96" y2="1.8"/><line class="cls-8" x1="137.64" y1="1.8" x2="139.8" y2="1.8"/><line class="cls-8" x1="141.48" y1="1.8" x2="143.64" y2="1.8"/><line class="cls-8" x1="145.32" y1="1.8" x2="147.48" y2="1.8"/><line class="cls-8" x1="149.16" y1="1.8" x2="151.32" y2="1.8"/><line class="cls-8" x1="153" y1="1.8" x2="155.16" y2="1.8"/><line class="cls-8" x1="156.84" y1="1.8" x2="159" y2="1.8"/><line class="cls-8" x1="160.68" y1="1.8" x2="162.84" y2="1.8"/><line class="cls-8" x1="164.52" y1="1.8" x2="166.68" y2="1.8"/><polyline class="cls-8" points="168.36 1.8 170.52 1.8 170.52 4.44"/><line class="cls-8" x1="170.52" y1="6.12" x2="170.52" y2="8.28"/><line class="cls-8" x1="170.52" y1="9.96" x2="170.52" y2="12.12"/><line class="cls-8" x1="170.52" y1="13.8" x2="170.52" y2="15.96"/><line class="cls-8" x1="170.52" y1="17.64" x2="170.52" y2="19.8"/><line class="cls-8" x1="170.52" y1="21.48" x2="170.52" y2="23.64"/><line class="cls-8" x1="170.52" y1="25.32" x2="170.52" y2="27.48"/><line class="cls-8" x1="170.52" y1="29.16" x2="170.52" y2="31.32"/><line class="cls-8" x1="170.52" y1="33" x2="170.52" y2="35.16"/><line class="cls-8" x1="170.52" y1="36.84" x2="170.52" y2="38.76"/><line class="cls-8" x1="170.52" y1="40.68" x2="170.52" y2="42.6"/><line class="cls-8" x1="170.52" y1="44.28" x2="170.52" y2="46.44"/><line class="cls-8" x1="170.52" y1="48.12" x2="170.52" y2="50.28"/><line class="cls-8" x1="170.52" y1="51.96" x2="170.52" y2="54.12"/><line class="cls-8" x1="170.52" y1="55.8" x2="170.52" y2="57.96"/><polyline class="cls-8" points="170.52 59.64 170.52 62.28 168.36 62.28"/><line class="cls-8" x1="166.68" y1="62.28" x2="164.52" y2="62.28"/><line class="cls-8" x1="162.84" y1="62.28" x2="160.68" y2="62.28"/><line class="cls-8" x1="159" y1="62.28" x2="156.84" y2="62.28"/><line class="cls-8" x1="155.16" y1="62.28" x2="153" y2="62.28"/><line class="cls-8" x1="151.32" y1="62.28" x2="149.16" y2="62.28"/><line class="cls-8" x1="147.48" y1="62.28" x2="145.32" y2="62.28"/><line class="cls-8" x1="143.64" y1="62.28" x2="141.48" y2="62.28"/><line class="cls-8" x1="139.8" y1="62.28" x2="137.64" y2="62.28"/><line class="cls-8" x1="135.96" y1="62.28" x2="133.8" y2="62.28"/><line class="cls-8" x1="132.12" y1="62.28" x2="129.96" y2="62.28"/><line class="cls-8" x1="128.28" y1="62.28" x2="126.12" y2="62.28"/><line class="cls-8" x1="124.44" y1="62.28" x2="122.28" y2="62.28"/><line class="cls-8" x1="120.6" y1="62.28" x2="118.68" y2="62.28"/><line class="cls-8" x1="116.76" y1="62.28" x2="114.84" y2="62.28"/><line class="cls-8" x1="113.16" y1="62.28" x2="111" y2="62.28"/><line class="cls-8" x1="109.32" y1="62.28" x2="107.16" y2="62.28"/><polyline class="cls-8" points="105.48 62.28 103.08 62.28 103.08 59.64"/><line class="cls-8" x1="103.08" y1="57.96" x2="103.08" y2="55.8"/><line class="cls-8" x1="103.08" y1="54.12" x2="103.08" y2="51.96"/><line class="cls-8" x1="103.08" y1="50.28" x2="103.08" y2="48.12"/><line class="cls-8" x1="103.08" y1="46.44" x2="103.08" y2="44.28"/><line class="cls-8" x1="103.08" y1="42.6" x2="103.08" y2="40.68"/><line class="cls-8" x1="103.08" y1="38.76" x2="103.08" y2="36.84"/><line class="cls-8" x1="103.08" y1="35.16" x2="103.08" y2="33"/><line class="cls-8" x1="103.08" y1="31.32" x2="103.08" y2="29.16"/><line class="cls-8" x1="103.08" y1="27.48" x2="103.08" y2="25.32"/><line class="cls-8" x1="103.08" y1="23.64" x2="103.08" y2="21.48"/><line class="cls-8" x1="103.08" y1="19.8" x2="103.08" y2="17.64"/><line class="cls-8" x1="103.08" y1="15.96" x2="103.08" y2="13.8"/><line class="cls-8" x1="103.08" y1="12.12" x2="103.08" y2="9.96"/><line class="cls-8" x1="103.08" y1="8.28" x2="103.08" y2="6.12"/><line class="cls-8" x1="103.08" y1="4.44" x2="103.08" y2="1.8"/><polyline class="cls-9" points="103.08 30.84 109.56 31.56 115.56 33.72 121.08 37.08 125.4 41.64 129 47.16 130.92 53.16 131.64 59.64"/><polyline class="cls-9" points="103.08 30.84 109.56 31.56 115.56 33.72 121.08 37.08 125.4 41.64 129 47.16 130.92 53.16 131.64 59.64"/><line class="cls-9" x1="103.08" y1="59.64" x2="131.64" y2="59.64"/><polyline class="cls-9" points="103.08 58.2 131.64 58.2 131.64 59.64 103.08 59.64 103.08 58.2"/><polyline class="cls-9" points="168.84 60.6 104.76 60.6 104.76 3.48 168.84 3.48 168.84 60.6"/><polyline class="cls-9" points="172.2 0.12 101.4 0.12 101.4 64.2 172.2 64.2 172.2 0.12"/><line class="cls-9" x1="104.76" y1="60.6" x2="107.4" y2="60.6"/><line class="cls-9" x1="109.08" y1="60.6" x2="111.24" y2="60.6"/><line class="cls-9" x1="112.92" y1="60.6" x2="114.84" y2="60.6"/><line class="cls-9" x1="116.76" y1="60.6" x2="118.68" y2="60.6"/><line class="cls-9" x1="120.36" y1="60.6" x2="122.52" y2="60.6"/><line class="cls-9" x1="124.2" y1="60.6" x2="126.36" y2="60.6"/><line class="cls-9" x1="128.04" y1="60.6" x2="130.2" y2="60.6"/><line class="cls-9" x1="131.88" y1="60.6" x2="134.04" y2="60.6"/><line class="cls-9" x1="135.72" y1="60.6" x2="137.88" y2="60.6"/><line class="cls-9" x1="139.56" y1="60.6" x2="141.72" y2="60.6"/><line class="cls-9" x1="143.4" y1="60.6" x2="145.56" y2="60.6"/><line class="cls-9" x1="147.24" y1="60.6" x2="149.4" y2="60.6"/><line class="cls-9" x1="151.08" y1="60.6" x2="153.24" y2="60.6"/><line class="cls-9" x1="154.92" y1="60.6" x2="157.08" y2="60.6"/><line class="cls-9" x1="158.76" y1="60.6" x2="160.92" y2="60.6"/><line class="cls-9" x1="162.6" y1="60.6" x2="164.76" y2="60.6"/><polyline class="cls-9" points="166.44 60.6 168.84 60.6 168.84 58.92"/><line class="cls-9" x1="168.84" y1="57.24" x2="168.84" y2="55.08"/><line class="cls-9" x1="168.84" y1="53.4" x2="168.84" y2="51.24"/><line class="cls-9" x1="168.84" y1="49.56" x2="168.84" y2="47.4"/><line class="cls-9" x1="168.84" y1="45.72" x2="168.84" y2="43.56"/><line class="cls-9" x1="168.84" y1="41.88" x2="168.84" y2="39.72"/><line class="cls-9" x1="168.84" y1="38.04" x2="168.84" y2="36.36"/><line class="cls-9" x1="168.84" y1="27.72" x2="168.84" y2="26.04"/><line class="cls-9" x1="168.84" y1="24.36" x2="168.84" y2="22.2"/><line class="cls-9" x1="168.84" y1="20.52" x2="168.84" y2="18.36"/><line class="cls-9" x1="168.84" y1="16.68" x2="168.84" y2="14.52"/><line class="cls-9" x1="168.84" y1="12.84" x2="168.84" y2="10.68"/><line class="cls-9" x1="168.84" y1="9" x2="168.84" y2="6.84"/><polyline class="cls-9" points="168.84 5.16 168.84 3.48 167.64 3.48"/><line class="cls-9" x1="165.96" y1="3.48" x2="163.8" y2="3.48"/><line class="cls-9" x1="162.12" y1="3.48" x2="159.96" y2="3.48"/><line class="cls-9" x1="158.28" y1="3.48" x2="156.36" y2="3.48"/><line class="cls-9" x1="154.44" y1="3.48" x2="152.52" y2="3.48"/><line class="cls-9" x1="150.84" y1="3.48" x2="149.64" y2="3.48"/><line class="cls-9" x1="124.2" y1="3.48" x2="123" y2="3.48"/><line class="cls-9" x1="121.32" y1="3.48" x2="119.16" y2="3.48"/><line class="cls-9" x1="117.48" y1="3.48" x2="115.32" y2="3.48"/><line class="cls-9" x1="113.64" y1="3.48" x2="111.48" y2="3.48"/><line class="cls-9" x1="109.8" y1="3.48" x2="107.64" y2="3.48"/><polyline class="cls-9" points="105.96 3.48 104.76 3.48 104.76 6.36"/><line class="cls-9" x1="104.76" y1="8.04" x2="104.76" y2="10.2"/><line class="cls-9" x1="104.76" y1="11.88" x2="104.76" y2="14.04"/><line class="cls-9" x1="104.76" y1="15.72" x2="104.76" y2="17.88"/><line class="cls-9" x1="104.76" y1="19.56" x2="104.76" y2="21.72"/><line class="cls-9" x1="104.76" y1="23.4" x2="104.76" y2="25.56"/><line class="cls-9" x1="104.76" y1="27.24" x2="104.76" y2="29.4"/><line class="cls-9" x1="104.76" y1="31.08" x2="104.76" y2="33.24"/><line class="cls-9" x1="104.76" y1="34.92" x2="104.76" y2="37.08"/><line class="cls-9" x1="104.76" y1="38.76" x2="104.76" y2="40.68"/><line class="cls-9" x1="104.76" y1="42.6" x2="104.76" y2="44.52"/><line class="cls-9" x1="104.76" y1="46.2" x2="104.76" y2="48.36"/><line class="cls-9" x1="104.76" y1="50.04" x2="104.76" y2="52.2"/><line class="cls-9" x1="104.76" y1="53.88" x2="104.76" y2="56.04"/><line class="cls-9" x1="104.76" y1="57.72" x2="104.76" y2="60.6"/><polyline class="cls-10" points="168.6 36.6 168.6 36.6 168.84 36.6 168.84 36.36 168.84 32.04 168.84 27.72 168.84 27.48 168.6 27.48 157.8 27 156.36 27 155.16 27.48 154.2 27.96 153 28.68 152.28 29.4 151.8 30.36 151.56 31.56 151.56 32.52 151.8 33.72 152.28 34.68 153 35.4 154.2 36.12 155.16 36.84 156.36 37.08 157.8 37.08 168.6 36.6"/><polyline class="cls-9" points="167.64 27.72 166.68 28.2 166.2 29.16 165.96 30.6 165.72 32.04 165.96 33.72 166.2 35.16 166.68 35.88 167.64 36.36"/><polyline class="cls-9" points="159.48 27.48 160.44 27.48 161.4 27.96 162.12 28.44 162.6 28.92 162.84 29.4 163.08 29.64"/><polyline class="cls-9" points="163.32 32.04 163.32 30.84 163.08 29.64"/><polyline class="cls-9" points="163.32 32.04 163.32 33.24 163.08 34.44"/><polyline class="cls-9" points="162.6 35.16 162.84 34.92 163.08 34.44"/><polyline class="cls-9" points="161.4 36.12 162.12 35.88 162.6 35.16"/><polyline class="cls-9" points="159.48 36.84 160.44 36.6 161.4 36.12"/><line class="cls-9" x1="164.28" y1="33.48" x2="163.32" y2="33.48"/><line class="cls-9" x1="164.52" y1="33.48" x2="164.28" y2="33.48"/><line class="cls-9" x1="164.52" y1="30.6" x2="164.52" y2="33.48"/><line class="cls-9" x1="164.28" y1="30.6" x2="164.52" y2="30.6"/><line class="cls-9" x1="163.32" y1="30.6" x2="164.28" y2="30.6"/><line class="cls-9" x1="159.48" y1="27.48" x2="157.8" y2="27.24"/><line class="cls-9" x1="157.8" y1="36.84" x2="159.48" y2="36.84"/><polyline class="cls-9" points="153.24 35.16 155.4 36.36 157.8 36.84"/><polyline class="cls-9" points="153.24 28.92 152.04 30.84 152.04 33.24 153.24 35.16"/><polyline class="cls-9" points="158.04 27.24 155.4 27.72 153.24 28.92"/><line class="cls-9" x1="162.12" y1="27.96" x2="162.12" y2="36.12"/><polyline class="cls-9" points="159.48 37.08 160.44 36.84 161.64 36.36 162.12 36.12 162.84 35.4 163.08 34.92 163.32 34.44"/><polyline class="cls-9" points="163.56 32.04 163.56 33.24 163.32 34.44"/><polyline class="cls-9" points="163.56 32.04 163.56 30.84 163.32 29.64"/><polyline class="cls-9" points="162.84 28.68 163.08 29.16 163.32 29.64"/><polyline class="cls-9" points="161.64 27.72 162.12 28.2 162.84 28.68"/><polyline class="cls-9" points="159.48 27.24 160.44 27.24 161.64 27.72"/><line class="cls-9" x1="168.84" y1="36.36" x2="168.84" y2="27.72"/><polyline class="cls-9" points="168.6 36.6 168.84 36.6 168.84 36.36"/><line class="cls-9" x1="157.8" y1="37.08" x2="168.6" y2="36.6"/><polyline class="cls-9" points="153 35.4 155.16 36.84 157.8 37.08"/><polyline class="cls-9" points="153 28.68 151.8 30.84 151.8 33.24 153 35.4"/><polyline class="cls-9" points="157.8 27 155.16 27.48 153 28.68"/><line class="cls-9" x1="168.6" y1="27.48" x2="157.8" y2="27"/><polyline class="cls-9" points="168.84 27.72 168.84 27.72 168.6 27.48"/><line class="cls-9" x1="168.84" y1="27.48" x2="168.84" y2="36.6"/><polyline class="cls-10" points="168.84 27.72 168.84 27.72 168.84 27.48 168.6 27.48 157.8 27 156.36 27 155.16 27.48 154.2 27.96 153 28.68 152.28 29.4 151.8 30.36 151.56 31.56 151.56 32.52 151.8 33.72 152.28 34.68 153 35.4 154.2 36.12 155.16 36.84 156.36 37.08 157.8 37.08 168.6 36.6 168.84 36.6 168.84 36.36"/><polyline class="cls-10" points="142.2 7.56 141.48 7.56 140.76 7.32"/><polyline class="cls-10" points="131.4 7.56 132.12 7.56 133.08 7.32"/><line class="cls-10" x1="143.64" y1="9.24" x2="143.4" y2="9"/><polyline class="cls-10" points="143.64 9.24 143.64 9.96 143.4 10.68"/><polyline class="cls-10" points="142.2 7.56 142.92 8.04 143.4 9"/><line class="cls-10" x1="130.2" y1="9.24" x2="130.2" y2="9"/><polyline class="cls-10" points="130.2 9.24 129.96 9.96 130.2 10.68"/><polyline class="cls-10" points="131.4 7.56 130.68 8.04 130.2 9"/><line class="cls-9" x1="129.72" y1="3.48" x2="143.88" y2="3.48"/><polyline class="cls-9" points="129.72 12.12 130.44 13.32 131.4 14.52"/><polyline class="cls-9" points="129 9.72 129.24 10.92 129.72 12.12"/><polyline class="cls-9" points="129.72 3.48 129.24 6.6 129 9.72"/><polyline class="cls-9" points="144.6 9.72 144.36 6.6 143.88 3.48"/><polyline class="cls-9" points="133.8 15.72 135.24 16.2 136.92 16.44"/><polyline class="cls-9" points="131.4 14.52 132.6 15.24 133.8 15.72"/><polyline class="cls-9" points="144.12 12.12 144.6 10.92 144.6 9.72"/><polyline class="cls-9" points="142.44 14.52 143.4 13.32 144.12 12.12"/><polyline class="cls-9" points="139.8 15.72 141.24 15.24 142.44 14.52"/><polyline class="cls-9" points="136.92 16.44 138.36 16.2 139.8 15.72"/><polyline class="cls-10" points="144.12 3.96 129.72 3.96 129.24 6.84 129 9.72 129.24 10.92 129.72 12.12 130.44 13.32 131.4 14.52 132.6 15.24 133.8 15.72 135.24 16.2 136.92 16.44 138.36 16.2 139.8 15.72 141.24 15.24 142.44 14.52 143.4 13.32 144.12 12.12 144.6 10.92 144.6 9.72 144.6 6.84 144.12 3.96"/><polyline class="cls-11" points="149.64 3.48 124.2 3.48 124.2 3.96 149.64 3.96 149.64 3.48"/><line class="cls-8" x1="101.88" y1="87" x2="103.56" y2="87"/><line class="cls-8" x1="105.24" y1="87" x2="107.4" y2="87"/><line class="cls-8" x1="109.08" y1="87" x2="111.24" y2="87"/><line class="cls-8" x1="112.92" y1="87" x2="114.84" y2="87"/><line class="cls-8" x1="116.76" y1="87" x2="118.68" y2="87"/><line class="cls-8" x1="120.36" y1="87" x2="122.52" y2="87"/><line class="cls-8" x1="124.2" y1="87" x2="126.36" y2="87"/><line class="cls-8" x1="128.04" y1="87" x2="130.2" y2="87"/><line class="cls-8" x1="131.88" y1="87" x2="134.04" y2="87"/><line class="cls-8" x1="135.72" y1="87" x2="137.88" y2="87"/><line class="cls-8" x1="139.56" y1="87" x2="141.72" y2="87"/><line class="cls-8" x1="143.4" y1="87" x2="145.56" y2="87"/><line class="cls-8" x1="147.24" y1="87" x2="149.4" y2="87"/><line class="cls-8" x1="151.08" y1="87" x2="153.24" y2="87"/><line class="cls-8" x1="154.92" y1="87" x2="157.08" y2="87"/><line class="cls-8" x1="158.76" y1="87" x2="160.92" y2="87"/><line class="cls-8" x1="162.6" y1="87" x2="164.76" y2="87"/><line class="cls-8" x1="166.44" y1="87" x2="168.6" y2="87"/><polyline class="cls-8" points="170.28 87 171.72 87 171.72 89.4"/><line class="cls-8" x1="171.72" y1="91.08" x2="171.72" y2="93.24"/><line class="cls-8" x1="171.72" y1="94.92" x2="171.72" y2="97.08"/><line class="cls-8" x1="171.72" y1="98.76" x2="171.72" y2="100.92"/><line class="cls-8" x1="171.72" y1="102.6" x2="171.72" y2="104.76"/><line class="cls-8" x1="171.72" y1="106.44" x2="171.72" y2="108.6"/><line class="cls-8" x1="171.72" y1="110.28" x2="171.72" y2="112.44"/><line class="cls-8" x1="171.72" y1="114.12" x2="171.72" y2="116.28"/><line class="cls-8" x1="171.72" y1="117.96" x2="171.72" y2="120.12"/><line class="cls-8" x1="171.72" y1="121.8" x2="171.72" y2="123.96"/><line class="cls-8" x1="171.72" y1="125.64" x2="171.72" y2="127.8"/><line class="cls-8" x1="171.72" y1="129.48" x2="171.72" y2="131.4"/><line class="cls-8" x1="171.72" y1="133.32" x2="171.72" y2="135.24"/><line class="cls-8" x1="171.72" y1="137.16" x2="171.72" y2="139.08"/><line class="cls-8" x1="171.72" y1="140.76" x2="171.72" y2="142.92"/><polyline class="cls-8" points="171.72 144.6 171.72 147 170.28 147"/><line class="cls-8" x1="168.6" y1="147" x2="166.44" y2="147"/><line class="cls-8" x1="164.76" y1="147" x2="162.6" y2="147"/><line class="cls-8" x1="160.92" y1="147" x2="158.76" y2="147"/><line class="cls-8" x1="157.08" y1="147" x2="154.92" y2="147"/><line class="cls-8" x1="153.24" y1="147" x2="151.08" y2="147"/><line class="cls-8" x1="149.4" y1="147" x2="147.24" y2="147"/><line class="cls-8" x1="145.56" y1="147" x2="143.4" y2="147"/><line class="cls-8" x1="141.72" y1="147" x2="139.56" y2="147"/><line class="cls-8" x1="137.88" y1="147" x2="135.72" y2="147"/><line class="cls-8" x1="134.04" y1="147" x2="131.88" y2="147"/><line class="cls-8" x1="130.2" y1="147" x2="128.04" y2="147"/><line class="cls-8" x1="126.36" y1="147" x2="124.2" y2="147"/><line class="cls-8" x1="122.52" y1="147" x2="120.36" y2="147"/><line class="cls-8" x1="118.68" y1="147" x2="116.76" y2="147"/><line class="cls-8" x1="114.84" y1="147" x2="112.92" y2="147"/><line class="cls-8" x1="111.24" y1="147" x2="109.08" y2="147"/><line class="cls-8" x1="107.4" y1="147" x2="105.24" y2="147"/><polyline class="cls-8" points="103.56 147 101.88 147 101.88 144.6"/><line class="cls-8" x1="101.88" y1="142.92" x2="101.88" y2="140.76"/><line class="cls-8" x1="101.88" y1="139.08" x2="101.88" y2="137.16"/><line class="cls-8" x1="101.88" y1="135.24" x2="101.88" y2="133.32"/><line class="cls-8" x1="101.88" y1="131.4" x2="101.88" y2="129.48"/><line class="cls-8" x1="101.88" y1="127.8" x2="101.88" y2="125.64"/><line class="cls-8" x1="101.88" y1="123.96" x2="101.88" y2="121.8"/><line class="cls-8" x1="101.88" y1="120.12" x2="101.88" y2="117.96"/><line class="cls-8" x1="101.88" y1="116.28" x2="101.88" y2="114.12"/><line class="cls-8" x1="101.88" y1="112.44" x2="101.88" y2="110.28"/><line class="cls-8" x1="101.88" y1="108.6" x2="101.88" y2="106.44"/><line class="cls-8" x1="101.88" y1="104.76" x2="101.88" y2="102.6"/><line class="cls-8" x1="101.88" y1="100.92" x2="101.88" y2="98.76"/><line class="cls-8" x1="101.88" y1="97.08" x2="101.88" y2="94.92"/><line class="cls-8" x1="101.88" y1="93.24" x2="101.88" y2="91.08"/><line class="cls-8" x1="101.88" y1="89.4" x2="101.88" y2="87"/><polyline class="cls-9" points="133.32 147 132.6 140.76 130.44 134.76 127.08 129.24 122.52 124.68 117 121.32 111 119.16 104.76 118.44"/><polyline class="cls-9" points="133.32 147 132.6 140.76 130.44 134.76 127.08 129.24 122.52 124.68 117 121.32 111 119.16 104.76 118.44"/><line class="cls-9" x1="104.76" y1="147" x2="104.76" y2="118.44"/><polyline class="cls-9" points="106.2 147 106.2 118.44 104.76 118.44 104.76 147 106.2 147"/><polyline class="cls-9" points="170.04 145.32 103.56 145.32 103.56 88.68 170.04 88.68 170.04 145.32"/><polyline class="cls-9" points="173.64 85.32 100.2 85.32 100.2 148.68 173.64 148.68 173.64 85.32"/><line class="cls-9" x1="103.56" y1="145.32" x2="105.48" y2="145.32"/><line class="cls-9" x1="107.16" y1="145.32" x2="109.32" y2="145.32"/><line class="cls-9" x1="111" y1="145.32" x2="113.16" y2="145.32"/><line class="cls-9" x1="114.84" y1="145.32" x2="116.76" y2="145.32"/><line class="cls-9" x1="118.68" y1="145.32" x2="120.6" y2="145.32"/><line class="cls-9" x1="122.28" y1="145.32" x2="124.44" y2="145.32"/><line class="cls-9" x1="126.12" y1="145.32" x2="128.28" y2="145.32"/><line class="cls-9" x1="129.96" y1="145.32" x2="132.12" y2="145.32"/><line class="cls-9" x1="133.8" y1="145.32" x2="135.96" y2="145.32"/><line class="cls-9" x1="137.64" y1="145.32" x2="139.8" y2="145.32"/><line class="cls-9" x1="141.48" y1="145.32" x2="143.64" y2="145.32"/><line class="cls-9" x1="145.32" y1="145.32" x2="147.48" y2="145.32"/><line class="cls-9" x1="149.16" y1="145.32" x2="151.32" y2="145.32"/><line class="cls-9" x1="153" y1="145.32" x2="155.16" y2="145.32"/><line class="cls-9" x1="156.84" y1="145.32" x2="159" y2="145.32"/><line class="cls-9" x1="160.68" y1="145.32" x2="162.84" y2="145.32"/><line class="cls-9" x1="164.52" y1="145.32" x2="166.68" y2="145.32"/><polyline class="cls-9" points="168.36 145.32 170.04 145.32 170.04 143.64"/><line class="cls-9" x1="170.04" y1="141.96" x2="170.04" y2="139.8"/><line class="cls-9" x1="170.04" y1="138.12" x2="170.04" y2="135.96"/><line class="cls-9" x1="170.04" y1="134.28" x2="170.04" y2="132.12"/><line class="cls-9" x1="170.04" y1="130.44" x2="170.04" y2="128.28"/><line class="cls-9" x1="170.04" y1="126.6" x2="170.04" y2="124.44"/><line class="cls-9" x1="170.04" y1="122.76" x2="170.04" y2="120.6"/><line class="cls-9" x1="170.04" y1="118.92" x2="170.04" y2="116.76"/><line class="cls-9" x1="170.04" y1="115.08" x2="170.04" y2="112.92"/><line class="cls-9" x1="170.04" y1="111.24" x2="170.04" y2="109.32"/><line class="cls-9" x1="170.04" y1="107.4" x2="170.04" y2="105.72"/><line class="cls-9" x1="170.04" y1="97.32" x2="170.04" y2="95.64"/><line class="cls-9" x1="170.04" y1="93.96" x2="170.04" y2="92.04"/><polyline class="cls-9" points="170.04 90.12 170.04 88.68 167.64 88.68"/><line class="cls-9" x1="165.96" y1="88.68" x2="163.8" y2="88.68"/><line class="cls-9" x1="162.12" y1="88.68" x2="159.96" y2="88.68"/><line class="cls-9" x1="158.28" y1="88.68" x2="156.12" y2="88.68"/><line class="cls-9" x1="154.44" y1="88.68" x2="152.28" y2="88.68"/><line class="cls-9" x1="150.6" y1="88.68" x2="148.44" y2="88.68"/><line class="cls-9" x1="146.76" y1="88.68" x2="144.6" y2="88.68"/><line class="cls-9" x1="142.92" y1="88.68" x2="140.76" y2="88.68"/><line class="cls-9" x1="139.08" y1="88.68" x2="137.16" y2="88.68"/><line class="cls-9" x1="135.24" y1="88.68" x2="133.32" y2="88.68"/><line class="cls-9" x1="131.64" y1="88.68" x2="129" y2="88.68"/><line class="cls-9" x1="103.56" y1="89.4" x2="103.56" y2="91.56"/><line class="cls-9" x1="103.56" y1="93.24" x2="103.56" y2="95.4"/><line class="cls-9" x1="103.56" y1="97.08" x2="103.56" y2="99.24"/><line class="cls-9" x1="103.56" y1="100.92" x2="103.56" y2="103.08"/><line class="cls-9" x1="103.56" y1="104.76" x2="103.56" y2="106.92"/><line class="cls-9" x1="103.56" y1="108.6" x2="103.56" y2="110.76"/><line class="cls-9" x1="103.56" y1="112.44" x2="103.56" y2="114.6"/><line class="cls-9" x1="103.56" y1="116.28" x2="103.56" y2="118.44"/><line class="cls-9" x1="103.56" y1="120.12" x2="103.56" y2="122.28"/><line class="cls-9" x1="103.56" y1="123.96" x2="103.56" y2="126.12"/><line class="cls-9" x1="103.56" y1="127.8" x2="103.56" y2="129.96"/><line class="cls-9" x1="103.56" y1="131.64" x2="103.56" y2="133.8"/><line class="cls-9" x1="103.56" y1="135.48" x2="103.56" y2="137.64"/><line class="cls-9" x1="103.56" y1="139.32" x2="103.56" y2="141.48"/><line class="cls-9" x1="103.56" y1="143.16" x2="103.56" y2="145.32"/><polyline class="cls-10" points="169.8 105.96 170.04 105.96 170.04 105.72 170.04 101.4 170.04 97.32 170.04 97.08 169.8 96.84 159 96.36 157.8 96.6 156.6 96.84 155.4 97.32 154.44 98.04 153.72 99 153.24 99.96 153 100.92 153 102.12 153.24 103.08 153.72 104.04 154.44 104.76 155.4 105.72 156.6 106.2 157.8 106.44 159 106.44 169.8 105.96"/><polyline class="cls-9" points="168.84 97.08 168.12 97.56 167.4 98.52 167.16 99.96 166.92 101.4 167.16 103.08 167.4 104.52 168.12 105.24 168.84 105.96"/><polyline class="cls-9" points="160.68 96.84 161.64 97.08 162.84 97.32 163.32 97.8 163.8 98.28 164.04 98.76 164.28 99.24"/><polyline class="cls-9" points="164.52 101.4 164.52 100.2 164.28 99.24"/><polyline class="cls-9" points="164.52 101.4 164.52 102.6 164.28 103.8"/><polyline class="cls-9" points="163.8 104.76 164.04 104.28 164.28 103.8"/><polyline class="cls-9" points="162.84 105.72 163.32 105.24 163.8 104.76"/><polyline class="cls-9" points="160.68 106.2 161.64 105.96 162.84 105.72"/><line class="cls-9" x1="165.72" y1="103.08" x2="164.52" y2="103.08"/><line class="cls-9" x1="165.72" y1="102.84" x2="165.72" y2="103.08"/><line class="cls-9" x1="165.72" y1="100.2" x2="165.72" y2="102.84"/><line class="cls-9" x1="165.72" y1="99.96" x2="165.72" y2="100.2"/><line class="cls-9" x1="164.52" y1="99.96" x2="165.72" y2="99.96"/><line class="cls-9" x1="160.68" y1="96.84" x2="159" y2="96.84"/><line class="cls-9" x1="159" y1="106.2" x2="160.68" y2="106.2"/><polyline class="cls-9" points="154.44 104.76 156.6 105.96 159 106.2"/><polyline class="cls-9" points="154.44 98.28 153.24 100.2 153.24 102.6 154.44 104.76"/><polyline class="cls-9" points="159.24 96.84 156.84 97.08 154.44 98.28"/><line class="cls-9" x1="163.32" y1="97.32" x2="163.32" y2="105.48"/><polyline class="cls-9" points="160.68 106.44 161.88 106.2 162.84 105.96 163.56 105.48 164.04 104.76 164.28 104.28 164.52 103.8"/><polyline class="cls-9" points="164.76 101.4 164.76 102.6 164.52 103.8"/><polyline class="cls-9" points="164.76 101.4 164.76 100.2 164.52 99"/><polyline class="cls-9" points="164.04 98.04 164.28 98.52 164.52 99"/><polyline class="cls-9" points="162.84 97.08 163.56 97.56 164.04 98.04"/><polyline class="cls-9" points="160.68 96.6 161.88 96.6 162.84 97.08"/><line class="cls-9" x1="170.04" y1="105.72" x2="170.04" y2="97.32"/><polyline class="cls-9" points="169.8 105.96 170.04 105.96 170.04 105.72"/><line class="cls-9" x1="159" y1="106.44" x2="169.8" y2="105.96"/><polyline class="cls-9" points="154.44 104.76 156.6 106.2 159 106.44"/><polyline class="cls-9" points="154.44 98.04 153 100.2 153 102.84 154.44 104.76"/><polyline class="cls-9" points="159 96.36 156.6 96.84 154.44 98.04"/><line class="cls-9" x1="169.8" y1="96.84" x2="159" y2="96.36"/><polyline class="cls-9" points="170.04 97.32 170.04 97.08 169.8 96.84"/><line class="cls-9" x1="170.04" y1="97.08" x2="170.04" y2="105.96"/><line class="cls-10" x1="170.04" y1="97.08" x2="170.04" y2="97.08"/><polyline class="cls-10" points="169.8 96.84 159 96.36 157.8 96.6 156.6 96.84 155.4 97.32 154.44 98.04 153.72 99 153.24 99.96 153 100.92 153 102.12 153.24 103.08 153.72 104.04 154.44 104.76 155.4 105.72 156.6 106.2 157.8 106.44 159 106.44 169.8 105.96"/><polyline class="cls-10" points="170.04 105.96 170.04 105.96 170.04 105.72"/><polyline class="cls-10" points="121.56 93 120.84 92.76 120.12 92.76"/><polyline class="cls-10" points="111 93 111.72 92.76 112.44 92.76"/><line class="cls-10" x1="123" y1="94.44" x2="123" y2="94.2"/><polyline class="cls-10" points="123 94.44 123 95.4 123 96.12"/><polyline class="cls-10" points="121.56 93 122.52 93.24 123 94.2"/><line class="cls-10" x1="109.56" y1="94.44" x2="109.56" y2="94.2"/><polyline class="cls-10" points="109.56 94.44 109.56 95.4 109.56 96.12"/><polyline class="cls-10" points="111 93 110.04 93.24 109.56 94.2"/><line class="cls-9" x1="109.08" y1="88.68" x2="123.48" y2="88.68"/><polyline class="cls-9" points="109.08 97.56 109.8 98.76 110.76 99.72"/><polyline class="cls-9" points="108.6 94.92 108.6 96.36 109.08 97.56"/><polyline class="cls-9" points="109.08 88.68 108.6 91.8 108.6 94.92"/><polyline class="cls-9" points="124.2 94.92 123.96 91.8 123.48 88.68"/><polyline class="cls-9" points="113.16 101.16 114.84 101.4 116.28 101.64"/><polyline class="cls-9" points="110.76 99.72 111.96 100.44 113.16 101.16"/><polyline class="cls-9" points="123.48 97.56 123.96 96.36 124.2 94.92"/><polyline class="cls-9" points="121.8 99.72 122.76 98.76 123.48 97.56"/><polyline class="cls-9" points="119.4 101.16 120.6 100.44 121.8 99.72"/><polyline class="cls-9" points="116.28 101.64 117.96 101.4 119.4 101.16"/><polyline class="cls-10" points="123.48 89.4 109.08 89.4 108.6 92.04 108.6 94.92 108.6 96.36 109.08 97.56 109.8 98.76 110.76 99.72 111.96 100.44 113.16 101.16 114.84 101.4 116.28 101.64 117.96 101.4 119.4 101.16 120.6 100.44 121.8 99.72 122.76 98.76 123.48 97.56 123.96 96.36 124.2 94.92 123.96 92.04 123.48 89.4"/><polyline class="cls-11" points="129 88.68 103.56 88.68 103.56 89.4 129 89.4 129 88.68"/><text class="cls-12" transform="translate(182.04 38.52) scale(1.01 1)"><tspan class="cls-13">I</tspan><tspan class="cls-14" x="2.13" y="0">N</tspan><tspan class="cls-15" x="8.09" y="0">S</tspan><tspan class="cls-16" x="13.38" y="0">T</tspan><tspan class="cls-17" x="18.38" y="0">A</tspan><tspan class="cls-15" x="23.87" y="0">NC</tspan><tspan x="35.34" y="0">E</tspan></text><text class="cls-12" transform="translate(182.04 115.08) scale(1.01 1)"><tspan class="cls-18">TYP</tspan><tspan x="15.95" y="0">E</tspan></text></g></g></svg>