<svg xmlns="http://www.w3.org/2000/svg" xmlns:xlink="http://www.w3.org/1999/xlink" viewBox="0 0 45.12 45.36"><defs><style>.cls-1,.cls-2{fill:none;}.cls-1{clip-rule:evenodd;}.cls-3{clip-path:url(#clip-path);}.cls-4{clip-path:url(#clip-path-2);}.cls-5{fill:#5af;}.cls-6{clip-path:url(#clip-path-3);}</style><clipPath id="clip-path" transform="translate(-159.48 -458.16)"><path class="cls-1" d="M165.24,482.88l.24,2.4,1.68,3.36.24.72c1.4,1.39,2.25,3.16,3.84,4.32l.48.24.72.72.48.24.72.72.72.24.48.24.72.24.48.24.72.24,1,.48,4.32.48.24-.24h2.16v-.24h2.16V497h.48v-.24h.48v-.24h.72v-.24h.48v-.24h.72v-.24H190v-.24h.72v-.24l.72-.72h.48v-.24l.72-.72h.48v-.24l.72-.72h.48v-.48l.48-.48.24-.48.72-.72.24-.48.72-.72.24-.72.24-.48.24-.72.24-.48.24-.72.48-1,.24-1.68.24-1.44.24-2.88h-.24l-.48-2.88a16.84,16.84,0,0,0-14.88-12.48l-2.64-.24v.24H179.4v.24H178v.24h-.72v.24h-.48v.24H176v.24h-.48v.24h-.72v.24h-.48v.24h-.48v.24h-.48l-.24.24v.24h-.48l-.48.48v.24h-.48l-.48.48V468h-.48a22,22,0,0,0-5.28,8.4l-.24,2.16m-5.76,3.6.24,1.44L160,485l.24,1.68c.42.77.78,2.11,1.2,2.88l.24.72.24.48c.39,1.87,2,3.1,3.12,4.56l.24.48.48.48.24.48.48.24a25.88,25.88,0,0,0,2.88,2.16l.48.48.48.24.48.48.72.24,1.92,1,.72.24,1.92,1,2.16.24,3.84.48.24-.24h1.92V503h1.92v-.24H188v-.24h.48v-.24H189v-.24h.48v-.24h.72v-.24h.48v-.24h.48v-.24h.72v-.24h.48v-.24h.48v-.24h.72v-.24l.48-.48h.48v-.24L195,499h.48v-.24l.48-.48h.48V498l.48-.48h.48v-.24l.48-.48h.48v-.48l.48-.48a36.3,36.3,0,0,1,2.88-3.6l.48-1.44.24-.48.24-.72.24-.48.24-.72.24-.48.24-.72.24-.48.24-2.16.24-1.92.24-3.84h-.24l-.48-3.84-.48-1.44-.24-.48c-.31-1-.89-2.14-1.2-3.12l-.48-1-.48-.48a25.77,25.77,0,0,0-2.16-2.88l-.24-.48-1-1-.48-.24-.48-.48-.48-.24-.48-.48-.48-.24-.48-.48-.48-.24-.48-.48-1-.48c-1.14-.42-2.49-1-3.6-1.44l-1.44-.48L184,458.4l-3.84-.24v.24H178.2v.24h-1.92v.24h-.72v.24h-.48v.24h-.72v.24h-.48v.24h-.72v.24h-.48v.24H172v.24h-.48v.24H171V461h-.48l-.48.48v.24h-.48l-.48.48v.24h-.48l-.48.48v.24h-.48l-.48.48v.24h-.48l-1.2,1.2a25.86,25.86,0,0,1-2.16,2.88l-.24.48-.48.48c-.77,1.46-1.22,3.07-1.92,4.56L160.2,475l-.72,4.32Z"/></clipPath><clipPath id="clip-path-2" transform="translate(-159.48 -458.16)"><rect class="cls-2" width="1684.08" height="2383.92"/></clipPath><clipPath id="clip-path-3" transform="translate(-159.48 -458.16)"><path class="cls-1" d="M178,481.92l1,1.92.48.24.48.48,1,.24,1.2.24.24-.24h1.2v-.24h1v-.24l.48-.48.24-.48.48-.48.48-1,.24-2.16h-.24l-.24-.72-.24-.48-1.44-1.44-.48-.24-3.12-.24v.24h-.48v.24h-.48l-1,1-.48,1-.24.72m-2.88,2.88.48,1,.24.72,1,1,.24.48.48.24,1,1,.72.24,1,.48,1.92.24.24-.24h1.92v-.24h.48v-.24h.48V487h.72v-.24l1-1h.48v-.48l1-1,.24-1,.24-.72L189,479h-.24l-.24-1C188,475.94,186,474.6,184,474l-3.6-.24V474h-.72v.24h-.48v.24h-.48v.24h-.48L178,475v.24h-.48l-1,1-.24.48-.24.24-.72,1.44-.24.72Z"/></clipPath></defs><title>083_FH_FHR_NEW</title><g id="Layer_2" data-name="Layer 2"><g id="Layer_1-2" data-name="Layer 1"><g class="cls-3"><g class="cls-4"><rect class="cls-5" width="45.12" height="45.36"/></g></g><g class="cls-6"><g class="cls-4"><rect class="cls-5" x="15.6" y="15.6" width="13.92" height="14.16"/></g></g></g></g></svg>