<svg xmlns="http://www.w3.org/2000/svg" xmlns:xlink="http://www.w3.org/1999/xlink" viewBox="0 0 45.12 45.36"><defs><style>.cls-1,.cls-2,.cls-3{fill:none;}.cls-1{clip-rule:evenodd;}.cls-3{stroke:#000;stroke-linecap:round;stroke-linejoin:round;stroke-width:0.48px;}.cls-4{clip-path:url(#clip-path);}.cls-5{clip-path:url(#clip-path-2);}.cls-6{fill:#8000ff;}.cls-7{clip-path:url(#clip-path-3);}</style><clipPath id="clip-path" transform="translate(-221.88 -458.4)"><path class="cls-1" d="M227.4,482.64l.48,2.88.48,1,.24.72.24.48.24.72.24.48.24.72.48.48.24.48.48.48.24.48.48.48.24.48.24.24.24.48.48.24.24.24.48.24.48.48.48.24.48.48.48.24.48.48.72.24c1,.51,2.44.87,3.36,1.44l4.32.48.24-.24h2.16v-.24H249v-.24h.48V497H250v-.24h.72v-.24h.48v-.24h.72v-.24h.48v-.24h.72v-.24l.72-.72h.48v-.24l.72-.72h.48v-.24l.48-.48h.48v-.48l.72-.72.24-.48.72-.72.24-.48.72-.72.24-.72.24-.48.24-.72.24-.48.24-.72.48-1,.24-2.16.24-4.56H261l-.24-2.16-.24-.72-.24-.48-.24-.72-.24-.48-.24-.72-.72-1.44-.72-.72-.24-.48-.72-.72-.24-.48-1.44-1.44L255,468c-1.63-1.8-4-2.5-6.24-3.36l-2.16-.24-4.32-.24v.24h-2.16v.24h-.72v.24h-.48v.24h-.72v.24h-.48v.24H237v.24h-.48v.24H236v.24h-.48l-.24.24v.24h-.48l-.48.48v.24h-.48l-.48.48v.24h-.48a19.66,19.66,0,0,0-5,8.4l-.48,2.88m-5.52,3.6.24,1.92.24,1.92.72,1.44.24.72.48,1,.24.72.48,1,.24.72.72.72.24.48.72.72.24.48.72.72.24.48.48.48.24.48.48.24.48.48.48.24.72.72.48.24.72.72.48.24.72.72.72.24,1,.48.72.24,1,.48.72.24,1.44.72,5.76.72.24-.24h1.92v-.24h1.92V503h2.16v-.24h.48v-.24h.48v-.24h.48v-.24h.72v-.24h.48v-.24h.48v-.24h.72v-.24h.48v-.24h.48v-.24H256v-.24l.72-.72h.48v-.24l.72-.72h.48v-.24l.72-.72h.48v-.24L260,497h.48v-.48l.48-.48.24-.48.72-.72.24-.48.72-.72.24-.48.72-.72.24-.72c.76-1.46,1.35-3.37,2.16-4.8l.48-3.84L267,479h-.24l-.48-3.84-.24-.72-.48-1-.24-.72-.48-1-.24-.72-1-1.92-.48-.48-.24-.48-.72-.72L262,467l-.72-.72-.24-.48-1.44-1.44-.48-.24-.72-.72-.48-.24-.72-.72-.48-.24-.48-.48-1.92-1-.72-.24-1-.48-.72-.24-1-.48-.72-.24-3.84-.48-3.84-.24v.24H240.6v.24h-1.92v.24H238v.24h-.48v.24H237v.24h-.72v.24h-.48v.24h-.48v.24h-.72v.24h-.48V461h-.48v.24h-.48v.24h-.48l-.48.48v.24h-.48L231,463v.24h-.48l-.72.72v.24h-.48l-1.68,1.68-.24.48-.72.72-.24.48-.72.72-.24.48-.48.48c-.93,1.58-1.55,3.64-2.4,5.28l-.24.72-.48,3.84Z"/></clipPath><clipPath id="clip-path-2" transform="translate(-221.88 -458.4)"><rect class="cls-2" width="1684.08" height="2383.92"/></clipPath><clipPath id="clip-path-3" transform="translate(-221.88 -458.4)"><path class="cls-1" d="M240.36,482.64l.24.48c1.31,1.35.39,1.35,2.64,2.16h2.4V485h.48v-.24h.48v-.24l.48-.48h.48v-.48l.48-.48.24-1,.24-2.16h-.24l-.24-1-.24-.48-1-1-1-.48-3.12-.24v.24h-.48l-1.44,1.44-.48,1m-2.88,3.36.48,1,.24.72.24.24.24.48.24.24.24.48.48.24.24.24.48.24.48.48.72.24,1,.48,1.68.24.24-.24h1.92v-.24h.48v-.24h.48v-.24H248V487l1-1h.48v-.48l1-1,.24-.72.48-1,.24-3.6h-.24l-.24-.72-.72-1.44-1.92-1.92-1.44-.72-.72-.24-3.36-.24v.24H242v.24h-.48v.24h-.48V475h-.48l-.24.24v.24h-.48l-1,1-.24.48-.24.24-.72,1.44-.24.72Z"/></clipPath></defs><title>083_FH_NEW</title><g id="Layer_2" data-name="Layer 2"><g id="Layer_1-2" data-name="Layer 1"><line class="cls-3" x1="37.44" y1="16.32" x2="37.44" y2="16.56"/><line class="cls-3" x1="37.44" y1="16.56" x2="37.44" y2="16.32"/><g class="cls-4"><g class="cls-5"><rect class="cls-6" width="45.12" height="45.36"/></g></g><g class="cls-7"><g class="cls-5"><rect class="cls-6" x="15.6" y="15.6" width="13.92" height="14.16"/></g></g></g></g></svg>