<svg xmlns="http://www.w3.org/2000/svg" xmlns:xlink="http://www.w3.org/1999/xlink" viewBox="0 0 25.92 29.76"><defs><style>.cls-1,.cls-2,.cls-6{fill:none;}.cls-1{clip-rule:evenodd;}.cls-3{clip-path:url(#clip-path);}.cls-4{clip-path:url(#clip-path-2);}.cls-5{fill:lime;}.cls-6{stroke:#000;stroke-linecap:round;stroke-linejoin:round;stroke-width:0.48px;}.cls-7{font-size:11.95px;font-family:ArialMT, Arial;}</style><clipPath id="clip-path" transform="translate(-599.64 -468.48)"><path class="cls-1" d="M599.88,497.76l.24-.24h.48v-.24h.48V497l.24-.24h.48v-.24h.48v-.24h.48v-.24l.24-.24h.48v-.24H604v-.24h.48v-.24l.24-.24h.48v-.24h.48v-.24h.48v-.24l.24-.24h.48v-.24h.48v-.24h.48v-.24L608,493h.48v-.24H609v-.24l.24-.24h.48V492h.48v-.24h.48v-.24l.24-.24h.48V491h.48v-.24h.48v-.24l.24-.24h.48v-.24h.48v-.24H614v-.24l.24-.24h.48v-.24h.48v-.24h.48v-.24l.24-.24h.48v-.24h.48v-.24l.24-.24h.48v-.24h.48v-.24h.48V487l.24-.24h.48v-.24h.48v-.24h.48V486l.24-.24H621v-.24h.48v-.24H622V485l.24-.24h.48v-.24h.48v-.24h.48v-.24l.24-.24h.48v-.24h.48v-.24l.24-.24h-.24c-8.28-4.66-16.44-9.5-24.72-14.16l-.24-.24"/></clipPath><clipPath id="clip-path-2" transform="translate(-599.64 -468.48)"><rect class="cls-2" width="1684.08" height="2383.92"/></clipPath></defs><title>083_RequiredExit</title><g id="Layer_2" data-name="Layer 2"><g id="Layer_1-2" data-name="Layer 1"><g class="cls-3"><g class="cls-4"><rect class="cls-5" x="0.24" y="0.24" width="25.2" height="29.04"/></g></g><polyline class="cls-6" points="0.24 0.24 0.24 29.52 25.68 14.88 0.24 0.24"/><text class="cls-7" transform="translate(13.68 18.72) rotate(-90) scale(1.01 1)">E</text></g></g></svg>