<?xml version="1.0" encoding="utf-8"?>
<!-- Generator: Adobe Illustrator 22.0.1, SVG Export Plug-In . SVG Version: 6.00 Build 0)  -->
<svg version="1.1" id="Layer_1" xmlns="http://www.w3.org/2000/svg" xmlns:xlink="http://www.w3.org/1999/xlink" x="0px" y="0px"
	 viewBox="0 0 322 153.1" style="enable-background:new 0 0 322 153.1;" xml:space="preserve">
<style type="text/css">
	.st0{fill:#D7191C;stroke:#000000;stroke-width:0.5;}
	.st1{fill:#FDAE61;stroke:#000000;stroke-width:0.5;}
</style>
<title>Colour_Area_UnderToOver</title>
<path class="st0" d="M195.6,3.5l4.4-2.9l1.4-0.4l2.9,0.4l4,4.3l4,3.6L195.6,9V3.5z"/>
<path class="st1" d="M313.5,11.5v3.3h-0.4l-5.8,6.5c-0.3,0.4-0.9,0.7-1.5,0.7l-5.8,0.4V18l-7.3-3.3c-1.5-0.4-3.1-0.7-4.7-0.7
	l-0.4-12.7l24.6-0.7L313.5,11.5"/>
<path class="st0" d="M282.3,23.1L271,23.5v-2.5l-0.4-4h-1.8l-0.7-15.2l19.6-0.4l0.4,12.7L282.3,23.1z"/>
<path class="st0" d="M268.1,1.7l0.7,15.2h1.8l0.4,4l0.4,2.5l1.1,6.5l-3.3,2.2l-5.4,0.4h-2.5l-1.1-23.2l-0.7-1.1L258,6.1l-0.4-2.2
	V2.1L268.1,1.7z"/>
<path class="st1" d="M257.6,4.6l1.8,3.6l0.7,1.1l1.1,23.2h2.5l-1.8,8.7h-1.5l-8-7.3l-4.7-16.3L246,2.8l0.4-0.4l11.2-0.4L257.6,4.6z"
	/>
<path class="st0" d="M246.4,2.4L246,2.8l1.8,14.9l4.7,16.4l8,7.3h-5.8l-0.4-2.3l-0.7-1l-1.1-0.4l-2.9-1.1h-1.5l-0.7,0.4l-1.8,2.5
	v0.7l-1.8,1.8l-1.8,1.8h-3.6l-0.4-25l-0.4-16.3L246.4,2.4z"/>
<path class="st1" d="M26,25.6L5.7,24.5L6.4,2.4l20.3,1.1L26,25.6z"/>
<path class="st0" d="M84.7,27.8l-19.2-0.7l0.4-21.8l5.8-2.5l14.1,0.4L84.7,27.8z"/>
<path class="st0" d="M104.7,26l-19.9-0.4l1.1-22.5L105,4.2L104.7,26z"/>
<path class="st0" d="M196,25.6l-0.4,0.7l-0.7,0.4l-0.4,0.4l-10.9-3.3l-1.1-0.4l-3.6-3.6l-1.4-1.5l-1.1-12L189.9,6l5.8-2.5L196,25.6z
	"/>
<path class="st0" d="M46.3,4.2l-0.7,22.5L26,25.6l0.7-22.1L46.3,4.2z"/>
<path class="st0" d="M124.6,5l-0.7,21.8L104.7,26L105,4.2L124.6,5z"/>
<path class="st0" d="M65.5,27.1l-19.9-0.4l0.7-22.5l19.6,1.1L65.5,27.1z"/>
<path class="st1" d="M144.2,5.3l-0.7,21.8l-19.6-0.4L124.6,5L144.2,5.3z"/>
<path class="st0" d="M144.2,5.3h8.3l-0.4,6.9l-8.3,1.4L144.2,5.3z"/>
<path class="st0" d="M168.8,5.3l7.6,1.1l1.1,12l-11.6-5.8L168.8,5.3z"/>
<path class="st1" d="M212.3,10l0.7,11.3l-1.8-0.4h-0.4l-2.2,3.6c-1.8,1-3.8,1.5-5.8,1.5l-6.9-0.4L195.6,9l16.7-0.4V10"/>
<path class="st1" d="M235.5,18h-4.7l-5.8,0.7l-4.7,0.4l-7.3-4.7l-0.3-4.4L238,9.3v9.4L235.5,18z"/>
<path class="st1" d="M143.8,13.7l8.3-1.4l8.7,0.4v23.9h-14.5l-2.9-9.4L143.8,13.7z"/>
<path class="st1" d="M288.1,14c1.6,0,3.2,0.3,4.7,0.7L300,18l0.4,8.7l-8,0.4v2.2h-5.8l-4.4-6.2L288.1,14"/>
<path class="st1" d="M238.4,34l-11.6,3.3h-0.4l-5.4-2.9h-3.6l-1.8-0.3c-0.8-0.4-1.7-0.8-2.6-1.1V14.4l7.3,4.7l4.7-0.4l5.8-0.7h4.7
	l2.5,0.7L238.4,34z"/>
<path class="st0" d="M319.3,25.3l-4,12l-10.5,0.4l-0.4-2.2l-3.6-4l-0.4-0.7v-4l-0.4-4.4l5.8-0.4l1.1-0.4h0.4l5.8-6.9L319.3,25.3z"/>
<path class="st1" d="M202.2,27.4l0.4,19.9l-18.1,0.4l0.4-11.2l-5.8-6.2V19.8l3.6,3.6l1.1,0.4l10.9,3.3l0.4-0.4l0.7-0.4l0.4-0.7
	L202.2,27.4z"/>
<path class="st1" d="M4.6,46.3l1.1-21.8l19.6,1.1l-0.7,21.8L4.6,46.3z"/>
<path class="st1" d="M101.8,38l-12.7,4l-4.3-14.2v-2.2l17.4,0.4L101.8,38z"/>
<path class="st1" d="M44.8,26.4l-0.7,22.1l-19.6-1.1l0.7-21.8L44.8,26.4z"/>
<path class="st1" d="M122.1,26.7v14.1l-14.9,4.4l-5.4-1.5l0.4-17.8L122.1,26.7z"/>
<path class="st0" d="M65.9,39.8l-14.5,8.7h-7.3l0.7-22.1l24.3,1.1L65.9,39.8z"/>
<path class="st0" d="M143.4,27.1l2.9,9.4l2.5,1.5l-19.6,12.6l-7.3-9.8V26.7L143.4,27.1z"/>
<path class="st1" d="M304.4,35.4l0.4,8.7l-19.2,0.7l1.1-15.6h5.8v-2.2l8-0.4c-0.1,1.5,0.3,3,1.1,4.4L304.4,35.4"/>
<path class="st0" d="M84.7,27.8l4.3,14.1l2.9,7.3l-13,8.3l-1.9-3.3l-2.9,1.8l-8.3-16.3l3.3-12.3L84.7,27.8z"/>
<path class="st1" d="M238.4,43.8l1.4,10.9l-22.5,0.7v-5.4l0.7-6.2l0.7-2.2l2.2-5.4v-1.8l1.4,0.7l4,2.2h0.4l11.6-3.2V43.8L238.4,43.8
	z"/>
<path class="st0" d="M217.8,34.3h3.3l-1.1,4.7l-1.4,5.1l-1.1,11.2h3.3l2.5,6.5h-18.8l-1.8-14.5l-0.4-11.6l13.1-0.7L217.8,34.3z"/>
<path class="st0" d="M242,43.8l1.8-1.8l1.4-1.1l0.4-0.7v-0.7l2.2-2.5l1.1-0.4l3.6,1.1l1.1,0.4l0.7,1.1l0.4,0.7v1.5l2.5,2.2l4.8,9.1
	l3.3,4l-3.3,4.3l-16.7,0.4l-5.4-6.5l-1.4-10.9H242z"/>
<path class="st1" d="M184.8,36.5l-0.4,11.2l1.1,2.5l-23.9,4v-0.4l-0.7-2.9l-1.8-2.9l-3.3-4.3c-1-1.4-2.2-2.6-3.6-3.6
	c-1.8-1.4-3.7-2.6-5.8-3.6H184.8"/>
<path class="st0" d="M101.8,43.8L92,49.2l-2.9-7.3l12.7-4L101.8,43.8z"/>
<path class="st1" d="M129.3,50.6L148.9,38l3.6,2.2c1.2,1.1,2.3,2.3,3.3,3.6c1.8,2.5,3.6,4.7,4.7,7.3l1.1,2.9l-17,10.9l-8.7-1.1
	l-6.5-13"/>
<path class="st1" d="M60.8,67.7l-9.4-19.2l14.5-8.7l8.3,16.3l2.9-1.8l3.6,7.3l-12,7.3L60.8,67.7z"/>
<path class="st0" d="M86.5,52.8l15.2-9.1l5.4,1.5l-0.4,3.3l-0.4,4.7l6.2,12l0.4,0.7l1.4,1.1l-12.7,7.6l-6.2-4.3L86.5,52.8z"/>
<path class="st0" d="M305.1,55l-1.5,6.5l-10.1,0.7v4L280.1,67l2.2-8.3l1.1-3.3v-0.7l-0.7-3.7c-0.5-2.1-1.1-4.1-1.8-6.2l23.9-0.7
	L305.1,55"/>
<path class="st0" d="M271.4,45.2l9.4-0.4l1.1,2.9c0.4,2.5,0.7,4.7,1.1,6.9c0,1.4-0.3,2.7-0.7,4l-2.2,8.4l10.2,9l-9.8,9.1l-9.8-0.7
	l-0.4-8.3h-4l-0.4-8.7h-4v-6.5l3.3-4.3v1.5l1.5,0.4c0.9-0.3,1.7-0.7,2.5-1.1c1.6-1.2,3-2.7,4-4.3v-2.9l-0.7-2.5L271.4,45.2"/>
<path class="st1" d="M1.3,46.3l19.9,1.1l-1.1,25L5,71.7l-4.8-5.8L1.3,46.3z"/>
<path class="st1" d="M41.2,48.1l-1.5,30.8L38,78.6l-7.3-0.7l-6.2-0.7l-4.4-4.7l1.1-25L41.2,48.1z"/>
<path class="st1" d="M184.4,47.7l18.1-0.4l1.8,14.5l-1.4,3.3l0.7,4.3l0.7,2.9l1.1,2.9l1.8,2.5l-5.1,5.1l-4-3.3l-4.3-3.6l-2.2-1.4
	l0.4-0.7v-0.4l-0.7-2.2l-0.4-1.1l-0.7-1.1l-0.7-0.4l-2.5-2.5l-1.4-5.8l-0.4-3.6l0.4-6.5L184.4,47.7z"/>
<path class="st0" d="M57.2,68.4L56.4,72l-6.5,4.7c-0.6,0.4-1.2,0.8-1.8,1.1l-8.3,1.1l1.5-30.8l10.2,0.4l9.4,19.2L57.2,68.4"/>
<path class="st1" d="M185.9,60.4l1.1,5.8l2.5,2.5l0.7,0.4l0.7,1.1l0.4,1.1l0.7,2.2v0.4l-0.4,0.7l-14.5,3.3l-3.6,1.4l-1.4-5.8
	l-0.7-2.9l-4-4.7l-6.2-9.4l0.4-2.2l23.9-4L185.9,60.4z"/>
<path class="st1" d="M75.7,82.5l-6.9-13.8l12-7.3l-1.8-4l7.6-4.7l9.1,17.4L75.7,82.5z"/>
<path class="st0" d="M161.6,54.3l-0.4,2.2l6.2,9.4l4,4.7l0.4,2.9L154.3,84l-9.8-19.2l17-10.9L161.6,54.3z"/>
<path class="st1" d="M305.1,55l12-0.4l1.1,30.1l-3.3-0.4l-4.4-6.9l-1.8-0.7l-1.8-2.2l-1.1-2.9c-1-3.3-1.5-6.7-1.5-10.2L305.1,55"/>
<path class="st1" d="M237.3,72.8l-12-1.4l-2.2-9.4l-2.5-6.5l19.2-0.7l5.4,6.5l1.8,13l-5.8,0.7L237.3,72.8z"/>
<path class="st1" d="M262,67.3h4l0.4,8.7h4l0.4,8.3l-6.2,0.4l-5.4,4.7l-0.4,1.4l-0.4,2.9l-1.8,0.7l-0.4-2.9
	c-0.5-2.3-1.1-4.6-1.8-6.9l-3.3-5.4c-1.1-1.8-2.5-3.6-4-5.1l-1.8-13l16.7-0.4V67.3"/>
<path class="st1" d="M132.6,78.2l-18.5,12l-5.4-2.2l-6.9-13.4l22.1-13.4L132.6,78.2z"/>
<path class="st0" d="M304.4,67.7c0.7,2.4,1.7,4.7,2.9,6.9l1.5,2.2l1.8,0.7l-16.7,5.1h-1.1l-1.1-0.4l-0.4-0.4l-0.3-2.5l-0.7-3.3
	l-10.2-9l13.4-0.7v-4l10.1-0.7C303.7,63.6,304,65.7,304.4,67.7"/>
<path class="st0" d="M225.4,71.3l0.7,0.7l2.9,3.3l-0.7,17.4l-6.2-8.7l-0.7-0.4l-1.8-1.4l-1.8-0.7h-1.4l-7.3-1.5l-1.8-2.2l-1.8-2.9
	l-1.1-2.5l-0.7-2.9l-0.7-4.3l1.4-3.3h18.9L225.4,71.3z"/>
<path class="st1" d="M127.8,68.8l8-5.1l8.7,1.1l9.8,19.2l-2.9,2.5l-10.9,6.9L127.8,68.8z"/>
<path class="st0" d="M95.6,70.2l6.2,4.3l6.9,13.4l-19.2,12.3L79.3,80.4L95.6,70.2z"/>
<path class="st1" d="M241.3,74.9l0.4,5.4l-0.7,0.7l-1.8,2.2l0.4,12.3V97l-3.3,1.8l-8-6.2l0.7-17.4l-2.9-3.2l-0.7-0.7l12,1.4
	L241.3,74.9z"/>
<path class="st0" d="M5,71.7l15.2,0.7l4.4,4.7L23.8,97L3.9,96.3L5,71.7z"/>
<path class="st0" d="M154.3,84l17.4-10.5l1.8,5.8l1.1,2.5l1.8,5.4l-0.7,2.5l-0.4-0.4l-0.7,1.4l-1.8,7.6v1.1l-12.3,3.3l-6.2,2.9
	l-2.9-19.2L154.3,84z"/>
<path class="st1" d="M247.1,74.2c1.4,1.5,2.6,3.2,3.6,5.1c1.9,3.6,3.5,7.3,4.7,11.2l1.1,4l-12,1.1l-5,1.4v-1.4l-0.4-12.3l1.9-2.2
	l0.7-0.7l-0.4-5.4L247.1,74.2"/>
<path class="st0" d="M173.5,79.3l9.8-2.5c3.6-0.4,4.9-2.5,8.1-1.4s8.2,5,10.7,7.6l1.8,1.8l-25.4,23.2l-5.8-8.3v-1.8l1.8-6.9l0.7-1.4
	l0.4,0.4l0.7-2.5l-1.8-5.4l-0.8-1.8L173.5,79.3"/>
<path class="st1" d="M293.9,82.5l16.7-5.1l4.4,6.9l-2.5,1.8l-2.2-1.4h-0.4l-0.4,0.4v9.4l1.1,7.3l-2.6,1.4l-3.6-1.8l-8.3,5.8
	l-8.7,0.4l-1.1-17.8l-2.9-3.3l-2.9-1.4l9.8-9.1l0.7,3.3l0.4,2.5l0.4,0.4l1.1,0.4L293.9,82.5z"/>
<path class="st0" d="M39.8,78.9l4.3,0.4l-0.7,26.1l-15.2-0.7L23.8,97l0.7-19.9l2.5,0.4l3.6,0.4l7.3,0.7L39.8,78.9z"/>
<path class="st0" d="M132.6,78.2l8,15.2L122.1,105l-8-14.9L132.6,78.2z"/>
<path class="st0" d="M68.8,101.8l-0.4,5.4l-20.3-0.7l-4.7-1.1l0.7-26.1l4-1.1l-0.4,1.1l1.1,1.4l7.6,2.9l1.1-1.1l6.5,8.3l0.4,0.7
	L68.8,101.8z"/>
<path class="st1" d="M75.7,82.5l3.6-2.2l10.2,19.9v1.4H68.8l-4.3-10.2L75.7,82.5z"/>
<path class="st0" d="M270.7,84.3l9.8,0.7l2.9,1.4l2.9,3.3l1.1,17.8l-6.2,0.7l-6.2,0.4h-11.2l-5.1,1.1l-0.4-16l0.4-2.9l0.4-1.4
	l5.4-4.7L270.7,84.3z"/>
<path class="st1" d="M208.3,96.7L194.6,113l-4.7-1.4l-4.4-10.2L204,84.7L208.3,96.7z"/>
<path class="st1" d="M131.5,98.8l19.9-12.3l2.9,19.2l-0.7,0.4l-1.8,1.4l-1.4,1.5l-1.8,2.5l-1.8,3.6l-1.1,2.2l-4.4,2.2l-1.4-1.8
	l-2.5-5.1l-5.4-12L131.5,98.8z"/>
<path class="st1" d="M89.4,100.3L108.6,88l5.4,2.2l8,14.9l-7.6,4.7l-2.2,6.5l-12-5.8l-1.1-0.4l-6.9-1.8l-2.9-6.5V100.3z"/>
<path class="st0" d="M256.5,94.5l1.8-0.7l0.4,16L258,113l-5.8,11.6l-0.4,1.8h0.4l0.7,1.8l0.7,2.9l-1.4,2.2h-0.4l1.4,7.6l-7.3,0.4
	l0.4-35.2l-1.8-10.5L256.5,94.5z"/>
<path class="st1" d="M239.5,97l5.1-1.4l1.8,10.5l-0.4,35.2l-8.7,0.4l0.4-0.7l0.7-4.7l-0.4-0.7l-0.7-1.8v-0.7l0.4-1.8l0.4-1.1
	l1.1-2.9l-0.7-1.1L238,125l1.1-2.5l-0.7-1.8c-0.7-1.8-1.4-4-2.5-6.2l-0.4-0.4h-1.1v-0.4l-2.2-8.3l-0.4-1.4v-0.4l-2.2-1.1l-6.2-0.4
	l12.7-3.3L239.5,97"/>
<path class="st1" d="M23.8,97l4.4,7.6l-0.4,11.6l-24.6-1l0.7-18.8L23.8,97z"/>
<path class="st1" d="M219.6,101l-4,2.5l4.7,23.9l-7.3,1.8l-4.4,0.4l-1.4-2.9L194.6,113l13.8-16.3l4.7,1.8l3.3,1.4L219.6,101z"/>
<path class="st1" d="M118.4,131.1l-6.2-14.9l2.2-6.5l17-10.9l3.3,8.7l4.7,10.2L118.4,131.1z"/>
<path class="st0" d="M172.8,99.6l5.8,8.3l-9.8,3.3l-12,2.2l-2.5-7.6l6.2-3.6c1.3-0.6,2.6-1.1,4-1.4L172.8,99.6"/>
<path class="st0" d="M223.6,102.1l6.2,0.4l1.8,1.1l0.7,1.8l2.2,8.7h1.1l2.9,6.5l0.7,1.8l-1.1,2.6l0.4,1.1l0.7,1.1l-18.9,0.4
	l-4.7-23.9l4-2.5L223.6,102.1z"/>
<path class="st1" d="M310.5,109c1,2,1.5,4.3,1.5,6.5c0,2.5-0.4,4.9-1.1,7.3l-1.5,1.4l-5.8,0.4l-1.5,0.4l-0.4,0.4l-1.1,2.2l-5.4,0.4
	v-0.4l0.4-0.4l0.4-0.7l1.1-2.9v-0.4l-0.7-0.4l-0.4-9.1v-6.5l8.3-5.8l3.6,1.8L310.5,109"/>
<path class="st1" d="M188.8,129.3l-2.5-0.4h-6.9l-9.1-6.2l-1.4-11.6l9.8-3.3l6.9-6.5l4.4,10.2L188.8,129.3z"/>
<path class="st1" d="M89.4,101.8l2.9,6.5l-8.7,14.1l-3.3,9.8l-8.7-3.3l-0.4-4.3l-0.4-13l-2.5-4.3l0.4-5.4L89.4,101.8z"/>
<path class="st0" d="M141.6,120.2l4-2.9l2.2-4.3l1.8-3.3l1.1-1.4l2.9-2.2l0.7-0.4l2.5,7.6l0.4,10.9l1.8,7.3l1.1,1.8l-2.5,4.7v-2.2
	l-1.1-1.1h-0.7l-0.7,0.7l-2.2,1.1l-0.4-0.7l-1.8-4l-3.6-6.8l-3.3-1.4l-3.6-1.1C140.3,121.6,140.9,120.8,141.6,120.2"/>
<path class="st0" d="M48.1,106.5l20.3,0.7l2.5,4.3l0.4,13l0.4,4.3l-9.4-1.1l-14.5-0.4L48.1,106.5z"/>
<path class="st1" d="M296,111.9l0.4,10.9l0.7,0.4v0.4l-1.1,2.9l-0.4,0.7l-0.4,0.4l-5.4,0.7l-9.4,2.2l-4.7,1.1v-8.7l3.3-0.4h2.5
	l-0.4-13.8l14.9-1.4V111.9z"/>
<path class="st0" d="M101.4,128.9l-6.5,2.2h-2.2l-1.5-1.1l-2.9-6.5l-1.1-1.4l-3.6,0.4l8.7-14.1l6.9,1.8l1.1,0.4l12,5.8l6.2,14.9
	l-7.3,2.9l-6.9-4.4l-2.2-0.7L101.4,128.9z"/>
<path class="st1" d="M281.5,122.4H279l-3.3,0.4v9.8l-9.8,0.4v-4.4h-4v4.4l-10.1,0.4h0.4l1.1-1.8l0.4-0.4l-0.7-2.9l-0.7-1.8h-0.4
	l0.4-1.8L258,113l0.7-3.3l5.1-1.1h17.4L281.5,122.4z"/>
<path class="st0" d="M189.8,111.5c1.7,0.3,3.3,1.1,4.7,2.2l2.9,2.5l9.8,10.5l1.4,2.9l-12.3,7.3l-7.6-7.6L189.8,111.5"/>
<path class="st0" d="M34.3,137.6l-31.9-1.4l0.7-21l24.6,1.1l-0.4,10.5l6.9,0.4V137.6z"/>
<path class="st0" d="M139.4,117.7l1.8,1.8v0.4l-1.1,2.5l6.9,2.5l4.7,10.5v-0.4l-6.5,2.2l-6.9,2.2l-7.6-7.3l-4.8-5.8L139.4,117.7z"/>
<path class="st1" d="M105,143.4l-4.7,5.1l-4,4l-17.8-17l1.8-3.3l3.3-9.8l3.6-0.4l1.1,1.4l2.9,6.5l1.4,1.1h2.2l6.5-1.4l2.9,0.4
	l5.8,2.9L105,143.4z"/>
<path class="st0" d="M190.2,151.8l-4-2.9l-5.1-2.9l-1.8,1.4l-5.4,2.2h-0.7l-1.8,0.4v-8l-1.1-19.2l9.1,6.2h4l5.4,0.4l7.6,7.6l2.5,9.1
	l-3.6,4l-2.9,2.5l-1.1,0.4l-0.7-0.4L190.2,151.8z"/>
<path class="st0" d="M165.9,12.6l11.6,5.8l1.5,1.4v10.5l4.7,5.4l1.1,0.7h-24V12.6H165.9z"/>
<path class="st0" d="M202.1,26.3l0.9,0.2l5.7-1.9l2.2-3.6h0.4l1.8,0.4v11.6c0.9,0.3,1.7,0.7,2.5,1.1l1.4,0.4l0,0l-8,1.1l-6.9,0.4
	v-8.4"/>
<path class="st0" d="M286.6,29.3l-1.1,15.6l-14.1,0.4l-9.4-4l1.8-8.7l5.4-0.4l3.3-2.1l-0.4-1.5l-1.1-5.1l11.2-0.4L286.6,29.3z"/>
<path class="st0" d="M315.3,37.2l5.4,6.2l1.1,1.5v1.1l-1.8,1.5l1.1,3.6l0.4,1.1l-4.4,2.5l-12,0.4l-0.4-17.4L315.3,37.2z"/>
<path class="st0" d="M135.8,63.7l-8,5.1l-4-7.6l-9.4,5.9l-1.4-1.1l-0.4-0.7l-6.2-12v-4.7l0.7-3.3l14.9-4.3l7.3,9.8L135.8,63.7z"/>
<path class="st0" d="M262,41.2l9.4,4l0.4,0.7l0.7,1.5l0.7,2.5v2.9l-3.6,4.3l-1.5,0.7h-2.9v-1.5l-3.3-3.3c-1.2-1.4-2.2-3-2.9-4.7
	l-1.8-5.1l-2.5-2.2H262"/>
<path class="st0" d="M68.8,68.8l6.9,13.8l-11.2,9.1L64,90.9l-1.8-3.3c-1.4-1.9-3-3.6-4.7-5.1l-1.1,1.1l-7.6-2.9l-1.1-1.4l0.4-1.1
	l1.8-1.4l6.5-4.7l0.7-3.6l3.6-0.4L68.8,68.8"/>
<path class="st0" d="M207.2,77.8l1.8,2.2l7.3,1.4h1.4l1.8,0.7l1.8,1.4l0.7,0.4l6.2,8.7l8,6.2l-12.7,3.3l-7.3-2.5l-8-2.9l-4.4-12
	l-1.8-1.8L207.2,77.8z"/>
<path class="st0" d="M27.4,126.8l0.7-22.1l15.2,0.7l4.7,1.1l-0.4,21L27.4,126.8z"/>
<path class="st0" d="M170.3,122.8l1.1,19.2l-11.2,1.1l-2.5-5.1l2.5-4.7l-1.1-1.1l-0.4-0.4l-0.4-1.1l-1.4-6.5v-10.9l12-2.2
	L170.3,122.8z"/>
<path class="st0" d="M165.9,12.6l11.6,5.8l1.5,1.4v10.5l4.7,5.4l1.1,0.7h-24V12.6H165.9z"/>
<path class="st0" d="M202.1,26.3l0.9,0.2l5.7-1.9l2.2-3.6h0.4l1.8,0.4v11.6c0.9,0.3,1.7,0.7,2.5,1.1l1.4,0.4l0,0l-8,1.1l-6.9,0.4
	v-8.4"/>
<path class="st0" d="M286.6,29.3l-1.1,15.6l-14.1,0.4l-9.4-4l1.8-8.7l5.4-0.4l3.3-2.1l-0.4-1.5l-1.1-5.1l11.2-0.4L286.6,29.3z"/>
<path class="st0" d="M315.3,37.2l5.4,6.2l1.1,1.5v1.1l-1.8,1.5l1.1,3.6l0.4,1.1l-4.4,2.5l-12,0.4l-0.4-17.4L315.3,37.2z"/>
<path class="st0" d="M135.8,63.7l-8,5.1l-4-7.6l-9.4,5.9l-1.4-1.1l-0.4-0.7l-6.2-12v-4.7l0.7-3.3l14.9-4.3l7.3,9.8L135.8,63.7z"/>
<path class="st0" d="M262,41.2l9.4,4l0.4,0.7l0.7,1.5l0.7,2.5v2.9l-3.6,4.3l-1.5,0.7h-2.9v-1.5l-3.3-3.3c-1.2-1.4-2.2-3-2.9-4.7
	l-1.8-5.1l-2.5-2.2H262"/>
<path class="st0" d="M68.8,68.8l6.9,13.8l-11.2,9.1L64,90.9l-1.8-3.3c-1.4-1.9-3-3.6-4.7-5.1l-1.1,1.1l-7.6-2.9l-1.1-1.4l0.4-1.1
	l1.8-1.4l6.5-4.7l0.7-3.6l3.6-0.4L68.8,68.8"/>
<path class="st0" d="M207.2,77.8l1.8,2.2l7.3,1.4h1.4l1.8,0.7l1.8,1.4l0.7,0.4l6.2,8.7l8,6.2l-12.7,3.3l-7.3-2.5l-8-2.9l-4.4-12
	l-1.8-1.8L207.2,77.8z"/>
<path class="st0" d="M27.4,126.8l0.7-22.1l15.2,0.7l4.7,1.1l-0.4,21L27.4,126.8z"/>
<path class="st0" d="M170.3,122.8l1.1,19.2l-11.2,1.1l-2.5-5.1l2.5-4.7l-1.1-1.1l-0.4-0.4l-0.4-1.1l-1.4-6.5v-10.9l12-2.2
	L170.3,122.8z"/>
<path class="st0" d="M165.9,12.6l11.6,5.8l1.5,1.4v10.5l4.7,5.4l1.1,0.7h-24V12.6H165.9z"/>
<path class="st0" d="M202.1,26.3l0.9,0.2l5.7-1.9l2.2-3.6h0.4l1.8,0.4v11.6c0.9,0.3,1.7,0.7,2.5,1.1l1.4,0.4l0,0l-8,1.1l-6.9,0.4
	v-8.4"/>
<path class="st0" d="M286.6,29.3l-1.1,15.6l-14.1,0.4l-9.4-4l1.8-8.7l5.4-0.4l3.3-2.1l-0.4-1.5l-1.1-5.1l11.2-0.4L286.6,29.3z"/>
<path class="st0" d="M315.3,37.2l5.4,6.2l1.1,1.5v1.1l-1.8,1.5l1.1,3.6l0.4,1.1l-4.4,2.5l-12,0.4l-0.4-17.4L315.3,37.2z"/>
<path class="st0" d="M135.8,63.7l-8,5.1l-4-7.6l-9.4,5.9l-1.4-1.1l-0.4-0.7l-6.2-12v-4.7l0.7-3.3l14.9-4.3l7.3,9.8L135.8,63.7z"/>
<path class="st0" d="M262,41.2l9.4,4l0.4,0.7l0.7,1.5l0.7,2.5v2.9l-3.6,4.3l-1.5,0.7h-2.9v-1.5l-3.3-3.3c-1.2-1.4-2.2-3-2.9-4.7
	l-1.8-5.1l-2.5-2.2H262"/>
<path class="st0" d="M68.8,68.8l6.9,13.8l-11.2,9.1L64,90.9l-1.8-3.3c-1.4-1.9-3-3.6-4.7-5.1l-1.1,1.1l-7.6-2.9l-1.1-1.4l0.4-1.1
	l1.8-1.4l6.5-4.7l0.7-3.6l3.6-0.4L68.8,68.8"/>
<path class="st0" d="M207.2,77.8l1.8,2.2l7.3,1.4h1.4l1.8,0.7l1.8,1.4l0.7,0.4l6.2,8.7l8,6.2l-12.7,3.3l-7.3-2.5l-8-2.9l-4.4-12
	l-1.8-1.8L207.2,77.8z"/>
<path class="st0" d="M27.4,126.8l0.7-22.1l15.2,0.7l4.7,1.1l-0.4,21L27.4,126.8z"/>
<path class="st0" d="M170.3,122.8l1.1,19.2l-11.2,1.1l-2.5-5.1l2.5-4.7l-1.1-1.1l-0.4-0.4l-0.4-1.1l-1.4-6.5v-10.9l12-2.2
	L170.3,122.8z"/>
</svg>
