<svg xmlns="http://www.w3.org/2000/svg" viewBox="0 0 322.04 153.14"><defs><style>.cls-1{fill:#2c7bb6;}.cls-1,.cls-2,.cls-3,.cls-4{stroke:#000;stroke-width:0.5px;}.cls-2{fill:#fdae61;}.cls-3{fill:#d7191c;}.cls-4{fill:#abd9e9;}</style></defs><title>Colour_Area_UnderToOver</title><g id="Layer_2" data-name="Layer 2"><g id="county-map"><path class="cls-1" d="M195.64,3.52,200,.62l1.45-.37,2.9.37,4,4.35,4,3.62L195.64,9Z"/><path class="cls-2" d="M313.45,11.49v3.26h-.36l-5.8,6.53a1.88,1.88,0,0,1-1.45.72l-5.8.37V18l-7.25-3.27a18.48,18.48,0,0,0-4.71-.72l-.36-12.69L312.37.62l1.08,10.87"/><path class="cls-1" d="M282.28,23.09,271,23.45V20.92l-.36-4h-1.81L268.14,1.7l19.58-.36L288.08,14Z"/><path class="cls-3" d="M268.14,1.7l.73,15.23h1.81l.36,4,.36,2.53L272.49,30l-3.26,2.17-5.44.37h-2.54l-1.08-23.2-.73-1.09L258,6.05l-.36-2.17V2.07Z"/><path class="cls-4" d="M257.63,4.6l1.81,3.63.73,1.09,1.08,23.2h2.54L262,41.22h-1.45l-8-7.25-4.71-16.32L246,2.79l.36-.36,11.24-.36Z"/><path class="cls-3" d="M246.39,2.43l-.36.36,1.81,14.86L252.55,34l8,7.25h-5.8L254.37,39,253.64,38l-1.09-.36-2.9-1.09H248.2l-.72.37-1.81,2.53v.73l-1.82,1.81L242,43.75h-3.62l-.37-25-.36-16.31Z"/><path class="cls-4" d="M26,25.63,5.69,24.54,6.42,2.43l20.3,1.09Z"/><path class="cls-3" d="M84.72,27.8,65.5,27.08l.37-21.75,5.8-2.54,14.13.36Z"/><path class="cls-3" d="M104.65,26l-19.93-.36L85.8,3.15,105,4.24Z"/><path class="cls-3" d="M196,25.63l-.36.72-.72.37-.37.36-10.87-3.26-1.09-.37L179,19.83l-1.45-1.45-1.09-12,13.41-.37,5.8-2.53Z"/><path class="cls-3" d="M46.29,4.24l-.72,22.48L26,25.63l.73-22.11Z"/><path class="cls-1" d="M124.59,5l-.72,21.75L104.65,26,105,4.24Z"/><path class="cls-1" d="M65.5,27.08l-19.93-.36.72-22.48L65.87,5.33Z"/><path class="cls-4" d="M144.17,5.33l-.73,21.75-19.57-.36L124.59,5Z"/><path class="cls-1" d="M144.17,5.33h8.33l-.36,6.89-8.34,1.45Z"/><path class="cls-3" d="M168.82,5.33l7.61,1.09,1.09,12-11.6-5.8Z"/><path class="cls-4" d="M212.32,10,213,21.28l-1.81-.36h-.36l-2.18,3.62a11.45,11.45,0,0,1-5.8,1.45L196,25.63,195.64,9l16.68-.36V10"/><path class="cls-4" d="M235.52,18H230.8l-5.8.72-4.71.36L213,14.39,212.68,10l25.37-.72v9.42Z"/><path class="cls-2" d="M143.8,13.67l8.34-1.45,8.7.36V36.5h-14.5l-2.9-9.42Z"/><path class="cls-4" d="M288.08,14a18.48,18.48,0,0,1,4.71.72L300,18l.36,8.7-8,.36v2.17h-5.8l-4.35-6.16,5.8-9.06"/><path class="cls-2" d="M238.42,34l-11.6,3.26h-.37L221,34.33h-3.63L215.58,34A16.31,16.31,0,0,0,213,32.88V14.39l7.25,4.71,4.72-.36,5.8-.72h4.71l2.54.72Z"/><path class="cls-1" d="M319.25,25.27l-4,12-10.52.36-.36-2.17-3.62-4-.37-.73v-4L300,22.37l5.8-.37,1.09-.36h.36l5.8-6.89Z"/><path class="cls-4" d="M202.17,27.44l.36,19.94-18.13.36.37-11.24L179,30.34V19.83l3.62,3.62,1.09.37,10.87,3.26.37-.36.72-.37.36-.72Z"/><path class="cls-2" d="M4.6,46.29,5.69,24.54l19.58,1.09-.73,21.75Z"/><path class="cls-4" d="M101.75,38l-12.68,4L84.72,27.8V25.63l17.4.36Z"/><path class="cls-4" d="M44.84,26.35l-.72,22.12L24.54,47.38l.73-21.75Z"/><path class="cls-2" d="M122.05,26.72V40.85L107.19,45.2l-5.44-1.45L102.12,26Z"/><path class="cls-3" d="M65.87,39.77l-14.5,8.7H44.12l.72-22.12,24.29,1.09Z"/><path class="cls-1" d="M143.44,27.08l2.9,9.42L148.88,38,129.3,50.64l-7.25-9.79V26.72Z"/><path class="cls-4" d="M304.39,35.42l.36,8.7-19.21.72,1.09-15.59h5.8V27.08l8-.36a7.78,7.78,0,0,0,1.09,4.35l2.9,4.35"/><path class="cls-1" d="M84.72,27.8l4.35,14.14L92,49.19l-13,8.34L77.1,54.27l-2.9,1.81L65.87,39.77l3.26-12.33Z"/><path class="cls-4" d="M238.42,43.75l1.45,10.88-22.48.72V49.92l.73-6.17.72-2.17L221,36.14V34.33l1.45.72,4,2.18h.37L238.42,34v9.78Z"/><path class="cls-3" d="M217.75,34.33H221L219.93,39l-1.45,5.08-1.09,11.23h3.26l2.54,6.53H204.34l-1.81-14.5-.36-11.6,13.05-.73Z"/><path class="cls-1" d="M242,43.75l1.81-1.81,1.45-1.09.37-.72V39.4l2.17-2.53,1.09-.37,3.62,1.09,1.09.36.73,1.09.36.73v1.45l2.54,2.17L262,52.45l3.26,4L262,60.79l-16.68.36-5.43-6.52-1.45-10.88Z"/><path class="cls-4" d="M184.77,36.5l-.37,11.24,1.09,2.54-23.92,4V53.9l-.73-2.9L159,48.1l-3.26-4.35a17.3,17.3,0,0,0-3.63-3.62,31.21,31.21,0,0,0-5.8-3.63h38.43"/><path class="cls-1" d="M101.75,43.75,92,49.19l-2.9-7.25,12.68-4Z"/><path class="cls-4" d="M129.3,50.64,148.88,38l3.62,2.18a32.86,32.86,0,0,1,3.27,3.62c1.81,2.54,3.62,4.72,4.71,7.25l1.09,2.9-17,10.88-8.7-1.09-6.53-13"/><path class="cls-2" d="M60.79,67.68,51.37,48.47l14.5-8.7L74.2,56.08l2.9-1.81,3.63,7.25-12,7.25Z"/><path class="cls-3" d="M86.53,52.82l15.22-9.07,5.44,1.45-.36,3.27-.36,4.71,6.16,12,.36.73L114.44,67l-12.69,7.62-6.16-4.35Z"/><path class="cls-3" d="M305.12,55l-1.45,6.53-10.15.72v4L280.1,67l2.18-8.33,1.09-3.27v-.72L282.64,51a56.88,56.88,0,0,0-1.81-6.16l23.93-.72L305.12,55"/><path class="cls-3" d="M271.4,45.2l9.43-.36,1.09,2.9c.36,2.54.72,4.71,1.09,6.89a13.13,13.13,0,0,1-.73,4L280.11,67,290.26,76l-9.79,9.06-9.79-.73L270.32,76h-4l-.37-8.7h-4V60.79l3.26-4.35v1.45l1.45.36a17.91,17.91,0,0,0,2.54-1.08,15.39,15.39,0,0,0,4-4.35v-2.9l-.72-2.54-1.1-2.18"/><path class="cls-4" d="M1.34,46.29l19.94,1.09-1.09,25L5,71.67.25,65.87Z"/><path class="cls-2" d="M41.22,48.1,39.77,78.92,38,78.55l-7.25-.72-6.16-.73-4.35-4.71,1.09-25Z"/><path class="cls-2" d="M184.4,47.74l18.13-.36,1.81,14.5-1.45,3.26.73,4.35.72,2.9,1.09,2.9,1.81,2.54-5.07,5.07-4-3.26L193.83,76l-2.18-1.45.37-.73v-.36l-.73-2.18-.36-1.08-.73-1.09-.72-.36-2.54-2.54-1.45-5.8-.36-3.63.36-6.52Z"/><path class="cls-3" d="M57.17,68.4,56.44,72l-6.52,4.71a8,8,0,0,1-1.82,1.09l-8.33,1.09L41.22,48.1l10.15.37,9.42,19.21-3.62.72"/><path class="cls-2" d="M185.85,60.43l1.09,5.8,2.54,2.54.72.36.73,1.09.36,1.08.73,2.18v.36l-.37.73-14.5,3.26-3.62,1.45-1.45-5.8-.73-2.9-4-4.71-6.17-9.43.37-2.17,23.92-4Z"/><path class="cls-2" d="M75.65,82.54,68.77,68.77l12-7.25-1.81-4,7.61-4.71,9.06,17.4Z"/><path class="cls-3" d="M161.57,54.27l-.37,2.17,6.17,9.43,4,4.71.37,2.9L154.32,84l-9.79-19.21,17-10.88Z"/><path class="cls-2" d="M305.12,55l12-.36,1.09,30.09-3.27-.37-4.35-6.88-1.81-.73-1.81-2.17-1.09-2.9a32.71,32.71,0,0,1-1.45-10.15l.73-6.53"/><path class="cls-4" d="M237.33,72.75l-12-1.45-2.18-9.42-2.54-6.53,19.22-.72,5.43,6.52,1.82,13.05-5.8.73Z"/><path class="cls-4" d="M262,67.32h4l.36,8.7h4l.36,8.33-6.16.37-5.44,4.71-.36,1.45-.37,2.9-1.81.72-.36-2.9a65.66,65.66,0,0,0-1.81-6.88l-3.27-5.44a27.14,27.14,0,0,0-4-5.08L245.3,61.15,262,60.79v6.53"/><path class="cls-4" d="M132.57,78.19l-18.49,12L108.64,88l-6.89-13.41,22.12-13.42Z"/><path class="cls-1" d="M304.39,67.68a39.58,39.58,0,0,0,2.9,6.89l1.45,2.17,1.81.73-16.67,5.07h-1.09l-1.09-.36-.36-.36L291,79.28,290.26,76,280.1,67l13.42-.72v-4l10.15-.72a32.13,32.13,0,0,0,.72,6.16"/><path class="cls-1" d="M225.37,71.3l.72.73,2.9,3.26-.72,17.4L222.11,84l-.73-.36-1.81-1.45-1.81-.73h-1.45L209.06,80l-1.82-2.17-1.81-2.9-1.09-2.54-.72-2.9-.73-4.35,1.45-3.26h18.85Z"/><path class="cls-2" d="M127.85,68.77l8-5.08,8.7,1.09L154.32,84l-2.9,2.54-10.88,6.89Z"/><path class="cls-3" d="M95.59,70.22l6.16,4.35L108.64,88,89.43,100.3,79.28,80.37Z"/><path class="cls-2" d="M241.32,74.93l.36,5.44-.73.72-1.81,2.18.36,12.32V97l-3.26,1.81-8-6.16.72-17.4L226.09,72l-.72-.73,12,1.45Z"/><path class="cls-3" d="M5,71.67l15.22.72,4.35,4.71L23.82,97,3.88,96.32Z"/><path class="cls-1" d="M154.32,84l17.4-10.51,1.81,5.8,1.09,2.54,1.81,5.43-.73,2.54-.36-.36-.72,1.45-1.82,7.61v1.09l-12.32,3.26-6.16,2.9-2.9-19.21Z"/><path class="cls-2" d="M247.12,74.2a25.92,25.92,0,0,1,3.62,5.08,61.53,61.53,0,0,1,4.72,11.24l1.08,4-12,1.09L239.51,97V95.59l-.37-12.32L241,81.09l.72-.72-.36-5.44,5.8-.73"/><path class="cls-3" d="M173.53,79.28l9.79-2.54c3.62-.36,4.88-2.47,8.15-1.39s8.16,5,10.7,7.55L204,84.71l-25.38,23.2-5.8-8.33V97.76l1.82-6.88.72-1.45.36.36.73-2.54-1.81-5.44L173.89,80l-.36-.72"/><path class="cls-2" d="M293.88,82.54l16.67-5.07,4.35,6.88-2.53,1.82-2.18-1.45h-.36l-.36.36V94.5l1.08,7.25L308,103.2l-3.63-1.81-8.34,5.8-8.7.36-1.08-17.76-2.9-3.26-2.9-1.45L290.25,76l.73,3.26.36,2.54.36.36,1.09.36Z"/><path class="cls-1" d="M39.77,78.92l4.35.36-.73,26.1-15.22-.73L23.82,97l.72-19.94,2.54.37,3.62.36,7.25.72Z"/><path class="cls-3" d="M132.57,78.19l8,15.23L122.05,105l-8-14.87Z"/><path class="cls-1" d="M68.77,101.75l-.37,5.44-20.3-.72-4.71-1.09.73-26.1,4-1.09-.36,1.09,1.09,1.45,7.61,2.9,1.09-1.09,6.52,8.34.37.72Z"/><path class="cls-4" d="M75.65,82.54l3.63-2.17L89.43,100.3v1.45H68.77L64.42,91.6Z"/><path class="cls-1" d="M270.68,84.35l9.79.73,2.9,1.45,2.9,3.26,1.09,17.76-6.17.73-6.16.36H263.79l-5.07,1.09-.37-16,.37-2.9.36-1.45,5.44-4.71Z"/><path class="cls-4" d="M208.33,96.68,194.55,113l-4.71-1.45-4.35-10.15L204,84.72Z"/><path class="cls-2" d="M131.48,98.85l19.94-12.32,2.9,19.21-.73.36-1.81,1.45L150.33,109l-1.81,2.54-1.82,3.63-1.08,2.17-4.35,2.18-1.45-1.82-2.54-5.07-5.44-12Z"/><path class="cls-4" d="M89.43,100.3,108.64,88l5.44,2.17,8,14.87-7.61,4.71-2.17,6.52-12-5.8-1.08-.36-6.89-1.81-2.9-6.53V100.3Z"/><path class="cls-3" d="M256.54,94.5l1.81-.72.37,16L258,113l-5.8,11.6-.36,1.81h.36l.73,1.82.72,2.9-1.45,2.17h-.36l1.45,7.61-7.25.37.36-35.17-1.81-10.51Z"/><path class="cls-2" d="M239.5,97l5.08-1.45,1.81,10.51L246,141.27l-8.7.36.36-.73.73-4.71-.37-.72-.72-1.82v-.72l.36-1.81.36-1.09,1.09-2.9-.72-1.09-.37-1.09,1.09-2.53-.72-1.82c-.73-1.81-1.45-4-2.54-6.16l-.36-.36h-1.09v-.36l-2.17-8.34-.37-1.45v-.36l-2.17-1.09-6.17-.36,12.69-3.27L239.5,97"/><path class="cls-4" d="M23.82,97l4.35,7.61-.37,11.6L3.15,115.17l.73-18.85Z"/><path class="cls-4" d="M219.57,101l-4,2.54,4.71,23.92L213,129.3l-4.35.37-1.45-2.9L194.55,113l13.78-16.31L213,98.49l3.26,1.45Z"/><path class="cls-4" d="M118.43,131.12l-6.16-14.87,2.17-6.52,17-10.88,3.26,8.7,4.71,10.15Z"/><path class="cls-1" d="M172.8,99.58l5.8,8.34-9.78,3.26-12,2.17-2.53-7.61,6.16-3.62a26.59,26.59,0,0,1,4-1.45l8.33-1.09"/><path class="cls-3" d="M223.55,102.12l6.17.36,1.81,1.09.72,1.81,2.18,8.7h1.09l2.9,6.52.72,1.82L238.05,125l.37,1.09.72,1.09-18.85.36-4.71-23.92,4-2.54Z"/><path class="cls-2" d="M310.55,109a14.22,14.22,0,0,1,1.46,6.53,25.29,25.29,0,0,1-1.09,7.25l-1.45,1.45-5.8.36-1.45.36-.37.37-1.08,2.17-5.44.36v-.36l.36-.36.36-.73,1.09-2.9v-.36l-.72-.36-.37-9.06v-6.53l8.34-5.8L308,103.2l2.53,5.8"/><path class="cls-2" d="M188.75,129.3l-2.53-.36h-6.89l-9.06-6.16-1.45-11.6,9.78-3.26,6.89-6.53,4.35,10.15Z"/><path class="cls-4" d="M89.43,101.75l2.9,6.53-8.7,14.14-3.26,9.78-8.7-3.26-.37-4.35-.36-13-2.54-4.35.37-5.44Z"/><path class="cls-1" d="M141.63,120.24l4-2.9,2.17-4.35,1.81-3.26,1.09-1.45,2.9-2.18.73-.36,2.53,7.61.37,10.88,1.81,7.25,1.09,1.81L157.58,138v-2.17l-1.09-1.09h-.72l-.73.73-2.17,1.08-.37-.72-1.81-4L147.07,125l-3.27-1.45-3.62-1.08a3.3,3.3,0,0,1,1.45-2.18"/><path class="cls-1" d="M48.1,106.47l20.3.72,2.54,4.35.36,13,.37,4.35-9.43-1.09-14.5-.36Z"/><path class="cls-4" d="M296.05,111.9l.37,10.88.72.36v.36l-1.09,2.9-.36.73-.36.36-5.44.73-9.42,2.17-4.72,1.09v-8.7l3.27-.36h2.53l-.36-13.78,14.86-1.45v4.71Z"/><path class="cls-1" d="M101.39,128.94l-6.52,2.18H92.69L91.24,130l-2.9-6.53-1.09-1.45-3.62.37,8.7-14.14,6.89,1.81,1.08.36,12,5.8,6.16,14.87-7.25,2.9-6.89-4.35-2.17-.73Z"/><path class="cls-2" d="M281.55,122.42H279l-3.27.36v9.79l-9.78.36v-4.35h-4v4.35l-10.15.36h.36l1.09-1.81.36-.36-.72-2.9-.73-1.82h-.36l.36-1.81L258,113l.73-3.26,5.07-1.09h17.4Z"/><path class="cls-3" d="M189.84,111.54a11.19,11.19,0,0,1,4.71,2.18l2.9,2.53,9.79,10.52,1.45,2.9-12.32,7.25-7.62-7.62,1.09-17.76"/><path class="cls-1" d="M34.33,137.64l-31.9-1.45.72-21,24.65,1.08-.36,10.52,6.89.36Z"/><path class="cls-3" d="M139.45,117.7l1.82,1.82v.36l-1.09,2.54,6.89,2.53,4.71,10.52v-.37l-6.53,2.18-6.88,2.17-7.62-7.25L126,126.4Z"/><path class="cls-2" d="M105,143.44l-4.72,5.08-4,4-17.77-17,1.82-3.27,3.26-9.78,3.62-.37,1.09,1.45,2.9,6.53,1.45,1.09h2.18l6.52-1.45,2.9.36,5.8,2.9Z"/><path class="cls-1" d="M190.2,151.78l-4-2.9-5.08-2.9-1.81,1.45-5.44,2.17h-.72l-1.82.37v-8l-1.08-19.21,9.06,6.16h4l5.43.36,7.62,7.62L198.9,146l-3.62,4-2.9,2.53-1.09.37-.72-.37Z"/><path class="cls-3" d="M165.92,12.58l11.6,5.8L179,19.83V30.34l4.71,5.44,1.09.72H160.84V12.58Z"/><path class="cls-3" d="M202.05,26.27l.92.17,5.72-1.9,2.18-3.62h.36l1.81.36v11.6A16.74,16.74,0,0,1,215.58,34l1.45.36h0l-8,1.09-6.88.36V27.44"/><path class="cls-3" d="M286.63,29.25l-1.09,15.59-14.14.36-9.42-4,1.81-8.7,5.44-.37L272.49,30l-.36-1.45L271,23.45l11.24-.36Z"/><path class="cls-3" d="M315.27,37.23l5.43,6.16,1.09,1.45v1.09L320,47.38,321.07,51l.36,1.09-4.35,2.54-12,.36-.37-17.4Z"/><path class="cls-3" d="M135.83,63.69l-8,5.08-4-7.62L114.44,67,113,65.87l-.36-.73-6.16-12V48.47l.72-3.27,14.86-4.35,7.25,9.79Z"/><path class="cls-3" d="M262,41.22l9.42,4,.37.73.72,1.45.73,2.54v2.9l-3.63,4.35-1.45.72h-2.9V56.44L262,53.18a20.33,20.33,0,0,1-2.9-4.71l-1.81-5.08-2.54-2.17H262"/><path class="cls-3" d="M68.77,68.77l6.88,13.77L64.42,91.6l-.37-.72-1.81-3.26a31.12,31.12,0,0,0-4.71-5.08l-1.09,1.09-7.61-2.9-1.09-1.45.36-1.09,1.82-1.45L56.44,72l.73-3.63L60.79,68l8,.73"/><path class="cls-3" d="M207.24,77.83,209.05,80l7.25,1.45h1.45l1.82.73,1.81,1.45.72.36,6.17,8.7,8,6.16-12.69,3.27-7.25-2.54-8-2.9-4.35-12-1.81-1.82Z"/><path class="cls-3" d="M27.44,126.77l.73-22.12,15.22.73,4.71,1.09-.36,21Z"/><path class="cls-3" d="M170.27,122.78,171.35,142l-11.23,1.09L157.58,138l2.54-4.71L159,132.2l-.36-.36-.37-1.09-1.45-6.52V113.35l12-2.17Z"/><path class="cls-3" d="M165.92,12.58l11.6,5.8L179,19.83V30.34l4.71,5.44,1.09.72H160.84V12.58Z"/><path class="cls-3" d="M202.05,26.27l.92.17,5.72-1.9,2.18-3.62h.36l1.81.36v11.6A16.74,16.74,0,0,1,215.58,34l1.45.36h0l-8,1.09-6.88.36V27.44"/><path class="cls-3" d="M286.63,29.25l-1.09,15.59-14.14.36-9.42-4,1.81-8.7,5.44-.37L272.49,30l-.36-1.45L271,23.45l11.24-.36Z"/><path class="cls-3" d="M315.27,37.23l5.43,6.16,1.09,1.45v1.09L320,47.38,321.07,51l.36,1.09-4.35,2.54-12,.36-.37-17.4Z"/><path class="cls-3" d="M135.83,63.69l-8,5.08-4-7.62L114.44,67,113,65.87l-.36-.73-6.16-12V48.47l.72-3.27,14.86-4.35,7.25,9.79Z"/><path class="cls-3" d="M262,41.22l9.42,4,.37.73.72,1.45.73,2.54v2.9l-3.63,4.35-1.45.72h-2.9V56.44L262,53.18a20.33,20.33,0,0,1-2.9-4.71l-1.81-5.08-2.54-2.17H262"/><path class="cls-3" d="M68.77,68.77l6.88,13.77L64.42,91.6l-.37-.72-1.81-3.26a31.12,31.12,0,0,0-4.71-5.08l-1.09,1.09-7.61-2.9-1.09-1.45.36-1.09,1.82-1.45L56.44,72l.73-3.63L60.79,68l8,.73"/><path class="cls-3" d="M207.24,77.83,209.05,80l7.25,1.45h1.45l1.82.73,1.81,1.45.72.36,6.17,8.7,8,6.16-12.69,3.27-7.25-2.54-8-2.9-4.35-12-1.81-1.82Z"/><path class="cls-3" d="M27.44,126.77l.73-22.12,15.22.73,4.71,1.09-.36,21Z"/><path class="cls-3" d="M170.27,122.78,171.35,142l-11.23,1.09L157.58,138l2.54-4.71L159,132.2l-.36-.36-.37-1.09-1.45-6.52V113.35l12-2.17Z"/><path class="cls-3" d="M165.92,12.58l11.6,5.8L179,19.83V30.34l4.71,5.44,1.09.72H160.84V12.58Z"/><path class="cls-3" d="M202.05,26.27l.92.17,5.72-1.9,2.18-3.62h.36l1.81.36v11.6A16.74,16.74,0,0,1,215.58,34l1.45.36h0l-8,1.09-6.88.36V27.44"/><path class="cls-3" d="M286.63,29.25l-1.09,15.59-14.14.36-9.42-4,1.81-8.7,5.44-.37L272.49,30l-.36-1.45L271,23.45l11.24-.36Z"/><path class="cls-3" d="M315.27,37.23l5.43,6.16,1.09,1.45v1.09L320,47.38,321.07,51l.36,1.09-4.35,2.54-12,.36-.37-17.4Z"/><path class="cls-3" d="M135.83,63.69l-8,5.08-4-7.62L114.44,67,113,65.87l-.36-.73-6.16-12V48.47l.72-3.27,14.86-4.35,7.25,9.79Z"/><path class="cls-3" d="M262,41.22l9.42,4,.37.73.72,1.45.73,2.54v2.9l-3.63,4.35-1.45.72h-2.9V56.44L262,53.18a20.33,20.33,0,0,1-2.9-4.71l-1.81-5.08-2.54-2.17H262"/><path class="cls-3" d="M68.77,68.77l6.88,13.77L64.42,91.6l-.37-.72-1.81-3.26a31.12,31.12,0,0,0-4.71-5.08l-1.09,1.09-7.61-2.9-1.09-1.45.36-1.09,1.82-1.45L56.44,72l.73-3.63L60.79,68l8,.73"/><path class="cls-3" d="M207.24,77.83,209.05,80l7.25,1.45h1.45l1.82.73,1.81,1.45.72.36,6.17,8.7,8,6.16-12.69,3.27-7.25-2.54-8-2.9-4.35-12-1.81-1.82Z"/><path class="cls-3" d="M27.44,126.77l.73-22.12,15.22.73,4.71,1.09-.36,21Z"/><path class="cls-3" d="M170.27,122.78,171.35,142l-11.23,1.09L157.58,138l2.54-4.71L159,132.2l-.36-.36-.37-1.09-1.45-6.52V113.35l12-2.17Z"/></g></g></svg>