<svg xmlns="http://www.w3.org/2000/svg" viewBox="0 0 343.15 154.24"><defs><style>.cls-1{fill:#a6d96a;}.cls-1,.cls-2,.cls-3,.cls-4{stroke:#000;stroke-width:0.5px;}.cls-2{fill:#d7191c;}.cls-3{fill:#1a9641;}.cls-4{fill:#fdae61;}</style></defs><title>Colour_Area_EqualToUnder_</title><g id="Layer_2" data-name="Layer 2"><g id="county-map"><path class="cls-1" d="M336.65.63l6.17-.36-2.18,7.61-1.09,6.53a30.16,30.16,0,0,1-1.81,6.16L337,21.66l-4.35.36-1.45-3.62L329.77,18l1.08-4.35,5.44-12,.36-1.09"/><path class="cls-2" d="M312.37,1.72,336.65.63l-.36,1.09-5.44,12L329.77,18l-1.09,2.18-.36.36-4.72,2.9-4.35,2.9-6.16-10.51h.36l-.36-3.26-.36-4.35Z"/><path class="cls-3" d="M195.64,4.62,200,1.72l1.45-.36,2.9.36,4,4.35,4,3.63-16.68.36Z"/><path class="cls-4" d="M313.45,12.6v3.26h-.36l-5.8,6.52a1.85,1.85,0,0,1-1.45.73l-5.8.36V19.12l-7.25-3.26a18.47,18.47,0,0,0-4.71-.73l-.36-12.68,24.65-.73,1.08,10.88"/><path class="cls-3" d="M282.28,24.2,271,24.56V22l-.36-4h-1.81l-.73-15.22,19.58-.36.36,12.68Z"/><path class="cls-2" d="M268.14,2.81,268.87,18h1.81l.36,4,.36,2.54,1.09,6.52-3.26,2.18-5.44.36h-2.54l-1.08-23.2-.73-1.09L258,7.16,257.63,5V3.17Z"/><path class="cls-1" d="M257.63,5.71l1.81,3.62.73,1.09,1.08,23.2h2.54L262,42.32h-1.45l-8-7.25-4.71-16.31L246,3.9l.36-.37,11.24-.36Z"/><path class="cls-2" d="M246.39,3.53,246,3.9l1.81,14.86,4.71,16.31,8,7.25h-5.8l-.36-2.17-.73-1.09-1.09-.36-2.9-1.09H248.2l-.72.36-1.81,2.54v.72l-1.82,1.82L242,44.86h-3.62l-.37-25-.36-16.32Z"/><path class="cls-1" d="M26,26.73,5.69,25.65,6.42,3.53l20.3,1.09Z"/><path class="cls-2" d="M84.72,28.91,65.5,28.18l.37-21.75,5.8-2.53,14.13.36Z"/><path class="cls-2" d="M104.65,27.1l-19.93-.37L85.8,4.26,105,5.35Z"/><path class="cls-2" d="M196,26.73l-.36.73-.72.36-.37.36-10.87-3.26-1.09-.36L179,20.93l-1.45-1.45-1.09-12,13.41-.36,5.8-2.54Z"/><path class="cls-2" d="M46.29,5.35l-.72,22.47L26,26.73l.73-22.11Z"/><path class="cls-3" d="M124.59,6.07l-.72,21.75-19.22-.72L105,5.35Z"/><path class="cls-3" d="M65.5,28.18l-19.93-.36.72-22.47L65.87,6.43Z"/><path class="cls-1" d="M144.17,6.43l-.73,21.75-19.57-.36.72-21.75Z"/><path class="cls-3" d="M144.17,6.43h8.33l-.36,6.89-8.34,1.45Z"/><path class="cls-2" d="M168.82,6.43l7.61,1.09,1.09,12-11.6-5.8Z"/><path class="cls-1" d="M212.32,11.15,213,22.38,211.23,22h-.36l-2.18,3.63a11.56,11.56,0,0,1-5.8,1.45L196,26.73l-.36-16.67,16.68-.36v1.45"/><path class="cls-1" d="M235.52,19.12H230.8l-5.8.73-4.71.36L213,15.5l-.36-4.35,25.37-.73v9.43Z"/><path class="cls-4" d="M143.8,14.77l8.34-1.45,8.7.36V37.61h-14.5l-2.9-9.43Z"/><path class="cls-1" d="M288.08,15.13a18.47,18.47,0,0,1,4.71.73L300,19.12l.36,8.7-8,.36v2.18h-5.8l-4.35-6.16,5.8-9.07"/><path class="cls-4" d="M238.42,35.07l-11.6,3.26h-.37L221,35.43h-3.63l-1.81-.36A18.49,18.49,0,0,0,213,34V15.5l7.25,4.71,4.72-.36,5.8-.73h4.71l2.54.73Z"/><path class="cls-3" d="M319.25,26.37l-4,12-10.52.37-.36-2.18-3.62-4-.37-.72v-4L300,23.47l5.8-.36,1.09-.36h.36l5.8-6.89Z"/><path class="cls-1" d="M319.25,26.37l4.35-2.9,4.72-2.9.72-1.45.73-1.09,1.45.37L332.67,22l4.35-.36-.37,2.54-.36,6.52a13.37,13.37,0,0,0-6.52,2.9l-6.17,6.89-2.9,3.62-5.43-5.8,4-12"/><path class="cls-1" d="M202.17,28.55l.36,19.93-18.13.37.37-11.24L179,31.45V20.93l3.62,3.63,1.09.36,10.87,3.26.37-.36.72-.36.36-.73Z"/><path class="cls-4" d="M4.6,47.4,5.69,25.65l19.58,1.08-.73,21.75Z"/><path class="cls-1" d="M101.75,39.06l-12.68,4L84.72,28.91V26.73l17.4.37Z"/><path class="cls-1" d="M44.84,27.46l-.72,22.11L24.54,48.48l.73-21.75Z"/><path class="cls-4" d="M122.05,27.82V42l-14.86,4.35-5.44-1.45.37-17.76Z"/><path class="cls-2" d="M65.87,40.87l-14.5,8.7H44.12l.72-22.11,24.29,1.09Z"/><path class="cls-3" d="M143.44,28.18l2.9,9.43,2.54,1.45L129.3,51.75,122.05,42V27.82Z"/><path class="cls-1" d="M304.39,36.52l.36,8.7L285.54,46l1.09-15.59h5.8V28.18l8-.36a7.78,7.78,0,0,0,1.09,4.35l2.9,4.35"/><path class="cls-3" d="M84.72,28.91l4.35,14.14L92,50.3l-13,8.33L77.1,55.37l-2.9,1.81L65.87,40.87l3.26-12.32Z"/><path class="cls-4" d="M335.93,40.87l-2.17,16.31-1.09-2.9-1.82-1.08-.36.36-2.17,2.9-2.54,1.45-.72-.73-2.18-2.9-1.45-1.08-.36-1.09L320,48.48,321.79,47V45.58l-1.09-1.45,2.91-3.62,6.16-6.89a13.37,13.37,0,0,1,6.52-2.9l-.36,10.15"/><path class="cls-1" d="M238.42,44.86l1.45,10.87-22.48.73V51l.73-6.16.72-2.18L221,37.25V35.43l1.45.73,4,2.17h.37l11.6-3.26v9.79Z"/><path class="cls-2" d="M217.75,35.43H221l-1.09,4.72-1.45,5.07-1.09,11.24h3.26L223.19,63H204.34l-1.81-14.5-.36-11.6,13.05-.72Z"/><path class="cls-3" d="M242,44.86l1.81-1.81L245.3,42l.37-.73v-.72L247.84,38l1.09-.36,3.62,1.09,1.09.36.73,1.09.36.72v1.45l2.54,2.18L262,53.56l3.26,4L262,61.9l-16.68.36-5.43-6.53-1.45-10.87Z"/><path class="cls-1" d="M184.77,37.61l-.37,11.24,1.09,2.53-23.92,4V55l-.73-2.9L159,49.21l-3.26-4.35a17.35,17.35,0,0,0-3.63-3.63,31.17,31.17,0,0,0-5.8-3.62h38.43"/><path class="cls-3" d="M101.75,44.86,92,50.3l-2.9-7.25,12.68-4Z"/><path class="cls-1" d="M129.3,51.75l19.58-12.69,3.62,2.17a33,33,0,0,1,3.27,3.63c1.81,2.54,3.62,4.71,4.71,7.25l1.09,2.9-17,10.87-8.7-1.08-6.53-13"/><path class="cls-4" d="M60.79,68.78,51.37,49.57l14.5-8.7L74.2,57.18l2.9-1.81,3.63,7.25-12,7.25Z"/><path class="cls-2" d="M86.53,53.92l15.22-9.06,5.44,1.45-.36,3.26-.36,4.71,6.16,12L113,67l1.45,1.09-12.69,7.61-6.16-4.35Z"/><path class="cls-2" d="M305.12,56.1l-1.45,6.52-10.15.73v4l-13.42.73,2.18-8.34,1.09-3.26v-.73l-.73-3.62A56.23,56.23,0,0,0,280.83,46l23.93-.73.36,10.88"/><path class="cls-2" d="M271.4,46.31l9.43-.36,1.09,2.9c.36,2.53.72,4.71,1.09,6.88a13.13,13.13,0,0,1-.73,4l-2.17,8.34,10.15,9.06-9.79,9.06-9.79-.72-.36-8.34h-4l-.37-8.7h-4V61.9l3.26-4.35V59l1.45.36a17.82,17.82,0,0,0,2.54-1.09,15.39,15.39,0,0,0,4-4.35V51l-.72-2.54-1.1-2.17"/><path class="cls-1" d="M1.34,47.4l19.94,1.08-1.09,25L5,72.77.25,67Z"/><path class="cls-4" d="M41.22,49.21,39.77,80,38,79.66l-7.25-.73-6.16-.72L20.19,73.5l1.09-25Z"/><path class="cls-4" d="M184.4,48.85l18.13-.37L204.34,63l-1.45,3.27.73,4.35.72,2.9,1.09,2.9,1.81,2.53L202.17,84l-4-3.26-4.35-3.63-2.18-1.45L192,75v-.37l-.73-2.17-.36-1.09-.73-1.09-.72-.36-2.54-2.54-1.45-5.8-.36-3.62.36-6.53Z"/><path class="cls-2" d="M57.17,69.51l-.73,3.62-6.52,4.72a8.06,8.06,0,0,1-1.82,1.08L39.77,80l1.45-30.81,10.15.36,9.42,19.21-3.62.73"/><path class="cls-4" d="M185.85,61.53l1.09,5.8,2.54,2.54.72.36.73,1.09.36,1.09.73,2.17V75l-.37.72-14.5,3.26-3.62,1.45-1.45-5.8-.73-2.9-4-4.71-6.17-9.42.37-2.18,23.92-4Z"/><path class="cls-1" d="M317.08,55.73l4.35-2.53,1.45,1.08,2.17,2.9.73.73,2.54-1.45,2.17-2.9.36-.36,1.81,1.08,2.54,9.43-5.44.36-4,6.53c-1.09,1.81-1.45,4-1.82,6.52v8.7l1.09,2.54-2.53-1.09h-1.09l-.72.36v.73l.36,1.09.36.72-.73.73h-1.81v-.37l-.72-4.71-1.09-30.09"/><path class="cls-4" d="M75.65,83.65,68.77,69.87l12-7.25-1.81-4,7.61-4.71,9.06,17.4Z"/><path class="cls-2" d="M161.57,55.37l-.37,2.18L167.37,67l4,4.71.37,2.9L154.32,85.1l-9.79-19.22,17-10.87Z"/><path class="cls-4" d="M305.12,56.1l12-.37,1.09,30.09-3.27-.36-4.35-6.89-1.81-.72-1.81-2.18-1.09-2.9a32.67,32.67,0,0,1-1.45-10.15l.73-6.52"/><path class="cls-1" d="M237.33,73.86l-12-1.45L223.19,63l-2.54-6.52,19.22-.73,5.43,6.53,1.82,13.05-5.8.72Z"/><path class="cls-1" d="M262,68.42h4l.36,8.7h4l.36,8.34-6.16.36-5.44,4.71L258.72,92l-.37,2.9-1.81.73-.36-2.9a65.8,65.8,0,0,0-1.81-6.89l-3.27-5.44a27.07,27.07,0,0,0-4-5.07L245.3,62.26,262,61.9v6.52"/><path class="cls-1" d="M132.57,79.3l-18.49,12-5.44-2.18-6.89-13.41,22.12-13.41Z"/><path class="cls-3" d="M304.39,68.78a39.26,39.26,0,0,0,2.9,6.89l1.45,2.18,1.81.72-16.67,5.08h-1.09l-1.09-.37-.36-.36L291,80.38l-.72-3.26L280.1,68.06l13.42-.73v-4l10.15-.73a32,32,0,0,0,.72,6.16"/><path class="cls-3" d="M225.37,72.41l.72.72L229,76.4l-.72,17.4-6.16-8.7-.73-.37-1.81-1.45-1.81-.72h-1.45l-7.25-1.45-1.82-2.18L205.43,76l-1.09-2.53-.72-2.9-.73-4.35L204.34,63h18.85Z"/><path class="cls-1" d="M335.2,63.71l6.17.36-.73,1.09v.36l-4,9.06-.36.37-1.45,13a80.2,80.2,0,0,1-2.17,13.41l-.37,1.45v-1.09l-2.53-2.54v-.72L331.22,92l-.73-.36-.36-.72-1.45-.37-2.54-1.08-2.54-2.9V77.12a17.36,17.36,0,0,1,2.18-6.52l4-6.53,5.43-.36"/><path class="cls-4" d="M127.85,69.87l8-5.07,8.7,1.08,9.79,19.22-2.9,2.53-10.88,6.89Z"/><path class="cls-2" d="M95.59,71.32l6.16,4.35,6.89,13.41L89.43,101.41,79.28,81.47Z"/><path class="cls-4" d="M241.32,76l.36,5.44-.73.73-1.81,2.17.36,12.33v1.45L236.24,100l-8-6.16L229,76.4l-2.9-3.27-.72-.72,12,1.45Z"/><path class="cls-2" d="M5,72.77l15.22.73,4.35,4.71-.72,19.94L3.88,97.42Z"/><path class="cls-3" d="M154.32,85.1l17.4-10.52,1.81,5.8,1.09,2.54,1.81,5.44-.73,2.54-.36-.37L174.62,92,172.8,99.6v1.08L160.48,104l-6.16,2.9-2.9-19.22Z"/><path class="cls-4" d="M247.12,75.31a25.85,25.85,0,0,1,3.62,5.07,61.82,61.82,0,0,1,4.72,11.24l1.08,4-12,1.09-5.07,1.45V96.7l-.37-12.33L241,82.2l.72-.73L241.32,76l5.8-.72"/><path class="cls-2" d="M173.53,80.38l9.79-2.53c3.62-.37,4.88-2.48,8.15-1.39s8.16,5,10.7,7.55L204,85.82,178.6,109l-5.8-8.34V98.87L174.62,92l.72-1.45.36.36.73-2.53-1.81-5.44-.73-1.81-.36-.73"/><path class="cls-4" d="M293.88,83.65l16.67-5.08,4.35,6.89-2.53,1.81-2.18-1.45h-.36l-.36.36v9.43l1.08,7.25L308,104.31l-3.63-1.81-8.34,5.8-8.7.36L286.27,90.9l-2.9-3.27-2.9-1.45,9.78-9.06.73,3.26.36,2.54.36.36,1.09.37Z"/><path class="cls-3" d="M39.77,80l4.35.36-.73,26.1-15.22-.72-4.35-7.61.72-19.94,2.54.36,3.62.36,7.25.73Z"/><path class="cls-2" d="M132.57,79.3l8,15.22-18.49,11.6-8-14.86Z"/><path class="cls-3" d="M68.77,102.86l-.37,5.44-20.3-.73-4.71-1.09.73-26.1,4-1.08-.36,1.08,1.09,1.45,7.61,2.9,1.09-1.08L64.05,92l.37.73Z"/><path class="cls-1" d="M75.65,83.65l3.63-2.18,10.15,19.94v1.45H68.77L64.42,92.71Z"/><path class="cls-3" d="M314.9,85.46l3.27.36.72,4.71v.37h1.81l.73-.73-.36-.72-.37-1.09v-.73l.73-.36,1.09.36,3.26,1.82,2.9,1.08,1.45.37.36.72.73.36-1.45,6.53-.73,2.17-2.54,8.7-15.58.37-2.9-5.44,2.53-1.45-1.08-7.25V86.18l.36-.36h.36l2.18,1.45Z"/><path class="cls-3" d="M270.68,85.46l9.79.72,2.9,1.45,2.9,3.27,1.09,17.76-6.17.72-6.16.37H263.79l-5.07,1.08-.37-16,.37-2.9.36-1.45,5.44-4.71Z"/><path class="cls-1" d="M208.33,97.78,194.55,114.1l-4.71-1.45-4.35-10.15L204,85.82Z"/><path class="cls-4" d="M131.48,100l19.94-12.33,2.9,19.22-.73.36-1.81,1.45-1.45,1.45-1.81,2.54-1.82,3.62-1.08,2.18-4.35,2.17-1.45-1.81-2.54-5.08-5.44-12Z"/><path class="cls-1" d="M89.43,101.41l19.21-12.33,5.44,2.18,8,14.86-7.61,4.71-2.17,6.53-12-5.8-1.08-.36-6.89-1.82-2.9-6.52v-1.45Z"/><path class="cls-2" d="M256.54,95.61l1.81-.73.37,16L258,114.1l-5.8,11.6-.36,1.81h.36l.73,1.81.72,2.9-1.45,2.18h-.36l1.45,7.61-7.25.36.36-35.16L244.58,96.7Z"/><path class="cls-4" d="M239.5,98.15l5.08-1.45,1.81,10.51L246,142.37l-8.7.36.36-.72.73-4.71-.37-.73-.72-1.81V134l.36-1.81.36-1.09,1.09-2.9-.72-1.08-.37-1.09,1.09-2.54-.72-1.81c-.73-1.81-1.45-4-2.54-6.16l-.36-.37h-1.09v-.36l-2.17-8.34-.37-1.45v-.36l-2.17-1.09-6.17-.36L236.24,100l3.26-1.81"/><path class="cls-1" d="M23.82,98.15l4.35,7.61-.37,11.6L3.15,116.27l.73-18.85Z"/><path class="cls-1" d="M219.57,102.13l-4,2.54,4.71,23.93L213,130.41l-4.35.36-1.45-2.9L194.55,114.1l13.78-16.32L213,99.6l3.26,1.45Z"/><path class="cls-1" d="M118.43,132.22l-6.16-14.86,2.17-6.53,17-10.87,3.26,8.7,4.71,10.15Z"/><path class="cls-3" d="M172.8,100.68l5.8,8.34-9.78,3.26-12,2.18-2.53-7.61,6.16-3.63a27.75,27.75,0,0,1,4-1.45l8.33-1.09"/><path class="cls-2" d="M223.55,103.22l6.17.36,1.81,1.09.72,1.81,2.18,8.7h1.09l2.9,6.53.72,1.81-1.09,2.54.37,1.09.72,1.08-18.85.37-4.71-23.93,4-2.54Z"/><path class="cls-4" d="M310.55,110.11a14.18,14.18,0,0,1,1.46,6.52,25.24,25.24,0,0,1-1.09,7.25l-1.45,1.45-5.8.37-1.45.36-.37.36-1.08,2.18-5.44.36v-.36l.36-.37.36-.72,1.09-2.9v-.36l-.72-.37-.37-9.06V108.3l8.34-5.8,3.63,1.81,2.53,5.8"/><path class="cls-4" d="M188.75,130.41l-2.53-.36h-6.89l-9.06-6.17-1.45-11.6L178.6,109l6.89-6.52,4.35,10.15Z"/><path class="cls-1" d="M89.43,102.86l2.9,6.52-8.7,14.14-3.26,9.79-8.7-3.26-.37-4.35-.36-13L68.4,108.3l.37-5.44Z"/><path class="cls-3" d="M141.63,121.35l4-2.9,2.17-4.35,1.81-3.27,1.09-1.45,2.9-2.17.73-.36,2.53,7.61.37,10.87,1.81,7.25,1.09,1.82-2.54,4.71v-2.18l-1.09-1.08h-.72l-.73.72-2.17,1.09-.37-.73-1.81-4-3.62-6.89-3.27-1.45-3.62-1.09a3.28,3.28,0,0,1,1.45-2.17"/><path class="cls-3" d="M48.1,107.57l20.3.73,2.54,4.35.36,13,.37,4.35L62.24,129l-14.5-.36Z"/><path class="cls-1" d="M296.05,113l.37,10.87.72.37v.36l-1.09,2.9-.36.72-.36.37-5.44.72-9.42,2.18-4.72,1.08v-8.7l3.27-.36h2.53l-.36-13.77,14.86-1.45V113Z"/><path class="cls-3" d="M101.39,130.05l-6.52,2.17H92.69l-1.45-1.09-2.9-6.52-1.09-1.45-3.62.36,8.7-14.14,6.89,1.82,1.08.36,12,5.8,6.16,14.86-7.25,2.9-6.89-4.35-2.17-.72Z"/><path class="cls-4" d="M281.55,123.52H279l-3.27.36v9.79L266,134v-4.35h-4V134l-10.15.37h.36l1.09-1.82.36-.36-.72-2.9-.73-1.81h-.36l.36-1.81,5.8-11.6.73-3.27,5.07-1.08h17.4Z"/><path class="cls-2" d="M189.84,112.65a11.17,11.17,0,0,1,4.71,2.17l2.9,2.54,9.79,10.51,1.45,2.9L196.37,138l-7.62-7.61,1.09-17.76"/><path class="cls-3" d="M34.33,138.75,2.43,137.3l.72-21,24.65,1.09-.36,10.51,6.89.36Z"/><path class="cls-2" d="M139.45,118.81l1.82,1.81V121l-1.09,2.54,6.89,2.54,4.71,10.51v-.36l-6.53,2.17-6.88,2.18-7.62-7.25-4.71-5.8Z"/><path class="cls-4" d="M105,144.55l-4.72,5.07-4,4-17.77-17,1.82-3.26,3.26-9.79,3.62-.36,1.09,1.45,2.9,6.52,1.45,1.09h2.18l6.52-1.45,2.9.36,5.8,2.9Z"/><path class="cls-3" d="M190.2,152.88l-4-2.9-5.08-2.9-1.81,1.45-5.44,2.18h-.72l-1.82.36v-8l-1.08-19.22,9.06,6.17h4l5.43.36,7.62,7.61,2.53,9.06-3.62,4-2.9,2.54-1.09.36-.72-.36Z"/><path class="cls-2" d="M165.92,13.68l11.6,5.8L179,20.93V31.45l4.71,5.43,1.09.73H160.84V13.68Z"/><path class="cls-2" d="M202.05,27.37l.92.17,5.72-1.89L210.87,22h.36l1.81.36V34a19,19,0,0,1,2.54,1.09l1.45.36h0l-8,1.09-6.88.36V28.55"/><path class="cls-2" d="M286.63,30.36,285.54,46l-14.14.36-9.42-4,1.81-8.7,5.44-.36,3.26-2.18-.36-1.45L271,24.56l11.24-.36Z"/><path class="cls-2" d="M315.27,38.33l5.43,6.17L321.79,46V47L320,48.48l1.09,3.63.36,1.09-4.35,2.53-12,.37-.37-17.4Z"/><path class="cls-2" d="M135.83,64.8l-8,5.07-4-7.61-9.43,5.8L113,67l-.36-.72-6.16-12V49.57l.72-3.26L122.05,42l7.25,9.79Z"/><path class="cls-2" d="M262,42.32l9.42,4,.37.72.72,1.45.73,2.54v2.9l-3.63,4.35-1.45.73h-2.9V57.55L262,54.28a20.33,20.33,0,0,1-2.9-4.71l-1.81-5.07-2.54-2.18H262"/><path class="cls-2" d="M68.77,69.87l6.88,13.78L64.42,92.71,64.05,92l-1.81-3.26a31.47,31.47,0,0,0-4.71-5.07l-1.09,1.08-7.61-2.9-1.09-1.45.36-1.08,1.82-1.45,6.52-4.72.73-3.62,3.62-.36,8,.72"/><path class="cls-2" d="M207.24,78.93l1.81,2.18,7.25,1.45h1.45l1.82.72,1.81,1.45.72.37,6.17,8.7,8,6.16-12.69,3.26-7.25-2.54-8-2.9-4.35-12L202.17,84Z"/><path class="cls-2" d="M27.44,127.87l.73-22.11,15.22.72,4.71,1.09-.36,21Z"/><path class="cls-2" d="M309.47,125.33a40.26,40.26,0,0,0,2.9-6.88V114.1l-1.45-4.35,15.59-.37,1.81,3.27a14.61,14.61,0,0,1,1.09,5.43,32.3,32.3,0,0,1,0,8.34l3.26,5.08-5.08.36-.36-.36-2.17-.73-4.35,2.9-5.8,3.63-1.81-6.89-2.54-2.18-9.79.37,1.09-2.18.36-.36,7.25-.73"/><path class="cls-2" d="M170.27,123.88l1.08,19.22-11.23,1.08-2.54-5.07,2.54-4.71L159,133.31l-.36-.36-.37-1.09-1.45-6.53V114.46l12-2.18Z"/><path class="cls-2" d="M165.92,13.68l11.6,5.8L179,20.93V31.45l4.71,5.43,1.09.73H160.84V13.68Z"/><path class="cls-2" d="M202.05,27.37l.92.17,5.72-1.89L210.87,22h.36l1.81.36V34a19,19,0,0,1,2.54,1.09l1.45.36h0l-8,1.09-6.88.36V28.55"/><path class="cls-2" d="M286.63,30.36,285.54,46l-14.14.36-9.42-4,1.81-8.7,5.44-.36,3.26-2.18-.36-1.45L271,24.56l11.24-.36Z"/><path class="cls-2" d="M315.27,38.33l5.43,6.17L321.79,46V47L320,48.48l1.09,3.63.36,1.09-4.35,2.53-12,.37-.37-17.4Z"/><path class="cls-2" d="M135.83,64.8l-8,5.07-4-7.61-9.43,5.8L113,67l-.36-.72-6.16-12V49.57l.72-3.26L122.05,42l7.25,9.79Z"/><path class="cls-2" d="M262,42.32l9.42,4,.37.72.72,1.45.73,2.54v2.9l-3.63,4.35-1.45.73h-2.9V57.55L262,54.28a20.33,20.33,0,0,1-2.9-4.71l-1.81-5.07-2.54-2.18H262"/><path class="cls-2" d="M68.77,69.87l6.88,13.78L64.42,92.71,64.05,92l-1.81-3.26a31.47,31.47,0,0,0-4.71-5.07l-1.09,1.08-7.61-2.9-1.09-1.45.36-1.08,1.82-1.45,6.52-4.72.73-3.62,3.62-.36,8,.72"/><path class="cls-2" d="M207.24,78.93l1.81,2.18,7.25,1.45h1.45l1.82.72,1.81,1.45.72.37,6.17,8.7,8,6.16-12.69,3.26-7.25-2.54-8-2.9-4.35-12L202.17,84Z"/><path class="cls-2" d="M27.44,127.87l.73-22.11,15.22.72,4.71,1.09-.36,21Z"/><path class="cls-2" d="M309.47,125.33a40.26,40.26,0,0,0,2.9-6.88V114.1l-1.45-4.35,15.59-.37,1.81,3.27a14.61,14.61,0,0,1,1.09,5.43,32.3,32.3,0,0,1,0,8.34l3.26,5.08-5.08.36-.36-.36-2.17-.73-4.35,2.9-5.8,3.63-1.81-6.89-2.54-2.18-9.79.37,1.09-2.18.36-.36,7.25-.73"/><path class="cls-2" d="M170.27,123.88l1.08,19.22-11.23,1.08-2.54-5.07,2.54-4.71L159,133.31l-.36-.36-.37-1.09-1.45-6.53V114.46l12-2.18Z"/><path class="cls-2" d="M165.92,13.68l11.6,5.8L179,20.93V31.45l4.71,5.43,1.09.73H160.84V13.68Z"/><path class="cls-2" d="M202.05,27.37l.92.17,5.72-1.89L210.87,22h.36l1.81.36V34a19,19,0,0,1,2.54,1.09l1.45.36h0l-8,1.09-6.88.36V28.55"/><path class="cls-2" d="M286.63,30.36,285.54,46l-14.14.36-9.42-4,1.81-8.7,5.44-.36,3.26-2.18-.36-1.45L271,24.56l11.24-.36Z"/><path class="cls-2" d="M315.27,38.33l5.43,6.17L321.79,46V47L320,48.48l1.09,3.63.36,1.09-4.35,2.53-12,.37-.37-17.4Z"/><path class="cls-2" d="M135.83,64.8l-8,5.07-4-7.61-9.43,5.8L113,67l-.36-.72-6.16-12V49.57l.72-3.26L122.05,42l7.25,9.79Z"/><path class="cls-2" d="M262,42.32l9.42,4,.37.72.72,1.45.73,2.54v2.9l-3.63,4.35-1.45.73h-2.9V57.55L262,54.28a20.33,20.33,0,0,1-2.9-4.71l-1.81-5.07-2.54-2.18H262"/><path class="cls-2" d="M68.77,69.87l6.88,13.78L64.42,92.71,64.05,92l-1.81-3.26a31.47,31.47,0,0,0-4.71-5.07l-1.09,1.08-7.61-2.9-1.09-1.45.36-1.08,1.82-1.45,6.52-4.72.73-3.62,3.62-.36,8,.72"/><path class="cls-2" d="M207.24,78.93l1.81,2.18,7.25,1.45h1.45l1.82.72,1.81,1.45.72.37,6.17,8.7,8,6.16-12.69,3.26-7.25-2.54-8-2.9-4.35-12L202.17,84Z"/><path class="cls-2" d="M27.44,127.87l.73-22.11,15.22.72,4.71,1.09-.36,21Z"/><path class="cls-2" d="M309.47,125.33a40.26,40.26,0,0,0,2.9-6.88V114.1l-1.45-4.35,15.59-.37,1.81,3.27a14.61,14.61,0,0,1,1.09,5.43,32.3,32.3,0,0,1,0,8.34l3.26,5.08-5.08.36-.36-.36-2.17-.73-4.35,2.9-5.8,3.63-1.81-6.89-2.54-2.18-9.79.37,1.09-2.18.36-.36,7.25-.73"/><path class="cls-2" d="M170.27,123.88l1.08,19.22-11.23,1.08-2.54-5.07,2.54-4.71L159,133.31l-.36-.36-.37-1.09-1.45-6.53V114.46l12-2.18Z"/></g></g></svg>