<?xml version="1.0" encoding="utf-8"?>
<!-- Generator: Adobe Illustrator 22.0.1, SVG Export Plug-In . SVG Version: 6.00 Build 0)  -->
<svg version="1.1" id="Layer_1" xmlns="http://www.w3.org/2000/svg" xmlns:xlink="http://www.w3.org/1999/xlink" x="0px" y="0px"
	 viewBox="0 0 343.1 154.2" style="enable-background:new 0 0 343.1 154.2;" xml:space="preserve">
<style type="text/css">
	.st0{fill:#A6D96A;stroke:#000000;stroke-width:0.5;}
	.st1{fill:#1A9641;stroke:#000000;stroke-width:0.5;}
</style>
<title>Colour_Area_EqualToUnder_</title>
<path class="st0" d="M336.6,0.6l6.2-0.4l-2.2,7.6l-1.1,6.5c-0.4,2.1-1,4.2-1.8,6.2l-0.7,1.1l-4.4,0.4l-1.5-3.6l-1.4-0.4l1.1-4.4
	l5.4-12L336.6,0.6"/>
<path class="st0" d="M312.4,1.7l24.3-1.1l-0.4,1.1l-5.4,12l-1.1,4.3l-1.1,2.2l-0.4,0.4l-4.7,2.9l-4.4,2.9l-6.2-10.5h0.4l-0.4-3.3
	l-0.4-4.4L312.4,1.7z"/>
<path class="st1" d="M195.6,4.6l4.4-2.9l1.4-0.4l2.9,0.4l4,4.3l4,3.6l-16.7,0.4L195.6,4.6z"/>
<path class="st1" d="M313.5,12.6v3.3h-0.4l-5.8,6.5c-0.3,0.5-0.9,0.7-1.5,0.7l-5.8,0.4v-4.4l-7.3-3.3c-1.5-0.4-3.1-0.7-4.7-0.7
	l-0.4-12.7l24.6-0.7L313.5,12.6"/>
<path class="st1" d="M282.3,24.2L271,24.6V22l-0.4-4h-1.8l-0.7-15.2l19.6-0.4l0.4,12.7L282.3,24.2z"/>
<path class="st0" d="M268.1,2.8l0.7,15.2h1.8l0.4,4l0.4,2.5l1.1,6.5l-3.3,2.2l-5.4,0.4h-2.5l-1.1-23.2l-0.7-1.1L258,7.2L257.6,5V3.2
	L268.1,2.8z"/>
<path class="st0" d="M257.6,5.7l1.8,3.6l0.7,1.1l1.1,23.2h2.5l-1.8,8.7h-1.5l-8-7.3l-4.7-16.3L246,3.9l0.4-0.4l11.2-0.4L257.6,5.7z"
	/>
<path class="st0" d="M246.4,3.5L246,3.9l1.8,14.9l4.7,16.3l8,7.3h-5.8l-0.4-2.2l-0.7-1.1l-1.1-0.4l-2.9-1.1h-1.4l-0.7,0.4l-1.8,2.5
	v0.7l-1.8,1.8l-1.8,1.8h-3.6l-0.4-25l-0.4-16.3L246.4,3.5z"/>
<path class="st0" d="M26,26.7L5.7,25.6L6.4,3.5l20.3,1.1L26,26.7z"/>
<path class="st0" d="M84.7,28.9l-19.2-0.7l0.4-21.8l5.8-2.5l14.1,0.4L84.7,28.9z"/>
<path class="st0" d="M104.7,27.1l-19.9-0.4l1.1-22.5L105,5.3L104.7,27.1z"/>
<path class="st0" d="M196,26.7l-0.4,0.7l-0.7,0.4l-0.4,0.4l-10.9-3.3l-1.1-0.4l-3.6-3.6l-1.4-1.5l-1.1-12l13.4-0.4l5.8-2.5L196,26.7
	z"/>
<path class="st0" d="M46.3,5.3l-0.7,22.5L26,26.7l0.7-22.1L46.3,5.3z"/>
<path class="st1" d="M124.6,6.1l-0.7,21.8l-19.2-0.7L105,5.3L124.6,6.1z"/>
<path class="st1" d="M65.5,28.2l-19.9-0.4l0.7-22.5l19.6,1.1L65.5,28.2z"/>
<path class="st0" d="M144.2,6.4l-0.7,21.8l-19.6-0.4l0.7-21.8L144.2,6.4z"/>
<path class="st1" d="M144.2,6.4h8.3l-0.4,6.9l-8.3,1.4L144.2,6.4z"/>
<path class="st0" d="M168.8,6.4l7.6,1.1l1.1,12l-11.6-5.8L168.8,6.4z"/>
<path class="st0" d="M212.3,11.1l0.7,11.2l-1.8-0.4h-0.4l-2.2,3.6c-1.8,1-3.8,1.5-5.8,1.5l-6.9-0.4l-0.4-16.7l16.7-0.4V11.1"/>
<path class="st0" d="M235.5,19.1h-4.7l-5.8,0.7l-4.7,0.4l-7.3-4.7l-0.4-4.4l25.4-0.7v9.4L235.5,19.1z"/>
<path class="st1" d="M143.8,14.8l8.3-1.4l8.7,0.4v23.9h-14.5l-2.9-9.4L143.8,14.8z"/>
<path class="st0" d="M288.1,15.1c1.6,0,3.2,0.3,4.7,0.7l7.2,3.3l0.4,8.7l-8,0.4v2.2h-5.8l-4.4-6.2L288.1,15.1"/>
<path class="st1" d="M238.4,35.1l-11.6,3.3h-0.4l-5.4-2.9h-3.6l-1.8-0.4c-0.8-0.4-1.7-0.8-2.6-1.1V15.5l7.3,4.7l4.7-0.4l5.8-0.7h4.7
	l2.5,0.7L238.4,35.1z"/>
<path class="st1" d="M319.3,26.4l-4,12l-10.5,0.4l-0.4-2.2l-3.6-4l-0.4-0.7v-4l-0.4-4.4l5.8-0.4l1.1-0.4h0.4l5.8-6.9L319.3,26.4z"/>
<path class="st0" d="M319.3,26.4l4.4-2.9l4.7-2.9l0.7-1.5l0.7-1.1l1.5,0.4l1.4,3.6l4.4-0.4l-0.4,2.5l-0.4,6.5
	c-2.4,0.4-4.6,1.4-6.5,2.9l-6.2,6.9l-2.9,3.6l-5.4-5.8L319.3,26.4"/>
<path class="st0" d="M202.2,28.5l0.4,19.9l-18.1,0.4l0.4-11.2l-5.8-6.2V20.9l3.6,3.6l1.1,0.4l10.9,3.3l0.4-0.4l0.7-0.4l0.4-0.7
	L202.2,28.5z"/>
<path class="st1" d="M4.6,47.4l1.1-21.8l19.6,1.1l-0.7,21.8L4.6,47.4z"/>
<path class="st0" d="M101.8,39.1l-12.7,4l-4.3-14.2v-2.2l17.4,0.4L101.8,39.1z"/>
<path class="st0" d="M44.8,27.5l-0.7,22.1l-19.6-1.1l0.7-21.8L44.8,27.5z"/>
<path class="st1" d="M122.1,27.8V42l-14.9,4.3l-5.4-1.5l0.4-17.8L122.1,27.8z"/>
<path class="st0" d="M65.9,40.9l-14.5,8.7h-7.3l0.7-22.1l24.3,1.1L65.9,40.9z"/>
<path class="st1" d="M143.4,28.2l2.9,9.4l2.5,1.5l-19.6,12.7l-7.3-9.8V27.8L143.4,28.2z"/>
<path class="st0" d="M304.4,36.5l0.4,8.7L285.5,46l1.1-15.6h5.8v-2.2l8-0.4c-0.1,1.5,0.3,3,1.1,4.3L304.4,36.5"/>
<path class="st1" d="M84.7,28.9L89.1,43l2.9,7.3l-13,8.3l-1.9-3.3l-2.9,1.8l-8.3-16.3l3.3-12.3L84.7,28.9z"/>
<path class="st1" d="M335.9,40.9l-2.2,16.3l-1.1-2.9l-1.8-1.1l-0.4,0.4l-2.2,2.9l-2.5,1.5l-0.7-0.7l-2.2-2.9l-1.5-1.1l-0.4-1.1
	l-1.1-3.6l1.8-1.5v-1.4l-1.1-1.5l2.9-3.6l6.2-6.9c1.9-1.5,4.1-2.5,6.5-2.9L335.9,40.9"/>
<path class="st0" d="M238.4,44.9l1.4,10.9l-22.5,0.7V51l0.7-6.2l0.7-2.2l2.2-5.4v-1.8l1.4,0.7l4,2.2h0.4l11.6-3.3
	C238.4,35.1,238.4,44.9,238.4,44.9z"/>
<path class="st0" d="M217.8,35.4h3.3l-1.1,4.7l-1.4,5.1l-1.1,11.2h3.3l2.6,6.5h-18.9l-1.8-14.5l-0.4-11.6l13.1-0.7L217.8,35.4z"/>
<path class="st1" d="M242,44.9l1.8-1.8l1.5-1l0.4-0.7v-0.7l2.2-2.5l1.1-0.4l3.6,1.1l1.1,0.4l0.7,1.1l0.4,0.7v1.5l2.5,2.2l4.7,9
	l3.3,4l-3.3,4.3l-16.7,0.4l-5.4-6.5l-1.4-10.9L242,44.9z"/>
<path class="st0" d="M184.8,37.6l-0.4,11.2l1.1,2.5l-23.9,4V55l-0.7-2.9l-1.8-2.9l-3.3-4.3c-1-1.4-2.2-2.6-3.6-3.6
	c-1.8-1.4-3.7-2.6-5.8-3.6H184.8"/>
<path class="st1" d="M101.8,44.9L92,50.3L89.1,43l12.7-4L101.8,44.9z"/>
<path class="st0" d="M129.3,51.8l19.6-12.7l3.6,2.2c1.2,1.1,2.3,2.3,3.3,3.6c1.8,2.5,3.6,4.7,4.7,7.3l1.1,2.9l-17,10.9l-8.7-1.1
	L129.3,51.8"/>
<path class="st1" d="M60.8,68.8l-9.4-19.2l14.5-8.7l8.3,16.3l2.9-1.8l3.6,7.3l-12,7.2L60.8,68.8z"/>
<path class="st0" d="M86.5,53.9l15.2-9.1l5.4,1.5l-0.4,3.3l-0.4,4.7l6.2,12L113,67l1.4,1.1l-12.7,7.6l-6.2-4.3L86.5,53.9z"/>
<path class="st0" d="M305.1,56.1l-1.5,6.5l-10.1,0.7v4l-13.4,0.7l2.2-8.3l1.1-3.3v-0.7l-0.7-3.6c-0.5-2.1-1.1-4.1-1.8-6.1l23.9-0.7
	L305.1,56.1"/>
<path class="st0" d="M271.4,46.3l9.4-0.4l1.1,2.9c0.4,2.5,0.7,4.7,1.1,6.9c0,1.4-0.3,2.7-0.7,4l-2.2,8.3l10.1,9.1l-9.8,9.1l-9.8-0.7
	l-0.4-8.3h-4l-0.4-8.7h-4v-6.5l3.3-4.3V59l1.5,0.4c0.9-0.3,1.7-0.7,2.5-1.1c1.6-1.2,3-2.7,4-4.3V51l-0.7-2.5L271.4,46.3"/>
<path class="st0" d="M1.3,47.4l19.9,1.1l-1.1,25L5,72.8L0.3,67L1.3,47.4z"/>
<path class="st1" d="M41.2,49.2L39.8,80L38,79.7l-7.3-0.7l-6.2-0.7l-4.4-4.7l1.1-25L41.2,49.2z"/>
<path class="st1" d="M184.4,48.8l18.1-0.4l1.8,14.5l-1.4,3.3l0.7,4.3l0.7,2.9l1.1,2.9l1.8,2.5l-5.1,5.1l-4-3.3l-4.4-3.6l-2.2-1.4
	L192,75v-0.4l-0.7-2.2l-0.4-1.1l-0.7-1.1l-0.7-0.4l-2.5-2.5l-1.4-5.8l-0.4-3.6l0.4-6.5L184.4,48.8z"/>
<path class="st0" d="M57.2,69.5l-0.7,3.6l-6.5,4.7c-0.6,0.4-1.2,0.8-1.8,1.1L39.8,80l1.5-30.8l10.2,0.4l9.4,19.2L57.2,69.5"/>
<path class="st1" d="M185.9,61.5l1.1,5.8l2.5,2.5l0.7,0.4l0.7,1.1l0.4,1.1l0.7,2.2V75l-0.4,0.7L177.1,79l-3.6,1.4l-1.4-5.8l-0.7-2.9
	l-4-4.7l-6.2-9.4l0.4-2.2l23.9-4L185.9,61.5z"/>
<path class="st0" d="M317.1,55.7l4.4-2.5l1.5,1.1l2.2,2.9l0.7,0.7l2.5-1.5l2.2-2.9l0.4-0.4l1.8,1.1l2.5,9.4l-5.4,0.4l-4,6.5
	c-1.1,1.8-1.5,4-1.8,6.5v8.7l1.1,2.5l-2.5-1.1h-1.1l-0.7,0.4v0.7l0.4,1.1l0.4,0.7l-0.7,0.7h-1.8v-0.4l-0.7-4.7L317.1,55.7"/>
<path class="st1" d="M75.7,83.7l-6.9-13.8l12-7.3l-1.8-4l7.6-4.7l9.1,17.4L75.7,83.7z"/>
<path class="st0" d="M161.6,55.4l-0.4,2.2l6.2,9.5l4,4.7l0.4,2.9l-17.4,10.5l-9.8-19.2l17-10.9L161.6,55.4z"/>
<path class="st1" d="M305.1,56.1l12-0.4l1.1,30.1l-3.3-0.4l-4.4-6.9l-1.8-0.7l-1.8-2.2l-1.1-2.9c-1-3.3-1.5-6.7-1.5-10.2L305.1,56.1
	"/>
<path class="st0" d="M237.3,73.9l-12-1.4l-2.1-9.4l-2.5-6.5l19.2-0.7l5.4,6.5l1.8,13.1l-5.8,0.7L237.3,73.9z"/>
<path class="st0" d="M262,68.4h4l0.4,8.7h4l0.4,8.3l-6.2,0.4l-5.4,4.7l-0.4,1.5l-0.4,2.9l-1.8,0.7l-0.4-2.9
	c-0.5-2.3-1.1-4.6-1.8-6.9l-3.3-5.4c-1.1-1.8-2.5-3.5-4-5.1l-1.8-13.1l16.7-0.4V68.4"/>
<path class="st0" d="M132.6,79.3l-18.5,12l-5.4-2.2l-6.9-13.4l22.1-13.4L132.6,79.3z"/>
<path class="st1" d="M304.4,68.8c0.7,2.4,1.7,4.7,2.9,6.9l1.5,2.2l1.8,0.7l-16.7,5.1h-1.1l-1.1-0.4l-0.4-0.4l-0.3-2.5l-0.7-3.3
	l-10.2-9.1l13.4-0.7v-4l10.1-0.7C303.7,64.7,304,66.7,304.4,68.8"/>
<path class="st1" d="M225.4,72.4l0.7,0.7l2.9,3.3l-0.7,17.4l-6.2-8.7l-0.7-0.4l-1.8-1.4l-1.8-0.7h-1.4l-7.3-1.4l-1.8-2.2l-1.8-2.9
	l-1.1-2.5l-0.7-2.9l-0.7-4.3l1.4-3.2h18.9L225.4,72.4z"/>
<path class="st0" d="M335.2,63.7l6.2,0.4l-0.7,1.1v0.4l-4,9.1l-0.4,0.4l-1.5,13c-0.3,4.5-1.1,9-2.2,13.4l-0.4,1.4v-1.1l-2.5-2.5
	v-0.7l1.5-6.5l-0.7-0.4l-0.4-0.7l-1.5-0.4l-2.5-1.1l-2.5-2.9v-9.4c0.3-2.3,1-4.5,2.2-6.5l4-6.5L335.2,63.7"/>
<path class="st1" d="M127.8,69.9l8-5.1l8.7,1.1l9.8,19.2l-2.9,2.5l-10.9,6.9L127.8,69.9z"/>
<path class="st0" d="M95.6,71.3l6.2,4.3l6.9,13.4l-19.2,12.3L79.3,81.5L95.6,71.3z"/>
<path class="st1" d="M241.3,76l0.4,5.4l-0.7,0.7l-1.8,2.2l0.4,12.3v1.4l-3.3,1.9l-8-6.2l0.8-17.4l-2.9-3.3l-0.7-0.7l12,1.4L241.3,76
	z"/>
<path class="st0" d="M5,72.8l15.2,0.7l4.4,4.7l-0.7,19.9l-20-0.7L5,72.8z"/>
<path class="st1" d="M154.3,85.1l17.4-10.5l1.8,5.8l1.1,2.5l1.8,5.4l-0.7,2.5l-0.4-0.4l-0.7,1.5l-1.8,7.6v1.1l-12.3,3.3l-6.2,2.9
	l-2.9-19.2L154.3,85.1z"/>
<path class="st1" d="M247.1,75.3c1.4,1.5,2.6,3.2,3.6,5.1c1.9,3.6,3.5,7.3,4.7,11.2l1.1,4l-12,1.1l-5.1,1.4v-1.5l-0.4-12.3l1.9-2.2
	l0.7-0.7l-0.4-5.5L247.1,75.3"/>
<path class="st0" d="M173.5,80.4l9.8-2.5c3.6-0.4,4.9-2.5,8.1-1.4s8.2,5,10.7,7.6l1.8,1.8L178.6,109l-5.8-8.3v-1.8l1.8-6.9l0.7-1.4
	l0.4,0.4l0.7-2.5l-1.8-5.4l-0.7-1.8L173.5,80.4"/>
<path class="st1" d="M293.9,83.7l16.7-5.1l4.4,6.9l-2.5,1.8l-2.2-1.4h-0.4l-0.4,0.4v9.4l1.1,7.3l-2.6,1.4l-3.6-1.8l-8.3,5.8
	l-8.7,0.4l-1.1-17.8l-2.9-3.3l-2.9-1.4l9.8-9.1l0.7,3.3l0.4,2.5l0.4,0.4l1.1,0.4L293.9,83.7z"/>
<path class="st1" d="M39.8,80l4.3,0.4l-0.7,26.1l-15.2-0.7l-4.4-7.6l0.7-19.9l2.5,0.4l3.6,0.4l7.3,0.7L39.8,80z"/>
<path class="st0" d="M132.6,79.3l8,15.2l-18.5,11.6l-8-14.9L132.6,79.3z"/>
<path class="st1" d="M68.8,102.9l-0.4,5.4l-20.3-0.7l-4.7-1.1l0.7-26.1l4-1.1l-0.4,1.1l1.1,1.4l7.6,2.9l1.1-1.1l6.5,8.3l0.4,0.7
	L68.8,102.9z"/>
<path class="st0" d="M75.7,83.7l3.6-2.2l10.2,19.9v1.4H68.8l-4.3-10.2L75.7,83.7z"/>
<path class="st1" d="M314.9,85.5l3.3,0.4l0.7,4.7v0.4h1.8l0.7-0.7l-0.4-0.7l-0.4-1.1v-0.7l0.7-0.4l1.1,0.4l3.3,1.8l2.9,1.1l1.5,0.4
	l0.4,0.7l0.7,0.4l-1.5,6.5l-0.7,2.2l-2.5,8.7l-15.6,0.4l-2.9-5.4l2.5-1.4l-1.1-7.3v-9.4l0.4-0.4h0.4l2.2,1.4L314.9,85.5z"/>
<path class="st1" d="M270.7,85.5l9.8,0.7l2.9,1.4l2.9,3.3l1.1,17.8l-6.2,0.7l-6.2,0.4h-11.2l-5.1,1.1l-0.4-16l0.4-2.9l0.4-1.4
	l5.4-4.7L270.7,85.5z"/>
<path class="st0" d="M208.3,97.8l-13.8,16.3l-4.7-1.4l-4.4-10.2L204,85.8L208.3,97.8z"/>
<path class="st1" d="M131.5,100l19.9-12.3l2.9,19.2l-0.7,0.4l-1.8,1.4l-1.4,1.4l-1.8,2.5l-1.8,3.6l-1.1,2.2l-4.4,2.2l-1.4-1.8
	l-2.5-5.1l-5.4-12L131.5,100z"/>
<path class="st0" d="M89.4,101.4l19.2-12.3l5.4,2.2l8,14.9l-7.6,4.7l-2.2,6.5l-12-5.8l-1.1-0.4l-6.9-1.8l-2.9-6.5V101.4z"/>
<path class="st0" d="M256.5,95.6l1.8-0.7l0.4,16l-0.7,3.2l-5.8,11.6l-0.4,1.8h0.4l0.7,1.8l0.7,2.9l-1.4,2.2h-0.4l1.4,7.6l-7.3,0.4
	l0.4-35.2l-1.8-10.5L256.5,95.6z"/>
<path class="st1" d="M239.5,98.2l5.1-1.4l1.8,10.5l-0.4,35.2l-8.7,0.4l0.4-0.7l0.7-4.7l-0.4-0.7l-0.7-1.8V134l0.4-1.8l0.4-1.1
	l1.1-2.9l-0.7-1.1L238,126l1.1-2.5l-0.7-1.8c-0.7-1.8-1.4-4-2.5-6.2l-0.4-0.4h-1.1v-0.4l-2.2-8.3l-0.4-1.4v-0.4l-2.2-1.1l-6.2-0.4
	l12.7-3.2L239.5,98.2"/>
<path class="st0" d="M23.8,98.2l4.4,7.6l-0.4,11.6l-24.6-1.1l0.7-18.8L23.8,98.2z"/>
<path class="st0" d="M219.6,102.1l-4,2.5l4.7,23.9l-7.3,1.8l-4.4,0.4l-1.4-2.9l-12.6-13.8l13.8-16.3l4.7,1.8l3.3,1.4L219.6,102.1z"
	/>
<path class="st0" d="M118.4,132.2l-6.2-14.9l2.2-6.5l17-10.9l3.3,8.7l4.7,10.2L118.4,132.2z"/>
<path class="st1" d="M172.8,100.7l5.8,8.3l-9.8,3.3l-12,2.2l-2.5-7.6l6.2-3.6c1.3-0.6,2.6-1.1,4-1.4L172.8,100.7"/>
<path class="st0" d="M223.6,103.2l6.2,0.4l1.8,1.1l0.7,1.8l2.2,8.7h1.1l2.9,6.5l0.7,1.8l-1.1,2.5l0.4,1.1l0.7,1.1l-18.9,0.4
	l-4.7-23.9l4-2.5L223.6,103.2z"/>
<path class="st1" d="M310.5,110.1c1,2,1.5,4.3,1.5,6.5c0,2.5-0.4,4.9-1.1,7.3l-1.5,1.4l-5.8,0.4l-1.5,0.4l-0.4,0.4l-1.1,2.2
	l-5.4,0.4v-0.4l0.4-0.4l0.4-0.7l1.1-2.9v-0.4l-0.7-0.4l-0.4-9.1v-6.5l8.3-5.8l3.6,1.8L310.5,110.1"/>
<path class="st1" d="M188.8,130.4l-2.5-0.4h-6.9l-9.1-6.2l-1.4-11.6l9.8-3.3l6.9-6.5l4.4,10.2L188.8,130.4z"/>
<path class="st0" d="M89.4,102.9l2.9,6.5l-8.7,14.1l-3.3,9.8l-8.7-3.3l-0.4-4.3l-0.4-13l-2.5-4.4l0.4-5.4H89.4z"/>
<path class="st1" d="M141.6,121.3l4-2.9l2.2-4.3l1.8-3.3l1.1-1.4l2.9-2.2l0.7-0.4l2.5,7.6l0.4,10.9l1.8,7.3l1.1,1.8l-2.5,4.7v-2.2
	l-1.1-1.1h-0.7l-0.7,0.7l-2.2,1.1l-0.4-0.7l-1.8-4l-3.6-6.9l-3.3-1.4l-3.6-1.1C140.4,122.6,140.9,121.8,141.6,121.3"/>
<path class="st1" d="M48.1,107.6l20.3,0.7l2.5,4.3l0.4,13l0.4,4.3l-9.4-1l-14.5-0.4L48.1,107.6z"/>
<path class="st0" d="M296,113l0.4,10.9l0.7,0.4v0.4l-1.1,2.9l-0.4,0.7l-0.4,0.4l-5.4,0.7l-9.4,2.2l-4.7,1.1v-8.7l3.3-0.4h2.5
	l-0.4-13.8l14.9-1.4V113z"/>
<path class="st1" d="M101.4,130.1l-6.5,2.2h-2.2l-1.4-1.1l-2.9-6.5l-1.1-1.4l-3.6,0.4l8.7-14.1l6.9,1.8l1.1,0.4l12,5.8l6.2,14.9
	l-7.3,2.9l-6.9-4.4l-2.2-0.7H101.4z"/>
<path class="st1" d="M281.5,123.5H279l-3.3,0.4v9.8L266,134v-4.4h-4v4.4l-10.1,0.4h0.4l1.1-1.8l0.4-0.4l-0.7-2.9l-0.7-1.8h-0.4
	l0.4-1.8l5.8-11.6l0.7-3.3l5.1-1.1h17.4L281.5,123.5z"/>
<path class="st0" d="M189.8,112.7c1.7,0.3,3.3,1.1,4.7,2.2l2.9,2.5l9.8,10.5l1.4,2.9l-12.3,7.2l-7.6-7.6L189.8,112.7"/>
<path class="st1" d="M34.3,138.8l-31.9-1.4l0.7-21l24.6,1.1l-0.4,10.5l6.9,0.4L34.3,138.8z"/>
<path class="st0" d="M139.4,118.8l1.8,1.8v0.4l-1.1,2.5l6.9,2.5l4.7,10.5v-0.4l-6.5,2.2l-6.9,2.2l-7.6-7.3l-4.7-5.8L139.4,118.8z"/>
<path class="st1" d="M105,144.6l-4.7,5.1l-4,4l-17.8-17l1.8-3.3l3.3-9.8l3.6-0.4l1.1,1.4l2.9,6.5l1.4,1.1h2.2l6.5-1.4l2.9,0.4
	l5.8,2.9L105,144.6z"/>
<path class="st1" d="M190.2,152.9l-4-2.9l-5.1-2.9l-1.8,1.4l-5.4,2.2h-0.7l-1.8,0.4v-8l-1.1-19.2l9.1,6.2h4l5.4,0.4l7.6,7.6l2.5,9.1
	l-3.6,4l-2.9,2.5l-1.1,0.4l-0.7-0.4L190.2,152.9z"/>
<path class="st0" d="M165.9,13.7l11.6,5.8l1.5,1.5v10.5l4.7,5.4l1.1,0.7h-24V13.7H165.9z"/>
<path class="st0" d="M202.1,27.4l0.9,0.2l5.7-1.9l2.2-3.7h0.4l1.8,0.4V34c0.9,0.3,1.7,0.7,2.5,1.1l1.4,0.4l0,0l-8,1.1l-6.9,0.4v-8.4
	"/>
<path class="st0" d="M286.6,30.4L285.5,46l-14.1,0.4l-9.4-4l1.8-8.7l5.4-0.4l3.3-2.2l-0.4-1.5l-1.1-5.1l11.2-0.4L286.6,30.4z"/>
<path class="st0" d="M315.3,38.3l5.4,6.2l1.1,1.5v1l-1.8,1.5l1.1,3.6l0.4,1.1l-4.4,2.5l-12,0.4l-0.4-17.4L315.3,38.3z"/>
<path class="st0" d="M135.8,64.8l-8,5.1l-4-7.6l-9.4,5.8L113,67l-0.4-0.7l-6.2-12v-4.7l0.7-3.3l14.9-4.3l7.3,9.8L135.8,64.8z"/>
<path class="st0" d="M262,42.3l9.4,4l0.4,0.7l0.7,1.5l0.7,2.5v2.9l-3.6,4.3l-1.5,0.7h-2.9v-1.5l-3.3-3.3c-1.2-1.4-2.2-3-2.9-4.7
	l-1.8-5.1l-2.5-2.2H262"/>
<path class="st0" d="M68.8,69.9l6.9,13.8l-11.2,9.1L64.1,92l-1.8-3.3c-1.4-1.9-3-3.6-4.7-5.1l-1.1,1.1l-7.6-2.9l-1.1-1.4l0.4-1.1
	l1.8-1.4l6.5-4.7l0.7-3.6l3.6-0.4L68.8,69.9"/>
<path class="st0" d="M207.2,78.9l1.8,2.2l7.3,1.4h1.4l1.8,0.7l1.8,1.4l0.7,0.4l6.2,8.7l8,6.2l-12.7,3.3l-7.3-2.5l-8-2.9l-4.4-12
	l-1.8-1.8L207.2,78.9z"/>
<path class="st0" d="M27.4,127.9l0.7-22.1l15.2,0.7l4.7,1.1l-0.4,21L27.4,127.9z"/>
<path class="st0" d="M309.5,125.3c1.2-2.2,2.1-4.5,2.9-6.9v-4.4l-1.5-4.3l15.6-0.4l1.8,3.3c0.7,1.7,1.1,3.6,1.1,5.4
	c0.4,2.8,0.4,5.6,0,8.3l3.3,5.1l-5.1,0.4l-0.4-0.4l-2.2-0.7l-4.4,2.9l-5.8,3.6l-1.8-6.9l-2.5-2.2l-9.8,0.4l1.1-2.2l0.4-0.4
	L309.5,125.3"/>
<path class="st0" d="M170.3,123.9l1.1,19.2l-11.2,1.1l-2.5-5.1l2.5-4.7l-1.1-1.1l-0.4-0.4l-0.4-1.1l-1.4-6.5v-10.9l12-2.2
	L170.3,123.9z"/>
<path class="st0" d="M165.9,13.7l11.6,5.8l1.5,1.5v10.5l4.7,5.4l1.1,0.7h-24V13.7H165.9z"/>
<path class="st0" d="M202.1,27.4l0.9,0.2l5.7-1.9l2.2-3.7h0.4l1.8,0.4V34c0.9,0.3,1.7,0.7,2.5,1.1l1.4,0.4l0,0l-8,1.1l-6.9,0.4v-8.4
	"/>
<path class="st0" d="M286.6,30.4L285.5,46l-14.1,0.4l-9.4-4l1.8-8.7l5.4-0.4l3.3-2.2l-0.4-1.5l-1.1-5.1l11.2-0.4L286.6,30.4z"/>
<path class="st0" d="M315.3,38.3l5.4,6.2l1.1,1.5v1l-1.8,1.5l1.1,3.6l0.4,1.1l-4.4,2.5l-12,0.4l-0.4-17.4L315.3,38.3z"/>
<path class="st0" d="M135.8,64.8l-8,5.1l-4-7.6l-9.4,5.8L113,67l-0.4-0.7l-6.2-12v-4.7l0.7-3.3l14.9-4.3l7.3,9.8L135.8,64.8z"/>
<path class="st0" d="M262,42.3l9.4,4l0.4,0.7l0.7,1.5l0.7,2.5v2.9l-3.6,4.3l-1.5,0.7h-2.9v-1.5l-3.3-3.3c-1.2-1.4-2.2-3-2.9-4.7
	l-1.8-5.1l-2.5-2.2H262"/>
<path class="st0" d="M68.8,69.9l6.9,13.8l-11.2,9.1L64.1,92l-1.8-3.3c-1.4-1.9-3-3.6-4.7-5.1l-1.1,1.1l-7.6-2.9l-1.1-1.4l0.4-1.1
	l1.8-1.4l6.5-4.7l0.7-3.6l3.6-0.4L68.8,69.9"/>
<path class="st0" d="M207.2,78.9l1.8,2.2l7.3,1.4h1.4l1.8,0.7l1.8,1.4l0.7,0.4l6.2,8.7l8,6.2l-12.7,3.3l-7.3-2.5l-8-2.9l-4.4-12
	l-1.8-1.8L207.2,78.9z"/>
<path class="st0" d="M27.4,127.9l0.7-22.1l15.2,0.7l4.7,1.1l-0.4,21L27.4,127.9z"/>
<path class="st0" d="M309.5,125.3c1.2-2.2,2.1-4.5,2.9-6.9v-4.4l-1.5-4.3l15.6-0.4l1.8,3.3c0.7,1.7,1.1,3.6,1.1,5.4
	c0.4,2.8,0.4,5.6,0,8.3l3.3,5.1l-5.1,0.4l-0.4-0.4l-2.2-0.7l-4.4,2.9l-5.8,3.6l-1.8-6.9l-2.5-2.2l-9.8,0.4l1.1-2.2l0.4-0.4
	L309.5,125.3"/>
<path class="st0" d="M170.3,123.9l1.1,19.2l-11.2,1.1l-2.5-5.1l2.5-4.7l-1.1-1.1l-0.4-0.4l-0.4-1.1l-1.4-6.5v-10.9l12-2.2
	L170.3,123.9z"/>
<path class="st0" d="M165.9,13.7l11.6,5.8l1.5,1.5v10.5l4.7,5.4l1.1,0.7h-24V13.7H165.9z"/>
<path class="st0" d="M202.1,27.4l0.9,0.2l5.7-1.9l2.2-3.7h0.4l1.8,0.4V34c0.9,0.3,1.7,0.7,2.5,1.1l1.4,0.4l0,0l-8,1.1l-6.9,0.4v-8.4
	"/>
<path class="st0" d="M286.6,30.4L285.5,46l-14.1,0.4l-9.4-4l1.8-8.7l5.4-0.4l3.3-2.2l-0.4-1.5l-1.1-5.1l11.2-0.4L286.6,30.4z"/>
<path class="st0" d="M315.3,38.3l5.4,6.2l1.1,1.5v1l-1.8,1.5l1.1,3.6l0.4,1.1l-4.4,2.5l-12,0.4l-0.4-17.4L315.3,38.3z"/>
<path class="st0" d="M135.8,64.8l-8,5.1l-4-7.6l-9.4,5.8L113,67l-0.4-0.7l-6.2-12v-4.7l0.7-3.3l14.9-4.3l7.3,9.8L135.8,64.8z"/>
<path class="st0" d="M262,42.3l9.4,4l0.4,0.7l0.7,1.5l0.7,2.5v2.9l-3.6,4.3l-1.5,0.7h-2.9v-1.5l-3.3-3.3c-1.2-1.4-2.2-3-2.9-4.7
	l-1.8-5.1l-2.5-2.2H262"/>
<path class="st0" d="M68.8,69.9l6.9,13.8l-11.2,9.1L64.1,92l-1.8-3.3c-1.4-1.9-3-3.6-4.7-5.1l-1.1,1.1l-7.6-2.9l-1.1-1.4l0.4-1.1
	l1.8-1.4l6.5-4.7l0.7-3.6l3.6-0.4L68.8,69.9"/>
<path class="st0" d="M207.2,78.9l1.8,2.2l7.3,1.4h1.4l1.8,0.7l1.8,1.4l0.7,0.4l6.2,8.7l8,6.2l-12.7,3.3l-7.3-2.5l-8-2.9l-4.4-12
	l-1.8-1.8L207.2,78.9z"/>
<path class="st0" d="M27.4,127.9l0.7-22.1l15.2,0.7l4.7,1.1l-0.4,21L27.4,127.9z"/>
<path class="st0" d="M309.5,125.3c1.2-2.2,2.1-4.5,2.9-6.9v-4.4l-1.5-4.3l15.6-0.4l1.8,3.3c0.7,1.7,1.1,3.6,1.1,5.4
	c0.4,2.8,0.4,5.6,0,8.3l3.3,5.1l-5.1,0.4l-0.4-0.4l-2.2-0.7l-4.4,2.9l-5.8,3.6l-1.8-6.9l-2.5-2.2l-9.8,0.4l1.1-2.2l0.4-0.4
	L309.5,125.3"/>
<path class="st0" d="M170.3,123.9l1.1,19.2l-11.2,1.1l-2.5-5.1l2.5-4.7l-1.1-1.1l-0.4-0.4l-0.4-1.1l-1.4-6.5v-10.9l12-2.2
	L170.3,123.9z"/>
</svg>
