<svg xmlns="http://www.w3.org/2000/svg" xmlns:xlink="http://www.w3.org/1999/xlink" viewBox="0 0 148.32 131.04"><defs><style>.cls-1,.cls-2,.cls-7,.cls-8,.cls-9{fill:none;}.cls-1{clip-rule:evenodd;}.cls-3{clip-path:url(#clip-path);}.cls-4{clip-path:url(#clip-path-2);}.cls-5{fill:#fff;}.cls-6{clip-path:url(#clip-path-3);}.cls-7,.cls-8,.cls-9{stroke:#000;stroke-linecap:round;stroke-linejoin:round;}.cls-7{stroke-width:0.24px;}.cls-8{stroke-width:0.96px;}.cls-9{stroke-width:0.48px;}</style><clipPath id="clip-path" transform="translate(-422.13 -218.4)"><path class="cls-1" d="M517.65,277v.72H570V277Zm-95,0v.72h36.48V277Z"/></clipPath><clipPath id="clip-path-2" transform="translate(-422.13 -218.4)"><rect class="cls-2" width="1191.12" height="841.92"/></clipPath><clipPath id="clip-path-3" transform="translate(-422.13 -218.4)"><path class="cls-1" d="M517.65,271v.72H570V271Zm-95,0v.72h36.48V271Z"/></clipPath></defs><title>Doors_AS1428_2</title><g id="Layer_2" data-name="Layer 2"><g id="Layer_1-2" data-name="Layer 1"><g class="cls-3"><g class="cls-4"><rect class="cls-5" x="0.48" y="58.56" width="147.36" height="0.72"/></g></g><g class="cls-6"><g class="cls-4"><rect class="cls-5" x="0.48" y="52.56" width="147.36" height="0.72"/></g></g><line class="cls-7" x1="24.72" y1="59.04" x2="24.48" y2="58.56"/><line class="cls-7" x1="104.64" y1="59.28" x2="104.4" y2="58.56"/><line class="cls-7" x1="138" y1="59.28" x2="138" y2="59.04"/><line class="cls-7" x1="143.28" y1="58.56" x2="143.28" y2="58.56"/><line class="cls-7" x1="122.88" y1="59.04" x2="122.88" y2="59.28"/><line class="cls-7" x1="30" y1="58.56" x2="29.76" y2="59.28"/><line class="cls-7" x1="127.68" y1="52.8" x2="127.44" y2="52.56"/><line class="cls-7" x1="100.08" y1="52.56" x2="99.6" y2="53.28"/><polyline class="cls-8" points="0.48 59.28 36.96 59.28 36.96 52.56 0.48 52.56 0.48 59.28"/><polyline class="cls-8" points="95.52 59.28 147.84 59.28 147.84 52.56 95.52 52.56 95.52 59.28"/><line class="cls-9" x1="36.96" y1="58.56" x2="0.48" y2="58.56"/><line class="cls-9" x1="147.84" y1="58.56" x2="95.52" y2="58.56"/><line class="cls-9" x1="36.96" y1="53.28" x2="0.48" y2="53.28"/><line class="cls-9" x1="147.84" y1="53.28" x2="95.52" y2="53.28"/><line class="cls-9" x1="27.84" y1="130.8" x2="34.08" y2="130.8"/><line class="cls-9" x1="39.84" y1="130.8" x2="51.12" y2="130.8"/><line class="cls-9" x1="56.88" y1="130.8" x2="68.16" y2="130.8"/><line class="cls-9" x1="73.92" y1="130.8" x2="85.2" y2="130.8"/><line class="cls-9" x1="90.96" y1="130.8" x2="102.24" y2="130.8"/><line class="cls-9" x1="108" y1="130.8" x2="119.28" y2="130.8"/><polyline class="cls-9" points="124.8 130.8 131.04 130.8 131.04 123.36"/><line class="cls-9" x1="131.04" y1="117.84" x2="131.04" y2="106.32"/><line class="cls-9" x1="131.04" y1="100.8" x2="131.04" y2="89.28"/><line class="cls-9" x1="131.04" y1="83.76" x2="131.04" y2="72.48"/><line class="cls-9" x1="131.04" y1="66.72" x2="131.04" y2="59.28"/><line class="cls-9" x1="27.84" y1="130.8" x2="27.84" y2="123.36"/><line class="cls-9" x1="27.84" y1="117.84" x2="27.84" y2="106.32"/><line class="cls-9" x1="27.84" y1="100.8" x2="27.84" y2="89.28"/><line class="cls-9" x1="27.84" y1="83.76" x2="27.84" y2="72.48"/><line class="cls-9" x1="27.84" y1="66.72" x2="27.84" y2="59.28"/><line class="cls-9" x1="94.8" y1="59.28" x2="94.8" y2="66.72"/><line class="cls-9" x1="94.8" y1="72.48" x2="94.8" y2="83.76"/><line class="cls-9" x1="94.8" y1="89.28" x2="94.8" y2="100.8"/><line class="cls-9" x1="94.8" y1="106.32" x2="94.8" y2="117.84"/><line class="cls-9" x1="94.8" y1="123.36" x2="94.8" y2="130.8"/><line class="cls-9" x1="37.68" y1="59.28" x2="37.68" y2="66.72"/><line class="cls-9" x1="37.68" y1="72.48" x2="37.68" y2="83.76"/><line class="cls-9" x1="37.68" y1="89.28" x2="37.68" y2="100.8"/><line class="cls-9" x1="37.68" y1="106.32" x2="37.68" y2="117.84"/><line class="cls-9" x1="37.68" y1="123.36" x2="37.68" y2="130.8"/><line class="cls-9" x1="99.12" y1="92.64" x2="97.68" y2="95.04"/><line class="cls-9" x1="101.28" y1="89.04" x2="99.12" y2="92.64"/><line class="cls-9" x1="103.44" y1="85.2" x2="101.28" y2="89.04"/><line class="cls-9" x1="106.8" y1="89.28" x2="103.44" y2="89.28"/><line class="cls-9" x1="110.16" y1="92.88" x2="110.16" y2="89.28"/><line class="cls-9" x1="110.16" y1="96.72" x2="110.16" y2="92.88"/><line class="cls-9" x1="106.8" y1="100.8" x2="110.16" y2="100.8"/><line class="cls-9" x1="99.12" y1="97.44" x2="97.68" y2="95.04"/><line class="cls-9" x1="101.28" y1="101.28" x2="99.12" y2="97.44"/><line class="cls-9" x1="110.16" y1="89.28" x2="106.8" y2="89.28"/><line class="cls-9" x1="110.16" y1="100.8" x2="110.16" y2="96.72"/><line class="cls-9" x1="103.44" y1="100.8" x2="106.8" y2="100.8"/><line class="cls-9" x1="103.44" y1="104.88" x2="103.44" y2="100.8"/><line class="cls-9" x1="103.44" y1="104.88" x2="101.28" y2="101.28"/><line class="cls-9" x1="103.44" y1="85.2" x2="103.44" y2="89.28"/><line class="cls-9" x1="42.48" y1="0.24" x2="40.08" y2="0.24"/><line class="cls-9" x1="42.48" y1="52.56" x2="40.08" y2="52.56"/><line class="cls-9" x1="42.48" y1="52.56" x2="42.48" y2="0.24"/><line class="cls-9" x1="40.08" y1="52.56" x2="40.08" y2="0.24"/><polyline class="cls-9" points="92.4 52.56 91.44 43.44 89.04 34.56 85.2 26.4 80.16 18.96 73.68 12.48 66.24 7.2 58.08 3.36 49.2 0.96 40.08 0.24"/><polyline class="cls-9" points="92.64 54.96 91.68 54.96 91.68 57.84 92.64 57.84 92.64 59.28 94.8 59.28 94.8 52.56 92.64 52.56 92.64 54.96"/><polyline class="cls-9" points="39.84 54.96 39.84 52.56 37.68 52.56 37.68 59.28 39.84 59.28 39.84 57.84 40.8 57.84 40.8 54.96 39.84 54.96"/></g></g></svg>