<svg xmlns="http://www.w3.org/2000/svg" xmlns:xlink="http://www.w3.org/1999/xlink" viewBox="0 0 60.48 67.92"><defs><style>.cls-1,.cls-2,.cls-6,.cls-7,.cls-8{fill:none;}.cls-1{clip-rule:evenodd;}.cls-3{clip-path:url(#clip-path);}.cls-4{clip-path:url(#clip-path-2);}.cls-5{fill:silver;}.cls-6,.cls-7,.cls-8{stroke:#000;stroke-linecap:round;stroke-linejoin:round;}.cls-6{stroke-width:0.96px;}.cls-7{stroke-width:0.24px;}.cls-8{stroke-width:0.48px;}</style><clipPath id="clip-path" transform="translate(-672.21 -466.08)"><path class="cls-1" d="M721.89,499.92v5.76h10.32v-5.76Zm-49.2,0v5.76h12.24v-5.76Z"/></clipPath><clipPath id="clip-path-2" transform="translate(-672.21 -466.08)"><rect class="cls-2" width="1191.12" height="841.92"/></clipPath></defs><title>Door_Swing_Opposing</title><g id="Layer_2" data-name="Layer 2"><g id="Layer_1-2" data-name="Layer 1"><g class="cls-3"><g class="cls-4"><rect class="cls-5" x="0.48" y="33.84" width="59.52" height="5.76"/></g></g><polyline class="cls-6" points="0.48 39.6 12.72 39.6 12.72 33.84 0.48 33.84 0.48 39.6"/><polyline class="cls-6" points="49.68 39.6 60 39.6 60 33.84 49.68 33.84 49.68 39.6"/><line class="cls-7" x1="31.2" y1="26.64" x2="34.8" y2="28.8"/><line class="cls-7" x1="31.2" y1="26.64" x2="27.6" y2="28.8"/><line class="cls-7" x1="31.2" y1="32.16" x2="31.2" y2="26.64"/><line class="cls-8" x1="48" y1="33.84" x2="47.28" y2="40.56"/><polyline class="cls-8" points="45.6 45.84 44.64 48.48 43.2 50.88"/><line class="cls-8" x1="40.08" y1="55.68" x2="36" y2="59.76"/><polyline class="cls-8" points="31.44 62.88 29.04 64.32 26.16 65.28"/><line class="cls-8" x1="20.88" y1="66.96" x2="14.4" y2="67.68"/><line class="cls-8" x1="14.4" y1="33.84" x2="14.4" y2="42.24"/><line class="cls-8" x1="14.4" y1="48" x2="14.4" y2="53.76"/><line class="cls-8" x1="14.4" y1="59.28" x2="14.4" y2="67.68"/><line class="cls-8" x1="15.36" y1="67.68" x2="15.36" y2="59.28"/><line class="cls-8" x1="15.36" y1="53.76" x2="15.36" y2="48"/><line class="cls-8" x1="15.36" y1="42.24" x2="15.36" y2="33.84"/><line class="cls-8" x1="14.4" y1="67.68" x2="15.36" y2="67.68"/><line class="cls-8" x1="14.4" y1="33.84" x2="15.36" y2="33.84"/><line class="cls-8" x1="14.4" y1="67.68" x2="14.4" y2="59.28"/><line class="cls-8" x1="14.4" y1="53.76" x2="14.4" y2="48"/><line class="cls-8" x1="14.4" y1="42.24" x2="14.4" y2="33.84"/><polyline class="cls-7" points="48 33.84 47.28 26.4 44.64 19.2 40.8 12.96 35.28 7.68 29.04 3.6 21.84 0.96 14.4 0.24"/><line class="cls-7" x1="14.4" y1="33.84" x2="14.4" y2="0.24"/><line class="cls-8" x1="15.36" y1="0.24" x2="15.36" y2="33.84"/><line class="cls-8" x1="14.4" y1="0.24" x2="15.36" y2="0.24"/><line class="cls-8" x1="14.4" y1="33.84" x2="15.36" y2="33.84"/><line class="cls-8" x1="14.4" y1="0.24" x2="14.4" y2="33.84"/><line class="cls-8" x1="49.2" y1="39.6" x2="49.2" y2="33.84"/><line class="cls-8" x1="48.24" y1="39.6" x2="49.2" y2="39.6"/><line class="cls-8" x1="48.24" y1="36.72" x2="48.24" y2="39.6"/><line class="cls-8" x1="47.76" y1="36.72" x2="48.24" y2="36.72"/><line class="cls-8" x1="47.76" y1="35.28" x2="47.76" y2="36.72"/><line class="cls-8" x1="48.24" y1="35.28" x2="47.76" y2="35.28"/><line class="cls-8" x1="48.24" y1="33.84" x2="48.24" y2="35.28"/><line class="cls-8" x1="49.2" y1="33.84" x2="48.24" y2="33.84"/><line class="cls-8" x1="12.96" y1="39.6" x2="12.96" y2="33.84"/><line class="cls-8" x1="14.16" y1="39.6" x2="12.96" y2="39.6"/><line class="cls-8" x1="14.16" y1="36.72" x2="14.16" y2="39.6"/><line class="cls-8" x1="14.64" y1="36.72" x2="14.16" y2="36.72"/><line class="cls-8" x1="14.64" y1="35.28" x2="14.64" y2="36.72"/><line class="cls-8" x1="14.16" y1="35.28" x2="14.64" y2="35.28"/><line class="cls-8" x1="14.16" y1="33.84" x2="14.16" y2="35.28"/><line class="cls-8" x1="12.96" y1="33.84" x2="14.16" y2="33.84"/><line class="cls-7" x1="31.2" y1="20.4" x2="31.2" y2="18.96"/><polyline class="cls-7" points="31.92 19.68 30.48 19.68 31.2 20.4 31.92 19.68 31.2 18.96 30.48 19.68"/><line class="cls-7" x1="31.2" y1="21.6" x2="31.2" y2="20.16"/><polyline class="cls-7" points="30.48 20.88 31.92 20.88 31.2 21.6 30.48 20.88 31.2 20.16 31.92 20.88"/></g></g></svg>