<svg xmlns="http://www.w3.org/2000/svg" xmlns:xlink="http://www.w3.org/1999/xlink" viewBox="0 0 107.28 49.32"><defs><style>.cls-1,.cls-2,.cls-6,.cls-7,.cls-8{fill:none;}.cls-1{clip-rule:evenodd;}.cls-3{clip-path:url(#clip-path);}.cls-4{clip-path:url(#clip-path-2);}.cls-5{fill:silver;}.cls-6,.cls-7,.cls-8{stroke:#000;stroke-linecap:round;stroke-linejoin:round;}.cls-6{stroke-width:0.96px;}.cls-7{stroke-width:0.24px;}.cls-8{stroke-width:0.48px;}</style><clipPath id="clip-path" transform="translate(-596.61 -394.08)"><path class="cls-1" d="M680.85,427.2v5.52h22.56V427.2Zm-65.28,0v5.52h13.2V427.2Z"/></clipPath><clipPath id="clip-path-2" transform="translate(-596.61 -394.08)"><rect class="cls-2" width="1191.12" height="841.92"/></clipPath></defs><title>Door_RoomOpposite_Sample</title><g id="Layer_2" data-name="Layer 2"><g id="Layer_1-2" data-name="Layer 1"><g class="cls-3"><g class="cls-4"><rect class="cls-5" x="18.96" y="33.12" width="87.84" height="5.52"/></g></g><polyline class="cls-6" points="18.96 38.64 32.16 38.64 32.16 33.12 18.96 33.12 18.96 38.64"/><polyline class="cls-6" points="84.24 38.64 106.8 38.64 106.8 33.12 84.24 33.12 84.24 38.64"/><line class="cls-7" x1="58.08" y1="46.08" x2="61.92" y2="43.92"/><line class="cls-7" x1="58.08" y1="46.08" x2="54.48" y2="43.92"/><line class="cls-7" x1="58.08" y1="40.32" x2="58.08" y2="46.08"/><polyline class="cls-8" points="82.56 19.44 87.6 20.4 89.76 21.36"/><polyline class="cls-8" points="93.84 24.96 95.52 26.88 97.2 31.68"/><line class="cls-8" x1="82.56" y1="34.08" x2="84.24" y2="33.84"/><line class="cls-8" x1="89.04" y1="33.12" x2="97.2" y2="31.68"/><polyline class="cls-7" points="67.92 34.08 68.64 29.52 70.8 25.44 73.92 22.32 78 20.16 82.56 19.44"/><line class="cls-7" x1="82.56" y1="34.08" x2="82.56" y2="19.44"/><line class="cls-8" x1="81.6" y1="19.44" x2="81.6" y2="34.08"/><line class="cls-8" x1="82.56" y1="19.44" x2="81.6" y2="19.44"/><line class="cls-8" x1="82.56" y1="34.08" x2="81.6" y2="34.08"/><line class="cls-8" x1="82.56" y1="19.44" x2="82.56" y2="34.08"/><line class="cls-8" x1="33.84" y1="0.24" x2="30" y2="0.72"/><line class="cls-8" x1="24.48" y1="1.68" x2="18.96" y2="3.6"/><polyline class="cls-8" points="14.16 6.48 11.76 8.16 9.84 10.08"/><line class="cls-8" x1="6.24" y1="14.4" x2="3.36" y2="19.2"/><line class="cls-8" x1="1.44" y1="24.48" x2="0.24" y2="28.32"/><line class="cls-8" x1="33.84" y1="34.08" x2="32.16" y2="33.84"/><line class="cls-8" x1="27.36" y1="33.12" x2="22.08" y2="32.16"/><line class="cls-8" x1="16.56" y1="31.2" x2="11.04" y2="30.24"/><line class="cls-8" x1="5.52" y1="29.28" x2="0.24" y2="28.32"/><polyline class="cls-7" points="67.68 34.08 66.96 26.64 64.32 19.44 60.24 12.96 54.96 7.68 48.48 3.6 41.28 0.96 33.84 0.24"/><line class="cls-7" x1="33.84" y1="34.08" x2="33.84" y2="0.24"/><line class="cls-8" x1="33.84" y1="28.56" x2="34.8" y2="28.56"/><line class="cls-8" x1="33.84" y1="22.8" x2="34.8" y2="22.8"/><line class="cls-8" x1="34.8" y1="0.24" x2="34.8" y2="34.08"/><line class="cls-8" x1="33.84" y1="0.24" x2="34.8" y2="0.24"/><line class="cls-8" x1="33.84" y1="34.08" x2="34.8" y2="34.08"/><line class="cls-8" x1="33.84" y1="0.24" x2="33.84" y2="34.08"/><line class="cls-8" x1="84" y1="38.64" x2="84" y2="33.12"/><line class="cls-8" x1="82.8" y1="38.64" x2="84" y2="38.64"/><line class="cls-8" x1="82.8" y1="35.76" x2="82.8" y2="38.64"/><line class="cls-8" x1="82.32" y1="35.76" x2="82.8" y2="35.76"/><line class="cls-8" x1="82.32" y1="34.32" x2="82.32" y2="35.76"/><line class="cls-8" x1="82.8" y1="34.32" x2="82.32" y2="34.32"/><line class="cls-8" x1="82.8" y1="33.12" x2="82.8" y2="34.32"/><line class="cls-8" x1="84" y1="33.12" x2="82.8" y2="33.12"/><line class="cls-8" x1="32.4" y1="38.64" x2="32.4" y2="33.12"/><line class="cls-8" x1="33.6" y1="38.64" x2="32.4" y2="38.64"/><line class="cls-8" x1="33.6" y1="35.76" x2="33.6" y2="38.64"/><line class="cls-8" x1="34.08" y1="35.76" x2="33.6" y2="35.76"/><line class="cls-8" x1="34.08" y1="34.32" x2="34.08" y2="35.76"/><line class="cls-8" x1="33.6" y1="34.32" x2="34.08" y2="34.32"/><line class="cls-8" x1="33.6" y1="33.12" x2="33.6" y2="34.32"/><line class="cls-8" x1="32.4" y1="33.12" x2="33.6" y2="33.12"/><line class="cls-7" x1="67.92" y1="49.2" x2="67.92" y2="47.76"/><polyline class="cls-7" points="67.2 48.48 68.64 48.48 67.92 49.2 67.2 48.48 67.92 47.76 68.64 48.48"/><line class="cls-7" x1="67.92" y1="48" x2="67.92" y2="46.56"/><polyline class="cls-7" points="67.2 47.28 68.64 47.28 67.92 48 67.2 47.28 67.92 46.56 68.64 47.28"/></g></g></svg>