<svg xmlns="http://www.w3.org/2000/svg" xmlns:xlink="http://www.w3.org/1999/xlink" viewBox="0 0 85.92 32.16"><defs><style>.cls-1,.cls-2,.cls-6,.cls-7,.cls-8{fill:none;}.cls-1{clip-rule:evenodd;}.cls-3{clip-path:url(#clip-path);}.cls-4{clip-path:url(#clip-path-2);}.cls-5{fill:silver;}.cls-6,.cls-7,.cls-8{stroke:#000;stroke-linecap:round;stroke-linejoin:round;}.cls-6{stroke-width:0.96px;}.cls-7{stroke-width:0.24px;}.cls-8{stroke-width:0.48px;}</style><clipPath id="clip-path" transform="translate(-487.65 -401.04)"><path class="cls-1" d="M552.93,427.2v5.52h20.16V427.2Zm-59.28,0v5.52h19.2V427.2Z"/></clipPath><clipPath id="clip-path-2" transform="translate(-487.65 -401.04)"><rect class="cls-2" width="1191.12" height="841.92"/></clipPath></defs><title>Door_RoomInto_Sample</title><g id="Layer_2" data-name="Layer 2"><g id="Layer_1-2" data-name="Layer 1"><g class="cls-3"><g class="cls-4"><rect class="cls-5" x="6" y="26.16" width="79.44" height="5.52"/></g></g><polyline class="cls-6" points="6 31.68 25.2 31.68 25.2 26.16 6 26.16 6 31.68"/><polyline class="cls-6" points="65.28 31.68 85.44 31.68 85.44 26.16 65.28 26.16 65.28 31.68"/><line class="cls-7" x1="45.36" y1="17.28" x2="48.96" y2="19.44"/><line class="cls-7" x1="45.36" y1="17.28" x2="41.52" y2="19.44"/><line class="cls-7" x1="45.36" y1="23.04" x2="45.36" y2="17.28"/><polyline class="cls-8" points="63.6 17.52 66.96 18.24 67.44 18.48"/><polyline class="cls-8" points="71.76 22.08 72 22.32 73.2 25.44"/><line class="cls-8" x1="63.6" y1="27.12" x2="65.28" y2="26.88"/><line class="cls-8" x1="70.08" y1="26.16" x2="73.2" y2="25.44"/><polyline class="cls-7" points="54 27.12 54.72 23.52 56.88 20.4 60 18.24 63.6 17.52"/><line class="cls-7" x1="63.6" y1="27.12" x2="63.6" y2="17.52"/><line class="cls-8" x1="62.64" y1="17.52" x2="62.64" y2="27.12"/><line class="cls-8" x1="63.6" y1="17.52" x2="62.64" y2="17.52"/><line class="cls-8" x1="63.6" y1="27.12" x2="62.64" y2="27.12"/><line class="cls-8" x1="63.6" y1="17.52" x2="63.6" y2="27.12"/><line class="cls-8" x1="26.88" y1="0.24" x2="22.08" y2="0.72"/><polyline class="cls-8" points="16.8 2.16 14.64 3.12 11.76 5.04"/><polyline class="cls-8" points="7.44 8.64 5.04 11.04 4.08 12.96"/><line class="cls-8" x1="1.44" y1="18" x2="0.24" y2="22.56"/><line class="cls-8" x1="26.88" y1="27.12" x2="25.2" y2="26.88"/><line class="cls-8" x1="20.4" y1="26.16" x2="12.96" y2="24.72"/><line class="cls-8" x1="7.44" y1="23.76" x2="0.24" y2="22.56"/><polyline class="cls-7" points="54 27.12 53.04 20.16 50.16 13.68 46.08 8.16 40.32 3.84 33.84 0.96 26.88 0.24"/><line class="cls-7" x1="26.88" y1="27.12" x2="26.88" y2="0.24"/><line class="cls-8" x1="26.88" y1="21.6" x2="28.08" y2="21.6"/><line class="cls-8" x1="26.88" y1="15.84" x2="28.08" y2="15.84"/><line class="cls-8" x1="28.08" y1="0.24" x2="28.08" y2="27.12"/><line class="cls-8" x1="26.88" y1="0.24" x2="28.08" y2="0.24"/><line class="cls-8" x1="26.88" y1="27.12" x2="28.08" y2="27.12"/><line class="cls-8" x1="26.88" y1="0.24" x2="26.88" y2="27.12"/><line class="cls-8" x1="65.04" y1="31.68" x2="65.04" y2="26.16"/><line class="cls-8" x1="63.84" y1="31.68" x2="65.04" y2="31.68"/><line class="cls-8" x1="63.84" y1="28.8" x2="63.84" y2="31.68"/><line class="cls-8" x1="63.36" y1="28.8" x2="63.84" y2="28.8"/><line class="cls-8" x1="63.36" y1="27.36" x2="63.36" y2="28.8"/><line class="cls-8" x1="63.84" y1="27.36" x2="63.36" y2="27.36"/><line class="cls-8" x1="63.84" y1="26.16" x2="63.84" y2="27.36"/><line class="cls-8" x1="65.04" y1="26.16" x2="63.84" y2="26.16"/><line class="cls-8" x1="25.44" y1="31.68" x2="25.44" y2="26.16"/><line class="cls-8" x1="26.64" y1="31.68" x2="25.44" y2="31.68"/><line class="cls-8" x1="26.64" y1="28.8" x2="26.64" y2="31.68"/><line class="cls-8" x1="27.12" y1="28.8" x2="26.64" y2="28.8"/><line class="cls-8" x1="27.12" y1="27.36" x2="27.12" y2="28.8"/><line class="cls-8" x1="26.64" y1="27.36" x2="27.12" y2="27.36"/><line class="cls-8" x1="26.64" y1="26.16" x2="26.64" y2="27.36"/><line class="cls-8" x1="25.44" y1="26.16" x2="26.64" y2="26.16"/><line class="cls-7" x1="54" y1="12.24" x2="54" y2="13.68"/><polyline class="cls-7" points="53.28 12.96 54.72 12.96 54 12.24 53.28 12.96 54 13.68 54.72 12.96"/><line class="cls-7" x1="54" y1="11.04" x2="54" y2="12.48"/><polyline class="cls-7" points="53.28 11.76 54.72 11.76 54 11.04 53.28 11.76 54 12.48 54.72 11.76"/></g></g></svg>