<svg xmlns="http://www.w3.org/2000/svg" xmlns:xlink="http://www.w3.org/1999/xlink" viewBox="0 0 216.48 43.32"><defs><style>.cls-1,.cls-2,.cls-6,.cls-7,.cls-8{fill:none;}.cls-1{clip-rule:evenodd;}.cls-3{clip-path:url(#clip-path);}.cls-4{clip-path:url(#clip-path-2);}.cls-5{fill:silver;}.cls-6,.cls-7,.cls-8{stroke:#000;stroke-linecap:round;stroke-linejoin:round;}.cls-6{stroke-width:0.96px;}.cls-7{stroke-width:0.24px;}.cls-8{stroke-width:0.48px;}</style><clipPath id="clip-path" transform="translate(-340.53 -300)"><path class="cls-1" d="M543.33,327.12v5.76h13.2v-5.76Zm-77.76,0v5.76h31.68v-5.76Zm-58.56,0v5.76h12.48v-5.76Zm-66,0v5.76h6.72v-5.76Z"/></clipPath><clipPath id="clip-path-2" transform="translate(-340.53 -300)"><rect class="cls-2" width="1191.12" height="841.92"/></clipPath></defs><title>Door_Double_Generic_Opposite</title><g id="Layer_2" data-name="Layer 2"><g id="Layer_1-2" data-name="Layer 1"><g class="cls-3"><g class="cls-4"><rect class="cls-5" x="0.48" y="27.12" width="215.52" height="5.76"/></g></g><polyline class="cls-6" points="0.48 32.88 7.2 32.88 7.2 27.12 0.48 27.12 0.48 32.88"/><polyline class="cls-6" points="66.48 32.88 78.96 32.88 78.96 27.12 66.48 27.12 66.48 32.88"/><polyline class="cls-6" points="125.04 32.88 156.72 32.88 156.72 27.12 125.04 27.12 125.04 32.88"/><polyline class="cls-6" points="202.8 32.88 216 32.88 216 27.12 202.8 27.12 202.8 32.88"/><line class="cls-7" x1="102" y1="40.08" x2="105.84" y2="37.92"/><line class="cls-7" x1="102" y1="40.08" x2="98.4" y2="37.92"/><line class="cls-7" x1="102" y1="34.56" x2="102" y2="40.08"/><polyline class="cls-7" points="108.72 28.32 109.44 23.76 111.6 19.68 114.96 16.32 119.04 14.16 123.6 13.44"/><line class="cls-7" x1="123.6" y1="28.32" x2="123.6" y2="13.44"/><line class="cls-8" x1="122.4" y1="13.44" x2="122.4" y2="28.32"/><line class="cls-8" x1="123.6" y1="13.44" x2="122.4" y2="13.44"/><line class="cls-8" x1="123.6" y1="28.32" x2="122.4" y2="28.32"/><line class="cls-8" x1="123.6" y1="13.44" x2="123.6" y2="28.32"/><polyline class="cls-7" points="108.72 28.32 108 22.08 105.84 16.08 102.48 10.8 98.16 6.24 92.88 2.88 86.88 0.96 80.64 0.24"/><line class="cls-7" x1="80.64" y1="28.32" x2="80.64" y2="0.24"/><line class="cls-8" x1="81.6" y1="0.24" x2="81.6" y2="28.32"/><line class="cls-8" x1="80.64" y1="0.24" x2="81.6" y2="0.24"/><line class="cls-8" x1="80.64" y1="28.32" x2="81.6" y2="28.32"/><line class="cls-8" x1="80.64" y1="0.24" x2="80.64" y2="28.32"/><line class="cls-8" x1="124.8" y1="32.88" x2="124.8" y2="27.12"/><line class="cls-8" x1="123.6" y1="32.88" x2="124.8" y2="32.88"/><line class="cls-8" x1="123.6" y1="29.76" x2="123.6" y2="32.88"/><line class="cls-8" x1="123.36" y1="29.76" x2="123.6" y2="29.76"/><line class="cls-8" x1="123.36" y1="28.32" x2="123.36" y2="29.76"/><line class="cls-8" x1="123.6" y1="28.32" x2="123.36" y2="28.32"/><line class="cls-8" x1="123.6" y1="27.12" x2="123.6" y2="28.32"/><line class="cls-8" x1="124.8" y1="27.12" x2="123.6" y2="27.12"/><line class="cls-8" x1="79.2" y1="32.88" x2="79.2" y2="27.12"/><line class="cls-8" x1="80.4" y1="32.88" x2="79.2" y2="32.88"/><line class="cls-8" x1="80.4" y1="29.76" x2="80.4" y2="32.88"/><line class="cls-8" x1="80.88" y1="29.76" x2="80.4" y2="29.76"/><line class="cls-8" x1="80.88" y1="28.32" x2="80.88" y2="29.76"/><line class="cls-8" x1="80.4" y1="28.32" x2="80.88" y2="28.32"/><line class="cls-8" x1="80.4" y1="27.12" x2="80.4" y2="28.32"/><line class="cls-8" x1="79.2" y1="27.12" x2="80.4" y2="27.12"/><line class="cls-7" x1="179.76" y1="40.08" x2="183.36" y2="37.92"/><line class="cls-7" x1="179.76" y1="40.08" x2="175.92" y2="37.92"/><line class="cls-7" x1="179.76" y1="34.56" x2="179.76" y2="40.08"/><polyline class="cls-8" points="201.12 13.44 206.16 14.4 208.32 15.6"/><polyline class="cls-8" points="212.4 19.2 214.08 20.88 215.76 25.68"/><line class="cls-8" x1="201.12" y1="28.32" x2="202.8" y2="28.08"/><line class="cls-8" x1="207.6" y1="27.12" x2="215.76" y2="25.68"/><polyline class="cls-7" points="186.48 28.32 187.2 23.76 189.36 19.68 192.48 16.32 196.56 14.16 201.12 13.44"/><line class="cls-7" x1="201.12" y1="28.32" x2="201.12" y2="13.44"/><line class="cls-8" x1="200.16" y1="13.44" x2="200.16" y2="28.32"/><line class="cls-8" x1="201.12" y1="13.44" x2="200.16" y2="13.44"/><line class="cls-8" x1="201.12" y1="28.32" x2="200.16" y2="28.32"/><line class="cls-8" x1="201.12" y1="13.44" x2="201.12" y2="28.32"/><line class="cls-8" x1="158.16" y1="0.24" x2="152.88" y2="0.72"/><polyline class="cls-8" points="147.6 2.4 145.68 3.12 142.56 5.28"/><polyline class="cls-8" points="138.24 8.88 135.84 11.52 134.64 13.2"/><line class="cls-8" x1="132.24" y1="18.24" x2="130.56" y2="23.28"/><line class="cls-8" x1="158.16" y1="28.32" x2="156.72" y2="28.08"/><line class="cls-8" x1="151.92" y1="27.12" x2="144" y2="25.68"/><line class="cls-8" x1="138.48" y1="24.72" x2="130.56" y2="23.28"/><polyline class="cls-7" points="186.24 28.32 185.52 22.08 183.6 16.08 180.24 10.8 175.68 6.24 170.4 2.88 164.4 0.96 158.16 0.24"/><line class="cls-7" x1="158.16" y1="28.32" x2="158.16" y2="0.24"/><line class="cls-8" x1="159.36" y1="0.24" x2="159.36" y2="28.32"/><line class="cls-8" x1="158.16" y1="0.24" x2="159.36" y2="0.24"/><line class="cls-8" x1="158.16" y1="28.32" x2="159.36" y2="28.32"/><line class="cls-8" x1="158.16" y1="0.24" x2="158.16" y2="28.32"/><line class="cls-8" x1="202.56" y1="32.88" x2="202.56" y2="27.12"/><line class="cls-8" x1="201.36" y1="32.88" x2="202.56" y2="32.88"/><line class="cls-8" x1="201.36" y1="29.76" x2="201.36" y2="32.88"/><line class="cls-8" x1="200.88" y1="29.76" x2="201.36" y2="29.76"/><line class="cls-8" x1="200.88" y1="28.32" x2="200.88" y2="29.76"/><line class="cls-8" x1="201.36" y1="28.32" x2="200.88" y2="28.32"/><line class="cls-8" x1="201.36" y1="27.12" x2="201.36" y2="28.32"/><line class="cls-8" x1="202.56" y1="27.12" x2="201.36" y2="27.12"/><line class="cls-8" x1="156.96" y1="32.88" x2="156.96" y2="27.12"/><line class="cls-8" x1="158.16" y1="32.88" x2="156.96" y2="32.88"/><line class="cls-8" x1="158.16" y1="29.76" x2="158.16" y2="32.88"/><line class="cls-8" x1="158.64" y1="29.76" x2="158.16" y2="29.76"/><line class="cls-8" x1="158.64" y1="28.32" x2="158.64" y2="29.76"/><line class="cls-8" x1="158.16" y1="28.32" x2="158.64" y2="28.32"/><line class="cls-8" x1="158.16" y1="27.12" x2="158.16" y2="28.32"/><line class="cls-8" x1="156.96" y1="27.12" x2="158.16" y2="27.12"/><line class="cls-7" x1="108.72" y1="43.2" x2="108.72" y2="41.76"/><polyline class="cls-7" points="108 42.48 109.44 42.48 108.72 43.2 108 42.48 108.72 41.76 109.44 42.48"/><line class="cls-7" x1="108.72" y1="42" x2="108.72" y2="40.56"/><polyline class="cls-7" points="108 41.28 109.44 41.28 108.72 42 108 41.28 108.72 40.56 109.44 41.28"/><line class="cls-7" x1="186.48" y1="43.2" x2="186.48" y2="41.76"/><polyline class="cls-7" points="185.76 42.48 187.2 42.48 186.48 43.2 185.76 42.48 186.48 41.76 187.2 42.48"/><line class="cls-7" x1="186.48" y1="42" x2="186.48" y2="40.56"/><polyline class="cls-7" points="185.76 41.28 187.2 41.28 186.48 42 185.76 41.28 186.48 40.56 187.2 41.28"/><line class="cls-7" x1="36.96" y1="40.08" x2="40.56" y2="37.92"/><line class="cls-7" x1="36.96" y1="40.08" x2="33.12" y2="37.92"/><line class="cls-7" x1="36.96" y1="34.56" x2="36.96" y2="40.08"/><polyline class="cls-7" points="36.96 28.32 37.68 22.08 39.6 16.08 42.96 10.8 47.52 6.24 52.8 2.88 58.8 0.96 65.04 0.24"/><line class="cls-7" x1="65.04" y1="28.32" x2="65.04" y2="0.24"/><line class="cls-8" x1="63.84" y1="0.24" x2="63.84" y2="28.32"/><line class="cls-8" x1="65.04" y1="0.24" x2="63.84" y2="0.24"/><line class="cls-8" x1="65.04" y1="28.32" x2="63.84" y2="28.32"/><line class="cls-8" x1="65.04" y1="0.24" x2="65.04" y2="28.32"/><polyline class="cls-7" points="36.72 28.32 36 22.08 34.08 16.08 30.72 10.8 26.16 6.24 20.88 2.88 14.88 0.96 8.64 0.24"/><line class="cls-7" x1="8.64" y1="28.32" x2="8.64" y2="0.24"/><line class="cls-8" x1="9.84" y1="0.24" x2="9.84" y2="28.32"/><line class="cls-8" x1="8.64" y1="0.24" x2="9.84" y2="0.24"/><line class="cls-8" x1="8.64" y1="28.32" x2="9.84" y2="28.32"/><line class="cls-8" x1="8.64" y1="0.24" x2="8.64" y2="28.32"/><line class="cls-8" x1="66.24" y1="32.88" x2="66.24" y2="27.12"/><line class="cls-8" x1="65.04" y1="32.88" x2="66.24" y2="32.88"/><line class="cls-8" x1="65.04" y1="29.76" x2="65.04" y2="32.88"/><line class="cls-8" x1="64.8" y1="29.76" x2="65.04" y2="29.76"/><line class="cls-8" x1="64.8" y1="28.32" x2="64.8" y2="29.76"/><line class="cls-8" x1="65.04" y1="28.32" x2="64.8" y2="28.32"/><line class="cls-8" x1="65.04" y1="27.12" x2="65.04" y2="28.32"/><line class="cls-8" x1="66.24" y1="27.12" x2="65.04" y2="27.12"/><line class="cls-8" x1="7.44" y1="32.88" x2="7.44" y2="27.12"/><line class="cls-8" x1="8.64" y1="32.88" x2="7.44" y2="32.88"/><line class="cls-8" x1="8.64" y1="29.76" x2="8.64" y2="32.88"/><line class="cls-8" x1="9.12" y1="29.76" x2="8.64" y2="29.76"/><line class="cls-8" x1="9.12" y1="28.32" x2="9.12" y2="29.76"/><line class="cls-8" x1="8.64" y1="28.32" x2="9.12" y2="28.32"/><line class="cls-8" x1="8.64" y1="27.12" x2="8.64" y2="28.32"/><line class="cls-8" x1="7.44" y1="27.12" x2="8.64" y2="27.12"/><line class="cls-7" x1="36.96" y1="43.2" x2="36.96" y2="41.76"/><polyline class="cls-7" points="36.24 42.48 37.68 42.48 36.96 43.2 36.24 42.48 36.96 41.76 37.68 42.48"/><line class="cls-7" x1="36.96" y1="42" x2="36.96" y2="40.56"/><polyline class="cls-7" points="36.24 41.28 37.68 41.28 36.96 42 36.24 41.28 36.96 40.56 37.68 41.28"/></g></g></svg>