<svg xmlns="http://www.w3.org/2000/svg" xmlns:xlink="http://www.w3.org/1999/xlink" viewBox="0 0 216.48 32.4"><defs><style>.cls-1,.cls-2,.cls-6,.cls-7,.cls-8{fill:none;}.cls-1{clip-rule:evenodd;}.cls-3{clip-path:url(#clip-path);}.cls-4{clip-path:url(#clip-path-2);}.cls-5{fill:silver;}.cls-6,.cls-7,.cls-8{stroke:#000;stroke-linecap:round;stroke-linejoin:round;}.cls-6{stroke-width:0.96px;}.cls-7{stroke-width:0.24px;}.cls-8{stroke-width:0.48px;}</style><clipPath id="clip-path" transform="translate(-340.53 -360.48)"><path class="cls-1" d="M540.21,386.64v5.76h16.32v-5.76Zm-77.52,0v5.76h37.68v-5.76Zm-53.76,0v5.76h13.68v-5.76Zm-67.92,0v5.76h10.56v-5.76Z"/></clipPath><clipPath id="clip-path-2" transform="translate(-340.53 -360.48)"><rect class="cls-2" width="1191.12" height="841.92"/></clipPath></defs><title>Door_Double_Generic</title><g id="Layer_2" data-name="Layer 2"><g id="Layer_1-2" data-name="Layer 1"><g class="cls-3"><g class="cls-4"><rect class="cls-5" x="0.48" y="26.16" width="215.52" height="5.76"/></g></g><polyline class="cls-6" points="0.48 31.92 11.04 31.92 11.04 26.16 0.48 26.16 0.48 31.92"/><polyline class="cls-6" points="68.4 31.92 82.08 31.92 82.08 26.16 68.4 26.16 68.4 31.92"/><polyline class="cls-6" points="122.16 31.92 159.84 31.92 159.84 26.16 122.16 26.16 122.16 31.92"/><polyline class="cls-6" points="199.68 31.92 216 31.92 216 26.16 199.68 26.16 199.68 31.92"/><line class="cls-7" x1="102" y1="17.28" x2="105.84" y2="19.44"/><line class="cls-7" x1="102" y1="17.28" x2="98.4" y2="19.44"/><line class="cls-7" x1="102" y1="23.04" x2="102" y2="17.28"/><polyline class="cls-7" points="110.88 27.36 111.6 23.52 113.76 20.4 116.88 18.48 120.48 17.76"/><line class="cls-7" x1="120.48" y1="27.36" x2="120.48" y2="17.76"/><line class="cls-8" x1="119.28" y1="17.76" x2="119.28" y2="27.36"/><line class="cls-8" x1="120.48" y1="17.76" x2="119.28" y2="17.76"/><line class="cls-8" x1="120.48" y1="27.36" x2="119.28" y2="27.36"/><line class="cls-8" x1="120.48" y1="17.76" x2="120.48" y2="27.36"/><polyline class="cls-7" points="110.64 27.36 109.68 20.16 107.04 13.68 102.72 8.16 97.2 3.84 90.72 1.2 83.52 0.24"/><line class="cls-7" x1="83.52" y1="27.36" x2="83.52" y2="0.24"/><line class="cls-8" x1="84.72" y1="0.24" x2="84.72" y2="27.36"/><line class="cls-8" x1="83.52" y1="0.24" x2="84.72" y2="0.24"/><line class="cls-8" x1="83.52" y1="27.36" x2="84.72" y2="27.36"/><line class="cls-8" x1="83.52" y1="0.24" x2="83.52" y2="27.36"/><line class="cls-8" x1="121.68" y1="31.92" x2="121.68" y2="26.16"/><line class="cls-8" x1="120.72" y1="31.92" x2="121.68" y2="31.92"/><line class="cls-8" x1="120.72" y1="28.8" x2="120.72" y2="31.92"/><line class="cls-8" x1="120.24" y1="28.8" x2="120.72" y2="28.8"/><line class="cls-8" x1="120.24" y1="27.36" x2="120.24" y2="28.8"/><line class="cls-8" x1="120.72" y1="27.36" x2="120.24" y2="27.36"/><line class="cls-8" x1="120.72" y1="26.16" x2="120.72" y2="27.36"/><line class="cls-8" x1="121.68" y1="26.16" x2="120.72" y2="26.16"/><line class="cls-8" x1="82.32" y1="31.92" x2="82.32" y2="26.16"/><line class="cls-8" x1="83.52" y1="31.92" x2="82.32" y2="31.92"/><line class="cls-8" x1="83.52" y1="28.8" x2="83.52" y2="31.92"/><line class="cls-8" x1="84" y1="28.8" x2="83.52" y2="28.8"/><line class="cls-8" x1="84" y1="27.36" x2="84" y2="28.8"/><line class="cls-8" x1="83.52" y1="27.36" x2="84" y2="27.36"/><line class="cls-8" x1="83.52" y1="26.16" x2="83.52" y2="27.36"/><line class="cls-8" x1="82.32" y1="26.16" x2="83.52" y2="26.16"/><line class="cls-7" x1="179.76" y1="17.28" x2="183.36" y2="19.44"/><line class="cls-7" x1="179.76" y1="17.28" x2="175.92" y2="19.44"/><line class="cls-7" x1="179.76" y1="23.04" x2="179.76" y2="17.28"/><polyline class="cls-8" points="198.24 17.76 201.36 18.24 201.84 18.48"/><polyline class="cls-8" points="206.16 22.08 206.4 22.56 207.6 25.68"/><line class="cls-8" x1="198.24" y1="27.36" x2="199.68" y2="27.12"/><line class="cls-8" x1="204.48" y1="26.16" x2="207.6" y2="25.68"/><polyline class="cls-7" points="188.4 27.36 189.36 23.52 191.28 20.4 194.4 18.48 198.24 17.76"/><line class="cls-7" x1="198.24" y1="27.36" x2="198.24" y2="17.76"/><line class="cls-8" x1="197.04" y1="17.76" x2="197.04" y2="27.36"/><line class="cls-8" x1="198.24" y1="17.76" x2="197.04" y2="17.76"/><line class="cls-8" x1="198.24" y1="27.36" x2="197.04" y2="27.36"/><line class="cls-8" x1="198.24" y1="17.76" x2="198.24" y2="27.36"/><line class="cls-8" x1="161.28" y1="0.24" x2="156.72" y2="0.72"/><polyline class="cls-8" points="151.2 2.4 149.04 3.12 146.16 5.04"/><polyline class="cls-8" points="141.84 8.64 139.68 11.04 138.48 12.96"/><line class="cls-8" x1="136.08" y1="18" x2="134.64" y2="22.56"/><line class="cls-8" x1="161.28" y1="27.36" x2="159.84" y2="27.12"/><line class="cls-8" x1="154.8" y1="26.16" x2="147.6" y2="24.96"/><line class="cls-8" x1="142.08" y1="23.76" x2="134.64" y2="22.56"/><polyline class="cls-7" points="188.4 27.36 187.44 20.16 184.8 13.68 180.48 8.16 174.72 3.84 168.24 1.2 161.28 0.24"/><line class="cls-7" x1="161.28" y1="27.36" x2="161.28" y2="0.24"/><line class="cls-8" x1="162.48" y1="0.24" x2="162.48" y2="27.36"/><line class="cls-8" x1="161.28" y1="0.24" x2="162.48" y2="0.24"/><line class="cls-8" x1="161.28" y1="27.36" x2="162.48" y2="27.36"/><line class="cls-8" x1="161.28" y1="0.24" x2="161.28" y2="27.36"/><line class="cls-8" x1="199.44" y1="31.92" x2="199.44" y2="26.16"/><line class="cls-8" x1="198.24" y1="31.92" x2="199.44" y2="31.92"/><line class="cls-8" x1="198.24" y1="28.8" x2="198.24" y2="31.92"/><line class="cls-8" x1="197.76" y1="28.8" x2="198.24" y2="28.8"/><line class="cls-8" x1="197.76" y1="27.36" x2="197.76" y2="28.8"/><line class="cls-8" x1="198.24" y1="27.36" x2="197.76" y2="27.36"/><line class="cls-8" x1="198.24" y1="26.16" x2="198.24" y2="27.36"/><line class="cls-8" x1="199.44" y1="26.16" x2="198.24" y2="26.16"/><line class="cls-8" x1="160.08" y1="31.92" x2="160.08" y2="26.16"/><line class="cls-8" x1="161.28" y1="31.92" x2="160.08" y2="31.92"/><line class="cls-8" x1="161.28" y1="28.8" x2="161.28" y2="31.92"/><line class="cls-8" x1="161.52" y1="28.8" x2="161.28" y2="28.8"/><line class="cls-8" x1="161.52" y1="27.36" x2="161.52" y2="28.8"/><line class="cls-8" x1="161.28" y1="27.36" x2="161.52" y2="27.36"/><line class="cls-8" x1="161.28" y1="26.16" x2="161.28" y2="27.36"/><line class="cls-8" x1="160.08" y1="26.16" x2="161.28" y2="26.16"/><line class="cls-7" x1="39.6" y1="17.28" x2="43.44" y2="19.44"/><line class="cls-7" x1="39.6" y1="17.28" x2="36" y2="19.44"/><line class="cls-7" x1="39.6" y1="23.04" x2="39.6" y2="17.28"/><polyline class="cls-7" points="39.84 27.36 40.8 20.16 43.44 13.68 47.76 8.16 53.28 3.84 59.76 1.2 66.72 0.24"/><line class="cls-7" x1="66.72" y1="27.36" x2="66.72" y2="0.24"/><line class="cls-8" x1="65.76" y1="0.24" x2="65.76" y2="27.36"/><line class="cls-8" x1="66.72" y1="0.24" x2="65.76" y2="0.24"/><line class="cls-8" x1="66.72" y1="27.36" x2="65.76" y2="27.36"/><line class="cls-8" x1="66.72" y1="0.24" x2="66.72" y2="27.36"/><polyline class="cls-7" points="39.6 27.36 38.64 20.16 36 13.68 31.68 8.16 26.16 3.84 19.44 1.2 12.48 0.24"/><line class="cls-7" x1="12.48" y1="27.36" x2="12.48" y2="0.24"/><line class="cls-8" x1="13.68" y1="0.24" x2="13.68" y2="27.36"/><line class="cls-8" x1="12.48" y1="0.24" x2="13.68" y2="0.24"/><line class="cls-8" x1="12.48" y1="27.36" x2="13.68" y2="27.36"/><line class="cls-8" x1="12.48" y1="0.24" x2="12.48" y2="27.36"/><line class="cls-8" x1="68.16" y1="31.92" x2="68.16" y2="26.16"/><line class="cls-8" x1="66.96" y1="31.92" x2="68.16" y2="31.92"/><line class="cls-8" x1="66.96" y1="28.8" x2="66.96" y2="31.92"/><line class="cls-8" x1="66.48" y1="28.8" x2="66.96" y2="28.8"/><line class="cls-8" x1="66.48" y1="27.36" x2="66.48" y2="28.8"/><line class="cls-8" x1="66.96" y1="27.36" x2="66.48" y2="27.36"/><line class="cls-8" x1="66.96" y1="26.16" x2="66.96" y2="27.36"/><line class="cls-8" x1="68.16" y1="26.16" x2="66.96" y2="26.16"/><line class="cls-8" x1="11.28" y1="31.92" x2="11.28" y2="26.16"/><line class="cls-8" x1="12.48" y1="31.92" x2="11.28" y2="31.92"/><line class="cls-8" x1="12.48" y1="28.8" x2="12.48" y2="31.92"/><line class="cls-8" x1="12.72" y1="28.8" x2="12.48" y2="28.8"/><line class="cls-8" x1="12.72" y1="27.36" x2="12.72" y2="28.8"/><line class="cls-8" x1="12.48" y1="27.36" x2="12.72" y2="27.36"/><line class="cls-8" x1="12.48" y1="26.16" x2="12.48" y2="27.36"/><line class="cls-8" x1="11.28" y1="26.16" x2="12.48" y2="26.16"/><line class="cls-7" x1="39.6" y1="12.48" x2="39.6" y2="13.92"/><polyline class="cls-7" points="38.88 13.2 40.32 13.2 39.6 12.48 38.88 13.2 39.6 13.92 40.32 13.2"/><line class="cls-7" x1="39.6" y1="11.28" x2="39.6" y2="12.72"/><polyline class="cls-7" points="38.88 12 40.32 12 39.6 11.28 38.88 12 39.6 12.72 40.32 12"/><line class="cls-7" x1="110.88" y1="12.48" x2="110.88" y2="13.92"/><polyline class="cls-7" points="110.16 13.2 111.6 13.2 110.88 12.48 110.16 13.2 110.88 13.92 111.6 13.2"/><line class="cls-7" x1="110.88" y1="11.28" x2="110.88" y2="12.72"/><polyline class="cls-7" points="110.16 12 111.6 12 110.88 11.28 110.16 12 110.88 12.72 111.6 12"/><line class="cls-7" x1="188.4" y1="12.48" x2="188.4" y2="13.92"/><polyline class="cls-7" points="187.68 13.2 189.12 13.2 188.4 12.48 187.68 13.2 188.4 13.92 189.12 13.2"/><line class="cls-7" x1="188.4" y1="11.28" x2="188.4" y2="12.72"/><polyline class="cls-7" points="187.68 12 189.12 12 188.4 11.28 187.68 12 188.4 12.72 189.12 12"/></g></g></svg>