<svg xmlns="http://www.w3.org/2000/svg" viewBox="0 0 39.84 62.64"><defs><style>.cls-1{fill:#fff;}.cls-2,.cls-3{fill:none;stroke-linecap:round;stroke-linejoin:round;}.cls-2{stroke:#787878;stroke-width:0.24px;}.cls-3{stroke:#000;stroke-width:0.48px;}</style></defs><title>Door_Elevation_BlindVP_Sample</title><g id="Layer_2" data-name="Layer 2"><g id="Layer_1-2" data-name="Layer 1"><rect class="cls-1" x="17.28" y="7.2" width="5.52" height="26.4"/><line class="cls-2" x1="17.28" y1="8.16" x2="22.8" y2="8.16"/><line class="cls-2" x1="17.28" y1="11.04" x2="22.8" y2="11.04"/><line class="cls-2" x1="17.28" y1="13.92" x2="22.8" y2="13.92"/><line class="cls-2" x1="17.28" y1="16.8" x2="22.8" y2="16.8"/><line class="cls-2" x1="17.28" y1="19.44" x2="22.8" y2="19.44"/><line class="cls-2" x1="17.28" y1="22.32" x2="22.8" y2="22.32"/><line class="cls-2" x1="17.28" y1="25.2" x2="22.8" y2="25.2"/><line class="cls-2" x1="17.28" y1="28.08" x2="22.8" y2="28.08"/><line class="cls-2" x1="17.28" y1="30.96" x2="22.8" y2="30.96"/><line class="cls-3" x1="25.68" y1="34.32" x2="26.16" y2="34.32"/><polyline class="cls-3" points="26.16 33.84 25.92 33.84 25.68 33.84"/><line class="cls-3" x1="22.8" y1="34.32" x2="25.68" y2="34.32"/><line class="cls-3" x1="25.68" y1="33.84" x2="22.8" y2="33.84"/><line class="cls-3" x1="22.8" y1="34.08" x2="22.8" y2="33.84"/><polyline class="cls-3" points="22.8 34.32 22.8 34.32 22.8 34.08"/><line class="cls-3" x1="37.92" y1="62.16" x2="28.8" y2="62.16"/><polyline class="cls-3" points="28.8 1.68 28.8 62.16 28.8 1.68"/><line class="cls-3" x1="28.8" y1="62.16" x2="28.8" y2="1.68"/><polyline class="cls-3" points="16.8 6.72 23.28 6.72 23.28 33.84"/><line class="cls-3" x1="22.8" y1="34.08" x2="16.8" y2="34.08"/><line class="cls-3" x1="22.8" y1="33.6" x2="22.8" y2="7.2"/><line class="cls-3" x1="17.28" y1="33.6" x2="22.8" y2="33.6"/><line class="cls-3" x1="17.28" y1="7.2" x2="17.28" y2="33.6"/><line class="cls-3" x1="22.8" y1="7.2" x2="17.28" y2="7.2"/><line class="cls-3" x1="16.8" y1="6.72" x2="16.8" y2="34.08"/><polyline class="cls-3" points="28.56 62.16 28.56 62.16 1.68 62.16"/><polyline class="cls-3" points="28.56 62.16 28.56 1.68 28.56 62.16"/><line class="cls-3" x1="28.56" y1="1.68" x2="28.56" y2="62.16"/><polyline class="cls-3" points="1.68 62.4 1.44 62.4 0.24 62.4"/><polyline class="cls-3" points="1.44 62.4 1.44 1.2 38.4 1.2 38.4 62.4"/><line class="cls-3" x1="0.24" y1="0.24" x2="0.24" y2="62.4"/><line class="cls-3" x1="38.4" y1="62.4" x2="39.6" y2="62.4"/><line class="cls-3" x1="38.4" y1="62.4" x2="37.92" y2="62.4"/><polyline class="cls-3" points="39.6 62.4 39.6 0.24 0.24 0.24"/><line class="cls-3" x1="1.68" y1="1.68" x2="1.68" y2="62.4"/><line class="cls-3" x1="37.92" y1="1.68" x2="1.68" y2="1.68"/><line class="cls-3" x1="37.92" y1="62.4" x2="37.92" y2="1.68"/><line class="cls-3" x1="38.4" y1="62.4" x2="38.4" y2="1.2"/><line class="cls-3" x1="1.44" y1="1.2" x2="1.44" y2="62.4"/><line class="cls-3" x1="38.4" y1="1.2" x2="1.44" y2="1.2"/></g></g></svg>