<svg xmlns="http://www.w3.org/2000/svg" xmlns:xlink="http://www.w3.org/1999/xlink" viewBox="0 0 60.48 37.44"><defs><style>.cls-1,.cls-2,.cls-6,.cls-7,.cls-8{fill:none;}.cls-1{clip-rule:evenodd;}.cls-3{clip-path:url(#clip-path);}.cls-4{clip-path:url(#clip-path-2);}.cls-5{fill:silver;}.cls-6,.cls-7,.cls-8{stroke:#000;stroke-linecap:round;stroke-linejoin:round;}.cls-6{stroke-width:0.96px;}.cls-7{stroke-width:0.24px;}.cls-8{stroke-width:0.48px;}</style><clipPath id="clip-path" transform="translate(-672.21 -386.64)"><path class="cls-1" d="M721.89,417.84v5.76h10.32v-5.76Zm-49.2,0v5.76h12.24v-5.76Z"/></clipPath><clipPath id="clip-path-2" transform="translate(-672.21 -386.64)"><rect class="cls-2" width="1191.12" height="841.92"/></clipPath></defs><title>Door_Swing_Pivot</title><g id="Layer_2" data-name="Layer 2"><g id="Layer_1-2" data-name="Layer 1"><g class="cls-3"><g class="cls-4"><rect class="cls-5" x="0.48" y="31.2" width="59.52" height="5.76"/></g></g><polyline class="cls-6" points="0.48 36.96 12.72 36.96 12.72 31.2 0.48 31.2 0.48 36.96"/><polyline class="cls-6" points="49.68 36.96 60 36.96 60 31.2 49.68 31.2 49.68 36.96"/><line class="cls-7" x1="31.2" y1="23.76" x2="34.8" y2="25.92"/><line class="cls-7" x1="31.2" y1="23.76" x2="27.6" y2="25.92"/><line class="cls-7" x1="31.2" y1="29.52" x2="31.2" y2="23.76"/><polyline class="cls-7" points="14.4 31.2 15.12 33.12 17.04 34.08"/><polyline class="cls-7" points="48 31.2 47.28 24.24 44.88 17.76 41.28 12 36.48 6.96 30.48 3.36 24 0.96 17.04 0.24"/><line class="cls-7" x1="17.04" y1="31.2" x2="17.04" y2="0.24"/><line class="cls-8" x1="18.24" y1="0.24" x2="18.24" y2="34.08"/><line class="cls-8" x1="17.04" y1="0.24" x2="18.24" y2="0.24"/><line class="cls-8" x1="17.04" y1="34.08" x2="18.24" y2="34.08"/><line class="cls-8" x1="17.04" y1="0.24" x2="17.04" y2="34.08"/><line class="cls-8" x1="49.2" y1="36.96" x2="49.2" y2="31.2"/><line class="cls-8" x1="48.24" y1="36.96" x2="49.2" y2="36.96"/><line class="cls-8" x1="48.24" y1="33.84" x2="48.24" y2="36.96"/><line class="cls-8" x1="47.76" y1="33.84" x2="48.24" y2="33.84"/><line class="cls-8" x1="47.76" y1="32.4" x2="47.76" y2="33.84"/><line class="cls-8" x1="48.24" y1="32.4" x2="47.76" y2="32.4"/><line class="cls-8" x1="48.24" y1="31.2" x2="48.24" y2="32.4"/><line class="cls-8" x1="49.2" y1="31.2" x2="48.24" y2="31.2"/><line class="cls-8" x1="12.96" y1="36.96" x2="12.96" y2="31.2"/><line class="cls-8" x1="14.16" y1="36.96" x2="12.96" y2="36.96"/><line class="cls-8" x1="14.16" y1="33.84" x2="14.16" y2="36.96"/><line class="cls-8" x1="14.64" y1="33.84" x2="14.16" y2="33.84"/><line class="cls-8" x1="14.64" y1="32.4" x2="14.64" y2="33.84"/><line class="cls-8" x1="14.16" y1="32.4" x2="14.64" y2="32.4"/><line class="cls-8" x1="14.16" y1="31.2" x2="14.16" y2="32.4"/><line class="cls-8" x1="12.96" y1="31.2" x2="14.16" y2="31.2"/><line class="cls-7" x1="31.2" y1="17.76" x2="31.2" y2="16.32"/><polyline class="cls-7" points="31.92 17.04 30.48 17.04 31.2 17.76 31.92 17.04 31.2 16.32 30.48 17.04"/><line class="cls-7" x1="31.2" y1="18.96" x2="31.2" y2="17.52"/><polyline class="cls-7" points="30.48 18.24 31.92 18.24 31.2 18.96 30.48 18.24 31.2 17.52 31.92 18.24"/></g></g></svg>