<svg xmlns="http://www.w3.org/2000/svg" xmlns:xlink="http://www.w3.org/1999/xlink" viewBox="0 0 148.32 103.92"><defs><style>.cls-1,.cls-2,.cls-7,.cls-8,.cls-9{fill:none;}.cls-1{clip-rule:evenodd;}.cls-3{clip-path:url(#clip-path);}.cls-4{clip-path:url(#clip-path-2);}.cls-5{fill:#fff;}.cls-6{clip-path:url(#clip-path-3);}.cls-7,.cls-8,.cls-9{stroke:#000;stroke-linecap:round;stroke-linejoin:round;}.cls-7{stroke-width:0.24px;}.cls-8{stroke-width:0.96px;}.cls-9{stroke-width:0.48px;}</style><clipPath id="clip-path" transform="translate(-603.57 -401.04)"><path class="cls-1" d="M699.09,503.52v1h52.32v-1Zm-95,0v1h36.48v-1Z"/></clipPath><clipPath id="clip-path-2" transform="translate(-603.57 -401.04)"><rect class="cls-2" width="1191.12" height="841.92"/></clipPath><clipPath id="clip-path-3" transform="translate(-603.57 -401.04)"><path class="cls-1" d="M699.09,497.76v.72h52.32v-.72Zm-95,0v.72h36.48v-.72Z"/></clipPath></defs><title>Doors_AS1428_7</title><g id="Layer_2" data-name="Layer 2"><g id="Layer_1-2" data-name="Layer 1"><g class="cls-3"><g class="cls-4"><rect class="cls-5" x="0.48" y="102.48" width="147.36" height="0.96"/></g></g><g class="cls-6"><g class="cls-4"><rect class="cls-5" x="0.48" y="96.72" width="147.36" height="0.72"/></g></g><line class="cls-7" x1="14.16" y1="103.44" x2="13.92" y2="102.72"/><line class="cls-7" x1="103.44" y1="102.96" x2="103.2" y2="103.44"/><line class="cls-7" x1="36.96" y1="96.72" x2="36.96" y2="96.72"/><line class="cls-7" x1="117.12" y1="97.44" x2="116.88" y2="96.72"/><line class="cls-7" x1="126.96" y1="96.72" x2="126.48" y2="97.44"/><polyline class="cls-8" points="0.48 103.44 36.96 103.44 36.96 96.72 0.48 96.72 0.48 103.44"/><polyline class="cls-8" points="95.52 103.44 147.84 103.44 147.84 96.72 95.52 96.72 95.52 103.44"/><line class="cls-9" x1="36.96" y1="102.48" x2="0.48" y2="102.48"/><line class="cls-9" x1="147.84" y1="102.48" x2="95.52" y2="102.48"/><line class="cls-9" x1="36.96" y1="97.44" x2="0.48" y2="97.44"/><line class="cls-9" x1="147.84" y1="97.44" x2="95.52" y2="97.44"/><line class="cls-9" x1="4.08" y1="0.24" x2="12" y2="0.24"/><line class="cls-9" x1="17.76" y1="0.24" x2="29.04" y2="0.24"/><line class="cls-9" x1="34.8" y1="0.24" x2="46.08" y2="0.24"/><line class="cls-9" x1="51.84" y1="0.24" x2="63.12" y2="0.24"/><line class="cls-9" x1="68.64" y1="0.24" x2="80.16" y2="0.24"/><line class="cls-9" x1="85.68" y1="0.24" x2="97.2" y2="0.24"/><line class="cls-9" x1="102.72" y1="0.24" x2="114" y2="0.24"/><line class="cls-9" x1="119.76" y1="0.24" x2="131.04" y2="0.24"/><polyline class="cls-9" points="136.8 0.24 144.72 0.24 144.72 11.52"/><line class="cls-9" x1="144.72" y1="17.28" x2="144.72" y2="28.56"/><line class="cls-9" x1="144.72" y1="34.32" x2="144.72" y2="45.6"/><line class="cls-9" x1="144.72" y1="51.36" x2="144.72" y2="62.64"/><line class="cls-9" x1="144.72" y1="68.4" x2="144.72" y2="79.68"/><line class="cls-9" x1="144.72" y1="85.2" x2="144.72" y2="96.72"/><line class="cls-9" x1="4.08" y1="0.24" x2="4.08" y2="11.52"/><line class="cls-9" x1="4.08" y1="17.28" x2="4.08" y2="28.56"/><line class="cls-9" x1="4.08" y1="34.32" x2="4.08" y2="45.6"/><line class="cls-9" x1="4.08" y1="51.36" x2="4.08" y2="62.64"/><line class="cls-9" x1="4.08" y1="68.4" x2="4.08" y2="79.68"/><line class="cls-9" x1="4.08" y1="85.2" x2="4.08" y2="96.72"/><line class="cls-9" x1="94.8" y1="96.72" x2="94.8" y2="85.2"/><line class="cls-9" x1="94.8" y1="79.68" x2="94.8" y2="68.4"/><line class="cls-9" x1="94.8" y1="62.64" x2="94.8" y2="51.36"/><line class="cls-9" x1="94.8" y1="45.6" x2="94.8" y2="34.32"/><line class="cls-9" x1="94.8" y1="28.56" x2="94.8" y2="17.28"/><line class="cls-9" x1="94.8" y1="11.52" x2="94.8" y2="0.24"/><line class="cls-9" x1="37.68" y1="96.72" x2="37.68" y2="85.2"/><line class="cls-9" x1="37.68" y1="79.68" x2="37.68" y2="68.4"/><line class="cls-9" x1="37.68" y1="62.64" x2="37.68" y2="51.36"/><line class="cls-9" x1="37.68" y1="45.6" x2="37.68" y2="34.32"/><line class="cls-9" x1="37.68" y1="28.56" x2="37.68" y2="17.28"/><line class="cls-9" x1="37.68" y1="11.52" x2="37.68" y2="0.24"/><line class="cls-9" x1="99.12" y1="21.84" x2="97.68" y2="24.24"/><line class="cls-9" x1="101.28" y1="18.24" x2="99.12" y2="21.84"/><line class="cls-9" x1="103.44" y1="14.64" x2="101.28" y2="18.24"/><line class="cls-9" x1="106.8" y1="18.72" x2="103.44" y2="18.72"/><line class="cls-9" x1="110.16" y1="22.08" x2="110.16" y2="18.72"/><line class="cls-9" x1="110.16" y1="26.16" x2="110.16" y2="22.08"/><line class="cls-9" x1="106.8" y1="30" x2="110.16" y2="30"/><line class="cls-9" x1="99.12" y1="26.88" x2="97.68" y2="24.24"/><line class="cls-9" x1="101.28" y1="30.48" x2="99.12" y2="26.88"/><line class="cls-9" x1="110.16" y1="18.72" x2="106.8" y2="18.72"/><line class="cls-9" x1="110.16" y1="30" x2="110.16" y2="26.16"/><line class="cls-9" x1="103.44" y1="30" x2="106.8" y2="30"/><line class="cls-9" x1="103.44" y1="34.08" x2="103.44" y2="30"/><line class="cls-9" x1="103.44" y1="34.08" x2="101.28" y2="30.48"/><line class="cls-9" x1="103.44" y1="14.64" x2="103.44" y2="18.72"/><line class="cls-9" x1="33.36" y1="26.88" x2="34.8" y2="24.24"/><line class="cls-9" x1="31.2" y1="30.48" x2="33.36" y2="26.88"/><line class="cls-9" x1="29.04" y1="34.08" x2="31.2" y2="30.48"/><line class="cls-9" x1="25.68" y1="30" x2="29.04" y2="30"/><line class="cls-9" x1="22.32" y1="26.64" x2="22.32" y2="30"/><line class="cls-9" x1="22.32" y1="22.56" x2="22.32" y2="26.64"/><line class="cls-9" x1="25.68" y1="18.72" x2="22.32" y2="18.72"/><line class="cls-9" x1="33.36" y1="21.84" x2="34.8" y2="24.24"/><line class="cls-9" x1="31.2" y1="18.24" x2="33.36" y2="21.84"/><line class="cls-9" x1="22.32" y1="30" x2="25.68" y2="30"/><line class="cls-9" x1="22.32" y1="18.72" x2="22.32" y2="22.56"/><line class="cls-9" x1="29.04" y1="18.72" x2="25.68" y2="18.72"/><line class="cls-9" x1="29.04" y1="14.64" x2="29.04" y2="18.72"/><line class="cls-9" x1="29.04" y1="14.64" x2="31.2" y2="18.24"/><line class="cls-9" x1="29.04" y1="34.08" x2="29.04" y2="30"/><line class="cls-9" x1="42.48" y1="44.4" x2="40.08" y2="44.4"/><line class="cls-9" x1="42.48" y1="96.48" x2="40.08" y2="96.48"/><line class="cls-9" x1="42.48" y1="96.48" x2="42.48" y2="44.4"/><line class="cls-9" x1="40.08" y1="96.48" x2="40.08" y2="44.4"/><polyline class="cls-9" points="92.4 96.48 91.44 87.6 89.04 78.72 85.2 70.56 80.16 63.12 73.68 56.64 66.24 51.36 58.08 47.52 49.2 45.12 40.08 44.4"/><polyline class="cls-9" points="92.64 99.12 91.68 99.12 91.68 102 92.64 102 92.64 103.44 94.8 103.44 94.8 96.72 92.64 96.72 92.64 99.12"/><polyline class="cls-9" points="39.84 99.12 39.84 96.72 37.68 96.72 37.68 103.44 39.84 103.44 39.84 102 40.8 102 40.8 99.12 39.84 99.12"/></g></g></svg>