<svg xmlns="http://www.w3.org/2000/svg" xmlns:xlink="http://www.w3.org/1999/xlink" viewBox="0 0 145.68 40.08"><defs><style>.cls-1,.cls-2,.cls-6,.cls-7,.cls-8{fill:none;}.cls-1{clip-rule:evenodd;}.cls-3{clip-path:url(#clip-path);}.cls-4{clip-path:url(#clip-path-2);}.cls-5{fill:silver;}.cls-6,.cls-7,.cls-8{stroke:#000;stroke-linecap:round;stroke-linejoin:round;}.cls-6{stroke-width:0.96px;}.cls-7{stroke-width:0.24px;}.cls-8{stroke-width:0.48px;}</style><clipPath id="clip-path" transform="translate(-411.33 -551.04)"><path class="cls-1" d="M538.77,585.12v5.52h17.76v-5.52Zm-77.76,0v5.52h40.8v-5.52Zm-49.2,0v5.52h12.24v-5.52Z"/></clipPath><clipPath id="clip-path-2" transform="translate(-411.33 -551.04)"><rect class="cls-2" width="1191.12" height="841.92"/></clipPath></defs><title>Door_Single_Generic</title><g id="Layer_2" data-name="Layer 2"><g id="Layer_1-2" data-name="Layer 1"><g class="cls-3"><g class="cls-4"><rect class="cls-5" x="0.48" y="34.08" width="144.72" height="5.52"/></g></g><polyline class="cls-6" points="0.48 39.6 12.72 39.6 12.72 34.08 0.48 34.08 0.48 39.6"/><polyline class="cls-6" points="49.68 39.6 90.48 39.6 90.48 34.08 49.68 34.08 49.68 39.6"/><polyline class="cls-6" points="127.44 39.6 145.2 39.6 145.2 34.08 127.44 34.08 127.44 39.6"/><line class="cls-7" x1="31.2" y1="26.64" x2="35.04" y2="28.8"/><line class="cls-7" x1="31.2" y1="26.64" x2="27.6" y2="28.8"/><line class="cls-7" x1="31.2" y1="32.4" x2="31.2" y2="26.64"/><polyline class="cls-7" points="48.24 34.08 47.28 26.4 44.88 19.44 40.8 12.96 35.52 7.68 29.04 3.6 21.84 1.2 14.4 0.24"/><line class="cls-7" x1="14.4" y1="34.08" x2="14.4" y2="0.24"/><line class="cls-8" x1="15.6" y1="0.24" x2="15.6" y2="34.08"/><line class="cls-8" x1="14.4" y1="0.24" x2="15.6" y2="0.24"/><line class="cls-8" x1="14.4" y1="34.08" x2="15.6" y2="34.08"/><line class="cls-8" x1="14.4" y1="0.24" x2="14.4" y2="34.08"/><line class="cls-8" x1="49.44" y1="39.6" x2="49.44" y2="34.08"/><line class="cls-8" x1="48.24" y1="39.6" x2="49.44" y2="39.6"/><line class="cls-8" x1="48.24" y1="36.72" x2="48.24" y2="39.6"/><line class="cls-8" x1="47.76" y1="36.72" x2="48.24" y2="36.72"/><line class="cls-8" x1="47.76" y1="35.28" x2="47.76" y2="36.72"/><line class="cls-8" x1="48.24" y1="35.28" x2="47.76" y2="35.28"/><line class="cls-8" x1="48.24" y1="34.08" x2="48.24" y2="35.28"/><line class="cls-8" x1="49.44" y1="34.08" x2="48.24" y2="34.08"/><line class="cls-8" x1="13.2" y1="39.6" x2="13.2" y2="34.08"/><line class="cls-8" x1="14.16" y1="39.6" x2="13.2" y2="39.6"/><line class="cls-8" x1="14.16" y1="36.72" x2="14.16" y2="39.6"/><line class="cls-8" x1="14.64" y1="36.72" x2="14.16" y2="36.72"/><line class="cls-8" x1="14.64" y1="35.28" x2="14.64" y2="36.72"/><line class="cls-8" x1="14.16" y1="35.28" x2="14.64" y2="35.28"/><line class="cls-8" x1="14.16" y1="34.08" x2="14.16" y2="35.28"/><line class="cls-8" x1="13.2" y1="34.08" x2="14.16" y2="34.08"/><line class="cls-7" x1="31.2" y1="20.64" x2="31.2" y2="19.2"/><polyline class="cls-7" points="31.92 19.92 30.48 19.92 31.2 20.64 31.92 19.92 31.2 19.2 30.48 19.92"/><line class="cls-7" x1="31.2" y1="21.84" x2="31.2" y2="20.4"/><polyline class="cls-7" points="30.48 21.12 31.92 21.12 31.2 21.84 30.48 21.12 31.2 20.4 31.92 21.12"/><line class="cls-7" x1="108.96" y1="26.64" x2="112.56" y2="28.8"/><line class="cls-7" x1="108.96" y1="26.64" x2="105.12" y2="28.8"/><line class="cls-7" x1="108.96" y1="32.4" x2="108.96" y2="26.64"/><line class="cls-8" x1="92.16" y1="0.24" x2="88.32" y2="0.72"/><line class="cls-8" x1="82.8" y1="1.68" x2="77.52" y2="3.6"/><polyline class="cls-8" points="72.72 6.72 70.32 8.16 68.4 10.32"/><line class="cls-8" x1="64.56" y1="14.4" x2="61.92" y2="19.44"/><line class="cls-8" x1="60" y1="24.72" x2="58.8" y2="28.08"/><line class="cls-8" x1="92.16" y1="34.08" x2="83.76" y2="32.64"/><line class="cls-8" x1="78.24" y1="31.68" x2="72.72" y2="30.72"/><line class="cls-8" x1="66.96" y1="29.52" x2="58.8" y2="28.08"/><polyline class="cls-7" points="125.76 34.08 125.04 26.4 122.4 19.44 118.32 12.96 113.04 7.68 106.8 3.6 99.6 1.2 92.16 0.24"/><line class="cls-7" x1="92.16" y1="34.08" x2="92.16" y2="0.24"/><line class="cls-8" x1="93.12" y1="0.24" x2="93.12" y2="34.08"/><line class="cls-8" x1="92.16" y1="0.24" x2="93.12" y2="0.24"/><line class="cls-8" x1="92.16" y1="34.08" x2="93.12" y2="34.08"/><line class="cls-8" x1="92.16" y1="0.24" x2="92.16" y2="34.08"/><line class="cls-8" x1="126.96" y1="39.6" x2="126.96" y2="34.08"/><line class="cls-8" x1="126" y1="39.6" x2="126.96" y2="39.6"/><line class="cls-8" x1="126" y1="36.72" x2="126" y2="39.6"/><line class="cls-8" x1="125.52" y1="36.72" x2="126" y2="36.72"/><line class="cls-8" x1="125.52" y1="35.28" x2="125.52" y2="36.72"/><line class="cls-8" x1="126" y1="35.28" x2="125.52" y2="35.28"/><line class="cls-8" x1="126" y1="34.08" x2="126" y2="35.28"/><line class="cls-8" x1="126.96" y1="34.08" x2="126" y2="34.08"/><line class="cls-8" x1="90.72" y1="39.6" x2="90.72" y2="34.08"/><line class="cls-8" x1="91.92" y1="39.6" x2="90.72" y2="39.6"/><line class="cls-8" x1="91.92" y1="36.72" x2="91.92" y2="39.6"/><line class="cls-8" x1="92.4" y1="36.72" x2="91.92" y2="36.72"/><line class="cls-8" x1="92.4" y1="35.28" x2="92.4" y2="36.72"/><line class="cls-8" x1="91.92" y1="35.28" x2="92.4" y2="35.28"/><line class="cls-8" x1="91.92" y1="34.08" x2="91.92" y2="35.28"/><line class="cls-8" x1="90.72" y1="34.08" x2="91.92" y2="34.08"/><line class="cls-7" x1="108.96" y1="20.64" x2="108.96" y2="19.2"/><polyline class="cls-7" points="109.68 19.92 108.24 19.92 108.96 20.64 109.68 19.92 108.96 19.2 108.24 19.92"/><line class="cls-7" x1="108.96" y1="21.84" x2="108.96" y2="20.4"/><polyline class="cls-7" points="108.24 21.12 109.68 21.12 108.96 21.84 108.24 21.12 108.96 20.4 109.68 21.12"/></g></g></svg>