<svg xmlns="http://www.w3.org/2000/svg" viewBox="0 0 51.84 62.64"><defs><style>.cls-1{fill:none;stroke:#000;stroke-linecap:round;stroke-linejoin:round;stroke-width:0.48px;}</style></defs><title>Door_Elevation_VPSlider_Sample</title><g id="Layer_2" data-name="Layer 2"><g id="Layer_1-2" data-name="Layer 1"><polyline class="cls-1" points="32.64 34.32 32.88 34.32 33.12 34.32"/><polyline class="cls-1" points="33.12 33.84 32.88 33.84 32.64 33.84"/><line class="cls-1" x1="29.52" y1="34.32" x2="32.64" y2="34.32"/><line class="cls-1" x1="32.64" y1="33.84" x2="29.52" y2="33.84"/><line class="cls-1" x1="29.52" y1="34.08" x2="29.52" y2="33.84"/><polyline class="cls-1" points="29.52 34.32 29.52 34.32 29.52 34.08"/><line class="cls-1" x1="49.92" y1="62.16" x2="35.52" y2="62.16"/><polyline class="cls-1" points="35.52 1.68 35.52 62.16 35.52 1.68"/><line class="cls-1" x1="35.52" y1="62.16" x2="35.52" y2="1.68"/><line class="cls-1" x1="23.04" y1="18.96" x2="22.32" y2="19.92"/><line class="cls-1" x1="23.04" y1="18.96" x2="22.32" y2="18"/><line class="cls-1" x1="23.04" y1="18.96" x2="18.48" y2="18.96"/><line class="cls-1" x1="18.48" y1="30.96" x2="23.76" y2="30.96"/><line class="cls-1" x1="18.48" y1="7.2" x2="23.76" y2="7.2"/><line class="cls-1" x1="18.48" y1="7.2" x2="18.48" y2="10.56"/><line class="cls-1" x1="18.48" y1="16.08" x2="18.48" y2="21.84"/><line class="cls-1" x1="18.48" y1="27.6" x2="18.48" y2="30.96"/><polyline class="cls-1" points="23.76 6.72 30.24 6.72 30.24 31.2 23.76 31.2"/><line class="cls-1" x1="29.52" y1="30.72" x2="29.52" y2="7.2"/><line class="cls-1" x1="24.24" y1="30.72" x2="29.52" y2="30.72"/><line class="cls-1" x1="24.24" y1="7.2" x2="24.24" y2="30.72"/><line class="cls-1" x1="29.52" y1="7.2" x2="24.24" y2="7.2"/><line class="cls-1" x1="23.76" y1="6.72" x2="23.76" y2="31.2"/><polyline class="cls-1" points="35.52 62.16 35.28 62.16 1.68 62.16"/><line class="cls-1" x1="35.28" y1="62.16" x2="35.28" y2="1.68"/><line class="cls-1" x1="35.52" y1="1.68" x2="35.52" y2="62.16"/><line class="cls-1" x1="35.28" y1="1.68" x2="35.28" y2="62.16"/><polyline class="cls-1" points="1.68 62.4 1.2 62.4 0.24 62.4"/><polyline class="cls-1" points="1.2 62.4 1.2 1.2 50.4 1.2 50.4 62.4"/><line class="cls-1" x1="0.24" y1="0.24" x2="0.24" y2="62.4"/><line class="cls-1" x1="50.4" y1="62.4" x2="51.6" y2="62.4"/><line class="cls-1" x1="50.4" y1="62.4" x2="49.92" y2="62.4"/><polyline class="cls-1" points="51.6 62.4 51.6 0.24 0.24 0.24"/><line class="cls-1" x1="1.68" y1="1.68" x2="1.68" y2="62.4"/><line class="cls-1" x1="49.92" y1="1.68" x2="1.68" y2="1.68"/><line class="cls-1" x1="49.92" y1="62.4" x2="49.92" y2="1.68"/><line class="cls-1" x1="50.4" y1="62.4" x2="50.4" y2="1.2"/><line class="cls-1" x1="1.2" y1="1.2" x2="1.2" y2="62.4"/><line class="cls-1" x1="50.4" y1="1.2" x2="1.2" y2="1.2"/><polyline class="cls-1" points="50.4 36.96 50.4 62.4 1.44 62.4 1.44 36.96 50.4 36.96"/></g></g></svg>