<svg xmlns="http://www.w3.org/2000/svg" xmlns:xlink="http://www.w3.org/1999/xlink" viewBox="0 0 148.56 143.28"><defs><style>.cls-1,.cls-2,.cls-7,.cls-8,.cls-9{fill:none;}.cls-1{clip-rule:evenodd;}.cls-3{clip-path:url(#clip-path);}.cls-4{clip-path:url(#clip-path-2);}.cls-5{fill:#fff;}.cls-6{clip-path:url(#clip-path-3);}.cls-7,.cls-8,.cls-9{stroke:#000;stroke-linecap:round;stroke-linejoin:round;}.cls-7{stroke-width:0.24px;}.cls-8{stroke-width:0.96px;}.cls-9{stroke-width:0.48px;}</style><clipPath id="clip-path" transform="translate(-790.53 -218.4)"><path class="cls-1" d="M886,277v.72h52.56V277Zm-95,0v.72h36.72V277Z"/></clipPath><clipPath id="clip-path-2" transform="translate(-790.53 -218.4)"><rect class="cls-2" width="1191.12" height="841.92"/></clipPath><clipPath id="clip-path-3" transform="translate(-790.53 -218.4)"><path class="cls-1" d="M886,271v.72h52.56V271Zm-95,0v.72h36.72V271Z"/></clipPath></defs><title>Doors_AS1428_4</title><g id="Layer_2" data-name="Layer 2"><g id="Layer_1-2" data-name="Layer 1"><g class="cls-3"><g class="cls-4"><polyline class="cls-5" points="0.48 58.56 148.08 58.56 148.08 59.28 0.48 59.28"/></g></g><g class="cls-6"><g class="cls-4"><polyline class="cls-5" points="0.48 52.56 148.08 52.56 148.08 53.28 0.48 53.28"/></g></g><line class="cls-7" x1="35.52" y1="59.28" x2="35.28" y2="58.8"/><line class="cls-7" x1="105.12" y1="52.8" x2="104.88" y2="52.56"/><line class="cls-7" x1="138.48" y1="53.28" x2="138.24" y2="52.56"/><line class="cls-7" x1="124.08" y1="52.8" x2="123.84" y2="53.28"/><line class="cls-7" x1="110.88" y1="52.56" x2="110.64" y2="52.8"/><polyline class="cls-8" points="0.48 59.28 37.2 59.28 37.2 52.56 0.48 52.56 0.48 59.28"/><polyline class="cls-8" points="95.52 59.28 148.08 59.28 148.08 52.56 95.52 52.56 95.52 59.28"/><line class="cls-9" x1="37.2" y1="58.56" x2="0.48" y2="58.56"/><line class="cls-9" x1="148.08" y1="58.56" x2="95.52" y2="58.56"/><line class="cls-9" x1="37.2" y1="53.28" x2="0.48" y2="53.28"/><line class="cls-9" x1="148.08" y1="53.28" x2="95.52" y2="53.28"/><line class="cls-9" x1="37.68" y1="143.04" x2="43.44" y2="143.04"/><line class="cls-9" x1="48.96" y1="143.04" x2="60.48" y2="143.04"/><line class="cls-9" x1="66" y1="143.04" x2="77.28" y2="143.04"/><line class="cls-9" x1="83.04" y1="143.04" x2="94.32" y2="143.04"/><line class="cls-9" x1="100.08" y1="143.04" x2="111.36" y2="143.04"/><polyline class="cls-9" points="117.12 143.04 122.64 143.04 122.64 129.6"/><line class="cls-9" x1="122.64" y1="123.84" x2="122.64" y2="112.56"/><line class="cls-9" x1="122.64" y1="106.8" x2="122.64" y2="95.52"/><line class="cls-9" x1="122.64" y1="89.76" x2="122.64" y2="78.48"/><line class="cls-9" x1="122.64" y1="72.72" x2="122.64" y2="59.28"/><line class="cls-9" x1="37.68" y1="143.04" x2="37.68" y2="129.6"/><line class="cls-9" x1="37.68" y1="123.84" x2="37.68" y2="112.56"/><line class="cls-9" x1="37.68" y1="106.8" x2="37.68" y2="95.52"/><line class="cls-9" x1="37.68" y1="89.76" x2="37.68" y2="78.48"/><line class="cls-9" x1="37.68" y1="72.72" x2="37.68" y2="59.28"/><line class="cls-9" x1="95.04" y1="59.28" x2="95.04" y2="72.72"/><line class="cls-9" x1="95.04" y1="78.48" x2="95.04" y2="89.76"/><line class="cls-9" x1="95.04" y1="95.52" x2="95.04" y2="106.8"/><line class="cls-9" x1="95.04" y1="112.56" x2="95.04" y2="123.84"/><line class="cls-9" x1="95.04" y1="129.6" x2="95.04" y2="143.04"/><line class="cls-9" x1="37.68" y1="59.28" x2="37.68" y2="72.72"/><line class="cls-9" x1="37.68" y1="78.48" x2="37.68" y2="89.76"/><line class="cls-9" x1="37.68" y1="95.52" x2="37.68" y2="106.8"/><line class="cls-9" x1="37.68" y1="112.56" x2="37.68" y2="123.84"/><line class="cls-9" x1="37.68" y1="129.6" x2="37.68" y2="143.04"/><line class="cls-9" x1="68.88" y1="102.48" x2="66.24" y2="101.28"/><line class="cls-9" x1="72.48" y1="104.64" x2="68.88" y2="102.48"/><line class="cls-9" x1="76.08" y1="106.8" x2="72.48" y2="104.64"/><line class="cls-9" x1="72" y1="110.16" x2="72" y2="106.8"/><line class="cls-9" x1="68.64" y1="113.52" x2="72" y2="113.52"/><line class="cls-9" x1="64.56" y1="113.52" x2="68.64" y2="113.52"/><line class="cls-9" x1="60.72" y1="110.16" x2="60.72" y2="113.52"/><line class="cls-9" x1="63.84" y1="102.48" x2="66.24" y2="101.28"/><line class="cls-9" x1="60.24" y1="104.64" x2="63.84" y2="102.48"/><line class="cls-9" x1="72" y1="113.52" x2="72" y2="110.16"/><line class="cls-9" x1="60.72" y1="113.52" x2="64.56" y2="113.52"/><line class="cls-9" x1="60.72" y1="106.8" x2="60.72" y2="110.16"/><line class="cls-9" x1="56.64" y1="106.8" x2="60.72" y2="106.8"/><line class="cls-9" x1="56.64" y1="106.8" x2="60.24" y2="104.64"/><line class="cls-9" x1="76.08" y1="106.8" x2="72" y2="106.8"/><line class="cls-9" x1="42.48" y1="0.24" x2="40.32" y2="0.24"/><line class="cls-9" x1="42.48" y1="52.56" x2="40.32" y2="52.56"/><line class="cls-9" x1="42.48" y1="52.56" x2="42.48" y2="0.24"/><line class="cls-9" x1="40.32" y1="52.56" x2="40.32" y2="0.24"/><polyline class="cls-9" points="92.4 52.56 91.68 43.44 89.28 34.56 85.44 26.4 80.16 18.96 73.68 12.48 66.24 7.2 58.08 3.36 49.2 0.96 40.32 0.24"/><polyline class="cls-9" points="40.08 54.96 40.08 52.56 37.68 52.56 37.68 59.28 40.08 59.28 40.08 57.84 40.8 57.84 40.8 54.96 40.08 54.96"/><polyline class="cls-9" points="92.64 54.96 91.92 54.96 91.92 57.84 92.64 57.84 92.64 59.28 95.04 59.28 95.04 52.56 92.64 52.56 92.64 54.96"/></g></g></svg>