<svg xmlns="http://www.w3.org/2000/svg" viewBox="0 0 51.84 62.64"><defs><style>.cls-1{fill:none;stroke:#000;stroke-linecap:round;stroke-linejoin:round;stroke-width:0.48px;}</style></defs><title>Door_Leaf_SOBS</title><g id="Layer_2" data-name="Layer 2"><g id="Layer_1-2" data-name="Layer 1"><line class="cls-1" x1="32.64" y1="34.56" x2="33.12" y2="34.56"/><polyline class="cls-1" points="33.12 33.84 32.88 33.84 32.64 33.84"/><line class="cls-1" x1="29.76" y1="34.56" x2="32.64" y2="34.56"/><line class="cls-1" x1="32.64" y1="33.84" x2="29.76" y2="33.84"/><polyline class="cls-1" points="29.76 34.08 29.76 34.08 29.76 33.84"/><polyline class="cls-1" points="29.76 34.32 29.76 34.56 29.76 34.32 29.76 34.08"/><line class="cls-1" x1="50.16" y1="62.16" x2="35.76" y2="62.16"/><polyline class="cls-1" points="35.76 1.92 35.76 62.16 35.76 1.92"/><line class="cls-1" x1="35.76" y1="62.16" x2="35.76" y2="1.92"/><polyline class="cls-1" points="23.76 6.72 30.24 6.72 30.24 31.44 23.76 31.44"/><line class="cls-1" x1="29.76" y1="30.96" x2="29.76" y2="7.44"/><line class="cls-1" x1="24.24" y1="30.96" x2="29.76" y2="30.96"/><line class="cls-1" x1="24.24" y1="7.44" x2="24.24" y2="30.96"/><line class="cls-1" x1="29.76" y1="7.44" x2="24.24" y2="7.44"/><line class="cls-1" x1="23.76" y1="6.72" x2="23.76" y2="31.44"/><polyline class="cls-1" points="35.52 62.16 35.52 62.16 1.68 62.16"/><polyline class="cls-1" points="35.52 62.16 35.52 1.92 35.52 62.16"/><line class="cls-1" x1="35.52" y1="1.92" x2="35.52" y2="62.16"/><polyline class="cls-1" points="1.68 62.4 1.44 62.4 0.24 62.4"/><polyline class="cls-1" points="1.44 62.4 1.44 1.44 50.64 1.44 50.64 62.4"/><line class="cls-1" x1="0.24" y1="0.24" x2="0.24" y2="62.4"/><line class="cls-1" x1="50.64" y1="62.4" x2="51.6" y2="62.4"/><line class="cls-1" x1="50.64" y1="62.4" x2="50.16" y2="62.4"/><polyline class="cls-1" points="51.6 62.4 51.6 0.24 0.24 0.24"/><line class="cls-1" x1="1.68" y1="1.92" x2="1.68" y2="62.4"/><line class="cls-1" x1="50.16" y1="1.92" x2="1.68" y2="1.92"/><line class="cls-1" x1="50.16" y1="62.4" x2="50.16" y2="1.92"/><line class="cls-1" x1="50.64" y1="62.4" x2="50.64" y2="1.44"/><line class="cls-1" x1="1.44" y1="1.44" x2="1.44" y2="62.4"/><line class="cls-1" x1="50.64" y1="1.44" x2="1.44" y2="1.44"/><polyline class="cls-1" points="50.4 36.96 50.4 62.4 1.44 62.4 1.44 36.96 50.4 36.96"/></g></g></svg>