<svg xmlns="http://www.w3.org/2000/svg" xmlns:xlink="http://www.w3.org/1999/xlink" viewBox="0 0 60.48 22.92"><defs><style>.cls-1,.cls-2,.cls-6,.cls-7,.cls-8{fill:none;}.cls-1{clip-rule:evenodd;}.cls-3{clip-path:url(#clip-path);}.cls-4{clip-path:url(#clip-path-2);}.cls-5{fill:silver;}.cls-6,.cls-7,.cls-8{stroke:#000;stroke-linecap:round;stroke-linejoin:round;}.cls-6{stroke-width:0.96px;}.cls-7{stroke-width:0.24px;}.cls-8{stroke-width:0.48px;}</style><clipPath id="clip-path" transform="translate(-672.21 -241.32)"><path class="cls-1" d="M721.89,256.32v5.52h10.32v-5.52Zm-49.2,0v5.52h12.24v-5.52Z"/></clipPath><clipPath id="clip-path-2" transform="translate(-672.21 -241.32)"><rect class="cls-2" width="1191.12" height="841.92"/></clipPath></defs><title>Door_Swing_Slider</title><g id="Layer_2" data-name="Layer 2"><g id="Layer_1-2" data-name="Layer 1"><g class="cls-3"><g class="cls-4"><rect class="cls-5" x="0.48" y="15" width="59.52" height="5.52"/></g></g><polyline class="cls-6" points="0.48 20.52 12.72 20.52 12.72 15 0.48 15 0.48 20.52"/><polyline class="cls-6" points="49.68 20.52 60 20.52 60 15 49.68 15 49.68 20.52"/><line class="cls-7" x1="31.2" y1="7.56" x2="34.8" y2="9.72"/><line class="cls-7" x1="31.2" y1="7.56" x2="27.6" y2="9.72"/><line class="cls-7" x1="31.2" y1="13.32" x2="31.2" y2="7.56"/><line class="cls-8" x1="25.44" y1="19.08" x2="36.96" y2="19.08"/><line class="cls-8" x1="29.04" y1="22.68" x2="25.44" y2="19.08"/><line class="cls-8" x1="30.96" y1="22.68" x2="29.04" y2="22.68"/><line class="cls-8" x1="29.04" y1="20.52" x2="30.96" y2="22.68"/><line class="cls-8" x1="36.96" y1="20.52" x2="29.04" y2="20.52"/><line class="cls-8" x1="36.96" y1="19.08" x2="36.96" y2="20.52"/><polyline class="cls-7" points="48 15 48 15.96 14.4 15.96"/><line class="cls-7" x1="14.4" y1="15" x2="48" y2="15"/><line class="cls-8" x1="49.2" y1="20.52" x2="49.2" y2="15"/><line class="cls-8" x1="48.24" y1="20.52" x2="49.2" y2="20.52"/><line class="cls-8" x1="48.24" y1="17.64" x2="48.24" y2="20.52"/><line class="cls-8" x1="47.76" y1="17.64" x2="48.24" y2="17.64"/><line class="cls-8" x1="47.76" y1="16.2" x2="47.76" y2="17.64"/><line class="cls-8" x1="48.24" y1="16.2" x2="47.76" y2="16.2"/><line class="cls-8" x1="48.24" y1="15" x2="48.24" y2="16.2"/><line class="cls-8" x1="49.2" y1="15" x2="48.24" y2="15"/><line class="cls-8" x1="12.96" y1="20.52" x2="12.96" y2="15"/><line class="cls-8" x1="14.16" y1="20.52" x2="12.96" y2="20.52"/><line class="cls-8" x1="14.16" y1="17.64" x2="14.16" y2="20.52"/><line class="cls-8" x1="14.64" y1="17.64" x2="14.16" y2="17.64"/><line class="cls-8" x1="14.64" y1="16.2" x2="14.64" y2="17.64"/><line class="cls-8" x1="14.16" y1="16.2" x2="14.64" y2="16.2"/><line class="cls-8" x1="14.16" y1="15" x2="14.16" y2="16.2"/><line class="cls-8" x1="12.96" y1="15" x2="14.16" y2="15"/><line class="cls-7" x1="31.2" y1="1.56" x2="31.2" y2="0.12"/><polyline class="cls-7" points="31.92 0.84 30.48 0.84 31.2 1.56 31.92 0.84 31.2 0.12 30.48 0.84"/><line class="cls-7" x1="31.2" y1="2.52" x2="31.2" y2="1.32"/><polyline class="cls-7" points="30.48 2.04 31.92 2.04 31.2 2.52 30.48 2.04 31.2 1.32 31.92 2.04"/></g></g></svg>