<svg xmlns="http://www.w3.org/2000/svg" xmlns:xlink="http://www.w3.org/1999/xlink" viewBox="0 0 60.48 40.08"><defs><style>.cls-1,.cls-2,.cls-6,.cls-7,.cls-8{fill:none;}.cls-1{clip-rule:evenodd;}.cls-3{clip-path:url(#clip-path);}.cls-4{clip-path:url(#clip-path-2);}.cls-5{fill:silver;}.cls-6,.cls-7,.cls-8{stroke:#000;stroke-linecap:round;stroke-linejoin:round;}.cls-6{stroke-width:0.96px;}.cls-7{stroke-width:0.24px;}.cls-8{stroke-width:0.48px;}</style><clipPath id="clip-path" transform="translate(-672.21 -551.04)"><path class="cls-1" d="M721.89,585.12v5.52h10.32v-5.52Zm-49.2,0v5.52h12.24v-5.52Z"/></clipPath><clipPath id="clip-path-2" transform="translate(-672.21 -551.04)"><rect class="cls-2" width="1191.12" height="841.92"/></clipPath></defs><title>Door_Swing</title><g id="Layer_2" data-name="Layer 2"><g id="Layer_1-2" data-name="Layer 1"><g class="cls-3"><g class="cls-4"><rect class="cls-5" x="0.48" y="34.08" width="59.52" height="5.52"/></g></g><polyline class="cls-6" points="0.48 39.6 12.72 39.6 12.72 34.08 0.48 34.08 0.48 39.6"/><polyline class="cls-6" points="49.68 39.6 60 39.6 60 34.08 49.68 34.08 49.68 39.6"/><line class="cls-7" x1="31.2" y1="26.64" x2="34.8" y2="28.8"/><line class="cls-7" x1="31.2" y1="26.64" x2="27.6" y2="28.8"/><line class="cls-7" x1="31.2" y1="32.4" x2="31.2" y2="26.64"/><polyline class="cls-7" points="48 34.08 47.28 26.4 44.64 19.44 40.8 12.96 35.28 7.68 29.04 3.6 21.84 1.2 14.4 0.24"/><line class="cls-7" x1="14.4" y1="34.08" x2="14.4" y2="0.24"/><line class="cls-8" x1="15.36" y1="0.24" x2="15.36" y2="34.08"/><line class="cls-8" x1="14.4" y1="0.24" x2="15.36" y2="0.24"/><line class="cls-8" x1="14.4" y1="34.08" x2="15.36" y2="34.08"/><line class="cls-8" x1="14.4" y1="0.24" x2="14.4" y2="34.08"/><line class="cls-8" x1="49.2" y1="39.6" x2="49.2" y2="34.08"/><line class="cls-8" x1="48.24" y1="39.6" x2="49.2" y2="39.6"/><line class="cls-8" x1="48.24" y1="36.72" x2="48.24" y2="39.6"/><line class="cls-8" x1="47.76" y1="36.72" x2="48.24" y2="36.72"/><line class="cls-8" x1="47.76" y1="35.28" x2="47.76" y2="36.72"/><line class="cls-8" x1="48.24" y1="35.28" x2="47.76" y2="35.28"/><line class="cls-8" x1="48.24" y1="34.08" x2="48.24" y2="35.28"/><line class="cls-8" x1="49.2" y1="34.08" x2="48.24" y2="34.08"/><line class="cls-8" x1="12.96" y1="39.6" x2="12.96" y2="34.08"/><line class="cls-8" x1="14.16" y1="39.6" x2="12.96" y2="39.6"/><line class="cls-8" x1="14.16" y1="36.72" x2="14.16" y2="39.6"/><line class="cls-8" x1="14.64" y1="36.72" x2="14.16" y2="36.72"/><line class="cls-8" x1="14.64" y1="35.28" x2="14.64" y2="36.72"/><line class="cls-8" x1="14.16" y1="35.28" x2="14.64" y2="35.28"/><line class="cls-8" x1="14.16" y1="34.08" x2="14.16" y2="35.28"/><line class="cls-8" x1="12.96" y1="34.08" x2="14.16" y2="34.08"/><line class="cls-7" x1="31.2" y1="20.64" x2="31.2" y2="19.2"/><polyline class="cls-7" points="31.92 19.92 30.48 19.92 31.2 20.64 31.92 19.92 31.2 19.2 30.48 19.92"/><line class="cls-7" x1="31.2" y1="21.84" x2="31.2" y2="20.4"/><polyline class="cls-7" points="30.48 21.12 31.92 21.12 31.2 21.84 30.48 21.12 31.2 20.4 31.92 21.12"/></g></g></svg>