<svg xmlns="http://www.w3.org/2000/svg" xmlns:xlink="http://www.w3.org/1999/xlink" viewBox="0 0 141.12 103.92"><defs><style>.cls-1,.cls-2,.cls-7,.cls-8,.cls-9{fill:none;}.cls-1{clip-rule:evenodd;}.cls-3{clip-path:url(#clip-path);}.cls-4{clip-path:url(#clip-path-2);}.cls-5{fill:#fff;}.cls-6{clip-path:url(#clip-path-3);}.cls-7,.cls-8,.cls-9{stroke:#000;stroke-linecap:round;stroke-linejoin:round;}.cls-7{stroke-width:0.24px;}.cls-8{stroke-width:0.96px;}.cls-9{stroke-width:0.48px;}</style><clipPath id="clip-path" transform="translate(-249.57 -401.04)"><path class="cls-1" d="M341,503.52v1h35.52v-1Zm-89.28,0v1h31v-1Z"/></clipPath><clipPath id="clip-path-2" transform="translate(-249.57 -401.04)"><rect class="cls-2" width="1191.12" height="841.92"/></clipPath><clipPath id="clip-path-3" transform="translate(-249.57 -401.04)"><path class="cls-1" d="M341,497.76v.72h35.52v-.72Zm-89.28,0v.72h31v-.72Z"/></clipPath></defs><title>Doors_AS1428_5</title><g id="Layer_2" data-name="Layer 2"><g id="Layer_1-2" data-name="Layer 1"><g class="cls-3"><g class="cls-4"><rect class="cls-5" x="2.16" y="102.48" width="124.8" height="0.96"/></g></g><g class="cls-6"><g class="cls-4"><rect class="cls-5" x="2.16" y="96.72" width="124.8" height="0.72"/></g></g><line class="cls-7" x1="102.24" y1="103.44" x2="102.24" y2="103.2"/><line class="cls-7" x1="31.68" y1="103.2" x2="31.44" y2="103.44"/><line class="cls-7" x1="32.16" y1="97.44" x2="32.16" y2="97.2"/><line class="cls-7" x1="91.92" y1="96.96" x2="91.68" y2="96.72"/><line class="cls-7" x1="8.64" y1="96.72" x2="8.4" y2="97.44"/><polyline class="cls-8" points="2.16 103.44 33.12 103.44 33.12 96.72 2.16 96.72 2.16 103.44"/><polyline class="cls-8" points="91.44 103.44 126.96 103.44 126.96 96.72 91.44 96.72 91.44 103.44"/><line class="cls-9" x1="33.12" y1="102.48" x2="2.16" y2="102.48"/><line class="cls-9" x1="126.96" y1="102.48" x2="91.44" y2="102.48"/><line class="cls-9" x1="33.12" y1="97.44" x2="2.16" y2="97.44"/><line class="cls-9" x1="126.96" y1="97.44" x2="91.44" y2="97.44"/><line class="cls-9" x1="0.24" y1="0.24" x2="8.16" y2="0.24"/><line class="cls-9" x1="13.92" y1="0.24" x2="25.2" y2="0.24"/><line class="cls-9" x1="30.96" y1="0.24" x2="42.24" y2="0.24"/><line class="cls-9" x1="47.76" y1="0.24" x2="59.28" y2="0.24"/><line class="cls-9" x1="64.8" y1="0.24" x2="76.32" y2="0.24"/><line class="cls-9" x1="81.84" y1="0.24" x2="93.12" y2="0.24"/><line class="cls-9" x1="98.88" y1="0.24" x2="110.16" y2="0.24"/><line class="cls-9" x1="115.92" y1="0.24" x2="127.2" y2="0.24"/><polyline class="cls-9" points="132.96 0.24 140.88 0.24 140.88 11.52"/><line class="cls-9" x1="140.88" y1="17.28" x2="140.88" y2="28.56"/><line class="cls-9" x1="140.88" y1="34.32" x2="140.88" y2="45.6"/><line class="cls-9" x1="140.88" y1="51.36" x2="140.88" y2="62.64"/><line class="cls-9" x1="140.88" y1="68.4" x2="140.88" y2="79.68"/><line class="cls-9" x1="140.88" y1="85.2" x2="140.88" y2="96.72"/><line class="cls-9" x1="0.24" y1="0.24" x2="0.24" y2="11.52"/><line class="cls-9" x1="0.24" y1="17.28" x2="0.24" y2="28.56"/><line class="cls-9" x1="0.24" y1="34.32" x2="0.24" y2="45.6"/><line class="cls-9" x1="0.24" y1="51.36" x2="0.24" y2="62.64"/><line class="cls-9" x1="0.24" y1="68.4" x2="0.24" y2="79.68"/><line class="cls-9" x1="0.24" y1="85.2" x2="0.24" y2="96.72"/><line class="cls-9" x1="90.96" y1="96.72" x2="90.96" y2="85.2"/><line class="cls-9" x1="90.96" y1="79.68" x2="90.96" y2="68.4"/><line class="cls-9" x1="90.96" y1="62.64" x2="90.96" y2="51.36"/><line class="cls-9" x1="90.96" y1="45.6" x2="90.96" y2="34.32"/><line class="cls-9" x1="90.96" y1="28.56" x2="90.96" y2="17.28"/><line class="cls-9" x1="90.96" y1="11.52" x2="90.96" y2="0.24"/><line class="cls-9" x1="33.6" y1="96.72" x2="33.6" y2="85.2"/><line class="cls-9" x1="33.6" y1="79.68" x2="33.6" y2="68.4"/><line class="cls-9" x1="33.6" y1="62.64" x2="33.6" y2="51.36"/><line class="cls-9" x1="33.6" y1="45.6" x2="33.6" y2="34.32"/><line class="cls-9" x1="33.6" y1="28.56" x2="33.6" y2="17.28"/><line class="cls-9" x1="33.6" y1="11.52" x2="33.6" y2="0.24"/><line class="cls-9" x1="29.52" y1="26.88" x2="30.72" y2="24.24"/><line class="cls-9" x1="27.36" y1="30.48" x2="29.52" y2="26.88"/><line class="cls-9" x1="25.2" y1="34.08" x2="27.36" y2="30.48"/><line class="cls-9" x1="21.84" y1="30" x2="25.2" y2="30"/><line class="cls-9" x1="18.48" y1="26.64" x2="18.48" y2="30"/><line class="cls-9" x1="18.48" y1="22.56" x2="18.48" y2="26.64"/><line class="cls-9" x1="21.84" y1="18.72" x2="18.48" y2="18.72"/><line class="cls-9" x1="29.52" y1="21.84" x2="30.72" y2="24.24"/><line class="cls-9" x1="27.36" y1="18.24" x2="29.52" y2="21.84"/><line class="cls-9" x1="18.48" y1="30" x2="21.84" y2="30"/><line class="cls-9" x1="18.48" y1="18.72" x2="18.48" y2="22.56"/><line class="cls-9" x1="25.2" y1="18.72" x2="21.84" y2="18.72"/><line class="cls-9" x1="25.2" y1="14.64" x2="25.2" y2="18.72"/><line class="cls-9" x1="25.2" y1="14.64" x2="27.36" y2="18.24"/><line class="cls-9" x1="25.2" y1="34.08" x2="25.2" y2="30"/><line class="cls-9" x1="38.4" y1="44.4" x2="36.24" y2="44.4"/><line class="cls-9" x1="38.4" y1="96.48" x2="36.24" y2="96.48"/><line class="cls-9" x1="38.4" y1="96.48" x2="38.4" y2="44.4"/><line class="cls-9" x1="36.24" y1="96.48" x2="36.24" y2="44.4"/><polyline class="cls-9" points="88.32 96.48 87.6 87.6 85.2 78.72 81.36 70.56 76.08 63.12 69.84 56.64 62.4 51.36 54 47.52 45.36 45.12 36.24 44.4"/><polyline class="cls-9" points="88.8 99.12 87.84 99.12 87.84 102 88.8 102 88.8 103.44 90.96 103.44 90.96 96.72 88.8 96.72 88.8 99.12"/><polyline class="cls-9" points="36 99.12 36 96.72 33.6 96.72 33.6 103.44 36 103.44 36 102 36.72 102 36.72 99.12 36 99.12"/></g></g></svg>