<?xml version="1.0" encoding="UTF-8"?>
<!DOCTYPE svg PUBLIC "-//W3C//DTD SVG 1.1//EN" "http://www.w3.org/Graphics/SVG/1.1/DTD/svg11.dtd">
<svg version="1.2" xmlns="http://www.w3.org/2000/svg" xmlns:xlink="http://www.w3.org/1999/xlink" x="0" y="0" width="482" height="259" viewBox="0 0 482 259">
<style type="text/css"><![CDATA[
text { font:12px Dialog; }
]]></style>
<rect x="-485" y="-485" width="1455" height="1229" style="fill:rgb(255,255,255);stroke:none" />
<clipPath id="clip1"><path d="M15,15 L470,15 L470,244 L15,244 Z M24,16 C19.5817184,16 16,19.5817204 16,24 L16,62 C16,66.4182816 19.5817184,70 24,70 L191,70 C195.4182739,70 199,66.4182816 199,62 L199,24 C199,19.5817204 195.4182739,16 191,16 Z" /></clipPath>
<path d="M107.6849976,79.9998779 L107.6849976,123 L129,123" style="fill:none;stroke:rgb(3,3,3)" clip-path="url(#clip1)" />
<clipPath id="clip2"><path d="M14,14 L471,14 L471,245 L14,245 L14,14 Z" /></clipPath>
<path d="M107.6350021,70 L107.6849976,79.9998779" style="fill:none;stroke:rgb(3,3,3)" clip-path="url(#clip2)" />
<clipPath id="clip3"><path d="M14,14 L202,14 L202,73 L14,73 L14,14 Z" /></clipPath>
<path d="M24,16 C19.5817184,16 16,19.5817204 16,24 L16,62 C16,66.4182816 19.5817184,70 24,70 L191,70 C195.4182739,70 199,66.4182816 199,62 L199,24 C199,19.5817204 195.4182739,16 191,16 Z" style="fill:none;stroke:rgb(3,3,3)" clip-path="url(#clip3)" />
<clipPath id="clip4"><path d="M43,30 L173,30 L173,57 L43,57 L43,30 Z" /></clipPath>
<path d="M57.2983475,42.3325195 C57.2983475,44.2963867 56.9814529,45.7749023 56.3466873,46.7680664 C55.7119217,47.7617188 54.7363358,48.2578125 53.4194412,48.2578125 C52.1567459,48.2578125 51.2002029,47.7509766 50.5488358,46.7363281 C49.8974686,45.722168 49.571785,44.2543945 49.571785,42.3325195 C49.571785,40.3515625 49.8877029,38.8701172 50.5190506,37.8876953 C51.1503983,36.9057617 52.1171951,36.4145508 53.4194412,36.4140625 C54.6943436,36.4145508 55.6596756,36.9272461 56.314949,37.9521484 C56.9707108,38.9775391 57.2983475,40.4375 57.2983475,42.3325195 Z M51.1787186,42.3325195 C51.1787186,43.9423828 51.3598709,45.0981445 51.721199,45.7993164 C52.0825272,46.5014648 52.6489334,46.8520508 53.4194412,46.8515625 C54.2021561,46.8520508 54.7739334,46.4946289 55.1347733,45.7797852 C55.4956131,45.0654297 55.6757889,43.9165039 55.6757889,42.3325195 C55.6757889,40.7514648 55.4956131,39.6054688 55.134285,38.8945313 C54.7734451,38.184082 54.2016678,37.8286133 53.4194412,37.828125 C52.6494217,37.8286133 52.0835037,38.1777344 51.7216873,38.875 C51.3598709,39.5727539 51.1787186,40.7250977 51.1787186,42.3325195 Z M64.3212967,48.1015625 L62.7602615,48.1015625 L62.7602615,39.9667969 C62.7602615,39.296875 62.7807693,38.7211914 62.8212967,38.2392578 C62.9062576,38.3066406 62.8769608,38.4042969 62.7324295,38.5317383 C62.5883865,38.659668 61.9340897,39.1723633 60.7695389,40.0703125 L59.9648514,39.0136719 L63.0317459,36.59375 L64.3212967,36.59375 Z M69.4228592,47.1289063 C69.4228592,46.7480469 69.5151443,46.453125 69.6997147,46.2436523 C69.884285,46.034668 70.1455154,45.9301758 70.4829178,45.9296875 C70.8256912,45.9301758 71.0957108,46.0351563 71.2929764,46.2451172 C71.490242,46.4550781 71.5888748,46.75 71.5888748,47.1289063 C71.5888748,47.5009766 71.4892654,47.7924805 71.2900467,48.003418 C71.0908279,48.2148438 70.821785,48.3203125 70.4829178,48.3203125 C70.1801834,48.3203125 69.9282303,48.2255859 69.7260818,48.0356445 C69.5239334,47.8457031 69.4228592,47.543457 69.4228592,47.1289063 Z M78.1762772,43.6513672 C78.1762772,42.2807617 78.377449,40.996582 78.7788162,39.7988281 C79.1801834,38.6015625 79.77491,37.5332031 80.5625076,36.59375 L82.0419998,36.59375 C81.2978592,37.7304688 80.7426834,38.8808594 80.377449,40.0449219 C80.0122147,41.2099609 79.8291092,42.4067383 79.8291092,43.6357422 C79.8291092,44.8520508 80.0151443,46.0356445 80.3872147,47.1870117 C80.759285,48.3383789 81.3056717,49.4711914 82.0263748,50.5859375 L80.5639725,50.5859375 C79.7700272,49.6669922 79.1733475,48.6201172 78.7744217,47.4443359 C78.3759842,46.2685547 78.1762772,45.0043945 78.1762772,43.6513672 Z M84.2753983,36.59375 L87.5947342,36.59375 C89.1137772,36.5942383 90.2241287,36.8295898 90.9262772,37.2993164 C91.6284256,37.7695313 91.9790115,38.5107422 91.9790115,39.5234375 C91.9790115,40.2246094 91.7817459,40.8051758 91.3862381,41.2661133 C90.9907303,41.7275391 90.4633865,42.0170898 89.8037186,42.1352539 L89.8037186,41.9526367 C91.5044022,42.2436523 92.3544998,43.1801758 92.3544998,44.7612305 C92.3544998,45.809082 91.9995193,46.6279297 91.2885818,47.2172852 C90.5776443,47.8071289 89.5942459,48.1015625 88.3378983,48.1015625 L84.2753983,48.1015625 Z M85.8974686,41.390625 L87.8779373,41.390625 C88.7627029,41.3911133 89.3896561,41.2592773 89.7578201,40.9951172 C90.1264725,40.7314453 90.3105545,40.284668 90.3105545,39.6538086 C90.3105545,39.0849609 90.1040115,38.6723633 89.6909256,38.4160156 C89.2778397,38.1601563 88.5971756,38.0317383 87.6484451,38.03125 L85.8974686,38.03125 Z M85.8974686,42.8046875 L85.8974686,46.6796875 L88.0698318,46.6796875 C88.939949,46.6801758 89.5859451,46.519043 90.0078201,46.1962891 C90.4296951,45.8740234 90.6401443,45.3647461 90.6401443,44.6694336 C90.6401443,44.0317383 90.424324,43.5615234 89.9917068,43.2587891 C89.5590897,42.956543 88.8828201,42.8051758 87.96241,42.8046875 Z M104.0454178,36.59375 L104.0454178,43.9960938 C104.0454178,45.3173828 103.6440506,46.3579102 102.8413162,47.1176758 C102.0385818,47.878418 100.939949,48.2578125 99.5454178,48.2578125 C98.1518631,48.2578125 97.0712967,47.8759766 96.3037186,47.1113281 C95.5366287,46.347168 95.1528397,45.2983398 95.1528397,43.965332 L95.1528397,36.59375 L96.77491,36.59375 L96.77491,44.0581055 C96.77491,44.9536133 97.0141678,45.6352539 97.4917068,46.1030273 C97.9697342,46.5712891 98.6821365,46.8051758 99.6294022,46.8046875 C100.5327225,46.8051758 101.2241287,46.5693359 101.7036209,46.0966797 C102.1831131,45.6245117 102.4228592,44.9399414 102.4228592,44.0424805 L102.4228592,36.59375 Z M107.580574,48.1015625 L107.580574,36.59375 L109.2026443,36.59375 L109.2026443,48.1015625 Z M112.4858475,48.1015625 L112.4858475,36.59375 L114.1084061,36.59375 L114.1084061,46.609375 L119.0473709,46.609375 L119.0473709,48.1015625 Z M130.6137695,42.2407227 C130.6137695,44.1308594 130.0961914,45.5800781 129.0605469,46.5888672 C128.0249023,47.5976563 126.5419998,48.1015625 124.6123123,48.1015625 L121.3535233,48.1015625 L121.3535233,36.59375 L124.9419022,36.59375 C126.7294998,36.5942383 128.121582,37.0927734 129.1186523,38.0888672 C130.1157227,39.0859375 130.6137695,40.4697266 130.6137695,42.2407227 Z M128.9150391,42.2866211 C128.9150391,40.8720703 128.5634766,39.809082 127.8593826,39.0981445 C127.1557693,38.387207 126.1040115,38.0317383 124.7041092,38.03125 L122.9760818,38.03125 L122.9760818,46.6640625 L124.3979568,46.6640625 C125.9091873,46.6645508 127.0400467,46.2983398 127.7900467,45.5654297 C128.5400391,44.8330078 128.9150391,43.7397461 128.9150391,42.2866211 Z M133.6821289,48.1015625 L133.6821289,36.59375 L135.3041992,36.59375 L135.3041992,48.1015625 Z M147.6567383,48.1015625 L145.9208984,48.1015625 L139.7998047,38.7060547 L139.9882813,38.7060547 C140.0703125,39.7216797 140.1108398,40.6801758 140.1108398,41.5820313 L140.1108398,48.1015625 L138.5878906,48.1015625 L138.5878906,36.59375 L140.3027344,36.59375 L146.4086914,45.9516602 L146.2260742,45.9516602 C146.2163086,45.9282227 146.1933594,45.5405273 146.1572266,44.7890625 C146.1210938,44.0380859 146.1083984,43.4985352 146.1186523,43.1708984 L146.1186523,36.59375 L147.6567383,36.59375 Z M156.2480469,41.921875 L160.3754883,41.921875 L160.3754883,47.6391602 C159.690918,47.8579102 159.0424805,48.015625 158.4291992,48.1123047 C157.8164063,48.2094727 157.0981445,48.2578125 156.2739258,48.2578125 C154.5327148,48.2578125 153.1748047,47.7387695 152.2011719,46.6987305 C151.2275391,45.6591797 150.7402344,44.2089844 150.7402344,42.3476563 C150.7402344,41.15625 150.9804688,40.1103516 151.4604492,39.2099609 C151.9404297,38.3100586 152.6333008,37.621582 153.5390625,37.1450195 C154.4448242,36.668457 155.4995117,36.4301758 156.703125,36.4296875 C157.9179688,36.4301758 159.0859375,36.6757813 160.2070313,37.1660156 L159.6230469,38.5498047 C158.5332031,38.1210938 157.5317383,37.9067383 156.6186523,37.90625 C155.3032227,37.9067383 154.2773438,38.296875 153.5419922,39.0761719 C152.8066406,39.8564453 152.4389648,40.9467773 152.4389648,42.3481445 C152.4389648,43.8232422 152.7924805,44.9345703 153.4990234,45.6826172 C154.2055664,46.4311523 155.2504883,46.8051758 156.6342773,46.8046875 C157.3979492,46.8051758 158.1044922,46.7270508 158.7529297,46.5698242 L158.7529297,43.3984375 L156.2480469,43.3984375 Z M166.4282227,43.6513672 C166.4282227,45.0087891 166.2275391,46.2763672 165.8251953,47.4541016 C165.4233398,48.6318359 164.8266602,49.6757813 164.0351563,50.5859375 L162.5776367,50.5859375 C163.2983398,49.4716797 163.8447266,48.3369141 164.2167969,47.1826172 C164.5888672,46.0283203 164.7749023,44.8461914 164.7749023,43.6357422 C164.7749023,42.4125977 164.5922852,41.2177734 164.2260742,40.0507813 C163.8598633,38.8847656 163.3051758,37.7324219 162.5620117,36.59375 L164.0375977,36.59375 C164.831543,37.5400391 165.4287109,38.6137695 165.8286133,39.815918 C166.2285156,41.0185547 166.4282227,42.296875 166.4282227,43.6513672 Z" style="fill:rgb(3,3,3);stroke:none" clip-path="url(#clip4)" />
<clipPath id="clip5"><path d="M128,103 L470,103 L470,244 L128,244 Z M134,104 C131.2385712,104 129,106.2385712 129,109 L129,137 C129,139.7614288 131.2385712,142 134,142 L230,142 C232.7614288,142 235,139.7614288 235,137 L235,109 C235,106.2385712 232.7614288,104 230,104 Z" /></clipPath>
<path d="M182,155 L182,193 L191,193" style="fill:none;stroke:rgb(3,3,3)" clip-path="url(#clip5)" />
<clipPath id="clip6"><path d="M127,102 L471,102 L471,245 L127,245 L127,102 Z" /></clipPath>
<path d="M182,142 L182,155" style="fill:none;stroke:rgb(3,3,3)" clip-path="url(#clip6)" />
<clipPath id="clip7"><path d="M127,102 L238,102 L238,145 L127,145 L127,102 Z" /></clipPath>
<path d="M134,104 C131.2385712,104 129,106.2385712 129,109 L129,137 C129,139.7614288 131.2385712,142 134,142 L230,142 C232.7614288,142 235,139.7614288 235,137 L235,109 C235,106.2385712 232.7614288,104 230,104 Z" style="fill:none;stroke:rgb(3,3,3)" clip-path="url(#clip7)" />
<clipPath id="clip8"><path d="M140,110 L225,110 L225,137 L140,137 L140,110 Z" /></clipPath>
<path d="M153.4702148,122.3325195 C153.4702148,124.2963867 153.1533203,125.7749023 152.5185547,126.7680664 C151.8837891,127.7617188 150.9082031,128.2578125 149.5913086,128.2578125 C148.3286133,128.2578125 147.3720703,127.7509766 146.7207031,126.7363281 C146.0693359,125.722168 145.7436523,124.2543945 145.7436523,122.3325195 C145.7436523,120.3515625 146.0595703,118.8701172 146.690918,117.8876953 C147.3222656,116.9057617 148.2890625,116.4145508 149.5913086,116.4140625 C150.8662109,116.4145508 151.831543,116.9272461 152.4868164,117.9521484 C153.1425781,118.9775391 153.4702148,120.4375 153.4702148,122.3325195 Z M147.3505859,122.3325195 C147.3505859,123.9423828 147.5317383,125.0981445 147.8930664,125.7993164 C148.2543945,126.5014648 148.8208008,126.8520508 149.5913086,126.8515625 C150.3740234,126.8520508 150.9458008,126.4946289 151.3066406,125.7797852 C151.6674805,125.0654297 151.8476563,123.9165039 151.8476563,122.3325195 C151.8476563,120.7514648 151.6674805,119.6054688 151.3061523,118.8945313 C150.9453125,118.184082 150.3735352,117.8286133 149.5913086,117.828125 C148.8212891,117.8286133 148.2553711,118.1777344 147.8935547,118.875 C147.5317383,119.5727539 147.3505859,120.7250977 147.3505859,122.3325195 Z M163.1430664,128.1015625 L155.4624023,128.1015625 L155.4624023,126.7841797 L158.7314453,123.7290039 C159.4404297,122.8583984 159.9345703,122.2333984 160.2138672,121.8540039 C160.4931641,121.4750977 160.7016602,121.1083984 160.8393555,120.7539063 C160.9770508,120.4003906 161.0458984,120.0214844 161.0458984,119.6181641 C161.0458984,119.0673828 160.8798828,118.6313477 160.546875,118.3100586 C160.2143555,117.9892578 159.7485352,117.8286133 159.1494141,117.828125 C158.7094727,117.8286133 158.2885742,117.902832 157.8867188,118.050293 C157.4853516,118.1987305 156.9936523,118.4794922 156.4121094,118.8930664 L155.6079102,117.8491211 C156.706543,116.9033203 157.8818359,116.4301758 159.1342773,116.4296875 C160.2270508,116.4301758 161.0893555,116.715332 161.7211914,117.284668 C162.3530273,117.8544922 162.668457,118.6147461 162.668457,119.565918 C162.668457,120.3012695 162.4643555,121.0253906 162.0551758,121.7382813 C161.6459961,122.4511719 160.8886719,123.3452148 159.7832031,124.4194336 L157.3837891,126.7666016 L157.3837891,126.609375 L163.1430664,126.609375 Z M165.5947266,127.1289063 C165.5947266,126.7480469 165.6870117,126.453125 165.871582,126.2436523 C166.0561523,126.034668 166.3173828,125.9301758 166.6547852,125.9296875 C166.9975586,125.9301758 167.2675781,126.0351563 167.4648438,126.2451172 C167.6621094,126.4550781 167.7607422,126.75 167.7607422,127.1289063 C167.7607422,127.5009766 167.6611328,127.7924805 167.4619141,128.003418 C167.2626953,128.2148438 166.9936523,128.3203125 166.6547852,128.3203125 C166.3520508,128.3203125 166.1000977,128.2255859 165.8979492,128.0356445 C165.6958008,127.8457031 165.5947266,127.543457 165.5947266,127.1289063 Z M174.3481445,123.6513672 C174.3481445,122.2807617 174.5493164,120.996582 174.9506836,119.7988281 C175.3520508,118.6015625 175.9467773,117.5332031 176.734375,116.59375 L178.2138672,116.59375 C177.4697266,117.7304688 176.9145508,118.8808594 176.5493164,120.0449219 C176.184082,121.2099609 176.0009766,122.4067383 176.0009766,123.6357422 C176.0009766,124.8520508 176.1870117,126.0356445 176.559082,127.1870117 C176.9311523,128.3383789 177.4775391,129.4711914 178.1982422,130.5859375 L176.7358398,130.5859375 C175.9418945,129.6669922 175.3452148,128.6201172 174.9462891,127.4443359 C174.5478516,126.2685547 174.3481445,125.0043945 174.3481445,123.6513672 Z M189.2666016,128.1015625 L187.644043,128.1015625 L187.644043,122.8359375 L182.0693359,122.8359375 L182.0693359,128.1015625 L180.4467773,128.1015625 L180.4467773,116.59375 L182.0693359,116.59375 L182.0693359,121.359375 L187.644043,121.359375 L187.644043,116.59375 L189.2666016,116.59375 Z M200.3374023,120.0107422 C200.3374023,121.1933594 199.9335938,122.1030273 199.125,122.7397461 C198.3164063,123.3774414 197.1723633,123.6958008 195.6918945,123.6953125 L194.5385742,123.6953125 L194.5385742,128.1015625 L192.9160156,128.1015625 L192.9160156,116.59375 L195.9755859,116.59375 C198.8837891,116.5942383 200.3374023,117.7333984 200.3374023,120.0107422 Z M194.5385742,122.265625 L195.5463867,122.265625 C196.668457,122.2661133 197.4692383,122.0927734 197.9492188,121.7460938 C198.4291992,121.3999023 198.6689453,120.8417969 198.6689453,120.0722656 C198.6689453,119.3867188 198.4433594,118.8754883 197.9916992,118.5375977 C197.5400391,118.2006836 196.8193359,118.0317383 195.8300781,118.03125 L194.5385742,118.03125 Z M211.9282227,116.59375 L211.9282227,123.9960938 C211.9282227,125.3173828 211.5268555,126.3579102 210.7241211,127.1176758 C209.9213867,127.878418 208.8227539,128.2578125 207.4282227,128.2578125 C206.034668,128.2578125 204.9541016,127.8759766 204.1865234,127.1113281 C203.4194336,126.347168 203.0356445,125.2983398 203.0356445,123.965332 L203.0356445,116.59375 L204.6577148,116.59375 L204.6577148,124.0581055 C204.6577148,124.9536133 204.8969727,125.6352539 205.3745117,126.1030273 C205.8525391,126.5712891 206.5649414,126.8051758 207.512207,126.8046875 C208.4155273,126.8051758 209.1069336,126.5693359 209.5864258,126.0966797 C210.065918,125.6245117 210.3056641,124.9399414 210.3056641,124.0424805 L210.3056641,116.59375 Z M218.2563477,123.6513672 C218.2563477,125.0087891 218.0556641,126.2763672 217.6533203,127.4541016 C217.2514648,128.6318359 216.6547852,129.6757813 215.8632813,130.5859375 L214.4057617,130.5859375 C215.1264648,129.4716797 215.6728516,128.3369141 216.0449219,127.1826172 C216.4169922,126.0283203 216.6030273,124.8461914 216.6030273,123.6357422 C216.6030273,122.4125977 216.4204102,121.2177734 216.0541992,120.0507813 C215.6879883,118.8847656 215.1333008,117.7324219 214.3901367,116.59375 L215.8657227,116.59375 C216.659668,117.5400391 217.2568359,118.6137695 217.6567383,119.815918 C218.0566406,121.0185547 218.2563477,122.296875 218.2563477,123.6513672 Z" style="fill:rgb(3,3,3);stroke:none" clip-path="url(#clip8)" />
<clipPath id="clip9"><path d="M176,143 L189,143 L189,156 L176,156 L176,143 Z" /></clipPath>
<path d="M186.5,149 C186.5,146.5147095 184.4852753,144.5 182,144.5 C179.5147095,144.5 177.5,146.5147095 177.5,149 C177.5,151.4852905 179.5147095,153.5 182,153.5 C184.4852905,153.5 186.5,151.48526 186.5,149 Z" style="fill:rgb(250,250,250);stroke:none" clip-path="url(#clip9)" />
<clipPath id="clip10"><path d="M176,143 L189,143 L189,156 L176,156 L176,143 Z" /></clipPath>
<path d="M186.5,149 C186.5,146.5147095 184.4852753,144.5 182,144.5 C179.5147095,144.5 177.5,146.5147095 177.5,149 C177.5,151.4852905 179.5147095,153.5 182,153.5 C184.4852905,153.5 186.5,151.48526 186.5,149 Z" style="fill:none;stroke:rgb(3,3,3)" clip-path="url(#clip10)" />
<clipPath id="clip11"><path d="M176,143 L189,143 L189,156 L176,156 L176,143 Z" /></clipPath>
<path d="M180,149 L184,149" style="fill:none;stroke:rgb(150,160,200)" clip-path="url(#clip11)" />
<clipPath id="clip12"><path d="M190,163 L470,163 L470,244 L190,244 Z M191,164 L191,192 L413,192 L413,164 Z" /></clipPath>
<path d="M302,205 L302,228 L311,228" style="fill:none;stroke:rgb(3,3,3)" clip-path="url(#clip12)" />
<clipPath id="clip13"><path d="M189,162 L471,162 L471,245 L189,245 L189,162 Z" /></clipPath>
<path d="M302,192 L302,205" style="fill:none;stroke:rgb(3,3,3)" clip-path="url(#clip13)" />
<clipPath id="clip14"><path d="M189,162 L416,162 L416,195 L189,195 L189,162 Z" /></clipPath>
<path d="M191,193 L413,193 Z" style="fill:none;stroke:rgb(3,3,3)" clip-path="url(#clip14)" />
<clipPath id="clip15"><path d="M200,165 L405,165 L405,192 L200,192 L200,165 Z" /></clipPath>
<path d="M210.4609528,177.3085938 C210.4609528,179.2832031 210.1499176,180.7573242 209.527359,181.730957 C208.9052887,182.7050781 207.9531403,183.1914063 206.6718903,183.1914063 C205.4428864,183.1914063 204.5078278,182.6933594 203.8672028,181.6958008 C203.2265778,180.6987305 202.9062653,179.2363281 202.9062653,177.3085938 C202.9062653,175.3193359 203.2163239,173.8432617 203.8359528,172.8793945 C204.4560699,171.9160156 205.4013824,171.434082 206.6718903,171.4335938 C207.9116364,171.434082 208.8530426,171.9370117 209.496109,172.9418945 C210.1396637,173.9472656 210.4609528,175.402832 210.4609528,177.3085938 Z M204.2187653,177.3085938 C204.2187653,178.9707031 204.4140778,180.1801758 204.8047028,180.9379883 C205.1953278,181.6958008 205.8178864,182.074707 206.6718903,182.0742188 C207.5366364,182.074707 208.1631012,181.690918 208.5507965,180.9223633 C208.9389801,180.1542969 209.1328278,178.949707 209.1328278,177.3085938 C209.1328278,175.668457 208.9389801,174.4667969 208.5507965,173.7036133 C208.1631012,172.940918 207.5366364,172.559082 206.6718903,172.5585938 C205.8178864,172.559082 205.1953278,172.9355469 204.8047028,173.6879883 C204.4140778,174.440918 204.2187653,175.6474609 204.2187653,177.3085938 Z M219.3906403,174.3007813 C219.3906403,175.0302734 219.1865387,175.6269531 218.777359,176.090332 C218.3686676,176.5541992 217.7890778,176.8637695 217.0390778,177.0195313 L217.0390778,177.0820313 C217.9560699,177.1972656 218.6357574,177.4887695 219.0781403,177.9575195 C219.5210114,178.4262695 219.7422028,179.0410156 219.7422028,179.8007813 C219.7422028,180.8896484 219.3647614,181.7270508 218.6093903,182.3129883 C217.8545074,182.8989258 216.7812653,183.1914063 215.3906403,183.1914063 C214.7866364,183.1914063 214.2334137,183.1459961 213.730484,183.0546875 C213.2280426,182.9638672 212.7397614,182.8037109 212.2656403,182.5742188 L212.2656403,181.3398438 C212.7607574,181.5849609 213.2881012,181.7714844 213.8476715,181.8989258 C214.4077301,182.0268555 214.9375153,182.090332 215.4375153,182.0898438 C217.4116364,182.090332 218.3984528,181.3168945 218.3984528,179.7695313 C218.3984528,178.3847656 217.3100739,177.6918945 215.1328278,177.6914063 L214.0078278,177.6914063 L214.0078278,176.5742188 L215.1484528,176.5742188 C216.0390778,176.574707 216.7451324,176.378418 217.2656403,175.9848633 C217.7866364,175.5917969 218.0468903,175.0458984 218.0468903,174.3476563 C218.0468903,173.7910156 217.855484,173.3535156 217.4726715,173.0356445 C217.089859,172.7182617 216.5703278,172.559082 215.9140778,172.5585938 C215.4140778,172.559082 214.9428864,172.6269531 214.5000153,172.762207 C214.0576324,172.8979492 213.5522614,173.1474609 212.9843903,173.5117188 L212.3281403,172.6367188 C212.7968903,172.2675781 213.3374176,171.9770508 213.949234,171.7661133 C214.5615387,171.5551758 215.2060699,171.449707 215.8828278,171.4492188 C216.9922028,171.449707 217.8545074,171.7036133 218.4687653,172.2114258 C219.0835114,172.7192383 219.3906403,173.4160156 219.3906403,174.3007813 Z M222.1406403,182.2070313 C222.1406403,181.8583984 222.2202301,181.5942383 222.3789215,181.4145508 C222.5381012,181.2348633 222.7656403,181.1450195 223.0625153,181.1445313 C223.3647614,181.1450195 223.6006012,181.2348633 223.7695465,181.4145508 C223.9389801,181.5942383 224.0234528,181.8583984 224.0234528,182.2070313 C224.0234528,182.5458984 223.9375153,182.8066406 223.7656403,182.9887695 C223.5937653,183.1708984 223.3593903,183.2617188 223.0625153,183.2617188 C222.7968903,183.2617188 222.5771637,183.1801758 222.402359,183.0161133 C222.2280426,182.8520508 222.1406403,182.5825195 222.1406403,182.2070313 Z M230.2578278,178.6523438 C230.2578278,177.2724609 230.4599762,175.980957 230.8632965,174.777832 C231.2671051,173.574707 231.8491364,172.5200195 232.6093903,171.6132813 L233.8750153,171.6132813 C233.1250153,172.6191406 232.5615387,173.7231445 232.183609,174.9262695 C231.8061676,176.1293945 231.6172028,177.3662109 231.6172028,178.6367188 C231.6172028,179.887207 231.8100739,181.1088867 232.1953278,182.3012695 C232.5810699,183.4936523 233.1357574,184.5820313 233.8593903,185.5664063 L232.6093903,185.5664063 C231.8437653,184.6811523 231.2607574,183.6474609 230.8593903,182.465332 C230.4585114,181.2832031 230.2578278,180.012207 230.2578278,178.6523438 Z M237.3906403,183.0351563 L236.0625153,183.0351563 L236.0625153,171.6132813 L242.4297028,171.6132813 L242.4297028,172.7929688 L237.3906403,172.7929688 L237.3906403,176.9726563 L242.1250153,176.9726563 L242.1250153,178.1523438 L237.3906403,178.1523438 Z M253.1953278,171.6132813 L253.1953278,179.0039063 C253.1953278,180.3066406 252.8022614,181.3300781 252.0156403,182.074707 C251.2295074,182.8198242 250.1484528,183.1914063 248.7734528,183.1914063 C247.3984528,183.1914063 246.3349762,182.8168945 245.5820465,182.0668945 C244.8296051,181.3168945 244.4531403,180.2856445 244.4531403,178.9726563 L244.4531403,171.6132813 L245.7812653,171.6132813 L245.7812653,179.0664063 C245.7812653,180.0200195 246.0420074,180.7519531 246.5625153,181.262207 C247.0835114,181.7729492 247.8491364,182.027832 248.8593903,182.0273438 C249.8232574,182.027832 250.5654449,181.7714844 251.0859528,181.2583008 C251.6069489,180.7456055 251.8672028,180.0097656 251.8672028,179.0507813 L251.8672028,171.6132813 Z M265.4921875,183.0351563 L263.9765625,183.0351563 L257.734375,173.4492188 L257.671875,173.4492188 C257.7553711,174.574707 257.796875,175.605957 257.796875,176.5429688 L257.796875,183.0351563 L256.5703125,183.0351563 L256.5703125,171.6132813 L258.0703125,171.6132813 L264.296875,181.1601563 L264.359375,181.1601563 C264.3491211,181.0200195 264.3256836,180.5683594 264.2890625,179.8051758 C264.2529297,179.0424805 264.2397461,178.496582 264.25,178.1679688 L264.25,171.6132813 L265.4921875,171.6132813 Z M273.8828125,172.6367188 C272.6279297,172.637207 271.6367188,173.0551758 270.9101563,173.8911133 C270.1835938,174.7270508 269.8203125,175.871582 269.8203125,177.3242188 C269.8203125,178.8193359 270.1708984,179.9746094 270.8710938,180.7895508 C271.5717773,181.6049805 272.5703125,182.012207 273.8671875,182.0117188 C274.6640625,182.012207 275.5732422,181.8691406 276.59375,181.5820313 L276.59375,182.7460938 C275.8022461,183.0429688 274.8256836,183.1914063 273.6640625,183.1914063 C271.9819336,183.1914063 270.6835938,182.6816406 269.7695313,181.6606445 C268.8554688,180.6401367 268.3984375,179.1894531 268.3984375,177.3085938 C268.3984375,176.1318359 268.6186523,175.1010742 269.0585938,174.215332 C269.4990234,173.3300781 270.1342773,172.6479492 270.9648438,172.168457 C271.7958984,171.6894531 272.7734375,171.449707 273.8984375,171.4492188 C275.0966797,171.449707 276.1435547,171.668457 277.0390625,172.1054688 L276.4765625,173.2460938 C275.6123047,172.840332 274.7475586,172.637207 273.8828125,172.6367188 Z M282.90625,183.0351563 L281.578125,183.0351563 L281.578125,172.7929688 L277.9609375,172.7929688 L277.9609375,171.6132813 L286.5234375,171.6132813 L286.5234375,172.7929688 L282.90625,172.7929688 Z M288.5078125,183.0351563 L288.5078125,171.6132813 L289.8359375,171.6132813 L289.8359375,183.0351563 Z M303.015625,177.3085938 C303.015625,179.137207 302.5537109,180.574707 301.6289063,181.621582 C300.7045898,182.668457 299.4194336,183.1914063 297.7734375,183.1914063 C296.0913086,183.1914063 294.7929688,182.6777344 293.8789063,181.6489258 C292.9648438,180.6206055 292.5078125,179.168457 292.5078125,177.2929688 C292.5078125,175.434082 292.9663086,173.9926758 293.8828125,172.9692383 C294.7998047,171.9458008 296.1015625,171.434082 297.7890625,171.4335938 C299.4296875,171.434082 300.7109375,171.9550781 301.6328125,172.996582 C302.5546875,174.0385742 303.015625,175.4755859 303.015625,177.3085938 Z M293.9140625,177.3085938 C293.9140625,178.855957 294.2436523,180.0292969 294.9023438,180.8286133 C295.5615234,181.628418 296.5185547,182.027832 297.7734375,182.0273438 C299.0390625,182.027832 299.9951172,181.6293945 300.640625,180.8325195 C301.2866211,180.0356445 301.609375,178.8613281 301.609375,177.3085938 C301.609375,175.7724609 301.2880859,174.6074219 300.6445313,173.8129883 C300.0014648,173.019043 299.0498047,172.621582 297.7890625,172.6210938 C296.5234375,172.621582 295.5615234,173.0214844 294.9023438,173.8208008 C294.2436523,174.6206055 293.9140625,175.7832031 293.9140625,177.3085938 Z M314.859375,183.0351563 L313.34375,183.0351563 L307.1015625,173.4492188 L307.0390625,173.4492188 C307.1225586,174.574707 307.1640625,175.605957 307.1640625,176.5429688 L307.1640625,183.0351563 L305.9375,183.0351563 L305.9375,171.6132813 L307.4375,171.6132813 L313.6640625,181.1601563 L313.7265625,181.1601563 C313.7163086,181.0200195 313.6928711,180.5683594 313.65625,179.8051758 C313.6201172,179.0424805 313.6069336,178.496582 313.6171875,178.1679688 L313.6171875,171.6132813 L314.859375,171.6132813 Z M325.5390625,183.0351563 L324.1171875,179.4023438 L319.5390625,179.4023438 L318.1328125,183.0351563 L316.7890625,183.0351563 L321.3046875,171.5664063 L322.421875,171.5664063 L326.9140625,183.0351563 Z M323.703125,178.2070313 L322.375,174.6679688 C322.203125,174.2207031 322.0263672,173.6708984 321.84375,173.0195313 C321.7294922,173.5200195 321.5654297,174.0693359 321.3515625,174.6679688 L320.0078125,178.2070313 Z M328.7890625,183.0351563 L328.7890625,171.6132813 L330.1171875,171.6132813 L330.1171875,181.8320313 L335.15625,181.8320313 L335.15625,183.0351563 Z M346.6484375,177.0507813 L350.53125,177.0507813 L350.53125,182.6054688 C349.9272461,182.7988281 349.3125,182.9443359 348.6875,183.0429688 C348.0625,183.1420898 347.3388672,183.1914063 346.515625,183.1914063 C344.7866211,183.1914063 343.4404297,182.6777344 342.4765625,181.6489258 C341.5131836,180.6206055 341.03125,179.1787109 341.03125,177.3242188 C341.03125,176.137207 341.2695313,175.097168 341.7460938,174.2036133 C342.2226563,173.3105469 342.9091797,172.628418 343.8046875,172.1567383 C344.7006836,171.6855469 345.75,171.449707 346.953125,171.4492188 C348.171875,171.449707 349.3076172,171.6738281 350.359375,172.1210938 L349.84375,173.2929688 C348.8125,172.855957 347.8203125,172.637207 346.8671875,172.6367188 C345.4765625,172.637207 344.390625,173.0512695 343.609375,173.8793945 C342.828125,174.7075195 342.4375,175.855957 342.4375,177.3242188 C342.4375,178.8662109 342.8139648,180.0356445 343.5664063,180.8325195 C344.3193359,181.6293945 345.4248047,182.027832 346.8828125,182.0273438 C347.6748047,182.027832 348.4482422,181.9365234 349.203125,181.7539063 L349.203125,178.2382813 L346.6484375,178.2382813 Z M354.953125,178.2851563 L354.953125,183.0351563 L353.625,183.0351563 L353.625,171.6132813 L356.7578125,171.6132813 C358.1591797,171.6137695 359.1943359,171.8823242 359.8632813,172.418457 C360.5327148,172.9550781 360.8671875,173.762207 360.8671875,174.8398438 C360.8671875,176.3505859 360.1015625,177.371582 358.5703125,177.9023438 L361.671875,183.0351563 L360.1015625,183.0351563 L357.3359375,178.2851563 Z M354.953125,177.1445313 L356.7734375,177.1445313 C357.7109375,177.1450195 358.3984375,176.9589844 358.8359375,176.5864258 C359.2734375,176.2143555 359.4921875,175.6552734 359.4921875,174.9101563 C359.4921875,174.1552734 359.2695313,173.6113281 358.8242188,173.277832 C358.3789063,172.9448242 357.6640625,172.777832 356.6796875,172.7773438 L354.953125,172.7773438 Z M373.7265625,177.3085938 C373.7265625,179.137207 373.2646484,180.574707 372.3398438,181.621582 C371.4155273,182.668457 370.1303711,183.1914063 368.484375,183.1914063 C366.8022461,183.1914063 365.5039063,182.6777344 364.5898438,181.6489258 C363.6757813,180.6206055 363.21875,179.168457 363.21875,177.2929688 C363.21875,175.434082 363.6772461,173.9926758 364.59375,172.9692383 C365.5107422,171.9458008 366.8125,171.434082 368.5,171.4335938 C370.140625,171.434082 371.421875,171.9550781 372.34375,172.996582 C373.265625,174.0385742 373.7265625,175.4755859 373.7265625,177.3085938 Z M364.625,177.3085938 C364.625,178.855957 364.9545898,180.0292969 365.6132813,180.8286133 C366.2724609,181.628418 367.2294922,182.027832 368.484375,182.0273438 C369.75,182.027832 370.7060547,181.6293945 371.3515625,180.8325195 C371.9975586,180.0356445 372.3203125,178.8613281 372.3203125,177.3085938 C372.3203125,175.7724609 371.9990234,174.6074219 371.3554688,173.8129883 C370.7124023,173.019043 369.7607422,172.621582 368.5,172.6210938 C367.234375,172.621582 366.2724609,173.0214844 365.6132813,173.8208008 C364.9545898,174.6206055 364.625,175.7832031 364.625,177.3085938 Z M385.2734375,171.6132813 L385.2734375,179.0039063 C385.2734375,180.3066406 384.8803711,181.3300781 384.09375,182.074707 C383.3076172,182.8198242 382.2265625,183.1914063 380.8515625,183.1914063 C379.4765625,183.1914063 378.4130859,182.8168945 377.6601563,182.0668945 C376.9077148,181.3168945 376.53125,180.2856445 376.53125,178.9726563 L376.53125,171.6132813 L377.859375,171.6132813 L377.859375,179.0664063 C377.859375,180.0200195 378.1201172,180.7519531 378.640625,181.262207 C379.1616211,181.7729492 379.9272461,182.027832 380.9375,182.0273438 C381.9013672,182.027832 382.6435547,181.7714844 383.1640625,181.2583008 C383.6850586,180.7456055 383.9453125,180.0097656 383.9453125,179.0507813 L383.9453125,171.6132813 Z M395.890625,174.9414063 C395.890625,176.0981445 395.4960938,176.987793 394.7070313,177.6098633 C393.9179688,178.2324219 392.7890625,178.543457 391.3203125,178.5429688 L389.9765625,178.5429688 L389.9765625,183.0351563 L388.6484375,183.0351563 L388.6484375,171.6132813 L391.609375,171.6132813 C394.4638672,171.6137695 395.890625,172.7231445 395.890625,174.9414063 Z M389.9765625,177.4023438 L391.171875,177.4023438 C392.3491211,177.402832 393.2006836,177.2128906 393.7265625,176.8325195 C394.2529297,176.4526367 394.515625,175.8427734 394.515625,175.0039063 C394.515625,174.2490234 394.2685547,173.6870117 393.7734375,173.3168945 C393.2788086,172.9472656 392.5078125,172.762207 391.4609375,172.7617188 L389.9765625,172.7617188 Z M401.09375,178.6523438 C401.09375,180.0224609 400.8920898,181.2988281 400.4882813,182.480957 C400.0849609,183.6630859 399.5029297,184.6914063 398.7421875,185.5664063 L397.4921875,185.5664063 C398.2163086,184.5874023 398.7709961,183.5004883 399.15625,182.3051758 C399.5419922,181.1098633 399.734375,179.887207 399.734375,178.6367188 C399.734375,177.3662109 399.5458984,176.1293945 399.1679688,174.9262695 C398.7905273,173.7231445 398.2265625,172.6191406 397.4765625,171.6132813 L398.7421875,171.6132813 C399.5078125,172.5253906 400.0913086,173.5839844 400.4921875,174.7895508 C400.8935547,175.9956055 401.09375,177.2832031 401.09375,178.6523438 Z" style="fill:rgb(127,127,127);stroke:none" clip-path="url(#clip15)" />
<clipPath id="clip16"><path d="M296,193 L309,193 L309,206 L296,206 L296,193 Z" /></clipPath>
<path d="M306.5,198.9999847 C306.5,196.5147095 304.4852905,194.4999847 302,194.4999847 C299.5147095,194.5 297.5,196.5147095 297.5,199 C297.5,201.4852753 299.5147095,203.5 302,203.4999847 C304.4852905,203.4999847 306.5,201.48526 306.5,198.9999847 Z" style="fill:rgb(250,250,250);stroke:none" clip-path="url(#clip16)" />
<clipPath id="clip17"><path d="M296,193 L309,193 L309,206 L296,206 L296,193 Z" /></clipPath>
<path d="M306.5,198.9999847 C306.5,196.5147095 304.4852905,194.4999847 302,194.4999847 C299.5147095,194.5 297.5,196.5147095 297.5,199 C297.5,201.4852753 299.5147095,203.5 302,203.4999847 C304.4852905,203.4999847 306.5,201.48526 306.5,198.9999847 Z" style="fill:none;stroke:rgb(3,3,3)" clip-path="url(#clip17)" />
<clipPath id="clip18"><path d="M296,193 L309,193 L309,206 L296,206 L296,193 Z" /></clipPath>
<path d="M300,199 L304,199" style="fill:none;stroke:rgb(150,160,200)" clip-path="url(#clip18)" />
<clipPath id="clip19"><path d="M309,212 L471,212 L471,245 L309,245 L309,212 Z" /></clipPath>
<path d="M314,214 C312.3431396,214 311,215.3431396 311,217 L311,239 C311,240.6568604 312.3431396,242 314,242 L465,242 C466.6568604,242 468,240.6568604 468,239 L468,217 C468,215.3431396 466.6568604,214 465,214 Z" style="fill:none;stroke:rgb(3,3,3)" clip-path="url(#clip19)" />
<clipPath id="clip20"><path d="M320,215 L460,215 L460,242 L320,242 L320,215 Z" /></clipPath>
<path d="M334.2180176,228.465332 C334.2180176,230.4291992 333.901123,231.9077148 333.2663574,232.9008789 C332.6315918,233.8945313 331.6560059,234.390625 330.3391113,234.390625 C329.076416,234.390625 328.119873,233.8837891 327.4685059,232.8691406 C326.8171387,231.8549805 326.4914551,230.387207 326.4914551,228.465332 C326.4914551,226.484375 326.807373,225.0029297 327.4387207,224.0205078 C328.0700684,223.0385742 329.0368652,222.5473633 330.3391113,222.546875 C331.6140137,222.5473633 332.5793457,223.0600586 333.2346191,224.0849609 C333.8903809,225.1103516 334.2180176,226.5703125 334.2180176,228.465332 Z M328.0983887,228.465332 C328.0983887,230.0751953 328.279541,231.230957 328.6408691,231.9321289 C329.0021973,232.6342773 329.5686035,232.9848633 330.3391113,232.984375 C331.1218262,232.9848633 331.6936035,232.6274414 332.0544434,231.9125977 C332.4152832,231.1982422 332.595459,230.0493164 332.595459,228.465332 C332.595459,226.8842773 332.4152832,225.7382813 332.0539551,225.0273438 C331.6931152,224.3168945 331.1213379,223.9614258 330.3391113,223.9609375 C329.5690918,223.9614258 329.0031738,224.3105469 328.6413574,225.0078125 C328.279541,225.7055664 328.0983887,226.8579102 328.0983887,228.465332 Z M341.2409668,234.234375 L339.6799316,234.234375 L339.6799316,226.0996094 C339.6799316,225.4296875 339.7004395,224.8540039 339.7409668,224.3720703 C339.8259277,224.4394531 339.7966309,224.5371094 339.6520996,224.6645508 C339.5080566,224.7924805 338.8537598,225.3051758 337.689209,226.203125 L336.8845215,225.1464844 L339.951416,222.7265625 L341.2409668,222.7265625 Z M346.3425293,233.2617188 C346.3425293,232.8808594 346.4348145,232.5859375 346.6193848,232.3764648 C346.8039551,232.1674805 347.0651855,232.0629883 347.4025879,232.0625 C347.7453613,232.0629883 348.0153809,232.1679688 348.2126465,232.3779297 C348.4099121,232.5878906 348.5085449,232.8828125 348.5085449,233.2617188 C348.5085449,233.6337891 348.4089355,233.925293 348.2097168,234.1362305 C348.010498,234.3476563 347.7414551,234.453125 347.4025879,234.453125 C347.0998535,234.453125 346.8479004,234.3583984 346.645752,234.168457 C346.4436035,233.9785156 346.3425293,233.6762695 346.3425293,233.2617188 Z M358.3820801,228.465332 C358.3820801,230.4291992 358.0651855,231.9077148 357.4304199,232.9008789 C356.7956543,233.8945313 355.8200684,234.390625 354.5031738,234.390625 C353.2404785,234.390625 352.2839355,233.8837891 351.6325684,232.8691406 C350.9812012,231.8549805 350.6555176,230.387207 350.6555176,228.465332 C350.6555176,226.484375 350.9714355,225.0029297 351.6027832,224.0205078 C352.2341309,223.0385742 353.2009277,222.5473633 354.5031738,222.546875 C355.7780762,222.5473633 356.7434082,223.0600586 357.3986816,224.0849609 C358.0544434,225.1103516 358.3820801,226.5703125 358.3820801,228.465332 Z M352.2624512,228.465332 C352.2624512,230.0751953 352.4436035,231.230957 352.8049316,231.9321289 C353.1662598,232.6342773 353.732666,232.9848633 354.5031738,232.984375 C355.2858887,232.9848633 355.857666,232.6274414 356.2185059,231.9125977 C356.5793457,231.1982422 356.7595215,230.0493164 356.7595215,228.465332 C356.7595215,226.8842773 356.5793457,225.7382813 356.2180176,225.0273438 C355.8571777,224.3168945 355.2854004,223.9614258 354.5031738,223.9609375 C353.7331543,223.9614258 353.1672363,224.3105469 352.8054199,225.0078125 C352.4436035,225.7055664 352.2624512,226.8579102 352.2624512,228.465332 Z M368.0549316,234.234375 L360.3742676,234.234375 L360.3742676,232.9169922 L363.6433105,229.8618164 C364.3522949,228.9912109 364.8464355,228.3662109 365.1257324,227.9868164 C365.4050293,227.6079102 365.6135254,227.2412109 365.7512207,226.8867188 C365.888916,226.5332031 365.9577637,226.1542969 365.9577637,225.7509766 C365.9577637,225.2001953 365.791748,224.7641602 365.4587402,224.4428711 C365.1262207,224.1220703 364.6604004,223.9614258 364.0612793,223.9609375 C363.6213379,223.9614258 363.2004395,224.0356445 362.798584,224.1831055 C362.3972168,224.331543 361.9055176,224.6123047 361.3239746,225.0258789 L360.5197754,223.9819336 C361.6184082,223.0361328 362.7937012,222.5629883 364.0461426,222.5625 C365.138916,222.5629883 366.0012207,222.8481445 366.6330566,223.4174805 C367.2648926,223.9873047 367.5803223,224.7475586 367.5803223,225.6987305 C367.5803223,226.434082 367.3762207,227.1582031 366.967041,227.8710938 C366.5578613,228.5839844 365.8005371,229.4780273 364.6950684,230.5522461 L362.2956543,232.8994141 L362.2956543,232.7421875 L368.0549316,232.7421875 Z M370.5065918,233.2617188 C370.5065918,232.8808594 370.598877,232.5859375 370.7834473,232.3764648 C370.9680176,232.1674805 371.229248,232.0629883 371.5666504,232.0625 C371.9094238,232.0629883 372.1794434,232.1679688 372.376709,232.3779297 C372.5739746,232.5878906 372.6726074,232.8828125 372.6726074,233.2617188 C372.6726074,233.6337891 372.572998,233.925293 372.3737793,234.1362305 C372.1745605,234.3476563 371.9055176,234.453125 371.5666504,234.453125 C371.263916,234.453125 371.0119629,234.3583984 370.8098145,234.168457 C370.607666,233.9785156 370.5065918,233.6762695 370.5065918,233.2617188 Z M379.8347168,234.234375 L378.2736816,234.234375 L378.2736816,226.0996094 C378.2736816,225.4296875 378.2941895,224.8540039 378.3347168,224.3720703 C378.4196777,224.4394531 378.3903809,224.5371094 378.2458496,224.6645508 C378.1018066,224.7924805 377.4475098,225.3051758 376.282959,226.203125 L375.4782715,225.1464844 L378.545166,222.7265625 L379.8347168,222.7265625 Z M392.2189941,234.234375 L384.5383301,234.234375 L384.5383301,232.9169922 L387.807373,229.8618164 C388.5163574,228.9912109 389.010498,228.3662109 389.2897949,227.9868164 C389.5690918,227.6079102 389.7775879,227.2412109 389.9152832,226.8867188 C390.0529785,226.5332031 390.1218262,226.1542969 390.1218262,225.7509766 C390.1218262,225.2001953 389.9558105,224.7641602 389.6228027,224.4428711 C389.2902832,224.1220703 388.8244629,223.9614258 388.2253418,223.9609375 C387.7854004,223.9614258 387.364502,224.0356445 386.9626465,224.1831055 C386.5612793,224.331543 386.0695801,224.6123047 385.4880371,225.0258789 L384.6838379,223.9819336 C385.7824707,223.0361328 386.9577637,222.5629883 388.2102051,222.5625 C389.3029785,222.5629883 390.1652832,222.8481445 390.7971191,223.4174805 C391.4289551,223.9873047 391.7443848,224.7475586 391.7443848,225.6987305 C391.7443848,226.434082 391.5402832,227.1582031 391.1311035,227.8710938 C390.7219238,228.5839844 389.9645996,229.4780273 388.8591309,230.5522461 L386.4597168,232.8994141 L386.4597168,232.7421875 L392.2189941,232.7421875 Z M401.5319824,225.5136719 C401.5319824,226.265625 401.3190918,226.8833008 400.8928223,227.3666992 C400.4665527,227.8500977 399.911377,228.1630859 399.2268066,228.3046875 L399.2268066,228.1040039 C400.0690918,228.2099609 400.7214355,228.5078125 401.1833496,228.9975586 C401.645752,229.487793 401.876709,230.1240234 401.876709,230.9072266 C401.876709,232.0258789 401.489502,232.8862305 400.7141113,233.487793 C399.9387207,234.090332 398.8498535,234.390625 397.4465332,234.390625 C396.8439941,234.390625 396.2902832,234.3452148 395.7854004,234.2539063 C395.2810059,234.1630859 394.7614746,233.9882813 394.2268066,233.7294922 L394.2268066,232.2646484 C394.8537598,232.5117188 395.4348145,232.6958008 395.9694824,232.8173828 C396.5046387,232.9394531 397.0119629,233.0004883 397.4924316,233 C399.3234863,233.0004883 400.2390137,232.2929688 400.2390137,230.8774414 C400.2390137,229.6210938 399.2243652,228.9926758 397.1940918,228.9921875 L395.9348145,228.9921875 L395.9348145,227.5859375 L397.2092285,227.5859375 C398.0471191,227.5864258 398.7038574,227.4067383 399.1799316,227.046875 C399.6564941,226.6875 399.8942871,226.1918945 399.8942871,225.559082 C399.8942871,225.0634766 399.7229004,224.6733398 399.380127,224.3881836 C399.0373535,224.1040039 398.564209,223.9614258 397.9597168,223.9609375 C397.4899902,223.9614258 397.0437012,224.0258789 396.6218262,224.1547852 C396.1999512,224.2841797 395.6760254,224.53125 395.0490723,224.8955078 L394.2883301,223.8544922 C394.8000488,223.4194336 395.3649902,223.0952148 395.9831543,222.8823242 C396.6013184,222.6694336 397.2502441,222.5629883 397.9294434,222.5625 C399.0559082,222.5629883 399.9377441,222.8266602 400.5754395,223.3530273 C401.2131348,223.8803711 401.5319824,224.6005859 401.5319824,225.5136719 Z M410.9968262,229.578125 L410.9968262,234.234375 L409.3742676,234.234375 L409.3742676,222.7265625 L412.6013184,222.7265625 C414.0129395,222.7270508 415.0646973,223.0043945 415.7561035,223.5585938 C416.447998,224.1132813 416.7937012,224.9423828 416.7937012,226.0454102 C416.7937012,227.5996094 416.0432129,228.628418 414.5422363,229.1313477 L417.5827637,234.234375 L415.786377,234.234375 L413.0754395,229.578125 Z M410.9968262,228.1484375 L412.6169434,228.1484375 C413.498291,228.1489258 414.1364746,227.9804688 414.5319824,227.6435547 C414.9274902,227.3071289 415.1252441,226.7973633 415.1252441,226.1142578 C415.1252441,225.4287109 414.9240723,224.9350586 414.520752,224.6328125 C414.1179199,224.3310547 413.4528809,224.1801758 412.5251465,224.1796875 L410.9968262,224.1796875 Z M427.2507324,229.8754883 C427.2507324,231.2822266 426.8913574,232.3862305 426.1721191,233.1879883 C425.4528809,233.9902344 424.4606934,234.390625 423.1950684,234.390625 C422.4133301,234.390625 421.7189941,234.2075195 421.1120605,233.8398438 C420.505127,233.4726563 420.0373535,232.9477539 419.7087402,232.2641602 C419.3806152,231.5810547 419.2160645,230.784668 419.2160645,229.8754883 C419.2160645,228.4677734 419.572998,227.3657227 420.286377,226.5693359 C420.9997559,225.7734375 421.9870605,225.3754883 423.2487793,225.375 C424.4724121,225.3754883 425.4450684,225.7836914 426.1672363,226.5991211 C426.8898926,227.4150391 427.2507324,228.5073242 427.2507324,229.8754883 Z M420.8537598,229.8754883 C420.8537598,230.918457 421.0544434,231.7026367 421.4553223,232.2280273 C421.8562012,232.753418 422.4465332,233.0161133 423.2258301,233.015625 C424.0070801,233.0161133 424.5998535,232.753418 425.005127,232.2275391 C425.4104004,231.7021484 425.6130371,230.918457 425.6130371,229.8754883 C425.6130371,228.8457031 425.4104004,228.0698242 425.0046387,227.5483398 C424.598877,227.0268555 424.0007324,226.7661133 423.2102051,226.765625 C422.4328613,226.7661133 421.8459473,227.0224609 421.4489746,227.5341797 C421.0524902,228.0463867 420.8537598,228.8266602 420.8537598,229.8754883 Z M437.5163574,229.8754883 C437.5163574,231.2822266 437.1569824,232.3862305 436.4377441,233.1879883 C435.7185059,233.9902344 434.7263184,234.390625 433.4606934,234.390625 C432.6789551,234.390625 431.9846191,234.2075195 431.3776855,233.8398438 C430.770752,233.4726563 430.3029785,232.9477539 429.9743652,232.2641602 C429.6462402,231.5810547 429.4816895,230.784668 429.4816895,229.8754883 C429.4816895,228.4677734 429.838623,227.3657227 430.552002,226.5693359 C431.2653809,225.7734375 432.2526855,225.3754883 433.5144043,225.375 C434.7380371,225.3754883 435.7106934,225.7836914 436.4328613,226.5991211 C437.1555176,227.4150391 437.5163574,228.5073242 437.5163574,229.8754883 Z M431.1193848,229.8754883 C431.1193848,230.918457 431.3200684,231.7026367 431.7209473,232.2280273 C432.1218262,232.753418 432.7121582,233.0161133 433.4914551,233.015625 C434.2727051,233.0161133 434.8654785,232.753418 435.270752,232.2275391 C435.6760254,231.7021484 435.8786621,230.918457 435.8786621,229.8754883 C435.8786621,228.8457031 435.6760254,228.0698242 435.2702637,227.5483398 C434.864502,227.0268555 434.2663574,226.7661133 433.4758301,226.765625 C432.6984863,226.7661133 432.1115723,227.0224609 431.7145996,227.5341797 C431.3181152,228.0463867 431.1193848,228.8266602 431.1193848,229.8754883 Z M450.916748,234.234375 L450.916748,228.6166992 C450.916748,227.987793 450.7878418,227.5224609 450.5290527,227.2197266 C450.270752,226.9174805 449.864502,226.7661133 449.310791,226.765625 C448.5720215,226.7661133 448.0275879,226.9765625 447.6779785,227.3964844 C447.3283691,227.8173828 447.1535645,228.4819336 447.1535645,229.3901367 L447.1535645,234.234375 L445.5617676,234.234375 L445.5617676,228.6166992 C445.5617676,227.987793 445.4328613,227.5224609 445.1740723,227.2197266 C444.9157715,226.9174805 444.5070801,226.7661133 443.9484863,226.765625 C443.2072754,226.7661133 442.6647949,226.9873047 442.3215332,227.4296875 C441.9782715,227.8725586 441.8063965,228.6206055 441.8063965,229.6738281 L441.8063965,234.234375 L440.2145996,234.234375 L440.2145996,225.5234375 L441.5432129,225.5234375 L441.7502441,226.6796875 L441.5822754,226.6796875 C441.8059082,226.2988281 442.1496582,225.9858398 442.6125488,225.7416992 C443.0754395,225.4975586 443.5895996,225.3754883 444.1550293,225.375 C445.5393066,225.3754883 446.4333496,225.8510742 446.8366699,226.8022461 L446.6994629,226.8022461 C446.9348145,226.3896484 447.302002,226.0488281 447.802002,225.7792969 C448.302002,225.5102539 448.8684082,225.3754883 449.5021973,225.375 C450.4978027,225.3754883 451.2478027,225.6357422 451.7521973,226.15625 C452.2565918,226.6772461 452.5085449,227.4926758 452.5085449,228.6025391 L452.5085449,234.234375 Z" style="fill:rgb(0,0,0);stroke:none" clip-path="url(#clip20)" />
</svg>
