<?xml version="1.0" encoding="UTF-8"?>
<!DOCTYPE svg PUBLIC "-//W3C//DTD SVG 1.1//EN" "http://www.w3.org/Graphics/SVG/1.1/DTD/svg11.dtd">
<svg version="1.2" xmlns="http://www.w3.org/2000/svg" xmlns:xlink="http://www.w3.org/1999/xlink" x="0" y="0" width="171" height="237" viewBox="0 0 171 237">
<style type="text/css"><![CDATA[
text { font:12px Dialog; }
]]></style>
<rect x="-485" y="-485" width="1141" height="1207" style="fill:rgb(255,255,255);stroke:none" />
<clipPath id="clip1"><path d="M15,15 L156,15 L156,222 L15,222 Z M18,18 L18,87 L116,87 L116,18 Z" /></clipPath>
<path d="M67,97 L67,136 C67,140.4160004 70.5839996,144 75,144 L88,144" style="fill:none;stroke:rgb(3,3,3)" clip-path="url(#clip1)" />
<clipPath id="clip2"><path d="M15,15 L156,15 L156,222 L15,222 Z M18,18 L18,87 L116,87 L116,18 Z" /></clipPath>
<path d="M67,97 L67,191 C67,195.4160004 70.5839996,199 75,199 L88,199" style="fill:none;stroke:rgb(3,3,3)" clip-path="url(#clip2)" />
<clipPath id="clip3"><path d="M14,14 L157,14 L157,223 L14,223 L14,14 Z" /></clipPath>
<path d="M67,87 L67,97" style="fill:none;stroke:rgb(85,142,213)" clip-path="url(#clip3)" />
<clipPath id="clip4"><path d="M14,14 L121,14 L121,92 L14,92 L14,14 Z" /></clipPath>
<path d="M18,18 L18,87 L116,87 L116,18 Z" style="fill:rgb(220,230,242);stroke:none" clip-path="url(#clip4)" />
<clipPath id="clip5"><path d="M14,14 L121,14 L121,92 L14,92 L14,14 Z" /></clipPath>
<path d="M18,18 L18,87 L116,87 L116,18 Z" style="fill:none;stroke:rgb(85,142,213);stroke-width:5" clip-path="url(#clip5)" />
<clipPath id="clip6"><path d="M50,34 L85,34 L85,72 L50,72 L50,34 Z" /></clipPath>
<path d="M61.0429688,61.6308594 L58.6091309,61.6308594 L58.6091309,46.5722656 L53.2888184,46.5722656 L53.2888184,44.3691406 L66.3640137,44.3691406 L66.3640137,46.5722656 L61.0429688,46.5722656 Z M79.1953125,44.3691406 L81.7111816,44.3691406 L75.5859375,61.6308594 L73.3125,61.6308594 L67.2268066,44.3691406 L69.703125,44.3691406 L73.6193848,55.3928223 C74.0661621,56.6481934 74.3430176,57.809082 74.4499512,58.8769531 C74.572998,57.7453613 74.8564453,56.5610352 75.3017578,55.3239746 Z" style="fill:rgb(55,96,146);stroke:none" clip-path="url(#clip6)" />
<clipPath id="clip7"><path d="M86,121 L156,121 L156,168 L86,168 L86,121 Z" /></clipPath>
<path d="M88,123 L88,165 L153,165 L153,123 Z" style="fill:rgb(253,234,218);stroke:none" clip-path="url(#clip7)" />
<clipPath id="clip8"><path d="M86,121 L156,121 L156,168 L86,168 L86,121 Z" /></clipPath>
<path d="M88,123 L88,165 L153,165 L153,123 Z" style="fill:none;stroke:rgb(252,213,181);stroke-width:2" clip-path="url(#clip8)" />
<clipPath id="clip9"><path d="M100,130 L142,130 L142,159 L100,159 L100,130 Z" /></clipPath>
<path d="M109.2399902,144.2219238 L113.3654785,144.2219238 L113.3654785,150.1237793 C112.7237244,150.3292236 112.0705566,150.4838257 111.4064941,150.588623 C110.7424316,150.6939392 109.9735718,150.7463379 109.098877,150.7463379 C107.2618103,150.7463379 105.8314819,150.2005615 104.807373,149.1074524 C103.783783,148.0148621 103.2717285,146.4828491 103.2717285,144.5124512 C103.2717285,143.2512512 103.5249023,142.1462097 104.03125,141.1968079 C104.5375977,140.2479248 105.2670288,139.5231628 106.2185059,139.0220032 C107.1705017,138.5213623 108.2854004,138.2707825 109.5637207,138.2702637 C110.8586426,138.2707825 112.0653687,138.5089111 113.1828613,138.9841309 L112.6350098,140.229248 C111.5393066,139.7649231 110.4851074,139.5325012 109.4724121,139.5319824 C107.994873,139.5325012 106.8410645,139.9724426 106.0109863,140.8523254 C105.1809082,141.7322083 104.7658691,142.9524231 104.7658691,144.5124512 C104.7658691,146.1508179 105.165863,147.3933411 105.965332,148.2400208 C106.7653198,149.0867004 107.9398804,149.5100403 109.4890137,149.5095215 C110.3305054,149.5100403 111.1522827,149.4130249 111.9543457,149.2189941 L111.9543457,145.4836426 L109.2399902,145.4836426 Z M124.3474121,141.9807129 C124.3474121,143.2097473 123.9282227,144.1549988 123.0898438,144.8159485 C122.2514648,145.477417 121.052002,145.8078918 119.4914551,145.807373 L118.0637207,145.807373 L118.0637207,150.5803223 L116.6525879,150.5803223 L116.6525879,138.4445801 L119.798584,138.4445801 C122.8314819,138.4450989 124.3474121,139.6238098 124.3474121,141.9807129 Z M118.0637207,144.595459 L119.3337402,144.595459 C120.5845642,144.5959778 121.4893494,144.394165 122.0480957,143.9900208 C122.6073608,143.5863953 122.8864746,142.9384155 122.8864746,142.0471191 C122.8864746,141.2450562 122.6239624,140.6479187 122.0979004,140.2546692 C121.5723572,139.8619385 120.7531738,139.6653137 119.6408691,139.6647949 L118.0637207,139.6647949 Z M137.7282715,144.4958496 C137.7282715,146.4387512 137.2374878,147.966095 136.2548828,149.0783997 C135.2727966,150.1907043 133.9073181,150.7463379 132.1584473,150.7463379 C130.3711853,150.7463379 128.9916992,150.2005615 128.0205078,149.1074524 C127.0493164,148.0148621 126.5637207,146.4719543 126.5637207,144.479248 C126.5637207,142.5041809 127.0508728,140.9726868 128.0246582,139.8852844 C128.9989624,138.7978821 130.3820801,138.2541809 132.1750488,138.2536621 C133.9182129,138.2541809 135.279541,138.8077393 136.2590332,139.9143372 C137.2385254,141.0214539 137.7282715,142.5482788 137.7282715,144.4958496 Z M128.0578613,144.4958496 C128.0578613,146.1399231 128.4080505,147.3865967 129.1079102,148.2358704 C129.8082886,149.0856628 130.8251343,149.5100403 132.1584473,149.5095215 C133.5031738,149.5100403 134.5189819,149.0867004 135.204834,148.2400208 C135.8912048,147.3933411 136.2341309,146.1456299 136.2341309,144.4958496 C136.2341309,142.8637085 135.8927612,141.6258545 135.2089844,140.7817688 C134.5257263,139.9382019 133.5145874,139.5158997 132.1750488,139.5153809 C130.8303223,139.5158997 129.8082886,139.9407959 129.1079102,140.7900696 C128.4080505,141.6398621 128.0578613,142.8751221 128.0578613,144.4958496 Z" style="fill:rgb(23,55,94);stroke:none" clip-path="url(#clip9)" />
<clipPath id="clip10"><path d="M86,176 L157,176 L157,223 L86,223 L86,176 Z" /></clipPath>
<path d="M88,178 L88,220 L154,220 L154,178 Z" style="fill:rgb(253,234,218);stroke:none" clip-path="url(#clip10)" />
<clipPath id="clip11"><path d="M86,176 L157,176 L157,223 L86,223 L86,176 Z" /></clipPath>
<path d="M88,178 L88,220 L154,220 L154,178 Z" style="fill:none;stroke:rgb(252,213,181);stroke-width:2" clip-path="url(#clip11)" />
<clipPath id="clip12"><path d="M100,185 L143,185 L143,214 L100,214 L100,185 Z" /></clipPath>
<path d="M113.1391602,199.3007813 C113.1391602,201.3043823 112.595459,202.8363953 111.5080566,203.8957825 C110.4206543,204.9556885 108.855957,205.4848633 106.8139648,205.4848633 L103.4521484,205.4848633 L103.4521484,193.3491211 L107.1708984,193.3491211 C109.0582886,193.3496399 110.5244141,193.8725891 111.5703125,194.9184875 C112.6162109,195.964386 113.1391602,197.4253235 113.1391602,199.3007813 Z M111.6450195,199.3505859 C111.6450195,197.7682495 111.2481384,196.5760498 110.4538574,195.773468 C109.6600952,194.971405 108.4798279,194.5698547 106.9135742,194.5693359 L104.8632813,194.5693359 L104.8632813,204.2646484 L106.581543,204.2646484 C108.2640076,204.2651672 109.5283203,203.8516846 110.375,203.0242004 C111.2216797,202.1972351 111.6450195,200.9723511 111.6450195,199.3505859 Z M121.605957,205.4848633 L121.3320313,204.1899414 L121.265625,204.1899414 C120.8121948,204.7606201 120.3598022,205.1466064 119.9084473,205.3484192 C119.4576111,205.5502319 118.8947144,205.6508789 118.2192383,205.6508789 C117.3175659,205.6508789 116.6104431,205.4189758 116.0983887,204.9541321 C115.586853,204.4892883 115.3305664,203.8278198 115.3305664,202.9697266 C115.3305664,201.1331787 116.7998047,200.1702881 119.7382813,200.0810547 L121.2822266,200.03125 L121.2822266,199.4667969 C121.2822266,198.7534485 121.1286621,198.2263489 120.8215332,197.8860168 C120.5144043,197.5456848 120.0236206,197.3755188 119.3481445,197.375 C118.5901794,197.3755188 117.732605,197.6079407 116.7749023,198.0722656 L116.3515625,197.0180664 C116.7998047,196.7752686 117.2911072,196.5843506 117.8249512,196.4458313 C118.359314,196.3078308 118.8947144,196.2383118 119.4311523,196.237793 C120.5159607,196.2383118 121.3195801,196.4790344 121.8425293,196.9604797 C122.3654785,197.441925 122.6269531,198.2138977 122.6269531,199.2758789 L122.6269531,205.4848633 Z M118.4931641,204.5136719 C119.3512573,204.5141907 120.0246582,204.2791748 120.5144043,203.8086243 C121.0041504,203.3385925 121.2490234,202.679718 121.2490234,201.8325195 L121.2490234,201.0107422 L119.8710938,201.0688477 C118.7753906,201.1082764 117.9857788,201.2784424 117.5012207,201.5798645 C117.0171814,201.8818054 116.7749023,202.3502808 116.7749023,202.9863281 C116.7749023,203.4848938 116.9258728,203.8641357 117.2272949,204.124054 C117.5292358,204.384491 117.9510193,204.5141907 118.4931641,204.5136719 Z M128.6865234,204.5136719 C128.9303589,204.5141907 129.1653748,204.4965515 129.3920898,204.4602356 C129.6193237,204.4244385 129.7988281,204.387085 129.9316406,204.3476563 L129.9316406,205.4018555 C129.7822266,205.4744873 129.5622559,205.5336304 129.2717285,205.5803223 C128.9812012,205.627533 128.7197266,205.6508789 128.4873047,205.6508789 C126.7275391,205.6508789 125.8476563,204.7243042 125.8476563,202.8701172 L125.8476563,197.4580078 L124.5444336,197.4580078 L124.5444336,196.7939453 L125.8476563,196.2211914 L126.4287109,194.2788086 L127.2255859,194.2788086 L127.2255859,196.387207 L129.8652344,196.387207 L129.8652344,197.4580078 L127.2255859,197.4580078 L127.2255859,202.8120117 C127.2255859,203.3603821 127.3558044,203.7811279 127.6157227,204.0742493 C127.8761597,204.3678894 128.2330933,204.5141907 128.6865234,204.5136719 Z M137.5268555,205.4848633 L137.2529297,204.1899414 L137.1865234,204.1899414 C136.7330933,204.7606201 136.2807007,205.1466064 135.8293457,205.3484192 C135.3785095,205.5502319 134.8156128,205.6508789 134.1401367,205.6508789 C133.2384644,205.6508789 132.5313416,205.4189758 132.0192871,204.9541321 C131.5077515,204.4892883 131.2514648,203.8278198 131.2514648,202.9697266 C131.2514648,201.1331787 132.7207031,200.1702881 135.6591797,200.0810547 L137.203125,200.03125 L137.203125,199.4667969 C137.203125,198.7534485 137.0495605,198.2263489 136.7424316,197.8860168 C136.4353027,197.5456848 135.944519,197.3755188 135.269043,197.375 C134.5110779,197.3755188 133.6535034,197.6079407 132.6958008,198.0722656 L132.2724609,197.0180664 C132.7207031,196.7752686 133.2120056,196.5843506 133.7458496,196.4458313 C134.2802124,196.3078308 134.8156128,196.2383118 135.3520508,196.237793 C136.4368591,196.2383118 137.2404785,196.4790344 137.7634277,196.9604797 C138.286377,197.441925 138.5478516,198.2138977 138.5478516,199.2758789 L138.5478516,205.4848633 Z M134.4140625,204.5136719 C135.2721558,204.5141907 135.9455566,204.2791748 136.4353027,203.8086243 C136.9250488,203.3385925 137.1699219,202.679718 137.1699219,201.8325195 L137.1699219,201.0107422 L135.7919922,201.0688477 C134.6962891,201.1082764 133.9066772,201.2784424 133.4221191,201.5798645 C132.9380798,201.8818054 132.6958008,202.3502808 132.6958008,202.9863281 C132.6958008,203.4848938 132.8467712,203.8641357 133.1481934,204.124054 C133.4501343,204.384491 133.8719177,204.5141907 134.4140625,204.5136719 Z" style="fill:rgb(23,55,94);stroke:none" clip-path="url(#clip12)" />
</svg>
