<svg id="Layer_1" data-name="Layer 1" xmlns="http://www.w3.org/2000/svg" xmlns:xlink="http://www.w3.org/1999/xlink" viewBox="0 0 18.03 17.31"><defs><style>.cls-1,.cls-2,.cls-3,.cls-8{fill:none;}.cls-1{clip-rule:evenodd;}.cls-2{fill-rule:evenodd;}.cls-4{clip-path:url(#clip-path);}.cls-5{clip-path:url(#clip-path-4);}.cls-6{clip-path:url(#clip-path-5);}.cls-7{fill:#fff;}.cls-8{stroke:#000;stroke-linecap:round;stroke-linejoin:round;stroke-width:0.24px;}.cls-9{font-size:9.77px;font-family:ArialMT, Arial;}</style><clipPath id="clip-path"><path class="cls-1" d="M-772.29-1381l.18,1.26.06.48c.21.49.41,1,.6,1.5l.06.12.12.36c.38.4.72,1,1.08,1.38l.06.12.12.12.06.12.12.06c.36.29.82.64,1.2.9l.12.12.12.06a15.55,15.55,0,0,0,2.16,1l2.16.24.06-.06h.54v-.06h.54v-.06h.54v-.06h.54v-.06h.12v-.06h.12v-.06h.18v-.06h.12v-.06h.12v-.06h.18v-.06h.12v-.06h.12v-.06h.18v-.06h.12v-.06h.12v-.06h.18v-.06h.12v-.06h.18v-.06l.18-.18h.12v-.06l.12-.12h.12v-.06l.12-.12h.12v-.06l.12-.12h.12v-.06l.12-.12h.12v-.06l.12-.12h.12v-.06l.12-.12h.12v-.12a9,9,0,0,0,2.28-5.34l.06-.9h-.06l-.24-1.68a8.34,8.34,0,0,0-7.5-6.06l-.9-.06v.06h-.42v.06h-.42v.06h-.42v.06h-.42v.06h-.18v.06h-.12v.06h-.18v.06h-.12v.06h-.12v.06h-.18v.06h-.12v.06h-.12v.06h-.18v.06h-.12v.06h-.12v.06h-.18v.06H-768v.06h-.12v.06h-.12l-.12.12v.06h-.12l-.12.12v.06h-.12l-.12.12v.06H-769l-.12.12v.06h-.12l-.12.12v.06h-.12l-.12.12v.06h-.12a8.32,8.32,0,0,0-2.34,3.9l-.24,1.68"/></clipPath><clipPath id="clip-path-4"><path class="cls-1" d="M8.56.33,7.3.51,6.82.57c-.49.21-1,.41-1.5.6l-.12.06-.36.12c-.4.38-1,.72-1.38,1.08l-.12.06-.12.12-.12.06L3,2.79c-.29.36-.64.82-.9,1.2L2,4.11,2,4.23a15.55,15.55,0,0,0-1,2.16L.71,8.55l.06.06v.54H.82v.54H.88v.54H.95v.54H1v.12h.06V11h.06v.18h.06v.12h.06v.12H1.3v.18h.06v.12h.06v.12h.06V12h.06v.12H1.6v.12h.06v.18h.06v.12h.06v.18h.06l.18.18v.12h.06l.12.12v.12h.06l.12.12v.12h.06l.12.12v.12h.06l.12.12V14H2.8l.12.12v.12H3l.12.12v.12h.12a9,9,0,0,0,5.34,2.28l.9.06v-.06l1.68-.24A8.34,8.34,0,0,0,17.21,9l.06-.9h-.06V7.71h-.06V7.29h-.06V6.87H17V6.45H17V6.27H16.9V6.15h-.06V6h-.06V5.85h-.06V5.73h-.06V5.55H16.6V5.43h-.06V5.31h-.06V5.13h-.06V5h-.06V4.89H16.3V4.71h-.06V4.59h-.06V4.47h-.06V4.35L16,4.23h-.06V4.11L15.82,4h-.06V3.87l-.12-.12h-.06V3.63l-.12-.12H15.4V3.39l-.12-.12h-.06V3.15L15.1,3H15V2.91A8.32,8.32,0,0,0,11.14.57L9.47.33"/></clipPath><clipPath id="clip-path-5"><rect class="cls-3" x="-2929.16" y="-563.22" width="3370.02" height="2383.98"/></clipPath></defs><title>Tag_Wall_Riser</title><g class="cls-5"><g class="cls-6"><rect class="cls-7" x="0.71" y="0.33" width="16.56" height="16.5"/></g></g><polyline class="cls-8" points="0.7 8.61 0.94 10.77 1.78 12.75 3.1 14.49 4.84 15.75 6.83 16.59 8.98 16.89 11.14 16.59 13.13 15.75 14.8 14.49 16.13 12.75 16.96 10.77 17.27 8.61 16.96 6.45 16.13 4.47 14.8 2.73 13.13 1.41 11.14 0.63 8.98 0.33 6.83 0.63 4.84 1.41 3.1 2.73 1.78 4.47 0.94 6.45 0.7 8.61"/><text class="cls-9" transform="translate(5.62 12.45)">A</text></svg>