<svg xmlns="http://www.w3.org/2000/svg" xmlns:xlink="http://www.w3.org/1999/xlink" viewBox="0 0 48.6 16.32"><defs><style>.cls-1,.cls-2,.cls-6{fill:none;}.cls-1{clip-rule:evenodd;}.cls-3{clip-path:url(#clip-path);}.cls-4{clip-path:url(#clip-path-2);}.cls-5{fill:#fff;}.cls-6{stroke:#000;stroke-linecap:round;stroke-linejoin:round;stroke-width:0.24px;}.cls-7{font-size:9.77px;}.cls-7,.cls-8{font-family:ArialMT, Arial;}.cls-8{font-size:7.79px;}.cls-9{letter-spacing:0em;}.cls-10{letter-spacing:0em;}.cls-11{letter-spacing:-0.01em;}</style><clipPath id="clip-path" transform="translate(-2917.32 -594.27)"><path class="cls-1" d="M2951.88,594.39v16l.36-.18.06-.06c2.17-1.22,4.31-2.5,6.48-3.72l.06-.06.36-.18.06-.06.36-.18c.21-.22.57-.26.78-.48l.36-.18.06-.06c.37-.18.71-.41,1.08-.6l.06-.06.36-.18.06-.06c1-.56,2-1.19,3.06-1.74l.06-.06.24-.12.06-.06-.06-.06-.24-.12-.06-.06-.36-.18c-.21-.22-.57-.26-.78-.48l-.36-.18-.06-.06c-.37-.18-.71-.41-1.08-.6l-.06-.06-.36-.18-.06-.06c-1-.56-2-1.19-3.06-1.74l-.06-.06-.36-.18-.06-.06c-2.17-1.22-4.31-2.51-6.48-3.72l-.06-.06-.24-.12"/></clipPath><clipPath id="clip-path-2" transform="translate(-2917.32 -594.27)"><rect class="cls-2" width="3370.02" height="2383.98"/></clipPath></defs><title>Tag_Wall_LowHeight</title><g id="Layer_2" data-name="Layer 2"><g id="Layer_1-2" data-name="Layer 1"><g class="cls-3"><g class="cls-4"><rect class="cls-5" x="34.56" y="0.12" width="13.92" height="16.02"/></g></g><polyline class="cls-6" points="34.56 0.12 34.56 16.2 48.48 8.16 34.56 0.12"/><text class="cls-7" transform="translate(37.38 11.16)">L</text><rect class="cls-5" y="3.78" width="30.84" height="8.64"/><text class="cls-8" transform="translate(0 10.74)"><tspan class="cls-9">X</tspan><tspan class="cls-10" x="5.22" y="0">XXX</tspan><tspan class="cls-11" x="20.71" y="0">H</tspan><tspan x="26.23" y="0">T</tspan></text></g></g></svg>