<svg xmlns="http://www.w3.org/2000/svg" xmlns:xlink="http://www.w3.org/1999/xlink" viewBox="0 0 15.06 17.4"><defs><style>.cls-1,.cls-2,.cls-6{fill:none;}.cls-1{clip-rule:evenodd;}.cls-3{clip-path:url(#clip-path);}.cls-4{clip-path:url(#clip-path-2);}.cls-5{fill:#fff;}.cls-6{stroke:#000;stroke-linecap:round;stroke-linejoin:round;stroke-width:0.24px;}.cls-7{font-size:9.77px;font-family:ArialMT, Arial;}</style><clipPath id="clip-path" transform="translate(-2934.18 -453.15)"><path class="cls-1" d="M2934.3,453.27v17.1l.36-.18.06-.06.36-.18.06-.06.24-.12.06-.06.36-.18.06-.06.36-.18.06-.06.24-.12.06-.06a12,12,0,0,0,1.14-.66l.36-.18.06-.06.36-.18.06-.06.24-.12.06-.06.36-.18.06-.06.36-.18.06-.06.24-.12.06-.06a11.81,11.81,0,0,0,1.14-.66l.36-.18.06-.06.36-.18.06-.06.24-.12.06-.06a11.81,11.81,0,0,0,1.14-.66l.36-.18.06-.06.36-.18.06-.06.24-.12.06-.06.36-.18.06-.06.36-.18.06-.06.24-.12.06-.06a11.81,11.81,0,0,0,1.14-.66l.36-.18.06-.06.36-.18.06-.06.24-.12.06-.06.36-.18.06-.06.36-.18.06-.06.24-.12.06-.06-.06-.06-.24-.12-.06-.06-.36-.18-.06-.06-.36-.18-.06-.06-.24-.12-.06-.06-.36-.18-.06-.06-.36-.18a11.81,11.81,0,0,0-1.14-.66l-.06-.06-.24-.12-.06-.06-.36-.18-.06-.06-.36-.18-.06-.06-.24-.12-.06-.06-.36-.18-.06-.06-.36-.18a11.81,11.81,0,0,0-1.14-.66l-.06-.06-.24-.12-.06-.06-.36-.18-.06-.06-.36-.18a11.8,11.8,0,0,0-1.14-.66l-.06-.06-.24-.12-.06-.06-.36-.18-.06-.06-.36-.18-.06-.06-.24-.12-.06-.06-.36-.18-.06-.06-.36-.18a12,12,0,0,0-1.14-.66l-.06-.06-.24-.12-.06-.06-.36-.18-.06-.06-.36-.18-.06-.06-.24-.12-.06-.06-.36-.18-.06-.06-.24-.12"/></clipPath><clipPath id="clip-path-2" transform="translate(-2934.18 -453.15)"><rect class="cls-2" width="3370.02" height="2383.98"/></clipPath></defs><title>Tag_Wall_WetAreaLining_Specific</title><g id="Layer_2" data-name="Layer 2"><g id="Layer_1-2" data-name="Layer 1"><g class="cls-3"><g class="cls-4"><rect class="cls-5" x="0.12" y="0.12" width="14.82" height="17.1"/></g></g><polyline class="cls-6" points="0.12 0.12 0.12 17.28 14.94 8.7 0.12 0.12"/><text class="cls-7" transform="translate(0.48 12.54)">W</text></g></g></svg>