<svg xmlns="http://www.w3.org/2000/svg" xmlns:xlink="http://www.w3.org/1999/xlink" viewBox="0 0 148.32 117.84"><defs><style>.cls-1,.cls-2,.cls-7,.cls-8,.cls-9{fill:none;}.cls-1{clip-rule:evenodd;}.cls-3{clip-path:url(#clip-path);}.cls-4{clip-path:url(#clip-path-2);}.cls-5{fill:#fff;}.cls-6{clip-path:url(#clip-path-3);}.cls-7,.cls-8,.cls-9{stroke:#000;stroke-linecap:round;stroke-linejoin:round;}.cls-7{stroke-width:0.24px;}.cls-8{stroke-width:0.96px;}.cls-9{stroke-width:0.48px;}.cls-10{fill-rule:evenodd;}.cls-11,.cls-17{font-size:10.17px;font-family:ArialNarrow, Arial;}.cls-11,.cls-18{letter-spacing:-0.03em;}.cls-12{letter-spacing:-0.01em;}.cls-13{letter-spacing:-0.02em;}.cls-14{letter-spacing:-0.01em;}.cls-15{letter-spacing:-0.01em;}.cls-16{letter-spacing:0em;}</style><clipPath id="clip-path" transform="translate(-422.13 -161.04)"><path class="cls-1" d="M517.65,277v.72H570V277Zm-95,0v.72h36.48V277Z"/></clipPath><clipPath id="clip-path-2" transform="translate(-422.13 -161.04)"><rect class="cls-2" width="1191.12" height="841.92"/></clipPath><clipPath id="clip-path-3" transform="translate(-422.13 -161.04)"><path class="cls-1" d="M517.65,271v.72H570V271Zm-95,0v.72h36.48V271Z"/></clipPath></defs><title>Doors_Tag_External</title><g id="Layer_2" data-name="Layer 2"><g id="Layer_1-2" data-name="Layer 1"><g class="cls-3"><g class="cls-4"><rect class="cls-5" x="0.48" y="115.92" width="147.36" height="0.72"/></g></g><g class="cls-6"><g class="cls-4"><rect class="cls-5" x="0.48" y="109.92" width="147.36" height="0.72"/></g></g><line class="cls-7" x1="24.72" y1="116.4" x2="24.48" y2="115.92"/><line class="cls-7" x1="104.64" y1="116.64" x2="104.4" y2="115.92"/><line class="cls-7" x1="138" y1="116.64" x2="138" y2="116.4"/><line class="cls-7" x1="143.28" y1="115.92" x2="143.28" y2="115.92"/><line class="cls-7" x1="122.88" y1="116.4" x2="122.88" y2="116.64"/><line class="cls-7" x1="30" y1="115.92" x2="29.76" y2="116.64"/><line class="cls-7" x1="127.68" y1="110.16" x2="127.44" y2="109.92"/><line class="cls-7" x1="100.08" y1="109.92" x2="99.6" y2="110.64"/><polyline class="cls-8" points="0.48 116.64 36.96 116.64 36.96 109.92 0.48 109.92 0.48 116.64"/><polyline class="cls-8" points="95.52 116.64 147.84 116.64 147.84 109.92 95.52 109.92 95.52 116.64"/><line class="cls-9" x1="36.96" y1="115.92" x2="0.48" y2="115.92"/><line class="cls-9" x1="147.84" y1="115.92" x2="95.52" y2="115.92"/><line class="cls-9" x1="36.96" y1="110.64" x2="0.48" y2="110.64"/><line class="cls-9" x1="147.84" y1="110.64" x2="95.52" y2="110.64"/><line class="cls-9" x1="42.48" y1="57.6" x2="40.08" y2="57.6"/><line class="cls-9" x1="42.48" y1="109.92" x2="40.08" y2="109.92"/><line class="cls-9" x1="42.48" y1="109.92" x2="42.48" y2="57.6"/><line class="cls-9" x1="40.08" y1="109.92" x2="40.08" y2="57.6"/><polyline class="cls-9" points="92.4 109.92 91.44 100.8 89.04 91.92 85.2 83.76 80.16 76.32 73.68 69.84 66.24 64.56 58.08 60.72 49.2 58.32 40.08 57.6"/><polyline class="cls-9" points="92.64 112.32 91.68 112.32 91.68 115.2 92.64 115.2 92.64 116.64 94.8 116.64 94.8 109.92 92.64 109.92 92.64 112.32"/><polyline class="cls-9" points="39.84 112.32 39.84 109.92 37.68 109.92 37.68 116.64 39.84 116.64 39.84 115.2 40.8 115.2 40.8 112.32 39.84 112.32"/><path class="cls-10" d="M492.93,274.08a4.72,4.72,0,0,1-4.56,4.56,4.51,4.51,0,0,1-4.32-4.56,4.36,4.36,0,0,1,4.32-4.56A4.56,4.56,0,0,1,492.93,274.08Z" transform="translate(-422.13 -161.04)"/><path class="cls-9" d="M492.93,274.08a4.72,4.72,0,0,1-4.56,4.56,4.51,4.51,0,0,1-4.32-4.56,4.36,4.36,0,0,1,4.32-4.56A4.56,4.56,0,0,1,492.93,274.08Z" transform="translate(-422.13 -161.04)"/><line class="cls-9" x1="66.24" y1="113.28" x2="66.24" y2="23.28"/><path class="cls-9" d="M505.17,161.28a11.42,11.42,0,0,1,11.28,11.28,11.59,11.59,0,0,1-11.28,11.28" transform="translate(-422.13 -161.04)"/><path class="cls-9" d="M471.57,183.84a11.42,11.42,0,0,1-11.28-11.28,11.12,11.12,0,0,1,11.28-11.28" transform="translate(-422.13 -161.04)"/><line class="cls-9" x1="49.44" y1="23.04" x2="83.04" y2="23.04"/><line class="cls-9" x1="38.16" y1="11.76" x2="94.32" y2="11.76"/><line class="cls-9" x1="49.44" y1="0.24" x2="83.04" y2="0.24"/><text class="cls-11" transform="translate(50.4 9.12)">1<tspan class="cls-12" x="4.32" y="0">2</tspan><tspan class="cls-13" x="8.89" y="0">.</tspan><tspan class="cls-12" x="11.06" y="0">12</tspan><tspan class="cls-14" x="20.2" y="0">.</tspan><tspan class="cls-15" x="22.36" y="0">1</tspan><tspan class="cls-16" x="26.93" y="0">2</tspan></text><text class="cls-17" transform="translate(59.52 20.4)"><tspan class="cls-18">d</tspan><tspan class="cls-12" x="4.32" y="0">0</tspan><tspan x="8.89" y="0">1</tspan></text></g></g></svg>