<?xml version="1.0" encoding="utf-8"?>
<svg viewBox="0 96.3370132446289 127.17916107177734 103.46717071533203" xmlns="http://www.w3.org/2000/svg">
  <defs>
    <style>.cls-1,.cls-12,.cls-13,.cls-2{fill:none;}.cls-1{clip-rule:evenodd;}.cls-3{fill:#fff;}.cls-4{clip-path:url(#clip-path);}.cls-5{clip-path:url(#clip-path-2);}.cls-6{clip-path:url(#clip-path-3);}.cls-7{clip-path:url(#clip-path-5);}.cls-8{clip-path:url(#clip-path-7);}.cls-9{clip-path:url(#clip-path-9);}.cls-10{clip-path:url(#clip-path-11);}.cls-11{clip-path:url(#clip-path-13);}.cls-12,.cls-13{stroke:#000;stroke-linecap:round;stroke-linejoin:round;}.cls-12{stroke-width:0.24px;}.cls-13{stroke-width:0.96px;}.cls-14{font-size:7.95px;}.cls-14,.cls-19,.cls-29{font-family:ArialNarrow, Arial;}.cls-15{letter-spacing:-0.02em;}.cls-16{letter-spacing:0em;}.cls-17{letter-spacing:-0.01em;}.cls-18{letter-spacing:-0.01em;}.cls-19,.cls-29{font-size:9.91px;}.cls-20{letter-spacing:-0.01em;}.cls-21{letter-spacing:-0.01em;}.cls-22{letter-spacing:-0.01em;}.cls-23{letter-spacing:-0.01em;}.cls-24{clip-path:url(#clip-path-15);}.cls-25{font-size:9.77px;font-family:ArialMT, Arial;}.cls-26{clip-path:url(#clip-path-17);}.cls-27{letter-spacing:-0.01em;}.cls-28{fill-rule:evenodd;}.cls-29{letter-spacing:-0.01em;}.cls-30{letter-spacing:6.5em;}.cls-31{letter-spacing:-0.01em;}.cls-32{letter-spacing:0em;}</style>
  </defs>
  <title>Tag_WetArea_Sample</title>
  <rect class="cls-3" x="46.78" y="206.58" width="47.52" height="0.36" transform="matrix(0, 1, -1, 0, 211.552505, 83.587479)"/>
  <rect class="cls-3" x="49.78" y="203.58" width="41.52" height="0.36" transform="matrix(0, 1, -1, 0, 211.552505, 83.587476)"/>
  <rect class="cls-3" x="49.42" y="203.94" width="44.52" height="2.64" transform="matrix(0, 1, -1, 0, 211.552505, 83.587526)"/>
  <rect class="cls-3" x="49.78" y="130.02" width="33.48" height="0.36" transform="matrix(0, 1, -1, 0, 211.552505, 83.587471)"/>
  <rect class="cls-3" x="49.78" y="127.08" width="33.48" height="0.36" transform="matrix(0, 1, -1, 0, 211.552505, 83.587471)"/>
  <rect class="cls-3" x="49.42" y="127.44" width="34.26" height="2.58" transform="matrix(0, 1, -1, 0, 211.552505, 83.587531)"/>
  <rect class="cls-3" x="93.94" y="130.02" width="0.36" height="76.56" transform="matrix(0, 1.000042, -1, 0, 211.552505, 83.583512)"/>
  <rect class="cls-3" x="90.94" y="130.38" width="0.36" height="73.2" transform="matrix(0, 1.000042, -1, 0, 211.552505, 83.583639)"/>
  <rect class="cls-3" x="91.3" y="130.02" width="2.64" height="73.92" transform="matrix(0, 0.999994, -1, 0, 211.552505, 83.588037)"/>
  <rect class="cls-3" x="46.42" y="134.04" width="3.36" height="30.66" transform="matrix(0, 0.999995, -1, 0, 211.552505, 83.58772)"/>
  <rect class="cls-3" x="83.26" y="28.86" width="0.42" height="98.58"/>
  <rect class="cls-3" x="95.38" y="107.04" width="0.36" height="20.04" transform="matrix(0, 1, -1, 0, 211.552505, 83.587502)"/>
  <rect class="cls-3" x="92.38" y="109.98" width="0.36" height="17.1" transform="matrix(0, 1, -1, 0, 211.552505, 83.587502)"/>
  <rect class="cls-3" x="92.74" y="109.62" width="2.64" height="17.82" transform="matrix(0, 1, -1, 0, 211.552505, 83.587502)"/>
  <rect class="cls-3" x="94.3" y="130.02" width="113.04" height="0.36"/>
  <rect class="cls-3" x="83.26" y="130.02" width="8.04" height="0.36" transform="matrix(0, 1.000001, -1, 0, 211.552505, 83.587423)"/>
  <rect class="cls-3" x="86.26" y="127.08" width="6.48" height="0.36" transform="matrix(0, 1.000001, -1, 0, 211.552505, 83.5874)"/>
  <rect class="cls-3" x="83.68" y="127.44" width="10.26" height="2.58" transform="matrix(0, 0.999999, -1, 0, 211.552505, 83.587564)"/>
  <rect class="cls-3" x="46.42" y="0.72" width="0.36" height="206.22"/>
  <rect class="cls-3" x="49.42" y="0.72" width="0.36" height="203.22"/>
  <line class="cls-12" x1="8.003" y1="168.857" x2="7.763" y2="169.037" transform="matrix(0, 1, -1, 0, 176.829999, 161.063996)"/>
  <line class="cls-12" x1="84.293" y1="135.348" x2="84.293" y2="134.988" transform="matrix(0, 1, -1, 0, 219.460994, 50.875002)"/>
  <line class="cls-12" x1="84.292" y1="152.628" x2="84.292" y2="152.268" transform="matrix(0, 1, -1, 0, 236.739993, 68.156011)"/>
  <line class="cls-12" x1="44.663" y1="174.617" x2="44.303" y2="174.797" transform="matrix(0, 1, -1, 0, 219.190011, 130.223998)"/>
  <line class="cls-12" x1="84.293" y1="175.668" x2="84.293" y2="175.307" transform="matrix(0, 1, -1, 0, 259.780498, 91.194506)"/>
  <line class="cls-12" x1="84.113" y1="175.907" x2="84.173" y2="175.967" transform="matrix(0, 1, -1, 0, 260.080002, 91.79399)"/>
  <line class="cls-13" x1="-17.648" y1="155.628" x2="26.872" y2="155.628" transform="matrix(0, 1, -1, 0, 160.240003, 151.016003)"/>
  <polyline class="cls-13" points="6.292 179.568 6.292 179.208 6.292 176.208" transform="matrix(0, 1, -1, 0, 184.180007, 171.596014)"/>
  <line class="cls-13" x1="28.553" y1="153.947" x2="-12.607" y2="153.947" transform="matrix(0, 1, -1, 0, 161.919999, 145.974005)"/>
  <line class="cls-12" x1="27.053" y1="155.447" x2="-17.107" y2="155.447" transform="matrix(0, 1, -1, 0, 160.420003, 150.47401)"/>
  <polyline class="cls-12" points="6.473 131.867 6.113 131.867 3.473 131.867" transform="matrix(0, 1, -1, 0, 136.84, 126.894007)"/>
  <line class="cls-12" x1="28.373" y1="154.128" x2="-13.148" y2="154.128" transform="matrix(0, 1, -1, 0, 161.740502, 146.515495)"/>
  <line class="cls-12" x1="7.793" y1="133.188" x2="7.433" y2="133.188" transform="matrix(0, 1, -1, 0, 140.801001, 125.575007)"/>
  <line class="cls-13" x1="64.432" y1="150.108" x2="97.912" y2="150.108" transform="matrix(0, 1, -1, 0, 231.280001, 68.936015)"/>
  <line class="cls-13" x1="101.213" y1="150.108" x2="67.732" y2="150.108" transform="matrix(0, 1, -1, 0, 234.58052, 65.635496)"/>
  <line class="cls-12" x1="98.272" y1="150.108" x2="64.792" y2="150.108" transform="matrix(0, 1, -1, 0, 231.640002, 68.576014)"/>
  <line class="cls-12" x1="81.323" y1="167.058" x2="81.743" y2="167.058" transform="matrix(0, 1, -1, 0, 248.590994, 85.524997)"/>
  <line class="cls-12" x1="83.903" y1="167.058" x2="84.323" y2="167.058" transform="matrix(0, 1, -1, 0, 251.171, 82.944991)"/>
  <line class="cls-12" x1="100.853" y1="150.108" x2="67.372" y2="150.108" transform="matrix(0, 1, -1, 0, 234.220519, 65.995497)"/>
  <line class="cls-12" x1="84.293" y1="133.188" x2="83.933" y2="133.188" transform="matrix(0, 1, -1, 0, 217.301009, 49.075)"/>
  <line class="cls-12" x1="81.713" y1="133.188" x2="81.353" y2="133.188" transform="matrix(0, 1, -1, 0, 214.721003, 51.655006)"/>
  <line class="cls-13" x1="44.572" y1="214.488" x2="44.572" y2="141.288" transform="matrix(0, 1, -1, 0, 222.460017, 133.316004)"/>
  <line class="cls-13" x1="44.573" y1="137.927" x2="44.573" y2="211.127" transform="matrix(0, 1, -1, 0, 219.099989, 129.954002)"/>
  <line class="cls-12" x1="81.353" y1="177.347" x2="81.353" y2="177.707" transform="matrix(0, 1, -1, 0, 258.879995, 96.174016)"/>
  <line class="cls-12" x1="44.573" y1="140.927" x2="44.573" y2="214.128" transform="matrix(0, 1, -1, 0, 222.100492, 132.954506)"/>
  <polyline class="cls-12" points="6.473 176.027 6.473 176.388 6.473 179.027" transform="matrix(0, 1, -1, 0, 184.000007, 171.054004)"/>
  <line class="cls-12" x1="81.352" y1="174.708" x2="81.352" y2="175.068" transform="matrix(0, 1, -1, 0, 256.240003, 93.535998)"/>
  <line class="cls-12" x1="44.572" y1="138.288" x2="44.572" y2="211.488" transform="matrix(0, 1, -1, 0, 219.460007, 130.315995)"/>
  <line class="cls-12" x1="7.792" y1="174.708" x2="7.792" y2="175.068" transform="matrix(0, 1, -1, 0, 182.680002, 167.096)"/>
  <line class="cls-12" x1="75.652" y1="102.468" x2="75.652" y2="101.388" transform="matrix(0, 1, -1, 0, 177.580001, 26.276005)"/>
  <line class="cls-12" x1="75.653" y1="130.548" x2="75.653" y2="129.467" transform="matrix(0, 1, -1, 0, 205.660513, 54.354507)"/>
  <line class="cls-12" x1="89.153" y1="115.967" x2="61.073" y2="115.967" transform="matrix(0, 1, -1, 0, 191.079992, 40.854005)"/>
  <line class="cls-12" x1="90.233" y1="115.967" x2="62.153" y2="115.967" transform="matrix(0, 1, -1, 0, 192.159993, 39.774004)"/>
  <polyline class="cls-12" points="70.372 125.928 66.952 125.747 63.653 125.148 60.412 124.128 57.293 122.747 54.412 120.947 51.772 118.908 49.373 116.508 47.272 113.807 45.533 110.928 44.092 107.807" transform="matrix(0, 1, -1, 0, 174.099509, 59.635495)"/>
  <line class="cls-12" x1="68.393" y1="104.868" x2="67.433" y2="101.628" transform="matrix(0, 1, -1, 0, 171.161001, 35.334997)"/>
  <polyline class="cls-12" points="73.283 105.678 72.623 102.378 72.443 99.018" transform="matrix(0, 1, -1, 0, 175.211011, 29.485003)"/>
  <line class="cls-13" x1="76.162" y1="131.478" x2="76.162" y2="131.057" transform="matrix(0, 1, -1, 0, 207.429509, 55.105496)"/>
  <line class="cls-13" x1="76.673" y1="131.988" x2="75.233" y2="131.988" transform="matrix(0, 1, -1, 0, 207.941015, 56.035014)"/>
  <line class="cls-13" x1="76.162" y1="132.497" x2="76.162" y2="132.918" transform="matrix(0, 1, -1, 0, 208.869493, 56.545481)"/>
  <line class="cls-13" x1="76.703" y1="133.038" x2="76.043" y2="133.038" transform="matrix(0, 1, -1, 0, 209.411001, 56.664993)"/>
  <line class="cls-13" x1="76.943" y1="132.798" x2="76.943" y2="133.938" transform="matrix(0, 1, -1, 0, 210.311011, 56.425016)"/>
  <line class="cls-13" x1="75.833" y1="131.688" x2="79.193" y2="131.688" transform="matrix(0, 1, -1, 0, 209.201008, 54.174991)"/>
  <line class="cls-13" x1="76.943" y1="130.577" x2="76.943" y2="129.438" transform="matrix(0, 1, -1, 0, 206.950507, 53.064513)"/>
  <line class="cls-13" x1="77.003" y1="130.637" x2="75.743" y2="130.637" transform="matrix(0, 1, -1, 0, 207.009999, 54.263991)"/>
  <line class="cls-13" x1="47.363" y1="130.638" x2="48.623" y2="130.638" transform="matrix(0, 1, -1, 0, 178.631006, 82.644993)"/>
  <line class="cls-13" x1="47.423" y1="130.577" x2="47.423" y2="129.437" transform="matrix(0, 1, -1, 0, 177.429976, 82.583986)"/>
  <line class="cls-13" x1="48.533" y1="131.688" x2="45.173" y2="131.688" transform="matrix(0, 1, -1, 0, 178.541002, 84.834997)"/>
  <line class="cls-13" x1="47.423" y1="132.798" x2="47.423" y2="133.938" transform="matrix(0, 1, -1, 0, 180.791009, 85.945018)"/>
  <line class="cls-13" x1="47.663" y1="133.038" x2="48.323" y2="133.038" transform="matrix(0, 1, -1, 0, 181.031003, 85.04499)"/>
  <line class="cls-13" x1="48.203" y1="132.497" x2="48.203" y2="132.917" transform="matrix(0, 1, -1, 0, 180.909992, 84.503994)"/>
  <line class="cls-13" x1="47.692" y1="131.987" x2="49.132" y2="131.987" transform="matrix(0, 1, -1, 0, 180.398997, 83.574987)"/>
  <line class="cls-13" x1="48.203" y1="131.478" x2="48.203" y2="131.057" transform="matrix(0, 1, -1, 0, 179.470502, 83.064503)"/>
  <line class="cls-13" x1="93.022" y1="178.758" x2="93.022" y2="161.658" transform="matrix(0, 1, -1, 0, 263.230019, 77.186006)"/>
  <line class="cls-13" x1="93.94" y1="157.38" x2="93.94" y2="176.314" transform="matrix(0, 1, -1, 0, 260.786994, 72.907001)"/>
  <line class="cls-12" x1="93.202" y1="161.117" x2="93.202" y2="178.577" transform="matrix(0, 1, -1, 0, 263.049006, 76.645009)"/>
  <line class="cls-12" x1="84.292" y1="167.448" x2="84.292" y2="167.088" transform="matrix(0, 1, -1, 0, 251.559997, 82.976015)"/>
  <line class="cls-12" x1="94.269" y1="157.471" x2="94.269" y2="177.065" transform="matrix(0, 1, -1, 0, 261.536997, 72.999015)"/>
  <line class="cls-12" x1="84.293" y1="170.027" x2="84.293" y2="169.667" transform="matrix(0, 1, -1, 0, 254.140004, 85.554011)"/>
  <line class="cls-13" x1="93.023" y1="187.877" x2="93.023" y2="170.777" transform="matrix(0, 1, -1, 0, 272.349984, 86.303996)"/>
  <line class="cls-13" x1="93.023" y1="167.417" x2="93.023" y2="184.517" transform="matrix(0, 1, -1, 0, 268.989991, 82.944004)"/>
  <polyline class="cls-12" points="94.493 168.947 94.493 171.527 94.493 171.887 94.493 188.988" transform="matrix(0, 1, -1, 0, 273.460498, 84.474503)"/>
  <polyline class="cls-12" points="83.753 178.608 83.753 178.248 84.832 178.248" transform="matrix(0, 1, -1, 0, 262.720505, 94.1355)"/>
  <polyline class="cls-12" points="93.022 167.418 93.022 167.778 93.022 184.878 93.022 185.238" transform="matrix(0, 1, -1, 0, 269.350009, 83.305996)"/>
  <line class="cls-13" x1="73.674" y1="185.386" x2="88.671" y2="185.386" transform="matrix(0, 1, -1, 0, 266.558494, 104.213485)"/>
  <line class="cls-13" x1="91.415" y1="186.27" x2="77.53" y2="186.27" transform="matrix(0, 1, -1, 0, 270.742506, 101.797483)"/>
  <polyline class="cls-12" points="84.832 178.248 83.753 178.248 83.753 178.608" transform="matrix(0, 1, -1, 0, 262.720505, 94.1355)"/>
  <line class="cls-12" x1="81.353" y1="177.708" x2="81.713" y2="177.708" transform="matrix(0, 1, -1, 0, 259.241, 96.175003)"/>
  <line class="cls-13" x1="77.333" y1="170.688" x2="85.012" y2="170.688" transform="matrix(0, 1, -1, 0, 251.860506, 89.515497)"/>
  <line class="cls-13" x1="87.353" y1="173.087" x2="81.593" y2="173.087" transform="matrix(0, 1, -1, 0, 257.559999, 88.613989)"/>
  <line class="cls-12" x1="85.343" y1="171.077" x2="77.723" y2="171.077" transform="matrix(0, 1, -1, 0, 252.609997, 89.544)"/>
  <line class="cls-12" x1="87.353" y1="173.087" x2="80.873" y2="173.087" transform="matrix(0, 1, -1, 0, 257.199999, 88.973989)"/>
  <polyline class="cls-13" points="98.872 108.888 98.872 154.488 102.232 154.488 102.232 151.068" transform="matrix(0, 1, -1, 0, 232.239997, 31.136002)"/>
  <polyline class="cls-13" points="105.592 151.128 105.592 112.247 102.232 112.247" transform="matrix(0, 1, -1, 0, 235.599513, 27.775499)"/>
  <polyline class="cls-13" points="23.932 110.688 23.932 152.688 24.292 152.688 27.292 152.688" transform="matrix(0, 1, -1, 0, 157.299997, 106.076002)"/>
  <polyline class="cls-13" points="28.972 151.008 28.972 112.368 25.612 112.368" transform="matrix(0, 1, -1, 0, 158.979984, 104.39598)"/>
  <line class="cls-12" x1="100.553" y1="153.167" x2="100.553" y2="107.567" transform="matrix(0, 1, -1, 0, 230.920001, 29.813997)"/>
  <line class="cls-12" x1="25.793" y1="151.187" x2="25.793" y2="109.547" transform="matrix(0, 1, -1, 0, 156.160001, 104.573997)"/>
  <line class="cls-12" x1="27.113" y1="152.508" x2="27.113" y2="113.508" transform="matrix(0, 1, -1, 0, 160.120993, 105.894997)"/>
  <line class="cls-12" x1="79.642" y1="134.897" x2="79.642" y2="131.117" transform="matrix(0, 1, -1, 0, 212.649013, 53.365004)"/>
  <line class="cls-12" x1="103.733" y1="152.628" x2="103.733" y2="113.388" transform="matrix(0, 1, -1, 0, 236.740998, 29.274992)"/>
  <rect class="cls-3" x="68.5" y="148.62" width="19.62" height="19.74" transform="matrix(0, 1, -1, 0, 211.552505, 83.587467)"/>
  <polyline class="cls-12" points="53.063 171.798 62.903 161.958 53.063 152.057 43.223 161.958 53.063 171.798" transform="matrix(0, 1, -1, 0, 214.990488, 108.864494)"/>
  <text class="cls-25" style="white-space: pre; font-size: 9.8px;" x="48.413" y="165.827">W</text>
</svg>