<svg xmlns="http://www.w3.org/2000/svg" xmlns:xlink="http://www.w3.org/1999/xlink" viewBox="0 0 207.46 217.32"><defs><style>.cls-1,.cls-12,.cls-13,.cls-2{fill:none;}.cls-1{clip-rule:evenodd;}.cls-3{fill:#fff;}.cls-4{clip-path:url(#clip-path);}.cls-5{clip-path:url(#clip-path-2);}.cls-6{clip-path:url(#clip-path-3);}.cls-7{clip-path:url(#clip-path-5);}.cls-8{clip-path:url(#clip-path-7);}.cls-9{clip-path:url(#clip-path-9);}.cls-10{clip-path:url(#clip-path-11);}.cls-11{clip-path:url(#clip-path-13);}.cls-12,.cls-13{stroke:#000;stroke-linecap:round;stroke-linejoin:round;}.cls-12{stroke-width:0.24px;}.cls-13{stroke-width:0.96px;}.cls-14{font-size:7.95px;}.cls-14,.cls-19,.cls-29{font-family:ArialNarrow, Arial;}.cls-15{letter-spacing:-0.02em;}.cls-16{letter-spacing:0em;}.cls-17{letter-spacing:-0.01em;}.cls-18{letter-spacing:-0.01em;}.cls-19,.cls-29{font-size:9.91px;}.cls-20{letter-spacing:-0.01em;}.cls-21{letter-spacing:-0.01em;}.cls-22{letter-spacing:-0.01em;}.cls-23{letter-spacing:-0.01em;}.cls-24{clip-path:url(#clip-path-15);}.cls-25{font-size:9.77px;font-family:ArialMT, Arial;}.cls-26{clip-path:url(#clip-path-17);}.cls-27{letter-spacing:-0.01em;}.cls-28{fill-rule:evenodd;}.cls-29{letter-spacing:-0.01em;}.cls-30{letter-spacing:6.5em;}.cls-31{letter-spacing:-0.01em;}.cls-32{letter-spacing:0em;}</style><clipPath id="clip-path" transform="translate(-1134.47 -1541.7)"><path class="cls-1" d="M1180.89,1676.88h1.26v.42h1.44v-.42h.66v-1.14h-3.36m0,30.66h3.36v-1.14h-.66v-.42h-1.44v.42h-1.26Z"/></clipPath><clipPath id="clip-path-2" transform="translate(-1134.47 -1541.7)"><rect class="cls-2" width="2383.98" height="3370.02"/></clipPath><clipPath id="clip-path-3" transform="translate(-1134.47 -1541.7)"><path class="cls-1" d="M1220.73,1648.74h.36V1573.5h-.36Zm0,20h.36v-17.46h-.36Z"/></clipPath><clipPath id="clip-path-5" transform="translate(-1134.47 -1541.7)"><path class="cls-1" d="M1217.73,1570.92h.42v-.36h-.42Zm0,10.62h.42v-8h-.42Zm0,87.6h.42v-85h-.42Z"/></clipPath><clipPath id="clip-path-7" transform="translate(-1134.47 -1541.7)"><polyline class="cls-1" points="1227.21 1669.14 1228.77 1669.14 1228.77 1668.78 1229.85 1668.78 1229.85 1651.32 1227.21 1651.32"/></clipPath><clipPath id="clip-path-9" transform="translate(-1134.47 -1541.7)"><path class="cls-1" d="M1180.89,1554.24h.36v-11.82h-.36Zm0,44.46h.36v-18.12h-.36Zm0,76.8h.36v-45.6h-.36Zm0,73.14h.36v-42h-.36Z"/></clipPath><clipPath id="clip-path-11" transform="translate(-1134.47 -1541.7)"><path class="cls-1" d="M1183.89,1548.36h.36v-5.94h-.36Zm0,5.88h.36V1551h-.36Zm0,27.3h.36v-1h-.36Zm0,17.16h.36v-14.52h-.36Zm0,70.44h.36V1629.9h-.36Zm0,6.36h.36v-3.78h-.36Zm0,70.14h.36v-39h-.36Z"/></clipPath><clipPath id="clip-path-13" transform="translate(-1134.47 -1541.7)"><path class="cls-1" d="M1181.25,1554.24h2.64V1541.7h-2.64Zm0,44.46h2.64v-18.12h-2.64Zm0,76.8h2.64v-45.6h-2.64Zm0,72.78h2.64v-41.64h-2.64Z"/></clipPath><clipPath id="clip-path-15" transform="translate(-1134.47 -1541.7)"><polyline class="cls-1" points="1202.97 1700.28 1212.75 1710.06 1222.53 1700.28 1222.59 1700.1 1222.53 1700.1 1212.75 1690.32 1202.97 1700.1"/></clipPath><clipPath id="clip-path-17" transform="translate(-1134.47 -1541.7)"><polyline class="cls-1" points="1184.61 1658.94 1184.67 1659 1194.39 1668.72 1204.29 1658.82 1204.23 1658.82 1194.51 1649.1 1194.39 1649.04 1184.61 1658.82"/></clipPath></defs><title>Tag_WetArea_Sample</title><g id="Layer_2" data-name="Layer 2"><g id="Layer_1-2" data-name="Layer 1"><rect class="cls-3" x="46.78" y="206.58" width="47.52" height="0.36"/><rect class="cls-3" x="49.78" y="203.58" width="41.52" height="0.36"/><rect class="cls-3" x="49.42" y="203.94" width="44.52" height="2.64"/><rect class="cls-3" x="49.78" y="130.02" width="33.48" height="0.36"/><rect class="cls-3" x="49.78" y="127.08" width="33.48" height="0.36"/><rect class="cls-3" x="49.42" y="127.44" width="34.26" height="2.58"/><rect class="cls-3" x="93.94" y="130.02" width="0.36" height="76.56"/><rect class="cls-3" x="90.94" y="130.38" width="0.36" height="73.2"/><rect class="cls-3" x="91.3" y="130.02" width="2.64" height="73.92"/><g class="cls-4"><g class="cls-5"><rect class="cls-3" x="46.42" y="134.04" width="3.36" height="30.66"/></g></g><g class="cls-6"><g class="cls-5"><rect class="cls-3" x="86.26" y="31.8" width="0.36" height="95.28"/></g></g><g class="cls-7"><g class="cls-5"><rect class="cls-3" x="83.26" y="28.86" width="0.42" height="98.58"/></g></g><rect class="cls-3" x="83.68" y="29.22" width="2.58" height="98.22"/><rect class="cls-3" x="95.38" y="107.04" width="0.36" height="20.04"/><rect class="cls-3" x="92.38" y="109.98" width="0.36" height="17.1"/><g class="cls-8"><g class="cls-5"><rect class="cls-3" x="92.74" y="109.62" width="2.64" height="17.82"/></g></g><rect class="cls-3" x="94.3" y="130.02" width="113.04" height="0.36"/><rect class="cls-3" x="94.3" y="127.08" width="110.04" height="0.36"/><rect class="cls-3" x="93.94" y="127.44" width="110.76" height="2.58"/><rect class="cls-3" x="83.26" y="130.02" width="8.04" height="0.36"/><rect class="cls-3" x="86.26" y="127.08" width="6.48" height="0.36"/><rect class="cls-3" x="83.68" y="127.44" width="10.26" height="2.58"/><g class="cls-9"><g class="cls-5"><rect class="cls-3" x="46.42" y="0.72" width="0.36" height="206.22"/></g></g><g class="cls-10"><g class="cls-5"><rect class="cls-3" x="49.42" y="0.72" width="0.36" height="203.22"/></g></g><g class="cls-11"><g class="cls-5"><rect class="cls-3" x="46.78" width="2.64" height="206.58"/></g></g><line class="cls-12" x1="85.48" y1="203.58" x2="85.24" y2="203.76"/><line class="cls-12" x1="51.58" y1="127.44" x2="51.58" y2="127.08"/><line class="cls-12" x1="68.86" y1="127.44" x2="68.86" y2="127.08"/><line class="cls-12" x1="91.3" y1="166.98" x2="90.94" y2="167.16"/><line class="cls-12" x1="86.44" y1="123.24" x2="86.26" y2="123.3"/><line class="cls-12" x1="91.9" y1="127.44" x2="91.9" y2="127.08"/><line class="cls-12" x1="92.32" y1="127.38" x2="92.38" y2="127.44"/><line class="cls-13" x1="49.78" y1="206.94" x2="94.3" y2="206.94"/><polyline class="cls-13" points="94.3 206.94 94.3 206.58 94.3 203.58"/><line class="cls-13" x1="90.94" y1="203.58" x2="49.78" y2="203.58"/><line class="cls-12" x1="93.94" y1="206.58" x2="49.78" y2="206.58"/><polyline class="cls-12" points="49.78 206.58 49.42 206.58 46.78 206.58"/><line class="cls-12" x1="91.3" y1="203.94" x2="49.78" y2="203.94"/><line class="cls-12" x1="49.78" y1="203.94" x2="49.42" y2="203.94"/><line class="cls-13" x1="49.78" y1="130.38" x2="83.26" y2="130.38"/><line class="cls-13" x1="83.26" y1="127.08" x2="49.78" y2="127.08"/><line class="cls-12" x1="83.26" y1="130.02" x2="49.78" y2="130.02"/><line class="cls-12" x1="83.26" y1="130.02" x2="83.68" y2="130.02"/><line class="cls-12" x1="83.26" y1="127.44" x2="83.68" y2="127.44"/><line class="cls-12" x1="83.26" y1="127.44" x2="49.78" y2="127.44"/><line class="cls-12" x1="49.78" y1="127.44" x2="49.42" y2="127.44"/><line class="cls-12" x1="49.78" y1="130.02" x2="49.42" y2="130.02"/><line class="cls-13" x1="94.3" y1="203.58" x2="94.3" y2="130.38"/><line class="cls-13" x1="90.94" y1="130.38" x2="90.94" y2="203.58"/><line class="cls-12" x1="93.94" y1="130.02" x2="93.94" y2="130.38"/><line class="cls-12" x1="93.94" y1="130.38" x2="93.94" y2="203.58"/><polyline class="cls-12" points="93.94 203.58 93.94 203.94 93.94 206.58"/><line class="cls-12" x1="91.3" y1="130.02" x2="91.3" y2="130.38"/><line class="cls-12" x1="91.3" y1="130.38" x2="91.3" y2="203.58"/><line class="cls-12" x1="91.3" y1="203.58" x2="91.3" y2="203.94"/><line class="cls-12" x1="18.34" y1="136.44" x2="18.34" y2="135.36"/><line class="cls-12" x1="46.42" y1="136.44" x2="46.42" y2="135.36"/><line class="cls-12" x1="46.42" y1="136.44" x2="18.34" y2="136.44"/><line class="cls-12" x1="46.42" y1="135.36" x2="18.34" y2="135.36"/><polyline class="cls-12" points="46.42 163.38 43 163.2 39.7 162.6 36.46 161.58 33.34 160.2 30.46 158.4 27.82 156.36 25.42 153.96 23.32 151.26 21.58 148.38 20.14 145.26"/><line class="cls-12" x1="20.14" y1="145.26" x2="19.18" y2="142.02"/><polyline class="cls-12" points="19.18 142.02 18.52 138.72 18.34 135.36"/><line class="cls-13" x1="47.68" y1="135.6" x2="47.68" y2="135.18"/><line class="cls-13" x1="49.12" y1="135.6" x2="47.68" y2="135.6"/><line class="cls-13" x1="49.12" y1="135.18" x2="49.12" y2="135.6"/><line class="cls-13" x1="49.78" y1="135.18" x2="49.12" y2="135.18"/><line class="cls-13" x1="49.78" y1="134.04" x2="49.78" y2="135.18"/><line class="cls-13" x1="46.42" y1="134.04" x2="49.78" y2="134.04"/><line class="cls-13" x1="46.42" y1="135.18" x2="46.42" y2="134.04"/><line class="cls-13" x1="47.68" y1="135.18" x2="46.42" y2="135.18"/><line class="cls-13" x1="46.42" y1="163.56" x2="47.68" y2="163.56"/><line class="cls-13" x1="46.42" y1="164.7" x2="46.42" y2="163.56"/><line class="cls-13" x1="49.78" y1="164.7" x2="46.42" y2="164.7"/><line class="cls-13" x1="49.78" y1="163.56" x2="49.78" y2="164.7"/><line class="cls-13" x1="49.12" y1="163.56" x2="49.78" y2="163.56"/><line class="cls-13" x1="49.12" y1="163.14" x2="49.12" y2="163.56"/><line class="cls-13" x1="47.68" y1="163.14" x2="49.12" y2="163.14"/><line class="cls-13" x1="47.68" y1="163.56" x2="47.68" y2="163.14"/><line class="cls-13" x1="86.62" y1="127.08" x2="86.62" y2="109.98"/><line class="cls-13" x1="83.26" y1="42.84" x2="83.26" y2="127.08"/><line class="cls-12" x1="86.26" y1="109.62" x2="86.26" y2="127.08"/><line class="cls-12" x1="83.68" y1="127.44" x2="83.68" y2="127.08"/><line class="cls-12" x1="83.68" y1="42.48" x2="83.68" y2="127.08"/><line class="cls-12" x1="86.26" y1="127.44" x2="86.26" y2="127.08"/><line class="cls-13" x1="95.74" y1="127.08" x2="95.74" y2="109.98"/><line class="cls-13" x1="92.38" y1="109.98" x2="92.38" y2="127.08"/><polyline class="cls-12" points="95.38 107.04 95.38 109.62 95.38 109.98 95.38 127.08"/><polyline class="cls-12" points="94.3 127.44 94.3 127.08 95.38 127.08"/><polyline class="cls-12" points="92.74 109.62 92.74 109.98 92.74 127.08 92.74 127.44"/><line class="cls-13" x1="94.3" y1="130.38" x2="204.34" y2="130.38"/><line class="cls-13" x1="204.34" y1="127.08" x2="95.74" y2="127.08"/><polyline class="cls-12" points="207.34 130.02 204.7 130.02 204.34 130.02 94.3 130.02"/><polyline class="cls-12" points="95.38 127.08 94.3 127.08 94.3 127.44"/><polyline class="cls-12" points="204.7 127.44 204.34 127.44 94.3 127.44"/><line class="cls-12" x1="93.94" y1="130.02" x2="94.3" y2="130.02"/><line class="cls-13" x1="83.26" y1="130.38" x2="90.94" y2="130.38"/><line class="cls-13" x1="92.38" y1="127.08" x2="86.62" y2="127.08"/><line class="cls-12" x1="91.3" y1="130.02" x2="83.68" y2="130.02"/><line class="cls-12" x1="92.74" y1="127.44" x2="86.26" y2="127.44"/><polyline class="cls-13" points="46.42 88.2 46.42 133.8 49.78 133.8 49.78 130.38"/><polyline class="cls-13" points="49.78 127.08 49.78 88.2 46.42 88.2"/><polyline class="cls-13" points="46.42 164.94 46.42 206.94 46.78 206.94 49.78 206.94"/><polyline class="cls-13" points="49.78 203.58 49.78 164.94 46.42 164.94"/><line class="cls-12" x1="46.78" y1="133.8" x2="46.78" y2="88.2"/><line class="cls-12" x1="46.78" y1="206.58" x2="46.78" y2="164.94"/><line class="cls-12" x1="49.42" y1="203.94" x2="49.42" y2="164.94"/><line class="cls-12" x1="49.42" y1="133.8" x2="49.42" y2="130.02"/><line class="cls-12" x1="49.42" y1="127.44" x2="49.42" y2="88.2"/><line class="cls-12" x1="65.2" y1="170.22" x2="73.12" y2="170.22"/><line class="cls-12" x1="73.12" y1="200.64" x2="73.12" y2="170.22"/><line class="cls-12" x1="65.2" y1="200.64" x2="73.12" y2="200.64"/><line class="cls-12" x1="65.2" y1="200.64" x2="65.2" y2="170.22"/><text class="cls-14" transform="translate(71.92 199.38) rotate(-90)"><tspan class="cls-15">08</tspan><tspan class="cls-16" x="6.96" y="0">.</tspan><tspan class="cls-15" x="8.77" y="0">0</tspan><tspan class="cls-17" x="12.25" y="0">4</tspan><tspan class="cls-18" x="15.79" y="0">.</tspan><tspan class="cls-17" x="17.54" y="0">0</tspan><tspan class="cls-15" x="21.08" y="0">2</tspan><tspan x="24.56" y="0">3</tspan></text><text class="cls-19" transform="translate(64.12 201.24) rotate(-90)"><tspan class="cls-20">W</tspan><tspan class="cls-21" x="7.57" y="0">C</tspan><tspan class="cls-22" x="13.34" y="0">-</tspan><tspan class="cls-23" x="15.95" y="0">P</tspan><tspan class="cls-22" x="21.28" y="0">T-</tspan><tspan class="cls-23" x="28.75" y="0">AS</tspan><tspan x="39.41" y="0">S</tspan></text><g class="cls-24"><g class="cls-5"><rect class="cls-3" x="68.5" y="148.62" width="19.62" height="19.74"/></g></g><polyline class="cls-12" points="78.34 168.36 88.18 158.52 78.34 148.62 68.5 158.52 78.34 168.36"/><text class="cls-25" transform="translate(82.24 163.14) rotate(-90)">W</text><g class="cls-26"><g class="cls-5"><rect class="cls-3" x="50.14" y="107.34" width="19.68" height="19.68"/></g></g><polyline class="cls-12" points="59.98 127.02 69.88 117.18 59.98 107.34"/><polyline class="cls-12" points="59.98 107.34 50.14 117.18 59.98 127.02"/><line class="cls-12" x1="70.54" y1="205.26" x2="70.54" y2="216.84"/><line class="cls-12" x1="64.9" y1="128.76" x2="64.9" y2="134.64"/><line class="cls-12" x1="61.3" y1="134.64" x2="57.7" y2="140.88"/><line class="cls-12" x1="68.5" y1="134.64" x2="61.3" y2="134.64"/><line class="cls-12" x1="72.16" y1="140.88" x2="68.5" y2="134.64"/><line class="cls-12" x1="68.5" y1="147.18" x2="72.16" y2="140.88"/><line class="cls-12" x1="61.3" y1="147.18" x2="68.5" y2="147.18"/><line class="cls-12" x1="57.7" y1="140.88" x2="61.3" y2="147.18"/><text class="cls-19" transform="translate(68.5 145.38) rotate(-90)"><tspan class="cls-27">P</tspan><tspan x="5.29" y="0">6</tspan></text><line class="cls-12" x1="99.82" y1="192.06" x2="99.82" y2="217.2"/><line class="cls-12" x1="92.62" y1="192.06" x2="99.82" y2="192.06"/><line class="cls-12" x1="79.66" y1="123.54" x2="83.32" y2="117.3"/><line class="cls-12" x1="72.46" y1="123.54" x2="79.66" y2="123.54"/><line class="cls-12" x1="68.8" y1="117.3" x2="72.46" y2="123.54"/><line class="cls-12" x1="109.18" y1="122.88" x2="112.78" y2="116.58"/><line class="cls-12" x1="101.92" y1="122.88" x2="109.18" y2="122.88"/><line class="cls-12" x1="98.32" y1="116.58" x2="101.92" y2="122.88"/><line class="cls-12" x1="89.38" y1="138.12" x2="87.64" y2="140.88"/><line class="cls-12" x1="89.38" y1="128.76" x2="89.38" y2="138.12"/><line class="cls-12" x1="76.84" y1="134.64" x2="73.18" y2="140.88"/><line class="cls-12" x1="84.04" y1="134.64" x2="76.84" y2="134.64"/><line class="cls-12" x1="87.64" y1="140.88" x2="84.04" y2="134.64"/><line class="cls-12" x1="84.04" y1="147.18" x2="87.64" y2="140.88"/><line class="cls-12" x1="76.84" y1="147.18" x2="84.04" y2="147.18"/><line class="cls-12" x1="73.18" y1="140.88" x2="76.84" y2="147.18"/><text class="cls-19" transform="translate(84.04 145.38) rotate(-90)"><tspan class="cls-27">P</tspan><tspan x="5.29" y="0">6</tspan></text><line class="cls-12" x1="35.38" y1="122.88" x2="39.04" y2="116.58"/><line class="cls-12" x1="28.18" y1="122.88" x2="35.38" y2="122.88"/><line class="cls-12" x1="24.58" y1="116.58" x2="28.18" y2="122.88"/><line class="cls-12" x1="22.66" y1="128.76" x2="22.66" y2="34.38"/><line class="cls-12" x1="22.66" y1="212.1" x2="22.66" y2="128.76"/><line class="cls-13" x1="22.66" y1="128.76" x2="26.92" y2="132.96"/><line class="cls-13" x1="22.66" y1="128.76" x2="18.46" y2="124.5"/><text class="cls-19" transform="translate(8.5 131.76) rotate(-90)">C</text><text class="cls-19" transform="translate(11.86 129.66) rotate(-90)">L</text><line class="cls-12" x1="22.66" y1="128.76" x2="15.88" y2="128.76"/><line class="cls-12" x1="22.66" y1="128.76" x2="36.88" y2="128.76"/><path class="cls-28" d="M1157.07,1744.8a2.15,2.15,0,0,1,2.16,2.16,2.1,2.1,0,0,1-2.16,2.1,2.05,2.05,0,0,1-2.1-2.1,2.1,2.1,0,0,1,2.1-2.16" transform="translate(-1134.47 -1541.7)"/><path class="cls-13" d="M1157.07,1744.8a2.15,2.15,0,0,1,2.16,2.16,2.1,2.1,0,0,1-2.16,2.1,2.05,2.05,0,0,1-2.1-2.1A2.1,2.1,0,0,1,1157.07,1744.8Z" transform="translate(-1134.47 -1541.7)"/><text class="cls-19" transform="translate(8.5 208.32) rotate(-90)">C</text><text class="cls-19" transform="translate(11.86 206.22) rotate(-90)">L</text><line class="cls-12" x1="22.66" y1="205.26" x2="15.88" y2="205.26"/><line class="cls-12" x1="22.66" y1="205.26" x2="36.88" y2="205.26"/><text class="cls-29" transform="translate(18.82 175.8) rotate(-90)">270<tspan class="cls-30" x="13.14" y="0">0</tspan><tspan class="cls-31" x="82.08" y="0">309</tspan><tspan class="cls-32" x="95.22" y="0">0</tspan></text></g></g></svg>