<?xml version="1.0" encoding="utf-8"?>
<svg id="Layer_1" data-name="Layer 1" viewBox="0 0 71.86 68.24" xmlns="http://www.w3.org/2000/svg">
  <defs>
    <style>.cls-1,.cls-2,.cls-6,.cls-7,.cls-8{fill:none;}.cls-1{clip-rule:evenodd;}.cls-3{clip-path:url(#clip-path);}.cls-4{clip-path:url(#clip-path-2);}.cls-5{fill:#fff;}.cls-6{stroke:#e52521;}.cls-6,.cls-7,.cls-8{stroke-linecap:round;stroke-linejoin:round;}.cls-6,.cls-7{stroke-width:0.96px;}.cls-7,.cls-8{stroke:#000;}.cls-8{stroke-width:0.24px;}.cls-9{fill-rule:evenodd;}.cls-10{font-size:9.91px;font-family:ArialNarrow, Arial;}.cls-11{letter-spacing:-0.01em;}.cls-12{letter-spacing:-0.02em;}.cls-13{letter-spacing:-0.01em;}.cls-14{letter-spacing:-0.01em;}</style>
  </defs>
  <title>Tag_Door Finish</title>
  <g class="cls-3">
    <g class="cls-4">
      <rect class="cls-5" x="16.59" y="16.16" width="38.82" height="3.36"/>
    </g>
  </g>
  <line class="cls-6" x1="53.01" y1="55.82" x2="54.15" y2="55.82"/>
  <line class="cls-6" x1="53.01" y1="19.58" x2="54.15" y2="19.58"/>
  <line class="cls-6" x1="53.01" y1="19.58" x2="53.01" y2="55.82"/>
  <line class="cls-6" x1="54.15" y1="19.58" x2="54.15" y2="55.82"/>
  <polyline class="cls-6" points="17.85 19.58 18.09 23.6 18.75 27.62 19.89 31.52 21.45 35.3 23.43 38.84 25.77 42.2 28.47 45.2 31.53 47.9 34.83 50.3 38.37 52.22 42.15 53.78 46.05 54.92"/>
  <polyline class="cls-6" points="46.05 54.92 50.07 55.58 54.15 55.82"/>
  <polyline class="cls-7" points="54.27 18.26 54.27 19.52 55.41 19.52 55.41 16.16 54.27 16.16 54.27 16.88 53.85 16.88 53.85 18.26 54.27 18.26"/>
  <polyline class="cls-7" points="17.73 18.26 18.15 18.26 18.15 16.88 17.73 16.88 17.73 16.16 16.59 16.16 16.59 19.52 17.73 19.52 17.73 18.26"/>
  <polyline class="cls-7" points="10.4 19.52 16.29 19.52 16.29 16.16 10.4 16.16"/>
  <polyline class="cls-7" points="55.71 19.52 63.69 19.52 63.69 19.16 63.69 16.16"/>
  <polyline class="cls-7" points="60.33 16.16 55.71 16.16 55.71 19.52"/>
  <line class="cls-8" x1="63.33" y1="19.16" x2="55.71" y2="19.16"/>
  <line class="cls-8" x1="60.69" y1="16.52" x2="55.71" y2="16.52"/>
  <path class="cls-9" d="M36.81,19.94a2.15,2.15,0,0,1-2.16,2.16,2.1,2.1,0,0,1-2.1-2.16,2.05,2.05,0,0,1,2.1-2.1,2.1,2.1,0,0,1,2.16,2.1"/>
  <path class="cls-8" d="M36.81,19.94a2.15,2.15,0,0,1-2.16,2.16,2.1,2.1,0,0,1-2.1-2.16,2.05,2.05,0,0,1,2.1-2.1A2.1,2.1,0,0,1,36.81,19.94Z"/>
  <line class="cls-8" x1="35.018" y1="20" x2="34.93" y2="9.009"/>
  <line class="cls-8" x1="54.95" y1="9.267" x2="16.07" y2="9.267"/>
  <line class="cls-8" x1="16.07" y1="9.267" x2="16.07" y2="1.167"/>
  <line class="cls-8" x1="54.95" y1="1.167" x2="54.95" y2="9.267"/>
  <line class="cls-8" x1="16.07" y1="1.167" x2="54.95" y2="1.167"/>
  <text x="21.799" y="7.688" style="fill: rgb(51, 51, 51); font-family: sans-serif; font-size: 8px; white-space: pre;">PT-107d</text>
</svg>