<svg xmlns="http://www.w3.org/2000/svg" xmlns:xlink="http://www.w3.org/1999/xlink" viewBox="0 0 316.2 108.24"><defs><style>.cls-1,.cls-13,.cls-14,.cls-15,.cls-16,.cls-17,.cls-18,.cls-2{fill:none;}.cls-1{clip-rule:evenodd;}.cls-3{fill:#fff;}.cls-4{clip-path:url(#clip-path);}.cls-5{clip-path:url(#clip-path-2);}.cls-6{clip-path:url(#clip-path-3);}.cls-7{clip-path:url(#clip-path-5);}.cls-8{clip-path:url(#clip-path-7);}.cls-9{clip-path:url(#clip-path-9);}.cls-10{clip-path:url(#clip-path-11);}.cls-11{clip-path:url(#clip-path-13);}.cls-12{clip-path:url(#clip-path-15);}.cls-13{stroke:#464646;}.cls-13,.cls-14,.cls-15,.cls-16,.cls-17,.cls-18{stroke-linecap:round;stroke-linejoin:round;}.cls-13,.cls-14,.cls-17{stroke-width:0.24px;}.cls-14,.cls-15,.cls-16{stroke:#000;}.cls-15{stroke-width:1.38px;}.cls-16{stroke-width:0.96px;}.cls-17{stroke:#656565;}.cls-18{stroke:red;stroke-width:2.82px;}.cls-19,.cls-21{font-size:9.91px;}.cls-19,.cls-21,.cls-24,.cls-25{font-family:ArialNarrow, Arial;}.cls-20{letter-spacing:-0.01em;}.cls-21{letter-spacing:-0.01em;}.cls-22{letter-spacing:0em;}.cls-23{clip-path:url(#clip-path-17);}.cls-24{font-size:5.93px;}.cls-25{font-size:9.91px;}</style><clipPath id="clip-path" transform="translate(-672.87 -1441.56)"><path class="cls-1" d="M684.45,1511.22H876v-.36H684.45Zm-11.1,0h8.46v-.36h-8.46Z"/></clipPath><clipPath id="clip-path-2" transform="translate(-672.87 -1441.56)"><rect class="cls-2" width="2383.98" height="3370.02"/></clipPath><clipPath id="clip-path-3" transform="translate(-672.87 -1441.56)"><path class="cls-1" d="M684.45,1510.86H876v-.36H684.45Zm-11.1,0h8.46v-.36h-8.46Z"/></clipPath><clipPath id="clip-path-5" transform="translate(-672.87 -1441.56)"><path class="cls-1" d="M938.37,1510h.48v1.2h1.08v-4.08h-1.08v1.44h-.48m-29,2.64h1.14V1510h.42v-1.44h-.42v-1.44h-1.14Z"/></clipPath><clipPath id="clip-path-7" transform="translate(-672.87 -1441.56)"><path class="cls-1" d="M940.23,1511.22h3.24v-.36h-3.24Zm-45.78,0H909v-.36H894.45Z"/></clipPath><clipPath id="clip-path-9" transform="translate(-672.87 -1441.56)"><path class="cls-1" d="M940.23,1507.5h6.9v-.36h-6.9Zm-45.78,0H909v-.36H894.45Z"/></clipPath><clipPath id="clip-path-11" transform="translate(-672.87 -1441.56)"><path class="cls-1" d="M940.23,1507.92h6.54v-.42h-6.54Zm-45.78,0H909v-.42H894.45Z"/></clipPath><clipPath id="clip-path-13" transform="translate(-672.87 -1441.56)"><path class="cls-1" d="M940.23,1510.5h6.18v-2.58h-6.18Zm-45.78,0H909v-2.58H894.45Z"/></clipPath><clipPath id="clip-path-15" transform="translate(-672.87 -1441.56)"><path class="cls-1" d="M940.23,1510.86h3.6v-.36h-3.6Zm-45.78,0H909v-.36H894.45Z"/></clipPath><clipPath id="clip-path-17" transform="translate(-672.87 -1441.56)"><path class="cls-1" d="M868.29,1517.76l.06.42.12.24a2.64,2.64,0,0,0,.6,1l.06.12.12.06.06.06.12.06.12.12.12.06.12.12.18.06.6.3.78.06.06-.06h.84v-.06h.12v-.06h.12v-.06h.12v-.06h.12v-.06h.12V1520H873V1520l.12-.12h.12v-.06l.12-.12h.12v-.06l.06-.06h.12v-.12a3.13,3.13,0,0,0,.78-1.68l.06-.84h-.06l-.06-.36a3,3,0,0,0-2.58-2.28l-.78-.06v.06h-.36v.06h-.18v.06h-.18v.06h-.12v.06H870v.06h-.12v.06h-.12l-.18.18v.06h-.12a3.07,3.07,0,0,0-1.08,1.68l-.06.36"/></clipPath></defs><title>Tag_Riser_Sample</title><g id="Layer_2" data-name="Layer 2"><g id="Layer_1-2" data-name="Layer 1"><rect class="cls-3" x="203.16" y="66.6" width="18.42" height="18.42"/><g class="cls-4"><g class="cls-5"><rect class="cls-3" x="0.48" y="69.3" width="202.68" height="0.36"/></g></g><rect class="cls-3" x="0.48" y="65.58" width="202.68" height="3.36"/><g class="cls-6"><g class="cls-5"><rect class="cls-3" x="0.48" y="68.94" width="202.68" height="0.36"/></g></g><g class="cls-7"><g class="cls-5"><rect class="cls-3" x="236.46" y="65.58" width="30.6" height="4.08"/></g></g><rect class="cls-3" x="192" y="69.66" width="2.64" height="15.96"/><rect class="cls-3" x="191.64" y="71.52" width="0.36" height="14.46"/><rect class="cls-3" x="203.16" y="85.02" width="19.02" height="0.6"/><rect class="cls-3" x="203.16" y="85.62" width="19.38" height="0.36"/><rect class="cls-3" x="160.14" y="71.52" width="31.5" height="0.36"/><rect class="cls-3" x="159.78" y="69.66" width="32.22" height="1.86"/><rect class="cls-3" x="194.64" y="83.04" width="8.52" height="2.58"/><rect class="cls-3" x="192" y="85.62" width="11.16" height="0.36"/><rect class="cls-3" x="203.16" y="65.58" width="18.42" height="1.02"/><g class="cls-8"><g class="cls-5"><rect class="cls-3" x="221.58" y="69.3" width="49.02" height="0.36"/></g></g><g class="cls-9"><g class="cls-5"><rect class="cls-3" x="221.58" y="65.58" width="52.68" height="0.36"/></g></g><g class="cls-10"><g class="cls-5"><rect class="cls-3" x="221.58" y="65.94" width="52.32" height="0.42"/></g></g><g class="cls-11"><g class="cls-5"><rect class="cls-3" x="221.58" y="66.36" width="51.96" height="2.58"/></g></g><g class="cls-12"><g class="cls-5"><rect class="cls-3" x="221.58" y="68.94" width="49.38" height="0.36"/></g></g><rect class="cls-3" x="221.58" y="69.66" width="0.6" height="15.36"/><rect class="cls-3" x="222.18" y="69.66" width="0.36" height="15.96"/><line class="cls-13" x1="213.6" y1="76.68" x2="212.76" y2="76.02"/><line class="cls-13" x1="203.64" y1="68.4" x2="203.16" y2="67.92"/><line class="cls-13" x1="203.64" y1="68.4" x2="203.76" y2="67.5"/><line class="cls-13" x1="213.6" y1="76.68" x2="213.66" y2="75.84"/><line class="cls-13" x1="203.76" y1="67.5" x2="203.16" y2="67.62"/><line class="cls-13" x1="213.66" y1="75.84" x2="212.76" y2="76.02"/><line class="cls-13" x1="210.3" y1="78.24" x2="209.16" y2="77.1"/><line class="cls-13" x1="210.54" y1="76.98" x2="209.16" y2="77.1"/><line class="cls-13" x1="210.3" y1="78.24" x2="210.54" y2="76.98"/><line class="cls-13" x1="219.54" y1="71.88" x2="219.12" y2="70.86"/><line class="cls-13" x1="213.72" y1="80.46" x2="213.3" y2="79.44"/><line class="cls-13" x1="209.1" y1="68.4" x2="208.68" y2="67.38"/><line class="cls-13" x1="203.28" y1="76.98" x2="203.16" y2="76.62"/><line class="cls-13" x1="203.28" y1="76.98" x2="203.76" y2="76.26"/><line class="cls-13" x1="209.1" y1="68.4" x2="209.58" y2="67.68"/><line class="cls-13" x1="213.72" y1="80.46" x2="214.2" y2="79.74"/><polyline class="cls-13" points="219.54 71.88 220.02 71.16 219.12 70.86"/><line class="cls-13" x1="209.58" y1="67.68" x2="208.68" y2="67.38"/><line class="cls-13" x1="214.2" y1="79.74" x2="213.3" y2="79.44"/><line class="cls-13" x1="203.76" y1="76.26" x2="203.16" y2="76.02"/><line class="cls-13" x1="206.16" y1="77.82" x2="206.1" y2="77.76"/><line class="cls-13" x1="210.9" y1="78" x2="210.9" y2="77.94"/><line class="cls-13" x1="205.14" y1="70.44" x2="205.08" y2="70.32"/><line class="cls-13" x1="215.7" y1="78.18" x2="215.64" y2="78.12"/><line class="cls-13" x1="209.94" y1="70.62" x2="209.88" y2="70.5"/><line class="cls-13" x1="220.5" y1="78.36" x2="220.44" y2="78.24"/><line class="cls-13" x1="214.68" y1="70.8" x2="214.62" y2="70.68"/><line class="cls-13" x1="219.48" y1="70.92" x2="219.42" y2="70.86"/><line class="cls-13" x1="205.5" y1="77.94" x2="205.5" y2="77.82"/><line class="cls-13" x1="205.08" y1="74.34" x2="205.02" y2="74.22"/><line class="cls-13" x1="204.36" y1="68.88" x2="204.3" y2="68.76"/><line class="cls-13" x1="211.2" y1="81.72" x2="211.2" y2="81.6"/><line class="cls-13" x1="210.72" y1="78.12" x2="210.72" y2="78"/><line class="cls-13" x1="210" y1="72.66" x2="210" y2="72.54"/><line class="cls-13" x1="216.42" y1="81.9" x2="216.42" y2="81.78"/><line class="cls-13" x1="215.7" y1="76.44" x2="215.7" y2="76.32"/><line class="cls-13" x1="214.5" y1="67.32" x2="214.5" y2="67.26"/><line class="cls-13" x1="221.4" y1="80.22" x2="221.34" y2="80.16"/><line class="cls-13" x1="220.2" y1="71.16" x2="220.14" y2="71.04"/><line class="cls-13" x1="219.72" y1="67.5" x2="219.66" y2="67.44"/><line class="cls-13" x1="207.48" y1="73.56" x2="207.54" y2="73.5"/><line class="cls-13" x1="207.18" y1="81.24" x2="207.24" y2="81.18"/><line class="cls-13" x1="215.16" y1="68.7" x2="215.22" y2="68.58"/><line class="cls-13" x1="214.86" y1="76.38" x2="214.92" y2="76.26"/><line class="cls-13" x1="216.78" y1="73.32" x2="216.84" y2="73.26"/><line class="cls-13" x1="214.5" y1="84.06" x2="214.56" y2="84"/><line class="cls-13" x1="216.48" y1="81" x2="216.54" y2="80.94"/><line class="cls-13" x1="207.6" y1="74.94" x2="207.66" y2="74.88"/><line class="cls-13" x1="210.78" y1="71.52" x2="210.84" y2="71.4"/><line class="cls-13" x1="209.04" y1="83.34" x2="209.1" y2="83.28"/><line class="cls-13" x1="212.22" y1="79.92" x2="212.28" y2="79.8"/><line class="cls-13" x1="217.26" y1="74.4" x2="217.32" y2="74.34"/><line class="cls-13" x1="218.7" y1="82.8" x2="218.76" y2="82.74"/><line class="cls-14" x1="192.78" y1="69.3" x2="192.12" y2="69.66"/><line class="cls-14" x1="199.5" y1="69.48" x2="199.86" y2="69.66"/><line class="cls-14" x1="173.34" y1="65.94" x2="173.34" y2="65.58"/><line class="cls-14" x1="196.38" y1="65.94" x2="196.38" y2="65.58"/><line class="cls-14" x1="173.34" y1="66.3" x2="173.34" y2="65.94"/><line class="cls-14" x1="196.38" y1="66.3" x2="196.38" y2="65.94"/><line class="cls-14" x1="192.96" y1="69.18" x2="192.78" y2="69.3"/><line class="cls-14" x1="191.64" y1="71.58" x2="192" y2="71.82"/><line class="cls-14" x1="191.64" y1="84.9" x2="191.7" y2="84.9"/><line class="cls-14" x1="179.1" y1="71.88" x2="179.1" y2="71.52"/><line class="cls-14" x1="191.64" y1="71.58" x2="191.64" y2="71.58"/><line class="cls-14" x1="219.42" y1="65.94" x2="219.42" y2="65.58"/><line class="cls-14" x1="233.76" y1="69.3" x2="233.94" y2="69.42"/><line class="cls-14" x1="233.16" y1="68.94" x2="233.76" y2="69.3"/><line class="cls-14" x1="222.36" y1="76.02" x2="222.54" y2="76.14"/><line class="cls-14" x1="194.64" y1="83.04" x2="203.16" y2="83.04"/><line class="cls-14" x1="194.64" y1="68.58" x2="194.64" y2="83.04"/><polyline class="cls-14" points="203.16 68.58 194.64 68.58 203.16 83.04"/><polyline class="cls-14" points="194.64 83.04 203.16 68.58 203.16 83.04"/><line class="cls-14" x1="194.64" y1="83.04" x2="203.16" y2="83.04"/><line class="cls-14" x1="194.64" y1="69.66" x2="194.64" y2="83.04"/><line class="cls-14" x1="195.3" y1="69.66" x2="203.16" y2="83.04"/><line class="cls-14" x1="194.64" y1="83.04" x2="202.5" y2="69.66"/><polyline class="cls-15" points="221.58 66.6 203.16 66.6 203.16 85.02 221.58 85.02 221.58 66.6"/><polyline class="cls-16" points="11.94 69.66 203.16 69.66 203.16 66.6"/><polyline class="cls-16" points="203.16 65.58 0.48 65.58 0.48 69.66"/><line class="cls-14" x1="203.16" y1="69.3" x2="11.58" y2="69.3"/><line class="cls-14" x1="203.16" y1="65.94" x2="203.16" y2="65.58"/><polyline class="cls-14" points="203.16 66.36 203.16 65.94 0.48 65.94"/><polyline class="cls-14" points="203.16 66.6 203.16 66.36 0.48 66.36"/><line class="cls-14" x1="203.16" y1="68.94" x2="11.58" y2="68.94"/><polyline class="cls-14" points="237.72 69.36 237.96 72.72 238.56 76.08 239.58 79.26 240.96 82.38 242.7 85.26 244.8 87.96 247.2 90.36 249.84 92.46 252.78 94.2 255.84 95.58 259.08 96.6 262.44 97.2 265.8 97.38"/><polyline class="cls-16" points="237.6 68.46 238.02 68.46 238.02 67.02 237.6 67.02 237.6 65.58 236.46 65.58 236.46 69.66 237.6 69.66 237.6 68.46"/><polyline class="cls-16" points="194.64 83.04 194.64 69.66 192 69.66 191.64 69.66"/><polyline class="cls-16" points="191.64 71.88 191.64 85.98 192 85.98 194.64 85.98"/><line class="cls-14" x1="192" y1="71.52" x2="192" y2="85.62"/><line class="cls-16" x1="221.58" y1="85.02" x2="203.16" y2="85.02"/><polyline class="cls-16" points="203.16 85.98 222.54 85.98 222.54 85.62 222.54 85.02"/><line class="cls-14" x1="203.16" y1="85.62" x2="222.18" y2="85.62"/><line class="cls-16" x1="160.14" y1="71.88" x2="191.64" y2="71.88"/><line class="cls-16" x1="191.64" y1="69.66" x2="160.14" y2="69.66"/><line class="cls-14" x1="191.64" y1="71.52" x2="160.14" y2="71.52"/><line class="cls-14" x1="191.64" y1="71.52" x2="192" y2="71.52"/><line class="cls-16" x1="203.16" y1="83.04" x2="194.64" y2="83.04"/><line class="cls-16" x1="194.64" y1="85.98" x2="203.16" y2="85.98"/><line class="cls-16" x1="203.16" y1="85.02" x2="203.16" y2="83.04"/><line class="cls-14" x1="194.64" y1="85.62" x2="203.16" y2="85.62"/><line class="cls-14" x1="194.64" y1="85.62" x2="192" y2="85.62"/><polyline class="cls-16" points="203.16 66.6 221.58 66.6 221.58 65.58 203.16 65.58"/><polyline class="cls-14" points="221.58 65.94 203.16 65.94 203.16 66.36 203.16 66.6"/><line class="cls-14" x1="203.16" y1="65.58" x2="203.16" y2="65.94"/><polyline class="cls-16" points="221.58 69.66 236.16 69.66 236.16 65.58 221.58 65.58 221.58 69.66"/><line class="cls-14" x1="236.16" y1="69.3" x2="221.58" y2="69.3"/><line class="cls-14" x1="236.16" y1="65.94" x2="221.58" y2="65.94"/><line class="cls-14" x1="236.16" y1="66.36" x2="221.58" y2="66.36"/><line class="cls-14" x1="236.16" y1="68.94" x2="221.58" y2="68.94"/><line class="cls-16" x1="221.58" y1="69.66" x2="221.58" y2="85.02"/><polyline class="cls-16" points="222.54 85.02 222.54 69.66 221.58 69.66"/><line class="cls-14" x1="222.18" y1="85.02" x2="222.18" y2="69.66"/><line class="cls-14" x1="222.18" y1="85.02" x2="222.18" y2="85.62"/><line class="cls-17" x1="167.58" y1="65.58" x2="102.12" y2="0.12"/><line class="cls-17" x1="179.64" y1="65.58" x2="114.12" y2="0.12"/><line class="cls-17" x1="191.64" y1="65.58" x2="126.18" y2="0.12"/><line class="cls-17" x1="203.7" y1="65.58" x2="138.18" y2="0.12"/><line class="cls-17" x1="215.7" y1="65.58" x2="150.24" y2="0.12"/><line class="cls-17" x1="227.76" y1="65.58" x2="162.24" y2="0.12"/><line class="cls-17" x1="241.8" y1="67.62" x2="174.3" y2="0.12"/><line class="cls-17" x1="253.8" y1="67.62" x2="186.3" y2="0.12"/><line class="cls-17" x1="265.5" y1="67.32" x2="198.36" y2="0.12"/><line class="cls-17" x1="311.58" y1="101.34" x2="210.36" y2="0.12"/><line class="cls-17" x1="316.08" y1="0.12" x2="248.58" y2="67.62"/><line class="cls-17" x1="304.08" y1="0.12" x2="237.6" y2="66.6"/><line class="cls-17" x1="292.02" y1="0.12" x2="226.56" y2="65.58"/><line class="cls-17" x1="280.02" y1="0.12" x2="214.5" y2="65.58"/><line class="cls-17" x1="267.96" y1="0.12" x2="202.5" y2="65.58"/><line class="cls-17" x1="255.96" y1="0.12" x2="190.5" y2="65.58"/><line class="cls-17" x1="243.96" y1="0.12" x2="178.44" y2="65.58"/><line class="cls-17" x1="231.9" y1="0.12" x2="166.44" y2="65.58"/><line class="cls-17" x1="219.9" y1="0.12" x2="154.38" y2="65.58"/><line class="cls-17" x1="207.84" y1="0.12" x2="142.38" y2="65.58"/><line class="cls-18" x1="167.76" y1="56.64" x2="185.76" y2="56.64"/><line class="cls-18" x1="199.26" y1="56.64" x2="200.76" y2="56.64"/><line class="cls-18" x1="214.26" y1="56.64" x2="232.26" y2="56.64"/><line class="cls-18" x1="245.76" y1="56.64" x2="247.26" y2="56.64"/><line class="cls-14" x1="168.18" y1="75.78" x2="177.18" y2="75.78"/><line class="cls-14" x1="186.18" y1="75.78" x2="222.18" y2="75.78"/><line class="cls-14" x1="231.18" y1="75.78" x2="240.18" y2="75.78"/><line class="cls-14" x1="249.18" y1="75.78" x2="285.18" y2="75.78"/><line class="cls-14" x1="212.34" y1="107.34" x2="212.34" y2="71.34"/><line class="cls-14" x1="212.34" y1="62.34" x2="212.34" y2="53.34"/><line class="cls-14" x1="212.34" y1="44.34" x2="212.34" y2="8.34"/><line class="cls-14" x1="178.92" y1="67.62" x2="178.92" y2="52.44"/><line class="cls-14" x1="175.32" y1="39.9" x2="171.72" y2="46.2"/><line class="cls-14" x1="182.52" y1="39.9" x2="175.32" y2="39.9"/><line class="cls-14" x1="186.18" y1="46.2" x2="182.52" y2="39.9"/><line class="cls-14" x1="182.52" y1="52.44" x2="186.18" y2="46.2"/><line class="cls-14" x1="175.32" y1="52.44" x2="182.52" y2="52.44"/><line class="cls-14" x1="171.72" y1="46.2" x2="175.32" y2="52.44"/><text class="cls-19" transform="translate(182.52 50.46) rotate(-90)"><tspan class="cls-20">F</tspan><tspan x="4.86" y="0">2</tspan></text><line class="cls-14" x1="184.5" y1="81.06" x2="184.5" y2="89.16"/><line class="cls-14" x1="193.14" y1="81.06" x2="184.5" y2="81.06"/><line class="cls-14" x1="180.9" y1="89.16" x2="177.24" y2="95.4"/><line class="cls-14" x1="188.1" y1="89.16" x2="180.9" y2="89.16"/><line class="cls-14" x1="191.7" y1="95.4" x2="188.1" y2="89.16"/><line class="cls-14" x1="188.1" y1="101.7" x2="191.7" y2="95.4"/><line class="cls-14" x1="180.9" y1="101.7" x2="188.1" y2="101.7"/><line class="cls-14" x1="177.24" y1="95.4" x2="180.9" y2="101.7"/><text class="cls-21" transform="translate(188.1 99.42) rotate(-90)">L<tspan class="cls-22" x="4.38" y="0">1</tspan></text><line class="cls-14" x1="217.14" y1="90.54" x2="220.68" y2="95.58"/><line class="cls-14" x1="217.14" y1="85.5" x2="217.14" y2="90.54"/><line class="cls-14" x1="217.02" y1="95.58" x2="213.42" y2="101.82"/><line class="cls-14" x1="224.28" y1="95.58" x2="217.02" y2="95.58"/><line class="cls-14" x1="227.88" y1="101.82" x2="224.28" y2="95.58"/><line class="cls-14" x1="224.28" y1="108.12" x2="227.88" y2="101.82"/><line class="cls-14" x1="217.02" y1="108.12" x2="224.28" y2="108.12"/><line class="cls-14" x1="213.42" y1="101.82" x2="217.02" y2="108.12"/><text class="cls-21" transform="translate(224.28 105.84) rotate(-90)">L<tspan class="cls-22" x="4.38" y="0">4</tspan></text><line class="cls-14" x1="169.32" y1="70.74" x2="169.32" y2="89.16"/><line class="cls-14" x1="172.92" y1="89.16" x2="165.72" y2="89.16"/><line class="cls-14" x1="176.52" y1="95.4" x2="172.92" y2="89.16"/><line class="cls-14" x1="172.92" y1="101.7" x2="176.52" y2="95.4"/><line class="cls-14" x1="165.72" y1="101.7" x2="172.92" y2="101.7"/><text class="cls-21" transform="translate(172.92 99.42) rotate(-90)">L<tspan class="cls-22" x="4.38" y="0">2</tspan></text><line class="cls-14" x1="199.56" y1="84.54" x2="199.56" y2="89.16"/><line class="cls-14" x1="195.96" y1="89.16" x2="192.3" y2="95.4"/><line class="cls-14" x1="203.16" y1="89.16" x2="195.96" y2="89.16"/><line class="cls-14" x1="206.76" y1="95.4" x2="203.16" y2="89.16"/><line class="cls-14" x1="203.16" y1="101.7" x2="206.76" y2="95.4"/><line class="cls-14" x1="195.96" y1="101.7" x2="203.16" y2="101.7"/><line class="cls-14" x1="192.3" y1="95.4" x2="195.96" y2="101.7"/><text class="cls-21" transform="translate(203.16 99.42) rotate(-90)">L<tspan class="cls-22" x="4.38" y="0">1</tspan></text><line class="cls-14" x1="219.54" y1="66.12" x2="219.54" y2="56.4"/><line class="cls-14" x1="215.94" y1="43.86" x2="212.28" y2="50.16"/><line class="cls-14" x1="223.14" y1="43.86" x2="215.94" y2="43.86"/><line class="cls-14" x1="226.8" y1="50.16" x2="223.14" y2="43.86"/><line class="cls-14" x1="223.14" y1="56.4" x2="226.8" y2="50.16"/><line class="cls-14" x1="215.94" y1="56.4" x2="223.14" y2="56.4"/><line class="cls-14" x1="212.28" y1="50.16" x2="215.94" y2="56.4"/><text class="cls-21" transform="translate(223.14 54.12) rotate(-90)">L<tspan class="cls-22" x="4.38" y="0">4</tspan></text><line class="cls-14" x1="234.36" y1="67.62" x2="234.36" y2="56.4"/><line class="cls-14" x1="230.76" y1="43.86" x2="227.16" y2="50.16"/><line class="cls-14" x1="238.02" y1="43.86" x2="230.76" y2="43.86"/><line class="cls-14" x1="241.62" y1="50.16" x2="238.02" y2="43.86"/><line class="cls-14" x1="238.02" y1="56.4" x2="241.62" y2="50.16"/><line class="cls-14" x1="230.76" y1="56.4" x2="238.02" y2="56.4"/><line class="cls-14" x1="227.16" y1="50.16" x2="230.76" y2="56.4"/><text class="cls-19" transform="translate(237.96 54.42) rotate(-90)"><tspan class="cls-20">F</tspan><tspan x="4.86" y="0">2</tspan></text><line class="cls-14" x1="236.04" y1="80.22" x2="236.04" y2="95.58"/><line class="cls-14" x1="222.06" y1="80.22" x2="236.04" y2="80.22"/><line class="cls-14" x1="232.44" y1="95.58" x2="228.84" y2="101.82"/><line class="cls-14" x1="239.64" y1="95.58" x2="232.44" y2="95.58"/><line class="cls-14" x1="243.3" y1="101.82" x2="239.64" y2="95.58"/><line class="cls-14" x1="239.64" y1="108.12" x2="243.3" y2="101.82"/><line class="cls-14" x1="232.44" y1="108.12" x2="239.64" y2="108.12"/><line class="cls-14" x1="228.84" y1="101.82" x2="232.44" y2="108.12"/><text class="cls-21" transform="translate(239.64 105.84) rotate(-90)">L<tspan class="cls-22" x="4.38" y="0">4</tspan></text><g class="cls-23"><g class="cls-5"><rect class="cls-3" x="195.42" y="72.66" width="6.18" height="6.24"/></g></g><polyline class="cls-14" points="198.54 78.9 199.38 78.84 200.1 78.48 200.76 78 201.24 77.34 201.54 76.62 201.66 75.78 201.54 75 201.24 74.22 200.76 73.62 200.1 73.08 199.38 72.78 198.54 72.66 197.76 72.78 196.98 73.08 196.32 73.62 195.84 74.22 195.54 75 195.42 75.78 195.54 76.62 195.84 77.34 196.32 78 196.98 78.48 197.76 78.84 198.54 78.9"/><text class="cls-24" transform="translate(200.28 77.34) rotate(-90)">A</text><line class="cls-14" x1="219.12" y1="39.78" x2="184.86" y2="39.78"/><line class="cls-16" x1="191.64" y1="39.78" x2="195.9" y2="35.52"/><line class="cls-16" x1="191.64" y1="39.78" x2="187.38" y2="43.98"/><line class="cls-14" x1="191.64" y1="39.78" x2="191.64" y2="32.94"/><line class="cls-14" x1="191.64" y1="39.78" x2="191.64" y2="53.94"/><line class="cls-16" x1="212.34" y1="39.78" x2="216.6" y2="35.52"/><line class="cls-16" x1="212.34" y1="39.78" x2="208.08" y2="43.98"/><line class="cls-14" x1="212.34" y1="39.78" x2="212.34" y2="32.94"/><line class="cls-14" x1="212.34" y1="39.78" x2="212.34" y2="53.94"/><text class="cls-25" transform="translate(208.56 43.38) rotate(-179.9)">7</text><text class="cls-25" transform="translate(204.18 43.38) rotate(-179.9)">3</text><text class="cls-25" transform="translate(199.8 43.38) rotate(-179.9)">0</text><text class="cls-25" transform="translate(251.04 31.74) rotate(-179.9)">2</text><text class="cls-25" transform="translate(246.66 31.74) rotate(-179.9)">1</text><text class="cls-25" transform="translate(242.28 31.74) rotate(-179.9)">1</text><text class="cls-25" transform="translate(237.9 31.74) rotate(-179.9)">3</text></g></g></svg>