<?xml version="1.0" encoding="utf-8"?>
<svg viewBox="152.43243968486786 63.44254684448242 87.55135548114777 23.933795928955078" xmlns="http://www.w3.org/2000/svg">
  <defs>
    <style>.cls-1,.cls-13,.cls-14,.cls-15,.cls-16,.cls-17,.cls-18,.cls-2{fill:none;}.cls-1{clip-rule:evenodd;}.cls-3{fill:#fff;}.cls-4{clip-path:url(#clip-path);}.cls-5{clip-path:url(#clip-path-2);}.cls-6{clip-path:url(#clip-path-3);}.cls-7{clip-path:url(#clip-path-5);}.cls-8{clip-path:url(#clip-path-7);}.cls-9{clip-path:url(#clip-path-9);}.cls-10{clip-path:url(#clip-path-11);}.cls-11{clip-path:url(#clip-path-13);}.cls-12{clip-path:url(#clip-path-15);}.cls-13{stroke:#464646;}.cls-13,.cls-14,.cls-15,.cls-16,.cls-17,.cls-18{stroke-linecap:round;stroke-linejoin:round;}.cls-13,.cls-14,.cls-17{stroke-width:0.24px;}.cls-14,.cls-15,.cls-16{stroke:#000;}.cls-15{stroke-width:1.38px;}.cls-16{stroke-width:0.96px;}.cls-17{stroke:#656565;}.cls-18{stroke:red;stroke-width:2.82px;}.cls-19,.cls-21{font-size:9.91px;}.cls-19,.cls-21,.cls-24,.cls-25{font-family:ArialNarrow, Arial;}.cls-20{letter-spacing:-0.01em;}.cls-21{letter-spacing:-0.01em;}.cls-22{letter-spacing:0em;}.cls-23{clip-path:url(#clip-path-17);}.cls-24{font-size:5.93px;}.cls-25{font-size:9.91px;}</style>
  </defs>
  <title>Tag_Riser_Sample</title>
  <rect class="cls-3" x="203.16" y="66.6" width="18.42" height="18.42"/>
  <rect class="cls-3" x="192" y="69.66" width="2.64" height="15.96"/>
  <rect class="cls-3" x="191.64" y="71.52" width="0.36" height="14.46"/>
  <rect class="cls-3" x="203.16" y="85.02" width="19.02" height="0.6"/>
  <rect class="cls-3" x="203.16" y="85.62" width="19.38" height="0.36"/>
  <rect class="cls-3" x="160.14" y="71.52" width="31.5" height="0.36"/>
  <rect class="cls-3" x="159.78" y="69.66" width="32.22" height="1.86"/>
  <rect class="cls-3" x="194.64" y="83.04" width="8.52" height="2.58"/>
  <rect class="cls-3" x="192" y="85.62" width="11.16" height="0.36"/>
  <rect class="cls-3" x="203.16" y="65.58" width="18.42" height="1.02"/>
  <rect class="cls-3" x="221.58" y="69.66" width="0.6" height="15.36"/>
  <rect class="cls-3" x="222.18" y="69.66" width="0.36" height="15.96"/>
  <line class="cls-13" x1="213.6" y1="76.68" x2="212.76" y2="76.02"/>
  <line class="cls-13" x1="203.64" y1="68.4" x2="203.16" y2="67.92"/>
  <line class="cls-13" x1="203.64" y1="68.4" x2="203.76" y2="67.5"/>
  <line class="cls-13" x1="213.6" y1="76.68" x2="213.66" y2="75.84"/>
  <line class="cls-13" x1="203.76" y1="67.5" x2="203.16" y2="67.62"/>
  <line class="cls-13" x1="213.66" y1="75.84" x2="212.76" y2="76.02"/>
  <line class="cls-13" x1="210.3" y1="78.24" x2="209.16" y2="77.1"/>
  <line class="cls-13" x1="210.54" y1="76.98" x2="209.16" y2="77.1"/>
  <line class="cls-13" x1="210.3" y1="78.24" x2="210.54" y2="76.98"/>
  <line class="cls-13" x1="219.54" y1="71.88" x2="219.12" y2="70.86"/>
  <line class="cls-13" x1="213.72" y1="80.46" x2="213.3" y2="79.44"/>
  <line class="cls-13" x1="209.1" y1="68.4" x2="208.68" y2="67.38"/>
  <line class="cls-13" x1="203.28" y1="76.98" x2="203.16" y2="76.62"/>
  <line class="cls-13" x1="203.28" y1="76.98" x2="203.76" y2="76.26"/>
  <line class="cls-13" x1="209.1" y1="68.4" x2="209.58" y2="67.68"/>
  <line class="cls-13" x1="213.72" y1="80.46" x2="214.2" y2="79.74"/>
  <polyline class="cls-13" points="219.54 71.88 220.02 71.16 219.12 70.86"/>
  <line class="cls-13" x1="209.58" y1="67.68" x2="208.68" y2="67.38"/>
  <line class="cls-13" x1="214.2" y1="79.74" x2="213.3" y2="79.44"/>
  <line class="cls-13" x1="203.76" y1="76.26" x2="203.16" y2="76.02"/>
  <line class="cls-13" x1="206.16" y1="77.82" x2="206.1" y2="77.76"/>
  <line class="cls-13" x1="210.9" y1="78" x2="210.9" y2="77.94"/>
  <line class="cls-13" x1="205.14" y1="70.44" x2="205.08" y2="70.32"/>
  <line class="cls-13" x1="215.7" y1="78.18" x2="215.64" y2="78.12"/>
  <line class="cls-13" x1="209.94" y1="70.62" x2="209.88" y2="70.5"/>
  <line class="cls-13" x1="220.5" y1="78.36" x2="220.44" y2="78.24"/>
  <line class="cls-13" x1="214.68" y1="70.8" x2="214.62" y2="70.68"/>
  <line class="cls-13" x1="219.48" y1="70.92" x2="219.42" y2="70.86"/>
  <line class="cls-13" x1="205.5" y1="77.94" x2="205.5" y2="77.82"/>
  <line class="cls-13" x1="205.08" y1="74.34" x2="205.02" y2="74.22"/>
  <line class="cls-13" x1="204.36" y1="68.88" x2="204.3" y2="68.76"/>
  <line class="cls-13" x1="211.2" y1="81.72" x2="211.2" y2="81.6"/>
  <line class="cls-13" x1="210.72" y1="78.12" x2="210.72" y2="78"/>
  <line class="cls-13" x1="210" y1="72.66" x2="210" y2="72.54"/>
  <line class="cls-13" x1="216.42" y1="81.9" x2="216.42" y2="81.78"/>
  <line class="cls-13" x1="215.7" y1="76.44" x2="215.7" y2="76.32"/>
  <line class="cls-13" x1="214.5" y1="67.32" x2="214.5" y2="67.26"/>
  <line class="cls-13" x1="221.4" y1="80.22" x2="221.34" y2="80.16"/>
  <line class="cls-13" x1="220.2" y1="71.16" x2="220.14" y2="71.04"/>
  <line class="cls-13" x1="219.72" y1="67.5" x2="219.66" y2="67.44"/>
  <line class="cls-13" x1="207.48" y1="73.56" x2="207.54" y2="73.5"/>
  <line class="cls-13" x1="207.18" y1="81.24" x2="207.24" y2="81.18"/>
  <line class="cls-13" x1="215.16" y1="68.7" x2="215.22" y2="68.58"/>
  <line class="cls-13" x1="214.86" y1="76.38" x2="214.92" y2="76.26"/>
  <line class="cls-13" x1="216.78" y1="73.32" x2="216.84" y2="73.26"/>
  <line class="cls-13" x1="214.5" y1="84.06" x2="214.56" y2="84"/>
  <line class="cls-13" x1="216.48" y1="81" x2="216.54" y2="80.94"/>
  <line class="cls-13" x1="207.6" y1="74.94" x2="207.66" y2="74.88"/>
  <line class="cls-13" x1="210.78" y1="71.52" x2="210.84" y2="71.4"/>
  <line class="cls-13" x1="209.04" y1="83.34" x2="209.1" y2="83.28"/>
  <line class="cls-13" x1="212.22" y1="79.92" x2="212.28" y2="79.8"/>
  <line class="cls-13" x1="217.26" y1="74.4" x2="217.32" y2="74.34"/>
  <line class="cls-13" x1="218.7" y1="82.8" x2="218.76" y2="82.74"/>
  <line class="cls-14" x1="192.78" y1="69.3" x2="192.12" y2="69.66"/>
  <line class="cls-14" x1="199.5" y1="69.48" x2="199.86" y2="69.66"/>
  <line class="cls-14" x1="192.96" y1="69.18" x2="192.78" y2="69.3"/>
  <line class="cls-14" x1="191.64" y1="71.58" x2="192" y2="71.82"/>
  <line class="cls-14" x1="191.64" y1="84.9" x2="191.7" y2="84.9"/>
  <line class="cls-14" x1="179.1" y1="71.88" x2="179.1" y2="71.52"/>
  <line class="cls-14" x1="191.64" y1="71.58" x2="191.64" y2="71.58"/>
  <line class="cls-14" x1="219.42" y1="65.94" x2="219.42" y2="65.58"/>
  <line class="cls-14" x1="233.76" y1="69.3" x2="233.94" y2="69.42"/>
  <line class="cls-14" x1="233.16" y1="68.94" x2="233.76" y2="69.3"/>
  <line class="cls-14" x1="222.36" y1="76.02" x2="222.54" y2="76.14"/>
  <line class="cls-14" x1="194.64" y1="83.04" x2="203.16" y2="83.04"/>
  <line class="cls-14" x1="194.64" y1="68.58" x2="194.64" y2="83.04"/>
  <polyline class="cls-14" points="203.16 68.58 194.64 68.58 203.16 83.04"/>
  <polyline class="cls-14" points="194.64 83.04 203.16 68.58 203.16 83.04"/>
  <line class="cls-14" x1="194.64" y1="83.04" x2="203.16" y2="83.04"/>
  <line class="cls-14" x1="194.64" y1="69.66" x2="194.64" y2="83.04"/>
  <line class="cls-14" x1="195.3" y1="69.66" x2="203.16" y2="83.04"/>
  <line class="cls-14" x1="194.64" y1="83.04" x2="202.5" y2="69.66"/>
  <polyline class="cls-15" points="221.58 66.6 203.16 66.6 203.16 85.02 221.58 85.02 221.58 66.6"/>
  <polyline class="cls-16" points="203.16 65.58 165.61 65.569 155.38 65.658" transform=""/>
  <line class="cls-14" x1="203.16" y1="65.94" x2="203.16" y2="65.58"/>
  <polyline class="cls-16" points="237.6 68.46 238.02 68.46 238.02 67.02 237.6 67.02 237.6 65.58 236.46 65.58 236.46 69.66 237.6 69.66 237.6 68.46"/>
  <polyline class="cls-16" points="194.64 83.04 194.64 69.66 192 69.66 191.64 69.66"/>
  <polyline class="cls-16" points="191.64 71.88 191.64 85.98 192 85.98 194.64 85.98"/>
  <line class="cls-14" x1="192" y1="71.52" x2="192" y2="85.62"/>
  <line class="cls-16" x1="221.58" y1="85.02" x2="203.16" y2="85.02"/>
  <polyline class="cls-16" points="203.16 85.98 222.54 85.98 222.54 85.62 222.54 85.02"/>
  <line class="cls-14" x1="203.16" y1="85.62" x2="222.18" y2="85.62"/>
  <line class="cls-16" x1="160.14" y1="71.88" x2="191.64" y2="71.88"/>
  <line class="cls-16" x1="191.64" y1="69.66" x2="160.14" y2="69.66"/>
  <line class="cls-14" x1="191.64" y1="71.52" x2="160.14" y2="71.52"/>
  <line class="cls-14" x1="191.64" y1="71.52" x2="192" y2="71.52"/>
  <line class="cls-16" x1="203.16" y1="83.04" x2="194.64" y2="83.04"/>
  <line class="cls-16" x1="194.64" y1="85.98" x2="203.16" y2="85.98"/>
  <line class="cls-16" x1="203.16" y1="85.02" x2="203.16" y2="83.04"/>
  <line class="cls-14" x1="194.64" y1="85.62" x2="203.16" y2="85.62"/>
  <line class="cls-14" x1="194.64" y1="85.62" x2="192" y2="85.62"/>
  <polyline class="cls-16" points="203.16 66.6 221.58 66.6 221.58 65.58 203.16 65.58"/>
  <polyline class="cls-14" points="221.58 65.94 203.16 65.94 203.16 66.36 203.16 66.6"/>
  <line class="cls-14" x1="203.16" y1="65.58" x2="203.16" y2="65.94"/>
  <polyline class="cls-16" points="221.58 69.66 236.16 69.66 236.16 65.58 221.58 65.58 221.58 69.66"/>
  <line class="cls-14" x1="236.16" y1="69.3" x2="221.58" y2="69.3"/>
  <line class="cls-14" x1="236.16" y1="65.94" x2="221.58" y2="65.94"/>
  <line class="cls-14" x1="236.16" y1="66.36" x2="221.58" y2="66.36"/>
  <line class="cls-14" x1="236.16" y1="68.94" x2="221.58" y2="68.94"/>
  <line class="cls-16" x1="221.58" y1="69.66" x2="221.58" y2="85.02"/>
  <polyline class="cls-16" points="222.54 85.02 222.54 69.66 221.58 69.66"/>
  <line class="cls-14" x1="222.18" y1="85.02" x2="222.18" y2="69.66"/>
  <line class="cls-14" x1="222.18" y1="85.02" x2="222.18" y2="85.62"/>
  <rect class="cls-3" x="195.42" y="72.66" width="6.18" height="6.24"/>
  <polyline class="cls-14" points="198.54 78.9 199.38 78.84 200.1 78.48 200.76 78 201.24 77.34 201.54 76.62 201.66 75.78 201.54 75 201.24 74.22 200.76 73.62 200.1 73.08 199.38 72.78 198.54 72.66 197.76 72.78 196.98 73.08 196.32 73.62 195.84 74.22 195.54 75 195.42 75.78 195.54 76.62 195.84 77.34 196.32 78 196.98 78.48 197.76 78.84 198.54 78.9"/>
  <text class="cls-24" transform="matrix(0, -1, 1, 0, 200.279999, 77.339996)" style="white-space: pre; font-size: 5.9px;" x="0" y="0">A</text>
</svg>