<svg xmlns="http://www.w3.org/2000/svg" xmlns:xlink="http://www.w3.org/1999/xlink" viewBox="0 0 14.16 16.32"><defs><style>.cls-1,.cls-2,.cls-6{fill:none;}.cls-1{clip-rule:evenodd;}.cls-3{clip-path:url(#clip-path);}.cls-4{clip-path:url(#clip-path-2);}.cls-5{fill:#fff;}.cls-6{stroke:#000;stroke-linecap:round;stroke-linejoin:round;stroke-width:0.24px;}.cls-7{font-size:9.77px;font-family:ArialMT, Arial;}</style><clipPath id="clip-path" transform="translate(-2933.34 -259.29)"><path class="cls-1" d="M2933.46,259.41v16l.36-.18.06-.06c2.17-1.21,4.31-2.5,6.48-3.72l.06-.06.36-.18.06-.06.36-.18c.21-.22.56-.26.78-.48l.36-.18.06-.06c.37-.18.71-.41,1.08-.6l.06-.06.36-.18.06-.06c1-.56,2-1.19,3.06-1.74l.06-.06.24-.12.06-.06-.06-.06-.24-.12-.06-.06-.36-.18c-.21-.22-.57-.26-.78-.48l-.36-.18-.06-.06c-.37-.18-.71-.41-1.08-.6l-.06-.06-.36-.18-.06-.06c-1-.56-2-1.19-3.06-1.74l-.06-.06-.36-.18-.06-.06c-2.17-1.22-4.31-2.51-6.48-3.72l-.06-.06-.24-.12"/></clipPath><clipPath id="clip-path-2" transform="translate(-2933.34 -259.29)"><rect class="cls-2" width="3370.02" height="2383.98"/></clipPath></defs><title>test</title><g id="Layer_2" data-name="Layer 2"><g id="Layer_1-2" data-name="Layer 1"><g class="cls-3"><g class="cls-4"><rect class="cls-5" x="0.12" y="0.12" width="13.92" height="16.02"/></g></g><polyline class="cls-6" points="0.12 0.12 0.12 16.2 14.04 8.16 0.12 0.12"/><text class="cls-7" transform="translate(1.2 12.06)">H</text></g></g></svg>