<svg id="Layer_1" data-name="Layer 1" xmlns="http://www.w3.org/2000/svg" xmlns:xlink="http://www.w3.org/1999/xlink" viewBox="0 0 71.86 68.24"><defs><style>.cls-1,.cls-2,.cls-6,.cls-7,.cls-8{fill:none;}.cls-1{clip-rule:evenodd;}.cls-3{clip-path:url(#clip-path);}.cls-4{clip-path:url(#clip-path-2);}.cls-5{fill:#fff;}.cls-6{stroke:#e52521;}.cls-6,.cls-7,.cls-8{stroke-linecap:round;stroke-linejoin:round;}.cls-6,.cls-7{stroke-width:0.96px;}.cls-7,.cls-8{stroke:#000;}.cls-8{stroke-width:0.24px;}.cls-9{fill-rule:evenodd;}.cls-10{font-size:9.91px;font-family:ArialNarrow, Arial;}.cls-11{letter-spacing:-0.01em;}.cls-12{letter-spacing:-0.02em;}.cls-13{letter-spacing:-0.01em;}.cls-14{letter-spacing:-0.01em;}</style><clipPath id="clip-path"><path class="cls-1" d="M54.27,16.16v.72h-.42v1.38h.42v1.26h1.14V16.16m-38.82,0v3.36h1.14V18.26h.42V16.88h-.42v-.72Z"/></clipPath><clipPath id="clip-path-2"><rect class="cls-2" x="-1635.15" y="-1419.61" width="3370.02" height="2383.98"/></clipPath></defs><title>Tag_Door Finish</title><g class="cls-3"><g class="cls-4"><rect class="cls-5" x="16.59" y="16.16" width="38.82" height="3.36"/></g></g><line class="cls-6" x1="53.01" y1="55.82" x2="54.15" y2="55.82"/><line class="cls-6" x1="53.01" y1="19.58" x2="54.15" y2="19.58"/><line class="cls-6" x1="53.01" y1="19.58" x2="53.01" y2="55.82"/><line class="cls-6" x1="54.15" y1="19.58" x2="54.15" y2="55.82"/><polyline class="cls-6" points="17.85 19.58 18.09 23.6 18.75 27.62 19.89 31.52 21.45 35.3 23.43 38.84 25.77 42.2 28.47 45.2 31.53 47.9 34.83 50.3 38.37 52.22 42.15 53.78 46.05 54.92"/><polyline class="cls-6" points="46.05 54.92 50.07 55.58 54.15 55.82"/><polyline class="cls-7" points="54.27 18.26 54.27 19.52 55.41 19.52 55.41 16.16 54.27 16.16 54.27 16.88 53.85 16.88 53.85 18.26 54.27 18.26"/><polyline class="cls-7" points="17.73 18.26 18.15 18.26 18.15 16.88 17.73 16.88 17.73 16.16 16.59 16.16 16.59 19.52 17.73 19.52 17.73 18.26"/><polyline class="cls-7" points="10.4 19.52 16.29 19.52 16.29 16.16 10.4 16.16"/><polyline class="cls-7" points="55.71 19.52 63.69 19.52 63.69 19.16 63.69 16.16"/><polyline class="cls-7" points="60.33 16.16 55.71 16.16 55.71 19.52"/><line class="cls-8" x1="63.33" y1="19.16" x2="55.71" y2="19.16"/><line class="cls-8" x1="60.69" y1="16.52" x2="55.71" y2="16.52"/><path class="cls-9" d="M36.81,19.94a2.15,2.15,0,0,1-2.16,2.16,2.1,2.1,0,0,1-2.1-2.16,2.05,2.05,0,0,1,2.1-2.1,2.1,2.1,0,0,1,2.16,2.1"/><path class="cls-8" d="M36.81,19.94a2.15,2.15,0,0,1-2.16,2.16,2.1,2.1,0,0,1-2.1-2.16,2.05,2.05,0,0,1,2.1-2.1A2.1,2.1,0,0,1,36.81,19.94Z"/><line class="cls-8" x1="34.65" y1="20" x2="33.93" y2="58.82"/><line class="cls-8" x1="53.37" y1="68.24" x2="14.49" y2="68.24"/><line class="cls-8" x1="14.49" y1="68.24" x2="14.49" y2="60.14"/><line class="cls-8" x1="53.37" y1="60.14" x2="53.37" y2="68.24"/><line class="cls-8" x1="14.49" y1="60.14" x2="53.37" y2="60.14"/><text class="cls-10" transform="translate(18.75 67.88)"><tspan class="cls-11">P</tspan><tspan class="cls-12" x="5.35" y="0">T</tspan><tspan class="cls-11" x="10.16" y="0">-</tspan><tspan class="cls-13" x="12.79" y="0">1</tspan><tspan class="cls-14" x="17.17" y="0">0</tspan><tspan class="cls-13" x="21.62" y="0">7</tspan><tspan x="26" y="0">d</tspan></text></svg>