<?xml version="1.0" encoding="utf-8"?>
<svg viewBox="144.30783081054688 64.05524444580078 160.47763061523438 188.12078857421875" xmlns="http://www.w3.org/2000/svg">
  <defs>
    <style>.cls-1,.cls-2,.cls-22,.cls-23,.cls-24,.cls-25,.cls-26,.cls-27,.cls-28,.cls-29,.cls-30,.cls-67{fill:none;}.cls-1{clip-rule:evenodd;}.cls-3{fill:#fff;}.cls-4{clip-path:url(#clip-path);}.cls-5{clip-path:url(#clip-path-2);}.cls-6{fill:#c8e6e6;}.cls-7{clip-path:url(#clip-path-3);}.cls-8{clip-path:url(#clip-path-5);}.cls-9{clip-path:url(#clip-path-7);}.cls-10{clip-path:url(#clip-path-9);}.cls-11{clip-path:url(#clip-path-11);}.cls-12{clip-path:url(#clip-path-13);}.cls-13{clip-path:url(#clip-path-15);}.cls-14{clip-path:url(#clip-path-17);}.cls-15{clip-path:url(#clip-path-19);}.cls-16{clip-path:url(#clip-path-21);}.cls-17{clip-path:url(#clip-path-23);}.cls-18{clip-path:url(#clip-path-25);}.cls-19{clip-path:url(#clip-path-27);}.cls-20{clip-path:url(#clip-path-29);}.cls-21{clip-path:url(#clip-path-31);}.cls-22{stroke:#7e7e7e;}.cls-22,.cls-23,.cls-24,.cls-25,.cls-26,.cls-27,.cls-28,.cls-29,.cls-30,.cls-67{stroke-linecap:round;stroke-linejoin:round;}.cls-22,.cls-23,.cls-24,.cls-28,.cls-29,.cls-30{stroke-width:0.24px;}.cls-23,.cls-25,.cls-26,.cls-27{stroke:#000;}.cls-24{stroke:#464646;}.cls-25{stroke-width:0.36px;}.cls-26{stroke-width:0.96px;}.cls-27{stroke-width:1.38px;}.cls-28,.cls-67{stroke:red;}.cls-29{stroke:#008040;}.cls-30{stroke:#656565;}.cls-31,.cls-68{font-size:7.95px;}.cls-31,.cls-38,.cls-55,.cls-66,.cls-68{font-family:ArialNarrow, Arial;}.cls-32{letter-spacing:-0.02em;}.cls-33{letter-spacing:0em;}.cls-34{letter-spacing:-0.02em;}.cls-35{letter-spacing:-0.01em;}.cls-36{letter-spacing:-0.01em;}.cls-37{letter-spacing:-0.02em;}.cls-38,.cls-55{font-size:9.91px;}.cls-39{letter-spacing:-0.01em;}.cls-40{letter-spacing:-0.02em;}.cls-41{letter-spacing:-0.01em;}.cls-42{letter-spacing:-0.01em;}.cls-43{letter-spacing:-0.01em;}.cls-44{letter-spacing:-0.02em;}.cls-45{letter-spacing:-0.01em;}.cls-46{letter-spacing:-0.01em;}.cls-47{letter-spacing:-0.01em;}.cls-48{letter-spacing:-0.01em;}.cls-49{letter-spacing:-0.01em;}.cls-50{letter-spacing:-0.01em;}.cls-51{letter-spacing:-0.01em;}.cls-52{letter-spacing:0em;}.cls-53{clip-path:url(#clip-path-33);}.cls-54{font-size:9.77px;font-family:ArialMT, Arial;}.cls-55,.cls-65{letter-spacing:-0.01em;}.cls-56{letter-spacing:0em;}.cls-57{letter-spacing:-0.01em;}.cls-58{letter-spacing:-0.01em;}.cls-59{fill-rule:evenodd;}.cls-60{letter-spacing:2.78em;}.cls-61{letter-spacing:5.75em;}.cls-62{letter-spacing:7.15em;}.cls-63{letter-spacing:6.8em;}.cls-64{letter-spacing:-0.01em;}.cls-66{font-size:9.91px;}.cls-67{stroke-width:0.66px;}.cls-68{fill:red;}.cls-69{letter-spacing:-0.01em;}.cls-70{letter-spacing:-0.02em;}.cls-71{letter-spacing:-0.02em;}.cls-72{letter-spacing:-0.02em;}</style>
  </defs>
  <title>Tag_Impact_Sample</title>
  <rect class="cls-3" x="79.56" y="141.84" width="17.04" height="16.98" transform="matrix(0, 1, -1, 0, 322.379242, -5.723106)"/>
  <rect class="cls-3" x="236.879" y="166.021" width="4.26" height="4.26" transform="matrix(0, 1, -0.999996, 0, 322.37938, -5.72229)"/>
  <rect class="cls-6" x="252.286" y="229.906" width="45.18" height="0.72" transform="matrix(0, 1, -1, 0, 382.965607, -66.309287)"/>
  <rect class="cls-3" x="150.946" y="229.906" width="33.3" height="0.72" transform="matrix(0, 1, -1, 0, 382.965607, -66.30938)"/>
  <g class="cls-7" transform="matrix(0, 1, -1, 0, 322.379364, -5.723145)">
    <g class="cls-5">
      <rect class="cls-3" x="190.98" y="166.02" width="45.9" height="4.26"/>
    </g>
  </g>
  <g class="cls-8" transform="matrix(0, 1, -1, 0, 322.379364, -5.723145)">
    <g class="cls-5">
      <rect class="cls-3" x="90.36" y="166.02" width="34.02" height="4.26"/>
    </g>
  </g>
  <rect class="cls-3" x="122.94" y="166.021" width="1.44" height="3.3" transform="matrix(0, 1, -1.000005, 0, 322.380895, -5.723137)"/>
  <g class="cls-9">
    <g class="cls-5"/>
  </g>
  <g class="cls-10">
    <g class="cls-5"/>
  </g>
  <rect class="cls-3" x="157.68" y="164.278" width="45.3" height="1.08" transform="matrix(0, 1, -1, 0, 322.377045, -5.723083)"/>
  <rect class="cls-3" x="190.98" y="166.021" width="1.44" height="3.3" transform="matrix(0, 1, -1.000005, 0, 322.380895, -5.72316)"/>
  <g class="cls-11">
    <g class="cls-5"/>
  </g>
  <g class="cls-13" transform="matrix(0, 1, -1, 0, 322.379364, -5.723145)">
    <g class="cls-5">
      <rect class="cls-3" x="103.32" y="56.46" width="3.3" height="25.8"/>
    </g>
  </g>
  <rect class="cls-3" x="85.081" y="158.82" width="1.86" height="5.82" transform="matrix(0, 1, -1, 0, 322.379364, -5.723854)"/>
  <rect class="cls-3" x="86.94" y="158.82" width="0.72" height="10.08" transform="matrix(0, 1, -1, 0, 322.37912, -5.723137)"/>
  <rect class="cls-3" x="145.906" y="98.686" width="0.36" height="46.38" transform="matrix(0, 1, -1, 0, 382.965583, -66.30938)"/>
  <rect class="cls-3" x="143.686" y="98.686" width="1.8" height="48.6" transform="matrix(0, 1, -1, 0, 382.965584, -66.30938)"/>
  <rect class="cls-3" x="145.486" y="98.686" width="0.42" height="46.74" transform="matrix(0, 1, -1, 0, 382.965583, -66.30938)"/>
  <rect class="cls-6" x="297.766" y="200.266" width="0.72" height="26.34" transform="matrix(0, 1, -1, 0, 382.965607, -66.309387)"/>
  <g class="cls-16" transform="matrix(0, 1, -1, 0, 322.379364, -5.723145)">
    <g class="cls-5">
      <rect class="cls-3" x="236.88" y="138.96" width="4.26" height="27.06"/>
    </g>
  </g>
  <rect class="cls-3" x="237.899" y="54.66" width="3.24" height="1.38" transform="matrix(0, 1, -1.000003, 0, 322.379675, -5.722015)"/>
  <rect class="cls-3" x="241.863" y="113.16" width="1.08" height="37.86" transform="matrix(0, 0.999986, -1, 0, 322.379303, -5.723145)"/>
  <rect class="cls-3" x="237.899" y="138.96" width="3.24" height="1.44" transform="matrix(0, 1, -1, 0, 322.379364, -5.722015)"/>
  <rect class="cls-6" x="297.766" y="115.246" width="0.72" height="32.04" transform="matrix(0, 1, -1, 0, 382.965607, -66.309387)"/>
  <g class="cls-17" transform="matrix(0, 1, -1, 0, 322.379364, -5.723145)">
    <g class="cls-5">
      <rect class="cls-3" x="236.88" y="54.66" width="4.26" height="32.7"/>
    </g>
  </g>
  <rect class="cls-3" x="237.899" y="85.979" width="3.24" height="1.38" transform="matrix(0, 1, -0.999994, 0, 322.378431, -5.722015)"/>
  <rect class="cls-3" x="83.1" y="86.7" width="21" height="4.2" transform="matrix(0, 1, -0.999998, 0, 322.379542, -5.723145)"/>
  <rect class="cls-3" x="96.6" y="154.559" width="7.5" height="4.26" transform="matrix(0, 1, -0.999996, 0, 322.378261, -5.723145)"/>
  <rect class="cls-3" x="98.641" y="95.46" width="1.2" height="41.1" transform="matrix(0, 1, -1, 0, 322.37942, -5.724411)"/>
  <rect class="cls-3" x="139.426" y="197.146" width="21" height="4.56" transform="matrix(0, 1, -1, 0, 382.965607, -66.30938)"/>
  <rect class="cls-3" x="146.266" y="144.706" width="20.94" height="0.36" transform="matrix(0, 1, -1, 0, 382.965607, -66.30938)"/>
  <rect class="cls-3" x="84.9" y="84.839" width="21" height="1.86" transform="matrix(0, 1, -1, 0, 322.378654, -5.723145)"/>
  <rect class="cls-3" x="145.906" y="145.066" width="20.94" height="0.36" transform="matrix(0, 1, -1, 0, 382.965607, -66.30938)"/>
  <rect class="cls-3" x="99.84" y="92.34" width="4.26" height="62.22" transform="matrix(0, 1.000002, -1, 0, 322.379364, -5.72314)"/>
  <rect class="cls-3" x="77.46" y="92.34" width="22.38" height="3.12" transform="matrix(0, 1, -1, 0, 322.379128, -5.723175)"/>
  <rect class="cls-3" x="139.426" y="151.486" width="25.26" height="1.44" transform="matrix(0, 1, -1, 0, 382.965607, -66.30938)"/>
  <rect class="cls-3" x="138.046" y="229.486" width="10.2" height="1.38" transform="matrix(0, 1, -1, 0, 382.965607, -66.30938)"/>
  <rect class="cls-3" x="74.34" y="170.28" width="13.32" height="3.12" transform="matrix(0, 1, -1, 0, 322.379364, -5.723099)"/>
  <g class="cls-18" transform="matrix(0, 1, -1, 0, 322.379364, -5.723145)">
    <g class="cls-5">
      <rect class="cls-3" x="87.66" y="166.02" width="2.7" height="7.68"/>
    </g>
  </g>
  <rect class="cls-3" x="166.846" y="145.066" width="0.36" height="76.32" transform="matrix(0, 1, -1, 0, 382.965607, -66.30938)"/>
  <rect class="cls-3" x="164.686" y="147.286" width="1.8" height="74.1" transform="matrix(0, 1, -1, 0, 382.965607, -66.30938)"/>
  <rect class="cls-3" x="166.486" y="145.426" width="0.36" height="75.96" transform="matrix(0, 1, -1, 0, 382.965607, -66.30938)"/>
  <rect class="cls-3" x="78.84" y="158.82" width="4.26" height="10.08" transform="matrix(0, 1, -1, 0, 322.37912, -5.722992)"/>
  <rect class="cls-3" x="83.1" y="164.641" width="3.84" height="4.26" transform="matrix(0, 1, -1, 0, 322.379974, -5.723145)"/>
  <g class="cls-19" transform="matrix(0, 1, -1, 0, 322.379364, -5.723145)">
    <g class="cls-5">
      <rect class="cls-3" x="106.26" y="34.8" width="0.36" height="49.32"/>
    </g>
  </g>
  <g class="cls-20" transform="matrix(0, 1, -1, 0, 322.379364, -5.723145)">
    <g class="cls-5">
      <rect class="cls-3" x="103.32" y="37.74" width="0.36" height="46.38"/>
    </g>
  </g>
  <g class="cls-21" transform="matrix(0, 1, -1, 0, 322.379364, -5.723145)">
    <g class="cls-5">
      <rect class="cls-3" x="103.68" y="35.16" width="2.58" height="48.96"/>
    </g>
  </g>
  <rect class="cls-3" x="143.686" y="98.326" width="20.22" height="0.36" transform="matrix(0, 1, -1.000042, 0, 382.969782, -66.30938)"/>
  <rect class="cls-3" x="143.686" y="95.386" width="23.16" height="0.36" transform="matrix(0, 1, -0.999958, 0, 382.961548, -66.30938)"/>
  <rect class="cls-3" x="83.1" y="35.16" width="20.58" height="2.58" transform="matrix(0, 1, -0.999994, 0, 322.379217, -5.723145)"/>
  <rect class="cls-3" x="191.7" y="54.66" width="16.98" height="2.04" transform="matrix(0, 1, -1, 0, 322.379581, -5.723328)"/>
  <rect class="cls-3" x="106.62" y="54.66" width="17.04" height="2.04" transform="matrix(0, 1, -1, 0, 322.379581, -5.723198)"/>
  <rect class="cls-3" x="208.68" y="54.66" width="12.78" height="2.04" transform="matrix(0, 1, -1, 0, 322.379581, -5.723145)"/>
  <rect class="cls-3" x="221.46" y="54.66" width="15.42" height="2.04" transform="matrix(0, 1, -1, 0, 322.379581, -5.723373)"/>
  <rect class="cls-3" x="140.64" y="54.66" width="34.02" height="2.04" transform="matrix(0, 1, -1, 0, 322.379581, -5.723221)"/>
  <rect class="cls-3" x="123.66" y="54.66" width="16.98" height="2.04" transform="matrix(0, 1, -1, 0, 322.379581, -5.723086)"/>
  <rect class="cls-3" x="174.66" y="54.66" width="17.04" height="2.04" transform="matrix(0, 1, -1, 0, 322.379581, -5.723145)"/>
  <rect class="cls-3" x="148.246" y="221.386" width="36.72" height="3" transform="matrix(0, 1, -1, 0, 382.965607, -66.30938)"/>
  <line class="cls-22" x1="152.58" y1="69.097" x2="152.1" y2="68.617" transform="matrix(0, 1, -1, 0, 221.196986, -83.483)"/>
  <line class="cls-22" x1="166.86" y1="71.737" x2="163.74" y2="68.617" transform="matrix(0, 1, -1, 0, 235.477006, -95.122981)"/>
  <line class="cls-22" x1="181.14" y1="71.737" x2="178.02" y2="68.617" transform="matrix(0, 1, -1, 0, 249.757026, -109.403001)"/>
  <line class="cls-22" x1="238.14" y1="71.737" x2="235.02" y2="68.617" transform="matrix(0, 1, -1, 0, 306.757031, -166.403006)"/>
  <line class="cls-22" x1="280.92" y1="71.737" x2="277.8" y2="68.617" transform="matrix(0, 1, -1, 0, 349.53699, -209.182965)"/>
  <line class="cls-22" x1="295.14" y1="71.737" x2="292.02" y2="68.617" transform="matrix(0, 1, -1, 0, 363.757036, -223.403011)"/>
  <line class="cls-22" x1="156.06" y1="71.737" x2="152.94" y2="68.617" transform="matrix(0, 1, -1, 0, 224.677019, -84.322995)"/>
  <line class="cls-22" x1="170.34" y1="71.737" x2="167.22" y2="68.617" transform="matrix(0, 1, -1, 0, 238.957018, -98.602993)"/>
  <line class="cls-22" x1="184.56" y1="71.737" x2="181.44" y2="68.617" transform="matrix(0, 1, -1, 0, 253.177022, -112.822997)"/>
  <line class="cls-22" x1="227.34" y1="69.037" x2="226.92" y2="68.617" transform="matrix(0, 1, -1, 0, 295.957002, -158.30299)"/>
  <line class="cls-22" x1="241.59" y1="71.707" x2="238.47" y2="68.647" transform="matrix(0, 1, -1, 0, 310.206993, -169.852968)"/>
  <line class="cls-22" x1="284.34" y1="71.737" x2="281.22" y2="68.617" transform="matrix(0, 1, -1, 0, 352.957028, -212.603004)"/>
  <line class="cls-23" x1="160.8" y1="81.757" x2="161.04" y2="81.877" transform="matrix(0, 1, -1, 0, 242.736985, -79.102997)"/>
  <line class="cls-23" x1="281.94" y1="79.237" x2="282.24" y2="79.417" transform="matrix(0, 1, -1, 0, 361.416994, -202.763002)"/>
  <line class="cls-22" x1="185.82" y1="81.277" x2="182.7" y2="78.157" transform="matrix(0, 1, -1, 0, 263.977008, -104.543017)"/>
  <line class="cls-22" x1="185.79" y1="94.147" x2="184.11" y2="92.407" transform="matrix(0, 1, -1, 0, 278.226978, -91.672998)"/>
  <line class="cls-22" x1="185.82" y1="84.757" x2="182.7" y2="81.637" transform="matrix(0, 1, -1, 0, 267.457021, -101.063004)"/>
  <line class="cls-23" x1="237.63" y1="99.607" x2="237.51" y2="99.667" transform="matrix(0, 1, -1, 0, 337.206991, -137.932991)"/>
  <line class="cls-22" x1="230.04" y1="79.837" x2="226.92" y2="76.717" transform="matrix(0, 1, -1, 0, 306.756988, -150.202973)"/>
  <line class="cls-22" x1="230.04" y1="94.057" x2="226.92" y2="90.937" transform="matrix(0, 1, -1, 0, 320.976971, -135.982991)"/>
  <line class="cls-22" x1="230.04" y1="83.257" x2="226.92" y2="80.137" transform="matrix(0, 1, -1, 0, 310.176985, -146.782977)"/>
  <line class="cls-22" x1="152.1" y1="72.217" x2="148.98" y2="69.097" transform="matrix(0, 1, -1, 0, 221.197007, -79.883018)"/>
  <line class="cls-22" x1="152.1" y1="75.697" x2="148.98" y2="72.577" transform="matrix(0, 1, -1, 0, 224.677019, -76.403006)"/>
  <line class="cls-23" x1="165.18" y1="100.657" x2="164.88" y2="100.837" transform="matrix(0, 1, -1, 0, 265.776988, -64.283021)"/>
  <line class="cls-23" x1="224.79" y1="100.267" x2="224.49" y2="100.387" transform="matrix(0, 1, -1, 0, 324.966995, -124.313001)"/>
  <line class="cls-24" x1="175.2" y1="88.837" x2="174.36" y2="88.117" transform="matrix(0, 1, -1, 0, 263.256982, -86.302981)"/>
  <line class="cls-24" x1="164.88" y1="87.937" x2="164.04" y2="87.217" transform="matrix(0, 1, -1, 0, 252.036967, -76.882988)"/>
  <line class="cls-24" x1="173.19" y1="77.947" x2="172.35" y2="77.287" transform="matrix(0, 1, -1, 0, 250.386985, -95.152989)"/>
  <line class="cls-24" x1="172.83" y1="78.487" x2="172.89" y2="77.647" transform="matrix(0, 1, -1, 0, 250.927004, -94.793019)"/>
  <line class="cls-24" x1="164.49" y1="88.447" x2="164.55" y2="87.607" transform="matrix(0, 1, -1, 0, 252.546999, -76.492988)"/>
  <polyline class="cls-24" points="175.23 88.927 175.29 88.087 174.39 88.207" transform="matrix(0, 1, -1, 0, 263.347007, -86.332989)"/>
  <line class="cls-24" x1="173.64" y1="77.557" x2="172.74" y2="77.737" transform="matrix(0, 1, -1, 0, 250.837022, -95.54301)"/>
  <line class="cls-24" x1="165.33" y1="87.547" x2="164.43" y2="87.667" transform="matrix(0, 1, -1, 0, 252.487004, -77.273009)"/>
  <line class="cls-24" x1="174.33" y1="89.707" x2="173.13" y2="88.567" transform="matrix(0, 1, -1, 0, 262.867004, -84.592983)"/>
  <line class="cls-24" x1="175.08" y1="89.137" x2="173.7" y2="89.317" transform="matrix(0, 1, -1, 0, 263.617017, -85.16299)"/>
  <line class="cls-24" x1="173.73" y1="90.487" x2="173.91" y2="89.167" transform="matrix(0, 1, -1, 0, 263.647004, -83.993032)"/>
  <line class="cls-24" x1="168.51" y1="87.907" x2="168.15" y2="86.887" transform="matrix(0, 1, -1, 0, 255.726972, -80.932964)"/>
  <line class="cls-24" x1="180.33" y1="83.167" x2="180.09" y2="82.507" transform="matrix(0, 1, -1, 0, 263.046968, -97.372977)"/>
  <line class="cls-24" x1="171.99" y1="77.467" x2="171.63" y2="76.447" transform="matrix(0, 1, -1, 0, 248.76699, -94.852971)"/>
  <line class="cls-24" x1="171.42" y1="77.737" x2="171.9" y2="77.017" transform="matrix(0, 1, -1, 0, 249.037021, -94.283029)"/>
  <line class="cls-24" x1="180" y1="83.497" x2="180.42" y2="82.837" transform="matrix(0, 1, -1, 0, 263.376973, -97.042972)"/>
  <polyline class="cls-24" points="168.24 88.177 168.78 87.457 167.88 87.157" transform="matrix(0, 1, -1, 0, 255.997003, -80.663018)"/>
  <line class="cls-24" x1="172.59" y1="77.347" x2="171.75" y2="77.047" transform="matrix(0, 1, -1, 0, 249.366983, -94.973004)"/>
  <line class="cls-24" x1="166.8" y1="77.497" x2="166.74" y2="77.437" transform="matrix(0, 1, -1, 0, 244.237011, -89.303012)"/>
  <line class="cls-24" x1="166.59" y1="82.267" x2="166.59" y2="82.207" transform="matrix(0, 1, -1, 0, 248.827006, -84.353003)"/>
  <line class="cls-24" x1="174.09" y1="76.567" x2="174.03" y2="76.447" transform="matrix(0, 1, -1, 0, 250.566991, -97.553005)"/>
  <line class="cls-24" x1="166.47" y1="87.067" x2="166.41" y2="86.947" transform="matrix(0, 1, -1, 0, 253.44701, -79.433002)"/>
  <line class="cls-24" x1="173.91" y1="81.367" x2="173.85" y2="81.247" transform="matrix(0, 1, -1, 0, 255.186995, -92.572988)"/>
  <line class="cls-24" x1="173.73" y1="86.167" x2="173.67" y2="86.047" transform="matrix(0, 1, -1, 0, 259.806978, -87.592992)"/>
  <line class="cls-24" x1="166.47" y1="75.547" x2="166.47" y2="75.487" transform="matrix(0, 1, -1, 0, 241.987014, -90.953015)"/>
  <line class="cls-24" x1="170.1" y1="75.097" x2="170.04" y2="75.037" transform="matrix(0, 1, -1, 0, 245.137022, -95.003012)"/>
  <line class="cls-24" x1="175.56" y1="74.377" x2="175.5" y2="74.317" transform="matrix(0, 1, -1, 0, 249.877016, -101.183016)"/>
  <line class="cls-24" x1="166.29" y1="80.767" x2="166.29" y2="80.707" transform="matrix(0, 1, -1, 0, 247.027005, -85.553011)"/>
  <line class="cls-24" x1="171.75" y1="80.047" x2="171.75" y2="79.987" transform="matrix(0, 1, -1, 0, 251.766999, -91.733014)"/>
  <line class="cls-24" x1="167.94" y1="85.777" x2="167.94" y2="85.657" transform="matrix(0, 1, -1, 0, 253.656983, -82.222997)"/>
  <line class="cls-24" x1="177.06" y1="84.577" x2="177.06" y2="84.457" transform="matrix(0, 1, -1, 0, 261.577014, -92.543001)"/>
  <line class="cls-24" x1="173.28" y1="90.217" x2="173.22" y2="90.157" transform="matrix(0, 1, -1, 0, 263.436989, -83.062992)"/>
  <line class="cls-24" x1="176.88" y1="89.797" x2="176.88" y2="89.677" transform="matrix(0, 1, -1, 0, 266.617005, -87.142997)"/>
  <line class="cls-24" x1="176.64" y1="76.297" x2="176.7" y2="76.237" transform="matrix(0, 1, -1, 0, 252.936978, -100.402995)"/>
  <line class="cls-24" x1="168.93" y1="76.027" x2="168.99" y2="75.907" transform="matrix(0, 1, -1, 0, 244.927007, -92.993017)"/>
  <line class="cls-24" x1="173.82" y1="83.677" x2="173.88" y2="83.617" transform="matrix(0, 1, -1, 0, 257.497029, -90.203023)"/>
  <line class="cls-24" x1="176.85" y1="85.627" x2="176.91" y2="85.507" transform="matrix(0, 1, -1, 0, 262.446996, -91.313006)"/>
  <line class="cls-24" x1="166.14" y1="83.317" x2="166.2" y2="83.257" transform="matrix(0, 1, -1, 0, 249.457029, -82.883006)"/>
  <line class="cls-24" x1="169.2" y1="85.297" x2="169.2" y2="85.177" transform="matrix(0, 1, -1, 0, 254.436982, -83.963003)"/>
  <line class="cls-24" x1="173.43" y1="78.127" x2="173.49" y2="78.007" transform="matrix(0, 1, -1, 0, 251.526998, -95.393012)"/>
  <line class="cls-24" x1="176.88" y1="81.217" x2="176.94" y2="81.157" transform="matrix(0, 1, -1, 0, 258.097001, -95.723017)"/>
  <line class="cls-24" x1="165.06" y1="79.537" x2="165.12" y2="79.477" transform="matrix(0, 1, -1, 0, 244.596981, -85.582976)"/>
  <line class="cls-24" x1="168.48" y1="82.657" x2="168.54" y2="82.597" transform="matrix(0, 1, -1, 0, 251.136977, -85.882973)"/>
  <line class="cls-24" x1="174" y1="87.697" x2="174.06" y2="87.637" transform="matrix(0, 1, -1, 0, 261.696983, -86.362997)"/>
  <line class="cls-24" x1="165.6" y1="89.137" x2="165.66" y2="89.077" transform="matrix(0, 1, -1, 0, 254.737, -76.522996)"/>
  <line class="cls-24" x1="306.78" y1="141.84" x2="306.78" y2="141.84"/>
  <line class="cls-23" x1="267.99" y1="175.027" x2="267.63" y2="175.207" transform="matrix(0, 1, -1, 0, 442.926978, -92.692978)"/>
  <line class="cls-23" x1="268.14" y1="140.917" x2="267.96" y2="140.977" transform="matrix(0, 1, -1, 0, 408.997006, -127.102996)"/>
  <line class="cls-23" x1="267.9" y1="184.237" x2="268.14" y2="184.357" transform="matrix(0, 1, -1, 0, 452.317027, -83.723044)"/>
  <line class="cls-23" x1="267.6" y1="103.717" x2="268.2" y2="104.077" transform="matrix(0, 1, -1, 0, 371.797057, -164.003033)"/>
  <line class="cls-23" x1="270.72" y1="145.057" x2="270.78" y2="145.117" transform="matrix(0, 1, -1, 0, 415.837019, -125.663008)"/>
  <line class="cls-23" x1="287.4" y1="88.297" x2="287.4" y2="87.937" transform="matrix(0, 1, -1, 0, 375.516986, -199.283011)"/>
  <line class="cls-23" x1="93.84" y1="161.16" x2="93.84" y2="161.16"/>
  <line class="cls-23" x1="111.12" y1="161.16" x2="111.12" y2="161.16"/>
  <polyline class="cls-26" points="156.36 235.417 156.36 231.157 152.1 231.157 152.1 235.417 156.36 235.417" transform="matrix(0, 1, -1, 0, 387.517002, 79.056965)"/>
  <polyline class="cls-26" points="175.29 208.207 130.11 208.207 130.11 208.927 175.29 208.927 175.29 208.207" transform="matrix(0, 1, -1, 0, 361.267017, 55.867005)"/>
  <polyline class="cls-26" points="169.35 100.927 136.05 100.927 136.05 101.647 169.35 101.647 169.35 100.927" transform="matrix(0, 1, -1, 0, 253.987009, -51.413003)"/>
  <polyline class="cls-23" points="131.28 210.337 131.28 206.077 177.18 206.077" transform="matrix(0, 1, -1, 0, 362.436995, 53.977001)"/>
  <line class="cls-23" x1="129.15" y1="208.207" x2="175.05" y2="208.207" transform="matrix(0, 1, -1, 0, 360.307011, 56.106986)"/>
  <line class="cls-23" x1="154.23" y1="116.527" x2="154.23" y2="120.787" transform="matrix(0, 1, -1, 0, 272.88699, -35.573004)"/>
  <line class="cls-23" x1="138" y1="100.297" x2="174.72" y2="100.297" transform="matrix(0, 1, -1, 0, 256.656992, -56.063015)"/>
  <line class="cls-23" x1="135.09" y1="101.647" x2="169.11" y2="101.647" transform="matrix(0, 1, -1, 0, 253.747007, -50.453018)"/>
  <polyline class="cls-26" points="155.43 116.287 153.99 116.287 153.99 119.587 155.43 119.587 155.43 116.287" transform="matrix(0, 1, -1, 0, 272.646989, -36.773012)"/>
  <polyline class="cls-26" points="171.9 87.037 171.9 54.697 167.4 54.697 167.4 87.037" transform="matrix(0, 1, -1, 0, 240.516997, -98.782979)"/>
  <line class="cls-26" x1="266.038" y1="107.675" x2="266.038" y2="38.559" transform="matrix(0, 1, -1, 0, 339.155014, -192.921003)"/>
  <polyline class="cls-26" points="265.709 34.104 264.105 34.327 260.985 34.998 261.432 107.182 264.552 107.182 265.932 107.182" transform="matrix(0, 1, -1, 0, 334.101507, -192.815486)"/>
  <line class="cls-23" x1="169.65" y1="55.567" x2="169.65" y2="87.907" transform="matrix(0, 1, -1, 0, 241.386979, -97.912997)"/>
  <line class="cls-23" x1="152.79" y1="72.427" x2="152.79" y2="71.047" transform="matrix(0, 1, -1, 0, 224.526979, -81.052997)"/>
  <line class="cls-26" x1="292.088" y1="85.185" x2="292.088" y2="69.569" transform="matrix(0, 1, -1, 0, 369.465027, -214.711035)"/>
  <line class="cls-23" x1="259.98" y1="101.677" x2="259.98" y2="53.077" transform="matrix(0, 1, -1, 0, 337.35701, -182.603018)"/>
  <line class="cls-26" x1="157.56" y1="152.497" x2="157.56" y2="151.417" transform="matrix(0, 1, -1, 0, 309.516996, -5.602984)"/>
  <line class="cls-26" x1="179.67" y1="174.607" x2="134.37" y2="174.607" transform="matrix(0, 1, -1, 0, 331.62698, 17.586997)"/>
  <line class="cls-26" x1="157.56" y1="196.717" x2="157.56" y2="197.797" transform="matrix(0, 1, -1, 0, 354.816982, 39.697002)"/>
  <line class="cls-26" x1="135.45" y1="174.607" x2="180.75" y2="174.607" transform="matrix(0, 1, -1, 0, 332.706998, 16.506979)"/>
  <line class="cls-23" x1="162.57" y1="183.847" x2="160.59" y2="181.807" transform="matrix(0, 1, -1, 0, 344.406996, 21.246994)"/>
  <line class="cls-23" x1="145.32" y1="168.577" x2="175.8" y2="168.577" transform="matrix(0, 1, -1, 0, 329.137004, 8.017005)"/>
  <line class="cls-23" x1="160.56" y1="122.077" x2="162.6" y2="120.037" transform="matrix(0, 1, -1, 0, 282.63701, -40.522992)"/>
  <line class="cls-23" x1="175.8" y1="135.277" x2="145.32" y2="135.277" transform="matrix(0, 1, -1, 0, 295.836991, -25.283008)"/>
  <polyline class="cls-26" points="134.88 128.737 134.88 129.817 180.24 129.817" transform="matrix(0, 1, -1, 0, 286.837006, -28.282975)"/>
  <line class="cls-26" x1="180.78" y1="129.277" x2="135.42" y2="129.277" transform="matrix(0, 1, -1, 0, 287.377004, -28.823015)"/>
  <line class="cls-26" x1="157.56" y1="151.417" x2="157.56" y2="152.497" transform="matrix(0, 1, -1, 0, 309.516996, -5.602984)"/>
  <polyline class="cls-26" points="180.21 174.067 180.21 175.147 134.91 175.147" transform="matrix(0, 1, -1, 0, 332.166979, 17.046998)"/>
  <line class="cls-26" x1="135.45" y1="174.607" x2="180.75" y2="174.607" transform="matrix(0, 1, -1, 0, 332.706998, 16.506979)"/>
  <polyline class="cls-26" points="155.43 184.327 153.99 184.327 153.99 187.627 155.43 187.627 155.43 184.327" transform="matrix(0, 1, -1, 0, 340.686982, 31.266981)"/>
  <line class="cls-26" x1="160.65" y1="76.447" x2="160.65" y2="82.267" transform="matrix(0, 1, -1, 0, 240.007007, -81.292998)"/>
  <polyline class="cls-26" points="161.94 83.557 161.94 77.737 159.36 77.737" transform="matrix(0, 1, -1, 0, 241.296997, -80.003009)"/>
  <polyline class="cls-23" points="159.72 83.197 161.58 83.197 161.58 77.377" transform="matrix(0, 1, -1, 0, 240.937005, -80.363)"/>
  <line class="cls-23" x1="155.61" y1="79.447" x2="155.61" y2="83.707" transform="matrix(0, 1, -1, 0, 237.186983, -74.032998)"/>
  <line class="cls-23" x1="155.61" y1="79.087" x2="155.61" y2="83.347" transform="matrix(0, 1, -1, 0, 236.826991, -74.39299)"/>
  <line class="cls-23" x1="160.65" y1="84.487" x2="160.65" y2="78.667" transform="matrix(0, 1, -1, 0, 242.226995, -79.07301)"/>
  <polyline class="cls-26" points="262.56 101.677 262.56 55.657 259.98 55.657" transform="matrix(0, 1, -1, 0, 339.937033, -182.603018)"/>
  <line class="cls-23" x1="261.09" y1="56.407" x2="261.09" y2="102.787" transform="matrix(0, 1, -1, 0, 340.686982, -181.49297)"/>
  <polyline class="cls-23" points="259.08 53.977 259.08 102.577 260.88 102.577" transform="matrix(0, 1, -1, 0, 338.256979, -181.702964)"/>
  <line class="cls-23" x1="260.91" y1="55.807" x2="260.91" y2="102.547" transform="matrix(0, 1, -1, 0, 340.08701, -181.733015)"/>
  <polyline class="cls-26" points="169.89 244.987 169.89 218.647 169.17 218.647 169.17 244.987 169.89 244.987" transform="matrix(0, 1, -1, 0, 401.347006, 62.287011)"/>
  <polyline class="cls-23" points="167.76 219.757 172.02 219.757 172.02 246.817" transform="matrix(0, 1, -1, 0, 403.176994, 63.396973)"/>
  <line class="cls-23" x1="169.89" y1="217.627" x2="169.89" y2="244.687" transform="matrix(0, 1, -1, 0, 401.047009, 61.266988)"/>
  <polyline class="cls-26" points="268.65 234.487 268.65 233.107 265.41 233.107 265.41 234.487 268.65 234.487" transform="matrix(0, 1, -1, 0, 500.826973, -33.232983)"/>
  <line class="cls-26" x1="208.68" y1="236.677" x2="209.76" y2="236.677" transform="matrix(0, 1, -1, 0, 445.897021, 27.457006)"/>
  <line class="cls-26" x1="190.29" y1="255.067" x2="190.29" y2="217.207" transform="matrix(0, 1, -1, 0, 426.426991, 45.846998)"/>
  <line class="cls-26" x1="171.9" y1="236.677" x2="170.82" y2="236.677" transform="matrix(0, 1, -1, 0, 408.036999, 65.317028)"/>
  <line class="cls-26" x1="190.29" y1="218.287" x2="190.29" y2="256.147" transform="matrix(0, 1, -1, 0, 427.506987, 46.926994)"/>
  <line class="cls-23" x1="184.83" y1="241.687" x2="186.81" y2="239.647" transform="matrix(0, 1, -1, 0, 426.487007, 54.846983)"/>
  <line class="cls-23" x1="196.29" y1="228.187" x2="196.29" y2="251.167" transform="matrix(0, 1, -1, 0, 435.966996, 43.38705)"/>
  <line class="cls-23" x1="231.6" y1="239.677" x2="233.58" y2="241.657" transform="matrix(0, 1, -1, 0, 473.25699, 8.077)"/>
  <line class="cls-23" x1="222.09" y1="251.167" x2="222.09" y2="228.187" transform="matrix(0, 1, -1, 0, 461.767007, 17.587039)"/>
  <polyline class="cls-26" points="228.66 217.777 227.58 217.777 227.58 255.577" transform="matrix(0, 1, -1, 0, 464.797024, 8.557003)"/>
  <line class="cls-26" x1="228.12" y1="256.117" x2="228.12" y2="218.317" transform="matrix(0, 1, -1, 0, 465.337001, 9.09698)"/>
  <line class="cls-26" x1="209.76" y1="236.677" x2="208.68" y2="236.677" transform="matrix(0, 1, -1, 0, 445.897021, 27.457006)"/>
  <polyline class="cls-26" points="190.83 255.607 189.75 255.607 189.75 217.747" transform="matrix(0, 1, -1, 0, 426.96701, 46.387017)"/>
  <line class="cls-26" x1="190.29" y1="218.287" x2="190.29" y2="256.147" transform="matrix(0, 1, -1, 0, 427.506987, 46.926994)"/>
  <polyline class="cls-26" points="184.32 234.517 184.32 233.077 181.08 233.077 181.08 234.517 184.32 234.517" transform="matrix(0, 1, -1, 0, 416.497008, 51.096982)"/>
  <polyline class="cls-26" points="252.06 247.837 252.06 215.797 251.34 215.797 251.34 247.837 252.06 247.837" transform="matrix(0, 1, -1, 0, 483.517021, -19.883004)"/>
  <line class="cls-23" x1="237.15" y1="233.287" x2="232.89" y2="233.287" transform="matrix(0, 1, -1, 0, 468.30696, -1.732993)"/>
  <line class="cls-23" x1="250.68" y1="219.757" x2="250.68" y2="251.077" transform="matrix(0, 1, -1, 0, 486.097, -15.262979)"/>
  <line class="cls-23" x1="251.37" y1="214.807" x2="251.37" y2="247.507" transform="matrix(0, 1, -1, 0, 482.527006, -20.213009)"/>
  <polyline class="cls-26" points="237.33 234.487 237.33 233.107 234.09 233.107 234.09 234.487 237.33 234.487" transform="matrix(0, 1, -1, 0, 469.506989, -1.912999)"/>
  <line class="cls-26" x1="244.89" y1="89.167" x2="226.47" y2="89.167" transform="matrix(0, 1, -1, 0, 324.846983, -146.512989)"/>
  <line class="cls-26" x1="233.58" y1="100.477" x2="233.58" y2="96.277" transform="matrix(0, 1, -1, 0, 331.957006, -135.203012)"/>
  <polyline class="cls-26" points="165.18 92.497 161.94 92.497 161.94 96.757 169.44 96.757 169.44 92.497" transform="matrix(0, 1, -1, 0, 260.317011, -71.063018)"/>
  <line class="cls-26" x1="206.37" y1="72.367" x2="206.37" y2="113.467" transform="matrix(0, 1, -1, 0, 299.286995, -113.452999)"/>
  <polyline class="cls-23" points="206.28 113.557 206.46 113.557 206.46 72.457 206.28 72.457" transform="matrix(0, 1, -1, 0, 299.376998, -113.362995)"/>
  <line class="cls-23" x1="185.31" y1="93.607" x2="186.33" y2="93.607" transform="matrix(0, 1, -1, 0, 279.427007, -92.213018)"/>
  <line class="cls-23" x1="227.43" y1="93.607" x2="226.41" y2="93.607" transform="matrix(0, 1, -1, 0, 320.526976, -133.312987)"/>
  <line class="cls-26" x1="170.76" y1="83.617" x2="191.76" y2="83.617" transform="matrix(0, 1, -1, 0, 264.876998, -97.643008)"/>
  <polyline class="cls-26" points="193.44 80.737 173.64 80.737 173.64 85.297" transform="matrix(0, 1, -1, 0, 266.557031, -100.523027)"/>
  <line class="cls-23" x1="193.2" y1="83.617" x2="172.2" y2="83.617" transform="matrix(0, 1, -1, 0, 266.317008, -99.083018)"/>
  <line class="cls-23" x1="184.26" y1="95.677" x2="184.26" y2="92.557" transform="matrix(0, 1, -1, 0, 278.377019, -90.143007)"/>
  <line class="cls-26" x1="248.73" y1="90.427" x2="227.79" y2="90.427" transform="matrix(0, 1, -1, 0, 328.687009, -147.833008)"/>
  <line class="cls-26" x1="226.47" y1="89.167" x2="244.89" y2="89.167" transform="matrix(0, 1, -1, 0, 324.846983, -146.512989)"/>
  <polyline class="cls-26" points="236.97 102.187 236.97 99.967 236.97 99.607" transform="matrix(0, 1, -1, 0, 337.867, -136.072994)"/>
  <line class="cls-23" x1="227.61" y1="90.247" x2="248.19" y2="90.247" transform="matrix(0, 1, -1, 0, 328.146989, -147.653002)"/>
  <line class="cls-23" x1="237.33" y1="79.387" x2="237.75" y2="79.387" transform="matrix(0, 1, -1, 0, 316.927016, -158.153034)"/>
  <line class="cls-23" x1="237.72" y1="79.777" x2="238.08" y2="79.777" transform="matrix(0, 1, -1, 0, 317.676986, -158.123004)"/>
  <polyline class="cls-23" points="227.25 89.887 227.61 89.887 247.83 89.887" transform="matrix(0, 1, -1, 0, 327.427027, -147.653023)"/>
  <polyline class="cls-26" points="199.65 130.207 199.65 67.987 199.65 66.547" transform="matrix(0, 1, -1, 0, 298.026992, -101.272998)"/>
  <line class="cls-26" x1="174.54" y1="87.397" x2="174.54" y2="100.837" transform="matrix(0, 1, -1, 0, 268.657007, -80.422995)"/>
  <line class="cls-26" x1="217.02" y1="83.017" x2="236.82" y2="83.017" transform="matrix(0, 1, -1, 0, 309.937025, -143.903022)"/>
  <line class="cls-26" x1="233.61" y1="75.247" x2="229.35" y2="75.247" transform="matrix(0, 1, -1, 0, 306.727002, -156.232979)"/>
  <polyline class="cls-23" points="239.67 84.487 239.67 81.367 218.67 81.367 217.29 81.367" transform="matrix(0, 1, -1, 0, 311.406979, -145.552982)"/>
  <line class="cls-23" x1="227.91" y1="96.247" x2="232.17" y2="96.247" transform="matrix(0, 1, -1, 0, 326.287035, -133.793011)"/>
  <line class="cls-26" x1="157.89" y1="77.527" x2="149.07" y2="77.527" transform="matrix(0, 1, -1, 0, 231.007, -75.953011)"/>
  <polyline class="cls-26" points="144.57 73.027 144.57 74.407 144.57 77.527 157.89 77.527 157.89 73.027" transform="matrix(0, 1, -1, 0, 226.507008, -75.953011)"/>
  <line class="cls-23" x1="147" y1="76.837" x2="157.2" y2="76.837" transform="matrix(0, 1, -1, 0, 228.93701, -75.263014)"/>
  <polyline class="cls-26" points="153.87 79.447 151.17 79.447 151.17 86.587 151.47 86.587 151.47 87.127 151.71 87.127 151.71 83.707 153.87 83.707 153.87 79.447" transform="matrix(0, 1, -1, 0, 235.807011, -69.232988)"/>
  <line class="cls-26" x1="198.63" y1="137.947" x2="198.63" y2="63.847" transform="matrix(0, 1, -1, 0, 299.527018, -97.733012)"/>
  <polyline class="cls-26" points="197.37 62.587 197.37 136.687 199.89 136.687" transform="matrix(0, 1, -1, 0, 298.267015, -98.993015)"/>
  <polyline class="cls-23" points="199.74 62.377 199.74 62.737 199.74 64.597 199.74 138.697" transform="matrix(0, 1, -1, 0, 300.277031, -99.203008)"/>
  <polyline class="cls-23" points="199.56 62.197 199.56 64.057 199.56 138.157" transform="matrix(0, 1, -1, 0, 299.737011, -99.383014)"/>
  <polyline class="cls-26" points="156.39 70.207 156.39 80.287 160.65 80.287 160.65 70.207 156.39 70.207" transform="matrix(0, 1, -1, 0, 233.767008, -83.272985)"/>
  <polyline class="cls-26" points="153.33 81.787 157.17 81.787 157.53 81.787 157.89 81.787 157.89 77.527" transform="matrix(0, 1, -1, 0, 235.266991, -75.95299)"/>
  <polyline class="cls-26" points="156.6 76.237 154.62 76.237 154.62 80.497" transform="matrix(0, 1, -1, 0, 233.977001, -77.24298)"/>
  <polyline class="cls-27" points="180.57 73.867 163.53 73.867 163.53 90.847 180.57 90.847 180.57 73.867" transform="matrix(0, 1, -1, 0, 254.406996, -89.693012)"/>
  <line class="cls-23" x1="185.85" y1="79.147" x2="175.23" y2="79.147" transform="matrix(0, 1, -1, 0, 259.68703, -101.393009)"/>
  <line class="cls-23" x1="183.75" y1="87.667" x2="177.33" y2="87.667" transform="matrix(0, 1, -1, 0, 268.207012, -92.873027)"/>
  <line class="cls-23" x1="174.18" y1="97.237" x2="174.18" y2="84.517" transform="matrix(0, 1, -1, 0, 265.056984, -83.302993)"/>
  <line class="cls-23" x1="159.72" y1="87.037" x2="167.4" y2="87.037" transform="matrix(0, 1, -1, 0, 250.597, -76.522975)"/>
  <line class="cls-23" x1="162.57" y1="78.367" x2="164.55" y2="78.367" transform="matrix(0, 1, -1, 0, 241.926977, -85.192998)"/>
  <line class="cls-23" x1="162.93" y1="82.567" x2="164.19" y2="82.567" transform="matrix(0, 1, -1, 0, 246.126994, -80.992981)"/>
  <line class="cls-23" x1="172.05" y1="65.347" x2="172.05" y2="82.327" transform="matrix(0, 1, -1, 0, 245.887014, -98.212993)"/>
  <line class="cls-26" x1="344.875" y1="174.692" x2="197.285" y2="174.692" transform="matrix(0, 1, -1, 0, 445.772016, -96.388021)"/>
  <line class="cls-23" x1="270.54" y1="100.717" x2="270.9" y2="100.717" transform="matrix(0, 1, -1, 0, 371.437002, -170.003009)"/>
  <line class="cls-23" x1="267.9" y1="100.717" x2="268.26" y2="100.717" transform="matrix(0, 1, -1, 0, 368.797006, -167.363012)"/>
  <line class="cls-23" x1="241.95" y1="123.607" x2="241.95" y2="124.747" transform="matrix(0, 1, -1, 0, 366.127001, -117.772985)"/>
  <line class="cls-23" x1="241.95" y1="100.387" x2="241.95" y2="101.527" transform="matrix(0, 1, -1, 0, 342.906991, -140.992995)"/>
  <line class="cls-23" x1="230.91" y1="112.567" x2="254.13" y2="112.567" transform="matrix(0, 1, -1, 0, 355.087013, -129.953028)"/>
  <line class="cls-23" x1="229.77" y1="112.567" x2="252.99" y2="112.567" transform="matrix(0, 1, -1, 0, 353.947, -128.813015)"/>
  <polyline class="cls-23" points="241.38 100.957 244.68 101.197 247.92 101.857 251.04 103.057 253.92 104.617 256.62 106.597 258.96 108.937 260.94 111.637 262.5 114.517 263.7 117.637 264.36 120.877 264.6 124.177" transform="matrix(0, 1, -1, 0, 365.557016, -140.423031)"/>
  <line class="cls-26" x1="241.47" y1="99.487" x2="241.47" y2="99.907" transform="matrix(0, 1, -1, 0, 341.166985, -141.772995)"/>
  <line class="cls-26" x1="240.96" y1="98.977" x2="242.4" y2="98.977" transform="matrix(0, 1, -1, 0, 340.656995, -142.703014)"/>
  <line class="cls-26" x1="241.47" y1="98.467" x2="241.47" y2="98.047" transform="matrix(0, 1, -1, 0, 339.726997, -143.212983)"/>
  <line class="cls-26" x1="240.93" y1="97.927" x2="241.59" y2="97.927" transform="matrix(0, 1, -1, 0, 339.186977, -143.332973)"/>
  <line class="cls-26" x1="240.69" y1="98.167" x2="240.69" y2="97.027" transform="matrix(0, 1, -1, 0, 338.286987, -143.092993)"/>
  <line class="cls-26" x1="241.77" y1="99.247" x2="238.47" y2="99.247" transform="matrix(0, 1, -1, 0, 339.367005, -140.873005)"/>
  <line class="cls-26" x1="240.69" y1="100.327" x2="240.69" y2="101.467" transform="matrix(0, 1, -1, 0, 341.586993, -139.792987)"/>
  <line class="cls-26" x1="240.66" y1="100.297" x2="241.86" y2="100.297" transform="matrix(0, 1, -1, 0, 341.557006, -140.963029)"/>
  <line class="cls-26" x1="265.38" y1="100.297" x2="264.18" y2="100.297" transform="matrix(0, 1, -1, 0, 365.076992, -164.483015)"/>
  <line class="cls-26" x1="265.35" y1="100.327" x2="265.35" y2="101.467" transform="matrix(0, 1, -1, 0, 366.246991, -164.452985)"/>
  <line class="cls-26" x1="264.27" y1="99.247" x2="267.57" y2="99.247" transform="matrix(0, 1, -1, 0, 365.166974, -166.672973)"/>
  <line class="cls-26" x1="265.35" y1="98.167" x2="265.35" y2="97.027" transform="matrix(0, 1, -1, 0, 362.946986, -167.752991)"/>
  <line class="cls-26" x1="265.11" y1="97.927" x2="264.45" y2="97.927" transform="matrix(0, 1, -1, 0, 362.707005, -166.853001)"/>
  <line class="cls-26" x1="264.57" y1="98.467" x2="264.57" y2="98.047" transform="matrix(0, 1, -1, 0, 362.826995, -166.312982)"/>
  <line class="cls-26" x1="265.08" y1="98.977" x2="263.64" y2="98.977" transform="matrix(0, 1, -1, 0, 363.336964, -165.382983)"/>
  <line class="cls-26" x1="264.57" y1="99.487" x2="264.57" y2="99.907" transform="matrix(0, 1, -1, 0, 364.266984, -164.872993)"/>
  <polyline class="cls-26" points="240.69 100.027 240.69 98.467 237.39 98.467 237.39 100.027 240.69 100.027" transform="matrix(0, 1, -1, 0, 338.287008, -139.793008)"/>
  <line class="cls-26" x1="266.94" y1="101.677" x2="266.94" y2="100.117" transform="matrix(0, 1, -1, 0, 367.836999, -166.042993)"/>
  <polyline class="cls-26" points="280.98 107.497 280.98 90.997 280.62 90.997 277.68 90.997" transform="matrix(0, 1, -1, 0, 378.577012, -180.083012)"/>
  <polyline class="cls-26" points="273.57 90.187 273.57 108.307 276.87 108.307" transform="matrix(0, 1, -1, 0, 374.466998, -175.972998)"/>
  <line class="cls-23" x1="278.97" y1="92.287" x2="278.97" y2="108.787" transform="matrix(0, 1, -1, 0, 379.50701, -178.432987)"/>
  <line class="cls-23" x1="239.04" y1="99.757" x2="239.04" y2="101.317" transform="matrix(0, 1, -1, 0, 339.57702, -138.502997)"/>
  <line class="cls-23" x1="267.12" y1="99.577" x2="267.12" y2="101.497" transform="matrix(0, 1, -1, 0, 367.657014, -166.582991)"/>
  <line class="cls-23" x1="275.4" y1="88.717" x2="275.4" y2="107.197" transform="matrix(0, 1, -1, 0, 373.357015, -177.442994)"/>
  <line class="cls-23" x1="239.04" y1="97.177" x2="239.04" y2="98.737" transform="matrix(0, 1, -1, 0, 336.997018, -141.082998)"/>
  <line class="cls-26" x1="274.17" y1="87.487" x2="294.39" y2="87.487" transform="matrix(0, 1, -1, 0, 371.767049, -196.793034)"/>
  <polyline class="cls-26" points="296.04 85.837 275.82 85.837 275.82 89.137" transform="matrix(0, 1, -1, 0, 373.416988, -198.442974)"/>
  <line class="cls-23" x1="294.75" y1="87.487" x2="274.53" y2="87.487" transform="matrix(0, 1, -1, 0, 372.12702, -197.153005)"/>
  <polyline class="cls-23" points="285.75 99.067 286.11 99.067 288.69 99.067" transform="matrix(0, 1, -1, 0, 386.286986, -188.152999)"/>
  <line class="cls-23" x1="284.46" y1="97.777" x2="284.82" y2="97.777" transform="matrix(0, 1, -1, 0, 382.417016, -186.863009)"/>
  <line class="cls-23" x1="297.33" y1="87.487" x2="277.11" y2="87.487" transform="matrix(0, 1, -1, 0, 374.706957, -199.732942)"/>
  <line class="cls-23" x1="266.97" y1="231.907" x2="266.97" y2="230.407" transform="matrix(0, 1, -1, 0, 498.127003, -35.813006)"/>
  <line class="cls-23" x1="276.21" y1="194.467" x2="259.23" y2="194.467" transform="matrix(0, 1, -1, 0, 462.186994, -73.252998)"/>
  <line class="cls-23" x1="257.73" y1="194.467" x2="274.71" y2="194.467" transform="matrix(0, 1, -1, 0, 460.68701, -71.753015)"/>
  <line class="cls-23" x1="265.95" y1="231.427" x2="265.95" y2="230.887" transform="matrix(0, 1, -1, 0, 497.107023, -34.793026)"/>
  <line class="cls-23" x1="274.71" y1="194.467" x2="257.73" y2="194.467" transform="matrix(0, 1, -1, 0, 460.68701, -71.753015)"/>
  <line class="cls-23" x1="266.04" y1="100.777" x2="266.04" y2="101.017" transform="matrix(0, 1, -1, 0, 366.937009, -165.143003)"/>
  <line class="cls-23" x1="200.55" y1="166.027" x2="330.81" y2="166.027" transform="matrix(0, 1, -1, 0, 431.706983, -99.653003)"/>
  <polyline class="cls-26" points="258.45 110.167 275.49 110.167 275.49 108.667 258.45 108.667 258.45 110.167" transform="matrix(0, 1, -1, 0, 376.387011, -157.552998)"/>
  <polyline class="cls-26" points="257.43 109.687 274.47 109.687 274.47 109.147 257.43 109.147 257.43 109.687" transform="matrix(0, 1, -1, 0, 375.36703, -156.533018)"/>
  <polyline class="cls-26" points="260.91 209.767 273.69 209.767 273.69 208.927 260.91 208.927 260.91 209.767" transform="matrix(0, 1, -1, 0, 476.646978, -57.952956)"/>
  <polyline class="cls-26" points="259.89 209.947 272.67 209.947 272.67 208.747 259.89 208.747 259.89 209.947" transform="matrix(0, 1, -1, 0, 475.62704, -56.933018)"/>
  <line class="cls-23" x1="266.28" y1="235.357" x2="266.28" y2="235.477" transform="matrix(0, 1, -1, 0, 501.696997, -30.862976)"/>
  <polyline class="cls-26" points="260.58 242.557 273.36 242.557 273.36 241.057 260.58 241.057 260.58 242.557" transform="matrix(0, 1, -1, 0, 508.77697, -25.162954)"/>
  <polyline class="cls-26" points="259.56 242.077 272.34 242.077 272.34 241.537 259.56 241.537 259.56 242.077" transform="matrix(0, 1, -1, 0, 507.757032, -24.143016)"/>
  <polyline class="cls-26" points="259.26 224.197 274.68 224.197 274.68 222.697 259.26 222.697 259.26 224.197" transform="matrix(0, 1, -1, 0, 490.417029, -43.52298)"/>
  <polyline class="cls-26" points="258.24 223.717 273.66 223.717 273.66 223.177 258.24 223.177 258.24 223.717" transform="matrix(0, 1, -1, 0, 489.397006, -42.503042)"/>
  <polyline class="cls-26" points="249.96 152.677 283.98 152.677 283.98 151.177 249.96 151.177 249.96 152.677" transform="matrix(0, 1, -1, 0, 418.897002, -115.043006)"/>
  <polyline class="cls-26" points="248.94 152.197 282.96 152.197 282.96 151.657 248.94 151.657 248.94 152.197" transform="matrix(0, 1, -1, 0, 417.877022, -114.023026)"/>
  <polyline class="cls-26" points="258.81 126.847 275.79 126.847 275.79 126.007 258.81 126.007 258.81 126.847" transform="matrix(0, 1, -1, 0, 393.726971, -140.872962)"/>
  <polyline class="cls-26" points="257.79 127.027 274.77 127.027 274.77 125.827 257.79 125.827 257.79 127.027" transform="matrix(0, 1, -1, 0, 392.706991, -139.852982)"/>
  <polyline class="cls-26" points="258.78 177.877 275.82 177.877 275.82 177.037 258.78 177.037 258.78 177.877" transform="matrix(0, 1, -1, 0, 444.756966, -89.842967)"/>
  <polyline class="cls-26" points="257.76 178.057 274.8 178.057 274.8 176.857 257.76 176.857 257.76 178.057" transform="matrix(0, 1, -1, 0, 443.736986, -88.822987)"/>
  <polyline class="cls-26" points="141.72 101.797 178.44 101.797 178.44 98.797 141.72 98.797 141.72 101.797" transform="matrix(0, 1, -1, 0, 260.376985, -59.783008)"/>
  <line class="cls-23" x1="179.58" y1="100.297" x2="142.86" y2="100.297" transform="matrix(0, 1, -1, 0, 261.516997, -60.92302)"/>
  <line class="cls-30" x1="163.23" y1="102.547" x2="161.55" y2="100.927" transform="matrix(0, 1, -1, 0, 264.127007, -60.653011)"/>
  <line class="cls-30" x1="157.56" y1="119.857" x2="156.36" y2="118.657" transform="matrix(0, 1, -1, 0, 276.217004, -37.702989)"/>
  <line class="cls-30" x1="175.26" y1="114.577" x2="161.58" y2="100.897" transform="matrix(0, 1, -1, 0, 276.156988, -60.682998)"/>
  <line class="cls-30" x1="187.29" y1="131.827" x2="156.33" y2="100.927" transform="matrix(0, 1, -1, 0, 288.186969, -55.432992)"/>
  <line class="cls-30" x1="199.35" y1="143.887" x2="156.33" y2="100.927" transform="matrix(0, 1, -1, 0, 300.247001, -55.433013)"/>
  <line class="cls-30" x1="157.05" y1="155.887" x2="156.33" y2="155.227" transform="matrix(0, 1, -1, 0, 312.247017, -1.133)"/>
  <line class="cls-30" x1="211.32" y1="154.117" x2="158.1" y2="100.897" transform="matrix(0, 1, -1, 0, 312.217009, -57.203006)"/>
  <line class="cls-30" x1="157.02" y1="167.917" x2="156.36" y2="167.257" transform="matrix(0, 1, -1, 0, 324.277019, 10.897003)"/>
  <line class="cls-30" x1="223.38" y1="166.177" x2="158.1" y2="100.897" transform="matrix(0, 1, -1, 0, 324.276998, -57.202985)"/>
  <line class="cls-30" x1="157.05" y1="179.947" x2="156.33" y2="179.287" transform="matrix(0, 1, -1, 0, 336.307022, 22.927005)"/>
  <line class="cls-30" x1="235.38" y1="178.177" x2="158.1" y2="100.897" transform="matrix(0, 1, -1, 0, 336.277014, -57.203006)"/>
  <line class="cls-30" x1="157.02" y1="191.977" x2="156.36" y2="191.317" transform="matrix(0, 1, -1, 0, 348.337003, 34.956987)"/>
  <line class="cls-30" x1="249.09" y1="190.207" x2="158.07" y2="99.247" transform="matrix(0, 1, -1, 0, 348.307016, -58.852988)"/>
  <line class="cls-30" x1="261.15" y1="204.007" x2="156.33" y2="99.247" transform="matrix(0, 1, -1, 0, 360.367006, -57.113003)"/>
  <line class="cls-30" x1="265.68" y1="216.037" x2="156.36" y2="106.717" transform="matrix(0, 1, -1, 0, 372.396987, -49.642988)"/>
  <line class="cls-30" x1="265.71" y1="228.067" x2="156.33" y2="118.747" transform="matrix(0, 1, -1, 0, 384.426989, -37.612986)"/>
  <line class="cls-30" x1="265.68" y1="231.157" x2="165.24" y2="130.717" transform="matrix(0, 1, -1, 0, 396.396997, -34.523016)"/>
  <line class="cls-30" x1="265.68" y1="231.157" x2="177.3" y2="142.777" transform="matrix(0, 1, -1, 0, 408.456986, -34.522995)"/>
  <line class="cls-30" x1="265.71" y1="233.287" x2="187.17" y2="154.807" transform="matrix(0, 1, -1, 0, 420.48701, -32.393031)"/>
  <line class="cls-30" x1="265.68" y1="233.317" x2="199.2" y2="166.837" transform="matrix(0, 1, -1, 0, 432.516991, -32.363002)"/>
  <line class="cls-30" x1="265.71" y1="233.287" x2="211.23" y2="178.867" transform="matrix(0, 1, -1, 0, 444.546973, -32.392989)"/>
  <line class="cls-30" x1="265.68" y1="233.317" x2="223.26" y2="190.897" transform="matrix(0, 1, -1, 0, 456.576996, -32.363002)"/>
  <line class="cls-30" x1="265.68" y1="231.157" x2="237.42" y2="202.897" transform="matrix(0, 1, -1, 0, 468.576991, -34.522952)"/>
  <line class="cls-30" x1="265.68" y1="231.157" x2="249.48" y2="214.957" transform="matrix(0, 1, -1, 0, 480.637001, -34.522995)"/>
  <line class="cls-30" x1="265.68" y1="231.157" x2="261.48" y2="226.957" transform="matrix(0, 1, -1, 0, 492.637038, -34.522995)"/>
  <line class="cls-30" x1="162.24" y1="225.277" x2="156.36" y2="231.157" transform="matrix(0, 1, -1, 0, 387.517002, 68.917009)"/>
  <line class="cls-30" x1="174.3" y1="213.217" x2="156.36" y2="231.157" transform="matrix(0, 1, -1, 0, 387.516981, 56.856977)"/>
  <line class="cls-30" x1="188.43" y1="201.247" x2="156.33" y2="233.287" transform="matrix(0, 1, -1, 0, 389.647008, 44.886991)"/>
  <line class="cls-30" x1="200.46" y1="190.957" x2="158.1" y2="233.317" transform="matrix(0, 1, -1, 0, 391.417022, 32.856989)"/>
  <line class="cls-30" x1="157.05" y1="189.187" x2="156.33" y2="189.847" transform="matrix(0, 1, -1, 0, 346.206997, 32.826981)"/>
  <line class="cls-30" x1="212.46" y1="178.957" x2="158.1" y2="233.317" transform="matrix(0, 1, -1, 0, 391.41698, 20.856994)"/>
  <line class="cls-30" x1="157.05" y1="177.187" x2="156.33" y2="177.847" transform="matrix(0, 1, -1, 0, 334.207003, 20.826986)"/>
  <line class="cls-30" x1="224.52" y1="166.897" x2="158.1" y2="233.317" transform="matrix(0, 1, -1, 0, 391.41698, 8.797026)"/>
  <line class="cls-30" x1="157.05" y1="165.127" x2="156.33" y2="165.787" transform="matrix(0, 1, -1, 0, 322.147013, 8.766997)"/>
  <line class="cls-30" x1="234.99" y1="154.867" x2="158.13" y2="231.787" transform="matrix(0, 1, -1, 0, 389.88701, -3.232998)"/>
  <line class="cls-30" x1="157.05" y1="153.127" x2="156.33" y2="153.787" transform="matrix(0, 1, -1, 0, 310.147019, -3.232998)"/>
  <line class="cls-30" x1="246.42" y1="141.097" x2="156.36" y2="231.157" transform="matrix(0, 1, -1, 0, 387.517002, -15.263)"/>
  <line class="cls-30" x1="258.48" y1="129.037" x2="156.36" y2="231.157" transform="matrix(0, 1, -1, 0, 387.517023, -27.323032)"/>
  <line class="cls-30" x1="265.65" y1="118.627" x2="157.95" y2="226.387" transform="matrix(0, 1, -1, 0, 384.306978, -39.292997)"/>
  <line class="cls-30" x1="265.68" y1="110.257" x2="161.58" y2="214.357" transform="matrix(0, 1, -1, 0, 375.937016, -51.323021)"/>
  <line class="cls-30" x1="265.71" y1="100.927" x2="164.25" y2="202.327" transform="matrix(0, 1, -1, 0, 366.607004, -63.353002)"/>
  <line class="cls-30" x1="265.68" y1="100.897" x2="176.28" y2="190.297" transform="matrix(0, 1, -1, 0, 366.576975, -75.382983)"/>
  <line class="cls-30" x1="265.71" y1="100.927" x2="188.31" y2="178.267" transform="matrix(0, 1, -1, 0, 366.607004, -87.413007)"/>
  <line class="cls-30" x1="265.68" y1="100.897" x2="200.34" y2="166.237" transform="matrix(0, 1, -1, 0, 366.576975, -99.442988)"/>
  <line class="cls-30" x1="265.71" y1="100.927" x2="212.37" y2="154.207" transform="matrix(0, 1, -1, 0, 366.607004, -111.473012)"/>
  <line class="cls-30" x1="265.68" y1="100.897" x2="224.4" y2="142.177" transform="matrix(0, 1, -1, 0, 366.576996, -123.502972)"/>
  <line class="cls-30" x1="265.71" y1="100.927" x2="236.43" y2="130.147" transform="matrix(0, 1, -1, 0, 366.607004, -135.533017)"/>
  <line class="cls-30" x1="265.68" y1="99.217" x2="246.78" y2="118.117" transform="matrix(0, 1, -1, 0, 364.896964, -147.562977)"/>
  <line class="cls-30" x1="265.71" y1="99.247" x2="258.81" y2="106.087" transform="matrix(0, 1, -1, 0, 364.926993, -159.593001)"/>
  <line class="cls-30" x1="173.04" y1="236.137" x2="172.32" y2="235.417" transform="matrix(0, 1, -1, 0, 408.457029, 63.097019)"/>
  <line class="cls-30" x1="185.58" y1="236.137" x2="184.38" y2="234.937" transform="matrix(0, 1, -1, 0, 420.516997, 50.557005)"/>
  <line class="cls-30" x1="197.82" y1="236.137" x2="196.38" y2="234.697" transform="matrix(0, 1, -1, 0, 432.517034, 38.316988)"/>
  <line class="cls-30" x1="210.12" y1="236.137" x2="208.44" y2="234.457" transform="matrix(0, 1, -1, 0, 444.57696, 26.016997)"/>
  <line class="cls-30" x1="179.22" y1="235.417" x2="178.5" y2="236.137" transform="matrix(0, 1, -1, 0, 414.637011, 56.917036)"/>
  <line class="cls-30" x1="191.28" y1="234.817" x2="189.96" y2="236.137" transform="matrix(0, 1, -1, 0, 426.096986, 44.856983)"/>
  <line class="cls-30" x1="203.28" y1="234.577" x2="201.72" y2="236.137" transform="matrix(0, 1, -1, 0, 437.857, 32.856989)"/>
  <line class="cls-30" x1="265.68" y1="235.417" x2="262.68" y2="238.417" transform="matrix(0, 1, -1, 0, 501.097004, -27.263016)"/>
  <line class="cls-23" x1="235.32" y1="86.857" x2="235.32" y2="77.857" transform="matrix(0, 1, -1, 0, 317.677008, -152.963024)"/>
  <line class="cls-23" x1="266.82" y1="100.357" x2="266.82" y2="64.357" transform="matrix(0, 1, -1, 0, 349.176998, -184.463014)"/>
  <g class="cls-53" transform="matrix(0, 1, -1, 0, 322.379364, -5.723145)">
    <g class="cls-5">
      <rect class="cls-3" x="185.16" y="101.22" width="18.42" height="18.48"/>
    </g>
  </g>
  <polyline class="cls-23" points="211.92 197.917 221.16 188.677 211.92 179.437 202.68 188.677 211.92 197.917" transform="matrix(0, 1, -1, 0, 400.596972, -23.242984)"/>
  <text class="cls-54" style="white-space: pre; font-size: 9.8px;" x="208.319" y="192.577">H</text>
  <line class="cls-23" x1="181.65" y1="104.287" x2="181.65" y2="97.507" transform="matrix(0, 1, -1, 0, 282.546985, -80.752979)"/>
  <line class="cls-23" x1="171.18" y1="93.817" x2="171.18" y2="107.977" transform="matrix(0, 1, -1, 0, 272.076982, -70.282976)"/>
  <rect class="cls-3" x="139.86" y="169.74" width="8.82" height="92.82"/>
</svg>