<?xml version="1.0" encoding="utf-8"?>
<svg viewBox="70.33417510986328 418.4543762207031 257.435791015625 180.57888793945312" xmlns="http://www.w3.org/2000/svg">
  <defs>
    <style>.cls-1,.cls-14,.cls-15,.cls-16,.cls-17,.cls-18,.cls-19,.cls-2{fill:none;}.cls-1{clip-rule:evenodd;}.cls-3{fill:#fff;}.cls-4{clip-path:url(#clip-path);}.cls-5{clip-path:url(#clip-path-2);}.cls-6{clip-path:url(#clip-path-3);}.cls-7{clip-path:url(#clip-path-5);}.cls-8{clip-path:url(#clip-path-7);}.cls-9{clip-path:url(#clip-path-9);}.cls-10{clip-path:url(#clip-path-11);}.cls-11{clip-path:url(#clip-path-13);}.cls-12{clip-path:url(#clip-path-15);}.cls-13{clip-path:url(#clip-path-17);}.cls-14{stroke:#464646;}.cls-14,.cls-15,.cls-16,.cls-17,.cls-18,.cls-19{stroke-linecap:round;stroke-linejoin:round;}.cls-14,.cls-15,.cls-19{stroke-width:0.24px;}.cls-15,.cls-16,.cls-17{stroke:#000;}.cls-16{stroke-width:1.38px;}.cls-17{stroke-width:0.96px;}.cls-18{stroke:#00007e;stroke-width:0.48px;}.cls-19{stroke:#656565;}.cls-20{font-size:7.95px;}.cls-20,.cls-25,.cls-27,.cls-35,.cls-40,.cls-43{font-family:ArialNarrow, Arial;}.cls-21{letter-spacing:-0.02em;}.cls-22{letter-spacing:0em;}.cls-23{letter-spacing:-0.01em;}.cls-24{letter-spacing:-0.01em;}.cls-25,.cls-27,.cls-40{font-size:9.91px;}.cls-26{letter-spacing:-0.01em;}.cls-27{letter-spacing:-0.01em;}.cls-28{letter-spacing:-0.02em;}.cls-29{letter-spacing:0em;}.cls-30{letter-spacing:-0.02em;}.cls-31{letter-spacing:0em;}.cls-32{letter-spacing:-0.02em;}.cls-33{letter-spacing:-0.01em;}.cls-34{letter-spacing:-0.01em;}.cls-35{font-size:19.87px;letter-spacing:-0.01em;}.cls-36{letter-spacing:-0.01em;}.cls-37{letter-spacing:-0.01em;}.cls-38{letter-spacing:0em;}.cls-39{letter-spacing:-0.01em;}.cls-40,.cls-56{letter-spacing:-0.01em;}.cls-41{letter-spacing:0em;}.cls-42{fill-rule:evenodd;}.cls-43{font-size:9.91px;}.cls-44{letter-spacing:-0.01em;}.cls-45{letter-spacing:-0.01em;}.cls-46{clip-path:url(#clip-path-19);}.cls-47{font-size:9.77px;font-family:ArialMT, Arial;}.cls-48{clip-path:url(#clip-path-21);}.cls-49{clip-path:url(#clip-path-23);}.cls-50{clip-path:url(#clip-path-25);}.cls-51{clip-path:url(#clip-path-27);}.cls-52{clip-path:url(#clip-path-29);}.cls-53{clip-path:url(#clip-path-31);}.cls-54{clip-path:url(#clip-path-33);}.cls-55{letter-spacing:-0.02em;}.cls-57{letter-spacing:2.46em;}.cls-58{letter-spacing:0em;}</style>
  </defs>
  <title>Tag_LowHeight_Sample</title>
  <rect class="cls-3" x="222.6" y="612" width="16.98" height="16.98" transform="matrix(0, 0.999999, -1, 0, 729.970032, 340.652818)"/>
  <rect class="cls-3" x="101.52" y="539.1" width="24.6" height="3.36" transform="matrix(0, 1, -1, 0, 729.970032, 340.649222)"/>
  <rect class="cls-3" x="204.18" y="539.1" width="24.66" height="3.36" transform="matrix(0, 0.999999, -1, 0, 729.970032, 340.652902)"/>
  <rect class="cls-3" x="101.521" y="576.54" width="3.36" height="53.46" transform="matrix(0, 1.000005, -1, 0, 729.970032, 340.649006)"/>
  <rect class="cls-3" x="101.521" y="425.7" width="3.36" height="113.4" transform="matrix(0, 1.000005, -1, 0, 729.970032, 340.649006)"/>
  <rect class="cls-3" x="225.469" y="425.7" width="3.36" height="113.4" transform="matrix(0, 0.999995, -1, 0, 729.970032, 340.662325)"/>
  <rect class="cls-3" x="221.58" y="629.58" width="18" height="0.42" transform="matrix(0, 1, -1, 0, 729.970032, 340.649918)"/>
  <rect class="cls-3" x="221.936" y="628.98" width="17.64" height="0.6" transform="matrix(0, 1.000001, -1, 0, 729.970032, 340.650107)"/>
  <rect class="cls-3" x="245.596" y="610.98" width="0.36" height="18.6" transform="matrix(0, 0.999958, -1, 0, 729.970032, 340.524768)"/>
  <rect class="cls-3" x="242.806" y="611.34" width="2.64" height="15.66" transform="matrix(0, 1.000006, -1, 0, 729.970032, 340.661164)"/>
  <rect class="cls-3" x="239.58" y="610.98" width="5.88" height="0.36" transform="matrix(0, 1, -1, 0, 729.970032, 340.649918)"/>
  <rect class="cls-3" x="239.585" y="611.34" width="3.24" height="2.64" transform="matrix(0, 0.999995, -1, 0, 729.970032, 340.64537)"/>
  <rect class="cls-3" x="221.703" y="610.98" width="0.36" height="18.6" transform="matrix(0, 0.999958, -1, 0, 729.970032, 340.537107)"/>
  <rect class="cls-3" x="221.95" y="611.34" width="0.66" height="17.64" transform="matrix(0, 1.000046, -1, 0, 729.970032, 340.629279)"/>
  <rect class="cls-3" x="104.88" y="607.62" width="120.6" height="3.36" transform="matrix(0, 1, -1, 0, 729.970032, 340.649934)"/>
  <g class="cls-6" transform="matrix(0, 1, -1, 0, 729.970032, 340.649933)">
    <g class="cls-5">
      <rect class="cls-3" x="87.48" y="422.34" width="155.34" height="0.36"/>
    </g>
  </g>
  <g class="cls-7" transform="matrix(0, 1, -1, 0, 729.970032, 340.649933)">
    <g class="cls-5">
      <rect class="cls-3" x="84.54" y="425.28" width="161.28" height="0.42"/>
    </g>
  </g>
  <g class="cls-8" transform="matrix(0, 1, -1, 0, 729.970032, 340.649933)">
    <g class="cls-5">
      <rect class="cls-3" x="84.9" y="422.7" width="160.56" height="2.58"/>
    </g>
  </g>
  <g class="cls-9" transform="matrix(0, 1, -1, 0, 720.970032, 340.649933)">
    <g class="cls-5">
      <rect class="cls-3" x="245.46" y="358.26" width="0.36" height="67.02"/>
    </g>
  </g>
  <g class="cls-11" transform="matrix(0, 1, -1, 0, 720.970032, 340.649933)">
    <g class="cls-5">
      <rect class="cls-3" x="84.54" y="358.32" width="0.36" height="66.96"/>
    </g>
  </g>
  <rect class="cls-3" x="185.76" y="422.34" width="56.7" height="3.36" transform="matrix(0, 1, -1, 0, 729.970032, 340.648525)"/>
  <rect class="cls-3" x="84.54" y="396.84" width="3.36" height="25.5" transform="matrix(0, 1.000002, -1, 0, 729.970032, 340.645674)"/>
  <rect class="cls-3" x="221.936" y="610.98" width="17.64" height="0.36" transform="matrix(0, 1.000001, -1, 0, 729.970032, 340.650107)"/>
  <rect class="cls-3" x="222.6" y="611.34" width="16.98" height="0.66" transform="matrix(0, 0.999999, -1, 0, 729.970032, 340.652818)"/>
  <rect class="cls-3" x="239.583" y="629.58" width="6.24" height="0.42" transform="matrix(0, 0.999998, -1, 0, 729.970032, 340.652212)"/>
  <rect class="cls-3" x="239.58" y="627" width="5.88" height="2.58" transform="matrix(0, 1, -1, 0, 729.970032, 340.649918)"/>
  <rect class="cls-3" x="225.469" y="576.54" width="3.36" height="34.44" transform="matrix(0, 0.999995, -1, 0, 729.970032, 340.662325)"/>
  <rect class="cls-3" x="87.96" y="422.34" width="56.7" height="3.36" transform="matrix(0, 1, -1, 0, 729.970032, 340.649242)"/>
  <line class="cls-14" x1="113.2" y1="578.34" x2="112.36" y2="577.68" transform="matrix(0, 1, -1, 0, 690.790001, 465.229999)"/>
  <line class="cls-14" x1="102.88" y1="577.44" x2="102.04" y2="576.78" transform="matrix(0, 1, -1, 0, 679.569992, 474.649988)"/>
  <line class="cls-14" x1="111.19" y1="567.51" x2="110.35" y2="566.79" transform="matrix(0, 1, -1, 0, 677.920015, 456.380013)"/>
  <line class="cls-14" x1="110.83" y1="568.05" x2="110.89" y2="567.15" transform="matrix(0, 1, -1, 0, 678.459982, 456.739975)"/>
  <line class="cls-14" x1="102.52" y1="577.98" x2="102.58" y2="577.14" transform="matrix(0, 1, -1, 0, 680.110013, 475.010004)"/>
  <polyline class="cls-14" points="113.26 578.46 113.32 577.62 112.42 577.8" transform="matrix(0, 1, -1, 0, 690.910026, 465.170033)"/>
  <line class="cls-14" x1="111.67" y1="567.09" x2="110.77" y2="567.27" transform="matrix(0, 1, -1, 0, 678.400043, 455.960044)"/>
  <line class="cls-14" x1="103.33" y1="577.05" x2="102.43" y2="577.23" transform="matrix(0, 1, -1, 0, 680.020024, 474.260016)"/>
  <line class="cls-14" x1="109.18" y1="580.2" x2="108.34" y2="579.42" transform="matrix(0, 1, -1, 0, 688.569987, 471.049997)"/>
  <line class="cls-14" x1="107.05" y1="564.15" x2="106.15" y2="563.25" transform="matrix(0, 1, -1, 0, 670.300024, 457.100011)"/>
  <line class="cls-14" x1="109.63" y1="579.75" x2="108.79" y2="579.87" transform="matrix(0, 1, -1, 0, 689.019991, 470.599993)"/>
  <line class="cls-14" x1="107.92" y1="563.76" x2="106.78" y2="563.88" transform="matrix(0, 1, -1, 0, 671.170004, 456.470002)"/>
  <line class="cls-14" x1="106.66" y1="564.9" x2="106.9" y2="563.64" transform="matrix(0, 1, -1, 0, 671.050019, 457.490023)"/>
  <line class="cls-14" x1="104.89" y1="575.73" x2="104.47" y2="574.71" transform="matrix(0, 1, -1, 0, 679.899965, 470.53996)"/>
  <line class="cls-14" x1="116.92" y1="571.08" x2="116.56" y2="570.06" transform="matrix(0, 1, -1, 0, 687.310008, 453.830006)"/>
  <line class="cls-14" x1="108.37" y1="565.29" x2="107.95" y2="564.27" transform="matrix(0, 1, -1, 0, 672.94002, 456.620017)"/>
  <line class="cls-14" x1="107.77" y1="565.59" x2="108.25" y2="564.87" transform="matrix(0, 1, -1, 0, 673.239977, 457.21999)"/>
  <line class="cls-14" x1="116.35" y1="571.35" x2="116.83" y2="570.63" transform="matrix(0, 1, -1, 0, 687.579995, 454.399996)"/>
  <line class="cls-14" x1="104.29" y1="576.03" x2="104.77" y2="575.31" transform="matrix(0, 1, -1, 0, 680.200035, 471.140033)"/>
  <line class="cls-14" x1="117.52" y1="570.96" x2="116.68" y2="570.66" transform="matrix(0, 1, -1, 0, 687.910001, 453.710007)"/>
  <line class="cls-14" x1="105.49" y1="575.61" x2="104.59" y2="575.31" transform="matrix(0, 1, -1, 0, 680.499951, 470.419968)"/>
  <line class="cls-14" x1="108.97" y1="565.17" x2="108.07" y2="564.87" transform="matrix(0, 1, -1, 0, 673.54002, 456.500011)"/>
  <line class="cls-14" x1="101.29" y1="565.35" x2="101.23" y2="565.29" transform="matrix(0, 1, -1, 0, 666.579942, 464.059936)"/>
  <line class="cls-14" x1="101.11" y1="570.15" x2="101.05" y2="570.09" transform="matrix(0, 1, -1, 0, 671.199994, 469.039984)"/>
  <line class="cls-14" x1="108.73" y1="564.27" x2="108.67" y2="564.21" transform="matrix(0, 1, -1, 0, 672.939987, 455.539996)"/>
  <line class="cls-14" x1="108.58" y1="569.1" x2="108.52" y2="568.98" transform="matrix(0, 1, -1, 0, 677.589989, 460.489988)"/>
  <line class="cls-14" x1="116.08" y1="563.28" x2="116.08" y2="563.22" transform="matrix(0, 1, -1, 0, 679.330002, 447.169998)"/>
  <line class="cls-14" x1="108.4" y1="573.9" x2="108.34" y2="573.78" transform="matrix(0, 1, -1, 0, 682.210035, 465.470043)"/>
  <line class="cls-14" x1="115.99" y1="568.05" x2="115.93" y2="567.99" transform="matrix(0, 1, -1, 0, 683.980017, 452.060023)"/>
  <line class="cls-14" x1="108.22" y1="578.64" x2="108.16" y2="578.52" transform="matrix(0, 1, -1, 0, 686.770034, 470.390025)"/>
  <line class="cls-14" x1="115.81" y1="572.85" x2="115.75" y2="572.79" transform="matrix(0, 1, -1, 0, 688.599936, 457.039939)"/>
  <line class="cls-14" x1="115.63" y1="577.65" x2="115.57" y2="577.59" transform="matrix(0, 1, -1, 0, 693.219989, 462.019987)"/>
  <line class="cls-14" x1="109.63" y1="565.71" x2="109.63" y2="565.59" transform="matrix(0, 1, -1, 0, 675.280019, 456.02003)"/>
  <line class="cls-14" x1="113.26" y1="565.26" x2="113.2" y2="565.14" transform="matrix(0, 1, -1, 0, 678.430006, 451.970008)"/>
  <line class="cls-14" x1="105.85" y1="571.41" x2="105.85" y2="571.29" transform="matrix(0, 1, -1, 0, 677.199977, 465.499979)"/>
  <line class="cls-14" x1="109.45" y1="570.93" x2="109.45" y2="570.81" transform="matrix(0, 1, -1, 0, 680.31998, 461.419987)"/>
  <line class="cls-14" x1="114.91" y1="570.21" x2="114.91" y2="570.09" transform="matrix(0, 1, -1, 0, 685.060024, 455.240013)"/>
  <line class="cls-14" x1="102.04" y1="577.08" x2="102.04" y2="577.02" transform="matrix(0, 1, -1, 0, 679.090038, 475.010037)"/>
  <line class="cls-14" x1="105.67" y1="576.63" x2="105.67" y2="576.51" transform="matrix(0, 1, -1, 0, 682.240018, 470.900016)"/>
  <line class="cls-14" x1="111.1" y1="575.88" x2="111.1" y2="575.82" transform="matrix(0, 1, -1, 0, 686.949972, 464.749971)"/>
  <line class="cls-14" x1="115.03" y1="568.95" x2="115.03" y2="568.83" transform="matrix(0, 1, -1, 0, 683.920024, 453.860029)"/>
  <line class="cls-14" x1="107.32" y1="568.62" x2="107.38" y2="568.5" transform="matrix(0, 1, -1, 0, 675.909995, 461.209993)"/>
  <line class="cls-14" x1="110.35" y1="570.51" x2="110.41" y2="570.45" transform="matrix(0, 1, -1, 0, 680.859974, 460.099969)"/>
  <line class="cls-14" x1="102.67" y1="570.21" x2="102.73" y2="570.15" transform="matrix(0, 1, -1, 0, 672.880047, 467.480049)"/>
  <line class="cls-14" x1="112.18" y1="576.24" x2="112.18" y2="576.18" transform="matrix(0, 1, -1, 0, 688.389956, 464.029953)"/>
  <line class="cls-14" x1="104.47" y1="575.91" x2="104.53" y2="575.85" transform="matrix(0, 1, -1, 0, 680.379999, 471.380003)"/>
  <line class="cls-14" x1="117.79" y1="566.49" x2="117.85" y2="566.43" transform="matrix(0, 1, -1, 0, 684.279974, 448.63997)"/>
  <line class="cls-14" x1="109.39" y1="567.93" x2="109.45" y2="567.87" transform="matrix(0, 1, -1, 0, 677.320035, 458.480035)"/>
  <line class="cls-14" x1="117.16" y1="575.1" x2="117.28" y2="575.04" transform="matrix(0, 1, -1, 0, 692.289943, 457.849952)"/>
  <line class="cls-14" x1="101.02" y1="569.4" x2="101.02" y2="569.34" transform="matrix(0, 1, -1, 0, 670.389993, 468.349996)"/>
  <line class="cls-14" x1="108.76" y1="576.54" x2="108.88" y2="576.48" transform="matrix(0, 1, -1, 0, 685.330011, 467.69001)"/>
  <line class="cls-14" x1="112.21" y1="579.69" x2="112.27" y2="579.63" transform="matrix(0, 1, -1, 0, 691.900031, 467.42003)"/>
  <line class="cls-15" x1="100.36" y1="565.5" x2="99.88" y2="565.8" transform="matrix(0, 1, -1, 0, 665.770021, 465.530029)"/>
  <line class="cls-15" x1="221.58" y1="611.88" x2="221.58" y2="611.88"/>
  <line class="cls-15" x1="307.72" y1="498.48" x2="307.3" y2="498.72" transform="matrix(0, 1, -1, 0, 806.110001, 191.090003)"/>
  <line class="cls-15" x1="304.3" y1="504.6" x2="304.78" y2="504.9" transform="matrix(0, 1, -1, 0, 809.28997, 200.210029)"/>
  <line class="cls-15" x1="118.96" y1="574.74" x2="118.54" y2="574.98" transform="matrix(0, 1, -1, 0, 693.609981, 456.109979)"/>
  <line class="cls-15" x1="199.81" y1="454.47" x2="175.21" y2="454.47" transform="matrix(0, 1, -1, 0, 641.98001, 266.959996)"/>
  <polyline class="cls-15" points="178.57 454.47 199.81 454.47 199.81 457.83" transform="matrix(0, 1, -1, 0, 645.339997, 266.959996)"/>
  <line class="cls-15" x1="189.19" y1="440.49" x2="189.19" y2="443.85" transform="matrix(0, 1, -1, 0, 631.359981, 252.97998)"/>
  <line class="cls-15" x1="199.84" y1="557.16" x2="175.18" y2="557.16" transform="matrix(0, 1, -1, 0, 744.669975, 369.649987)"/>
  <line class="cls-15" x1="180.22" y1="555.48" x2="201.52" y2="555.48" transform="matrix(0, 1, -1, 0, 746.349969, 364.60998)"/>
  <line class="cls-15" x1="189.19" y1="571.17" x2="189.19" y2="567.81" transform="matrix(0, 1, -1, 0, 758.679981, 380.299979)"/>
  <line class="cls-15" x1="189.19" y1="543.15" x2="189.19" y2="546.51" transform="matrix(0, 1, -1, 0, 734.020023, 355.640022)"/>
  <line class="cls-15" x1="126.7" y1="418.8" x2="126.7" y2="472.26" transform="matrix(0, 1, -1, 0, 572.229985, 318.830004)"/>
  <polyline class="cls-15" points="125.02 470.58 125.02 417.12 128.38 417.12" transform="matrix(0, 1, -1, 0, 570.549965, 317.149983)"/>
  <line class="cls-15" x1="98.29" y1="443.85" x2="101.65" y2="443.85" transform="matrix(0, 1, -1, 0, 543.820002, 343.88)"/>
  <polyline class="cls-16" points="100.99 580.23 117.97 580.23 117.97 563.25 100.99 563.25 100.99 580.23" transform="matrix(0, 1, -1, 0, 681.219983, 462.259997)"/>
  <line class="cls-15" x1="247.57" y1="498.87" x2="247.57" y2="385.47" transform="matrix(0, 1, -1, 0, 689.739996, 194.599965)"/>
  <line class="cls-15" x1="247.57" y1="388.83" x2="247.57" y2="502.23" transform="matrix(0, 1, -1, 0, 693.10001, 197.959979)"/>
  <line class="cls-15" x1="305.95" y1="443.85" x2="302.59" y2="443.85" transform="matrix(0, 1, -1, 0, 748.120024, 139.579977)"/>
  <line class="cls-15" x1="247.57" y1="512.79" x2="247.57" y2="626.19" transform="matrix(0, 1, -1, 0, 817.059995, 321.919964)"/>
  <line class="cls-15" x1="247.57" y1="622.83" x2="247.57" y2="509.43" transform="matrix(0, 1, -1, 0, 813.700008, 318.559977)"/>
  <line class="cls-15" x1="305.95" y1="567.81" x2="302.59" y2="567.81" transform="matrix(0, 1, -1, 0, 872.080023, 263.539976)"/>
  <line class="cls-17" x1="90.97" y1="571.23" x2="108.97" y2="571.23" transform="matrix(0, 1, -1, 0, 671.199994, 471.259991)"/>
  <line class="cls-17" x1="109.48" y1="571.74" x2="92.5" y2="571.74" transform="matrix(0, 1, -1, 0, 672.729993, 470.749987)"/>
  <polyline class="cls-17" points="100.48 561.72 100.48 562.32 100.48 562.74" transform="matrix(0, 1, -1, 0, 662.709984, 461.749973)"/>
  <line class="cls-15" x1="109.21" y1="571.41" x2="91.57" y2="571.41" transform="matrix(0, 1, -1, 0, 671.79998, 471.019988)"/>
  <polyline class="cls-17" points="112.48 592.98 112.48 576.96 112.12 576.96 109.48 576.96" transform="matrix(0, 1, -1, 0, 695.949973, 473.98997)"/>
  <line class="cls-17" x1="109.48" y1="576.96" x2="109.48" y2="589.98" transform="matrix(0, 1, -1, 0, 692.949989, 473.989976)"/>
  <polyline class="cls-15" points="109.51 576.99 109.51 592.65 109.51 595.23" transform="matrix(0, 1, -1, 0, 695.619981, 476.599976)"/>
  <line class="cls-17" x1="120.61" y1="581.85" x2="117.37" y2="581.85" transform="matrix(0, 1, -1, 0, 700.839993, 462.85997)"/>
  <polyline class="cls-17" points="115.36 580.86 115.36 582.84 118.6 582.84" transform="matrix(0, 1, -1, 0, 698.82998, 464.869983)"/>
  <polyline class="cls-15" points="115.69 583.17 118.93 583.17 121.57 583.17" transform="matrix(0, 1, -1, 0, 701.799981, 464.539977)"/>
  <line class="cls-17" x1="109.99" y1="553.23" x2="109.99" y2="571.23" transform="matrix(0, 1, -1, 0, 672.219975, 452.239981)"/>
  <line class="cls-17" x1="109.48" y1="571.74" x2="109.48" y2="554.76" transform="matrix(0, 1, -1, 0, 672.730006, 453.769993)"/>
  <polyline class="cls-17" points="119.5 562.74 118.84 562.74 118.48 562.74" transform="matrix(0, 1, -1, 0, 681.730014, 443.749991)"/>
  <polyline class="cls-15" points="109.51 571.71 109.51 571.11 109.51 553.47" transform="matrix(0, 1, -1, 0, 672.099963, 453.079958)"/>
  <line class="cls-15" x1="62.05" y1="505.83" x2="182.65" y2="505.83" transform="matrix(0, 1, -1, 0, 628.179972, 383.480002)"/>
  <line class="cls-15" x1="178.51" y1="505.05" x2="59.47" y2="505.05" transform="matrix(0, 1, -1, 0, 624.039987, 386.059991)"/>
  <line class="cls-15" x1="120.67" y1="443.85" x2="120.67" y2="447.21" transform="matrix(0, 1, -1, 0, 566.199986, 324.860003)"/>
  <line class="cls-15" x1="120.67" y1="567.81" x2="120.67" y2="564.45" transform="matrix(0, 1, -1, 0, 686.799984, 445.460001)"/>
  <line class="cls-17" x1="384.91" y1="505.83" x2="230.35" y2="505.83" transform="matrix(0, 1, -1, 0, 813.459998, 198.199976)"/>
  <polyline class="cls-17" points="305.95 423.51 305.95 426.45 305.95 426.87" transform="matrix(0, 1, -1, 0, 731.140004, 119.239996)"/>
  <line class="cls-17" x1="223.63" y1="505.83" x2="384.91" y2="505.83" transform="matrix(0, 1, -1, 0, 810.10001, 201.559963)"/>
  <line class="cls-15" x1="307.03" y1="428.37" x2="307.51" y2="428.37" transform="matrix(0, 1, -1, 0, 735.640024, 121.099968)"/>
  <line class="cls-15" x1="286.72" y1="505.86" x2="327.82" y2="505.86" transform="matrix(0, 1, -1, 0, 813.130018, 198.589962)"/>
  <line class="cls-15" x1="303.16" y1="427.08" x2="306.22" y2="427.08" transform="matrix(0, 1, -1, 0, 731.77, 122.389976)"/>
  <line class="cls-15" x1="284.14" y1="505.86" x2="325.24" y2="505.86" transform="matrix(0, 1, -1, 0, 810.550002, 201.169978)"/>
  <polyline class="cls-17" points="322.63 440.19 322.63 413.55 319.27 413.55 319.27 440.19" transform="matrix(0, 1, -1, 0, 747.819995, 105.919992)"/>
  <polyline class="cls-15" points="306.16 427.02 306.16 424.44 306.16 424.08" transform="matrix(0, 1, -1, 0, 731.709987, 119.389991)"/>
  <line class="cls-15" x1="307.45" y1="428.31" x2="307.45" y2="427.95" transform="matrix(0, 1, -1, 0, 735.580025, 120.679986)"/>
  <line class="cls-17" x1="305.95" y1="528.09" x2="305.95" y2="524.73" transform="matrix(0, 1, -1, 0, 832.360036, 220.460028)"/>
  <line class="cls-18" x1="278.92" y1="554.76" x2="332.02" y2="554.76" transform="matrix(0, 1, -1, 0, 860.230019, 249.29)"/>
  <line class="cls-17" x1="306.85" y1="528.09" x2="306.85" y2="526.53" transform="matrix(0, 1, -1, 0, 834.160068, 220.460041)"/>
  <line class="cls-17" x1="305.44" y1="528.84" x2="305.44" y2="527.58" transform="matrix(0, 1, -1, 0, 833.650031, 222.770018)"/>
  <polyline class="cls-17" points="304.54 528.48 304.54 526.68 305.8 526.68" transform="matrix(0, 1, -1, 0, 832.749941, 222.409982)"/>
  <line class="cls-17" x1="304.18" y1="527.58" x2="305.44" y2="527.58" transform="matrix(0, 1, -1, 0, 832.390012, 222.770018)"/>
  <line class="cls-17" x1="307.18" y1="526.86" x2="308.08" y2="526.86" transform="matrix(0, 1, -1, 0, 834.489994, 219.229973)"/>
  <line class="cls-17" x1="304" y1="526.68" x2="304.54" y2="526.68" transform="matrix(0, 1, -1, 0, 830.950016, 222.409969)"/>
  <line class="cls-15" x1="332.62" y1="554.76" x2="275.92" y2="554.76" transform="matrix(0, 1, -1, 0, 859.030033, 250.489986)"/>
  <line class="cls-15" x1="332.08" y1="554.76" x2="276.46" y2="554.76" transform="matrix(0, 1, -1, 0, 859.030006, 250.490012)"/>
  <line class="cls-15" x1="277.72" y1="554.76" x2="334.42" y2="554.76" transform="matrix(0, 1, -1, 0, 860.830025, 248.689994)"/>
  <line class="cls-15" x1="305.17" y1="527.31" x2="305.17" y2="525.51" transform="matrix(0, 1, -1, 0, 831.580038, 221.240026)"/>
  <line class="cls-15" x1="334.42" y1="554.76" x2="277.72" y2="554.76" transform="matrix(0, 1, -1, 0, 860.830025, 248.689994)"/>
  <line class="cls-15" x1="335.08" y1="554.76" x2="280.18" y2="554.76" transform="matrix(0, 1, -1, 0, 862.39002, 247.129999)"/>
  <line class="cls-15" x1="279.28" y1="554.76" x2="335.98" y2="554.76" transform="matrix(0, 1, -1, 0, 862.39002, 247.129999)"/>
  <line class="cls-15" x1="306.85" y1="527.19" x2="306.85" y2="525.63" transform="matrix(0, 1, -1, 0, 833.260045, 219.560019)"/>
  <line class="cls-17" x1="305.95" y1="426.87" x2="309.31" y2="426.87" transform="matrix(0, 1, -1, 0, 734.500004, 119.239983)"/>
  <line class="cls-18" x1="320.41" y1="415.35" x2="320.41" y2="437.31" transform="matrix(0, 1, -1, 0, 746.740021, 105.920019)"/>
  <line class="cls-17" x1="307.75" y1="427.77" x2="309.31" y2="427.77" transform="matrix(0, 1, -1, 0, 736.299983, 119.239996)"/>
  <line class="cls-17" x1="308.08" y1="429" x2="308.08" y2="428.1" transform="matrix(0, 1, -1, 0, 736.629963, 120.470012)"/>
  <line class="cls-17" x1="308.8" y1="426.36" x2="308.8" y2="427.62" transform="matrix(0, 1, -1, 0, 735.789986, 118.189998)"/>
  <line class="cls-17" x1="308.8" y1="426.36" x2="310.06" y2="426.36" transform="matrix(0, 1, -1, 0, 735.789986, 116.92998)"/>
  <line class="cls-17" x1="308.8" y1="426.36" x2="308.8" y2="425.1" transform="matrix(0, 1, -1, 0, 734.529974, 116.929987)"/>
  <line class="cls-17" x1="307.27" y1="426.09" x2="309.07" y2="426.09" transform="matrix(0, 1, -1, 0, 734.25998, 117.920012)"/>
  <line class="cls-17" x1="307.9" y1="425.46" x2="307.9" y2="424.92" transform="matrix(0, 1, -1, 0, 733.089984, 117.290016)"/>
  <line class="cls-15" x1="320.38" y1="437.94" x2="320.38" y2="412.44" transform="matrix(0, 1, -1, 0, 745.569998, 104.810002)"/>
  <line class="cls-15" x1="320.38" y1="437.4" x2="320.38" y2="412.98" transform="matrix(0, 1, -1, 0, 745.569998, 104.810002)"/>
  <line class="cls-15" x1="308.53" y1="426.09" x2="306.73" y2="426.09" transform="matrix(0, 1, -1, 0, 733.720007, 118.459985)"/>
  <line class="cls-15" x1="320.38" y1="414.24" x2="320.38" y2="439.74" transform="matrix(0, 1, -1, 0, 747.36999, 106.609994)"/>
  <line class="cls-15" x1="320.38" y1="439.74" x2="320.38" y2="414.24" transform="matrix(0, 1, -1, 0, 747.36999, 106.609994)"/>
  <line class="cls-15" x1="308.41" y1="427.77" x2="306.85" y2="427.77" transform="matrix(0, 1, -1, 0, 735.4, 120.139979)"/>
  <line class="cls-15" x1="320.38" y1="440.4" x2="320.38" y2="416.7" transform="matrix(0, 1, -1, 0, 748.929985, 108.169989)"/>
  <line class="cls-15" x1="320.38" y1="415.8" x2="320.38" y2="441.3" transform="matrix(0, 1, -1, 0, 748.929985, 108.169989)"/>
  <line class="cls-17" x1="127.48" y1="571.74" x2="110.5" y2="571.74" transform="matrix(0, 1, -1, 0, 690.730001, 452.749979)"/>
  <line class="cls-17" x1="109.48" y1="571.74" x2="126.46" y2="571.74" transform="matrix(0, 1, -1, 0, 689.709993, 453.769987)"/>
  <polyline class="cls-15" points="109.81 571.41 110.47 571.41 127.45 571.41" transform="matrix(0, 1, -1, 0, 690.039986, 452.779982)"/>
  <polyline class="cls-17" points="98.35 584.85 104.59 584.85 104.59 584.43 104.59 581.85" transform="matrix(0, 1, -1, 0, 684.819974, 481.879967)"/>
  <polyline class="cls-17" points="103.6 580.86 100.36 580.86 100.36 582.84" transform="matrix(0, 1, -1, 0, 683.829976, 479.869987)"/>
  <line class="cls-15" x1="103.33" y1="583.17" x2="97.45" y2="583.17" transform="matrix(0, 1, -1, 0, 683.559976, 482.779983)"/>
  <line class="cls-15" x1="136.21" y1="552.27" x2="136.21" y2="586.71" transform="matrix(0, 1, -1, 0, 705.699982, 433.279977)"/>
  <polyline class="cls-15" points="134.53 585.03 134.53 550.59 137.89 550.59" transform="matrix(0, 1, -1, 0, 704.020042, 431.600063)"/>
  <line class="cls-15" x1="117.31" y1="567.81" x2="120.67" y2="567.81" transform="matrix(0, 1, -1, 0, 686.799997, 448.820001)"/>
  <line class="cls-15" x1="102.13" y1="443.85" x2="102.13" y2="441.57" transform="matrix(0, 1, -1, 0, 544.840017, 340.580025)"/>
  <line class="cls-15" x1="102.13" y1="443.85" x2="99.85" y2="443.85" transform="matrix(0, 1, -1, 0, 544.839997, 342.860005)"/>
  <line class="cls-15" x1="102.13" y1="443.85" x2="102.13" y2="446.13" transform="matrix(0, 1, -1, 0, 547.11999, 342.859998)"/>
  <line class="cls-15" x1="102.13" y1="443.85" x2="104.41" y2="443.85" transform="matrix(0, 1, -1, 0, 547.120003, 340.579998)"/>
  <polyline class="cls-15" points="100.87 442.59 103.39 442.59 103.39 445.11 100.87 445.11 100.87 442.59" transform="matrix(0, 1, -1, 0, 545.979977, 341.719972)"/>
  <line class="cls-15" x1="151.6" y1="443.88" x2="151.6" y2="441.54" transform="matrix(0, 1, -1, 0, 594.310033, 291.110009)"/>
  <line class="cls-15" x1="151.57" y1="443.85" x2="149.29" y2="443.85" transform="matrix(0, 1, -1, 0, 594.27999, 293.420012)"/>
  <line class="cls-15" x1="151.6" y1="443.82" x2="151.6" y2="446.16" transform="matrix(0, 1, -1, 0, 596.590006, 293.389982)"/>
  <line class="cls-15" x1="151.63" y1="443.85" x2="153.91" y2="443.85" transform="matrix(0, 1, -1, 0, 596.620009, 291.079993)"/>
  <polyline class="cls-15" points="150.37 442.59 152.89 442.59 152.89 445.11 150.37 445.11 150.37 442.59" transform="matrix(0, 1, -1, 0, 595.479976, 292.219973)"/>
  <line class="cls-15" x1="120.67" y1="470.85" x2="120.67" y2="468.57" transform="matrix(0, 1, -1, 0, 590.380016, 349.040032)"/>
  <line class="cls-15" x1="120.7" y1="470.88" x2="118.36" y2="470.88" transform="matrix(0, 1, -1, 0, 590.410005, 351.350009)"/>
  <line class="cls-15" x1="120.67" y1="470.91" x2="120.67" y2="473.19" transform="matrix(0, 1, -1, 0, 592.719982, 351.379998)"/>
  <line class="cls-15" x1="120.64" y1="470.88" x2="122.98" y2="470.88" transform="matrix(0, 1, -1, 0, 592.690005, 349.070009)"/>
  <polyline class="cls-15" points="119.41 469.59 121.93 469.59 121.93 472.11 119.41 472.11 119.41 469.59" transform="matrix(0, 1, -1, 0, 591.519969, 350.179986)"/>
  <line class="cls-15" x1="120.67" y1="515.67" x2="120.67" y2="513.39" transform="matrix(0, 1, -1, 0, 635.200016, 393.860033)"/>
  <line class="cls-15" x1="120.67" y1="515.67" x2="118.39" y2="515.67" transform="matrix(0, 1, -1, 0, 635.199976, 396.13998)"/>
  <line class="cls-15" x1="120.67" y1="515.67" x2="120.67" y2="517.95" transform="matrix(0, 1, -1, 0, 637.47999, 396.140006)"/>
  <line class="cls-15" x1="120.67" y1="515.67" x2="122.95" y2="515.67" transform="matrix(0, 1, -1, 0, 637.479976, 393.85998)"/>
  <polyline class="cls-15" points="119.41 514.41 121.93 514.41 121.93 516.93 119.41 516.93 119.41 514.41" transform="matrix(0, 1, -1, 0, 636.33997, 394.999986)"/>
  <line class="cls-15" x1="151.6" y1="567.84" x2="151.6" y2="565.5" transform="matrix(0, 1, -1, 0, 718.270058, 415.070034)"/>
  <line class="cls-15" x1="151.57" y1="567.81" x2="149.29" y2="567.81" transform="matrix(0, 1, -1, 0, 718.239988, 417.38001)"/>
  <line class="cls-15" x1="151.6" y1="567.78" x2="151.6" y2="570.12" transform="matrix(0, 1, -1, 0, 720.550018, 417.349994)"/>
  <line class="cls-15" x1="151.63" y1="567.81" x2="153.91" y2="567.81" transform="matrix(0, 1, -1, 0, 720.580008, 415.039991)"/>
  <polyline class="cls-15" points="150.37 566.55 152.89 566.55 152.89 569.07 150.37 569.07 150.37 566.55" transform="matrix(0, 1, -1, 0, 719.440001, 416.179998)"/>
  <line class="cls-15" x1="189.19" y1="546.51" x2="189.19" y2="544.23" transform="matrix(0, 1, -1, 0, 734.559997, 356.179995)"/>
  <line class="cls-15" x1="189.19" y1="546.51" x2="186.91" y2="546.51" transform="matrix(0, 1, -1, 0, 734.560024, 358.460009)"/>
  <line class="cls-15" x1="189.19" y1="546.51" x2="189.19" y2="548.79" transform="matrix(0, 1, -1, 0, 736.840023, 358.460022)"/>
  <line class="cls-15" x1="189.19" y1="546.51" x2="191.47" y2="546.51" transform="matrix(0, 1, -1, 0, 736.840023, 356.180009)"/>
  <polyline class="cls-15" points="187.93 545.25 190.45 545.25 190.45 547.77 187.93 547.77 187.93 545.25" transform="matrix(0, 1, -1, 0, 735.700017, 357.320015)"/>
  <line class="cls-15" x1="189.19" y1="464.97" x2="189.19" y2="462.69" transform="matrix(0, 1, -1, 0, 653.020014, 274.640012)"/>
  <line class="cls-15" x1="189.19" y1="464.97" x2="186.91" y2="464.97" transform="matrix(0, 1, -1, 0, 653.020014, 276.919999)"/>
  <line class="cls-15" x1="189.19" y1="464.97" x2="189.19" y2="467.25" transform="matrix(0, 1, -1, 0, 655.299987, 276.919986)"/>
  <line class="cls-15" x1="189.19" y1="464.97" x2="191.47" y2="464.97" transform="matrix(0, 1, -1, 0, 655.300014, 274.639999)"/>
  <polyline class="cls-15" points="187.93 463.71 190.45 463.71 190.45 466.23 187.93 466.23 187.93 463.71" transform="matrix(0, 1, -1, 0, 654.160007, 275.780006)"/>
  <line class="cls-15" x1="223.09" y1="567.81" x2="223.09" y2="565.53" transform="matrix(0, 1, -1, 0, 789.760042, 343.58005)"/>
  <line class="cls-15" x1="223.09" y1="567.81" x2="220.81" y2="567.81" transform="matrix(0, 1, -1, 0, 789.760002, 345.859997)"/>
  <line class="cls-15" x1="223.09" y1="567.81" x2="223.09" y2="570.09" transform="matrix(0, 1, -1, 0, 792.040002, 345.86001)"/>
  <line class="cls-15" x1="223.09" y1="567.81" x2="225.37" y2="567.81" transform="matrix(0, 1, -1, 0, 792.039989, 343.58001)"/>
  <polyline class="cls-15" points="221.83 566.55 224.35 566.55 224.35 569.07 221.83 569.07 221.83 566.55" transform="matrix(0, 1, -1, 0, 790.899996, 344.720003)"/>
  <line class="cls-15" x1="265.6" y1="567.84" x2="265.6" y2="565.5" transform="matrix(0, 1, -1, 0, 832.27004, 301.070052)"/>
  <line class="cls-15" x1="265.57" y1="567.81" x2="263.29" y2="567.81" transform="matrix(0, 1, -1, 0, 832.239984, 303.380015)"/>
  <line class="cls-15" x1="265.6" y1="567.78" x2="265.6" y2="570.12" transform="matrix(0, 1, -1, 0, 834.55, 303.350012)"/>
  <line class="cls-15" x1="265.63" y1="567.81" x2="267.91" y2="567.81" transform="matrix(0, 1, -1, 0, 834.58003, 301.039969)"/>
  <polyline class="cls-15" points="264.34 566.52 266.86 566.52 266.86 569.1 264.34 569.1 264.34 566.52" transform="matrix(0, 1, -1, 0, 833.409967, 302.210032)"/>
  <line class="cls-15" x1="223.09" y1="443.85" x2="223.09" y2="441.57" transform="matrix(0, 1, -1, 0, 665.800017, 219.620025)"/>
  <line class="cls-15" x1="223.09" y1="443.85" x2="220.81" y2="443.85" transform="matrix(0, 1, -1, 0, 665.800004, 221.899998)"/>
  <line class="cls-15" x1="223.09" y1="443.85" x2="223.09" y2="446.13" transform="matrix(0, 1, -1, 0, 668.07999, 221.899998)"/>
  <line class="cls-15" x1="223.09" y1="443.85" x2="225.37" y2="443.85" transform="matrix(0, 1, -1, 0, 668.07999, 219.620011)"/>
  <polyline class="cls-15" points="221.83 442.59 224.35 442.59 224.35 445.11 221.83 445.11 221.83 442.59" transform="matrix(0, 1, -1, 0, 666.939971, 220.759978)"/>
  <line class="cls-15" x1="265.6" y1="443.88" x2="265.6" y2="441.54" transform="matrix(0, 1, -1, 0, 708.310015, 177.110027)"/>
  <line class="cls-15" x1="265.57" y1="443.85" x2="263.29" y2="443.85" transform="matrix(0, 1, -1, 0, 708.279985, 179.420016)"/>
  <line class="cls-15" x1="265.6" y1="443.82" x2="265.6" y2="446.16" transform="matrix(0, 1, -1, 0, 710.589988, 179.39)"/>
  <line class="cls-15" x1="265.63" y1="443.85" x2="267.91" y2="443.85" transform="matrix(0, 1, -1, 0, 710.620031, 177.079971)"/>
  <polyline class="cls-15" points="264.34 442.56 266.86 442.56 266.86 445.14 264.34 445.14 264.34 442.56" transform="matrix(0, 1, -1, 0, 709.449968, 178.250034)"/>
  <line class="cls-17" x1="305.95" y1="486.99" x2="305.95" y2="483.63" transform="matrix(0, 1, -1, 0, 791.260005, 179.359997)"/>
  <line class="cls-17" x1="305.95" y1="430.29" x2="305.95" y2="426.93" transform="matrix(0, 1, -1, 0, 734.55999, 122.659983)"/>
  <line class="cls-18" x1="278.89" y1="456.99" x2="332.05" y2="456.99" transform="matrix(0, 1, -1, 0, 762.459996, 151.519977)"/>
  <line class="cls-17" x1="306.85" y1="485.19" x2="306.85" y2="483.63" transform="matrix(0, 1, -1, 0, 791.260018, 177.559992)"/>
  <line class="cls-17" x1="308.08" y1="484.86" x2="307.18" y2="484.86" transform="matrix(0, 1, -1, 0, 792.489994, 177.229972)"/>
  <line class="cls-17" x1="305.47" y1="484.17" x2="306.67" y2="484.17" transform="matrix(0, 1, -1, 0, 790.240023, 178.099992)"/>
  <line class="cls-17" x1="305.44" y1="484.2" x2="305.44" y2="482.94" transform="matrix(0, 1, -1, 0, 789.010008, 178.129995)"/>
  <line class="cls-17" x1="305.41" y1="484.17" x2="304.21" y2="484.17" transform="matrix(0, 1, -1, 0, 788.980005, 179.360011)"/>
  <line class="cls-17" x1="305.17" y1="485.67" x2="305.17" y2="483.87" transform="matrix(0, 1, -1, 0, 789.94002, 179.600008)"/>
  <line class="cls-17" x1="304.54" y1="485.04" x2="304" y2="485.04" transform="matrix(0, 1, -1, 0, 789.310038, 180.769991)"/>
  <line class="cls-17" x1="306.85" y1="430.35" x2="306.85" y2="428.79" transform="matrix(0, 1, -1, 0, 736.420022, 122.719995)"/>
  <line class="cls-17" x1="305.44" y1="431.04" x2="305.44" y2="429.78" transform="matrix(0, 1, -1, 0, 735.850012, 124.969999)"/>
  <polyline class="cls-17" points="304.54 430.68 304.54 428.88 305.8 428.88" transform="matrix(0, 1, -1, 0, 734.949976, 124.610016)"/>
  <line class="cls-17" x1="304.18" y1="429.78" x2="305.44" y2="429.78" transform="matrix(0, 1, -1, 0, 734.589993, 124.969999)"/>
  <line class="cls-17" x1="307.15" y1="429.09" x2="308.11" y2="429.09" transform="matrix(0, 1, -1, 0, 736.720005, 121.459983)"/>
  <line class="cls-17" x1="304" y1="428.88" x2="304.54" y2="428.88" transform="matrix(0, 1, -1, 0, 733.15003, 124.609983)"/>
  <line class="cls-15" x1="332.62" y1="456.96" x2="275.92" y2="456.96" transform="matrix(0, 1, -1, 0, 761.230021, 152.689974)"/>
  <line class="cls-15" x1="332.08" y1="456.96" x2="276.46" y2="456.96" transform="matrix(0, 1, -1, 0, 761.229994, 152.69)"/>
  <line class="cls-15" x1="305.17" y1="484.41" x2="305.17" y2="486.21" transform="matrix(0, 1, -1, 0, 790.480007, 180.139995)"/>
  <line class="cls-15" x1="277.72" y1="456.96" x2="334.42" y2="456.96" transform="matrix(0, 1, -1, 0, 763.030013, 150.889981)"/>
  <line class="cls-15" x1="305.17" y1="429.51" x2="305.17" y2="427.71" transform="matrix(0, 1, -1, 0, 733.779993, 123.43998)"/>
  <line class="cls-15" x1="334.42" y1="456.96" x2="277.72" y2="456.96" transform="matrix(0, 1, -1, 0, 763.030013, 150.889981)"/>
  <line class="cls-15" x1="306.85" y1="484.53" x2="306.85" y2="486.09" transform="matrix(0, 1, -1, 0, 792.160014, 178.459988)"/>
  <line class="cls-15" x1="335.05" y1="456.99" x2="280.21" y2="456.99" transform="matrix(0, 1, -1, 0, 764.619997, 149.359976)"/>
  <line class="cls-15" x1="279.28" y1="456.96" x2="335.98" y2="456.96" transform="matrix(0, 1, -1, 0, 764.590008, 149.329986)"/>
  <line class="cls-15" x1="306.85" y1="429.39" x2="306.85" y2="427.83" transform="matrix(0, 1, -1, 0, 735.46, 121.759973)"/>
  <line class="cls-15" x1="115.72" y1="459.48" x2="115.72" y2="454.98" transform="matrix(0, 1, -1, 0, 572.95001, 341.510011)"/>
  <line class="cls-15" x1="115.72" y1="540.06" x2="115.72" y2="535.56" transform="matrix(0, 1, -1, 0, 653.529991, 422.089992)"/>
  <line class="cls-15" x1="145.33" y1="570.33" x2="145.33" y2="565.77" transform="matrix(0, 1, -1, 0, 713.380052, 422.720048)"/>
  <line class="cls-15" x1="91.51" y1="562.35" x2="127.51" y2="562.35" transform="matrix(0, 1, -1, 0, 671.859966, 452.839961)"/>
  <line class="cls-15" x1="109.75" y1="576.21" x2="109.75" y2="567.21" transform="matrix(0, 1, -1, 0, 681.460013, 461.960014)"/>
  <line class="cls-15" x1="118.57" y1="583.29" x2="118.57" y2="581.13" transform="matrix(0, 1, -1, 0, 700.77996, 463.639968)"/>
  <line class="cls-15" x1="245.44" y1="450.12" x2="257.98" y2="450.12" transform="matrix(0, 1, -1, 0, 701.829998, 198.409997)"/>
  <polyline class="cls-15" points="247.63 474.15 255.79 474.15 255.79 446.79 247.63 446.79 247.63 474.15" transform="matrix(0, 1, -1, 0, 712.18, 208.759999)"/>
  <g class="cls-46" transform="matrix(0, 1, -1, 0, 729.970032, 340.649933)">
    <g class="cls-5">
      <rect class="cls-3" x="94.68" y="468.54" width="16.02" height="13.92"/>
    </g>
  </g>
  <line class="cls-15" x1="239.47" y1="443.37" x2="255.55" y2="443.37" transform="matrix(0, 1, -1, 0, 690.880003, 195.859984)"/>
  <line class="cls-15" x1="258.49" y1="454.35" x2="250.45" y2="440.43" transform="matrix(0, 1, -1, 0, 701.860027, 192.920011)"/>
  <line class="cls-15" x1="258.49" y1="432.39" x2="250.45" y2="446.31" transform="matrix(0, 1, -1, 0, 693.820015, 184.879999)"/>
  <text class="cls-47" style="white-space: pre; font-size: 9.8px;" x="249.43" y="447.21">L</text>
  <g class="cls-48" transform="matrix(0, 1, -1, 0, 729.970032, 340.649933)">
    <g class="cls-5">
      <rect class="cls-3" x="217.2" y="472.32" width="16.02" height="13.92"/>
    </g>
  </g>
  <polyline class="cls-15" points="242.65 572.85 258.73 572.85 250.69 558.93 242.65 572.85" transform="matrix(0, 1, -1, 0, 816.580028, 315.200016)"/>
  <text class="cls-47" style="white-space: pre; font-size: 9.8px;" x="245.59" y="569.73">L</text>
  <line class="cls-15" x1="242.56" y1="573.54" x2="254.02" y2="573.54" transform="matrix(0, 1, -1, 0, 821.829989, 325.249975)"/>
  <polyline class="cls-15" points="244.21 597.03 252.37 597.03 252.37 569.67 244.21 569.67 244.21 597.03" transform="matrix(0, 1, -1, 0, 831.639978, 335.059963)"/>
  <line class="cls-15" x1="181.54" y1="443.28" x2="181.54" y2="458.58" transform="matrix(0, 1, -1, 0, 632.469985, 269.390011)"/>
  <polyline class="cls-15" points="156.13 464.61 164.29 464.61 164.29 437.25 156.13 437.25 156.13 464.61" transform="matrix(0, 1, -1, 0, 611.139985, 290.72001)"/>
  <g class="cls-49" transform="matrix(0, 1, -1, 0, 729.970032, 340.649933)">
    <g class="cls-5">
      <rect class="cls-3" x="102.12" y="542.16" width="16.02" height="13.92"/>
    </g>
  </g>
  <polyline class="cls-15" points="172.81 457.77 188.89 457.77 180.85 443.85 172.81 457.77" transform="matrix(0, 1, -1, 0, 631.660011, 269.959987)"/>
  <text class="cls-47" style="white-space: pre; font-size: 9.8px;" x="175.81" y="454.71">L</text>
  <line class="cls-15" x1="181.54" y1="548.76" x2="181.54" y2="564.06" transform="matrix(0, 1, -1, 0, 737.950027, 374.870053)"/>
  <polyline class="cls-15" points="156.1 570.06 164.32 570.06 164.32 542.7 156.1 542.7 156.1 570.06" transform="matrix(0, 1, -1, 0, 716.590011, 396.170009)"/>
  <g class="cls-50" transform="matrix(0, 1, -1, 0, 729.970032, 340.649933)">
    <g class="cls-5">
      <rect class="cls-3" x="207.6" y="542.16" width="16.02" height="13.92"/>
    </g>
  </g>
  <polyline class="cls-15" points="172.81 563.25 188.89 563.25 180.85 549.33 172.81 563.25" transform="matrix(0, 1, -1, 0, 737.14004, 375.440016)"/>
  <text class="cls-47" style="white-space: pre; font-size: 9.8px;" x="175.81" y="560.13">L</text>
  <text class="cls-20" transform="matrix(1, 0, 0, 0.999999, 75.610016, 460.829956)" style="white-space: pre;" x="0" y="0"><tspan class="cls-21" style="font-size: 8px; word-spacing: 0px; letter-spacing: -0.16px;">1</tspan><tspan class="cls-23" x="3.48" y="0" style="font-size: 8px; word-spacing: 0px; letter-spacing: -0.08px;">1</tspan><tspan class="cls-21" x="7.03" y="0" style="font-size: 8px; word-spacing: 0px; letter-spacing: -0.16px;">0</tspan><tspan class="cls-44" x="10.51" y="0" style="font-size: 8px; word-spacing: 0px; letter-spacing: -0.08px;">0</tspan><tspan class="cls-45" x="14.05" y="0" style="font-size: 8px; word-spacing: 0px; letter-spacing: -0.08px;"> </tspan><tspan class="cls-44" x="15.79" y="0" style="font-size: 8px; word-spacing: 0px; letter-spacing: -0.08px;">H</tspan><tspan x="20.42" y="0" style="font-size: 8px; word-spacing: 0px;">T</tspan></text>
  <g class="cls-51" transform="matrix(0, 1, -1, 0, 729.970032, 340.649933)">
    <g class="cls-5">
      <rect class="cls-3" x="108.54" y="615.6" width="16.02" height="13.86"/>
    </g>
  </g>
  <polyline class="cls-15" points="99.4 464.16 115.48 464.16 107.44 450.3 99.4 464.16" transform="matrix(0, 1, -1, 0, 564.669987, 349.78998)"/>
  <text class="cls-47" transform="matrix(1, 0, 0, 1.000001, 102.370026, 461.129944)" style="white-space: pre; font-size: 9.8px;" x="0" y="0">L</text>
  <g class="cls-52" transform="matrix(0, 1, -1, 0, 729.970032, 340.649933)">
    <g class="cls-5">
      <rect class="cls-3" x="189.12" y="615.6" width="16.02" height="13.86"/>
    </g>
  </g>
  <polyline class="cls-15" points="99.4 544.74 115.48 544.74 107.44 530.88 99.4 544.74" transform="matrix(0, 1, -1, 0, 645.249995, 430.369988)"/>
  <text class="cls-47" style="white-space: pre; font-size: 9.8px;" x="53.37" y="541.65" transform="matrix(0.999999, 0, 0, 1, 49.000038, 0)">L</text>
  <g class="cls-53" transform="matrix(0, 1, -1, 0, 729.970032, 340.649933)">
    <g class="cls-5">
      <rect class="cls-3" x="219.36" y="585.96" width="16.02" height="13.92"/>
    </g>
  </g>
  <polyline class="cls-15" points="129.01 575.01 145.09 575.01 137.05 561.09 129.01 575.01" transform="matrix(0, 1, -1, 0, 705.100043, 431.000057)"/>
  <text class="cls-47" style="white-space: pre; font-size: 9.8px;" x="131.95" y="571.95">L</text>
  <text class="cls-20" transform="matrix(1, 0, 0, 0.999999, 75.501694, 541.24231)" style="white-space: pre;" x="0" y="0"><tspan class="cls-21" style="font-size: 8px; word-spacing: 0px; letter-spacing: -0.16px;">1</tspan><tspan class="cls-23" x="3.48" y="0" style="font-size: 8px; word-spacing: 0px; letter-spacing: -0.08px;">1</tspan><tspan class="cls-21" x="7.03" y="0" style="font-size: 8px; word-spacing: 0px; letter-spacing: -0.16px;">0</tspan><tspan class="cls-44" x="10.51" y="0" style="font-size: 8px; word-spacing: 0px; letter-spacing: -0.08px;">0</tspan><tspan class="cls-45" x="14.05" y="0" style="font-size: 8px; word-spacing: 0px; letter-spacing: -0.08px;"> </tspan><tspan class="cls-44" x="15.79" y="0" style="font-size: 8px; word-spacing: 0px; letter-spacing: -0.08px;">H</tspan><tspan x="20.42" y="0" style="font-size: 8px; word-spacing: 0px;">T</tspan></text>
  <text class="cls-20" transform="matrix(1, 0, 0, 0.999999, 147.042587, 559.238159)" style="white-space: pre;" x="0" y="0"><tspan class="cls-21" style="font-size: 8px; word-spacing: 0px; letter-spacing: -0.16px;">1</tspan><tspan class="cls-23" x="3.48" y="0" style="font-size: 8px; word-spacing: 0px; letter-spacing: -0.08px;">1</tspan><tspan class="cls-21" x="7.03" y="0" style="font-size: 8px; word-spacing: 0px; letter-spacing: -0.16px;">0</tspan><tspan class="cls-44" x="10.51" y="0" style="font-size: 8px; word-spacing: 0px; letter-spacing: -0.08px;">0</tspan><tspan class="cls-45" x="14.05" y="0" style="font-size: 8px; word-spacing: 0px; letter-spacing: -0.08px;"> </tspan><tspan class="cls-44" x="15.79" y="0" style="font-size: 8px; word-spacing: 0px; letter-spacing: -0.08px;">H</tspan><tspan x="20.42" y="0" style="font-size: 8px; word-spacing: 0px;">T</tspan></text>
  <text class="cls-20" transform="matrix(1, 0, 0, 0.999999, 123.178886, 583.703491)" style="white-space: pre;" x="0" y="0"><tspan class="cls-21" style="font-size: 8px; word-spacing: 0px; letter-spacing: -0.16px;">1</tspan><tspan class="cls-23" x="3.48" y="0" style="font-size: 8px; word-spacing: 0px; letter-spacing: -0.08px;">1</tspan><tspan class="cls-21" x="7.03" y="0" style="font-size: 8px; word-spacing: 0px; letter-spacing: -0.16px;">0</tspan><tspan class="cls-44" x="10.51" y="0" style="font-size: 8px; word-spacing: 0px; letter-spacing: -0.08px;">0</tspan><tspan class="cls-45" x="14.05" y="0" style="font-size: 8px; word-spacing: 0px; letter-spacing: -0.08px;"> </tspan><tspan class="cls-44" x="15.79" y="0" style="font-size: 8px; word-spacing: 0px; letter-spacing: -0.08px;">H</tspan><tspan x="20.42" y="0" style="font-size: 8px; word-spacing: 0px;">T</tspan></text>
  <text class="cls-20" transform="matrix(1, 0, 0, 0.999999, 146.158585, 453.574066)" style="white-space: pre;" x="0" y="0"><tspan class="cls-21" style="font-size: 8px; word-spacing: 0px; letter-spacing: -0.16px;">1</tspan><tspan class="cls-23" x="3.48" y="0" style="font-size: 8px; word-spacing: 0px; letter-spacing: -0.08px;">1</tspan><tspan class="cls-21" x="7.03" y="0" style="font-size: 8px; word-spacing: 0px; letter-spacing: -0.16px;">0</tspan><tspan class="cls-44" x="10.51" y="0" style="font-size: 8px; word-spacing: 0px; letter-spacing: -0.08px;">0</tspan><tspan class="cls-45" x="14.05" y="0" style="font-size: 8px; word-spacing: 0px; letter-spacing: -0.08px;"> </tspan><tspan class="cls-44" x="15.79" y="0" style="font-size: 8px; word-spacing: 0px; letter-spacing: -0.08px;">H</tspan><tspan x="20.42" y="0" style="font-size: 8px; word-spacing: 0px;">T</tspan></text>
  <text class="cls-20" transform="matrix(1, 0, 0, 0.999999, 238.415207, 463.351563)" style="white-space: pre;" x="0" y="0"><tspan class="cls-21" style="font-size: 8px; word-spacing: 0px; letter-spacing: -0.16px;">1</tspan><tspan class="cls-23" x="3.48" y="0" style="font-size: 8px; word-spacing: 0px; letter-spacing: -0.08px;">1</tspan><tspan class="cls-21" x="7.03" y="0" style="font-size: 8px; word-spacing: 0px; letter-spacing: -0.16px;">0</tspan><tspan class="cls-44" x="10.51" y="0" style="font-size: 8px; word-spacing: 0px; letter-spacing: -0.08px;">0</tspan><tspan class="cls-45" x="14.05" y="0" style="font-size: 8px; word-spacing: 0px; letter-spacing: -0.08px;"> </tspan><tspan class="cls-44" x="15.79" y="0" style="font-size: 8px; word-spacing: 0px; letter-spacing: -0.08px;">H</tspan><tspan x="20.42" y="0" style="font-size: 8px; word-spacing: 0px;">T</tspan></text>
  <text class="cls-20" transform="matrix(1, 0, 0, 0.999999, 234.70752, 586.113403)" style="white-space: pre;" x="0" y="0"><tspan class="cls-21" style="font-size: 8px; word-spacing: 0px; letter-spacing: -0.16px;">1</tspan><tspan class="cls-23" x="3.48" y="0" style="font-size: 8px; word-spacing: 0px; letter-spacing: -0.08px;">1</tspan><tspan class="cls-21" x="7.03" y="0" style="font-size: 8px; word-spacing: 0px; letter-spacing: -0.16px;">0</tspan><tspan class="cls-44" x="10.51" y="0" style="font-size: 8px; word-spacing: 0px; letter-spacing: -0.08px;">0</tspan><tspan class="cls-45" x="14.05" y="0" style="font-size: 8px; word-spacing: 0px; letter-spacing: -0.08px;"> </tspan><tspan class="cls-44" x="15.79" y="0" style="font-size: 8px; word-spacing: 0px; letter-spacing: -0.08px;">H</tspan><tspan x="20.42" y="0" style="font-size: 8px; word-spacing: 0px;">T</tspan></text>
  <rect x="74.348" y="452.132" width="26.435" height="11.226" style="paint-order: stroke; stroke: rgb(0, 0, 0); fill: none;"/>
  <rect x="74.08" y="440.027" width="26.435" height="9.286" style="paint-order: stroke; stroke: rgb(0, 0, 0); fill: none;" transform="matrix(1, 0, 0, 1.000003, 0, 93.892536)"/>
  <rect x="122.244" y="575.437" width="26.435" height="11.226" style="paint-order: stroke; stroke: rgb(0, 0, 0); fill: none;"/>
</svg>