<svg xmlns="http://www.w3.org/2000/svg" xmlns:xlink="http://www.w3.org/1999/xlink" viewBox="0 0 48.72 19.74"><defs><style>.cls-1,.cls-2,.cls-4,.cls-5,.cls-8{fill:none;}.cls-1{clip-rule:evenodd;}.cls-3{fill:#fff;}.cls-4{stroke:#0e0e0e;}.cls-4,.cls-5,.cls-8{stroke-linecap:round;stroke-linejoin:round;}.cls-4,.cls-8{stroke-width:0.24px;}.cls-5,.cls-8{stroke:#000;}.cls-5{stroke-width:0.48px;}.cls-6{clip-path:url(#clip-path);}.cls-7{clip-path:url(#clip-path-2);}.cls-9{font-size:9.77px;font-family:ArialMT, Arial;}</style><clipPath id="clip-path" transform="translate(-2914.92 -183.33)"><polyline class="cls-1" points="2939.22 183.81 2939.16 183.87 2930.04 192.99 2939.22 202.17 2939.34 202.23 2939.34 202.17 2948.52 192.99 2939.34 183.81"/></clipPath><clipPath id="clip-path-2" transform="translate(-2914.92 -183.33)"><rect class="cls-2" width="3370.02" height="2383.98"/></clipPath></defs><title>Tag_Wall_HighImpact</title><g id="Layer_2" data-name="Layer 2"><g id="Layer_1-2" data-name="Layer 1"><rect class="cls-3" x="0.24" y="0.24" width="48.24" height="19.26"/><line class="cls-4" x1="0.24" y1="2.16" x2="2.22" y2="0.24"/><line class="cls-4" x1="0.24" y1="14.22" x2="14.22" y2="0.24"/><line class="cls-4" x1="6.96" y1="19.5" x2="26.28" y2="0.24"/><line class="cls-4" x1="19.02" y1="19.5" x2="38.28" y2="0.24"/><line class="cls-4" x1="31.02" y1="19.5" x2="48.48" y2="2.1"/><line class="cls-4" x1="43.08" y1="19.5" x2="48.48" y2="14.1"/><line class="cls-4" x1="12.3" y1="19.5" x2="0.24" y2="7.5"/><line class="cls-4" x1="24.3" y1="19.5" x2="5.04" y2="0.24"/><line class="cls-4" x1="36.3" y1="19.5" x2="17.04" y2="0.24"/><line class="cls-4" x1="48.36" y1="19.5" x2="29.1" y2="0.24"/><line class="cls-4" x1="48.48" y1="7.62" x2="41.1" y2="0.24"/><polyline class="cls-5" points="0.24 0.24 0.24 19.5 48.48 19.5 48.48 0.24 0.24 0.24"/><g class="cls-6"><g class="cls-7"><rect class="cls-3" x="15.12" y="0.48" width="18.48" height="18.42"/></g></g><polyline class="cls-8" points="15.12 9.72 24.36 18.96 33.6 9.72 24.36 0.48 15.12 9.72"/><text class="cls-9" transform="translate(20.76 13.62)">H</text></g></g></svg>