<svg xmlns="http://www.w3.org/2000/svg" xmlns:xlink="http://www.w3.org/1999/xlink" viewBox="0 0 310.56 934.44"><defs><style>.cls-1,.cls-14,.cls-15,.cls-16,.cls-17,.cls-18,.cls-19,.cls-2{fill:none;}.cls-1{clip-rule:evenodd;}.cls-3{fill:#fff;}.cls-4{clip-path:url(#clip-path);}.cls-5{clip-path:url(#clip-path-2);}.cls-6{clip-path:url(#clip-path-3);}.cls-7{clip-path:url(#clip-path-5);}.cls-8{clip-path:url(#clip-path-7);}.cls-9{clip-path:url(#clip-path-9);}.cls-10{clip-path:url(#clip-path-11);}.cls-11{clip-path:url(#clip-path-13);}.cls-12{clip-path:url(#clip-path-15);}.cls-13{clip-path:url(#clip-path-17);}.cls-14{stroke:#464646;}.cls-14,.cls-15,.cls-16,.cls-17,.cls-18,.cls-19{stroke-linecap:round;stroke-linejoin:round;}.cls-14,.cls-15,.cls-19{stroke-width:0.24px;}.cls-15,.cls-16,.cls-17{stroke:#000;}.cls-16{stroke-width:1.38px;}.cls-17{stroke-width:0.96px;}.cls-18{stroke:#00007e;stroke-width:0.48px;}.cls-19{stroke:#656565;}.cls-20{font-size:7.95px;}.cls-20,.cls-25,.cls-27,.cls-35,.cls-40,.cls-43{font-family:ArialNarrow, Arial;}.cls-21{letter-spacing:-0.02em;}.cls-22{letter-spacing:0em;}.cls-23{letter-spacing:-0.01em;}.cls-24{letter-spacing:-0.01em;}.cls-25,.cls-27,.cls-40{font-size:9.91px;}.cls-26{letter-spacing:-0.01em;}.cls-27{letter-spacing:-0.01em;}.cls-28{letter-spacing:-0.02em;}.cls-29{letter-spacing:0em;}.cls-30{letter-spacing:-0.02em;}.cls-31{letter-spacing:0em;}.cls-32{letter-spacing:-0.02em;}.cls-33{letter-spacing:-0.01em;}.cls-34{letter-spacing:-0.01em;}.cls-35{font-size:19.87px;letter-spacing:-0.01em;}.cls-36{letter-spacing:-0.01em;}.cls-37{letter-spacing:-0.01em;}.cls-38{letter-spacing:0em;}.cls-39{letter-spacing:-0.01em;}.cls-40,.cls-56{letter-spacing:-0.01em;}.cls-41{letter-spacing:0em;}.cls-42{fill-rule:evenodd;}.cls-43{font-size:9.91px;}.cls-44{letter-spacing:-0.01em;}.cls-45{letter-spacing:-0.01em;}.cls-46{clip-path:url(#clip-path-19);}.cls-47{font-size:9.77px;font-family:ArialMT, Arial;}.cls-48{clip-path:url(#clip-path-21);}.cls-49{clip-path:url(#clip-path-23);}.cls-50{clip-path:url(#clip-path-25);}.cls-51{clip-path:url(#clip-path-27);}.cls-52{clip-path:url(#clip-path-29);}.cls-53{clip-path:url(#clip-path-31);}.cls-54{clip-path:url(#clip-path-33);}.cls-55{letter-spacing:-0.02em;}.cls-57{letter-spacing:2.46em;}.cls-58{letter-spacing:0em;}</style><clipPath id="clip-path" transform="translate(-1096.35 -1509.18)"><polyline class="cls-1" points="1340.49 2412.96 1342.17 2412.96 1342.17 2441.94 1345.71 2441.94 1345.71 2443.62 1346.01 2443.62 1346.01 2441.94 1347.15 2441.94 1347.15 2443.2 1347.57 2443.2 1347.57 2443.62 1402.11 2443.62 1402.11 2443.2 1402.53 2443.2 1402.53 2441.94 1403.67 2441.94 1403.67 2443.62 1403.97 2443.62 1403.97 2441.94 1406.79 2441.94 1406.79 1525.74 1406.85 1525.44 1406.79 1525.44 1406.79 1511.22 1403.97 1511.22 1403.97 1509.18 1403.67 1509.18 1403.67 1511.22 1402.53 1511.22 1402.53 1510.02 1402.11 1510.02 1402.11 1509.18 1347.57 1509.18 1347.57 1510.02 1347.15 1510.02 1347.15 1511.22 1346.01 1511.22 1346.01 1509.18 1345.71 1509.18 1345.71 1511.22 1342.17 1511.22 1342.17 1536.54 1340.49 1536.54 1340.49 1536.78 1342.17 1536.78 1342.17 1537.92 1341.51 1537.92 1341.51 1538.34 1340.49 1538.34 1340.49 1565.88 1341.51 1565.88 1341.51 1566.3 1342.17 1566.3 1342.17 1567.44 1340.49 1567.44 1340.49 1567.68 1342.17 1567.68 1342.17 1576.74 1340.49 1576.74 1340.49 1577.04 1342.17 1577.04 1342.17 1578.18 1341.51 1578.18 1341.51 1578.6 1340.49 1578.6 1340.49 1620.96 1341.51 1620.96 1341.51 1621.38 1342.17 1621.38 1342.17 1622.52 1340.49 1622.52 1340.49 1622.82 1342.17 1622.82 1342.17 1873.62 1340.49 1873.62 1340.49 1873.92 1342.17 1873.92 1342.17 1875.06 1341.51 1875.06 1341.51 1875.48 1340.49 1875.48 1340.49 1902.96 1341.51 1902.96 1341.51 1903.38 1342.17 1903.38 1342.17 1904.52 1340.49 1904.52 1340.49 1904.82 1342.17 1904.82 1342.17 2321.58 1340.49 2321.58 1340.49 2321.82 1342.17 2321.82 1342.17 2322.96 1341.45 2322.96 1341.45 2323.38 1340.49 2323.38 1340.49 2350.92 1341.45 2350.92 1341.45 2351.34 1342.17 2351.34 1342.17 2352.48 1340.49 2352.48 1340.49 2352.72 1342.17 2352.72 1342.17 2381.82 1340.49 2381.82 1340.49 2382.06 1342.17 2382.06 1342.17 2383.2 1341.45 2383.2 1341.45 2383.62 1340.49 2383.62 1340.49 2411.16 1341.45 2411.16 1341.45 2411.58 1342.17 2411.58 1342.17 2412.72 1340.49 2412.72"/></clipPath><clipPath id="clip-path-2" transform="translate(-1096.35 -1509.18)"><rect class="cls-2" width="2383.98" height="3370.02"/></clipPath><clipPath id="clip-path-3" transform="translate(-1096.35 -1509.18)"><path class="cls-1" d="M1338.81,1931.88h.36v-.36h-.36Zm-97.8,0h41.1v-.36H1241Zm-57.18,0h.48v-.36h-.48Z"/></clipPath><clipPath id="clip-path-5" transform="translate(-1096.35 -1509.18)"><path class="cls-1" d="M1338.81,1934.88h3.36v-.42h-3.36Zm-97.8,0h41.1v-.42H1241Zm-60.12,0h3.42v-.42h-3.42Z"/></clipPath><clipPath id="clip-path-7" transform="translate(-1096.35 -1509.18)"><path class="cls-1" d="M1338.81,1934.46h3v-2.58h-3Zm-97.8,0h41.1v-2.58H1241Zm-59.76,0h3.06v-2.58h-3.06Z"/></clipPath><clipPath id="clip-path-9" transform="translate(-1096.35 -1509.18)"><path class="cls-1" d="M1341.81,1873.62h.36v-6.18h-.36Zm0,32.4h.36v-1.2h-.36Zm0,28.44h.36v-2.94h-.36Z"/></clipPath><clipPath id="clip-path-11" transform="translate(-1096.35 -1509.18)"><path class="cls-1" d="M1339.17,1873.62h2.64v-5.82h-2.64Zm0,32.4h2.64v-1.2h-2.64Zm0,25.86h2.64v-.36h-2.64Z"/></clipPath><clipPath id="clip-path-13" transform="translate(-1096.35 -1509.18)"><path class="cls-1" d="M1180.89,1873.68h.36v-6.18h-.36Zm0,32.34h.36v-1.14h-.36Zm0,28.44h.36v-2.94h-.36Z"/></clipPath><clipPath id="clip-path-15" transform="translate(-1096.35 -1509.18)"><path class="cls-1" d="M1181.25,1873.68h2.58v-5.82h-2.58Zm0,32.34h2.58v-1.14h-2.58Zm0,25.86h2.58v-.36h-2.58Z"/></clipPath><clipPath id="clip-path-17" transform="translate(-1096.35 -1509.18)"><polyline class="cls-1" points="1116.51 2410.8 1119.81 2410.8 1119.81 2412.42 1120.05 2412.42 1120.05 2410.8 1121.19 2410.8 1121.19 2411.46 1121.61 2411.46 1121.61 2412.42 1176.21 2412.42 1176.21 2411.46 1176.63 2411.46 1176.63 2410.8 1177.77 2410.8 1177.77 2412.42 1178.07 2412.42 1178.07 2410.8 1180.89 2410.8 1180.89 2393.28 1182.57 2393.28 1182.57 2392.98 1180.89 2392.98 1180.89 2391.84 1181.55 2391.84 1181.55 2391.42 1182.57 2391.42 1182.57 2363.94 1181.55 2363.94 1181.55 2363.52 1180.89 2363.52 1180.89 2362.38 1182.57 2362.38 1182.57 2362.08 1180.89 2362.08 1180.89 2352.72 1182.57 2352.72 1182.57 2352.48 1180.89 2352.48 1180.89 2351.34 1181.55 2351.34 1181.55 2350.92 1182.57 2350.92 1182.57 2323.38 1181.55 2323.38 1181.55 2322.96 1180.89 2322.96 1180.89 2321.82 1182.57 2321.82 1182.57 2321.58 1180.89 2321.58 1180.89 1814.04 1116.51 1814.04"/></clipPath><clipPath id="clip-path-19" transform="translate(-1096.35 -1509.18)"><path class="cls-1" d="M1191,1991.64h16l-.18-.36-.06-.06c-1.21-2.17-2.5-4.31-3.72-6.48l-.06-.06-.18-.36-.06-.06-.18-.36c-.22-.21-.26-.57-.48-.78l-.18-.36-.06-.06c-.18-.37-.41-.71-.6-1.08l-.06-.06-.18-.36-.06-.06c-.56-1-1.19-2-1.74-3.06l-.06-.06-.12-.24-.06-.06-.06.06-.12.24-.06.06-.18.36c-.22.21-.26.57-.48.78l-.18.36-.06.06c-.18.37-.41.71-.6,1.08l-.06.06-.18.36-.06.06c-.56,1-1.19,2-1.74,3.06l-.06.06-.18.36-.06.06c-1.22,2.17-2.51,4.31-3.72,6.48l-.06.06-.12.24"/></clipPath><clipPath id="clip-path-21" transform="translate(-1096.35 -1509.18)"><path class="cls-1" d="M1313.55,1995.42h16l-.18-.36-.06-.06c-1.21-2.17-2.5-4.31-3.72-6.48l-.06-.06-.18-.36-.06-.06-.18-.36c-.22-.21-.26-.57-.48-.78l-.18-.36-.06-.06c-.18-.37-.41-.71-.6-1.08l-.06-.06-.18-.36-.06-.06c-.56-1-1.19-2-1.74-3.06l-.06-.06-.12-.24-.06-.06-.06.06-.12.24-.06.06-.18.36c-.22.21-.26.57-.48.78l-.18.36-.06.06c-.18.37-.41.71-.6,1.08l-.06.06-.18.36-.06.06c-.56,1-1.19,2-1.74,3.06l-.06.06-.18.36-.06.06c-1.22,2.17-2.51,4.31-3.72,6.48l-.06.06-.12.24"/></clipPath><clipPath id="clip-path-23" transform="translate(-1096.35 -1509.18)"><path class="cls-1" d="M1198.47,2065.26h16l-.18-.36-.06-.06c-1.22-2.17-2.5-4.31-3.72-6.48l-.06-.06-.18-.36-.06-.06-.18-.36c-.22-.21-.26-.57-.48-.78l-.18-.36-.06-.06c-.18-.37-.41-.71-.6-1.08l-.06-.06-.18-.36-.06-.06c-.56-1-1.19-2-1.74-3.06l-.06-.06-.12-.24-.06-.06-.06.06-.12.24-.06.06-.18.36c-.22.21-.26.57-.48.78l-.18.36-.06.06c-.18.37-.41.71-.6,1.08l-.06.06-.18.36-.06.06c-.56,1-1.19,2-1.74,3.06l-.06.06-.18.36-.06.06c-1.22,2.17-2.51,4.31-3.72,6.48l-.06.06-.12.24"/></clipPath><clipPath id="clip-path-25" transform="translate(-1096.35 -1509.18)"><path class="cls-1" d="M1304,2065.26h16l-.18-.36-.06-.06c-1.21-2.17-2.5-4.31-3.72-6.48l-.06-.06-.18-.36-.06-.06-.18-.36c-.22-.21-.26-.57-.48-.78l-.18-.36-.06-.06c-.18-.37-.41-.71-.6-1.08l-.06-.06-.18-.36-.06-.06c-.56-1-1.19-2-1.74-3.06l-.06-.06-.12-.24-.06-.06-.06.06-.12.24-.06.06-.18.36c-.22.21-.26.57-.48.78l-.18.36-.06.06c-.18.37-.41.71-.6,1.08l-.06.06-.18.36-.06.06c-.56,1-1.19,2-1.74,3.06l-.06.06-.18.36-.06.06c-1.22,2.17-2.51,4.31-3.72,6.48l-.06.06-.12.24"/></clipPath><clipPath id="clip-path-27" transform="translate(-1096.35 -1509.18)"><path class="cls-1" d="M1204.89,2138.64h16l-.18-.36-.06-.06-.18-.36-.06-.06c-.19-.37-.42-.71-.6-1.08l-.06-.06-.12-.24-.06-.06-.18-.36-.06-.06-.12-.24-.06-.06-.18-.36-.06-.06-.18-.36-.06-.06c-.54-1-1.15-1.95-1.68-2.94l-.06-.06-.12-.24-.06-.06-.18-.36-.06-.06c-.15-.36-.45-.72-.6-1.08l-.06-.06-.12-.24-.06-.06-.18-.36-.06-.06-.18-.36-.06-.06-.12-.24-.06-.06-.18-.36-.06-.06c-.53-1-1.15-2-1.68-2.94l-.06-.06-.12-.24-.06-.06-.06.06-.12.24-.06.06c-.53,1-1.15,2-1.68,2.94l-.06.06-.18.36-.06.06c-.19.37-.42.71-.6,1.08l-.06.06-.12.24-.06.06-.18.36-.06.06-.12.24-.06.06-.18.36-.06.06-.18.36-.06.06-.12.24-.06.06c-.53,1-1.14,1.95-1.68,2.94l-.06.06-.18.36-.06.06c-.15.36-.45.72-.6,1.08l-.06.06-.12.24-.06.06-.18.36-.06.06-.18.36-.06.06-.12.24-.06.06-.18.36-.06.06-.12.24"/></clipPath><clipPath id="clip-path-29" transform="translate(-1096.35 -1509.18)"><path class="cls-1" d="M1285.47,2138.64h16l-.18-.36-.06-.06-.18-.36-.06-.06c-.19-.37-.42-.71-.6-1.08l-.06-.06-.12-.24-.06-.06-.18-.36-.06-.06-.12-.24-.06-.06-.18-.36-.06-.06-.18-.36-.06-.06c-.54-1-1.15-1.95-1.68-2.94l-.06-.06-.12-.24-.06-.06-.18-.36-.06-.06c-.15-.36-.45-.72-.6-1.08l-.06-.06-.12-.24-.06-.06-.18-.36-.06-.06-.18-.36-.06-.06-.12-.24-.06-.06-.18-.36-.06-.06c-.54-1-1.15-2-1.68-2.94l-.06-.06-.12-.24-.06-.06-.06.06-.12.24-.06.06c-.53,1-1.15,2-1.68,2.94l-.06.06-.18.36-.06.06c-.19.37-.42.71-.6,1.08l-.06.06-.12.24-.06.06-.18.36-.06.06-.12.24-.06.06-.18.36-.06.06-.18.36-.06.06-.12.24-.06.06c-.53,1-1.14,1.95-1.68,2.94l-.06.06-.18.36-.06.06c-.15.36-.45.72-.6,1.08l-.06.06-.12.24-.06.06-.18.36-.06.06-.18.36-.06.06-.12.24-.06.06-.18.36-.06.06-.12.24"/></clipPath><clipPath id="clip-path-31" transform="translate(-1096.35 -1509.18)"><path class="cls-1" d="M1315.71,2109.06h16l-.18-.36-.06-.06c-1.21-2.17-2.5-4.31-3.72-6.48l-.06-.06-.18-.36-.06-.06-.18-.36c-.22-.21-.26-.57-.48-.78l-.18-.36-.06-.06c-.18-.37-.41-.71-.6-1.08l-.06-.06-.18-.36-.06-.06c-.56-1-1.19-2-1.74-3.06l-.06-.06-.12-.24-.06-.06-.06.06-.12.24-.06.06-.18.36c-.22.21-.26.57-.48.78l-.18.36-.06.06c-.18.37-.41.71-.6,1.08l-.06.06-.18.36-.06.06c-.56,1-1.19,2-1.74,3.06l-.06.06-.18.36-.06.06c-1.22,2.17-2.51,4.31-3.72,6.48l-.06.06-.12.24"/></clipPath><clipPath id="clip-path-33" transform="translate(-1096.35 -1509.18)"><path class="cls-1" d="M1191.57,2156.46h16l-.18-.36-.06-.06c-1.21-2.17-2.5-4.31-3.72-6.48l-.06-.06-.18-.36-.06-.06-.18-.36c-.22-.21-.26-.57-.48-.78l-.18-.36-.06-.06c-.18-.37-.41-.71-.6-1.08l-.06-.06-.18-.36-.06-.06c-.56-1-1.19-2-1.74-3.06l-.06-.06-.12-.24-.06-.06-.06.06-.12.24-.06.06-.18.36c-.22.21-.26.57-.48.78l-.18.36-.06.06c-.18.37-.41.71-.6,1.08l-.06.06-.18.36-.06.06c-.56,1-1.19,2-1.74,3.06l-.06.06-.18.36-.06.06c-1.22,2.17-2.51,4.31-3.72,6.48l-.06.06-.12.24"/></clipPath></defs><title>Tag_LowHeight_Sample</title><g id="Layer_2" data-name="Layer 2"><g id="Layer_1-2" data-name="Layer 1"><rect class="cls-3" x="222.6" y="612" width="16.98" height="16.98"/><rect class="cls-3" x="1.44" y="612" width="17.04" height="16.98"/><rect class="cls-3" x="101.52" y="539.1" width="24.6" height="3.36"/><rect class="cls-3" x="204.18" y="539.1" width="24.66" height="3.36"/><rect class="cls-3" x="101.52" y="576.54" width="3.36" height="53.46"/><g class="cls-4"><g class="cls-5"><rect class="cls-3" x="244.14" width="66.36" height="934.44"/></g></g><rect class="cls-3" x="101.52" y="425.7" width="3.36" height="113.4"/><rect class="cls-3" x="225.48" y="425.7" width="3.36" height="113.4"/><rect class="cls-3" x="221.58" y="629.58" width="18" height="0.42"/><rect class="cls-3" x="221.94" y="628.98" width="17.64" height="0.6"/><rect class="cls-3" x="245.46" y="610.98" width="0.36" height="18.6"/><rect class="cls-3" x="242.82" y="611.34" width="2.64" height="15.66"/><rect class="cls-3" x="239.58" y="610.98" width="5.88" height="0.36"/><rect class="cls-3" x="239.58" y="611.34" width="3.24" height="2.64"/><rect class="cls-3" x="221.58" y="610.98" width="0.36" height="18.6"/><rect class="cls-3" x="221.94" y="611.34" width="0.66" height="17.64"/><rect class="cls-3" x="104.88" y="607.62" width="120.6" height="3.36"/><g class="cls-6"><g class="cls-5"><rect class="cls-3" x="87.48" y="422.34" width="155.34" height="0.36"/></g></g><g class="cls-7"><g class="cls-5"><rect class="cls-3" x="84.54" y="425.28" width="161.28" height="0.42"/></g></g><g class="cls-8"><g class="cls-5"><rect class="cls-3" x="84.9" y="422.7" width="160.56" height="2.58"/></g></g><g class="cls-9"><g class="cls-5"><rect class="cls-3" x="245.46" y="358.26" width="0.36" height="67.02"/></g></g><g class="cls-10"><g class="cls-5"><rect class="cls-3" x="242.82" y="358.62" width="2.64" height="64.08"/></g></g><g class="cls-11"><g class="cls-5"><rect class="cls-3" x="84.54" y="358.32" width="0.36" height="66.96"/></g></g><g class="cls-12"><g class="cls-5"><rect class="cls-3" x="84.9" y="358.68" width="2.58" height="64.02"/></g></g><rect class="cls-3" x="185.76" y="422.34" width="56.7" height="3.36"/><rect class="cls-3" x="84.54" y="396.84" width="3.36" height="25.5"/><rect class="cls-3" x="242.46" y="396.84" width="3.36" height="25.5"/><rect class="cls-3" x="1.44" y="628.98" width="18.36" height="0.6"/><rect class="cls-3" x="0.84" y="629.58" width="19.32" height="0.42"/><rect class="cls-3" x="19.2" y="611.34" width="0.6" height="17.64"/><rect class="cls-3" x="19.8" y="610.98" width="0.36" height="18.6"/><rect class="cls-3" x="0.84" y="611.34" width="18.36" height="0.66"/><rect class="cls-3" x="0.48" y="610.98" width="19.32" height="0.36"/><rect class="cls-3" x="221.94" y="610.98" width="17.64" height="0.36"/><rect class="cls-3" x="222.6" y="611.34" width="16.98" height="0.66"/><rect class="cls-3" x="239.58" y="629.58" width="6.24" height="0.42"/><rect class="cls-3" x="239.58" y="627" width="5.88" height="2.58"/><g class="cls-13"><g class="cls-5"><rect class="cls-3" x="20.16" y="304.86" width="66.06" height="598.38"/></g></g><rect class="cls-3" x="225.48" y="576.54" width="3.36" height="34.44"/><rect class="cls-3" x="87.96" y="422.34" width="56.7" height="3.36"/><line class="cls-14" x1="237.78" y1="617.52" x2="236.94" y2="616.86"/><line class="cls-14" x1="236.88" y1="627.84" x2="236.04" y2="627.18"/><line class="cls-14" x1="226.92" y1="619.56" x2="226.08" y2="618.84"/><line class="cls-14" x1="226.92" y1="619.56" x2="226.98" y2="618.66"/><line class="cls-14" x1="236.88" y1="627.84" x2="236.94" y2="627"/><polyline class="cls-14" points="237.78 617.52 237.84 616.68 236.94 616.86"/><line class="cls-14" x1="226.98" y1="618.66" x2="226.08" y2="618.84"/><line class="cls-14" x1="236.94" y1="627" x2="236.04" y2="627.18"/><line class="cls-14" x1="239.58" y1="621.6" x2="238.74" y2="620.82"/><line class="cls-14" x1="223.5" y1="623.82" x2="222.6" y2="622.92"/><line class="cls-14" x1="239.58" y1="620.7" x2="238.74" y2="620.82"/><line class="cls-14" x1="223.74" y1="622.56" x2="222.6" y2="622.68"/><line class="cls-14" x1="223.5" y1="623.82" x2="223.74" y2="622.56"/><line class="cls-14" x1="234.78" y1="625.8" x2="234.36" y2="624.78"/><line class="cls-14" x1="230.1" y1="613.74" x2="229.74" y2="612.72"/><line class="cls-14" x1="224.34" y1="622.32" x2="223.92" y2="621.3"/><line class="cls-14" x1="224.34" y1="622.32" x2="224.82" y2="621.6"/><line class="cls-14" x1="230.1" y1="613.74" x2="230.58" y2="613.02"/><line class="cls-14" x1="234.78" y1="625.8" x2="235.26" y2="625.08"/><line class="cls-14" x1="230.58" y1="613.02" x2="229.74" y2="612.72"/><line class="cls-14" x1="235.26" y1="625.08" x2="234.36" y2="624.78"/><line class="cls-14" x1="224.82" y1="621.6" x2="223.92" y2="621.3"/><line class="cls-14" x1="224.7" y1="628.74" x2="224.64" y2="628.68"/><line class="cls-14" x1="229.5" y1="628.92" x2="229.44" y2="628.86"/><line class="cls-14" x1="223.62" y1="621.3" x2="223.56" y2="621.24"/><line class="cls-14" x1="228.42" y1="621.48" x2="228.36" y2="621.36"/><line class="cls-14" x1="222.6" y1="613.92" x2="222.6" y2="613.86"/><line class="cls-14" x1="233.22" y1="621.66" x2="233.16" y2="621.54"/><line class="cls-14" x1="227.4" y1="614.04" x2="227.34" y2="613.98"/><line class="cls-14" x1="237.96" y1="621.84" x2="237.9" y2="621.72"/><line class="cls-14" x1="232.2" y1="614.22" x2="232.14" y2="614.16"/><line class="cls-14" x1="237" y1="614.4" x2="236.94" y2="614.34"/><line class="cls-14" x1="225" y1="620.4" x2="225" y2="620.28"/><line class="cls-14" x1="224.58" y1="616.8" x2="224.52" y2="616.68"/><line class="cls-14" x1="230.7" y1="624.18" x2="230.7" y2="624.06"/><line class="cls-14" x1="230.22" y1="620.58" x2="230.22" y2="620.46"/><line class="cls-14" x1="229.5" y1="615.12" x2="229.5" y2="615"/><line class="cls-14" x1="236.4" y1="627.96" x2="236.4" y2="627.9"/><line class="cls-14" x1="235.92" y1="624.36" x2="235.92" y2="624.24"/><line class="cls-14" x1="235.2" y1="618.9" x2="235.2" y2="618.84"/><line class="cls-14" x1="228.24" y1="615" x2="228.24" y2="614.88"/><line class="cls-14" x1="227.88" y1="622.68" x2="227.94" y2="622.56"/><line class="cls-14" x1="229.8" y1="619.62" x2="229.86" y2="619.56"/><line class="cls-14" x1="229.5" y1="627.3" x2="229.56" y2="627.24"/><line class="cls-14" x1="235.56" y1="617.82" x2="235.56" y2="617.76"/><line class="cls-14" x1="235.2" y1="625.5" x2="235.26" y2="625.44"/><line class="cls-14" x1="225.78" y1="612.18" x2="225.84" y2="612.12"/><line class="cls-14" x1="227.22" y1="620.58" x2="227.28" y2="620.52"/><line class="cls-14" x1="234.36" y1="612.78" x2="234.48" y2="612.72"/><line class="cls-14" x1="228.72" y1="628.98" x2="228.72" y2="628.92"/><line class="cls-14" x1="235.8" y1="621.18" x2="235.92" y2="621.12"/><line class="cls-14" x1="238.98" y1="617.76" x2="239.04" y2="617.7"/><line class="cls-14" x1="13.92" y1="618.18" x2="13.08" y2="617.46"/><polyline class="cls-14" points="13.92 618.18 13.98 617.34 13.08 617.46"/><line class="cls-14" x1="14.94" y1="617.94" x2="13.8" y2="616.8"/><line class="cls-14" x1="15.12" y1="616.62" x2="13.8" y2="616.8"/><line class="cls-14" x1="14.94" y1="617.94" x2="15.12" y2="616.62"/><line class="cls-14" x1="16.68" y1="626.4" x2="16.26" y2="625.44"/><line class="cls-14" x1="16.68" y1="626.4" x2="17.16" y2="625.68"/><line class="cls-14" x1="17.16" y1="625.68" x2="16.26" y2="625.44"/><line class="cls-14" x1="14.7" y1="628.32" x2="14.64" y2="628.26"/><line class="cls-14" x1="13.74" y1="621.06" x2="13.68" y2="621"/><line class="cls-14" x1="17.46" y1="613.74" x2="17.4" y2="613.68"/><line class="cls-14" x1="13.68" y1="628.44" x2="13.68" y2="628.38"/><line class="cls-14" x1="18.18" y1="623.16" x2="18.12" y2="623.1"/><line class="cls-14" x1="16.98" y1="614.1" x2="16.92" y2="613.98"/><line class="cls-14" x1="15.54" y1="612.3" x2="15.66" y2="612.24"/><line class="cls-14" x1="17.04" y1="620.7" x2="17.1" y2="620.64"/><line class="cls-15" x1="225.24" y1="629.7" x2="224.76" y2="630"/><line class="cls-15" x1="221.58" y1="611.88" x2="221.58" y2="611.88"/><line class="cls-15" x1="158.16" y1="422.34" x2="157.74" y2="422.58"/><line class="cls-15" x1="163.86" y1="425.28" x2="164.34" y2="425.58"/><line class="cls-15" x1="234.42" y1="611.1" x2="234" y2="611.34"/><line class="cls-15" x1="126.12" y1="542.46" x2="101.52" y2="542.46"/><polyline class="cls-15" points="104.88 539.1 126.12 539.1 126.12 542.46"/><line class="cls-15" x1="101.52" y1="539.1" x2="101.52" y2="542.46"/><line class="cls-15" x1="228.84" y1="542.46" x2="204.18" y2="542.46"/><line class="cls-15" x1="204.18" y1="539.1" x2="225.48" y2="539.1"/><line class="cls-15" x1="228.84" y1="542.46" x2="228.84" y2="539.1"/><line class="cls-15" x1="204.18" y1="539.1" x2="204.18" y2="542.46"/><line class="cls-15" x1="104.88" y1="576.54" x2="104.88" y2="630"/><polyline class="cls-15" points="101.52 630 101.52 576.54 104.88 576.54"/><line class="cls-15" x1="101.52" y1="630" x2="104.88" y2="630"/><polyline class="cls-16" points="222.6 628.98 239.58 628.98 239.58 612 222.6 612 222.6 628.98"/><polyline class="cls-16" points="18.48 612 1.44 612 1.44 628.98 18.48 628.98 18.48 612"/><line class="cls-15" x1="101.52" y1="539.1" x2="101.52" y2="425.7"/><line class="cls-15" x1="104.88" y1="425.7" x2="104.88" y2="539.1"/><line class="cls-15" x1="104.88" y1="425.7" x2="101.52" y2="425.7"/><line class="cls-15" x1="228.84" y1="425.7" x2="228.84" y2="539.1"/><line class="cls-15" x1="225.48" y1="539.1" x2="225.48" y2="425.7"/><line class="cls-15" x1="228.84" y1="425.7" x2="225.48" y2="425.7"/><line class="cls-17" x1="221.58" y1="630" x2="239.58" y2="630"/><line class="cls-17" x1="239.58" y1="628.98" x2="222.6" y2="628.98"/><polyline class="cls-17" points="221.58 628.98 221.58 629.58 221.58 630"/><line class="cls-15" x1="239.58" y1="629.58" x2="221.94" y2="629.58"/><polyline class="cls-17" points="245.82 627 245.82 610.98 245.46 610.98 242.82 610.98"/><line class="cls-17" x1="242.82" y1="613.98" x2="242.82" y2="627"/><polyline class="cls-15" points="245.46 611.34 245.46 627 245.46 629.58"/><line class="cls-17" x1="242.82" y1="610.98" x2="239.58" y2="610.98"/><polyline class="cls-17" points="239.58 612 239.58 613.98 242.82 613.98"/><polyline class="cls-15" points="239.58 611.34 242.82 611.34 245.46 611.34"/><line class="cls-17" x1="221.58" y1="610.98" x2="221.58" y2="628.98"/><line class="cls-17" x1="222.6" y1="628.98" x2="222.6" y2="612"/><polyline class="cls-17" points="222.6 610.98 221.94 610.98 221.58 610.98"/><polyline class="cls-15" points="221.94 629.58 221.94 628.98 221.94 611.34"/><line class="cls-15" x1="104.88" y1="607.62" x2="225.48" y2="607.62"/><line class="cls-15" x1="223.92" y1="610.98" x2="104.88" y2="610.98"/><line class="cls-15" x1="104.88" y1="607.62" x2="104.88" y2="610.98"/><line class="cls-15" x1="225.48" y1="610.98" x2="225.48" y2="607.62"/><line class="cls-17" x1="242.46" y1="422.34" x2="87.9" y2="422.34"/><polyline class="cls-17" points="84.54 422.34 84.54 425.28 84.54 425.7"/><line class="cls-17" x1="84.54" y1="425.7" x2="245.82" y2="425.7"/><polyline class="cls-17" points="245.82 425.7 245.82 425.28 245.82 422.34"/><line class="cls-15" x1="87.48" y1="422.7" x2="87.96" y2="422.7"/><line class="cls-15" x1="144.66" y1="422.7" x2="185.76" y2="422.7"/><line class="cls-15" x1="242.46" y1="422.7" x2="242.82" y2="422.7"/><line class="cls-15" x1="84.9" y1="425.28" x2="87.96" y2="425.28"/><line class="cls-15" x1="144.66" y1="425.28" x2="185.76" y2="425.28"/><line class="cls-15" x1="242.46" y1="425.28" x2="245.46" y2="425.28"/><polyline class="cls-17" points="245.82 422.34 245.82 395.64 242.46 395.64 242.46 399.66"/><polyline class="cls-15" points="245.46 422.34 245.46 422.7 245.46 425.28"/><line class="cls-15" x1="242.82" y1="422.34" x2="242.82" y2="422.7"/><polyline class="cls-17" points="87.9 422.34 87.9 395.7 84.54 395.7 84.54 422.34"/><polyline class="cls-15" points="84.9 425.28 84.9 422.7 84.9 422.34"/><line class="cls-15" x1="87.48" y1="422.7" x2="87.48" y2="422.34"/><line class="cls-17" x1="242.46" y1="425.7" x2="242.46" y2="422.34"/><line class="cls-17" x1="185.76" y1="425.7" x2="185.76" y2="422.34"/><line class="cls-18" x1="187.56" y1="424.5" x2="240.66" y2="424.5"/><line class="cls-17" x1="241.56" y1="423.9" x2="241.56" y2="422.34"/><line class="cls-17" x1="242.46" y1="422.34" x2="241.56" y2="422.34"/><line class="cls-17" x1="240.66" y1="423.9" x2="241.92" y2="423.9"/><line class="cls-17" x1="240.66" y1="425.16" x2="240.66" y2="423.9"/><line class="cls-17" x1="241.92" y1="425.16" x2="240.66" y2="425.16"/><line class="cls-17" x1="241.92" y1="425.7" x2="241.92" y2="423.9"/><line class="cls-17" x1="242.46" y1="425.7" x2="241.92" y2="425.7"/><line class="cls-17" x1="186.66" y1="423.9" x2="186.66" y2="422.34"/><line class="cls-17" x1="187.56" y1="425.16" x2="187.56" y2="423.9"/><polyline class="cls-17" points="186.3 425.7 186.3 423.9 187.56 423.9"/><line class="cls-17" x1="186.3" y1="425.16" x2="187.56" y2="425.16"/><line class="cls-17" x1="185.76" y1="422.34" x2="186.66" y2="422.34"/><line class="cls-17" x1="185.76" y1="425.7" x2="186.3" y2="425.7"/><line class="cls-15" x1="242.46" y1="425.7" x2="185.76" y2="425.7"/><line class="cls-15" x1="241.92" y1="425.7" x2="186.3" y2="425.7"/><line class="cls-15" x1="242.46" y1="423.9" x2="242.46" y2="425.7"/><line class="cls-15" x1="185.76" y1="423.9" x2="242.46" y2="423.9"/><line class="cls-15" x1="185.76" y1="425.7" x2="185.76" y2="423.9"/><line class="cls-15" x1="242.46" y1="423.9" x2="185.76" y2="423.9"/><line class="cls-15" x1="242.46" y1="422.34" x2="242.46" y2="423.9"/><line class="cls-15" x1="241.56" y1="422.34" x2="186.66" y2="422.34"/><line class="cls-15" x1="185.76" y1="422.34" x2="242.46" y2="422.34"/><line class="cls-15" x1="185.76" y1="423.9" x2="185.76" y2="422.34"/><line class="cls-17" x1="84.54" y1="422.34" x2="87.9" y2="422.34"/><line class="cls-18" x1="85.68" y1="398.58" x2="85.68" y2="420.54"/><line class="cls-17" x1="86.34" y1="421.44" x2="87.9" y2="421.44"/><line class="cls-17" x1="87.9" y1="422.34" x2="87.9" y2="421.44"/><line class="cls-17" x1="86.34" y1="420.54" x2="86.34" y2="421.8"/><line class="cls-17" x1="85.08" y1="420.54" x2="86.34" y2="420.54"/><line class="cls-17" x1="85.08" y1="421.8" x2="85.08" y2="420.54"/><line class="cls-17" x1="84.54" y1="421.8" x2="86.34" y2="421.8"/><line class="cls-17" x1="84.54" y1="422.34" x2="84.54" y2="421.8"/><line class="cls-15" x1="84.54" y1="422.34" x2="84.54" y2="396.84"/><line class="cls-15" x1="84.54" y1="421.8" x2="84.54" y2="397.38"/><line class="cls-15" x1="86.34" y1="422.34" x2="84.54" y2="422.34"/><line class="cls-15" x1="86.34" y1="396.84" x2="86.34" y2="422.34"/><line class="cls-15" x1="86.34" y1="422.34" x2="86.34" y2="396.84"/><line class="cls-15" x1="87.9" y1="422.34" x2="86.34" y2="422.34"/><line class="cls-15" x1="87.9" y1="421.44" x2="87.9" y2="397.74"/><line class="cls-15" x1="87.9" y1="396.84" x2="87.9" y2="422.34"/><line class="cls-17" x1="245.82" y1="422.34" x2="242.46" y2="422.34"/><line class="cls-18" x1="244.68" y1="420.54" x2="244.68" y2="398.58"/><line class="cls-17" x1="244.02" y1="421.44" x2="242.46" y2="421.44"/><line class="cls-17" x1="245.28" y1="420.54" x2="244.02" y2="420.54"/><polyline class="cls-17" points="245.82 421.8 244.02 421.8 244.02 420.54"/><line class="cls-17" x1="245.28" y1="421.8" x2="245.28" y2="420.54"/><line class="cls-17" x1="242.46" y1="422.34" x2="242.46" y2="421.44"/><line class="cls-17" x1="245.82" y1="422.34" x2="245.82" y2="421.8"/><line class="cls-15" x1="245.82" y1="396.84" x2="245.82" y2="422.34"/><line class="cls-15" x1="245.82" y1="397.38" x2="245.82" y2="421.8"/><line class="cls-15" x1="244.02" y1="422.34" x2="244.02" y2="396.84"/><line class="cls-15" x1="245.82" y1="422.34" x2="244.02" y2="422.34"/><line class="cls-15" x1="244.02" y1="396.84" x2="244.02" y2="422.34"/><line class="cls-15" x1="242.46" y1="397.74" x2="242.46" y2="421.44"/><line class="cls-15" x1="242.46" y1="422.34" x2="242.46" y2="396.84"/><line class="cls-15" x1="244.02" y1="422.34" x2="242.46" y2="422.34"/><line class="cls-17" x1="19.2" y1="628.98" x2="1.44" y2="628.98"/><polyline class="cls-17" points="1.44 630 20.16 630 20.16 629.58 20.16 628.98"/><line class="cls-15" x1="1.44" y1="629.58" x2="19.8" y2="629.58"/><line class="cls-17" x1="19.2" y1="612" x2="19.2" y2="628.98"/><polyline class="cls-17" points="20.16 628.98 20.16 610.98 19.8 610.98 19.2 610.98"/><line class="cls-15" x1="19.8" y1="628.98" x2="19.8" y2="611.34"/><line class="cls-15" x1="19.8" y1="628.98" x2="19.8" y2="629.58"/><line class="cls-17" x1="1.44" y1="612" x2="19.2" y2="612"/><polyline class="cls-17" points="19.2 610.98 0.48 610.98 0.48 611.34 0.48 612"/><line class="cls-15" x1="19.2" y1="611.34" x2="0.84" y2="611.34"/><line class="cls-15" x1="19.2" y1="611.34" x2="19.8" y2="611.34"/><line class="cls-17" x1="239.58" y1="610.98" x2="222.6" y2="610.98"/><line class="cls-17" x1="222.6" y1="612" x2="239.58" y2="612"/><polyline class="cls-15" points="221.94 611.34 222.6 611.34 239.58 611.34"/><polyline class="cls-17" points="239.58 630 245.82 630 245.82 629.58 245.82 627"/><polyline class="cls-17" points="242.82 627 239.58 627 239.58 628.98"/><line class="cls-15" x1="245.46" y1="629.58" x2="239.58" y2="629.58"/><line class="cls-15" x1="228.84" y1="576.54" x2="228.84" y2="610.98"/><polyline class="cls-15" points="225.48 610.98 225.48 576.54 228.84 576.54"/><line class="cls-15" x1="225.48" y1="610.98" x2="228.84" y2="610.98"/><line class="cls-15" x1="102.06" y1="628.98" x2="102.06" y2="626.7"/><line class="cls-15" x1="104.34" y1="628.98" x2="102.06" y2="628.98"/><line class="cls-15" x1="104.34" y1="626.7" x2="104.34" y2="628.98"/><line class="cls-15" x1="102.06" y1="626.7" x2="104.34" y2="626.7"/><polyline class="cls-15" points="101.94 626.58 104.46 626.58 104.46 629.1 101.94 629.1 101.94 626.58"/><line class="cls-15" x1="102.06" y1="579.54" x2="102.06" y2="577.2"/><line class="cls-15" x1="104.34" y1="579.54" x2="102.06" y2="579.54"/><line class="cls-15" x1="104.34" y1="577.2" x2="104.34" y2="579.54"/><line class="cls-15" x1="102.06" y1="577.2" x2="104.34" y2="577.2"/><polyline class="cls-15" points="101.94 577.08 104.46 577.08 104.46 579.6 101.94 579.6 101.94 577.08"/><line class="cls-15" x1="129.06" y1="610.44" x2="129.06" y2="608.16"/><line class="cls-15" x1="131.4" y1="610.44" x2="129.06" y2="610.44"/><line class="cls-15" x1="131.4" y1="608.16" x2="131.4" y2="610.44"/><line class="cls-15" x1="129.06" y1="608.16" x2="131.4" y2="608.16"/><polyline class="cls-15" points="128.94 608.04 131.46 608.04 131.46 610.56 128.94 610.56 128.94 608.04"/><line class="cls-15" x1="173.88" y1="610.44" x2="173.88" y2="608.16"/><line class="cls-15" x1="176.16" y1="610.44" x2="173.88" y2="610.44"/><line class="cls-15" x1="176.16" y1="608.16" x2="176.16" y2="610.44"/><line class="cls-15" x1="173.88" y1="608.16" x2="176.16" y2="608.16"/><polyline class="cls-15" points="173.76 608.04 176.28 608.04 176.28 610.56 173.76 610.56 173.76 608.04"/><line class="cls-15" x1="226.02" y1="579.54" x2="226.02" y2="577.2"/><line class="cls-15" x1="228.3" y1="579.54" x2="226.02" y2="579.54"/><line class="cls-15" x1="228.3" y1="577.2" x2="228.3" y2="579.54"/><line class="cls-15" x1="226.02" y1="577.2" x2="228.3" y2="577.2"/><polyline class="cls-15" points="225.9 577.08 228.42 577.08 228.42 579.6 225.9 579.6 225.9 577.08"/><line class="cls-15" x1="204.72" y1="541.92" x2="204.72" y2="539.64"/><line class="cls-15" x1="207" y1="541.92" x2="204.72" y2="541.92"/><line class="cls-15" x1="207" y1="539.64" x2="207" y2="541.92"/><line class="cls-15" x1="204.72" y1="539.64" x2="207" y2="539.64"/><polyline class="cls-15" points="204.6 539.52 207.12 539.52 207.12 542.04 204.6 542.04 204.6 539.52"/><line class="cls-15" x1="123.18" y1="541.92" x2="123.18" y2="539.64"/><line class="cls-15" x1="125.46" y1="541.92" x2="123.18" y2="541.92"/><line class="cls-15" x1="125.46" y1="539.64" x2="125.46" y2="541.92"/><line class="cls-15" x1="123.18" y1="539.64" x2="125.46" y2="539.64"/><polyline class="cls-15" points="123.06 539.52 125.58 539.52 125.58 542.04 123.06 542.04 123.06 539.52"/><line class="cls-15" x1="226.02" y1="508.02" x2="226.02" y2="505.74"/><line class="cls-15" x1="228.3" y1="508.02" x2="226.02" y2="508.02"/><line class="cls-15" x1="228.3" y1="505.74" x2="228.3" y2="508.02"/><line class="cls-15" x1="226.02" y1="505.74" x2="228.3" y2="505.74"/><polyline class="cls-15" points="225.9 505.62 228.42 505.62 228.42 508.14 225.9 508.14 225.9 505.62"/><line class="cls-15" x1="226.02" y1="465.54" x2="226.02" y2="463.2"/><line class="cls-15" x1="228.3" y1="465.54" x2="226.02" y2="465.54"/><line class="cls-15" x1="228.3" y1="463.2" x2="228.3" y2="465.54"/><line class="cls-15" x1="226.02" y1="463.2" x2="228.3" y2="463.2"/><polyline class="cls-15" points="225.9 463.08 228.42 463.08 228.42 465.66 225.9 465.66 225.9 463.08"/><line class="cls-15" x1="102.06" y1="508.02" x2="102.06" y2="505.74"/><line class="cls-15" x1="104.34" y1="508.02" x2="102.06" y2="508.02"/><line class="cls-15" x1="104.34" y1="505.74" x2="104.34" y2="508.02"/><line class="cls-15" x1="102.06" y1="505.74" x2="104.34" y2="505.74"/><polyline class="cls-15" points="101.94 505.62 104.46 505.62 104.46 508.14 101.94 508.14 101.94 505.62"/><line class="cls-15" x1="102.06" y1="465.54" x2="102.06" y2="463.2"/><line class="cls-15" x1="104.34" y1="465.54" x2="102.06" y2="465.54"/><line class="cls-15" x1="104.34" y1="463.2" x2="104.34" y2="465.54"/><line class="cls-15" x1="102.06" y1="463.2" x2="104.34" y2="463.2"/><polyline class="cls-15" points="101.94 463.08 104.46 463.08 104.46 465.66 101.94 465.66 101.94 463.08"/><line class="cls-17" x1="144.66" y1="425.7" x2="144.66" y2="422.34"/><line class="cls-17" x1="87.96" y1="425.7" x2="87.96" y2="422.34"/><line class="cls-18" x1="89.76" y1="424.5" x2="142.92" y2="424.5"/><line class="cls-17" x1="143.76" y1="423.9" x2="143.76" y2="422.34"/><line class="cls-17" x1="144.66" y1="422.34" x2="143.76" y2="422.34"/><line class="cls-17" x1="142.92" y1="423.9" x2="144.12" y2="423.9"/><line class="cls-17" x1="142.92" y1="425.16" x2="142.92" y2="423.9"/><line class="cls-17" x1="144.12" y1="425.16" x2="142.92" y2="425.16"/><line class="cls-17" x1="144.12" y1="425.7" x2="144.12" y2="423.9"/><line class="cls-17" x1="144.66" y1="425.7" x2="144.12" y2="425.7"/><line class="cls-17" x1="88.92" y1="423.9" x2="88.92" y2="422.34"/><line class="cls-17" x1="89.76" y1="425.16" x2="89.76" y2="423.9"/><polyline class="cls-17" points="88.5 425.7 88.5 423.9 89.76 423.9"/><line class="cls-17" x1="88.5" y1="425.16" x2="89.76" y2="425.16"/><line class="cls-17" x1="87.96" y1="422.34" x2="88.92" y2="422.34"/><line class="cls-17" x1="87.96" y1="425.7" x2="88.5" y2="425.7"/><line class="cls-15" x1="144.66" y1="425.7" x2="87.96" y2="425.7"/><line class="cls-15" x1="144.12" y1="425.7" x2="88.5" y2="425.7"/><line class="cls-15" x1="144.66" y1="423.9" x2="144.66" y2="425.7"/><line class="cls-15" x1="87.96" y1="423.9" x2="144.66" y2="423.9"/><line class="cls-15" x1="87.96" y1="425.7" x2="87.96" y2="423.9"/><line class="cls-15" x1="144.66" y1="423.9" x2="87.96" y2="423.9"/><line class="cls-15" x1="144.66" y1="422.34" x2="144.66" y2="423.9"/><line class="cls-15" x1="143.76" y1="422.34" x2="88.92" y2="422.34"/><line class="cls-15" x1="87.96" y1="422.34" x2="144.66" y2="422.34"/><line class="cls-15" x1="87.96" y1="423.9" x2="87.96" y2="422.34"/><line class="cls-19" x1="310.44" y1="720.66" x2="245.82" y2="656.04"/><line class="cls-19" x1="310.44" y1="708.6" x2="245.82" y2="643.98"/><line class="cls-19" x1="310.44" y1="696.6" x2="245.82" y2="631.98"/><line class="cls-19" x1="310.44" y1="684.6" x2="245.82" y2="619.92"/><line class="cls-19" x1="310.44" y1="672.54" x2="245.82" y2="607.92"/><line class="cls-19" x1="310.44" y1="660.54" x2="245.82" y2="595.86"/><line class="cls-19" x1="310.44" y1="648.48" x2="245.82" y2="583.86"/><line class="cls-19" x1="310.44" y1="636.48" x2="245.82" y2="571.86"/><line class="cls-19" x1="310.44" y1="624.42" x2="245.82" y2="559.8"/><line class="cls-19" x1="310.44" y1="612.42" x2="245.82" y2="547.8"/><line class="cls-19" x1="310.44" y1="600.36" x2="245.82" y2="535.74"/><line class="cls-19" x1="310.44" y1="588.36" x2="245.82" y2="523.74"/><line class="cls-19" x1="310.44" y1="576.36" x2="245.82" y2="511.68"/><line class="cls-19" x1="310.44" y1="564.3" x2="245.82" y2="499.68"/><line class="cls-19" x1="310.44" y1="552.3" x2="245.82" y2="487.68"/><line class="cls-19" x1="310.44" y1="540.24" x2="245.82" y2="475.62"/><line class="cls-19" x1="310.44" y1="528.24" x2="245.82" y2="463.62"/><line class="cls-19" x1="310.44" y1="516.18" x2="245.82" y2="451.56"/><line class="cls-19" x1="310.44" y1="504.18" x2="245.82" y2="439.56"/><line class="cls-19" x1="310.44" y1="492.12" x2="245.82" y2="427.5"/><line class="cls-19" x1="310.44" y1="480.12" x2="245.82" y2="415.5"/><line class="cls-19" x1="310.44" y1="468.12" x2="245.82" y2="403.44"/><line class="cls-19" x1="310.44" y1="456.06" x2="244.14" y2="389.76"/><line class="cls-19" x1="310.44" y1="621.12" x2="245.82" y2="685.74"/><line class="cls-19" x1="310.44" y1="609.06" x2="245.82" y2="673.68"/><line class="cls-19" x1="310.44" y1="597.06" x2="245.82" y2="661.68"/><line class="cls-19" x1="310.44" y1="585" x2="245.82" y2="649.68"/><line class="cls-19" x1="310.44" y1="573" x2="245.82" y2="637.62"/><line class="cls-19" x1="310.44" y1="561" x2="245.82" y2="625.62"/><line class="cls-19" x1="310.44" y1="548.94" x2="245.82" y2="613.56"/><line class="cls-19" x1="310.44" y1="536.94" x2="245.82" y2="601.56"/><line class="cls-19" x1="310.44" y1="524.88" x2="245.82" y2="589.5"/><line class="cls-19" x1="310.44" y1="512.88" x2="245.82" y2="577.5"/><line class="cls-19" x1="310.44" y1="500.82" x2="245.82" y2="565.44"/><line class="cls-19" x1="310.44" y1="488.82" x2="245.82" y2="553.44"/><line class="cls-19" x1="310.44" y1="476.76" x2="245.82" y2="541.44"/><line class="cls-19" x1="310.44" y1="464.76" x2="245.82" y2="529.38"/><line class="cls-19" x1="310.44" y1="452.76" x2="245.82" y2="517.38"/><line class="cls-19" x1="310.44" y1="440.7" x2="245.82" y2="505.32"/><line class="cls-19" x1="310.44" y1="428.7" x2="245.82" y2="493.32"/><line class="cls-19" x1="310.44" y1="416.64" x2="245.82" y2="481.26"/><line class="cls-19" x1="310.44" y1="404.64" x2="245.82" y2="469.26"/><line class="cls-19" x1="310.44" y1="392.58" x2="245.82" y2="457.2"/><line class="cls-19" x1="310.44" y1="380.58" x2="245.82" y2="445.2"/><line class="cls-19" x1="310.44" y1="368.52" x2="245.82" y2="433.2"/><line class="cls-19" x1="310.44" y1="356.52" x2="245.82" y2="421.14"/><line class="cls-19" x1="84.54" y1="711.24" x2="20.16" y2="646.86"/><line class="cls-19" x1="84.54" y1="699.18" x2="20.16" y2="634.86"/><line class="cls-19" x1="84.54" y1="687.18" x2="20.16" y2="622.8"/><line class="cls-19" x1="84.54" y1="675.12" x2="20.16" y2="610.8"/><line class="cls-19" x1="84.54" y1="663.12" x2="20.16" y2="598.74"/><line class="cls-19" x1="84.54" y1="651.06" x2="20.16" y2="586.74"/><line class="cls-19" x1="84.54" y1="639.06" x2="20.16" y2="574.68"/><line class="cls-19" x1="84.54" y1="627" x2="20.16" y2="562.68"/><line class="cls-19" x1="84.54" y1="615" x2="20.16" y2="550.62"/><line class="cls-19" x1="84.54" y1="602.94" x2="20.16" y2="538.62"/><line class="cls-19" x1="84.54" y1="590.94" x2="20.16" y2="526.62"/><line class="cls-19" x1="84.54" y1="578.94" x2="20.16" y2="514.56"/><line class="cls-19" x1="84.54" y1="566.88" x2="20.16" y2="502.56"/><line class="cls-19" x1="84.54" y1="554.88" x2="20.16" y2="490.5"/><line class="cls-19" x1="84.54" y1="542.82" x2="20.16" y2="478.5"/><line class="cls-19" x1="84.54" y1="530.82" x2="20.16" y2="466.44"/><line class="cls-19" x1="84.54" y1="518.76" x2="20.16" y2="454.44"/><line class="cls-19" x1="84.54" y1="506.76" x2="20.16" y2="442.38"/><line class="cls-19" x1="84.54" y1="494.7" x2="20.16" y2="430.38"/><line class="cls-19" x1="84.54" y1="482.7" x2="20.16" y2="418.38"/><line class="cls-19" x1="84.54" y1="470.7" x2="20.16" y2="406.32"/><line class="cls-19" x1="84.54" y1="458.64" x2="20.16" y2="394.32"/><line class="cls-19" x1="84.54" y1="446.64" x2="20.16" y2="382.26"/><line class="cls-19" x1="84.54" y1="434.58" x2="20.16" y2="370.26"/><line class="cls-19" x1="84.54" y1="422.58" x2="20.16" y2="358.2"/><line class="cls-19" x1="84.54" y1="654.6" x2="20.16" y2="718.98"/><line class="cls-19" x1="84.54" y1="642.6" x2="20.16" y2="706.92"/><line class="cls-19" x1="84.54" y1="630.54" x2="20.16" y2="694.92"/><line class="cls-19" x1="84.54" y1="618.54" x2="20.16" y2="682.86"/><line class="cls-19" x1="84.54" y1="606.48" x2="20.16" y2="670.86"/><line class="cls-19" x1="84.54" y1="594.48" x2="20.16" y2="658.8"/><line class="cls-19" x1="84.54" y1="582.42" x2="20.16" y2="646.8"/><line class="cls-19" x1="84.54" y1="570.42" x2="20.16" y2="634.74"/><line class="cls-19" x1="84.54" y1="558.36" x2="20.16" y2="622.74"/><line class="cls-19" x1="84.54" y1="546.36" x2="20.16" y2="610.74"/><line class="cls-19" x1="84.54" y1="534.36" x2="20.16" y2="598.68"/><line class="cls-19" x1="84.54" y1="522.3" x2="20.16" y2="586.68"/><line class="cls-19" x1="84.54" y1="510.3" x2="20.16" y2="574.62"/><line class="cls-19" x1="84.54" y1="498.24" x2="20.16" y2="562.62"/><line class="cls-19" x1="84.54" y1="486.24" x2="20.16" y2="550.56"/><line class="cls-19" x1="84.54" y1="474.18" x2="20.16" y2="538.56"/><line class="cls-19" x1="84.54" y1="462.18" x2="20.16" y2="526.5"/><line class="cls-19" x1="84.54" y1="450.18" x2="20.16" y2="514.5"/><line class="cls-19" x1="84.54" y1="438.12" x2="20.16" y2="502.5"/><line class="cls-19" x1="84.54" y1="426.12" x2="20.16" y2="490.44"/><line class="cls-19" x1="84.54" y1="414.06" x2="20.16" y2="478.44"/><line class="cls-19" x1="84.54" y1="402.06" x2="20.16" y2="466.38"/><line class="cls-19" x1="84.54" y1="390" x2="20.16" y2="454.38"/><line class="cls-19" x1="84.54" y1="378" x2="20.16" y2="442.32"/><line class="cls-19" x1="84.54" y1="365.94" x2="20.16" y2="430.32"/><line class="cls-19" x1="84.54" y1="353.94" x2="20.16" y2="418.26"/><line class="cls-15" x1="116.58" y1="616.5" x2="116.58" y2="612"/><line class="cls-15" x1="197.16" y1="616.5" x2="197.16" y2="612"/><line class="cls-15" x1="227.4" y1="586.92" x2="227.4" y2="582.36"/><line class="cls-15" x1="103.26" y1="634.32" x2="103.26" y2="629.76"/><line class="cls-15" x1="14.7" y1="620.46" x2="50.7" y2="620.46"/><line class="cls-15" x1="59.7" y1="620.46" x2="68.7" y2="620.46"/><line class="cls-15" x1="77.7" y1="620.46" x2="113.7" y2="620.46"/><line class="cls-15" x1="122.7" y1="620.46" x2="131.7" y2="620.46"/><line class="cls-15" x1="140.7" y1="620.46" x2="176.7" y2="620.46"/><line class="cls-15" x1="185.7" y1="620.46" x2="194.7" y2="620.46"/><line class="cls-15" x1="203.7" y1="620.46" x2="239.7" y2="620.46"/><line class="cls-15" x1="248.7" y1="620.46" x2="257.7" y2="620.46"/><line class="cls-15" x1="266.7" y1="620.46" x2="302.7" y2="620.46"/><line class="cls-15" x1="231.06" y1="669.72" x2="231.06" y2="633.72"/><line class="cls-15" x1="231.06" y1="624.72" x2="231.06" y2="615.72"/><line class="cls-15" x1="231.06" y1="606.72" x2="231.06" y2="570.72"/><line class="cls-15" x1="231.06" y1="561.72" x2="231.06" y2="552.72"/><line class="cls-15" x1="231.06" y1="543.72" x2="231.06" y2="507.72"/><line class="cls-15" x1="231.06" y1="498.72" x2="231.06" y2="489.72"/><line class="cls-15" x1="231.06" y1="480.72" x2="231.06" y2="444.72"/><line class="cls-15" x1="231.06" y1="435.72" x2="231.06" y2="426.72"/><line class="cls-15" x1="231.06" y1="417.72" x2="231.06" y2="381.72"/><line class="cls-15" x1="161.76" y1="453.06" x2="169.68" y2="453.06"/><line class="cls-15" x1="169.68" y1="483.48" x2="169.68" y2="453.06"/><line class="cls-15" x1="161.76" y1="483.48" x2="169.68" y2="483.48"/><line class="cls-15" x1="161.76" y1="483.48" x2="161.76" y2="453.06"/><text class="cls-20" transform="translate(168.54 482.22) rotate(-90)"><tspan class="cls-21">08</tspan><tspan class="cls-22" x="6.96" y="0">.</tspan><tspan class="cls-21" x="8.77" y="0">0</tspan><tspan class="cls-23" x="12.25" y="0">4</tspan><tspan class="cls-24" x="15.79" y="0">.</tspan><tspan class="cls-23" x="17.54" y="0">0</tspan><tspan class="cls-21" x="21.08" y="0">3</tspan><tspan x="24.56" y="0">6</tspan></text><text class="cls-25" transform="translate(160.68 484.08) rotate(-90)"><tspan class="cls-26">SST</tspan><tspan x="15.56" y="0">N</tspan></text><line class="cls-15" x1="87.78" y1="588.54" x2="95.7" y2="588.54"/><line class="cls-15" x1="95.7" y1="618.9" x2="95.7" y2="588.54"/><line class="cls-15" x1="87.78" y1="618.9" x2="95.7" y2="618.9"/><line class="cls-15" x1="87.78" y1="618.9" x2="87.78" y2="588.54"/><text class="cls-20" transform="translate(94.5 617.64) rotate(-90)"><tspan class="cls-21">08</tspan><tspan class="cls-22" x="6.96" y="0">.</tspan><tspan class="cls-21" x="8.77" y="0">0</tspan><tspan class="cls-23" x="12.25" y="0">4</tspan><tspan class="cls-24" x="15.79" y="0">.</tspan><tspan class="cls-23" x="17.54" y="0">0</tspan><tspan class="cls-21" x="21.08" y="0">4</tspan><tspan x="24.56" y="0">0</tspan></text><text class="cls-27" transform="translate(86.7 619.5) rotate(-90)">B-<tspan class="cls-28" x="7.98" y="0">H</tspan><tspan class="cls-29" x="13.69" y="0">W</tspan></text><line class="cls-15" x1="242.1" y1="594.78" x2="243.24" y2="578.28"/><line class="cls-15" x1="243.9" y1="547.26" x2="251.88" y2="547.26"/><line class="cls-15" x1="251.88" y1="577.68" x2="251.88" y2="547.26"/><line class="cls-15" x1="243.9" y1="577.68" x2="251.88" y2="577.68"/><line class="cls-15" x1="243.9" y1="577.68" x2="243.9" y2="547.26"/><text class="cls-20" transform="translate(250.68 576.42) rotate(-90)"><tspan class="cls-21">08</tspan><tspan class="cls-22" x="6.96" y="0">.</tspan><tspan class="cls-21" x="8.77" y="0">0</tspan><tspan class="cls-23" x="12.25" y="0">4</tspan><tspan class="cls-24" x="15.79" y="0">.</tspan><tspan class="cls-23" x="17.54" y="0">0</tspan><tspan class="cls-21" x="21.08" y="0">4</tspan><tspan x="24.56" y="0">3</tspan></text><text class="cls-27" transform="translate(242.88 578.28) rotate(-90)">B-<tspan class="cls-28" x="7.98" y="0">H</tspan><tspan class="cls-29" x="13.69" y="0">W</tspan></text><line class="cls-15" x1="43.32" y1="656.82" x2="51.24" y2="656.82"/><line class="cls-15" x1="51.24" y1="687.24" x2="51.24" y2="656.82"/><line class="cls-15" x1="43.32" y1="687.24" x2="43.32" y2="656.82"/><text class="cls-20" transform="translate(50.1 685.98) rotate(-90)"><tspan class="cls-30">08</tspan><tspan class="cls-31" x="6.96" y="0">.</tspan><tspan class="cls-32" x="8.77" y="0">9</tspan><tspan class="cls-33" x="12.25" y="0">9</tspan><tspan class="cls-34" x="15.79" y="0">.</tspan><tspan class="cls-33" x="17.54" y="0">0</tspan><tspan class="cls-21" x="21.08" y="0">2</tspan><tspan x="24.56" y="0">0</tspan></text><line class="cls-15" x1="156.9" y1="649.56" x2="164.82" y2="649.56"/><line class="cls-15" x1="164.82" y1="679.92" x2="164.82" y2="649.56"/><line class="cls-15" x1="156.9" y1="679.92" x2="156.9" y2="649.56"/><text class="cls-20" transform="translate(163.62 678.72) rotate(-90)"><tspan class="cls-21">08</tspan><tspan class="cls-22" x="6.96" y="0">.</tspan><tspan class="cls-21" x="8.77" y="0">9</tspan><tspan class="cls-23" x="12.25" y="0">9</tspan><tspan class="cls-24" x="15.79" y="0">.</tspan><tspan class="cls-23" x="17.54" y="0">0</tspan><tspan class="cls-21" x="21.08" y="0">2</tspan><tspan x="24.56" y="0">1</tspan></text><text class="cls-35" transform="translate(58.08 514.5) rotate(-90)">ADULT<tspan class="cls-36" x="52.31" y="0"> </tspan><tspan class="cls-37" x="56.58" y="0">ACUT</tspan><tspan class="cls-38" x="100.05" y="0">E</tspan></text><line class="cls-15" x1="103.32" y1="546.36" x2="97.74" y2="546.36"/><line class="cls-15" x1="103.32" y1="540.78" x2="103.32" y2="546.36"/><line class="cls-15" x1="86.88" y1="540.06" x2="83.28" y2="546.36"/><line class="cls-15" x1="94.14" y1="540.06" x2="86.88" y2="540.06"/><line class="cls-15" x1="97.74" y1="546.36" x2="94.14" y2="540.06"/><line class="cls-15" x1="94.14" y1="552.6" x2="97.74" y2="546.36"/><line class="cls-15" x1="86.88" y1="552.6" x2="94.14" y2="552.6"/><line class="cls-15" x1="83.28" y1="546.36" x2="86.88" y2="552.6"/><text class="cls-25" transform="translate(94.08 550.86) rotate(-90)"><tspan class="cls-39">P</tspan><tspan x="5.29" y="0">6</tspan></text><line class="cls-15" x1="209.82" y1="537" x2="204.96" y2="530.76"/><line class="cls-15" x1="209.82" y1="540.78" x2="209.82" y2="537"/><line class="cls-15" x1="194.1" y1="524.52" x2="190.5" y2="530.76"/><line class="cls-15" x1="201.3" y1="524.52" x2="194.1" y2="524.52"/><line class="cls-15" x1="204.96" y1="530.76" x2="201.3" y2="524.52"/><line class="cls-15" x1="201.3" y1="537.06" x2="204.96" y2="530.76"/><line class="cls-15" x1="194.1" y1="537.06" x2="201.3" y2="537.06"/><line class="cls-15" x1="190.5" y1="530.76" x2="194.1" y2="537.06"/><text class="cls-25" transform="translate(201.3 535.26) rotate(-90)"><tspan class="cls-39">P</tspan><tspan x="5.29" y="0">6</tspan></text><line class="cls-15" x1="103.2" y1="589.68" x2="107.34" y2="589.68"/><line class="cls-15" x1="111" y1="583.44" x2="107.34" y2="589.68"/><line class="cls-15" x1="118.2" y1="583.44" x2="111" y2="583.44"/><line class="cls-15" x1="121.86" y1="589.68" x2="118.2" y2="583.44"/><line class="cls-15" x1="118.2" y1="595.98" x2="121.86" y2="589.68"/><line class="cls-15" x1="111" y1="595.98" x2="118.2" y2="595.98"/><line class="cls-15" x1="107.34" y1="589.68" x2="111" y2="595.98"/><text class="cls-25" transform="translate(118.2 594.18) rotate(-90)"><tspan class="cls-39">P</tspan><tspan x="5.29" y="0">6</tspan></text><line class="cls-15" x1="103.2" y1="452.16" x2="109.44" y2="452.16"/><line class="cls-15" x1="113.04" y1="445.92" x2="109.44" y2="452.16"/><line class="cls-15" x1="120.3" y1="445.92" x2="113.04" y2="445.92"/><line class="cls-15" x1="123.9" y1="452.16" x2="120.3" y2="445.92"/><line class="cls-15" x1="120.3" y1="458.46" x2="123.9" y2="452.16"/><line class="cls-15" x1="113.04" y1="458.46" x2="120.3" y2="458.46"/><line class="cls-15" x1="109.44" y1="452.16" x2="113.04" y2="458.46"/><text class="cls-25" transform="translate(120.24 456.72) rotate(-90)"><tspan class="cls-39">P</tspan><tspan x="5.29" y="0">6</tspan></text><line class="cls-15" x1="227.16" y1="451.74" x2="219.42" y2="451.74"/><line class="cls-15" x1="208.56" y1="445.5" x2="204.96" y2="451.74"/><line class="cls-15" x1="215.82" y1="445.5" x2="208.56" y2="445.5"/><line class="cls-15" x1="219.42" y1="451.74" x2="215.82" y2="445.5"/><line class="cls-15" x1="215.82" y1="458.04" x2="219.42" y2="451.74"/><line class="cls-15" x1="208.56" y1="458.04" x2="215.82" y2="458.04"/><line class="cls-15" x1="204.96" y1="451.74" x2="208.56" y2="458.04"/><text class="cls-25" transform="translate(215.76 456.24) rotate(-90)"><tspan class="cls-39">P</tspan><tspan x="5.29" y="0">6</tspan></text><line class="cls-15" x1="225.96" y1="632.16" x2="223.68" y2="635.22"/><line class="cls-15" x1="225.96" y1="629.46" x2="225.96" y2="632.16"/><line class="cls-15" x1="220.08" y1="635.22" x2="216.48" y2="641.46"/><line class="cls-15" x1="227.28" y1="635.22" x2="220.08" y2="635.22"/><line class="cls-15" x1="230.94" y1="641.46" x2="227.28" y2="635.22"/><line class="cls-15" x1="227.28" y1="647.76" x2="230.94" y2="641.46"/><line class="cls-15" x1="220.08" y1="647.76" x2="227.28" y2="647.76"/><line class="cls-15" x1="216.48" y1="641.46" x2="220.08" y2="647.76"/><text class="cls-40" transform="translate(227.28 645.48) rotate(-90)">L<tspan class="cls-41" x="4.38" y="0">4</tspan></text><line class="cls-15" x1="256.68" y1="623.88" x2="256.68" y2="635.22"/><line class="cls-15" x1="244.32" y1="623.88" x2="256.68" y2="623.88"/><line class="cls-15" x1="253.08" y1="635.22" x2="249.48" y2="641.46"/><line class="cls-15" x1="260.28" y1="635.22" x2="253.08" y2="635.22"/><line class="cls-15" x1="263.94" y1="641.46" x2="260.28" y2="635.22"/><line class="cls-15" x1="260.28" y1="647.76" x2="263.94" y2="641.46"/><line class="cls-15" x1="253.08" y1="647.76" x2="260.28" y2="647.76"/><line class="cls-15" x1="249.48" y1="641.46" x2="253.08" y2="647.76"/><text class="cls-40" transform="translate(260.28 645.48) rotate(-90)">L<tspan class="cls-41" x="4.38" y="0">1</tspan></text><line class="cls-15" x1="241.56" y1="610.32" x2="249.48" y2="599.46"/><line class="cls-15" x1="241.56" y1="612.48" x2="241.56" y2="610.32"/><line class="cls-15" x1="253.08" y1="593.16" x2="249.48" y2="599.46"/><line class="cls-15" x1="260.28" y1="593.16" x2="253.08" y2="593.16"/><line class="cls-15" x1="263.94" y1="599.46" x2="260.28" y2="593.16"/><line class="cls-15" x1="260.28" y1="605.7" x2="263.94" y2="599.46"/><line class="cls-15" x1="253.08" y1="605.7" x2="260.28" y2="605.7"/><line class="cls-15" x1="249.48" y1="599.46" x2="253.08" y2="605.7"/><text class="cls-40" transform="translate(260.28 603.42) rotate(-90)">L<tspan class="cls-41" x="4.38" y="0">1</tspan></text><line class="cls-15" x1="208.56" y1="624.72" x2="208.56" y2="635.1"/><line class="cls-15" x1="222.06" y1="624.72" x2="208.56" y2="624.72"/><line class="cls-15" x1="204.9" y1="635.1" x2="201.3" y2="641.34"/><line class="cls-15" x1="212.16" y1="635.1" x2="204.9" y2="635.1"/><line class="cls-15" x1="215.76" y1="641.34" x2="212.16" y2="635.1"/><line class="cls-15" x1="212.16" y1="647.58" x2="215.76" y2="641.34"/><line class="cls-15" x1="204.9" y1="647.58" x2="212.16" y2="647.58"/><line class="cls-15" x1="201.3" y1="641.34" x2="204.9" y2="647.58"/><text class="cls-40" transform="translate(212.1 645.3) rotate(-90)">L<tspan class="cls-41" x="4.38" y="0">4</tspan></text><line class="cls-15" x1="164.82" y1="609.3" x2="164.82" y2="634.2"/><line class="cls-15" x1="161.16" y1="634.2" x2="157.56" y2="640.5"/><line class="cls-15" x1="168.42" y1="634.2" x2="161.16" y2="634.2"/><line class="cls-15" x1="172.02" y1="640.5" x2="168.42" y2="634.2"/><line class="cls-15" x1="168.42" y1="646.74" x2="172.02" y2="640.5"/><line class="cls-15" x1="161.16" y1="646.74" x2="168.42" y2="646.74"/><line class="cls-15" x1="157.56" y1="640.5" x2="161.16" y2="646.74"/><text class="cls-25" transform="translate(168.36 645) rotate(-90)"><tspan class="cls-39">P</tspan><tspan x="5.29" y="0">6</tspan></text><line class="cls-15" x1="235.14" y1="596.76" x2="240.12" y2="588.6"/><line class="cls-15" x1="235.14" y1="611.46" x2="235.14" y2="596.76"/><line class="cls-15" x1="243.72" y1="582.3" x2="240.12" y2="588.6"/><line class="cls-15" x1="250.92" y1="582.3" x2="243.72" y2="582.3"/><line class="cls-15" x1="254.58" y1="588.6" x2="250.92" y2="582.3"/><line class="cls-15" x1="250.92" y1="594.84" x2="254.58" y2="588.6"/><line class="cls-15" x1="243.72" y1="594.84" x2="250.92" y2="594.84"/><line class="cls-15" x1="240.12" y1="588.6" x2="243.72" y2="594.84"/><text class="cls-40" transform="translate(250.92 592.56) rotate(-90)">L<tspan class="cls-41" x="4.38" y="0">4</tspan></text><line class="cls-15" x1="241.08" y1="631.86" x2="238.02" y2="635.22"/><line class="cls-15" x1="241.08" y1="628.5" x2="241.08" y2="631.86"/><line class="cls-15" x1="234.42" y1="635.22" x2="230.76" y2="641.46"/><line class="cls-15" x1="241.62" y1="635.22" x2="234.42" y2="635.22"/><line class="cls-15" x1="245.22" y1="641.46" x2="241.62" y2="635.22"/><line class="cls-15" x1="241.62" y1="647.76" x2="245.22" y2="641.46"/><line class="cls-15" x1="234.42" y1="647.76" x2="241.62" y2="647.76"/><line class="cls-15" x1="230.76" y1="641.46" x2="234.42" y2="647.76"/><text class="cls-40" transform="translate(241.62 645.48) rotate(-90)">L<tspan class="cls-41" x="4.38" y="0">1</tspan></text><line class="cls-15" x1="227.16" y1="588.6" x2="220.92" y2="588.6"/><line class="cls-15" x1="210.06" y1="582.3" x2="206.46" y2="588.6"/><line class="cls-15" x1="217.32" y1="582.3" x2="210.06" y2="582.3"/><line class="cls-15" x1="220.92" y1="588.6" x2="217.32" y2="582.3"/><line class="cls-15" x1="217.32" y1="594.84" x2="220.92" y2="588.6"/><line class="cls-15" x1="210.06" y1="594.84" x2="217.32" y2="594.84"/><line class="cls-15" x1="206.46" y1="588.6" x2="210.06" y2="594.84"/><text class="cls-25" transform="translate(217.26 593.1) rotate(-90)"><tspan class="cls-39">P</tspan><tspan x="5.29" y="0">6</tspan></text><line class="cls-17" x1="231.06" y1="660.42" x2="235.32" y2="656.22"/><line class="cls-15" x1="231.06" y1="660.42" x2="231.06" y2="653.64"/><path class="cls-42" d="M1340.61,2167.44a2.15,2.15,0,0,1,2.16,2.16,2.1,2.1,0,0,1-2.16,2.1,2.05,2.05,0,0,1-2.1-2.1,2.1,2.1,0,0,1,2.1-2.16" transform="translate(-1096.35 -1509.18)"/><path class="cls-17" d="M1340.61,2167.44a2.15,2.15,0,0,1,2.16,2.16,2.1,2.1,0,0,1-2.16,2.1,2.05,2.05,0,0,1-2.1-2.1A2.1,2.1,0,0,1,1340.61,2167.44Z" transform="translate(-1096.35 -1509.18)"/><line class="cls-15" x1="244.32" y1="660.42" x2="244.32" y2="646.26"/><text class="cls-43" transform="translate(98.58 624.12) rotate(-179.9)">S</text><text class="cls-43" transform="translate(93.24 624.12) rotate(-179.9)">T</text><text class="cls-43" transform="translate(88.32 624.12) rotate(-179.9)">-</text><text class="cls-43" transform="translate(85.74 624.12) rotate(-179.9)">2</text><line class="cls-15" x1="103.2" y1="478.26" x2="115.74" y2="478.26"/><polyline class="cls-15" points="115.74 491.94 123.9 491.94 123.9 464.58 115.74 464.58 115.74 491.94"/><text class="cls-20" transform="translate(122.94 489.42) rotate(-90)"><tspan class="cls-21">1</tspan><tspan class="cls-23" x="3.48" y="0">1</tspan><tspan class="cls-21" x="7.03" y="0">0</tspan><tspan class="cls-44" x="10.51" y="0">0</tspan><tspan class="cls-45" x="14.05" y="0"> </tspan><tspan class="cls-44" x="15.79" y="0">H</tspan><tspan x="20.42" y="0">T</tspan></text><g class="cls-46"><g class="cls-5"><rect class="cls-3" x="94.68" y="468.54" width="16.02" height="13.92"/></g></g><line class="cls-15" x1="94.68" y1="482.46" x2="110.76" y2="482.46"/><line class="cls-15" x1="110.76" y1="482.46" x2="102.72" y2="468.54"/><line class="cls-15" x1="102.72" y1="468.54" x2="94.68" y2="482.46"/><text class="cls-47" transform="translate(106.56 480.54) rotate(-90)">L</text><text class="cls-43" transform="translate(99.36 574.2) rotate(-179.9)">S</text><text class="cls-43" transform="translate(94.02 574.2) rotate(-179.9)">T</text><text class="cls-43" transform="translate(89.1 574.2) rotate(-179.9)">-</text><text class="cls-43" transform="translate(86.52 574.2) rotate(-179.9)">2</text><text class="cls-27" transform="translate(133.08 605.58) rotate(-90)">ST-<tspan class="cls-41" x="12.88" y="0">2</tspan></text><text class="cls-27" transform="translate(178.56 606.36) rotate(-90)">ST-<tspan class="cls-41" x="12.88" y="0">2</tspan></text><text class="cls-27" transform="translate(230.04 575.04) rotate(-90)">ST-<tspan class="cls-41" x="12.88" y="0">2</tspan></text><text class="cls-43" transform="translate(208.5 543.48) rotate(-179.9)">S</text><text class="cls-43" transform="translate(203.16 543.48) rotate(-179.9)">T</text><text class="cls-43" transform="translate(198.24 543.48) rotate(-179.9)">-</text><text class="cls-43" transform="translate(195.66 543.48) rotate(-179.9)">2</text><text class="cls-43" transform="translate(127.14 530.4) rotate(-179.9)">S</text><text class="cls-43" transform="translate(121.8 530.4) rotate(-179.9)">T</text><text class="cls-43" transform="translate(116.88 530.4) rotate(-179.9)">-</text><text class="cls-43" transform="translate(114.3 530.4) rotate(-179.9)">2</text><text class="cls-43" transform="translate(223.5 499.08) rotate(-179.9)">S</text><text class="cls-43" transform="translate(218.16 499.08) rotate(-179.9)">T</text><text class="cls-43" transform="translate(213.24 499.08) rotate(-179.9)">-</text><text class="cls-43" transform="translate(210.66 499.08) rotate(-179.9)">2</text><text class="cls-43" transform="translate(224.16 461.58) rotate(-179.9)">S</text><text class="cls-43" transform="translate(218.82 461.58) rotate(-179.9)">T</text><text class="cls-43" transform="translate(213.9 461.58) rotate(-179.9)">-</text><text class="cls-43" transform="translate(211.32 461.58) rotate(-179.9)">2</text><text class="cls-43" transform="translate(99.54 501.36) rotate(-179.9)">S</text><text class="cls-43" transform="translate(94.2 501.36) rotate(-179.9)">T</text><text class="cls-43" transform="translate(89.28 501.36) rotate(-179.9)">-</text><text class="cls-43" transform="translate(86.7 501.36) rotate(-179.9)">2</text><text class="cls-43" transform="translate(100.26 461.58) rotate(-179.9)">S</text><text class="cls-43" transform="translate(94.92 461.58) rotate(-179.9)">T</text><text class="cls-43" transform="translate(90 461.58) rotate(-179.9)">-</text><text class="cls-43" transform="translate(87.42 461.58) rotate(-179.9)">2</text><g class="cls-48"><g class="cls-5"><rect class="cls-3" x="217.2" y="472.32" width="16.02" height="13.92"/></g></g><polyline class="cls-15" points="217.2 486.24 233.28 486.24 225.24 472.32 217.2 486.24"/><text class="cls-47" transform="translate(229.08 484.38) rotate(-90)">L</text><line class="cls-15" x1="227.16" y1="481.68" x2="238.62" y2="481.68"/><polyline class="cls-15" points="238.62 495.36 246.78 495.36 246.78 468 238.62 468 238.62 495.36"/><text class="cls-20" transform="translate(245.22 493.8) rotate(-90)"><tspan class="cls-21">1</tspan><tspan class="cls-23" x="3.48" y="0">1</tspan><tspan class="cls-21" x="7.03" y="0">0</tspan><tspan class="cls-44" x="10.51" y="0">0</tspan><tspan class="cls-45" x="14.05" y="0"> </tspan><tspan class="cls-44" x="15.79" y="0">H</tspan><tspan x="20.42" y="0">T</tspan></text><line class="cls-15" x1="110.28" y1="540.78" x2="110.28" y2="556.08"/><polyline class="cls-15" points="106.2 583.44 114.36 583.44 114.36 556.08 106.2 556.08 106.2 583.44"/><text class="cls-20" transform="translate(113.76 580.92) rotate(-90)"><tspan class="cls-21">1</tspan><tspan class="cls-23" x="3.48" y="0">1</tspan><tspan class="cls-21" x="7.03" y="0">0</tspan><tspan class="cls-44" x="10.51" y="0">0</tspan><tspan class="cls-45" x="14.05" y="0"> </tspan><tspan class="cls-44" x="15.79" y="0">H</tspan><tspan x="20.42" y="0">T</tspan></text><g class="cls-49"><g class="cls-5"><rect class="cls-3" x="102.12" y="542.16" width="16.02" height="13.92"/></g></g><polyline class="cls-15" points="102.12 556.08 118.2 556.08 110.16 542.16 102.12 556.08"/><text class="cls-47" transform="translate(114.06 554.16) rotate(-90)">L</text><line class="cls-15" x1="215.76" y1="540.78" x2="215.76" y2="556.08"/><polyline class="cls-15" points="211.62 583.44 219.84 583.44 219.84 556.08 211.62 556.08 211.62 583.44"/><text class="cls-20" transform="translate(219.18 580.92) rotate(-90)"><tspan class="cls-21">1</tspan><tspan class="cls-23" x="3.48" y="0">1</tspan><tspan class="cls-21" x="7.03" y="0">0</tspan><tspan class="cls-44" x="10.51" y="0">0</tspan><tspan class="cls-45" x="14.05" y="0"> </tspan><tspan class="cls-44" x="15.79" y="0">H</tspan><tspan x="20.42" y="0">T</tspan></text><g class="cls-50"><g class="cls-5"><rect class="cls-3" x="207.6" y="542.16" width="16.02" height="13.92"/></g></g><polyline class="cls-15" points="207.6 556.08 223.68 556.08 215.64 542.16 207.6 556.08"/><text class="cls-47" transform="translate(219.48 554.16) rotate(-90)">L</text><text class="cls-20" transform="translate(120.18 654.36) rotate(-90)"><tspan class="cls-21">1</tspan><tspan class="cls-23" x="3.48" y="0">1</tspan><tspan class="cls-21" x="7.03" y="0">0</tspan><tspan class="cls-44" x="10.51" y="0">0</tspan><tspan class="cls-45" x="14.05" y="0"> </tspan><tspan class="cls-44" x="15.79" y="0">H</tspan><tspan x="20.42" y="0">T</tspan></text><g class="cls-51"><g class="cls-5"><rect class="cls-3" x="108.54" y="615.6" width="16.02" height="13.86"/></g></g><polyline class="cls-15" points="108.54 629.46 124.62 629.46 116.58 615.6 108.54 629.46"/><text class="cls-47" transform="translate(120.48 627.6) rotate(-90)">L</text><text class="cls-20" transform="translate(200.7 654.36) rotate(-90)"><tspan class="cls-21">1</tspan><tspan class="cls-23" x="3.48" y="0">1</tspan><tspan class="cls-21" x="7.03" y="0">0</tspan><tspan class="cls-44" x="10.51" y="0">0</tspan><tspan class="cls-45" x="14.05" y="0"> </tspan><tspan class="cls-44" x="15.79" y="0">H</tspan><tspan x="20.42" y="0">T</tspan></text><g class="cls-52"><g class="cls-5"><rect class="cls-3" x="189.12" y="615.6" width="16.02" height="13.86"/></g></g><polyline class="cls-15" points="189.12 629.46 205.2 629.46 197.16 615.6 189.12 629.46"/><text class="cls-47" transform="translate(201 627.6) rotate(-90)">L</text><text class="cls-20" transform="translate(225.72 601.14) rotate(180)"><tspan class="cls-44">135</tspan><tspan class="cls-21" x="10.64" y="0">0</tspan><tspan class="cls-45" x="14.12" y="0"> </tspan><tspan class="cls-44" x="15.86" y="0">H</tspan><tspan x="20.48" y="0">T</tspan></text><g class="cls-53"><g class="cls-5"><rect class="cls-3" x="219.36" y="585.96" width="16.02" height="13.92"/></g></g><polyline class="cls-15" points="219.36 599.88 235.44 599.88 227.4 585.96 219.36 599.88"/><text class="cls-47" transform="translate(231.3 598.02) rotate(-90)">L</text><text class="cls-20" transform="translate(113.1 648.54) rotate(180)"><tspan class="cls-44">135</tspan><tspan class="cls-21" x="10.64" y="0">0</tspan><tspan class="cls-45" x="14.12" y="0"> </tspan><tspan class="cls-44" x="15.86" y="0">H</tspan><tspan x="20.48" y="0">T</tspan></text><g class="cls-54"><g class="cls-5"><rect class="cls-3" x="95.22" y="633.36" width="16.02" height="13.92"/></g></g><line class="cls-15" x1="95.22" y1="647.28" x2="111.3" y2="647.28"/><line class="cls-15" x1="111.3" y1="647.28" x2="103.26" y2="633.36"/><line class="cls-15" x1="103.26" y1="633.36" x2="95.22" y2="647.28"/><text class="cls-47" transform="translate(107.1 645.42) rotate(-90)">L</text><line class="cls-15" x1="204.18" y1="514.14" x2="119.34" y2="514.14"/><line class="cls-17" x1="126.12" y1="514.14" x2="130.38" y2="509.88"/><line class="cls-17" x1="126.12" y1="514.14" x2="121.86" y2="518.4"/><line class="cls-15" x1="126.12" y1="514.14" x2="126.12" y2="507.36"/><line class="cls-15" x1="126.12" y1="514.14" x2="126.12" y2="528.36"/><line class="cls-15" x1="233.94" y1="514.14" x2="204.18" y2="514.14"/><line class="cls-17" x1="204.18" y1="514.14" x2="208.44" y2="509.88"/><line class="cls-17" x1="204.18" y1="514.14" x2="199.98" y2="518.4"/><line class="cls-15" x1="204.18" y1="514.14" x2="204.18" y2="507.36"/><line class="cls-15" x1="204.18" y1="514.14" x2="204.18" y2="528.36"/><path class="cls-42" d="M1323.45,2021.16a2.15,2.15,0,0,1,2.16,2.16,2.1,2.1,0,0,1-2.16,2.1,2.05,2.05,0,0,1-2.1-2.1,2.1,2.1,0,0,1,2.1-2.16" transform="translate(-1096.35 -1509.18)"/><path class="cls-17" d="M1323.45,2021.16a2.15,2.15,0,0,1,2.16,2.16,2.1,2.1,0,0,1-2.16,2.1,2.05,2.05,0,0,1-2.1-2.1A2.1,2.1,0,0,1,1323.45,2021.16Z" transform="translate(-1096.35 -1509.18)"/><text class="cls-43" transform="translate(230.16 496.38) rotate(-179.9)">C</text><text class="cls-43" transform="translate(228.06 492.96) rotate(-179.9)">L</text><line class="cls-15" x1="227.16" y1="514.14" x2="227.16" y2="507.36"/><line class="cls-15" x1="227.16" y1="514.14" x2="227.16" y2="528.36"/><text class="cls-43" transform="translate(222.24 517.8) rotate(-179.9)">8</text><text class="cls-43" transform="translate(217.86 517.8) rotate(-179.9)">0</text><text class="cls-43" transform="translate(213.48 517.8) rotate(-179.9)">9</text><text class="cls-43" transform="translate(172.86 503.16) rotate(-179.9)">C</text><text class="cls-43" transform="translate(167.1 503.16) rotate(-179.9)">L</text><text class="cls-43" transform="translate(162.72 503.16) rotate(-179.9)">E</text><text class="cls-43" transform="translate(173.94 517.8) rotate(-179.9)">2</text><text class="cls-43" transform="translate(169.56 517.8) rotate(-179.9)">7</text><text class="cls-43" transform="translate(165.18 517.8) rotate(-179.9)">5</text><text class="cls-43" transform="translate(160.8 517.8) rotate(-179.9)">4</text><line class="cls-15" x1="140.7" y1="583.32" x2="140.7" y2="535.68"/><line class="cls-17" x1="140.7" y1="542.46" x2="144.96" y2="546.72"/><line class="cls-17" x1="140.7" y1="542.46" x2="136.44" y2="538.2"/><line class="cls-15" x1="140.7" y1="542.46" x2="147.48" y2="542.46"/><line class="cls-15" x1="140.7" y1="542.46" x2="126.54" y2="542.46"/><line class="cls-17" x1="140.7" y1="576.54" x2="144.96" y2="580.8"/><line class="cls-17" x1="140.7" y1="576.54" x2="136.44" y2="572.28"/><line class="cls-15" x1="140.7" y1="576.54" x2="147.48" y2="576.54"/><line class="cls-15" x1="140.7" y1="576.54" x2="126.54" y2="576.54"/><text class="cls-25" transform="translate(151.44 567.18) rotate(-90)"><tspan class="cls-55">CL</tspan><tspan x="10.09" y="0">E</tspan></text><text class="cls-25" transform="translate(136.8 568.26) rotate(-90)"><tspan class="cls-56">120</tspan><tspan x="13.14" y="0">2</tspan></text><line class="cls-15" x1="57.06" y1="609.3" x2="57.06" y2="534"/><path class="cls-42" d="M1153.35,2047.8a2.15,2.15,0,0,1,2.16,2.16,2.1,2.1,0,0,1-2.16,2.1,2.05,2.05,0,0,1-2.1-2.1,2.1,2.1,0,0,1,2.1-2.16" transform="translate(-1096.35 -1509.18)"/><path class="cls-17" d="M1153.35,2047.8a2.15,2.15,0,0,1,2.16,2.16,2.1,2.1,0,0,1-2.16,2.1,2.05,2.05,0,0,1-2.1-2.1A2.1,2.1,0,0,1,1153.35,2047.8Z" transform="translate(-1096.35 -1509.18)"/><text class="cls-25" transform="translate(42.9 543.84) rotate(-90)">C</text><text class="cls-25" transform="translate(46.26 541.74) rotate(-90)">L</text><line class="cls-15" x1="57.06" y1="540.78" x2="50.28" y2="540.78"/><line class="cls-15" x1="57.06" y1="540.78" x2="71.22" y2="540.78"/><line class="cls-15" x1="57.06" y1="627.3" x2="57.06" y2="609.3"/><line class="cls-17" x1="57.06" y1="609.3" x2="61.32" y2="613.56"/><line class="cls-17" x1="57.06" y1="609.3" x2="52.8" y2="605.04"/><text class="cls-25" transform="translate(42.9 612.36) rotate(-90)">C</text><text class="cls-25" transform="translate(46.26 610.26) rotate(-90)">L</text><line class="cls-15" x1="57.06" y1="609.3" x2="50.28" y2="609.3"/><line class="cls-15" x1="57.06" y1="609.3" x2="71.22" y2="609.3"/><line class="cls-17" x1="57.06" y1="620.46" x2="61.32" y2="624.72"/><line class="cls-17" x1="57.06" y1="620.46" x2="52.8" y2="616.2"/><line class="cls-15" x1="57.06" y1="620.46" x2="63.9" y2="620.46"/><line class="cls-15" x1="57.06" y1="620.46" x2="42.9" y2="620.46"/><text class="cls-40" transform="translate(53.16 621.48) rotate(-90)">39<tspan class="cls-57" x="8.76" y="0">4</tspan><tspan x="37.67" y="0">241</tspan><tspan class="cls-58" x="50.82" y="0">7</tspan></text><line class="cls-15" x1="289.92" y1="424.02" x2="275.76" y2="424.02"/><line class="cls-15" x1="138.72" y1="636.78" x2="138.72" y2="613.68"/><line class="cls-17" x1="138.72" y1="620.46" x2="142.98" y2="624.72"/><line class="cls-17" x1="138.72" y1="620.46" x2="134.52" y2="616.2"/><line class="cls-15" x1="138.72" y1="620.46" x2="145.56" y2="620.46"/><line class="cls-15" x1="138.72" y1="620.46" x2="124.56" y2="620.46"/><line class="cls-17" x1="138.72" y1="630" x2="142.98" y2="634.2"/><line class="cls-17" x1="138.72" y1="630" x2="134.52" y2="625.74"/><line class="cls-15" x1="138.72" y1="630" x2="131.94" y2="630"/><line class="cls-15" x1="138.72" y1="630" x2="152.94" y2="630"/><text class="cls-25" transform="translate(134.88 631.8) rotate(-90)"><tspan class="cls-56">33</tspan><tspan x="8.76" y="0">5</tspan></text><line class="cls-15" x1="185.76" y1="405.48" x2="185.76" y2="419.7"/><line class="cls-15" x1="144.66" y1="405.48" x2="144.66" y2="419.7"/><text class="cls-43" transform="translate(174 409.14) rotate(-179.9)">1</text><text class="cls-43" transform="translate(169.62 409.14) rotate(-179.9)">4</text><text class="cls-43" transform="translate(165.24 409.14) rotate(-179.9)">5</text><text class="cls-43" transform="translate(160.86 409.14) rotate(-179.9)">0</text><text class="cls-43" transform="translate(217.2 409.14) rotate(-179.9)">1</text><text class="cls-43" transform="translate(212.82 409.14) rotate(-179.9)">5</text><text class="cls-43" transform="translate(208.44 409.14) rotate(-179.9)">9</text><text class="cls-43" transform="translate(204.06 409.14) rotate(-179.9)">8</text></g></g></svg>