<?xml version="1.0" encoding="utf-8"?>
<svg viewBox="74.67601251602173 203.28469848632812 256.09275579452515 274.5442810058594" xmlns="http://www.w3.org/2000/svg">
  <defs>
    <style>.cls-1,.cls-2,.cls-44,.cls-45,.cls-46,.cls-47,.cls-48,.cls-49,.cls-50,.cls-51{fill:none;}.cls-1{clip-rule:evenodd;}.cls-3{fill:#fff;}.cls-4{clip-path:url(#clip-path);}.cls-5{clip-path:url(#clip-path-2);}.cls-6{clip-path:url(#clip-path-3);}.cls-7{clip-path:url(#clip-path-5);}.cls-8{clip-path:url(#clip-path-7);}.cls-9{clip-path:url(#clip-path-9);}.cls-10{clip-path:url(#clip-path-11);}.cls-11{clip-path:url(#clip-path-13);}.cls-12{clip-path:url(#clip-path-15);}.cls-13{clip-path:url(#clip-path-17);}.cls-14{clip-path:url(#clip-path-19);}.cls-15{clip-path:url(#clip-path-21);}.cls-16{clip-path:url(#clip-path-23);}.cls-17{clip-path:url(#clip-path-25);}.cls-18{clip-path:url(#clip-path-26);}.cls-19{clip-path:url(#clip-path-27);}.cls-20{clip-path:url(#clip-path-29);}.cls-21{clip-path:url(#clip-path-31);}.cls-22{clip-path:url(#clip-path-33);}.cls-23{clip-path:url(#clip-path-35);}.cls-24{clip-path:url(#clip-path-37);}.cls-25{clip-path:url(#clip-path-39);}.cls-26{clip-path:url(#clip-path-41);}.cls-27{clip-path:url(#clip-path-43);}.cls-28{clip-path:url(#clip-path-45);}.cls-29{clip-path:url(#clip-path-47);}.cls-30{clip-path:url(#clip-path-49);}.cls-31{clip-path:url(#clip-path-51);}.cls-32{clip-path:url(#clip-path-53);}.cls-33{clip-path:url(#clip-path-55);}.cls-34{clip-path:url(#clip-path-57);}.cls-35{clip-path:url(#clip-path-59);}.cls-36{clip-path:url(#clip-path-61);}.cls-37{clip-path:url(#clip-path-63);}.cls-38{clip-path:url(#clip-path-65);}.cls-39{clip-path:url(#clip-path-67);}.cls-40{clip-path:url(#clip-path-69);}.cls-41{clip-path:url(#clip-path-71);}.cls-42{clip-path:url(#clip-path-73);}.cls-43{font-size:4.67px;}.cls-43,.cls-64{font-family:ArialMT, Arial;}.cls-44,.cls-46,.cls-47,.cls-48{stroke:#000;}.cls-44,.cls-45,.cls-46,.cls-47,.cls-48,.cls-49,.cls-50,.cls-51{stroke-linecap:round;stroke-linejoin:round;}.cls-44,.cls-45,.cls-50{stroke-width:0.24px;}.cls-45{stroke:#464646;}.cls-46{stroke-width:0.96px;}.cls-47{stroke-width:0.66px;}.cls-48{stroke-width:1.38px;}.cls-49{stroke:#00007e;stroke-width:0.48px;}.cls-50{stroke:#656565;}.cls-51{stroke:red;stroke-width:2.82px;}.cls-52{font-size:7.95px;}.cls-52,.cls-57,.cls-59,.cls-66,.cls-68,.cls-72{font-family:ArialNarrow, Arial;}.cls-53{letter-spacing:-0.02em;}.cls-54{letter-spacing:0em;}.cls-55{letter-spacing:-0.01em;}.cls-56{letter-spacing:-0.01em;}.cls-57,.cls-59,.cls-66,.cls-68{font-size:9.91px;}.cls-57{letter-spacing:-0.01em;}.cls-58{letter-spacing:0em;}.cls-60{letter-spacing:-0.01em;}.cls-61{letter-spacing:-0.02em;}.cls-62{letter-spacing:-0.01em;}.cls-63{clip-path:url(#clip-path-75);}.cls-64{font-size:9.77px;}.cls-65{clip-path:url(#clip-path-77);}.cls-66,.cls-69{letter-spacing:-0.01em;}.cls-67{letter-spacing:0em;}.cls-68,.cls-79{letter-spacing:-0.01em;}.cls-70{letter-spacing:-0.01em;}.cls-71{letter-spacing:-0.02em;}.cls-72{font-size:9.91px;}.cls-73{fill-rule:evenodd;}.cls-74{letter-spacing:4.09em;}.cls-75{letter-spacing:-0.01em;}.cls-76{letter-spacing:4.55em;}.cls-77{letter-spacing:3.44em;}.cls-78{letter-spacing:4.53em;}.cls-80{letter-spacing:1.07em;}</style>
  </defs>
  <title>Tag_radiation_Sample</title>
  <rect class="cls-3" x="285.48" y="220.26" width="17.04" height="16.98" transform="matrix(0, 0.999998, -0.999999, 0, 535.96634, 139.814018)"/>
  <rect class="cls-3" x="72.18" y="219.54" width="18.42" height="18.42" transform="matrix(0, 0.999999, -1.000001, 0, 535.96675, 139.813559)"/>
  <g class="cls-5">
    <rect class="cls-3" x="2.82" y="253.08" width="72.48" height="0.36"/>
  </g>
  <g class="cls-5">
    <rect class="cls-3" x="6.54" y="249.36" width="65.04" height="0.36"/>
  </g>
  <g class="cls-5">
    <rect class="cls-3" x="6.18" y="249.72" width="65.76" height="0.42"/>
  </g>
  <g class="cls-5"/>
  <g class="cls-5"/>
  <g class="cls-5"/>
  <g class="cls-5">
    <rect class="cls-3" x="303.06" y="218.52" width="0.36" height="324.9"/>
  </g>
  <g class="cls-5"/>
  <g class="cls-5"/>
  <rect class="cls-3" x="74.28" y="407.82" width="2.22" height="48.84" transform="matrix(0, 1, -1, 0, 535.966553, 139.813492)"/>
  <rect class="cls-3" x="162.78" y="405.6" width="2.22" height="48.84" transform="matrix(0, 0.999986, -1, 0, 535.966553, 139.815745)"/>
  <rect class="cls-3" x="74.28" y="405.6" width="88.5" height="2.22" transform="matrix(0, 1, -1, 0, 535.966553, 139.813479)"/>
  <rect class="cls-3" x="71.22" y="237.96" width="0.36" height="11.4" transform="matrix(0, 1, -0.999997, 0, 535.9659, 139.813492)"/>
  <rect class="cls-3" x="74.88" y="237.96" width="0.42" height="15.12" transform="matrix(0, 1.000036, -1, 0, 535.966537, 139.810764)"/>
  <rect class="cls-3" x="74.52" y="237.96" width="0.36" height="14.76" transform="matrix(0, 0.999958, -0.999999, 0, 535.966291, 139.816658)"/>
  <rect class="cls-3" x="71.94" y="237.96" width="2.58" height="12.18" transform="matrix(0, 1, -0.999999, 0, 535.966239, 139.813492)"/>
  <rect class="cls-3" x="71.58" y="237.96" width="0.36" height="11.76" transform="matrix(0, 1, -0.999999, 0, 535.966229, 139.813492)"/>
  <g class="cls-5" transform="matrix(0, 1, -1, 0, 535.966553, 139.813492)">
    <rect class="cls-3" x="165" y="390.42" width="137.7" height="0.42"/>
  </g>
  <g class="cls-5" transform="matrix(0, 1, -1, 0, 535.966553, 139.813492)">
    <rect class="cls-3" x="165" y="387.48" width="137.7" height="0.36"/>
  </g>
  <g class="cls-5" transform="matrix(0, 1, -1, 0, 535.966553, 139.813492)">
    <rect class="cls-3" x="165" y="387.84" width="138.42" height="2.58"/>
  </g>
  <g class="cls-5" transform="matrix(0, 1, -1, 0, 535.966553, 139.813492)">
    <rect class="cls-3" x="71.22" y="329.16" width="3.3" height="50.58"/>
  </g>
  <g class="cls-5" transform="matrix(0, 1, -1, 0, 535.966553, 139.813492)">
    <rect class="cls-3" x="267.48" y="387.48" width="30.6" height="3.36"/>
  </g>
  <rect class="cls-3" x="90.6" y="218.52" width="194.88" height="4.08" transform="matrix(0, 1, -0.999996, 0, 535.96572, 139.813474)"/>
  <g class="cls-5" transform="matrix(0, 1, -1, 0, 535.966553, 139.813492)">
    <rect class="cls-3" x="171.18" y="389.04" width="68.04" height="1.8"/>
  </g>
  <rect class="cls-3" x="171.72" y="389.04" width="66.96" height="1.8" transform="matrix(0, 1, -1, 0, 535.966553, 139.813585)"/>
  <g class="cls-5" transform="matrix(0, 1, -1, 0, 535.966553, 139.813492)">
    <rect class="cls-3" x="171.18" y="387.48" width="68.04" height="1.56"/>
  </g>
  <rect class="cls-3" x="172.08" y="387.48" width="66.24" height="1.56" transform="matrix(0, 1, -1, 0, 535.966553, 139.813531)"/>
  <rect class="cls-3" x="168" y="406.26" width="0.36" height="48.06" transform="matrix(0, 1.000042, -1, 0, 535.966553, 139.806356)"/>
  <rect class="cls-3" x="165" y="406.26" width="0.36" height="48.06" transform="matrix(0, 1.000042, -1, 0, 535.966553, 139.806483)"/>
  <rect class="cls-3" x="165.36" y="406.26" width="2.64" height="48.42" transform="matrix(0, 0.999994, -1, 0, 535.966553, 139.814448)"/>
  <rect class="cls-3" x="91.26" y="225.24" width="194.22" height="0.36" transform="matrix(0, 1, -1.000042, 0, 535.976115, 139.813473)"/>
  <rect class="cls-3" x="90.6" y="222.6" width="194.88" height="2.64" transform="matrix(0, 1, -0.999994, 0, 535.965266, 139.813474)"/>
  <g class="cls-5" transform="matrix(0, 1, -1, 0, 535.966553, 139.813492)">
    <rect class="cls-3" x="71.22" y="404.58" width="93.78" height="0.42"/>
  </g>
  <rect class="cls-3" x="71.58" y="405" width="93.78" height="0.6" transform="matrix(0, 1, -1, 0, 535.966553, 139.813492)"/>
  <rect class="cls-3" x="71.22" y="405" width="0.36" height="52.26" transform="matrix(0, 1, -1, 0, 535.966553, 139.813492)"/>
  <rect class="cls-3" x="71.58" y="405.6" width="2.58" height="51.06" transform="matrix(0, 1, -1, 0, 535.966553, 139.813492)"/>
  <rect class="cls-3" x="71.58" y="218.88" width="19.02" height="0.66" transform="matrix(0, 1, -1, 0, 535.966553, 139.813492)"/>
  <rect class="cls-3" x="71.22" y="218.52" width="19.38" height="0.36" transform="matrix(0, 1, -0.999958, 0, 535.957275, 139.81352)"/>
  <rect class="cls-3" x="71.58" y="219.54" width="0.6" height="18.42" transform="matrix(0, 1.000013, -1.000001, 0, 535.96675, 139.812582)"/>
  <rect class="cls-3" x="71.22" y="218.88" width="0.36" height="19.08" transform="matrix(0, 1, -1.000001, 0, 535.966728, 139.813492)"/>
  <rect class="cls-3" x="75.36" y="237.96" width="15.9" height="2.58" transform="matrix(0, 1, -0.999994, 0, 535.96513, 139.813528)"/>
  <rect class="cls-3" x="76.38" y="240.54" width="15.24" height="0.42" transform="matrix(0, 1.000001, -1.000036, 0, 535.975307, 139.813446)"/>
  <rect class="cls-3" x="168" y="390.84" width="0.36" height="15.42" transform="matrix(0, 1.000042, -1, 0, 535.966553, 139.806356)"/>
  <g class="cls-5" transform="matrix(0, 1, -1, 0, 535.966553, 139.813492)">
    <rect class="cls-3" x="165" y="390.84" width="0.36" height="15.42"/>
  </g>
  <rect class="cls-3" x="165.36" y="390.84" width="2.64" height="15.42" transform="matrix(0, 0.999994, -1, 0, 535.966553, 139.814448)"/>
  <rect class="cls-3" x="285.48" y="218.52" width="17.1" height="1.02" transform="matrix(0, 0.999998, -0.999985, 0, 535.963269, 139.814017)"/>
  <rect class="cls-3" x="301.2" y="238.26" width="0.36" height="148.2" transform="matrix(0, 1, -1, 0, 535.966513, 139.813477)"/>
  <rect class="cls-3" x="301.56" y="237.24" width="1.02" height="150.24" transform="matrix(0, 1.00003, -1, 0, 535.966592, 139.804454)"/>
  <rect class="cls-3" x="91.62" y="225.6" width="192.84" height="1.8" transform="matrix(0, 1, -1.000008, 0, 535.968465, 139.813496)"/>
  <rect class="cls-3" x="92.64" y="227.4" width="191.46" height="0.36" transform="matrix(0, 1, -1.000042, 0, 535.976191, 139.813484)"/>
  <rect class="cls-3" x="91.62" y="227.4" width="1.02" height="14.58" transform="matrix(0, 0.999993, -0.999999, 0, 535.966315, 139.814185)"/>
  <rect class="cls-3" x="92.64" y="227.76" width="0.36" height="14.58" transform="matrix(0, 1, -0.999999, 0, 535.966299, 139.813492)"/>
  <rect class="cls-3" x="76.38" y="240.96" width="15.24" height="1.02" transform="matrix(0, 1.000001, -0.999985, 0, 535.962933, 139.813446)"/>
  <rect class="cls-3" x="76.74" y="241.98" width="15.9" height="0.36" transform="matrix(0, 1, -1.000042, 0, 535.976824, 139.813536)"/>
  <rect class="cls-3" x="75.36" y="240.54" width="1.02" height="12.9" transform="matrix(0, 0.999993, -1.000002, 0, 535.967137, 139.814056)"/>
  <rect class="cls-3" x="76.38" y="241.98" width="0.36" height="11.46" transform="matrix(0, 1.000042, -1.000001, 0, 535.96689, 139.810247)"/>
  <g class="cls-5" transform="matrix(0, 1, -1, 0, 535.966553, 139.813492)">
    <rect class="cls-3" x="156.78" y="386.46" width="144.78" height="1.02"/>
  </g>
  <g class="cls-5" transform="matrix(0, 1, -1, 0, 535.966553, 139.813492)">
    <rect class="cls-3" x="156.42" y="386.1" width="144.78" height="0.36"/>
  </g>
  <rect class="cls-3" x="171.18" y="386.1" width="68.04" height="1.38" transform="matrix(0, 1, -1, 0, 535.966553, 139.8134)"/>
  <rect class="cls-3" x="284.46" y="237.24" width="17.1" height="1.02" transform="matrix(0, 0.999998, -1.000015, 0, 535.970117, 139.814015)"/>
  <rect class="cls-3" x="284.1" y="238.26" width="17.1" height="0.36" transform="matrix(0, 0.999998, -0.999958, 0, 535.956439, 139.814014)"/>
  <g class="cls-5" transform="matrix(0, 1, -1, 0, 535.966553, 139.813492)">
    <rect class="cls-3" x="71.22" y="253.44" width="0.36" height="151.14"/>
  </g>
  <g class="cls-5" transform="matrix(0, 1, -1, 0, 535.966553, 139.813492)">
    <rect class="cls-3" x="74.16" y="253.44" width="0.36" height="151.14"/>
  </g>
  <g class="cls-5" transform="matrix(0, 1, -1, 0, 535.966553, 139.813492)">
    <rect class="cls-3" x="71.58" y="253.44" width="2.58" height="151.56"/>
  </g>
  <rect class="cls-3" x="90.6" y="225.24" width="0.6" height="12.72" transform="matrix(0, 1.000013, -1.000002, 0, 535.967108, 139.812332)"/>
  <rect class="cls-3" x="91.26" y="225.6" width="0.36" height="14.94" transform="matrix(0, 1.000042, -1, 0, 535.966553, 139.809616)"/>
  <rect class="cls-3" x="284.46" y="225.6" width="1.02" height="11.64" transform="matrix(0, 0.99997, -0.999999, 0, 535.966257, 139.822018)"/>
  <rect class="cls-3" x="284.1" y="227.4" width="0.36" height="10.86" transform="matrix(0, 1, -1.000001, 0, 535.966872, 139.813507)"/>
  <g class="cls-5" transform="matrix(0, 1, -1, 0, 535.966553, 139.813492)">
    <rect class="cls-3" x="74.52" y="253.44" width="1.86" height="151.56"/>
  </g>
  <g class="cls-5" transform="matrix(0, 1, -1, 0, 535.966553, 139.813492)">
    <rect class="cls-3" x="76.38" y="253.44" width="0.36" height="151.14"/>
  </g>
  <rect class="cls-3" x="306.78" y="221.52" width="21.24" height="0.36" transform="matrix(0, 1, -0.999958, 0, 535.957148, 139.813507)"/>
  <g class="cls-5" transform="matrix(0, 1, -1, 0, 535.966553, 139.813492)">
    <rect class="cls-3" x="302.58" y="341.4" width="0.12" height="2.52"/>
  </g>
  <g class="cls-5">
    <rect class="cls-3" x="252.36" y="153.06" width="0.42" height="65.46"/>
  </g>
  <rect class="cls-3" x="71.22" y="392.34" width="2.1" height="6.54" transform="matrix(0, 1.000004, -1, 0, 535.966553, 139.813233)"/>
  <rect class="cls-3" x="71.16" y="391.38" width="0.06" height="8.52" transform="matrix(0, 1, -1, 0, 535.966553, 139.813492)"/>
  <rect class="cls-3" x="157.8" y="387.48" width="7.2" height="0.36" transform="matrix(0, 0.999998, -1, 0, 535.966553, 139.813826)"/>
  <rect class="cls-3" x="158.16" y="387.84" width="6.84" height="2.64" transform="matrix(0, 0.999996, -1, 0, 535.966553, 139.814213)"/>
  <rect class="cls-3" x="157.8" y="387.84" width="0.36" height="16.74" transform="matrix(0, 1.000042, -1, 0, 535.966553, 139.806803)"/>
  <rect class="cls-3" x="158.16" y="390.48" width="2.58" height="14.52" transform="matrix(0, 0.999994, -1, 0, 535.966553, 139.814442)"/>
  <rect class="cls-3" x="156.42" y="386.46" width="0.36" height="18.12" transform="matrix(0, 1.000042, -1, 0, 535.966553, 139.806862)"/>
  <rect class="cls-3" x="156.78" y="387.48" width="1.02" height="17.52" transform="matrix(0, 0.999985, -1, 0, 535.966553, 139.815852)"/>
  <line class="cls-44" x1="124.787" y1="216.314" x2="122.567" y2="214.094" transform="matrix(0, 1, -1, 0, 338.881028, 91.526997)"/>
  <line class="cls-44" x1="130.367" y1="230.833" x2="128.146" y2="228.613" transform="matrix(0, 1, -1, 0, 358.979511, 100.466483)"/>
  <line class="cls-44" x1="130.367" y1="250.873" x2="128.147" y2="248.653" transform="matrix(0, 1, -1, 0, 379.020008, 120.505968)"/>
  <line class="cls-44" x1="130.367" y1="270.913" x2="128.147" y2="268.693" transform="matrix(0, 1, -1, 0, 399.059999, 140.545958)"/>
  <line class="cls-44" x1="130.367" y1="290.953" x2="128.147" y2="288.733" transform="matrix(0, 1, -1, 0, 419.100032, 160.585991)"/>
  <line class="cls-44" x1="145.607" y1="442.574" x2="145.307" y2="442.754" transform="matrix(0, 1, -1, 0, 588.121043, 297.207018)"/>
  <line class="cls-44" x1="133.097" y1="442.543" x2="133.337" y2="442.723" transform="matrix(0, 1, -1, 0, 575.84997, 309.415969)"/>
  <line class="cls-44" x1="174.407" y1="446.294" x2="173.987" y2="446.474" transform="matrix(0, 1, -1, 0, 620.580997, 272.187015)"/>
  <line class="cls-44" x1="254.177" y1="446.384" x2="253.877" y2="446.504" transform="matrix(0, 1, -1, 0, 700.471033, 192.417002)"/>
  <line class="cls-44" x1="243.917" y1="446.263" x2="244.337" y2="446.503" transform="matrix(0, 1, -1, 0, 690.509995, 202.255991)"/>
  <line class="cls-44" x1="164.147" y1="446.413" x2="164.387" y2="446.533" transform="matrix(0, 1, -1, 0, 610.739982, 282.205955)"/>
  <line class="cls-44" x1="150.947" y1="446.233" x2="151.187" y2="446.353" transform="matrix(0, 1, -1, 0, 597.359998, 295.226037)"/>
  <line class="cls-44" x1="174.107" y1="445.993" x2="173.927" y2="446.173" transform="matrix(0, 1, -1, 0, 620.100016, 272.06602)"/>
  <line class="cls-44" x1="244.217" y1="446.023" x2="244.397" y2="446.143" transform="matrix(0, 1, -1, 0, 690.390013, 201.776023)"/>
  <line class="cls-44" x1="151.037" y1="445.903" x2="151.397" y2="446.083" transform="matrix(0, 1, -1, 0, 597.210053, 294.776032)"/>
  <line class="cls-44" x1="213.947" y1="449.774" x2="213.947" y2="449.654" transform="matrix(0, 1, -1, 0, 663.661022, 235.767039)"/>
  <line class="cls-45" x1="313.637" y1="439.303" x2="312.857" y2="438.583" transform="matrix(0, 1, -1, 0, 752.189979, 125.695937)"/>
  <line class="cls-45" x1="303.317" y1="438.403" x2="302.537" y2="437.683" transform="matrix(0, 1, -1, 0, 740.970043, 135.116025)"/>
  <line class="cls-45" x1="311.657" y1="428.443" x2="310.817" y2="427.783" transform="matrix(0, 1, -1, 0, 739.349976, 116.875968)"/>
  <line class="cls-45" x1="301.337" y1="427.544" x2="300.497" y2="426.884" transform="matrix(0, 1, -1, 0, 728.130967, 126.296984)"/>
  <line class="cls-45" x1="300.977" y1="428.083" x2="301.037" y2="427.243" transform="matrix(0, 1, -1, 0, 728.670019, 126.656)"/>
  <line class="cls-45" x1="311.297" y1="428.984" x2="311.357" y2="428.144" transform="matrix(0, 1, -1, 0, 739.891011, 117.237052)"/>
  <line class="cls-45" x1="302.927" y1="438.914" x2="303.047" y2="438.073" transform="matrix(0, 1, -1, 0, 741.480523, 135.506482)"/>
  <polyline class="cls-45" points="313.637 439.423 313.757 438.583 312.857 438.703" transform="matrix(0, 1, -1, 0, 752.309961, 125.69598)"/>
  <line class="cls-45" x1="312.107" y1="428.054" x2="311.207" y2="428.234" transform="matrix(0, 1, -1, 0, 739.800951, 116.486946)"/>
  <line class="cls-45" x1="303.797" y1="438.043" x2="302.897" y2="438.163" transform="matrix(0, 1, -1, 0, 741.449926, 134.755996)"/>
  <line class="cls-45" x1="301.787" y1="427.154" x2="300.887" y2="427.334" transform="matrix(0, 1, -1, 0, 728.581014, 125.907034)"/>
  <line class="cls-45" x1="307.187" y1="437.714" x2="305.987" y2="436.633" transform="matrix(0, 1, -1, 0, 743.760509, 130.586481)"/>
  <line class="cls-45" x1="307.907" y1="437.173" x2="306.527" y2="437.353" transform="matrix(0, 1, -1, 0, 744.479976, 130.045953)"/>
  <line class="cls-45" x1="306.587" y1="438.493" x2="306.767" y2="437.233" transform="matrix(0, 1, -1, 0, 744.539988, 131.186009)"/>
  <line class="cls-45" x1="300.317" y1="442.604" x2="300.017" y2="441.764" transform="matrix(0, 1, -1, 0, 742.351033, 142.017008)"/>
  <line class="cls-45" x1="312.346" y1="438.074" x2="311.927" y2="437.054" transform="matrix(0, 1, -1, 0, 749.700543, 125.42753)"/>
  <line class="cls-45" x1="303.737" y1="432.284" x2="303.376" y2="431.263" transform="matrix(0, 1, -1, 0, 735.330026, 128.217026)"/>
  <line class="cls-45" x1="315.557" y1="427.483" x2="315.317" y2="426.943" transform="matrix(0, 1, -1, 0, 742.650079, 111.776016)"/>
  <line class="cls-45" x1="315.257" y1="427.784" x2="315.617" y2="427.244" transform="matrix(0, 1, -1, 0, 742.950982, 112.076919)"/>
  <line class="cls-45" x1="303.167" y1="432.554" x2="303.647" y2="431.834" transform="matrix(0, 1, -1, 0, 735.601008, 128.787054)"/>
  <polyline class="cls-45" points="312.107 438.313 312.587 437.594 311.687 437.294" transform="matrix(0, 1, -1, 0, 749.940506, 125.66648)"/>
  <line class="cls-45" x1="300.677" y1="442.243" x2="300.377" y2="442.124" transform="matrix(0, 1, -1, 0, 742.710513, 141.656515)"/>
  <line class="cls-45" x1="304.337" y1="432.164" x2="303.497" y2="431.863" transform="matrix(0, 1, -1, 0, 735.930482, 128.096496)"/>
  <line class="cls-45" x1="301.367" y1="426.434" x2="301.307" y2="426.374" transform="matrix(0, 1, -1, 0, 727.741017, 125.067037)"/>
  <line class="cls-45" x1="301.187" y1="431.173" x2="301.127" y2="431.113" transform="matrix(0, 1, -1, 0, 732.300018, 129.986025)"/>
  <line class="cls-45" x1="308.627" y1="425.474" x2="308.567" y2="425.414" transform="matrix(0, 1, -1, 0, 734.040995, 116.847017)"/>
  <line class="cls-45" x1="301.007" y1="435.973" x2="300.947" y2="435.913" transform="matrix(0, 1, -1, 0, 736.91996, 134.965954)"/>
  <line class="cls-45" x1="308.477" y1="430.304" x2="308.417" y2="430.184" transform="matrix(0, 1, -1, 0, 738.691027, 121.797024)"/>
  <line class="cls-45" x1="300.827" y1="440.773" x2="300.767" y2="440.713" transform="matrix(0, 1, -1, 0, 741.539986, 139.945966)"/>
  <line class="cls-45" x1="308.297" y1="435.104" x2="308.237" y2="434.984" transform="matrix(0, 1, -1, 0, 743.311053, 126.777037)"/>
  <line class="cls-45" x1="308.117" y1="439.903" x2="308.057" y2="439.783" transform="matrix(0, 1, -1, 0, 747.930067, 131.756037)"/>
  <line class="cls-45" x1="294.18" y1="220.26" x2="294.18" y2="220.26"/>
  <line class="cls-45" x1="315.587" y1="438.794" x2="315.527" y2="438.734" transform="matrix(0, 1, -1, 0, 754.321033, 123.207007)"/>
  <line class="cls-45" x1="301.007" y1="426.674" x2="301.007" y2="426.554" transform="matrix(0, 1, -1, 0, 727.621035, 125.607017)"/>
  <line class="cls-45" x1="310.097" y1="425.444" x2="310.097" y2="425.384" transform="matrix(0, 1, -1, 0, 735.511032, 115.317053)"/>
  <line class="cls-45" x1="306.317" y1="431.144" x2="306.257" y2="431.024" transform="matrix(0, 1, -1, 0, 737.37102, 124.797026)"/>
  <line class="cls-45" x1="309.947" y1="430.633" x2="309.887" y2="430.573" transform="matrix(0, 1, -1, 0, 740.519996, 120.686003)"/>
  <line class="cls-45" x1="315.377" y1="429.944" x2="315.317" y2="429.824" transform="matrix(0, 1, -1, 0, 745.23101, 114.537067)"/>
  <line class="cls-45" x1="302.507" y1="436.813" x2="302.507" y2="436.693" transform="matrix(0, 1, -1, 0, 739.259958, 134.246022)"/>
  <line class="cls-45" x1="306.107" y1="436.333" x2="306.107" y2="436.213" transform="matrix(0, 1, -1, 0, 742.379983, 130.165976)"/>
  <line class="cls-45" x1="311.567" y1="435.614" x2="311.567" y2="435.494" transform="matrix(0, 1, -1, 0, 747.121004, 123.987035)"/>
  <line class="cls-45" x1="302.327" y1="442.034" x2="302.327" y2="441.914" transform="matrix(0, 1, -1, 0, 744.301038, 139.647004)"/>
  <line class="cls-45" x1="307.787" y1="441.313" x2="307.787" y2="441.193" transform="matrix(0, 1, -1, 0, 749.039948, 133.465953)"/>
  <line class="cls-45" x1="309.587" y1="426.253" x2="309.647" y2="426.193" transform="matrix(0, 1, -1, 0, 735.84, 116.605957)"/>
  <line class="cls-45" x1="301.907" y1="425.893" x2="301.967" y2="425.833" transform="matrix(0, 1, -1, 0, 727.800016, 123.925968)"/>
  <line class="cls-45" x1="314.447" y1="433.933" x2="314.507" y2="433.873" transform="matrix(0, 1, -1, 0, 748.379987, 119.425965)"/>
  <line class="cls-45" x1="306.767" y1="433.573" x2="306.827" y2="433.513" transform="matrix(0, 1, -1, 0, 740.340003, 126.745976)"/>
  <line class="cls-45" x1="309.857" y1="435.523" x2="309.857" y2="435.464" transform="matrix(0, 1, -1, 0, 745.350486, 125.636516)"/>
  <line class="cls-45" x1="299.087" y1="433.274" x2="299.147" y2="433.214" transform="matrix(0, 1, -1, 0, 732.361043, 134.127011)"/>
  <line class="cls-45" x1="302.117" y1="435.224" x2="302.177" y2="435.103" transform="matrix(0, 1, -1, 0, 737.310501, 133.016455)"/>
  <line class="cls-45" x1="311.597" y1="441.284" x2="311.657" y2="441.164" transform="matrix(0, 1, -1, 0, 752.850996, 129.597003)"/>
  <line class="cls-45" x1="303.917" y1="440.923" x2="303.977" y2="440.803" transform="matrix(0, 1, -1, 0, 744.809999, 136.916001)"/>
  <line class="cls-45" x1="314.357" y1="426.703" x2="314.417" y2="426.583" transform="matrix(0, 1, -1, 0, 741.02997, 112.255984)"/>
  <line class="cls-45" x1="305.957" y1="428.143" x2="306.017" y2="428.023" transform="matrix(0, 1, -1, 0, 734.069988, 122.096028)"/>
  <line class="cls-45" x1="309.407" y1="431.293" x2="309.467" y2="431.233" transform="matrix(0, 1, -1, 0, 740.699989, 121.825933)"/>
  <line class="cls-45" x1="314.927" y1="436.333" x2="314.987" y2="436.273" transform="matrix(0, 1, -1, 0, 751.260049, 121.346007)"/>
  <line class="cls-45" x1="301.007" y1="432.734" x2="301.067" y2="432.673" transform="matrix(0, 1, -1, 0, 733.740472, 131.666526)"/>
  <line class="cls-45" x1="306.527" y1="437.773" x2="306.587" y2="437.713" transform="matrix(0, 1, -1, 0, 744.299983, 131.185967)"/>
  <line class="cls-45" x1="315.017" y1="226.244" x2="314.177" y2="225.584" transform="matrix(0, 1, -1, 0, 540.511009, -88.682975)"/>
  <line class="cls-45" x1="304.697" y1="225.344" x2="303.857" y2="224.684" transform="matrix(0, 1, -1, 0, 529.290988, -79.262972)"/>
  <line class="cls-45" x1="313.007" y1="215.473" x2="312.167" y2="214.753" transform="matrix(0, 1, -1, 0, 527.699999, -97.473951)"/>
  <line class="cls-45" x1="302.687" y1="214.573" x2="301.847" y2="213.853" transform="matrix(0, 1, -1, 0, 516.48002, -88.05399)"/>
  <line class="cls-45" x1="302.327" y1="215.113" x2="302.387" y2="214.214" transform="matrix(0, 1, -1, 0, 517.020506, -87.693455)"/>
  <line class="cls-45" x1="312.647" y1="216.013" x2="312.707" y2="215.113" transform="matrix(0, 1, -1, 0, 528.239979, -97.114007)"/>
  <line class="cls-45" x1="304.337" y1="225.883" x2="304.397" y2="225.043" transform="matrix(0, 1, -1, 0, 529.829997, -78.903998)"/>
  <polyline class="cls-45" points="315.077 226.364 315.137 225.524 314.237 225.704" transform="matrix(0, 1, -1, 0, 540.630991, -88.743029)"/>
  <line class="cls-45" x1="313.487" y1="215.053" x2="312.587" y2="215.234" transform="matrix(0, 1, -1, 0, 528.180473, -97.893486)"/>
  <line class="cls-45" x1="305.147" y1="224.954" x2="304.247" y2="225.134" transform="matrix(0, 1, -1, 0, 529.741035, -79.653006)"/>
  <line class="cls-45" x1="303.167" y1="214.153" x2="302.267" y2="214.333" transform="matrix(0, 1, -1, 0, 516.959946, -88.473989)"/>
  <line class="cls-45" x1="313.067" y1="229.153" x2="311.927" y2="228.013" transform="matrix(0, 1, -1, 0, 541.080025, -83.913974)"/>
  <line class="cls-45" x1="310.787" y1="212.773" x2="310.007" y2="211.993" transform="matrix(0, 1, -1, 0, 522.779956, -98.013974)"/>
  <line class="cls-45" x1="313.847" y1="228.613" x2="312.467" y2="228.793" transform="matrix(0, 1, -1, 0, 541.86001, -84.453997)"/>
  <line class="cls-45" x1="311.747" y1="212.414" x2="310.787" y2="212.534" transform="matrix(0, 1, -1, 0, 523.740989, -98.79303)"/>
  <line class="cls-45" x1="310.577" y1="213.524" x2="310.757" y2="212.204" transform="matrix(0, 1, -1, 0, 523.53099, -97.802961)"/>
  <line class="cls-45" x1="312.467" y1="229.933" x2="312.707" y2="228.613" transform="matrix(0, 1, -1, 0, 541.86001, -83.314025)"/>
  <line class="cls-45" x1="308.267" y1="230.413" x2="307.847" y2="229.393" transform="matrix(0, 1, -1, 0, 537.959999, -78.154018)"/>
  <line class="cls-45" x1="299.657" y1="224.564" x2="299.237" y2="223.604" transform="matrix(0, 1, -1, 0, 523.531032, -75.363045)"/>
  <line class="cls-45" x1="311.747" y1="219.974" x2="311.327" y2="218.954" transform="matrix(0, 1, -1, 0, 531.000988, -92.072969)"/>
  <line class="cls-45" x1="303.167" y1="214.154" x2="302.747" y2="213.133" transform="matrix(0, 1, -1, 0, 516.600508, -89.313521)"/>
  <line class="cls-45" x1="302.567" y1="214.454" x2="303.047" y2="213.734" transform="matrix(0, 1, -1, 0, 516.901031, -88.713023)"/>
  <line class="cls-45" x1="311.147" y1="220.274" x2="311.627" y2="219.554" transform="matrix(0, 1, -1, 0, 531.301047, -91.47302)"/>
  <line class="cls-45" x1="299.087" y1="224.893" x2="299.567" y2="224.173" transform="matrix(0, 1, -1, 0, 523.86, -74.79403)"/>
  <line class="cls-45" x1="307.637" y1="230.504" x2="307.937" y2="230.024" transform="matrix(0, 1, -1, 0, 538.050988, -77.523008)"/>
  <line class="cls-45" x1="308.807" y1="230.174" x2="308.087" y2="229.934" transform="matrix(0, 1, -1, 0, 538.500992, -78.393011)"/>
  <line class="cls-45" x1="312.347" y1="219.854" x2="311.447" y2="219.553" transform="matrix(0, 1, -1, 0, 531.600474, -92.193457)"/>
  <line class="cls-45" x1="300.227" y1="224.474" x2="299.387" y2="224.234" transform="matrix(0, 1, -1, 0, 524.16103, -75.453021)"/>
  <line class="cls-45" x1="303.767" y1="214.034" x2="302.867" y2="213.734" transform="matrix(0, 1, -1, 0, 517.201006, -89.432997)"/>
  <line class="cls-45" x1="301.667" y1="216.493" x2="301.607" y2="216.434" transform="matrix(0, 1, -1, 0, 518.100508, -85.173506)"/>
  <line class="cls-45" x1="301.487" y1="221.293" x2="301.427" y2="221.233" transform="matrix(0, 1, -1, 0, 522.720028, -80.193999)"/>
  <line class="cls-45" x1="309.077" y1="215.504" x2="309.017" y2="215.384" transform="matrix(0, 1, -1, 0, 524.491011, -93.602976)"/>
  <line class="cls-45" x1="301.337" y1="226.124" x2="301.277" y2="226.004" transform="matrix(0, 1, -1, 0, 527.371031, -75.243022)"/>
  <line class="cls-45" x1="308.897" y1="220.303" x2="308.837" y2="220.183" transform="matrix(0, 1, -1, 0, 529.109982, -88.624018)"/>
  <line class="cls-45" x1="316.367" y1="214.573" x2="316.307" y2="214.513" transform="matrix(0, 1, -1, 0, 530.879994, -101.794003)"/>
  <line class="cls-45" x1="308.747" y1="225.074" x2="308.687" y2="225.014" transform="matrix(0, 1, -1, 0, 533.761027, -83.672998)"/>
  <line class="cls-45" x1="316.187" y1="219.373" x2="316.127" y2="219.313" transform="matrix(0, 1, -1, 0, 535.50002, -96.81399)"/>
  <line class="cls-45" x1="308.567" y1="229.873" x2="308.507" y2="229.813" transform="matrix(0, 1, -1, 0, 538.379998, -78.693956)"/>
  <line class="cls-45" x1="316.007" y1="224.173" x2="315.947" y2="224.113" transform="matrix(0, 1, -1, 0, 540.119962, -91.833977)"/>
  <line class="cls-45" x1="315.827" y1="228.913" x2="315.767" y2="228.854" transform="matrix(0, 1, -1, 0, 544.680482, -86.91347)"/>
  <line class="cls-45" x1="302.027" y1="214.093" x2="302.027" y2="213.973" transform="matrix(0, 1, -1, 0, 516.060021, -87.993978)"/>
  <line class="cls-45" x1="305.627" y1="213.613" x2="305.627" y2="213.493" transform="matrix(0, 1, -1, 0, 519.180004, -92.073982)"/>
  <line class="cls-45" x1="311.087" y1="212.894" x2="311.087" y2="212.774" transform="matrix(0, 1, -1, 0, 523.921025, -98.253008)"/>
  <line class="cls-45" x1="298.247" y1="219.793" x2="298.247" y2="219.673" transform="matrix(0, 1, -1, 0, 517.98002, -78.514005)"/>
  <line class="cls-45" x1="301.847" y1="219.313" x2="301.847" y2="219.193" transform="matrix(0, 1, -1, 0, 521.099961, -82.593967)"/>
  <line class="cls-45" x1="307.307" y1="218.594" x2="307.307" y2="218.474" transform="matrix(0, 1, -1, 0, 525.840982, -88.772993)"/>
  <line class="cls-45" x1="316.397" y1="217.364" x2="316.397" y2="217.303" transform="matrix(0, 1, -1, 0, 533.730514, -99.063506)"/>
  <line class="cls-45" x1="298.097" y1="224.983" x2="298.037" y2="224.863" transform="matrix(0, 1, -1, 0, 522.989997, -73.143957)"/>
  <line class="cls-45" x1="303.527" y1="224.293" x2="303.527" y2="224.173" transform="matrix(0, 1, -1, 0, 527.760011, -79.29399)"/>
  <line class="cls-45" x1="312.617" y1="223.064" x2="312.617" y2="223.004" transform="matrix(0, 1, -1, 0, 535.65102, -89.583026)"/>
  <line class="cls-45" x1="316.217" y1="222.583" x2="316.217" y2="222.523" transform="matrix(0, 1, -1, 0, 538.769991, -93.664043)"/>
  <line class="cls-45" x1="299.717" y1="229.903" x2="299.717" y2="229.843" transform="matrix(0, 1, -1, 0, 529.589992, -69.844023)"/>
  <line class="cls-45" x1="308.807" y1="228.734" x2="308.807" y2="228.614" transform="matrix(0, 1, -1, 0, 537.481002, -80.132975)"/>
  <line class="cls-45" x1="312.437" y1="228.284" x2="312.377" y2="228.164" transform="matrix(0, 1, -1, 0, 540.631033, -84.183015)"/>
  <line class="cls-45" x1="312.077" y1="217.543" x2="312.137" y2="217.423" transform="matrix(0, 1, -1, 0, 529.589992, -94.624022)"/>
  <line class="cls-45" x1="304.367" y1="217.154" x2="304.427" y2="217.093" transform="matrix(0, 1, -1, 0, 521.520509, -87.273498)"/>
  <line class="cls-45" x1="309.287" y1="224.833" x2="309.347" y2="224.773" transform="matrix(0, 1, -1, 0, 534.120001, -84.514008)"/>
  <line class="cls-45" x1="312.317" y1="226.783" x2="312.317" y2="226.723" transform="matrix(0, 1, -1, 0, 539.070008, -85.564005)"/>
  <line class="cls-45" x1="301.577" y1="224.563" x2="301.637" y2="224.443" transform="matrix(0, 1, -1, 0, 526.10998, -77.104022)"/>
  <line class="cls-45" x1="304.607" y1="226.453" x2="304.667" y2="226.393" transform="matrix(0, 1, -1, 0, 531.060029, -78.213988)"/>
  <line class="cls-45" x1="309.917" y1="212.503" x2="309.977" y2="212.383" transform="matrix(0, 1, -1, 0, 522.390005, -97.504)"/>
  <line class="cls-45" x1="315.407" y1="217.514" x2="315.467" y2="217.454" transform="matrix(0, 1, -1, 0, 532.92103, -97.953033)"/>
  <line class="cls-45" x1="301.547" y1="213.914" x2="301.607" y2="213.854" transform="matrix(0, 1, -1, 0, 515.461, -87.692991)"/>
  <line class="cls-45" x1="307.007" y1="218.953" x2="307.067" y2="218.893" transform="matrix(0, 1, -1, 0, 525.959993, -88.11396)"/>
  <line class="cls-45" x1="314.807" y1="226.093" x2="314.867" y2="226.033" transform="matrix(0, 1, -1, 0, 540.899989, -88.774006)"/>
  <line class="cls-45" x1="298.607" y1="220.393" x2="298.667" y2="220.333" transform="matrix(0, 1, -1, 0, 519.000011, -78.274)"/>
  <line class="cls-45" x1="306.407" y1="227.533" x2="306.467" y2="227.473" transform="matrix(0, 1, -1, 0, 533.940049, -78.934004)"/>
  <line class="cls-45" x1="298.007" y1="228.973" x2="298.067" y2="228.913" transform="matrix(0, 1, -1, 0, 526.979983, -69.093959)"/>
  <line class="cls-44" x1="286.607" y1="211.153" x2="286.907" y2="211.333" transform="matrix(0, 1, -1, 0, 497.999999, -75.514046)"/>
  <line class="cls-44" x1="286.847" y1="214.813" x2="286.427" y2="214.993" transform="matrix(0, 1, -1, 0, 501.539981, -71.734017)"/>
  <line class="cls-44" x1="286.397" y1="211.484" x2="286.757" y2="211.664" transform="matrix(0, 1, -1, 0, 498.151, -75.002974)"/>
  <line class="cls-44" x1="148.607" y1="401.354" x2="148.007" y2="401.714" transform="matrix(0, 1, -1, 0, 549.841037, 253.226984)"/>
  <line class="cls-44" x1="148.276" y1="404.744" x2="148.517" y2="404.924" transform="matrix(0, 1, -1, 0, 553.230483, 256.437491)"/>
  <line class="cls-44" x1="317.267" y1="242.534" x2="317.267" y2="242.174" transform="matrix(0, 1, -1, 0, 559.621027, -74.912999)"/>
  <line class="cls-44" x1="317.267" y1="265.573" x2="317.267" y2="265.214" transform="matrix(0, 1, -1, 0, 582.660513, -51.873513)"/>
  <line class="cls-44" x1="317.267" y1="288.613" x2="317.267" y2="288.253" transform="matrix(0, 1, -1, 0, 605.699999, -28.834027)"/>
  <line class="cls-44" x1="317.267" y1="305.893" x2="317.267" y2="305.533" transform="matrix(0, 1, -1, 0, 622.980036, -11.55399)"/>
  <line class="cls-44" x1="317.267" y1="328.933" x2="317.267" y2="328.573" transform="matrix(0, 1, -1, 0, 646.019986, 11.48596)"/>
  <line class="cls-44" x1="317.267" y1="351.973" x2="317.267" y2="351.613" transform="matrix(0, 1, -1, 0, 669.060021, 34.525995)"/>
  <line class="cls-44" x1="317.267" y1="369.253" x2="317.267" y2="368.893" transform="matrix(0, 1, -1, 0, 686.340015, 51.805989)"/>
  <line class="cls-44" x1="317.267" y1="415.333" x2="317.267" y2="414.974" transform="matrix(0, 1, -1, 0, 732.420506, 97.88648)"/>
  <line class="cls-44" x1="317.236" y1="417.404" x2="317.056" y2="417.523" transform="matrix(0, 1, -1, 0, 734.609504, 100.317551)"/>
  <line class="cls-44" x1="317.447" y1="290.773" x2="316.966" y2="291.013" transform="matrix(0, 1, -1, 0, 608.099503, -26.313487)"/>
  <line class="cls-44" x1="116.88" y1="218.52" x2="116.88" y2="218.52"/>
  <line class="cls-44" x1="316.967" y1="262.094" x2="317.447" y2="262.333" transform="matrix(0, 1, -1, 0, 579.420507, -54.993496)"/>
  <line class="cls-44" x1="313.817" y1="319.003" x2="313.337" y2="319.303" transform="matrix(0, 1, -1, 0, 632.73002, 5.576017)"/>
  <line class="cls-44" x1="313.307" y1="326.294" x2="313.547" y2="326.414" transform="matrix(0, 1, -1, 0, 639.781033, 12.927004)"/>
  <line class="cls-44" x1="313.967" y1="319.453" x2="313.667" y2="319.634" transform="matrix(0, 1, -1, 0, 633.360524, 5.72651)"/>
  <line class="cls-44" x1="313.667" y1="313.813" x2="314.207" y2="314.113" transform="matrix(0, 1, -1, 0, 627.900037, 0.025976)"/>
  <line class="cls-44" x1="316.907" y1="242.534" x2="316.907" y2="242.174" transform="matrix(0, 1, -1, 0, 559.261041, -74.553012)"/>
  <line class="cls-44" x1="316.907" y1="265.574" x2="316.907" y2="265.214" transform="matrix(0, 1, -1, 0, 582.300991, -51.513062)"/>
  <line class="cls-44" x1="316.907" y1="288.614" x2="316.907" y2="288.254" transform="matrix(0, 1, -1, 0, 605.341068, -28.472985)"/>
  <line class="cls-44" x1="316.907" y1="305.893" x2="316.907" y2="305.534" transform="matrix(0, 1, -1, 0, 622.620513, -11.193539)"/>
  <line class="cls-44" x1="316.907" y1="328.934" x2="316.907" y2="328.573" transform="matrix(0, 1, -1, 0, 645.660506, 11.846453)"/>
  <line class="cls-44" x1="316.907" y1="351.973" x2="316.907" y2="351.613" transform="matrix(0, 1, -1, 0, 668.700034, 34.885981)"/>
  <line class="cls-44" x1="316.907" y1="369.253" x2="316.907" y2="368.893" transform="matrix(0, 1, -1, 0, 685.980028, 52.165976)"/>
  <line class="cls-44" x1="316.907" y1="415.333" x2="316.907" y2="414.974" transform="matrix(0, 1, -1, 0, 732.06052, 98.246467)"/>
  <line class="cls-44" x1="317.207" y1="416.893" x2="316.607" y2="417.254" transform="matrix(0, 1, -1, 0, 733.980477, 100.166508)"/>
  <line class="cls-44" x1="317.146" y1="290.354" x2="316.786" y2="290.594" transform="matrix(0, 1, -1, 0, 607.439963, -26.492003)"/>
  <line class="cls-44" x1="316.786" y1="262.513" x2="317.147" y2="262.753" transform="matrix(0, 1, -1, 0, 579.599487, -54.333492)"/>
  <line class="cls-44" x1="310.457" y1="348.223" x2="310.337" y2="348.283" transform="matrix(0, 1, -1, 0, 658.649991, 37.855977)"/>
  <line class="cls-44" x1="310.367" y1="411.733" x2="310.847" y2="411.973" transform="matrix(0, 1, -1, 0, 722.460016, 101.246004)"/>
  <line class="cls-44" x1="310.217" y1="285.043" x2="310.877" y2="285.403" transform="matrix(0, 1, -1, 0, 595.770022, -25.323967)"/>
  <line class="cls-44" x1="310.457" y1="238.903" x2="310.817" y2="239.083" transform="matrix(0, 1, -1, 0, 549.630025, -71.643999)"/>
  <line class="cls-44" x1="131.507" y1="244.934" x2="130.847" y2="245.354" transform="matrix(0, 1, -1, 0, 376.321036, 113.966997)"/>
  <line class="cls-44" x1="130.997" y1="227.564" x2="130.997" y2="227.624" transform="matrix(0, 1, -1, 0, 358.590996, 96.597027)"/>
  <line class="cls-44" x1="317.267" y1="225.254" x2="317.267" y2="224.894" transform="matrix(0, 1, -1, 0, 542.341033, -92.192993)"/>
  <line class="cls-44" x1="316.937" y1="215.864" x2="317.597" y2="216.224" transform="matrix(0, 1, -1, 0, 533.311022, -101.223004)"/>
  <line class="cls-44" x1="130.967" y1="307.873" x2="131.327" y2="308.113" transform="matrix(0, 1, -1, 0, 439.139981, 176.845953)"/>
  <line class="cls-44" x1="317.267" y1="432.613" x2="317.267" y2="432.253" transform="matrix(0, 1, -1, 0, 749.699994, 115.165968)"/>
  <line class="cls-44" x1="217.937" y1="441.104" x2="217.577" y2="441.284" transform="matrix(0, 1, -1, 0, 658.95102, 223.437051)"/>
  <line class="cls-44" x1="297.707" y1="441.193" x2="297.467" y2="441.313" transform="matrix(0, 1, -1, 0, 738.839959, 143.665941)"/>
  <line class="cls-44" x1="293.537" y1="441.224" x2="293.717" y2="441.344" transform="matrix(0, 1, -1, 0, 734.91104, 147.656983)"/>
  <line class="cls-44" x1="280.307" y1="441.073" x2="280.547" y2="441.193" transform="matrix(0, 1, -1, 0, 721.560007, 160.706015)"/>
  <line class="cls-44" x1="233.897" y1="441.044" x2="233.957" y2="441.044" transform="matrix(0, 1, -1, 0, 674.971061, 207.117036)"/>
  <line class="cls-44" x1="308.687" y1="402.133" x2="308.087" y2="402.493" transform="matrix(0, 1, -1, 0, 710.700015, 93.925951)"/>
  <line class="cls-44" x1="308.657" y1="275.444" x2="308.117" y2="275.803" transform="matrix(0, 1, -1, 0, 584.010527, -32.763537)"/>
  <line class="cls-44" x1="308.297" y1="403.964" x2="308.657" y2="404.143" transform="matrix(0, 1, -1, 0, 712.530503, 95.576488)"/>
  <line class="cls-44" x1="308.087" y1="277.273" x2="308.687" y2="277.633" transform="matrix(0, 1, -1, 0, 585.840044, -30.934019)"/>
  <line class="cls-44" x1="303.527" y1="232.454" x2="303.407" y2="232.574" transform="matrix(0, 1, -1, 0, 535.981043, -70.953018)"/>
  <line class="cls-44" x1="293.837" y1="230.983" x2="293.837" y2="230.683" transform="matrix(0, 1, -1, 0, 524.669991, -63.003981)"/>
  <line class="cls-44" x1="149.777" y1="386.444" x2="149.777" y2="386.264" transform="matrix(0, 1, -1, 0, 536.130988, 236.57703)"/>
  <line class="cls-44" x1="149.777" y1="397.964" x2="149.777" y2="397.784" transform="matrix(0, 1, -1, 0, 547.650985, 248.097026)"/>
  <line class="cls-44" x1="144.797" y1="211.063" x2="144.677" y2="211.123" transform="matrix(0, 1, -1, 0, 355.829986, 66.355993)"/>
  <line class="cls-44" x1="240.047" y1="211.093" x2="240.407" y2="211.333" transform="matrix(0, 1, -1, 0, 451.440004, -29.013978)"/>
  <line class="cls-44" x1="266.297" y1="214.004" x2="266.117" y2="214.124" transform="matrix(0, 1, -1, 0, 480.271013, -52.143017)"/>
  <line class="cls-44" x1="278.477" y1="214.003" x2="278.537" y2="214.003" transform="matrix(0, 1, -1, 0, 492.510012, -64.503981)"/>
  <line class="cls-44" x1="308.387" y1="231.133" x2="308.627" y2="231.253" transform="matrix(0, 1, -1, 0, 539.700005, -77.314021)"/>
  <line class="cls-44" x1="214.457" y1="216.464" x2="214.337" y2="216.523" transform="matrix(0, 1, -1, 0, 430.890503, 2.096511)"/>
  <line class="cls-44" x1="274.157" y1="216.223" x2="274.037" y2="216.283" transform="matrix(0, 1, -1, 0, 490.349966, -57.843974)"/>
  <line class="cls-46" x1="104.837" y1="239.623" x2="104.837" y2="193.003" transform="matrix(0, 1, -1, 0, 321.150016, 111.475999)"/>
  <polyline class="cls-46" points="102.617 190.784 102.617 239.624 104.837 239.624" transform="matrix(0, 1, -1, 0, 318.931013, 111.477012)"/>
  <line class="cls-46" x1="104.837" y1="279.284" x2="104.837" y2="325.904" transform="matrix(0, 1, -1, 0, 407.431019, 197.757002)"/>
  <polyline class="cls-46" points="107.057 328.124 107.057 279.284 104.837 279.284" transform="matrix(0, 1, -1, 0, 409.650993, 197.75696)"/>
  <line class="cls-46" x1="85.007" y1="259.453" x2="171.287" y2="259.453" transform="matrix(0, 1, -1, 0, 387.600015, 131.30599)"/>
  <polyline class="cls-46" points="173.507 257.233 85.007 257.233 85.007 259.453" transform="matrix(0, 1, -1, 0, 387.600057, 129.086016)"/>
  <polyline class="cls-46" points="280.697 213.283 288.437 213.283 288.437 212.923 288.437 209.203" transform="matrix(0, 1, -1, 0, 495.810031, -73.323993)"/>
  <polyline class="cls-46" points="286.397 207.163 282.737 207.163 282.737 211.243" transform="matrix(0, 1, -1, 0, 493.770008, -75.364016)"/>
  <line class="cls-44" x1="286.547" y1="211.033" x2="279.227" y2="211.033" transform="matrix(0, 1, -1, 0, 493.919995, -71.853956)"/>
  <line class="cls-44" x1="288.257" y1="209.383" x2="284.237" y2="209.383" transform="matrix(0, 1, -1, 0, 495.629996, -76.864017)"/>
  <line class="cls-44" x1="288.017" y1="209.563" x2="283.637" y2="209.563" transform="matrix(0, 1, -1, 0, 495.38999, -76.264025)"/>
  <line class="cls-44" x1="286.727" y1="210.853" x2="279.767" y2="210.853" transform="matrix(0, 1, -1, 0, 494.099989, -72.39402)"/>
  <line class="cls-46" x1="232.967" y1="358.034" x2="232.967" y2="526.994" transform="matrix(0, 1, -1, 0, 675.481035, 209.547051)"/>
  <line class="cls-46" x1="174.841" y1="485.639" x2="174.841" y2="407.548" transform="matrix(0, 1, -1, 0, 621.434499, 271.752499)"/>
  <polyline class="cls-46" points="269.747 494.294 269.747 394.814 265.667 394.814" transform="matrix(0, 1, -1, 0, 712.26104, 176.847008)"/>
  <line class="cls-44" x1="140.161" y1="448.259" x2="140.161" y2="437.488" transform="matrix(0, 1, -1, 0, 583.034511, 302.712536)"/>
  <line class="cls-44" x1="232.787" y1="527.534" x2="232.787" y2="358.214" transform="matrix(0, 1, -1, 0, 675.661029, 210.087031)"/>
  <line class="cls-44" x1="176.178" y1="484.242" x2="176.178" y2="408.105" transform="matrix(0, 1, -1, 0, 622.351473, 269.995527)"/>
  <line class="cls-44" x1="267.527" y1="496.094" x2="267.527" y2="396.254" transform="matrix(0, 1, -1, 0, 713.701029, 178.646984)"/>
  <line class="cls-44" x1="174.661" y1="485.819" x2="174.661" y2="405.808" transform="matrix(0, 1, -1, 0, 620.47452, 271.152507)"/>
  <line class="cls-44" x1="267.347" y1="495.914" x2="267.347" y2="395.714" transform="matrix(0, 1, -1, 0, 713.161007, 178.467032)"/>
  <line class="cls-44" x1="146.837" y1="444.524" x2="146.837" y2="441.944" transform="matrix(0, 1, -1, 0, 590.071006, 296.397027)"/>
  <line class="cls-44" x1="138.579" y1="449.736" x2="139.044" y2="436.266" transform="matrix(0, 1, -1, 0, 581.812456, 304.189494)"/>
  <line class="cls-44" x1="232.787" y1="527.894" x2="232.787" y2="358.574" transform="matrix(0, 1, -1, 0, 676.021015, 210.447018)"/>
  <line class="cls-46" x1="203.243" y1="457.238" x2="224.531" y2="457.238" transform="matrix(0, 1, -1, 0, 671.125028, 243.351068)"/>
  <line class="cls-46" x1="228.551" y1="457.178" x2="207.382" y2="457.178" transform="matrix(0, 1, -1, 0, 675.144513, 239.211558)"/>
  <line class="cls-44" x1="224.847" y1="457.194" x2="203.646" y2="457.194" transform="matrix(0, 1, -1, 0, 671.440491, 242.947486)"/>
  <polyline class="cls-44" points="228.462 457.191 206.649 457.029 206.229 457.029 205.869 457.029" transform="matrix(0, 1, -1, 0, 674.275523, 239.944488)"/>
  <line class="cls-44" x1="214.847" y1="445.993" x2="214.487" y2="445.993" transform="matrix(0, 1, -1, 0, 660.66005, 231.326035)"/>
  <polyline class="cls-44" points="225.602 457.109 204.151 457.109 203.731 457.109" transform="matrix(0, 1, -1, 0, 671.775494, 242.442492)"/>
  <line class="cls-44" x1="214.457" y1="446.383" x2="214.037" y2="446.383" transform="matrix(0, 1, -1, 0, 660.630002, 232.135984)"/>
  <line class="cls-47" x1="70.127" y1="287.113" x2="139.547" y2="244.573" transform="matrix(0, 1, -1, 0, 370.680007, 161.00599)"/>
  <line class="cls-47" x1="70.127" y1="244.573" x2="139.547" y2="287.113" transform="matrix(0, 1, -1, 0, 370.680007, 161.00599)"/>
  <polyline class="cls-48" points="315.737 425.323 298.697 425.323 298.697 442.304 315.737 442.304 315.737 425.323" transform="matrix(0, 1, -1, 0, 741.030476, 126.596537)"/>
  <polyline class="cls-48" points="316.427 211.993 298.007 211.993 298.007 230.414 316.427 230.414 316.427 211.993" transform="matrix(0, 1, -1, 0, 528.420479, -86.013461)"/>
  <line class="cls-44" x1="104.837" y1="203.563" x2="104.837" y2="250.183" transform="matrix(0, 1, -1, 0, 331.709992, 122.035974)"/>
  <line class="cls-44" x1="169.337" y1="265.844" x2="91.397" y2="265.844" transform="matrix(0, 1, -1, 0, 396.210998, 135.477025)"/>
  <polyline class="cls-44" points="70.127 244.573 139.547 244.573 139.547 287.113 70.127 287.113 70.127 244.573" transform="matrix(0, 1, -1, 0, 370.680007, 161.00599)"/>
  <line class="cls-46" x1="292.307" y1="205.333" x2="292.307" y2="216.733" transform="matrix(0, 1, -1, 0, 503.339999, -81.274044)"/>
  <polyline class="cls-46" points="293.867 219.254 293.867 207.854 290.747 207.854" transform="matrix(0, 1, -1, 0, 505.861003, -78.75304)"/>
  <polyline class="cls-44" points="292.487 216.913 292.487 205.513 292.127 205.513" transform="matrix(0, 1, -1, 0, 503.520034, -81.094008)"/>
  <polyline class="cls-44" points="284.747 212.833 284.747 216.193 284.747 216.553" transform="matrix(0, 1, -1, 0, 499.439988, -70.054022)"/>
  <polyline class="cls-44" points="284.927 212.653 284.927 213.433 284.927 216.013" transform="matrix(0, 1, -1, 0, 499.259995, -70.594002)"/>
  <line class="cls-44" x1="292.307" y1="220.393" x2="292.307" y2="208.993" transform="matrix(0, 1, -1, 0, 507.000004, -77.614038)"/>
  <polyline class="cls-44" points="286.217 211.363 286.217 211.723 286.217 212.143" transform="matrix(0, 1, -1, 0, 497.969993, -74.464007)"/>
  <line class="cls-44" x1="292.307" y1="220.034" x2="292.307" y2="208.634" transform="matrix(0, 1, -1, 0, 506.64103, -77.973012)"/>
  <line class="cls-44" x1="298.127" y1="211.873" x2="297.887" y2="211.873" transform="matrix(0, 1, -1, 0, 509.880024, -86.133991)"/>
  <line class="cls-44" x1="286.427" y1="211.214" x2="286.427" y2="211.574" transform="matrix(0, 1, -1, 0, 497.821019, -75.03298)"/>
  <polyline class="cls-44" points="292.487 217.274 292.487 205.874 292.127 205.874" transform="matrix(0, 1, -1, 0, 503.881034, -80.733009)"/>
  <polyline class="cls-46" points="145.397 311.263 148.217 311.263 148.217 307.904" transform="matrix(0, 1, -1, 0, 456.390518, 162.776466)"/>
  <line class="cls-46" x1="145.307" y1="304.633" x2="145.307" y2="304.993" transform="matrix(0, 1, -1, 0, 450.119997, 159.505947)"/>
  <polyline class="cls-46" points="132.827 394.694 160.787 394.694 160.787 391.334" transform="matrix(0, 1, -1, 0, 539.821042, 246.20699)"/>
  <line class="cls-46" x1="146.807" y1="377.354" x2="146.807" y2="380.714" transform="matrix(0, 1, -1, 0, 525.841024, 232.226973)"/>
  <line class="cls-46" x1="142.967" y1="440.354" x2="147.287" y2="440.354" transform="matrix(0, 1, -1, 0, 585.481028, 295.227049)"/>
  <line class="cls-46" x1="149.237" y1="441.764" x2="147.737" y2="441.764" transform="matrix(0, 1, -1, 0, 590.251042, 293.277002)"/>
  <line class="cls-46" x1="146.807" y1="436.514" x2="146.807" y2="439.874" transform="matrix(0, 1, -1, 0, 585.00106, 291.387008)"/>
  <line class="cls-44" x1="143.807" y1="306.493" x2="146.447" y2="306.493" transform="matrix(0, 1, -1, 0, 451.62004, 161.365976)"/>
  <polyline class="cls-44" points="148.607 307.874 142.427 307.874 142.427 307.934" transform="matrix(0, 1, -1, 0, 453.420986, 162.387022)"/>
  <line class="cls-44" x1="159.526" y1="393.013" x2="131.566" y2="393.013" transform="matrix(0, 1, -1, 0, 538.558978, 247.467028)"/>
  <polyline class="cls-44" points="147.497 440.564 147.497 440.144 143.177 440.144" transform="matrix(0, 1, -1, 0, 585.691027, 295.01705)"/>
  <line class="cls-44" x1="151.577" y1="307.904" x2="145.397" y2="307.904" transform="matrix(0, 1, -1, 0, 456.391024, 159.416984)"/>
  <line class="cls-44" x1="162.467" y1="393.014" x2="134.507" y2="393.014" transform="matrix(0, 1, -1, 0, 541.501036, 244.526996)"/>
  <line class="cls-44" x1="148.307" y1="442.694" x2="148.307" y2="442.334" transform="matrix(0, 1, -1, 0, 590.82107, 294.207017)"/>
  <polyline class="cls-44" points="149.897 439.604 149.897 439.604 147.077 439.604" transform="matrix(0, 1, -1, 0, 588.091037, 291.116997)"/>
  <line class="cls-44" x1="145.727" y1="442.693" x2="145.367" y2="442.693" transform="matrix(0, 1, -1, 0, 588.23997, 297.145994)"/>
  <line class="cls-44" x1="145.727" y1="443.053" x2="145.367" y2="443.053" transform="matrix(0, 1, -1, 0, 588.599956, 297.50598)"/>
  <line class="cls-44" x1="146.837" y1="441.944" x2="146.837" y2="444.524" transform="matrix(0, 1, -1, 0, 590.071006, 296.397027)"/>
  <polyline class="cls-44" points="150.647 440.714 150.287 440.714 149.927 440.714 145.607 440.714" transform="matrix(0, 1, -1, 0, 588.841017, 292.587034)"/>
  <line class="cls-44" x1="162.107" y1="393.014" x2="134.147" y2="393.014" transform="matrix(0, 1, -1, 0, 541.141007, 244.887025)"/>
  <line class="cls-44" x1="151.217" y1="307.904" x2="145.037" y2="307.904" transform="matrix(0, 1, -1, 0, 456.030995, 159.777013)"/>
  <line class="cls-44" x1="179.147" y1="345.013" x2="111.107" y2="345.013" transform="matrix(0, 1, -1, 0, 490.140009, 199.88603)"/>
  <line class="cls-44" x1="204.977" y1="235.364" x2="204.977" y2="234.224" transform="matrix(0, 1, -1, 0, 439.770991, 29.817006)"/>
  <line class="cls-44" x1="204.977" y1="214.964" x2="204.977" y2="213.824" transform="matrix(0, 1, -1, 0, 419.371014, 9.417028)"/>
  <line class="cls-44" x1="194.207" y1="224.593" x2="214.607" y2="224.593" transform="matrix(0, 1, -1, 0, 429.000004, 20.18599)"/>
  <line class="cls-44" x1="195.347" y1="224.594" x2="215.747" y2="224.594" transform="matrix(0, 1, -1, 0, 430.140988, 19.047031)"/>
  <polyline class="cls-44" points="185.147 234.794 188.027 234.614 190.907 234.014 193.607 232.993 196.187 231.553 198.527 229.814 200.567 227.773 202.307 225.434 203.687 222.854 204.707 220.154 205.307 217.333 205.547 214.394" transform="matrix(0, 1, -1, 0, 419.941, 29.24702)"/>
  <line class="cls-44" x1="158.057" y1="241.303" x2="158.057" y2="242.443" transform="matrix(0, 1, -1, 0, 399.930002, 83.81598)"/>
  <line class="cls-44" x1="158.057" y1="213.824" x2="158.057" y2="214.964" transform="matrix(0, 1, -1, 0, 372.451032, 56.33701)"/>
  <line class="cls-44" x1="144.887" y1="228.133" x2="172.367" y2="228.133" transform="matrix(0, 1, -1, 0, 386.759975, 69.505982)"/>
  <line class="cls-44" x1="143.747" y1="228.133" x2="171.227" y2="228.133" transform="matrix(0, 1, -1, 0, 385.619961, 70.645996)"/>
  <polyline class="cls-44" points="157.487 214.394 161.087 214.633 164.567 215.294 167.987 216.494 171.227 218.054 174.227 220.034 176.927 222.434 179.267 225.133 181.307 228.133 182.867 231.374 184.007 234.734 184.727 238.274 184.967 241.874" transform="matrix(0, 1, -1, 0, 399.360987, 56.906996)"/>
  <line class="cls-46" x1="157.577" y1="212.863" x2="157.577" y2="213.283" transform="matrix(0, 1, -1, 0, 370.650001, 55.496)"/>
  <line class="cls-46" x1="157.097" y1="212.384" x2="158.477" y2="212.384" transform="matrix(0, 1, -1, 0, 370.171004, 54.597004)"/>
  <line class="cls-46" x1="157.577" y1="211.903" x2="157.577" y2="211.483" transform="matrix(0, 1, -1, 0, 369.269982, 54.115981)"/>
  <line class="cls-46" x1="157.037" y1="211.363" x2="157.697" y2="211.363" transform="matrix(0, 1, -1, 0, 368.730002, 53.995999)"/>
  <line class="cls-46" x1="156.797" y1="211.603" x2="156.797" y2="210.463" transform="matrix(0, 1, -1, 0, 367.829993, 54.235962)"/>
  <line class="cls-46" x1="157.877" y1="212.683" x2="154.577" y2="212.683" transform="matrix(0, 1, -1, 0, 368.909995, 56.456021)"/>
  <line class="cls-46" x1="156.797" y1="213.764" x2="156.797" y2="214.903" transform="matrix(0, 1, -1, 0, 371.130518, 57.536487)"/>
  <line class="cls-46" x1="156.737" y1="213.703" x2="157.997" y2="213.703" transform="matrix(0, 1, -1, 0, 371.07, 56.335997)"/>
  <line class="cls-46" x1="206.297" y1="213.704" x2="205.037" y2="213.704" transform="matrix(0, 1, -1, 0, 419.371014, 8.037009)"/>
  <line class="cls-46" x1="206.237" y1="213.764" x2="206.237" y2="214.904" transform="matrix(0, 1, -1, 0, 420.570998, 8.097021)"/>
  <line class="cls-46" x1="205.157" y1="212.683" x2="208.457" y2="212.683" transform="matrix(0, 1, -1, 0, 419.490025, 5.875991)"/>
  <line class="cls-46" x1="206.237" y1="211.603" x2="206.237" y2="210.464" transform="matrix(0, 1, -1, 0, 417.270515, 4.796538)"/>
  <line class="cls-46" x1="205.997" y1="211.364" x2="205.337" y2="211.364" transform="matrix(0, 1, -1, 0, 417.031016, 5.697011)"/>
  <line class="cls-46" x1="205.457" y1="211.903" x2="205.457" y2="211.483" transform="matrix(0, 1, -1, 0, 417.149984, 6.235978)"/>
  <line class="cls-46" x1="205.937" y1="212.383" x2="204.557" y2="212.383" transform="matrix(0, 1, -1, 0, 417.629995, 7.135987)"/>
  <line class="cls-46" x1="205.457" y1="212.863" x2="205.457" y2="213.283" transform="matrix(0, 1, -1, 0, 418.530004, 7.615997)"/>
  <line class="cls-44" x1="144.557" y1="436.064" x2="145.697" y2="436.064" transform="matrix(0, 1, -1, 0, 581.191025, 290.936962)"/>
  <line class="cls-44" x1="131.087" y1="421.453" x2="131.087" y2="449.534" transform="matrix(0, 1, -1, 0, 566.580503, 304.406499)"/>
  <line class="cls-44" x1="131.087" y1="422.593" x2="131.087" y2="450.673" transform="matrix(0, 1, -1, 0, 567.719968, 305.545965)"/>
  <line class="cls-44" x1="143.357" y1="406.964" x2="143.537" y2="410.324" transform="matrix(0, 1, -1, 0, 552.090975, 265.196985)"/>
  <line class="cls-44" x1="139.757" y1="407.383" x2="140.417" y2="410.743" transform="matrix(0, 1, -1, 0, 549.150015, 268.976001)"/>
  <polyline class="cls-44" points="114.107 412.333 115.067 415.573 116.507 418.633 118.247 421.573 120.347 424.213 122.747 426.613 125.387 428.713 128.267 430.453 131.387 431.833 134.627 432.853 137.927 433.453 141.347 433.693" transform="matrix(0, 1, -1, 0, 550.739991, 295.285964)"/>
  <polyline class="cls-46" points="147.167 408.493 147.587 408.493 147.587 407.053 147.167 407.053 147.167 406.393 146.027 406.393 146.027 409.753 147.167 409.753 147.167 408.493" transform="matrix(0, 1, -1, 0, 554.880007, 261.265955)"/>
  <polyline class="cls-46" points="146.447 437.533 146.447 438.793 147.587 438.793 147.587 435.434 146.447 435.434 146.447 436.094 146.027 436.094 146.027 437.533 146.447 437.533" transform="matrix(0, 1, -1, 0, 583.920509, 290.306458)"/>
  <polyline class="cls-46" points="412.847 325.814 217.967 325.814 217.967 329.894 412.847 329.894 412.847 325.814" transform="matrix(0, 1, -1, 0, 643.261003, 12.447036)"/>
  <line class="cls-44" x1="219.647" y1="327.854" x2="414.527" y2="327.854" transform="matrix(0, 1, -1, 0, 644.941039, 10.766999)"/>
  <line class="cls-44" x1="216.287" y1="327.854" x2="411.167" y2="327.854" transform="matrix(0, 1, -1, 0, 641.581008, 14.12703)"/>
  <line class="cls-44" x1="216.647" y1="327.854" x2="411.527" y2="327.854" transform="matrix(0, 1, -1, 0, 641.941037, 13.767001)"/>
  <line class="cls-44" x1="219.227" y1="327.854" x2="414.107" y2="327.854" transform="matrix(0, 1, -1, 0, 644.520998, 11.18704)"/>
  <line class="cls-46" x1="146.807" y1="380.714" x2="146.807" y2="377.354" transform="matrix(0, 1, -1, 0, 525.841024, 232.226973)"/>
  <line class="cls-46" x1="146.807" y1="312.673" x2="146.807" y2="309.313" transform="matrix(0, 1, -1, 0, 457.799994, 164.185943)"/>
  <line class="cls-49" x1="114.107" y1="345.013" x2="178.547" y2="345.013" transform="matrix(0, 1, -1, 0, 491.340035, 198.686004)"/>
  <line class="cls-46" x1="147.707" y1="378.913" x2="147.707" y2="377.353" transform="matrix(0, 1, -1, 0, 525.839969, 230.425984)"/>
  <line class="cls-46" x1="148.937" y1="378.583" x2="148.037" y2="378.583" transform="matrix(0, 1, -1, 0, 527.070043, 230.096003)"/>
  <line class="cls-46" x1="146.297" y1="377.863" x2="147.557" y2="377.863" transform="matrix(0, 1, -1, 0, 524.790015, 230.936)"/>
  <line class="cls-46" x1="146.297" y1="377.863" x2="146.297" y2="376.604" transform="matrix(0, 1, -1, 0, 523.530526, 230.936507)"/>
  <line class="cls-46" x1="146.297" y1="377.863" x2="145.037" y2="377.863" transform="matrix(0, 1, -1, 0, 523.530019, 232.195996)"/>
  <line class="cls-46" x1="146.027" y1="379.393" x2="146.027" y2="377.593" transform="matrix(0, 1, -1, 0, 524.519962, 232.465965)"/>
  <line class="cls-46" x1="145.397" y1="378.763" x2="144.857" y2="378.763" transform="matrix(0, 1, -1, 0, 523.890006, 233.636027)"/>
  <line class="cls-46" x1="147.707" y1="312.673" x2="147.707" y2="311.113" transform="matrix(0, 1, -1, 0, 459.600012, 164.186027)"/>
  <line class="cls-46" x1="146.297" y1="313.424" x2="146.297" y2="312.164" transform="matrix(0, 1, -1, 0, 459.091009, 166.49699)"/>
  <polyline class="cls-46" points="145.397 313.063 145.397 311.263 146.657 311.263" transform="matrix(0, 1, -1, 0, 458.189987, 166.13599)"/>
  <line class="cls-46" x1="145.037" y1="312.163" x2="146.297" y2="312.163" transform="matrix(0, 1, -1, 0, 457.83, 166.495977)"/>
  <line class="cls-46" x1="148.037" y1="311.443" x2="148.937" y2="311.443" transform="matrix(0, 1, -1, 0, 459.929993, 162.955953)"/>
  <line class="cls-46" x1="144.857" y1="311.263" x2="145.397" y2="311.263" transform="matrix(0, 1, -1, 0, 456.389969, 166.13599)"/>
  <line class="cls-46" x1="146.027" y1="310.633" x2="146.027" y2="312.433" transform="matrix(0, 1, -1, 0, 457.560031, 165.506034)"/>
  <line class="cls-46" x1="146.657" y1="311.263" x2="147.197" y2="311.263" transform="matrix(0, 1, -1, 0, 458.189987, 164.335972)"/>
  <line class="cls-46" x1="146.027" y1="311.893" x2="146.027" y2="310.093" transform="matrix(0, 1, -1, 0, 457.019967, 164.96597)"/>
  <line class="cls-46" x1="145.397" y1="311.263" x2="144.857" y2="311.263" transform="matrix(0, 1, -1, 0, 456.389969, 166.13599)"/>
  <line class="cls-46" x1="146.027" y1="378.133" x2="146.027" y2="379.933" transform="matrix(0, 1, -1, 0, 525.060026, 233.006029)"/>
  <line class="cls-46" x1="146.657" y1="378.763" x2="147.197" y2="378.763" transform="matrix(0, 1, -1, 0, 525.690024, 231.836009)"/>
  <line class="cls-46" x1="146.027" y1="379.393" x2="146.027" y2="377.593" transform="matrix(0, 1, -1, 0, 524.519962, 232.465965)"/>
  <line class="cls-46" x1="145.397" y1="378.763" x2="144.857" y2="378.763" transform="matrix(0, 1, -1, 0, 523.890006, 233.636027)"/>
  <line class="cls-44" x1="111.647" y1="345.013" x2="178.607" y2="345.013" transform="matrix(0, 1, -1, 0, 490.140009, 199.88603)"/>
  <line class="cls-44" x1="146.027" y1="310.633" x2="146.027" y2="312.433" transform="matrix(0, 1, -1, 0, 457.560031, 165.506034)"/>
  <line class="cls-44" x1="146.027" y1="377.593" x2="146.027" y2="379.393" transform="matrix(0, 1, -1, 0, 524.519962, 232.465965)"/>
  <line class="cls-44" x1="180.407" y1="345.013" x2="113.447" y2="345.013" transform="matrix(0, 1, -1, 0, 491.940026, 198.086012)"/>
  <line class="cls-46" x1="147.707" y1="311.113" x2="147.707" y2="312.673" transform="matrix(0, 1, -1, 0, 459.600012, 164.186027)"/>
  <line class="cls-46" x1="148.037" y1="311.443" x2="148.937" y2="311.443" transform="matrix(0, 1, -1, 0, 459.929993, 162.955953)"/>
  <line class="cls-46" x1="147.707" y1="311.773" x2="147.707" y2="310.213" transform="matrix(0, 1, -1, 0, 458.700003, 163.286018)"/>
  <line class="cls-46" x1="147.377" y1="311.443" x2="146.477" y2="311.443" transform="matrix(0, 1, -1, 0, 458.36998, 164.515966)"/>
  <line class="cls-46" x1="147.707" y1="378.253" x2="147.707" y2="379.813" transform="matrix(0, 1, -1, 0, 526.739978, 231.325993)"/>
  <line class="cls-46" x1="148.037" y1="378.583" x2="148.937" y2="378.583" transform="matrix(0, 1, -1, 0, 527.070043, 230.096003)"/>
  <line class="cls-46" x1="147.707" y1="378.913" x2="147.707" y2="377.353" transform="matrix(0, 1, -1, 0, 525.839969, 230.425984)"/>
  <line class="cls-46" x1="147.377" y1="378.583" x2="146.477" y2="378.583" transform="matrix(0, 1, -1, 0, 525.51003, 231.656016)"/>
  <line class="cls-44" x1="113.807" y1="345.013" x2="180.047" y2="345.013" transform="matrix(0, 1, -1, 0, 491.940026, 198.086012)"/>
  <line class="cls-44" x1="147.707" y1="311.113" x2="147.707" y2="312.673" transform="matrix(0, 1, -1, 0, 459.600012, 164.186027)"/>
  <line class="cls-44" x1="147.707" y1="377.353" x2="147.707" y2="378.913" transform="matrix(0, 1, -1, 0, 525.839969, 230.425984)"/>
  <line class="cls-44" x1="181.607" y1="345.013" x2="115.367" y2="345.013" transform="matrix(0, 1, -1, 0, 493.500039, 196.525999)"/>
  <line class="cls-46" x1="105.677" y1="332.203" x2="105.677" y2="284.143" transform="matrix(0, 1, -1, 0, 413.850008, 202.495997)"/>
  <line class="cls-46" x1="105.677" y1="280.783" x2="105.677" y2="328.843" transform="matrix(0, 1, -1, 0, 410.489977, 199.135966)"/>
  <line class="cls-44" x1="105.677" y1="283.783" x2="105.677" y2="331.843" transform="matrix(0, 1, -1, 0, 413.489979, 202.135968)"/>
  <polyline class="cls-44" points="105.497 280.964 105.497 329.023 105.497 329.383" transform="matrix(0, 1, -1, 0, 410.670519, 199.676495)"/>
  <polyline class="cls-46" points="215.447 329.354 409.307 329.354 409.307 326.354 214.427 326.354 214.427 328.993 214.427 329.354" transform="matrix(0, 1, -1, 0, 639.721021, 15.987017)"/>
  <line class="cls-44" x1="407.837" y1="328.184" x2="213.617" y2="328.184" transform="matrix(0, 1, -1, 0, 638.910988, 17.457012)"/>
  <line class="cls-46" x1="133.517" y1="302.683" x2="129.257" y2="302.683" transform="matrix(0, 1, -1, 0, 434.069992, 171.296038)"/>
  <line class="cls-46" x1="171.227" y1="256.393" x2="91.547" y2="256.393" transform="matrix(0, 1, -1, 0, 387.779966, 125.006012)"/>
  <polyline class="cls-46" points="130.877 210.523 130.877 210.943 130.877 211.543" transform="matrix(0, 1, -1, 0, 341.90998, 80.155975)"/>
  <line class="cls-46" x1="84.947" y1="259.393" x2="175.787" y2="259.393" transform="matrix(0, 1, -1, 0, 389.759977, 129.026004)"/>
  <line class="cls-44" x1="90.767" y1="256.393" x2="171.167" y2="256.393" transform="matrix(0, 1, -1, 0, 387.360009, 125.425969)"/>
  <line class="cls-44" x1="128.837" y1="302.683" x2="133.097" y2="302.683" transform="matrix(0, 1, -1, 0, 433.650036, 171.715995)"/>
  <line class="cls-44" x1="130.787" y1="297.793" x2="131.147" y2="297.793" transform="matrix(0, 1, -1, 0, 428.760041, 166.826)"/>
  <line class="cls-44" x1="130.787" y1="214.153" x2="131.147" y2="214.153" transform="matrix(0, 1, -1, 0, 345.120023, 83.185982)"/>
  <line class="cls-44" x1="130.187" y1="304.993" x2="130.547" y2="304.993" transform="matrix(0, 1, -1, 0, 435.359994, 174.626021)"/>
  <line class="cls-44" x1="130.787" y1="304.993" x2="131.147" y2="304.993" transform="matrix(0, 1, -1, 0, 435.960028, 174.025987)"/>
  <line class="cls-46" x1="104.837" y1="185.503" x2="104.837" y2="236.563" transform="matrix(0, 1, -1, 0, 315.870028, 106.196011)"/>
  <line class="cls-46" x1="104.837" y1="239.504" x2="104.837" y2="188.444" transform="matrix(0, 1, -1, 0, 318.810989, 109.136972)"/>
  <polyline class="cls-44" points="104.837 237.524 104.837 236.924 104.837 185.864 104.837 185.264" transform="matrix(0, 1, -1, 0, 316.231028, 106.557011)"/>
  <polyline class="cls-46" points="308.207 221.234 326.627 221.234 326.627 220.214 307.247 220.214 307.247 220.574 307.247 221.234" transform="matrix(0, 1, -1, 0, 537.661037, -96.213027)"/>
  <line class="cls-44" x1="326.597" y1="220.904" x2="307.577" y2="220.904" transform="matrix(0, 1, -1, 0, 537.990976, -96.182979)"/>
  <line class="cls-46" x1="307.217" y1="221.204" x2="307.217" y2="202.783" transform="matrix(0, 1, -1, 0, 519.210517, -95.223507)"/>
  <line class="cls-46" x1="307.217" y1="201.823" x2="307.217" y2="220.243" transform="matrix(0, 1, -1, 0, 518.249989, -96.184034)"/>
  <polyline class="cls-44" points="306.917 202.483 306.917 220.903 307.277 220.903 307.517 220.903" transform="matrix(0, 1, -1, 0, 518.909951, -95.523988)"/>
  <line class="cls-44" x1="316.757" y1="211.724" x2="316.757" y2="211.064" transform="matrix(0, 1, -1, 0, 528.150974, -105.36302)"/>
  <line class="cls-44" x1="297.827" y1="211.213" x2="298.187" y2="211.213" transform="matrix(0, 1, -1, 0, 509.220021, -86.793994)"/>
  <polyline class="cls-46" points="304.127 221.293 288.887 221.293 288.887 223.873 288.887 224.293" transform="matrix(0, 1, -1, 0, 519.299986, -73.714028)"/>
  <polyline class="cls-46" points="289.067 225.493 303.947 225.493 303.947 225.073 303.947 222.493" transform="matrix(0, 1, -1, 0, 520.500012, -72.514002)"/>
  <line class="cls-44" x1="287.987" y1="223.633" x2="302.867" y2="223.633" transform="matrix(0, 1, -1, 0, 519.059981, -71.794028)"/>
  <line class="cls-46" x1="137.417" y1="315.884" x2="137.417" y2="300.464" transform="matrix(0, 1, -1, 0, 445.591043, 170.756987)"/>
  <line class="cls-46" x1="138.257" y1="297.943" x2="138.257" y2="311.683" transform="matrix(0, 1, -1, 0, 443.069955, 166.555989)"/>
  <line class="cls-46" x1="130.037" y1="304.483" x2="130.037" y2="305.143" transform="matrix(0, 1, -1, 0, 434.849977, 174.775966)"/>
  <line class="cls-44" x1="137.417" y1="300.103" x2="137.417" y2="315.523" transform="matrix(0, 1, -1, 0, 445.230002, 170.395945)"/>
  <line class="cls-44" x1="146.447" y1="306.493" x2="143.807" y2="306.493" transform="matrix(0, 1, -1, 0, 451.62004, 161.365976)"/>
  <line class="cls-44" x1="138.047" y1="298.094" x2="138.047" y2="312.254" transform="matrix(0, 1, -1, 0, 443.220997, 167.12703)"/>
  <line class="cls-44" x1="130.037" y1="304.844" x2="130.037" y2="305.504" transform="matrix(0, 1, -1, 0, 435.211019, 175.137008)"/>
  <polyline class="cls-46" points="308.387 434.353 325.487 434.353 325.487 433.333 308.387 433.333 308.387 434.353" transform="matrix(0, 1, -1, 0, 750.780081, 116.906016)"/>
  <line class="cls-44" x1="325.637" y1="433.843" x2="308.537" y2="433.843" transform="matrix(0, 1, -1, 0, 750.929942, 116.755987)"/>
  <line class="cls-46" x1="223.607" y1="367.273" x2="223.607" y2="514.754" transform="matrix(0, 1, -1, 0, 664.620494, 217.406493)"/>
  <line class="cls-44" x1="148.307" y1="441.194" x2="148.667" y2="441.194" transform="matrix(0, 1, -1, 0, 589.681056, 292.707016)"/>
  <polyline class="cls-46" points="223.277 516.823 224.297 516.823 224.297 366.583 223.277 366.583 222.917 366.583" transform="matrix(0, 1, -1, 0, 665.309998, 218.095997)"/>
  <line class="cls-44" x1="223.607" y1="515.474" x2="223.607" y2="367.273" transform="matrix(0, 1, -1, 0, 664.980481, 217.76648)"/>
  <polyline class="cls-46" points="405.527 326.594 213.047 326.594 213.047 328.394 213.047 328.754" transform="matrix(0, 1, -1, 0, 636.961024, 18.387027)"/>
  <line class="cls-46" x1="212.657" y1="328.363" x2="403.757" y2="328.363" transform="matrix(0, 1, -1, 0, 636.570019, 20.156026)"/>
  <polyline class="cls-44" points="212.657 328.363 404.117 328.363 404.477 328.363" transform="matrix(0, 1, -1, 0, 636.930006, 19.79604)"/>
  <line class="cls-46" x1="301.607" y1="224.833" x2="301.607" y2="238.033" transform="matrix(0, 1, -1, 0, 533.039998, -70.174004)"/>
  <polyline class="cls-46" points="300.227 239.413 301.247 239.413 301.607 239.413 301.607 224.833" transform="matrix(0, 1, -1, 0, 533.039998, -68.793985)"/>
  <polyline class="cls-44" points="301.277 239.743 301.277 225.523 301.277 225.163" transform="matrix(0, 1, -1, 0, 533.730008, -68.824033)"/>
  <line class="cls-46" x1="302.447" y1="223.993" x2="287.567" y2="223.993" transform="matrix(0, 1, -1, 0, 519.000011, -71.014001)"/>
  <line class="cls-46" x1="286.187" y1="223.994" x2="301.067" y2="223.994" transform="matrix(0, 1, -1, 0, 517.621047, -69.633011)"/>
  <line class="cls-44" x1="294.167" y1="216.373" x2="293.807" y2="216.373" transform="matrix(0, 1, -1, 0, 510.360035, -77.613996)"/>
  <line class="cls-44" x1="286.547" y1="223.993" x2="301.427" y2="223.993" transform="matrix(0, 1, -1, 0, 517.98002, -69.994011)"/>
  <line class="cls-44" x1="294.497" y1="231.943" x2="293.477" y2="231.943" transform="matrix(0, 1, -1, 0, 525.930029, -62.044002)"/>
  <polyline class="cls-46" points="288.077 209.624 288.077 222.103 289.457 222.103 289.457 211.003" transform="matrix(0, 1, -1, 0, 504.630507, -72.903488)"/>
  <line class="cls-44" x1="288.257" y1="221.923" x2="288.257" y2="210.463" transform="matrix(0, 1, -1, 0, 504.449965, -72.063997)"/>
  <line class="cls-44" x1="295.217" y1="216.403" x2="295.217" y2="215.983" transform="matrix(0, 1, -1, 0, 511.409989, -79.024021)"/>
  <line class="cls-46" x1="144.887" y1="301.214" x2="152.087" y2="301.214" transform="matrix(0, 1, -1, 0, 449.701011, 152.726971)"/>
  <polyline class="cls-46" points="156.557 304.303 156.557 302.923 141.797 302.923 141.797 303.283 141.797 304.303" transform="matrix(0, 1, -1, 0, 452.789975, 154.436001)"/>
  <polyline class="cls-46" points="163.156 393.703 163.156 392.323 135.197 392.323 135.197 393.703" transform="matrix(0, 1, -1, 0, 542.189526, 243.83648)"/>
  <polyline class="cls-46" points="150.587 438.913 147.767 438.913 147.767 440.293" transform="matrix(0, 1, -1, 0, 588.779992, 290.426017)"/>
  <line class="cls-44" x1="145.397" y1="307.904" x2="151.577" y2="307.904" transform="matrix(0, 1, -1, 0, 456.391024, 159.416984)"/>
  <line class="cls-44" x1="156.707" y1="303.793" x2="142.307" y2="303.793" transform="matrix(0, 1, -1, 0, 453.299992, 154.285971)"/>
  <line class="cls-44" x1="147.077" y1="439.604" x2="149.897" y2="439.604" transform="matrix(0, 1, -1, 0, 588.091037, 291.116997)"/>
  <polyline class="cls-44" points="151.097 439.783 150.737 439.783 147.917 439.783" transform="matrix(0, 1, -1, 0, 589.289966, 290.275945)"/>
  <line class="cls-44" x1="134.507" y1="393.014" x2="162.467" y2="393.014" transform="matrix(0, 1, -1, 0, 541.501036, 244.526996)"/>
  <line class="cls-44" x1="163.487" y1="393.013" x2="135.527" y2="393.013" transform="matrix(0, 1, -1, 0, 542.519971, 243.506035)"/>
  <line class="cls-44" x1="149.177" y1="311.683" x2="149.177" y2="310.303" transform="matrix(0, 1, -1, 0, 460.169998, 161.816023)"/>
  <line class="cls-44" x1="149.177" y1="378.343" x2="149.177" y2="379.723" transform="matrix(0, 1, -1, 0, 528.209973, 229.855998)"/>
  <line class="cls-44" x1="115.847" y1="345.013" x2="183.887" y2="345.013" transform="matrix(0, 1, -1, 0, 494.880016, 195.146022)"/>
  <line class="cls-46" x1="306.587" y1="433.154" x2="290.867" y2="433.154" transform="matrix(0, 1, -1, 0, 731.880948, 134.426986)"/>
  <polyline class="cls-46" points="289.487 431.774 289.487 432.794 289.487 433.154 306.587 433.154" transform="matrix(0, 1, -1, 0, 730.500929, 134.426986)"/>
  <polyline class="cls-44" points="289.157 432.824 305.897 432.824 306.257 432.824" transform="matrix(0, 1, -1, 0, 730.531019, 135.117038)"/>
  <polyline class="cls-46" points="243.167 174.973 243.167 250.393 246.467 250.393" transform="matrix(0, 1, -1, 0, 457.500019, -32.134003)"/>
  <line class="cls-46" x1="284.177" y1="212.683" x2="280.877" y2="212.683" transform="matrix(0, 1, -1, 0, 495.209997, -69.843981)"/>
  <line class="cls-46" x1="150.257" y1="205.363" x2="150.257" y2="216.703" transform="matrix(0, 1, -1, 0, 361.290009, 60.77603)"/>
  <line class="cls-46" x1="133.727" y1="208.693" x2="133.727" y2="213.373" transform="matrix(0, 1, -1, 0, 344.759994, 77.305961)"/>
  <line class="cls-46" x1="157.577" y1="212.683" x2="154.277" y2="212.683" transform="matrix(0, 1, -1, 0, 368.61002, 56.755996)"/>
  <line class="cls-44" x1="244.817" y1="249.103" x2="244.817" y2="173.684" transform="matrix(0, 1, -1, 0, 456.210524, -33.423498)"/>
  <line class="cls-44" x1="134.237" y1="214.244" x2="134.237" y2="208.544" transform="matrix(0, 1, -1, 0, 345.63101, 77.157028)"/>
  <line class="cls-44" x1="149.777" y1="217.544" x2="149.777" y2="205.244" transform="matrix(0, 1, -1, 0, 361.170999, 61.61704)"/>
  <line class="cls-44" x1="244.817" y1="252.043" x2="244.817" y2="176.624" transform="matrix(0, 1, -1, 0, 459.150514, -30.483509)"/>
  <line class="cls-44" x1="143.657" y1="226.604" x2="143.657" y2="202.064" transform="matrix(0, 1, -1, 0, 357.991004, 70.677015)"/>
  <line class="cls-44" x1="131.177" y1="211.184" x2="131.177" y2="211.604" transform="matrix(0, 1, -1, 0, 342.571039, 80.217)"/>
  <line class="cls-44" x1="131.177" y1="214.184" x2="131.177" y2="213.764" transform="matrix(0, 1, -1, 0, 345.151, 82.796961)"/>
  <line class="cls-44" x1="143.657" y1="226.244" x2="143.657" y2="201.704" transform="matrix(0, 1, -1, 0, 357.630975, 70.316986)"/>
  <line class="cls-44" x1="244.817" y1="251.684" x2="244.817" y2="176.264" transform="matrix(0, 1, -1, 0, 458.790991, -30.843031)"/>
  <line class="cls-46" x1="304.187" y1="224.233" x2="304.187" y2="236.593" transform="matrix(0, 1, -1, 0, 534.600011, -73.773997)"/>
  <line class="cls-46" x1="304.187" y1="237.613" x2="304.187" y2="225.253" transform="matrix(0, 1, -1, 0, 535.620001, -72.754007)"/>
  <polyline class="cls-44" points="304.367 237.433 304.367 225.073 304.367 224.713" transform="matrix(0, 1, -1, 0, 535.440008, -73.293987)"/>
  <line class="cls-44" x1="296.717" y1="229.783" x2="296.717" y2="232.363" transform="matrix(0, 1, -1, 0, 527.790017, -65.643996)"/>
  <polyline class="cls-46" points="305.237 430.423 305.237 418.783 304.216 418.783 303.857 418.783" transform="matrix(0, 1, -1, 0, 729.149987, 120.056005)"/>
  <line class="cls-46" x1="303.467" y1="419.174" x2="303.467" y2="428.654" transform="matrix(0, 1, -1, 0, 727.38103, 120.446969)"/>
  <line class="cls-44" x1="303.647" y1="419.353" x2="303.647" y2="429.193" transform="matrix(0, 1, -1, 0, 727.919997, 120.625949)"/>
  <line class="cls-44" x1="298.217" y1="424.783" x2="298.217" y2="423.763" transform="matrix(0, 1, -1, 0, 722.48998, 126.055966)"/>
  <polyline class="cls-46" points="243.707 253.153 245.927 253.153 245.927 177.733 243.707 177.733" transform="matrix(0, 1, -1, 0, 460.260016, -29.374007)"/>
  <line class="cls-46" x1="143.657" y1="228.823" x2="143.657" y2="204.284" transform="matrix(0, 1, -1, 0, 360.210471, 72.896482)"/>
  <line class="cls-46" x1="157.037" y1="215.443" x2="154.817" y2="215.443" transform="matrix(0, 1, -1, 0, 371.370017, 59.515992)"/>
  <line class="cls-44" x1="143.657" y1="202.064" x2="143.657" y2="226.604" transform="matrix(0, 1, -1, 0, 357.991004, 70.677015)"/>
  <line class="cls-44" x1="131.177" y1="214.544" x2="131.177" y2="214.123" transform="matrix(0, 1, -1, 0, 345.510522, 83.156483)"/>
  <line class="cls-44" x1="131.177" y1="216.403" x2="131.177" y2="215.983" transform="matrix(0, 1, -1, 0, 347.370004, 85.015964)"/>
  <line class="cls-44" x1="143.657" y1="228.464" x2="143.657" y2="203.924" transform="matrix(0, 1, -1, 0, 359.850991, 72.537002)"/>
  <line class="cls-44" x1="244.817" y1="176.624" x2="244.817" y2="252.043" transform="matrix(0, 1, -1, 0, 459.150514, -30.483509)"/>
  <line class="cls-44" x1="244.817" y1="253.903" x2="244.817" y2="178.483" transform="matrix(0, 1, -1, 0, 461.009995, -28.624027)"/>
  <line class="cls-44" x1="193.277" y1="442.483" x2="193.277" y2="440.143" transform="matrix(0, 1, -1, 0, 634.589966, 248.035959)"/>
  <line class="cls-44" x1="193.277" y1="442.483" x2="190.937" y2="442.483" transform="matrix(0, 1, -1, 0, 634.589966, 250.375999)"/>
  <line class="cls-44" x1="193.277" y1="442.483" x2="193.277" y2="444.823" transform="matrix(0, 1, -1, 0, 636.930006, 250.375999)"/>
  <line class="cls-44" x1="193.277" y1="442.483" x2="195.617" y2="442.483" transform="matrix(0, 1, -1, 0, 636.929963, 248.036001)"/>
  <polyline class="cls-44" points="192.047 441.254 194.566 441.254 194.566 443.774 192.047 443.774 192.047 441.254 192.047 443.774 194.566 443.774 194.566 441.254 192.047 441.254" transform="matrix(0, 1, -1, 0, 635.820462, 249.207456)"/>
  <polyline class="cls-44" points="192.107 441.313 194.447 441.313 194.447 443.653 192.107 443.653 192.107 441.313" transform="matrix(0, 1, -1, 0, 635.759986, 249.205979)"/>
  <line class="cls-44" x1="154.097" y1="212.684" x2="154.097" y2="210.344" transform="matrix(0, 1, -1, 0, 365.610989, 57.417012)"/>
  <line class="cls-44" x1="154.097" y1="212.683" x2="151.757" y2="212.683" transform="matrix(0, 1, -1, 0, 365.610019, 59.755997)"/>
  <line class="cls-44" x1="154.097" y1="212.684" x2="154.097" y2="215.024" transform="matrix(0, 1, -1, 0, 367.950987, 59.75701)"/>
  <line class="cls-44" x1="154.097" y1="212.683" x2="156.437" y2="212.683" transform="matrix(0, 1, -1, 0, 367.950017, 57.416)"/>
  <polyline class="cls-44" points="152.867 211.394 155.387 211.394 155.387 213.914 152.867 213.914 152.867 211.394 152.867 213.914 155.387 213.914 155.387 211.394 152.867 211.394" transform="matrix(0, 1, -1, 0, 366.780967, 58.526978)"/>
  <polyline class="cls-44" points="152.927 211.514 155.267 211.514 155.267 213.854 152.927 213.854 152.927 211.514" transform="matrix(0, 1, -1, 0, 366.781009, 58.587032)"/>
  <line class="cls-44" x1="208.907" y1="210.374" x2="208.907" y2="212.654" transform="matrix(0, 1, -1, 0, 420.42101, 2.606992)"/>
  <line class="cls-44" x1="211.217" y1="212.684" x2="208.877" y2="212.684" transform="matrix(0, 1, -1, 0, 422.731002, 2.63704)"/>
  <line class="cls-44" x1="208.907" y1="214.993" x2="208.907" y2="212.714" transform="matrix(0, 1, -1, 0, 422.760502, 4.946483)"/>
  <line class="cls-44" x1="206.597" y1="212.683" x2="208.937" y2="212.683" transform="matrix(0, 1, -1, 0, 420.450003, 4.916013)"/>
  <polyline class="cls-44" points="207.647 213.914 210.167 213.914 210.167 211.393 207.647 211.393 207.647 213.914" transform="matrix(0, 1, -1, 0, 421.560518, 3.746499)"/>
  <line class="cls-44" x1="208.907" y1="212.654" x2="206.387" y2="212.654" transform="matrix(0, 1, -1, 0, 420.301029, 5.007001)"/>
  <line class="cls-44" x1="208.907" y1="212.653" x2="208.907" y2="215.173" transform="matrix(0, 1, -1, 0, 422.820007, 5.005988)"/>
  <line class="cls-44" x1="208.907" y1="212.654" x2="211.427" y2="212.654" transform="matrix(0, 1, -1, 0, 422.82102, 2.48701)"/>
  <line class="cls-44" x1="208.907" y1="212.654" x2="208.907" y2="210.133" transform="matrix(0, 1, -1, 0, 420.300522, 2.486504)"/>
  <line class="cls-44" x1="208.907" y1="210.374" x2="208.907" y2="212.654" transform="matrix(0, 1, -1, 0, 420.42101, 2.606992)"/>
  <line class="cls-44" x1="211.217" y1="212.684" x2="208.877" y2="212.684" transform="matrix(0, 1, -1, 0, 422.731002, 2.63704)"/>
  <line class="cls-44" x1="208.907" y1="214.993" x2="208.907" y2="212.714" transform="matrix(0, 1, -1, 0, 422.760502, 4.946483)"/>
  <line class="cls-44" x1="206.597" y1="212.683" x2="208.937" y2="212.683" transform="matrix(0, 1, -1, 0, 420.450003, 4.916013)"/>
  <line class="cls-44" x1="146.807" y1="309.734" x2="146.807" y2="307.453" transform="matrix(0, 1, -1, 0, 455.400533, 161.786481)"/>
  <line class="cls-44" x1="146.807" y1="309.733" x2="144.527" y2="309.733" transform="matrix(0, 1, -1, 0, 455.400027, 164.066003)"/>
  <line class="cls-44" x1="146.807" y1="309.733" x2="146.807" y2="312.013" transform="matrix(0, 1, -1, 0, 457.680013, 164.065961)"/>
  <line class="cls-44" x1="146.807" y1="309.733" x2="149.087" y2="309.733" transform="matrix(0, 1, -1, 0, 457.680013, 161.786017)"/>
  <polyline class="cls-44" points="145.547 308.473 148.067 308.473 148.067 310.993 145.547 310.993 145.547 308.473 145.547 310.993 148.067 310.993 148.067 308.473 145.547 308.473" transform="matrix(0, 1, -1, 0, 456.540041, 162.925989)"/>
  <polyline class="cls-44" points="145.667 308.593 147.947 308.593 147.947 310.873 145.667 310.873 145.667 308.593" transform="matrix(0, 1, -1, 0, 456.539999, 162.925947)"/>
  <line class="cls-44" x1="146.807" y1="382.573" x2="146.807" y2="380.293" transform="matrix(0, 1, -1, 0, 528.240021, 234.625969)"/>
  <line class="cls-44" x1="144.527" y1="380.293" x2="146.807" y2="380.293" transform="matrix(0, 1, -1, 0, 525.959993, 234.625969)"/>
  <line class="cls-44" x1="146.807" y1="378.013" x2="146.807" y2="380.293" transform="matrix(0, 1, -1, 0, 525.960035, 232.345983)"/>
  <line class="cls-44" x1="149.087" y1="380.293" x2="146.807" y2="380.293" transform="matrix(0, 1, -1, 0, 528.239979, 232.345983)"/>
  <polyline class="cls-44" points="148.067 379.033 145.547 379.033 145.547 381.553 148.067 381.553 148.067 379.033" transform="matrix(0, 1, -1, 0, 527.100007, 233.485955)"/>
  <line class="cls-44" x1="146.807" y1="380.293" x2="149.327" y2="380.293" transform="matrix(0, 1, -1, 0, 528.360003, 232.22596)"/>
  <line class="cls-44" x1="146.807" y1="380.294" x2="146.807" y2="377.773" transform="matrix(0, 1, -1, 0, 525.840518, 232.226466)"/>
  <line class="cls-44" x1="146.807" y1="380.293" x2="144.287" y2="380.293" transform="matrix(0, 1, -1, 0, 525.839969, 234.745993)"/>
  <line class="cls-44" x1="146.807" y1="380.293" x2="146.807" y2="382.814" transform="matrix(0, 1, -1, 0, 528.360509, 234.746457)"/>
  <line class="cls-44" x1="146.807" y1="382.573" x2="146.807" y2="380.293" transform="matrix(0, 1, -1, 0, 528.240021, 234.625969)"/>
  <line class="cls-44" x1="144.527" y1="380.293" x2="146.807" y2="380.293" transform="matrix(0, 1, -1, 0, 525.959993, 234.625969)"/>
  <line class="cls-44" x1="146.807" y1="378.013" x2="146.807" y2="380.293" transform="matrix(0, 1, -1, 0, 525.960035, 232.345983)"/>
  <line class="cls-44" x1="149.087" y1="380.293" x2="146.807" y2="380.293" transform="matrix(0, 1, -1, 0, 528.239979, 232.345983)"/>
  <line class="cls-44" x1="140.357" y1="216.403" x2="140.357" y2="209.863" transform="matrix(0, 1, -1, 0, 353.489988, 72.776037)"/>
  <line class="cls-44" x1="144.677" y1="212.083" x2="142.577" y2="212.083" transform="matrix(0, 1, -1, 0, 355.709963, 68.455985)"/>
  <line class="cls-44" x1="140.357" y1="207.763" x2="140.357" y2="214.303" transform="matrix(0, 1, -1, 0, 351.389953, 70.676002)"/>
  <line class="cls-44" x1="136.037" y1="212.083" x2="138.137" y2="212.083" transform="matrix(0, 1, -1, 0, 349.169979, 74.995969)"/>
  <polyline class="cls-44" points="131.957 208.003 131.957 216.523 133.697 216.523 133.697 208.003" transform="matrix(0, 1, -1, 0, 345.090017, 79.436002)"/>
  <polyline class="cls-44" points="146.987 216.493 146.987 208.033 148.727 208.033 148.727 216.493" transform="matrix(0, 1, -1, 0, 360.119989, 64.40603)"/>
  <line class="cls-44" x1="136.097" y1="211.003" x2="136.037" y2="211.003" transform="matrix(0, 1, -1, 0, 347.070029, 74.935999)"/>
  <line class="cls-44" x1="140.327" y1="215.234" x2="140.327" y2="206.714" transform="matrix(0, 1, -1, 0, 351.300991, 70.646966)"/>
  <line class="cls-44" x1="144.557" y1="211.003" x2="144.617" y2="211.003" transform="matrix(0, 1, -1, 0, 355.590023, 66.416004)"/>
  <line class="cls-44" x1="140.327" y1="206.773" x2="140.327" y2="215.293" transform="matrix(0, 1, -1, 0, 351.35999, 70.705965)"/>
  <line class="cls-44" x1="140.327" y1="206.773" x2="140.327" y2="215.293" transform="matrix(0, 1, -1, 0, 351.35999, 70.705965)"/>
  <line class="cls-44" x1="140.327" y1="215.234" x2="140.327" y2="206.714" transform="matrix(0, 1, -1, 0, 351.300991, 70.646966)"/>
  <line class="cls-44" x1="136.097" y1="211.003" x2="136.037" y2="211.003" transform="matrix(0, 1, -1, 0, 347.070029, 74.935999)"/>
  <line class="cls-44" x1="144.617" y1="211.003" x2="144.557" y2="211.003" transform="matrix(0, 1, -1, 0, 355.590023, 66.416004)"/>
  <line class="cls-44" x1="140.357" y1="209.863" x2="140.357" y2="216.403" transform="matrix(0, 1, -1, 0, 353.489988, 72.776037)"/>
  <line class="cls-44" x1="144.677" y1="212.083" x2="142.577" y2="212.083" transform="matrix(0, 1, -1, 0, 355.709963, 68.455985)"/>
  <line class="cls-44" x1="136.037" y1="212.083" x2="138.137" y2="212.083" transform="matrix(0, 1, -1, 0, 349.169979, 74.995969)"/>
  <polyline class="cls-46" points="150.587 299.714 143.387 299.714 143.387 300.073 143.387 302.714" transform="matrix(0, 1, -1, 0, 448.20101, 154.226972)"/>
  <line class="cls-46" x1="143.357" y1="302.684" x2="147.617" y2="302.684" transform="matrix(0, 1, -1, 0, 448.171004, 157.196968)"/>
  <line class="cls-44" x1="144.707" y1="301.393" x2="151.547" y2="301.393" transform="matrix(0, 1, -1, 0, 449.520005, 153.266023)"/>
  <line class="cls-44" x1="145.517" y1="304.844" x2="145.517" y2="304.784" transform="matrix(0, 1, -1, 0, 450.330967, 159.297003)"/>
  <line class="cls-46" x1="138.437" y1="290.564" x2="138.437" y2="304.663" transform="matrix(0, 1, -1, 0, 436.050468, 159.176515)"/>
  <line class="cls-46" x1="138.437" y1="307.603" x2="138.437" y2="293.503" transform="matrix(0, 1, -1, 0, 438.989951, 162.115998)"/>
  <line class="cls-44" x1="138.437" y1="305.023" x2="138.437" y2="290.923" transform="matrix(0, 1, -1, 0, 436.40999, 159.536037)"/>
  <line class="cls-44" x1="146.807" y1="299.293" x2="146.807" y2="296.653" transform="matrix(0, 1, -1, 0, 444.780039, 151.165988)"/>
  <line class="cls-44" x1="131.177" y1="298.183" x2="131.177" y2="297.763" transform="matrix(0, 1, -1, 0, 429.150033, 166.795994)"/>
  <line class="cls-44" x1="131.177" y1="300.763" x2="131.177" y2="300.343" transform="matrix(0, 1, -1, 0, 431.729994, 169.375955)"/>
  <line class="cls-46" x1="139.937" y1="287.683" x2="139.937" y2="304.783" transform="matrix(0, 1, -1, 0, 436.169985, 156.29603)"/>
  <line class="cls-46" x1="139.937" y1="306.163" x2="139.937" y2="289.064" transform="matrix(0, 1, -1, 0, 437.550468, 157.676514)"/>
  <line class="cls-44" x1="139.937" y1="305.143" x2="139.937" y2="288.044" transform="matrix(0, 1, -1, 0, 436.530478, 156.656523)"/>
  <line class="cls-44" x1="148.997" y1="297.104" x2="148.997" y2="296.083" transform="matrix(0, 1, -1, 0, 445.590495, 147.596507)"/>
  <line class="cls-44" x1="131.177" y1="296.803" x2="131.177" y2="296.383" transform="matrix(0, 1, -1, 0, 427.770056, 165.416017)"/>
  <line class="cls-44" x1="131.177" y1="297.823" x2="131.177" y2="297.403" transform="matrix(0, 1, -1, 0, 428.790047, 166.436007)"/>
  <line class="cls-50" x1="207.107" y1="212.293" x2="206.807" y2="211.993" transform="matrix(0, 1, -1, 0, 419.09999, 5.185982)"/>
  <line class="cls-44" x1="302.747" y1="237.374" x2="311.747" y2="237.374" transform="matrix(0, 1, -1, 0, 544.621019, -69.873016)"/>
  <line class="cls-44" x1="227.327" y1="318.794" x2="235.247" y2="318.794" transform="matrix(0, 1, -1, 0, 550.081, 87.507004)"/>
  <line class="cls-44" x1="216.107" y1="337.934" x2="216.107" y2="307.573" transform="matrix(0, 1, -1, 0, 538.860473, 106.64648)"/>
  <line class="cls-44" x1="196.967" y1="318.793" x2="204.887" y2="318.793" transform="matrix(0, 1, -1, 0, 519.719984, 117.865995)"/>
  <line class="cls-44" x1="216.107" y1="330.014" x2="216.107" y2="299.654" transform="matrix(0, 1, -1, 0, 530.940976, 98.726984)"/>
  <g class="cls-5" transform="matrix(0, 1, -1, 0, 535.966553, 139.813492)">
    <rect class="cls-3" x="161.46" y="336.36" width="18.42" height="18.42"/>
  </g>
  <polyline class="cls-44" points="190.397 319.724 199.637 310.484 190.397 301.303 181.157 310.484 190.397 319.724" transform="matrix(0, 1, -1, 0, 500.91049, 120.116524)"/>
  <text class="cls-64" style="white-space: pre; font-size: 9.8px;" x="186.827" y="314.353">R</text>
  <line class="cls-44" x1="124.817" y1="218.143" x2="124.817" y2="203.923" transform="matrix(0, 1, -1, 0, 335.850007, 86.216032)"/>
</svg>