<svg xmlns="http://www.w3.org/2000/svg" xmlns:xlink="http://www.w3.org/1999/xlink" viewBox="0 0 148.32 59.52"><defs><style>.cls-1,.cls-2,.cls-7,.cls-8,.cls-9{fill:none;}.cls-1{clip-rule:evenodd;}.cls-3{clip-path:url(#clip-path);}.cls-4{clip-path:url(#clip-path-2);}.cls-5{fill:#fff;}.cls-6{clip-path:url(#clip-path-3);}.cls-7,.cls-8,.cls-9{stroke:#000;stroke-linecap:round;stroke-linejoin:round;}.cls-7{stroke-width:0.24px;}.cls-8{stroke-width:0.96px;}.cls-9{stroke-width:0.48px;}</style><clipPath id="clip-path" transform="translate(-628.53 -8.4)"><path class="cls-1" d="M724,66.72v.72h52.32v-.72Zm-95,0v.72h36.48v-.72Z"/></clipPath><clipPath id="clip-path-2" transform="translate(-628.53 -8.4)"><rect class="cls-2" width="1191.12" height="841.92"/></clipPath><clipPath id="clip-path-3" transform="translate(-628.53 -8.4)"><path class="cls-1" d="M724,61v.72h52.32V61Zm-95,0v.72h36.48V61Z"/></clipPath></defs><title>TypicalDoor_Single</title><g id="Layer_2" data-name="Layer 2"><g id="Layer_1-2" data-name="Layer 1"><g class="cls-3"><g class="cls-4"><rect class="cls-5" x="0.48" y="58.32" width="147.36" height="0.72"/></g></g><g class="cls-6"><g class="cls-4"><rect class="cls-5" x="0.48" y="52.56" width="147.36" height="0.72"/></g></g><line class="cls-7" x1="123.36" y1="59.04" x2="123.36" y2="59.04"/><line class="cls-7" x1="146.4" y1="58.8" x2="146.16" y2="59.04"/><line class="cls-7" x1="133.44" y1="58.32" x2="133.2" y2="58.8"/><line class="cls-7" x1="20.16" y1="53.04" x2="19.68" y2="52.56"/><line class="cls-7" x1="100.08" y1="53.28" x2="99.6" y2="52.8"/><polyline class="cls-8" points="0.48 59.04 36.96 59.04 36.96 52.56 0.48 52.56 0.48 59.04"/><polyline class="cls-8" points="95.52 59.04 147.84 59.04 147.84 52.56 95.52 52.56 95.52 59.04"/><line class="cls-9" x1="36.96" y1="58.32" x2="0.48" y2="58.32"/><line class="cls-9" x1="147.84" y1="58.32" x2="95.52" y2="58.32"/><line class="cls-9" x1="36.96" y1="53.28" x2="0.48" y2="53.28"/><line class="cls-9" x1="147.84" y1="53.28" x2="95.52" y2="53.28"/><line class="cls-9" x1="42.48" y1="0.24" x2="40.08" y2="0.24"/><line class="cls-9" x1="42.48" y1="52.32" x2="40.08" y2="52.32"/><line class="cls-9" x1="42.48" y1="52.32" x2="42.48" y2="0.24"/><line class="cls-9" x1="40.08" y1="52.32" x2="40.08" y2="0.24"/><polyline class="cls-9" points="92.4 52.32 91.44 43.44 89.04 34.56 85.2 26.4 80.16 18.96 73.68 12.48 66.24 7.2 58.08 3.36 49.2 0.96 40.08 0.24"/><polyline class="cls-9" points="39.84 54.96 39.84 52.56 37.68 52.56 37.68 59.04 39.84 59.04 39.84 57.84 40.8 57.84 40.8 54.96 39.84 54.96"/><polyline class="cls-9" points="92.64 54.96 91.68 54.96 91.68 57.84 92.64 57.84 92.64 59.04 94.8 59.04 94.8 52.56 92.64 52.56 92.64 54.96"/></g></g></svg>