<svg xmlns="http://www.w3.org/2000/svg" xmlns:xlink="http://www.w3.org/1999/xlink" viewBox="0 0 148.32 63.84"><defs><style>.cls-1,.cls-2,.cls-7,.cls-8,.cls-9{fill:none;}.cls-1{clip-rule:evenodd;}.cls-3{clip-path:url(#clip-path);}.cls-4{clip-path:url(#clip-path-2);}.cls-5{fill:#fff;}.cls-6{clip-path:url(#clip-path-3);}.cls-7,.cls-8,.cls-9{stroke:#000;stroke-linecap:round;stroke-linejoin:round;}.cls-7{stroke-width:0.24px;}.cls-8{stroke-width:0.96px;}.cls-9{stroke-width:0.48px;}</style><clipPath id="clip-path" transform="translate(-490.53 -276.48)"><path class="cls-1" d="M607.17,338.4v.72h31.2v-.72ZM491,338.4v.72h15.6v-.72Z"/></clipPath><clipPath id="clip-path-2" transform="translate(-490.53 -276.48)"><rect class="cls-2" width="1191.12" height="841.92"/></clipPath><clipPath id="clip-path-3" transform="translate(-490.53 -276.48)"><path class="cls-1" d="M607.17,332.4v.72h31.2v-.72ZM491,332.4v.72h15.6v-.72Z"/></clipPath></defs><title>DoorsExisting_Double_unequal</title><g id="Layer_2" data-name="Layer 2"><g id="Layer_1-2" data-name="Layer 1"><g class="cls-3"><g class="cls-4"><rect class="cls-5" x="0.48" y="61.92" width="147.36" height="0.72"/></g></g><g class="cls-6"><g class="cls-4"><rect class="cls-5" x="0.48" y="55.92" width="147.36" height="0.72"/></g></g><line class="cls-7" x1="14.88" y1="62.16" x2="15.84" y2="62.16"/><line class="cls-7" x1="124.32" y1="62.16" x2="125.28" y2="62.16"/><line class="cls-7" x1="141.6" y1="62.16" x2="142.56" y2="62.16"/><line class="cls-7" x1="126.96" y1="62.16" x2="126.48" y2="62.64"/><line class="cls-7" x1="147.36" y1="56.4" x2="147.84" y2="56.4"/><line class="cls-7" x1="137.28" y1="56.16" x2="137.04" y2="55.92"/><line class="cls-7" x1="10.8" y1="55.92" x2="10.8" y2="55.92"/><polyline class="cls-8" points="0.48 62.64 16.08 62.64 16.08 55.92 0.48 55.92 0.48 62.64"/><polyline class="cls-8" points="116.64 62.64 147.84 62.64 147.84 55.92 116.64 55.92 116.64 62.64"/><line class="cls-9" x1="16.08" y1="61.92" x2="0.48" y2="61.92"/><line class="cls-9" x1="147.84" y1="61.92" x2="116.64" y2="61.92"/><line class="cls-9" x1="16.08" y1="56.64" x2="0.48" y2="56.64"/><line class="cls-9" x1="147.84" y1="56.64" x2="116.64" y2="56.64"/><line class="cls-7" x1="20.4" y1="0.24" x2="20.4" y2="55.2"/><line class="cls-7" x1="18.24" y1="55.2" x2="18.24" y2="0.24"/><line class="cls-7" x1="112.08" y1="14.4" x2="112.08" y2="55.2"/><line class="cls-7" x1="114.24" y1="55.2" x2="114.24" y2="14.4"/><line class="cls-7" x1="20.4" y1="55.2" x2="18.24" y2="55.2"/><line class="cls-7" x1="18.24" y1="0.24" x2="20.4" y2="0.24"/><line class="cls-7" x1="112.08" y1="55.2" x2="114.24" y2="55.2"/><line class="cls-7" x1="114.24" y1="14.4" x2="112.08" y2="14.4"/><line class="cls-9" x1="16.08" y1="62.64" x2="16.08" y2="55.92"/><line class="cls-9" x1="116.64" y1="62.64" x2="116.64" y2="55.92"/><polyline class="cls-9" points="18.24 0.24 27.84 0.96 36.96 3.36 45.84 7.44 53.52 12.96 60.48 19.68 65.76 27.6 69.84 36.24 72.48 45.6 73.2 55.2"/><polyline class="cls-9" points="114.24 14.4 106.32 15.12 98.64 17.52 91.68 21.12 85.44 26.16 80.4 32.4 76.56 39.6 74.16 47.04 73.44 55.2"/><polyline class="cls-9" points="114.48 57.36 113.76 57.36 113.52 57.36 113.52 57.6 113.52 61.2 113.76 61.2 114.48 61.2 114.48 61.44 114.48 63.36 114.48 63.6 116.64 63.6 116.64 63.36 116.64 62.88 116.64 63.36 114.48 63.36 114.48 61.2 113.76 61.2 113.76 57.6 114.48 57.6 114.48 57.36 114.48 55.2 116.64 55.2 116.64 55.92 116.64 55.2 114.48 55.2 114.48 57.36"/><polyline class="cls-9" points="18.24 55.2 18 55.2 16.08 55.2 15.84 55.2 15.84 55.92 16.08 55.92 16.08 55.2 18 55.2 18 57.36 18 57.6 18.96 57.6 18.96 61.2 18.24 61.2 18 61.2 18 63.36 16.08 63.36 16.08 62.88 15.84 62.88 15.84 63.36 16.08 63.6 18 63.6 18 63.36 18.24 63.36 18.24 61.44 18.24 61.2 18.96 61.2 18.96 57.6 18.96 57.36 18.24 57.36 18.24 55.2"/><line class="cls-9" x1="114.24" y1="55.2" x2="112.08" y2="55.2"/><line class="cls-9" x1="20.4" y1="55.2" x2="18.24" y2="55.2"/></g></g></svg>