<svg xmlns="http://www.w3.org/2000/svg" xmlns:xlink="http://www.w3.org/1999/xlink" viewBox="0 0 148.32 59.52"><defs><style>.cls-1,.cls-2,.cls-7,.cls-8,.cls-9{fill:none;}.cls-1{clip-rule:evenodd;}.cls-3{clip-path:url(#clip-path);}.cls-4{clip-path:url(#clip-path-2);}.cls-5{fill:#fff;}.cls-6{clip-path:url(#clip-path-3);}.cls-7,.cls-8,.cls-9{stroke:#000;stroke-linecap:round;stroke-linejoin:round;}.cls-7{stroke-width:0.24px;}.cls-8{stroke-width:0.96px;}.cls-9{stroke-width:0.48px;}</style><clipPath id="clip-path" transform="translate(-740.13 -280.08)"><path class="cls-1" d="M835.41,338.4v.72H888v-.72Zm-94.8,0v.72h36.48v-.72Z"/></clipPath><clipPath id="clip-path-2" transform="translate(-740.13 -280.08)"><rect class="cls-2" width="1191.12" height="841.92"/></clipPath><clipPath id="clip-path-3" transform="translate(-740.13 -280.08)"><path class="cls-1" d="M835.41,332.4v.72H888v-.72Zm-94.8,0v.72h36.48v-.72Z"/></clipPath></defs><title>DoorsExisting_Single</title><g id="Layer_2" data-name="Layer 2"><g id="Layer_1-2" data-name="Layer 1"><g class="cls-3"><g class="cls-4"><rect class="cls-5" x="0.48" y="58.32" width="147.36" height="0.72"/></g></g><g class="cls-6"><g class="cls-4"><rect class="cls-5" x="0.48" y="52.32" width="147.36" height="0.72"/></g></g><line class="cls-7" x1="1.44" y1="58.56" x2="2.4" y2="58.56"/><line class="cls-7" x1="18.72" y1="58.56" x2="19.68" y2="58.56"/><line class="cls-7" x1="30.24" y1="58.56" x2="31.2" y2="58.56"/><line class="cls-7" x1="128.16" y1="58.56" x2="129.12" y2="58.56"/><line class="cls-7" x1="145.44" y1="58.56" x2="146.4" y2="58.56"/><line class="cls-7" x1="117.36" y1="59.04" x2="117.12" y2="58.56"/><line class="cls-7" x1="143.04" y1="59.04" x2="143.04" y2="59.04"/><line class="cls-7" x1="96.72" y1="58.8" x2="96.48" y2="59.04"/><line class="cls-7" x1="36.96" y1="58.56" x2="36.96" y2="58.56"/><line class="cls-7" x1="24.48" y1="52.8" x2="25.44" y2="52.8"/><line class="cls-7" x1="99.36" y1="52.8" x2="100.32" y2="52.8"/><line class="cls-7" x1="116.64" y1="52.8" x2="117.6" y2="52.8"/><line class="cls-7" x1="140.64" y1="53.04" x2="140.16" y2="52.32"/><polyline class="cls-8" points="0.48 59.04 36.96 59.04 36.96 52.32 0.48 52.32 0.48 59.04"/><polyline class="cls-8" points="95.28 59.04 147.84 59.04 147.84 52.32 95.28 52.32 95.28 59.04"/><line class="cls-9" x1="36.96" y1="58.32" x2="0.48" y2="58.32"/><line class="cls-9" x1="147.84" y1="58.32" x2="95.28" y2="58.32"/><line class="cls-9" x1="36.96" y1="53.04" x2="0.48" y2="53.04"/><line class="cls-9" x1="147.84" y1="53.04" x2="95.28" y2="53.04"/><line class="cls-9" x1="42.24" y1="0.24" x2="40.08" y2="0.24"/><line class="cls-9" x1="42.24" y1="52.32" x2="40.08" y2="52.32"/><line class="cls-9" x1="42.24" y1="52.32" x2="42.24" y2="0.24"/><line class="cls-9" x1="40.08" y1="52.32" x2="40.08" y2="0.24"/><polyline class="cls-9" points="92.16 52.32 91.44 43.2 89.04 34.56 85.2 26.16 79.92 18.72 73.68 12.24 66.24 7.2 57.84 3.36 49.2 0.96 40.08 0.24"/><polyline class="cls-9" points="39.84 54.96 39.84 52.32 37.44 52.32 37.44 59.04 39.84 59.04 39.84 57.6 40.56 57.6 40.56 54.96 39.84 54.96"/><polyline class="cls-9" points="92.4 54.96 91.68 54.96 91.68 57.6 92.4 57.6 92.4 59.04 94.8 59.04 94.8 52.32 92.4 52.32 92.4 54.96"/></g></g></svg>