<svg xmlns="http://www.w3.org/2000/svg" viewBox="0 0 186.64 83.7"><defs><style>.cls-1,.cls-3{fill:none;stroke:#000;stroke-linecap:round;stroke-linejoin:round;}.cls-1{stroke-width:0.48px;}.cls-2{fill-rule:evenodd;}.cls-3{stroke-width:0.24px;}.cls-15,.cls-4{font-size:7.21px;font-family:ArialNarrow, Arial;}.cls-17,.cls-4{letter-spacing:-0.02em;}.cls-5{letter-spacing:0.01em;}.cls-6{letter-spacing:-0.01em;}.cls-7{letter-spacing:0.01em;}.cls-8{letter-spacing:-0.02em;}.cls-9{letter-spacing:-0.01em;}.cls-10{letter-spacing:-0.02em;}.cls-11{letter-spacing:-0.02em;}.cls-12{letter-spacing:-0.03em;}.cls-13{letter-spacing:-0.03em;}.cls-14{letter-spacing:0em;}.cls-16{letter-spacing:-0.01em;}</style></defs><title>TypicalDoor03MeetingStyleDetail</title><g id="Layer_2" data-name="Layer 2"><g id="Layer_1-2" data-name="Layer 1"><polyline class="cls-1" points="144.48 29.7 86.16 29.7 85.68 29.7 85.44 29.94 84.96 29.94 84.96 30.42 84.72 30.66 84.72 31.14 84.72 82.02 84.72 82.5 84.96 82.74 84.96 82.98 85.44 83.22 85.68 83.46 86.16 83.46 144.48 83.46"/><polyline class="cls-1" points="0.24 83.46 77.52 83.46 78 83.46 78.24 83.22 78.48 82.98 78.72 82.74 78.96 82.5 78.96 82.02 78.96 31.14 78.96 30.66 78.72 30.42 78.48 29.94 78.24 29.94 78 29.7 77.52 29.7 0.24 29.7"/><polyline class="cls-1" points="84.72 76.5 84.72 26.82 49.2 26.82"/><polyline class="cls-1" points="81.84 76.5 81.84 29.7 49.2 29.7 49.2 26.82"/><line class="cls-1" x1="84.72" y1="76.5" x2="81.84" y2="76.5"/><line class="cls-1" x1="81.84" y1="52.98" x2="103.2" y2="52.98"/><polygon class="cls-2" points="71.04 23.7 69.84 23.7 70.56 27.78 71.04 23.7"/><polygon class="cls-3" points="71.04 23.7 69.84 23.7 70.56 27.78 71.04 23.7"/><line class="cls-3" x1="70.56" y1="3.06" x2="119.04" y2="3.06"/><line class="cls-3" x1="70.56" y1="27.78" x2="70.56" y2="3.06"/><text class="cls-4" transform="translate(124.8 6.18)">25<tspan class="cls-5" x="6.24" y="0"> </tspan><tspan class="cls-6" x="7.92" y="0">x</tspan><tspan class="cls-7" x="10.8" y="0"> </tspan><tspan x="12.48" y="0">32</tspan><tspan class="cls-8" x="18.72" y="0">mm</tspan><tspan class="cls-5" x="28.32" y="0"> </tspan><tspan class="cls-9" x="30" y="0">A</tspan><tspan class="cls-10" x="33.85" y="0">LU</tspan><tspan class="cls-11" x="41.07" y="0">M</tspan><tspan class="cls-12" x="45.87" y="0">I</tspan><tspan class="cls-13" x="47.31" y="0">N</tspan><tspan class="cls-12" x="51.39" y="0">I</tspan><tspan class="cls-13" x="52.83" y="0">U</tspan><tspan class="cls-14" x="56.92" y="0">M</tspan></text><text class="cls-15" transform="translate(124.8 14.1)"><tspan class="cls-9">A</tspan><tspan class="cls-13" x="3.85" y="0">N</tspan><tspan class="cls-16" x="7.93" y="0">G</tspan><tspan class="cls-17" x="12.49" y="0">L</tspan><tspan x="15.61" y="0">E</tspan></text></g></g></svg>