<svg xmlns="http://www.w3.org/2000/svg" viewBox="0 0 445 196.05"><defs><style>.cls-1,.cls-2{fill:none;stroke:#000;stroke-linecap:round;stroke-linejoin:round;}.cls-1{stroke-width:0.48px;}.cls-2{stroke-width:0.96px;}.cls-3{font-size:13.99px;font-family:ArialNarrow, Arial;}.cls-4{letter-spacing:-0.01em;}.cls-5{letter-spacing:-0.02em;}.cls-6{letter-spacing:-0.02em;}.cls-7{letter-spacing:-0.01em;}.cls-8{letter-spacing:-0.01em;}.cls-9{letter-spacing:-0.03em;}.cls-10{letter-spacing:0em;}.cls-11{letter-spacing:0em;}.cls-12{letter-spacing:-0.03em;}</style></defs><title>TypicalDoorJambDetails</title><g id="Layer_2" data-name="Layer 2"><g id="Layer_1-2" data-name="Layer 1"><line class="cls-1" x1="27.12" y1="113.76" x2="45.6" y2="113.76"/><line class="cls-1" x1="27.12" y1="0.24" x2="45.6" y2="0.24"/><line class="cls-1" x1="47.04" y1="112.08" x2="47.04" y2="89.04"/><line class="cls-1" x1="25.44" y1="112.08" x2="25.44" y2="98.4"/><polyline class="cls-1" points="47.04 112.08 46.56 113.28 45.6 113.76"/><polyline class="cls-1" points="25.44 1.92 25.92 0.96 27.12 0.24"/><polyline class="cls-1" points="25.44 112.08 25.92 113.28 27.12 113.76"/><line class="cls-1" x1="25.44" y1="15.6" x2="25.44" y2="1.92"/><line class="cls-1" x1="59.76" y1="88.32" x2="47.76" y2="88.32"/><line class="cls-1" x1="61.2" y1="86.64" x2="61.2" y2="27.6"/><polyline class="cls-1" points="61.2 86.64 60.72 87.6 59.76 88.32"/><polyline class="cls-1" points="47.04 89.04 47.28 88.56 47.76 88.32"/><line class="cls-1" x1="26.64" y1="112.08" x2="26.64" y2="98.4"/><polyline class="cls-1" points="26.64 112.08 26.88 112.32 27.12 112.56 45.36 112.56"/><polyline class="cls-1" points="45.84 112.08 45.84 112.32 45.36 112.56"/><polyline class="cls-1" points="45.84 112.08 45.84 89.04 46.56 87.6 47.76 87.12"/><line class="cls-1" x1="59.52" y1="87.12" x2="47.76" y2="87.12"/><polyline class="cls-1" points="60 86.64 60 86.88 59.52 87.12"/><line class="cls-1" x1="60" y1="86.64" x2="60" y2="27.6"/><line class="cls-1" x1="27.12" y1="1.44" x2="45.6" y2="1.44"/><polyline class="cls-1" points="26.64 1.92 26.88 1.68 27.12 1.44"/><line class="cls-1" x1="26.64" y1="15.6" x2="26.64" y2="1.92"/><line class="cls-1" x1="47.04" y1="1.92" x2="47.04" y2="24.96"/><polyline class="cls-1" points="47.04 1.92 46.56 0.96 45.6 0.24"/><line class="cls-1" x1="59.76" y1="25.92" x2="47.76" y2="25.92"/><polyline class="cls-1" points="61.2 27.6 60.72 26.4 59.76 25.92"/><polyline class="cls-1" points="47.04 24.96 47.28 25.68 47.76 25.92"/><polyline class="cls-1" points="45.84 1.92 45.84 1.68 45.6 1.44"/><polyline class="cls-1" points="45.84 1.92 45.84 24.96 46.56 26.4 48 26.88"/><line class="cls-1" x1="59.52" y1="26.88" x2="48" y2="26.88"/><polyline class="cls-1" points="60 27.6 60 27.12 59.52 26.88"/><line class="cls-1" x1="27.12" y1="16.32" x2="31.2" y2="16.32"/><line class="cls-1" x1="27.12" y1="17.28" x2="31.2" y2="17.28"/><polyline class="cls-1" points="25.44 15.6 25.92 16.8 27.12 17.28"/><polyline class="cls-1" points="26.64 15.6 26.88 16.08 27.12 16.32"/><line class="cls-1" x1="27.12" y1="97.92" x2="31.2" y2="97.92"/><line class="cls-1" x1="27.12" y1="96.72" x2="31.2" y2="96.72"/><polyline class="cls-1" points="25.44 98.4 25.92 97.2 27.12 96.72"/><polyline class="cls-1" points="26.64 98.4 26.88 98.16 27.12 97.92"/><line class="cls-1" x1="198.48" y1="15.6" x2="198.48" y2="1.92"/><polyline class="cls-1" points="197.28 15.6 197.28 1.92 197.76 0.96 198.96 0.24"/><polyline class="cls-1" points="198.48 1.92 198.72 1.68 198.96 1.44"/><line class="cls-1" x1="198.96" y1="0.24" x2="217.2" y2="0.24"/><line class="cls-1" x1="217.68" y1="1.92" x2="217.68" y2="112.08"/><line class="cls-1" x1="218.88" y1="1.92" x2="218.88" y2="112.08"/><polyline class="cls-1" points="218.88 1.92 218.4 0.96 217.2 0.24"/><polyline class="cls-1" points="217.68 1.92 217.68 1.68 217.2 1.44"/><line class="cls-1" x1="198.96" y1="1.44" x2="217.2" y2="1.44"/><polyline class="cls-1" points="197.28 112.08 197.76 113.28 198.96 113.76"/><polyline class="cls-1" points="198.48 112.08 198.72 112.56 198.96 112.56"/><line class="cls-1" x1="198.96" y1="113.76" x2="217.2" y2="113.76"/><polyline class="cls-1" points="218.88 112.08 218.4 113.28 217.2 113.76"/><polyline class="cls-1" points="217.68 112.08 217.68 112.56 217.2 112.56"/><line class="cls-1" x1="198.96" y1="112.56" x2="217.2" y2="112.56"/><line class="cls-1" x1="198.48" y1="98.4" x2="198.48" y2="112.08"/><line class="cls-1" x1="197.28" y1="98.4" x2="197.28" y2="112.08"/><polyline class="cls-1" points="354.96 1.92 355.44 0.96 356.64 0.24"/><polyline class="cls-1" points="356.16 1.92 356.16 1.68 356.64 1.44"/><line class="cls-1" x1="356.64" y1="0.24" x2="374.88" y2="0.24"/><line class="cls-1" x1="375.36" y1="1.92" x2="375.36" y2="112.08"/><line class="cls-1" x1="376.56" y1="1.92" x2="376.56" y2="112.08"/><polyline class="cls-1" points="376.56 1.92 376.08 0.96 374.88 0.24"/><polyline class="cls-1" points="375.36 1.92 375.12 1.68 374.88 1.44"/><line class="cls-1" x1="356.64" y1="1.44" x2="374.88" y2="1.44"/><polyline class="cls-1" points="354.96 112.08 355.44 113.28 356.64 113.76"/><polyline class="cls-1" points="356.16 112.08 356.16 112.56 356.64 112.56"/><line class="cls-1" x1="356.64" y1="113.76" x2="374.88" y2="113.76"/><polyline class="cls-1" points="376.56 112.08 376.08 113.28 374.88 113.76"/><polyline class="cls-1" points="375.36 112.08 375.12 112.56 374.88 112.56"/><line class="cls-1" x1="356.64" y1="112.56" x2="374.88" y2="112.56"/><line class="cls-1" x1="356.16" y1="1.92" x2="356.16" y2="112.08"/><line class="cls-1" x1="354.96" y1="1.92" x2="354.96" y2="112.08"/><polyline class="cls-1" points="197.28 15.6 197.76 16.8 198.96 17.28"/><polyline class="cls-1" points="198.48 15.6 198.72 16.08 198.96 16.32"/><line class="cls-1" x1="198.96" y1="17.28" x2="201.36" y2="17.28"/><polyline class="cls-1" points="198.96 16.32 201.36 16.32 201.36 17.28"/><polyline class="cls-1" points="197.28 98.4 197.76 97.2 198.96 96.72"/><polyline class="cls-1" points="198.48 98.4 198.72 97.92 198.96 97.92"/><line class="cls-1" x1="198.96" y1="96.72" x2="201.36" y2="96.72"/><polyline class="cls-1" points="198.96 97.92 201.36 97.92 201.36 96.72"/><line class="cls-2" x1="217.68" y1="71.28" x2="216" y2="64.8"/><polyline class="cls-2" points="215.28 60.72 214.8 56.4 215.28 52.08"/><line class="cls-2" x1="216" y1="48" x2="217.68" y2="41.76"/><text class="cls-3" transform="translate(0 144.72)"><tspan class="cls-4">P</tspan><tspan class="cls-5" x="7.45" y="0">R</tspan><tspan class="cls-6" x="15.38" y="0">OF</tspan><tspan class="cls-7" x="30.76" y="0">I</tspan><tspan class="cls-8" x="33.88" y="0">L</tspan><tspan class="cls-4" x="40.12" y="0">E</tspan><tspan class="cls-7" x="47.57" y="0"> </tspan><tspan class="cls-4" x="50.69" y="0">P</tspan><tspan x="58.15" y="0">1</tspan></text><text class="cls-3" transform="translate(0 160.32)"><tspan class="cls-5">D</tspan><tspan class="cls-6" x="7.93" y="0">O</tspan><tspan class="cls-9" x="16.58" y="0">U</tspan><tspan class="cls-4" x="24.5" y="0">BLE</tspan><tspan class="cls-10" x="45.6" y="0"> </tspan><tspan class="cls-9" x="48.72" y="0">R</tspan><tspan class="cls-4" x="56.64" y="0">EBA</tspan><tspan class="cls-6" x="79.01" y="0">T</tspan><tspan class="cls-4" x="85.73" y="0">E</tspan><tspan x="93.19" y="0">D</tspan></text><text class="cls-3" transform="translate(0 176.16)"><tspan class="cls-4">P</tspan><tspan class="cls-5" x="7.45" y="0">R</tspan><tspan class="cls-4" x="15.38" y="0">ESSE</tspan><tspan class="cls-5" x="45.2" y="0">D</tspan><tspan class="cls-7" x="53.13" y="0"> </tspan><tspan class="cls-4" x="56.25" y="0">S</tspan><tspan class="cls-6" x="63.7" y="0">T</tspan><tspan class="cls-4" x="70.43" y="0">EE</tspan><tspan x="85.34" y="0">L</tspan></text><text class="cls-3" transform="translate(174.72 144.72)"><tspan class="cls-4">P</tspan><tspan class="cls-5" x="7.45" y="0">R</tspan><tspan class="cls-6" x="15.38" y="0">OF</tspan><tspan class="cls-7" x="30.76" y="0">I</tspan><tspan class="cls-8" x="33.88" y="0">L</tspan><tspan class="cls-4" x="40.12" y="0">E</tspan><tspan class="cls-7" x="47.57" y="0"> </tspan><tspan class="cls-4" x="50.69" y="0">P</tspan><tspan x="58.15" y="0">2</tspan></text><text class="cls-3" transform="translate(174.72 160.32)"><tspan class="cls-5">N</tspan><tspan class="cls-6" x="7.93" y="0">O</tspan><tspan class="cls-9" x="16.58" y="0">N</tspan><tspan class="cls-10" x="24.5" y="0"> </tspan><tspan class="cls-9" x="27.62" y="0">R</tspan><tspan class="cls-11" x="35.55" y="0">E</tspan><tspan class="cls-4" x="43.23" y="0">BA</tspan><tspan class="cls-6" x="58.14" y="0">T</tspan><tspan class="cls-4" x="64.87" y="0">E</tspan><tspan x="72.32" y="0">D</tspan></text><text class="cls-3" transform="translate(174.72 176.16)"><tspan class="cls-4">P</tspan><tspan class="cls-5" x="7.45" y="0">R</tspan><tspan class="cls-4" x="15.38" y="0">ESSE</tspan><tspan class="cls-5" x="45.2" y="0">D</tspan><tspan class="cls-7" x="53.13" y="0"> </tspan><tspan class="cls-4" x="56.25" y="0">S</tspan><tspan class="cls-6" x="63.7" y="0">T</tspan><tspan class="cls-4" x="70.43" y="0">EE</tspan><tspan x="85.34" y="0">L</tspan></text><text class="cls-3" transform="translate(353.28 144.72)"><tspan class="cls-4">P</tspan><tspan class="cls-5" x="7.45" y="0">R</tspan><tspan class="cls-6" x="15.38" y="0">OF</tspan><tspan class="cls-7" x="30.76" y="0">I</tspan><tspan class="cls-8" x="33.88" y="0">L</tspan><tspan class="cls-4" x="40.12" y="0">E</tspan><tspan class="cls-7" x="47.57" y="0"> </tspan><tspan class="cls-4" x="50.69" y="0">P</tspan><tspan x="58.15" y="0">3</tspan></text><text class="cls-3" transform="translate(353.28 160.32)"><tspan class="cls-5">N</tspan><tspan class="cls-6" x="7.93" y="0">O</tspan><tspan class="cls-9" x="16.58" y="0">N</tspan><tspan class="cls-10" x="24.5" y="0"> </tspan><tspan class="cls-9" x="27.62" y="0">R</tspan><tspan class="cls-11" x="35.55" y="0">E</tspan><tspan class="cls-4" x="43.23" y="0">BA</tspan><tspan class="cls-6" x="58.14" y="0">T</tspan><tspan class="cls-4" x="64.87" y="0">E</tspan><tspan x="72.32" y="0">D</tspan></text><text class="cls-3" transform="translate(353.28 176.16)"><tspan class="cls-5">C</tspan><tspan class="cls-6" x="7.93" y="0">O</tspan><tspan class="cls-12" x="16.58" y="0">M</tspan><tspan class="cls-4" x="25.7" y="0">M</tspan><tspan class="cls-6" x="35.06" y="0">O</tspan><tspan x="43.71" y="0">N</tspan></text><text class="cls-3" transform="translate(353.28 191.76)"><tspan class="cls-4">P</tspan><tspan class="cls-5" x="7.45" y="0">R</tspan><tspan class="cls-4" x="15.38" y="0">ESSE</tspan><tspan class="cls-5" x="45.2" y="0">D</tspan><tspan class="cls-7" x="53.13" y="0"> </tspan><tspan class="cls-4" x="56.25" y="0">S</tspan><tspan class="cls-6" x="63.7" y="0">T</tspan><tspan class="cls-4" x="70.43" y="0">EE</tspan><tspan x="85.34" y="0">L</tspan></text></g></g></svg>