<svg xmlns="http://www.w3.org/2000/svg" xmlns:xlink="http://www.w3.org/1999/xlink" viewBox="0 0 189.12 90.96"><defs><style>.cls-1,.cls-2,.cls-5{fill:none;}.cls-2,.cls-5{stroke:#000;stroke-linecap:round;stroke-linejoin:round;}.cls-2{stroke-width:0.48px;}.cls-3{clip-path:url(#clip-path);}.cls-4{clip-path:url(#clip-path-2);}.cls-5{stroke-width:1.2px;}.cls-6{fill:#fff;}.cls-7{font-size:8.05px;font-family:ArialNarrow, Arial;}.cls-8{letter-spacing:-0.01em;}.cls-9{letter-spacing:-0.01em;}</style><clipPath id="clip-path"><rect class="cls-1" x="0.48" y="85.92" width="87.84" height="1.2"/></clipPath><clipPath id="clip-path-2"><rect class="cls-1" x="0.48" y="32.16" width="66.48" height="1.2"/></clipPath></defs><title>TypicalDoor01MeetingStyleDetail</title><g id="Layer_2" data-name="Layer 2"><g id="Layer_1-2" data-name="Layer 1"><polyline class="cls-2" points="188.88 32.64 73.44 32.64 72.96 32.64 72.72 32.88 72.48 32.88 72.24 33.36 72 33.6 72 34.08 72 56.64 72 57.12 72.24 57.36 72.48 57.6 72.72 57.84 72.96 58.08 73.44 58.08 93.36 58.08 93.36 84.96 93.36 85.44 93.36 85.68 93.6 85.92 94.08 86.16 94.32 86.4 94.8 86.4 188.88 86.4"/><g class="cls-3"><line class="cls-2" x1="0.24" y1="86.4" x2="87.6" y2="86.4"/></g><polyline class="cls-2" points="87.6 86.4 88.08 86.4 88.32 86.16 88.56 85.92 88.8 85.68 89.04 85.44 89.04 84.96 89.04 62.4 89.04 61.92 88.8 61.68 88.56 61.44 88.32 61.2 88.08 60.96 87.6 60.96 67.68 60.96 67.68 34.08 67.68 33.6 67.68 33.36 67.44 32.88 66.96 32.88 66.72 32.64 66.24 32.64"/><g class="cls-4"><line class="cls-2" x1="66.24" y1="32.64" x2="0.24" y2="32.64"/></g><line class="cls-2" x1="112.8" y1="60.96" x2="112.8" y2="90.72"/><line class="cls-5" x1="112.8" y1="86.4" x2="110.16" y2="83.52"/><line class="cls-5" x1="112.8" y1="86.4" x2="115.68" y2="89.28"/><line class="cls-2" x1="112.8" y1="86.4" x2="108.72" y2="86.4"/><line class="cls-2" x1="112.8" y1="86.4" x2="126.96" y2="86.4"/><line class="cls-2" x1="112.8" y1="58.08" x2="112.8" y2="60.96"/><line class="cls-5" x1="112.8" y1="60.96" x2="110.16" y2="58.08"/><line class="cls-5" x1="112.8" y1="60.96" x2="115.68" y2="63.84"/><line class="cls-2" x1="112.8" y1="60.96" x2="117.12" y2="60.96"/><line class="cls-2" x1="112.8" y1="60.96" x2="98.64" y2="60.96"/><line class="cls-2" x1="112.8" y1="28.32" x2="112.8" y2="58.08"/><line class="cls-5" x1="112.8" y1="58.08" x2="110.16" y2="55.2"/><line class="cls-5" x1="112.8" y1="58.08" x2="115.68" y2="60.96"/><line class="cls-2" x1="112.8" y1="58.08" x2="117.12" y2="58.08"/><line class="cls-2" x1="112.8" y1="58.08" x2="98.64" y2="58.08"/><line class="cls-5" x1="112.8" y1="32.64" x2="110.16" y2="29.76"/><line class="cls-5" x1="112.8" y1="32.64" x2="115.68" y2="35.52"/><line class="cls-2" x1="112.8" y1="32.64" x2="108.72" y2="32.64"/><line class="cls-2" x1="112.8" y1="32.64" x2="126.96" y2="32.64"/><rect class="cls-6" x="101.04" y="40.56" width="9.6" height="9.6"/><text class="cls-7" transform="translate(108.72 49.92) rotate(-90)"><tspan class="cls-8">E</tspan><tspan x="4.32" y="0">Q</tspan></text><rect class="cls-6" x="101.04" y="57.6" width="9.6" height="3.84"/><text class="cls-7" transform="translate(108.72 61.2) rotate(-90)">2</text><rect class="cls-6" x="101.04" y="68.88" width="9.6" height="9.6"/><text class="cls-7" transform="translate(108.72 78.24) rotate(-90)"><tspan class="cls-8">E</tspan><tspan x="4.32" y="0">Q</tspan></text><line class="cls-2" x1="72" y1="11.76" x2="97.44" y2="11.76"/><line class="cls-5" x1="93.36" y1="11.76" x2="90.48" y2="14.64"/><line class="cls-5" x1="93.36" y1="11.76" x2="96" y2="9.12"/><line class="cls-2" x1="93.36" y1="11.76" x2="93.36" y2="7.68"/><line class="cls-2" x1="93.36" y1="11.76" x2="93.36" y2="25.92"/><line class="cls-2" x1="63.6" y1="11.76" x2="72" y2="11.76"/><line class="cls-5" x1="72" y1="11.76" x2="69.12" y2="14.64"/><line class="cls-5" x1="72" y1="11.76" x2="74.88" y2="9.12"/><line class="cls-2" x1="72" y1="11.76" x2="72" y2="7.68"/><line class="cls-2" x1="72" y1="11.76" x2="72" y2="25.92"/><line class="cls-5" x1="67.68" y1="11.76" x2="64.8" y2="14.64"/><line class="cls-5" x1="67.68" y1="11.76" x2="70.56" y2="9.12"/><line class="cls-2" x1="67.68" y1="11.76" x2="67.68" y2="7.68"/><line class="cls-2" x1="67.68" y1="11.76" x2="67.68" y2="25.92"/><rect class="cls-6" x="68.16" width="3.36" height="8.88"/><text class="cls-7" transform="translate(68.16 7.2)">3</text><rect class="cls-6" x="79.2" width="7.2" height="8.88"/><text class="cls-7" transform="translate(79.2 7.2)"><tspan class="cls-9">1</tspan><tspan x="3.6" y="0">5</tspan></text></g></g></svg>