<svg xmlns="http://www.w3.org/2000/svg" viewBox="0 0 231.79 82.56"><defs><style>.cls-1,.cls-2,.cls-3,.cls-8{fill:none;stroke-linecap:round;stroke-linejoin:round;}.cls-1{stroke:gray;}.cls-1,.cls-2{stroke-width:0.48px;}.cls-2,.cls-3,.cls-8{stroke:#000;}.cls-3{stroke-width:1.2px;}.cls-4{fill:#fff;}.cls-5{font-size:8.05px;}.cls-20,.cls-5,.cls-9{font-family:ArialNarrow, Arial;}.cls-6{letter-spacing:-0.01em;}.cls-7{fill-rule:evenodd;}.cls-8{stroke-width:0.24px;}.cls-20,.cls-9{font-size:7.21px;}.cls-10{letter-spacing:-0.02em;}.cls-11{letter-spacing:-0.01em;}.cls-12{letter-spacing:-0.03em;}.cls-13{letter-spacing:0.01em;}.cls-14,.cls-20{letter-spacing:-0.01em;}.cls-15{letter-spacing:-0.02em;}.cls-16{letter-spacing:-0.01em;}.cls-17{letter-spacing:0.01em;}.cls-18{letter-spacing:-0.05em;}.cls-19{letter-spacing:-0.02em;}.cls-21{letter-spacing:0em;}</style></defs><title>TypicalDoor06MeetingStyleDetail</title><g id="Layer_2" data-name="Layer 2"><g id="Layer_1-2" data-name="Layer 1"><line class="cls-1" x1="59.52" y1="56.88" x2="59.52" y2="54.48"/><line class="cls-1" x1="59.52" y1="51.6" x2="59.52" y2="50.16"/><line class="cls-1" x1="59.52" y1="47.28" x2="59.52" y2="45.84"/><line class="cls-1" x1="59.52" y1="42.96" x2="59.52" y2="41.52"/><line class="cls-1" x1="59.52" y1="38.64" x2="59.52" y2="37.2"/><line class="cls-1" x1="59.52" y1="34.32" x2="59.52" y2="32.88"/><line class="cls-1" x1="59.52" y1="30" x2="59.52" y2="28.56"/><line class="cls-1" x1="59.52" y1="25.68" x2="59.52" y2="24.24"/><line class="cls-1" x1="59.52" y1="21.36" x2="59.52" y2="19.92"/><line class="cls-1" x1="59.52" y1="17.04" x2="59.52" y2="15.6"/><line class="cls-1" x1="59.52" y1="12.72" x2="59.52" y2="10.32"/><polyline class="cls-2" points="0.24 82.32 67.92 82.32 68.4 82.32 68.64 82.08 68.88 81.84 69.12 81.6 69.36 81.12 69.36 80.88 69.36 58.08 69.36 57.84 69.12 57.6 68.88 57.12 68.64 56.88 68.4 56.88 67.92 56.88 48 56.88 48 29.76 48 29.52 48 29.04 47.76 28.8 47.52 28.56 47.04 28.56 46.8 28.32 0.24 28.32"/><line class="cls-2" x1="72" y1="74.4" x2="72" y2="73.2"/><polyline class="cls-2" points="72.24 78.72 72.72 78.24 73.44 78.72"/><polyline class="cls-2" points="72 78.96 72.24 78.48 72.72 78.24"/><polyline class="cls-2" points="70.8 80.16 72.24 80.16 72.24 78.72"/><line class="cls-2" x1="70.8" y1="80.16" x2="72" y2="80.16"/><line class="cls-2" x1="72" y1="78.96" x2="72" y2="80.16"/><line class="cls-2" x1="80.4" y1="75.12" x2="72.72" y2="75.12"/><line class="cls-2" x1="73.92" y1="75.6" x2="80.4" y2="75.6"/><line class="cls-2" x1="73.2" y1="77.04" x2="73.2" y2="76.08"/><line class="cls-2" x1="80.4" y1="78.24" x2="72.72" y2="78.24"/><line class="cls-2" x1="73.92" y1="77.76" x2="80.4" y2="77.76"/><line class="cls-2" x1="70.8" y1="73.2" x2="72" y2="73.2"/><line class="cls-2" x1="70.8" y1="80.16" x2="70.8" y2="73.2"/><line class="cls-2" x1="73.44" y1="80.64" x2="73.44" y2="78.72"/><line class="cls-2" x1="69.36" y1="81.36" x2="72.72" y2="81.36"/><line class="cls-2" x1="69.36" y1="76.56" x2="69.36" y2="81.36"/><line class="cls-2" x1="69.36" y1="71.28" x2="69.36" y2="76.56"/><line class="cls-2" x1="72.24" y1="72.96" x2="72.24" y2="74.4"/><line class="cls-2" x1="70.8" y1="72.96" x2="72.24" y2="72.96"/><line class="cls-2" x1="70.8" y1="76.56" x2="70.8" y2="72.96"/><line class="cls-2" x1="70.8" y1="80.16" x2="70.8" y2="76.56"/><line class="cls-2" x1="70.56" y1="70.32" x2="70.56" y2="60"/><line class="cls-2" x1="73.44" y1="57.84" x2="73.44" y2="74.4"/><line class="cls-2" x1="69.36" y1="57.84" x2="73.44" y2="57.84"/><line class="cls-2" x1="69.36" y1="58.8" x2="69.36" y2="57.84"/><polyline class="cls-2" points="72 74.4 72.24 74.88 72.72 75.12"/><polyline class="cls-2" points="73.92 75.6 73.44 75.6 73.2 76.08"/><polyline class="cls-2" points="73.2 77.04 73.44 77.52 73.92 77.76"/><line class="cls-2" x1="80.64" y1="75.36" x2="80.4" y2="75.12"/><line class="cls-2" x1="80.4" y1="75.6" x2="80.64" y2="75.36"/><line class="cls-2" x1="80.64" y1="78" x2="80.4" y2="77.76"/><line class="cls-2" x1="80.4" y1="78.24" x2="80.64" y2="78"/><polyline class="cls-2" points="69.36 71.28 70.08 71.04 70.56 70.32"/><polyline class="cls-2" points="70.56 60 70.08 59.28 69.36 58.8"/><polyline class="cls-2" points="72.24 74.4 72.72 75.12 73.44 74.4"/><polyline class="cls-2" points="72.72 81.36 73.2 81.12 73.44 80.64"/><polyline class="cls-2" points="144.48 28.32 60.96 28.32 60.48 28.56 60.24 28.56 59.76 28.8 59.76 29.04 59.52 29.52 59.52 29.76 59.52 52.56 59.52 52.8 59.76 53.28 59.76 53.52 60.24 53.76 60.48 54 60.96 54 80.64 54 80.64 80.88 80.88 81.12 80.88 81.6 81.12 81.84 81.36 82.08 81.84 82.32 82.08 82.32 144.48 82.32"/><line class="cls-2" x1="50.64" y1="36.24" x2="50.64" y2="37.68"/><polyline class="cls-2" points="50.88 31.92 51.6 32.4 52.08 31.92"/><polyline class="cls-2" points="50.64 31.92 50.88 32.4 51.36 32.64"/><polyline class="cls-2" points="49.44 30.48 50.88 30.48 50.88 31.92"/><line class="cls-2" x1="49.44" y1="30.72" x2="50.64" y2="30.72"/><line class="cls-2" x1="50.64" y1="31.92" x2="50.64" y2="30.72"/><line class="cls-2" x1="59.04" y1="35.76" x2="51.36" y2="35.76"/><line class="cls-2" x1="52.56" y1="35.28" x2="59.04" y2="35.28"/><line class="cls-2" x1="51.84" y1="33.6" x2="51.84" y2="34.56"/><line class="cls-2" x1="59.04" y1="32.64" x2="51.36" y2="32.64"/><line class="cls-2" x1="52.56" y1="32.88" x2="59.04" y2="32.88"/><line class="cls-2" x1="49.44" y1="37.68" x2="50.64" y2="37.68"/><line class="cls-2" x1="49.44" y1="30.72" x2="49.44" y2="37.68"/><line class="cls-2" x1="52.08" y1="30.24" x2="52.08" y2="31.92"/><line class="cls-2" x1="48" y1="29.52" x2="51.36" y2="29.52"/><line class="cls-2" x1="48" y1="34.08" x2="48" y2="29.52"/><line class="cls-2" x1="48" y1="39.36" x2="48" y2="34.08"/><line class="cls-2" x1="50.88" y1="37.68" x2="50.88" y2="36.24"/><line class="cls-2" x1="49.44" y1="37.68" x2="50.88" y2="37.68"/><line class="cls-2" x1="49.44" y1="34.08" x2="49.44" y2="37.68"/><line class="cls-2" x1="49.44" y1="30.48" x2="49.44" y2="34.08"/><line class="cls-2" x1="49.2" y1="40.56" x2="49.2" y2="50.64"/><line class="cls-2" x1="52.08" y1="53.04" x2="52.08" y2="36.24"/><line class="cls-2" x1="48" y1="53.04" x2="52.08" y2="53.04"/><line class="cls-2" x1="48" y1="51.84" x2="48" y2="53.04"/><polyline class="cls-2" points="50.64 36.24 50.88 35.76 51.36 35.76"/><polyline class="cls-2" points="52.56 35.28 52.08 35.04 51.84 34.56"/><polyline class="cls-2" points="51.84 33.6 52.08 33.12 52.56 32.88"/><line class="cls-2" x1="59.28" y1="35.52" x2="59.04" y2="35.76"/><line class="cls-2" x1="59.04" y1="35.28" x2="59.28" y2="35.52"/><line class="cls-2" x1="59.28" y1="32.64" x2="59.04" y2="32.88"/><line class="cls-2" x1="59.04" y1="32.64" x2="59.28" y2="32.64"/><polyline class="cls-2" points="48 39.36 48.96 39.6 49.2 40.56"/><polyline class="cls-2" points="49.2 50.64 48.96 51.36 48 51.84"/><polyline class="cls-2" points="50.88 36.24 51.6 35.76 52.08 36.24"/><polyline class="cls-2" points="51.36 29.52 51.84 29.52 52.08 30.24"/><line class="cls-2" x1="52.08" y1="47.04" x2="42.24" y2="47.04"/><line class="cls-2" x1="73.44" y1="66" x2="63.36" y2="66"/><line class="cls-2" x1="99.84" y1="49.68" x2="99.84" y2="60.96"/><polyline class="cls-2" points="99.84 55.44 96.24 55.92 93.36 57.36 92.4 59.52"/><line class="cls-3" x1="99.84" y1="56.88" x2="96.96" y2="54"/><line class="cls-3" x1="99.84" y1="56.88" x2="102.72" y2="59.52"/><line class="cls-2" x1="99.84" y1="56.88" x2="104.16" y2="56.88"/><line class="cls-2" x1="99.84" y1="56.88" x2="85.68" y2="56.88"/><line class="cls-3" x1="99.84" y1="54" x2="96.96" y2="51.12"/><line class="cls-3" x1="99.84" y1="54" x2="102.72" y2="56.88"/><line class="cls-2" x1="99.84" y1="54" x2="104.16" y2="54"/><line class="cls-2" x1="99.84" y1="54" x2="85.68" y2="54"/><rect class="cls-4" x="88.08" y="59.52" width="9.6" height="3.84"/><text class="cls-5" transform="translate(95.76 63.12) rotate(-90)">2</text><line class="cls-2" x1="55.2" y1="11.76" x2="84.96" y2="11.76"/><line class="cls-3" x1="80.64" y1="11.76" x2="78" y2="14.64"/><line class="cls-3" x1="80.64" y1="11.76" x2="83.52" y2="8.88"/><line class="cls-2" x1="80.64" y1="11.76" x2="80.64" y2="7.44"/><line class="cls-2" x1="80.64" y1="11.76" x2="80.64" y2="25.92"/><line class="cls-3" x1="59.52" y1="11.76" x2="56.64" y2="14.64"/><line class="cls-3" x1="59.52" y1="11.76" x2="62.4" y2="8.88"/><line class="cls-2" x1="59.52" y1="11.76" x2="59.52" y2="7.44"/><line class="cls-2" x1="59.52" y1="11.76" x2="59.52" y2="25.44"/><rect class="cls-4" x="66.48" width="7.2" height="8.88"/><text class="cls-5" transform="translate(66.48 7.2)"><tspan class="cls-6">1</tspan><tspan x="3.6" y="0">5</tspan></text><polygon class="cls-7" points="81.36 76.56 81.36 75.6 77.04 76.08 81.36 76.56"/><polygon class="cls-8" points="81.36 76.56 81.36 75.6 77.04 76.08 81.36 76.56"/><line class="cls-8" x1="115.68" y1="76.08" x2="136.8" y2="46.8"/><line class="cls-8" x1="77.04" y1="76.08" x2="115.68" y2="76.08"/><polygon class="cls-7" points="60.48 35.52 60.48 34.32 56.4 35.04 60.48 35.52"/><polygon class="cls-8" points="60.48 35.52 60.48 34.32 56.4 35.04 60.48 35.52"/><line class="cls-8" x1="112.8" y1="35.04" x2="136.8" y2="46.8"/><line class="cls-8" x1="56.4" y1="35.04" x2="112.8" y2="35.04"/><text class="cls-9" transform="translate(142.56 49.68)"><tspan class="cls-10">D</tspan><tspan class="cls-11" x="4.09" y="0">OO</tspan><tspan class="cls-12" x="13.22" y="0">R</tspan><tspan class="cls-13" x="17.3" y="0"> </tspan><tspan class="cls-14" x="18.98" y="0">SEA</tspan><tspan class="cls-15" x="30.52" y="0">L</tspan><tspan class="cls-16" x="33.64" y="0">S</tspan><tspan class="cls-17" x="37.49" y="0"> </tspan><tspan class="cls-10" x="39.17" y="0">R</tspan><tspan class="cls-16" x="43.26" y="0">A</tspan><tspan class="cls-18" x="47.1" y="0">V</tspan><tspan class="cls-14" x="50.71" y="0">E</tspan><tspan class="cls-10" x="54.55" y="0">N</tspan><tspan class="cls-13" x="58.64" y="0"> </tspan><tspan class="cls-10" x="60.32" y="0">R</tspan><tspan class="cls-14" x="64.41" y="0">P</tspan><tspan class="cls-19" x="68.26" y="0">71</tspan><tspan class="cls-13" x="74.49" y="0">/ </tspan><tspan class="cls-19" x="77.85" y="0">71</tspan><tspan class="cls-14" x="84.07" y="0">S</tspan><tspan x="87.92" y="0">i</tspan></text><text class="cls-20" transform="translate(142.56 57.6)">AS<tspan class="cls-13" x="7.69" y="0"> </tspan><tspan x="9.37" y="0">S</tspan><tspan class="cls-12" x="13.22" y="0">CH</tspan><tspan x="21.39" y="0">E</tspan><tspan class="cls-12" x="25.23" y="0">DUL</tspan><tspan x="36.51" y="0">E</tspan><tspan class="cls-21" x="40.36" y="0">D</tspan></text></g></g></svg>