<svg xmlns="http://www.w3.org/2000/svg" xmlns:xlink="http://www.w3.org/1999/xlink" viewBox="0 0 270.9 97.97"><defs><style>.cls-1,.cls-10,.cls-13,.cls-2,.cls-7,.cls-8,.cls-9{fill:none;}.cls-1{clip-rule:evenodd;}.cls-3{clip-path:url(#clip-path);}.cls-4{clip-path:url(#clip-path-2);}.cls-5{fill:#fff;}.cls-6{clip-path:url(#clip-path-3);}.cls-10,.cls-13,.cls-7,.cls-8{stroke:#000;}.cls-10,.cls-13,.cls-7,.cls-8,.cls-9{stroke-linecap:round;stroke-linejoin:round;}.cls-7,.cls-9{stroke-width:0.48px;}.cls-8{stroke-width:0.96px;}.cls-9{stroke:gray;}.cls-10{stroke-width:1.2px;}.cls-11{font-size:8.05px;}.cls-11,.cls-14,.cls-24{font-family:ArialNarrow, Arial;}.cls-12{fill-rule:evenodd;}.cls-13{stroke-width:0.24px;}.cls-14,.cls-24{font-size:7.21px;}.cls-15{letter-spacing:-0.03em;}.cls-16,.cls-24{letter-spacing:-0.01em;}.cls-17{letter-spacing:0em;}.cls-18{letter-spacing:0.01em;}.cls-19{letter-spacing:-0.06em;}.cls-20{letter-spacing:-0.01em;}.cls-21{letter-spacing:0.01em;}.cls-22{letter-spacing:-0.03em;}.cls-23{letter-spacing:-0.02em;}.cls-25{letter-spacing:-0.02em;}.cls-26{letter-spacing:0em;}.cls-27{letter-spacing:-0.04em;}.cls-28{letter-spacing:0em;}.cls-29{letter-spacing:0em;}.cls-30{letter-spacing:0em;}.cls-31{letter-spacing:-0.01em;}.cls-32{letter-spacing:-0.03em;}.cls-33{letter-spacing:-0.04em;}.cls-34{letter-spacing:-0.01em;}.cls-35{letter-spacing:-0.02em;}.cls-36{letter-spacing:-0.02em;}</style><clipPath id="clip-path" transform="translate(-424.32 -1312.44)"><path class="cls-1" d="M424.8,1398.84v1.44h64.56v-1.44Zm57.6-55.92v1.44h25.44v52.56H482.4v1.2h26.88v-55.2Zm-57.6-2.16v1.44h64.56v-1.44Z"/></clipPath><clipPath id="clip-path-2" transform="translate(-424.32 -1312.44)"><rect class="cls-2" width="2383.92" height="1684.08"/></clipPath><clipPath id="clip-path-3" transform="translate(-424.32 -1312.44)"><path class="cls-1" d="M533.52,1398.84v1.44H601v-1.44Zm-19.92-55.92v55.2h26.88v-1.2H515v-52.56h25.44v-1.44Zm19.92-2.16v1.44H601v-1.44Z"/></clipPath></defs><title>TypicalDoor08MeetingStyleDetail</title><g id="Layer_2" data-name="Layer 2"><g id="Layer_1-2" data-name="Layer 1"><g class="cls-3"><g class="cls-4"><rect class="cls-5" x="0.48" y="28.32" width="84.48" height="59.52"/></g></g><g class="cls-6"><g class="cls-4"><rect class="cls-5" x="89.28" y="28.32" width="87.36" height="59.52"/></g></g><line class="cls-7" x1="0.96" y1="29.76" x2="2.4" y2="28.32"/><line class="cls-7" x1="6.96" y1="29.76" x2="8.4" y2="28.32"/><line class="cls-7" x1="12.96" y1="29.76" x2="14.4" y2="28.32"/><line class="cls-7" x1="18.96" y1="29.76" x2="20.4" y2="28.32"/><line class="cls-7" x1="24.96" y1="29.76" x2="26.4" y2="28.32"/><line class="cls-7" x1="30.96" y1="29.76" x2="32.4" y2="28.32"/><line class="cls-7" x1="36.96" y1="29.76" x2="38.4" y2="28.32"/><line class="cls-7" x1="42.96" y1="29.76" x2="44.4" y2="28.32"/><line class="cls-7" x1="48.96" y1="29.76" x2="50.4" y2="28.32"/><line class="cls-7" x1="54.96" y1="29.76" x2="56.4" y2="28.32"/><line class="cls-7" x1="2.88" y1="87.84" x2="4.32" y2="86.4"/><line class="cls-7" x1="58.8" y1="31.92" x2="60.24" y2="30.48"/><line class="cls-7" x1="60.96" y1="29.76" x2="62.4" y2="28.32"/><line class="cls-7" x1="8.88" y1="87.84" x2="10.32" y2="86.4"/><line class="cls-7" x1="65.04" y1="31.92" x2="66.24" y2="30.48"/><line class="cls-7" x1="14.88" y1="87.84" x2="16.32" y2="86.4"/><line class="cls-7" x1="71.04" y1="31.92" x2="72.48" y2="30.48"/><line class="cls-7" x1="20.88" y1="87.84" x2="22.32" y2="86.4"/><line class="cls-7" x1="77.04" y1="31.92" x2="78.48" y2="30.48"/><line class="cls-7" x1="26.88" y1="87.84" x2="28.32" y2="86.4"/><line class="cls-7" x1="83.04" y1="31.92" x2="84.48" y2="30.48"/><line class="cls-7" x1="32.88" y1="87.84" x2="34.32" y2="86.4"/><line class="cls-7" x1="83.52" y1="37.44" x2="84.96" y2="36"/><line class="cls-7" x1="39.12" y1="87.84" x2="40.32" y2="86.4"/><line class="cls-7" x1="83.52" y1="43.44" x2="84.96" y2="42"/><line class="cls-7" x1="45.12" y1="87.84" x2="46.32" y2="86.4"/><line class="cls-7" x1="83.52" y1="49.44" x2="84.96" y2="48"/><line class="cls-7" x1="51.12" y1="87.84" x2="52.56" y2="86.4"/><line class="cls-7" x1="83.52" y1="55.44" x2="84.96" y2="54"/><line class="cls-7" x1="57.12" y1="87.84" x2="58.56" y2="86.4"/><line class="cls-7" x1="59.28" y1="85.68" x2="60.48" y2="84.48"/><line class="cls-7" x1="83.52" y1="61.44" x2="84.96" y2="60"/><line class="cls-7" x1="63.12" y1="87.84" x2="64.56" y2="86.4"/><line class="cls-7" x1="65.28" y1="85.68" x2="66.72" y2="84.48"/><line class="cls-7" x1="83.52" y1="67.44" x2="84.96" y2="66"/><line class="cls-7" x1="71.28" y1="85.68" x2="72.72" y2="84.48"/><line class="cls-7" x1="83.52" y1="73.44" x2="84.96" y2="72"/><line class="cls-7" x1="77.28" y1="85.68" x2="78.72" y2="84.48"/><line class="cls-7" x1="83.52" y1="79.44" x2="84.96" y2="78"/><line class="cls-7" x1="83.28" y1="85.68" x2="84.96" y2="84"/><line class="cls-7" x1="89.28" y1="31.68" x2="90.48" y2="30.48"/><line class="cls-7" x1="89.28" y1="37.68" x2="90.72" y2="36.24"/><line class="cls-7" x1="95.04" y1="31.92" x2="96.48" y2="30.48"/><line class="cls-7" x1="89.28" y1="43.68" x2="90.72" y2="42.24"/><line class="cls-7" x1="101.04" y1="31.92" x2="102.48" y2="30.48"/><line class="cls-7" x1="89.28" y1="49.68" x2="90.72" y2="48.24"/><line class="cls-7" x1="107.04" y1="31.92" x2="108.48" y2="30.48"/><line class="cls-7" x1="109.2" y1="29.76" x2="110.64" y2="28.32"/><line class="cls-7" x1="89.28" y1="55.68" x2="90.72" y2="54.24"/><line class="cls-7" x1="113.04" y1="31.92" x2="114.48" y2="30.48"/><line class="cls-7" x1="115.2" y1="29.76" x2="116.64" y2="28.32"/><line class="cls-7" x1="89.28" y1="61.68" x2="90.72" y2="60.24"/><line class="cls-7" x1="121.2" y1="29.76" x2="122.64" y2="28.32"/><line class="cls-7" x1="89.28" y1="67.68" x2="90.72" y2="66.24"/><line class="cls-7" x1="127.2" y1="29.76" x2="128.64" y2="28.32"/><line class="cls-7" x1="89.28" y1="73.68" x2="90.72" y2="72.24"/><line class="cls-7" x1="133.2" y1="29.76" x2="134.64" y2="28.32"/><line class="cls-7" x1="89.28" y1="79.68" x2="90.72" y2="78.48"/><line class="cls-7" x1="139.2" y1="29.76" x2="140.64" y2="28.32"/><line class="cls-7" x1="89.28" y1="85.68" x2="90.72" y2="84.48"/><line class="cls-7" x1="145.2" y1="29.76" x2="146.64" y2="28.32"/><line class="cls-7" x1="95.28" y1="85.68" x2="96.72" y2="84.48"/><line class="cls-7" x1="151.2" y1="29.76" x2="152.64" y2="28.32"/><line class="cls-7" x1="101.28" y1="85.68" x2="102.72" y2="84.48"/><line class="cls-7" x1="157.2" y1="29.76" x2="158.64" y2="28.32"/><line class="cls-7" x1="107.28" y1="85.68" x2="108.72" y2="84.48"/><line class="cls-7" x1="163.2" y1="29.76" x2="164.64" y2="28.32"/><line class="cls-7" x1="111.12" y1="87.84" x2="112.56" y2="86.4"/><line class="cls-7" x1="113.28" y1="85.68" x2="114.72" y2="84.48"/><line class="cls-7" x1="169.2" y1="29.76" x2="170.64" y2="28.32"/><line class="cls-7" x1="117.12" y1="87.84" x2="118.56" y2="86.4"/><line class="cls-7" x1="175.2" y1="29.76" x2="176.64" y2="28.32"/><line class="cls-7" x1="123.12" y1="87.84" x2="124.56" y2="86.4"/><line class="cls-7" x1="129.12" y1="87.84" x2="130.56" y2="86.4"/><line class="cls-7" x1="135.12" y1="87.84" x2="136.56" y2="86.4"/><line class="cls-7" x1="141.36" y1="87.84" x2="142.56" y2="86.4"/><line class="cls-7" x1="147.36" y1="87.84" x2="148.8" y2="86.4"/><line class="cls-7" x1="153.36" y1="87.84" x2="154.8" y2="86.4"/><line class="cls-7" x1="159.36" y1="87.84" x2="160.8" y2="86.4"/><line class="cls-7" x1="165.36" y1="87.84" x2="166.8" y2="86.4"/><line class="cls-7" x1="171.36" y1="87.84" x2="172.8" y2="86.4"/><line class="cls-8" x1="83.52" y1="31.92" x2="83.52" y2="84.48"/><polyline class="cls-7" points="83.52 84.48 58.08 84.48 58.08 85.68 84.96 85.68"/><line class="cls-8" x1="84.96" y1="85.68" x2="84.96" y2="30.48"/><polyline class="cls-7" points="84.96 30.48 58.08 30.48 58.08 31.92 83.52 31.92"/><line class="cls-8" x1="65.04" y1="28.32" x2="0.48" y2="28.32"/><polyline class="cls-8" points="0.48 29.76 65.04 29.76 65.04 28.32"/><polyline class="cls-8" points="65.04 87.84 65.04 86.4 0.48 86.4"/><line class="cls-8" x1="0.48" y1="87.84" x2="65.04" y2="87.84"/><polyline class="cls-7" points="0.48 85.2 57.36 85.2 57.36 83.76 82.8 83.76 82.8 32.64 57.36 32.64 57.36 31.2 0.48 31.2"/><polyline class="cls-7" points="90.72 31.92 116.16 31.92 116.16 30.48 89.28 30.48 89.28 85.68 116.16 85.68 116.16 84.48 90.72 84.48 90.72 31.92"/><polyline class="cls-7" points="109.2 28.32 109.2 29.76 176.64 29.76"/><line class="cls-7" x1="176.64" y1="28.32" x2="109.2" y2="28.32"/><line class="cls-7" x1="109.2" y1="87.84" x2="176.64" y2="87.84"/><polyline class="cls-7" points="176.64 86.4 109.2 86.4 109.2 87.84"/><polyline class="cls-7" points="176.64 31.2 116.88 31.2 116.88 32.64 91.44 32.64 91.44 83.76 116.88 83.76 116.88 85.2 176.64 85.2"/><line class="cls-9" x1="0.48" y1="85.2" x2="2.64" y2="85.2"/><line class="cls-9" x1="5.52" y1="85.2" x2="6.96" y2="85.2"/><line class="cls-9" x1="9.84" y1="85.2" x2="11.28" y2="85.2"/><line class="cls-9" x1="14.16" y1="85.2" x2="15.6" y2="85.2"/><line class="cls-9" x1="18.48" y1="85.2" x2="19.92" y2="85.2"/><line class="cls-9" x1="22.8" y1="85.2" x2="24.24" y2="85.2"/><line class="cls-9" x1="27.12" y1="85.2" x2="28.56" y2="85.2"/><line class="cls-9" x1="31.44" y1="85.2" x2="32.88" y2="85.2"/><line class="cls-9" x1="35.76" y1="85.2" x2="37.2" y2="85.2"/><line class="cls-9" x1="40.08" y1="85.2" x2="41.52" y2="85.2"/><line class="cls-9" x1="44.4" y1="85.2" x2="46.08" y2="85.2"/><line class="cls-9" x1="48.72" y1="85.2" x2="50.4" y2="85.2"/><line class="cls-9" x1="53.04" y1="85.2" x2="54.72" y2="85.2"/><line class="cls-9" x1="57.36" y1="85.2" x2="59.04" y2="85.2"/><line class="cls-9" x1="61.92" y1="85.2" x2="63.36" y2="85.2"/><line class="cls-9" x1="66.24" y1="85.2" x2="67.68" y2="85.2"/><line class="cls-9" x1="70.56" y1="85.2" x2="72" y2="85.2"/><line class="cls-9" x1="74.88" y1="85.2" x2="76.32" y2="85.2"/><line class="cls-9" x1="79.2" y1="85.2" x2="80.64" y2="85.2"/><line class="cls-9" x1="83.52" y1="85.2" x2="84.96" y2="85.2"/><line class="cls-9" x1="87.84" y1="85.2" x2="89.28" y2="85.2"/><line class="cls-9" x1="92.16" y1="85.2" x2="93.6" y2="85.2"/><line class="cls-9" x1="96.48" y1="85.2" x2="97.92" y2="85.2"/><line class="cls-9" x1="100.8" y1="85.2" x2="102.24" y2="85.2"/><line class="cls-9" x1="105.12" y1="85.2" x2="106.56" y2="85.2"/><line class="cls-9" x1="109.44" y1="85.2" x2="110.88" y2="85.2"/><line class="cls-9" x1="113.76" y1="85.2" x2="115.44" y2="85.2"/><line class="cls-9" x1="118.08" y1="85.2" x2="119.76" y2="85.2"/><line class="cls-9" x1="122.4" y1="85.2" x2="124.08" y2="85.2"/><line class="cls-9" x1="126.72" y1="85.2" x2="128.4" y2="85.2"/><line class="cls-9" x1="131.28" y1="85.2" x2="132.72" y2="85.2"/><line class="cls-9" x1="135.6" y1="85.2" x2="137.04" y2="85.2"/><line class="cls-9" x1="139.92" y1="85.2" x2="141.36" y2="85.2"/><line class="cls-9" x1="144.24" y1="85.2" x2="145.68" y2="85.2"/><line class="cls-9" x1="148.56" y1="85.2" x2="150" y2="85.2"/><line class="cls-9" x1="152.88" y1="85.2" x2="154.32" y2="85.2"/><line class="cls-9" x1="157.2" y1="85.2" x2="158.64" y2="85.2"/><line class="cls-9" x1="161.52" y1="85.2" x2="162.96" y2="85.2"/><line class="cls-9" x1="165.84" y1="85.2" x2="167.28" y2="85.2"/><line class="cls-9" x1="170.16" y1="85.2" x2="171.6" y2="85.2"/><line class="cls-9" x1="174.48" y1="85.2" x2="176.64" y2="85.2"/><line class="cls-7" x1="80.64" y1="12" x2="93.6" y2="12"/><line class="cls-10" x1="89.28" y1="12" x2="86.4" y2="14.88"/><line class="cls-10" x1="89.28" y1="12" x2="92.16" y2="9.12"/><line class="cls-7" x1="89.28" y1="12" x2="89.28" y2="7.68"/><line class="cls-7" x1="89.28" y1="12" x2="89.28" y2="26.16"/><line class="cls-10" x1="84.96" y1="12" x2="82.08" y2="14.88"/><line class="cls-10" x1="84.96" y1="12" x2="87.84" y2="9.12"/><line class="cls-7" x1="84.96" y1="12" x2="84.96" y2="7.68"/><line class="cls-7" x1="84.96" y1="12" x2="84.96" y2="26.16"/><rect class="cls-5" x="85.44" width="3.36" height="8.88"/><text class="cls-11" transform="translate(85.44 7.2)">3</text><polygon class="cls-12" points="70.08 79.44 69.12 79.44 69.6 83.76 70.08 79.44"/><polygon class="cls-13" points="70.08 79.44 69.12 79.44 69.6 83.76 70.08 79.44"/><line class="cls-13" x1="69.6" y1="68.4" x2="176.64" y2="68.4"/><line class="cls-13" x1="69.6" y1="83.76" x2="69.6" y2="68.4"/><polygon class="cls-12" points="101.52 79.68 100.32 79.68 100.8 84 101.52 79.68"/><polygon class="cls-13" points="101.52 79.68 100.32 79.68 100.8 84 101.52 79.68"/><line class="cls-13" x1="100.8" y1="68.4" x2="176.64" y2="68.4"/><line class="cls-13" x1="100.8" y1="84" x2="100.8" y2="68.4"/><text class="cls-14" transform="translate(182.4 71.52)"><tspan class="cls-15">R</tspan><tspan class="cls-16" x="4.08" y="0">EBA</tspan><tspan class="cls-17" x="15.63" y="0">T</tspan><tspan class="cls-16" x="19.23" y="0">E</tspan><tspan class="cls-18" x="23.07" y="0"> </tspan><tspan class="cls-16" x="24.75" y="0">A</tspan><tspan class="cls-15" x="28.6" y="0">C</tspan><tspan class="cls-19" x="32.68" y="0">R</tspan><tspan class="cls-20" x="36.53" y="0">O</tspan><tspan class="cls-16" x="41.09" y="0">VY</tspan><tspan class="cls-15" x="48.79" y="0">N</tspan><tspan class="cls-21" x="52.87" y="0"> </tspan><tspan class="cls-15" x="54.55" y="0">D</tspan><tspan class="cls-20" x="58.63" y="0">OO</tspan><tspan x="67.76" y="0">R</tspan></text><text class="cls-14" transform="translate(182.4 79.44)"><tspan class="cls-16">E</tspan><tspan class="cls-15" x="3.85" y="0">D</tspan><tspan class="cls-20" x="7.93" y="0">G</tspan><tspan class="cls-16" x="12.49" y="0">E</tspan><tspan class="cls-21" x="16.34" y="0"> </tspan><tspan class="cls-16" x="18.02" y="0">P</tspan><tspan class="cls-15" x="21.87" y="0">R</tspan><tspan class="cls-20" x="25.95" y="0">O</tspan><tspan class="cls-17" x="30.51" y="0">T</tspan><tspan class="cls-16" x="34.12" y="0">E</tspan><tspan class="cls-15" x="37.96" y="0">C</tspan><tspan class="cls-17" x="42.05" y="0">T</tspan><tspan class="cls-22" x="45.65" y="0">I</tspan><tspan class="cls-20" x="47.09" y="0">O</tspan><tspan class="cls-15" x="51.65" y="0">N</tspan><tspan class="cls-18" x="55.74" y="0"> </tspan><tspan class="cls-15" x="57.42" y="0">CH</tspan><tspan class="cls-16" x="65.58" y="0">A</tspan><tspan class="cls-15" x="69.43" y="0">NN</tspan><tspan class="cls-16" x="77.6" y="0">E</tspan><tspan class="cls-23" x="81.45" y="0">L</tspan><tspan x="84.57" y="0">S</tspan></text><text class="cls-24" transform="translate(182.4 87.6)">A<tspan class="cls-15" x="3.85" y="0">DH</tspan><tspan x="12.01" y="0">ES</tspan><tspan class="cls-22" x="19.71" y="0">I</tspan><tspan x="21.15" y="0">VE</tspan><tspan class="cls-18" x="28.84" y="0"> </tspan><tspan class="cls-17" x="30.52" y="0">F</tspan><tspan class="cls-22" x="34.13" y="0">I</tspan><tspan x="35.57" y="0">X</tspan><tspan class="cls-21" x="39.41" y="0"> </tspan><tspan class="cls-17" x="41.09" y="0">F</tspan><tspan class="cls-22" x="44.7" y="0">I</tspan><tspan class="cls-15" x="46.14" y="0">N</tspan><tspan class="cls-22" x="50.22" y="0">I</tspan><tspan x="51.66" y="0">S</tspan><tspan class="cls-15" x="55.51" y="0">H</tspan><tspan class="cls-18" x="59.59" y="0"> </tspan><tspan class="cls-17" x="61.27" y="0">F</tspan><tspan class="cls-23" x="64.87" y="0">L</tspan><tspan class="cls-25" x="67.99" y="0">U</tspan><tspan x="72.08" y="0">S</tspan><tspan class="cls-26" x="75.93" y="0">H</tspan></text><text class="cls-14" transform="translate(182.4 95.76)"><tspan class="cls-27">W</tspan><tspan class="cls-22" x="5.28" y="0">I</tspan><tspan class="cls-28" x="6.72" y="0">T</tspan><tspan class="cls-15" x="10.31" y="0">H</tspan><tspan class="cls-18" x="14.39" y="0"> </tspan><tspan class="cls-25" x="16.07" y="0">D</tspan><tspan class="cls-29" x="20.16" y="0">OO</tspan><tspan class="cls-15" x="29.31" y="0">R</tspan><tspan class="cls-18" x="33.4" y="0"> </tspan><tspan class="cls-30" x="35.07" y="0">F</tspan><tspan class="cls-16" x="38.66" y="0">A</tspan><tspan class="cls-15" x="42.51" y="0">C</tspan><tspan class="cls-16" x="46.59" y="0">E</tspan><tspan x="50.44" y="0">S</tspan></text><polygon class="cls-12" points="144.24 24.24 143.28 24.24 143.76 28.32 144.24 24.24"/><polygon class="cls-13" points="144.24 24.24 143.28 24.24 143.76 28.32 144.24 24.24"/><line class="cls-13" x1="143.76" y1="11.52" x2="176.64" y2="11.52"/><line class="cls-13" x1="143.76" y1="28.32" x2="143.76" y2="11.52"/><text class="cls-14" transform="translate(182.4 14.4)"><tspan class="cls-16">A</tspan><tspan class="cls-15" x="3.85" y="0">CR</tspan><tspan class="cls-20" x="12.01" y="0">O</tspan><tspan class="cls-16" x="16.58" y="0">VY</tspan><tspan class="cls-15" x="24.27" y="0">N</tspan><tspan class="cls-18" x="28.36" y="0"> </tspan><tspan class="cls-16" x="30.03" y="0">A</tspan><tspan class="cls-15" x="33.88" y="0">CR</tspan><tspan class="cls-16" x="42.05" y="0">Y</tspan><tspan class="cls-25" x="45.9" y="0">LIC</tspan><tspan class="cls-18" x="54.55" y="0"> </tspan><tspan class="cls-31" x="56.23" y="0">V</tspan><tspan class="cls-32" x="60.08" y="0">I</tspan><tspan class="cls-25" x="61.52" y="0">N</tspan><tspan class="cls-16" x="65.6" y="0">Y</tspan><tspan x="69.45" y="0">L</tspan></text><text class="cls-24" transform="translate(182.4 22.32)">S<tspan class="cls-15" x="3.85" y="0">H</tspan><tspan x="7.93" y="0">EE</tspan><tspan class="cls-17" x="15.63" y="0">T</tspan><tspan class="cls-18" x="19.23" y="0"> </tspan><tspan x="20.91" y="0">P</tspan><tspan class="cls-15" x="24.75" y="0">R</tspan><tspan class="cls-33" x="28.84" y="0">O</tspan><tspan class="cls-17" x="33.16" y="0">T</tspan><tspan x="36.76" y="0">E</tspan><tspan class="cls-15" x="40.61" y="0">C</tspan><tspan class="cls-17" x="44.7" y="0">T</tspan><tspan class="cls-22" x="48.3" y="0">I</tspan><tspan class="cls-20" x="49.74" y="0">O</tspan><tspan class="cls-26" x="54.3" y="0">N</tspan></text><text class="cls-14" transform="translate(182.4 30.48)"><tspan class="cls-23">5</tspan><tspan class="cls-34" x="3.12" y="0">mm</tspan><tspan class="cls-21" x="12.75" y="0"> </tspan><tspan class="cls-20" x="14.43" y="0">O</tspan><tspan class="cls-16" x="18.99" y="0">V</tspan><tspan class="cls-35" x="22.84" y="0">E</tspan><tspan class="cls-15" x="26.67" y="0">R</tspan><tspan class="cls-36" x="30.75" y="0">L</tspan><tspan class="cls-16" x="33.87" y="0">A</tspan><tspan x="37.72" y="0">P</tspan></text></g></g></svg>