<svg xmlns="http://www.w3.org/2000/svg" viewBox="0 0 176.64 88.56"><defs><style>.cls-1,.cls-2{fill:none;stroke:#000;stroke-linecap:round;stroke-linejoin:round;}.cls-1{stroke-width:0.48px;}.cls-2{stroke-width:1.2px;}.cls-3{fill:#fff;}.cls-4{font-size:8.05px;font-family:ArialNarrow, Arial;}</style></defs><title>TypicalDoor02MeetingStyleDetail</title><g id="Layer_2" data-name="Layer 2"><g id="Layer_1-2" data-name="Layer 1"><polyline class="cls-1" points="176.4 34.56 89.76 34.56 89.28 34.56 89.04 34.8 88.8 34.8 88.56 35.28 88.32 35.52 88.32 36 88.32 86.88 88.32 87.36 88.56 87.6 88.8 87.84 89.04 88.08 89.28 88.32 89.76 88.32 176.4 88.32"/><polyline class="cls-1" points="0.24 88.32 81.12 88.32 81.6 88.32 81.84 88.08 82.32 87.84 82.32 87.6 82.56 87.36 82.56 86.88 82.56 36 82.56 35.52 82.32 35.28 82.32 34.8 81.84 34.8 81.6 34.56 81.12 34.56 0.24 34.56"/><line class="cls-1" x1="78.48" y1="11.76" x2="92.64" y2="11.76"/><line class="cls-2" x1="88.32" y1="11.76" x2="85.44" y2="14.64"/><line class="cls-2" x1="88.32" y1="11.76" x2="91.2" y2="8.88"/><line class="cls-1" x1="88.32" y1="11.76" x2="88.32" y2="7.44"/><line class="cls-1" x1="88.32" y1="11.76" x2="88.32" y2="25.92"/><line class="cls-2" x1="82.56" y1="11.76" x2="79.68" y2="14.64"/><line class="cls-2" x1="82.56" y1="11.76" x2="85.44" y2="8.88"/><line class="cls-1" x1="82.56" y1="11.76" x2="82.56" y2="7.44"/><line class="cls-1" x1="82.56" y1="11.76" x2="82.56" y2="25.92"/><rect class="cls-3" x="83.76" width="3.36" height="8.88"/><text class="cls-4" transform="translate(83.76 7.2)">4</text></g></g></svg>