<svg xmlns="http://www.w3.org/2000/svg" xmlns:xlink="http://www.w3.org/1999/xlink" viewBox="0 0 222.43 97.2"><defs><style>.cls-1,.cls-11,.cls-2,.cls-5,.cls-6,.cls-7{fill:none;}.cls-11,.cls-2,.cls-7{stroke:#000;}.cls-11,.cls-2,.cls-5,.cls-6,.cls-7{stroke-linecap:round;stroke-linejoin:round;}.cls-2,.cls-5,.cls-6{stroke-width:0.48px;}.cls-3{clip-path:url(#clip-path);}.cls-4{clip-path:url(#clip-path-2);}.cls-5{stroke:#ff0;}.cls-6{stroke:gray;}.cls-7{stroke-width:1.2px;}.cls-8{fill:#fff;}.cls-9{font-size:8.05px;}.cls-12,.cls-19,.cls-9{font-family:ArialNarrow, Arial;}.cls-10{fill-rule:evenodd;}.cls-11{stroke-width:0.24px;}.cls-12,.cls-19{font-size:7.21px;}.cls-13{letter-spacing:-0.03em;}.cls-14{letter-spacing:-0.01em;}.cls-15{letter-spacing:0.01em;}.cls-16,.cls-19{letter-spacing:-0.01em;}.cls-17{letter-spacing:-0.02em;}.cls-18{letter-spacing:-0.02em;}.cls-20{letter-spacing:0.01em;}.cls-21{letter-spacing:0em;}</style><clipPath id="clip-path"><rect class="cls-1" x="0.48" y="83.04" width="84.96" height="1.2"/></clipPath><clipPath id="clip-path-2"><rect class="cls-1" x="0.48" y="29.04" width="87.84" height="1.2"/></clipPath></defs><title>TypicalDoor07MeetingStyleDetail</title><g id="Layer_2" data-name="Layer 2"><g id="Layer_1-2" data-name="Layer 1"><polyline class="cls-2" points="188.88 29.52 94.8 29.52 94.32 29.52 94.08 29.76 93.6 30 93.36 30.24 93.36 30.48 93.36 30.96 93.36 82.08 93.36 82.32 93.36 82.8 93.6 83.04 94.08 83.28 94.32 83.28 94.8 83.52 188.88 83.52"/><g class="cls-3"><line class="cls-2" x1="0.24" y1="83.52" x2="84.72" y2="83.52"/></g><polyline class="cls-2" points="84.72 83.52 85.2 83.28 85.44 83.28 85.68 83.04 85.92 82.8 86.16 82.32 86.16 82.08 86.16 66.48 89.04 66.48 89.04 30.96 89.04 30.48 88.8 30.24 88.56 30 88.32 29.76 88.08 29.52 87.6 29.52"/><g class="cls-4"><line class="cls-2" x1="87.6" y1="29.52" x2="0.24" y2="29.52"/></g><line class="cls-2" x1="91.92" y1="85.68" x2="107.04" y2="85.68"/><polyline class="cls-2" points="107.04 83.52 108 84 108 85.2 107.04 85.68"/><line class="cls-2" x1="91.44" y1="86.16" x2="91.92" y2="85.68"/><line class="cls-2" x1="89.76" y1="84.48" x2="90.96" y2="83.52"/><line class="cls-5" x1="69.12" y1="83.52" x2="69.12" y2="83.52"/><line class="cls-2" x1="90.96" y1="83.52" x2="107.04" y2="83.52"/><line class="cls-2" x1="85.44" y1="88.56" x2="89.28" y2="84.48"/><line class="cls-2" x1="91.44" y1="86.4" x2="87.36" y2="90.48"/><line class="cls-2" x1="89.28" y1="84.48" x2="89.76" y2="84.48"/><polyline class="cls-2" points="87.36 90.48 87.12 92.88 85.44 94.56 83.04 94.56 81.36 92.88 81.12 90.48 82.8 88.56 85.44 88.56"/><line class="cls-2" x1="91.44" y1="86.16" x2="91.44" y2="86.4"/><line class="cls-2" x1="89.04" y1="66.48" x2="89.04" y2="83.76"/><line class="cls-2" x1="86.16" y1="66.48" x2="89.04" y2="66.48"/><line class="cls-2" x1="86.16" y1="83.52" x2="86.16" y2="66.48"/><line class="cls-2" x1="78.96" y1="83.52" x2="86.16" y2="83.52"/><line class="cls-2" x1="78.96" y1="91.44" x2="78.96" y2="83.52"/><line class="cls-2" x1="107.28" y1="96.96" x2="84.24" y2="96.96"/><line class="cls-2" x1="112.32" y1="91.44" x2="112.32" y2="91.92"/><line class="cls-2" x1="110.4" y1="91.92" x2="110.4" y2="91.44"/><line class="cls-2" x1="90.72" y1="95.04" x2="107.28" y2="95.04"/><line class="cls-2" x1="88.56" y1="84.72" x2="85.68" y2="87.6"/><polyline class="cls-2" points="84.24 96.96 81.6 96.24 79.68 94.32 78.96 91.44"/><polyline class="cls-2" points="112.32 91.92 111.6 94.32 109.68 96.24 107.28 96.96"/><polyline class="cls-2" points="110.4 91.44 111.36 90.48 112.32 91.44"/><polyline class="cls-2" points="107.28 95.04 109.44 94.08 110.4 91.92"/><polyline class="cls-2" points="89.28 93.12 89.52 94.56 90.72 95.04"/><polyline class="cls-2" points="89.52 90.72 89.52 91.92 89.28 93.12"/><polyline class="cls-2" points="87.84 90.96 88.56 90 89.52 90.72"/><polyline class="cls-2" points="84.72 88.08 81.84 88.8 80.64 91.44 81.84 94.08 84.48 95.04 87.12 93.84 87.84 90.96"/><polyline class="cls-2" points="85.68 87.6 85.2 87.84 84.72 88.08"/><polyline class="cls-2" points="89.04 83.76 88.8 84.24 88.56 84.72"/><line class="cls-6" x1="183.12" y1="83.52" x2="184.56" y2="83.52"/><line class="cls-6" x1="187.44" y1="83.52" x2="188.88" y2="83.52"/><line class="cls-2" x1="89.04" y1="75.12" x2="81.84" y2="75.12"/><line class="cls-2" x1="84.72" y1="12" x2="97.44" y2="12"/><line class="cls-7" x1="93.36" y1="12" x2="90.48" y2="14.64"/><line class="cls-7" x1="93.36" y1="12" x2="96" y2="9.12"/><line class="cls-2" x1="93.36" y1="12" x2="93.36" y2="7.68"/><line class="cls-2" x1="93.36" y1="12" x2="93.36" y2="26.16"/><line class="cls-7" x1="89.04" y1="12" x2="86.16" y2="14.64"/><line class="cls-7" x1="89.04" y1="12" x2="91.92" y2="9.12"/><line class="cls-2" x1="89.04" y1="12" x2="89.04" y2="7.68"/><line class="cls-2" x1="89.04" y1="12" x2="89.04" y2="26.16"/><rect class="cls-8" x="89.28" width="3.36" height="8.88"/><text class="cls-9" transform="translate(89.28 7.2)">3</text><polygon class="cls-10" points="95.76 83.04 94.8 82.08 92.16 85.44 95.76 83.04"/><polygon class="cls-11" points="95.76 83.04 94.8 82.08 92.16 85.44 95.76 83.04"/><line class="cls-11" x1="119.76" y1="58.08" x2="140.64" y2="58.08"/><line class="cls-11" x1="92.16" y1="85.44" x2="119.76" y2="58.08"/><text class="cls-12" transform="translate(146.4 60.96)"><tspan class="cls-13">D</tspan><tspan class="cls-14" x="4.08" y="0">OO</tspan><tspan class="cls-13" x="13.21" y="0">R</tspan><tspan class="cls-15" x="17.29" y="0"> </tspan><tspan class="cls-16" x="18.97" y="0">SEA</tspan><tspan class="cls-17" x="30.51" y="0">L</tspan><tspan class="cls-15" x="33.63" y="0"> </tspan><tspan class="cls-18" x="35.31" y="0">R</tspan><tspan class="cls-16" x="39.4" y="0">AVE</tspan><tspan class="cls-13" x="50.94" y="0">N</tspan><tspan class="cls-15" x="55.02" y="0"> </tspan><tspan class="cls-18" x="56.7" y="0">R</tspan><tspan class="cls-16" x="60.78" y="0">P</tspan><tspan class="cls-17" x="64.63" y="0">16</tspan><tspan class="cls-16" x="70.87" y="0">S</tspan><tspan x="74.72" y="0">i</tspan></text><text class="cls-19" transform="translate(146.4 68.88)">AS<tspan class="cls-20" x="7.69" y="0"> </tspan><tspan x="9.37" y="0">S</tspan><tspan class="cls-13" x="13.22" y="0">CH</tspan><tspan x="21.39" y="0">E</tspan><tspan class="cls-13" x="25.23" y="0">DUL</tspan><tspan x="36.51" y="0">E</tspan><tspan class="cls-21" x="40.36" y="0">D</tspan></text></g></g></svg>