<svg xmlns="http://www.w3.org/2000/svg" xmlns:xlink="http://www.w3.org/1999/xlink" viewBox="0 0 252.15 78.9"><defs><style>.cls-1,.cls-2,.cls-6{fill:none;}.cls-2,.cls-6{stroke:#000;stroke-linecap:round;stroke-linejoin:round;}.cls-2{stroke-width:0.48px;}.cls-3{clip-path:url(#clip-path);}.cls-4{clip-path:url(#clip-path-2);}.cls-5{fill-rule:evenodd;}.cls-6{stroke-width:0.24px;}.cls-11,.cls-7{font-size:7.21px;font-family:ArialNarrow, Arial;}.cls-12,.cls-7{letter-spacing:-0.01em;}.cls-8{letter-spacing:0em;}.cls-9{letter-spacing:-0.03em;}.cls-10{letter-spacing:0em;}.cls-13{letter-spacing:-0.02em;}.cls-14{letter-spacing:-0.03em;}.cls-15{letter-spacing:-0.02em;}.cls-16{letter-spacing:-0.03em;}.cls-17{letter-spacing:-0.02em;}.cls-18{letter-spacing:0.01em;}.cls-19{letter-spacing:-0.01em;}.cls-20{letter-spacing:-0.03em;}</style><clipPath id="clip-path"><rect class="cls-1" x="0.48" y="76.02" width="87.84" height="1.2"/></clipPath><clipPath id="clip-path-2"><rect class="cls-1" x="0.48" y="22.02" width="87.84" height="1.2"/></clipPath></defs><title>TypicalDoor04MeetingStyleDetail</title><g id="Layer_2" data-name="Layer 2"><g id="Layer_1-2" data-name="Layer 1"><polyline class="cls-2" points="96.72 70.74 91.2 70.74 91.2 28.26 96.72 28.26 96 24.42 95.28 20.58 62.4 20.58 62.4 22.5"/><polyline class="cls-2" points="88.32 22.74 89.04 22.74 89.04 76.26 88.32 76.26"/><polyline class="cls-2" points="62.4 76.5 62.4 78.66 95.28 78.66 96 74.82 96.72 70.74"/><g class="cls-3"><line class="cls-2" x1="0.24" y1="76.5" x2="87.6" y2="76.5"/></g><polyline class="cls-2" points="87.6 76.5 88.08 76.5 88.32 76.26 88.56 76.02 88.8 75.78 89.04 75.3 89.04 75.06 89.04 23.94 89.04 23.7 88.8 23.22 88.56 22.98 88.32 22.74 88.08 22.74 87.6 22.5"/><g class="cls-4"><line class="cls-2" x1="87.6" y1="22.5" x2="0.24" y2="22.5"/></g><line class="cls-2" x1="92.64" y1="38.82" x2="92.64" y2="29.94"/><line class="cls-2" x1="97.92" y1="38.82" x2="92.64" y2="38.82"/><line class="cls-2" x1="97.92" y1="29.94" x2="97.92" y2="38.82"/><line class="cls-2" x1="92.64" y1="29.94" x2="97.92" y2="29.94"/><line class="cls-2" x1="94.08" y1="66.66" x2="94.08" y2="42.66"/><line class="cls-2" x1="97.92" y1="66.66" x2="94.08" y2="66.66"/><line class="cls-2" x1="97.92" y1="42.66" x2="97.92" y2="66.66"/><line class="cls-2" x1="94.08" y1="42.66" x2="97.92" y2="42.66"/><line class="cls-2" x1="99.84" y1="34.98" x2="99.84" y2="35.7"/><line class="cls-2" x1="99.84" y1="34.26" x2="99.84" y2="34.98"/><line class="cls-2" x1="106.32" y1="34.02" x2="99.84" y2="34.02"/><line class="cls-2" x1="99.84" y1="33.54" x2="106.32" y2="33.54"/><line class="cls-2" x1="99.84" y1="32.34" x2="99.84" y2="33.3"/><line class="cls-2" x1="98.4" y1="31.86" x2="99.6" y2="31.86"/><line class="cls-2" x1="98.16" y1="35.46" x2="98.16" y2="32.34"/><line class="cls-2" x1="98.16" y1="38.58" x2="98.16" y2="35.46"/><line class="cls-2" x1="99.6" y1="38.82" x2="98.4" y2="38.82"/><line class="cls-2" x1="99.84" y1="37.38" x2="99.84" y2="38.58"/><line class="cls-2" x1="106.32" y1="37.14" x2="99.84" y2="37.14"/><line class="cls-2" x1="99.84" y1="36.66" x2="106.32" y2="36.66"/><line class="cls-2" x1="99.84" y1="35.7" x2="99.84" y2="36.42"/><line class="cls-2" x1="99.84" y1="35.22" x2="99.84" y2="35.7"/><line class="cls-2" x1="99.84" y1="34.02" x2="99.84" y2="34.26"/><line class="cls-2" x1="106.56" y1="33.78" x2="106.32" y2="34.02"/><line class="cls-2" x1="106.32" y1="33.54" x2="106.56" y2="33.78"/><line class="cls-2" x1="99.84" y1="33.3" x2="99.84" y2="33.54"/><line class="cls-2" x1="99.6" y1="31.86" x2="99.84" y2="32.34"/><line class="cls-2" x1="98.16" y1="32.34" x2="98.4" y2="31.86"/><line class="cls-2" x1="98.4" y1="38.82" x2="98.16" y2="38.58"/><line class="cls-2" x1="99.84" y1="38.58" x2="99.6" y2="38.82"/><line class="cls-2" x1="99.84" y1="37.14" x2="99.84" y2="37.38"/><line class="cls-2" x1="106.56" y1="36.9" x2="106.32" y2="37.14"/><line class="cls-2" x1="106.32" y1="36.66" x2="106.56" y2="36.9"/><line class="cls-2" x1="99.84" y1="36.42" x2="99.84" y2="36.66"/><line class="cls-2" x1="100.08" y1="31.38" x2="100.08" y2="33.06"/><line class="cls-2" x1="98.88" y1="31.38" x2="100.08" y2="31.38"/><line class="cls-2" x1="98.88" y1="29.7" x2="98.88" y2="31.38"/><line class="cls-2" x1="92.64" y1="29.7" x2="98.88" y2="29.7"/><line class="cls-2" x1="92.64" y1="38.82" x2="92.64" y2="29.7"/><line class="cls-2" x1="100.08" y1="38.82" x2="92.64" y2="38.82"/><line class="cls-2" x1="100.08" y1="37.86" x2="100.08" y2="38.82"/><line class="cls-2" x1="101.04" y1="39.78" x2="101.04" y2="37.86"/><line class="cls-2" x1="98.16" y1="40.26" x2="100.56" y2="40.26"/><line class="cls-2" x1="98.16" y1="41.94" x2="98.16" y2="40.26"/><line class="cls-2" x1="93.84" y1="42.42" x2="97.44" y2="42.42"/><line class="cls-2" x1="93.84" y1="66.9" x2="93.84" y2="42.42"/><line class="cls-2" x1="97.44" y1="66.9" x2="93.84" y2="66.9"/><line class="cls-2" x1="98.16" y1="69.06" x2="98.16" y2="67.62"/><line class="cls-2" x1="100.56" y1="69.06" x2="98.16" y2="69.06"/><line class="cls-2" x1="101.04" y1="70.26" x2="101.04" y2="69.78"/><line class="cls-2" x1="96.72" y1="70.74" x2="100.56" y2="70.74"/><line class="cls-2" x1="91.92" y1="69.54" x2="96.72" y2="70.74"/><line class="cls-2" x1="91.2" y1="67.14" x2="91.2" y2="68.58"/><line class="cls-2" x1="92.4" y1="66.66" x2="91.68" y2="66.66"/><line class="cls-2" x1="92.4" y1="42.42" x2="92.4" y2="66.66"/><line class="cls-2" x1="91.68" y1="42.42" x2="92.4" y2="42.42"/><line class="cls-2" x1="91.2" y1="28.74" x2="91.2" y2="41.94"/><line class="cls-2" x1="100.56" y1="28.26" x2="91.68" y2="28.26"/><line class="cls-2" x1="101.04" y1="33.06" x2="101.04" y2="28.74"/><polyline class="cls-2" points="101.04 37.86 100.56 37.14 100.08 37.86"/><polyline class="cls-2" points="100.56 40.26 100.8 40.26 101.04 39.78"/><polyline class="cls-2" points="97.44 42.42 97.92 42.18 98.16 41.94"/><polyline class="cls-2" points="98.16 67.62 97.92 67.14 97.44 66.9"/><polyline class="cls-2" points="101.04 69.78 100.8 69.3 100.56 69.06"/><polyline class="cls-2" points="100.56 70.74 100.8 70.74 101.04 70.26"/><polyline class="cls-2" points="91.2 68.58 91.44 69.06 91.92 69.54"/><polyline class="cls-2" points="91.68 66.66 91.2 66.66 91.2 67.14"/><polyline class="cls-2" points="91.2 41.94 91.2 42.18 91.68 42.42"/><polyline class="cls-2" points="91.68 28.26 91.2 28.5 91.2 28.74"/><polyline class="cls-2" points="101.04 28.74 100.8 28.5 100.56 28.26"/><polyline class="cls-2" points="100.08 33.06 100.56 33.54 101.04 33.06"/><line class="cls-2" x1="98.16" y1="69.06" x2="98.16" y2="40.26"/><line class="cls-2" x1="98.64" y1="69.06" x2="98.16" y2="69.06"/><line class="cls-2" x1="98.64" y1="40.26" x2="98.64" y2="69.06"/><line class="cls-2" x1="98.16" y1="40.26" x2="98.64" y2="40.26"/><polyline class="cls-2" points="108.24 28.26 114 28.26 114 70.74 108.24 70.74 108.96 74.82 109.68 78.66 142.56 78.66 142.56 76.5"/><polyline class="cls-2" points="116.64 76.26 115.92 76.26 115.92 22.74 116.88 22.74"/><polyline class="cls-2" points="142.56 22.5 142.56 20.58 109.68 20.58 108.96 24.42 108.24 28.26"/><polyline class="cls-2" points="188.88 22.5 117.36 22.5 117.12 22.74 116.64 22.74 116.4 22.98 116.16 23.22 116.16 23.7 115.92 23.94 115.92 75.06 116.16 75.3 116.16 75.78 116.4 76.02 116.64 76.26 117.12 76.5 117.36 76.5 188.88 76.5"/><line class="cls-2" x1="112.32" y1="60.42" x2="112.32" y2="69.3"/><line class="cls-2" x1="107.04" y1="60.42" x2="112.32" y2="60.42"/><line class="cls-2" x1="107.04" y1="69.3" x2="107.04" y2="60.42"/><line class="cls-2" x1="112.32" y1="69.3" x2="107.04" y2="69.3"/><line class="cls-2" x1="110.88" y1="32.34" x2="110.88" y2="56.34"/><line class="cls-2" x1="107.04" y1="32.34" x2="110.88" y2="32.34"/><line class="cls-2" x1="107.04" y1="56.34" x2="107.04" y2="32.34"/><line class="cls-2" x1="110.88" y1="56.34" x2="107.04" y2="56.34"/><line class="cls-2" x1="105.12" y1="64.26" x2="105.12" y2="63.54"/><line class="cls-2" x1="105.12" y1="64.74" x2="105.12" y2="64.26"/><line class="cls-2" x1="98.88" y1="65.22" x2="105.12" y2="65.22"/><line class="cls-2" x1="105.12" y1="65.46" x2="98.88" y2="65.46"/><line class="cls-2" x1="105.12" y1="66.9" x2="105.12" y2="65.94"/><line class="cls-2" x1="106.8" y1="67.14" x2="105.36" y2="67.14"/><line class="cls-2" x1="107.04" y1="63.78" x2="107.04" y2="66.9"/><line class="cls-2" x1="107.04" y1="60.66" x2="107.04" y2="63.78"/><line class="cls-2" x1="105.36" y1="60.42" x2="106.8" y2="60.42"/><line class="cls-2" x1="105.12" y1="61.62" x2="105.12" y2="60.66"/><line class="cls-2" x1="98.88" y1="61.86" x2="105.12" y2="61.86"/><line class="cls-2" x1="105.12" y1="62.34" x2="98.88" y2="62.34"/><line class="cls-2" x1="105.12" y1="63.3" x2="105.12" y2="62.58"/><line class="cls-2" x1="105.12" y1="64.02" x2="105.12" y2="63.3"/><line class="cls-2" x1="105.12" y1="65.22" x2="105.12" y2="64.74"/><line class="cls-2" x1="98.64" y1="65.46" x2="98.88" y2="65.22"/><line class="cls-2" x1="98.88" y1="65.46" x2="98.64" y2="65.46"/><line class="cls-2" x1="105.12" y1="65.94" x2="105.12" y2="65.46"/><line class="cls-2" x1="105.36" y1="67.14" x2="105.12" y2="66.9"/><line class="cls-2" x1="107.04" y1="66.9" x2="106.8" y2="67.14"/><line class="cls-2" x1="106.8" y1="60.42" x2="107.04" y2="60.66"/><line class="cls-2" x1="105.12" y1="60.66" x2="105.36" y2="60.42"/><line class="cls-2" x1="105.12" y1="61.86" x2="105.12" y2="61.62"/><line class="cls-2" x1="98.64" y1="62.1" x2="98.88" y2="61.86"/><line class="cls-2" x1="98.88" y1="62.34" x2="98.64" y2="62.1"/><line class="cls-2" x1="105.12" y1="62.58" x2="105.12" y2="62.34"/><line class="cls-2" x1="105.12" y1="67.62" x2="105.12" y2="66.18"/><line class="cls-2" x1="106.08" y1="67.62" x2="105.12" y2="67.62"/><line class="cls-2" x1="106.08" y1="69.3" x2="106.08" y2="67.62"/><line class="cls-2" x1="112.56" y1="69.3" x2="106.08" y2="69.3"/><line class="cls-2" x1="112.56" y1="60.18" x2="112.56" y2="69.3"/><line class="cls-2" x1="105.12" y1="60.18" x2="112.56" y2="60.18"/><line class="cls-2" x1="105.12" y1="61.38" x2="105.12" y2="60.18"/><line class="cls-2" x1="103.92" y1="59.22" x2="103.92" y2="61.38"/><line class="cls-2" x1="107.04" y1="58.74" x2="104.64" y2="58.74"/><line class="cls-2" x1="107.04" y1="57.3" x2="107.04" y2="58.74"/><line class="cls-2" x1="111.12" y1="56.58" x2="107.52" y2="56.58"/><line class="cls-2" x1="111.12" y1="32.1" x2="111.12" y2="56.58"/><line class="cls-2" x1="107.52" y1="32.1" x2="111.12" y2="32.1"/><line class="cls-2" x1="107.04" y1="29.94" x2="107.04" y2="31.62"/><line class="cls-2" x1="104.64" y1="29.94" x2="107.04" y2="29.94"/><line class="cls-2" x1="103.92" y1="28.74" x2="103.92" y2="29.46"/><line class="cls-2" x1="108.24" y1="28.26" x2="104.64" y2="28.26"/><line class="cls-2" x1="113.04" y1="29.46" x2="108.24" y2="28.26"/><line class="cls-2" x1="114" y1="31.86" x2="114" y2="30.66"/><line class="cls-2" x1="112.56" y1="32.58" x2="113.28" y2="32.58"/><line class="cls-2" x1="112.56" y1="56.58" x2="112.56" y2="32.58"/><line class="cls-2" x1="113.28" y1="56.58" x2="112.56" y2="56.58"/><line class="cls-2" x1="114" y1="70.26" x2="114" y2="57.3"/><line class="cls-2" x1="104.64" y1="70.74" x2="113.28" y2="70.74"/><line class="cls-2" x1="103.92" y1="66.18" x2="103.92" y2="70.26"/><polyline class="cls-2" points="103.92 61.38 104.4 61.86 105.12 61.38"/><polyline class="cls-2" points="104.64 58.74 104.16 58.98 103.92 59.22"/><polyline class="cls-2" points="107.52 56.58 107.04 56.82 107.04 57.3"/><polyline class="cls-2" points="107.04 31.62 107.04 31.86 107.52 32.1"/><polyline class="cls-2" points="103.92 29.46 104.16 29.7 104.64 29.94"/><polyline class="cls-2" points="104.64 28.26 104.16 28.5 103.92 28.74"/><polyline class="cls-2" points="114 30.66 113.76 29.94 113.04 29.46"/><polyline class="cls-2" points="113.28 32.58 113.76 32.34 114 31.86"/><polyline class="cls-2" points="114 57.3 113.76 56.82 113.28 56.58"/><polyline class="cls-2" points="113.28 70.74 113.76 70.74 114 70.26"/><polyline class="cls-2" points="103.92 70.26 104.16 70.74 104.64 70.74"/><polyline class="cls-2" points="105.12 66.18 104.4 65.7 103.92 66.18"/><line class="cls-2" x1="106.8" y1="30.18" x2="106.8" y2="58.74"/><line class="cls-2" x1="106.56" y1="30.18" x2="106.8" y2="30.18"/><line class="cls-2" x1="106.56" y1="58.74" x2="106.56" y2="30.18"/><line class="cls-2" x1="106.8" y1="58.74" x2="106.56" y2="58.74"/><polygon class="cls-5" points="72.72 14.1 71.52 14.1 72.24 18.42 72.72 14.1"/><polygon class="cls-6" points="72.72 14.1 71.52 14.1 72.24 18.42 72.72 14.1"/><line class="cls-6" x1="72.24" y1="3.3" x2="197.04" y2="3.3"/><line class="cls-6" x1="72.24" y1="18.42" x2="72.24" y2="3.3"/><polygon class="cls-5" points="121.68 14.34 120.72 14.34 121.2 18.66 121.68 14.34"/><polygon class="cls-6" points="121.68 14.34 120.72 14.34 121.2 18.66 121.68 14.34"/><line class="cls-6" x1="121.2" y1="3.3" x2="197.04" y2="3.3"/><line class="cls-6" x1="121.2" y1="18.66" x2="121.2" y2="3.3"/><text class="cls-7" transform="translate(202.8 6.18)">EX<tspan class="cls-8" x="7.69" y="0">T</tspan><tspan class="cls-9" x="11.3" y="0">RUD</tspan><tspan x="23.55" y="0">E</tspan><tspan class="cls-10" x="27.4" y="0">D</tspan></text><text class="cls-11" transform="translate(202.8 14.1)"><tspan class="cls-12">A</tspan><tspan class="cls-13" x="3.85" y="0">L</tspan><tspan class="cls-14" x="6.97" y="0">U</tspan><tspan class="cls-15" x="11.04" y="0">M</tspan><tspan class="cls-16" x="15.84" y="0">INIU</tspan><tspan class="cls-17" x="26.91" y="0">M</tspan><tspan class="cls-18" x="31.71" y="0"> </tspan><tspan class="cls-12" x="33.39" y="0">S</tspan><tspan class="cls-8" x="37.23" y="0">T</tspan><tspan class="cls-16" x="40.84" y="0">I</tspan><tspan class="cls-13" x="42.29" y="0">L</tspan><tspan x="45.41" y="0">E</tspan></text><text class="cls-11" transform="translate(202.8 22.26)"><tspan class="cls-12">P</tspan><tspan class="cls-9" x="3.85" y="0">R</tspan><tspan class="cls-19" x="7.93" y="0">O</tspan><tspan class="cls-8" x="12.49" y="0">T</tspan><tspan class="cls-12" x="16.1" y="0">E</tspan><tspan class="cls-9" x="19.94" y="0">C</tspan><tspan class="cls-8" x="24.03" y="0">T</tspan><tspan class="cls-20" x="27.63" y="0">I</tspan><tspan class="cls-19" x="29.07" y="0">O</tspan><tspan x="33.63" y="0">N</tspan></text></g></g></svg>