<svg xmlns="http://www.w3.org/2000/svg" viewBox="0 0 231.51 78.9"><defs><style>.cls-1,.cls-3{fill:none;stroke:#000;stroke-linecap:round;stroke-linejoin:round;}.cls-1{stroke-width:0.48px;}.cls-2{fill-rule:evenodd;}.cls-3{stroke-width:0.24px;}.cls-4,.cls-8{font-size:7.21px;font-family:ArialNarrow, Arial;}.cls-4,.cls-9{letter-spacing:-0.01em;}.cls-5{letter-spacing:0em;}.cls-6{letter-spacing:-0.03em;}.cls-7{letter-spacing:0em;}.cls-10{letter-spacing:-0.02em;}.cls-11{letter-spacing:-0.03em;}.cls-12{letter-spacing:-0.02em;}.cls-13{letter-spacing:-0.03em;}.cls-14{letter-spacing:-0.02em;}.cls-15{letter-spacing:0.01em;}.cls-16{letter-spacing:-0.01em;}.cls-17{letter-spacing:-0.03em;}</style></defs><title>TypicalDoor05MeetingStyleDetail</title><g id="Layer_2" data-name="Layer 2"><g id="Layer_1-2" data-name="Layer 1"><polyline class="cls-1" points="76.08 70.74 70.56 70.74 70.56 28.26 76.08 28.26 75.6 24.42 74.88 20.58 41.76 20.58 41.76 22.5"/><polyline class="cls-1" points="67.68 22.74 68.4 22.74 68.4 76.26 67.68 76.26"/><polyline class="cls-1" points="41.76 76.5 41.76 78.66 74.88 78.66 75.6 74.82 76.08 70.74"/><polyline class="cls-1" points="87.84 70.74 88.32 74.82 89.04 78.66 122.16 78.66 122.16 76.5"/><polyline class="cls-1" points="96.24 76.26 95.52 76.26 95.52 22.74 96.24 22.74"/><polyline class="cls-1" points="122.16 22.5 122.16 20.58 95.52 20.58 95.52 18.18 62.4 18.18 62.4 20.58 89.04 20.58 88.32 24.42 87.84 28.26 93.36 28.26 93.36 70.74 87.84 70.74"/><polyline class="cls-1" points="0.24 76.5 66.96 76.5 67.44 76.5 67.68 76.26 67.92 76.02 68.16 75.78 68.4 75.3 68.4 75.06 68.4 23.94 68.4 23.7 68.16 23.22 67.92 22.98 67.68 22.74 67.44 22.74 66.96 22.5 0.24 22.5"/><line class="cls-1" x1="91.68" y1="60.42" x2="91.68" y2="69.3"/><line class="cls-1" x1="86.4" y1="60.42" x2="91.68" y2="60.42"/><line class="cls-1" x1="86.4" y1="69.3" x2="86.4" y2="60.42"/><line class="cls-1" x1="91.68" y1="69.3" x2="86.4" y2="69.3"/><line class="cls-1" x1="90.48" y1="32.34" x2="90.48" y2="56.34"/><line class="cls-1" x1="86.64" y1="32.34" x2="90.48" y2="32.34"/><line class="cls-1" x1="86.64" y1="56.34" x2="86.64" y2="32.34"/><line class="cls-1" x1="90.48" y1="56.34" x2="86.64" y2="56.34"/><line class="cls-1" x1="84.48" y1="64.26" x2="84.48" y2="63.54"/><line class="cls-1" x1="84.48" y1="64.74" x2="84.48" y2="64.26"/><line class="cls-1" x1="78.24" y1="65.22" x2="84.48" y2="65.22"/><line class="cls-1" x1="84.48" y1="65.46" x2="78.24" y2="65.46"/><line class="cls-1" x1="84.48" y1="66.9" x2="84.48" y2="65.94"/><line class="cls-1" x1="86.16" y1="67.14" x2="84.72" y2="67.14"/><line class="cls-1" x1="86.4" y1="63.78" x2="86.4" y2="66.9"/><line class="cls-1" x1="86.4" y1="60.66" x2="86.4" y2="63.78"/><line class="cls-1" x1="84.72" y1="60.42" x2="86.16" y2="60.42"/><line class="cls-1" x1="84.48" y1="61.62" x2="84.48" y2="60.66"/><line class="cls-1" x1="78.24" y1="61.86" x2="84.48" y2="61.86"/><line class="cls-1" x1="84.48" y1="62.34" x2="78.24" y2="62.34"/><line class="cls-1" x1="84.48" y1="63.3" x2="84.48" y2="62.58"/><line class="cls-1" x1="84.48" y1="64.02" x2="84.48" y2="63.3"/><line class="cls-1" x1="84.48" y1="65.22" x2="84.48" y2="64.74"/><line class="cls-1" x1="78" y1="65.46" x2="78.24" y2="65.22"/><line class="cls-1" x1="78.24" y1="65.46" x2="78" y2="65.46"/><line class="cls-1" x1="84.48" y1="65.94" x2="84.48" y2="65.46"/><line class="cls-1" x1="84.72" y1="67.14" x2="84.48" y2="66.9"/><line class="cls-1" x1="86.4" y1="66.9" x2="86.16" y2="67.14"/><line class="cls-1" x1="86.16" y1="60.42" x2="86.4" y2="60.66"/><line class="cls-1" x1="84.48" y1="60.66" x2="84.72" y2="60.42"/><line class="cls-1" x1="84.48" y1="61.86" x2="84.48" y2="61.62"/><line class="cls-1" x1="78" y1="62.1" x2="78.24" y2="61.86"/><line class="cls-1" x1="78.24" y1="62.34" x2="78" y2="62.1"/><line class="cls-1" x1="84.48" y1="62.58" x2="84.48" y2="62.34"/><line class="cls-1" x1="84.48" y1="67.62" x2="84.48" y2="66.18"/><line class="cls-1" x1="85.44" y1="67.62" x2="84.48" y2="67.62"/><line class="cls-1" x1="85.44" y1="69.3" x2="85.44" y2="67.62"/><line class="cls-1" x1="91.92" y1="69.3" x2="85.44" y2="69.3"/><line class="cls-1" x1="91.92" y1="60.18" x2="91.92" y2="69.3"/><line class="cls-1" x1="84.48" y1="60.18" x2="91.92" y2="60.18"/><line class="cls-1" x1="84.48" y1="61.38" x2="84.48" y2="60.18"/><line class="cls-1" x1="83.28" y1="59.22" x2="83.28" y2="61.38"/><line class="cls-1" x1="86.4" y1="58.74" x2="84" y2="58.74"/><line class="cls-1" x1="86.4" y1="57.3" x2="86.4" y2="58.74"/><line class="cls-1" x1="90.72" y1="56.58" x2="86.88" y2="56.58"/><line class="cls-1" x1="90.72" y1="32.1" x2="90.72" y2="56.58"/><line class="cls-1" x1="86.88" y1="32.1" x2="90.72" y2="32.1"/><line class="cls-1" x1="86.4" y1="29.94" x2="86.4" y2="31.62"/><line class="cls-1" x1="84" y1="29.94" x2="86.4" y2="29.94"/><line class="cls-1" x1="83.28" y1="28.74" x2="83.28" y2="29.46"/><line class="cls-1" x1="87.84" y1="28.26" x2="84" y2="28.26"/><line class="cls-1" x1="92.64" y1="29.46" x2="87.84" y2="28.26"/><line class="cls-1" x1="93.36" y1="31.86" x2="93.36" y2="30.66"/><line class="cls-1" x1="92.16" y1="32.58" x2="92.64" y2="32.58"/><line class="cls-1" x1="92.16" y1="56.58" x2="92.16" y2="32.58"/><line class="cls-1" x1="92.64" y1="56.58" x2="92.16" y2="56.58"/><line class="cls-1" x1="93.36" y1="70.26" x2="93.36" y2="57.3"/><line class="cls-1" x1="84" y1="70.74" x2="92.64" y2="70.74"/><line class="cls-1" x1="83.28" y1="66.18" x2="83.28" y2="70.26"/><polyline class="cls-1" points="83.28 61.38 84 61.86 84.48 61.38"/><polyline class="cls-1" points="84 58.74 83.52 58.98 83.28 59.22"/><polyline class="cls-1" points="86.88 56.58 86.64 56.82 86.4 57.3"/><polyline class="cls-1" points="86.4 31.62 86.64 31.86 86.88 32.1"/><polyline class="cls-1" points="83.28 29.46 83.52 29.7 84 29.94"/><polyline class="cls-1" points="84 28.26 83.52 28.5 83.28 28.74"/><polyline class="cls-1" points="93.36 30.66 93.12 29.94 92.64 29.46"/><polyline class="cls-1" points="92.64 32.58 93.12 32.34 93.36 31.86"/><polyline class="cls-1" points="93.36 57.3 93.12 56.82 92.64 56.58"/><polyline class="cls-1" points="92.64 70.74 93.12 70.74 93.36 70.26"/><polyline class="cls-1" points="83.28 70.26 83.52 70.74 84 70.74"/><polyline class="cls-1" points="84.48 66.18 84 65.7 83.28 66.18"/><line class="cls-1" x1="86.16" y1="30.18" x2="86.16" y2="58.74"/><line class="cls-1" x1="85.92" y1="30.18" x2="86.16" y2="30.18"/><line class="cls-1" x1="85.92" y1="58.74" x2="85.92" y2="30.18"/><line class="cls-1" x1="86.16" y1="58.74" x2="85.92" y2="58.74"/><line class="cls-1" x1="72.24" y1="38.82" x2="72.24" y2="29.94"/><line class="cls-1" x1="77.52" y1="38.82" x2="72.24" y2="38.82"/><line class="cls-1" x1="77.52" y1="29.94" x2="77.52" y2="38.82"/><line class="cls-1" x1="72.24" y1="29.94" x2="77.52" y2="29.94"/><line class="cls-1" x1="73.44" y1="66.66" x2="73.44" y2="42.66"/><line class="cls-1" x1="77.28" y1="66.66" x2="73.44" y2="66.66"/><line class="cls-1" x1="77.28" y1="42.66" x2="77.28" y2="66.66"/><line class="cls-1" x1="73.44" y1="42.66" x2="77.28" y2="42.66"/><line class="cls-1" x1="79.44" y1="34.98" x2="79.44" y2="35.7"/><line class="cls-1" x1="79.44" y1="34.26" x2="79.44" y2="34.98"/><line class="cls-1" x1="85.68" y1="34.02" x2="79.44" y2="34.02"/><line class="cls-1" x1="79.44" y1="33.54" x2="85.68" y2="33.54"/><line class="cls-1" x1="79.44" y1="32.34" x2="79.44" y2="33.3"/><line class="cls-1" x1="77.76" y1="31.86" x2="78.96" y2="31.86"/><line class="cls-1" x1="77.52" y1="35.46" x2="77.52" y2="32.34"/><line class="cls-1" x1="77.52" y1="38.58" x2="77.52" y2="35.46"/><line class="cls-1" x1="78.96" y1="38.82" x2="77.76" y2="38.82"/><line class="cls-1" x1="79.44" y1="37.38" x2="79.44" y2="38.58"/><line class="cls-1" x1="85.68" y1="37.14" x2="79.44" y2="37.14"/><line class="cls-1" x1="79.44" y1="36.66" x2="85.68" y2="36.66"/><line class="cls-1" x1="79.44" y1="35.7" x2="79.44" y2="36.42"/><line class="cls-1" x1="79.44" y1="35.22" x2="79.44" y2="35.7"/><line class="cls-1" x1="79.44" y1="34.02" x2="79.44" y2="34.26"/><line class="cls-1" x1="85.92" y1="33.78" x2="85.68" y2="34.02"/><line class="cls-1" x1="85.68" y1="33.54" x2="85.92" y2="33.78"/><line class="cls-1" x1="79.44" y1="33.3" x2="79.44" y2="33.54"/><line class="cls-1" x1="78.96" y1="31.86" x2="79.44" y2="32.34"/><line class="cls-1" x1="77.52" y1="32.34" x2="77.76" y2="31.86"/><line class="cls-1" x1="77.76" y1="38.82" x2="77.52" y2="38.58"/><line class="cls-1" x1="79.44" y1="38.58" x2="78.96" y2="38.82"/><line class="cls-1" x1="79.44" y1="37.14" x2="79.44" y2="37.38"/><line class="cls-1" x1="85.92" y1="36.9" x2="85.68" y2="37.14"/><line class="cls-1" x1="85.68" y1="36.66" x2="85.92" y2="36.9"/><line class="cls-1" x1="79.44" y1="36.42" x2="79.44" y2="36.66"/><line class="cls-1" x1="79.44" y1="31.38" x2="79.44" y2="33.06"/><line class="cls-1" x1="78.48" y1="31.38" x2="79.44" y2="31.38"/><line class="cls-1" x1="78.48" y1="29.7" x2="78.48" y2="31.38"/><line class="cls-1" x1="72" y1="29.7" x2="78.48" y2="29.7"/><line class="cls-1" x1="72" y1="38.82" x2="72" y2="29.7"/><line class="cls-1" x1="79.44" y1="38.82" x2="72" y2="38.82"/><line class="cls-1" x1="79.44" y1="37.86" x2="79.44" y2="38.82"/><line class="cls-1" x1="80.4" y1="39.78" x2="80.4" y2="37.86"/><line class="cls-1" x1="77.52" y1="40.26" x2="79.92" y2="40.26"/><line class="cls-1" x1="77.52" y1="41.94" x2="77.52" y2="40.26"/><line class="cls-1" x1="73.2" y1="42.42" x2="77.04" y2="42.42"/><line class="cls-1" x1="73.2" y1="66.9" x2="73.2" y2="42.42"/><line class="cls-1" x1="77.04" y1="66.9" x2="73.2" y2="66.9"/><line class="cls-1" x1="77.52" y1="69.06" x2="77.52" y2="67.62"/><line class="cls-1" x1="79.92" y1="69.06" x2="77.52" y2="69.06"/><line class="cls-1" x1="80.4" y1="70.26" x2="80.4" y2="69.78"/><line class="cls-1" x1="76.08" y1="70.74" x2="79.92" y2="70.74"/><line class="cls-1" x1="71.28" y1="69.54" x2="76.08" y2="70.74"/><line class="cls-1" x1="70.56" y1="67.14" x2="70.56" y2="68.58"/><line class="cls-1" x1="71.76" y1="66.66" x2="71.04" y2="66.66"/><line class="cls-1" x1="71.76" y1="42.42" x2="71.76" y2="66.66"/><line class="cls-1" x1="71.04" y1="42.42" x2="71.76" y2="42.42"/><line class="cls-1" x1="70.56" y1="28.74" x2="70.56" y2="41.94"/><line class="cls-1" x1="79.92" y1="28.26" x2="71.04" y2="28.26"/><line class="cls-1" x1="80.4" y1="33.06" x2="80.4" y2="28.74"/><polyline class="cls-1" points="80.4 37.86 79.92 37.14 79.44 37.86"/><polyline class="cls-1" points="79.92 40.26 80.4 40.26 80.4 39.78"/><polyline class="cls-1" points="77.04 42.42 77.28 42.18 77.52 41.94"/><polyline class="cls-1" points="77.52 67.62 77.28 67.14 77.04 66.9"/><polyline class="cls-1" points="80.4 69.78 80.4 69.3 79.92 69.06"/><polyline class="cls-1" points="79.92 70.74 80.4 70.74 80.4 70.26"/><polyline class="cls-1" points="70.56 68.58 70.8 69.06 71.28 69.54"/><polyline class="cls-1" points="71.04 66.66 70.8 66.66 70.56 67.14"/><polyline class="cls-1" points="70.56 41.94 70.8 42.18 71.04 42.42"/><polyline class="cls-1" points="71.04 28.26 70.8 28.5 70.56 28.74"/><polyline class="cls-1" points="80.4 28.74 80.4 28.5 79.92 28.26"/><polyline class="cls-1" points="79.44 33.06 79.92 33.54 80.4 33.06"/><line class="cls-1" x1="77.76" y1="69.06" x2="77.76" y2="40.26"/><line class="cls-1" x1="78" y1="69.06" x2="77.76" y2="69.06"/><line class="cls-1" x1="78" y1="40.26" x2="78" y2="69.06"/><line class="cls-1" x1="77.76" y1="40.26" x2="78" y2="40.26"/><polyline class="cls-1" points="176.4 22.5 96.96 22.5 96.48 22.74 96.24 22.74 95.76 22.98 95.52 23.22 95.52 23.7 95.52 23.94 95.52 75.06 95.52 75.3 95.52 75.78 95.76 76.02 96.24 76.26 96.48 76.5 96.96 76.5 176.4 76.5"/><polygon class="cls-2" points="52.08 14.1 51.12 14.1 51.6 18.42 52.08 14.1"/><polygon class="cls-3" points="52.08 14.1 51.12 14.1 51.6 18.42 52.08 14.1"/><line class="cls-3" x1="51.6" y1="3.3" x2="176.4" y2="3.3"/><line class="cls-3" x1="51.6" y1="18.42" x2="51.6" y2="3.3"/><polygon class="cls-2" points="101.28 14.34 100.08 14.34 100.56 18.66 101.28 14.34"/><polygon class="cls-3" points="101.28 14.34 100.08 14.34 100.56 18.66 101.28 14.34"/><line class="cls-3" x1="100.56" y1="3.3" x2="176.4" y2="3.3"/><line class="cls-3" x1="100.56" y1="18.66" x2="100.56" y2="3.3"/><text class="cls-4" transform="translate(182.16 6.18)">EX<tspan class="cls-5" x="7.69" y="0">T</tspan><tspan class="cls-6" x="11.3" y="0">RUD</tspan><tspan x="23.55" y="0">E</tspan><tspan class="cls-7" x="27.4" y="0">D</tspan></text><text class="cls-8" transform="translate(182.16 14.1)"><tspan class="cls-9">A</tspan><tspan class="cls-10" x="3.85" y="0">L</tspan><tspan class="cls-11" x="6.97" y="0">U</tspan><tspan class="cls-12" x="11.04" y="0">M</tspan><tspan class="cls-13" x="15.84" y="0">INIU</tspan><tspan class="cls-14" x="26.91" y="0">M</tspan><tspan class="cls-15" x="31.71" y="0"> </tspan><tspan class="cls-9" x="33.39" y="0">S</tspan><tspan class="cls-5" x="37.23" y="0">T</tspan><tspan class="cls-13" x="40.84" y="0">I</tspan><tspan class="cls-10" x="42.29" y="0">L</tspan><tspan x="45.41" y="0">E</tspan></text><text class="cls-8" transform="translate(182.16 22.26)"><tspan class="cls-9">P</tspan><tspan class="cls-6" x="3.85" y="0">R</tspan><tspan class="cls-16" x="7.93" y="0">O</tspan><tspan class="cls-5" x="12.49" y="0">T</tspan><tspan class="cls-9" x="16.1" y="0">E</tspan><tspan class="cls-6" x="19.94" y="0">C</tspan><tspan class="cls-5" x="24.03" y="0">T</tspan><tspan class="cls-17" x="27.63" y="0">I</tspan><tspan class="cls-16" x="29.07" y="0">O</tspan><tspan x="33.63" y="0">N</tspan></text></g></g></svg>