<svg xmlns="http://www.w3.org/2000/svg" xmlns:xlink="http://www.w3.org/1999/xlink" viewBox="0 0 9.6 11.04"><defs><style>.cls-1,.cls-2,.cls-6{fill:none;}.cls-1{clip-rule:evenodd;}.cls-3{clip-path:url(#clip-path);}.cls-4{clip-path:url(#clip-path-2);}.cls-5{fill:red;}.cls-6{stroke:#000;stroke-linecap:round;stroke-linejoin:round;stroke-width:0.48px;}</style><clipPath id="clip-path" transform="translate(-660.12 -477.84)"><path class="cls-1" d="M660.36,483.36l.24.24c2.83,1.55,5.56,3.26,8.4,4.8l.24.24.24-10.56H669v.24h-.48v.24H668l-.24.24V479h-.48v.24h-.48v.24h-.48l-.24.24V480h-.48v.24h-.48l-.24.24v.24h-.48V481H664v.24h-.48l-.24.24v.24h-.48v.24h-.48v.24h-.48l-.24.24v.24h-.48v.24h-.48l-.24.24"/></clipPath><clipPath id="clip-path-2" transform="translate(-660.12 -477.84)"><rect class="cls-2" width="1684.08" height="2383.92"/></clipPath></defs><title>083_RequiredSwingDirection</title><g id="Layer_2" data-name="Layer 2"><g id="Layer_1-2" data-name="Layer 1"><g class="cls-3"><g class="cls-4"><rect class="cls-5" x="0.24" y="0.24" width="9.12" height="10.56"/></g></g><polyline class="cls-6" points="9.36 10.8 9.36 0.24 0.24 5.52 9.36 10.8"/></g></g></svg>