<svg xmlns="http://www.w3.org/2000/svg" xmlns:xlink="http://www.w3.org/1999/xlink" viewBox="0 0 45.12 45.36"><defs><style>.cls-1,.cls-2,.cls-3{fill:none;}.cls-1{clip-rule:evenodd;}.cls-3{stroke:#000;stroke-linecap:round;stroke-linejoin:round;stroke-width:0.48px;}.cls-4{clip-path:url(#clip-path);}.cls-5{clip-path:url(#clip-path-2);}.cls-6{fill:#8000ff;}.cls-7{clip-path:url(#clip-path-3);}</style><clipPath id="clip-path" transform="translate(-436.44 -458.64)"><path class="cls-1" d="M437.88,483.12l.48,3.84.48,1,.24.72.48,1,.24.72.48,1,.24.72.48.48.24.48.48.48.24.48.48.48.24.48.48.48.24.48.24.24.24.48.48.24.48.48.48.24a15.93,15.93,0,0,0,3.6,2.64l.48.24.72.24.48.24.72.24.48.24.72.24,1,.48,3.84.48,1.68.24.24-.24h1.68v-.24h1.92v-.24h1.92v-.24h.48v-.24h.48v-.24h.72v-.24h.48v-.24h.48v-.24h.72v-.24h.48v-.24h.48v-.24h.72v-.24l.72-.72H471v-.24l.48-.48H472V498l.72-.72h.48V497l.48-.48h.48v-.48l.24-.24a25.85,25.85,0,0,1,2.16-2.88l.24-.48.48-.48c.62-1.59,1.44-3.48,2.16-5l.48-3.84.24-3.6h-.24l-.24-1.92-.24-1.68c-1.54-3.79-2.12-5.6-4.8-8.64l-.24-.48-1.2-1.2-.48-.24-.48-.48-.48-.24-.72-.72-.48-.24-.48-.48-1.44-.72c-1.18-.35-2.89-1.33-4.08-1.68l-1.68-.24-1.92-.24-3.6-.24v.24H455.4v.24h-1.68v.24H453V461h-.48v.24h-.72v.24h-.48v.24h-.72V462h-.48v.24h-.72v.24h-.48v.24h-.48V463H448l-.48.48v.24H447l-.72.72v.24h-.48l-.48.48v.24h-.48c-3.28,3.33-6,7.53-6.72,12.24l-.24,1.92m-1.44,3.84.24,1.92.24,1.92.72,1.44.24.72.48,1,.24.72.48,1,.24.72.48.48.24.48.48.48a25.87,25.87,0,0,0,2.16,2.88l.24.48.48.24.48.48.48.24c1.45,1.11,2.69,2.73,4.56,3.12l.48.24.72.24.48.24.72.24.48.24.72.24.48.24,2.16.24L459,504l.24-.24h1.92v-.24h1.92v-.24H465V503h.48v-.24h.72v-.24h.48v-.24h.72v-.24h.48v-.24h.72v-.24h.48v-.24h.72v-.24h.72v-.24l.72-.72h.48v-.24l.72-.72h.48V499l.72-.72h.48V498l.48-.48h.48V497l.48-.48a25.87,25.87,0,0,1,2.16-2.88l.24-.48.48-.48c.69-1.75,1.57-3.84,2.4-5.52l.48-3.84.24-4.08h-.24l-.48-3.84-.24-.72-1-1.92-.24-.72-1.2-2.4-.48-.48-.24-.48-.48-.48-.24-.48-.48-.48-.24-.48-.48-.48-.24-.48-1.2-1.2-.48-.24-.72-.72-.48-.24-.72-.72-.48-.24-.48-.48-1-.48-.72-.24-.48-.24-.72-.24-.48-.24-.72-.24-.48-.24-1.44-.48-4.32-.72-2.88-.24v.24h-1.44v.24h-1.44v.24h-1.44v.24h-.72v.24h-.72v.24h-.48v.24h-.72v.24h-.48v.24h-.72V461h-.48v.24h-.72v.24h-.48v.24h-.48l-.48.48v.24h-.48l-.72.72v.24h-.48l-.72.72v.24h-.48l-1.44,1.44-.24.48-.48.48-.24.48-.48.48-.24.48-.48.48-.24.48-.48.48-1.2,2.4-.24.72-1,1.92-.24.72-.48,3.84Z"/></clipPath><clipPath id="clip-path-2" transform="translate(-436.44 -458.64)"><rect class="cls-2" width="1684.08" height="2383.92"/></clipPath><clipPath id="clip-path-3" transform="translate(-436.44 -458.64)"><path class="cls-1" d="M453.48,482.88l.24.72c.49,1.81,2.32,2.55,3.84,3.36l1.44.24.24-.24h1.44v-.24l.24-.24h.48v-.24h.48V486l.24-.24h.48v-.24h.48V485l.72-.72.48-1.44.24-2.88h-.24l-.48-1.44-.24-.48-1.44-1.44-1-.48-.72-.24-2.64-.24v.24h-.72v.24h-.72v.24h-.48l-1.68,1.68-.24.48-.48,1.44M452,483.36l.24.48.24.48.24.72,1,1,.24.48.48.24,1,1,1,.24.72.24,1.92.24.24-.24h1.68v-.24h.72v-.24h1v-.24l.48-.48h.48v-.24l.24-.24h.48V486c.76-.72.9-1.77,1.44-2.64l.24-3.84h-.24l-.24-.72a6.83,6.83,0,0,0-4.8-4.32l-3.36-.24v.24h-.72v.24h-.48V475h-.48v.24h-.48L453,477.36l-.72,1.44-.24.72Z"/></clipPath></defs><title>083_FH_EX</title><g id="Layer_2" data-name="Layer 2"><g id="Layer_1-2" data-name="Layer 1"><line class="cls-3" x1="37.44" y1="16.32" x2="37.44" y2="16.8"/><line class="cls-3" x1="37.68" y1="16.8" x2="37.68" y2="16.32"/><g class="cls-4"><g class="cls-5"><rect class="cls-6" width="45.12" height="45.36"/></g></g><g class="cls-7"><g class="cls-5"><rect class="cls-6" x="15.6" y="15.6" width="13.92" height="14.16"/></g></g></g></g></svg>