<svg xmlns="http://www.w3.org/2000/svg" xmlns:xlink="http://www.w3.org/1999/xlink" viewBox="0 0 45.12 45.36"><defs><style>.cls-1,.cls-2,.cls-3{fill:none;}.cls-1{clip-rule:evenodd;}.cls-3{stroke:#000;stroke-linecap:round;stroke-linejoin:round;stroke-width:0.48px;}.cls-4{clip-path:url(#clip-path);}.cls-5{clip-path:url(#clip-path-2);}.cls-6{fill:red;}.cls-7{clip-path:url(#clip-path-3);}</style><clipPath id="clip-path" transform="translate(-501.96 -458.88)"><path class="cls-1" d="M503.4,483.12l.24,1.92.24,1.92.48,1c.42,1.14,1,2.49,1.44,3.6l.24.72.72.72a27.54,27.54,0,0,0,2.4,3.12l.24.48.48.24.48.48.48.24a16,16,0,0,0,3.6,2.64l.48.24.72.24.48.24.72.24.48.24.72.24,1,.48,3.84.48,1.68.24.24-.24h1.68v-.24h1.92v-.24h1.92v-.24h.48v-.24h.48v-.24H532v-.24h.48v-.24h.48v-.24h.72v-.24h.48v-.24h.48v-.24h.72v-.24L536,499h.48v-.24l.48-.48h.48V498l.72-.72h.48V497l.48-.48h.48v-.48l.48-.48a34.06,34.06,0,0,1,2.64-3.36l.24-.72.24-.48a44,44,0,0,1,1.68-4.08l.48-3.84.24-3.6h-.24l-.24-1.92-.24-1.68-.24-.72-.48-1-.24-.72-.48-1-.24-.72-.72-1.44-.48-.48-.24-.48-.72-.72-.24-.48-.48-.48-.24-.48-1.68-1.68-.48-.24-1-1-.48-.24-1-1-1-.48-.72-.24-.48-.24-1.44-.48-.48-.24L530,461l-1.68-.24-1.92-.24-3.6-.24v.24h-1.92v.24h-1.68V461h-.72v.24h-.72v.24h-.72v.24h-.48V462h-.72v.24h-.72v.24h-.72v.24H514V463h-.48l-1,1v.24H512l-1,1v.24h-.48l-1.92,1.92-.24.48-.48.48-.24.48-.72.72-.24.48-.48.48-.72,1.44c-.35,1.18-1.33,2.89-1.68,4.08l-.24,1.68-.24,1.92M502,483.36l.24,1.92.24,2.16,1,1.92a17.34,17.34,0,0,0,2.16,4.32l.48.48.24.48c.52.38,1.4,2,1.92,2.4l.24.48.48.24.48.48.48.24c.94,1,2.18,1.64,3.12,2.64l1.44.48.48.24c1,.31,2.14.89,3.12,1.2l.48.24,1.68.24,4.32.72.24-.24h1.44v-.24h1.44v-.24h1.44v-.24h1.44V503H531v-.24h.72v-.24h.48v-.24h.72v-.24h.48v-.24h.72v-.24h.48v-.24h.72v-.24H536v-.24l.48-.48H537v-.24l.48-.48H538v-.24l.48-.48h.48v-.24l.48-.48h.48V498l.48-.48h.48V497l.48-.48c.68-1.2,1.72-2.16,2.4-3.36l.48-.48.24-.72.24-.48.24-.72.24-.48.24-.72.24-.48.24-.72.48-1,.24-2.16.24-1.92.24-3.84h-.24l-.48-3.84-.48-1.44-.24-.48c-.31-1-.89-2.14-1.2-3.12l-.48-1-.48-.48a25.87,25.87,0,0,0-2.16-2.88l-.24-.48-1-1-.48-.24-.48-.48-.48-.24-.48-.48-.48-.24-.48-.48-.48-.24-.48-.48-1-.48c-1.14-.42-2.49-.95-3.6-1.44l-1.44-.48-3.84-.48-3.84-.24v.24h-1.92v.24h-1.92v.24H518v.24h-.72v.24h-.48v.24h-.72v.24h-.48v.24h-.72V461h-.48v.24h-.72v.24h-.48v.24h-.48l-.48.48v.24h-.48l-.72.72v.24h-.48l-.72.72v.24h-.48L508,465.84l-.24.48-.48.48-.24.48-.48.48-.24.48-.48.48-.24.48-.48.48-1,1.92-.24.72-.48,1-.24.72-.48,1-.24.72-.48,3.84Z"/></clipPath><clipPath id="clip-path-2" transform="translate(-501.96 -458.88)"><rect class="cls-2" width="1684.08" height="2383.92"/></clipPath><clipPath id="clip-path-3" transform="translate(-501.96 -458.88)"><path class="cls-1" d="M519,482.88l.24.72.24.72.72.72.24.48.48.24.72.72,1.44.48,1.44.24.24-.24h1.44v-.24h.72v-.24h.72v-.24l.72-.72.24-.48.72-.72.72-1.44.24-2.88H530l-.72-1.44-1.92-1.92-1-.48-3.6-.24v.24h-.48v.24h-.48v.24h-.48l-1.92,1.92L519,480m-1.44,3.36.48,1,.24.72,1,1,.24.48.48.24,1,1,.72.24,1,.48,1.92.24.24-.24h1.68v-.24h.48v-.24h.72v-.24h.72v-.24l1-1h.48V486c.76-.72.9-1.77,1.44-2.64l.24-3.6h-.24l-.48-1.44c-.91-2.17-2.3-3-4.56-3.6l-3.36-.24v.24h-.72V475h-.48v.24h-.48v.24h-.48l-.24.24v.24H520l-1.44,1.44-.48,1-.48,1.44Z"/></clipPath></defs><title>083_FHR_EX</title><g id="Layer_2" data-name="Layer 2"><g id="Layer_1-2" data-name="Layer 1"><line class="cls-3" x1="36" y1="16.32" x2="36" y2="16.8"/><line class="cls-3" x1="36" y1="16.8" x2="36" y2="16.32"/><g class="cls-4"><g class="cls-5"><rect class="cls-6" width="45.12" height="45.36"/></g></g><g class="cls-7"><g class="cls-5"><rect class="cls-6" x="15.6" y="15.6" width="13.92" height="14.16"/></g></g></g></g></svg>