<svg xmlns="http://www.w3.org/2000/svg" xmlns:xlink="http://www.w3.org/1999/xlink" viewBox="0 0 45.12 45.36"><defs><style>.cls-1,.cls-2{fill:none;}.cls-1{clip-rule:evenodd;}.cls-3{clip-path:url(#clip-path);}.cls-4{clip-path:url(#clip-path-2);}.cls-5{fill:#5af;}.cls-6{clip-path:url(#clip-path-3);}</style><clipPath id="clip-path" transform="translate(-374.28 -458.4)"><path class="cls-1" d="M375.72,482.88l.48,3.84.24.48.24.72.24.48.48,1.44.24.48.48,1.44,1,1,.24.48,1,1,.24.48,1,1,.24.48.48.24.48.48.48.24.72.72.48.24.48.48.48.24.72.72.72.24,1,.48.72.24,1,.48.72.24,1,.48,3.84.48,1.68.24.24-.24h1.68v-.24h1.92v-.24h1.92v-.24h.48v-.24h.48v-.24H404v-.24h.48v-.24h.72v-.24h.48v-.24h.72v-.24h.48v-.24h.72v-.24l.72-.72h.48v-.24l.48-.48h.48v-.24l.72-.72H411v-.24l.48-.48H412v-.48l.48-.48.24-.48.72-.72.24-.48.48-.48.24-.48.72-.72.24-.72c.68-1.29,1.24-3,1.92-4.32l.48-3.84.24-3.6h-.24l-.24-1.92-.24-1.68L417,475c-.42-.77-.78-2.11-1.2-2.88l-.24-.72-.72-1.44c-.78-.83-1.38-1.81-2.16-2.64l-.24-.48L411,465.36l-.48-.24-.48-.48-.48-.24-.72-.72-.48-.24-.48-.48-1.44-.72-.72-.24-.48-.24c-1-.31-2.13-.89-3.12-1.2l-1.68-.24-1.92-.24-3.6-.24v.24H393v.24h-1.68v.24h-.72v.24h-.48V461h-.48v.24h-.72v.24h-.48v.24H388V462h-.72v.24h-.48v.24h-.48v.24h-.48l-.48.48v.24h-.48l-.72.72v.24h-.48l-.48.48v.24h-.48L380.76,467l-.24.48-1,1-.24.48-1,1-.48,1-.72,2.16-.24.48-.72,2.16-.24,1.68-.24,1.92m-1.44,3.84.24,1.92.24,1.92.24.48c.42,1.14,1,2.49,1.44,3.6l.48,1.44.48.48c.68,1.2,1.72,2.16,2.4,3.36l.48.48.24.48.48.24.48.48c1.2.68,2.16,1.72,3.36,2.4l.48.48,1.44.48c1.33.62,2.75,1.06,4.08,1.68l5.76.72.24-.24h1.92v-.24h1.92V503h2.16v-.24h.48v-.24h.48v-.24h.72v-.24H405v-.24h.72v-.24h.48v-.24h.72v-.24h.48v-.24h.72v-.24l.48-.48h.48v-.24l.48-.48H410v-.24l.48-.48H411v-.24l.48-.48H412v-.24l.48-.48h.48v-.48l.48-.48a25.87,25.87,0,0,1,2.16-2.88l.24-.48.48-.48c.69-1.75,1.57-3.84,2.4-5.52l.48-3.84.24-4.08h-.24l-.48-3.84-.24-.72-1-1.92-.24-.72-1.2-2.4-.48-.48-.24-.48-.48-.48-.24-.48-.48-.48-.24-.48-.48-.48-.24-.48-1-1-.48-.24-.48-.48-.48-.24-.48-.48-.48-.24-.48-.48-.48-.24-.48-.48-2.4-1.2-.72-.24-1.92-1-.72-.24-3.84-.48-3.84-.24v.24H393v.24h-1.92v.24h-.72v.24h-.48v.24h-.48v.24h-.72v.24h-.48v.24h-.48v.24H387v.24h-.48V461H386v.24h-.48v.24h-.48l-.48.48v.24h-.48l-.48.48V463h-.48l-.48.48v.24h-.48l-.48.48v.24h-.48l-1.2,1.2a25.88,25.88,0,0,1-2.16,2.88l-.24.48-.48.48c-.86,1.51-1.41,3.46-2.16,5l-.24.72-.48,3.84Z"/></clipPath><clipPath id="clip-path-2" transform="translate(-374.28 -458.4)"><rect class="cls-2" width="1684.08" height="2383.92"/></clipPath><clipPath id="clip-path-3" transform="translate(-374.28 -458.4)"><path class="cls-1" d="M391.32,483.12l.24.48.24.48,1.92,1.92,1.44.72h3.12v-.24h.48v-.24h.48V486h.48v-.24l.72-.72h.48v-.24l.72-.72.48-1.44.24-2.88h-.24l-.48-1.44-.24-.48L400,476.4l-.48-.24-1.44-.48-2.64-.24v.24h-.72v.24H394L392,477.84l-.72,1.44m-1.44,3.6.24.48.48,1.44.24.24.24.48.24.24.24.48.48.24.24.24a9.33,9.33,0,0,0,4.32,1.44l.24-.24h1.92v-.24h.48v-.24h.48v-.24h.72V487l.24-.24h.48v-.24l.24-.24h.48v-.48l1-1,.48-1.44.24-.48.24-3.6h-.24l-.24-.72-.72-1.44-1.92-1.92-1.44-.72-.72-.24-3.36-.24v.24h-.72v.24h-.72v.24h-.48V475h-.48l-1.44,1.44-.24.48-.24.24-.72,1.44-.24.72Z"/></clipPath></defs><title>083_FH_FHR_EX</title><g id="Layer_2" data-name="Layer 2"><g id="Layer_1-2" data-name="Layer 1"><g class="cls-3"><g class="cls-4"><rect class="cls-5" width="45.12" height="45.36"/></g></g><g class="cls-6"><g class="cls-4"><rect class="cls-5" x="15.6" y="15.6" width="13.92" height="14.16"/></g></g></g></g></svg>