<svg xmlns="http://www.w3.org/2000/svg" xmlns:xlink="http://www.w3.org/1999/xlink" viewBox="0 0 148.56 91.44"><defs><style>.cls-1,.cls-2,.cls-7,.cls-8,.cls-9{fill:none;}.cls-1{clip-rule:evenodd;}.cls-3{clip-path:url(#clip-path);}.cls-4{clip-path:url(#clip-path-2);}.cls-5{fill:#fff;}.cls-6{clip-path:url(#clip-path-3);}.cls-7,.cls-8,.cls-9{stroke:#000;stroke-linecap:round;stroke-linejoin:round;}.cls-7{stroke-width:0.24px;}.cls-8{stroke-width:0.96px;}.cls-9{stroke-width:0.48px;}</style><clipPath id="clip-path" transform="translate(-790.53 -413.52)"><path class="cls-1" d="M886,503.52v1h52.56v-1Zm-95,0v1h36.72v-1Z"/></clipPath><clipPath id="clip-path-2" transform="translate(-790.53 -413.52)"><rect class="cls-2" width="1191.12" height="841.92"/></clipPath><clipPath id="clip-path-3" transform="translate(-790.53 -413.52)"><path class="cls-1" d="M886,497.76v.72h52.56v-.72Zm-95,0v.72h36.72v-.72Z"/></clipPath></defs><title>Doors_AS1428_8</title><g id="Layer_2" data-name="Layer 2"><g id="Layer_1-2" data-name="Layer 1"><g class="cls-3"><g class="cls-4"><polyline class="cls-5" points="0.48 90 148.08 90 148.08 90.96 0.48 90.96"/></g></g><g class="cls-6"><g class="cls-4"><polyline class="cls-5" points="0.48 84.24 148.08 84.24 148.08 84.96 0.48 84.96"/></g></g><line class="cls-7" x1="126.48" y1="90.96" x2="126.24" y2="90.24"/><line class="cls-7" x1="29.76" y1="90" x2="29.52" y2="90.24"/><line class="cls-7" x1="146.16" y1="84.24" x2="146.16" y2="84.48"/><line class="cls-7" x1="99.6" y1="84.24" x2="99.6" y2="84.24"/><polyline class="cls-8" points="0.48 90.96 37.2 90.96 37.2 84.24 0.48 84.24 0.48 90.96"/><polyline class="cls-8" points="95.52 90.96 148.08 90.96 148.08 84.24 95.52 84.24 95.52 90.96"/><line class="cls-9" x1="37.2" y1="90" x2="0.48" y2="90"/><line class="cls-9" x1="148.08" y1="90" x2="95.52" y2="90"/><line class="cls-9" x1="37.2" y1="84.96" x2="0.48" y2="84.96"/><line class="cls-9" x1="148.08" y1="84.96" x2="95.52" y2="84.96"/><line class="cls-9" x1="34.8" y1="0.24" x2="42.48" y2="0.24"/><line class="cls-9" x1="48.24" y1="0.24" x2="59.52" y2="0.24"/><line class="cls-9" x1="65.28" y1="0.24" x2="76.56" y2="0.24"/><line class="cls-9" x1="82.32" y1="0.24" x2="93.6" y2="0.24"/><line class="cls-9" x1="99.12" y1="0.24" x2="110.64" y2="0.24"/><polyline class="cls-9" points="116.16 0.24 123.84 0.24 123.84 13.92"/><line class="cls-9" x1="123.84" y1="19.44" x2="123.84" y2="30.96"/><line class="cls-9" x1="123.84" y1="36.48" x2="123.84" y2="47.76"/><line class="cls-9" x1="123.84" y1="53.52" x2="123.84" y2="64.8"/><line class="cls-9" x1="123.84" y1="70.56" x2="123.84" y2="84.24"/><line class="cls-9" x1="34.8" y1="0.24" x2="34.8" y2="13.92"/><line class="cls-9" x1="34.8" y1="19.44" x2="34.8" y2="30.96"/><line class="cls-9" x1="34.8" y1="36.48" x2="34.8" y2="47.76"/><line class="cls-9" x1="34.8" y1="53.52" x2="34.8" y2="64.8"/><line class="cls-9" x1="34.8" y1="70.56" x2="34.8" y2="84.24"/><line class="cls-9" x1="95.04" y1="84.24" x2="95.04" y2="70.56"/><line class="cls-9" x1="95.04" y1="64.8" x2="95.04" y2="53.52"/><line class="cls-9" x1="95.04" y1="47.76" x2="95.04" y2="36.48"/><line class="cls-9" x1="95.04" y1="30.96" x2="95.04" y2="19.44"/><line class="cls-9" x1="95.04" y1="13.92" x2="95.04" y2="0.24"/><line class="cls-9" x1="37.68" y1="84.24" x2="37.68" y2="70.56"/><line class="cls-9" x1="37.68" y1="64.8" x2="37.68" y2="53.52"/><line class="cls-9" x1="37.68" y1="47.76" x2="37.68" y2="36.48"/><line class="cls-9" x1="37.68" y1="30.96" x2="37.68" y2="19.44"/><line class="cls-9" x1="37.68" y1="13.92" x2="37.68" y2="0.24"/><line class="cls-9" x1="63.84" y1="19.68" x2="66.24" y2="21.12"/><line class="cls-9" x1="60.24" y1="17.76" x2="63.84" y2="19.68"/><line class="cls-9" x1="56.64" y1="15.6" x2="60.24" y2="17.76"/><line class="cls-9" x1="60.72" y1="12.24" x2="60.72" y2="15.6"/><line class="cls-9" x1="64.08" y1="8.64" x2="60.72" y2="8.64"/><line class="cls-9" x1="67.92" y1="8.64" x2="64.08" y2="8.64"/><line class="cls-9" x1="72" y1="12.24" x2="72" y2="8.64"/><line class="cls-9" x1="68.88" y1="19.68" x2="66.24" y2="21.12"/><line class="cls-9" x1="72.48" y1="17.76" x2="68.88" y2="19.68"/><line class="cls-9" x1="60.72" y1="8.64" x2="60.72" y2="12.24"/><line class="cls-9" x1="72" y1="8.64" x2="67.92" y2="8.64"/><line class="cls-9" x1="72" y1="15.6" x2="72" y2="12.24"/><line class="cls-9" x1="76.08" y1="15.6" x2="72" y2="15.6"/><line class="cls-9" x1="76.08" y1="15.6" x2="72.48" y2="17.76"/><line class="cls-9" x1="56.64" y1="15.6" x2="60.72" y2="15.6"/><line class="cls-9" x1="42.48" y1="31.92" x2="40.32" y2="31.92"/><line class="cls-9" x1="42.48" y1="84" x2="40.32" y2="84"/><line class="cls-9" x1="42.48" y1="84" x2="42.48" y2="31.92"/><line class="cls-9" x1="40.32" y1="84" x2="40.32" y2="31.92"/><polyline class="cls-9" points="92.4 84 91.68 75.12 89.28 66.24 85.44 58.08 80.16 50.64 73.68 44.16 66.24 38.88 58.08 35.04 49.2 32.64 40.32 31.92"/><polyline class="cls-9" points="40.08 86.64 40.08 84.24 37.68 84.24 37.68 90.96 40.08 90.96 40.08 89.52 40.8 89.52 40.8 86.64 40.08 86.64"/><polyline class="cls-9" points="92.64 86.64 91.92 86.64 91.92 89.52 92.64 89.52 92.64 90.96 95.04 90.96 95.04 84.24 92.64 84.24 92.64 86.64"/></g></g></svg>