<svg xmlns="http://www.w3.org/2000/svg" xmlns:xlink="http://www.w3.org/1999/xlink" viewBox="0 0 125.76 117.84"><defs><style>.cls-1,.cls-2,.cls-7,.cls-8,.cls-9{fill:none;}.cls-1{clip-rule:evenodd;}.cls-3{clip-path:url(#clip-path);}.cls-4{clip-path:url(#clip-path-2);}.cls-5{fill:#fff;}.cls-6{clip-path:url(#clip-path-3);}.cls-7,.cls-8,.cls-9{stroke:#000;stroke-linecap:round;stroke-linejoin:round;}.cls-7{stroke-width:0.24px;}.cls-8{stroke-width:0.96px;}.cls-9{stroke-width:0.48px;}.cls-10{fill-rule:evenodd;}.cls-11{font-size:10.17px;font-family:ArialNarrow, Arial;letter-spacing:-0.03em;}.cls-12{letter-spacing:0em;}</style><clipPath id="clip-path" transform="translate(-251.25 -161.04)"><path class="cls-1" d="M341,277v.72h35.52V277Zm-89.28,0v.72h31V277Z"/></clipPath><clipPath id="clip-path-2" transform="translate(-251.25 -161.04)"><rect class="cls-2" width="1191.12" height="841.92"/></clipPath><clipPath id="clip-path-3" transform="translate(-251.25 -161.04)"><path class="cls-1" d="M341,271v.72h35.52V271Zm-89.28,0v.72h31V271Z"/></clipPath></defs><title>Doors_Tag_Internal</title><g id="Layer_2" data-name="Layer 2"><g id="Layer_1-2" data-name="Layer 1"><g class="cls-3"><g class="cls-4"><rect class="cls-5" x="0.48" y="115.92" width="124.8" height="0.72"/></g></g><g class="cls-6"><g class="cls-4"><rect class="cls-5" x="0.48" y="109.92" width="124.8" height="0.72"/></g></g><line class="cls-7" x1="9.6" y1="116.64" x2="9.36" y2="116.4"/><line class="cls-7" x1="115.68" y1="116.16" x2="115.44" y2="115.92"/><polyline class="cls-8" points="0.48 116.64 31.44 116.64 31.44 109.92 0.48 109.92 0.48 116.64"/><polyline class="cls-8" points="89.76 116.64 125.28 116.64 125.28 109.92 89.76 109.92 89.76 116.64"/><line class="cls-9" x1="31.44" y1="115.92" x2="0.48" y2="115.92"/><line class="cls-9" x1="125.28" y1="115.92" x2="89.76" y2="115.92"/><line class="cls-9" x1="31.44" y1="110.64" x2="0.48" y2="110.64"/><line class="cls-9" x1="125.28" y1="110.64" x2="89.76" y2="110.64"/><line class="cls-9" x1="36.72" y1="57.6" x2="34.56" y2="57.6"/><line class="cls-9" x1="36.72" y1="109.92" x2="34.56" y2="109.92"/><line class="cls-9" x1="36.72" y1="109.92" x2="36.72" y2="57.6"/><line class="cls-9" x1="34.56" y1="109.92" x2="34.56" y2="57.6"/><polyline class="cls-9" points="86.64 109.92 85.92 100.8 83.52 91.92 79.68 83.76 74.4 76.32 68.16 69.84 60.72 64.56 52.32 60.72 43.68 58.32 34.56 57.6"/><polyline class="cls-9" points="34.32 112.32 34.32 109.92 31.92 109.92 31.92 116.64 34.32 116.64 34.32 115.2 35.04 115.2 35.04 112.32 34.32 112.32"/><polyline class="cls-9" points="87.12 112.32 86.16 112.32 86.16 115.2 87.12 115.2 87.12 116.64 89.28 116.64 89.28 109.92 87.12 109.92 87.12 112.32"/><path class="cls-10" d="M316.53,274.08a4.72,4.72,0,0,1-4.56,4.56,4.56,4.56,0,0,1-4.56-4.56,4.41,4.41,0,0,1,4.56-4.56A4.56,4.56,0,0,1,316.53,274.08Z" transform="translate(-251.25 -161.04)"/><path class="cls-9" d="M316.53,274.08a4.72,4.72,0,0,1-4.56,4.56,4.56,4.56,0,0,1-4.56-4.56,4.41,4.41,0,0,1,4.56-4.56A4.56,4.56,0,0,1,316.53,274.08Z" transform="translate(-251.25 -161.04)"/><line class="cls-9" x1="60.72" y1="113.28" x2="60.72" y2="23.28"/><line class="cls-9" x1="88.8" y1="23.04" x2="88.8" y2="0.24"/><line class="cls-9" x1="32.4" y1="23.04" x2="32.4" y2="0.24"/><line class="cls-9" x1="32.4" y1="23.04" x2="88.8" y2="23.04"/><line class="cls-9" x1="32.4" y1="11.76" x2="88.8" y2="11.76"/><line class="cls-9" x1="32.4" y1="0.24" x2="88.8" y2="0.24"/><text class="cls-11" transform="translate(56.16 9.12)">1<tspan class="cls-12" x="4.32" y="0">4</tspan></text></g></g></svg>