<svg xmlns="http://www.w3.org/2000/svg" xmlns:xlink="http://www.w3.org/1999/xlink" viewBox="0 0 125.76 130.08"><defs><style>.cls-1,.cls-2,.cls-7,.cls-8,.cls-9{fill:none;}.cls-1{clip-rule:evenodd;}.cls-3{clip-path:url(#clip-path);}.cls-4{clip-path:url(#clip-path-2);}.cls-5{fill:#fff;}.cls-6{clip-path:url(#clip-path-3);}.cls-7,.cls-8,.cls-9{stroke:#000;stroke-linecap:round;stroke-linejoin:round;}.cls-7{stroke-width:0.24px;}.cls-8{stroke-width:0.96px;}.cls-9{stroke-width:0.48px;}</style><clipPath id="clip-path" transform="translate(-251.25 -218.4)"><path class="cls-1" d="M341,277v.72h35.52V277Zm-89.28,0v.72h31V277Z"/></clipPath><clipPath id="clip-path-2" transform="translate(-251.25 -218.4)"><rect class="cls-2" width="1191.12" height="841.92"/></clipPath><clipPath id="clip-path-3" transform="translate(-251.25 -218.4)"><path class="cls-1" d="M341,271v.72h35.52V271Zm-89.28,0v.72h31V271Z"/></clipPath></defs><title>Doors_AS1428_1</title><g id="Layer_2" data-name="Layer 2"><g id="Layer_1-2" data-name="Layer 1"><g class="cls-3"><g class="cls-4"><rect class="cls-5" x="0.48" y="58.56" width="124.8" height="0.72"/></g></g><g class="cls-6"><g class="cls-4"><rect class="cls-5" x="0.48" y="52.56" width="124.8" height="0.72"/></g></g><line class="cls-7" x1="9.6" y1="59.28" x2="9.36" y2="59.04"/><line class="cls-7" x1="115.68" y1="58.8" x2="115.44" y2="58.56"/><polyline class="cls-8" points="0.48 59.28 31.44 59.28 31.44 52.56 0.48 52.56 0.48 59.28"/><polyline class="cls-8" points="89.76 59.28 125.28 59.28 125.28 52.56 89.76 52.56 89.76 59.28"/><line class="cls-9" x1="31.44" y1="58.56" x2="0.48" y2="58.56"/><line class="cls-9" x1="125.28" y1="58.56" x2="89.76" y2="58.56"/><line class="cls-9" x1="31.44" y1="53.28" x2="0.48" y2="53.28"/><line class="cls-9" x1="125.28" y1="53.28" x2="89.76" y2="53.28"/><line class="cls-9" x1="4.32" y1="129.84" x2="10.56" y2="129.84"/><line class="cls-9" x1="16.08" y1="129.84" x2="27.36" y2="129.84"/><line class="cls-9" x1="33.12" y1="129.84" x2="44.4" y2="129.84"/><line class="cls-9" x1="50.16" y1="129.84" x2="61.44" y2="129.84"/><line class="cls-9" x1="67.2" y1="129.84" x2="78.48" y2="129.84"/><line class="cls-9" x1="84.24" y1="129.84" x2="95.52" y2="129.84"/><polyline class="cls-9" points="101.28 129.84 107.52 129.84 107.52 122.88"/><line class="cls-9" x1="107.52" y1="117.12" x2="107.52" y2="105.84"/><line class="cls-9" x1="107.52" y1="100.08" x2="107.52" y2="88.8"/><line class="cls-9" x1="107.52" y1="83.04" x2="107.52" y2="71.76"/><line class="cls-9" x1="107.52" y1="66.24" x2="107.52" y2="59.28"/><line class="cls-9" x1="4.32" y1="129.84" x2="4.32" y2="122.88"/><line class="cls-9" x1="4.32" y1="117.12" x2="4.32" y2="105.84"/><line class="cls-9" x1="4.32" y1="100.08" x2="4.32" y2="88.8"/><line class="cls-9" x1="4.32" y1="83.04" x2="4.32" y2="71.76"/><line class="cls-9" x1="4.32" y1="66.24" x2="4.32" y2="59.28"/><line class="cls-9" x1="89.28" y1="59.28" x2="89.28" y2="66.24"/><line class="cls-9" x1="89.28" y1="71.76" x2="89.28" y2="83.04"/><line class="cls-9" x1="89.28" y1="88.8" x2="89.28" y2="100.08"/><line class="cls-9" x1="89.28" y1="105.84" x2="89.28" y2="117.12"/><line class="cls-9" x1="89.28" y1="122.88" x2="89.28" y2="129.84"/><line class="cls-9" x1="31.92" y1="59.28" x2="31.92" y2="66.24"/><line class="cls-9" x1="31.92" y1="71.76" x2="31.92" y2="83.04"/><line class="cls-9" x1="31.92" y1="88.8" x2="31.92" y2="100.08"/><line class="cls-9" x1="31.92" y1="105.84" x2="31.92" y2="117.12"/><line class="cls-9" x1="31.92" y1="122.88" x2="31.92" y2="129.84"/><line class="cls-9" x1="27.84" y1="96.96" x2="29.04" y2="94.56"/><line class="cls-9" x1="25.68" y1="100.56" x2="27.84" y2="96.96"/><line class="cls-9" x1="23.52" y1="104.4" x2="25.68" y2="100.56"/><line class="cls-9" x1="20.16" y1="100.08" x2="23.52" y2="100.08"/><line class="cls-9" x1="16.8" y1="96.72" x2="16.8" y2="100.08"/><line class="cls-9" x1="16.8" y1="92.88" x2="16.8" y2="96.72"/><line class="cls-9" x1="20.16" y1="88.8" x2="16.8" y2="88.8"/><line class="cls-9" x1="27.84" y1="92.16" x2="29.04" y2="94.56"/><line class="cls-9" x1="25.68" y1="88.32" x2="27.84" y2="92.16"/><line class="cls-9" x1="16.8" y1="100.08" x2="20.16" y2="100.08"/><line class="cls-9" x1="16.8" y1="88.8" x2="16.8" y2="92.88"/><line class="cls-9" x1="23.52" y1="88.8" x2="20.16" y2="88.8"/><line class="cls-9" x1="23.52" y1="84.72" x2="23.52" y2="88.8"/><line class="cls-9" x1="23.52" y1="84.72" x2="25.68" y2="88.32"/><line class="cls-9" x1="23.52" y1="104.4" x2="23.52" y2="100.08"/><line class="cls-9" x1="36.72" y1="0.24" x2="34.56" y2="0.24"/><line class="cls-9" x1="36.72" y1="52.56" x2="34.56" y2="52.56"/><line class="cls-9" x1="36.72" y1="52.56" x2="36.72" y2="0.24"/><line class="cls-9" x1="34.56" y1="52.56" x2="34.56" y2="0.24"/><polyline class="cls-9" points="86.64 52.56 85.92 43.44 83.52 34.56 79.68 26.4 74.4 18.96 68.16 12.48 60.72 7.2 52.32 3.36 43.68 0.96 34.56 0.24"/><polyline class="cls-9" points="34.32 54.96 34.32 52.56 31.92 52.56 31.92 59.28 34.32 59.28 34.32 57.84 35.04 57.84 35.04 54.96 34.32 54.96"/><polyline class="cls-9" points="87.12 54.96 86.16 54.96 86.16 57.84 87.12 57.84 87.12 59.28 89.28 59.28 89.28 52.56 87.12 52.56 87.12 54.96"/></g></g></svg>