<svg xmlns="http://www.w3.org/2000/svg" viewBox="0 0 184.08 144.72"><defs><style>.cls-1{fill:none;stroke:red;stroke-linecap:round;stroke-linejoin:round;stroke-width:0.96px;}.cls-2{font-size:15.75px;font-family:ArialNarrow-Bold, Arial;}.cls-3{letter-spacing:-0.01em;}.cls-4{letter-spacing:0em;}.cls-5{letter-spacing:-0.01em;}.cls-6{letter-spacing:0.02em;}.cls-7{letter-spacing:0em;}.cls-8{letter-spacing:-0.01em;}.cls-9{letter-spacing:0em;}.cls-10{letter-spacing:0em;}.cls-11{letter-spacing:0.01em;}.cls-12{letter-spacing:-0.01em;}.cls-13{letter-spacing:0em;}.cls-14{letter-spacing:-0.01em;}.cls-15{letter-spacing:-0.01em;}.cls-16{letter-spacing:-0.01em;}.cls-17{letter-spacing:1.48em;}.cls-18,.cls-26{font-size:11.87px;font-family:ArialNarrow, Arial;}.cls-18{letter-spacing:-0.02em;}.cls-19{letter-spacing:-0.01em;}.cls-20{letter-spacing:-0.03em;}.cls-21{letter-spacing:0.01em;}.cls-22{letter-spacing:6.78em;}.cls-23{letter-spacing:0.01em;}.cls-24{letter-spacing:-0.02em;}.cls-25{letter-spacing:0em;}.cls-27{letter-spacing:-0.01em;}</style></defs><title>FireDepartmentSchedule</title><g id="Layer_2" data-name="Layer 2"><g id="Layer_1-2" data-name="Layer 1"><line class="cls-1" x1="183.6" y1="144.24" x2="0.48" y2="144.24"/><line class="cls-1" x1="183.6" y1="127.92" x2="0.48" y2="127.92"/><line class="cls-1" x1="183.6" y1="111.84" x2="0.48" y2="111.84"/><line class="cls-1" x1="183.6" y1="95.52" x2="0.48" y2="95.52"/><line class="cls-1" x1="183.6" y1="79.44" x2="0.48" y2="79.44"/><line class="cls-1" x1="183.6" y1="40.08" x2="0.48" y2="40.08"/><line class="cls-1" x1="183.6" y1="0.48" x2="0.48" y2="0.48"/><line class="cls-1" x1="183.6" y1="0.48" x2="183.6" y2="144.24"/><line class="cls-1" x1="111.6" y1="95.52" x2="111.6" y2="127.92"/><line class="cls-1" x1="111.6" y1="40.08" x2="111.6" y2="79.44"/><line class="cls-1" x1="0.48" y1="0.48" x2="0.48" y2="144.24"/><text class="cls-2" transform="translate(6.48 16.56)"><tspan class="cls-3">A02</tspan><tspan class="cls-4" x="23.07" y="0">-</tspan><tspan class="cls-3" x="27.38" y="0">2</tspan><tspan x="34.36" y="0"> </tspan><tspan class="cls-5" x="37.95" y="0">F</tspan><tspan class="cls-6" x="45.63" y="0">I</tspan><tspan class="cls-3" x="49.46" y="0">RE</tspan><tspan x="66.98" y="0"> </tspan><tspan class="cls-7" x="70.57" y="0">C</tspan><tspan class="cls-8" x="79.92" y="0">OM</tspan><tspan class="cls-4" x="100.31" y="0">P</tspan><tspan class="cls-5" x="108.94" y="0">ART</tspan><tspan class="cls-9" x="134.85" y="0">M</tspan><tspan class="cls-5" x="145.64" y="0">EN</tspan><tspan class="cls-10" x="163.16" y="0">T</tspan></text><text class="cls-2" transform="translate(5.52 34.56)"><tspan class="cls-3">-</tspan><tspan x="4.09" y="0"> </tspan><tspan class="cls-3" x="7.68" y="0">P</tspan><tspan class="cls-4" x="16.09" y="0">a</tspan><tspan class="cls-3" x="23.29" y="0">t</tspan><tspan x="27.38" y="0">i</tspan><tspan class="cls-3" x="30.97" y="0">e</tspan><tspan class="cls-4" x="37.95" y="0">n</tspan><tspan class="cls-5" x="45.85" y="0">t</tspan><tspan x="49.94" y="0"> </tspan><tspan class="cls-9" x="53.54" y="0">C</tspan><tspan class="cls-5" x="62.89" y="0">are</tspan><tspan class="cls-11" x="81.65" y="0"> </tspan><tspan class="cls-8" x="85.48" y="0">an</tspan><tspan class="cls-4" x="100.14" y="0">d</tspan><tspan x="108.04" y="0"> </tspan><tspan class="cls-5" x="111.64" y="0">Tr</tspan><tspan class="cls-4" x="124.14" y="0">e</tspan><tspan class="cls-12" x="131.33" y="0">a</tspan><tspan class="cls-8" x="138.29" y="0">t</tspan><tspan class="cls-13" x="142.39" y="0">m</tspan><tspan class="cls-8" x="153.9" y="0">en</tspan><tspan x="168.56" y="0">t</tspan></text><text class="cls-2" transform="translate(32.64 56.16)"><tspan class="cls-5">S</tspan><tspan class="cls-14" x="8.41" y="0">MO</tspan><tspan class="cls-5" x="28.83" y="0">K</tspan><tspan x="37.95" y="0">E</tspan></text><text class="cls-2" transform="translate(5.76 74.16)"><tspan class="cls-15">CO</tspan><tspan class="cls-9" x="18.99" y="0">M</tspan><tspan class="cls-5" x="29.78" y="0">P</tspan><tspan class="cls-15" x="38.18" y="0">A</tspan><tspan class="cls-9" x="47.31" y="0">R</tspan><tspan class="cls-15" x="56.66" y="0">TM</tspan><tspan class="cls-4" x="74.93" y="0">E</tspan><tspan class="cls-16" x="83.56" y="0">N</tspan><tspan class="cls-17" x="92.69" y="0">T</tspan><tspan class="cls-16" x="123.88" y="0">ARE</tspan><tspan x="150.56" y="0">A</tspan></text><text class="cls-18" transform="translate(3.12 107.52)">A<tspan class="cls-19" x="6.25" y="0">0</tspan><tspan class="cls-20" x="11.54" y="0">2</tspan><tspan class="cls-21" x="16.58" y="0">-</tspan><tspan class="cls-19" x="19.94" y="0">2</tspan><tspan class="cls-22" x="25.22" y="0">a</tspan><tspan class="cls-20" x="111.14" y="0">7</tspan><tspan class="cls-19" x="116.18" y="0">0</tspan><tspan class="cls-20" x="121.47" y="0">4</tspan><tspan class="cls-23" x="126.51" y="0"> </tspan><tspan class="cls-24" x="129.38" y="0">m</tspan><tspan class="cls-25" x="137.31" y="0">²</tspan></text><text class="cls-18" transform="translate(3.12 123.84)">A<tspan class="cls-19" x="6.25" y="0">0</tspan><tspan class="cls-20" x="11.54" y="0">2</tspan><tspan class="cls-21" x="16.58" y="0">-</tspan><tspan class="cls-19" x="19.94" y="0">2</tspan><tspan class="cls-22" x="25.22" y="0">b</tspan><tspan class="cls-20" x="111.14" y="0">8</tspan><tspan class="cls-19" x="116.18" y="0">9</tspan><tspan class="cls-20" x="121.47" y="0">6</tspan><tspan class="cls-23" x="126.51" y="0"> </tspan><tspan class="cls-24" x="129.38" y="0">m</tspan><tspan class="cls-25" x="137.31" y="0">²</tspan></text><text class="cls-26" transform="translate(114.24 139.92)"><tspan class="cls-20">1</tspan><tspan class="cls-27" x="5.04" y="0">60</tspan><tspan class="cls-20" x="15.56" y="0">0</tspan><tspan class="cls-23" x="20.61" y="0"> </tspan><tspan class="cls-27" x="23.48" y="0">m</tspan><tspan x="31.43" y="0">²</tspan></text></g></g></svg>