<?xml version="1.0" encoding="utf-8"?>
<!-- Generator: Adobe Illustrator 22.0.1, SVG Export Plug-In . SVG Version: 6.00 Build 0)  -->
<svg version="1.1" id="Layer_1" xmlns="http://www.w3.org/2000/svg" xmlns:xlink="http://www.w3.org/1999/xlink" x="0px" y="0px"
	 viewBox="0 0 529.8 608.7" style="enable-background:new 0 0 529.8 608.7;" xml:space="preserve">
<style type="text/css">
	.st0{fill:none;stroke:#000000;stroke-width:0.72;stroke-linecap:round;stroke-linejoin:round;}
	.st1{fill:#333333;}
	.st2{font-family:'HelveticaNeueLTCom-Lt';}
	.st3{font-size:24px;}
	.st4{fill:none;stroke:#000000;}
	.st5{fill:none;stroke:#000000;stroke-miterlimit:10;}
</style>
<title>KeyPlan</title>
<polygon class="st0" points="409.3,181.8 406.2,198.6 499.1,213.5 502,195.5 460.2,188.7 469.6,177.5 459.2,169.1 444.1,187.5 "/>
<polygon class="st0" points="454.7,342.6 481.1,368.3 520.4,328.2 512,319.8 485.2,335.4 472.4,324.3 493.8,294.6 481.8,289.3 
	454.4,317.1 "/>
<line class="st0" x1="97.6" y1="485.1" x2="159" y2="539.9"/>
<line class="st0" x1="111.2" y1="497.4" x2="114.1" y2="500"/>
<polyline class="st0" points="159,539.9 212.5,515.6 238.2,464.3 244.7,419.9 223.3,415.8 144.1,398 "/>
<line class="st0" x1="121.3" y1="462.1" x2="97.6" y2="485.1"/>
<polygon class="st0" points="152.5,353.1 141,376.9 94.4,362.3 68.8,395.6 67.8,438.6 96.1,489 61.1,503.9 86.5,526.7 77.9,538.7 
	50.3,513.5 20.3,441.7 25.3,413.1 27.2,402.1 29.4,390.6 34,364.4 78.6,316.2 "/>
<polygon class="st0" points="146.8,180.8 174.6,181.1 174.6,194 146.8,194 "/>
<polygon class="st0" points="416.5,162.6 380.8,159.2 379.6,173.4 407.4,176.3 415.1,177 "/>
<polygon class="st0" points="528.6,418.4 411.2,435.5 438.6,459.5 528.1,459.5 "/>
<polygon class="st0" points="486.6,46.7 367.8,46.9 367.8,68.5 385.3,68.5 375.7,106.9 403.8,112.2 403.8,97.1 463.8,97.1 
	463.8,78.3 486.6,78.3 "/>
<polygon class="st0" points="326.3,483.9 377.2,484.2 377.2,511.5 366.1,511.8 365.4,552.8 326.3,552.8 "/>
<polygon class="st0" points="319.1,116.7 341.6,75.7 319.1,58.2 248,99.9 248,93.5 232.9,93.5 232.9,141.5 248.3,141.5 248,110.7 
	257.4,105.5 281.9,147.9 "/>
<polygon class="st0" points="199.6,181.1 181.8,181.1 181.8,230 199.6,229.8 "/>
<line class="st0" x1="199.6" y1="187.8" x2="199.8" y2="187.8"/>
<polygon class="st0" points="463.1,476.3 402.4,476.3 402.4,511.8 463.1,512 "/>
<polygon class="st0" points="527.9,603 527.6,488.7 477,488.5 477,603 "/>
<line class="st0" x1="418.9" y1="547.8" x2="388" y2="547.8"/>
<rect x="392.5" y="521.1" class="st0" width="39.8" height="17.8"/>
<polyline class="st0" points="388,547.8 388,565.5 418.9,565.5 418.9,547.8 "/>
<polygon class="st0" points="173.2,201 153.5,201 153.5,208.2 160.4,208.4 160.2,229.8 173.2,230 "/>
<polyline class="st0" points="126.8,263.1 105.5,305.6 170.3,337.8 211.8,333.5 261.7,358.4 "/>
<polyline class="st0" points="250.9,353.1 274.2,306.1 246.1,291.9 "/>
<polyline class="st0" points="244,425.4 320.3,425.4 320.3,449.1 393.2,449.1 "/>
<polygon class="st0" points="316.4,471.7 277.3,471.7 194.3,577.5 229.6,605.1 316.7,604.9 "/>
<line class="st0" x1="254.5" y1="413.6" x2="254.8" y2="413.6"/>
<polyline class="st0" points="144.1,398 137.2,434.5 239.4,456.1 "/>
<polyline class="st0" points="121.3,462.1 132.6,472.4 142.2,453.2 212.5,515.6 "/>
<polyline class="st0" points="177,531.7 123.7,483.2 132.6,472.4 "/>
<line class="st0" x1="173.4" y1="442.2" x2="162.1" y2="470.7"/>
<line class="st0" x1="150.1" y1="437.1" x2="142.2" y2="453.2"/>
<polyline class="st0" points="261.7,358.4 393.2,358.4 393.2,449.1 "/>
<line class="st0" x1="170.3" y1="337.8" x2="152.5" y2="353.1"/>
<polyline class="st0" points="34.4,527.4 7.8,465.7 7.3,431.6 21.7,433.5 "/>
<line class="st0" x1="34.4" y1="527.4" x2="50" y2="513.2"/>
<line class="st0" x1="246.1" y1="291.9" x2="164.8" y2="250.8"/>
<line class="st0" x1="126.8" y1="263.1" x2="164.8" y2="250.8"/>
<line class="st0" x1="363.7" y1="333.2" x2="393.2" y2="275.2"/>
<polyline class="st0" points="354.1,253.9 333.9,297 260.4,260.2 279.7,218.5 242.4,201 213,260.2 364,333.2 "/>
<line class="st0" x1="354.1" y1="253.9" x2="393.2" y2="275.2"/>
<text transform="matrix(1 0 0 1 411.536 72.5208)" class="st1 st2 st3">Z1</text>
<text transform="matrix(1 0 0 1 287.2798 267.1039)" class="st1 st2 st3">TB1</text>
<text transform="matrix(1 0 0 1 57.6671 355.6162)" class="st1 st2 st3">WBL</text>
<text transform="matrix(1 0 0 1 342.621 413.629)" class="st1 st2 st3">EBL</text>
<rect x="394.1" y="3.5" class="st4" width="78.6" height="34.1"/>
<text transform="matrix(1 0 0 1 416.771 28.4098)" class="st1 st2 st3">Z2</text>
<rect x="8.2" y="218.6" class="st5" width="98.8" height="48.5"/>
<text transform="matrix(1 0 0 1 34.027 254.5327)" class="st1 st2 st3">MSC</text>
<text transform="matrix(1 0 0 1 160.6801 310.7888)" class="st1 st2 st3">NBL</text>
<text transform="matrix(1 0 0 1 177 477.4554)" class="st1 st2 st3">SBL</text>
</svg>
