<?xml version="1.0" encoding="utf-8"?>
<svg viewBox="0 -46.308746337890625 529.8338012695312 608.7374572753906" xmlns="http://www.w3.org/2000/svg">
  <defs>
    <style>.cls-1{fill:none;stroke:#000;stroke-linecap:round;stroke-linejoin:round;stroke-width:0.72px;}</style>
  </defs>
  <title>KeyPlan</title>
  <g id="Layer_2" data-name="Layer 2">
    <g id="Layer_1-2" data-name="Layer 1">
      <polygon class="cls-1" points="409.32 135.48 406.2 152.28 499.08 167.16 501.96 149.16 460.2 142.44 469.56 131.16 459.24 122.76 444.12 141.24 409.32 135.48"/>
      <polygon class="cls-1" points="454.68 296.28 481.08 321.96 520.44 281.88 512.04 273.48 485.16 289.08 472.44 278.04 493.8 248.28 481.8 243 454.44 270.84 454.68 296.28"/>
      <line class="cls-1" x1="97.56" y1="438.84" x2="159" y2="493.56"/>
      <line class="cls-1" x1="111.24" y1="451.08" x2="114.12" y2="453.72"/>
      <polyline class="cls-1" points="159 493.56 212.52 469.32 238.2 417.96 244.68 373.56 223.32 369.48 144.12 351.72"/>
      <line class="cls-1" x1="121.32" y1="415.8" x2="97.56" y2="438.84"/>
      <polygon class="cls-1" points="152.52 306.84 141 330.6 94.44 315.96 68.76 349.32 67.8 392.28 96.12 442.68 61.08 457.56 86.52 480.36 77.88 492.36 50.28 467.16 20.28 395.4 25.32 366.84 27.24 355.8 29.4 344.28 33.96 318.12 78.6 269.88 152.52 306.84"/>
      <polygon class="cls-1" points="21 166.68 51.48 177.96 62.52 155.64 92.04 170.52 51 251.88 32.76 242.76 39.96 228.12 0.36 208.2 21 166.68"/>
      <polygon class="cls-1" points="146.76 134.52 174.6 134.76 174.6 147.72 146.76 147.72 146.76 134.52"/>
      <polygon class="cls-1" points="416.52 116.28 380.76 112.92 379.56 127.08 407.4 129.96 415.08 130.68 416.52 116.28"/>
      <polygon class="cls-1" points="528.6 372.12 411.24 389.16 438.6 413.16 528.12 413.16 528.6 372.12"/>
      <polygon class="cls-1" points="486.6 0.36 367.8 0.6 367.8 22.2 385.32 22.2 375.72 60.6 403.8 65.88 403.8 50.76 463.8 50.76 463.8 32.04 486.6 32.04 486.6 0.36"/>
      <polygon class="cls-1" points="326.28 437.64 377.16 437.88 377.16 465.24 366.12 465.48 365.4 506.52 326.28 506.52 326.28 437.64"/>
      <polygon class="cls-1" points="319.08 70.44 341.64 29.4 319.08 11.88 248.04 53.64 248.04 47.16 232.92 47.16 232.92 95.16 248.28 95.16 248.04 64.44 257.4 59.16 281.88 101.64 319.08 70.44"/>
      <polygon class="cls-1" points="199.56 134.76 181.8 134.76 181.8 183.72 199.56 183.48 199.56 134.76"/>
      <line class="cls-1" x1="199.56" y1="141.48" x2="199.8" y2="141.48"/>
      <polygon class="cls-1" points="463.08 429.96 402.36 429.96 402.36 465.48 463.08 465.72 463.08 429.96"/>
      <polygon class="cls-1" points="527.88 556.68 527.64 442.44 477 442.2 477 556.68 527.88 556.68"/>
      <line class="cls-1" x1="418.92" y1="501.48" x2="387.96" y2="501.48"/>
      <rect class="cls-1" x="392.52" y="474.84" width="39.84" height="17.76"/>
      <polyline class="cls-1" points="387.96 501.48 387.96 519.24 418.92 519.24 418.92 501.48"/>
      <polygon class="cls-1" points="173.16 154.68 153.48 154.68 153.48 161.88 160.44 162.12 160.2 183.48 173.16 183.72 173.16 154.68"/>
      <polyline class="cls-1" points="126.84 216.84 105.48 259.32 170.28 291.48 211.8 287.16 261.72 312.12"/>
      <polyline class="cls-1" points="250.92 306.84 274.2 259.8 246.12 245.64"/>
      <polyline class="cls-1" points="243.96 379.08 320.28 379.08 320.28 402.84 393.24 402.84"/>
      <polygon class="cls-1" points="316.44 425.4 277.32 425.4 194.28 531.24 229.56 558.84 316.68 558.6 316.44 425.4"/>
      <line class="cls-1" x1="254.52" y1="367.32" x2="254.76" y2="367.32"/>
      <polyline class="cls-1" points="144.12 351.72 137.16 388.2 239.4 409.8"/>
      <polyline class="cls-1" points="121.32 415.8 132.6 426.12 142.2 406.92 212.52 469.32"/>
      <polyline class="cls-1" points="177 485.4 123.72 436.92 132.6 426.12"/>
      <line class="cls-1" x1="173.4" y1="395.88" x2="162.12" y2="424.44"/>
      <line class="cls-1" x1="150.12" y1="390.84" x2="142.2" y2="406.92"/>
      <polyline class="cls-1" points="261.72 312.12 393.24 312.12 393.24 402.84"/>
      <line class="cls-1" x1="170.28" y1="291.48" x2="152.52" y2="306.84"/>
      <polyline class="cls-1" points="34.44 481.08 7.8 419.4 7.32 385.32 21.72 387.24"/>
      <line class="cls-1" x1="34.44" y1="481.08" x2="50.04" y2="466.92"/>
      <line class="cls-1" x1="246.12" y1="245.64" x2="164.75" y2="204.54"/>
      <line class="cls-1" x1="126.84" y1="216.84" x2="164.75" y2="204.54"/>
      <line class="cls-1" x1="212.73" y1="159.24" x2="212.73" y2="213.91"/>
      <line class="cls-1" x1="363.73" y1="286.91" x2="393.24" y2="228.91"/>
      <polyline class="cls-1" points="354.07 207.57 333.86 250.66 260.44 213.91 279.68 172.24 242.35 154.68 213.01 213.91 364.01 286.91"/>
      <line class="cls-1" x1="354.07" y1="207.57" x2="393.24" y2="228.91"/>
      <line class="cls-1" x1="212.73" y1="159.24" x2="235.16" y2="169.2"/>
    </g>
  </g>
  <text x="411.536" y="26.212" style="white-space: pre; fill: rgb(51, 51, 51); font-family: sans-serif; font-size: 24px;">Z1</text>
  <text x="353.869" y="249.893" style="white-space: pre; fill: rgb(51, 51, 51); font-family: sans-serif; font-size: 24px;">K</text>
  <text x="72.521" y="309.307" style="white-space: pre; fill: rgb(51, 51, 51); font-family: sans-serif; font-size: 24px;">A</text>
  <text x="42.814" y="352.995" style="white-space: pre; fill: rgb(51, 51, 51); font-family: sans-serif; font-size: 24px;">B</text>
  <text x="57.667" y="426.39" style="white-space: pre; fill: rgb(51, 51, 51); font-family: sans-serif; font-size: 24px;">C</text>
  <text x="149.507" y="449.107" style="white-space: pre; fill: rgb(51, 51, 51); font-family: sans-serif; font-size: 24px;">D</text>
  <text x="155.527" y="385.324" style="white-space: pre; fill: rgb(51, 51, 51); font-family: sans-serif; font-size: 24px;">E</text>
  <text x="354.742" y="338.909" style="white-space: pre; fill: rgb(51, 51, 51); font-family: sans-serif; font-size: 24px;">I</text>
  <text x="352.121" y="377.46" style="white-space: pre; fill: rgb(51, 51, 51); font-family: sans-serif; font-size: 24px;">H</text>
  <rect x="394.061" y="-42.814" width="78.637" height="34.076" style="fill: none; fill-rule: evenodd; stroke: rgb(0, 0, 0);"/>
  <text x="416.771" y="-17.899" style="white-space: pre; fill: rgb(51, 51, 51); font-family: sans-serif; font-size: 24px;">Z2</text>
</svg>