<svg xmlns="http://www.w3.org/2000/svg" xmlns:xlink="http://www.w3.org/1999/xlink" viewBox="0 0 148.56 59.52"><defs><style>.cls-1,.cls-2,.cls-7,.cls-8,.cls-9{fill:none;}.cls-1{clip-rule:evenodd;}.cls-3{clip-path:url(#clip-path);}.cls-4{clip-path:url(#clip-path-2);}.cls-5{fill:#fff;}.cls-6{clip-path:url(#clip-path-3);}.cls-7,.cls-8,.cls-9{stroke:#000;stroke-linecap:round;stroke-linejoin:round;}.cls-7{stroke-width:0.24px;}.cls-8{stroke-width:0.96px;}.cls-9{stroke-width:0.48px;}</style><clipPath id="clip-path" transform="translate(-162.69 -8.4)"><path class="cls-1" d="M271.17,66.72v.72h39.6v-.72Zm-108,0v.72h23.76v-.72Z"/></clipPath><clipPath id="clip-path-2" transform="translate(-162.69 -8.4)"><rect class="cls-2" width="1191.12" height="841.92"/></clipPath><clipPath id="clip-path-3" transform="translate(-162.69 -8.4)"><path class="cls-1" d="M271.17,61v.72h39.6V61Zm-108,0v.72h23.76V61Z"/></clipPath></defs><title>TypicalDoor_DoorHalf</title><g id="Layer_2" data-name="Layer 2"><g id="Layer_1-2" data-name="Layer 1"><g class="cls-3"><g class="cls-4"><rect class="cls-5" x="0.48" y="58.32" width="147.6" height="0.72"/></g></g><g class="cls-6"><g class="cls-4"><rect class="cls-5" x="0.48" y="52.56" width="147.6" height="0.72"/></g></g><line class="cls-7" x1="13.68" y1="59.04" x2="13.44" y2="59.04"/><polyline class="cls-8" points="0.48 59.04 24.24 59.04 24.24 52.56 0.48 52.56 0.48 59.04"/><polyline class="cls-8" points="108.48 59.04 148.08 59.04 148.08 52.56 108.48 52.56 108.48 59.04"/><line class="cls-9" x1="24.24" y1="58.32" x2="0.48" y2="58.32"/><line class="cls-9" x1="148.08" y1="58.32" x2="108.48" y2="58.32"/><line class="cls-9" x1="24.24" y1="53.28" x2="0.48" y2="53.28"/><line class="cls-9" x1="148.08" y1="53.28" x2="108.48" y2="53.28"/><line class="cls-9" x1="102.96" y1="26.88" x2="105.36" y2="26.88"/><line class="cls-9" x1="102.96" y1="52.56" x2="105.36" y2="52.56"/><line class="cls-9" x1="102.96" y1="52.56" x2="102.96" y2="26.88"/><line class="cls-9" x1="105.36" y1="52.56" x2="105.36" y2="26.88"/><polyline class="cls-9" points="79.92 52.56 80.64 45.84 83.28 39.6 87.36 34.32 92.64 30.48 98.64 27.84 105.36 26.88"/><line class="cls-9" x1="29.76" y1="0.24" x2="27.36" y2="0.24"/><line class="cls-9" x1="29.76" y1="52.56" x2="27.36" y2="52.56"/><line class="cls-9" x1="29.76" y1="52.56" x2="29.76" y2="0.24"/><line class="cls-9" x1="27.36" y1="52.56" x2="27.36" y2="0.24"/><polyline class="cls-9" points="79.44 52.56 78.72 43.44 76.32 34.56 72.48 26.4 67.44 18.96 60.96 12.48 53.52 7.2 45.12 3.36 36.48 1.2 27.36 0.24"/><polyline class="cls-9" points="27.12 54.96 27.12 52.56 24.72 52.56 24.72 59.04 27.12 59.04 27.12 57.84 27.84 57.84 27.84 54.96 27.12 54.96"/><polyline class="cls-9" points="105.6 54.96 104.88 54.96 104.88 57.84 105.6 57.84 105.6 59.04 108 59.04 108 52.56 105.6 52.56 105.6 54.96"/></g></g></svg>