<svg xmlns="http://www.w3.org/2000/svg" xmlns:xlink="http://www.w3.org/1999/xlink" viewBox="0 0 148.32 59.52"><defs><style>.cls-1,.cls-2,.cls-7,.cls-8,.cls-9{fill:none;}.cls-1{clip-rule:evenodd;}.cls-3{clip-path:url(#clip-path);}.cls-4{clip-path:url(#clip-path-2);}.cls-5{fill:#fff;}.cls-6{clip-path:url(#clip-path-3);}.cls-7,.cls-8,.cls-9{stroke:#000;stroke-linecap:round;stroke-linejoin:round;}.cls-7{stroke-width:0.24px;}.cls-8{stroke-width:0.96px;}.cls-9{stroke-width:0.48px;}</style><clipPath id="clip-path" transform="translate(-378.21 -8.4)"><path class="cls-1" d="M499.89,66.72v.72H526v-.72Zm-121.2,0v.72H389v-.72Z"/></clipPath><clipPath id="clip-path-2" transform="translate(-378.21 -8.4)"><rect class="cls-2" width="1191.12" height="841.92"/></clipPath><clipPath id="clip-path-3" transform="translate(-378.21 -8.4)"><path class="cls-1" d="M499.89,61v.72H526V61Zm-121.2,0v.72H389V61Z"/></clipPath></defs><title>TypicalDoor_Double</title><g id="Layer_2" data-name="Layer 2"><g id="Layer_1-2" data-name="Layer 1"><g class="cls-3"><g class="cls-4"><rect class="cls-5" x="0.48" y="58.32" width="147.36" height="0.72"/></g></g><g class="cls-6"><g class="cls-4"><rect class="cls-5" x="0.48" y="52.56" width="147.36" height="0.72"/></g></g><line class="cls-7" x1="7.44" y1="58.56" x2="7.44" y2="58.32"/><line class="cls-7" x1="4.56" y1="58.32" x2="4.08" y2="59.04"/><line class="cls-7" x1="130.8" y1="53.28" x2="130.56" y2="53.04"/><polyline class="cls-8" points="0.48 59.04 10.8 59.04 10.8 52.56 0.48 52.56 0.48 59.04"/><polyline class="cls-8" points="121.68 59.04 147.84 59.04 147.84 52.56 121.68 52.56 121.68 59.04"/><line class="cls-9" x1="10.8" y1="58.32" x2="0.48" y2="58.32"/><line class="cls-9" x1="147.84" y1="58.32" x2="121.68" y2="58.32"/><line class="cls-9" x1="10.8" y1="53.28" x2="0.48" y2="53.28"/><line class="cls-9" x1="147.84" y1="53.28" x2="121.68" y2="53.28"/><line class="cls-9" x1="116.4" y1="0.24" x2="118.56" y2="0.24"/><line class="cls-9" x1="116.4" y1="52.56" x2="118.56" y2="52.56"/><line class="cls-9" x1="116.4" y1="52.56" x2="116.4" y2="0.24"/><line class="cls-9" x1="118.56" y1="52.56" x2="118.56" y2="0.24"/><polyline class="cls-9" points="66.48 52.56 67.2 43.44 69.6 34.56 73.44 26.4 78.72 18.96 84.96 12.48 92.4 7.2 100.8 3.36 109.44 1.2 118.56 0.24"/><line class="cls-9" x1="16.32" y1="0.24" x2="13.92" y2="0.24"/><line class="cls-9" x1="16.32" y1="52.56" x2="13.92" y2="52.56"/><line class="cls-9" x1="16.32" y1="52.56" x2="16.32" y2="0.24"/><line class="cls-9" x1="13.92" y1="52.56" x2="13.92" y2="0.24"/><polyline class="cls-9" points="66.24 52.56 65.28 43.44 62.88 34.56 59.04 26.4 54 18.96 47.52 12.48 40.08 7.2 31.92 3.36 23.04 1.2 13.92 0.24"/><polyline class="cls-9" points="118.8 54.96 118.08 54.96 118.08 57.84 118.8 57.84 118.8 59.04 121.2 59.04 121.2 52.56 118.8 52.56 118.8 54.96"/><polyline class="cls-9" points="13.68 54.96 13.68 52.56 11.52 52.56 11.52 59.04 13.68 59.04 13.68 57.84 14.64 57.84 14.64 54.96 13.68 54.96"/></g></g></svg>