<svg xmlns="http://www.w3.org/2000/svg" xmlns:xlink="http://www.w3.org/1999/xlink" viewBox="0 0 148.35 46.99"><defs><style>.cls-1,.cls-2,.cls-7,.cls-8,.cls-9{fill:none;}.cls-1{clip-rule:evenodd;}.cls-3{clip-path:url(#clip-path);}.cls-4{clip-path:url(#clip-path-2);}.cls-5{fill:#fff;}.cls-6{clip-path:url(#clip-path-3);}.cls-7,.cls-8,.cls-9{stroke:#000;stroke-linecap:round;stroke-linejoin:round;}.cls-7{stroke-width:0.24px;}.cls-8{stroke-width:0.96px;}.cls-9{stroke-width:0.48px;}</style><clipPath id="clip-path" transform="translate(-289.31 -295.5)"><path class="cls-1" d="M395.39,340.57v.72l41.76.23v-.72ZM289.79,340v.72l25.68.14v-.72Z"/></clipPath><clipPath id="clip-path-2" transform="translate(-289.31 -295.5)"><rect class="cls-2" x="176.92" y="-171.31" width="841.92" height="1191.12" transform="translate(170.33 1019.78) rotate(-89.68)"/></clipPath><clipPath id="clip-path-3" transform="translate(-289.31 -295.5)"><path class="cls-1" d="M395.42,334.57v.72l41.76.23v-.72ZM289.83,334v.72l25.68.14v-.72Z"/></clipPath></defs><title>DoorsExisting_DoubleEqual</title><g id="Layer_2" data-name="Layer 2"><g id="Layer_1-2" data-name="Layer 1"><g class="cls-3"><g class="cls-4"><rect class="cls-5" x="363.11" y="267.07" width="0.72" height="147.36" transform="translate(-268.6 406.83) rotate(-89.68)"/></g></g><g class="cls-6"><g class="cls-4"><rect class="cls-5" x="363.14" y="261.07" width="0.72" height="147.36" transform="translate(-262.57 400.89) rotate(-89.68)"/></g></g><line class="cls-7" x1="5.76" y1="44.75" x2="6.72" y2="44.76"/><line class="cls-7" x1="23.04" y1="44.85" x2="24" y2="44.85"/><line class="cls-7" x1="132.48" y1="45.45" x2="133.44" y2="45.46"/><line class="cls-7" x1="5.76" y1="45.23" x2="5.76" y2="45.23"/><line class="cls-7" x1="111.84" y1="45.58" x2="111.6" y2="45.1"/><line class="cls-7" x1="18.48" y1="44.58" x2="18.24" y2="44.82"/><line class="cls-7" x1="0.51" y1="38.96" x2="0.99" y2="38.97"/><line class="cls-7" x1="115.23" y1="39.6" x2="116.19" y2="39.6"/><line class="cls-7" x1="126.75" y1="39.66" x2="127.71" y2="39.67"/><line class="cls-7" x1="147.87" y1="40.02" x2="147.87" y2="40.02"/><line class="cls-7" x1="8.68" y1="38.53" x2="8.19" y2="39.01"/><polyline class="cls-8" points="0.48 45.2 26.16 45.35 26.2 38.63 0.52 38.48 0.48 45.2"/><polyline class="cls-8" points="106.08 45.79 147.84 46.02 147.88 39.3 106.12 39.07 106.08 45.79"/><line class="cls-9" x1="26.16" y1="44.63" x2="0.48" y2="44.48"/><line class="cls-9" x1="147.84" y1="45.3" x2="106.08" y2="45.07"/><line class="cls-9" x1="26.19" y1="39.35" x2="0.51" y2="39.2"/><line class="cls-9" x1="147.87" y1="40.02" x2="106.11" y2="39.79"/><line class="cls-7" x1="30.97" y1="0.25" x2="30.76" y2="37.93"/><line class="cls-7" x1="28.6" y1="37.92" x2="28.81" y2="0.24"/><line class="cls-7" x1="101.77" y1="0.64" x2="101.56" y2="38.32"/><line class="cls-7" x1="103.96" y1="38.34" x2="104.17" y2="0.66"/><line class="cls-7" x1="30.76" y1="37.93" x2="28.6" y2="37.92"/><line class="cls-7" x1="28.81" y1="0.24" x2="30.97" y2="0.25"/><line class="cls-7" x1="101.56" y1="38.32" x2="103.96" y2="38.34"/><line class="cls-7" x1="104.17" y1="0.66" x2="101.77" y2="0.64"/><line class="cls-9" x1="26.16" y1="45.35" x2="26.2" y2="38.63"/><line class="cls-9" x1="106.08" y1="45.79" x2="106.12" y2="39.07"/><polyline class="cls-9" points="28.81 0.24 36.96 1.25 45.11 4.17 52.04 8.53 58.01 14.56 62.53 21.79 65.13 29.72 66.04 38.13"/><polyline class="cls-9" points="104.17 0.66 95.76 1.57 87.83 4.41 80.6 8.69 74.57 14.65 70.21 21.83 67.29 29.73 66.28 38.13"/><polyline class="cls-9" points="103.95 40.5 103.23 40.49 103.23 40.73 103.21 44.33 103.93 44.34 103.92 44.58 103.91 46.5 104.15 46.5 104.15 46.74 106.07 46.75 106.31 46.51 106.32 46.03 106.08 46.03 106.07 46.51 104.15 46.5 104.17 44.34 103.93 44.34 103.21 44.33 103.23 40.73 104.19 40.74 104.19 40.5 104.2 38.34 106.12 38.35 106.12 39.07 106.36 39.07 106.36 38.35 106.12 38.35 104.2 38.34 103.96 38.34 103.95 40.5"/><polyline class="cls-9" points="28.36 37.92 28.36 37.92 26.2 37.91 26.2 38.63 26.2 37.91 28.36 37.92 28.35 40.08 28.35 40.32 29.07 40.32 29.05 43.92 28.33 43.92 28.32 46.08 26.16 46.07 26.16 45.59 26.16 46.07 26.15 46.31 28.31 46.32 28.32 46.08 28.33 44.16 28.33 43.92 29.05 43.92 29.29 43.92 29.31 40.32 29.31 40.08 29.07 40.08 28.35 40.08 28.36 37.92"/><line class="cls-9" x1="103.96" y1="38.34" x2="101.56" y2="38.32"/><line class="cls-9" x1="30.76" y1="37.93" x2="28.6" y2="37.92"/></g></g></svg>